<?xml version="1.0" encoding="UTF-8" standalone="no"?>
<!DOCTYPE svg PUBLIC "-//W3C//DTD SVG 1.1//EN"
 "http://www.w3.org/Graphics/SVG/1.1/DTD/svg11.dtd">
<!-- Generated by graphviz version 2.43.0 (0)
 -->
<!-- Title: libraries/AP_InertialSensor/AP_InertialSensor_Backend.h Pages: 1 -->
<svg width="3203pt" height="170pt"
 viewBox="0.00 0.00 3203.00 170.00" xmlns="http://www.w3.org/2000/svg" xmlns:xlink="http://www.w3.org/1999/xlink">
<g id="graph0" class="graph" transform="scale(1 1) rotate(0) translate(4 166)">
<title>libraries/AP_InertialSensor/AP_InertialSensor_Backend.h</title>
<!-- Node1 -->
<g id="Node000001" class="node">
<title>Node1</title>
<g id="a_Node000001"><a xlink:title=" ">
<polygon fill="#999999" stroke="#666666" points="1863.5,-162 1702.5,-162 1702.5,-132 1863.5,-132 1863.5,-162"/>
<text text-anchor="start" x="1710.5" y="-150" font-family="Helvetica,sans-Serif" font-size="10.00">libraries/AP_InertialSensor</text>
<text text-anchor="middle" x="1783" y="-139" font-family="Helvetica,sans-Serif" font-size="10.00">/AP_InertialSensor_Backend.h</text>
</a>
</g>
</g>
<!-- Node2 -->
<g id="Node000002" class="node">
<title>Node2</title>
<g id="a_Node000002"><a xlink:href="AP__InertialSensor_8cpp.html" target="_top" xlink:title=" ">
<polygon fill="white" stroke="#666666" points="1841.5,-30 1696.5,-30 1696.5,0 1841.5,0 1841.5,-30"/>
<text text-anchor="start" x="1704.5" y="-18" font-family="Helvetica,sans-Serif" font-size="10.00">libraries/AP_InertialSensor</text>
<text text-anchor="middle" x="1769" y="-7" font-family="Helvetica,sans-Serif" font-size="10.00">/AP_InertialSensor.cpp</text>
</a>
</g>
</g>
<!-- Node1&#45;&gt;Node2 -->
<g id="edge1_Node000001_Node000002" class="edge">
<title>Node1&#45;&gt;Node2</title>
<g id="a_edge1_Node000001_Node000002"><a xlink:title=" ">
<path fill="none" stroke="#63b8ff" d="M1758.99,-124.18C1751.78,-116.11 1744.78,-106.39 1741,-96 1732.64,-73.05 1746.89,-46.22 1757.95,-30.2"/>
<polygon fill="#63b8ff" stroke="#63b8ff" points="1756.71,-126.86 1766.16,-131.65 1761.76,-122.01 1756.71,-126.86"/>
</a>
</g>
</g>
<!-- Node3 -->
<g id="Node000003" class="node">
<title>Node3</title>
<g id="a_Node000003"><a xlink:href="AP__InertialSensor__ADIS1647x_8h.html" target="_top" xlink:title=" ">
<polygon fill="white" stroke="#666666" points="600.5,-96 427.5,-96 427.5,-66 600.5,-66 600.5,-96"/>
<text text-anchor="start" x="435.5" y="-84" font-family="Helvetica,sans-Serif" font-size="10.00">libraries/AP_InertialSensor</text>
<text text-anchor="middle" x="514" y="-73" font-family="Helvetica,sans-Serif" font-size="10.00">/AP_InertialSensor_ADIS1647x.h</text>
</a>
</g>
</g>
<!-- Node1&#45;&gt;Node3 -->
<g id="edge2_Node000001_Node000003" class="edge">
<title>Node1&#45;&gt;Node3</title>
<g id="a_edge2_Node000001_Node000003"><a xlink:title=" ">
<path fill="none" stroke="#63b8ff" d="M1692.43,-145.29C1495.24,-143.05 1012.43,-133.82 610,-96 606.9,-95.71 603.74,-95.39 600.56,-95.04"/>
<polygon fill="#63b8ff" stroke="#63b8ff" points="1692.42,-148.79 1702.45,-145.4 1692.49,-141.79 1692.42,-148.79"/>
</a>
</g>
</g>
<!-- Node5 -->
<g id="Node000005" class="node">
<title>Node5</title>
<g id="a_Node000005"><a xlink:href="AP__InertialSensor__BMI055_8h.html" target="_top" xlink:title=" ">
<polygon fill="white" stroke="#666666" points="775,-96 619,-96 619,-66 775,-66 775,-96"/>
<text text-anchor="start" x="627" y="-84" font-family="Helvetica,sans-Serif" font-size="10.00">libraries/AP_InertialSensor</text>
<text text-anchor="middle" x="697" y="-73" font-family="Helvetica,sans-Serif" font-size="10.00">/AP_InertialSensor_BMI055.h</text>
</a>
</g>
</g>
<!-- Node1&#45;&gt;Node5 -->
<g id="edge5_Node000001_Node000005" class="edge">
<title>Node1&#45;&gt;Node5</title>
<g id="a_edge5_Node000001_Node000005"><a xlink:title=" ">
<path fill="none" stroke="#63b8ff" d="M1692.25,-144.78C1516.49,-141.69 1117.58,-131.08 784,-96 781.11,-95.7 778.17,-95.36 775.2,-95"/>
<polygon fill="#63b8ff" stroke="#63b8ff" points="1692.43,-148.29 1702.48,-144.96 1692.55,-141.29 1692.43,-148.29"/>
</a>
</g>
</g>
<!-- Node7 -->
<g id="Node000007" class="node">
<title>Node7</title>
<g id="a_Node000007"><a xlink:href="AP__InertialSensor__BMI088_8h.html" target="_top" xlink:title=" ">
<polygon fill="white" stroke="#666666" points="949,-96 793,-96 793,-66 949,-66 949,-96"/>
<text text-anchor="start" x="801" y="-84" font-family="Helvetica,sans-Serif" font-size="10.00">libraries/AP_InertialSensor</text>
<text text-anchor="middle" x="871" y="-73" font-family="Helvetica,sans-Serif" font-size="10.00">/AP_InertialSensor_BMI088.h</text>
</a>
</g>
</g>
<!-- Node1&#45;&gt;Node7 -->
<g id="edge8_Node000001_Node000007" class="edge">
<title>Node1&#45;&gt;Node7</title>
<g id="a_edge8_Node000001_Node000007"><a xlink:title=" ">
<path fill="none" stroke="#63b8ff" d="M1692.03,-143.43C1539.75,-138.47 1223.77,-125.36 958,-96 955.11,-95.68 952.17,-95.33 949.2,-94.96"/>
<polygon fill="#63b8ff" stroke="#63b8ff" points="1692.16,-146.94 1702.26,-143.76 1692.38,-139.94 1692.16,-146.94"/>
</a>
</g>
</g>
<!-- Node9 -->
<g id="Node000009" class="node">
<title>Node9</title>
<g id="a_Node000009"><a xlink:href="AP__InertialSensor__BMI160_8h.html" target="_top" xlink:title=" ">
<polygon fill="white" stroke="#666666" points="1123,-96 967,-96 967,-66 1123,-66 1123,-96"/>
<text text-anchor="start" x="975" y="-84" font-family="Helvetica,sans-Serif" font-size="10.00">libraries/AP_InertialSensor</text>
<text text-anchor="middle" x="1045" y="-73" font-family="Helvetica,sans-Serif" font-size="10.00">/AP_InertialSensor_BMI160.h</text>
</a>
</g>
</g>
<!-- Node1&#45;&gt;Node9 -->
<g id="edge11_Node000001_Node000009" class="edge">
<title>Node1&#45;&gt;Node9</title>
<g id="a_edge11_Node000001_Node000009"><a xlink:title=" ">
<path fill="none" stroke="#63b8ff" d="M1692.37,-141.42C1566.38,-134.51 1331.33,-119.65 1132,-96 1129.11,-95.66 1126.18,-95.29 1123.21,-94.9"/>
<polygon fill="#63b8ff" stroke="#63b8ff" points="1692.19,-144.91 1702.36,-141.96 1692.57,-137.92 1692.19,-144.91"/>
</a>
</g>
</g>
<!-- Node11 -->
<g id="Node000011" class="node">
<title>Node11</title>
<g id="a_Node000011"><a xlink:href="AP__InertialSensor__BMI270_8h.html" target="_top" xlink:title=" ">
<polygon fill="white" stroke="#666666" points="1297,-96 1141,-96 1141,-66 1297,-66 1297,-96"/>
<text text-anchor="start" x="1149" y="-84" font-family="Helvetica,sans-Serif" font-size="10.00">libraries/AP_InertialSensor</text>
<text text-anchor="middle" x="1219" y="-73" font-family="Helvetica,sans-Serif" font-size="10.00">/AP_InertialSensor_BMI270.h</text>
</a>
</g>
</g>
<!-- Node1&#45;&gt;Node11 -->
<g id="edge14_Node000001_Node000011" class="edge">
<title>Node1&#45;&gt;Node11</title>
<g id="a_edge14_Node000001_Node000011"><a xlink:title=" ">
<path fill="none" stroke="#63b8ff" d="M1692.27,-137.99C1596.17,-129.15 1440.13,-113.81 1306,-96 1303.12,-95.62 1300.19,-95.21 1297.22,-94.8"/>
<polygon fill="#63b8ff" stroke="#63b8ff" points="1691.96,-141.48 1702.24,-138.9 1692.6,-134.51 1691.96,-141.48"/>
</a>
</g>
</g>
<!-- Node13 -->
<g id="Node000013" class="node">
<title>Node13</title>
<g id="a_Node000013"><a xlink:href="AP__InertialSensor__Backend_8cpp.html" target="_top" xlink:title=" ">
<polygon fill="white" stroke="#666666" points="3195,-96 3023,-96 3023,-66 3195,-66 3195,-96"/>
<text text-anchor="start" x="3031" y="-84" font-family="Helvetica,sans-Serif" font-size="10.00">libraries/AP_InertialSensor</text>
<text text-anchor="middle" x="3109" y="-73" font-family="Helvetica,sans-Serif" font-size="10.00">/AP_InertialSensor_Backend.cpp</text>
</a>
</g>
</g>
<!-- Node1&#45;&gt;Node13 -->
<g id="edge17_Node000001_Node000013" class="edge">
<title>Node1&#45;&gt;Node13</title>
<g id="a_edge17_Node000001_Node000013"><a xlink:title=" ">
<path fill="none" stroke="#63b8ff" d="M1873.94,-145.59C2078.21,-143.95 2588.87,-135.85 3014,-96 3016.9,-95.73 3019.86,-95.43 3022.83,-95.1"/>
<polygon fill="#63b8ff" stroke="#63b8ff" points="1873.83,-142.09 1863.85,-145.67 1873.88,-149.09 1873.83,-142.09"/>
</a>
</g>
</g>
<!-- Node14 -->
<g id="Node000014" class="node">
<title>Node14</title>
<g id="a_Node000014"><a xlink:href="AP__InertialSensor__Invensense_8h.html" target="_top" xlink:title=" ">
<polygon fill="white" stroke="#666666" points="1490.5,-96 1315.5,-96 1315.5,-66 1490.5,-66 1490.5,-96"/>
<text text-anchor="start" x="1323.5" y="-84" font-family="Helvetica,sans-Serif" font-size="10.00">libraries/AP_InertialSensor</text>
<text text-anchor="middle" x="1403" y="-73" font-family="Helvetica,sans-Serif" font-size="10.00">/AP_InertialSensor_Invensense.h</text>
</a>
</g>
</g>
<!-- Node1&#45;&gt;Node14 -->
<g id="edge18_Node000001_Node000014" class="edge">
<title>Node1&#45;&gt;Node14</title>
<g id="a_edge18_Node000001_Node000014"><a xlink:title=" ">
<path fill="none" stroke="#63b8ff" d="M1692.17,-130.7C1629.66,-120.18 1547.27,-106.3 1486.43,-96.05"/>
<polygon fill="#63b8ff" stroke="#63b8ff" points="1691.97,-134.22 1702.41,-132.43 1693.13,-127.31 1691.97,-134.22"/>
</a>
</g>
</g>
<!-- Node17 -->
<g id="Node000017" class="node">
<title>Node17</title>
<g id="a_Node000017"><a xlink:href="AP__InertialSensor__Invensensev2_8h.html" target="_top" xlink:title=" ">
<polygon fill="white" stroke="#666666" points="1695.5,-96 1508.5,-96 1508.5,-66 1695.5,-66 1695.5,-96"/>
<text text-anchor="start" x="1516.5" y="-84" font-family="Helvetica,sans-Serif" font-size="10.00">libraries/AP_InertialSensor</text>
<text text-anchor="middle" x="1602" y="-73" font-family="Helvetica,sans-Serif" font-size="10.00">/AP_InertialSensor_Invensensev2.h</text>
</a>
</g>
</g>
<!-- Node1&#45;&gt;Node17 -->
<g id="edge22_Node000001_Node000017" class="edge">
<title>Node1&#45;&gt;Node17</title>
<g id="a_edge22_Node000001_Node000017"><a xlink:title=" ">
<path fill="none" stroke="#63b8ff" d="M1733.76,-128.59C1704.82,-118.36 1668.72,-105.59 1641.63,-96.01"/>
<polygon fill="#63b8ff" stroke="#63b8ff" points="1732.68,-131.92 1743.28,-131.95 1735.02,-125.32 1732.68,-131.92"/>
</a>
</g>
</g>
<!-- Node20 -->
<g id="Node000020" class="node">
<title>Node20</title>
<g id="a_Node000020"><a xlink:href="AP__InertialSensor__Invensensev3_8h.html" target="_top" xlink:title=" ">
<polygon fill="white" stroke="#666666" points="1937.5,-96 1750.5,-96 1750.5,-66 1937.5,-66 1937.5,-96"/>
<text text-anchor="start" x="1758.5" y="-84" font-family="Helvetica,sans-Serif" font-size="10.00">libraries/AP_InertialSensor</text>
<text text-anchor="middle" x="1844" y="-73" font-family="Helvetica,sans-Serif" font-size="10.00">/AP_InertialSensor_Invensensev3.h</text>
</a>
</g>
</g>
<!-- Node1&#45;&gt;Node20 -->
<g id="edge26_Node000001_Node000020" class="edge">
<title>Node1&#45;&gt;Node20</title>
<g id="a_edge26_Node000001_Node000020"><a xlink:title=" ">
<path fill="none" stroke="#63b8ff" d="M1803.62,-124.37C1812.49,-115.06 1822.61,-104.44 1830.5,-96.16"/>
<polygon fill="#63b8ff" stroke="#63b8ff" points="1800.9,-122.14 1796.54,-131.8 1805.97,-126.97 1800.9,-122.14"/>
</a>
</g>
</g>
<!-- Node22 -->
<g id="Node000022" class="node">
<title>Node22</title>
<g id="a_Node000022"><a xlink:href="AP__InertialSensor__L3G4200D_8h.html" target="_top" xlink:title=" ">
<polygon fill="white" stroke="#666666" points="2126,-96 1956,-96 1956,-66 2126,-66 2126,-96"/>
<text text-anchor="start" x="1964" y="-84" font-family="Helvetica,sans-Serif" font-size="10.00">libraries/AP_InertialSensor</text>
<text text-anchor="middle" x="2041" y="-73" font-family="Helvetica,sans-Serif" font-size="10.00">/AP_InertialSensor_L3G4200D.h</text>
</a>
</g>
</g>
<!-- Node1&#45;&gt;Node22 -->
<g id="edge29_Node000001_Node000022" class="edge">
<title>Node1&#45;&gt;Node22</title>
<g id="a_edge29_Node000001_Node000022"><a xlink:title=" ">
<path fill="none" stroke="#63b8ff" d="M1849.45,-129.52C1891.29,-119.14 1944.72,-105.88 1984.51,-96.01"/>
<polygon fill="#63b8ff" stroke="#63b8ff" points="1848.48,-126.15 1839.62,-131.95 1850.17,-132.94 1848.48,-126.15"/>
</a>
</g>
</g>
<!-- Node24 -->
<g id="Node000024" class="node">
<title>Node24</title>
<g id="a_Node000024"><a xlink:href="AP__InertialSensor__LSM9DS0_8h.html" target="_top" xlink:title=" ">
<polygon fill="white" stroke="#666666" points="2309.5,-96 2144.5,-96 2144.5,-66 2309.5,-66 2309.5,-96"/>
<text text-anchor="start" x="2152.5" y="-84" font-family="Helvetica,sans-Serif" font-size="10.00">libraries/AP_InertialSensor</text>
<text text-anchor="middle" x="2227" y="-73" font-family="Helvetica,sans-Serif" font-size="10.00">/AP_InertialSensor_LSM9DS0.h</text>
</a>
</g>
</g>
<!-- Node1&#45;&gt;Node24 -->
<g id="edge32_Node000001_Node000024" class="edge">
<title>Node1&#45;&gt;Node24</title>
<g id="a_edge32_Node000001_Node000024"><a xlink:title=" ">
<path fill="none" stroke="#63b8ff" d="M1874.04,-133.32C1945.13,-123.36 2046.38,-109.04 2135,-96 2138.04,-95.55 2141.13,-95.1 2144.25,-94.63"/>
<polygon fill="#63b8ff" stroke="#63b8ff" points="1873.19,-129.91 1863.77,-134.76 1874.16,-136.84 1873.19,-129.91"/>
</a>
</g>
</g>
<!-- Node26 -->
<g id="Node000026" class="node">
<title>Node26</title>
<g id="a_Node000026"><a xlink:href="AP__InertialSensor__LSM9DS1_8h.html" target="_top" xlink:title=" ">
<polygon fill="white" stroke="#666666" points="2492.5,-96 2327.5,-96 2327.5,-66 2492.5,-66 2492.5,-96"/>
<text text-anchor="start" x="2335.5" y="-84" font-family="Helvetica,sans-Serif" font-size="10.00">libraries/AP_InertialSensor</text>
<text text-anchor="middle" x="2410" y="-73" font-family="Helvetica,sans-Serif" font-size="10.00">/AP_InertialSensor_LSM9DS1.h</text>
</a>
</g>
</g>
<!-- Node1&#45;&gt;Node26 -->
<g id="edge35_Node000001_Node000026" class="edge">
<title>Node1&#45;&gt;Node26</title>
<g id="a_edge35_Node000001_Node000026"><a xlink:title=" ">
<path fill="none" stroke="#63b8ff" d="M1873.61,-139.2C1980.34,-130.82 2162.87,-115.27 2319,-96 2321.7,-95.67 2324.44,-95.32 2327.2,-94.95"/>
<polygon fill="#63b8ff" stroke="#63b8ff" points="1873.22,-135.72 1863.53,-139.99 1873.77,-142.7 1873.22,-135.72"/>
</a>
</g>
</g>
<!-- Node28 -->
<g id="Node000028" class="node">
<title>Node28</title>
<g id="a_Node000028"><a xlink:href="AP__InertialSensor__NONE_8h.html" target="_top" xlink:title=" ">
<polygon fill="white" stroke="#666666" points="2659,-96 2511,-96 2511,-66 2659,-66 2659,-96"/>
<text text-anchor="start" x="2519" y="-84" font-family="Helvetica,sans-Serif" font-size="10.00">libraries/AP_InertialSensor</text>
<text text-anchor="middle" x="2585" y="-73" font-family="Helvetica,sans-Serif" font-size="10.00">/AP_InertialSensor_NONE.h</text>
</a>
</g>
</g>
<!-- Node1&#45;&gt;Node28 -->
<g id="edge38_Node000001_Node000028" class="edge">
<title>Node1&#45;&gt;Node28</title>
<g id="a_edge38_Node000001_Node000028"><a xlink:title=" ">
<path fill="none" stroke="#63b8ff" d="M1873.58,-142.54C2010.17,-136.69 2276.83,-122.75 2502,-96 2504.9,-95.66 2507.86,-95.28 2510.84,-94.88"/>
<polygon fill="#63b8ff" stroke="#63b8ff" points="1873.42,-139.05 1863.57,-142.97 1873.71,-146.04 1873.42,-139.05"/>
</a>
</g>
</g>
<!-- Node30 -->
<g id="Node000030" class="node">
<title>Node30</title>
<g id="a_Node000030"><a xlink:href="AP__InertialSensor__RST_8h.html" target="_top" xlink:title=" ">
<polygon fill="white" stroke="#666666" points="2822.5,-96 2677.5,-96 2677.5,-66 2822.5,-66 2822.5,-96"/>
<text text-anchor="start" x="2685.5" y="-84" font-family="Helvetica,sans-Serif" font-size="10.00">libraries/AP_InertialSensor</text>
<text text-anchor="middle" x="2750" y="-73" font-family="Helvetica,sans-Serif" font-size="10.00">/AP_InertialSensor_RST.h</text>
</a>
</g>
</g>
<!-- Node1&#45;&gt;Node30 -->
<g id="edge41_Node000001_Node000030" class="edge">
<title>Node1&#45;&gt;Node30</title>
<g id="a_edge41_Node000001_Node000030"><a xlink:title=" ">
<path fill="none" stroke="#63b8ff" d="M1874.11,-144.23C2034.88,-140.37 2379.22,-128.7 2668,-96 2671.01,-95.66 2674.08,-95.28 2677.18,-94.87"/>
<polygon fill="#63b8ff" stroke="#63b8ff" points="1873.71,-140.74 1863.79,-144.48 1873.87,-147.74 1873.71,-140.74"/>
</a>
</g>
</g>
<!-- Node32 -->
<g id="Node000032" class="node">
<title>Node32</title>
<g id="a_Node000032"><a xlink:href="AP__InertialSensor__SCHA63T_8h.html" target="_top" xlink:title=" ">
<polygon fill="white" stroke="#666666" points="3005,-96 2841,-96 2841,-66 3005,-66 3005,-96"/>
<text text-anchor="start" x="2849" y="-84" font-family="Helvetica,sans-Serif" font-size="10.00">libraries/AP_InertialSensor</text>
<text text-anchor="middle" x="2923" y="-73" font-family="Helvetica,sans-Serif" font-size="10.00">/AP_InertialSensor_SCHA63T.h</text>
</a>
</g>
</g>
<!-- Node1&#45;&gt;Node32 -->
<g id="edge44_Node000001_Node000032" class="edge">
<title>Node1&#45;&gt;Node32</title>
<g id="a_edge44_Node000001_Node000032"><a xlink:title=" ">
<path fill="none" stroke="#63b8ff" d="M1873.9,-144.88C2056.1,-141.92 2478.8,-131.49 2832,-96 2834.86,-95.71 2837.77,-95.4 2840.71,-95.06"/>
<polygon fill="#63b8ff" stroke="#63b8ff" points="1873.77,-141.38 1863.82,-145.04 1873.88,-148.38 1873.77,-141.38"/>
</a>
</g>
</g>
<!-- Node3&#45;&gt;Node2 -->
<g id="edge3_Node000003_Node000002" class="edge">
<title>Node3&#45;&gt;Node2</title>
<g id="a_edge3_Node000003_Node000002"><a xlink:title=" ">
<path fill="none" stroke="#63b8ff" d="M610.83,-66.01C1088.8,-24.15 1213.89,-78.07 1687,-30 1690.02,-29.69 1693.09,-29.34 1696.19,-28.96"/>
<polygon fill="#63b8ff" stroke="#63b8ff" points="610.21,-62.56 600.55,-66.92 610.82,-69.53 610.21,-62.56"/>
</a>
</g>
</g>
<!-- Node4 -->
<g id="Node000004" class="node">
<title>Node4</title>
<g id="a_Node000004"><a xlink:href="AP__InertialSensor__ADIS1647x_8cpp.html" target="_top" xlink:title=" ">
<polygon fill="white" stroke="#666666" points="184,-30 0,-30 0,0 184,0 184,-30"/>
<text text-anchor="start" x="8" y="-18" font-family="Helvetica,sans-Serif" font-size="10.00">libraries/AP_InertialSensor</text>
<text text-anchor="middle" x="92" y="-7" font-family="Helvetica,sans-Serif" font-size="10.00">/AP_InertialSensor_ADIS1647x.cpp</text>
</a>
</g>
</g>
<!-- Node3&#45;&gt;Node4 -->
<g id="edge4_Node000003_Node000004" class="edge">
<title>Node3&#45;&gt;Node4</title>
<g id="a_edge4_Node000003_Node000004"><a xlink:title=" ">
<path fill="none" stroke="#63b8ff" d="M417.17,-65.31C347.1,-54.69 252.98,-40.41 184.04,-29.96"/>
<polygon fill="#63b8ff" stroke="#63b8ff" points="416.92,-68.82 427.33,-66.86 417.97,-61.9 416.92,-68.82"/>
</a>
</g>
</g>
<!-- Node5&#45;&gt;Node2 -->
<g id="edge6_Node000005_Node000002" class="edge">
<title>Node5&#45;&gt;Node2</title>
<g id="a_edge6_Node000005_Node000002"><a xlink:title=" ">
<path fill="none" stroke="#63b8ff" d="M785.31,-65.96C1185.4,-26.78 1290.85,-71.54 1687,-30 1690.02,-29.68 1693.09,-29.33 1696.19,-28.93"/>
<polygon fill="#63b8ff" stroke="#63b8ff" points="784.8,-62.49 775.2,-66.96 785.49,-69.46 784.8,-62.49"/>
</a>
</g>
</g>
<!-- Node6 -->
<g id="Node000006" class="node">
<title>Node6</title>
<g id="a_Node000006"><a xlink:href="AP__InertialSensor__BMI055_8cpp.html" target="_top" xlink:title=" ">
<polygon fill="white" stroke="#666666" points="369.5,-30 202.5,-30 202.5,0 369.5,0 369.5,-30"/>
<text text-anchor="start" x="210.5" y="-18" font-family="Helvetica,sans-Serif" font-size="10.00">libraries/AP_InertialSensor</text>
<text text-anchor="middle" x="286" y="-7" font-family="Helvetica,sans-Serif" font-size="10.00">/AP_InertialSensor_BMI055.cpp</text>
</a>
</g>
</g>
<!-- Node5&#45;&gt;Node6 -->
<g id="edge7_Node000005_Node000006" class="edge">
<title>Node5&#45;&gt;Node6</title>
<g id="a_edge7_Node000005_Node000006"><a xlink:title=" ">
<path fill="none" stroke="#63b8ff" d="M608.65,-65.95C520.86,-52.18 432.47,-38.52 369.67,-28.85"/>
<polygon fill="#63b8ff" stroke="#63b8ff" points="608.37,-69.45 618.79,-67.54 609.46,-62.53 608.37,-69.45"/>
</a>
</g>
</g>
<!-- Node7&#45;&gt;Node2 -->
<g id="edge9_Node000007_Node000002" class="edge">
<title>Node7&#45;&gt;Node2</title>
<g id="a_edge9_Node000007_Node000002"><a xlink:title=" ">
<path fill="none" stroke="#63b8ff" d="M959.32,-65.95C1282.37,-32.85 1367.84,-65 1687,-30 1690.01,-29.67 1693.09,-29.3 1696.19,-28.9"/>
<polygon fill="#63b8ff" stroke="#63b8ff" points="958.79,-62.49 949.2,-67 959.51,-69.45 958.79,-62.49"/>
</a>
</g>
</g>
<!-- Node8 -->
<g id="Node000008" class="node">
<title>Node8</title>
<g id="a_Node000008"><a xlink:href="AP__InertialSensor__BMI088_8cpp.html" target="_top" xlink:title=" ">
<polygon fill="white" stroke="#666666" points="554.5,-30 387.5,-30 387.5,0 554.5,0 554.5,-30"/>
<text text-anchor="start" x="395.5" y="-18" font-family="Helvetica,sans-Serif" font-size="10.00">libraries/AP_InertialSensor</text>
<text text-anchor="middle" x="471" y="-7" font-family="Helvetica,sans-Serif" font-size="10.00">/AP_InertialSensor_BMI088.cpp</text>
</a>
</g>
</g>
<!-- Node7&#45;&gt;Node8 -->
<g id="edge10_Node000007_Node000008" class="edge">
<title>Node7&#45;&gt;Node8</title>
<g id="a_edge10_Node000007_Node000008"><a xlink:title=" ">
<path fill="none" stroke="#63b8ff" d="M782.86,-65.82C699.59,-52.47 615.34,-39.02 554.7,-29.34"/>
<polygon fill="#63b8ff" stroke="#63b8ff" points="782.32,-69.28 792.75,-67.4 783.43,-62.36 782.32,-69.28"/>
</a>
</g>
</g>
<!-- Node9&#45;&gt;Node2 -->
<g id="edge12_Node000009_Node000002" class="edge">
<title>Node9&#45;&gt;Node2</title>
<g id="a_edge12_Node000009_Node000002"><a xlink:title=" ">
<path fill="none" stroke="#63b8ff" d="M1133.17,-65.95C1379.35,-38.87 1444.74,-58.46 1687,-30 1690.01,-29.65 1693.08,-29.26 1696.18,-28.84"/>
<polygon fill="#63b8ff" stroke="#63b8ff" points="1132.76,-62.47 1123.21,-67.06 1133.53,-69.43 1132.76,-62.47"/>
</a>
</g>
</g>
<!-- Node10 -->
<g id="Node000010" class="node">
<title>Node10</title>
<g id="a_Node000010"><a xlink:href="AP__InertialSensor__BMI160_8cpp.html" target="_top" xlink:title=" ">
<polygon fill="white" stroke="#666666" points="739.5,-30 572.5,-30 572.5,0 739.5,0 739.5,-30"/>
<text text-anchor="start" x="580.5" y="-18" font-family="Helvetica,sans-Serif" font-size="10.00">libraries/AP_InertialSensor</text>
<text text-anchor="middle" x="656" y="-7" font-family="Helvetica,sans-Serif" font-size="10.00">/AP_InertialSensor_BMI160.cpp</text>
</a>
</g>
</g>
<!-- Node9&#45;&gt;Node10 -->
<g id="edge13_Node000009_Node000010" class="edge">
<title>Node9&#45;&gt;Node10</title>
<g id="a_edge13_Node000009_Node000010"><a xlink:title=" ">
<path fill="none" stroke="#63b8ff" d="M956.5,-65.44C891.38,-54.72 803.42,-40.25 739.51,-29.74"/>
<polygon fill="#63b8ff" stroke="#63b8ff" points="956.31,-68.96 966.75,-67.13 957.45,-62.05 956.31,-68.96"/>
</a>
</g>
</g>
<!-- Node11&#45;&gt;Node2 -->
<g id="edge15_Node000011_Node000002" class="edge">
<title>Node11&#45;&gt;Node2</title>
<g id="a_edge15_Node000011_Node000002"><a xlink:title=" ">
<path fill="none" stroke="#63b8ff" d="M1307.22,-65.9C1476.43,-44.77 1521.6,-51.9 1687,-30 1690.01,-29.6 1693.07,-29.17 1696.17,-28.73"/>
<polygon fill="#63b8ff" stroke="#63b8ff" points="1306.7,-62.44 1297.22,-67.17 1307.58,-69.38 1306.7,-62.44"/>
</a>
</g>
</g>
<!-- Node12 -->
<g id="Node000012" class="node">
<title>Node12</title>
<g id="a_Node000012"><a xlink:href="AP__InertialSensor__BMI270_8cpp.html" target="_top" xlink:title=" ">
<polygon fill="white" stroke="#666666" points="924.5,-30 757.5,-30 757.5,0 924.5,0 924.5,-30"/>
<text text-anchor="start" x="765.5" y="-18" font-family="Helvetica,sans-Serif" font-size="10.00">libraries/AP_InertialSensor</text>
<text text-anchor="middle" x="841" y="-7" font-family="Helvetica,sans-Serif" font-size="10.00">/AP_InertialSensor_BMI270.cpp</text>
</a>
</g>
</g>
<!-- Node11&#45;&gt;Node12 -->
<g id="edge16_Node000011_Node000012" class="edge">
<title>Node11&#45;&gt;Node12</title>
<g id="a_edge16_Node000011_Node000012"><a xlink:title=" ">
<path fill="none" stroke="#63b8ff" d="M1130.45,-65.01C1068,-54.43 984.93,-40.37 923.8,-30.02"/>
<polygon fill="#63b8ff" stroke="#63b8ff" points="1130.23,-68.52 1140.68,-66.74 1131.4,-61.62 1130.23,-68.52"/>
</a>
</g>
</g>
<!-- Node14&#45;&gt;Node2 -->
<g id="edge20_Node000014_Node000002" class="edge">
<title>Node14&#45;&gt;Node2</title>
<g id="a_edge20_Node000014_Node000002"><a xlink:title=" ">
<path fill="none" stroke="#63b8ff" d="M1493.18,-64.23C1555.74,-53.29 1637.96,-38.91 1696.32,-28.71"/>
<polygon fill="#63b8ff" stroke="#63b8ff" points="1492.57,-60.78 1483.32,-65.95 1493.77,-67.68 1492.57,-60.78"/>
</a>
</g>
</g>
<!-- Node15 -->
<g id="Node000015" class="node">
<title>Node15</title>
<g id="a_Node000015"><a xlink:href="AP__Compass__AK8963_8cpp.html" target="_top" xlink:title=" ">
<polygon fill="white" stroke="#666666" points="1292,-30 1146,-30 1146,0 1292,0 1292,-30"/>
<text text-anchor="start" x="1154" y="-18" font-family="Helvetica,sans-Serif" font-size="10.00">libraries/AP_Compass</text>
<text text-anchor="middle" x="1219" y="-7" font-family="Helvetica,sans-Serif" font-size="10.00">/AP_Compass_AK8963.cpp</text>
</a>
</g>
</g>
<!-- Node14&#45;&gt;Node15 -->
<g id="edge19_Node000014_Node000015" class="edge">
<title>Node14&#45;&gt;Node15</title>
<g id="a_edge19_Node000014_Node000015"><a xlink:title=" ">
<path fill="none" stroke="#63b8ff" d="M1352.95,-62.59C1323.53,-52.36 1286.83,-39.59 1259.29,-30.01"/>
<polygon fill="#63b8ff" stroke="#63b8ff" points="1352.03,-65.98 1362.62,-65.95 1354.33,-59.36 1352.03,-65.98"/>
</a>
</g>
</g>
<!-- Node16 -->
<g id="Node000016" class="node">
<title>Node16</title>
<g id="a_Node000016"><a xlink:href="AP__InertialSensor__Invensense_8cpp.html" target="_top" xlink:title=" ">
<polygon fill="white" stroke="#666666" points="1128,-30 942,-30 942,0 1128,0 1128,-30"/>
<text text-anchor="start" x="950" y="-18" font-family="Helvetica,sans-Serif" font-size="10.00">libraries/AP_InertialSensor</text>
<text text-anchor="middle" x="1035" y="-7" font-family="Helvetica,sans-Serif" font-size="10.00">/AP_InertialSensor_Invensense.cpp</text>
</a>
</g>
</g>
<!-- Node14&#45;&gt;Node16 -->
<g id="edge21_Node000014_Node000016" class="edge">
<title>Node14&#45;&gt;Node16</title>
<g id="a_edge21_Node000014_Node000016"><a xlink:title=" ">
<path fill="none" stroke="#63b8ff" d="M1312.35,-64.24C1252.09,-53.75 1173.65,-40.11 1115.57,-30.01"/>
<polygon fill="#63b8ff" stroke="#63b8ff" points="1311.79,-67.69 1322.24,-65.95 1312.99,-60.79 1311.79,-67.69"/>
</a>
</g>
</g>
<!-- Node17&#45;&gt;Node2 -->
<g id="edge24_Node000017_Node000002" class="edge">
<title>Node17&#45;&gt;Node2</title>
<g id="a_edge24_Node000017_Node000002"><a xlink:title=" ">
<path fill="none" stroke="#63b8ff" d="M1648.13,-62.32C1674.71,-52.14 1707.66,-39.51 1732.44,-30.01"/>
<polygon fill="#63b8ff" stroke="#63b8ff" points="1646.73,-59.11 1638.65,-65.95 1649.24,-65.64 1646.73,-59.11"/>
</a>
</g>
</g>
<!-- Node18 -->
<g id="Node000018" class="node">
<title>Node18</title>
<g id="a_Node000018"><a xlink:href="AP__Compass__AK09916_8cpp.html" target="_top" xlink:title=" ">
<polygon fill="white" stroke="#666666" points="1678,-30 1526,-30 1526,0 1678,0 1678,-30"/>
<text text-anchor="start" x="1534" y="-18" font-family="Helvetica,sans-Serif" font-size="10.00">libraries/AP_Compass</text>
<text text-anchor="middle" x="1602" y="-7" font-family="Helvetica,sans-Serif" font-size="10.00">/AP_Compass_AK09916.cpp</text>
</a>
</g>
</g>
<!-- Node17&#45;&gt;Node18 -->
<g id="edge23_Node000017_Node000018" class="edge">
<title>Node17&#45;&gt;Node18</title>
<g id="a_edge23_Node000017_Node000018"><a xlink:title=" ">
<path fill="none" stroke="#63b8ff" d="M1602,-55.54C1602,-46.96 1602,-37.61 1602,-30.16"/>
<polygon fill="#63b8ff" stroke="#63b8ff" points="1598.5,-55.8 1602,-65.8 1605.5,-55.8 1598.5,-55.8"/>
</a>
</g>
</g>
<!-- Node19 -->
<g id="Node000019" class="node">
<title>Node19</title>
<g id="a_Node000019"><a xlink:href="AP__InertialSensor__Invensensev2_8cpp.html" target="_top" xlink:title=" ">
<polygon fill="white" stroke="#666666" points="1508,-30 1310,-30 1310,0 1508,0 1508,-30"/>
<text text-anchor="start" x="1318" y="-18" font-family="Helvetica,sans-Serif" font-size="10.00">libraries/AP_InertialSensor</text>
<text text-anchor="middle" x="1409" y="-7" font-family="Helvetica,sans-Serif" font-size="10.00">/AP_InertialSensor_Invensensev2.cpp</text>
</a>
</g>
</g>
<!-- Node17&#45;&gt;Node19 -->
<g id="edge25_Node000017_Node000019" class="edge">
<title>Node17&#45;&gt;Node19</title>
<g id="a_edge25_Node000017_Node000019"><a xlink:title=" ">
<path fill="none" stroke="#63b8ff" d="M1549.9,-62.72C1518.98,-52.47 1480.27,-39.63 1451.26,-30.01"/>
<polygon fill="#63b8ff" stroke="#63b8ff" points="1549.05,-66.13 1559.65,-65.95 1551.26,-59.49 1549.05,-66.13"/>
</a>
</g>
</g>
<!-- Node20&#45;&gt;Node2 -->
<g id="edge27_Node000020_Node000002" class="edge">
<title>Node20&#45;&gt;Node2</title>
<g id="a_edge27_Node000020_Node000002"><a xlink:title=" ">
<path fill="none" stroke="#63b8ff" d="M1819.63,-59.2C1808.49,-49.7 1795.59,-38.69 1785.6,-30.16"/>
<polygon fill="#63b8ff" stroke="#63b8ff" points="1817.48,-61.97 1827.36,-65.8 1822.02,-56.64 1817.48,-61.97"/>
</a>
</g>
</g>
<!-- Node21 -->
<g id="Node000021" class="node">
<title>Node21</title>
<g id="a_Node000021"><a xlink:href="AP__InertialSensor__Invensensev3_8cpp.html" target="_top" xlink:title=" ">
<polygon fill="white" stroke="#666666" points="2058,-30 1860,-30 1860,0 2058,0 2058,-30"/>
<text text-anchor="start" x="1868" y="-18" font-family="Helvetica,sans-Serif" font-size="10.00">libraries/AP_InertialSensor</text>
<text text-anchor="middle" x="1959" y="-7" font-family="Helvetica,sans-Serif" font-size="10.00">/AP_InertialSensor_Invensensev3.cpp</text>
</a>
</g>
</g>
<!-- Node20&#45;&gt;Node21 -->
<g id="edge28_Node000020_Node000021" class="edge">
<title>Node20&#45;&gt;Node21</title>
<g id="a_edge28_Node000020_Node000021"><a xlink:title=" ">
<path fill="none" stroke="#63b8ff" d="M1878.2,-60.97C1896.05,-51.03 1917.51,-39.09 1933.82,-30.01"/>
<polygon fill="#63b8ff" stroke="#63b8ff" points="1876.27,-58.03 1869.24,-65.95 1879.68,-64.15 1876.27,-58.03"/>
</a>
</g>
</g>
<!-- Node22&#45;&gt;Node2 -->
<g id="edge30_Node000022_Node000002" class="edge">
<title>Node22&#45;&gt;Node2</title>
<g id="a_edge30_Node000022_Node000002"><a xlink:title=" ">
<path fill="none" stroke="#63b8ff" d="M1971.51,-63.65C1927.31,-53.25 1870.68,-39.93 1828.55,-30.01"/>
<polygon fill="#63b8ff" stroke="#63b8ff" points="1970.77,-67.07 1981.31,-65.95 1972.38,-60.26 1970.77,-67.07"/>
</a>
</g>
</g>
<!-- Node23 -->
<g id="Node000023" class="node">
<title>Node23</title>
<g id="a_Node000023"><a xlink:href="AP__InertialSensor__L3G4200D_8cpp.html" target="_top" xlink:title=" ">
<polygon fill="white" stroke="#666666" points="2257.5,-30 2076.5,-30 2076.5,0 2257.5,0 2257.5,-30"/>
<text text-anchor="start" x="2084.5" y="-18" font-family="Helvetica,sans-Serif" font-size="10.00">libraries/AP_InertialSensor</text>
<text text-anchor="middle" x="2167" y="-7" font-family="Helvetica,sans-Serif" font-size="10.00">/AP_InertialSensor_L3G4200D.cpp</text>
</a>
</g>
</g>
<!-- Node22&#45;&gt;Node23 -->
<g id="edge31_Node000022_Node000023" class="edge">
<title>Node22&#45;&gt;Node23</title>
<g id="a_edge31_Node000022_Node000023"><a xlink:title=" ">
<path fill="none" stroke="#63b8ff" d="M2077.66,-61.38C2097.38,-51.36 2121.29,-39.22 2139.41,-30.01"/>
<polygon fill="#63b8ff" stroke="#63b8ff" points="2075.98,-58.31 2068.65,-65.95 2079.15,-64.55 2075.98,-58.31"/>
</a>
</g>
</g>
<!-- Node24&#45;&gt;Node2 -->
<g id="edge33_Node000024_Node000002" class="edge">
<title>Node24&#45;&gt;Node2</title>
<g id="a_edge33_Node000024_Node000002"><a xlink:title=" ">
<path fill="none" stroke="#63b8ff" d="M2134.15,-65.91C2007.29,-48.43 1973.65,-48.24 1851,-30 1848,-29.55 1844.94,-29.09 1841.85,-28.61"/>
<polygon fill="#63b8ff" stroke="#63b8ff" points="2133.88,-69.4 2144.26,-67.31 2134.84,-62.47 2133.88,-69.4"/>
</a>
</g>
</g>
<!-- Node25 -->
<g id="Node000025" class="node">
<title>Node25</title>
<g id="a_Node000025"><a xlink:href="AP__InertialSensor__LSM9DS0_8cpp.html" target="_top" xlink:title=" ">
<polygon fill="white" stroke="#666666" points="2452,-30 2276,-30 2276,0 2452,0 2452,-30"/>
<text text-anchor="start" x="2284" y="-18" font-family="Helvetica,sans-Serif" font-size="10.00">libraries/AP_InertialSensor</text>
<text text-anchor="middle" x="2364" y="-7" font-family="Helvetica,sans-Serif" font-size="10.00">/AP_InertialSensor_LSM9DS0.cpp</text>
</a>
</g>
</g>
<!-- Node24&#45;&gt;Node25 -->
<g id="edge34_Node000024_Node000025" class="edge">
<title>Node24&#45;&gt;Node25</title>
<g id="a_edge34_Node000024_Node000025"><a xlink:title=" ">
<path fill="none" stroke="#63b8ff" d="M2266.28,-61.65C2287.83,-51.58 2314.12,-39.3 2334,-30.01"/>
<polygon fill="#63b8ff" stroke="#63b8ff" points="2264.64,-58.55 2257.07,-65.95 2267.61,-64.89 2264.64,-58.55"/>
</a>
</g>
</g>
<!-- Node26&#45;&gt;Node2 -->
<g id="edge36_Node000026_Node000002" class="edge">
<title>Node26&#45;&gt;Node2</title>
<g id="a_edge36_Node000026_Node000002"><a xlink:title=" ">
<path fill="none" stroke="#63b8ff" d="M2317.23,-65.85C2110.04,-42.53 2054.81,-55.18 1851,-30 1847.99,-29.63 1844.92,-29.22 1841.83,-28.79"/>
<polygon fill="#63b8ff" stroke="#63b8ff" points="2316.88,-69.34 2327.21,-66.99 2317.67,-62.38 2316.88,-69.34"/>
</a>
</g>
</g>
<!-- Node27 -->
<g id="Node000027" class="node">
<title>Node27</title>
<g id="a_Node000027"><a xlink:href="AP__InertialSensor__LSM9DS1_8cpp.html" target="_top" xlink:title=" ">
<polygon fill="white" stroke="#666666" points="2646,-30 2470,-30 2470,0 2646,0 2646,-30"/>
<text text-anchor="start" x="2478" y="-18" font-family="Helvetica,sans-Serif" font-size="10.00">libraries/AP_InertialSensor</text>
<text text-anchor="middle" x="2558" y="-7" font-family="Helvetica,sans-Serif" font-size="10.00">/AP_InertialSensor_LSM9DS1.cpp</text>
</a>
</g>
</g>
<!-- Node26&#45;&gt;Node27 -->
<g id="edge37_Node000026_Node000027" class="edge">
<title>Node26&#45;&gt;Node27</title>
<g id="a_edge37_Node000026_Node000027"><a xlink:title=" ">
<path fill="none" stroke="#63b8ff" d="M2451.81,-61.92C2475.2,-51.8 2503.92,-39.38 2525.6,-30.01"/>
<polygon fill="#63b8ff" stroke="#63b8ff" points="2450.27,-58.77 2442.48,-65.95 2453.05,-65.2 2450.27,-58.77"/>
</a>
</g>
</g>
<!-- Node28&#45;&gt;Node2 -->
<g id="edge39_Node000028_Node000002" class="edge">
<title>Node28&#45;&gt;Node2</title>
<g id="a_edge39_Node000028_Node000002"><a xlink:title=" ">
<path fill="none" stroke="#63b8ff" d="M2500.5,-65.93C2212.23,-34.51 2135.58,-62.06 1851,-30 1847.99,-29.66 1844.92,-29.28 1841.82,-28.87"/>
<polygon fill="#63b8ff" stroke="#63b8ff" points="2500.52,-69.45 2510.85,-67.07 2501.29,-62.49 2500.52,-69.45"/>
</a>
</g>
</g>
<!-- Node29 -->
<g id="Node000029" class="node">
<title>Node29</title>
<g id="a_Node000029"><a xlink:href="AP__InertialSensor__NONE_8cpp.html" target="_top" xlink:title=" ">
<polygon fill="white" stroke="#666666" points="2822.5,-30 2663.5,-30 2663.5,0 2822.5,0 2822.5,-30"/>
<text text-anchor="start" x="2671.5" y="-18" font-family="Helvetica,sans-Serif" font-size="10.00">libraries/AP_InertialSensor</text>
<text text-anchor="middle" x="2743" y="-7" font-family="Helvetica,sans-Serif" font-size="10.00">/AP_InertialSensor_NONE.cpp</text>
</a>
</g>
</g>
<!-- Node28&#45;&gt;Node29 -->
<g id="edge40_Node000028_Node000029" class="edge">
<title>Node28&#45;&gt;Node29</title>
<g id="a_edge40_Node000028_Node000029"><a xlink:title=" ">
<path fill="none" stroke="#63b8ff" d="M2628.97,-62.19C2654.06,-52.02 2685.07,-39.47 2708.41,-30.01"/>
<polygon fill="#63b8ff" stroke="#63b8ff" points="2627.63,-58.96 2619.67,-65.95 2630.26,-65.44 2627.63,-58.96"/>
</a>
</g>
</g>
<!-- Node30&#45;&gt;Node2 -->
<g id="edge42_Node000030_Node000002" class="edge">
<title>Node30&#45;&gt;Node2</title>
<g id="a_edge42_Node000030_Node000002"><a xlink:title=" ">
<path fill="none" stroke="#63b8ff" d="M2667.21,-66.03C2304.87,-28.08 2209.14,-68.31 1851,-30 1847.98,-29.68 1844.91,-29.31 1841.81,-28.92"/>
<polygon fill="#63b8ff" stroke="#63b8ff" points="2666.88,-69.51 2677.19,-67.08 2667.61,-62.55 2666.88,-69.51"/>
</a>
</g>
</g>
<!-- Node31 -->
<g id="Node000031" class="node">
<title>Node31</title>
<g id="a_Node000031"><a xlink:href="AP__InertialSensor__RST_8cpp.html" target="_top" xlink:title=" ">
<polygon fill="white" stroke="#666666" points="2989.5,-30 2840.5,-30 2840.5,0 2989.5,0 2989.5,-30"/>
<text text-anchor="start" x="2848.5" y="-18" font-family="Helvetica,sans-Serif" font-size="10.00">libraries/AP_InertialSensor</text>
<text text-anchor="middle" x="2915" y="-7" font-family="Helvetica,sans-Serif" font-size="10.00">/AP_InertialSensor_RST.cpp</text>
</a>
</g>
</g>
<!-- Node30&#45;&gt;Node31 -->
<g id="edge43_Node000030_Node000031" class="edge">
<title>Node30&#45;&gt;Node31</title>
<g id="a_edge43_Node000030_Node000031"><a xlink:title=" ">
<path fill="none" stroke="#63b8ff" d="M2795.57,-62.32C2821.84,-52.14 2854.39,-39.51 2878.87,-30.01"/>
<polygon fill="#63b8ff" stroke="#63b8ff" points="2794.27,-59.08 2786.21,-65.95 2796.8,-65.6 2794.27,-59.08"/>
</a>
</g>
</g>
<!-- Node32&#45;&gt;Node2 -->
<g id="edge45_Node000032_Node000002" class="edge">
<title>Node32&#45;&gt;Node2</title>
<g id="a_edge45_Node000032_Node000002"><a xlink:title=" ">
<path fill="none" stroke="#63b8ff" d="M2830.71,-65.96C2395.94,-25.51 2281.7,-74.47 1851,-30 1847.98,-29.69 1844.91,-29.33 1841.81,-28.95"/>
<polygon fill="#63b8ff" stroke="#63b8ff" points="2830.43,-69.45 2840.71,-66.9 2831.09,-62.48 2830.43,-69.45"/>
</a>
</g>
</g>
<!-- Node33 -->
<g id="Node000033" class="node">
<title>Node33</title>
<g id="a_Node000033"><a xlink:href="AP__InertialSensor__SCHA63T_8cpp.html" target="_top" xlink:title=" ">
<polygon fill="white" stroke="#666666" points="3182.5,-30 3007.5,-30 3007.5,0 3182.5,0 3182.5,-30"/>
<text text-anchor="start" x="3015.5" y="-18" font-family="Helvetica,sans-Serif" font-size="10.00">libraries/AP_InertialSensor</text>
<text text-anchor="middle" x="3095" y="-7" font-family="Helvetica,sans-Serif" font-size="10.00">/AP_InertialSensor_SCHA63T.cpp</text>
</a>
</g>
</g>
<!-- Node32&#45;&gt;Node33 -->
<g id="edge46_Node000032_Node000033" class="edge">
<title>Node32&#45;&gt;Node33</title>
<g id="a_edge46_Node000032_Node000033"><a xlink:title=" ">
<path fill="none" stroke="#63b8ff" d="M2970.15,-62.46C2997.59,-52.25 3031.71,-39.55 3057.34,-30.01"/>
<polygon fill="#63b8ff" stroke="#63b8ff" points="2968.9,-59.19 2960.75,-65.95 2971.34,-65.75 2968.9,-59.19"/>
</a>
</g>
</g>
</g>
</svg>
