<?xml version="1.0" encoding="UTF-8" standalone="no"?>
<!DOCTYPE svg PUBLIC "-//W3C//DTD SVG 1.1//EN"
 "http://www.w3.org/Graphics/SVG/1.1/DTD/svg11.dtd">
<!-- Generated by graphviz version 2.43.0 (0)
 -->
<!-- Title: handle_userdata_enum Pages: 1 -->
<!--zoomable 118 -->

<svg id="main" version="1.1" xmlns="http://www.w3.org/2000/svg" xmlns:xlink="http://www.w3.org/1999/xlink" xml:space="preserve" onload="init(evt)">
<style type="text/css"><![CDATA[
.node, .edge {opacity: 0.7;}
.node.selected, .edge.selected {opacity: 1;}
.edge:hover path { stroke: red; }
.edge:hover polygon { stroke: red; fill: red; }
]]></style>

<defs>
  <circle id="rim" cx="0" cy="0" r="7"/>
  <circle id="rim2" cx="0" cy="0" r="3.5"/>
  <g id="zoomPlus">
    <use xlink:href="#rim" fill="#404040"><set attributeName="fill" to="#808080" begin="zoomplus.mouseover" end="zoomplus.mouseout"/></use>
    <path d="M-4,0h8M0,-4v8" fill="none" stroke="white" stroke-width="1.5" pointer-events="none"/>
  </g>
  <g id="zoomMin">
    <use xlink:href="#rim" fill="#404040"><set attributeName="fill" to="#808080" begin="zoomminus.mouseover" end="zoomminus.mouseout"/></use>
    <path d="M-4,0h8" fill="none" stroke="white" stroke-width="1.5" pointer-events="none"/>
  </g>
  <g id="arrowUp" transform="translate(30 24)">
    <use xlink:href="#rim"/>
    <path pointer-events="none" fill="none" stroke="white" stroke-width="1.5" d="M0,-3.0v7 M-2.5,-0.5L0,-3.0L2.5,-0.5"/>
  </g>
  <g id="arrowRight" transform="rotate(90) translate(36 -43)">
    <use xlink:href="#rim"/>
    <path pointer-events="none" fill="none" stroke="white" stroke-width="1.5" d="M0,-3.0v7 M-2.5,-0.5L0,-3.0L2.5,-0.5"/>
  </g>
  <g id="arrowDown" transform="rotate(180) translate(-30 -48)">
    <use xlink:href="#rim"/>
    <path pointer-events="none" fill="none" stroke="white" stroke-width="1.5" d="M0,-3.0v7 M-2.5,-0.5L0,-3.0L2.5,-0.5"/>
  </g>
  <g id="arrowLeft" transform="rotate(270) translate(-36 17)">
    <use xlink:href="#rim"/>
    <path pointer-events="none" fill="none" stroke="white" stroke-width="1.5" d="M0,-3.0v7 M-2.5,-0.5L0,-3.0L2.5,-0.5"/>
  </g>
  <g id="resetDef">
    <use xlink:href="#rim2" fill="#404040"><set attributeName="fill" to="#808080" begin="reset.mouseover" end="reset.mouseout"/></use>
  </g>
</defs>
<script type="application/ecmascript">
var viewWidth = 707;
var viewHeight = 118;
var sectionId = 'dynsection-79';
</script>
<script type="application/ecmascript" xlink:href="svg.min.js"/>
<svg id="graph" class="graph">
<g id="viewport">
<title>handle_userdata_enum</title>
<!-- Node1 -->
<g id="Node000001" class="node">
<title>Node1</title>
<g id="a_Node000001"><a xlink:title=" ">
<polygon fill="#999999" stroke="#666666" points="131,-78 0,-78 0,-59 131,-59 131,-78"/>
<text text-anchor="middle" x="65.5" y="-66" font-family="Helvetica,sans-Serif" font-size="10.00">handle_userdata_enum</text>
</a>
</g>
</g>
<!-- Node2 -->
<g id="Node000002" class="node">
<title>Node2</title>
<g id="a_Node000002"><a xlink:href="AP__Scripting_2generator_2src_2main_8c.html#ae7502ba27bc34359f92154124bc8461c" target="_top" xlink:title=" ">
<polygon fill="white" stroke="#666666" points="332,-106 276,-106 276,-87 332,-87 332,-106"/>
<text text-anchor="middle" x="304" y="-94" font-family="Helvetica,sans-Serif" font-size="10.00">allocate</text>
</a>
</g>
</g>
<!-- Node1&#45;&gt;Node2 -->
<g id="edge1_Node000001_Node000002" class="edge">
<title>Node1&#45;&gt;Node2</title>
<g id="a_edge1_Node000001_Node000002"><a xlink:title=" ">
<path fill="none" stroke="#63b8ff" d="M85.54,-78.08C105.32,-87.46 137.46,-101.1 167,-106.5 198.92,-112.33 207.66,-109.05 240,-106.5 248.4,-105.84 257.37,-104.69 265.83,-103.39"/>
<polygon fill="#63b8ff" stroke="#63b8ff" points="266.51,-106.83 275.82,-101.77 265.39,-99.92 266.51,-106.83"/>
</a>
</g>
</g>
<!-- Node7 -->
<g id="Node000007" class="node">
<title>Node7</title>
<g id="a_Node000007"><a xlink:href="AP__Scripting_2generator_2src_2main_8c.html#ac7789ef041fdc4ed44423de9d083caac" target="_top" xlink:title=" ">
<polygon fill="white" stroke="#666666" points="239,-60 168,-60 168,-41 239,-41 239,-60"/>
<text text-anchor="middle" x="203.5" y="-48" font-family="Helvetica,sans-Serif" font-size="10.00">next_token</text>
</a>
</g>
</g>
<!-- Node1&#45;&gt;Node7 -->
<g id="edge6_Node000001_Node000007" class="edge">
<title>Node1&#45;&gt;Node7</title>
<g id="a_edge6_Node000001_Node000007"><a xlink:title=" ">
<path fill="none" stroke="#63b8ff" d="M131.31,-59.92C140.26,-58.74 149.29,-57.54 157.76,-56.42"/>
<polygon fill="#63b8ff" stroke="#63b8ff" points="158.33,-59.88 167.79,-55.09 157.41,-52.94 158.33,-59.88"/>
</a>
</g>
</g>
<!-- Node8 -->
<g id="Node000008" class="node">
<title>Node8</title>
<g id="a_Node000008"><a xlink:href="AP__Scripting_2generator_2src_2main_8c.html#ae426a7c18856ef4065db87aae263a8a5" target="_top" xlink:title=" ">
<polygon fill="white" stroke="#666666" points="324.5,-51 283.5,-51 283.5,-32 324.5,-32 324.5,-51"/>
<text text-anchor="middle" x="304" y="-39" font-family="Helvetica,sans-Serif" font-size="10.00">trace</text>
</a>
</g>
</g>
<!-- Node1&#45;&gt;Node8 -->
<g id="edge14_Node000001_Node000008" class="edge">
<title>Node1&#45;&gt;Node8</title>
<g id="a_edge14_Node000001_Node000008"><a xlink:title=" ">
<path fill="none" stroke="#63b8ff" d="M86.72,-58.92C106.63,-50.05 138.15,-37.51 167,-32.5 198.97,-26.95 207.64,-30.2 240,-32.5 250.99,-33.28 262.98,-34.82 273.53,-36.41"/>
<polygon fill="#63b8ff" stroke="#63b8ff" points="273.07,-39.88 283.5,-37.98 274.17,-32.97 273.07,-39.88"/>
</a>
</g>
</g>
<!-- Node11 -->
<g id="Node000011" class="node">
<title>Node11</title>
<g id="a_Node000011"><a xlink:href="AP__Scripting_2generator_2src_2main_8c.html#adb462b1174700f8587479653385ad562" target="_top" xlink:title=" ">
<polygon fill="white" stroke="#666666" points="240,-97 167,-97 167,-78 240,-78 240,-97"/>
<text text-anchor="middle" x="203.5" y="-85" font-family="Helvetica,sans-Serif" font-size="10.00">string_copy</text>
</a>
</g>
</g>
<!-- Node1&#45;&gt;Node11 -->
<g id="edge12_Node000001_Node000011" class="edge">
<title>Node1&#45;&gt;Node11</title>
<g id="a_edge12_Node000001_Node000011"><a xlink:title=" ">
<path fill="none" stroke="#63b8ff" d="M131.31,-77.55C139.88,-78.75 148.51,-79.96 156.66,-81.1"/>
<polygon fill="#63b8ff" stroke="#63b8ff" points="156.3,-84.58 166.69,-82.5 157.27,-77.65 156.3,-84.58"/>
</a>
</g>
</g>
<!-- Node3 -->
<g id="Node000003" class="node">
<title>Node3</title>
<g id="a_Node000003"><a xlink:href="test__nmea__vaprint_8cpp.html#a9c36d0fe3ec4675cbffdc9b52f5fb399" target="_top" xlink:title=" ">
<polygon fill="white" stroke="#666666" points="418,-102 368,-102 368,-83 418,-83 418,-102"/>
<text text-anchor="middle" x="393" y="-90" font-family="Helvetica,sans-Serif" font-size="10.00">malloc</text>
</a>
</g>
</g>
<!-- Node2&#45;&gt;Node3 -->
<g id="edge2_Node000002_Node000003" class="edge">
<title>Node2&#45;&gt;Node3</title>
<g id="a_edge2_Node000002_Node000003"><a xlink:title=" ">
<path fill="none" stroke="#63b8ff" d="M332.05,-95.26C340.21,-94.88 349.27,-94.46 357.82,-94.07"/>
<polygon fill="#63b8ff" stroke="#63b8ff" points="358.09,-97.56 367.92,-93.61 357.77,-90.57 358.09,-97.56"/>
</a>
</g>
</g>
<!-- Node4 -->
<g id="Node000004" class="node">
<title>Node4</title>
<g id="a_Node000004"><a xlink:href="malloc_8c.html#a2807e26a012717736641384f91ab2563" target="_top" xlink:title=" ">
<polygon fill="white" stroke="#666666" points="499,-102 454,-102 454,-83 499,-83 499,-102"/>
<text text-anchor="middle" x="476.5" y="-90" font-family="Helvetica,sans-Serif" font-size="10.00">calloc</text>
</a>
</g>
</g>
<!-- Node3&#45;&gt;Node4 -->
<g id="edge3_Node000003_Node000004" class="edge">
<title>Node3&#45;&gt;Node4</title>
<g id="a_edge3_Node000003_Node000004"><a xlink:title=" ">
<path fill="none" stroke="#63b8ff" d="M418.01,-92.5C426.09,-92.5 435.23,-92.5 443.81,-92.5"/>
<polygon fill="#63b8ff" stroke="#63b8ff" points="443.88,-96 453.88,-92.5 443.88,-89 443.88,-96"/>
</a>
</g>
</g>
<!-- Node5 -->
<g id="Node000005" class="node">
<title>Node5</title>
<g id="a_Node000005"><a xlink:href="malloc_8c.html#a9c36d0fe3ec4675cbffdc9b52f5fb399" target="_top" xlink:title=" ">
<polygon fill="white" stroke="#666666" points="585,-102 535,-102 535,-83 585,-83 585,-102"/>
<text text-anchor="middle" x="560" y="-90" font-family="Helvetica,sans-Serif" font-size="10.00">malloc</text>
</a>
</g>
</g>
<!-- Node4&#45;&gt;Node5 -->
<g id="edge4_Node000004_Node000005" class="edge">
<title>Node4&#45;&gt;Node5</title>
<g id="a_edge4_Node000004_Node000005"><a xlink:title=" ">
<path fill="none" stroke="#63b8ff" d="M499.34,-92.5C507.12,-92.5 516.08,-92.5 524.65,-92.5"/>
<polygon fill="#63b8ff" stroke="#63b8ff" points="524.8,-96 534.8,-92.5 524.8,-89 524.8,-96"/>
</a>
</g>
</g>
<!-- Node6 -->
<g id="Node000006" class="node">
<title>Node6</title>
<g id="a_Node000006"><a xlink:href="malloc_8c.html#ad8aac7aa28f6dea23cb5bc9c3268e330" target="_top" xlink:title=" ">
<polygon fill="white" stroke="#666666" points="699,-102 621,-102 621,-83 699,-83 699,-102"/>
<text text-anchor="middle" x="660" y="-90" font-family="Helvetica,sans-Serif" font-size="10.00">malloc_flags</text>
</a>
</g>
</g>
<!-- Node5&#45;&gt;Node6 -->
<g id="edge5_Node000005_Node000006" class="edge">
<title>Node5&#45;&gt;Node6</title>
<g id="a_edge5_Node000005_Node000006"><a xlink:title=" ">
<path fill="none" stroke="#63b8ff" d="M585.22,-92.5C592.97,-92.5 601.83,-92.5 610.66,-92.5"/>
<polygon fill="#63b8ff" stroke="#63b8ff" points="610.94,-96 620.94,-92.5 610.94,-89 610.94,-96"/>
</a>
</g>
</g>
<!-- Node7&#45;&gt;Node8 -->
<g id="edge7_Node000007_Node000008" class="edge">
<title>Node7&#45;&gt;Node8</title>
<g id="a_edge7_Node000007_Node000008"><a xlink:title=" ">
<path fill="none" stroke="#63b8ff" d="M239.23,-47.33C250.36,-46.31 262.58,-45.19 273.32,-44.21"/>
<polygon fill="#63b8ff" stroke="#63b8ff" points="273.83,-47.68 283.47,-43.28 273.19,-40.71 273.83,-47.68"/>
</a>
</g>
</g>
<!-- Node8&#45;&gt;Node3 -->
<g id="edge9_Node000008_Node000003" class="edge">
<title>Node8&#45;&gt;Node3</title>
<g id="a_edge9_Node000008_Node000003"><a xlink:title=" ">
<path fill="none" stroke="#63b8ff" d="M321.36,-51.09C334.12,-58.57 352.07,-69.09 366.68,-77.66"/>
<polygon fill="#63b8ff" stroke="#63b8ff" points="365.31,-80.91 375.71,-82.95 368.85,-74.87 365.31,-80.91"/>
</a>
</g>
</g>
<!-- Node8&#45;&gt;Node8 -->
<g id="edge11_Node000008_Node000008" class="edge">
<title>Node8&#45;&gt;Node8</title>
<g id="a_edge11_Node000008_Node000008"><a xlink:title=" ">
<path fill="none" stroke="#63b8ff" d="M290.44,-51.08C283.84,-59.73 288.36,-69 304,-69 313.53,-69 318.93,-65.56 320.21,-60.91"/>
<polygon fill="#63b8ff" stroke="#63b8ff" points="323.54,-59.83 317.56,-51.08 316.78,-61.65 323.54,-59.83"/>
</a>
</g>
</g>
<!-- Node9 -->
<g id="Node000009" class="node">
<title>Node9</title>
<g id="a_Node000009"><a xlink:href="malloc_8c.html#afbedc913aa4651b3c3b4b3aecd9b4711" target="_top" xlink:title=" ">
<polygon fill="white" stroke="#666666" points="411,-56 375,-56 375,-37 411,-37 411,-56"/>
<text text-anchor="middle" x="393" y="-44" font-family="Helvetica,sans-Serif" font-size="10.00">free</text>
</a>
</g>
</g>
<!-- Node8&#45;&gt;Node9 -->
<g id="edge8_Node000008_Node000009" class="edge">
<title>Node8&#45;&gt;Node9</title>
<g id="a_edge8_Node000008_Node000009"><a xlink:title=" ">
<path fill="none" stroke="#63b8ff" d="M324.74,-42.63C336.57,-43.31 351.78,-44.19 364.74,-44.93"/>
<polygon fill="#63b8ff" stroke="#63b8ff" points="364.79,-48.44 374.98,-45.52 365.2,-41.45 364.79,-48.44"/>
</a>
</g>
</g>
<!-- Node10 -->
<g id="Node000010" class="node">
<title>Node10</title>
<g id="a_Node000010"><a xlink:href="posix__compat_8h.html#a3082155ec11e7229f7a20439b31a169e" target="_top" xlink:title=" ">
<polygon fill="white" stroke="#666666" points="417,-19 369,-19 369,0 417,0 417,-19"/>
<text text-anchor="middle" x="393" y="-7" font-family="Helvetica,sans-Serif" font-size="10.00">sprintf</text>
</a>
</g>
</g>
<!-- Node8&#45;&gt;Node10 -->
<g id="edge10_Node000008_Node000010" class="edge">
<title>Node8&#45;&gt;Node10</title>
<g id="a_edge10_Node000008_Node000010"><a xlink:title=" ">
<path fill="none" stroke="#63b8ff" d="M324.74,-34.24C335,-30.46 347.81,-25.75 359.49,-21.46"/>
<polygon fill="#63b8ff" stroke="#63b8ff" points="360.77,-24.72 368.95,-17.98 358.35,-18.15 360.77,-24.72"/>
</a>
</g>
</g>
<!-- Node11&#45;&gt;Node2 -->
<g id="edge13_Node000011_Node000002" class="edge">
<title>Node11&#45;&gt;Node2</title>
<g id="a_edge13_Node000011_Node000002"><a xlink:title=" ">
<path fill="none" stroke="#63b8ff" d="M240.06,-90.75C248.44,-91.52 257.4,-92.33 265.86,-93.11"/>
<polygon fill="#63b8ff" stroke="#63b8ff" points="265.56,-96.59 275.84,-94.02 266.2,-89.62 265.56,-96.59"/>
</a>
</g>
</g>
</g>
</svg>

<g id="navigator" transform="translate(0 0)" fill="#404254">
  <rect fill="#f2f5e9" fill-opacity="0.5" stroke="#606060" stroke-width=".5" x="0" y="0" width="60" height="60"/>
  <use id="zoomplus" xlink:href="#zoomPlus" x="17" y="9" onmousedown="handleZoom(evt,'in')"/>
  <use id="zoomminus" xlink:href="#zoomMin" x="42" y="9" onmousedown="handleZoom(evt,'out')"/>
  <use id="reset" xlink:href="#resetDef" x="30" y="36" onmousedown="handleReset()"/>
   <use id="arrowup" xlink:href="#arrowUp" x="0" y="0" onmousedown="handlePan(0,-1)"/>
  <use id="arrowright" xlink:href="#arrowRight" x="0" y="0" onmousedown="handlePan(1,0)"/>
  <use id="arrowdown" xlink:href="#arrowDown" x="0" y="0" onmousedown="handlePan(0,1)"/>
  <use id="arrowleft" xlink:href="#arrowLeft" x="0" y="0" onmousedown="handlePan(-1,0)"/>
</g>
<svg viewBox="0 0 15 15" width="100%" height="30px" preserveAspectRatio="xMaxYMin meet">
 <g id="arrow_out" transform="scale(0.3 0.3)">
  <a xlink:href="AP__Scripting_2generator_2src_2main_8c_af958164451e7729ee6b1b5e1a8880672_cgraph_org.svg" target="_base">
   <rect id="button" ry="5" rx="5" y="6" x="6" height="38" width="38"
        fill="#f2f5e9" fill-opacity="0.5" stroke="#606060" stroke-width="1.0"/>
   <path id="arrow"
     d="M 11.500037,31.436501 C 11.940474,20.09759 22.043105,11.32322 32.158766,21.979434 L 37.068811,17.246167 C 37.068811,17.246167 37.088388,32 37.088388,32 L 22.160133,31.978069 C 22.160133,31.978069 26.997745,27.140456 26.997745,27.140456 C 18.528582,18.264221 13.291696,25.230495 11.500037,31.436501 z"
     style="fill:#404040;"/>
  </a>
 </g>
</svg>

<style type='text/css'>
<![CDATA[
[data-mouse-over-selected='false'] { opacity: 0.7; }
[data-mouse-over-selected='true']  { opacity: 1.0; }
]]>
</style>
<script type="application/ecmascript"><![CDATA[
document.addEventListener('DOMContentLoaded', (event) => {
  highlightEdges();
  highlightAdjacentNodes();
});
]]></script>
</svg>
