<?xml version="1.0" encoding="UTF-8" standalone="no"?>
<!DOCTYPE svg PUBLIC "-//W3C//DTD SVG 1.1//EN"
 "http://www.w3.org/Graphics/SVG/1.1/DTD/svg11.dtd">
<!-- Generated by graphviz version 2.43.0 (0)
 -->
<!-- Title: libraries/AP_HAL_ChibiOS/WSPIDevice.h Pages: 1 -->
<svg width="316pt" height="170pt"
 viewBox="0.00 0.00 315.50 170.00" xmlns="http://www.w3.org/2000/svg" xmlns:xlink="http://www.w3.org/1999/xlink">
<g id="graph0" class="graph" transform="scale(1 1) rotate(0) translate(4 166)">
<title>libraries/AP_HAL_ChibiOS/WSPIDevice.h</title>
<!-- Node1 -->
<g id="Node000001" class="node">
<title>Node1</title>
<g id="a_Node000001"><a xlink:title=" ">
<polygon fill="#999999" stroke="#666666" points="225.5,-162 85.5,-162 85.5,-132 225.5,-132 225.5,-162"/>
<text text-anchor="start" x="93.5" y="-150" font-family="Helvetica,sans-Serif" font-size="10.00">libraries/AP_HAL_ChibiOS</text>
<text text-anchor="middle" x="155.5" y="-139" font-family="Helvetica,sans-Serif" font-size="10.00">/WSPIDevice.h</text>
</a>
</g>
</g>
<!-- Node2 -->
<g id="Node000002" class="node">
<title>Node2</title>
<g id="a_Node000002"><a xlink:href="AP__HAL__ChibiOS__Private_8h.html" target="_top" xlink:title=" ">
<polygon fill="white" stroke="#666666" points="149,-96 0,-96 0,-66 149,-66 149,-96"/>
<text text-anchor="start" x="8" y="-84" font-family="Helvetica,sans-Serif" font-size="10.00">libraries/AP_HAL_ChibiOS</text>
<text text-anchor="middle" x="74.5" y="-73" font-family="Helvetica,sans-Serif" font-size="10.00">/AP_HAL_ChibiOS_Private.h</text>
</a>
</g>
</g>
<!-- Node1&#45;&gt;Node2 -->
<g id="edge1_Node000001_Node000002" class="edge">
<title>Node1&#45;&gt;Node2</title>
<g id="a_edge1_Node000001_Node000002"><a xlink:title=" ">
<path fill="none" stroke="#63b8ff" d="M129.53,-125.48C117.42,-115.91 103.32,-104.77 92.43,-96.16"/>
<polygon fill="#63b8ff" stroke="#63b8ff" points="127.51,-128.34 137.52,-131.8 131.85,-122.85 127.51,-128.34"/>
</a>
</g>
</g>
<!-- Node4 -->
<g id="Node000004" class="node">
<title>Node4</title>
<g id="a_Node000004"><a xlink:href="WSPIDevice_8cpp.html" target="_top" xlink:title=" ">
<polygon fill="white" stroke="#666666" points="307.5,-96 167.5,-96 167.5,-66 307.5,-66 307.5,-96"/>
<text text-anchor="start" x="175.5" y="-84" font-family="Helvetica,sans-Serif" font-size="10.00">libraries/AP_HAL_ChibiOS</text>
<text text-anchor="middle" x="237.5" y="-73" font-family="Helvetica,sans-Serif" font-size="10.00">/WSPIDevice.cpp</text>
</a>
</g>
</g>
<!-- Node1&#45;&gt;Node4 -->
<g id="edge3_Node000001_Node000004" class="edge">
<title>Node1&#45;&gt;Node4</title>
<g id="a_edge3_Node000001_Node000004"><a xlink:title=" ">
<path fill="none" stroke="#63b8ff" d="M181.79,-125.48C194.05,-115.91 208.32,-104.77 219.35,-96.16"/>
<polygon fill="#63b8ff" stroke="#63b8ff" points="179.43,-122.88 173.7,-131.8 183.74,-128.4 179.43,-122.88"/>
</a>
</g>
</g>
<!-- Node3 -->
<g id="Node000003" class="node">
<title>Node3</title>
<g id="a_Node000003"><a xlink:href="HAL__ChibiOS__Class_8cpp.html" target="_top" xlink:title=" ">
<polygon fill="white" stroke="#666666" points="144.5,-30 4.5,-30 4.5,0 144.5,0 144.5,-30"/>
<text text-anchor="start" x="12.5" y="-18" font-family="Helvetica,sans-Serif" font-size="10.00">libraries/AP_HAL_ChibiOS</text>
<text text-anchor="middle" x="74.5" y="-7" font-family="Helvetica,sans-Serif" font-size="10.00">/HAL_ChibiOS_Class.cpp</text>
</a>
</g>
</g>
<!-- Node2&#45;&gt;Node3 -->
<g id="edge2_Node000002_Node000003" class="edge">
<title>Node2&#45;&gt;Node3</title>
<g id="a_edge2_Node000002_Node000003"><a xlink:title=" ">
<path fill="none" stroke="#63b8ff" d="M74.5,-55.54C74.5,-46.96 74.5,-37.61 74.5,-30.16"/>
<polygon fill="#63b8ff" stroke="#63b8ff" points="71,-55.8 74.5,-65.8 78,-55.8 71,-55.8"/>
</a>
</g>
</g>
</g>
</svg>
