<?xml version="1.0" encoding="UTF-8" standalone="no"?>
<!DOCTYPE svg PUBLIC "-//W3C//DTD SVG 1.1//EN"
 "http://www.w3.org/Graphics/SVG/1.1/DTD/svg11.dtd">
<!-- Generated by graphviz version 2.43.0 (0)
 -->
<!-- Title: libraries/AP_PiccoloCAN/AP_PiccoloCAN_Device.h Pages: 1 -->
<!--zoomable 236 -->

<svg id="main" version="1.1" xmlns="http://www.w3.org/2000/svg" xmlns:xlink="http://www.w3.org/1999/xlink" xml:space="preserve" onload="init(evt)">
<style type="text/css"><![CDATA[
.node, .edge {opacity: 0.7;}
.node.selected, .edge.selected {opacity: 1;}
.edge:hover path { stroke: red; }
.edge:hover polygon { stroke: red; fill: red; }
]]></style>

<defs>
  <circle id="rim" cx="0" cy="0" r="7"/>
  <circle id="rim2" cx="0" cy="0" r="3.5"/>
  <g id="zoomPlus">
    <use xlink:href="#rim" fill="#404040"><set attributeName="fill" to="#808080" begin="zoomplus.mouseover" end="zoomplus.mouseout"/></use>
    <path d="M-4,0h8M0,-4v8" fill="none" stroke="white" stroke-width="1.5" pointer-events="none"/>
  </g>
  <g id="zoomMin">
    <use xlink:href="#rim" fill="#404040"><set attributeName="fill" to="#808080" begin="zoomminus.mouseover" end="zoomminus.mouseout"/></use>
    <path d="M-4,0h8" fill="none" stroke="white" stroke-width="1.5" pointer-events="none"/>
  </g>
  <g id="arrowUp" transform="translate(30 24)">
    <use xlink:href="#rim"/>
    <path pointer-events="none" fill="none" stroke="white" stroke-width="1.5" d="M0,-3.0v7 M-2.5,-0.5L0,-3.0L2.5,-0.5"/>
  </g>
  <g id="arrowRight" transform="rotate(90) translate(36 -43)">
    <use xlink:href="#rim"/>
    <path pointer-events="none" fill="none" stroke="white" stroke-width="1.5" d="M0,-3.0v7 M-2.5,-0.5L0,-3.0L2.5,-0.5"/>
  </g>
  <g id="arrowDown" transform="rotate(180) translate(-30 -48)">
    <use xlink:href="#rim"/>
    <path pointer-events="none" fill="none" stroke="white" stroke-width="1.5" d="M0,-3.0v7 M-2.5,-0.5L0,-3.0L2.5,-0.5"/>
  </g>
  <g id="arrowLeft" transform="rotate(270) translate(-36 17)">
    <use xlink:href="#rim"/>
    <path pointer-events="none" fill="none" stroke="white" stroke-width="1.5" d="M0,-3.0v7 M-2.5,-0.5L0,-3.0L2.5,-0.5"/>
  </g>
  <g id="resetDef">
    <use xlink:href="#rim2" fill="#404040"><set attributeName="fill" to="#808080" begin="reset.mouseover" end="reset.mouseout"/></use>
  </g>
</defs>
<script type="application/ecmascript">
var viewWidth = 618;
var viewHeight = 236;
var sectionId = 'dynsection-1';
</script>
<script type="application/ecmascript" xlink:href="svg.min.js"/>
<svg id="graph" class="graph">
<g id="viewport">
<title>libraries/AP_PiccoloCAN/AP_PiccoloCAN_Device.h</title>
<!-- Node1 -->
<g id="Node000001" class="node">
<title>Node1</title>
<g id="a_Node000001"><a xlink:title=" ">
<polygon fill="#999999" stroke="#666666" points="341,-228 200,-228 200,-198 341,-198 341,-228"/>
<text text-anchor="start" x="208" y="-216" font-family="Helvetica,sans-Serif" font-size="10.00">libraries/AP_PiccoloCAN</text>
<text text-anchor="middle" x="270.5" y="-205" font-family="Helvetica,sans-Serif" font-size="10.00">/AP_PiccoloCAN_Device.h</text>
</a>
</g>
</g>
<!-- Node2 -->
<g id="Node000002" class="node">
<title>Node2</title>
<g id="a_Node000002"><a xlink:href="AP__PiccoloCAN_8h.html" target="_top" xlink:title=" ">
<polygon fill="white" stroke="#666666" points="290,-96 157,-96 157,-66 290,-66 290,-96"/>
<text text-anchor="start" x="165" y="-84" font-family="Helvetica,sans-Serif" font-size="10.00">libraries/AP_PiccoloCAN</text>
<text text-anchor="middle" x="223.5" y="-73" font-family="Helvetica,sans-Serif" font-size="10.00">/AP_PiccoloCAN.h</text>
</a>
</g>
</g>
<!-- Node1&#45;&gt;Node2 -->
<g id="edge1_Node000001_Node000002" class="edge">
<title>Node1&#45;&gt;Node2</title>
<g id="a_edge1_Node000001_Node000002"><a xlink:title=" ">
<path fill="none" stroke="#63b8ff" d="M255.83,-188.96C251.06,-180.7 246.07,-171.16 242.5,-162 233.84,-139.79 228.39,-112.51 225.65,-96.23"/>
<polygon fill="#63b8ff" stroke="#63b8ff" points="252.9,-190.88 261.05,-197.65 258.91,-187.27 252.9,-190.88"/>
</a>
</g>
</g>
<!-- Node4 -->
<g id="Node000004" class="node">
<title>Node4</title>
<g id="a_Node000004"><a xlink:href="AP__PiccoloCAN__ECU_8h.html" target="_top" xlink:title=" ">
<polygon fill="white" stroke="#666666" points="195,-162 62,-162 62,-132 195,-132 195,-162"/>
<text text-anchor="start" x="70" y="-150" font-family="Helvetica,sans-Serif" font-size="10.00">libraries/AP_PiccoloCAN</text>
<text text-anchor="middle" x="128.5" y="-139" font-family="Helvetica,sans-Serif" font-size="10.00">/AP_PiccoloCAN_ECU.h</text>
</a>
</g>
</g>
<!-- Node1&#45;&gt;Node4 -->
<g id="edge3_Node000001_Node000004" class="edge">
<title>Node1&#45;&gt;Node4</title>
<g id="a_edge3_Node000001_Node000004"><a xlink:title=" ">
<path fill="none" stroke="#63b8ff" d="M230.08,-193.78C207.7,-183.69 180.29,-171.34 159.59,-162.01"/>
<polygon fill="#63b8ff" stroke="#63b8ff" points="228.78,-197.04 239.34,-197.95 231.66,-190.65 228.78,-197.04"/>
</a>
</g>
</g>
<!-- Node6 -->
<g id="Node000006" class="node">
<title>Node6</title>
<g id="a_Node000006"><a xlink:href="AP__PiccoloCAN__ESC_8h.html" target="_top" xlink:title=" ">
<polygon fill="white" stroke="#666666" points="385,-162 252,-162 252,-132 385,-132 385,-162"/>
<text text-anchor="start" x="260" y="-150" font-family="Helvetica,sans-Serif" font-size="10.00">libraries/AP_PiccoloCAN</text>
<text text-anchor="middle" x="318.5" y="-139" font-family="Helvetica,sans-Serif" font-size="10.00">/AP_PiccoloCAN_ESC.h</text>
</a>
</g>
</g>
<!-- Node1&#45;&gt;Node6 -->
<g id="edge6_Node000001_Node000006" class="edge">
<title>Node1&#45;&gt;Node6</title>
<g id="a_edge6_Node000001_Node000006"><a xlink:title=" ">
<path fill="none" stroke="#63b8ff" d="M287.36,-189.53C294.18,-180.43 301.85,-170.19 307.88,-162.16"/>
<polygon fill="#63b8ff" stroke="#63b8ff" points="284.35,-187.7 281.15,-197.8 289.95,-191.9 284.35,-187.7"/>
</a>
</g>
</g>
<!-- Node8 -->
<g id="Node000008" class="node">
<title>Node8</title>
<g id="a_Node000008"><a xlink:href="AP__PiccoloCAN__Servo_8h.html" target="_top" xlink:title=" ">
<polygon fill="white" stroke="#666666" points="538,-162 403,-162 403,-132 538,-132 538,-162"/>
<text text-anchor="start" x="411" y="-150" font-family="Helvetica,sans-Serif" font-size="10.00">libraries/AP_PiccoloCAN</text>
<text text-anchor="middle" x="470.5" y="-139" font-family="Helvetica,sans-Serif" font-size="10.00">/AP_PiccoloCAN_Servo.h</text>
</a>
</g>
</g>
<!-- Node1&#45;&gt;Node8 -->
<g id="edge9_Node000001_Node000008" class="edge">
<title>Node1&#45;&gt;Node8</title>
<g id="a_edge9_Node000001_Node000008"><a xlink:title=" ">
<path fill="none" stroke="#63b8ff" d="M324.07,-194.86C356.19,-184.58 396.51,-171.68 426.71,-162.01"/>
<polygon fill="#63b8ff" stroke="#63b8ff" points="322.85,-191.57 314.39,-197.95 324.98,-198.24 322.85,-191.57"/>
</a>
</g>
</g>
<!-- Node3 -->
<g id="Node000003" class="node">
<title>Node3</title>
<g id="a_Node000003"><a xlink:href="AP__PiccoloCAN_8cpp.html" target="_top" xlink:title=" ">
<polygon fill="white" stroke="#666666" points="290,-30 157,-30 157,0 290,0 290,-30"/>
<text text-anchor="start" x="165" y="-18" font-family="Helvetica,sans-Serif" font-size="10.00">libraries/AP_PiccoloCAN</text>
<text text-anchor="middle" x="223.5" y="-7" font-family="Helvetica,sans-Serif" font-size="10.00">/AP_PiccoloCAN.cpp</text>
</a>
</g>
</g>
<!-- Node2&#45;&gt;Node3 -->
<g id="edge2_Node000002_Node000003" class="edge">
<title>Node2&#45;&gt;Node3</title>
<g id="a_edge2_Node000002_Node000003"><a xlink:title=" ">
<path fill="none" stroke="#63b8ff" d="M223.5,-55.54C223.5,-46.96 223.5,-37.61 223.5,-30.16"/>
<polygon fill="#63b8ff" stroke="#63b8ff" points="220,-55.8 223.5,-65.8 227,-55.8 220,-55.8"/>
</a>
</g>
</g>
<!-- Node4&#45;&gt;Node2 -->
<g id="edge4_Node000004_Node000002" class="edge">
<title>Node4&#45;&gt;Node2</title>
<g id="a_edge4_Node000004_Node000002"><a xlink:title=" ">
<path fill="none" stroke="#63b8ff" d="M158.15,-126.03C172.52,-116.34 189.45,-104.94 202.48,-96.16"/>
<polygon fill="#63b8ff" stroke="#63b8ff" points="155.92,-123.31 149.58,-131.8 159.83,-129.11 155.92,-123.31"/>
</a>
</g>
</g>
<!-- Node5 -->
<g id="Node000005" class="node">
<title>Node5</title>
<g id="a_Node000005"><a xlink:href="AP__PiccoloCAN__ECU_8cpp.html" target="_top" xlink:title=" ">
<polygon fill="white" stroke="#666666" points="139,-96 0,-96 0,-66 139,-66 139,-96"/>
<text text-anchor="start" x="8" y="-84" font-family="Helvetica,sans-Serif" font-size="10.00">libraries/AP_PiccoloCAN</text>
<text text-anchor="middle" x="69.5" y="-73" font-family="Helvetica,sans-Serif" font-size="10.00">/AP_PiccoloCAN_ECU.cpp</text>
</a>
</g>
</g>
<!-- Node4&#45;&gt;Node5 -->
<g id="edge5_Node000004_Node000005" class="edge">
<title>Node4&#45;&gt;Node5</title>
<g id="a_edge5_Node000004_Node000005"><a xlink:title=" ">
<path fill="none" stroke="#63b8ff" d="M108.56,-124.37C99.98,-115.06 90.19,-104.44 82.56,-96.16"/>
<polygon fill="#63b8ff" stroke="#63b8ff" points="106.05,-126.82 115.41,-131.8 111.2,-122.07 106.05,-126.82"/>
</a>
</g>
</g>
<!-- Node6&#45;&gt;Node2 -->
<g id="edge7_Node000006_Node000002" class="edge">
<title>Node6&#45;&gt;Node2</title>
<g id="a_edge7_Node000006_Node000002"><a xlink:title=" ">
<path fill="none" stroke="#63b8ff" d="M288.85,-126.03C274.48,-116.34 257.55,-104.94 244.52,-96.16"/>
<polygon fill="#63b8ff" stroke="#63b8ff" points="287.17,-129.11 297.42,-131.8 291.08,-123.31 287.17,-129.11"/>
</a>
</g>
</g>
<!-- Node7 -->
<g id="Node000007" class="node">
<title>Node7</title>
<g id="a_Node000007"><a xlink:href="AP__PiccoloCAN__ESC_8cpp.html" target="_top" xlink:title=" ">
<polygon fill="white" stroke="#666666" points="445,-96 308,-96 308,-66 445,-66 445,-96"/>
<text text-anchor="start" x="316" y="-84" font-family="Helvetica,sans-Serif" font-size="10.00">libraries/AP_PiccoloCAN</text>
<text text-anchor="middle" x="376.5" y="-73" font-family="Helvetica,sans-Serif" font-size="10.00">/AP_PiccoloCAN_ESC.cpp</text>
</a>
</g>
</g>
<!-- Node6&#45;&gt;Node7 -->
<g id="edge8_Node000006_Node000007" class="edge">
<title>Node6&#45;&gt;Node7</title>
<g id="a_edge8_Node000006_Node000007"><a xlink:title=" ">
<path fill="none" stroke="#63b8ff" d="M338.1,-124.37C346.54,-115.06 356.16,-104.44 363.66,-96.16"/>
<polygon fill="#63b8ff" stroke="#63b8ff" points="335.49,-122.04 331.37,-131.8 340.68,-126.74 335.49,-122.04"/>
</a>
</g>
</g>
<!-- Node8&#45;&gt;Node2 -->
<g id="edge10_Node000008_Node000002" class="edge">
<title>Node8&#45;&gt;Node2</title>
<g id="a_edge10_Node000008_Node000002"><a xlink:title=" ">
<path fill="none" stroke="#63b8ff" d="M406.38,-129.39C366.4,-119.03 315.52,-105.84 277.58,-96.01"/>
<polygon fill="#63b8ff" stroke="#63b8ff" points="405.74,-132.83 416.29,-131.95 407.49,-126.06 405.74,-132.83"/>
</a>
</g>
</g>
<!-- Node9 -->
<g id="Node000009" class="node">
<title>Node9</title>
<g id="a_Node000009"><a xlink:href="AP__PiccoloCAN__Servo_8cpp.html" target="_top" xlink:title=" ">
<polygon fill="white" stroke="#666666" points="609.5,-96 463.5,-96 463.5,-66 609.5,-66 609.5,-96"/>
<text text-anchor="start" x="471.5" y="-84" font-family="Helvetica,sans-Serif" font-size="10.00">libraries/AP_PiccoloCAN</text>
<text text-anchor="middle" x="536.5" y="-73" font-family="Helvetica,sans-Serif" font-size="10.00">/AP_PiccoloCAN_Servo.cpp</text>
</a>
</g>
</g>
<!-- Node8&#45;&gt;Node9 -->
<g id="edge11_Node000008_Node000009" class="edge">
<title>Node8&#45;&gt;Node9</title>
<g id="a_edge11_Node000008_Node000009"><a xlink:title=" ">
<path fill="none" stroke="#63b8ff" d="M492.52,-124.65C502.19,-115.27 513.27,-104.53 521.89,-96.16"/>
<polygon fill="#63b8ff" stroke="#63b8ff" points="489.89,-122.32 485.15,-131.8 494.76,-127.35 489.89,-122.32"/>
</a>
</g>
</g>
</g>
</svg>

<g id="navigator" transform="translate(0 0)" fill="#404254">
  <rect fill="#f2f5e9" fill-opacity="0.5" stroke="#606060" stroke-width=".5" x="0" y="0" width="60" height="60"/>
  <use id="zoomplus" xlink:href="#zoomPlus" x="17" y="9" onmousedown="handleZoom(evt,'in')"/>
  <use id="zoomminus" xlink:href="#zoomMin" x="42" y="9" onmousedown="handleZoom(evt,'out')"/>
  <use id="reset" xlink:href="#resetDef" x="30" y="36" onmousedown="handleReset()"/>
   <use id="arrowup" xlink:href="#arrowUp" x="0" y="0" onmousedown="handlePan(0,-1)"/>
  <use id="arrowright" xlink:href="#arrowRight" x="0" y="0" onmousedown="handlePan(1,0)"/>
  <use id="arrowdown" xlink:href="#arrowDown" x="0" y="0" onmousedown="handlePan(0,1)"/>
  <use id="arrowleft" xlink:href="#arrowLeft" x="0" y="0" onmousedown="handlePan(-1,0)"/>
</g>
<svg viewBox="0 0 15 15" width="100%" height="30px" preserveAspectRatio="xMaxYMin meet">
 <g id="arrow_out" transform="scale(0.3 0.3)">
  <a xlink:href="AP__PiccoloCAN__Device_8h__dep__incl_org.svg" target="_base">
   <rect id="button" ry="5" rx="5" y="6" x="6" height="38" width="38"
        fill="#f2f5e9" fill-opacity="0.5" stroke="#606060" stroke-width="1.0"/>
   <path id="arrow"
     d="M 11.500037,31.436501 C 11.940474,20.09759 22.043105,11.32322 32.158766,21.979434 L 37.068811,17.246167 C 37.068811,17.246167 37.088388,32 37.088388,32 L 22.160133,31.978069 C 22.160133,31.978069 26.997745,27.140456 26.997745,27.140456 C 18.528582,18.264221 13.291696,25.230495 11.500037,31.436501 z"
     style="fill:#404040;"/>
  </a>
 </g>
</svg>

<style type='text/css'>
<![CDATA[
[data-mouse-over-selected='false'] { opacity: 0.7; }
[data-mouse-over-selected='true']  { opacity: 1.0; }
]]>
</style>
<script type="application/ecmascript"><![CDATA[
document.addEventListener('DOMContentLoaded', (event) => {
  highlightEdges();
  highlightAdjacentNodes();
});
]]></script>
</svg>
