<?xml version="1.0" encoding="UTF-8" standalone="no"?>
<!DOCTYPE svg PUBLIC "-//W3C//DTD SVG 1.1//EN"
 "http://www.w3.org/Graphics/SVG/1.1/DTD/svg11.dtd">
<!-- Generated by graphviz version 2.43.0 (0)
 -->
<!-- Title: libraries/AP_TempCalibration/AP_TempCalibration_config.h Pages: 1 -->
<svg width="221pt" height="170pt"
 viewBox="0.00 0.00 221.00 170.00" xmlns="http://www.w3.org/2000/svg" xmlns:xlink="http://www.w3.org/1999/xlink">

<svg id="main" version="1.1" xmlns="http://www.w3.org/2000/svg" xmlns:xlink="http://www.w3.org/1999/xlink" xml:space="preserve" onload="init(evt)">
<style type="text/css"><![CDATA[
.node, .edge {opacity: 0.7;}
.node.selected, .edge.selected {opacity: 1;}
.edge:hover path { stroke: red; }
.edge:hover polygon { stroke: red; fill: red; }
]]></style>
<script type="application/ecmascript" xlink:href="svg.min.js"/>
<svg id="graph" class="graph">
<g id="graph0" class="graph" transform="scale(1 1) rotate(0) translate(4 166)">
<title>libraries/AP_TempCalibration/AP_TempCalibration_config.h</title>
<!-- Node1 -->
<g id="Node000001" class="node">
<title>Node1</title>
<g id="a_Node000001"><a xlink:title=" ">
<polygon fill="#999999" stroke="#666666" points="161,-162 0,-162 0,-132 161,-132 161,-162"/>
<text text-anchor="start" x="8" y="-150" font-family="Helvetica,sans-Serif" font-size="10.00">libraries/AP_TempCalibration</text>
<text text-anchor="middle" x="80.5" y="-139" font-family="Helvetica,sans-Serif" font-size="10.00">/AP_TempCalibration_config.h</text>
</a>
</g>
</g>
<!-- Node2 -->
<g id="Node000002" class="node">
<title>Node2</title>
<g id="a_Node000002"><a xlink:href="AP__TempCalibration_8cpp.html" target="_top" xlink:title=" ">
<polygon fill="white" stroke="#666666" points="159,-30 2,-30 2,0 159,0 159,-30"/>
<text text-anchor="start" x="10" y="-18" font-family="Helvetica,sans-Serif" font-size="10.00">libraries/AP_TempCalibration</text>
<text text-anchor="middle" x="80.5" y="-7" font-family="Helvetica,sans-Serif" font-size="10.00">/AP_TempCalibration.cpp</text>
</a>
</g>
</g>
<!-- Node1&#45;&gt;Node2 -->
<g id="edge1_Node000001_Node000002" class="edge">
<title>Node1&#45;&gt;Node2</title>
<g id="a_edge1_Node000001_Node000002"><a xlink:title=" ">
<path fill="none" stroke="#63b8ff" d="M61.35,-123.97C55.39,-115.75 49.57,-105.98 46.5,-96 42.58,-83.26 42.58,-78.74 46.5,-66 50.64,-52.56 59.76,-39.49 67.51,-30.08"/>
<polygon fill="#63b8ff" stroke="#63b8ff" points="58.62,-126.16 67.51,-131.92 64.15,-121.87 58.62,-126.16"/>
</a>
</g>
</g>
<!-- Node3 -->
<g id="Node000003" class="node">
<title>Node3</title>
<g id="a_Node000003"><a xlink:href="AP__TempCalibration_8h.html" target="_top" xlink:title=" ">
<polygon fill="white" stroke="#666666" points="213,-96 56,-96 56,-66 213,-66 213,-96"/>
<text text-anchor="start" x="64" y="-84" font-family="Helvetica,sans-Serif" font-size="10.00">libraries/AP_TempCalibration</text>
<text text-anchor="middle" x="134.5" y="-73" font-family="Helvetica,sans-Serif" font-size="10.00">/AP_TempCalibration.h</text>
</a>
</g>
</g>
<!-- Node1&#45;&gt;Node3 -->
<g id="edge2_Node000001_Node000003" class="edge">
<title>Node1&#45;&gt;Node3</title>
<g id="a_edge2_Node000001_Node000003"><a xlink:title=" ">
<path fill="none" stroke="#63b8ff" d="M98.99,-124.09C106.78,-114.85 115.63,-104.36 122.55,-96.16"/>
<polygon fill="#63b8ff" stroke="#63b8ff" points="96.26,-121.9 92.48,-131.8 101.61,-126.41 96.26,-121.9"/>
</a>
</g>
</g>
<!-- Node3&#45;&gt;Node2 -->
<g id="edge3_Node000003_Node000002" class="edge">
<title>Node3&#45;&gt;Node2</title>
<g id="a_edge3_Node000003_Node000002"><a xlink:title=" ">
<path fill="none" stroke="#63b8ff" d="M116.01,-58.09C108.22,-48.85 99.37,-38.36 92.45,-30.16"/>
<polygon fill="#63b8ff" stroke="#63b8ff" points="113.39,-60.41 122.52,-65.8 118.74,-55.9 113.39,-60.41"/>
</a>
</g>
</g>
</g>
</svg>
</svg>

<style type='text/css'>
<![CDATA[
[data-mouse-over-selected='false'] { opacity: 0.7; }
[data-mouse-over-selected='true']  { opacity: 1.0; }
]]>
</style>
<script type="application/ecmascript"><![CDATA[
document.addEventListener('DOMContentLoaded', (event) => {
  highlightEdges();
  highlightAdjacentNodes();
});
]]></script>
</svg>
