<?xml version="1.0" encoding="UTF-8" standalone="no"?>
<!DOCTYPE svg PUBLIC "-//W3C//DTD SVG 1.1//EN"
 "http://www.w3.org/Graphics/SVG/1.1/DTD/svg11.dtd">
<!-- Generated by graphviz version 2.43.0 (0)
 -->
<!-- Title: parse_type Pages: 1 -->
<svg width="454pt" height="101pt"
 viewBox="0.00 0.00 454.00 101.00" xmlns="http://www.w3.org/2000/svg" xmlns:xlink="http://www.w3.org/1999/xlink">
<g id="graph0" class="graph" transform="scale(1 1) rotate(0) translate(4 97)">
<title>parse_type</title>
<!-- Node1 -->
<g id="Node000001" class="node">
<title>Node1</title>
<g id="a_Node000001"><a xlink:title=" ">
<polygon fill="#999999" stroke="#666666" points="446,-37 375,-37 375,-18 446,-18 446,-37"/>
<text text-anchor="middle" x="410.5" y="-25" font-family="Helvetica,sans-Serif" font-size="10.00">parse_type</text>
</a>
</g>
</g>
<!-- Node2 -->
<g id="Node000002" class="node">
<title>Node2</title>
<g id="a_Node000002"><a xlink:href="AP__Scripting_2generator_2src_2main_8c.html#ab9803eac9cafb98bf58ba08574dd4060" target="_top" xlink:title=" ">
<polygon fill="white" stroke="#666666" points="323,-56 231,-56 231,-37 323,-37 323,-56"/>
<text text-anchor="middle" x="277" y="-44" font-family="Helvetica,sans-Serif" font-size="10.00">handle_method</text>
</a>
</g>
</g>
<!-- Node1&#45;&gt;Node2 -->
<g id="edge1_Node000001_Node000002" class="edge">
<title>Node1&#45;&gt;Node2</title>
<g id="a_edge1_Node000001_Node000002"><a xlink:title=" ">
<path fill="none" stroke="#63b8ff" d="M364.96,-33.94C351.5,-35.88 336.71,-38.02 323.21,-39.97"/>
<polygon fill="#63b8ff" stroke="#63b8ff" points="365.55,-37.39 374.95,-32.49 364.55,-30.46 365.55,-37.39"/>
</a>
</g>
</g>
<!-- Node7 -->
<g id="Node000007" class="node">
<title>Node7</title>
<g id="a_Node000007"><a xlink:href="AP__Scripting_2generator_2src_2main_8c.html#a7d02f1dbc156d46e6e13e89af631f238" target="_top" xlink:title=" ">
<polygon fill="white" stroke="#666666" points="339,-19 215,-19 215,0 339,0 339,-19"/>
<text text-anchor="middle" x="277" y="-7" font-family="Helvetica,sans-Serif" font-size="10.00">handle_userdata_field</text>
</a>
</g>
</g>
<!-- Node1&#45;&gt;Node7 -->
<g id="edge8_Node000001_Node000007" class="edge">
<title>Node1&#45;&gt;Node7</title>
<g id="a_edge8_Node000001_Node000007"><a xlink:title=" ">
<path fill="none" stroke="#63b8ff" d="M365.04,-21.41C356.67,-20.27 347.79,-19.05 339.02,-17.85"/>
<polygon fill="#63b8ff" stroke="#63b8ff" points="364.57,-24.88 374.95,-22.77 365.52,-17.95 364.57,-24.88"/>
</a>
</g>
</g>
<!-- Node3 -->
<g id="Node000003" class="node">
<title>Node3</title>
<g id="a_Node000003"><a xlink:href="AP__Scripting_2generator_2src_2main_8c.html#acfd0df34963c238376788d49e7623224" target="_top" xlink:title=" ">
<polygon fill="white" stroke="#666666" points="179,-93 77,-93 77,-74 179,-74 179,-93"/>
<text text-anchor="middle" x="128" y="-81" font-family="Helvetica,sans-Serif" font-size="10.00">handle_ap_object</text>
</a>
</g>
</g>
<!-- Node2&#45;&gt;Node3 -->
<g id="edge2_Node000002_Node000003" class="edge">
<title>Node2&#45;&gt;Node3</title>
<g id="a_edge2_Node000002_Node000003"><a xlink:title=" ">
<path fill="none" stroke="#63b8ff" d="M228.35,-58.49C208.47,-63.5 185.7,-69.23 166.98,-73.94"/>
<polygon fill="#63b8ff" stroke="#63b8ff" points="229.3,-61.86 238.14,-56.03 227.59,-55.08 229.3,-61.86"/>
</a>
</g>
</g>
<!-- Node5 -->
<g id="Node000005" class="node">
<title>Node5</title>
<g id="a_Node000005"><a xlink:href="AP__Scripting_2generator_2src_2main_8c.html#a309fe6f80c51187f1403c8f597ae7676" target="_top" xlink:title=" ">
<polygon fill="white" stroke="#666666" points="178,-19 78,-19 78,0 178,0 178,-19"/>
<text text-anchor="middle" x="128" y="-7" font-family="Helvetica,sans-Serif" font-size="10.00">handle_singleton</text>
</a>
</g>
</g>
<!-- Node2&#45;&gt;Node5 -->
<g id="edge4_Node000002_Node000005" class="edge">
<title>Node2&#45;&gt;Node5</title>
<g id="a_edge4_Node000002_Node000005"><a xlink:title=" ">
<path fill="none" stroke="#63b8ff" d="M228.35,-34.51C208.47,-29.5 185.7,-23.77 166.98,-19.06"/>
<polygon fill="#63b8ff" stroke="#63b8ff" points="227.59,-37.92 238.14,-36.97 229.3,-31.14 227.59,-37.92"/>
</a>
</g>
</g>
<!-- Node6 -->
<g id="Node000006" class="node">
<title>Node6</title>
<g id="a_Node000006"><a xlink:href="AP__Scripting_2generator_2src_2main_8c.html#a0088e9bba3b602c6b183762b411f7e4b" target="_top" xlink:title=" ">
<polygon fill="white" stroke="#666666" points="177,-56 79,-56 79,-37 177,-37 177,-56"/>
<text text-anchor="middle" x="128" y="-44" font-family="Helvetica,sans-Serif" font-size="10.00">handle_userdata</text>
</a>
</g>
</g>
<!-- Node2&#45;&gt;Node6 -->
<g id="edge6_Node000002_Node000006" class="edge">
<title>Node2&#45;&gt;Node6</title>
<g id="a_edge6_Node000002_Node000006"><a xlink:title=" ">
<path fill="none" stroke="#63b8ff" d="M220.52,-46.5C206.27,-46.5 191.06,-46.5 177.21,-46.5"/>
<polygon fill="#63b8ff" stroke="#63b8ff" points="220.7,-50 230.7,-46.5 220.7,-43 220.7,-50"/>
</a>
</g>
</g>
<!-- Node4 -->
<g id="Node000004" class="node">
<title>Node4</title>
<g id="a_Node000004"><a xlink:href="AP__Scripting_2generator_2src_2main_8c.html#a3c04138a5bfe5d72780bb7e82a18e627" target="_top" xlink:title=" ">
<polygon fill="white" stroke="#666666" points="41,-56 0,-56 0,-37 41,-37 41,-56"/>
<text text-anchor="middle" x="20.5" y="-44" font-family="Helvetica,sans-Serif" font-size="10.00">main</text>
</a>
</g>
</g>
<!-- Node3&#45;&gt;Node4 -->
<g id="edge3_Node000003_Node000004" class="edge">
<title>Node3&#45;&gt;Node4</title>
<g id="a_edge3_Node000003_Node000004"><a xlink:title=" ">
<path fill="none" stroke="#63b8ff" d="M89.97,-70.51C73.57,-64.76 54.93,-58.22 41.25,-53.43"/>
<polygon fill="#63b8ff" stroke="#63b8ff" points="89.24,-73.96 99.83,-73.97 91.55,-67.36 89.24,-73.96"/>
</a>
</g>
</g>
<!-- Node5&#45;&gt;Node4 -->
<g id="edge5_Node000005_Node000004" class="edge">
<title>Node5&#45;&gt;Node4</title>
<g id="a_edge5_Node000005_Node000004"><a xlink:title=" ">
<path fill="none" stroke="#63b8ff" d="M89.97,-22.49C73.57,-28.24 54.93,-34.78 41.25,-39.57"/>
<polygon fill="#63b8ff" stroke="#63b8ff" points="91.55,-25.64 99.83,-19.03 89.24,-19.04 91.55,-25.64"/>
</a>
</g>
</g>
<!-- Node6&#45;&gt;Node4 -->
<g id="edge7_Node000006_Node000004" class="edge">
<title>Node6&#45;&gt;Node4</title>
<g id="a_edge7_Node000006_Node000004"><a xlink:title=" ">
<path fill="none" stroke="#63b8ff" d="M68.83,-46.5C58.82,-46.5 49.07,-46.5 41.05,-46.5"/>
<polygon fill="#63b8ff" stroke="#63b8ff" points="68.88,-50 78.88,-46.5 68.88,-43 68.88,-50"/>
</a>
</g>
</g>
<!-- Node7&#45;&gt;Node5 -->
<g id="edge9_Node000007_Node000005" class="edge">
<title>Node7&#45;&gt;Node5</title>
<g id="a_edge9_Node000007_Node000005"><a xlink:title=" ">
<path fill="none" stroke="#63b8ff" d="M204.76,-9.5C195.71,-9.5 186.61,-9.5 178.02,-9.5"/>
<polygon fill="#63b8ff" stroke="#63b8ff" points="204.94,-13 214.94,-9.5 204.94,-6 204.94,-13"/>
</a>
</g>
</g>
<!-- Node7&#45;&gt;Node6 -->
<g id="edge10_Node000007_Node000006" class="edge">
<title>Node7&#45;&gt;Node6</title>
<g id="a_edge10_Node000007_Node000006"><a xlink:title=" ">
<path fill="none" stroke="#63b8ff" d="M228.35,-21.49C208.47,-26.5 185.7,-32.23 166.98,-36.94"/>
<polygon fill="#63b8ff" stroke="#63b8ff" points="229.3,-24.86 238.14,-19.03 227.59,-18.08 229.3,-24.86"/>
</a>
</g>
</g>
</g>
</svg>
