<?xml version="1.0" encoding="UTF-8" standalone="no"?>
<!DOCTYPE svg PUBLIC "-//W3C//DTD SVG 1.1//EN"
 "http://www.w3.org/Graphics/SVG/1.1/DTD/svg11.dtd">
<!-- Generated by graphviz version 2.43.0 (0)
 -->
<!-- Title: libraries/AP_CustomRotations/AP_CustomRotations_config.h Pages: 1 -->
<svg width="2229pt" height="247pt"
 viewBox="0.00 0.00 2229.00 247.00" xmlns="http://www.w3.org/2000/svg" xmlns:xlink="http://www.w3.org/1999/xlink">
<g id="graph0" class="graph" transform="scale(1 1) rotate(0) translate(4 243)">
<title>libraries/AP_CustomRotations/AP_CustomRotations_config.h</title>
<!-- Node1 -->
<g id="Node000001" class="node">
<title>Node1</title>
<g id="a_Node000001"><a xlink:title=" ">
<polygon fill="#999999" stroke="#666666" points="1027,-239 862,-239 862,-209 1027,-209 1027,-239"/>
<text text-anchor="start" x="870" y="-227" font-family="Helvetica,sans-Serif" font-size="10.00">libraries/AP_CustomRotations</text>
<text text-anchor="middle" x="944.5" y="-216" font-family="Helvetica,sans-Serif" font-size="10.00">/AP_CustomRotations_config.h</text>
</a>
</g>
</g>
<!-- Node2 -->
<g id="Node000002" class="node">
<title>Node2</title>
<g id="a_Node000002"><a xlink:href="AP__CustomRotations_8cpp.html" target="_top" xlink:title=" ">
<polygon fill="white" stroke="#666666" points="834,-107 673,-107 673,-77 834,-77 834,-107"/>
<text text-anchor="start" x="681" y="-95" font-family="Helvetica,sans-Serif" font-size="10.00">libraries/AP_CustomRotations</text>
<text text-anchor="middle" x="753.5" y="-84" font-family="Helvetica,sans-Serif" font-size="10.00">/AP_CustomRotations.cpp</text>
</a>
</g>
</g>
<!-- Node1&#45;&gt;Node2 -->
<g id="edge1_Node000001_Node000002" class="edge">
<title>Node1&#45;&gt;Node2</title>
<g id="a_edge1_Node000001_Node000002"><a xlink:title=" ">
<path fill="none" stroke="#63b8ff" d="M915.39,-203.19C876.47,-176.7 808.42,-130.38 774.28,-107.14"/>
<polygon fill="#63b8ff" stroke="#63b8ff" points="913.46,-206.11 923.7,-208.84 917.4,-200.32 913.46,-206.11"/>
</a>
</g>
</g>
<!-- Node3 -->
<g id="Node000003" class="node">
<title>Node3</title>
<g id="a_Node000003"><a xlink:href="AP__CustomRotations_8h.html" target="_top" xlink:title=" ">
<polygon fill="white" stroke="#666666" points="1396,-173 1235,-173 1235,-143 1396,-143 1396,-173"/>
<text text-anchor="start" x="1243" y="-161" font-family="Helvetica,sans-Serif" font-size="10.00">libraries/AP_CustomRotations</text>
<text text-anchor="middle" x="1315.5" y="-150" font-family="Helvetica,sans-Serif" font-size="10.00">/AP_CustomRotations.h</text>
</a>
</g>
</g>
<!-- Node1&#45;&gt;Node3 -->
<g id="edge2_Node000001_Node000003" class="edge">
<title>Node1&#45;&gt;Node3</title>
<g id="a_edge2_Node000001_Node000003"><a xlink:title=" ">
<path fill="none" stroke="#63b8ff" d="M1035.92,-207.23C1096.89,-196.71 1176.31,-183.01 1234.91,-172.9"/>
<polygon fill="#63b8ff" stroke="#63b8ff" points="1035.18,-203.81 1025.92,-208.95 1036.37,-210.7 1035.18,-203.81"/>
</a>
</g>
</g>
<!-- Node6 -->
<g id="Node000006" class="node">
<title>Node6</title>
<g id="a_Node000006"><a xlink:href="AP__CustomRotations__params_8cpp.html" target="_top" xlink:title=" ">
<polygon fill="white" stroke="#666666" points="1036.5,-107 852.5,-107 852.5,-77 1036.5,-77 1036.5,-107"/>
<text text-anchor="start" x="860.5" y="-95" font-family="Helvetica,sans-Serif" font-size="10.00">libraries/AP_CustomRotations</text>
<text text-anchor="middle" x="944.5" y="-84" font-family="Helvetica,sans-Serif" font-size="10.00">/AP_CustomRotations_params.cpp</text>
</a>
</g>
</g>
<!-- Node1&#45;&gt;Node6 -->
<g id="edge27_Node000001_Node000006" class="edge">
<title>Node1&#45;&gt;Node6</title>
<g id="a_edge27_Node000001_Node000006"><a xlink:title=" ">
<path fill="none" stroke="#63b8ff" d="M944.5,-198.68C944.5,-171.7 944.5,-129.11 944.5,-107.14"/>
<polygon fill="#63b8ff" stroke="#63b8ff" points="941,-198.84 944.5,-208.84 948,-198.84 941,-198.84"/>
</a>
</g>
</g>
<!-- Node3&#45;&gt;Node2 -->
<g id="edge5_Node000003_Node000002" class="edge">
<title>Node3&#45;&gt;Node2</title>
<g id="a_edge5_Node000003_Node000002"><a xlink:title=" ">
<path fill="none" stroke="#63b8ff" d="M1224.6,-148.7C1129.44,-139.7 975.75,-124.28 843.5,-107 840.52,-106.61 837.49,-106.2 834.43,-105.78"/>
<polygon fill="#63b8ff" stroke="#63b8ff" points="1224.48,-152.2 1234.76,-149.66 1225.14,-145.23 1224.48,-152.2"/>
</a>
</g>
</g>
<!-- Node4 -->
<g id="Node000004" class="node">
<title>Node4</title>
<g id="a_Node000004"><a xlink:href="AP__AHRS_8cpp.html" target="_top" xlink:title=" ">
<polygon fill="white" stroke="#666666" points="1306.5,-107 1186.5,-107 1186.5,-77 1306.5,-77 1306.5,-107"/>
<text text-anchor="start" x="1194.5" y="-95" font-family="Helvetica,sans-Serif" font-size="10.00">libraries/AP_AHRS/AP</text>
<text text-anchor="middle" x="1246.5" y="-84" font-family="Helvetica,sans-Serif" font-size="10.00">_AHRS.cpp</text>
</a>
</g>
</g>
<!-- Node3&#45;&gt;Node4 -->
<g id="edge3_Node000003_Node000004" class="edge">
<title>Node3&#45;&gt;Node4</title>
<g id="a_edge3_Node000003_Node000004"><a xlink:title=" ">
<path fill="none" stroke="#63b8ff" d="M1292.78,-135.92C1282.6,-126.49 1270.87,-115.61 1261.77,-107.16"/>
<polygon fill="#63b8ff" stroke="#63b8ff" points="1290.47,-138.56 1300.19,-142.8 1295.24,-133.43 1290.47,-138.56"/>
</a>
</g>
</g>
<!-- Node5 -->
<g id="Node000005" class="node">
<title>Node5</title>
<g id="a_Node000005"><a xlink:href="AP__Compass_8cpp.html" target="_top" xlink:title=" ">
<polygon fill="white" stroke="#666666" points="1446.5,-107 1324.5,-107 1324.5,-77 1446.5,-77 1446.5,-107"/>
<text text-anchor="start" x="1332.5" y="-95" font-family="Helvetica,sans-Serif" font-size="10.00">libraries/AP_Compass</text>
<text text-anchor="middle" x="1385.5" y="-84" font-family="Helvetica,sans-Serif" font-size="10.00">/AP_Compass.cpp</text>
</a>
</g>
</g>
<!-- Node3&#45;&gt;Node5 -->
<g id="edge4_Node000003_Node000005" class="edge">
<title>Node3&#45;&gt;Node5</title>
<g id="a_edge4_Node000003_Node000005"><a xlink:title=" ">
<path fill="none" stroke="#63b8ff" d="M1338.55,-135.92C1348.87,-126.49 1360.77,-115.61 1370.01,-107.16"/>
<polygon fill="#63b8ff" stroke="#63b8ff" points="1336.05,-133.47 1331.04,-142.8 1340.78,-138.63 1336.05,-133.47"/>
</a>
</g>
</g>
<!-- Node3&#45;&gt;Node6 -->
<g id="edge6_Node000003_Node000006" class="edge">
<title>Node3&#45;&gt;Node6</title>
<g id="a_edge6_Node000003_Node000006"><a xlink:title=" ">
<path fill="none" stroke="#63b8ff" d="M1225.02,-141.39C1164.17,-130.89 1084.64,-117.17 1025.8,-107.03"/>
<polygon fill="#63b8ff" stroke="#63b8ff" points="1224.55,-144.86 1235,-143.11 1225.74,-137.96 1224.55,-144.86"/>
</a>
</g>
</g>
<!-- Node7 -->
<g id="Node000007" class="node">
<title>Node7</title>
<g id="a_Node000007"><a xlink:href="rotations_8cpp.html" target="_top" xlink:title=" ">
<polygon fill="white" stroke="#666666" points="1618,-107 1465,-107 1465,-77 1618,-77 1618,-107"/>
<text text-anchor="start" x="1473" y="-95" font-family="Helvetica,sans-Serif" font-size="10.00">libraries/AP_Math/examples</text>
<text text-anchor="middle" x="1541.5" y="-84" font-family="Helvetica,sans-Serif" font-size="10.00">/rotations/rotations.cpp</text>
</a>
</g>
</g>
<!-- Node3&#45;&gt;Node7 -->
<g id="edge7_Node000003_Node000007" class="edge">
<title>Node3&#45;&gt;Node7</title>
<g id="a_edge7_Node000003_Node000007"><a xlink:title=" ">
<path fill="none" stroke="#63b8ff" d="M1375.1,-140.12C1411.54,-129.8 1457.6,-116.76 1492.02,-107.01"/>
<polygon fill="#63b8ff" stroke="#63b8ff" points="1373.76,-136.86 1365.1,-142.95 1375.67,-143.6 1373.76,-136.86"/>
</a>
</g>
</g>
<!-- Node8 -->
<g id="Node000008" class="node">
<title>Node8</title>
<g id="a_Node000008"><a xlink:href="quaternion_8cpp.html" target="_top" xlink:title=" ">
<polygon fill="white" stroke="#666666" points="1814.5,-101.5 1636.5,-101.5 1636.5,-82.5 1814.5,-82.5 1814.5,-101.5"/>
<text text-anchor="middle" x="1725.5" y="-89.5" font-family="Helvetica,sans-Serif" font-size="10.00">libraries/AP_Math/quaternion.cpp</text>
</a>
</g>
</g>
<!-- Node3&#45;&gt;Node8 -->
<g id="edge8_Node000003_Node000008" class="edge">
<title>Node3&#45;&gt;Node8</title>
<g id="a_edge8_Node000003_Node000008"><a xlink:title=" ">
<path fill="none" stroke="#63b8ff" d="M1406.22,-142.84C1487.31,-130.18 1603.46,-112.05 1671.02,-101.5"/>
<polygon fill="#63b8ff" stroke="#63b8ff" points="1405.35,-139.43 1396.01,-144.43 1406.43,-146.35 1405.35,-139.43"/>
</a>
</g>
</g>
<!-- Node9 -->
<g id="Node000009" class="node">
<title>Node9</title>
<g id="a_Node000009"><a xlink:href="test__rotations_8cpp.html" target="_top" xlink:title=" ">
<polygon fill="white" stroke="#666666" points="1962,-107 1833,-107 1833,-77 1962,-77 1962,-107"/>
<text text-anchor="start" x="1841" y="-95" font-family="Helvetica,sans-Serif" font-size="10.00">libraries/AP_Math/tests</text>
<text text-anchor="middle" x="1897.5" y="-84" font-family="Helvetica,sans-Serif" font-size="10.00">/test_rotations.cpp</text>
</a>
</g>
</g>
<!-- Node3&#45;&gt;Node9 -->
<g id="edge9_Node000003_Node000009" class="edge">
<title>Node3&#45;&gt;Node9</title>
<g id="a_edge9_Node000003_Node000009"><a xlink:title=" ">
<path fill="none" stroke="#63b8ff" d="M1406.52,-150.49C1508.41,-142.64 1678.26,-127.84 1823.5,-107 1826.61,-106.55 1829.78,-106.07 1832.98,-105.56"/>
<polygon fill="#63b8ff" stroke="#63b8ff" points="1405.97,-147.02 1396.27,-151.28 1406.51,-154 1405.97,-147.02"/>
</a>
</g>
</g>
<!-- Node10 -->
<g id="Node000010" class="node">
<title>Node10</title>
<g id="a_Node000010"><a xlink:href="vector3_8cpp.html" target="_top" xlink:title=" ">
<polygon fill="white" stroke="#666666" points="2142.5,-101.5 1980.5,-101.5 1980.5,-82.5 2142.5,-82.5 2142.5,-101.5"/>
<text text-anchor="middle" x="2061.5" y="-89.5" font-family="Helvetica,sans-Serif" font-size="10.00">libraries/AP_Math/vector3.cpp</text>
</a>
</g>
</g>
<!-- Node3&#45;&gt;Node10 -->
<g id="edge10_Node000003_Node000010" class="edge">
<title>Node3&#45;&gt;Node10</title>
<g id="a_edge10_Node000003_Node000010"><a xlink:title=" ">
<path fill="none" stroke="#63b8ff" d="M1406.29,-152.33C1533.09,-145.3 1770.31,-130.28 1971.5,-107 1984.38,-105.51 1998.24,-103.54 2011.14,-101.55"/>
<polygon fill="#63b8ff" stroke="#63b8ff" points="1406.02,-148.84 1396.23,-152.89 1406.41,-155.83 1406.02,-148.84"/>
</a>
</g>
</g>
<!-- Node11 -->
<g id="Node000011" class="node">
<title>Node11</title>
<g id="a_Node000011"><a xlink:href="AP__Vehicle_8h.html" target="_top" xlink:title=" ">
<polygon fill="white" stroke="#666666" points="1168,-107 1055,-107 1055,-77 1168,-77 1168,-107"/>
<text text-anchor="start" x="1063" y="-95" font-family="Helvetica,sans-Serif" font-size="10.00">libraries/AP_Vehicle</text>
<text text-anchor="middle" x="1111.5" y="-84" font-family="Helvetica,sans-Serif" font-size="10.00">/AP_Vehicle.h</text>
</a>
</g>
</g>
<!-- Node3&#45;&gt;Node11 -->
<g id="edge11_Node000003_Node000011" class="edge">
<title>Node3&#45;&gt;Node11</title>
<g id="a_edge11_Node000003_Node000011"><a xlink:title=" ">
<path fill="none" stroke="#63b8ff" d="M1260.85,-139.86C1228.1,-129.58 1186.97,-116.68 1156.16,-107.01"/>
<polygon fill="#63b8ff" stroke="#63b8ff" points="1260.14,-143.3 1270.73,-142.95 1262.24,-136.62 1260.14,-143.3"/>
</a>
</g>
</g>
<!-- Node12 -->
<g id="Node000012" class="node">
<title>Node12</title>
<g id="a_Node000012"><a xlink:href="AHRS__Test_8cpp.html" target="_top" xlink:title=" ">
<polygon fill="white" stroke="#666666" points="155,-35.5 0,-35.5 0,-5.5 155,-5.5 155,-35.5"/>
<text text-anchor="start" x="8" y="-23.5" font-family="Helvetica,sans-Serif" font-size="10.00">libraries/AP_AHRS/examples</text>
<text text-anchor="middle" x="77.5" y="-12.5" font-family="Helvetica,sans-Serif" font-size="10.00">/AHRS_Test/AHRS_Test.cpp</text>
</a>
</g>
</g>
<!-- Node11&#45;&gt;Node12 -->
<g id="edge12_Node000011_Node000012" class="edge">
<title>Node11&#45;&gt;Node12</title>
<g id="a_edge12_Node000011_Node000012"><a xlink:title=" ">
<path fill="none" stroke="#63b8ff" d="M1044.57,-77.06C654.44,-29.22 549.1,-92.15 163.5,-41 153.48,-39.67 142.92,-37.73 132.75,-35.58"/>
<polygon fill="#63b8ff" stroke="#63b8ff" points="1044.37,-80.56 1054.72,-78.32 1045.23,-73.62 1044.37,-80.56"/>
</a>
</g>
</g>
<!-- Node13 -->
<g id="Node000013" class="node">
<title>Node13</title>
<g id="a_Node000013"><a xlink:href="AP__Arming_8cpp.html" target="_top" xlink:title=" ">
<polygon fill="white" stroke="#666666" points="286,-35.5 173,-35.5 173,-5.5 286,-5.5 286,-35.5"/>
<text text-anchor="start" x="181" y="-23.5" font-family="Helvetica,sans-Serif" font-size="10.00">libraries/AP_Arming</text>
<text text-anchor="middle" x="229.5" y="-12.5" font-family="Helvetica,sans-Serif" font-size="10.00">/AP_Arming.cpp</text>
</a>
</g>
</g>
<!-- Node11&#45;&gt;Node13 -->
<g id="edge13_Node000011_Node000013" class="edge">
<title>Node11&#45;&gt;Node13</title>
<g id="a_edge13_Node000011_Node000013"><a xlink:title=" ">
<path fill="none" stroke="#63b8ff" d="M1044.33,-77.03C712.66,-35.51 621.17,-96.11 295.5,-41 287.61,-39.66 279.32,-37.69 271.4,-35.51"/>
<polygon fill="#63b8ff" stroke="#63b8ff" points="1044.36,-80.56 1054.72,-78.35 1045.24,-73.61 1044.36,-80.56"/>
</a>
</g>
</g>
<!-- Node14 -->
<g id="Node000014" class="node">
<title>Node14</title>
<g id="a_Node000014"><a xlink:href="AP__Baro_8cpp.html" target="_top" xlink:title=" ">
<polygon fill="white" stroke="#666666" points="420.5,-35.5 304.5,-35.5 304.5,-5.5 420.5,-5.5 420.5,-35.5"/>
<text text-anchor="start" x="312.5" y="-23.5" font-family="Helvetica,sans-Serif" font-size="10.00">libraries/AP_Baro/AP</text>
<text text-anchor="middle" x="362.5" y="-12.5" font-family="Helvetica,sans-Serif" font-size="10.00">_Baro.cpp</text>
</a>
</g>
</g>
<!-- Node11&#45;&gt;Node14 -->
<g id="edge14_Node000011_Node000014" class="edge">
<title>Node11&#45;&gt;Node14</title>
<g id="a_edge14_Node000011_Node000014"><a xlink:title=" ">
<path fill="none" stroke="#63b8ff" d="M1044.51,-77.04C771.87,-41.58 696.46,-87.04 429.5,-41 421.62,-39.64 413.35,-37.69 405.42,-35.53"/>
<polygon fill="#63b8ff" stroke="#63b8ff" points="1044.34,-80.54 1054.71,-78.39 1045.26,-73.6 1044.34,-80.54"/>
</a>
</g>
</g>
<!-- Node15 -->
<g id="Node000015" class="node">
<title>Node15</title>
<g id="a_Node000015"><a xlink:href="Compass__learn_8cpp.html" target="_top" xlink:title=" ">
<polygon fill="white" stroke="#666666" points="560.5,-35.5 438.5,-35.5 438.5,-5.5 560.5,-5.5 560.5,-35.5"/>
<text text-anchor="start" x="446.5" y="-23.5" font-family="Helvetica,sans-Serif" font-size="10.00">libraries/AP_Compass</text>
<text text-anchor="middle" x="499.5" y="-12.5" font-family="Helvetica,sans-Serif" font-size="10.00">/Compass_learn.cpp</text>
</a>
</g>
</g>
<!-- Node11&#45;&gt;Node15 -->
<g id="edge15_Node000011_Node000015" class="edge">
<title>Node11&#45;&gt;Node15</title>
<g id="a_edge15_Node000011_Node000015"><a xlink:title=" ">
<path fill="none" stroke="#63b8ff" d="M1044.55,-77.02C833.66,-47.86 775.21,-77.07 569.5,-41 561.42,-39.58 552.94,-37.63 544.77,-35.5"/>
<polygon fill="#63b8ff" stroke="#63b8ff" points="1044.31,-80.52 1054.7,-78.45 1045.29,-73.59 1044.31,-80.52"/>
</a>
</g>
</g>
<!-- Node16 -->
<g id="Node000016" class="node">
<title>Node16</title>
<g id="a_Node000016"><a xlink:href="AP__DAL_8cpp.html" target="_top" xlink:title=" ">
<polygon fill="white" stroke="#666666" points="692,-35.5 579,-35.5 579,-5.5 692,-5.5 692,-35.5"/>
<text text-anchor="start" x="587" y="-23.5" font-family="Helvetica,sans-Serif" font-size="10.00">libraries/AP_DAL/AP</text>
<text text-anchor="middle" x="635.5" y="-12.5" font-family="Helvetica,sans-Serif" font-size="10.00">_DAL.cpp</text>
</a>
</g>
</g>
<!-- Node11&#45;&gt;Node16 -->
<g id="edge16_Node000011_Node000016" class="edge">
<title>Node11&#45;&gt;Node16</title>
<g id="a_edge16_Node000011_Node000016"><a xlink:title=" ">
<path fill="none" stroke="#63b8ff" d="M1044.45,-76.96C891.38,-53.74 848.41,-70.63 700.5,-41 693.22,-39.54 685.59,-37.62 678.22,-35.55"/>
<polygon fill="#63b8ff" stroke="#63b8ff" points="1044.27,-80.48 1054.69,-78.55 1045.34,-73.56 1044.27,-80.48"/>
</a>
</g>
</g>
<!-- Node17 -->
<g id="Node000017" class="node">
<title>Node17</title>
<g id="a_Node000017"><a xlink:href="AP__Frsky__MAVliteMsgHandler_8cpp.html" target="_top" xlink:title=" ">
<polygon fill="white" stroke="#666666" points="871,-41 710,-41 710,0 871,0 871,-41"/>
<text text-anchor="start" x="718" y="-29" font-family="Helvetica,sans-Serif" font-size="10.00">libraries/AP_Frsky</text>
<text text-anchor="start" x="718" y="-18" font-family="Helvetica,sans-Serif" font-size="10.00">_Telem/AP_Frsky_MAVliteMsg</text>
<text text-anchor="middle" x="790.5" y="-7" font-family="Helvetica,sans-Serif" font-size="10.00">Handler.cpp</text>
</a>
</g>
</g>
<!-- Node11&#45;&gt;Node17 -->
<g id="edge17_Node000011_Node000017" class="edge">
<title>Node11&#45;&gt;Node17</title>
<g id="a_edge17_Node000011_Node000017"><a xlink:title=" ">
<path fill="none" stroke="#63b8ff" d="M1044.66,-76.54C998.54,-66.55 935.8,-52.97 880.5,-41 877.53,-40.36 874.51,-39.7 871.45,-39.04"/>
<polygon fill="#63b8ff" stroke="#63b8ff" points="1044.03,-79.98 1054.54,-78.67 1045.51,-73.14 1044.03,-79.98"/>
</a>
</g>
</g>
<!-- Node18 -->
<g id="Node000018" class="node">
<title>Node18</title>
<g id="a_Node000018"><a xlink:href="AP__Frsky__SPort__Passthrough_8cpp.html" target="_top" xlink:title=" ">
<polygon fill="white" stroke="#666666" points="1017.5,-41 889.5,-41 889.5,0 1017.5,0 1017.5,-41"/>
<text text-anchor="start" x="897.5" y="-29" font-family="Helvetica,sans-Serif" font-size="10.00">libraries/AP_Frsky</text>
<text text-anchor="start" x="897.5" y="-18" font-family="Helvetica,sans-Serif" font-size="10.00">_Telem/AP_Frsky_SPort</text>
<text text-anchor="middle" x="953.5" y="-7" font-family="Helvetica,sans-Serif" font-size="10.00">_Passthrough.cpp</text>
</a>
</g>
</g>
<!-- Node11&#45;&gt;Node18 -->
<g id="edge18_Node000011_Node000018" class="edge">
<title>Node11&#45;&gt;Node18</title>
<g id="a_edge18_Node000011_Node000018"><a xlink:title=" ">
<path fill="none" stroke="#63b8ff" d="M1070.36,-72.9C1048.15,-63.13 1020.71,-51.06 998,-41.07"/>
<polygon fill="#63b8ff" stroke="#63b8ff" points="1068.96,-76.11 1079.53,-76.94 1071.78,-69.71 1068.96,-76.11"/>
</a>
</g>
</g>
<!-- Node19 -->
<g id="Node000019" class="node">
<title>Node19</title>
<g id="a_Node000019"><a xlink:href="AP__Frsky__Telem_8cpp.html" target="_top" xlink:title=" ">
<polygon fill="white" stroke="#666666" points="1187.5,-35.5 1035.5,-35.5 1035.5,-5.5 1187.5,-5.5 1187.5,-35.5"/>
<text text-anchor="start" x="1043.5" y="-23.5" font-family="Helvetica,sans-Serif" font-size="10.00">libraries/AP_Frsky</text>
<text text-anchor="middle" x="1111.5" y="-12.5" font-family="Helvetica,sans-Serif" font-size="10.00">_Telem/AP_Frsky_Telem.cpp</text>
</a>
</g>
</g>
<!-- Node11&#45;&gt;Node19 -->
<g id="edge19_Node000011_Node000019" class="edge">
<title>Node11&#45;&gt;Node19</title>
<g id="a_edge19_Node000011_Node000019"><a xlink:title=" ">
<path fill="none" stroke="#63b8ff" d="M1111.5,-66.75C1111.5,-56.31 1111.5,-44.49 1111.5,-35.54"/>
<polygon fill="#63b8ff" stroke="#63b8ff" points="1108,-66.94 1111.5,-76.94 1115,-66.94 1108,-66.94"/>
</a>
</g>
</g>
<!-- Node20 -->
<g id="Node000020" class="node">
<title>Node20</title>
<g id="a_Node000020"><a xlink:href="ReplayGyroFFT_8cpp.html" target="_top" xlink:title=" ">
<polygon fill="white" stroke="#666666" points="1351,-41 1206,-41 1206,0 1351,0 1351,-41"/>
<text text-anchor="start" x="1214" y="-29" font-family="Helvetica,sans-Serif" font-size="10.00">libraries/AP_GyroFFT</text>
<text text-anchor="start" x="1214" y="-18" font-family="Helvetica,sans-Serif" font-size="10.00">/examples/ReplayGyroFFT</text>
<text text-anchor="middle" x="1278.5" y="-7" font-family="Helvetica,sans-Serif" font-size="10.00">/ReplayGyroFFT.cpp</text>
</a>
</g>
</g>
<!-- Node11&#45;&gt;Node20 -->
<g id="edge20_Node000011_Node000020" class="edge">
<title>Node11&#45;&gt;Node20</title>
<g id="a_edge20_Node000011_Node000020"><a xlink:title=" ">
<path fill="none" stroke="#63b8ff" d="M1154.67,-73.03C1178.2,-63.24 1207.36,-51.11 1231.47,-41.07"/>
<polygon fill="#63b8ff" stroke="#63b8ff" points="1153.18,-69.86 1145.29,-76.94 1155.87,-76.32 1153.18,-69.86"/>
</a>
</g>
</g>
<!-- Node21 -->
<g id="Node000021" class="node">
<title>Node21</title>
<g id="a_Node000021"><a xlink:href="nmea__output_8cpp.html" target="_top" xlink:title=" ">
<polygon fill="white" stroke="#666666" points="1538,-41 1369,-41 1369,0 1538,0 1538,-41"/>
<text text-anchor="start" x="1377" y="-29" font-family="Helvetica,sans-Serif" font-size="10.00">libraries/AP_NMEA_Output</text>
<text text-anchor="start" x="1377" y="-18" font-family="Helvetica,sans-Serif" font-size="10.00">/examples/NMEA_Output/nmea</text>
<text text-anchor="middle" x="1453.5" y="-7" font-family="Helvetica,sans-Serif" font-size="10.00">_output.cpp</text>
</a>
</g>
</g>
<!-- Node11&#45;&gt;Node21 -->
<g id="edge21_Node000011_Node000021" class="edge">
<title>Node11&#45;&gt;Node21</title>
<g id="a_edge21_Node000011_Node000021"><a xlink:title=" ">
<path fill="none" stroke="#63b8ff" d="M1177.83,-76.95C1260.32,-60.17 1282.28,-56.89 1360.5,-41 1363.25,-40.44 1366.04,-39.87 1368.86,-39.29"/>
<polygon fill="#63b8ff" stroke="#63b8ff" points="1177.11,-73.53 1168.01,-78.95 1178.51,-80.38 1177.11,-73.53"/>
</a>
</g>
</g>
<!-- Node22 -->
<g id="Node000022" class="node">
<title>Node22</title>
<g id="a_Node000022"><a xlink:href="AP__OSD__Screen_8cpp.html" target="_top" xlink:title=" ">
<polygon fill="white" stroke="#666666" points="1670.5,-35.5 1556.5,-35.5 1556.5,-5.5 1670.5,-5.5 1670.5,-35.5"/>
<text text-anchor="start" x="1564.5" y="-23.5" font-family="Helvetica,sans-Serif" font-size="10.00">libraries/AP_OSD/AP</text>
<text text-anchor="middle" x="1613.5" y="-12.5" font-family="Helvetica,sans-Serif" font-size="10.00">_OSD_Screen.cpp</text>
</a>
</g>
</g>
<!-- Node11&#45;&gt;Node22 -->
<g id="edge22_Node000011_Node000022" class="edge">
<title>Node11&#45;&gt;Node22</title>
<g id="a_edge22_Node000011_Node000022"><a xlink:title=" ">
<path fill="none" stroke="#63b8ff" d="M1178.27,-77.02C1342.58,-52.61 1388.49,-71.93 1547.5,-41 1554.89,-39.56 1562.64,-37.65 1570.12,-35.59"/>
<polygon fill="#63b8ff" stroke="#63b8ff" points="1177.67,-73.57 1168.31,-78.53 1178.72,-80.49 1177.67,-73.57"/>
</a>
</g>
</g>
<!-- Node23 -->
<g id="Node000023" class="node">
<title>Node23</title>
<g id="a_Node000023"><a xlink:href="AP__Scheduler_8cpp.html" target="_top" xlink:title=" ">
<polygon fill="white" stroke="#666666" points="1814,-35.5 1689,-35.5 1689,-5.5 1814,-5.5 1814,-35.5"/>
<text text-anchor="start" x="1697" y="-23.5" font-family="Helvetica,sans-Serif" font-size="10.00">libraries/AP_Scheduler</text>
<text text-anchor="middle" x="1751.5" y="-12.5" font-family="Helvetica,sans-Serif" font-size="10.00">/AP_Scheduler.cpp</text>
</a>
</g>
</g>
<!-- Node11&#45;&gt;Node23 -->
<g id="edge23_Node000011_Node000023" class="edge">
<title>Node11&#45;&gt;Node23</title>
<g id="a_edge23_Node000011_Node000023"><a xlink:title=" ">
<path fill="none" stroke="#63b8ff" d="M1178.32,-77.04C1400.78,-46.66 1462.2,-77.86 1679.5,-41 1687.8,-39.59 1696.53,-37.64 1704.93,-35.52"/>
<polygon fill="#63b8ff" stroke="#63b8ff" points="1177.72,-73.59 1168.29,-78.44 1178.68,-80.52 1177.72,-73.59"/>
</a>
</g>
</g>
<!-- Node24 -->
<g id="Node000024" class="node">
<title>Node24</title>
<g id="a_Node000024"><a xlink:href="AP__Vehicle_8cpp.html" target="_top" xlink:title=" ">
<polygon fill="white" stroke="#666666" points="1945,-35.5 1832,-35.5 1832,-5.5 1945,-5.5 1945,-35.5"/>
<text text-anchor="start" x="1840" y="-23.5" font-family="Helvetica,sans-Serif" font-size="10.00">libraries/AP_Vehicle</text>
<text text-anchor="middle" x="1888.5" y="-12.5" font-family="Helvetica,sans-Serif" font-size="10.00">/AP_Vehicle.cpp</text>
</a>
</g>
</g>
<!-- Node11&#45;&gt;Node24 -->
<g id="edge24_Node000011_Node000024" class="edge">
<title>Node11&#45;&gt;Node24</title>
<g id="a_edge24_Node000011_Node000024"><a xlink:title=" ">
<path fill="none" stroke="#63b8ff" d="M1178.54,-77.03C1464.39,-40.25 1543.58,-90.08 1823.5,-41 1831.16,-39.66 1839.19,-37.71 1846.89,-35.56"/>
<polygon fill="#63b8ff" stroke="#63b8ff" points="1177.75,-73.61 1168.29,-78.38 1178.66,-80.55 1177.75,-73.61"/>
</a>
</g>
</g>
<!-- Node25 -->
<g id="Node000025" class="node">
<title>Node25</title>
<g id="a_Node000025"><a xlink:href="Parameters_8cpp.html" target="_top" xlink:title=" ">
<polygon fill="white" stroke="#666666" points="2076,-35.5 1963,-35.5 1963,-5.5 2076,-5.5 2076,-35.5"/>
<text text-anchor="start" x="1971" y="-23.5" font-family="Helvetica,sans-Serif" font-size="10.00">libraries/AP_Vehicle</text>
<text text-anchor="middle" x="2019.5" y="-12.5" font-family="Helvetica,sans-Serif" font-size="10.00">/Parameters.cpp</text>
</a>
</g>
</g>
<!-- Node11&#45;&gt;Node25 -->
<g id="edge25_Node000011_Node000025" class="edge">
<title>Node11&#45;&gt;Node25</title>
<g id="a_edge25_Node000011_Node000025"><a xlink:title=" ">
<path fill="none" stroke="#63b8ff" d="M1178.27,-77.08C1522.19,-34.23 1616.96,-98.55 1954.5,-41 1962.28,-39.67 1970.44,-37.71 1978.25,-35.52"/>
<polygon fill="#63b8ff" stroke="#63b8ff" points="1177.76,-73.61 1168.28,-78.34 1178.64,-80.56 1177.76,-73.61"/>
</a>
</g>
</g>
<!-- Node26 -->
<g id="Node000026" class="node">
<title>Node26</title>
<g id="a_Node000026"><a xlink:href="GCS__Common_8cpp.html" target="_top" xlink:title=" ">
<polygon fill="white" stroke="#666666" points="2221,-35.5 2094,-35.5 2094,-5.5 2221,-5.5 2221,-35.5"/>
<text text-anchor="start" x="2102" y="-23.5" font-family="Helvetica,sans-Serif" font-size="10.00">libraries/GCS_MAVLink</text>
<text text-anchor="middle" x="2157.5" y="-12.5" font-family="Helvetica,sans-Serif" font-size="10.00">/GCS_Common.cpp</text>
</a>
</g>
</g>
<!-- Node11&#45;&gt;Node26 -->
<g id="edge26_Node000011_Node000026" class="edge">
<title>Node11&#45;&gt;Node26</title>
<g id="a_edge26_Node000011_Node000026"><a xlink:title=" ">
<path fill="none" stroke="#63b8ff" d="M1178.43,-77.06C1580.07,-28.16 1689.6,-101.67 2085.5,-41 2094.08,-39.69 2103.1,-37.72 2111.74,-35.54"/>
<polygon fill="#63b8ff" stroke="#63b8ff" points="1177.77,-73.62 1168.28,-78.32 1178.63,-80.57 1177.77,-73.62"/>
</a>
</g>
</g>
</g>
</svg>
