<?xml version="1.0" encoding="UTF-8" standalone="no"?>
<!DOCTYPE svg PUBLIC "-//W3C//DTD SVG 1.1//EN"
 "http://www.w3.org/Graphics/SVG/1.1/DTD/svg11.dtd">
<!-- Generated by graphviz version 2.43.0 (0)
 -->
<!-- Title: libraries/AP_Camera/AP_Camera_SoloGimbal.h Pages: 1 -->
<svg width="494pt" height="390pt"
 viewBox="0.00 0.00 493.50 390.00" xmlns="http://www.w3.org/2000/svg" xmlns:xlink="http://www.w3.org/1999/xlink">
<g id="graph0" class="graph" transform="scale(1 1) rotate(0) translate(4 386)">
<title>libraries/AP_Camera/AP_Camera_SoloGimbal.h</title>
<!-- Node1 -->
<g id="Node000001" class="node">
<title>Node1</title>
<g id="a_Node000001"><a xlink:title=" ">
<polygon fill="#999999" stroke="#666666" points="345,-382 199,-382 199,-352 345,-352 345,-382"/>
<text text-anchor="start" x="207" y="-370" font-family="Helvetica,sans-Serif" font-size="10.00">libraries/AP_Camera</text>
<text text-anchor="middle" x="272" y="-359" font-family="Helvetica,sans-Serif" font-size="10.00">/AP_Camera_SoloGimbal.h</text>
</a>
</g>
</g>
<!-- Node2 -->
<g id="Node000002" class="node">
<title>Node2</title>
<g id="a_Node000002"><a xlink:href="AP__Camera__config_8h.html" target="_top" xlink:title=" ">
<polygon fill="white" stroke="#666666" points="330,-316 214,-316 214,-297 330,-297 330,-316"/>
<text text-anchor="middle" x="272" y="-304" font-family="Helvetica,sans-Serif" font-size="10.00">AP_Camera_config.h</text>
</a>
</g>
</g>
<!-- Node1&#45;&gt;Node2 -->
<g id="edge1_Node000001_Node000002" class="edge">
<title>Node1&#45;&gt;Node2</title>
<g id="a_edge1_Node000001_Node000002"><a xlink:title=" ">
<path fill="none" stroke="#63b8ff" d="M272,-351.84C272,-344.21 272,-334.7 272,-326.45"/>
<polygon fill="#63b8ff" stroke="#63b8ff" points="275.5,-326.27 272,-316.27 268.5,-326.27 275.5,-326.27"/>
</a>
</g>
</g>
<!-- Node3 -->
<g id="Node000003" class="node">
<title>Node3</title>
<g id="a_Node000003"><a xlink:href="AP__HAL__Boards_8h.html" target="_top" xlink:title=" ">
<polygon fill="white" stroke="#666666" points="185.5,-19 42.5,-19 42.5,0 185.5,0 185.5,-19"/>
<text text-anchor="middle" x="114" y="-7" font-family="Helvetica,sans-Serif" font-size="10.00">AP_HAL/AP_HAL_Boards.h</text>
</a>
</g>
</g>
<!-- Node2&#45;&gt;Node3 -->
<g id="edge2_Node000002_Node000003" class="edge">
<title>Node2&#45;&gt;Node3</title>
<g id="a_edge2_Node000002_Node000003"><a xlink:title=" ">
<path fill="none" stroke="#63b8ff" d="M213.79,-301.11C171.37,-295.98 113.59,-284.91 68,-261 31.38,-241.8 0,-238.85 0,-197.5 0,-197.5 0,-197.5 0,-135 0,-83.3 54.14,-43.73 87.8,-24.13"/>
<polygon fill="#63b8ff" stroke="#63b8ff" points="89.68,-27.08 96.69,-19.13 86.25,-20.98 89.68,-27.08"/>
</a>
</g>
</g>
<!-- Node4 -->
<g id="Node000004" class="node">
<title>Node4</title>
<g id="a_Node000004"><a xlink:href="AP__Mount__config_8h.html" target="_top" xlink:title=" ">
<polygon fill="white" stroke="#666666" points="238.5,-261 77.5,-261 77.5,-242 238.5,-242 238.5,-261"/>
<text text-anchor="middle" x="158" y="-249" font-family="Helvetica,sans-Serif" font-size="10.00">AP_Mount/AP_Mount_config.h</text>
</a>
</g>
</g>
<!-- Node2&#45;&gt;Node4 -->
<g id="edge3_Node000002_Node000004" class="edge">
<title>Node2&#45;&gt;Node4</title>
<g id="a_edge3_Node000002_Node000004"><a xlink:title=" ">
<path fill="none" stroke="#63b8ff" d="M253.68,-296.98C235.34,-288.46 206.89,-275.23 185.77,-265.41"/>
<polygon fill="#63b8ff" stroke="#63b8ff" points="187.19,-262.21 176.65,-261.17 184.24,-268.56 187.19,-262.21"/>
</a>
</g>
</g>
<!-- Node8 -->
<g id="Node000008" class="node">
<title>Node8</title>
<g id="a_Node000008"><a xlink:href="AP__Relay__config_8h.html" target="_top" xlink:title=" ">
<polygon fill="white" stroke="#666666" points="485.5,-79.5 330.5,-79.5 330.5,-60.5 485.5,-60.5 485.5,-79.5"/>
<text text-anchor="middle" x="408" y="-67.5" font-family="Helvetica,sans-Serif" font-size="10.00">AP_Relay/AP_Relay_config.h</text>
</a>
</g>
</g>
<!-- Node2&#45;&gt;Node8 -->
<g id="edge11_Node000002_Node000008" class="edge">
<title>Node2&#45;&gt;Node8</title>
<g id="a_edge11_Node000002_Node000008"><a xlink:title=" ">
<path fill="none" stroke="#63b8ff" d="M288.76,-296.96C325.45,-277.19 412.18,-224.32 445,-151 454.9,-128.88 438.39,-103.51 424.35,-87.37"/>
<polygon fill="#63b8ff" stroke="#63b8ff" points="426.75,-84.81 417.39,-79.85 421.61,-89.56 426.75,-84.81"/>
</a>
</g>
</g>
<!-- Node9 -->
<g id="Node000009" class="node">
<title>Node9</title>
<g id="a_Node000009"><a xlink:href="GCS__config_8h.html" target="_top" xlink:title=" ">
<polygon fill="white" stroke="#666666" points="435.5,-145.5 284.5,-145.5 284.5,-126.5 435.5,-126.5 435.5,-145.5"/>
<text text-anchor="middle" x="360" y="-133.5" font-family="Helvetica,sans-Serif" font-size="10.00">GCS_MAVLink/GCS_config.h</text>
</a>
</g>
</g>
<!-- Node2&#45;&gt;Node9 -->
<g id="edge13_Node000002_Node000009" class="edge">
<title>Node2&#45;&gt;Node9</title>
<g id="a_edge13_Node000002_Node000009"><a xlink:title=" ">
<path fill="none" stroke="#63b8ff" d="M276.48,-296.91C290.19,-270.67 331.74,-191.11 350.56,-155.08"/>
<polygon fill="#63b8ff" stroke="#63b8ff" points="353.89,-156.26 355.42,-145.77 347.69,-153.02 353.89,-156.26"/>
</a>
</g>
</g>
<!-- Node4&#45;&gt;Node3 -->
<g id="edge4_Node000004_Node000003" class="edge">
<title>Node4&#45;&gt;Node3</title>
<g id="a_edge4_Node000004_Node000003"><a xlink:title=" ">
<path fill="none" stroke="#63b8ff" d="M130.35,-241.98C113.42,-235.17 93.11,-223.76 83,-206 49.79,-147.68 64.91,-119.04 85,-55 88.13,-45.03 94.17,-35.16 99.93,-27.26"/>
<polygon fill="#63b8ff" stroke="#63b8ff" points="102.77,-29.32 106.15,-19.28 97.25,-25.02 102.77,-29.32"/>
</a>
</g>
</g>
<!-- Node5 -->
<g id="Node000005" class="node">
<title>Node5</title>
<g id="a_Node000005"><a xlink:href="AP__Terrain_8h.html" target="_top" xlink:title=" ">
<polygon fill="white" stroke="#666666" points="223.5,-206 92.5,-206 92.5,-187 223.5,-187 223.5,-206"/>
<text text-anchor="middle" x="158" y="-194" font-family="Helvetica,sans-Serif" font-size="10.00">AP_Terrain/AP_Terrain.h</text>
</a>
</g>
</g>
<!-- Node4&#45;&gt;Node5 -->
<g id="edge5_Node000004_Node000005" class="edge">
<title>Node4&#45;&gt;Node5</title>
<g id="a_edge5_Node000004_Node000005"><a xlink:title=" ">
<path fill="none" stroke="#63b8ff" d="M158,-241.75C158,-234.8 158,-224.85 158,-216.13"/>
<polygon fill="#63b8ff" stroke="#63b8ff" points="161.5,-216.09 158,-206.09 154.5,-216.09 161.5,-216.09"/>
</a>
</g>
</g>
<!-- Node5&#45;&gt;Node3 -->
<g id="edge6_Node000005_Node000003" class="edge">
<title>Node5&#45;&gt;Node3</title>
<g id="a_edge6_Node000005_Node000003"><a xlink:title=" ">
<path fill="none" stroke="#63b8ff" d="M136.85,-186.93C122.17,-179.73 103.75,-167.88 95,-151 74.32,-111.08 92.83,-56.59 105.12,-28.66"/>
<polygon fill="#63b8ff" stroke="#63b8ff" points="108.42,-29.88 109.44,-19.33 102.06,-26.94 108.42,-29.88"/>
</a>
</g>
</g>
<!-- Node6 -->
<g id="Node000006" class="node">
<title>Node6</title>
<g id="a_Node000006"><a xlink:href="AP__Filesystem__config_8h.html" target="_top" xlink:title=" ">
<polygon fill="white" stroke="#666666" points="266,-151 104,-151 104,-121 266,-121 266,-151"/>
<text text-anchor="start" x="112" y="-139" font-family="Helvetica,sans-Serif" font-size="10.00">AP_Filesystem/AP_Filesystem</text>
<text text-anchor="middle" x="185" y="-128" font-family="Helvetica,sans-Serif" font-size="10.00">_config.h</text>
</a>
</g>
</g>
<!-- Node5&#45;&gt;Node6 -->
<g id="edge7_Node000005_Node000006" class="edge">
<title>Node5&#45;&gt;Node6</title>
<g id="a_edge7_Node000005_Node000006"><a xlink:title=" ">
<path fill="none" stroke="#63b8ff" d="M161.98,-186.87C165.21,-179.89 169.9,-169.71 174.21,-160.38"/>
<polygon fill="#63b8ff" stroke="#63b8ff" points="177.47,-161.66 178.49,-151.11 171.12,-158.73 177.47,-161.66"/>
</a>
</g>
</g>
<!-- Node6&#45;&gt;Node3 -->
<g id="edge8_Node000006_Node000003" class="edge">
<title>Node6&#45;&gt;Node3</title>
<g id="a_edge8_Node000006_Node000003"><a xlink:title=" ">
<path fill="none" stroke="#63b8ff" d="M165.56,-120.81C154.47,-111.74 141.19,-99.07 133,-85 122.95,-67.74 118.15,-45.19 115.91,-29.45"/>
<polygon fill="#63b8ff" stroke="#63b8ff" points="119.36,-28.86 114.68,-19.35 112.41,-29.7 119.36,-28.86"/>
</a>
</g>
</g>
<!-- Node7 -->
<g id="Node000007" class="node">
<title>Node7</title>
<g id="a_Node000007"><a xlink:href="AP__Mission__config_8h.html" target="_top" xlink:title=" ">
<polygon fill="white" stroke="#666666" points="273.5,-85 142.5,-85 142.5,-55 273.5,-55 273.5,-85"/>
<text text-anchor="start" x="150.5" y="-73" font-family="Helvetica,sans-Serif" font-size="10.00">AP_Mission/AP_Mission</text>
<text text-anchor="middle" x="208" y="-62" font-family="Helvetica,sans-Serif" font-size="10.00">_config.h</text>
</a>
</g>
</g>
<!-- Node6&#45;&gt;Node7 -->
<g id="edge9_Node000006_Node000007" class="edge">
<title>Node6&#45;&gt;Node7</title>
<g id="a_edge9_Node000006_Node000007"><a xlink:title=" ">
<path fill="none" stroke="#63b8ff" d="M190.1,-120.8C192.84,-113.17 196.29,-103.57 199.43,-94.84"/>
<polygon fill="#63b8ff" stroke="#63b8ff" points="202.82,-95.76 202.91,-85.16 196.23,-93.39 202.82,-95.76"/>
</a>
</g>
</g>
<!-- Node7&#45;&gt;Node3 -->
<g id="edge10_Node000007_Node000003" class="edge">
<title>Node7&#45;&gt;Node3</title>
<g id="a_edge10_Node000007_Node000003"><a xlink:title=" ">
<path fill="none" stroke="#63b8ff" d="M185.25,-54.84C170.4,-45.6 151.1,-33.59 136.34,-24.4"/>
<polygon fill="#63b8ff" stroke="#63b8ff" points="138.15,-21.41 127.81,-19.09 134.45,-27.35 138.15,-21.41"/>
</a>
</g>
</g>
<!-- Node8&#45;&gt;Node3 -->
<g id="edge12_Node000008_Node000003" class="edge">
<title>Node8&#45;&gt;Node3</title>
<g id="a_edge12_Node000008_Node000003"><a xlink:title=" ">
<path fill="none" stroke="#63b8ff" d="M365.25,-60.49C312.67,-50.03 223.42,-32.27 166.66,-20.98"/>
<polygon fill="#63b8ff" stroke="#63b8ff" points="167.29,-17.54 156.8,-19.02 165.93,-24.4 167.29,-17.54"/>
</a>
</g>
</g>
<!-- Node9&#45;&gt;Node3 -->
<g id="edge14_Node000009_Node000003" class="edge">
<title>Node9&#45;&gt;Node3</title>
<g id="a_edge14_Node000009_Node000003"><a xlink:title=" ">
<path fill="none" stroke="#63b8ff" d="M354.03,-126.28C342.25,-109.76 314.33,-73.88 282,-55 253.44,-38.32 218.54,-27.77 187.96,-21.15"/>
<polygon fill="#63b8ff" stroke="#63b8ff" points="188.27,-17.64 177.77,-19.06 186.86,-24.5 188.27,-17.64"/>
</a>
</g>
</g>
<!-- Node9&#45;&gt;Node7 -->
<g id="edge16_Node000009_Node000007" class="edge">
<title>Node9&#45;&gt;Node7</title>
<g id="a_edge16_Node000009_Node000007"><a xlink:title=" ">
<path fill="none" stroke="#63b8ff" d="M339.5,-126.37C316.93,-116.87 280,-101.32 251.02,-89.11"/>
<polygon fill="#63b8ff" stroke="#63b8ff" points="252.1,-85.77 241.52,-85.12 249.38,-92.22 252.1,-85.77"/>
</a>
</g>
</g>
<!-- Node9&#45;&gt;Node8 -->
<g id="edge15_Node000009_Node000008" class="edge">
<title>Node9&#45;&gt;Node8</title>
<g id="a_edge15_Node000009_Node000008"><a xlink:title=" ">
<path fill="none" stroke="#63b8ff" d="M366.47,-126.37C373.8,-116.59 385.93,-100.42 395.19,-88.08"/>
<polygon fill="#63b8ff" stroke="#63b8ff" points="398.12,-90.01 401.32,-79.91 392.52,-85.81 398.12,-90.01"/>
</a>
</g>
</g>
</g>
</svg>
