<?xml version="1.0" encoding="UTF-8" standalone="no"?>
<!DOCTYPE svg PUBLIC "-//W3C//DTD SVG 1.1//EN"
 "http://www.w3.org/Graphics/SVG/1.1/DTD/svg11.dtd">
<!-- Generated by graphviz version 2.43.0 (0)
 -->
<!-- Title: libraries/AP_TemperatureSensor/AP_TemperatureSensor_TSYS01.h Pages: 1 -->
<svg width="173pt" height="291pt"
 viewBox="0.00 0.00 173.00 291.00" xmlns="http://www.w3.org/2000/svg" xmlns:xlink="http://www.w3.org/1999/xlink">

<svg id="main" version="1.1" xmlns="http://www.w3.org/2000/svg" xmlns:xlink="http://www.w3.org/1999/xlink" xml:space="preserve" onload="init(evt)">
<style type="text/css"><![CDATA[
.node, .edge {opacity: 0.7;}
.node.selected, .edge.selected {opacity: 1;}
.edge:hover path { stroke: red; }
.edge:hover polygon { stroke: red; fill: red; }
]]></style>
<script type="application/ecmascript" xlink:href="svg.min.js"/>
<svg id="graph" class="graph">
<g id="graph0" class="graph" transform="scale(1 1) rotate(0) translate(4 287)">
<title>libraries/AP_TemperatureSensor/AP_TemperatureSensor_TSYS01.h</title>
<!-- Node1 -->
<g id="Node000001" class="node">
<title>Node1</title>
<g id="a_Node000001"><a xlink:title=" ">
<polygon fill="#999999" stroke="#666666" points="165,-283 0,-283 0,-242 165,-242 165,-283"/>
<text text-anchor="start" x="8" y="-271" font-family="Helvetica,sans-Serif" font-size="10.00">libraries/AP_Temperature</text>
<text text-anchor="start" x="8" y="-260" font-family="Helvetica,sans-Serif" font-size="10.00">Sensor/AP_TemperatureSensor</text>
<text text-anchor="middle" x="82.5" y="-249" font-family="Helvetica,sans-Serif" font-size="10.00">_TSYS01.h</text>
</a>
</g>
</g>
<!-- Node2 -->
<g id="Node000002" class="node">
<title>Node2</title>
<g id="a_Node000002"><a xlink:href="AP__TemperatureSensor__Backend_8h.html" target="_top" xlink:title=" ">
<polygon fill="white" stroke="#666666" points="147,-206 18,-206 18,-176 147,-176 147,-206"/>
<text text-anchor="start" x="26" y="-194" font-family="Helvetica,sans-Serif" font-size="10.00">AP_TemperatureSensor</text>
<text text-anchor="middle" x="82.5" y="-183" font-family="Helvetica,sans-Serif" font-size="10.00">_Backend.h</text>
</a>
</g>
</g>
<!-- Node1&#45;&gt;Node2 -->
<g id="edge1_Node000001_Node000002" class="edge">
<title>Node1&#45;&gt;Node2</title>
<g id="a_edge1_Node000001_Node000002"><a xlink:title=" ">
<path fill="none" stroke="#63b8ff" d="M82.5,-241.77C82.5,-233.85 82.5,-224.63 82.5,-216.3"/>
<polygon fill="#63b8ff" stroke="#63b8ff" points="86,-216.04 82.5,-206.04 79,-216.04 86,-216.04"/>
</a>
</g>
</g>
<!-- Node3 -->
<g id="Node000003" class="node">
<title>Node3</title>
<g id="a_Node000003"><a xlink:href="AP__TemperatureSensor_8h.html" target="_top" xlink:title=" ">
<polygon fill="white" stroke="#666666" points="151,-140 14,-140 14,-121 151,-121 151,-140"/>
<text text-anchor="middle" x="82.5" y="-128" font-family="Helvetica,sans-Serif" font-size="10.00">AP_TemperatureSensor.h</text>
</a>
</g>
</g>
<!-- Node2&#45;&gt;Node3 -->
<g id="edge2_Node000002_Node000003" class="edge">
<title>Node2&#45;&gt;Node3</title>
<g id="a_edge2_Node000002_Node000003"><a xlink:title=" ">
<path fill="none" stroke="#63b8ff" d="M82.5,-175.84C82.5,-168.21 82.5,-158.7 82.5,-150.45"/>
<polygon fill="#63b8ff" stroke="#63b8ff" points="86,-150.27 82.5,-140.27 79,-150.27 86,-150.27"/>
</a>
</g>
</g>
<!-- Node4 -->
<g id="Node000004" class="node">
<title>Node4</title>
<g id="a_Node000004"><a xlink:href="AP__TemperatureSensor__config_8h.html" target="_top" xlink:title=" ">
<polygon fill="white" stroke="#666666" points="147,-85 18,-85 18,-55 147,-55 147,-85"/>
<text text-anchor="start" x="26" y="-73" font-family="Helvetica,sans-Serif" font-size="10.00">AP_TemperatureSensor</text>
<text text-anchor="middle" x="82.5" y="-62" font-family="Helvetica,sans-Serif" font-size="10.00">_config.h</text>
</a>
</g>
</g>
<!-- Node3&#45;&gt;Node4 -->
<g id="edge3_Node000003_Node000004" class="edge">
<title>Node3&#45;&gt;Node4</title>
<g id="a_edge3_Node000003_Node000004"><a xlink:title=" ">
<path fill="none" stroke="#63b8ff" d="M82.5,-120.87C82.5,-114.11 82.5,-104.35 82.5,-95.26"/>
<polygon fill="#63b8ff" stroke="#63b8ff" points="86,-95.11 82.5,-85.11 79,-95.11 86,-95.11"/>
</a>
</g>
</g>
<!-- Node5 -->
<g id="Node000005" class="node">
<title>Node5</title>
<g id="a_Node000005"><a xlink:href="AP__HAL__Boards_8h.html" target="_top" xlink:title=" ">
<polygon fill="white" stroke="#666666" points="154,-19 11,-19 11,0 154,0 154,-19"/>
<text text-anchor="middle" x="82.5" y="-7" font-family="Helvetica,sans-Serif" font-size="10.00">AP_HAL/AP_HAL_Boards.h</text>
</a>
</g>
</g>
<!-- Node4&#45;&gt;Node5 -->
<g id="edge4_Node000004_Node000005" class="edge">
<title>Node4&#45;&gt;Node5</title>
<g id="a_edge4_Node000004_Node000005"><a xlink:title=" ">
<path fill="none" stroke="#63b8ff" d="M82.5,-54.84C82.5,-47.21 82.5,-37.7 82.5,-29.45"/>
<polygon fill="#63b8ff" stroke="#63b8ff" points="86,-29.27 82.5,-19.27 79,-29.27 86,-29.27"/>
</a>
</g>
</g>
</g>
</svg>
</svg>

<style type='text/css'>
<![CDATA[
[data-mouse-over-selected='false'] { opacity: 0.7; }
[data-mouse-over-selected='true']  { opacity: 1.0; }
]]>
</style>
<script type="application/ecmascript"><![CDATA[
document.addEventListener('DOMContentLoaded', (event) => {
  highlightEdges();
  highlightAdjacentNodes();
});
]]></script>
</svg>
