<?xml version="1.0" encoding="UTF-8" standalone="no"?>
<!DOCTYPE svg PUBLIC "-//W3C//DTD SVG 1.1//EN"
 "http://www.w3.org/Graphics/SVG/1.1/DTD/svg11.dtd">
<!-- Generated by graphviz version 2.43.0 (0)
 -->
<!-- Title: libraries/AP_VisualOdom/AP_VisualOdom_MAV.cpp Pages: 1 -->
<svg width="398pt" height="269pt"
 viewBox="0.00 0.00 398.00 269.00" xmlns="http://www.w3.org/2000/svg" xmlns:xlink="http://www.w3.org/1999/xlink">
<g id="graph0" class="graph" transform="scale(1 1) rotate(0) translate(4 265)">
<title>libraries/AP_VisualOdom/AP_VisualOdom_MAV.cpp</title>
<!-- Node1 -->
<g id="Node000001" class="node">
<title>Node1</title>
<g id="a_Node000001"><a xlink:title=" ">
<polygon fill="#999999" stroke="#666666" points="143,-261 0,-261 0,-231 143,-231 143,-261"/>
<text text-anchor="start" x="8" y="-249" font-family="Helvetica,sans-Serif" font-size="10.00">libraries/AP_VisualOdom</text>
<text text-anchor="middle" x="71.5" y="-238" font-family="Helvetica,sans-Serif" font-size="10.00">/AP_VisualOdom_MAV.cpp</text>
</a>
</g>
</g>
<!-- Node2 -->
<g id="Node000002" class="node">
<title>Node2</title>
<g id="a_Node000002"><a xlink:href="AP__VisualOdom__config_8h.html" target="_top" xlink:title=" ">
<polygon fill="white" stroke="#666666" points="140,-195 3,-195 3,-176 140,-176 140,-195"/>
<text text-anchor="middle" x="71.5" y="-183" font-family="Helvetica,sans-Serif" font-size="10.00">AP_VisualOdom_config.h</text>
</a>
</g>
</g>
<!-- Node1&#45;&gt;Node2 -->
<g id="edge1_Node000001_Node000002" class="edge">
<title>Node1&#45;&gt;Node2</title>
<g id="a_edge1_Node000001_Node000002"><a xlink:title=" ">
<path fill="none" stroke="#63b8ff" d="M71.5,-230.84C71.5,-223.21 71.5,-213.7 71.5,-205.45"/>
<polygon fill="#63b8ff" stroke="#63b8ff" points="75,-205.27 71.5,-195.27 68,-205.27 75,-205.27"/>
</a>
</g>
</g>
<!-- Node3 -->
<g id="Node000003" class="node">
<title>Node3</title>
<g id="a_Node000003"><a xlink:href="AP__HAL__Boards_8h.html" target="_top" xlink:title=" ">
<polygon fill="white" stroke="#666666" points="182,-19 39,-19 39,0 182,0 182,-19"/>
<text text-anchor="middle" x="110.5" y="-7" font-family="Helvetica,sans-Serif" font-size="10.00">AP_HAL/AP_HAL_Boards.h</text>
</a>
</g>
</g>
<!-- Node2&#45;&gt;Node3 -->
<g id="edge2_Node000002_Node000003" class="edge">
<title>Node2&#45;&gt;Node3</title>
<g id="a_edge2_Node000002_Node000003"><a xlink:title=" ">
<path fill="none" stroke="#63b8ff" d="M68.16,-175.8C64.95,-166.94 60.32,-152.75 58.5,-140 53.1,-102.29 52.77,-89.22 69.5,-55 74.89,-43.99 83.88,-33.77 92.08,-25.91"/>
<polygon fill="#63b8ff" stroke="#63b8ff" points="94.48,-28.45 99.54,-19.14 89.78,-23.26 94.48,-28.45"/>
</a>
</g>
</g>
<!-- Node4 -->
<g id="Node000004" class="node">
<title>Node4</title>
<g id="a_Node000004"><a xlink:href="GCS__config_8h.html" target="_top" xlink:title=" ">
<polygon fill="white" stroke="#666666" points="219,-140 68,-140 68,-121 219,-121 219,-140"/>
<text text-anchor="middle" x="143.5" y="-128" font-family="Helvetica,sans-Serif" font-size="10.00">GCS_MAVLink/GCS_config.h</text>
</a>
</g>
</g>
<!-- Node2&#45;&gt;Node4 -->
<g id="edge3_Node000002_Node000004" class="edge">
<title>Node2&#45;&gt;Node4</title>
<g id="a_edge3_Node000002_Node000004"><a xlink:title=" ">
<path fill="none" stroke="#63b8ff" d="M83.07,-175.98C93.92,-168 110.38,-155.88 123.38,-146.31"/>
<polygon fill="#63b8ff" stroke="#63b8ff" points="125.74,-148.92 131.72,-140.17 121.59,-143.28 125.74,-148.92"/>
</a>
</g>
</g>
<!-- Node4&#45;&gt;Node3 -->
<g id="edge4_Node000004_Node000003" class="edge">
<title>Node4&#45;&gt;Node3</title>
<g id="a_edge4_Node000004_Node000003"><a xlink:title=" ">
<path fill="none" stroke="#63b8ff" d="M120.39,-120.98C104.91,-113.92 85.74,-102.23 76.5,-85 66.07,-65.55 80.79,-42.29 94,-27"/>
<polygon fill="#63b8ff" stroke="#63b8ff" points="96.8,-29.12 101.01,-19.39 91.66,-24.37 96.8,-29.12"/>
</a>
</g>
</g>
<!-- Node5 -->
<g id="Node000005" class="node">
<title>Node5</title>
<g id="a_Node000005"><a xlink:href="AP__Relay__config_8h.html" target="_top" xlink:title=" ">
<polygon fill="white" stroke="#666666" points="241,-79.5 86,-79.5 86,-60.5 241,-60.5 241,-79.5"/>
<text text-anchor="middle" x="163.5" y="-67.5" font-family="Helvetica,sans-Serif" font-size="10.00">AP_Relay/AP_Relay_config.h</text>
</a>
</g>
</g>
<!-- Node4&#45;&gt;Node5 -->
<g id="edge5_Node000004_Node000005" class="edge">
<title>Node4&#45;&gt;Node5</title>
<g id="a_edge5_Node000004_Node000005"><a xlink:title=" ">
<path fill="none" stroke="#63b8ff" d="M146.45,-120.87C149.29,-112.57 153.66,-99.78 157.27,-89.22"/>
<polygon fill="#63b8ff" stroke="#63b8ff" points="160.61,-90.26 160.54,-79.67 153.99,-88 160.61,-90.26"/>
</a>
</g>
</g>
<!-- Node6 -->
<g id="Node000006" class="node">
<title>Node6</title>
<g id="a_Node000006"><a xlink:href="AP__Mission__config_8h.html" target="_top" xlink:title=" ">
<polygon fill="white" stroke="#666666" points="390,-85 259,-85 259,-55 390,-55 390,-85"/>
<text text-anchor="start" x="267" y="-73" font-family="Helvetica,sans-Serif" font-size="10.00">AP_Mission/AP_Mission</text>
<text text-anchor="middle" x="324.5" y="-62" font-family="Helvetica,sans-Serif" font-size="10.00">_config.h</text>
</a>
</g>
</g>
<!-- Node4&#45;&gt;Node6 -->
<g id="edge7_Node000004_Node000006" class="edge">
<title>Node4&#45;&gt;Node6</title>
<g id="a_edge7_Node000004_Node000006"><a xlink:title=" ">
<path fill="none" stroke="#63b8ff" d="M169.82,-120.99C196.32,-112.43 237.96,-98.97 271.36,-88.18"/>
<polygon fill="#63b8ff" stroke="#63b8ff" points="272.55,-91.47 280.98,-85.06 270.39,-84.81 272.55,-91.47"/>
</a>
</g>
</g>
<!-- Node5&#45;&gt;Node3 -->
<g id="edge6_Node000005_Node000003" class="edge">
<title>Node5&#45;&gt;Node3</title>
<g id="a_edge6_Node000005_Node000003"><a xlink:title=" ">
<path fill="none" stroke="#63b8ff" d="M155.68,-60.37C147.69,-51.55 135.11,-37.66 125.24,-26.77"/>
<polygon fill="#63b8ff" stroke="#63b8ff" points="127.66,-24.23 118.35,-19.17 122.47,-28.93 127.66,-24.23"/>
</a>
</g>
</g>
<!-- Node6&#45;&gt;Node3 -->
<g id="edge8_Node000006_Node000003" class="edge">
<title>Node6&#45;&gt;Node3</title>
<g id="a_edge8_Node000006_Node000003"><a xlink:title=" ">
<path fill="none" stroke="#63b8ff" d="M273.24,-54.99C235.99,-44.8 186.23,-31.2 151.58,-21.73"/>
<polygon fill="#63b8ff" stroke="#63b8ff" points="152.36,-18.31 141.79,-19.05 150.51,-25.07 152.36,-18.31"/>
</a>
</g>
</g>
</g>
</svg>
