<?xml version="1.0" encoding="UTF-8" standalone="no"?>
<!DOCTYPE svg PUBLIC "-//W3C//DTD SVG 1.1//EN"
 "http://www.w3.org/Graphics/SVG/1.1/DTD/svg11.dtd">
<!-- Generated by graphviz version 2.43.0 (0)
 -->
<!-- Title: libraries/AP_TemperatureSensor/AP_TemperatureSensor.h Pages: 1 -->
<!--zoomable 269 -->

<svg id="main" version="1.1" xmlns="http://www.w3.org/2000/svg" xmlns:xlink="http://www.w3.org/1999/xlink" xml:space="preserve" onload="init(evt)">
<style type="text/css"><![CDATA[
.node, .edge {opacity: 0.7;}
.node.selected, .edge.selected {opacity: 1;}
.edge:hover path { stroke: red; }
.edge:hover polygon { stroke: red; fill: red; }
]]></style>

<defs>
  <circle id="rim" cx="0" cy="0" r="7"/>
  <circle id="rim2" cx="0" cy="0" r="3.5"/>
  <g id="zoomPlus">
    <use xlink:href="#rim" fill="#404040"><set attributeName="fill" to="#808080" begin="zoomplus.mouseover" end="zoomplus.mouseout"/></use>
    <path d="M-4,0h8M0,-4v8" fill="none" stroke="white" stroke-width="1.5" pointer-events="none"/>
  </g>
  <g id="zoomMin">
    <use xlink:href="#rim" fill="#404040"><set attributeName="fill" to="#808080" begin="zoomminus.mouseover" end="zoomminus.mouseout"/></use>
    <path d="M-4,0h8" fill="none" stroke="white" stroke-width="1.5" pointer-events="none"/>
  </g>
  <g id="arrowUp" transform="translate(30 24)">
    <use xlink:href="#rim"/>
    <path pointer-events="none" fill="none" stroke="white" stroke-width="1.5" d="M0,-3.0v7 M-2.5,-0.5L0,-3.0L2.5,-0.5"/>
  </g>
  <g id="arrowRight" transform="rotate(90) translate(36 -43)">
    <use xlink:href="#rim"/>
    <path pointer-events="none" fill="none" stroke="white" stroke-width="1.5" d="M0,-3.0v7 M-2.5,-0.5L0,-3.0L2.5,-0.5"/>
  </g>
  <g id="arrowDown" transform="rotate(180) translate(-30 -48)">
    <use xlink:href="#rim"/>
    <path pointer-events="none" fill="none" stroke="white" stroke-width="1.5" d="M0,-3.0v7 M-2.5,-0.5L0,-3.0L2.5,-0.5"/>
  </g>
  <g id="arrowLeft" transform="rotate(270) translate(-36 17)">
    <use xlink:href="#rim"/>
    <path pointer-events="none" fill="none" stroke="white" stroke-width="1.5" d="M0,-3.0v7 M-2.5,-0.5L0,-3.0L2.5,-0.5"/>
  </g>
  <g id="resetDef">
    <use xlink:href="#rim2" fill="#404040"><set attributeName="fill" to="#808080" begin="reset.mouseover" end="reset.mouseout"/></use>
  </g>
</defs>
<script type="application/ecmascript">
var viewWidth = 2981;
var viewHeight = 269;
var sectionId = 'dynsection-1';
</script>
<script type="application/ecmascript" xlink:href="svg.min.js"/>
<svg id="graph" class="graph">
<g id="viewport">
<title>libraries/AP_TemperatureSensor/AP_TemperatureSensor.h</title>
<!-- Node1 -->
<g id="Node000001" class="node">
<title>Node1</title>
<g id="a_Node000001"><a xlink:title=" ">
<polygon fill="#999999" stroke="#666666" points="555,-261 382,-261 382,-231 555,-231 555,-261"/>
<text text-anchor="start" x="390" y="-249" font-family="Helvetica,sans-Serif" font-size="10.00">libraries/AP_Temperature</text>
<text text-anchor="middle" x="468.5" y="-238" font-family="Helvetica,sans-Serif" font-size="10.00">Sensor/AP_TemperatureSensor.h</text>
</a>
</g>
</g>
<!-- Node2 -->
<g id="Node000002" class="node">
<title>Node2</title>
<g id="a_Node000002"><a xlink:href="AP__TemperatureSensor_8cpp.html" target="_top" xlink:title=" ">
<polygon fill="white" stroke="#666666" points="185,-189.5 0,-189.5 0,-159.5 185,-159.5 185,-189.5"/>
<text text-anchor="start" x="8" y="-177.5" font-family="Helvetica,sans-Serif" font-size="10.00">libraries/AP_Temperature</text>
<text text-anchor="middle" x="92.5" y="-166.5" font-family="Helvetica,sans-Serif" font-size="10.00">Sensor/AP_TemperatureSensor.cpp</text>
</a>
</g>
</g>
<!-- Node1&#45;&gt;Node2 -->
<g id="edge1_Node000001_Node000002" class="edge">
<title>Node1&#45;&gt;Node2</title>
<g id="a_edge1_Node000001_Node000002"><a xlink:title=" ">
<path fill="none" stroke="#63b8ff" d="M380.05,-229.17C326.12,-219.46 255.8,-206.68 193.5,-195 184.2,-193.26 174.42,-191.4 164.76,-189.55"/>
<polygon fill="#63b8ff" stroke="#63b8ff" points="379.47,-232.62 389.93,-230.95 380.71,-225.73 379.47,-232.62"/>
</a>
</g>
</g>
<!-- Node3 -->
<g id="Node000003" class="node">
<title>Node3</title>
<g id="a_Node000003"><a xlink:href="AP__TemperatureSensor__Backend_8cpp.html" target="_top" xlink:title=" ">
<polygon fill="white" stroke="#666666" points="368,-195 203,-195 203,-154 368,-154 368,-195"/>
<text text-anchor="start" x="211" y="-183" font-family="Helvetica,sans-Serif" font-size="10.00">libraries/AP_Temperature</text>
<text text-anchor="start" x="211" y="-172" font-family="Helvetica,sans-Serif" font-size="10.00">Sensor/AP_TemperatureSensor</text>
<text text-anchor="middle" x="285.5" y="-161" font-family="Helvetica,sans-Serif" font-size="10.00">_Backend.cpp</text>
</a>
</g>
</g>
<!-- Node1&#45;&gt;Node3 -->
<g id="edge2_Node000001_Node000003" class="edge">
<title>Node1&#45;&gt;Node3</title>
<g id="a_edge2_Node000001_Node000003"><a xlink:title=" ">
<path fill="none" stroke="#63b8ff" d="M421.88,-227.29C395.97,-217.46 363.69,-205.2 337.04,-195.07"/>
<polygon fill="#63b8ff" stroke="#63b8ff" points="420.88,-230.66 431.47,-230.94 423.36,-224.11 420.88,-230.66"/>
</a>
</g>
</g>
<!-- Node4 -->
<g id="Node000004" class="node">
<title>Node4</title>
<g id="a_Node000004"><a xlink:href="AP__TemperatureSensor__Backend_8h.html" target="_top" xlink:title=" ">
<polygon fill="white" stroke="#666666" points="551,-195 386,-195 386,-154 551,-154 551,-195"/>
<text text-anchor="start" x="394" y="-183" font-family="Helvetica,sans-Serif" font-size="10.00">libraries/AP_Temperature</text>
<text text-anchor="start" x="394" y="-172" font-family="Helvetica,sans-Serif" font-size="10.00">Sensor/AP_TemperatureSensor</text>
<text text-anchor="middle" x="468.5" y="-161" font-family="Helvetica,sans-Serif" font-size="10.00">_Backend.h</text>
</a>
</g>
</g>
<!-- Node1&#45;&gt;Node4 -->
<g id="edge3_Node000001_Node000004" class="edge">
<title>Node1&#45;&gt;Node4</title>
<g id="a_edge3_Node000001_Node000004"><a xlink:title=" ">
<path fill="none" stroke="#63b8ff" d="M468.5,-220.91C468.5,-212.47 468.5,-203.1 468.5,-195.07"/>
<polygon fill="#63b8ff" stroke="#63b8ff" points="465,-220.94 468.5,-230.94 472,-220.94 465,-220.94"/>
</a>
</g>
</g>
<!-- Node13 -->
<g id="Node000013" class="node">
<title>Node13</title>
<g id="a_Node000013"><a xlink:href="AP__TemperatureSensor__Params_8cpp.html" target="_top" xlink:title=" ">
<polygon fill="white" stroke="#666666" points="734,-195 569,-195 569,-154 734,-154 734,-195"/>
<text text-anchor="start" x="577" y="-183" font-family="Helvetica,sans-Serif" font-size="10.00">libraries/AP_Temperature</text>
<text text-anchor="start" x="577" y="-172" font-family="Helvetica,sans-Serif" font-size="10.00">Sensor/AP_TemperatureSensor</text>
<text text-anchor="middle" x="651.5" y="-161" font-family="Helvetica,sans-Serif" font-size="10.00">_Params.cpp</text>
</a>
</g>
</g>
<!-- Node1&#45;&gt;Node13 -->
<g id="edge12_Node000001_Node000013" class="edge">
<title>Node1&#45;&gt;Node13</title>
<g id="a_edge12_Node000001_Node000013"><a xlink:title=" ">
<path fill="none" stroke="#63b8ff" d="M515.12,-227.29C541.03,-217.46 573.31,-205.2 599.96,-195.07"/>
<polygon fill="#63b8ff" stroke="#63b8ff" points="513.64,-224.11 505.53,-230.94 516.12,-230.66 513.64,-224.11"/>
</a>
</g>
</g>
<!-- Node14 -->
<g id="Node000014" class="node">
<title>Node14</title>
<g id="a_Node000014"><a xlink:href="AP__Vehicle_8h.html" target="_top" xlink:title=" ">
<polygon fill="white" stroke="#666666" points="1841,-189.5 1728,-189.5 1728,-159.5 1841,-159.5 1841,-189.5"/>
<text text-anchor="start" x="1736" y="-177.5" font-family="Helvetica,sans-Serif" font-size="10.00">libraries/AP_Vehicle</text>
<text text-anchor="middle" x="1784.5" y="-166.5" font-family="Helvetica,sans-Serif" font-size="10.00">/AP_Vehicle.h</text>
</a>
</g>
</g>
<!-- Node1&#45;&gt;Node14 -->
<g id="edge13_Node000001_Node000014" class="edge">
<title>Node1&#45;&gt;Node14</title>
<g id="a_edge13_Node000001_Node000014"><a xlink:title=" ">
<path fill="none" stroke="#63b8ff" d="M565.21,-239.89C823.45,-226.25 1523.43,-189.29 1727.77,-178.5"/>
<polygon fill="#63b8ff" stroke="#63b8ff" points="564.9,-236.4 555.1,-240.43 565.27,-243.39 564.9,-236.4"/>
</a>
</g>
</g>
<!-- Node5 -->
<g id="Node000005" class="node">
<title>Node5</title>
<g id="a_Node000005"><a xlink:href="AP__TemperatureSensor__MAX31865_8h.html" target="_top" xlink:title=" ">
<polygon fill="white" stroke="#666666" points="185,-118 20,-118 20,-77 185,-77 185,-118"/>
<text text-anchor="start" x="28" y="-106" font-family="Helvetica,sans-Serif" font-size="10.00">libraries/AP_Temperature</text>
<text text-anchor="start" x="28" y="-95" font-family="Helvetica,sans-Serif" font-size="10.00">Sensor/AP_TemperatureSensor</text>
<text text-anchor="middle" x="102.5" y="-84" font-family="Helvetica,sans-Serif" font-size="10.00">_MAX31865.h</text>
</a>
</g>
</g>
<!-- Node4&#45;&gt;Node5 -->
<g id="edge4_Node000004_Node000005" class="edge">
<title>Node4&#45;&gt;Node5</title>
<g id="a_edge4_Node000004_Node000005"><a xlink:title=" ">
<path fill="none" stroke="#63b8ff" d="M375.72,-153.86C293.63,-137.18 271.6,-134.05 193.5,-118 190.81,-117.45 188.08,-116.88 185.31,-116.31"/>
<polygon fill="#63b8ff" stroke="#63b8ff" points="375.26,-157.34 385.76,-155.9 376.66,-150.48 375.26,-157.34"/>
</a>
</g>
</g>
<!-- Node7 -->
<g id="Node000007" class="node">
<title>Node7</title>
<g id="a_Node000007"><a xlink:href="AP__TemperatureSensor__MCP9600_8h.html" target="_top" xlink:title=" ">
<polygon fill="white" stroke="#666666" points="368,-118 203,-118 203,-77 368,-77 368,-118"/>
<text text-anchor="start" x="211" y="-106" font-family="Helvetica,sans-Serif" font-size="10.00">libraries/AP_Temperature</text>
<text text-anchor="start" x="211" y="-95" font-family="Helvetica,sans-Serif" font-size="10.00">Sensor/AP_TemperatureSensor</text>
<text text-anchor="middle" x="285.5" y="-84" font-family="Helvetica,sans-Serif" font-size="10.00">_MCP9600.h</text>
</a>
</g>
</g>
<!-- Node4&#45;&gt;Node7 -->
<g id="edge6_Node000004_Node000007" class="edge">
<title>Node4&#45;&gt;Node7</title>
<g id="a_edge6_Node000004_Node000007"><a xlink:title=" ">
<path fill="none" stroke="#63b8ff" d="M411.48,-150.13C386.34,-139.83 357.14,-127.86 333.18,-118.04"/>
<polygon fill="#63b8ff" stroke="#63b8ff" points="410.32,-153.44 420.9,-153.99 412.97,-146.96 410.32,-153.44"/>
</a>
</g>
</g>
<!-- Node9 -->
<g id="Node000009" class="node">
<title>Node9</title>
<g id="a_Node000009"><a xlink:href="AP__TemperatureSensor__TSYS01_8h.html" target="_top" xlink:title=" ">
<polygon fill="white" stroke="#666666" points="551,-118 386,-118 386,-77 551,-77 551,-118"/>
<text text-anchor="start" x="394" y="-106" font-family="Helvetica,sans-Serif" font-size="10.00">libraries/AP_Temperature</text>
<text text-anchor="start" x="394" y="-95" font-family="Helvetica,sans-Serif" font-size="10.00">Sensor/AP_TemperatureSensor</text>
<text text-anchor="middle" x="468.5" y="-84" font-family="Helvetica,sans-Serif" font-size="10.00">_TSYS01.h</text>
</a>
</g>
</g>
<!-- Node4&#45;&gt;Node9 -->
<g id="edge8_Node000004_Node000009" class="edge">
<title>Node4&#45;&gt;Node9</title>
<g id="a_edge8_Node000004_Node000009"><a xlink:title=" ">
<path fill="none" stroke="#63b8ff" d="M468.5,-143.69C468.5,-135.08 468.5,-125.9 468.5,-118.07"/>
<polygon fill="#63b8ff" stroke="#63b8ff" points="465,-143.79 468.5,-153.79 472,-143.79 465,-143.79"/>
</a>
</g>
</g>
<!-- Node11 -->
<g id="Node000011" class="node">
<title>Node11</title>
<g id="a_Node000011"><a xlink:href="AP__TemperatureSensor__TSYS03_8h.html" target="_top" xlink:title=" ">
<polygon fill="white" stroke="#666666" points="734,-118 569,-118 569,-77 734,-77 734,-118"/>
<text text-anchor="start" x="577" y="-106" font-family="Helvetica,sans-Serif" font-size="10.00">libraries/AP_Temperature</text>
<text text-anchor="start" x="577" y="-95" font-family="Helvetica,sans-Serif" font-size="10.00">Sensor/AP_TemperatureSensor</text>
<text text-anchor="middle" x="651.5" y="-84" font-family="Helvetica,sans-Serif" font-size="10.00">_TSYS03.h</text>
</a>
</g>
</g>
<!-- Node4&#45;&gt;Node11 -->
<g id="edge10_Node000004_Node000011" class="edge">
<title>Node4&#45;&gt;Node11</title>
<g id="a_edge10_Node000004_Node000011"><a xlink:title=" ">
<path fill="none" stroke="#63b8ff" d="M525.52,-150.13C550.66,-139.83 579.86,-127.86 603.82,-118.04"/>
<polygon fill="#63b8ff" stroke="#63b8ff" points="524.03,-146.96 516.1,-153.99 526.68,-153.44 524.03,-146.96"/>
</a>
</g>
</g>
<!-- Node6 -->
<g id="Node000006" class="node">
<title>Node6</title>
<g id="a_Node000006"><a xlink:href="AP__TemperatureSensor__MAX31865_8cpp.html" target="_top" xlink:title=" ">
<polygon fill="white" stroke="#666666" points="185,-41 20,-41 20,0 185,0 185,-41"/>
<text text-anchor="start" x="28" y="-29" font-family="Helvetica,sans-Serif" font-size="10.00">libraries/AP_Temperature</text>
<text text-anchor="start" x="28" y="-18" font-family="Helvetica,sans-Serif" font-size="10.00">Sensor/AP_TemperatureSensor</text>
<text text-anchor="middle" x="102.5" y="-7" font-family="Helvetica,sans-Serif" font-size="10.00">_MAX31865.cpp</text>
</a>
</g>
</g>
<!-- Node5&#45;&gt;Node6 -->
<g id="edge5_Node000005_Node000006" class="edge">
<title>Node5&#45;&gt;Node6</title>
<g id="a_edge5_Node000005_Node000006"><a xlink:title=" ">
<path fill="none" stroke="#63b8ff" d="M102.5,-66.69C102.5,-58.08 102.5,-48.9 102.5,-41.07"/>
<polygon fill="#63b8ff" stroke="#63b8ff" points="99,-66.79 102.5,-76.79 106,-66.79 99,-66.79"/>
</a>
</g>
</g>
<!-- Node8 -->
<g id="Node000008" class="node">
<title>Node8</title>
<g id="a_Node000008"><a xlink:href="AP__TemperatureSensor__MCP9600_8cpp.html" target="_top" xlink:title=" ">
<polygon fill="white" stroke="#666666" points="368,-41 203,-41 203,0 368,0 368,-41"/>
<text text-anchor="start" x="211" y="-29" font-family="Helvetica,sans-Serif" font-size="10.00">libraries/AP_Temperature</text>
<text text-anchor="start" x="211" y="-18" font-family="Helvetica,sans-Serif" font-size="10.00">Sensor/AP_TemperatureSensor</text>
<text text-anchor="middle" x="285.5" y="-7" font-family="Helvetica,sans-Serif" font-size="10.00">_MCP9600.cpp</text>
</a>
</g>
</g>
<!-- Node7&#45;&gt;Node8 -->
<g id="edge7_Node000007_Node000008" class="edge">
<title>Node7&#45;&gt;Node8</title>
<g id="a_edge7_Node000007_Node000008"><a xlink:title=" ">
<path fill="none" stroke="#63b8ff" d="M285.5,-66.69C285.5,-58.08 285.5,-48.9 285.5,-41.07"/>
<polygon fill="#63b8ff" stroke="#63b8ff" points="282,-66.79 285.5,-76.79 289,-66.79 282,-66.79"/>
</a>
</g>
</g>
<!-- Node10 -->
<g id="Node000010" class="node">
<title>Node10</title>
<g id="a_Node000010"><a xlink:href="AP__TemperatureSensor__TSYS01_8cpp.html" target="_top" xlink:title=" ">
<polygon fill="white" stroke="#666666" points="551,-41 386,-41 386,0 551,0 551,-41"/>
<text text-anchor="start" x="394" y="-29" font-family="Helvetica,sans-Serif" font-size="10.00">libraries/AP_Temperature</text>
<text text-anchor="start" x="394" y="-18" font-family="Helvetica,sans-Serif" font-size="10.00">Sensor/AP_TemperatureSensor</text>
<text text-anchor="middle" x="468.5" y="-7" font-family="Helvetica,sans-Serif" font-size="10.00">_TSYS01.cpp</text>
</a>
</g>
</g>
<!-- Node9&#45;&gt;Node10 -->
<g id="edge9_Node000009_Node000010" class="edge">
<title>Node9&#45;&gt;Node10</title>
<g id="a_edge9_Node000009_Node000010"><a xlink:title=" ">
<path fill="none" stroke="#63b8ff" d="M468.5,-66.69C468.5,-58.08 468.5,-48.9 468.5,-41.07"/>
<polygon fill="#63b8ff" stroke="#63b8ff" points="465,-66.79 468.5,-76.79 472,-66.79 465,-66.79"/>
</a>
</g>
</g>
<!-- Node12 -->
<g id="Node000012" class="node">
<title>Node12</title>
<g id="a_Node000012"><a xlink:href="AP__TemperatureSensor__TSYS03_8cpp.html" target="_top" xlink:title=" ">
<polygon fill="white" stroke="#666666" points="734,-41 569,-41 569,0 734,0 734,-41"/>
<text text-anchor="start" x="577" y="-29" font-family="Helvetica,sans-Serif" font-size="10.00">libraries/AP_Temperature</text>
<text text-anchor="start" x="577" y="-18" font-family="Helvetica,sans-Serif" font-size="10.00">Sensor/AP_TemperatureSensor</text>
<text text-anchor="middle" x="651.5" y="-7" font-family="Helvetica,sans-Serif" font-size="10.00">_TSYS03.cpp</text>
</a>
</g>
</g>
<!-- Node11&#45;&gt;Node12 -->
<g id="edge11_Node000011_Node000012" class="edge">
<title>Node11&#45;&gt;Node12</title>
<g id="a_edge11_Node000011_Node000012"><a xlink:title=" ">
<path fill="none" stroke="#63b8ff" d="M651.5,-66.69C651.5,-58.08 651.5,-48.9 651.5,-41.07"/>
<polygon fill="#63b8ff" stroke="#63b8ff" points="648,-66.79 651.5,-76.79 655,-66.79 648,-66.79"/>
</a>
</g>
</g>
<!-- Node15 -->
<g id="Node000015" class="node">
<title>Node15</title>
<g id="a_Node000015"><a xlink:href="AHRS__Test_8cpp.html" target="_top" xlink:title=" ">
<polygon fill="white" stroke="#666666" points="907,-112.5 752,-112.5 752,-82.5 907,-82.5 907,-112.5"/>
<text text-anchor="start" x="760" y="-100.5" font-family="Helvetica,sans-Serif" font-size="10.00">libraries/AP_AHRS/examples</text>
<text text-anchor="middle" x="829.5" y="-89.5" font-family="Helvetica,sans-Serif" font-size="10.00">/AHRS_Test/AHRS_Test.cpp</text>
</a>
</g>
</g>
<!-- Node14&#45;&gt;Node15 -->
<g id="edge14_Node000014_Node000015" class="edge">
<title>Node14&#45;&gt;Node15</title>
<g id="a_edge14_Node000014_Node000015"><a xlink:title=" ">
<path fill="none" stroke="#63b8ff" d="M1717.59,-172.85C1571.34,-170.63 1212.48,-160.87 915.5,-118 905.8,-116.6 895.58,-114.68 885.7,-112.59"/>
<polygon fill="#63b8ff" stroke="#63b8ff" points="1717.7,-176.35 1727.75,-172.99 1717.8,-169.35 1717.7,-176.35"/>
</a>
</g>
</g>
<!-- Node16 -->
<g id="Node000016" class="node">
<title>Node16</title>
<g id="a_Node000016"><a xlink:href="AP__Arming_8cpp.html" target="_top" xlink:title=" ">
<polygon fill="white" stroke="#666666" points="1038,-112.5 925,-112.5 925,-82.5 1038,-82.5 1038,-112.5"/>
<text text-anchor="start" x="933" y="-100.5" font-family="Helvetica,sans-Serif" font-size="10.00">libraries/AP_Arming</text>
<text text-anchor="middle" x="981.5" y="-89.5" font-family="Helvetica,sans-Serif" font-size="10.00">/AP_Arming.cpp</text>
</a>
</g>
</g>
<!-- Node14&#45;&gt;Node16 -->
<g id="edge15_Node000014_Node000016" class="edge">
<title>Node14&#45;&gt;Node16</title>
<g id="a_edge15_Node000014_Node000016"><a xlink:title=" ">
<path fill="none" stroke="#63b8ff" d="M1717.36,-173.19C1587.1,-171.54 1291.43,-162.7 1047.5,-118 1039.86,-116.6 1031.85,-114.65 1024.14,-112.53"/>
<polygon fill="#63b8ff" stroke="#63b8ff" points="1717.54,-176.69 1727.58,-173.31 1717.62,-169.69 1717.54,-176.69"/>
</a>
</g>
</g>
<!-- Node17 -->
<g id="Node000017" class="node">
<title>Node17</title>
<g id="a_Node000017"><a xlink:href="AP__Baro_8cpp.html" target="_top" xlink:title=" ">
<polygon fill="white" stroke="#666666" points="1172.5,-112.5 1056.5,-112.5 1056.5,-82.5 1172.5,-82.5 1172.5,-112.5"/>
<text text-anchor="start" x="1064.5" y="-100.5" font-family="Helvetica,sans-Serif" font-size="10.00">libraries/AP_Baro/AP</text>
<text text-anchor="middle" x="1114.5" y="-89.5" font-family="Helvetica,sans-Serif" font-size="10.00">_Baro.cpp</text>
</a>
</g>
</g>
<!-- Node14&#45;&gt;Node17 -->
<g id="edge16_Node000014_Node000017" class="edge">
<title>Node14&#45;&gt;Node17</title>
<g id="a_edge16_Node000014_Node000017"><a xlink:title=" ">
<path fill="none" stroke="#63b8ff" d="M1717.77,-171.53C1605.95,-167.29 1374.06,-154.53 1181.5,-118 1173.88,-116.55 1165.89,-114.61 1158.18,-112.51"/>
<polygon fill="#63b8ff" stroke="#63b8ff" points="1717.76,-175.03 1727.88,-171.9 1718.02,-168.03 1717.76,-175.03"/>
</a>
</g>
</g>
<!-- Node18 -->
<g id="Node000018" class="node">
<title>Node18</title>
<g id="a_Node000018"><a xlink:href="Compass__learn_8cpp.html" target="_top" xlink:title=" ">
<polygon fill="white" stroke="#666666" points="1312.5,-112.5 1190.5,-112.5 1190.5,-82.5 1312.5,-82.5 1312.5,-112.5"/>
<text text-anchor="start" x="1198.5" y="-100.5" font-family="Helvetica,sans-Serif" font-size="10.00">libraries/AP_Compass</text>
<text text-anchor="middle" x="1251.5" y="-89.5" font-family="Helvetica,sans-Serif" font-size="10.00">/Compass_learn.cpp</text>
</a>
</g>
</g>
<!-- Node14&#45;&gt;Node18 -->
<g id="edge17_Node000014_Node000018" class="edge">
<title>Node14&#45;&gt;Node18</title>
<g id="a_edge17_Node000014_Node000018"><a xlink:title=" ">
<path fill="none" stroke="#63b8ff" d="M1717.64,-168.7C1627.18,-161.48 1461.05,-145.63 1321.5,-118 1313.83,-116.48 1305.77,-114.55 1297.95,-112.51"/>
<polygon fill="#63b8ff" stroke="#63b8ff" points="1717.52,-172.2 1727.76,-169.5 1718.06,-165.23 1717.52,-172.2"/>
</a>
</g>
</g>
<!-- Node19 -->
<g id="Node000019" class="node">
<title>Node19</title>
<g id="a_Node000019"><a xlink:href="AP__DAL_8cpp.html" target="_top" xlink:title=" ">
<polygon fill="white" stroke="#666666" points="1444,-112.5 1331,-112.5 1331,-82.5 1444,-82.5 1444,-112.5"/>
<text text-anchor="start" x="1339" y="-100.5" font-family="Helvetica,sans-Serif" font-size="10.00">libraries/AP_DAL/AP</text>
<text text-anchor="middle" x="1387.5" y="-89.5" font-family="Helvetica,sans-Serif" font-size="10.00">_DAL.cpp</text>
</a>
</g>
</g>
<!-- Node14&#45;&gt;Node19 -->
<g id="edge18_Node000014_Node000019" class="edge">
<title>Node14&#45;&gt;Node19</title>
<g id="a_edge18_Node000014_Node000019"><a xlink:title=" ">
<path fill="none" stroke="#63b8ff" d="M1717.92,-164.88C1650.54,-155.57 1543.59,-139.19 1452.5,-118 1445.73,-116.43 1438.63,-114.54 1431.71,-112.57"/>
<polygon fill="#63b8ff" stroke="#63b8ff" points="1717.59,-168.37 1727.97,-166.26 1718.54,-161.44 1717.59,-168.37"/>
</a>
</g>
</g>
<!-- Node20 -->
<g id="Node000020" class="node">
<title>Node20</title>
<g id="a_Node000020"><a xlink:href="AP__Frsky__MAVliteMsgHandler_8cpp.html" target="_top" xlink:title=" ">
<polygon fill="white" stroke="#666666" points="1623,-118 1462,-118 1462,-77 1623,-77 1623,-118"/>
<text text-anchor="start" x="1470" y="-106" font-family="Helvetica,sans-Serif" font-size="10.00">libraries/AP_Frsky</text>
<text text-anchor="start" x="1470" y="-95" font-family="Helvetica,sans-Serif" font-size="10.00">_Telem/AP_Frsky_MAVliteMsg</text>
<text text-anchor="middle" x="1542.5" y="-84" font-family="Helvetica,sans-Serif" font-size="10.00">Handler.cpp</text>
</a>
</g>
</g>
<!-- Node14&#45;&gt;Node20 -->
<g id="edge19_Node000014_Node000020" class="edge">
<title>Node14&#45;&gt;Node20</title>
<g id="a_edge19_Node000014_Node000020"><a xlink:title=" ">
<path fill="none" stroke="#63b8ff" d="M1729.69,-156.51C1692.87,-145.1 1644.23,-130.03 1605.77,-118.11"/>
<polygon fill="#63b8ff" stroke="#63b8ff" points="1728.68,-159.86 1739.27,-159.48 1730.75,-153.18 1728.68,-159.86"/>
</a>
</g>
</g>
<!-- Node21 -->
<g id="Node000021" class="node">
<title>Node21</title>
<g id="a_Node000021"><a xlink:href="AP__Frsky__SPort__Passthrough_8cpp.html" target="_top" xlink:title=" ">
<polygon fill="white" stroke="#666666" points="1769.5,-118 1641.5,-118 1641.5,-77 1769.5,-77 1769.5,-118"/>
<text text-anchor="start" x="1649.5" y="-106" font-family="Helvetica,sans-Serif" font-size="10.00">libraries/AP_Frsky</text>
<text text-anchor="start" x="1649.5" y="-95" font-family="Helvetica,sans-Serif" font-size="10.00">_Telem/AP_Frsky_SPort</text>
<text text-anchor="middle" x="1705.5" y="-84" font-family="Helvetica,sans-Serif" font-size="10.00">_Passthrough.cpp</text>
</a>
</g>
</g>
<!-- Node14&#45;&gt;Node21 -->
<g id="edge20_Node000014_Node000021" class="edge">
<title>Node14&#45;&gt;Node21</title>
<g id="a_edge20_Node000014_Node000021"><a xlink:title=" ">
<path fill="none" stroke="#63b8ff" d="M1762.26,-152.38C1750.96,-141.66 1737.33,-128.72 1726.25,-118.2"/>
<polygon fill="#63b8ff" stroke="#63b8ff" points="1759.98,-155.05 1769.64,-159.39 1764.8,-149.97 1759.98,-155.05"/>
</a>
</g>
</g>
<!-- Node22 -->
<g id="Node000022" class="node">
<title>Node22</title>
<g id="a_Node000022"><a xlink:href="AP__Frsky__Telem_8cpp.html" target="_top" xlink:title=" ">
<polygon fill="white" stroke="#666666" points="1939.5,-112.5 1787.5,-112.5 1787.5,-82.5 1939.5,-82.5 1939.5,-112.5"/>
<text text-anchor="start" x="1795.5" y="-100.5" font-family="Helvetica,sans-Serif" font-size="10.00">libraries/AP_Frsky</text>
<text text-anchor="middle" x="1863.5" y="-89.5" font-family="Helvetica,sans-Serif" font-size="10.00">_Telem/AP_Frsky_Telem.cpp</text>
</a>
</g>
</g>
<!-- Node14&#45;&gt;Node22 -->
<g id="edge21_Node000014_Node000022" class="edge">
<title>Node14&#45;&gt;Node22</title>
<g id="a_edge21_Node000014_Node000022"><a xlink:title=" ">
<path fill="none" stroke="#63b8ff" d="M1806.81,-152.32C1820.23,-139.58 1836.92,-123.74 1848.71,-112.54"/>
<polygon fill="#63b8ff" stroke="#63b8ff" points="1804.2,-149.97 1799.36,-159.39 1809.02,-155.05 1804.2,-149.97"/>
</a>
</g>
</g>
<!-- Node23 -->
<g id="Node000023" class="node">
<title>Node23</title>
<g id="a_Node000023"><a xlink:href="ReplayGyroFFT_8cpp.html" target="_top" xlink:title=" ">
<polygon fill="white" stroke="#666666" points="2103,-118 1958,-118 1958,-77 2103,-77 2103,-118"/>
<text text-anchor="start" x="1966" y="-106" font-family="Helvetica,sans-Serif" font-size="10.00">libraries/AP_GyroFFT</text>
<text text-anchor="start" x="1966" y="-95" font-family="Helvetica,sans-Serif" font-size="10.00">/examples/ReplayGyroFFT</text>
<text text-anchor="middle" x="2030.5" y="-84" font-family="Helvetica,sans-Serif" font-size="10.00">/ReplayGyroFFT.cpp</text>
</a>
</g>
</g>
<!-- Node14&#45;&gt;Node23 -->
<g id="edge22_Node000014_Node000023" class="edge">
<title>Node14&#45;&gt;Node23</title>
<g id="a_edge22_Node000014_Node000023"><a xlink:title=" ">
<path fill="none" stroke="#63b8ff" d="M1840.21,-156.51C1877.64,-145.1 1927.08,-130.03 1966.19,-118.11"/>
<polygon fill="#63b8ff" stroke="#63b8ff" points="1839.03,-153.22 1830.48,-159.48 1841.07,-159.91 1839.03,-153.22"/>
</a>
</g>
</g>
<!-- Node24 -->
<g id="Node000024" class="node">
<title>Node24</title>
<g id="a_Node000024"><a xlink:href="nmea__output_8cpp.html" target="_top" xlink:title=" ">
<polygon fill="white" stroke="#666666" points="2290,-118 2121,-118 2121,-77 2290,-77 2290,-118"/>
<text text-anchor="start" x="2129" y="-106" font-family="Helvetica,sans-Serif" font-size="10.00">libraries/AP_NMEA_Output</text>
<text text-anchor="start" x="2129" y="-95" font-family="Helvetica,sans-Serif" font-size="10.00">/examples/NMEA_Output/nmea</text>
<text text-anchor="middle" x="2205.5" y="-84" font-family="Helvetica,sans-Serif" font-size="10.00">_output.cpp</text>
</a>
</g>
</g>
<!-- Node14&#45;&gt;Node24 -->
<g id="edge23_Node000014_Node000024" class="edge">
<title>Node14&#45;&gt;Node24</title>
<g id="a_edge23_Node000014_Node000024"><a xlink:title=" ">
<path fill="none" stroke="#63b8ff" d="M1851.12,-163.01C1917.49,-152.38 2022.23,-135.09 2112.5,-118 2115.26,-117.48 2118.06,-116.94 2120.88,-116.39"/>
<polygon fill="#63b8ff" stroke="#63b8ff" points="1850.53,-159.56 1841.21,-164.59 1851.64,-166.47 1850.53,-159.56"/>
</a>
</g>
</g>
<!-- Node25 -->
<g id="Node000025" class="node">
<title>Node25</title>
<g id="a_Node000025"><a xlink:href="AP__OSD__Screen_8cpp.html" target="_top" xlink:title=" ">
<polygon fill="white" stroke="#666666" points="2422.5,-112.5 2308.5,-112.5 2308.5,-82.5 2422.5,-82.5 2422.5,-112.5"/>
<text text-anchor="start" x="2316.5" y="-100.5" font-family="Helvetica,sans-Serif" font-size="10.00">libraries/AP_OSD/AP</text>
<text text-anchor="middle" x="2365.5" y="-89.5" font-family="Helvetica,sans-Serif" font-size="10.00">_OSD_Screen.cpp</text>
</a>
</g>
</g>
<!-- Node14&#45;&gt;Node25 -->
<g id="edge24_Node000014_Node000025" class="edge">
<title>Node14&#45;&gt;Node25</title>
<g id="a_edge24_Node000014_Node000025"><a xlink:title=" ">
<path fill="none" stroke="#63b8ff" d="M1851.15,-170.16C1949.87,-164.34 2140.45,-149.8 2299.5,-118 2306.88,-116.52 2314.63,-114.59 2322.11,-112.52"/>
<polygon fill="#63b8ff" stroke="#63b8ff" points="1850.8,-166.67 1841.02,-170.74 1851.2,-173.66 1850.8,-166.67"/>
</a>
</g>
</g>
<!-- Node26 -->
<g id="Node000026" class="node">
<title>Node26</title>
<g id="a_Node000026"><a xlink:href="AP__Scheduler_8cpp.html" target="_top" xlink:title=" ">
<polygon fill="white" stroke="#666666" points="2566,-112.5 2441,-112.5 2441,-82.5 2566,-82.5 2566,-112.5"/>
<text text-anchor="start" x="2449" y="-100.5" font-family="Helvetica,sans-Serif" font-size="10.00">libraries/AP_Scheduler</text>
<text text-anchor="middle" x="2503.5" y="-89.5" font-family="Helvetica,sans-Serif" font-size="10.00">/AP_Scheduler.cpp</text>
</a>
</g>
</g>
<!-- Node14&#45;&gt;Node26 -->
<g id="edge25_Node000014_Node000026" class="edge">
<title>Node14&#45;&gt;Node26</title>
<g id="a_edge25_Node000014_Node000026"><a xlink:title=" ">
<path fill="none" stroke="#63b8ff" d="M1851.51,-171.7C1969.55,-167.65 2221.9,-155.07 2431.5,-118 2439.66,-116.56 2448.24,-114.62 2456.52,-112.52"/>
<polygon fill="#63b8ff" stroke="#63b8ff" points="1851.07,-168.21 1841.19,-172.04 1851.31,-175.21 1851.07,-168.21"/>
</a>
</g>
</g>
<!-- Node27 -->
<g id="Node000027" class="node">
<title>Node27</title>
<g id="a_Node000027"><a xlink:href="AP__Vehicle_8cpp.html" target="_top" xlink:title=" ">
<polygon fill="white" stroke="#666666" points="2697,-112.5 2584,-112.5 2584,-82.5 2697,-82.5 2697,-112.5"/>
<text text-anchor="start" x="2592" y="-100.5" font-family="Helvetica,sans-Serif" font-size="10.00">libraries/AP_Vehicle</text>
<text text-anchor="middle" x="2640.5" y="-89.5" font-family="Helvetica,sans-Serif" font-size="10.00">/AP_Vehicle.cpp</text>
</a>
</g>
</g>
<!-- Node14&#45;&gt;Node27 -->
<g id="edge26_Node000014_Node000027" class="edge">
<title>Node14&#45;&gt;Node27</title>
<g id="a_edge26_Node000014_Node000027"><a xlink:title=" ">
<path fill="none" stroke="#63b8ff" d="M1851.47,-173.77C1988.55,-173.25 2310.54,-166.42 2575.5,-118 2583.03,-116.62 2590.93,-114.69 2598.52,-112.57"/>
<polygon fill="#63b8ff" stroke="#63b8ff" points="1851.13,-170.27 1841.14,-173.8 1851.15,-177.27 1851.13,-170.27"/>
</a>
</g>
</g>
<!-- Node28 -->
<g id="Node000028" class="node">
<title>Node28</title>
<g id="a_Node000028"><a xlink:href="Parameters_8cpp.html" target="_top" xlink:title=" ">
<polygon fill="white" stroke="#666666" points="2828,-112.5 2715,-112.5 2715,-82.5 2828,-82.5 2828,-112.5"/>
<text text-anchor="start" x="2723" y="-100.5" font-family="Helvetica,sans-Serif" font-size="10.00">libraries/AP_Vehicle</text>
<text text-anchor="middle" x="2771.5" y="-89.5" font-family="Helvetica,sans-Serif" font-size="10.00">/Parameters.cpp</text>
</a>
</g>
</g>
<!-- Node14&#45;&gt;Node28 -->
<g id="edge27_Node000014_Node000028" class="edge">
<title>Node14&#45;&gt;Node28</title>
<g id="a_edge27_Node000014_Node000028"><a xlink:title=" ">
<path fill="none" stroke="#63b8ff" d="M1851.12,-171.49C2034.14,-165.65 2541.95,-147.23 2706.5,-118 2714.16,-116.64 2722.18,-114.69 2729.89,-112.53"/>
<polygon fill="#63b8ff" stroke="#63b8ff" points="1850.98,-167.99 1841.09,-171.81 1851.2,-174.99 1850.98,-167.99"/>
</a>
</g>
</g>
<!-- Node29 -->
<g id="Node000029" class="node">
<title>Node29</title>
<g id="a_Node000029"><a xlink:href="GCS__Common_8cpp.html" target="_top" xlink:title=" ">
<polygon fill="white" stroke="#666666" points="2973,-112.5 2846,-112.5 2846,-82.5 2973,-82.5 2973,-112.5"/>
<text text-anchor="start" x="2854" y="-100.5" font-family="Helvetica,sans-Serif" font-size="10.00">libraries/GCS_MAVLink</text>
<text text-anchor="middle" x="2909.5" y="-89.5" font-family="Helvetica,sans-Serif" font-size="10.00">/GCS_Common.cpp</text>
</a>
</g>
</g>
<!-- Node14&#45;&gt;Node29 -->
<g id="edge28_Node000014_Node000029" class="edge">
<title>Node14&#45;&gt;Node29</title>
<g id="a_edge28_Node000014_Node000029"><a xlink:title=" ">
<path fill="none" stroke="#63b8ff" d="M1851.36,-171.83C2051.9,-166.52 2646.27,-148.58 2837.5,-118 2845.94,-116.65 2854.81,-114.7 2863.34,-112.55"/>
<polygon fill="#63b8ff" stroke="#63b8ff" points="1851.16,-168.33 1841.26,-172.09 1851.35,-175.33 1851.16,-168.33"/>
</a>
</g>
</g>
</g>
</svg>

<g id="navigator" transform="translate(0 0)" fill="#404254">
  <rect fill="#f2f5e9" fill-opacity="0.5" stroke="#606060" stroke-width=".5" x="0" y="0" width="60" height="60"/>
  <use id="zoomplus" xlink:href="#zoomPlus" x="17" y="9" onmousedown="handleZoom(evt,'in')"/>
  <use id="zoomminus" xlink:href="#zoomMin" x="42" y="9" onmousedown="handleZoom(evt,'out')"/>
  <use id="reset" xlink:href="#resetDef" x="30" y="36" onmousedown="handleReset()"/>
   <use id="arrowup" xlink:href="#arrowUp" x="0" y="0" onmousedown="handlePan(0,-1)"/>
  <use id="arrowright" xlink:href="#arrowRight" x="0" y="0" onmousedown="handlePan(1,0)"/>
  <use id="arrowdown" xlink:href="#arrowDown" x="0" y="0" onmousedown="handlePan(0,1)"/>
  <use id="arrowleft" xlink:href="#arrowLeft" x="0" y="0" onmousedown="handlePan(-1,0)"/>
</g>
<svg viewBox="0 0 15 15" width="100%" height="30px" preserveAspectRatio="xMaxYMin meet">
 <g id="arrow_out" transform="scale(0.3 0.3)">
  <a xlink:href="AP__TemperatureSensor_8h__dep__incl_org.svg" target="_base">
   <rect id="button" ry="5" rx="5" y="6" x="6" height="38" width="38"
        fill="#f2f5e9" fill-opacity="0.5" stroke="#606060" stroke-width="1.0"/>
   <path id="arrow"
     d="M 11.500037,31.436501 C 11.940474,20.09759 22.043105,11.32322 32.158766,21.979434 L 37.068811,17.246167 C 37.068811,17.246167 37.088388,32 37.088388,32 L 22.160133,31.978069 C 22.160133,31.978069 26.997745,27.140456 26.997745,27.140456 C 18.528582,18.264221 13.291696,25.230495 11.500037,31.436501 z"
     style="fill:#404040;"/>
  </a>
 </g>
</svg>

<style type='text/css'>
<![CDATA[
[data-mouse-over-selected='false'] { opacity: 0.7; }
[data-mouse-over-selected='true']  { opacity: 1.0; }
]]>
</style>
<script type="application/ecmascript"><![CDATA[
document.addEventListener('DOMContentLoaded', (event) => {
  highlightEdges();
  highlightAdjacentNodes();
});
]]></script>
</svg>
