<?xml version="1.0" encoding="UTF-8" standalone="no"?>
<!DOCTYPE svg PUBLIC "-//W3C//DTD SVG 1.1//EN"
 "http://www.w3.org/Graphics/SVG/1.1/DTD/svg11.dtd">
<!-- Generated by graphviz version 2.43.0 (0)
 -->
<!-- Title: BM_GeodesicGridSections Pages: 1 -->
<svg width="906pt" height="162pt"
 viewBox="0.00 0.00 906.00 161.50" xmlns="http://www.w3.org/2000/svg" xmlns:xlink="http://www.w3.org/1999/xlink">
<g id="graph0" class="graph" transform="scale(1 1) rotate(0) translate(4 157.5)">
<title>BM_GeodesicGridSections</title>
<!-- Node1 -->
<g id="Node000001" class="node">
<title>Node1</title>
<g id="a_Node000001"><a xlink:title=" ">
<polygon fill="#999999" stroke="#666666" points="144,-107 0,-107 0,-88 144,-88 144,-107"/>
<text text-anchor="middle" x="72" y="-95" font-family="Helvetica,sans-Serif" font-size="10.00">BM_GeodesicGridSections</text>
</a>
</g>
</g>
<!-- Node2 -->
<g id="Node000002" class="node">
<title>Node2</title>
<g id="a_Node000002"><a xlink:href="structAP__GeodesicGrid.html#a04a68b6581a66dc78ba25c8331d236a4" target="_top" xlink:title=" ">
<polygon fill="white" stroke="#666666" points="321,-126 180,-126 180,-107 321,-107 321,-126"/>
<text text-anchor="middle" x="250.5" y="-114" font-family="Helvetica,sans-Serif" font-size="10.00">AP_GeodesicGrid::section</text>
</a>
</g>
</g>
<!-- Node1&#45;&gt;Node2 -->
<g id="edge1_Node000001_Node000002" class="edge">
<title>Node1&#45;&gt;Node2</title>
<g id="a_edge1_Node000001_Node000002"><a xlink:title=" ">
<path fill="none" stroke="#63b8ff" d="M144.03,-105.15C152.49,-106.06 161.18,-106.99 169.76,-107.92"/>
<polygon fill="#63b8ff" stroke="#63b8ff" points="169.45,-111.4 179.77,-108.99 170.2,-104.44 169.45,-111.4"/>
</a>
</g>
</g>
<!-- Node9 -->
<g id="Node000009" class="node">
<title>Node9</title>
<g id="a_Node000009"><a xlink:href="benchmark__geodesic__grid_8cpp.html#a1700493a3b872d3bdc794ab4baa7f6c5" target="_top" xlink:title=" ">
<polygon fill="white" stroke="#666666" points="298,-89 203,-89 203,-70 298,-70 298,-89"/>
<text text-anchor="middle" x="250.5" y="-77" font-family="Helvetica,sans-Serif" font-size="10.00">section_triangle</text>
</a>
</g>
</g>
<!-- Node1&#45;&gt;Node9 -->
<g id="edge11_Node000001_Node000009" class="edge">
<title>Node1&#45;&gt;Node9</title>
<g id="a_edge11_Node000001_Node000009"><a xlink:title=" ">
<path fill="none" stroke="#63b8ff" d="M144.03,-90.26C160.29,-88.6 177.37,-86.86 192.93,-85.27"/>
<polygon fill="#63b8ff" stroke="#63b8ff" points="193.32,-88.75 202.92,-84.25 192.61,-81.78 193.32,-88.75"/>
</a>
</g>
</g>
<!-- Node3 -->
<g id="Node000003" class="node">
<title>Node3</title>
<g id="a_Node000003"><a xlink:href="structAP__GeodesicGrid.html#a501aa54c7e9f5cb28685f44058994584" target="_top" xlink:title=" ">
<polygon fill="white" stroke="#666666" points="708,-153.5 542,-153.5 542,-123.5 708,-123.5 708,-153.5"/>
<text text-anchor="start" x="550" y="-141.5" font-family="Helvetica,sans-Serif" font-size="10.00">AP_GeodesicGrid::_subtriangle</text>
<text text-anchor="middle" x="625" y="-130.5" font-family="Helvetica,sans-Serif" font-size="10.00">_index</text>
</a>
</g>
</g>
<!-- Node2&#45;&gt;Node3 -->
<g id="edge2_Node000002_Node000003" class="edge">
<title>Node2&#45;&gt;Node3</title>
<g id="a_edge2_Node000002_Node000003"><a xlink:title=" ">
<path fill="none" stroke="#63b8ff" d="M321.13,-120.61C380.49,-124.12 466.31,-129.19 531.45,-133.03"/>
<polygon fill="#63b8ff" stroke="#63b8ff" points="531.53,-136.54 541.72,-133.64 531.94,-129.56 531.53,-136.54"/>
</a>
</g>
</g>
<!-- Node5 -->
<g id="Node000005" class="node">
<title>Node5</title>
<g id="a_Node000005"><a xlink:href="structAP__GeodesicGrid.html#a921673acc94e62b37884907d79b44051" target="_top" xlink:title=" ">
<polygon fill="white" stroke="#666666" points="506,-110.5 357,-110.5 357,-80.5 506,-80.5 506,-110.5"/>
<text text-anchor="start" x="365" y="-98.5" font-family="Helvetica,sans-Serif" font-size="10.00">AP_GeodesicGrid::_triangle</text>
<text text-anchor="middle" x="431.5" y="-87.5" font-family="Helvetica,sans-Serif" font-size="10.00">_index</text>
</a>
</g>
</g>
<!-- Node2&#45;&gt;Node5 -->
<g id="edge5_Node000002_Node000005" class="edge">
<title>Node2&#45;&gt;Node5</title>
<g id="a_edge5_Node000002_Node000005"><a xlink:title=" ">
<path fill="none" stroke="#63b8ff" d="M321.22,-108.32C329.61,-107.34 338.26,-106.32 346.82,-105.32"/>
<polygon fill="#63b8ff" stroke="#63b8ff" points="347.31,-108.78 356.83,-104.14 346.49,-101.83 347.31,-108.78"/>
</a>
</g>
</g>
<!-- Node4 -->
<g id="Node000004" class="node">
<title>Node4</title>
<g id="a_Node000004"><a xlink:href="AP__Math_8h.html#a2a12cce483e9b870da70d30406d82c60" target="_top" xlink:title=" ">
<polygon fill="white" stroke="#666666" points="846.5,-105 795.5,-105 795.5,-86 846.5,-86 846.5,-105"/>
<text text-anchor="middle" x="821" y="-93" font-family="Helvetica,sans-Serif" font-size="10.00">is_zero</text>
</a>
</g>
</g>
<!-- Node3&#45;&gt;Node4 -->
<g id="edge3_Node000003_Node000004" class="edge">
<title>Node3&#45;&gt;Node4</title>
<g id="a_edge3_Node000003_Node000004"><a xlink:title=" ">
<path fill="none" stroke="#63b8ff" d="M693.85,-123.46C724.77,-116.61 760.05,-108.79 785.43,-103.16"/>
<polygon fill="#63b8ff" stroke="#63b8ff" points="786.31,-106.55 795.31,-100.97 784.79,-99.72 786.31,-106.55"/>
</a>
</g>
</g>
<!-- Node4&#45;&gt;Node4 -->
<g id="edge4_Node000004_Node000004" class="edge">
<title>Node4&#45;&gt;Node4</title>
<g id="a_edge4_Node000004_Node000004"><a xlink:title=" ">
<path fill="none" stroke="#63b8ff" d="M795.24,-102.82C774.52,-112.03 783.1,-123 821,-123 851.79,-123 863.23,-115.76 855.33,-108.1"/>
<polygon fill="#63b8ff" stroke="#63b8ff" points="857.11,-105.09 846.76,-102.82 853.43,-111.05 857.11,-105.09"/>
</a>
</g>
</g>
<!-- Node5&#45;&gt;Node4 -->
<g id="edge10_Node000005_Node000004" class="edge">
<title>Node5&#45;&gt;Node4</title>
<g id="a_edge10_Node000005_Node000004"><a xlink:title=" ">
<path fill="none" stroke="#63b8ff" d="M506.3,-95.5C589.95,-95.5 722.79,-95.5 785.31,-95.5"/>
<polygon fill="#63b8ff" stroke="#63b8ff" points="785.43,-99 795.43,-95.5 785.43,-92 785.43,-99"/>
</a>
</g>
</g>
<!-- Node6 -->
<g id="Node000006" class="node">
<title>Node6</title>
<g id="a_Node000006"><a xlink:href="structAP__GeodesicGrid.html#a4bd78a9f6ebb48ca1e67d6580a7fe86e" target="_top" xlink:title=" ">
<polygon fill="white" stroke="#666666" points="692,-67.5 558,-67.5 558,-37.5 692,-37.5 692,-67.5"/>
<text text-anchor="start" x="566" y="-55.5" font-family="Helvetica,sans-Serif" font-size="10.00">AP_GeodesicGrid::_from</text>
<text text-anchor="middle" x="625" y="-44.5" font-family="Helvetica,sans-Serif" font-size="10.00">_neighbor_umbrella</text>
</a>
</g>
</g>
<!-- Node5&#45;&gt;Node6 -->
<g id="edge6_Node000005_Node000006" class="edge">
<title>Node5&#45;&gt;Node6</title>
<g id="a_edge6_Node000005_Node000006"><a xlink:title=" ">
<path fill="none" stroke="#63b8ff" d="M499.48,-80.46C515.11,-76.95 531.87,-73.19 547.86,-69.6"/>
<polygon fill="#63b8ff" stroke="#63b8ff" points="548.72,-72.99 557.71,-67.39 547.18,-66.16 548.72,-72.99"/>
</a>
</g>
</g>
<!-- Node6&#45;&gt;Node4 -->
<g id="edge9_Node000006_Node000004" class="edge">
<title>Node6&#45;&gt;Node4</title>
<g id="a_edge9_Node000006_Node000004"><a xlink:title=" ">
<path fill="none" stroke="#63b8ff" d="M692.22,-67.18C723.48,-74.11 759.49,-82.09 785.3,-87.81"/>
<polygon fill="#63b8ff" stroke="#63b8ff" points="784.83,-91.29 795.35,-90.04 786.35,-84.46 784.83,-91.29"/>
</a>
</g>
</g>
<!-- Node7 -->
<g id="Node000007" class="node">
<title>Node7</title>
<g id="a_Node000007"><a xlink:href="structAP__GeodesicGrid.html#ad239aec9f7cd77fc6a6755584743fe0b" target="_top" xlink:title=" ">
<polygon fill="white" stroke="#666666" points="898,-67.5 744,-67.5 744,-37.5 898,-37.5 898,-67.5"/>
<text text-anchor="start" x="752" y="-55.5" font-family="Helvetica,sans-Serif" font-size="10.00">AP_GeodesicGrid::_neighbor</text>
<text text-anchor="middle" x="821" y="-44.5" font-family="Helvetica,sans-Serif" font-size="10.00">_umbrella_component</text>
</a>
</g>
</g>
<!-- Node6&#45;&gt;Node7 -->
<g id="edge7_Node000006_Node000007" class="edge">
<title>Node6&#45;&gt;Node7</title>
<g id="a_edge7_Node000006_Node000007"><a xlink:title=" ">
<path fill="none" stroke="#63b8ff" d="M692.22,-52.5C705.56,-52.5 719.76,-52.5 733.67,-52.5"/>
<polygon fill="#63b8ff" stroke="#63b8ff" points="733.73,-56 743.73,-52.5 733.73,-49 733.73,-56"/>
</a>
</g>
</g>
<!-- Node8 -->
<g id="Node000008" class="node">
<title>Node8</title>
<g id="a_Node000008"><a xlink:href="AP__Math_8cpp.html#a74db690fa0d764d7e0900a9c97f629b2" target="_top" xlink:title=" ">
<polygon fill="white" stroke="#666666" points="849.5,-19 792.5,-19 792.5,0 849.5,0 849.5,-19"/>
<text text-anchor="middle" x="821" y="-7" font-family="Helvetica,sans-Serif" font-size="10.00">is_equal</text>
</a>
</g>
</g>
<!-- Node6&#45;&gt;Node8 -->
<g id="edge8_Node000006_Node000008" class="edge">
<title>Node6&#45;&gt;Node8</title>
<g id="a_edge8_Node000006_Node000008"><a xlink:title=" ">
<path fill="none" stroke="#63b8ff" d="M692.22,-37.82C722.32,-31.15 756.83,-23.5 782.4,-17.84"/>
<polygon fill="#63b8ff" stroke="#63b8ff" points="783.41,-21.19 792.42,-15.61 781.9,-14.36 783.41,-21.19"/>
</a>
</g>
</g>
</g>
</svg>
