<?xml version="1.0" encoding="UTF-8" standalone="no"?>
<!DOCTYPE svg PUBLIC "-//W3C//DTD SVG 1.1//EN"
 "http://www.w3.org/Graphics/SVG/1.1/DTD/svg11.dtd">
<!-- Generated by graphviz version 2.43.0 (0)
 -->
<!-- Title: bouncebuffer_setup_write Pages: 1 -->
<svg width="408pt" height="175pt"
 viewBox="0.00 0.00 408.00 175.00" xmlns="http://www.w3.org/2000/svg" xmlns:xlink="http://www.w3.org/1999/xlink">

<svg id="main" version="1.1" xmlns="http://www.w3.org/2000/svg" xmlns:xlink="http://www.w3.org/1999/xlink" xml:space="preserve" onload="init(evt)">
<style type="text/css"><![CDATA[
.node, .edge {opacity: 0.7;}
.node.selected, .edge.selected {opacity: 1;}
.edge:hover path { stroke: red; }
.edge:hover polygon { stroke: red; fill: red; }
]]></style>
<script type="application/ecmascript" xlink:href="svg.min.js"/>
<svg id="graph" class="graph">
<g id="graph0" class="graph" transform="scale(1 1) rotate(0) translate(4 171)">
<title>bouncebuffer_setup_write</title>
<!-- Node1 -->
<g id="Node000001" class="node">
<title>Node1</title>
<g id="a_Node000001"><a xlink:title=" ">
<polygon fill="#999999" stroke="#666666" points="113,-98.5 0,-98.5 0,-68.5 113,-68.5 113,-98.5"/>
<text text-anchor="start" x="8" y="-86.5" font-family="Helvetica,sans-Serif" font-size="10.00">bouncebuffer_setup</text>
<text text-anchor="middle" x="56.5" y="-75.5" font-family="Helvetica,sans-Serif" font-size="10.00">_write</text>
</a>
</g>
</g>
<!-- Node2 -->
<g id="Node000002" class="node">
<title>Node2</title>
<g id="a_Node000002"><a xlink:href="malloc_8c.html#afbedc913aa4651b3c3b4b3aecd9b4711" target="_top" xlink:title=" ">
<polygon fill="white" stroke="#666666" points="235.5,-167 199.5,-167 199.5,-148 235.5,-148 235.5,-167"/>
<text text-anchor="middle" x="217.5" y="-155" font-family="Helvetica,sans-Serif" font-size="10.00">free</text>
</a>
</g>
</g>
<!-- Node1&#45;&gt;Node2 -->
<g id="edge1_Node000001_Node000002" class="edge">
<title>Node1&#45;&gt;Node2</title>
<g id="a_edge1_Node000001_Node000002"><a xlink:title=" ">
<path fill="none" stroke="#63b8ff" d="M78.36,-98.69C96.32,-111.16 123.32,-128.49 149,-139.5 161.89,-145.02 176.91,-149.23 189.5,-152.18"/>
<polygon fill="#63b8ff" stroke="#63b8ff" points="188.89,-155.63 199.4,-154.37 190.39,-148.8 188.89,-155.63"/>
</a>
</g>
</g>
<!-- Node3 -->
<g id="Node000003" class="node">
<title>Node3</title>
<g id="a_Node000003"><a xlink:href="malloc_8c.html#a47cde9cd130ae9ff7ff19ae70e5f0bd2" target="_top" xlink:title=" ">
<polygon fill="white" stroke="#666666" points="267.5,-130 167.5,-130 167.5,-111 267.5,-111 267.5,-130"/>
<text text-anchor="middle" x="217.5" y="-118" font-family="Helvetica,sans-Serif" font-size="10.00">malloc_axi_sram</text>
</a>
</g>
</g>
<!-- Node1&#45;&gt;Node3 -->
<g id="edge2_Node000001_Node000003" class="edge">
<title>Node1&#45;&gt;Node3</title>
<g id="a_edge2_Node000001_Node000003"><a xlink:title=" ">
<path fill="none" stroke="#63b8ff" d="M113.11,-96.44C130.02,-100.38 148.52,-104.68 165.13,-108.55"/>
<polygon fill="#63b8ff" stroke="#63b8ff" points="164.67,-112.03 175.2,-110.89 166.26,-105.21 164.67,-112.03"/>
</a>
</g>
</g>
<!-- Node5 -->
<g id="Node000005" class="node">
<title>Node5</title>
<g id="a_Node000005"><a xlink:href="malloc_8c.html#a1d12ea70c4732cb2e46719c8ffa5d807" target="_top" xlink:title=" ">
<polygon fill="white" stroke="#666666" points="256,-93 179,-93 179,-74 256,-74 256,-93"/>
<text text-anchor="middle" x="217.5" y="-81" font-family="Helvetica,sans-Serif" font-size="10.00">malloc_dma</text>
</a>
</g>
</g>
<!-- Node1&#45;&gt;Node5 -->
<g id="edge4_Node000001_Node000005" class="edge">
<title>Node1&#45;&gt;Node5</title>
<g id="a_edge4_Node000001_Node000005"><a xlink:title=" ">
<path fill="none" stroke="#63b8ff" d="M113.11,-83.5C131.06,-83.5 150.79,-83.5 168.17,-83.5"/>
<polygon fill="#63b8ff" stroke="#63b8ff" points="168.65,-87 178.65,-83.5 168.65,-80 168.65,-87"/>
</a>
</g>
</g>
<!-- Node6 -->
<g id="Node000006" class="node">
<title>Node6</title>
<g id="a_Node000006"><a xlink:href="malloc_8c.html#a22ab9dc2f1825ad81658a49cf7aca4c7" target="_top" xlink:title=" ">
<polygon fill="white" stroke="#666666" points="272,-56 163,-56 163,-37 272,-37 272,-56"/>
<text text-anchor="middle" x="217.5" y="-44" font-family="Helvetica,sans-Serif" font-size="10.00">mem_is_dma_safe</text>
</a>
</g>
</g>
<!-- Node1&#45;&gt;Node6 -->
<g id="edge6_Node000001_Node000006" class="edge">
<title>Node1&#45;&gt;Node6</title>
<g id="a_edge6_Node000001_Node000006"><a xlink:title=" ">
<path fill="none" stroke="#63b8ff" d="M113.11,-70.56C130.02,-66.62 148.52,-62.32 165.13,-58.45"/>
<polygon fill="#63b8ff" stroke="#63b8ff" points="166.26,-61.79 175.2,-56.11 164.67,-54.97 166.26,-61.79"/>
</a>
</g>
</g>
<!-- Node7 -->
<g id="Node000007" class="node">
<title>Node7</title>
<g id="a_Node000007"><a xlink:href="stm32__util_8c.html#a7e653bccc1d4ab362d62ef6c67a53d7d" target="_top" xlink:title=" ">
<polygon fill="white" stroke="#666666" points="286,-19 149,-19 149,0 286,0 286,-19"/>
<text text-anchor="middle" x="217.5" y="-7" font-family="Helvetica,sans-Serif" font-size="10.00">stm32_cacheBufferFlush</text>
</a>
</g>
</g>
<!-- Node1&#45;&gt;Node7 -->
<g id="edge7_Node000001_Node000007" class="edge">
<title>Node1&#45;&gt;Node7</title>
<g id="a_edge7_Node000001_Node000007"><a xlink:title=" ">
<path fill="none" stroke="#63b8ff" d="M78.81,-68.45C96.81,-56.29 123.65,-39.45 149,-28.5 154.44,-26.15 160.25,-24.01 166.1,-22.07"/>
<polygon fill="#63b8ff" stroke="#63b8ff" points="167.4,-25.34 175.91,-19.03 165.32,-18.65 167.4,-25.34"/>
</a>
</g>
</g>
<!-- Node4 -->
<g id="Node000004" class="node">
<title>Node4</title>
<g id="a_Node000004"><a xlink:href="malloc_8c.html#ad8aac7aa28f6dea23cb5bc9c3268e330" target="_top" xlink:title=" ">
<polygon fill="white" stroke="#666666" points="400,-111 322,-111 322,-92 400,-92 400,-111"/>
<text text-anchor="middle" x="361" y="-99" font-family="Helvetica,sans-Serif" font-size="10.00">malloc_flags</text>
</a>
</g>
</g>
<!-- Node3&#45;&gt;Node4 -->
<g id="edge3_Node000003_Node000004" class="edge">
<title>Node3&#45;&gt;Node4</title>
<g id="a_edge3_Node000003_Node000004"><a xlink:title=" ">
<path fill="none" stroke="#63b8ff" d="M267.59,-113.91C281.85,-111.99 297.41,-109.9 311.63,-108"/>
<polygon fill="#63b8ff" stroke="#63b8ff" points="312.26,-111.44 321.7,-106.64 311.32,-104.5 312.26,-111.44"/>
</a>
</g>
</g>
<!-- Node5&#45;&gt;Node4 -->
<g id="edge5_Node000005_Node000004" class="edge">
<title>Node5&#45;&gt;Node4</title>
<g id="a_edge5_Node000005_Node000004"><a xlink:title=" ">
<path fill="none" stroke="#63b8ff" d="M256.05,-88.28C273.1,-90.45 293.48,-93.04 311.66,-95.35"/>
<polygon fill="#63b8ff" stroke="#63b8ff" points="311.42,-98.85 321.78,-96.64 312.31,-91.9 311.42,-98.85"/>
</a>
</g>
</g>
</g>
</svg>
</svg>

<style type='text/css'>
<![CDATA[
[data-mouse-over-selected='false'] { opacity: 0.7; }
[data-mouse-over-selected='true']  { opacity: 1.0; }
]]>
</style>
<script type="application/ecmascript"><![CDATA[
document.addEventListener('DOMContentLoaded', (event) => {
  highlightEdges();
  highlightAdjacentNodes();
});
]]></script>
</svg>
