<?xml version="1.0" encoding="UTF-8" standalone="no"?>
<!DOCTYPE svg PUBLIC "-//W3C//DTD SVG 1.1//EN"
 "http://www.w3.org/Graphics/SVG/1.1/DTD/svg11.dtd">
<!-- Generated by graphviz version 2.43.0 (0)
 -->
<!-- Title: bouncebuffer_init Pages: 1 -->
<svg width="472pt" height="103pt"
 viewBox="0.00 0.00 472.00 103.00" xmlns="http://www.w3.org/2000/svg" xmlns:xlink="http://www.w3.org/1999/xlink">
<g id="graph0" class="graph" transform="scale(1 1) rotate(0) translate(4 99)">
<title>bouncebuffer_init</title>
<!-- Node1 -->
<g id="Node000001" class="node">
<title>Node1</title>
<g id="a_Node000001"><a xlink:title=" ">
<polygon fill="#999999" stroke="#666666" points="101,-57 0,-57 0,-38 101,-38 101,-57"/>
<text text-anchor="middle" x="50.5" y="-45" font-family="Helvetica,sans-Serif" font-size="10.00">bouncebuffer_init</text>
</a>
</g>
</g>
<!-- Node2 -->
<g id="Node000002" class="node">
<title>Node2</title>
<g id="a_Node000002"><a xlink:href="malloc_8c.html#a2807e26a012717736641384f91ab2563" target="_top" xlink:title=" ">
<polygon fill="white" stroke="#666666" points="198,-95 153,-95 153,-76 198,-76 198,-95"/>
<text text-anchor="middle" x="175.5" y="-83" font-family="Helvetica,sans-Serif" font-size="10.00">calloc</text>
</a>
</g>
</g>
<!-- Node1&#45;&gt;Node2 -->
<g id="edge1_Node000001_Node000002" class="edge">
<title>Node1&#45;&gt;Node2</title>
<g id="a_edge1_Node000001_Node000002"><a xlink:title=" ">
<path fill="none" stroke="#63b8ff" d="M82.54,-57.09C101.03,-62.8 124.44,-70.04 143.02,-75.77"/>
<polygon fill="#63b8ff" stroke="#63b8ff" points="142.19,-79.18 152.78,-78.79 144.25,-72.49 142.19,-79.18"/>
</a>
</g>
</g>
<!-- Node5 -->
<g id="Node000005" class="node">
<title>Node5</title>
<g id="a_Node000005"><a xlink:href="malloc_8c.html#a47cde9cd130ae9ff7ff19ae70e5f0bd2" target="_top" xlink:title=" ">
<polygon fill="white" stroke="#666666" points="350,-57 250,-57 250,-38 350,-38 350,-57"/>
<text text-anchor="middle" x="300" y="-45" font-family="Helvetica,sans-Serif" font-size="10.00">malloc_axi_sram</text>
</a>
</g>
</g>
<!-- Node1&#45;&gt;Node5 -->
<g id="edge4_Node000001_Node000005" class="edge">
<title>Node1&#45;&gt;Node5</title>
<g id="a_edge4_Node000001_Node000005"><a xlink:title=" ">
<path fill="none" stroke="#63b8ff" d="M101.29,-47.5C141.19,-47.5 197.3,-47.5 239.56,-47.5"/>
<polygon fill="#63b8ff" stroke="#63b8ff" points="239.71,-51 249.71,-47.5 239.71,-44 239.71,-51"/>
</a>
</g>
</g>
<!-- Node6 -->
<g id="Node000006" class="node">
<title>Node6</title>
<g id="a_Node000006"><a xlink:href="malloc_8c.html#a1d12ea70c4732cb2e46719c8ffa5d807" target="_top" xlink:title=" ">
<polygon fill="white" stroke="#666666" points="214,-19 137,-19 137,0 214,0 214,-19"/>
<text text-anchor="middle" x="175.5" y="-7" font-family="Helvetica,sans-Serif" font-size="10.00">malloc_dma</text>
</a>
</g>
</g>
<!-- Node1&#45;&gt;Node6 -->
<g id="edge6_Node000001_Node000006" class="edge">
<title>Node1&#45;&gt;Node6</title>
<g id="a_edge6_Node000001_Node000006"><a xlink:title=" ">
<path fill="none" stroke="#63b8ff" d="M82.54,-37.91C97.98,-33.14 116.85,-27.31 133.47,-22.18"/>
<polygon fill="#63b8ff" stroke="#63b8ff" points="134.95,-25.38 143.47,-19.09 132.88,-18.69 134.95,-25.38"/>
</a>
</g>
</g>
<!-- Node3 -->
<g id="Node000003" class="node">
<title>Node3</title>
<g id="a_Node000003"><a xlink:href="malloc_8c.html#a9c36d0fe3ec4675cbffdc9b52f5fb399" target="_top" xlink:title=" ">
<polygon fill="white" stroke="#666666" points="325,-94 275,-94 275,-75 325,-75 325,-94"/>
<text text-anchor="middle" x="300" y="-82" font-family="Helvetica,sans-Serif" font-size="10.00">malloc</text>
</a>
</g>
</g>
<!-- Node2&#45;&gt;Node3 -->
<g id="edge2_Node000002_Node000003" class="edge">
<title>Node2&#45;&gt;Node3</title>
<g id="a_edge2_Node000002_Node000003"><a xlink:title=" ">
<path fill="none" stroke="#63b8ff" d="M198.12,-85.32C216.45,-85.17 243.09,-84.96 264.38,-84.78"/>
<polygon fill="#63b8ff" stroke="#63b8ff" points="264.68,-88.28 274.66,-84.7 264.63,-81.28 264.68,-88.28"/>
</a>
</g>
</g>
<!-- Node4 -->
<g id="Node000004" class="node">
<title>Node4</title>
<g id="a_Node000004"><a xlink:href="malloc_8c.html#ad8aac7aa28f6dea23cb5bc9c3268e330" target="_top" xlink:title=" ">
<polygon fill="white" stroke="#666666" points="464,-57 386,-57 386,-38 464,-38 464,-57"/>
<text text-anchor="middle" x="425" y="-45" font-family="Helvetica,sans-Serif" font-size="10.00">malloc_flags</text>
</a>
</g>
</g>
<!-- Node3&#45;&gt;Node4 -->
<g id="edge3_Node000003_Node000004" class="edge">
<title>Node3&#45;&gt;Node4</title>
<g id="a_edge3_Node000003_Node000004"><a xlink:title=" ">
<path fill="none" stroke="#63b8ff" d="M325.01,-77.28C341.32,-72.37 363.32,-65.75 382.44,-60"/>
<polygon fill="#63b8ff" stroke="#63b8ff" points="383.57,-63.32 392.13,-57.09 381.55,-56.61 383.57,-63.32"/>
</a>
</g>
</g>
<!-- Node5&#45;&gt;Node4 -->
<g id="edge5_Node000005_Node000004" class="edge">
<title>Node5&#45;&gt;Node4</title>
<g id="a_edge5_Node000005_Node000004"><a xlink:title=" ">
<path fill="none" stroke="#63b8ff" d="M350.32,-47.5C358.59,-47.5 367.17,-47.5 375.42,-47.5"/>
<polygon fill="#63b8ff" stroke="#63b8ff" points="375.65,-51 385.65,-47.5 375.65,-44 375.65,-51"/>
</a>
</g>
</g>
<!-- Node6&#45;&gt;Node4 -->
<g id="edge7_Node000006_Node000004" class="edge">
<title>Node6&#45;&gt;Node4</title>
<g id="a_edge7_Node000006_Node000004"><a xlink:title=" ">
<path fill="none" stroke="#63b8ff" d="M214.29,-12.08C249.59,-14.86 303.64,-20.05 350,-28.5 360.18,-30.35 371.02,-32.84 381.19,-35.41"/>
<polygon fill="#63b8ff" stroke="#63b8ff" points="380.51,-38.85 391.07,-37.97 382.27,-32.07 380.51,-38.85"/>
</a>
</g>
</g>
</g>
</svg>
