<?xml version="1.0" encoding="UTF-8" standalone="no"?>
<!DOCTYPE svg PUBLIC "-//W3C//DTD SVG 1.1//EN"
 "http://www.w3.org/Graphics/SVG/1.1/DTD/svg11.dtd">
<!-- Generated by graphviz version 2.43.0 (0)
 -->
<!-- Title: GCS_MAVLINK::is_active Pages: 1 -->
<svg width="747pt" height="146pt"
 viewBox="0.00 0.00 747.00 145.50" xmlns="http://www.w3.org/2000/svg" xmlns:xlink="http://www.w3.org/1999/xlink">
<g id="graph0" class="graph" transform="scale(1 1) rotate(0) translate(4 141.5)">
<title>GCS_MAVLINK::is_active</title>
<!-- Node1 -->
<g id="Node000001" class="node">
<title>Node1</title>
<g id="a_Node000001"><a xlink:title=" ">
<polygon fill="#999999" stroke="#666666" points="739,-48.5 603,-48.5 603,-29.5 739,-29.5 739,-48.5"/>
<text text-anchor="middle" x="671" y="-36.5" font-family="Helvetica,sans-Serif" font-size="10.00">GCS_MAVLINK::is_active</text>
</a>
</g>
</g>
<!-- Node2 -->
<g id="Node000002" class="node">
<title>Node2</title>
<g id="a_Node000002"><a xlink:href="classGCS.html#ad303c099a0fc8035085a95d1d14eec0c" target="_top" xlink:title=" ">
<polygon fill="white" stroke="#666666" points="562,-78 446,-78 446,-48 562,-48 562,-78"/>
<text text-anchor="start" x="454" y="-66" font-family="Helvetica,sans-Serif" font-size="10.00">GCS::send_to_active</text>
<text text-anchor="middle" x="504" y="-55" font-family="Helvetica,sans-Serif" font-size="10.00">_channels</text>
</a>
</g>
</g>
<!-- Node1&#45;&gt;Node2 -->
<g id="edge1_Node000001_Node000002" class="edge">
<title>Node1&#45;&gt;Node2</title>
<g id="a_edge1_Node000001_Node000002"><a xlink:title=" ">
<path fill="none" stroke="#63b8ff" d="M594.1,-50.04C583.37,-51.6 572.5,-53.18 562.2,-54.68"/>
<polygon fill="#63b8ff" stroke="#63b8ff" points="594.92,-53.46 604.31,-48.55 593.91,-46.53 594.92,-53.46"/>
</a>
</g>
</g>
<!-- Node9 -->
<g id="Node000009" class="node">
<title>Node9</title>
<g id="a_Node000009"><a xlink:href="classGCS__MAVLINK.html#ac22097067827164c0c26e7ead36b21e7" target="_top" xlink:title=" ">
<polygon fill="white" stroke="#666666" points="567,-30 441,-30 441,0 567,0 567,-30"/>
<text text-anchor="start" x="449" y="-18" font-family="Helvetica,sans-Serif" font-size="10.00">GCS_MAVLINK::update</text>
<text text-anchor="middle" x="504" y="-7" font-family="Helvetica,sans-Serif" font-size="10.00">_receive</text>
</a>
</g>
</g>
<!-- Node1&#45;&gt;Node9 -->
<g id="edge8_Node000001_Node000009" class="edge">
<title>Node1&#45;&gt;Node9</title>
<g id="a_edge8_Node000001_Node000009"><a xlink:title=" ">
<path fill="none" stroke="#63b8ff" d="M594.2,-27.97C585.17,-26.66 576.04,-25.33 567.24,-24.05"/>
<polygon fill="#63b8ff" stroke="#63b8ff" points="593.91,-31.47 604.31,-29.45 594.92,-24.54 593.91,-31.47"/>
</a>
</g>
</g>
<!-- Node3 -->
<g id="Node000003" class="node">
<title>Node3</title>
<g id="a_Node000003"><a xlink:href="classGCS.html#a36bac57d1573fce99894d56aef0f7c59" target="_top" xlink:title=" ">
<polygon fill="white" stroke="#666666" points="405,-94.5 273,-94.5 273,-75.5 405,-75.5 405,-94.5"/>
<text text-anchor="middle" x="339" y="-82.5" font-family="Helvetica,sans-Serif" font-size="10.00">GCS::send_named_float</text>
</a>
</g>
</g>
<!-- Node2&#45;&gt;Node3 -->
<g id="edge2_Node000002_Node000003" class="edge">
<title>Node2&#45;&gt;Node3</title>
<g id="a_edge2_Node000002_Node000003"><a xlink:title=" ">
<path fill="none" stroke="#63b8ff" d="M435.92,-72.05C425.73,-73.43 415.22,-74.85 405.07,-76.22"/>
<polygon fill="#63b8ff" stroke="#63b8ff" points="436.55,-75.5 445.99,-70.69 435.61,-68.56 436.55,-75.5"/>
</a>
</g>
</g>
<!-- Node8 -->
<g id="Node000008" class="node">
<title>Node8</title>
<g id="a_Node000008"><a xlink:href="classGCS.html#a324769a550ab1cef735783be8845013c" target="_top" xlink:title=" ">
<polygon fill="white" stroke="#666666" points="400,-57 278,-57 278,-27 400,-27 400,-57"/>
<text text-anchor="start" x="286" y="-45" font-family="Helvetica,sans-Serif" font-size="10.00">GCS::send_parameter</text>
<text text-anchor="middle" x="339" y="-34" font-family="Helvetica,sans-Serif" font-size="10.00">_value</text>
</a>
</g>
</g>
<!-- Node2&#45;&gt;Node8 -->
<g id="edge7_Node000002_Node000008" class="edge">
<title>Node2&#45;&gt;Node8</title>
<g id="a_edge7_Node000002_Node000008"><a xlink:title=" ">
<path fill="none" stroke="#63b8ff" d="M435.72,-54.33C423.89,-52.81 411.64,-51.23 400.02,-49.73"/>
<polygon fill="#63b8ff" stroke="#63b8ff" points="435.63,-57.85 445.99,-55.66 436.52,-50.91 435.63,-57.85"/>
</a>
</g>
</g>
<!-- Node4 -->
<g id="Node000004" class="node">
<title>Node4</title>
<g id="a_Node000004"><a xlink:href="classAP__WindVane.html#ac991e16d68d3e664f5a42651d33eb813" target="_top" xlink:title=" ">
<polygon fill="white" stroke="#666666" points="226,-137.5 85,-137.5 85,-118.5 226,-118.5 226,-137.5"/>
<text text-anchor="middle" x="155.5" y="-125.5" font-family="Helvetica,sans-Serif" font-size="10.00">AP_WindVane::send_wind</text>
</a>
</g>
</g>
<!-- Node3&#45;&gt;Node4 -->
<g id="edge3_Node000003_Node000004" class="edge">
<title>Node3&#45;&gt;Node4</title>
<g id="a_edge3_Node000003_Node000004"><a xlink:title=" ">
<path fill="none" stroke="#63b8ff" d="M287.87,-96.93C271.64,-100.79 253.56,-105.08 237,-109 224,-112.08 209.83,-115.43 197.04,-118.44"/>
<polygon fill="#63b8ff" stroke="#63b8ff" points="288.78,-100.31 297.7,-94.59 287.16,-93.5 288.78,-100.31"/>
</a>
</g>
</g>
<!-- Node5 -->
<g id="Node000005" class="node">
<title>Node5</title>
<g id="a_Node000005"><a xlink:href="classAP__InertialSensor__Invensense.html#a917a449ac89da74bf081f779c811e855" target="_top" xlink:title=" ">
<polygon fill="white" stroke="#666666" points="237,-100 74,-100 74,-70 237,-70 237,-100"/>
<text text-anchor="start" x="82" y="-88" font-family="Helvetica,sans-Serif" font-size="10.00">AP_InertialSensor_Invensense</text>
<text text-anchor="middle" x="155.5" y="-77" font-family="Helvetica,sans-Serif" font-size="10.00">::update</text>
</a>
</g>
</g>
<!-- Node3&#45;&gt;Node5 -->
<g id="edge4_Node000003_Node000005" class="edge">
<title>Node3&#45;&gt;Node5</title>
<g id="a_edge4_Node000003_Node000005"><a xlink:title=" ">
<path fill="none" stroke="#63b8ff" d="M262.8,-85C254.35,-85 245.72,-85 237.21,-85"/>
<polygon fill="#63b8ff" stroke="#63b8ff" points="262.99,-88.5 272.99,-85 262.99,-81.5 262.99,-88.5"/>
</a>
</g>
</g>
<!-- Node6 -->
<g id="Node000006" class="node">
<title>Node6</title>
<g id="a_Node000006"><a xlink:href="classAP__Airspeed.html#a694a19befdc15d84bccbbae3c348f52d" target="_top" xlink:title=" ">
<polygon fill="white" stroke="#666666" points="214,-51.5 97,-51.5 97,-32.5 214,-32.5 214,-51.5"/>
<text text-anchor="middle" x="155.5" y="-39.5" font-family="Helvetica,sans-Serif" font-size="10.00">AP_Airspeed::update</text>
</a>
</g>
</g>
<!-- Node3&#45;&gt;Node6 -->
<g id="edge5_Node000003_Node000006" class="edge">
<title>Node3&#45;&gt;Node6</title>
<g id="a_edge5_Node000003_Node000006"><a xlink:title=" ">
<path fill="none" stroke="#63b8ff" d="M287.87,-73.07C271.64,-69.21 253.56,-64.92 237,-61 224,-57.92 209.83,-54.57 197.04,-51.56"/>
<polygon fill="#63b8ff" stroke="#63b8ff" points="287.16,-76.5 297.7,-75.41 288.78,-69.69 287.16,-76.5"/>
</a>
</g>
</g>
<!-- Node7 -->
<g id="Node000007" class="node">
<title>Node7</title>
<g id="a_Node000007"><a xlink:href="Airspeed_8cpp.html#afe461d27b9c48d5921c00d521181f12f" target="_top" xlink:title=" ">
<polygon fill="white" stroke="#666666" points="38,-51.5 0,-51.5 0,-32.5 38,-32.5 38,-51.5"/>
<text text-anchor="middle" x="19" y="-39.5" font-family="Helvetica,sans-Serif" font-size="10.00">loop</text>
</a>
</g>
</g>
<!-- Node6&#45;&gt;Node7 -->
<g id="edge6_Node000006_Node000007" class="edge">
<title>Node6&#45;&gt;Node7</title>
<g id="a_edge6_Node000006_Node000007"><a xlink:title=" ">
<path fill="none" stroke="#63b8ff" d="M86.24,-42C68.47,-42 50.79,-42 38.17,-42"/>
<polygon fill="#63b8ff" stroke="#63b8ff" points="86.68,-45.5 96.68,-42 86.68,-38.5 86.68,-45.5"/>
</a>
</g>
</g>
</g>
</svg>
