<?xml version="1.0" encoding="UTF-8" standalone="no"?>
<!DOCTYPE svg PUBLIC "-//W3C//DTD SVG 1.1//EN"
 "http://www.w3.org/Graphics/SVG/1.1/DTD/svg11.dtd">
<!-- Generated by graphviz version 2.43.0 (0)
 -->
<!-- Title: typesafe_index::typesafe_index Pages: 1 -->
<svg width="339pt" height="138pt"
 viewBox="0.00 0.00 339.00 138.00" xmlns="http://www.w3.org/2000/svg" xmlns:xlink="http://www.w3.org/1999/xlink">
<g id="graph0" class="graph" transform="scale(1 1) rotate(0) translate(4 134)">
<title>typesafe_index::typesafe_index</title>
<!-- Node1 -->
<g id="Node000001" class="node">
<title>Node1</title>
<g id="a_Node000001"><a xlink:title=" ">
<polygon fill="#999999" stroke="#666666" points="331,-79.5 191,-79.5 191,-49.5 331,-49.5 331,-79.5"/>
<text text-anchor="start" x="199" y="-67.5" font-family="Helvetica,sans-Serif" font-size="10.00">typesafe_index::typesafe</text>
<text text-anchor="middle" x="261" y="-56.5" font-family="Helvetica,sans-Serif" font-size="10.00">_index</text>
</a>
</g>
</g>
<!-- Node2 -->
<g id="Node000002" class="node">
<title>Node2</title>
<g id="a_Node000002"><a xlink:href="classtypesafe__index.html#a21b05afb511a16b8bbbc5eed5ece1e20" target="_top" xlink:title=" ">
<polygon fill="white" stroke="#666666" points="152,-130 3,-130 3,-111 152,-111 152,-130"/>
<text text-anchor="middle" x="77.5" y="-118" font-family="Helvetica,sans-Serif" font-size="10.00">typesafe_index::operator%</text>
</a>
</g>
</g>
<!-- Node1&#45;&gt;Node2 -->
<g id="edge1_Node000001_Node000002" class="edge">
<title>Node1&#45;&gt;Node2</title>
<g id="a_edge1_Node000001_Node000002"><a xlink:title=" ">
<path fill="none" stroke="#63b8ff" d="M211.91,-83.23C194.17,-89.79 173.81,-96.9 155,-102.5 144.67,-105.57 133.43,-108.46 122.82,-110.99"/>
<polygon fill="#63b8ff" stroke="#63b8ff" points="213.32,-86.44 221.46,-79.66 210.87,-79.88 213.32,-86.44"/>
</a>
</g>
</g>
<!-- Node3 -->
<g id="Node000003" class="node">
<title>Node3</title>
<g id="a_Node000003"><a xlink:href="classtypesafe__index.html#a987569968a3d885dccdab3651f04c00f" target="_top" xlink:title=" ">
<polygon fill="white" stroke="#666666" points="151,-93 4,-93 4,-74 151,-74 151,-93"/>
<text text-anchor="middle" x="77.5" y="-81" font-family="Helvetica,sans-Serif" font-size="10.00">typesafe_index::operator+</text>
</a>
</g>
</g>
<!-- Node1&#45;&gt;Node3 -->
<g id="edge2_Node000001_Node000003" class="edge">
<title>Node1&#45;&gt;Node3</title>
<g id="a_edge2_Node000001_Node000003"><a xlink:title=" ">
<path fill="none" stroke="#63b8ff" d="M180.69,-72.8C170.84,-73.83 160.8,-74.88 151.06,-75.9"/>
<polygon fill="#63b8ff" stroke="#63b8ff" points="181.28,-76.26 190.86,-71.74 180.55,-69.3 181.28,-76.26"/>
</a>
</g>
</g>
<!-- Node4 -->
<g id="Node000004" class="node">
<title>Node4</title>
<g id="a_Node000004"><a xlink:href="classtypesafe__index.html#a58210ad04c3673711d9712551d93cbaa" target="_top" xlink:title=" ">
<polygon fill="white" stroke="#666666" points="155,-56 0,-56 0,-37 155,-37 155,-56"/>
<text text-anchor="middle" x="77.5" y="-44" font-family="Helvetica,sans-Serif" font-size="10.00">typesafe_index::operator++</text>
</a>
</g>
</g>
<!-- Node1&#45;&gt;Node4 -->
<g id="edge3_Node000001_Node000004" class="edge">
<title>Node1&#45;&gt;Node4</title>
<g id="a_edge3_Node000001_Node000004"><a xlink:title=" ">
<path fill="none" stroke="#63b8ff" d="M180.87,-56.65C172.29,-55.8 163.57,-54.94 155.02,-54.09"/>
<polygon fill="#63b8ff" stroke="#63b8ff" points="180.57,-60.14 190.86,-57.64 181.26,-53.17 180.57,-60.14"/>
</a>
</g>
</g>
<!-- Node5 -->
<g id="Node000005" class="node">
<title>Node5</title>
<g id="a_Node000005"><a xlink:href="classtypesafe__index.html#a7ff8e4a0911bf0b6e35b4d3521279dc8" target="_top" xlink:title=" ">
<polygon fill="white" stroke="#666666" points="155,-19 0,-19 0,0 155,0 155,-19"/>
<text text-anchor="middle" x="77.5" y="-7" font-family="Helvetica,sans-Serif" font-size="10.00">typesafe_index::operator++</text>
</a>
</g>
</g>
<!-- Node1&#45;&gt;Node5 -->
<g id="edge4_Node000001_Node000005" class="edge">
<title>Node1&#45;&gt;Node5</title>
<g id="a_edge4_Node000001_Node000005"><a xlink:title=" ">
<path fill="none" stroke="#63b8ff" d="M209.09,-46.05C192,-40.12 172.77,-33.74 155,-28.5 143.58,-25.13 131.09,-21.86 119.57,-19"/>
<polygon fill="#63b8ff" stroke="#63b8ff" points="208.28,-49.47 218.87,-49.47 210.59,-42.87 208.28,-49.47"/>
</a>
</g>
</g>
</g>
</svg>
