<?xml version="1.0" encoding="UTF-8" standalone="no"?>
<!DOCTYPE svg PUBLIC "-//W3C//DTD SVG 1.1//EN"
 "http://www.w3.org/Graphics/SVG/1.1/DTD/svg11.dtd">
<!-- Generated by graphviz version 2.43.0 (0)
 -->
<!-- Title: AP_Frsky_SPort_Passthrough::is_packet_ready Pages: 1 -->
<svg width="524pt" height="425pt"
 viewBox="0.00 0.00 524.00 425.00" xmlns="http://www.w3.org/2000/svg" xmlns:xlink="http://www.w3.org/1999/xlink">
<g id="graph0" class="graph" transform="scale(1 1) rotate(0) translate(4 421)">
<title>AP_Frsky_SPort_Passthrough::is_packet_ready</title>
<!-- Node1 -->
<g id="Node000001" class="node">
<title>Node1</title>
<g id="a_Node000001"><a xlink:title=" ">
<polygon fill="#999999" stroke="#666666" points="155,-221.5 0,-221.5 0,-191.5 155,-191.5 155,-221.5"/>
<text text-anchor="start" x="8" y="-209.5" font-family="Helvetica,sans-Serif" font-size="10.00">AP_Frsky_SPort_Passthrough</text>
<text text-anchor="middle" x="77.5" y="-198.5" font-family="Helvetica,sans-Serif" font-size="10.00">::is_packet_ready</text>
</a>
</g>
</g>
<!-- Node2 -->
<g id="Node000002" class="node">
<title>Node2</title>
<g id="a_Node000002"><a xlink:href="namespaceAP.html#a99432cfdb696952c9b7146f155a815aa" target="_top" xlink:title=" ">
<polygon fill="white" stroke="#666666" points="296.5,-416 240.5,-416 240.5,-397 296.5,-397 296.5,-416"/>
<text text-anchor="middle" x="268.5" y="-404" font-family="Helvetica,sans-Serif" font-size="10.00">AP::ahrs</text>
</a>
</g>
</g>
<!-- Node1&#45;&gt;Node2 -->
<g id="edge1_Node000001_Node000002" class="edge">
<title>Node1&#45;&gt;Node2</title>
<g id="a_edge1_Node000001_Node000002"><a xlink:title=" ">
<path fill="none" stroke="#63b8ff" d="M83.65,-221.65C96.2,-256.25 131.77,-341.51 191,-385.5 202.37,-393.94 216.94,-398.99 230.31,-402.01"/>
<polygon fill="#63b8ff" stroke="#63b8ff" points="229.74,-405.46 240.23,-403.94 231.08,-398.59 229.74,-405.46"/>
</a>
</g>
</g>
<!-- Node4 -->
<g id="Node000004" class="node">
<title>Node4</title>
<g id="a_Node000004"><a xlink:href="namespaceAP.html#aac3bcb68bcccad29cc493b878aef055e" target="_top" xlink:title=" ">
<polygon fill="white" stroke="#666666" points="304,-376 233,-376 233,-357 304,-357 304,-376"/>
<text text-anchor="middle" x="268.5" y="-364" font-family="Helvetica,sans-Serif" font-size="10.00">AP::battery</text>
</a>
</g>
</g>
<!-- Node1&#45;&gt;Node4 -->
<g id="edge3_Node000001_Node000004" class="edge">
<title>Node1&#45;&gt;Node4</title>
<g id="a_edge3_Node000001_Node000004"><a xlink:title=" ">
<path fill="none" stroke="#63b8ff" d="M86.04,-221.7C101.45,-251.1 139.5,-315.78 191,-348.5 200.52,-354.55 211.87,-358.57 222.88,-361.24"/>
<polygon fill="#63b8ff" stroke="#63b8ff" points="222.32,-364.7 232.83,-363.33 223.76,-357.85 222.32,-364.7"/>
</a>
</g>
</g>
<!-- Node6 -->
<g id="Node000006" class="node">
<title>Node6</title>
<g id="a_Node000006"><a xlink:href="classAP__WindVane.html#a7500cd6e7d98b4e7960d4858beb23b59" target="_top" xlink:title=" ">
<polygon fill="white" stroke="#666666" points="332.5,-339 204.5,-339 204.5,-320 332.5,-320 332.5,-339"/>
<text text-anchor="middle" x="268.5" y="-327" font-family="Helvetica,sans-Serif" font-size="10.00">AP_WindVane::enabled</text>
</a>
</g>
</g>
<!-- Node1&#45;&gt;Node6 -->
<g id="edge5_Node000001_Node000006" class="edge">
<title>Node1&#45;&gt;Node6</title>
<g id="a_edge5_Node000001_Node000006"><a xlink:title=" ">
<path fill="none" stroke="#63b8ff" d="M90.21,-221.62C108.92,-244.7 147.88,-288.45 191,-311.5 194.49,-313.36 198.17,-315.04 201.95,-316.54"/>
<polygon fill="#63b8ff" stroke="#63b8ff" points="200.91,-319.89 211.51,-319.93 203.25,-313.29 200.91,-319.89"/>
</a>
</g>
</g>
<!-- Node7 -->
<g id="Node000007" class="node">
<title>Node7</title>
<g id="a_Node000007"><a xlink:href="GCS__Common_8cpp.html#ab53f292b698f9a6a3f029dfdbd5a43de" target="_top" xlink:title=" ">
<polygon fill="white" stroke="#666666" points="285,-302 252,-302 252,-283 285,-283 285,-302"/>
<text text-anchor="middle" x="268.5" y="-290" font-family="Helvetica,sans-Serif" font-size="10.00">gcs</text>
</a>
</g>
</g>
<!-- Node1&#45;&gt;Node7 -->
<g id="edge6_Node000001_Node000007" class="edge">
<title>Node1&#45;&gt;Node7</title>
<g id="a_edge6_Node000001_Node000007"><a xlink:title=" ">
<path fill="none" stroke="#63b8ff" d="M99.5,-221.58C121.38,-236.67 157.15,-259.58 191,-273.5 207.29,-280.2 226.55,-284.97 241.66,-288.05"/>
<polygon fill="#63b8ff" stroke="#63b8ff" points="241.36,-291.56 251.84,-290 242.68,-284.68 241.36,-291.56"/>
</a>
</g>
</g>
<!-- Node9 -->
<g id="Node000009" class="node">
<title>Node9</title>
<g id="a_Node000009"><a xlink:href="classAP__Mission.html#a631c1e64dcae05e22112360c6f20855f" target="_top" xlink:title=" ">
<polygon fill="white" stroke="#666666" points="335.5,-264.5 201.5,-264.5 201.5,-234.5 335.5,-234.5 335.5,-264.5"/>
<text text-anchor="start" x="209.5" y="-252.5" font-family="Helvetica,sans-Serif" font-size="10.00">AP_Mission::get_current</text>
<text text-anchor="middle" x="268.5" y="-241.5" font-family="Helvetica,sans-Serif" font-size="10.00">_nav_index</text>
</a>
</g>
</g>
<!-- Node1&#45;&gt;Node9 -->
<g id="edge8_Node000001_Node000009" class="edge">
<title>Node1&#45;&gt;Node9</title>
<g id="a_edge8_Node000001_Node000009"><a xlink:title=" ">
<path fill="none" stroke="#63b8ff" d="M144.6,-221.54C159.71,-224.98 175.88,-228.66 191.37,-232.18"/>
<polygon fill="#63b8ff" stroke="#63b8ff" points="190.91,-235.66 201.43,-234.47 192.46,-228.84 190.91,-235.66"/>
</a>
</g>
</g>
<!-- Node10 -->
<g id="Node000010" class="node">
<title>Node10</title>
<g id="a_Node000010"><a xlink:href="classAP__WindVane.html#aecc10d6ca30f2e930621539edc4e89df" target="_top" xlink:title=" ">
<polygon fill="white" stroke="#666666" points="346,-216 191,-216 191,-197 346,-197 346,-216"/>
<text text-anchor="middle" x="268.5" y="-204" font-family="Helvetica,sans-Serif" font-size="10.00">AP_WindVane::get_singleton</text>
</a>
</g>
</g>
<!-- Node1&#45;&gt;Node10 -->
<g id="edge9_Node000001_Node000010" class="edge">
<title>Node1&#45;&gt;Node10</title>
<g id="a_edge9_Node000001_Node000010"><a xlink:title=" ">
<path fill="none" stroke="#63b8ff" d="M155.1,-206.5C163.56,-206.5 172.22,-206.5 180.79,-206.5"/>
<polygon fill="#63b8ff" stroke="#63b8ff" points="180.79,-210 190.79,-206.5 180.79,-203 180.79,-210"/>
</a>
</g>
</g>
<!-- Node11 -->
<g id="Node000011" class="node">
<title>Node11</title>
<g id="a_Node000011"><a xlink:href="namespaceAP.html#a67bce6e94b1af5e88d027330df5d8eca" target="_top" xlink:title=" ">
<polygon fill="white" stroke="#666666" points="305.5,-179 231.5,-179 231.5,-160 305.5,-160 305.5,-179"/>
<text text-anchor="middle" x="268.5" y="-167" font-family="Helvetica,sans-Serif" font-size="10.00">AP::mission</text>
</a>
</g>
</g>
<!-- Node1&#45;&gt;Node11 -->
<g id="edge10_Node000001_Node000011" class="edge">
<title>Node1&#45;&gt;Node11</title>
<g id="a_edge10_Node000001_Node000011"><a xlink:title=" ">
<path fill="none" stroke="#63b8ff" d="M155.1,-191.5C177.58,-187.1 201.47,-182.43 221.41,-178.52"/>
<polygon fill="#63b8ff" stroke="#63b8ff" points="222.31,-181.91 231.45,-176.56 220.96,-175.04 222.31,-181.91"/>
</a>
</g>
</g>
<!-- Node12 -->
<g id="Node000012" class="node">
<title>Node12</title>
<g id="a_Node000012"><a xlink:href="classAP__BattMonitor.html#a919b4b473883ce5282efa1e126b2b7ff" target="_top" xlink:title=" ">
<polygon fill="white" stroke="#666666" points="328.5,-141.5 208.5,-141.5 208.5,-111.5 328.5,-111.5 328.5,-141.5"/>
<text text-anchor="start" x="216.5" y="-129.5" font-family="Helvetica,sans-Serif" font-size="10.00">AP_BattMonitor::num</text>
<text text-anchor="middle" x="268.5" y="-118.5" font-family="Helvetica,sans-Serif" font-size="10.00">_instances</text>
</a>
</g>
</g>
<!-- Node1&#45;&gt;Node12 -->
<g id="edge11_Node000001_Node000012" class="edge">
<title>Node1&#45;&gt;Node12</title>
<g id="a_edge11_Node000001_Node000012"><a xlink:title=" ">
<path fill="none" stroke="#63b8ff" d="M106.67,-191.37C129.13,-179.64 161.59,-163.43 191,-151.5 196.69,-149.19 202.69,-146.94 208.71,-144.79"/>
<polygon fill="#63b8ff" stroke="#63b8ff" points="209.86,-148.09 218.16,-141.51 207.57,-141.48 209.86,-148.09"/>
</a>
</g>
</g>
<!-- Node13 -->
<g id="Node000013" class="node">
<title>Node13</title>
<g id="a_Node000013"><a xlink:href="classAP__RPM.html#a47fcbd84ed00e6413ae303642cfe8572" target="_top" xlink:title=" ">
<polygon fill="white" stroke="#666666" points="332,-93 205,-93 205,-74 332,-74 332,-93"/>
<text text-anchor="middle" x="268.5" y="-81" font-family="Helvetica,sans-Serif" font-size="10.00">AP_RPM::num_sensors</text>
</a>
</g>
</g>
<!-- Node1&#45;&gt;Node13 -->
<g id="edge12_Node000001_Node000013" class="edge">
<title>Node1&#45;&gt;Node13</title>
<g id="a_edge12_Node000001_Node000013"><a xlink:title=" ">
<path fill="none" stroke="#63b8ff" d="M90.59,-191.22C109.51,-168.35 148.4,-125.49 191,-102.5 195.29,-100.18 199.87,-98.15 204.57,-96.35"/>
<polygon fill="#63b8ff" stroke="#63b8ff" points="206.02,-99.56 214.34,-93 203.75,-92.93 206.02,-99.56"/>
</a>
</g>
</g>
<!-- Node14 -->
<g id="Node000014" class="node">
<title>Node14</title>
<g id="a_Node000014"><a xlink:href="namespaceAP.html#ad5986df034b9156395fea23c11cb2210" target="_top" xlink:title=" ">
<polygon fill="white" stroke="#666666" points="296,-56 241,-56 241,-37 296,-37 296,-56"/>
<text text-anchor="middle" x="268.5" y="-44" font-family="Helvetica,sans-Serif" font-size="10.00">AP::rpm</text>
</a>
</g>
</g>
<!-- Node1&#45;&gt;Node14 -->
<g id="edge13_Node000001_Node000014" class="edge">
<title>Node1&#45;&gt;Node14</title>
<g id="a_edge13_Node000001_Node000014"><a xlink:title=" ">
<path fill="none" stroke="#63b8ff" d="M86.04,-191.3C101.45,-161.9 139.5,-97.22 191,-64.5 202.72,-57.05 217.22,-52.68 230.43,-50.12"/>
<polygon fill="#63b8ff" stroke="#63b8ff" points="231.37,-53.51 240.67,-48.43 230.23,-46.6 231.37,-53.51"/>
</a>
</g>
</g>
<!-- Node16 -->
<g id="Node000016" class="node">
<title>Node16</title>
<g id="a_Node000016"><a xlink:href="classGCS.html#ab14e54881a416b2cdbb3aedc30548821" target="_top" xlink:title=" ">
<polygon fill="white" stroke="#666666" points="334,-19 203,-19 203,0 334,0 334,-19"/>
<text text-anchor="middle" x="268.5" y="-7" font-family="Helvetica,sans-Serif" font-size="10.00">GCS::vehicle_initialised</text>
</a>
</g>
</g>
<!-- Node1&#45;&gt;Node16 -->
<g id="edge15_Node000001_Node000016" class="edge">
<title>Node1&#45;&gt;Node16</title>
<g id="a_edge15_Node000001_Node000016"><a xlink:title=" ">
<path fill="none" stroke="#63b8ff" d="M83.44,-191.46C95.68,-156.7 130.82,-70.5 191,-27.5 193.09,-26.01 195.28,-24.64 197.56,-23.38"/>
<polygon fill="#63b8ff" stroke="#63b8ff" points="199.13,-26.51 206.66,-19.06 196.13,-20.18 199.13,-26.51"/>
</a>
</g>
</g>
<!-- Node3 -->
<g id="Node000003" class="node">
<title>Node3</title>
<g id="a_Node000003"><a xlink:href="classAP__AHRS.html#af481888f56602f793fc8d9895d14a8c9" target="_top" xlink:title=" ">
<polygon fill="white" stroke="#666666" points="516,-417 382,-417 382,-398 516,-398 516,-417"/>
<text text-anchor="middle" x="449" y="-405" font-family="Helvetica,sans-Serif" font-size="10.00">AP_AHRS::get_singleton</text>
</a>
</g>
</g>
<!-- Node2&#45;&gt;Node3 -->
<g id="edge2_Node000002_Node000003" class="edge">
<title>Node2&#45;&gt;Node3</title>
<g id="a_edge2_Node000002_Node000003"><a xlink:title=" ">
<path fill="none" stroke="#63b8ff" d="M296.61,-406.65C316.67,-406.76 345.05,-406.92 371.83,-407.07"/>
<polygon fill="#63b8ff" stroke="#63b8ff" points="371.97,-410.57 381.99,-407.13 372.01,-403.57 371.97,-410.57"/>
</a>
</g>
</g>
<!-- Node5 -->
<g id="Node000005" class="node">
<title>Node5</title>
<g id="a_Node000005"><a xlink:href="classAP__BattMonitor.html#a4bc6854b79b0a2696c9582de347acc63" target="_top" xlink:title=" ">
<polygon fill="white" stroke="#666666" points="506,-379.5 392,-379.5 392,-349.5 506,-349.5 506,-379.5"/>
<text text-anchor="start" x="400" y="-367.5" font-family="Helvetica,sans-Serif" font-size="10.00">AP_BattMonitor::get</text>
<text text-anchor="middle" x="449" y="-356.5" font-family="Helvetica,sans-Serif" font-size="10.00">_singleton</text>
</a>
</g>
</g>
<!-- Node4&#45;&gt;Node5 -->
<g id="edge4_Node000004_Node000005" class="edge">
<title>Node4&#45;&gt;Node5</title>
<g id="a_edge4_Node000004_Node000005"><a xlink:title=" ">
<path fill="none" stroke="#63b8ff" d="M304.34,-366.11C326.28,-365.86 355.33,-365.54 381.55,-365.24"/>
<polygon fill="#63b8ff" stroke="#63b8ff" points="381.86,-368.74 391.82,-365.13 381.78,-361.74 381.86,-368.74"/>
</a>
</g>
</g>
<!-- Node8 -->
<g id="Node000008" class="node">
<title>Node8</title>
<g id="a_Node000008"><a xlink:href="classGCS.html#a06b86c7032c4a91eaa2d31c06795570c" target="_top" xlink:title=" ">
<polygon fill="white" stroke="#666666" points="503.5,-302 394.5,-302 394.5,-283 503.5,-283 503.5,-302"/>
<text text-anchor="middle" x="449" y="-290" font-family="Helvetica,sans-Serif" font-size="10.00">GCS::get_singleton</text>
</a>
</g>
</g>
<!-- Node7&#45;&gt;Node8 -->
<g id="edge7_Node000007_Node000008" class="edge">
<title>Node7&#45;&gt;Node8</title>
<g id="a_edge7_Node000007_Node000008"><a xlink:title=" ">
<path fill="none" stroke="#63b8ff" d="M285.03,-292.5C306.95,-292.5 348.28,-292.5 383.83,-292.5"/>
<polygon fill="#63b8ff" stroke="#63b8ff" points="384.16,-296 394.16,-292.5 384.16,-289 384.16,-296"/>
</a>
</g>
</g>
<!-- Node15 -->
<g id="Node000015" class="node">
<title>Node15</title>
<g id="a_Node000015"><a xlink:href="classAP__RPM.html#aabe92c25c7c97521568e00edcd51903c" target="_top" xlink:title=" ">
<polygon fill="white" stroke="#666666" points="513,-56 385,-56 385,-37 513,-37 513,-56"/>
<text text-anchor="middle" x="449" y="-44" font-family="Helvetica,sans-Serif" font-size="10.00">AP_RPM::get_singleton</text>
</a>
</g>
</g>
<!-- Node14&#45;&gt;Node15 -->
<g id="edge14_Node000014_Node000015" class="edge">
<title>Node14&#45;&gt;Node15</title>
<g id="a_edge14_Node000014_Node000015"><a xlink:title=" ">
<path fill="none" stroke="#63b8ff" d="M296.22,-46.5C317.01,-46.5 346.9,-46.5 374.66,-46.5"/>
<polygon fill="#63b8ff" stroke="#63b8ff" points="374.77,-50 384.77,-46.5 374.77,-43 374.77,-50"/>
</a>
</g>
</g>
</g>
</svg>
