<?xml version="1.0" encoding="UTF-8" standalone="no"?>
<!DOCTYPE svg PUBLIC "-//W3C//DTD SVG 1.1//EN"
 "http://www.w3.org/Graphics/SVG/1.1/DTD/svg11.dtd">
<!-- Generated by graphviz version 2.43.0 (0)
 -->
<!-- Title: AP_AHRS::_should_use_airspeed_sensor Pages: 1 -->
<!--zoomable 278 -->

<svg id="main" version="1.1" xmlns="http://www.w3.org/2000/svg" xmlns:xlink="http://www.w3.org/1999/xlink" xml:space="preserve" onload="init(evt)">
<style type="text/css"><![CDATA[
.node, .edge {opacity: 0.7;}
.node.selected, .edge.selected {opacity: 1;}
.edge:hover path { stroke: red; }
.edge:hover polygon { stroke: red; fill: red; }
]]></style>

<defs>
  <circle id="rim" cx="0" cy="0" r="7"/>
  <circle id="rim2" cx="0" cy="0" r="3.5"/>
  <g id="zoomPlus">
    <use xlink:href="#rim" fill="#404040"><set attributeName="fill" to="#808080" begin="zoomplus.mouseover" end="zoomplus.mouseout"/></use>
    <path d="M-4,0h8M0,-4v8" fill="none" stroke="white" stroke-width="1.5" pointer-events="none"/>
  </g>
  <g id="zoomMin">
    <use xlink:href="#rim" fill="#404040"><set attributeName="fill" to="#808080" begin="zoomminus.mouseover" end="zoomminus.mouseout"/></use>
    <path d="M-4,0h8" fill="none" stroke="white" stroke-width="1.5" pointer-events="none"/>
  </g>
  <g id="arrowUp" transform="translate(30 24)">
    <use xlink:href="#rim"/>
    <path pointer-events="none" fill="none" stroke="white" stroke-width="1.5" d="M0,-3.0v7 M-2.5,-0.5L0,-3.0L2.5,-0.5"/>
  </g>
  <g id="arrowRight" transform="rotate(90) translate(36 -43)">
    <use xlink:href="#rim"/>
    <path pointer-events="none" fill="none" stroke="white" stroke-width="1.5" d="M0,-3.0v7 M-2.5,-0.5L0,-3.0L2.5,-0.5"/>
  </g>
  <g id="arrowDown" transform="rotate(180) translate(-30 -48)">
    <use xlink:href="#rim"/>
    <path pointer-events="none" fill="none" stroke="white" stroke-width="1.5" d="M0,-3.0v7 M-2.5,-0.5L0,-3.0L2.5,-0.5"/>
  </g>
  <g id="arrowLeft" transform="rotate(270) translate(-36 17)">
    <use xlink:href="#rim"/>
    <path pointer-events="none" fill="none" stroke="white" stroke-width="1.5" d="M0,-3.0v7 M-2.5,-0.5L0,-3.0L2.5,-0.5"/>
  </g>
  <g id="resetDef">
    <use xlink:href="#rim2" fill="#404040"><set attributeName="fill" to="#808080" begin="reset.mouseover" end="reset.mouseout"/></use>
  </g>
</defs>
<script type="application/ecmascript">
var viewWidth = 1028;
var viewHeight = 278;
var sectionId = 'dynsection-40';
</script>
<script type="application/ecmascript" xlink:href="svg.min.js"/>
<svg id="graph" class="graph">
<g id="viewport">
<title>AP_AHRS::_should_use_airspeed_sensor</title>
<!-- Node1 -->
<g id="Node000001" class="node">
<title>Node1</title>
<g id="a_Node000001"><a xlink:title=" ">
<polygon fill="#999999" stroke="#666666" points="128,-157.5 0,-157.5 0,-127.5 128,-127.5 128,-157.5"/>
<text text-anchor="start" x="8" y="-145.5" font-family="Helvetica,sans-Serif" font-size="10.00">AP_AHRS::_should_use</text>
<text text-anchor="middle" x="64" y="-134.5" font-family="Helvetica,sans-Serif" font-size="10.00">_airspeed_sensor</text>
</a>
</g>
</g>
<!-- Node2 -->
<g id="Node000002" class="node">
<title>Node2</title>
<g id="a_Node000002"><a xlink:href="classAP__AHRS.html#a47ea335b3b317f0c5e54320f59d5ca8a" target="_top" xlink:title=" ">
<polygon fill="white" stroke="#666666" points="311,-213.5 164,-213.5 164,-183.5 311,-183.5 311,-213.5"/>
<text text-anchor="start" x="172" y="-201.5" font-family="Helvetica,sans-Serif" font-size="10.00">AP_AHRS::airspeed_sensor</text>
<text text-anchor="middle" x="237.5" y="-190.5" font-family="Helvetica,sans-Serif" font-size="10.00">_enabled</text>
</a>
</g>
</g>
<!-- Node1&#45;&gt;Node2 -->
<g id="edge1_Node000001_Node000002" class="edge">
<title>Node1&#45;&gt;Node2</title>
<g id="a_edge1_Node000001_Node000002"><a xlink:title=" ">
<path fill="none" stroke="#63b8ff" d="M110.96,-157.51C132.39,-164.51 158.09,-172.9 180.64,-180.26"/>
<polygon fill="#63b8ff" stroke="#63b8ff" points="179.82,-183.67 190.41,-183.45 181.99,-177.02 179.82,-183.67"/>
</a>
</g>
</g>
<!-- Node14 -->
<g id="Node000014" class="node">
<title>Node14</title>
<g id="a_Node000014"><a xlink:href="classAP__AHRS.html#a263904852f9b6e65cf7a082e5d999131" target="_top" xlink:title=" ">
<polygon fill="white" stroke="#666666" points="293,-157.5 182,-157.5 182,-127.5 293,-127.5 293,-157.5"/>
<text text-anchor="start" x="190" y="-145.5" font-family="Helvetica,sans-Serif" font-size="10.00">AP_AHRS::get_filter</text>
<text text-anchor="middle" x="237.5" y="-134.5" font-family="Helvetica,sans-Serif" font-size="10.00">_status</text>
</a>
</g>
</g>
<!-- Node1&#45;&gt;Node14 -->
<g id="edge18_Node000001_Node000014" class="edge">
<title>Node1&#45;&gt;Node14</title>
<g id="a_edge18_Node000001_Node000014"><a xlink:title=" ">
<path fill="none" stroke="#63b8ff" d="M128.37,-142.5C142.5,-142.5 157.5,-142.5 171.68,-142.5"/>
<polygon fill="#63b8ff" stroke="#63b8ff" points="171.85,-146 181.85,-142.5 171.85,-139 171.85,-146"/>
</a>
</g>
</g>
<!-- Node17 -->
<g id="Node000017" class="node">
<title>Node17</title>
<g id="a_Node000017"><a xlink:href="classAP__HAL_1_1Util.html#a287a2b82fa30b92c8d52aad61d4d27b7" target="_top" xlink:title=" ">
<polygon fill="white" stroke="#666666" points="298.5,-109.5 176.5,-109.5 176.5,-79.5 298.5,-79.5 298.5,-109.5"/>
<text text-anchor="start" x="184.5" y="-97.5" font-family="Helvetica,sans-Serif" font-size="10.00">AP_HAL::Util::get_soft</text>
<text text-anchor="middle" x="237.5" y="-86.5" font-family="Helvetica,sans-Serif" font-size="10.00">_armed</text>
</a>
</g>
</g>
<!-- Node1&#45;&gt;Node17 -->
<g id="edge21_Node000001_Node000017" class="edge">
<title>Node1&#45;&gt;Node17</title>
<g id="a_edge21_Node000001_Node000017"><a xlink:title=" ">
<path fill="none" stroke="#63b8ff" d="M118.79,-127.44C136.03,-122.62 155.28,-117.23 173.14,-112.23"/>
<polygon fill="#63b8ff" stroke="#63b8ff" points="174.21,-115.57 182.9,-109.5 172.32,-108.83 174.21,-115.57"/>
</a>
</g>
</g>
<!-- Node3 -->
<g id="Node000003" class="node">
<title>Node3</title>
<g id="a_Node000003"><a xlink:href="classAP__AHRS__Backend.html#ab01422e35d9204c636dd069243d43d87" target="_top" xlink:title=" ">
<polygon fill="white" stroke="#666666" points="503,-215.5 347,-215.5 347,-185.5 503,-185.5 503,-215.5"/>
<text text-anchor="start" x="355" y="-203.5" font-family="Helvetica,sans-Serif" font-size="10.00">AP_AHRS_Backend::airspeed</text>
<text text-anchor="middle" x="425" y="-192.5" font-family="Helvetica,sans-Serif" font-size="10.00">_sensor_enabled</text>
</a>
</g>
</g>
<!-- Node2&#45;&gt;Node3 -->
<g id="edge2_Node000002_Node000003" class="edge">
<title>Node2&#45;&gt;Node3</title>
<g id="a_edge2_Node000002_Node000003"><a xlink:title=" ">
<path fill="none" stroke="#63b8ff" d="M311.02,-199.28C319.49,-199.37 328.2,-199.47 336.84,-199.56"/>
<polygon fill="#63b8ff" stroke="#63b8ff" points="336.9,-203.06 346.94,-199.67 336.98,-196.06 336.9,-203.06"/>
</a>
</g>
</g>
<!-- Node4 -->
<g id="Node000004" class="node">
<title>Node4</title>
<g id="a_Node000004"><a xlink:href="namespaceAP.html#a8d01caed65921a37d8d68f70ac255aa5" target="_top" xlink:title=" ">
<polygon fill="white" stroke="#666666" points="652,-259 575,-259 575,-240 652,-240 652,-259"/>
<text text-anchor="middle" x="613.5" y="-247" font-family="Helvetica,sans-Serif" font-size="10.00">AP::airspeed</text>
</a>
</g>
</g>
<!-- Node3&#45;&gt;Node4 -->
<g id="edge3_Node000003_Node000004" class="edge">
<title>Node3&#45;&gt;Node4</title>
<g id="a_edge3_Node000003_Node000004"><a xlink:title=" ">
<path fill="none" stroke="#63b8ff" d="M483.22,-215.53C509.86,-222.53 541.12,-230.75 566.23,-237.34"/>
<polygon fill="#63b8ff" stroke="#63b8ff" points="565.67,-240.82 576.24,-239.97 567.45,-234.05 565.67,-240.82"/>
</a>
</g>
</g>
<!-- Node6 -->
<g id="Node000006" class="node">
<title>Node6</title>
<g id="a_Node000006"><a xlink:href="classAP__Airspeed.html#a1f93ae84c30efc1375765b835004e7a9" target="_top" xlink:title=" ">
<polygon fill="white" stroke="#666666" points="673.5,-212 553.5,-212 553.5,-193 673.5,-193 673.5,-212"/>
<text text-anchor="middle" x="613.5" y="-200" font-family="Helvetica,sans-Serif" font-size="10.00">AP_Airspeed::healthy</text>
</a>
</g>
</g>
<!-- Node3&#45;&gt;Node6 -->
<g id="edge5_Node000003_Node000006" class="edge">
<title>Node3&#45;&gt;Node6</title>
<g id="a_edge5_Node000003_Node000006"><a xlink:title=" ">
<path fill="none" stroke="#63b8ff" d="M503.2,-201.33C516.41,-201.47 530.06,-201.62 543.04,-201.76"/>
<polygon fill="#63b8ff" stroke="#63b8ff" points="543.26,-205.26 553.3,-201.87 543.33,-198.26 543.26,-205.26"/>
</a>
</g>
</g>
<!-- Node8 -->
<g id="Node000008" class="node">
<title>Node8</title>
<g id="a_Node000008"><a xlink:href="classAP__Airspeed.html#aaf33aa667bfae26a81099a47e41212ce" target="_top" xlink:title=" ">
<polygon fill="white" stroke="#666666" points="664,-172 563,-172 563,-153 664,-153 664,-172"/>
<text text-anchor="middle" x="613.5" y="-160" font-family="Helvetica,sans-Serif" font-size="10.00">AP_Airspeed::use</text>
</a>
</g>
</g>
<!-- Node3&#45;&gt;Node8 -->
<g id="edge8_Node000003_Node000008" class="edge">
<title>Node3&#45;&gt;Node8</title>
<g id="a_edge8_Node000003_Node000008"><a xlink:title=" ">
<path fill="none" stroke="#63b8ff" d="M499.71,-185.48C518.35,-181.68 538.08,-177.66 555.74,-174.07"/>
<polygon fill="#63b8ff" stroke="#63b8ff" points="556.77,-177.43 565.87,-172 555.37,-170.57 556.77,-177.43"/>
</a>
</g>
</g>
<!-- Node5 -->
<g id="Node000005" class="node">
<title>Node5</title>
<g id="a_Node000005"><a xlink:href="classAP__Airspeed.html#af8fe29e897226fc9e3f797c67e4c31fa" target="_top" xlink:title=" ">
<polygon fill="white" stroke="#666666" points="873,-270 724,-270 724,-251 873,-251 873,-270"/>
<text text-anchor="middle" x="798.5" y="-258" font-family="Helvetica,sans-Serif" font-size="10.00">AP_Airspeed::get_singleton</text>
</a>
</g>
</g>
<!-- Node4&#45;&gt;Node5 -->
<g id="edge4_Node000004_Node000005" class="edge">
<title>Node4&#45;&gt;Node5</title>
<g id="a_edge4_Node000004_Node000005"><a xlink:title=" ">
<path fill="none" stroke="#63b8ff" d="M652.42,-251.78C670.22,-252.85 692.21,-254.17 713.63,-255.46"/>
<polygon fill="#63b8ff" stroke="#63b8ff" points="713.55,-258.96 723.74,-256.07 713.97,-251.97 713.55,-258.96"/>
</a>
</g>
</g>
<!-- Node7 -->
<g id="Node000007" class="node">
<title>Node7</title>
<g id="a_Node000007"><a xlink:href="classAP__Airspeed.html#a86b49520d90ba23d15fb79614605e522" target="_top" xlink:title=" ">
<polygon fill="white" stroke="#666666" points="859.5,-215 737.5,-215 737.5,-196 859.5,-196 859.5,-215"/>
<text text-anchor="middle" x="798.5" y="-203" font-family="Helvetica,sans-Serif" font-size="10.00">AP_Airspeed::enabled</text>
</a>
</g>
</g>
<!-- Node6&#45;&gt;Node7 -->
<g id="edge6_Node000006_Node000007" class="edge">
<title>Node6&#45;&gt;Node7</title>
<g id="a_edge6_Node000006_Node000007"><a xlink:title=" ">
<path fill="none" stroke="#63b8ff" d="M673.66,-203.47C690.68,-203.75 709.42,-204.06 727.05,-204.35"/>
<polygon fill="#63b8ff" stroke="#63b8ff" points="727.23,-207.85 737.29,-204.51 727.35,-200.85 727.23,-207.85"/>
</a>
</g>
</g>
<!-- Node7&#45;&gt;Node7 -->
<g id="edge7_Node000007_Node000007" class="edge">
<title>Node7&#45;&gt;Node7</title>
<g id="a_edge7_Node000007_Node000007"><a xlink:title=" ">
<path fill="none" stroke="#63b8ff" d="M773.22,-215.08C760.93,-223.73 769.35,-233 798.5,-233 817.63,-233 827.83,-229.01 829.11,-223.82"/>
<polygon fill="#63b8ff" stroke="#63b8ff" points="831.98,-221.79 823.78,-215.08 826,-225.44 831.98,-221.79"/>
</a>
</g>
</g>
<!-- Node8&#45;&gt;Node7 -->
<g id="edge9_Node000008_Node000007" class="edge">
<title>Node8&#45;&gt;Node7</title>
<g id="a_edge9_Node000008_Node000007"><a xlink:title=" ">
<path fill="none" stroke="#63b8ff" d="M655.11,-172.04C682.24,-178.42 718.12,-186.85 747.07,-193.65"/>
<polygon fill="#63b8ff" stroke="#63b8ff" points="746.46,-197.1 757,-195.98 748.07,-190.29 746.46,-197.1"/>
</a>
</g>
</g>
<!-- Node9 -->
<g id="Node000009" class="node">
<title>Node9</title>
<g id="a_Node000009"><a xlink:href="classSRV__Channels.html#abd70bd7df5b7206952247f9cae658250" target="_top" xlink:title=" ">
<polygon fill="white" stroke="#666666" points="871,-177.5 726,-177.5 726,-147.5 871,-147.5 871,-177.5"/>
<text text-anchor="start" x="734" y="-165.5" font-family="Helvetica,sans-Serif" font-size="10.00">SRV_Channels::get_output</text>
<text text-anchor="middle" x="798.5" y="-154.5" font-family="Helvetica,sans-Serif" font-size="10.00">_scaled</text>
</a>
</g>
</g>
<!-- Node8&#45;&gt;Node9 -->
<g id="edge10_Node000008_Node000009" class="edge">
<title>Node8&#45;&gt;Node9</title>
<g id="a_edge10_Node000008_Node000009"><a xlink:title=" ">
<path fill="none" stroke="#63b8ff" d="M664.02,-162.5C679.95,-162.5 698.04,-162.5 715.66,-162.5"/>
<polygon fill="#63b8ff" stroke="#63b8ff" points="715.95,-166 725.95,-162.5 715.95,-159 715.95,-166"/>
</a>
</g>
</g>
<!-- Node11 -->
<g id="Node000011" class="node">
<title>Node11</title>
<g id="a_Node000011"><a xlink:href="AP__Math_8h.html#a2a12cce483e9b870da70d30406d82c60" target="_top" xlink:title=" ">
<polygon fill="white" stroke="#666666" points="824,-111 773,-111 773,-92 824,-92 824,-111"/>
<text text-anchor="middle" x="798.5" y="-99" font-family="Helvetica,sans-Serif" font-size="10.00">is_zero</text>
</a>
</g>
</g>
<!-- Node8&#45;&gt;Node11 -->
<g id="edge13_Node000008_Node000011" class="edge">
<title>Node8&#45;&gt;Node11</title>
<g id="a_edge13_Node000008_Node000011"><a xlink:title=" ">
<path fill="none" stroke="#63b8ff" d="M654.79,-152.96C665.64,-150.15 677.33,-146.91 688,-143.5 714.4,-135.05 743.69,-123.71 765.33,-114.94"/>
<polygon fill="#63b8ff" stroke="#63b8ff" points="766.77,-118.14 774.7,-111.12 764.12,-111.66 766.77,-118.14"/>
</a>
</g>
</g>
<!-- Node12 -->
<g id="Node000012" class="node">
<title>Node12</title>
<g id="a_Node000012"><a xlink:href="classAP__Airspeed.html#ab77effd1e8538594b0d10180d027ba2f" target="_top" xlink:title=" ">
<polygon fill="white" stroke="#666666" points="868.5,-74 728.5,-74 728.5,-55 868.5,-55 868.5,-74"/>
<text text-anchor="middle" x="798.5" y="-62" font-family="Helvetica,sans-Serif" font-size="10.00">AP_Airspeed::lib_enabled</text>
</a>
</g>
</g>
<!-- Node8&#45;&gt;Node12 -->
<g id="edge15_Node000008_Node000012" class="edge">
<title>Node8&#45;&gt;Node12</title>
<g id="a_edge15_Node000008_Node000012"><a xlink:title=" ">
<path fill="none" stroke="#63b8ff" d="M664.38,-155.28C672.8,-152.53 681.05,-148.73 688,-143.5 713.15,-124.57 698.73,-101.27 724,-82.5 725.84,-81.13 727.78,-79.87 729.78,-78.7"/>
<polygon fill="#63b8ff" stroke="#63b8ff" points="731.54,-81.73 738.94,-74.15 728.43,-75.46 731.54,-81.73"/>
</a>
</g>
</g>
<!-- Node13 -->
<g id="Node000013" class="node">
<title>Node13</title>
<g id="a_Node000013"><a xlink:href="classAP__Airspeed.html#a81cc77a3b3c952151261b53fc4467443" target="_top" xlink:title=" ">
<polygon fill="white" stroke="#666666" points="849,-19 748,-19 748,0 849,0 849,-19"/>
<text text-anchor="middle" x="798.5" y="-7" font-family="Helvetica,sans-Serif" font-size="10.00">AP_Airspeed::use</text>
</a>
</g>
</g>
<!-- Node8&#45;&gt;Node13 -->
<g id="edge16_Node000008_Node000013" class="edge">
<title>Node8&#45;&gt;Node13</title>
<g id="a_edge16_Node000008_Node000013"><a xlink:title=" ">
<path fill="none" stroke="#63b8ff" d="M664.07,-156.67C672.81,-153.8 681.26,-149.6 688,-143.5 722.4,-112.35 692.93,-79.96 724,-45.5 732.71,-35.84 744.59,-28.49 756.25,-23.02"/>
<polygon fill="#63b8ff" stroke="#63b8ff" points="757.7,-26.21 765.5,-19.04 754.93,-19.78 757.7,-26.21"/>
</a>
</g>
</g>
<!-- Node10 -->
<g id="Node000010" class="node">
<title>Node10</title>
<g id="a_Node000010"><a xlink:href="classSRV__Channel.html#a6513c5f2557abb57749eda85c632e213" target="_top" xlink:title=" ">
<polygon fill="white" stroke="#666666" points="1020,-177.5 909,-177.5 909,-147.5 1020,-147.5 1020,-177.5"/>
<text text-anchor="start" x="917" y="-165.5" font-family="Helvetica,sans-Serif" font-size="10.00">SRV_Channel::valid</text>
<text text-anchor="middle" x="964.5" y="-154.5" font-family="Helvetica,sans-Serif" font-size="10.00">_function</text>
</a>
</g>
</g>
<!-- Node9&#45;&gt;Node10 -->
<g id="edge11_Node000009_Node000010" class="edge">
<title>Node9&#45;&gt;Node10</title>
<g id="a_edge11_Node000009_Node000010"><a xlink:title=" ">
<path fill="none" stroke="#63b8ff" d="M871.43,-162.5C880.56,-162.5 889.86,-162.5 898.87,-162.5"/>
<polygon fill="#63b8ff" stroke="#63b8ff" points="898.89,-166 908.89,-162.5 898.88,-159 898.89,-166"/>
</a>
</g>
</g>
<!-- Node10&#45;&gt;Node10 -->
<g id="edge12_Node000010_Node000010" class="edge">
<title>Node10&#45;&gt;Node10</title>
<g id="a_edge12_Node000010_Node000010"><a xlink:title=" ">
<path fill="none" stroke="#63b8ff" d="M935.67,-177.78C929.27,-186.91 938.88,-195.5 964.5,-195.5 979.71,-195.5 989.28,-192.47 993.21,-188.1"/>
<polygon fill="#63b8ff" stroke="#63b8ff" points="996.71,-187.82 993.33,-177.78 989.71,-187.73 996.71,-187.82"/>
</a>
</g>
</g>
<!-- Node11&#45;&gt;Node11 -->
<g id="edge14_Node000011_Node000011" class="edge">
<title>Node11&#45;&gt;Node11</title>
<g id="a_edge14_Node000011_Node000011"><a xlink:title=" ">
<path fill="none" stroke="#63b8ff" d="M773.22,-111.08C760.93,-119.73 769.35,-129 798.5,-129 817.63,-129 827.83,-125.01 829.11,-119.82"/>
<polygon fill="#63b8ff" stroke="#63b8ff" points="831.98,-117.79 823.78,-111.08 826,-121.44 831.98,-117.79"/>
</a>
</g>
</g>
<!-- Node13&#45;&gt;Node13 -->
<g id="edge17_Node000013_Node000013" class="edge">
<title>Node13&#45;&gt;Node13</title>
<g id="a_edge17_Node000013_Node000013"><a xlink:title=" ">
<path fill="none" stroke="#63b8ff" d="M773.22,-19.08C760.93,-27.73 769.35,-37 798.5,-37 817.63,-37 827.83,-33.01 829.11,-27.82"/>
<polygon fill="#63b8ff" stroke="#63b8ff" points="831.98,-25.79 823.78,-19.08 826,-29.44 831.98,-25.79"/>
</a>
</g>
</g>
<!-- Node15 -->
<g id="Node000015" class="node">
<title>Node15</title>
<g id="a_Node000015"><a xlink:href="classAP__AHRS.html#abf9dc928e3f13d54d202d047bab70651" target="_top" xlink:title=" ">
<polygon fill="white" stroke="#666666" points="480,-148 370,-148 370,-129 480,-129 480,-148"/>
<text text-anchor="middle" x="425" y="-136" font-family="Helvetica,sans-Serif" font-size="10.00">AP_AHRS::ekf_type</text>
</a>
</g>
</g>
<!-- Node14&#45;&gt;Node15 -->
<g id="edge19_Node000014_Node000015" class="edge">
<title>Node14&#45;&gt;Node15</title>
<g id="a_edge19_Node000014_Node000015"><a xlink:title=" ">
<path fill="none" stroke="#63b8ff" d="M293.15,-141.32C314,-140.87 337.96,-140.36 359.63,-139.89"/>
<polygon fill="#63b8ff" stroke="#63b8ff" points="359.82,-143.38 369.74,-139.67 359.66,-136.39 359.82,-143.38"/>
</a>
</g>
</g>
<!-- Node16 -->
<g id="Node000016" class="node">
<title>Node16</title>
<g id="a_Node000016"><a xlink:href="classAP__AHRS.html#ab6e2d39bc4cee69c6532549694d694cd" target="_top" xlink:title=" ">
<polygon fill="white" stroke="#666666" points="688,-135 539,-135 539,-116 688,-116 688,-135"/>
<text text-anchor="middle" x="613.5" y="-123" font-family="Helvetica,sans-Serif" font-size="10.00">AP_AHRS::always_use_EKF</text>
</a>
</g>
</g>
<!-- Node15&#45;&gt;Node16 -->
<g id="edge20_Node000015_Node000016" class="edge">
<title>Node15&#45;&gt;Node16</title>
<g id="a_edge20_Node000015_Node000016"><a xlink:title=" ">
<path fill="none" stroke="#63b8ff" d="M480.19,-134.72C495.33,-133.67 512.15,-132.49 528.58,-131.35"/>
<polygon fill="#63b8ff" stroke="#63b8ff" points="529.01,-134.83 538.74,-130.64 528.52,-127.85 529.01,-134.83"/>
</a>
</g>
</g>
</g>
</svg>

<g id="navigator" transform="translate(0 0)" fill="#404254">
  <rect fill="#f2f5e9" fill-opacity="0.5" stroke="#606060" stroke-width=".5" x="0" y="0" width="60" height="60"/>
  <use id="zoomplus" xlink:href="#zoomPlus" x="17" y="9" onmousedown="handleZoom(evt,'in')"/>
  <use id="zoomminus" xlink:href="#zoomMin" x="42" y="9" onmousedown="handleZoom(evt,'out')"/>
  <use id="reset" xlink:href="#resetDef" x="30" y="36" onmousedown="handleReset()"/>
   <use id="arrowup" xlink:href="#arrowUp" x="0" y="0" onmousedown="handlePan(0,-1)"/>
  <use id="arrowright" xlink:href="#arrowRight" x="0" y="0" onmousedown="handlePan(1,0)"/>
  <use id="arrowdown" xlink:href="#arrowDown" x="0" y="0" onmousedown="handlePan(0,1)"/>
  <use id="arrowleft" xlink:href="#arrowLeft" x="0" y="0" onmousedown="handlePan(-1,0)"/>
</g>
<svg viewBox="0 0 15 15" width="100%" height="30px" preserveAspectRatio="xMaxYMin meet">
 <g id="arrow_out" transform="scale(0.3 0.3)">
  <a xlink:href="classAP__AHRS_a5fc93e602ca980cb4fb860779f118329_cgraph_org.svg" target="_base">
   <rect id="button" ry="5" rx="5" y="6" x="6" height="38" width="38"
        fill="#f2f5e9" fill-opacity="0.5" stroke="#606060" stroke-width="1.0"/>
   <path id="arrow"
     d="M 11.500037,31.436501 C 11.940474,20.09759 22.043105,11.32322 32.158766,21.979434 L 37.068811,17.246167 C 37.068811,17.246167 37.088388,32 37.088388,32 L 22.160133,31.978069 C 22.160133,31.978069 26.997745,27.140456 26.997745,27.140456 C 18.528582,18.264221 13.291696,25.230495 11.500037,31.436501 z"
     style="fill:#404040;"/>
  </a>
 </g>
</svg>

<style type='text/css'>
<![CDATA[
[data-mouse-over-selected='false'] { opacity: 0.7; }
[data-mouse-over-selected='true']  { opacity: 1.0; }
]]>
</style>
<script type="application/ecmascript"><![CDATA[
document.addEventListener('DOMContentLoaded', (event) => {
  highlightEdges();
  highlightAdjacentNodes();
});
]]></script>
</svg>
