<?xml version="1.0" encoding="UTF-8" standalone="no"?>
<!DOCTYPE svg PUBLIC "-//W3C//DTD SVG 1.1//EN"
 "http://www.w3.org/Graphics/SVG/1.1/DTD/svg11.dtd">
<!-- Generated by graphviz version 2.43.0 (0)
 -->
<!-- Title: SITL::MicroStrain::send_packet Pages: 1 -->
<svg width="1315pt" height="230pt"
 viewBox="0.00 0.00 1315.00 230.00" xmlns="http://www.w3.org/2000/svg" xmlns:xlink="http://www.w3.org/1999/xlink">
<g id="graph0" class="graph" transform="scale(1 1) rotate(0) translate(4 226)">
<title>SITL::MicroStrain::send_packet</title>
<!-- Node1 -->
<g id="Node000001" class="node">
<title>Node1</title>
<g id="a_Node000001"><a xlink:title=" ">
<polygon fill="#999999" stroke="#666666" points="1307,-126 1203,-126 1203,-96 1307,-96 1307,-126"/>
<text text-anchor="start" x="1211" y="-114" font-family="Helvetica,sans-Serif" font-size="10.00">SITL::MicroStrain::</text>
<text text-anchor="middle" x="1255" y="-103" font-family="Helvetica,sans-Serif" font-size="10.00">send_packet</text>
</a>
</g>
</g>
<!-- Node2 -->
<g id="Node000002" class="node">
<title>Node2</title>
<g id="a_Node000002"><a xlink:href="classSITL_1_1MicroStrain5.html#a0776cc3fdb14c1d977d8368e245d4502" target="_top" xlink:title=" ">
<polygon fill="white" stroke="#666666" points="1167,-222 1056,-222 1056,-192 1167,-192 1167,-222"/>
<text text-anchor="start" x="1064" y="-210" font-family="Helvetica,sans-Serif" font-size="10.00">SITL::MicroStrain5</text>
<text text-anchor="middle" x="1111.5" y="-199" font-family="Helvetica,sans-Serif" font-size="10.00">::send_filter_packet</text>
</a>
</g>
</g>
<!-- Node1&#45;&gt;Node2 -->
<g id="edge1_Node000001_Node000002" class="edge">
<title>Node1&#45;&gt;Node2</title>
<g id="a_edge1_Node000001_Node000002"><a xlink:title=" ">
<path fill="none" stroke="#63b8ff" d="M1230.7,-133.33C1213.92,-148.62 1190.23,-168.66 1167,-183 1161.81,-186.2 1156.12,-189.21 1150.43,-191.93"/>
<polygon fill="#63b8ff" stroke="#63b8ff" points="1233.39,-135.61 1238.36,-126.25 1228.64,-130.47 1233.39,-135.61"/>
</a>
</g>
</g>
<!-- Node3 -->
<g id="Node000003" class="node">
<title>Node3</title>
<g id="a_Node000003"><a xlink:href="classSITL_1_1MicroStrain7.html#a889146df0955429c3090e72ddeaf986d" target="_top" xlink:title=" ">
<polygon fill="white" stroke="#666666" points="1167,-174 1056,-174 1056,-144 1167,-144 1167,-174"/>
<text text-anchor="start" x="1064" y="-162" font-family="Helvetica,sans-Serif" font-size="10.00">SITL::MicroStrain7</text>
<text text-anchor="middle" x="1111.5" y="-151" font-family="Helvetica,sans-Serif" font-size="10.00">::send_filter_packet</text>
</a>
</g>
</g>
<!-- Node1&#45;&gt;Node3 -->
<g id="edge2_Node000001_Node000003" class="edge">
<title>Node1&#45;&gt;Node3</title>
<g id="a_edge2_Node000001_Node000003"><a xlink:title=" ">
<path fill="none" stroke="#63b8ff" d="M1199.92,-129.35C1185.65,-134.19 1170.41,-139.36 1156.73,-144"/>
<polygon fill="#63b8ff" stroke="#63b8ff" points="1201.27,-132.58 1209.62,-126.06 1199.02,-125.95 1201.27,-132.58"/>
</a>
</g>
</g>
<!-- Node4 -->
<g id="Node000004" class="node">
<title>Node4</title>
<g id="a_Node000004"><a xlink:href="classSITL_1_1MicroStrain5.html#aa93e1d0c69fde22d0cfb5d83afae937e" target="_top" xlink:title=" ">
<polygon fill="white" stroke="#666666" points="1167,-126 1056,-126 1056,-96 1167,-96 1167,-126"/>
<text text-anchor="start" x="1064" y="-114" font-family="Helvetica,sans-Serif" font-size="10.00">SITL::MicroStrain5</text>
<text text-anchor="middle" x="1111.5" y="-103" font-family="Helvetica,sans-Serif" font-size="10.00">::send_gnss_packet</text>
</a>
</g>
</g>
<!-- Node1&#45;&gt;Node4 -->
<g id="edge3_Node000001_Node000004" class="edge">
<title>Node1&#45;&gt;Node4</title>
<g id="a_edge3_Node000001_Node000004"><a xlink:title=" ">
<path fill="none" stroke="#63b8ff" d="M1192.74,-111C1184.29,-111 1175.66,-111 1167.33,-111"/>
<polygon fill="#63b8ff" stroke="#63b8ff" points="1192.92,-114.5 1202.92,-111 1192.92,-107.5 1192.92,-114.5"/>
</a>
</g>
</g>
<!-- Node5 -->
<g id="Node000005" class="node">
<title>Node5</title>
<g id="a_Node000005"><a xlink:href="classSITL_1_1MicroStrain7.html#acb4067fff4fc8e0099bbe82e5e4f42a4" target="_top" xlink:title=" ">
<polygon fill="white" stroke="#666666" points="1167,-78 1056,-78 1056,-48 1167,-48 1167,-78"/>
<text text-anchor="start" x="1064" y="-66" font-family="Helvetica,sans-Serif" font-size="10.00">SITL::MicroStrain7</text>
<text text-anchor="middle" x="1111.5" y="-55" font-family="Helvetica,sans-Serif" font-size="10.00">::send_gnss_packet</text>
</a>
</g>
</g>
<!-- Node1&#45;&gt;Node5 -->
<g id="edge4_Node000001_Node000005" class="edge">
<title>Node1&#45;&gt;Node5</title>
<g id="a_edge4_Node000001_Node000005"><a xlink:title=" ">
<path fill="none" stroke="#63b8ff" d="M1199.92,-92.65C1185.65,-87.81 1170.41,-82.64 1156.73,-78"/>
<polygon fill="#63b8ff" stroke="#63b8ff" points="1199.02,-96.05 1209.62,-95.94 1201.27,-89.42 1199.02,-96.05"/>
</a>
</g>
</g>
<!-- Node6 -->
<g id="Node000006" class="node">
<title>Node6</title>
<g id="a_Node000006"><a xlink:href="classSITL_1_1MicroStrain.html#a760af0e2334bc59c07037059200fcf0b" target="_top" xlink:title=" ">
<polygon fill="white" stroke="#666666" points="1163.5,-30 1059.5,-30 1059.5,0 1163.5,0 1163.5,-30"/>
<text text-anchor="start" x="1067.5" y="-18" font-family="Helvetica,sans-Serif" font-size="10.00">SITL::MicroStrain::</text>
<text text-anchor="middle" x="1111.5" y="-7" font-family="Helvetica,sans-Serif" font-size="10.00">send_imu_packet</text>
</a>
</g>
</g>
<!-- Node1&#45;&gt;Node6 -->
<g id="edge5_Node000001_Node000006" class="edge">
<title>Node1&#45;&gt;Node6</title>
<g id="a_edge5_Node000001_Node000006"><a xlink:title=" ">
<path fill="none" stroke="#63b8ff" d="M1230.7,-88.67C1213.92,-73.38 1190.23,-53.34 1167,-39 1161.81,-35.8 1156.12,-32.79 1150.43,-30.07"/>
<polygon fill="#63b8ff" stroke="#63b8ff" points="1228.64,-91.53 1238.36,-95.75 1233.39,-86.39 1228.64,-91.53"/>
</a>
</g>
</g>
<!-- Node7 -->
<g id="Node000007" class="node">
<title>Node7</title>
<g id="a_Node000007"><a xlink:href="classSITL_1_1MicroStrain.html#a1c440602759eb5e9a732078ac4f4e382" target="_top" xlink:title=" ">
<polygon fill="white" stroke="#666666" points="1020,-30 916,-30 916,0 1020,0 1020,-30"/>
<text text-anchor="start" x="924" y="-18" font-family="Helvetica,sans-Serif" font-size="10.00">SITL::MicroStrain::</text>
<text text-anchor="middle" x="968" y="-7" font-family="Helvetica,sans-Serif" font-size="10.00">update</text>
</a>
</g>
</g>
<!-- Node6&#45;&gt;Node7 -->
<g id="edge6_Node000006_Node000007" class="edge">
<title>Node6&#45;&gt;Node7</title>
<g id="a_edge6_Node000006_Node000007"><a xlink:title=" ">
<path fill="none" stroke="#63b8ff" d="M1049.34,-15C1039.56,-15 1029.53,-15 1020.01,-15"/>
<polygon fill="#63b8ff" stroke="#63b8ff" points="1049.42,-18.5 1059.42,-15 1049.42,-11.5 1049.42,-18.5"/>
</a>
</g>
</g>
<!-- Node8 -->
<g id="Node000008" class="node">
<title>Node8</title>
<g id="a_Node000008"><a xlink:href="classHALSITL_1_1SITL__State__Common.html#a203ad4f71c8f1cac590d11e0f98b23ea" target="_top" xlink:title=" ">
<polygon fill="white" stroke="#666666" points="880,-30 751,-30 751,0 880,0 880,-30"/>
<text text-anchor="start" x="759" y="-18" font-family="Helvetica,sans-Serif" font-size="10.00">HALSITL::SITL_State</text>
<text text-anchor="middle" x="815.5" y="-7" font-family="Helvetica,sans-Serif" font-size="10.00">_Common::sim_update</text>
</a>
</g>
</g>
<!-- Node7&#45;&gt;Node8 -->
<g id="edge7_Node000007_Node000008" class="edge">
<title>Node7&#45;&gt;Node8</title>
<g id="a_edge7_Node000007_Node000008"><a xlink:title=" ">
<path fill="none" stroke="#63b8ff" d="M905.56,-15C897.18,-15 888.57,-15 880.15,-15"/>
<polygon fill="#63b8ff" stroke="#63b8ff" points="905.63,-18.5 915.63,-15 905.63,-11.5 905.63,-18.5"/>
</a>
</g>
</g>
<!-- Node9 -->
<g id="Node000009" class="node">
<title>Node9</title>
<g id="a_Node000009"><a xlink:href="classHALSITL_1_1SITL__State.html#a141fe78b0702ab2f2ac4cafc221fdb97" target="_top" xlink:title=" ">
<polygon fill="white" stroke="#666666" points="715,-30 602,-30 602,0 715,0 715,-30"/>
<text text-anchor="start" x="610" y="-18" font-family="Helvetica,sans-Serif" font-size="10.00">HALSITL::SITL_State</text>
<text text-anchor="middle" x="658.5" y="-7" font-family="Helvetica,sans-Serif" font-size="10.00">::_fdm_input_local</text>
</a>
</g>
</g>
<!-- Node8&#45;&gt;Node9 -->
<g id="edge8_Node000008_Node000009" class="edge">
<title>Node8&#45;&gt;Node9</title>
<g id="a_edge8_Node000008_Node000009"><a xlink:title=" ">
<path fill="none" stroke="#63b8ff" d="M740.36,-15C731.95,-15 723.49,-15 715.37,-15"/>
<polygon fill="#63b8ff" stroke="#63b8ff" points="740.56,-18.5 750.56,-15 740.56,-11.5 740.56,-18.5"/>
</a>
</g>
</g>
<!-- Node10 -->
<g id="Node000010" class="node">
<title>Node10</title>
<g id="a_Node000010"><a xlink:href="classHALSITL_1_1SITL__State.html#ae31c93a26ca780bb508dded2498e2e93" target="_top" xlink:title=" ">
<polygon fill="white" stroke="#666666" points="566,-30 453,-30 453,0 566,0 566,-30"/>
<text text-anchor="start" x="461" y="-18" font-family="Helvetica,sans-Serif" font-size="10.00">HALSITL::SITL_State</text>
<text text-anchor="middle" x="509.5" y="-7" font-family="Helvetica,sans-Serif" font-size="10.00">::_fdm_input_step</text>
</a>
</g>
</g>
<!-- Node9&#45;&gt;Node10 -->
<g id="edge9_Node000009_Node000010" class="edge">
<title>Node9&#45;&gt;Node10</title>
<g id="a_edge9_Node000009_Node000010"><a xlink:title=" ">
<path fill="none" stroke="#63b8ff" d="M591.92,-15C583.32,-15 574.57,-15 566.15,-15"/>
<polygon fill="#63b8ff" stroke="#63b8ff" points="591.93,-18.5 601.93,-15 591.93,-11.5 591.93,-18.5"/>
</a>
</g>
</g>
<!-- Node11 -->
<g id="Node000011" class="node">
<title>Node11</title>
<g id="a_Node000011"><a xlink:href="classHALSITL_1_1SITL__State.html#a3eeaf330efded46259bbf64fc53e6b9f" target="_top" xlink:title=" ">
<polygon fill="white" stroke="#666666" points="417,-30 304,-30 304,0 417,0 417,-30"/>
<text text-anchor="start" x="312" y="-18" font-family="Helvetica,sans-Serif" font-size="10.00">HALSITL::SITL_State</text>
<text text-anchor="middle" x="360.5" y="-7" font-family="Helvetica,sans-Serif" font-size="10.00">::wait_clock</text>
</a>
</g>
</g>
<!-- Node10&#45;&gt;Node11 -->
<g id="edge10_Node000010_Node000011" class="edge">
<title>Node10&#45;&gt;Node11</title>
<g id="a_edge10_Node000010_Node000011"><a xlink:title=" ">
<path fill="none" stroke="#63b8ff" d="M442.92,-15C434.32,-15 425.57,-15 417.15,-15"/>
<polygon fill="#63b8ff" stroke="#63b8ff" points="442.93,-18.5 452.93,-15 442.93,-11.5 442.93,-18.5"/>
</a>
</g>
</g>
<!-- Node12 -->
<g id="Node000012" class="node">
<title>Node12</title>
<g id="a_Node000012"><a xlink:href="classHALSITL_1_1Scheduler.html#a332cd2e17889c12f84b469eaf9f24fc8" target="_top" xlink:title=" ">
<polygon fill="white" stroke="#666666" points="268,-30 146,-30 146,0 268,0 268,-30"/>
<text text-anchor="start" x="154" y="-18" font-family="Helvetica,sans-Serif" font-size="10.00">HALSITL::Scheduler</text>
<text text-anchor="middle" x="207" y="-7" font-family="Helvetica,sans-Serif" font-size="10.00">::delay_microseconds</text>
</a>
</g>
</g>
<!-- Node11&#45;&gt;Node12 -->
<g id="edge11_Node000011_Node000012" class="edge">
<title>Node11&#45;&gt;Node12</title>
<g id="a_edge11_Node000011_Node000012"><a xlink:title=" ">
<path fill="none" stroke="#63b8ff" d="M293.7,-15C285.2,-15 276.54,-15 268.14,-15"/>
<polygon fill="#63b8ff" stroke="#63b8ff" points="293.95,-18.5 303.95,-15 293.95,-11.5 293.95,-18.5"/>
</a>
</g>
</g>
<!-- Node13 -->
<g id="Node000013" class="node">
<title>Node13</title>
<g id="a_Node000013"><a xlink:href="classHALSITL_1_1Scheduler.html#a8b298eda68e2de4c5c082f02dda3abd9" target="_top" xlink:title=" ">
<polygon fill="white" stroke="#666666" points="110,-30 0,-30 0,0 110,0 110,-30"/>
<text text-anchor="start" x="8" y="-18" font-family="Helvetica,sans-Serif" font-size="10.00">HALSITL::Scheduler</text>
<text text-anchor="middle" x="55" y="-7" font-family="Helvetica,sans-Serif" font-size="10.00">::delay</text>
</a>
</g>
</g>
<!-- Node12&#45;&gt;Node13 -->
<g id="edge12_Node000012_Node000013" class="edge">
<title>Node12&#45;&gt;Node13</title>
<g id="a_edge12_Node000012_Node000013"><a xlink:title=" ">
<path fill="none" stroke="#63b8ff" d="M135.58,-15C127.1,-15 118.54,-15 110.34,-15"/>
<polygon fill="#63b8ff" stroke="#63b8ff" points="135.85,-18.5 145.85,-15 135.85,-11.5 135.85,-18.5"/>
</a>
</g>
</g>
</g>
</svg>
