<?xml version="1.0" encoding="UTF-8" standalone="no"?>
<!DOCTYPE svg PUBLIC "-//W3C//DTD SVG 1.1//EN"
 "http://www.w3.org/Graphics/SVG/1.1/DTD/svg11.dtd">
<!-- Generated by graphviz version 2.43.0 (0)
 -->
<!-- Title: AP_HAL::Semaphore::take_nonblocking Pages: 1 -->
<svg width="1030pt" height="158pt"
 viewBox="0.00 0.00 1030.00 158.00" xmlns="http://www.w3.org/2000/svg" xmlns:xlink="http://www.w3.org/1999/xlink">
<g id="graph0" class="graph" transform="scale(1 1) rotate(0) translate(4 154)">
<title>AP_HAL::Semaphore::take_nonblocking</title>
<!-- Node1 -->
<g id="Node000001" class="node">
<title>Node1</title>
<g id="a_Node000001"><a xlink:title=" ">
<polygon fill="#999999" stroke="#666666" points="1022,-102 900,-102 900,-72 1022,-72 1022,-102"/>
<text text-anchor="start" x="908" y="-90" font-family="Helvetica,sans-Serif" font-size="10.00">AP_HAL::Semaphore::</text>
<text text-anchor="middle" x="961" y="-79" font-family="Helvetica,sans-Serif" font-size="10.00">take_nonblocking</text>
</a>
</g>
</g>
<!-- Node2 -->
<g id="Node000002" class="node">
<title>Node2</title>
<g id="a_Node000002"><a xlink:href="classLinux_1_1SPIUARTDriver.html#a371388d7e4a0f8e3551d341c2a5d9397" target="_top" xlink:title=" ">
<polygon fill="white" stroke="#666666" points="852,-150 732,-150 732,-120 852,-120 852,-150"/>
<text text-anchor="start" x="740" y="-138" font-family="Helvetica,sans-Serif" font-size="10.00">Linux::SPIUARTDriver</text>
<text text-anchor="middle" x="792" y="-127" font-family="Helvetica,sans-Serif" font-size="10.00">::_read_fd</text>
</a>
</g>
</g>
<!-- Node1&#45;&gt;Node2 -->
<g id="edge1_Node000001_Node000002" class="edge">
<title>Node1&#45;&gt;Node2</title>
<g id="a_edge1_Node000001_Node000002"><a xlink:title=" ">
<path fill="none" stroke="#63b8ff" d="M897.63,-104.93C880.37,-109.89 861.81,-115.22 845.2,-120"/>
<polygon fill="#63b8ff" stroke="#63b8ff" points="898.97,-108.18 907.62,-102.06 897.04,-101.45 898.97,-108.18"/>
</a>
</g>
</g>
<!-- Node3 -->
<g id="Node000003" class="node">
<title>Node3</title>
<g id="a_Node000003"><a xlink:href="classLinux_1_1SPIUARTDriver.html#a09a04929427e74e9933f4b78b12f044d" target="_top" xlink:title=" ">
<polygon fill="white" stroke="#666666" points="852,-102 732,-102 732,-72 852,-72 852,-102"/>
<text text-anchor="start" x="740" y="-90" font-family="Helvetica,sans-Serif" font-size="10.00">Linux::SPIUARTDriver</text>
<text text-anchor="middle" x="792" y="-79" font-family="Helvetica,sans-Serif" font-size="10.00">::_write_fd</text>
</a>
</g>
</g>
<!-- Node1&#45;&gt;Node3 -->
<g id="edge2_Node000001_Node000003" class="edge">
<title>Node1&#45;&gt;Node3</title>
<g id="a_edge2_Node000001_Node000003"><a xlink:title=" ">
<path fill="none" stroke="#63b8ff" d="M889.39,-87C876.97,-87 864.15,-87 852.08,-87"/>
<polygon fill="#63b8ff" stroke="#63b8ff" points="889.71,-90.5 899.71,-87 889.71,-83.5 889.71,-90.5"/>
</a>
</g>
</g>
<!-- Node4 -->
<g id="Node000004" class="node">
<title>Node4</title>
<g id="a_Node000004"><a xlink:href="classLinux_1_1RCOutput__PCA9685.html#a7fb21fe48e7a7ead89ced675463e953b" target="_top" xlink:title=" ">
<polygon fill="white" stroke="#666666" points="864,-54 720,-54 720,-24 864,-24 864,-54"/>
<text text-anchor="start" x="728" y="-42" font-family="Helvetica,sans-Serif" font-size="10.00">Linux::RCOutput_PCA9685</text>
<text text-anchor="middle" x="792" y="-31" font-family="Helvetica,sans-Serif" font-size="10.00">::push</text>
</a>
</g>
</g>
<!-- Node1&#45;&gt;Node4 -->
<g id="edge3_Node000001_Node000004" class="edge">
<title>Node1&#45;&gt;Node4</title>
<g id="a_edge3_Node000001_Node000004"><a xlink:title=" ">
<path fill="none" stroke="#63b8ff" d="M897.63,-69.07C880.37,-64.11 861.81,-58.78 845.2,-54"/>
<polygon fill="#63b8ff" stroke="#63b8ff" points="897.04,-72.55 907.62,-71.94 898.97,-65.82 897.04,-72.55"/>
</a>
</g>
</g>
<!-- Node5 -->
<g id="Node000005" class="node">
<title>Node5</title>
<g id="a_Node000005"><a xlink:href="classLinux_1_1RCOutput__PCA9685.html#a58429c0cb30299bc837e03673db287ce" target="_top" xlink:title=" ">
<polygon fill="white" stroke="#666666" points="684,-54 540,-54 540,-24 684,-24 684,-54"/>
<text text-anchor="start" x="548" y="-42" font-family="Helvetica,sans-Serif" font-size="10.00">Linux::RCOutput_PCA9685</text>
<text text-anchor="middle" x="612" y="-31" font-family="Helvetica,sans-Serif" font-size="10.00">::write_raw</text>
</a>
</g>
</g>
<!-- Node4&#45;&gt;Node5 -->
<g id="edge4_Node000004_Node000005" class="edge">
<title>Node4&#45;&gt;Node5</title>
<g id="a_edge4_Node000004_Node000005"><a xlink:title=" ">
<path fill="none" stroke="#63b8ff" d="M709.83,-39C701.21,-39 692.49,-39 684,-39"/>
<polygon fill="#63b8ff" stroke="#63b8ff" points="709.88,-42.5 719.88,-39 709.88,-35.5 709.88,-42.5"/>
</a>
</g>
</g>
<!-- Node6 -->
<g id="Node000006" class="node">
<title>Node6</title>
<g id="a_Node000006"><a xlink:href="classLinux_1_1RCOutput__PCA9685.html#a04226542722d6ebee89e3251bfae774d" target="_top" xlink:title=" ">
<polygon fill="white" stroke="#666666" points="504,-78 360,-78 360,-48 504,-48 504,-78"/>
<text text-anchor="start" x="368" y="-66" font-family="Helvetica,sans-Serif" font-size="10.00">Linux::RCOutput_PCA9685</text>
<text text-anchor="middle" x="432" y="-55" font-family="Helvetica,sans-Serif" font-size="10.00">::write</text>
</a>
</g>
</g>
<!-- Node5&#45;&gt;Node6 -->
<g id="edge5_Node000005_Node000006" class="edge">
<title>Node5&#45;&gt;Node6</title>
<g id="a_edge5_Node000005_Node000006"><a xlink:title=" ">
<path fill="none" stroke="#63b8ff" d="M529.83,-49.94C521.21,-51.11 512.49,-52.28 504,-53.43"/>
<polygon fill="#63b8ff" stroke="#63b8ff" points="530.44,-53.39 539.88,-48.59 529.5,-46.46 530.44,-53.39"/>
</a>
</g>
</g>
<!-- Node10 -->
<g id="Node000010" class="node">
<title>Node10</title>
<g id="a_Node000010"><a xlink:href="classLinux_1_1RCOutput__PCA9685.html#a270ebc7c1535afe6d52d1ad5d3351a05" target="_top" xlink:title=" ">
<polygon fill="white" stroke="#666666" points="504,-30 360,-30 360,0 504,0 504,-30"/>
<text text-anchor="start" x="368" y="-18" font-family="Helvetica,sans-Serif" font-size="10.00">Linux::RCOutput_PCA9685</text>
<text text-anchor="middle" x="432" y="-7" font-family="Helvetica,sans-Serif" font-size="10.00">::write_gpio</text>
</a>
</g>
</g>
<!-- Node5&#45;&gt;Node10 -->
<g id="edge9_Node000005_Node000010" class="edge">
<title>Node5&#45;&gt;Node10</title>
<g id="a_edge9_Node000005_Node000010"><a xlink:title=" ">
<path fill="none" stroke="#63b8ff" d="M529.83,-28.06C521.21,-26.89 512.49,-25.72 504,-24.57"/>
<polygon fill="#63b8ff" stroke="#63b8ff" points="529.5,-31.54 539.88,-29.41 530.44,-24.61 529.5,-31.54"/>
</a>
</g>
</g>
<!-- Node7 -->
<g id="Node000007" class="node">
<title>Node7</title>
<g id="a_Node000007"><a xlink:href="classLinux_1_1RCOutput__PCA9685.html#ae30bbd7762dc3a3fdabb075a51f858da" target="_top" xlink:title=" ">
<polygon fill="white" stroke="#666666" points="324,-102 180,-102 180,-72 324,-72 324,-102"/>
<text text-anchor="start" x="188" y="-90" font-family="Helvetica,sans-Serif" font-size="10.00">Linux::RCOutput_PCA9685</text>
<text text-anchor="middle" x="252" y="-79" font-family="Helvetica,sans-Serif" font-size="10.00">::disable_ch</text>
</a>
</g>
</g>
<!-- Node6&#45;&gt;Node7 -->
<g id="edge6_Node000006_Node000007" class="edge">
<title>Node6&#45;&gt;Node7</title>
<g id="a_edge6_Node000006_Node000007"><a xlink:title=" ">
<path fill="none" stroke="#63b8ff" d="M349.83,-73.94C341.21,-75.11 332.49,-76.28 324,-77.43"/>
<polygon fill="#63b8ff" stroke="#63b8ff" points="350.44,-77.39 359.88,-72.59 349.5,-70.46 350.44,-77.39"/>
</a>
</g>
</g>
<!-- Node8 -->
<g id="Node000008" class="node">
<title>Node8</title>
<g id="a_Node000008"><a xlink:href="classLinux_1_1RCOutput__PCA9685.html#a63ba719529b3d313611a28bca9549a52" target="_top" xlink:title=" ">
<polygon fill="white" stroke="#666666" points="324,-54 180,-54 180,-24 324,-24 324,-54"/>
<text text-anchor="start" x="188" y="-42" font-family="Helvetica,sans-Serif" font-size="10.00">Linux::RCOutput_PCA9685</text>
<text text-anchor="middle" x="252" y="-31" font-family="Helvetica,sans-Serif" font-size="10.00">::set_freq</text>
</a>
</g>
</g>
<!-- Node6&#45;&gt;Node8 -->
<g id="edge7_Node000006_Node000008" class="edge">
<title>Node6&#45;&gt;Node8</title>
<g id="a_edge7_Node000006_Node000008"><a xlink:title=" ">
<path fill="none" stroke="#63b8ff" d="M349.83,-52.06C341.21,-50.89 332.49,-49.72 324,-48.57"/>
<polygon fill="#63b8ff" stroke="#63b8ff" points="349.5,-55.54 359.88,-53.41 350.44,-48.61 349.5,-55.54"/>
</a>
</g>
</g>
<!-- Node9 -->
<g id="Node000009" class="node">
<title>Node9</title>
<g id="a_Node000009"><a xlink:href="classLinux_1_1RCOutput__PCA9685.html#a3dd80dc4c212369c788655a337afa18e" target="_top" xlink:title=" ">
<polygon fill="white" stroke="#666666" points="144,-54 0,-54 0,-24 144,-24 144,-54"/>
<text text-anchor="start" x="8" y="-42" font-family="Helvetica,sans-Serif" font-size="10.00">Linux::RCOutput_PCA9685</text>
<text text-anchor="middle" x="72" y="-31" font-family="Helvetica,sans-Serif" font-size="10.00">::init</text>
</a>
</g>
</g>
<!-- Node8&#45;&gt;Node9 -->
<g id="edge8_Node000008_Node000009" class="edge">
<title>Node8&#45;&gt;Node9</title>
<g id="a_edge8_Node000008_Node000009"><a xlink:title=" ">
<path fill="none" stroke="#63b8ff" d="M169.83,-39C161.21,-39 152.49,-39 144,-39"/>
<polygon fill="#63b8ff" stroke="#63b8ff" points="169.88,-42.5 179.88,-39 169.88,-35.5 169.88,-42.5"/>
</a>
</g>
</g>
</g>
</svg>
