<?xml version="1.0" encoding="UTF-8" standalone="no"?>
<!DOCTYPE svg PUBLIC "-//W3C//DTD SVG 1.1//EN"
 "http://www.w3.org/Graphics/SVG/1.1/DTD/svg11.dtd">
<!-- Generated by graphviz version 2.43.0 (0)
 -->
<!-- Title: AP_BattMonitor_Backend::update_resistance_estimate Pages: 1 -->
<svg width="811pt" height="186pt"
 viewBox="0.00 0.00 811.00 185.50" xmlns="http://www.w3.org/2000/svg" xmlns:xlink="http://www.w3.org/1999/xlink">
<g id="graph0" class="graph" transform="scale(1 1) rotate(0) translate(4 181.5)">
<title>AP_BattMonitor_Backend::update_resistance_estimate</title>
<!-- Node1 -->
<g id="Node000001" class="node">
<title>Node1</title>
<g id="a_Node000001"><a xlink:title=" ">
<polygon fill="#999999" stroke="#666666" points="161,-106.5 0,-106.5 0,-76.5 161,-76.5 161,-106.5"/>
<text text-anchor="start" x="8" y="-94.5" font-family="Helvetica,sans-Serif" font-size="10.00">AP_BattMonitor_Backend</text>
<text text-anchor="middle" x="80.5" y="-83.5" font-family="Helvetica,sans-Serif" font-size="10.00">::update_resistance_estimate</text>
</a>
</g>
</g>
<!-- Node2 -->
<g id="Node000002" class="node">
<title>Node2</title>
<g id="a_Node000002"><a xlink:href="classAP__BattMonitor__Backend.html#a7c777a6ffefabc4c241a98ddb5be1350" target="_top" xlink:title="returns true if battery monitor instance provides current info">
<polygon fill="white" stroke="#666666" points="336,-177.5 197,-177.5 197,-147.5 336,-147.5 336,-177.5"/>
<text text-anchor="start" x="205" y="-165.5" font-family="Helvetica,sans-Serif" font-size="10.00">AP_BattMonitor_Backend</text>
<text text-anchor="middle" x="266.5" y="-154.5" font-family="Helvetica,sans-Serif" font-size="10.00">::has_current</text>
</a>
</g>
</g>
<!-- Node1&#45;&gt;Node2 -->
<g id="edge1_Node000001_Node000002" class="edge">
<title>Node1&#45;&gt;Node2</title>
<g id="a_edge1_Node000001_Node000002"><a xlink:title=" ">
<path fill="none" stroke="#63b8ff" d="M117.22,-106.57C139.95,-116.02 170.07,-128.31 197,-138.5 201.81,-140.32 206.83,-142.17 211.87,-144"/>
<polygon fill="#63b8ff" stroke="#63b8ff" points="210.94,-147.38 221.53,-147.46 213.3,-140.79 210.94,-147.38"/>
</a>
</g>
</g>
<!-- Node3 -->
<g id="Node000003" class="node">
<title>Node3</title>
<g id="a_Node000003"><a xlink:href="AP__Math_8h.html#a4e3ae698e8f99cec214348ad233e3c41" target="_top" xlink:title=" ">
<polygon fill="white" stroke="#666666" points="301,-129 232,-129 232,-110 301,-110 301,-129"/>
<text text-anchor="middle" x="266.5" y="-117" font-family="Helvetica,sans-Serif" font-size="10.00">is_positive</text>
</a>
</g>
</g>
<!-- Node1&#45;&gt;Node3 -->
<g id="edge2_Node000001_Node000003" class="edge">
<title>Node1&#45;&gt;Node3</title>
<g id="a_edge2_Node000001_Node000003"><a xlink:title=" ">
<path fill="none" stroke="#63b8ff" d="M161.13,-103.62C182.02,-106.8 203.76,-110.11 221.97,-112.88"/>
<polygon fill="#63b8ff" stroke="#63b8ff" points="221.55,-116.35 231.97,-114.4 222.61,-109.43 221.55,-116.35"/>
</a>
</g>
</g>
<!-- Node4 -->
<g id="Node000004" class="node">
<title>Node4</title>
<g id="a_Node000004"><a xlink:href="AP__Math_8h.html#a2a12cce483e9b870da70d30406d82c60" target="_top" xlink:title=" ">
<polygon fill="white" stroke="#666666" points="292,-74 241,-74 241,-55 292,-55 292,-74"/>
<text text-anchor="middle" x="266.5" y="-62" font-family="Helvetica,sans-Serif" font-size="10.00">is_zero</text>
</a>
</g>
</g>
<!-- Node1&#45;&gt;Node4 -->
<g id="edge3_Node000001_Node000004" class="edge">
<title>Node1&#45;&gt;Node4</title>
<g id="a_edge3_Node000001_Node000004"><a xlink:title=" ">
<path fill="none" stroke="#63b8ff" d="M161.13,-79.81C185.5,-76.24 211.05,-72.49 230.77,-69.6"/>
<polygon fill="#63b8ff" stroke="#63b8ff" points="231.41,-73.04 240.8,-68.12 230.4,-66.11 231.41,-73.04"/>
</a>
</g>
</g>
<!-- Node5 -->
<g id="Node000005" class="node">
<title>Node5</title>
<g id="a_Node000005"><a xlink:href="namespaceAP__HAL.html#a77dffbb18891996280308e21316ec186" target="_top" xlink:title=" ">
<polygon fill="white" stroke="#666666" points="310,-37 223,-37 223,-18 310,-18 310,-37"/>
<text text-anchor="middle" x="266.5" y="-25" font-family="Helvetica,sans-Serif" font-size="10.00">AP_HAL::millis</text>
</a>
</g>
</g>
<!-- Node1&#45;&gt;Node5 -->
<g id="edge5_Node000001_Node000005" class="edge">
<title>Node1&#45;&gt;Node5</title>
<g id="a_edge5_Node000001_Node000005"><a xlink:title=" ">
<path fill="none" stroke="#63b8ff" d="M117.31,-76.47C139.95,-67.24 169.94,-55.5 197,-46.5 203.92,-44.2 211.3,-41.94 218.56,-39.84"/>
<polygon fill="#63b8ff" stroke="#63b8ff" points="219.65,-43.17 228.32,-37.08 217.75,-36.43 219.65,-43.17"/>
</a>
</g>
</g>
<!-- Node4&#45;&gt;Node4 -->
<g id="edge4_Node000004_Node000004" class="edge">
<title>Node4&#45;&gt;Node4</title>
<g id="a_edge4_Node000004_Node000004"><a xlink:title=" ">
<path fill="none" stroke="#63b8ff" d="M244.61,-74.08C233.97,-82.73 241.26,-92 266.5,-92 282.67,-92 291.47,-88.2 292.91,-83.19"/>
<polygon fill="#63b8ff" stroke="#63b8ff" points="295.97,-81.48 288.39,-74.08 289.7,-84.6 295.97,-81.48"/>
</a>
</g>
</g>
<!-- Node6 -->
<g id="Node000006" class="node">
<title>Node6</title>
<g id="a_Node000006"><a xlink:href="hrt_8c.html#a1295f128f60d29874243b5733c4db025" target="_top" xlink:title=" ">
<polygon fill="white" stroke="#666666" points="446,-37 372,-37 372,-18 446,-18 446,-37"/>
<text text-anchor="middle" x="409" y="-25" font-family="Helvetica,sans-Serif" font-size="10.00">hrt_millis32</text>
</a>
</g>
</g>
<!-- Node5&#45;&gt;Node6 -->
<g id="edge6_Node000005_Node000006" class="edge">
<title>Node5&#45;&gt;Node6</title>
<g id="a_edge6_Node000005_Node000006"><a xlink:title=" ">
<path fill="none" stroke="#63b8ff" d="M310.04,-27.5C326.36,-27.5 345.05,-27.5 361.71,-27.5"/>
<polygon fill="#63b8ff" stroke="#63b8ff" points="361.77,-31 371.77,-27.5 361.77,-24 361.77,-31"/>
</a>
</g>
</g>
<!-- Node7 -->
<g id="Node000007" class="node">
<title>Node7</title>
<g id="a_Node000007"><a xlink:href="hrt_8c.html#a7dd7d90aadd8f76f26da7d5abfad6fe8" target="_top" xlink:title=" ">
<polygon fill="white" stroke="#666666" points="556,-37 482,-37 482,-18 556,-18 556,-37"/>
<text text-anchor="middle" x="519" y="-25" font-family="Helvetica,sans-Serif" font-size="10.00">hrt_millis64</text>
</a>
</g>
</g>
<!-- Node6&#45;&gt;Node7 -->
<g id="edge7_Node000006_Node000007" class="edge">
<title>Node6&#45;&gt;Node7</title>
<g id="a_edge7_Node000006_Node000007"><a xlink:title=" ">
<path fill="none" stroke="#63b8ff" d="M446.26,-27.5C454.37,-27.5 463.07,-27.5 471.52,-27.5"/>
<polygon fill="#63b8ff" stroke="#63b8ff" points="471.65,-31 481.65,-27.5 471.65,-24 471.65,-31"/>
</a>
</g>
</g>
<!-- Node8 -->
<g id="Node000008" class="node">
<title>Node8</title>
<g id="a_Node000008"><a xlink:href="hrt_8c.html#a152c3348a8e83f2dfe35b44cc2e30362" target="_top" xlink:title=" ">
<polygon fill="white" stroke="#666666" points="678,-56 598,-56 598,-37 678,-37 678,-56"/>
<text text-anchor="middle" x="638" y="-44" font-family="Helvetica,sans-Serif" font-size="10.00">hrt_micros64</text>
</a>
</g>
</g>
<!-- Node7&#45;&gt;Node8 -->
<g id="edge8_Node000007_Node000008" class="edge">
<title>Node7&#45;&gt;Node8</title>
<g id="a_edge8_Node000007_Node000008"><a xlink:title=" ">
<path fill="none" stroke="#63b8ff" d="M556.06,-33.36C566.03,-34.98 577.03,-36.76 587.62,-38.48"/>
<polygon fill="#63b8ff" stroke="#63b8ff" points="587.17,-41.95 597.6,-40.1 588.29,-35.04 587.17,-41.95"/>
</a>
</g>
</g>
<!-- Node11 -->
<g id="Node000011" class="node">
<title>Node11</title>
<g id="a_Node000011"><a xlink:href="div1000_8h.html#aece9e7f123414c41d0426fbadca097d8" target="_top" xlink:title=" ">
<polygon fill="white" stroke="#666666" points="684,-19 592,-19 592,0 684,0 684,-19"/>
<text text-anchor="middle" x="638" y="-7" font-family="Helvetica,sans-Serif" font-size="10.00">uint64_div1000</text>
</a>
</g>
</g>
<!-- Node7&#45;&gt;Node11 -->
<g id="edge11_Node000007_Node000011" class="edge">
<title>Node7&#45;&gt;Node11</title>
<g id="a_edge11_Node000007_Node000011"><a xlink:title=" ">
<path fill="none" stroke="#63b8ff" d="M556.06,-21.95C564.17,-20.71 572.95,-19.35 581.64,-18.02"/>
<polygon fill="#63b8ff" stroke="#63b8ff" points="582.41,-21.44 591.76,-16.46 581.34,-14.52 582.41,-21.44"/>
</a>
</g>
</g>
<!-- Node9 -->
<g id="Node000009" class="node">
<title>Node9</title>
<g id="a_Node000009"><a xlink:href="hrt_8c.html#a5b4ffc7ff86bd5b893c4a98834e80200" target="_top" xlink:title=" ">
<polygon fill="white" stroke="#666666" points="803,-75 720,-75 720,-56 803,-56 803,-75"/>
<text text-anchor="middle" x="761.5" y="-63" font-family="Helvetica,sans-Serif" font-size="10.00">hrt_micros64I</text>
</a>
</g>
</g>
<!-- Node8&#45;&gt;Node9 -->
<g id="edge9_Node000008_Node000009" class="edge">
<title>Node8&#45;&gt;Node9</title>
<g id="a_edge9_Node000008_Node000009"><a xlink:title=" ">
<path fill="none" stroke="#63b8ff" d="M678.11,-52.62C688.21,-54.19 699.22,-55.92 709.81,-57.57"/>
<polygon fill="#63b8ff" stroke="#63b8ff" points="709.37,-61.05 719.79,-59.13 710.45,-54.13 709.37,-61.05"/>
</a>
</g>
</g>
<!-- Node10 -->
<g id="Node000010" class="node">
<title>Node10</title>
<g id="a_Node000010"><a xlink:href="hrt_8c.html#a723fef85be7bacb834af35445a891c18" target="_top" xlink:title=" ">
<polygon fill="white" stroke="#666666" points="792.5,-38 730.5,-38 730.5,-19 792.5,-19 792.5,-38"/>
<text text-anchor="middle" x="761.5" y="-26" font-family="Helvetica,sans-Serif" font-size="10.00">is_locked</text>
</a>
</g>
</g>
<!-- Node8&#45;&gt;Node10 -->
<g id="edge10_Node000008_Node000010" class="edge">
<title>Node8&#45;&gt;Node10</title>
<g id="a_edge10_Node000008_Node000010"><a xlink:title=" ">
<path fill="none" stroke="#63b8ff" d="M678.11,-40.71C691.6,-38.71 706.73,-36.47 720.3,-34.46"/>
<polygon fill="#63b8ff" stroke="#63b8ff" points="720.95,-37.9 730.32,-32.97 719.92,-30.97 720.95,-37.9"/>
</a>
</g>
</g>
</g>
</svg>
