<?xml version="1.0" encoding="UTF-8" standalone="no"?>
<!DOCTYPE svg PUBLIC "-//W3C//DTD SVG 1.1//EN"
 "http://www.w3.org/Graphics/SVG/1.1/DTD/svg11.dtd">
<!-- Generated by graphviz version 2.43.0 (0)
 -->
<!-- Title: ReplayGyroFFT::loop Pages: 1 -->
<!--zoomable 290 -->

<svg id="main" version="1.1" xmlns="http://www.w3.org/2000/svg" xmlns:xlink="http://www.w3.org/1999/xlink" xml:space="preserve" onload="init(evt)">
<style type="text/css"><![CDATA[
.node, .edge {opacity: 0.7;}
.node.selected, .edge.selected {opacity: 1;}
.edge:hover path { stroke: red; }
.edge:hover polygon { stroke: red; fill: red; }
]]></style>

<defs>
  <circle id="rim" cx="0" cy="0" r="7"/>
  <circle id="rim2" cx="0" cy="0" r="3.5"/>
  <g id="zoomPlus">
    <use xlink:href="#rim" fill="#404040"><set attributeName="fill" to="#808080" begin="zoomplus.mouseover" end="zoomplus.mouseout"/></use>
    <path d="M-4,0h8M0,-4v8" fill="none" stroke="white" stroke-width="1.5" pointer-events="none"/>
  </g>
  <g id="zoomMin">
    <use xlink:href="#rim" fill="#404040"><set attributeName="fill" to="#808080" begin="zoomminus.mouseover" end="zoomminus.mouseout"/></use>
    <path d="M-4,0h8" fill="none" stroke="white" stroke-width="1.5" pointer-events="none"/>
  </g>
  <g id="arrowUp" transform="translate(30 24)">
    <use xlink:href="#rim"/>
    <path pointer-events="none" fill="none" stroke="white" stroke-width="1.5" d="M0,-3.0v7 M-2.5,-0.5L0,-3.0L2.5,-0.5"/>
  </g>
  <g id="arrowRight" transform="rotate(90) translate(36 -43)">
    <use xlink:href="#rim"/>
    <path pointer-events="none" fill="none" stroke="white" stroke-width="1.5" d="M0,-3.0v7 M-2.5,-0.5L0,-3.0L2.5,-0.5"/>
  </g>
  <g id="arrowDown" transform="rotate(180) translate(-30 -48)">
    <use xlink:href="#rim"/>
    <path pointer-events="none" fill="none" stroke="white" stroke-width="1.5" d="M0,-3.0v7 M-2.5,-0.5L0,-3.0L2.5,-0.5"/>
  </g>
  <g id="arrowLeft" transform="rotate(270) translate(-36 17)">
    <use xlink:href="#rim"/>
    <path pointer-events="none" fill="none" stroke="white" stroke-width="1.5" d="M0,-3.0v7 M-2.5,-0.5L0,-3.0L2.5,-0.5"/>
  </g>
  <g id="resetDef">
    <use xlink:href="#rim2" fill="#404040"><set attributeName="fill" to="#808080" begin="reset.mouseover" end="reset.mouseout"/></use>
  </g>
</defs>
<script type="application/ecmascript">
var viewWidth = 859;
var viewHeight = 290;
var sectionId = 'dynsection-1';
</script>
<script type="application/ecmascript" xlink:href="svg.min.js"/>
<svg id="graph" class="graph">
<g id="viewport">
<title>ReplayGyroFFT::loop</title>
<!-- Node1 -->
<g id="Node000001" class="node">
<title>Node1</title>
<g id="a_Node000001"><a xlink:title=" ">
<polygon fill="#999999" stroke="#666666" points="117,-153 0,-153 0,-134 117,-134 117,-153"/>
<text text-anchor="middle" x="58.5" y="-141" font-family="Helvetica,sans-Serif" font-size="10.00">ReplayGyroFFT::loop</text>
</a>
</g>
</g>
<!-- Node2 -->
<g id="Node000002" class="node">
<title>Node2</title>
<g id="a_Node000002"><a xlink:href="classArming.html#a07d94118eb36f78553b7c5dab9e96052" target="_top" xlink:title=" ">
<polygon fill="white" stroke="#666666" points="264.5,-282 187.5,-282 187.5,-263 264.5,-263 264.5,-282"/>
<text text-anchor="middle" x="226" y="-270" font-family="Helvetica,sans-Serif" font-size="10.00">Arming::arm</text>
</a>
</g>
</g>
<!-- Node1&#45;&gt;Node2 -->
<g id="edge1_Node000001_Node000002" class="edge">
<title>Node1&#45;&gt;Node2</title>
<g id="a_edge1_Node000001_Node000002"><a xlink:title=" ">
<path fill="none" stroke="#63b8ff" d="M64.83,-153.28C77.23,-175.08 110.25,-227.82 153,-254.5 160.39,-259.11 168.89,-262.54 177.4,-265.09"/>
<polygon fill="#63b8ff" stroke="#63b8ff" points="176.78,-268.54 187.34,-267.7 178.56,-261.77 176.78,-268.54"/>
</a>
</g>
</g>
<!-- Node3 -->
<g id="Node000003" class="node">
<title>Node3</title>
<g id="a_Node000003"><a xlink:href="classAP__Arming.html#a4b6025d0ed4162537933ae0514bf5dca" target="_top" xlink:title=" ">
<polygon fill="white" stroke="#666666" points="286.5,-245 165.5,-245 165.5,-226 286.5,-226 286.5,-245"/>
<text text-anchor="middle" x="226" y="-233" font-family="Helvetica,sans-Serif" font-size="10.00">AP_Arming::is_armed</text>
</a>
</g>
</g>
<!-- Node1&#45;&gt;Node3 -->
<g id="edge2_Node000001_Node000003" class="edge">
<title>Node1&#45;&gt;Node3</title>
<g id="a_edge2_Node000001_Node000003"><a xlink:title=" ">
<path fill="none" stroke="#63b8ff" d="M68.65,-153.01C84.39,-168.8 118.26,-200.41 153,-217.5 156.84,-219.39 160.89,-221.09 165.04,-222.62"/>
<polygon fill="#63b8ff" stroke="#63b8ff" points="164.23,-226.04 174.83,-225.89 166.45,-219.4 164.23,-226.04"/>
</a>
</g>
</g>
<!-- Node5 -->
<g id="Node000005" class="node">
<title>Node5</title>
<g id="a_Node000005"><a xlink:href="namespaceAP__HAL.html#a77dffbb18891996280308e21316ec186" target="_top" xlink:title=" ">
<polygon fill="white" stroke="#666666" points="269.5,-208 182.5,-208 182.5,-189 269.5,-189 269.5,-208"/>
<text text-anchor="middle" x="226" y="-196" font-family="Helvetica,sans-Serif" font-size="10.00">AP_HAL::millis</text>
</a>
</g>
</g>
<!-- Node1&#45;&gt;Node5 -->
<g id="edge4_Node000001_Node000005" class="edge">
<title>Node1&#45;&gt;Node5</title>
<g id="a_edge4_Node000001_Node000005"><a xlink:title=" ">
<path fill="none" stroke="#63b8ff" d="M81.49,-153.16C100.25,-161.16 128.07,-172.49 153,-180.5 159.43,-182.57 166.24,-184.54 173.01,-186.37"/>
<polygon fill="#63b8ff" stroke="#63b8ff" points="172.3,-189.8 182.86,-188.95 174.07,-183.03 172.3,-189.8"/>
</a>
</g>
</g>
<!-- Node12 -->
<g id="Node000012" class="node">
<title>Node12</title>
<g id="a_Node000012"><a xlink:href="classAP__Logger.html#a682fba8208fd249646e187eb49ab41e8" target="_top" xlink:title=" ">
<polygon fill="white" stroke="#666666" points="299,-153 153,-153 153,-134 299,-134 299,-153"/>
<text text-anchor="middle" x="226" y="-141" font-family="Helvetica,sans-Serif" font-size="10.00">AP_Logger::PrepForArming</text>
</a>
</g>
</g>
<!-- Node1&#45;&gt;Node12 -->
<g id="edge11_Node000001_Node000012" class="edge">
<title>Node1&#45;&gt;Node12</title>
<g id="a_edge11_Node000001_Node000012"><a xlink:title=" ">
<path fill="none" stroke="#63b8ff" d="M117.38,-143.5C125.62,-143.5 134.23,-143.5 142.82,-143.5"/>
<polygon fill="#63b8ff" stroke="#63b8ff" points="142.89,-147 152.89,-143.5 142.89,-140 142.89,-147"/>
</a>
</g>
</g>
<!-- Node13 -->
<g id="Node000013" class="node">
<title>Node13</title>
<g id="a_Node000013"><a xlink:href="classAP__HAL_1_1BetterStream.html#a8534aa004599bb81ad60f3e762791032" target="_top" xlink:title=" ">
<polygon fill="white" stroke="#666666" points="288.5,-115.5 163.5,-115.5 163.5,-85.5 288.5,-85.5 288.5,-115.5"/>
<text text-anchor="start" x="171.5" y="-103.5" font-family="Helvetica,sans-Serif" font-size="10.00">AP_HAL::BetterStream</text>
<text text-anchor="middle" x="226" y="-92.5" font-family="Helvetica,sans-Serif" font-size="10.00">::printf</text>
</a>
</g>
</g>
<!-- Node1&#45;&gt;Node13 -->
<g id="edge13_Node000001_Node000013" class="edge">
<title>Node1&#45;&gt;Node13</title>
<g id="a_edge13_Node000001_Node000013"><a xlink:title=" ">
<path fill="none" stroke="#63b8ff" d="M96.23,-133.96C114.23,-129.28 136.5,-123.49 157.42,-118.06"/>
<polygon fill="#63b8ff" stroke="#63b8ff" points="158.44,-121.41 167.24,-115.51 156.68,-114.63 158.44,-121.41"/>
</a>
</g>
</g>
<!-- Node16 -->
<g id="Node000016" class="node">
<title>Node16</title>
<g id="a_Node000016"><a xlink:href="classAP__Logger.html#ada8328cee0a4d5e6b64a235a5d2f273b" target="_top" xlink:title=" ">
<polygon fill="white" stroke="#666666" points="290.5,-67.5 161.5,-67.5 161.5,-37.5 290.5,-37.5 290.5,-67.5"/>
<text text-anchor="start" x="169.5" y="-55.5" font-family="Helvetica,sans-Serif" font-size="10.00">AP_Logger::set_vehicle</text>
<text text-anchor="middle" x="226" y="-44.5" font-family="Helvetica,sans-Serif" font-size="10.00">_armed</text>
</a>
</g>
</g>
<!-- Node1&#45;&gt;Node16 -->
<g id="edge16_Node000001_Node000016" class="edge">
<title>Node1&#45;&gt;Node16</title>
<g id="a_edge16_Node000001_Node000016"><a xlink:title=" ">
<path fill="none" stroke="#63b8ff" d="M70.58,-133.85C87.39,-119.62 120.8,-92.93 153,-76.5 156.53,-74.7 160.22,-72.99 164,-71.38"/>
<polygon fill="#63b8ff" stroke="#63b8ff" points="165.51,-74.54 173.48,-67.56 162.9,-68.05 165.51,-74.54"/>
</a>
</g>
</g>
<!-- Node17 -->
<g id="Node000017" class="node">
<title>Node17</title>
<g id="a_Node000017"><a xlink:href="classAP__HAL_1_1RCOutput.html#ade771f122696035c1e831ccc63a33893" target="_top" xlink:title=" ">
<polygon fill="white" stroke="#666666" points="294.5,-19 157.5,-19 157.5,0 294.5,0 294.5,-19"/>
<text text-anchor="middle" x="226" y="-7" font-family="Helvetica,sans-Serif" font-size="10.00">AP_HAL::RCOutput::write</text>
</a>
</g>
</g>
<!-- Node1&#45;&gt;Node17 -->
<g id="edge17_Node000001_Node000017" class="edge">
<title>Node1&#45;&gt;Node17</title>
<g id="a_edge17_Node000001_Node000017"><a xlink:title=" ">
<path fill="none" stroke="#63b8ff" d="M64.58,-133.74C76.69,-111.44 109.54,-56.54 153,-28.5 156.17,-26.45 159.56,-24.62 163.07,-22.99"/>
<polygon fill="#63b8ff" stroke="#63b8ff" points="164.65,-26.13 172.59,-19.12 162.01,-19.65 164.65,-26.13"/>
</a>
</g>
</g>
<!-- Node4 -->
<g id="Node000004" class="node">
<title>Node4</title>
<g id="a_Node000004"><a xlink:href="classAP__Arming.html#ad1aeda71b7360ca68d532178e0e7f0d0" target="_top" xlink:title=" ">
<polygon fill="white" stroke="#666666" points="491,-245 335,-245 335,-226 491,-226 491,-245"/>
<text text-anchor="middle" x="413" y="-233" font-family="Helvetica,sans-Serif" font-size="10.00">AP_Arming::arming_required</text>
</a>
</g>
</g>
<!-- Node3&#45;&gt;Node4 -->
<g id="edge3_Node000003_Node000004" class="edge">
<title>Node3&#45;&gt;Node4</title>
<g id="a_edge3_Node000003_Node000004"><a xlink:title=" ">
<path fill="none" stroke="#63b8ff" d="M286.55,-235.5C298.72,-235.5 311.77,-235.5 324.67,-235.5"/>
<polygon fill="#63b8ff" stroke="#63b8ff" points="324.98,-239 334.98,-235.5 324.98,-232 324.98,-239"/>
</a>
</g>
</g>
<!-- Node6 -->
<g id="Node000006" class="node">
<title>Node6</title>
<g id="a_Node000006"><a xlink:href="hrt_8c.html#a1295f128f60d29874243b5733c4db025" target="_top" xlink:title=" ">
<polygon fill="white" stroke="#666666" points="450,-208 376,-208 376,-189 450,-189 450,-208"/>
<text text-anchor="middle" x="413" y="-196" font-family="Helvetica,sans-Serif" font-size="10.00">hrt_millis32</text>
</a>
</g>
</g>
<!-- Node5&#45;&gt;Node6 -->
<g id="edge5_Node000005_Node000006" class="edge">
<title>Node5&#45;&gt;Node6</title>
<g id="a_edge5_Node000005_Node000006"><a xlink:title=" ">
<path fill="none" stroke="#63b8ff" d="M269.91,-198.5C298.65,-198.5 336.46,-198.5 365.85,-198.5"/>
<polygon fill="#63b8ff" stroke="#63b8ff" points="365.86,-202 375.86,-198.5 365.86,-195 365.86,-202"/>
</a>
</g>
</g>
<!-- Node7 -->
<g id="Node000007" class="node">
<title>Node7</title>
<g id="a_Node000007"><a xlink:href="hrt_8c.html#a7dd7d90aadd8f76f26da7d5abfad6fe8" target="_top" xlink:title=" ">
<polygon fill="white" stroke="#666666" points="602.5,-208 528.5,-208 528.5,-189 602.5,-189 602.5,-208"/>
<text text-anchor="middle" x="565.5" y="-196" font-family="Helvetica,sans-Serif" font-size="10.00">hrt_millis64</text>
</a>
</g>
</g>
<!-- Node6&#45;&gt;Node7 -->
<g id="edge6_Node000006_Node000007" class="edge">
<title>Node6&#45;&gt;Node7</title>
<g id="a_edge6_Node000006_Node000007"><a xlink:title=" ">
<path fill="none" stroke="#63b8ff" d="M450.05,-198.5C470.54,-198.5 496.42,-198.5 518.38,-198.5"/>
<polygon fill="#63b8ff" stroke="#63b8ff" points="518.49,-202 528.49,-198.5 518.49,-195 518.49,-202"/>
</a>
</g>
</g>
<!-- Node8 -->
<g id="Node000008" class="node">
<title>Node8</title>
<g id="a_Node000008"><a xlink:href="hrt_8c.html#a152c3348a8e83f2dfe35b44cc2e30362" target="_top" xlink:title=" ">
<polygon fill="white" stroke="#666666" points="726,-227 646,-227 646,-208 726,-208 726,-227"/>
<text text-anchor="middle" x="686" y="-215" font-family="Helvetica,sans-Serif" font-size="10.00">hrt_micros64</text>
</a>
</g>
</g>
<!-- Node7&#45;&gt;Node8 -->
<g id="edge7_Node000007_Node000008" class="edge">
<title>Node7&#45;&gt;Node8</title>
<g id="a_edge7_Node000007_Node000008"><a xlink:title=" ">
<path fill="none" stroke="#63b8ff" d="M602.7,-204.3C613.12,-205.97 624.67,-207.83 635.74,-209.6"/>
<polygon fill="#63b8ff" stroke="#63b8ff" points="635.3,-213.08 645.73,-211.2 636.41,-206.16 635.3,-213.08"/>
</a>
</g>
</g>
<!-- Node11 -->
<g id="Node000011" class="node">
<title>Node11</title>
<g id="a_Node000011"><a xlink:href="div1000_8h.html#aece9e7f123414c41d0426fbadca097d8" target="_top" xlink:title=" ">
<polygon fill="white" stroke="#666666" points="732,-190 640,-190 640,-171 732,-171 732,-190"/>
<text text-anchor="middle" x="686" y="-178" font-family="Helvetica,sans-Serif" font-size="10.00">uint64_div1000</text>
</a>
</g>
</g>
<!-- Node7&#45;&gt;Node11 -->
<g id="edge10_Node000007_Node000011" class="edge">
<title>Node7&#45;&gt;Node11</title>
<g id="a_edge10_Node000007_Node000011"><a xlink:title=" ">
<path fill="none" stroke="#63b8ff" d="M602.7,-193C611.3,-191.7 620.66,-190.27 629.89,-188.87"/>
<polygon fill="#63b8ff" stroke="#63b8ff" points="630.45,-192.33 639.81,-187.36 629.4,-185.41 630.45,-192.33"/>
</a>
</g>
</g>
<!-- Node9 -->
<g id="Node000009" class="node">
<title>Node9</title>
<g id="a_Node000009"><a xlink:href="hrt_8c.html#a5b4ffc7ff86bd5b893c4a98834e80200" target="_top" xlink:title=" ">
<polygon fill="white" stroke="#666666" points="851,-246 768,-246 768,-227 851,-227 851,-246"/>
<text text-anchor="middle" x="809.5" y="-234" font-family="Helvetica,sans-Serif" font-size="10.00">hrt_micros64I</text>
</a>
</g>
</g>
<!-- Node8&#45;&gt;Node9 -->
<g id="edge8_Node000008_Node000009" class="edge">
<title>Node8&#45;&gt;Node9</title>
<g id="a_edge8_Node000008_Node000009"><a xlink:title=" ">
<path fill="none" stroke="#63b8ff" d="M726.11,-223.62C736.21,-225.19 747.22,-226.92 757.81,-228.57"/>
<polygon fill="#63b8ff" stroke="#63b8ff" points="757.37,-232.05 767.79,-230.13 758.45,-225.13 757.37,-232.05"/>
</a>
</g>
</g>
<!-- Node10 -->
<g id="Node000010" class="node">
<title>Node10</title>
<g id="a_Node000010"><a xlink:href="hrt_8c.html#a723fef85be7bacb834af35445a891c18" target="_top" xlink:title=" ">
<polygon fill="white" stroke="#666666" points="840.5,-209 778.5,-209 778.5,-190 840.5,-190 840.5,-209"/>
<text text-anchor="middle" x="809.5" y="-197" font-family="Helvetica,sans-Serif" font-size="10.00">is_locked</text>
</a>
</g>
</g>
<!-- Node8&#45;&gt;Node10 -->
<g id="edge9_Node000008_Node000010" class="edge">
<title>Node8&#45;&gt;Node10</title>
<g id="a_edge9_Node000008_Node000010"><a xlink:title=" ">
<path fill="none" stroke="#63b8ff" d="M726.11,-211.71C739.6,-209.71 754.73,-207.47 768.3,-205.46"/>
<polygon fill="#63b8ff" stroke="#63b8ff" points="768.95,-208.9 778.32,-203.97 767.92,-201.97 768.95,-208.9"/>
</a>
</g>
</g>
<!-- Node12&#45;&gt;Node12 -->
<g id="edge12_Node000012_Node000012" class="edge">
<title>Node12&#45;&gt;Node12</title>
<g id="a_edge12_Node000012_Node000012"><a xlink:title=" ">
<path fill="none" stroke="#63b8ff" d="M200.41,-153.08C187.97,-161.73 196.5,-171 226,-171 245.36,-171 255.69,-167.01 256.99,-161.82"/>
<polygon fill="#63b8ff" stroke="#63b8ff" points="259.82,-159.75 251.59,-153.08 253.87,-163.43 259.82,-159.75"/>
</a>
</g>
</g>
<!-- Node14 -->
<g id="Node000014" class="node">
<title>Node14</title>
<g id="a_Node000014"><a xlink:href="classAP__HAL_1_1BetterStream.html#aa730be451d385d7ba03ee9677e6d91a2" target="_top" xlink:title=" ">
<polygon fill="white" stroke="#666666" points="475.5,-115.5 350.5,-115.5 350.5,-85.5 475.5,-85.5 475.5,-115.5"/>
<text text-anchor="start" x="358.5" y="-103.5" font-family="Helvetica,sans-Serif" font-size="10.00">AP_HAL::BetterStream</text>
<text text-anchor="middle" x="413" y="-92.5" font-family="Helvetica,sans-Serif" font-size="10.00">::vprintf</text>
</a>
</g>
</g>
<!-- Node13&#45;&gt;Node14 -->
<g id="edge14_Node000013_Node000014" class="edge">
<title>Node13&#45;&gt;Node14</title>
<g id="a_edge14_Node000013_Node000014"><a xlink:title=" ">
<path fill="none" stroke="#63b8ff" d="M288.6,-100.5C305.05,-100.5 322.98,-100.5 339.94,-100.5"/>
<polygon fill="#63b8ff" stroke="#63b8ff" points="340.35,-104 350.35,-100.5 340.35,-97 340.35,-104"/>
</a>
</g>
</g>
<!-- Node15 -->
<g id="Node000015" class="node">
<title>Node15</title>
<g id="a_Node000015"><a xlink:href="test__expandingstring__failure_8cpp.html#a98e0d5bb436a207f576379beaa786040" target="_top" xlink:title=" ">
<polygon fill="white" stroke="#666666" points="604,-110 527,-110 527,-91 604,-91 604,-110"/>
<text text-anchor="middle" x="565.5" y="-98" font-family="Helvetica,sans-Serif" font-size="10.00">print_vprintf</text>
</a>
</g>
</g>
<!-- Node14&#45;&gt;Node15 -->
<g id="edge15_Node000014_Node000015" class="edge">
<title>Node14&#45;&gt;Node15</title>
<g id="a_edge15_Node000014_Node000015"><a xlink:title=" ">
<path fill="none" stroke="#63b8ff" d="M475.65,-100.5C489.36,-100.5 503.69,-100.5 516.74,-100.5"/>
<polygon fill="#63b8ff" stroke="#63b8ff" points="516.89,-104 526.89,-100.5 516.89,-97 516.89,-104"/>
</a>
</g>
</g>
</g>
</svg>

<g id="navigator" transform="translate(0 0)" fill="#404254">
  <rect fill="#f2f5e9" fill-opacity="0.5" stroke="#606060" stroke-width=".5" x="0" y="0" width="60" height="60"/>
  <use id="zoomplus" xlink:href="#zoomPlus" x="17" y="9" onmousedown="handleZoom(evt,'in')"/>
  <use id="zoomminus" xlink:href="#zoomMin" x="42" y="9" onmousedown="handleZoom(evt,'out')"/>
  <use id="reset" xlink:href="#resetDef" x="30" y="36" onmousedown="handleReset()"/>
   <use id="arrowup" xlink:href="#arrowUp" x="0" y="0" onmousedown="handlePan(0,-1)"/>
  <use id="arrowright" xlink:href="#arrowRight" x="0" y="0" onmousedown="handlePan(1,0)"/>
  <use id="arrowdown" xlink:href="#arrowDown" x="0" y="0" onmousedown="handlePan(0,1)"/>
  <use id="arrowleft" xlink:href="#arrowLeft" x="0" y="0" onmousedown="handlePan(-1,0)"/>
</g>
<svg viewBox="0 0 15 15" width="100%" height="30px" preserveAspectRatio="xMaxYMin meet">
 <g id="arrow_out" transform="scale(0.3 0.3)">
  <a xlink:href="classReplayGyroFFT_ad19808f8c181ebaaf9b27e5548419b91_cgraph_org.svg" target="_base">
   <rect id="button" ry="5" rx="5" y="6" x="6" height="38" width="38"
        fill="#f2f5e9" fill-opacity="0.5" stroke="#606060" stroke-width="1.0"/>
   <path id="arrow"
     d="M 11.500037,31.436501 C 11.940474,20.09759 22.043105,11.32322 32.158766,21.979434 L 37.068811,17.246167 C 37.068811,17.246167 37.088388,32 37.088388,32 L 22.160133,31.978069 C 22.160133,31.978069 26.997745,27.140456 26.997745,27.140456 C 18.528582,18.264221 13.291696,25.230495 11.500037,31.436501 z"
     style="fill:#404040;"/>
  </a>
 </g>
</svg>

<style type='text/css'>
<![CDATA[
[data-mouse-over-selected='false'] { opacity: 0.7; }
[data-mouse-over-selected='true']  { opacity: 1.0; }
]]>
</style>
<script type="application/ecmascript"><![CDATA[
document.addEventListener('DOMContentLoaded', (event) => {
  highlightEdges();
  highlightAdjacentNodes();
});
]]></script>
</svg>
