<?xml version="1.0" encoding="UTF-8" standalone="no"?>
<!DOCTYPE svg PUBLIC "-//W3C//DTD SVG 1.1//EN"
 "http://www.w3.org/Graphics/SVG/1.1/DTD/svg11.dtd">
<!-- Generated by graphviz version 2.43.0 (0)
 -->
<!-- Title: AP_Baro_BMP085::_data_ready Pages: 1 -->
<svg width="771pt" height="114pt"
 viewBox="0.00 0.00 771.00 113.50" xmlns="http://www.w3.org/2000/svg" xmlns:xlink="http://www.w3.org/1999/xlink">
<g id="graph0" class="graph" transform="scale(1 1) rotate(0) translate(4 109.5)">
<title>AP_Baro_BMP085::_data_ready</title>
<!-- Node1 -->
<g id="Node000001" class="node">
<title>Node1</title>
<g id="a_Node000001"><a xlink:title=" ">
<polygon fill="#999999" stroke="#666666" points="135,-51 0,-51 0,-21 135,-21 135,-51"/>
<text text-anchor="start" x="8" y="-39" font-family="Helvetica,sans-Serif" font-size="10.00">AP_Baro_BMP085::_data</text>
<text text-anchor="middle" x="67.5" y="-28" font-family="Helvetica,sans-Serif" font-size="10.00">_ready</text>
</a>
</g>
</g>
<!-- Node2 -->
<g id="Node000002" class="node">
<title>Node2</title>
<g id="a_Node000002"><a xlink:href="namespaceAP__HAL.html#a77dffbb18891996280308e21316ec186" target="_top" xlink:title=" ">
<polygon fill="white" stroke="#666666" points="277,-67.5 190,-67.5 190,-48.5 277,-48.5 277,-67.5"/>
<text text-anchor="middle" x="233.5" y="-55.5" font-family="Helvetica,sans-Serif" font-size="10.00">AP_HAL::millis</text>
</a>
</g>
</g>
<!-- Node1&#45;&gt;Node2 -->
<g id="edge1_Node000001_Node000002" class="edge">
<title>Node1&#45;&gt;Node2</title>
<g id="a_edge1_Node000001_Node000002"><a xlink:title=" ">
<path fill="none" stroke="#63b8ff" d="M135.21,-44.95C150.05,-46.94 165.58,-49.02 179.77,-50.93"/>
<polygon fill="#63b8ff" stroke="#63b8ff" points="179.46,-54.42 189.84,-52.28 180.39,-47.48 179.46,-54.42"/>
</a>
</g>
</g>
<!-- Node9 -->
<g id="Node000009" class="node">
<title>Node9</title>
<g id="a_Node000009"><a xlink:href="classAP__HAL_1_1DigitalSource.html#a6d155c0e1088e7b045b075c34bc2a13e" target="_top" xlink:title=" ">
<polygon fill="white" stroke="#666666" points="296,-30 171,-30 171,0 296,0 296,-30"/>
<text text-anchor="start" x="179" y="-18" font-family="Helvetica,sans-Serif" font-size="10.00">AP_HAL::DigitalSource</text>
<text text-anchor="middle" x="233.5" y="-7" font-family="Helvetica,sans-Serif" font-size="10.00">::read</text>
</a>
</g>
</g>
<!-- Node1&#45;&gt;Node9 -->
<g id="edge8_Node000001_Node000009" class="edge">
<title>Node1&#45;&gt;Node9</title>
<g id="a_edge8_Node000001_Node000009"><a xlink:title=" ">
<path fill="none" stroke="#63b8ff" d="M135.21,-27.46C143.68,-26.37 152.39,-25.26 160.94,-24.16"/>
<polygon fill="#63b8ff" stroke="#63b8ff" points="161.4,-27.63 170.88,-22.89 160.51,-20.69 161.4,-27.63"/>
</a>
</g>
</g>
<!-- Node3 -->
<g id="Node000003" class="node">
<title>Node3</title>
<g id="a_Node000003"><a xlink:href="hrt_8c.html#a1295f128f60d29874243b5733c4db025" target="_top" xlink:title=" ">
<polygon fill="white" stroke="#666666" points="406,-67.5 332,-67.5 332,-48.5 406,-48.5 406,-67.5"/>
<text text-anchor="middle" x="369" y="-55.5" font-family="Helvetica,sans-Serif" font-size="10.00">hrt_millis32</text>
</a>
</g>
</g>
<!-- Node2&#45;&gt;Node3 -->
<g id="edge2_Node000002_Node000003" class="edge">
<title>Node2&#45;&gt;Node3</title>
<g id="a_edge2_Node000002_Node000003"><a xlink:title=" ">
<path fill="none" stroke="#63b8ff" d="M277.11,-58C291.23,-58 307.02,-58 321.43,-58"/>
<polygon fill="#63b8ff" stroke="#63b8ff" points="321.63,-61.5 331.63,-58 321.63,-54.5 321.63,-61.5"/>
</a>
</g>
</g>
<!-- Node4 -->
<g id="Node000004" class="node">
<title>Node4</title>
<g id="a_Node000004"><a xlink:href="hrt_8c.html#a7dd7d90aadd8f76f26da7d5abfad6fe8" target="_top" xlink:title=" ">
<polygon fill="white" stroke="#666666" points="516,-67.5 442,-67.5 442,-48.5 516,-48.5 516,-67.5"/>
<text text-anchor="middle" x="479" y="-55.5" font-family="Helvetica,sans-Serif" font-size="10.00">hrt_millis64</text>
</a>
</g>
</g>
<!-- Node3&#45;&gt;Node4 -->
<g id="edge3_Node000003_Node000004" class="edge">
<title>Node3&#45;&gt;Node4</title>
<g id="a_edge3_Node000003_Node000004"><a xlink:title=" ">
<path fill="none" stroke="#63b8ff" d="M406.26,-58C414.37,-58 423.07,-58 431.52,-58"/>
<polygon fill="#63b8ff" stroke="#63b8ff" points="431.65,-61.5 441.65,-58 431.65,-54.5 431.65,-61.5"/>
</a>
</g>
</g>
<!-- Node5 -->
<g id="Node000005" class="node">
<title>Node5</title>
<g id="a_Node000005"><a xlink:href="hrt_8c.html#a152c3348a8e83f2dfe35b44cc2e30362" target="_top" xlink:title=" ">
<polygon fill="white" stroke="#666666" points="638,-86.5 558,-86.5 558,-67.5 638,-67.5 638,-86.5"/>
<text text-anchor="middle" x="598" y="-74.5" font-family="Helvetica,sans-Serif" font-size="10.00">hrt_micros64</text>
</a>
</g>
</g>
<!-- Node4&#45;&gt;Node5 -->
<g id="edge4_Node000004_Node000005" class="edge">
<title>Node4&#45;&gt;Node5</title>
<g id="a_edge4_Node000004_Node000005"><a xlink:title=" ">
<path fill="none" stroke="#63b8ff" d="M516.06,-63.86C526.03,-65.48 537.03,-67.26 547.62,-68.98"/>
<polygon fill="#63b8ff" stroke="#63b8ff" points="547.17,-72.45 557.6,-70.6 548.29,-65.54 547.17,-72.45"/>
</a>
</g>
</g>
<!-- Node8 -->
<g id="Node000008" class="node">
<title>Node8</title>
<g id="a_Node000008"><a xlink:href="div1000_8h.html#aece9e7f123414c41d0426fbadca097d8" target="_top" xlink:title=" ">
<polygon fill="white" stroke="#666666" points="644,-49.5 552,-49.5 552,-30.5 644,-30.5 644,-49.5"/>
<text text-anchor="middle" x="598" y="-37.5" font-family="Helvetica,sans-Serif" font-size="10.00">uint64_div1000</text>
</a>
</g>
</g>
<!-- Node4&#45;&gt;Node8 -->
<g id="edge7_Node000004_Node000008" class="edge">
<title>Node4&#45;&gt;Node8</title>
<g id="a_edge7_Node000004_Node000008"><a xlink:title=" ">
<path fill="none" stroke="#63b8ff" d="M516.06,-52.45C524.17,-51.21 532.95,-49.85 541.64,-48.52"/>
<polygon fill="#63b8ff" stroke="#63b8ff" points="542.41,-51.94 551.76,-46.96 541.34,-45.02 542.41,-51.94"/>
</a>
</g>
</g>
<!-- Node6 -->
<g id="Node000006" class="node">
<title>Node6</title>
<g id="a_Node000006"><a xlink:href="hrt_8c.html#a5b4ffc7ff86bd5b893c4a98834e80200" target="_top" xlink:title=" ">
<polygon fill="white" stroke="#666666" points="763,-105.5 680,-105.5 680,-86.5 763,-86.5 763,-105.5"/>
<text text-anchor="middle" x="721.5" y="-93.5" font-family="Helvetica,sans-Serif" font-size="10.00">hrt_micros64I</text>
</a>
</g>
</g>
<!-- Node5&#45;&gt;Node6 -->
<g id="edge5_Node000005_Node000006" class="edge">
<title>Node5&#45;&gt;Node6</title>
<g id="a_edge5_Node000005_Node000006"><a xlink:title=" ">
<path fill="none" stroke="#63b8ff" d="M638.11,-83.12C648.21,-84.69 659.22,-86.42 669.81,-88.07"/>
<polygon fill="#63b8ff" stroke="#63b8ff" points="669.37,-91.55 679.79,-89.63 670.45,-84.63 669.37,-91.55"/>
</a>
</g>
</g>
<!-- Node7 -->
<g id="Node000007" class="node">
<title>Node7</title>
<g id="a_Node000007"><a xlink:href="hrt_8c.html#a723fef85be7bacb834af35445a891c18" target="_top" xlink:title=" ">
<polygon fill="white" stroke="#666666" points="752.5,-68.5 690.5,-68.5 690.5,-49.5 752.5,-49.5 752.5,-68.5"/>
<text text-anchor="middle" x="721.5" y="-56.5" font-family="Helvetica,sans-Serif" font-size="10.00">is_locked</text>
</a>
</g>
</g>
<!-- Node5&#45;&gt;Node7 -->
<g id="edge6_Node000005_Node000007" class="edge">
<title>Node5&#45;&gt;Node7</title>
<g id="a_edge6_Node000005_Node000007"><a xlink:title=" ">
<path fill="none" stroke="#63b8ff" d="M638.11,-71.21C651.6,-69.21 666.73,-66.97 680.3,-64.96"/>
<polygon fill="#63b8ff" stroke="#63b8ff" points="680.95,-68.4 690.32,-63.47 679.92,-61.47 680.95,-68.4"/>
</a>
</g>
</g>
</g>
</svg>
