<?xml version="1.0" encoding="UTF-8" standalone="no"?>
<!DOCTYPE svg PUBLIC "-//W3C//DTD SVG 1.1//EN"
 "http://www.w3.org/Graphics/SVG/1.1/DTD/svg11.dtd">
<!-- Generated by graphviz version 2.43.0 (0)
 -->
<!-- Title: AP_Baro_ICP201XX::timer Pages: 1 -->
<svg width="1072pt" height="141pt"
 viewBox="0.00 0.00 1072.00 141.00" xmlns="http://www.w3.org/2000/svg" xmlns:xlink="http://www.w3.org/1999/xlink">
<g id="graph0" class="graph" transform="scale(1 1) rotate(0) translate(4 137)">
<title>AP_Baro_ICP201XX::timer</title>
<!-- Node1 -->
<g id="Node000001" class="node">
<title>Node1</title>
<g id="a_Node000001"><a xlink:title=" ">
<polygon fill="#999999" stroke="#666666" points="142,-95 0,-95 0,-76 142,-76 142,-95"/>
<text text-anchor="middle" x="71" y="-83" font-family="Helvetica,sans-Serif" font-size="10.00">AP_Baro_ICP201XX::timer</text>
</a>
</g>
</g>
<!-- Node2 -->
<g id="Node000002" class="node">
<title>Node2</title>
<g id="a_Node000002"><a xlink:href="classAP__Baro__ICP201XX.html#a1ba348d32702225312b1179e01e53958" target="_top" xlink:title=" ">
<polygon fill="white" stroke="#666666" points="505,-133 345,-133 345,-114 505,-114 505,-133"/>
<text text-anchor="middle" x="425" y="-121" font-family="Helvetica,sans-Serif" font-size="10.00">AP_Baro_ICP201XX::flush_fifo</text>
</a>
</g>
</g>
<!-- Node1&#45;&gt;Node2 -->
<g id="edge1_Node000001_Node000002" class="edge">
<title>Node1&#45;&gt;Node2</title>
<g id="a_edge1_Node000001_Node000002"><a xlink:title=" ">
<path fill="none" stroke="#63b8ff" d="M107.54,-95.1C128,-100.23 154.27,-106.16 178,-109.5 229.6,-116.76 287.79,-120.28 334.62,-121.98"/>
<polygon fill="#63b8ff" stroke="#63b8ff" points="334.62,-125.48 344.74,-122.32 334.86,-118.48 334.62,-125.48"/>
</a>
</g>
</g>
<!-- Node7 -->
<g id="Node000007" class="node">
<title>Node7</title>
<g id="a_Node000007"><a xlink:href="classAP__Baro__ICP201XX.html#a86e0c2d63cc1a5b7c44f5817d9c68e3d" target="_top" xlink:title=" ">
<polygon fill="white" stroke="#666666" points="309,-100.5 178,-100.5 178,-70.5 309,-70.5 309,-100.5"/>
<text text-anchor="start" x="186" y="-88.5" font-family="Helvetica,sans-Serif" font-size="10.00">AP_Baro_ICP201XX::get</text>
<text text-anchor="middle" x="243.5" y="-77.5" font-family="Helvetica,sans-Serif" font-size="10.00">_sensor_data</text>
</a>
</g>
</g>
<!-- Node1&#45;&gt;Node7 -->
<g id="edge9_Node000001_Node000007" class="edge">
<title>Node1&#45;&gt;Node7</title>
<g id="a_edge9_Node000001_Node000007"><a xlink:title=" ">
<path fill="none" stroke="#63b8ff" d="M142.33,-85.5C150.68,-85.5 159.23,-85.5 167.63,-85.5"/>
<polygon fill="#63b8ff" stroke="#63b8ff" points="167.8,-89 177.8,-85.5 167.8,-82 167.8,-89"/>
</a>
</g>
</g>
<!-- Node8 -->
<g id="Node000008" class="node">
<title>Node8</title>
<g id="a_Node000008"><a xlink:href="namespaceAP__HAL.html#a8293355e35887733b1fd151aef08a787" target="_top" xlink:title=" ">
<polygon fill="white" stroke="#666666" points="290,-52 197,-52 197,-33 290,-33 290,-52"/>
<text text-anchor="middle" x="243.5" y="-40" font-family="Helvetica,sans-Serif" font-size="10.00">AP_HAL::micros</text>
</a>
</g>
</g>
<!-- Node1&#45;&gt;Node8 -->
<g id="edge12_Node000001_Node000008" class="edge">
<title>Node1&#45;&gt;Node8</title>
<g id="a_edge12_Node000001_Node000008"><a xlink:title=" ">
<path fill="none" stroke="#63b8ff" d="M109.84,-75.96C134.89,-69.64 167.96,-61.3 194.81,-54.53"/>
<polygon fill="#63b8ff" stroke="#63b8ff" points="195.93,-57.86 204.77,-52.02 194.21,-51.07 195.93,-57.86"/>
</a>
</g>
</g>
<!-- Node3 -->
<g id="Node000003" class="node">
<title>Node3</title>
<g id="a_Node000003"><a xlink:href="classAP__Baro__ICP201XX.html#a871883ddd05b95258aa54d7826eb3651" target="_top" xlink:title=" ">
<polygon fill="white" stroke="#666666" points="700.5,-96 542.5,-96 542.5,-77 700.5,-77 700.5,-96"/>
<text text-anchor="middle" x="621.5" y="-84" font-family="Helvetica,sans-Serif" font-size="10.00">AP_Baro_ICP201XX::read_reg</text>
</a>
</g>
</g>
<!-- Node2&#45;&gt;Node3 -->
<g id="edge2_Node000002_Node000003" class="edge">
<title>Node2&#45;&gt;Node3</title>
<g id="a_edge2_Node000002_Node000003"><a xlink:title=" ">
<path fill="none" stroke="#63b8ff" d="M476.09,-113.97C501.74,-109.09 533.16,-103.11 560.14,-97.98"/>
<polygon fill="#63b8ff" stroke="#63b8ff" points="561.07,-101.37 570.24,-96.06 559.77,-94.49 561.07,-101.37"/>
</a>
</g>
</g>
<!-- Node6 -->
<g id="Node000006" class="node">
<title>Node6</title>
<g id="a_Node000006"><a xlink:href="classAP__Baro__ICP201XX.html#a11d0e16f410979a2a29120fde06f5b6d" target="_top" xlink:title=" ">
<polygon fill="white" stroke="#666666" points="702,-133 541,-133 541,-114 702,-114 702,-133"/>
<text text-anchor="middle" x="621.5" y="-121" font-family="Helvetica,sans-Serif" font-size="10.00">AP_Baro_ICP201XX::write_reg</text>
</a>
</g>
</g>
<!-- Node2&#45;&gt;Node6 -->
<g id="edge6_Node000002_Node000006" class="edge">
<title>Node2&#45;&gt;Node6</title>
<g id="a_edge6_Node000002_Node000006"><a xlink:title=" ">
<path fill="none" stroke="#63b8ff" d="M505.11,-123.5C513.58,-123.5 522.23,-123.5 530.81,-123.5"/>
<polygon fill="#63b8ff" stroke="#63b8ff" points="530.83,-127 540.83,-123.5 530.83,-120 530.83,-127"/>
</a>
</g>
</g>
<!-- Node4 -->
<g id="Node000004" class="node">
<title>Node4</title>
<g id="a_Node000004"><a xlink:href="classAP__Baro__ICP201XX.html#ad5e335b1280c4903a3c10df7243c242f" target="_top" xlink:title=" ">
<polygon fill="white" stroke="#666666" points="912,-114 738,-114 738,-95 912,-95 912,-114"/>
<text text-anchor="middle" x="825" y="-102" font-family="Helvetica,sans-Serif" font-size="10.00">AP_Baro_ICP201XX::dummy_reg</text>
</a>
</g>
</g>
<!-- Node3&#45;&gt;Node4 -->
<g id="edge3_Node000003_Node000004" class="edge">
<title>Node3&#45;&gt;Node4</title>
<g id="a_edge3_Node000003_Node000004"><a xlink:title=" ">
<path fill="none" stroke="#63b8ff" d="M700.69,-93.49C709.53,-94.27 718.62,-95.09 727.66,-95.89"/>
<polygon fill="#63b8ff" stroke="#63b8ff" points="727.56,-99.4 737.83,-96.8 728.18,-92.43 727.56,-99.4"/>
</a>
</g>
</g>
<!-- Node5 -->
<g id="Node000005" class="node">
<title>Node5</title>
<g id="a_Node000005"><a xlink:href="classAP__HAL_1_1I2CDevice.html#a2e581ddc9b02eb73ad2fdf488fe8dc86" target="_top" xlink:title=" ">
<polygon fill="white" stroke="#666666" points="1064,-119.5 948,-119.5 948,-89.5 1064,-89.5 1064,-119.5"/>
<text text-anchor="start" x="956" y="-107.5" font-family="Helvetica,sans-Serif" font-size="10.00">AP_HAL::I2CDevice::</text>
<text text-anchor="middle" x="1006" y="-96.5" font-family="Helvetica,sans-Serif" font-size="10.00">transfer</text>
</a>
</g>
</g>
<!-- Node3&#45;&gt;Node5 -->
<g id="edge5_Node000003_Node000005" class="edge">
<title>Node3&#45;&gt;Node5</title>
<g id="a_edge5_Node000003_Node000005"><a xlink:title=" ">
<path fill="none" stroke="#63b8ff" d="M700.72,-82.47C759.08,-80.44 840.71,-79.66 912,-86.5 920.35,-87.3 929.07,-88.5 937.68,-89.9"/>
<polygon fill="#63b8ff" stroke="#63b8ff" points="937.25,-93.38 947.7,-91.63 938.44,-86.48 937.25,-93.38"/>
</a>
</g>
</g>
<!-- Node4&#45;&gt;Node5 -->
<g id="edge4_Node000004_Node000005" class="edge">
<title>Node4&#45;&gt;Node5</title>
<g id="a_edge4_Node000004_Node000005"><a xlink:title=" ">
<path fill="none" stroke="#63b8ff" d="M912.09,-104.5C920.75,-104.5 929.45,-104.5 937.87,-104.5"/>
<polygon fill="#63b8ff" stroke="#63b8ff" points="937.98,-108 947.98,-104.5 937.98,-101 937.98,-108"/>
</a>
</g>
</g>
<!-- Node6&#45;&gt;Node4 -->
<g id="edge7_Node000006_Node000004" class="edge">
<title>Node6&#45;&gt;Node4</title>
<g id="a_edge7_Node000006_Node000004"><a xlink:title=" ">
<path fill="none" stroke="#63b8ff" d="M702.14,-115.99C710.6,-115.19 719.27,-114.38 727.89,-113.56"/>
<polygon fill="#63b8ff" stroke="#63b8ff" points="728.35,-117.03 737.98,-112.61 727.69,-110.07 728.35,-117.03"/>
</a>
</g>
</g>
<!-- Node6&#45;&gt;Node5 -->
<g id="edge8_Node000006_Node000005" class="edge">
<title>Node6&#45;&gt;Node5</title>
<g id="a_edge8_Node000006_Node000005"><a xlink:title=" ">
<path fill="none" stroke="#63b8ff" d="M702.28,-127.8C760.54,-129.9 841.37,-130.64 912,-123.5 920.37,-122.65 929.09,-121.39 937.7,-119.91"/>
<polygon fill="#63b8ff" stroke="#63b8ff" points="938.52,-123.32 947.73,-118.08 937.27,-116.43 938.52,-123.32"/>
</a>
</g>
</g>
<!-- Node7&#45;&gt;Node2 -->
<g id="edge10_Node000007_Node000002" class="edge">
<title>Node7&#45;&gt;Node2</title>
<g id="a_edge10_Node000007_Node000002"><a xlink:title=" ">
<path fill="none" stroke="#63b8ff" d="M309.05,-99.17C328.73,-103.33 350.17,-107.87 369.15,-111.89"/>
<polygon fill="#63b8ff" stroke="#63b8ff" points="368.6,-115.35 379.11,-114 370.05,-108.5 368.6,-115.35"/>
</a>
</g>
</g>
<!-- Node7&#45;&gt;Node3 -->
<g id="edge11_Node000007_Node000003" class="edge">
<title>Node7&#45;&gt;Node3</title>
<g id="a_edge11_Node000007_Node000003"><a xlink:title=" ">
<path fill="none" stroke="#63b8ff" d="M309.14,-85.67C370.65,-85.84 463.71,-86.08 532.07,-86.26"/>
<polygon fill="#63b8ff" stroke="#63b8ff" points="532.39,-89.77 542.4,-86.29 532.41,-82.77 532.39,-89.77"/>
</a>
</g>
</g>
<!-- Node9 -->
<g id="Node000009" class="node">
<title>Node9</title>
<g id="a_Node000009"><a xlink:href="hrt_8c.html#aaec580bcdf1351b82110305f0f6dd437" target="_top" xlink:title=" ">
<polygon fill="white" stroke="#666666" points="465,-52 385,-52 385,-33 465,-33 465,-52"/>
<text text-anchor="middle" x="425" y="-40" font-family="Helvetica,sans-Serif" font-size="10.00">hrt_micros32</text>
</a>
</g>
</g>
<!-- Node8&#45;&gt;Node9 -->
<g id="edge13_Node000008_Node000009" class="edge">
<title>Node8&#45;&gt;Node9</title>
<g id="a_edge13_Node000008_Node000009"><a xlink:title=" ">
<path fill="none" stroke="#63b8ff" d="M290.26,-42.5C316.03,-42.5 348.22,-42.5 374.56,-42.5"/>
<polygon fill="#63b8ff" stroke="#63b8ff" points="374.72,-46 384.72,-42.5 374.72,-39 374.72,-46"/>
</a>
</g>
</g>
<!-- Node10 -->
<g id="Node000010" class="node">
<title>Node10</title>
<g id="a_Node000010"><a xlink:href="hrt_8c.html#a8e056f016b4bb5d52754d890a539c433" target="_top" xlink:title=" ">
<polygon fill="white" stroke="#666666" points="674,-56 569,-56 569,-37 674,-37 674,-56"/>
<text text-anchor="middle" x="621.5" y="-44" font-family="Helvetica,sans-Serif" font-size="10.00">get_systime_us32</text>
</a>
</g>
</g>
<!-- Node9&#45;&gt;Node10 -->
<g id="edge14_Node000009_Node000010" class="edge">
<title>Node9&#45;&gt;Node10</title>
<g id="a_edge14_Node000009_Node000010"><a xlink:title=" ">
<path fill="none" stroke="#63b8ff" d="M465.36,-43.31C492.09,-43.86 527.99,-44.6 558.52,-45.23"/>
<polygon fill="#63b8ff" stroke="#63b8ff" points="558.58,-48.73 568.65,-45.43 558.72,-41.73 558.58,-48.73"/>
</a>
</g>
</g>
<!-- Node11 -->
<g id="Node000011" class="node">
<title>Node11</title>
<g id="a_Node000011"><a xlink:href="hrt_8c.html#a723fef85be7bacb834af35445a891c18" target="_top" xlink:title=" ">
<polygon fill="white" stroke="#666666" points="652.5,-19 590.5,-19 590.5,0 652.5,0 652.5,-19"/>
<text text-anchor="middle" x="621.5" y="-7" font-family="Helvetica,sans-Serif" font-size="10.00">is_locked</text>
</a>
</g>
</g>
<!-- Node9&#45;&gt;Node11 -->
<g id="edge15_Node000009_Node000011" class="edge">
<title>Node9&#45;&gt;Node11</title>
<g id="a_edge15_Node000009_Node000011"><a xlink:title=" ">
<path fill="none" stroke="#63b8ff" d="M465.36,-35.82C498.86,-30.14 546.77,-22.01 580.46,-16.29"/>
<polygon fill="#63b8ff" stroke="#63b8ff" points="581.15,-19.73 590.43,-14.6 579.98,-12.82 581.15,-19.73"/>
</a>
</g>
</g>
</g>
</svg>
