<?xml version="1.0" encoding="UTF-8" standalone="no"?>
<!DOCTYPE svg PUBLIC "-//W3C//DTD SVG 1.1//EN"
 "http://www.w3.org/Graphics/SVG/1.1/DTD/svg11.dtd">
<!-- Generated by graphviz version 2.43.0 (0)
 -->
<!-- Title: AP_Baro_SPL06::_init Pages: 1 -->
<!--zoomable 619 -->

<svg id="main" version="1.1" xmlns="http://www.w3.org/2000/svg" xmlns:xlink="http://www.w3.org/1999/xlink" xml:space="preserve" onload="init(evt)">
<style type="text/css"><![CDATA[
.node, .edge {opacity: 0.7;}
.node.selected, .edge.selected {opacity: 1;}
.edge:hover path { stroke: red; }
.edge:hover polygon { stroke: red; fill: red; }
]]></style>

<defs>
  <circle id="rim" cx="0" cy="0" r="7"/>
  <circle id="rim2" cx="0" cy="0" r="3.5"/>
  <g id="zoomPlus">
    <use xlink:href="#rim" fill="#404040"><set attributeName="fill" to="#808080" begin="zoomplus.mouseover" end="zoomplus.mouseout"/></use>
    <path d="M-4,0h8M0,-4v8" fill="none" stroke="white" stroke-width="1.5" pointer-events="none"/>
  </g>
  <g id="zoomMin">
    <use xlink:href="#rim" fill="#404040"><set attributeName="fill" to="#808080" begin="zoomminus.mouseover" end="zoomminus.mouseout"/></use>
    <path d="M-4,0h8" fill="none" stroke="white" stroke-width="1.5" pointer-events="none"/>
  </g>
  <g id="arrowUp" transform="translate(30 24)">
    <use xlink:href="#rim"/>
    <path pointer-events="none" fill="none" stroke="white" stroke-width="1.5" d="M0,-3.0v7 M-2.5,-0.5L0,-3.0L2.5,-0.5"/>
  </g>
  <g id="arrowRight" transform="rotate(90) translate(36 -43)">
    <use xlink:href="#rim"/>
    <path pointer-events="none" fill="none" stroke="white" stroke-width="1.5" d="M0,-3.0v7 M-2.5,-0.5L0,-3.0L2.5,-0.5"/>
  </g>
  <g id="arrowDown" transform="rotate(180) translate(-30 -48)">
    <use xlink:href="#rim"/>
    <path pointer-events="none" fill="none" stroke="white" stroke-width="1.5" d="M0,-3.0v7 M-2.5,-0.5L0,-3.0L2.5,-0.5"/>
  </g>
  <g id="arrowLeft" transform="rotate(270) translate(-36 17)">
    <use xlink:href="#rim"/>
    <path pointer-events="none" fill="none" stroke="white" stroke-width="1.5" d="M0,-3.0v7 M-2.5,-0.5L0,-3.0L2.5,-0.5"/>
  </g>
  <g id="resetDef">
    <use xlink:href="#rim2" fill="#404040"><set attributeName="fill" to="#808080" begin="reset.mouseover" end="reset.mouseout"/></use>
  </g>
</defs>
<script type="application/ecmascript">
var viewWidth = 822;
var viewHeight = 619;
var sectionId = 'dynsection-3';
</script>
<script type="application/ecmascript" xlink:href="svg.min.js"/>
<svg id="graph" class="graph">
<g id="viewport">
<title>AP_Baro_SPL06::_init</title>
<!-- Node1 -->
<g id="Node000001" class="node">
<title>Node1</title>
<g id="a_Node000001"><a xlink:title=" ">
<polygon fill="#999999" stroke="#666666" points="119,-254.5 0,-254.5 0,-235.5 119,-235.5 119,-254.5"/>
<text text-anchor="middle" x="59.5" y="-242.5" font-family="Helvetica,sans-Serif" font-size="10.00">AP_Baro_SPL06::_init</text>
</a>
</g>
</g>
<!-- Node2 -->
<g id="Node000002" class="node">
<title>Node2</title>
<g id="a_Node000002"><a xlink:href="classAP__Baro__SPL06.html#a389d0a7c66bdc06b1549b2dc31cfb418" target="_top" xlink:title=" ">
<polygon fill="white" stroke="#666666" points="288.5,-474.5 159.5,-474.5 159.5,-455.5 288.5,-455.5 288.5,-474.5"/>
<text text-anchor="middle" x="224" y="-462.5" font-family="Helvetica,sans-Serif" font-size="10.00">AP_Baro_SPL06::_timer</text>
</a>
</g>
</g>
<!-- Node1&#45;&gt;Node2 -->
<g id="edge1_Node000001_Node000002" class="edge">
<title>Node1&#45;&gt;Node2</title>
<g id="a_edge1_Node000001_Node000002"><a xlink:title=" ">
<path fill="none" stroke="#63b8ff" d="M62.76,-254.77C70.34,-285.59 97.73,-381.87 155,-436 161.71,-442.34 170.03,-447.41 178.51,-451.42"/>
<polygon fill="#63b8ff" stroke="#63b8ff" points="177.14,-454.65 187.71,-455.37 179.9,-448.21 177.14,-454.65"/>
</a>
</g>
</g>
<!-- Node11 -->
<g id="Node000011" class="node">
<title>Node11</title>
<g id="a_Node000011"><a xlink:href="classAP__HAL_1_1Device.html#a66215f964cfb5c7421effdb88a749550" target="_top" xlink:title=" ">
<polygon fill="white" stroke="#666666" points="458.5,-437 336.5,-437 336.5,-407 458.5,-407 458.5,-437"/>
<text text-anchor="start" x="344.5" y="-425" font-family="Helvetica,sans-Serif" font-size="10.00">AP_HAL::Device::read</text>
<text text-anchor="middle" x="397.5" y="-414" font-family="Helvetica,sans-Serif" font-size="10.00">_registers</text>
</a>
</g>
</g>
<!-- Node1&#45;&gt;Node11 -->
<g id="edge16_Node000001_Node000011" class="edge">
<title>Node1&#45;&gt;Node11</title>
<g id="a_edge16_Node000001_Node000011"><a xlink:title=" ">
<path fill="none" stroke="#63b8ff" d="M63.49,-254.56C72.41,-281.34 101.6,-357.37 155,-391 206.06,-423.15 275.25,-429.09 326.49,-428.05"/>
<polygon fill="#63b8ff" stroke="#63b8ff" points="326.6,-431.54 336.49,-427.75 326.39,-424.55 326.6,-431.54"/>
</a>
</g>
</g>
<!-- Node12 -->
<g id="Node000012" class="node">
<title>Node12</title>
<g id="a_Node000012"><a xlink:href="classAP__HAL_1_1Device.html#a450d2427d58c09d75c8268f8b808c37b" target="_top" xlink:title=" ">
<polygon fill="white" stroke="#666666" points="460,-389 335,-389 335,-359 460,-359 460,-389"/>
<text text-anchor="start" x="343" y="-377" font-family="Helvetica,sans-Serif" font-size="10.00">AP_HAL::Device::write</text>
<text text-anchor="middle" x="397.5" y="-366" font-family="Helvetica,sans-Serif" font-size="10.00">_register</text>
</a>
</g>
</g>
<!-- Node1&#45;&gt;Node12 -->
<g id="edge27_Node000001_Node000012" class="edge">
<title>Node1&#45;&gt;Node12</title>
<g id="a_edge27_Node000001_Node000012"><a xlink:title=" ">
<path fill="none" stroke="#63b8ff" d="M64.64,-254.81C75.4,-278.84 106.78,-340.48 155,-365 207.31,-391.6 274.54,-391.82 324.78,-386.55"/>
<polygon fill="#63b8ff" stroke="#63b8ff" points="325.38,-390 334.92,-385.39 324.58,-383.05 325.38,-390"/>
</a>
</g>
</g>
<!-- Node13 -->
<g id="Node000013" class="node">
<title>Node13</title>
<g id="a_Node000013"><a xlink:href="classAP__HAL_1_1Device.html#a51dc074d450d02eedf40229f33d80c16" target="_top" xlink:title=" ">
<polygon fill="white" stroke="#666666" points="282,-356 166,-356 166,-326 282,-326 282,-356"/>
<text text-anchor="start" x="174" y="-344" font-family="Helvetica,sans-Serif" font-size="10.00">AP_HAL::Device::get</text>
<text text-anchor="middle" x="224" y="-333" font-family="Helvetica,sans-Serif" font-size="10.00">_bus_id</text>
</a>
</g>
</g>
<!-- Node1&#45;&gt;Node13 -->
<g id="edge14_Node000001_Node000013" class="edge">
<title>Node1&#45;&gt;Node13</title>
<g id="a_edge14_Node000001_Node000013"><a xlink:title=" ">
<path fill="none" stroke="#63b8ff" d="M70.8,-254.6C87.4,-269.66 121.61,-298.97 155,-317 158.22,-318.74 161.59,-320.39 165.03,-321.96"/>
<polygon fill="#63b8ff" stroke="#63b8ff" points="163.7,-325.2 174.27,-325.9 166.45,-318.76 163.7,-325.2"/>
</a>
</g>
</g>
<!-- Node14 -->
<g id="Node000014" class="node">
<title>Node14</title>
<g id="a_Node000014"><a xlink:href="classAP__HAL_1_1Device.html#a70dfdce544c892e9db5df62137da797d" target="_top" xlink:title=" ">
<polygon fill="white" stroke="#666666" points="282,-308 166,-308 166,-278 282,-278 282,-308"/>
<text text-anchor="start" x="174" y="-296" font-family="Helvetica,sans-Serif" font-size="10.00">AP_HAL::Device::get</text>
<text text-anchor="middle" x="224" y="-285" font-family="Helvetica,sans-Serif" font-size="10.00">_semaphore</text>
</a>
</g>
</g>
<!-- Node1&#45;&gt;Node14 -->
<g id="edge15_Node000001_Node000014" class="edge">
<title>Node1&#45;&gt;Node14</title>
<g id="a_edge15_Node000001_Node000014"><a xlink:title=" ">
<path fill="none" stroke="#63b8ff" d="M92.99,-254.6C112.77,-260.44 138.66,-268.09 162.12,-275.02"/>
<polygon fill="#63b8ff" stroke="#63b8ff" points="161.42,-278.46 172.01,-277.94 163.41,-271.75 161.42,-278.46"/>
</a>
</g>
</g>
<!-- Node15 -->
<g id="Node000015" class="node">
<title>Node15</title>
<g id="a_Node000015"><a xlink:href="classAP__HAL_1_1Device.html#ab516a6ba589841ce07a5cc4ef599ac62" target="_top" xlink:title=" ">
<polygon fill="white" stroke="#666666" points="292.5,-260 155.5,-260 155.5,-230 292.5,-230 292.5,-260"/>
<text text-anchor="start" x="163.5" y="-248" font-family="Helvetica,sans-Serif" font-size="10.00">AP_HAL::Device::register</text>
<text text-anchor="middle" x="224" y="-237" font-family="Helvetica,sans-Serif" font-size="10.00">_periodic_callback</text>
</a>
</g>
</g>
<!-- Node1&#45;&gt;Node15 -->
<g id="edge17_Node000001_Node000015" class="edge">
<title>Node1&#45;&gt;Node15</title>
<g id="a_edge17_Node000001_Node000015"><a xlink:title=" ">
<path fill="none" stroke="#63b8ff" d="M119.17,-245C127.6,-245 136.38,-245 145.11,-245"/>
<polygon fill="#63b8ff" stroke="#63b8ff" points="145.31,-248.5 155.31,-245 145.31,-241.5 145.31,-248.5"/>
</a>
</g>
</g>
<!-- Node16 -->
<g id="Node000016" class="node">
<title>Node16</title>
<g id="a_Node000016"><a xlink:href="classAP__Baro.html#a2679b96d8c843053af9c658ff3efad73" target="_top" xlink:title=" ">
<polygon fill="white" stroke="#666666" points="293,-211.5 155,-211.5 155,-192.5 293,-192.5 293,-211.5"/>
<text text-anchor="middle" x="224" y="-199.5" font-family="Helvetica,sans-Serif" font-size="10.00">AP_Baro::register_sensor</text>
</a>
</g>
</g>
<!-- Node1&#45;&gt;Node16 -->
<g id="edge18_Node000001_Node000016" class="edge">
<title>Node1&#45;&gt;Node16</title>
<g id="a_edge18_Node000001_Node000016"><a xlink:title=" ">
<path fill="none" stroke="#63b8ff" d="M96.56,-235.46C120.34,-229.17 151.68,-220.87 177.21,-214.12"/>
<polygon fill="#63b8ff" stroke="#63b8ff" points="178.26,-217.46 187.04,-211.52 176.47,-210.69 178.26,-217.46"/>
</a>
</g>
</g>
<!-- Node21 -->
<g id="Node000021" class="node">
<title>Node21</title>
<g id="a_Node000021"><a xlink:href="classAP__Baro__Backend.html#a403306e8c9b696437c13a2f0af427c9c" target="_top" xlink:title=" ">
<polygon fill="white" stroke="#666666" points="286.5,-174 161.5,-174 161.5,-144 286.5,-144 286.5,-174"/>
<text text-anchor="start" x="169.5" y="-162" font-family="Helvetica,sans-Serif" font-size="10.00">AP_Baro_Backend::set</text>
<text text-anchor="middle" x="224" y="-151" font-family="Helvetica,sans-Serif" font-size="10.00">_bus_id</text>
</a>
</g>
</g>
<!-- Node1&#45;&gt;Node21 -->
<g id="edge23_Node000001_Node000021" class="edge">
<title>Node1&#45;&gt;Node21</title>
<g id="a_edge23_Node000001_Node000021"><a xlink:title=" ">
<path fill="none" stroke="#63b8ff" d="M73.05,-235.34C90.62,-222.15 123.88,-198.42 155,-183 158.56,-181.24 162.28,-179.54 166.07,-177.93"/>
<polygon fill="#63b8ff" stroke="#63b8ff" points="167.61,-181.08 175.57,-174.08 164.98,-174.59 167.61,-181.08"/>
</a>
</g>
</g>
<!-- Node22 -->
<g id="Node000022" class="node">
<title>Node22</title>
<g id="a_Node000022"><a xlink:href="classAP__HAL_1_1Device.html#abfaea61b5effc35f48d6b30e1e995ea9" target="_top" xlink:title=" ">
<polygon fill="white" stroke="#666666" points="281.5,-126 166.5,-126 166.5,-96 281.5,-96 281.5,-126"/>
<text text-anchor="start" x="174.5" y="-114" font-family="Helvetica,sans-Serif" font-size="10.00">AP_HAL::Device::set</text>
<text text-anchor="middle" x="224" y="-103" font-family="Helvetica,sans-Serif" font-size="10.00">_device_type</text>
</a>
</g>
</g>
<!-- Node1&#45;&gt;Node22 -->
<g id="edge24_Node000001_Node000022" class="edge">
<title>Node1&#45;&gt;Node22</title>
<g id="a_edge24_Node000001_Node000022"><a xlink:title=" ">
<path fill="none" stroke="#63b8ff" d="M66.32,-235.28C79.49,-214.07 113.65,-163.3 155,-135 157.25,-133.46 159.6,-132.01 162.03,-130.65"/>
<polygon fill="#63b8ff" stroke="#63b8ff" points="163.75,-133.7 171.1,-126.06 160.59,-127.45 163.75,-133.7"/>
</a>
</g>
</g>
<!-- Node23 -->
<g id="Node000023" class="node">
<title>Node23</title>
<g id="a_Node000023"><a xlink:href="classAP__HAL_1_1Device.html#ab8df2848215253ccd70298be7bb52339" target="_top" xlink:title=" ">
<polygon fill="white" stroke="#666666" points="281.5,-78 166.5,-78 166.5,-48 281.5,-48 281.5,-78"/>
<text text-anchor="start" x="174.5" y="-66" font-family="Helvetica,sans-Serif" font-size="10.00">AP_HAL::Device::set</text>
<text text-anchor="middle" x="224" y="-55" font-family="Helvetica,sans-Serif" font-size="10.00">_speed</text>
</a>
</g>
</g>
<!-- Node1&#45;&gt;Node23 -->
<g id="edge25_Node000001_Node000023" class="edge">
<title>Node1&#45;&gt;Node23</title>
<g id="a_edge25_Node000001_Node000023"><a xlink:title=" ">
<path fill="none" stroke="#63b8ff" d="M63.66,-235.26C73.03,-207.84 103.29,-129.29 155,-87 156.56,-85.72 158.2,-84.51 159.89,-83.36"/>
<polygon fill="#63b8ff" stroke="#63b8ff" points="161.94,-86.22 168.77,-78.12 158.38,-80.19 161.94,-86.22"/>
</a>
</g>
</g>
<!-- Node24 -->
<g id="Node000024" class="node">
<title>Node24</title>
<g id="a_Node000024"><a xlink:href="classAP__HAL_1_1Device.html#a4bad879386bd93b7f2340bff1437d041" target="_top" xlink:title=" ">
<polygon fill="white" stroke="#666666" points="287.5,-30 160.5,-30 160.5,0 287.5,0 287.5,-30"/>
<text text-anchor="start" x="168.5" y="-18" font-family="Helvetica,sans-Serif" font-size="10.00">AP_HAL::Device::setup</text>
<text text-anchor="middle" x="224" y="-7" font-family="Helvetica,sans-Serif" font-size="10.00">_checked_registers</text>
</a>
</g>
</g>
<!-- Node1&#45;&gt;Node24 -->
<g id="edge26_Node000001_Node000024" class="edge">
<title>Node1&#45;&gt;Node24</title>
<g id="a_edge26_Node000001_Node000024"><a xlink:title=" ">
<path fill="none" stroke="#63b8ff" d="M62.19,-235.23C68.33,-202.57 92.53,-96.04 155,-39 156.3,-37.81 157.67,-36.68 159.09,-35.6"/>
<polygon fill="#63b8ff" stroke="#63b8ff" points="161.2,-38.4 167.69,-30.03 157.4,-32.53 161.2,-38.4"/>
</a>
</g>
</g>
<!-- Node3 -->
<g id="Node000003" class="node">
<title>Node3</title>
<g id="a_Node000003"><a xlink:href="classAP__Baro__SPL06.html#a91a470556bec491a8d3630c999765e83" target="_top" xlink:title=" ">
<polygon fill="white" stroke="#666666" points="466,-581 329,-581 329,-551 466,-551 466,-581"/>
<text text-anchor="start" x="337" y="-569" font-family="Helvetica,sans-Serif" font-size="10.00">AP_Baro_SPL06::_update</text>
<text text-anchor="middle" x="397.5" y="-558" font-family="Helvetica,sans-Serif" font-size="10.00">_pressure</text>
</a>
</g>
</g>
<!-- Node2&#45;&gt;Node3 -->
<g id="edge2_Node000002_Node000003" class="edge">
<title>Node2&#45;&gt;Node3</title>
<g id="a_edge2_Node000002_Node000003"><a xlink:title=" ">
<path fill="none" stroke="#63b8ff" d="M235.8,-474.72C253.93,-490.61 292.12,-522.35 329,-542 332.27,-543.74 335.68,-545.4 339.18,-546.97"/>
<polygon fill="#63b8ff" stroke="#63b8ff" points="337.96,-550.26 348.53,-550.94 340.69,-543.81 337.96,-550.26"/>
</a>
</g>
</g>
<!-- Node8 -->
<g id="Node000008" class="node">
<title>Node8</title>
<g id="a_Node000008"><a xlink:href="classAP__Baro__SPL06.html#abf02fe2c0b291635c5370acee166b18e" target="_top" xlink:title=" ">
<polygon fill="white" stroke="#666666" points="466,-533 329,-533 329,-503 466,-503 466,-533"/>
<text text-anchor="start" x="337" y="-521" font-family="Helvetica,sans-Serif" font-size="10.00">AP_Baro_SPL06::_update</text>
<text text-anchor="middle" x="397.5" y="-510" font-family="Helvetica,sans-Serif" font-size="10.00">_temperature</text>
</a>
</g>
</g>
<!-- Node2&#45;&gt;Node8 -->
<g id="edge8_Node000002_Node000008" class="edge">
<title>Node2&#45;&gt;Node8</title>
<g id="a_edge8_Node000002_Node000008"><a xlink:title=" ">
<path fill="none" stroke="#63b8ff" d="M256.06,-474.6C278.84,-481.64 310.46,-491.41 337.93,-499.9"/>
<polygon fill="#63b8ff" stroke="#63b8ff" points="337.25,-503.35 347.84,-502.96 339.32,-496.67 337.25,-503.35"/>
</a>
</g>
</g>
<!-- Node9 -->
<g id="Node000009" class="node">
<title>Node9</title>
<g id="a_Node000009"><a xlink:href="classAP__HAL_1_1Device.html#a81202d89062b62f93bf8d13fa30a86d0" target="_top" xlink:title=" ">
<polygon fill="white" stroke="#666666" points="461.5,-485 333.5,-485 333.5,-455 461.5,-455 461.5,-485"/>
<text text-anchor="start" x="341.5" y="-473" font-family="Helvetica,sans-Serif" font-size="10.00">AP_HAL::Device::check</text>
<text text-anchor="middle" x="397.5" y="-462" font-family="Helvetica,sans-Serif" font-size="10.00">_next_register</text>
</a>
</g>
</g>
<!-- Node2&#45;&gt;Node9 -->
<g id="edge10_Node000002_Node000009" class="edge">
<title>Node2&#45;&gt;Node9</title>
<g id="a_edge10_Node000002_Node000009"><a xlink:title=" ">
<path fill="none" stroke="#63b8ff" d="M288.86,-466.86C300.13,-467.19 311.94,-467.53 323.44,-467.87"/>
<polygon fill="#63b8ff" stroke="#63b8ff" points="323.34,-471.37 333.44,-468.16 323.55,-464.37 323.34,-471.37"/>
</a>
</g>
</g>
<!-- Node2&#45;&gt;Node11 -->
<g id="edge12_Node000002_Node000011" class="edge">
<title>Node2&#45;&gt;Node11</title>
<g id="a_edge12_Node000002_Node000011"><a xlink:title=" ">
<path fill="none" stroke="#63b8ff" d="M263.06,-455.46C281.8,-450.76 305,-444.94 326.77,-439.48"/>
<polygon fill="#63b8ff" stroke="#63b8ff" points="327.8,-442.83 336.65,-437.01 326.1,-436.04 327.8,-442.83"/>
</a>
</g>
</g>
<!-- Node2&#45;&gt;Node12 -->
<g id="edge13_Node000002_Node000012" class="edge">
<title>Node2&#45;&gt;Node12</title>
<g id="a_edge13_Node000002_Node000012"><a xlink:title=" ">
<path fill="none" stroke="#63b8ff" d="M237.88,-455.3C256.98,-441.25 294.31,-415.06 329,-398 332.7,-396.18 336.58,-394.43 340.53,-392.76"/>
<polygon fill="#63b8ff" stroke="#63b8ff" points="341.84,-396 349.8,-389.01 339.22,-389.51 341.84,-396"/>
</a>
</g>
</g>
<!-- Node4 -->
<g id="Node000004" class="node">
<title>Node4</title>
<g id="a_Node000004"><a xlink:href="classAP__Baro__Backend.html#adf46bf795e1e13967264596cf4faadd7" target="_top" xlink:title=" ">
<polygon fill="white" stroke="#666666" points="671,-575.5 502,-575.5 502,-556.5 671,-556.5 671,-575.5"/>
<text text-anchor="middle" x="586.5" y="-563.5" font-family="Helvetica,sans-Serif" font-size="10.00">AP_Baro_Backend::pressure_ok</text>
</a>
</g>
</g>
<!-- Node3&#45;&gt;Node4 -->
<g id="edge3_Node000003_Node000004" class="edge">
<title>Node3&#45;&gt;Node4</title>
<g id="a_edge3_Node000003_Node000004"><a xlink:title=" ">
<path fill="none" stroke="#63b8ff" d="M466.01,-566C474.36,-566 483,-566 491.65,-566"/>
<polygon fill="#63b8ff" stroke="#63b8ff" points="491.79,-569.5 501.79,-566 491.79,-562.5 491.79,-569.5"/>
</a>
</g>
</g>
<!-- Node7 -->
<g id="Node000007" class="node">
<title>Node7</title>
<g id="a_Node000007"><a xlink:href="classAP__Baro__SPL06.html#ab186731e070bdbb98a22c03f1befbd5e" target="_top" xlink:title=" ">
<polygon fill="white" stroke="#666666" points="644.5,-535 528.5,-535 528.5,-505 644.5,-505 644.5,-535"/>
<text text-anchor="start" x="536.5" y="-523" font-family="Helvetica,sans-Serif" font-size="10.00">AP_Baro_SPL06::raw</text>
<text text-anchor="middle" x="586.5" y="-512" font-family="Helvetica,sans-Serif" font-size="10.00">_value_scale_factor</text>
</a>
</g>
</g>
<!-- Node3&#45;&gt;Node7 -->
<g id="edge7_Node000003_Node000007" class="edge">
<title>Node3&#45;&gt;Node7</title>
<g id="a_edge7_Node000003_Node000007"><a xlink:title=" ">
<path fill="none" stroke="#63b8ff" d="M459.73,-550.94C478.51,-546.32 499.26,-541.21 518.41,-536.5"/>
<polygon fill="#63b8ff" stroke="#63b8ff" points="519.38,-539.87 528.25,-534.08 517.71,-533.07 519.38,-539.87"/>
</a>
</g>
</g>
<!-- Node5 -->
<g id="Node000005" class="node">
<title>Node5</title>
<g id="a_Node000005"><a xlink:href="classAP__Baro.html#a0f2f5b99445cb04a204cbf48819d82c0" target="_top" xlink:title=" ">
<polygon fill="white" stroke="#666666" points="814,-611 707,-611 707,-581 814,-581 814,-611"/>
<text text-anchor="start" x="715" y="-599" font-family="Helvetica,sans-Serif" font-size="10.00">AP_Baro::get_filter</text>
<text text-anchor="middle" x="760.5" y="-588" font-family="Helvetica,sans-Serif" font-size="10.00">_range</text>
</a>
</g>
</g>
<!-- Node4&#45;&gt;Node5 -->
<g id="edge4_Node000004_Node000005" class="edge">
<title>Node4&#45;&gt;Node5</title>
<g id="a_edge4_Node000004_Node000005"><a xlink:title=" ">
<path fill="none" stroke="#63b8ff" d="M642.39,-575.57C659.65,-578.58 678.84,-581.93 696.61,-585.03"/>
<polygon fill="#63b8ff" stroke="#63b8ff" points="696.43,-588.55 706.88,-586.82 697.63,-581.66 696.43,-588.55"/>
</a>
</g>
</g>
<!-- Node6 -->
<g id="Node000006" class="node">
<title>Node6</title>
<g id="a_Node000006"><a xlink:href="AP__Math_8h.html#a2a12cce483e9b870da70d30406d82c60" target="_top" xlink:title=" ">
<polygon fill="white" stroke="#666666" points="786,-544.5 735,-544.5 735,-525.5 786,-525.5 786,-544.5"/>
<text text-anchor="middle" x="760.5" y="-532.5" font-family="Helvetica,sans-Serif" font-size="10.00">is_zero</text>
</a>
</g>
</g>
<!-- Node4&#45;&gt;Node6 -->
<g id="edge5_Node000004_Node000006" class="edge">
<title>Node4&#45;&gt;Node6</title>
<g id="a_edge5_Node000004_Node000006"><a xlink:title=" ">
<path fill="none" stroke="#63b8ff" d="M640.51,-556.45C667.85,-551.52 700.44,-545.64 724.59,-541.29"/>
<polygon fill="#63b8ff" stroke="#63b8ff" points="725.49,-544.69 734.71,-539.47 724.25,-537.8 725.49,-544.69"/>
</a>
</g>
</g>
<!-- Node6&#45;&gt;Node6 -->
<g id="edge6_Node000006_Node000006" class="edge">
<title>Node6&#45;&gt;Node6</title>
<g id="a_edge6_Node000006_Node000006"><a xlink:title=" ">
<path fill="none" stroke="#63b8ff" d="M734.87,-544.01C720.72,-552.82 729.26,-562.5 760.5,-562.5 782.47,-562.5 793.21,-557.72 792.73,-551.81"/>
<polygon fill="#63b8ff" stroke="#63b8ff" points="795.26,-549.38 786.13,-544.01 789.92,-553.91 795.26,-549.38"/>
</a>
</g>
</g>
<!-- Node8&#45;&gt;Node7 -->
<g id="edge9_Node000008_Node000007" class="edge">
<title>Node8&#45;&gt;Node7</title>
<g id="a_edge9_Node000008_Node000007"><a xlink:title=" ">
<path fill="none" stroke="#63b8ff" d="M466.01,-518.72C482.91,-518.9 501.03,-519.1 517.93,-519.28"/>
<polygon fill="#63b8ff" stroke="#63b8ff" points="518.23,-522.78 528.27,-519.39 518.3,-515.78 518.23,-522.78"/>
</a>
</g>
</g>
<!-- Node10 -->
<g id="Node000010" class="node">
<title>Node10</title>
<g id="a_Node000010"><a xlink:href="stdio_8h.html#a55f3d956bb2ba20b5059e9e25484a47f" target="_top" xlink:title=" ">
<polygon fill="white" stroke="#666666" points="608,-479.5 565,-479.5 565,-460.5 608,-460.5 608,-479.5"/>
<text text-anchor="middle" x="586.5" y="-467.5" font-family="Helvetica,sans-Serif" font-size="10.00">printf</text>
</a>
</g>
</g>
<!-- Node9&#45;&gt;Node10 -->
<g id="edge11_Node000009_Node000010" class="edge">
<title>Node9&#45;&gt;Node10</title>
<g id="a_edge11_Node000009_Node000010"><a xlink:title=" ">
<path fill="none" stroke="#63b8ff" d="M461.55,-470C492.91,-470 529.4,-470 554.63,-470"/>
<polygon fill="#63b8ff" stroke="#63b8ff" points="554.7,-473.5 564.7,-470 554.7,-466.5 554.7,-473.5"/>
</a>
</g>
</g>
<!-- Node17 -->
<g id="Node000017" class="node">
<title>Node17</title>
<g id="a_Node000017"><a xlink:href="namespaceAP__HAL.html#a52edeef7d5ffaa365e1229b87c170307" target="_top" xlink:title=" ">
<polygon fill="white" stroke="#666666" points="440.5,-211.5 354.5,-211.5 354.5,-192.5 440.5,-192.5 440.5,-211.5"/>
<text text-anchor="middle" x="397.5" y="-199.5" font-family="Helvetica,sans-Serif" font-size="10.00">AP_HAL::panic</text>
</a>
</g>
</g>
<!-- Node16&#45;&gt;Node17 -->
<g id="edge19_Node000016_Node000017" class="edge">
<title>Node16&#45;&gt;Node17</title>
<g id="a_edge19_Node000016_Node000017"><a xlink:title=" ">
<path fill="none" stroke="#63b8ff" d="M293.27,-202C310.13,-202 327.93,-202 343.91,-202"/>
<polygon fill="#63b8ff" stroke="#63b8ff" points="344.12,-205.5 354.12,-202 344.12,-198.5 344.12,-205.5"/>
</a>
</g>
</g>
<!-- Node18 -->
<g id="Node000018" class="node">
<title>Node18</title>
<g id="a_Node000018"><a xlink:href="classAP__HAL_1_1Scheduler.html#ab3175e2e6223ccfe82f957e41cc12b26" target="_top" xlink:title=" ">
<polygon fill="white" stroke="#666666" points="643.5,-265 529.5,-265 529.5,-235 643.5,-235 643.5,-265"/>
<text text-anchor="start" x="537.5" y="-253" font-family="Helvetica,sans-Serif" font-size="10.00">AP_HAL::Scheduler::</text>
<text text-anchor="middle" x="586.5" y="-242" font-family="Helvetica,sans-Serif" font-size="10.00">delay</text>
</a>
</g>
</g>
<!-- Node17&#45;&gt;Node18 -->
<g id="edge20_Node000017_Node000018" class="edge">
<title>Node17&#45;&gt;Node18</title>
<g id="a_edge20_Node000017_Node000018"><a xlink:title=" ">
<path fill="none" stroke="#63b8ff" d="M435.89,-211.6C459.82,-217.74 491.54,-225.88 519.6,-233.09"/>
<polygon fill="#63b8ff" stroke="#63b8ff" points="518.8,-236.49 529.36,-235.59 520.55,-229.71 518.8,-236.49"/>
</a>
</g>
</g>
<!-- Node19 -->
<g id="Node000019" class="node">
<title>Node19</title>
<g id="a_Node000019"><a xlink:href="classAP__HAL_1_1Scheduler.html#a78c4f1b1f192ac1c99544b6cc8f099b0" target="_top" xlink:title=" ">
<polygon fill="white" stroke="#666666" points="644.5,-217 528.5,-217 528.5,-187 644.5,-187 644.5,-217"/>
<text text-anchor="start" x="536.5" y="-205" font-family="Helvetica,sans-Serif" font-size="10.00">AP_HAL::Scheduler::</text>
<text text-anchor="middle" x="586.5" y="-194" font-family="Helvetica,sans-Serif" font-size="10.00">delay_microseconds</text>
</a>
</g>
</g>
<!-- Node17&#45;&gt;Node19 -->
<g id="edge21_Node000017_Node000019" class="edge">
<title>Node17&#45;&gt;Node19</title>
<g id="a_edge21_Node000017_Node000019"><a xlink:title=" ">
<path fill="none" stroke="#63b8ff" d="M440.93,-202C463.76,-202 492.46,-202 518.25,-202"/>
<polygon fill="#63b8ff" stroke="#63b8ff" points="518.35,-205.5 528.35,-202 518.35,-198.5 518.35,-205.5"/>
</a>
</g>
</g>
<!-- Node20 -->
<g id="Node000020" class="node">
<title>Node20</title>
<g id="a_Node000020"><a xlink:href="stdio_8h.html#aae132cc6af1eb6cf43bf011d8d63e854" target="_top" xlink:title=" ">
<polygon fill="white" stroke="#666666" points="611,-168.5 562,-168.5 562,-149.5 611,-149.5 611,-168.5"/>
<text text-anchor="middle" x="586.5" y="-156.5" font-family="Helvetica,sans-Serif" font-size="10.00">vprintf</text>
</a>
</g>
</g>
<!-- Node17&#45;&gt;Node20 -->
<g id="edge22_Node000017_Node000020" class="edge">
<title>Node17&#45;&gt;Node20</title>
<g id="a_edge22_Node000017_Node000020"><a xlink:title=" ">
<path fill="none" stroke="#63b8ff" d="M439.79,-192.38C458.74,-187.98 481.51,-182.71 502,-178 518.36,-174.24 536.54,-170.1 551.75,-166.65"/>
<polygon fill="#63b8ff" stroke="#63b8ff" points="552.76,-170.01 561.74,-164.38 551.21,-163.18 552.76,-170.01"/>
</a>
</g>
</g>
</g>
</svg>

<g id="navigator" transform="translate(0 0)" fill="#404254">
  <rect fill="#f2f5e9" fill-opacity="0.5" stroke="#606060" stroke-width=".5" x="0" y="0" width="60" height="60"/>
  <use id="zoomplus" xlink:href="#zoomPlus" x="17" y="9" onmousedown="handleZoom(evt,'in')"/>
  <use id="zoomminus" xlink:href="#zoomMin" x="42" y="9" onmousedown="handleZoom(evt,'out')"/>
  <use id="reset" xlink:href="#resetDef" x="30" y="36" onmousedown="handleReset()"/>
   <use id="arrowup" xlink:href="#arrowUp" x="0" y="0" onmousedown="handlePan(0,-1)"/>
  <use id="arrowright" xlink:href="#arrowRight" x="0" y="0" onmousedown="handlePan(1,0)"/>
  <use id="arrowdown" xlink:href="#arrowDown" x="0" y="0" onmousedown="handlePan(0,1)"/>
  <use id="arrowleft" xlink:href="#arrowLeft" x="0" y="0" onmousedown="handlePan(-1,0)"/>
</g>
<svg viewBox="0 0 15 15" width="100%" height="30px" preserveAspectRatio="xMaxYMin meet">
 <g id="arrow_out" transform="scale(0.3 0.3)">
  <a xlink:href="classAP__Baro__SPL06_a941367d16d885fe2849a96a0bfb42bd4_cgraph_org.svg" target="_base">
   <rect id="button" ry="5" rx="5" y="6" x="6" height="38" width="38"
        fill="#f2f5e9" fill-opacity="0.5" stroke="#606060" stroke-width="1.0"/>
   <path id="arrow"
     d="M 11.500037,31.436501 C 11.940474,20.09759 22.043105,11.32322 32.158766,21.979434 L 37.068811,17.246167 C 37.068811,17.246167 37.088388,32 37.088388,32 L 22.160133,31.978069 C 22.160133,31.978069 26.997745,27.140456 26.997745,27.140456 C 18.528582,18.264221 13.291696,25.230495 11.500037,31.436501 z"
     style="fill:#404040;"/>
  </a>
 </g>
</svg>

<style type='text/css'>
<![CDATA[
[data-mouse-over-selected='false'] { opacity: 0.7; }
[data-mouse-over-selected='true']  { opacity: 1.0; }
]]>
</style>
<script type="application/ecmascript"><![CDATA[
document.addEventListener('DOMContentLoaded', (event) => {
  highlightEdges();
  highlightAdjacentNodes();
});
]]></script>
</svg>
