<?xml version="1.0" encoding="UTF-8" standalone="no"?>
<!DOCTYPE svg PUBLIC "-//W3C//DTD SVG 1.1//EN"
 "http://www.w3.org/Graphics/SVG/1.1/DTD/svg11.dtd">
<!-- Generated by graphviz version 2.43.0 (0)
 -->
<!-- Title: AP_HAL::UARTDriver::bw_in_bytes_per_second Pages: 1 -->
<!--zoomable 86 -->

<svg id="main" version="1.1" xmlns="http://www.w3.org/2000/svg" xmlns:xlink="http://www.w3.org/1999/xlink" xml:space="preserve" onload="init(evt)">
<style type="text/css"><![CDATA[
.node, .edge {opacity: 0.7;}
.node.selected, .edge.selected {opacity: 1;}
.edge:hover path { stroke: red; }
.edge:hover polygon { stroke: red; fill: red; }
]]></style>

<defs>
  <circle id="rim" cx="0" cy="0" r="7"/>
  <circle id="rim2" cx="0" cy="0" r="3.5"/>
  <g id="zoomPlus">
    <use xlink:href="#rim" fill="#404040"><set attributeName="fill" to="#808080" begin="zoomplus.mouseover" end="zoomplus.mouseout"/></use>
    <path d="M-4,0h8M0,-4v8" fill="none" stroke="white" stroke-width="1.5" pointer-events="none"/>
  </g>
  <g id="zoomMin">
    <use xlink:href="#rim" fill="#404040"><set attributeName="fill" to="#808080" begin="zoomminus.mouseover" end="zoomminus.mouseout"/></use>
    <path d="M-4,0h8" fill="none" stroke="white" stroke-width="1.5" pointer-events="none"/>
  </g>
  <g id="arrowUp" transform="translate(30 24)">
    <use xlink:href="#rim"/>
    <path pointer-events="none" fill="none" stroke="white" stroke-width="1.5" d="M0,-3.0v7 M-2.5,-0.5L0,-3.0L2.5,-0.5"/>
  </g>
  <g id="arrowRight" transform="rotate(90) translate(36 -43)">
    <use xlink:href="#rim"/>
    <path pointer-events="none" fill="none" stroke="white" stroke-width="1.5" d="M0,-3.0v7 M-2.5,-0.5L0,-3.0L2.5,-0.5"/>
  </g>
  <g id="arrowDown" transform="rotate(180) translate(-30 -48)">
    <use xlink:href="#rim"/>
    <path pointer-events="none" fill="none" stroke="white" stroke-width="1.5" d="M0,-3.0v7 M-2.5,-0.5L0,-3.0L2.5,-0.5"/>
  </g>
  <g id="arrowLeft" transform="rotate(270) translate(-36 17)">
    <use xlink:href="#rim"/>
    <path pointer-events="none" fill="none" stroke="white" stroke-width="1.5" d="M0,-3.0v7 M-2.5,-0.5L0,-3.0L2.5,-0.5"/>
  </g>
  <g id="resetDef">
    <use xlink:href="#rim2" fill="#404040"><set attributeName="fill" to="#808080" begin="reset.mouseover" end="reset.mouseout"/></use>
  </g>
</defs>
<script type="application/ecmascript">
var viewWidth = 1221;
var viewHeight = 86;
var sectionId = 'dynsection-7';
</script>
<script type="application/ecmascript" xlink:href="svg.min.js"/>
<svg id="graph" class="graph">
<g id="viewport">
<title>AP_HAL::UARTDriver::bw_in_bytes_per_second</title>
<!-- Node1 -->
<g id="Node000001" class="node">
<title>Node1</title>
<g id="a_Node000001"><a xlink:title=" ">
<polygon fill="#999999" stroke="#666666" points="1213,-53 1069,-53 1069,-23 1213,-23 1213,-53"/>
<text text-anchor="start" x="1077" y="-41" font-family="Helvetica,sans-Serif" font-size="10.00">AP_HAL::UARTDriver</text>
<text text-anchor="middle" x="1141" y="-30" font-family="Helvetica,sans-Serif" font-size="10.00">::bw_in_bytes_per_second</text>
</a>
</g>
</g>
<!-- Node2 -->
<g id="Node000002" class="node">
<title>Node2</title>
<g id="a_Node000002"><a xlink:href="classGCS__MAVLINK.html#ab30c1437af0af0e19ed4c864188c78d3" target="_top" xlink:title=" ">
<polygon fill="white" stroke="#666666" points="1033,-69.5 890,-69.5 890,-50.5 1033,-50.5 1033,-69.5"/>
<text text-anchor="middle" x="961.5" y="-57.5" font-family="Helvetica,sans-Serif" font-size="10.00">GCS_MAVLINK::ftp_worker</text>
</a>
</g>
</g>
<!-- Node1&#45;&gt;Node2 -->
<g id="edge1_Node000001_Node000002" class="edge">
<title>Node1&#45;&gt;Node2</title>
<g id="a_edge1_Node000001_Node000002"><a xlink:title=" ">
<path fill="none" stroke="#63b8ff" d="M1058.82,-48.06C1050.23,-49.13 1041.56,-50.2 1033.11,-51.25"/>
<polygon fill="#63b8ff" stroke="#63b8ff" points="1059.33,-51.53 1068.83,-46.82 1058.47,-44.58 1059.33,-51.53"/>
</a>
</g>
</g>
<!-- Node8 -->
<g id="Node000008" class="node">
<title>Node8</title>
<g id="a_Node000008"><a xlink:href="classGCS__MAVLINK.html#a508b2da2af9a77f175c60cac467cec70" target="_top" xlink:title="Send the next pending parameter, called from deferred message handling code.">
<polygon fill="white" stroke="#666666" points="1025.5,-32 897.5,-32 897.5,-2 1025.5,-2 1025.5,-32"/>
<text text-anchor="start" x="905.5" y="-20" font-family="Helvetica,sans-Serif" font-size="10.00">GCS_MAVLINK::queued</text>
<text text-anchor="middle" x="961.5" y="-9" font-family="Helvetica,sans-Serif" font-size="10.00">_param_send</text>
</a>
</g>
</g>
<!-- Node1&#45;&gt;Node8 -->
<g id="edge7_Node000001_Node000008" class="edge">
<title>Node1&#45;&gt;Node8</title>
<g id="a_edge7_Node000001_Node000008"><a xlink:title=" ">
<path fill="none" stroke="#63b8ff" d="M1058.71,-28.38C1047.62,-27.07 1036.37,-25.74 1025.67,-24.47"/>
<polygon fill="#63b8ff" stroke="#63b8ff" points="1058.48,-31.88 1068.83,-29.58 1059.31,-24.93 1058.48,-31.88"/>
</a>
</g>
</g>
<!-- Node3 -->
<g id="Node000003" class="node">
<title>Node3</title>
<g id="a_Node000003"><a xlink:href="classGCS__MAVLINK.html#a79018dbfafc49eecfebce8a9c8e7819e" target="_top" xlink:title=" ">
<polygon fill="white" stroke="#666666" points="850,-70.5 724,-70.5 724,-51.5 850,-51.5 850,-70.5"/>
<text text-anchor="middle" x="787" y="-58.5" font-family="Helvetica,sans-Serif" font-size="10.00">GCS_MAVLINK::ftp_init</text>
</a>
</g>
</g>
<!-- Node2&#45;&gt;Node3 -->
<g id="edge2_Node000002_Node000003" class="edge">
<title>Node2&#45;&gt;Node3</title>
<g id="a_edge2_Node000002_Node000003"><a xlink:title=" ">
<path fill="none" stroke="#63b8ff" d="M879.62,-60.47C869.75,-60.53 859.79,-60.58 850.26,-60.64"/>
<polygon fill="#63b8ff" stroke="#63b8ff" points="879.86,-63.97 889.84,-60.41 879.82,-56.97 879.86,-63.97"/>
</a>
</g>
</g>
<!-- Node4 -->
<g id="Node000004" class="node">
<title>Node4</title>
<g id="a_Node000004"><a xlink:href="classGCS__MAVLINK.html#a1b57878ddd125d1a984fbd5b60f1f0c0" target="_top" xlink:title=" ">
<polygon fill="white" stroke="#666666" points="684,-78 559,-78 559,-48 684,-48 684,-78"/>
<text text-anchor="start" x="567" y="-66" font-family="Helvetica,sans-Serif" font-size="10.00">GCS_MAVLINK::handle</text>
<text text-anchor="middle" x="621.5" y="-55" font-family="Helvetica,sans-Serif" font-size="10.00">_file_transfer_protocol</text>
</a>
</g>
</g>
<!-- Node3&#45;&gt;Node4 -->
<g id="edge3_Node000003_Node000004" class="edge">
<title>Node3&#45;&gt;Node4</title>
<g id="a_edge3_Node000003_Node000004"><a xlink:title=" ">
<path fill="none" stroke="#63b8ff" d="M713.56,-61.89C703.71,-62.01 693.69,-62.13 684.06,-62.25"/>
<polygon fill="#63b8ff" stroke="#63b8ff" points="713.76,-65.38 723.72,-61.76 713.68,-58.38 713.76,-65.38"/>
</a>
</g>
</g>
<!-- Node5 -->
<g id="Node000005" class="node">
<title>Node5</title>
<g id="a_Node000005"><a xlink:href="classGCS__MAVLINK.html#a04524aa4f259e8c03bcfe2d06fc53f62" target="_top" xlink:title=" ">
<polygon fill="white" stroke="#666666" points="508,-78 383,-78 383,-48 508,-48 508,-78"/>
<text text-anchor="start" x="391" y="-66" font-family="Helvetica,sans-Serif" font-size="10.00">GCS_MAVLINK::handle</text>
<text text-anchor="middle" x="445.5" y="-55" font-family="Helvetica,sans-Serif" font-size="10.00">_message</text>
</a>
</g>
</g>
<!-- Node4&#45;&gt;Node5 -->
<g id="edge4_Node000004_Node000005" class="edge">
<title>Node4&#45;&gt;Node5</title>
<g id="a_edge4_Node000004_Node000005"><a xlink:title=" ">
<path fill="none" stroke="#63b8ff" d="M548.52,-63C535.11,-63 521.21,-63 508.14,-63"/>
<polygon fill="#63b8ff" stroke="#63b8ff" points="548.66,-66.5 558.66,-63 548.66,-59.5 548.66,-66.5"/>
</a>
</g>
</g>
<!-- Node6 -->
<g id="Node000006" class="node">
<title>Node6</title>
<g id="a_Node000006"><a xlink:href="classGCS__MAVLINK.html#a68afd5b3679a046f48da0b4a202bd572" target="_top" xlink:title=" ">
<polygon fill="white" stroke="#666666" points="332,-72.5 162,-72.5 162,-53.5 332,-53.5 332,-72.5"/>
<text text-anchor="middle" x="247" y="-60.5" font-family="Helvetica,sans-Serif" font-size="10.00">GCS_MAVLINK::packetReceived</text>
</a>
</g>
</g>
<!-- Node5&#45;&gt;Node6 -->
<g id="edge5_Node000005_Node000006" class="edge">
<title>Node5&#45;&gt;Node6</title>
<g id="a_edge5_Node000005_Node000006"><a xlink:title=" ">
<path fill="none" stroke="#63b8ff" d="M372.5,-63C359.36,-63 345.55,-63 332.1,-63"/>
<polygon fill="#63b8ff" stroke="#63b8ff" points="372.87,-66.5 382.87,-63 372.87,-59.5 372.87,-66.5"/>
</a>
</g>
</g>
<!-- Node7 -->
<g id="Node000007" class="node">
<title>Node7</title>
<g id="a_Node000007"><a xlink:href="classGCS__MAVLINK.html#ac22097067827164c0c26e7ead36b21e7" target="_top" xlink:title=" ">
<polygon fill="white" stroke="#666666" points="126,-78 0,-78 0,-48 126,-48 126,-78"/>
<text text-anchor="start" x="8" y="-66" font-family="Helvetica,sans-Serif" font-size="10.00">GCS_MAVLINK::update</text>
<text text-anchor="middle" x="63" y="-55" font-family="Helvetica,sans-Serif" font-size="10.00">_receive</text>
</a>
</g>
</g>
<!-- Node6&#45;&gt;Node7 -->
<g id="edge6_Node000006_Node000007" class="edge">
<title>Node6&#45;&gt;Node7</title>
<g id="a_edge6_Node000006_Node000007"><a xlink:title=" ">
<path fill="none" stroke="#63b8ff" d="M151.77,-63C143.12,-63 134.5,-63 126.24,-63"/>
<polygon fill="#63b8ff" stroke="#63b8ff" points="151.93,-66.5 161.93,-63 151.93,-59.5 151.93,-66.5"/>
</a>
</g>
</g>
<!-- Node9 -->
<g id="Node000009" class="node">
<title>Node9</title>
<g id="a_Node000009"><a xlink:href="classGCS__MAVLINK.html#a30034cdbd89bcfb86392411f9b5935db" target="_top" xlink:title=" ">
<polygon fill="white" stroke="#666666" points="854,-32 720,-32 720,-2 854,-2 854,-32"/>
<text text-anchor="start" x="728" y="-20" font-family="Helvetica,sans-Serif" font-size="10.00">GCS_MAVLINK::try_send</text>
<text text-anchor="middle" x="787" y="-9" font-family="Helvetica,sans-Serif" font-size="10.00">_message</text>
</a>
</g>
</g>
<!-- Node8&#45;&gt;Node9 -->
<g id="edge8_Node000008_Node000009" class="edge">
<title>Node8&#45;&gt;Node9</title>
<g id="a_edge8_Node000008_Node000009"><a xlink:title=" ">
<path fill="none" stroke="#63b8ff" d="M886.92,-17C876.03,-17 864.87,-17 854.14,-17"/>
<polygon fill="#63b8ff" stroke="#63b8ff" points="887.25,-20.5 897.25,-17 887.25,-13.5 887.25,-20.5"/>
</a>
</g>
</g>
<!-- Node10 -->
<g id="Node000010" class="node">
<title>Node10</title>
<g id="a_Node000010"><a xlink:href="classGCS__MAVLINK.html#ae94077536892270b4a40e5bcddb1c2f9" target="_top" xlink:title=" ">
<polygon fill="white" stroke="#666666" points="683,-30 560,-30 560,0 683,0 683,-30"/>
<text text-anchor="start" x="568" y="-18" font-family="Helvetica,sans-Serif" font-size="10.00">GCS_MAVLINK::do_try</text>
<text text-anchor="middle" x="621.5" y="-7" font-family="Helvetica,sans-Serif" font-size="10.00">_send_message</text>
</a>
</g>
</g>
<!-- Node9&#45;&gt;Node10 -->
<g id="edge9_Node000009_Node000010" class="edge">
<title>Node9&#45;&gt;Node10</title>
<g id="a_edge9_Node000009_Node000010"><a xlink:title=" ">
<path fill="none" stroke="#63b8ff" d="M709.92,-16.07C700.97,-15.96 691.93,-15.85 683.23,-15.74"/>
<polygon fill="#63b8ff" stroke="#63b8ff" points="709.93,-19.57 719.97,-16.19 710.01,-12.57 709.93,-19.57"/>
</a>
</g>
</g>
<!-- Node11 -->
<g id="Node000011" class="node">
<title>Node11</title>
<g id="a_Node000011"><a xlink:href="classGCS__MAVLINK.html#a97b3a94ebc165ee34ee93b26e2dee23d" target="_top" xlink:title=" ">
<polygon fill="white" stroke="#666666" points="523,-24.5 368,-24.5 368,-5.5 523,-5.5 523,-24.5"/>
<text text-anchor="middle" x="445.5" y="-12.5" font-family="Helvetica,sans-Serif" font-size="10.00">GCS_MAVLINK::update_send</text>
</a>
</g>
</g>
<!-- Node10&#45;&gt;Node11 -->
<g id="edge10_Node000010_Node000011" class="edge">
<title>Node10&#45;&gt;Node11</title>
<g id="a_edge10_Node000010_Node000011"><a xlink:title=" ">
<path fill="none" stroke="#63b8ff" d="M549.58,-15C540.89,-15 531.99,-15 523.23,-15"/>
<polygon fill="#63b8ff" stroke="#63b8ff" points="549.64,-18.5 559.64,-15 549.64,-11.5 549.64,-18.5"/>
</a>
</g>
</g>
</g>
</svg>

<g id="navigator" transform="translate(0 0)" fill="#404254">
  <rect fill="#f2f5e9" fill-opacity="0.5" stroke="#606060" stroke-width=".5" x="0" y="0" width="60" height="60"/>
  <use id="zoomplus" xlink:href="#zoomPlus" x="17" y="9" onmousedown="handleZoom(evt,'in')"/>
  <use id="zoomminus" xlink:href="#zoomMin" x="42" y="9" onmousedown="handleZoom(evt,'out')"/>
  <use id="reset" xlink:href="#resetDef" x="30" y="36" onmousedown="handleReset()"/>
   <use id="arrowup" xlink:href="#arrowUp" x="0" y="0" onmousedown="handlePan(0,-1)"/>
  <use id="arrowright" xlink:href="#arrowRight" x="0" y="0" onmousedown="handlePan(1,0)"/>
  <use id="arrowdown" xlink:href="#arrowDown" x="0" y="0" onmousedown="handlePan(0,1)"/>
  <use id="arrowleft" xlink:href="#arrowLeft" x="0" y="0" onmousedown="handlePan(-1,0)"/>
</g>
<svg viewBox="0 0 15 15" width="100%" height="30px" preserveAspectRatio="xMaxYMin meet">
 <g id="arrow_out" transform="scale(0.3 0.3)">
  <a xlink:href="classAP__HAL_1_1UARTDriver_a67bb404836808e94e7bd52a000117610_icgraph_org.svg" target="_base">
   <rect id="button" ry="5" rx="5" y="6" x="6" height="38" width="38"
        fill="#f2f5e9" fill-opacity="0.5" stroke="#606060" stroke-width="1.0"/>
   <path id="arrow"
     d="M 11.500037,31.436501 C 11.940474,20.09759 22.043105,11.32322 32.158766,21.979434 L 37.068811,17.246167 C 37.068811,17.246167 37.088388,32 37.088388,32 L 22.160133,31.978069 C 22.160133,31.978069 26.997745,27.140456 26.997745,27.140456 C 18.528582,18.264221 13.291696,25.230495 11.500037,31.436501 z"
     style="fill:#404040;"/>
  </a>
 </g>
</svg>

<style type='text/css'>
<![CDATA[
[data-mouse-over-selected='false'] { opacity: 0.7; }
[data-mouse-over-selected='true']  { opacity: 1.0; }
]]>
</style>
<script type="application/ecmascript"><![CDATA[
document.addEventListener('DOMContentLoaded', (event) => {
  highlightEdges();
  highlightAdjacentNodes();
});
]]></script>
</svg>
