<?xml version="1.0" encoding="UTF-8" standalone="no"?>
<!DOCTYPE svg PUBLIC "-//W3C//DTD SVG 1.1//EN"
 "http://www.w3.org/Graphics/SVG/1.1/DTD/svg11.dtd">
<!-- Generated by graphviz version 2.43.0 (0)
 -->
<!-- Title: Linux::Storage::init Pages: 1 -->
<svg width="523pt" height="198pt"
 viewBox="0.00 0.00 523.00 198.00" xmlns="http://www.w3.org/2000/svg" xmlns:xlink="http://www.w3.org/1999/xlink">
<g id="graph0" class="graph" transform="scale(1 1) rotate(0) translate(4 194)">
<title>Linux::Storage::init</title>
<!-- Node1 -->
<g id="Node000001" class="node">
<title>Node1</title>
<g id="a_Node000001"><a xlink:title=" ">
<polygon fill="#999999" stroke="#666666" points="108,-105 0,-105 0,-86 108,-86 108,-105"/>
<text text-anchor="middle" x="54" y="-93" font-family="Helvetica,sans-Serif" font-size="10.00">Linux::Storage::init</text>
</a>
</g>
</g>
<!-- Node2 -->
<g id="Node000002" class="node">
<title>Node2</title>
<g id="a_Node000002"><a xlink:href="classLinux_1_1Storage.html#aaa241d5c0290478babfa351ba34e9f7b" target="_top" xlink:title=" ">
<polygon fill="white" stroke="#666666" points="281,-158.5 147,-158.5 147,-128.5 281,-128.5 281,-158.5"/>
<text text-anchor="start" x="155" y="-146.5" font-family="Helvetica,sans-Serif" font-size="10.00">Linux::Storage::_storage</text>
<text text-anchor="middle" x="214" y="-135.5" font-family="Helvetica,sans-Serif" font-size="10.00">_create</text>
</a>
</g>
</g>
<!-- Node1&#45;&gt;Node2 -->
<g id="edge1_Node000001_Node000002" class="edge">
<title>Node1&#45;&gt;Node2</title>
<g id="a_edge1_Node000001_Node000002"><a xlink:title=" ">
<path fill="none" stroke="#63b8ff" d="M86.59,-105.1C105.82,-110.94 130.99,-118.59 153.81,-125.52"/>
<polygon fill="#63b8ff" stroke="#63b8ff" points="152.83,-128.88 163.42,-128.44 154.87,-122.18 152.83,-128.88"/>
</a>
</g>
</g>
<!-- Node6 -->
<g id="Node000006" class="node">
<title>Node6</title>
<g id="a_Node000006"><a xlink:href="classAP__HAL_1_1Util.html#aefccd712a4404d78b2be70f7bbff984b" target="_top" xlink:title=" ">
<polygon fill="white" stroke="#666666" points="284,-110.5 144,-110.5 144,-80.5 284,-80.5 284,-110.5"/>
<text text-anchor="start" x="152" y="-98.5" font-family="Helvetica,sans-Serif" font-size="10.00">AP_HAL::Util::get_custom</text>
<text text-anchor="middle" x="214" y="-87.5" font-family="Helvetica,sans-Serif" font-size="10.00">_storage_directory</text>
</a>
</g>
</g>
<!-- Node1&#45;&gt;Node6 -->
<g id="edge5_Node000001_Node000006" class="edge">
<title>Node1&#45;&gt;Node6</title>
<g id="a_edge5_Node000001_Node000006"><a xlink:title=" ">
<path fill="none" stroke="#63b8ff" d="M108.05,-95.5C116.3,-95.5 124.97,-95.5 133.65,-95.5"/>
<polygon fill="#63b8ff" stroke="#63b8ff" points="133.81,-99 143.81,-95.5 133.81,-92 133.81,-99"/>
</a>
</g>
</g>
<!-- Node7 -->
<g id="Node000007" class="node">
<title>Node7</title>
<g id="a_Node000007"><a xlink:href="namespaceAP__HAL.html#a52edeef7d5ffaa365e1229b87c170307" target="_top" xlink:title=" ">
<polygon fill="white" stroke="#666666" points="257,-62 171,-62 171,-43 257,-43 257,-62"/>
<text text-anchor="middle" x="214" y="-50" font-family="Helvetica,sans-Serif" font-size="10.00">AP_HAL::panic</text>
</a>
</g>
</g>
<!-- Node1&#45;&gt;Node7 -->
<g id="edge6_Node000001_Node000007" class="edge">
<title>Node1&#45;&gt;Node7</title>
<g id="a_edge6_Node000001_Node000007"><a xlink:title=" ">
<path fill="none" stroke="#63b8ff" d="M90.07,-85.96C113.08,-79.69 143.38,-71.45 168.15,-64.71"/>
<polygon fill="#63b8ff" stroke="#63b8ff" points="169.3,-68.02 178.03,-62.02 167.46,-61.27 169.3,-68.02"/>
</a>
</g>
</g>
<!-- Node3 -->
<g id="Node000003" class="node">
<title>Node3</title>
<g id="a_Node000003"><a xlink:href="eedump__apparam_8c.html#a11fab3228d1d3ab1f79be9480422c759" target="_top" xlink:title=" ">
<polygon fill="white" stroke="#666666" points="394,-190 362,-190 362,-171 394,-171 394,-190"/>
<text text-anchor="middle" x="378" y="-178" font-family="Helvetica,sans-Serif" font-size="10.00">fail</text>
</a>
</g>
</g>
<!-- Node2&#45;&gt;Node3 -->
<g id="edge2_Node000002_Node000003" class="edge">
<title>Node2&#45;&gt;Node3</title>
<g id="a_edge2_Node000002_Node000003"><a xlink:title=" ">
<path fill="none" stroke="#63b8ff" d="M280.89,-158.55C305.91,-164.26 332.91,-170.43 351.91,-174.77"/>
<polygon fill="#63b8ff" stroke="#63b8ff" points="351.3,-178.22 361.83,-177.04 352.86,-171.4 351.3,-178.22"/>
</a>
</g>
</g>
<!-- Node4 -->
<g id="Node000004" class="node">
<title>Node4</title>
<g id="a_Node000004"><a xlink:href="AP__HAL__Linux_2Storage_8cpp.html#a906bec13f5c93833d272ed2a3fccf7c2" target="_top" xlink:title=" ">
<polygon fill="white" stroke="#666666" points="406,-153 350,-153 350,-134 406,-134 406,-153"/>
<text text-anchor="middle" x="378" y="-141" font-family="Helvetica,sans-Serif" font-size="10.00">mkdir_p</text>
</a>
</g>
</g>
<!-- Node2&#45;&gt;Node4 -->
<g id="edge3_Node000002_Node000004" class="edge">
<title>Node2&#45;&gt;Node4</title>
<g id="a_edge3_Node000002_Node000004"><a xlink:title=" ">
<path fill="none" stroke="#63b8ff" d="M281.36,-143.5C301.19,-143.5 322.22,-143.5 339.5,-143.5"/>
<polygon fill="#63b8ff" stroke="#63b8ff" points="339.74,-147 349.73,-143.5 339.73,-140 339.74,-147"/>
</a>
</g>
</g>
<!-- Node5 -->
<g id="Node000005" class="node">
<title>Node5</title>
<g id="a_Node000005"><a xlink:href="AP__HAL__Linux_2Storage_8cpp.html#aba9c99079aa9e011177aa2606beba52d" target="_top" xlink:title=" ">
<polygon fill="white" stroke="#666666" points="515,-153 472,-153 472,-134 515,-134 515,-153"/>
<text text-anchor="middle" x="493.5" y="-141" font-family="Helvetica,sans-Serif" font-size="10.00">is_dir</text>
</a>
</g>
</g>
<!-- Node4&#45;&gt;Node5 -->
<g id="edge4_Node000004_Node000005" class="edge">
<title>Node4&#45;&gt;Node5</title>
<g id="a_edge4_Node000004_Node000005"><a xlink:title=" ">
<path fill="none" stroke="#63b8ff" d="M406.19,-143.5C422.91,-143.5 444.4,-143.5 461.74,-143.5"/>
<polygon fill="#63b8ff" stroke="#63b8ff" points="461.93,-147 471.93,-143.5 461.93,-140 461.93,-147"/>
</a>
</g>
</g>
<!-- Node8 -->
<g id="Node000008" class="node">
<title>Node8</title>
<g id="a_Node000008"><a xlink:href="classAP__HAL_1_1Scheduler.html#ab3175e2e6223ccfe82f957e41cc12b26" target="_top" xlink:title=" ">
<polygon fill="white" stroke="#666666" points="435,-115.5 321,-115.5 321,-85.5 435,-85.5 435,-115.5"/>
<text text-anchor="start" x="329" y="-103.5" font-family="Helvetica,sans-Serif" font-size="10.00">AP_HAL::Scheduler::</text>
<text text-anchor="middle" x="378" y="-92.5" font-family="Helvetica,sans-Serif" font-size="10.00">delay</text>
</a>
</g>
</g>
<!-- Node7&#45;&gt;Node8 -->
<g id="edge7_Node000007_Node000008" class="edge">
<title>Node7&#45;&gt;Node8</title>
<g id="a_edge7_Node000007_Node000008"><a xlink:title=" ">
<path fill="none" stroke="#63b8ff" d="M250.52,-62.04C261.3,-64.99 273.15,-68.32 284,-71.5 295.66,-74.92 308.11,-78.71 319.98,-82.39"/>
<polygon fill="#63b8ff" stroke="#63b8ff" points="319.19,-85.81 329.78,-85.44 321.27,-79.12 319.19,-85.81"/>
</a>
</g>
</g>
<!-- Node9 -->
<g id="Node000009" class="node">
<title>Node9</title>
<g id="a_Node000009"><a xlink:href="classAP__HAL_1_1Scheduler.html#a78c4f1b1f192ac1c99544b6cc8f099b0" target="_top" xlink:title=" ">
<polygon fill="white" stroke="#666666" points="436,-67.5 320,-67.5 320,-37.5 436,-37.5 436,-67.5"/>
<text text-anchor="start" x="328" y="-55.5" font-family="Helvetica,sans-Serif" font-size="10.00">AP_HAL::Scheduler::</text>
<text text-anchor="middle" x="378" y="-44.5" font-family="Helvetica,sans-Serif" font-size="10.00">delay_microseconds</text>
</a>
</g>
</g>
<!-- Node7&#45;&gt;Node9 -->
<g id="edge8_Node000007_Node000009" class="edge">
<title>Node7&#45;&gt;Node9</title>
<g id="a_edge8_Node000007_Node000009"><a xlink:title=" ">
<path fill="none" stroke="#63b8ff" d="M257.14,-52.5C273.13,-52.5 291.76,-52.5 309.51,-52.5"/>
<polygon fill="#63b8ff" stroke="#63b8ff" points="309.82,-56 319.82,-52.5 309.82,-49 309.82,-56"/>
</a>
</g>
</g>
<!-- Node10 -->
<g id="Node000010" class="node">
<title>Node10</title>
<g id="a_Node000010"><a xlink:href="stdio_8h.html#aae132cc6af1eb6cf43bf011d8d63e854" target="_top" xlink:title=" ">
<polygon fill="white" stroke="#666666" points="402.5,-19 353.5,-19 353.5,0 402.5,0 402.5,-19"/>
<text text-anchor="middle" x="378" y="-7" font-family="Helvetica,sans-Serif" font-size="10.00">vprintf</text>
</a>
</g>
</g>
<!-- Node7&#45;&gt;Node10 -->
<g id="edge9_Node000007_Node000010" class="edge">
<title>Node7&#45;&gt;Node10</title>
<g id="a_edge9_Node000007_Node000010"><a xlink:title=" ">
<path fill="none" stroke="#63b8ff" d="M250.95,-42.96C278.56,-35.63 316.4,-25.58 343.4,-18.42"/>
<polygon fill="#63b8ff" stroke="#63b8ff" points="344.41,-21.77 353.18,-15.82 342.61,-15.01 344.41,-21.77"/>
</a>
</g>
</g>
</g>
</svg>
