<?xml version="1.0" encoding="UTF-8" standalone="no"?>
<!DOCTYPE svg PUBLIC "-//W3C//DTD SVG 1.1//EN"
 "http://www.w3.org/Graphics/SVG/1.1/DTD/svg11.dtd">
<!-- Generated by graphviz version 2.43.0 (0)
 -->
<!-- Title: ChibiOS::DeviceBus::bus_thread Pages: 1 -->
<svg width="508pt" height="94pt"
 viewBox="0.00 0.00 508.00 93.50" xmlns="http://www.w3.org/2000/svg" xmlns:xlink="http://www.w3.org/1999/xlink">
<g id="graph0" class="graph" transform="scale(1 1) rotate(0) translate(4 89.5)">
<title>ChibiOS::DeviceBus::bus_thread</title>
<!-- Node1 -->
<g id="Node000001" class="node">
<title>Node1</title>
<g id="a_Node000001"><a xlink:title=" ">
<polygon fill="#999999" stroke="#666666" points="113,-63.5 0,-63.5 0,-33.5 113,-33.5 113,-63.5"/>
<text text-anchor="start" x="8" y="-51.5" font-family="Helvetica,sans-Serif" font-size="10.00">ChibiOS::DeviceBus</text>
<text text-anchor="middle" x="56.5" y="-40.5" font-family="Helvetica,sans-Serif" font-size="10.00">::bus_thread</text>
</a>
</g>
</g>
<!-- Node2 -->
<g id="Node000002" class="node">
<title>Node2</title>
<g id="a_Node000002"><a xlink:href="classAP__HAL_1_1Scheduler.html#a78c4f1b1f192ac1c99544b6cc8f099b0" target="_top" xlink:title=" ">
<polygon fill="white" stroke="#666666" points="265,-85.5 149,-85.5 149,-55.5 265,-55.5 265,-85.5"/>
<text text-anchor="start" x="157" y="-73.5" font-family="Helvetica,sans-Serif" font-size="10.00">AP_HAL::Scheduler::</text>
<text text-anchor="middle" x="207" y="-62.5" font-family="Helvetica,sans-Serif" font-size="10.00">delay_microseconds</text>
</a>
</g>
</g>
<!-- Node1&#45;&gt;Node2 -->
<g id="edge1_Node000001_Node000002" class="edge">
<title>Node1&#45;&gt;Node2</title>
<g id="a_edge1_Node000001_Node000002"><a xlink:title=" ">
<path fill="none" stroke="#63b8ff" d="M113.22,-56.75C121.62,-58 130.36,-59.29 138.96,-60.57"/>
<polygon fill="#63b8ff" stroke="#63b8ff" points="138.57,-64.05 148.98,-62.05 139.6,-57.12 138.57,-64.05"/>
</a>
</g>
</g>
<!-- Node3 -->
<g id="Node000003" class="node">
<title>Node3</title>
<g id="a_Node000003"><a xlink:href="namespaceAP__HAL.html#a7aa0ce7625c9680e30ff4a99940907a5" target="_top" xlink:title=" ">
<polygon fill="white" stroke="#666666" points="259.5,-37 154.5,-37 154.5,-18 259.5,-18 259.5,-37"/>
<text text-anchor="middle" x="207" y="-25" font-family="Helvetica,sans-Serif" font-size="10.00">AP_HAL::micros64</text>
</a>
</g>
</g>
<!-- Node1&#45;&gt;Node3 -->
<g id="edge2_Node000001_Node000003" class="edge">
<title>Node1&#45;&gt;Node3</title>
<g id="a_edge2_Node000001_Node000003"><a xlink:title=" ">
<path fill="none" stroke="#63b8ff" d="M113.22,-40.62C123.34,-39.19 133.96,-37.69 144.24,-36.23"/>
<polygon fill="#63b8ff" stroke="#63b8ff" points="144.97,-39.67 154.38,-34.8 143.99,-32.73 144.97,-39.67"/>
</a>
</g>
</g>
<!-- Node4 -->
<g id="Node000004" class="node">
<title>Node4</title>
<g id="a_Node000004"><a xlink:href="hrt_8c.html#a152c3348a8e83f2dfe35b44cc2e30362" target="_top" xlink:title=" ">
<polygon fill="white" stroke="#666666" points="381,-37 301,-37 301,-18 381,-18 381,-37"/>
<text text-anchor="middle" x="341" y="-25" font-family="Helvetica,sans-Serif" font-size="10.00">hrt_micros64</text>
</a>
</g>
</g>
<!-- Node3&#45;&gt;Node4 -->
<g id="edge3_Node000003_Node000004" class="edge">
<title>Node3&#45;&gt;Node4</title>
<g id="a_edge3_Node000003_Node000004"><a xlink:title=" ">
<path fill="none" stroke="#63b8ff" d="M259.79,-27.5C269.87,-27.5 280.41,-27.5 290.42,-27.5"/>
<polygon fill="#63b8ff" stroke="#63b8ff" points="290.61,-31 300.61,-27.5 290.61,-24 290.61,-31"/>
</a>
</g>
</g>
<!-- Node5 -->
<g id="Node000005" class="node">
<title>Node5</title>
<g id="a_Node000005"><a xlink:href="hrt_8c.html#a5b4ffc7ff86bd5b893c4a98834e80200" target="_top" xlink:title=" ">
<polygon fill="white" stroke="#666666" points="500,-56 417,-56 417,-37 500,-37 500,-56"/>
<text text-anchor="middle" x="458.5" y="-44" font-family="Helvetica,sans-Serif" font-size="10.00">hrt_micros64I</text>
</a>
</g>
</g>
<!-- Node4&#45;&gt;Node5 -->
<g id="edge4_Node000004_Node000005" class="edge">
<title>Node4&#45;&gt;Node5</title>
<g id="a_edge4_Node000004_Node000005"><a xlink:title=" ">
<path fill="none" stroke="#63b8ff" d="M381.1,-33.93C389.38,-35.29 398.23,-36.75 406.87,-38.17"/>
<polygon fill="#63b8ff" stroke="#63b8ff" points="406.42,-41.64 416.86,-39.81 407.56,-34.74 406.42,-41.64"/>
</a>
</g>
</g>
<!-- Node6 -->
<g id="Node000006" class="node">
<title>Node6</title>
<g id="a_Node000006"><a xlink:href="hrt_8c.html#a723fef85be7bacb834af35445a891c18" target="_top" xlink:title=" ">
<polygon fill="white" stroke="#666666" points="489.5,-19 427.5,-19 427.5,0 489.5,0 489.5,-19"/>
<text text-anchor="middle" x="458.5" y="-7" font-family="Helvetica,sans-Serif" font-size="10.00">is_locked</text>
</a>
</g>
</g>
<!-- Node4&#45;&gt;Node6 -->
<g id="edge5_Node000004_Node000006" class="edge">
<title>Node4&#45;&gt;Node6</title>
<g id="a_edge5_Node000004_Node000006"><a xlink:title=" ">
<path fill="none" stroke="#63b8ff" d="M381.1,-21.41C392.74,-19.59 405.52,-17.6 417.23,-15.78"/>
<polygon fill="#63b8ff" stroke="#63b8ff" points="417.86,-19.22 427.2,-14.22 416.78,-12.3 417.86,-19.22"/>
</a>
</g>
</g>
</g>
</svg>
