<?xml version="1.0" encoding="UTF-8" standalone="no"?>
<!DOCTYPE svg PUBLIC "-//W3C//DTD SVG 1.1//EN"
 "http://www.w3.org/Graphics/SVG/1.1/DTD/svg11.dtd">
<!-- Generated by graphviz version 2.43.0 (0)
 -->
<!-- Title: AP_Camera_Backend::setup_feedback_callback Pages: 1 -->
<svg width="721pt" height="258pt"
 viewBox="0.00 0.00 721.00 257.50" xmlns="http://www.w3.org/2000/svg" xmlns:xlink="http://www.w3.org/1999/xlink">
<g id="graph0" class="graph" transform="scale(1 1) rotate(0) translate(4 253.5)">
<title>AP_Camera_Backend::setup_feedback_callback</title>
<!-- Node1 -->
<g id="Node000001" class="node">
<title>Node1</title>
<g id="a_Node000001"><a xlink:title=" ">
<polygon fill="#999999" stroke="#666666" points="140,-131.5 0,-131.5 0,-101.5 140,-101.5 140,-131.5"/>
<text text-anchor="start" x="8" y="-119.5" font-family="Helvetica,sans-Serif" font-size="10.00">AP_Camera_Backend::</text>
<text text-anchor="middle" x="70" y="-108.5" font-family="Helvetica,sans-Serif" font-size="10.00">setup_feedback_callback</text>
</a>
</g>
</g>
<!-- Node2 -->
<g id="Node000002" class="node">
<title>Node2</title>
<g id="a_Node000002"><a xlink:href="classAP__HAL_1_1GPIO.html#a25cb1ed83deec0e01b8468919f43bf21" target="_top" xlink:title=" ">
<polygon fill="white" stroke="#666666" points="302.5,-249.5 181.5,-249.5 181.5,-219.5 302.5,-219.5 302.5,-249.5"/>
<text text-anchor="start" x="189.5" y="-237.5" font-family="Helvetica,sans-Serif" font-size="10.00">AP_HAL::GPIO::attach</text>
<text text-anchor="middle" x="242" y="-226.5" font-family="Helvetica,sans-Serif" font-size="10.00">_interrupt</text>
</a>
</g>
</g>
<!-- Node1&#45;&gt;Node2 -->
<g id="edge1_Node000001_Node000002" class="edge">
<title>Node1&#45;&gt;Node2</title>
<g id="a_edge1_Node000001_Node000002"><a xlink:title=" ">
<path fill="none" stroke="#63b8ff" d="M84.55,-131.79C103.31,-152.19 139.11,-188.29 176,-210.5 178.65,-212.09 181.41,-213.61 184.25,-215.04"/>
<polygon fill="#63b8ff" stroke="#63b8ff" points="182.97,-218.3 193.51,-219.36 185.93,-211.96 182.97,-218.3"/>
</a>
</g>
</g>
<!-- Node3 -->
<g id="Node000003" class="node">
<title>Node3</title>
<g id="a_Node000003"><a xlink:href="classAP__Camera__Backend.html#a3e81ba43a046b7631ba207bf15e4e018" target="_top" xlink:title=" ">
<polygon fill="white" stroke="#666666" points="304.5,-201.5 179.5,-201.5 179.5,-171.5 304.5,-171.5 304.5,-201.5"/>
<text text-anchor="start" x="187.5" y="-189.5" font-family="Helvetica,sans-Serif" font-size="10.00">AP_Camera_Backend::</text>
<text text-anchor="middle" x="242" y="-178.5" font-family="Helvetica,sans-Serif" font-size="10.00">feedback_pin_isr</text>
</a>
</g>
</g>
<!-- Node1&#45;&gt;Node3 -->
<g id="edge2_Node000001_Node000003" class="edge">
<title>Node1&#45;&gt;Node3</title>
<g id="a_edge2_Node000001_Node000003"><a xlink:title=" ">
<path fill="none" stroke="#63b8ff" d="M103.89,-131.51C124.48,-140.75 151.64,-152.68 176,-162.5 180.37,-164.26 184.93,-166.05 189.51,-167.81"/>
<polygon fill="#63b8ff" stroke="#63b8ff" points="188.31,-171.1 198.9,-171.37 190.79,-164.55 188.31,-171.1"/>
</a>
</g>
</g>
<!-- Node4 -->
<g id="Node000004" class="node">
<title>Node4</title>
<g id="a_Node000004"><a xlink:href="classAP__Camera__Backend.html#a73068547863e4580543dcbb6481e8ffa" target="_top" xlink:title=" ">
<polygon fill="white" stroke="#666666" points="304.5,-153.5 179.5,-153.5 179.5,-123.5 304.5,-123.5 304.5,-153.5"/>
<text text-anchor="start" x="187.5" y="-141.5" font-family="Helvetica,sans-Serif" font-size="10.00">AP_Camera_Backend::</text>
<text text-anchor="middle" x="242" y="-130.5" font-family="Helvetica,sans-Serif" font-size="10.00">feedback_pin_timer</text>
</a>
</g>
</g>
<!-- Node1&#45;&gt;Node4 -->
<g id="edge3_Node000001_Node000004" class="edge">
<title>Node1&#45;&gt;Node4</title>
<g id="a_edge3_Node000001_Node000004"><a xlink:title=" ">
<path fill="none" stroke="#63b8ff" d="M140.15,-125.45C149.77,-126.69 159.67,-127.97 169.33,-129.23"/>
<polygon fill="#63b8ff" stroke="#63b8ff" points="168.93,-132.7 179.3,-130.51 169.83,-125.76 168.93,-132.7"/>
</a>
</g>
</g>
<!-- Node10 -->
<g id="Node000010" class="node">
<title>Node10</title>
<g id="a_Node000010"><a xlink:href="classAP__HAL_1_1GPIO.html#a3dfc60214bd1aa4936d51ca72c045b95" target="_top" xlink:title=" ">
<polygon fill="white" stroke="#666666" points="308,-105 176,-105 176,-86 308,-86 308,-105"/>
<text text-anchor="middle" x="242" y="-93" font-family="Helvetica,sans-Serif" font-size="10.00">AP_HAL::GPIO::pinMode</text>
</a>
</g>
</g>
<!-- Node1&#45;&gt;Node10 -->
<g id="edge9_Node000001_Node000010" class="edge">
<title>Node1&#45;&gt;Node10</title>
<g id="a_edge9_Node000001_Node000010"><a xlink:title=" ">
<path fill="none" stroke="#63b8ff" d="M140.15,-107.96C148.6,-106.91 157.28,-105.84 165.82,-104.79"/>
<polygon fill="#63b8ff" stroke="#63b8ff" points="166.26,-108.26 175.76,-103.56 165.41,-101.31 166.26,-108.26"/>
</a>
</g>
</g>
<!-- Node11 -->
<g id="Node000011" class="node">
<title>Node11</title>
<g id="a_Node000011"><a xlink:href="classAP__HAL_1_1Scheduler.html#ac2c4230957d5dbd3c2fd104af2794b4f" target="_top" xlink:title=" ">
<polygon fill="white" stroke="#666666" points="306,-67.5 178,-67.5 178,-37.5 306,-37.5 306,-67.5"/>
<text text-anchor="start" x="186" y="-55.5" font-family="Helvetica,sans-Serif" font-size="10.00">AP_HAL::Scheduler::</text>
<text text-anchor="middle" x="242" y="-44.5" font-family="Helvetica,sans-Serif" font-size="10.00">register_timer_process</text>
</a>
</g>
</g>
<!-- Node1&#45;&gt;Node11 -->
<g id="edge10_Node000001_Node000011" class="edge">
<title>Node1&#45;&gt;Node11</title>
<g id="a_edge10_Node000001_Node000011"><a xlink:title=" ">
<path fill="none" stroke="#63b8ff" d="M110.35,-101.4C130.05,-93.87 154.27,-84.65 176,-76.5 180.74,-74.72 185.67,-72.88 190.61,-71.05"/>
<polygon fill="#63b8ff" stroke="#63b8ff" points="191.9,-74.3 200.06,-67.54 189.47,-67.74 191.9,-74.3"/>
</a>
</g>
</g>
<!-- Node12 -->
<g id="Node000012" class="node">
<title>Node12</title>
<g id="a_Node000012"><a xlink:href="classAP__HAL_1_1GPIO.html#a2b0664bdab1876e3b0bbcd9064eec88e" target="_top" xlink:title=" ">
<polygon fill="white" stroke="#666666" points="299.5,-19 184.5,-19 184.5,0 299.5,0 299.5,-19"/>
<text text-anchor="middle" x="242" y="-7" font-family="Helvetica,sans-Serif" font-size="10.00">AP_HAL::GPIO::write</text>
</a>
</g>
</g>
<!-- Node1&#45;&gt;Node12 -->
<g id="edge11_Node000001_Node000012" class="edge">
<title>Node1&#45;&gt;Node12</title>
<g id="a_edge11_Node000001_Node000012"><a xlink:title=" ">
<path fill="none" stroke="#63b8ff" d="M85.18,-101.2C104.11,-81.65 139.5,-48.01 176,-28.5 180.19,-26.26 184.67,-24.26 189.25,-22.47"/>
<polygon fill="#63b8ff" stroke="#63b8ff" points="190.48,-25.74 198.73,-19.09 188.13,-19.15 190.48,-25.74"/>
</a>
</g>
</g>
<!-- Node5 -->
<g id="Node000005" class="node">
<title>Node5</title>
<g id="a_Node000005"><a xlink:href="namespaceAP__HAL.html#a8293355e35887733b1fd151aef08a787" target="_top" xlink:title=" ">
<polygon fill="white" stroke="#666666" points="446.5,-166 353.5,-166 353.5,-147 446.5,-147 446.5,-166"/>
<text text-anchor="middle" x="400" y="-154" font-family="Helvetica,sans-Serif" font-size="10.00">AP_HAL::micros</text>
</a>
</g>
</g>
<!-- Node4&#45;&gt;Node5 -->
<g id="edge4_Node000004_Node000005" class="edge">
<title>Node4&#45;&gt;Node5</title>
<g id="a_edge4_Node000004_Node000005"><a xlink:title=" ">
<path fill="none" stroke="#63b8ff" d="M304.66,-145.61C317.3,-147.07 330.54,-148.6 342.97,-150.03"/>
<polygon fill="#63b8ff" stroke="#63b8ff" points="342.85,-153.54 353.19,-151.21 343.66,-146.59 342.85,-153.54"/>
</a>
</g>
</g>
<!-- Node9 -->
<g id="Node000009" class="node">
<title>Node9</title>
<g id="a_Node000009"><a xlink:href="classAP__HAL_1_1GPIO.html#a453e2829832c783a5337849218390efc" target="_top" xlink:title=" ">
<polygon fill="white" stroke="#666666" points="456,-129 344,-129 344,-110 456,-110 456,-129"/>
<text text-anchor="middle" x="400" y="-117" font-family="Helvetica,sans-Serif" font-size="10.00">AP_HAL::GPIO::read</text>
</a>
</g>
</g>
<!-- Node4&#45;&gt;Node9 -->
<g id="edge8_Node000004_Node000009" class="edge">
<title>Node4&#45;&gt;Node9</title>
<g id="a_edge8_Node000004_Node000009"><a xlink:title=" ">
<path fill="none" stroke="#63b8ff" d="M304.66,-130.99C314.26,-129.82 324.22,-128.61 333.9,-127.43"/>
<polygon fill="#63b8ff" stroke="#63b8ff" points="334.36,-130.9 343.86,-126.22 333.51,-123.95 334.36,-130.9"/>
</a>
</g>
</g>
<!-- Node6 -->
<g id="Node000006" class="node">
<title>Node6</title>
<g id="a_Node000006"><a xlink:href="hrt_8c.html#aaec580bcdf1351b82110305f0f6dd437" target="_top" xlink:title=" ">
<polygon fill="white" stroke="#666666" points="572,-166 492,-166 492,-147 572,-147 572,-166"/>
<text text-anchor="middle" x="532" y="-154" font-family="Helvetica,sans-Serif" font-size="10.00">hrt_micros32</text>
</a>
</g>
</g>
<!-- Node5&#45;&gt;Node6 -->
<g id="edge5_Node000005_Node000006" class="edge">
<title>Node5&#45;&gt;Node6</title>
<g id="a_edge5_Node000005_Node000006"><a xlink:title=" ">
<path fill="none" stroke="#63b8ff" d="M446.83,-156.5C458.03,-156.5 470.05,-156.5 481.41,-156.5"/>
<polygon fill="#63b8ff" stroke="#63b8ff" points="481.62,-160 491.62,-156.5 481.62,-153 481.62,-160"/>
</a>
</g>
</g>
<!-- Node7 -->
<g id="Node000007" class="node">
<title>Node7</title>
<g id="a_Node000007"><a xlink:href="hrt_8c.html#a8e056f016b4bb5d52754d890a539c433" target="_top" xlink:title=" ">
<polygon fill="white" stroke="#666666" points="713,-185 608,-185 608,-166 713,-166 713,-185"/>
<text text-anchor="middle" x="660.5" y="-173" font-family="Helvetica,sans-Serif" font-size="10.00">get_systime_us32</text>
</a>
</g>
</g>
<!-- Node6&#45;&gt;Node7 -->
<g id="edge6_Node000006_Node000007" class="edge">
<title>Node6&#45;&gt;Node7</title>
<g id="a_edge6_Node000006_Node000007"><a xlink:title=" ">
<path fill="none" stroke="#63b8ff" d="M572.33,-162.41C580.36,-163.61 588.99,-164.91 597.59,-166.2"/>
<polygon fill="#63b8ff" stroke="#63b8ff" points="597.22,-169.68 607.63,-167.71 598.26,-162.76 597.22,-169.68"/>
</a>
</g>
</g>
<!-- Node8 -->
<g id="Node000008" class="node">
<title>Node8</title>
<g id="a_Node000008"><a xlink:href="hrt_8c.html#a723fef85be7bacb834af35445a891c18" target="_top" xlink:title=" ">
<polygon fill="white" stroke="#666666" points="691.5,-148 629.5,-148 629.5,-129 691.5,-129 691.5,-148"/>
<text text-anchor="middle" x="660.5" y="-136" font-family="Helvetica,sans-Serif" font-size="10.00">is_locked</text>
</a>
</g>
</g>
<!-- Node6&#45;&gt;Node8 -->
<g id="edge7_Node000006_Node000008" class="edge">
<title>Node6&#45;&gt;Node8</title>
<g id="a_edge7_Node000006_Node000008"><a xlink:title=" ">
<path fill="none" stroke="#63b8ff" d="M572.33,-150.9C587.3,-148.77 604.36,-146.35 619.4,-144.21"/>
<polygon fill="#63b8ff" stroke="#63b8ff" points="620.03,-147.65 629.44,-142.78 619.05,-140.72 620.03,-147.65"/>
</a>
</g>
</g>
</g>
</svg>
