<?xml version="1.0" encoding="UTF-8" standalone="no"?>
<!DOCTYPE svg PUBLIC "-//W3C//DTD SVG 1.1//EN"
 "http://www.w3.org/Graphics/SVG/1.1/DTD/svg11.dtd">
<!-- Generated by graphviz version 2.43.0 (0)
 -->
<!-- Title: AP_RTC::set_utc_usec Pages: 1 -->
<svg width="535pt" height="249pt"
 viewBox="0.00 0.00 535.00 249.00" xmlns="http://www.w3.org/2000/svg" xmlns:xlink="http://www.w3.org/1999/xlink">
<g id="graph0" class="graph" transform="scale(1 1) rotate(0) translate(4 245)">
<title>AP_RTC::set_utc_usec</title>
<!-- Node1 -->
<g id="Node000001" class="node">
<title>Node1</title>
<g id="a_Node000001"><a xlink:title=" ">
<polygon fill="#999999" stroke="#666666" points="527,-74 405,-74 405,-55 527,-55 527,-74"/>
<text text-anchor="middle" x="466" y="-62" font-family="Helvetica,sans-Serif" font-size="10.00">AP_RTC::set_utc_usec</text>
</a>
</g>
</g>
<!-- Node2 -->
<g id="Node000002" class="node">
<title>Node2</title>
<g id="a_Node000002"><a xlink:href="classAP__BoardConfig.html#a53de1d2c0a124ff0d6e3455126237bb5" target="_top" xlink:title=" ">
<polygon fill="white" stroke="#666666" points="357,-130 241,-130 241,-111 357,-111 357,-130"/>
<text text-anchor="middle" x="299" y="-118" font-family="Helvetica,sans-Serif" font-size="10.00">AP_BoardConfig::init</text>
</a>
</g>
</g>
<!-- Node1&#45;&gt;Node2 -->
<g id="edge1_Node000001_Node000002" class="edge">
<title>Node1&#45;&gt;Node2</title>
<g id="a_edge1_Node000001_Node000002"><a xlink:title=" ">
<path fill="none" stroke="#63b8ff" d="M433.72,-78C415.12,-85.74 390.95,-95.32 369,-102.5 359.7,-105.54 349.57,-108.42 340.01,-110.94"/>
<polygon fill="#63b8ff" stroke="#63b8ff" points="435.3,-81.13 443.16,-74.03 432.59,-74.68 435.3,-81.13"/>
</a>
</g>
</g>
<!-- Node11 -->
<g id="Node000011" class="node">
<title>Node11</title>
<g id="a_Node000011"><a xlink:href="RTC__Test_8cpp.html#afe461d27b9c48d5921c00d521181f12f" target="_top" xlink:title=" ">
<polygon fill="white" stroke="#666666" points="318,-93 280,-93 280,-74 318,-74 318,-93"/>
<text text-anchor="middle" x="299" y="-81" font-family="Helvetica,sans-Serif" font-size="10.00">loop</text>
</a>
</g>
</g>
<!-- Node1&#45;&gt;Node11 -->
<g id="edge10_Node000001_Node000011" class="edge">
<title>Node1&#45;&gt;Node11</title>
<g id="a_edge10_Node000001_Node000011"><a xlink:title=" ">
<path fill="none" stroke="#63b8ff" d="M394.73,-72.59C366.64,-75.83 336.62,-79.28 318.08,-81.42"/>
<polygon fill="#63b8ff" stroke="#63b8ff" points="395.43,-76.03 404.96,-71.41 394.63,-69.08 395.43,-76.03"/>
</a>
</g>
</g>
<!-- Node12 -->
<g id="Node000012" class="node">
<title>Node12</title>
<g id="a_Node000012"><a xlink:href="nmea__output_8cpp.html#a4fc01d736fe50cf5b977f755b675f11d" target="_top" xlink:title=" ">
<polygon fill="white" stroke="#666666" points="321,-56 277,-56 277,-37 321,-37 321,-56"/>
<text text-anchor="middle" x="299" y="-44" font-family="Helvetica,sans-Serif" font-size="10.00">setup</text>
</a>
</g>
</g>
<!-- Node1&#45;&gt;Node12 -->
<g id="edge11_Node000001_Node000012" class="edge">
<title>Node1&#45;&gt;Node12</title>
<g id="a_edge11_Node000001_Node000012"><a xlink:title=" ">
<path fill="none" stroke="#63b8ff" d="M394.87,-56.85C368.25,-53.95 339.88,-50.85 321.17,-48.81"/>
<polygon fill="#63b8ff" stroke="#63b8ff" points="394.64,-60.35 404.96,-57.95 395.4,-53.39 394.64,-60.35"/>
</a>
</g>
</g>
<!-- Node13 -->
<g id="Node000013" class="node">
<title>Node13</title>
<g id="a_Node000013"><a xlink:href="classAP__GPS.html#a83302e8b52e5d01ae67375b3542eb460" target="_top" xlink:title=" ">
<polygon fill="white" stroke="#666666" points="369,-19 229,-19 229,0 369,0 369,-19"/>
<text text-anchor="middle" x="299" y="-7" font-family="Helvetica,sans-Serif" font-size="10.00">AP_GPS::update_instance</text>
</a>
</g>
</g>
<!-- Node1&#45;&gt;Node13 -->
<g id="edge12_Node000001_Node000013" class="edge">
<title>Node1&#45;&gt;Node13</title>
<g id="a_edge12_Node000001_Node000013"><a xlink:title=" ">
<path fill="none" stroke="#63b8ff" d="M431.76,-51.19C413.4,-44.06 390.1,-35.35 369,-28.5 358.72,-25.16 347.46,-21.9 337.07,-19.05"/>
<polygon fill="#63b8ff" stroke="#63b8ff" points="430.56,-54.48 441.15,-54.87 433.11,-47.96 430.56,-54.48"/>
</a>
</g>
</g>
<!-- Node3 -->
<g id="Node000003" class="node">
<title>Node3</title>
<g id="a_Node000003"><a xlink:href="classDummyVehicle.html#aad9965e4dc1e71e9645d2cb47b549336" target="_top" xlink:title=" ">
<polygon fill="white" stroke="#666666" points="193,-241 80,-241 80,-222 193,-222 193,-241"/>
<text text-anchor="middle" x="136.5" y="-229" font-family="Helvetica,sans-Serif" font-size="10.00">DummyVehicle::init</text>
</a>
</g>
</g>
<!-- Node2&#45;&gt;Node3 -->
<g id="edge2_Node000002_Node000003" class="edge">
<title>Node2&#45;&gt;Node3</title>
<g id="a_edge2_Node000002_Node000003"><a xlink:title=" ">
<path fill="none" stroke="#63b8ff" d="M283.01,-137.52C263.96,-158.18 229.21,-192.8 193,-213.5 187.2,-216.82 180.7,-219.62 174.24,-221.95"/>
<polygon fill="#63b8ff" stroke="#63b8ff" points="285.61,-139.86 289.72,-130.1 280.42,-135.16 285.61,-139.86"/>
</a>
</g>
</g>
<!-- Node5 -->
<g id="Node000005" class="node">
<title>Node5</title>
<g id="a_Node000005"><a xlink:href="AC__PID__test_8cpp.html#a4fc01d736fe50cf5b977f755b675f11d" target="_top" xlink:title=" ">
<polygon fill="white" stroke="#666666" points="158.5,-204 114.5,-204 114.5,-185 158.5,-185 158.5,-204"/>
<text text-anchor="middle" x="136.5" y="-192" font-family="Helvetica,sans-Serif" font-size="10.00">setup</text>
</a>
</g>
</g>
<!-- Node2&#45;&gt;Node5 -->
<g id="edge4_Node000002_Node000005" class="edge">
<title>Node2&#45;&gt;Node5</title>
<g id="a_edge4_Node000002_Node000005"><a xlink:title=" ">
<path fill="none" stroke="#63b8ff" d="M273.22,-135.32C252.32,-147.43 221.36,-164.45 193,-176.5 181.91,-181.21 169.13,-185.43 158.64,-188.6"/>
<polygon fill="#63b8ff" stroke="#63b8ff" points="275.21,-138.22 282.07,-130.14 271.67,-132.17 275.21,-138.22"/>
</a>
</g>
</g>
<!-- Node6 -->
<g id="Node000006" class="node">
<title>Node6</title>
<g id="a_Node000006"><a xlink:href="AP__Compass__test_8cpp.html#a90de5b68ab8defa635679fc0620fb698" target="_top" xlink:title=" ">
<polygon fill="white" stroke="#666666" points="158.5,-167 114.5,-167 114.5,-148 158.5,-148 158.5,-167"/>
<text text-anchor="middle" x="136.5" y="-155" font-family="Helvetica,sans-Serif" font-size="10.00">setup</text>
</a>
</g>
</g>
<!-- Node2&#45;&gt;Node6 -->
<g id="edge5_Node000002_Node000006" class="edge">
<title>Node2&#45;&gt;Node6</title>
<g id="a_edge5_Node000002_Node000006"><a xlink:title=" ">
<path fill="none" stroke="#63b8ff" d="M246.81,-132.3C216.94,-139.19 180.87,-147.5 158.56,-152.65"/>
<polygon fill="#63b8ff" stroke="#63b8ff" points="247.71,-135.69 256.67,-130.03 246.14,-128.86 247.71,-135.69"/>
</a>
</g>
</g>
<!-- Node7 -->
<g id="Node000007" class="node">
<title>Node7</title>
<g id="a_Node000007"><a xlink:href="classSchedTest.html#ae9afb73f76391e34d47286a516fe5292" target="_top" xlink:title=" ">
<polygon fill="white" stroke="#666666" points="185.5,-130 87.5,-130 87.5,-111 185.5,-111 185.5,-130"/>
<text text-anchor="middle" x="136.5" y="-118" font-family="Helvetica,sans-Serif" font-size="10.00">SchedTest::setup</text>
</a>
</g>
</g>
<!-- Node2&#45;&gt;Node7 -->
<g id="edge6_Node000002_Node000007" class="edge">
<title>Node2&#45;&gt;Node7</title>
<g id="a_edge6_Node000002_Node000007"><a xlink:title=" ">
<path fill="none" stroke="#63b8ff" d="M230.62,-120.5C215.5,-120.5 199.75,-120.5 185.6,-120.5"/>
<polygon fill="#63b8ff" stroke="#63b8ff" points="230.96,-124 240.96,-120.5 230.96,-117 230.96,-124"/>
</a>
</g>
</g>
<!-- Node9 -->
<g id="Node000009" class="node">
<title>Node9</title>
<g id="a_Node000009"><a xlink:href="ICM20789_8cpp.html#a7dfd9b79bc5a37d7df40207afbc5431f" target="_top" xlink:title=" ">
<polygon fill="white" stroke="#666666" points="158.5,-93 114.5,-93 114.5,-74 158.5,-74 158.5,-93"/>
<text text-anchor="middle" x="136.5" y="-81" font-family="Helvetica,sans-Serif" font-size="10.00">setup</text>
</a>
</g>
</g>
<!-- Node2&#45;&gt;Node9 -->
<g id="edge8_Node000002_Node000009" class="edge">
<title>Node2&#45;&gt;Node9</title>
<g id="a_edge8_Node000002_Node000009"><a xlink:title=" ">
<path fill="none" stroke="#63b8ff" d="M246.81,-108.7C216.94,-101.81 180.87,-93.5 158.56,-88.35"/>
<polygon fill="#63b8ff" stroke="#63b8ff" points="246.14,-112.14 256.67,-110.97 247.71,-105.31 246.14,-112.14"/>
</a>
</g>
</g>
<!-- Node10 -->
<g id="Node000010" class="node">
<title>Node10</title>
<g id="a_Node000010"><a xlink:href="classAP__Vehicle.html#ac0f751deebdba5725b2b52862719a15d" target="_top" xlink:title=" ">
<polygon fill="white" stroke="#666666" points="188,-56 85,-56 85,-37 188,-37 188,-56"/>
<text text-anchor="middle" x="136.5" y="-44" font-family="Helvetica,sans-Serif" font-size="10.00">AP_Vehicle::setup</text>
</a>
</g>
</g>
<!-- Node2&#45;&gt;Node10 -->
<g id="edge9_Node000002_Node000010" class="edge">
<title>Node2&#45;&gt;Node10</title>
<g id="a_edge9_Node000002_Node000010"><a xlink:title=" ">
<path fill="none" stroke="#63b8ff" d="M238.55,-107.3C235.24,-105.86 232.03,-104.27 229,-102.5 209.17,-90.96 212.38,-77.77 193,-65.5 187.06,-61.74 180.29,-58.63 173.57,-56.09"/>
<polygon fill="#63b8ff" stroke="#63b8ff" points="237.48,-110.64 248.07,-110.97 240,-104.11 237.48,-110.64"/>
</a>
</g>
</g>
<!-- Node4 -->
<g id="Node000004" class="node">
<title>Node4</title>
<g id="a_Node000004"><a xlink:href="AHRS__Test_8cpp.html#a4fc01d736fe50cf5b977f755b675f11d" target="_top" xlink:title=" ">
<polygon fill="white" stroke="#666666" points="44,-241 0,-241 0,-222 44,-222 44,-241"/>
<text text-anchor="middle" x="22" y="-229" font-family="Helvetica,sans-Serif" font-size="10.00">setup</text>
</a>
</g>
</g>
<!-- Node3&#45;&gt;Node4 -->
<g id="edge3_Node000003_Node000004" class="edge">
<title>Node3&#45;&gt;Node4</title>
<g id="a_edge3_Node000003_Node000004"><a xlink:title=" ">
<path fill="none" stroke="#63b8ff" d="M69.8,-231.5C60.57,-231.5 51.69,-231.5 44.19,-231.5"/>
<polygon fill="#63b8ff" stroke="#63b8ff" points="69.91,-235 79.91,-231.5 69.91,-228 69.91,-235"/>
</a>
</g>
</g>
<!-- Node8 -->
<g id="Node000008" class="node">
<title>Node8</title>
<g id="a_Node000008"><a xlink:href="Scheduler__test_8cpp.html#a7dfd9b79bc5a37d7df40207afbc5431f" target="_top" xlink:title=" ">
<polygon fill="white" stroke="#666666" points="44,-130 0,-130 0,-111 44,-111 44,-130"/>
<text text-anchor="middle" x="22" y="-118" font-family="Helvetica,sans-Serif" font-size="10.00">setup</text>
</a>
</g>
</g>
<!-- Node7&#45;&gt;Node8 -->
<g id="edge7_Node000007_Node000008" class="edge">
<title>Node7&#45;&gt;Node8</title>
<g id="a_edge7_Node000007_Node000008"><a xlink:title=" ">
<path fill="none" stroke="#63b8ff" d="M77.44,-120.5C65.48,-120.5 53.63,-120.5 44.05,-120.5"/>
<polygon fill="#63b8ff" stroke="#63b8ff" points="77.46,-124 87.46,-120.5 77.46,-117 77.46,-124"/>
</a>
</g>
</g>
<!-- Node14 -->
<g id="Node000014" class="node">
<title>Node14</title>
<g id="a_Node000014"><a xlink:href="classAP__GPS.html#afe04427a47ab5e630cb979815abd911e" target="_top" xlink:title=" ">
<polygon fill="white" stroke="#666666" points="183.5,-19 89.5,-19 89.5,0 183.5,0 183.5,-19"/>
<text text-anchor="middle" x="136.5" y="-7" font-family="Helvetica,sans-Serif" font-size="10.00">AP_GPS::update</text>
</a>
</g>
</g>
<!-- Node13&#45;&gt;Node14 -->
<g id="edge13_Node000013_Node000014" class="edge">
<title>Node13&#45;&gt;Node14</title>
<g id="a_edge13_Node000013_Node000014"><a xlink:title=" ">
<path fill="none" stroke="#63b8ff" d="M218.23,-9.5C206.47,-9.5 194.7,-9.5 183.92,-9.5"/>
<polygon fill="#63b8ff" stroke="#63b8ff" points="218.54,-13 228.54,-9.5 218.54,-6 218.54,-13"/>
</a>
</g>
</g>
<!-- Node15 -->
<g id="Node000015" class="node">
<title>Node15</title>
<g id="a_Node000015"><a xlink:href="GPS__AUTO__test_8cpp.html#afe461d27b9c48d5921c00d521181f12f" target="_top" xlink:title=" ">
<polygon fill="white" stroke="#666666" points="41,-19 3,-19 3,0 41,0 41,-19"/>
<text text-anchor="middle" x="22" y="-7" font-family="Helvetica,sans-Serif" font-size="10.00">loop</text>
</a>
</g>
</g>
<!-- Node14&#45;&gt;Node15 -->
<g id="edge14_Node000014_Node000015" class="edge">
<title>Node14&#45;&gt;Node15</title>
<g id="a_edge14_Node000014_Node000015"><a xlink:title=" ">
<path fill="none" stroke="#63b8ff" d="M79.36,-9.5C65.49,-9.5 51.6,-9.5 41.09,-9.5"/>
<polygon fill="#63b8ff" stroke="#63b8ff" points="79.42,-13 89.42,-9.5 79.42,-6 79.42,-13"/>
</a>
</g>
</g>
</g>
</svg>
