<?xml version="1.0" encoding="UTF-8" standalone="no"?>
<!DOCTYPE svg PUBLIC "-//W3C//DTD SVG 1.1//EN"
 "http://www.w3.org/Graphics/SVG/1.1/DTD/svg11.dtd">
<!-- Generated by graphviz version 2.43.0 (0)
 -->
<!-- Title: AP_Airspeed::get_airspeed Pages: 1 -->
<svg width="381pt" height="45pt"
 viewBox="0.00 0.00 381.00 45.00" xmlns="http://www.w3.org/2000/svg" xmlns:xlink="http://www.w3.org/1999/xlink">
<g id="graph0" class="graph" transform="scale(1 1) rotate(0) translate(4 41)">
<title>AP_Airspeed::get_airspeed</title>
<!-- Node1 -->
<g id="Node000001" class="node">
<title>Node1</title>
<g id="a_Node000001"><a xlink:title=" ">
<polygon fill="#999999" stroke="#666666" points="373,-19 227,-19 227,0 373,0 373,-19"/>
<text text-anchor="middle" x="300" y="-7" font-family="Helvetica,sans-Serif" font-size="10.00">AP_Airspeed::get_airspeed</text>
</a>
</g>
</g>
<!-- Node1&#45;&gt;Node1 -->
<g id="edge1_Node000001_Node000001" class="edge">
<title>Node1&#45;&gt;Node1</title>
<g id="a_edge1_Node000001_Node000001"><a xlink:title=" ">
<path fill="none" stroke="#63b8ff" d="M330.99,-27.82C329.69,-33.01 319.36,-37 300,-37 270.5,-37 261.97,-27.73 274.41,-19.08"/>
<polygon fill="#63b8ff" stroke="#63b8ff" points="333.82,-25.75 325.59,-19.08 327.87,-29.43 333.82,-25.75"/>
</a>
</g>
</g>
<!-- Node2 -->
<g id="Node000002" class="node">
<title>Node2</title>
<g id="a_Node000002"><a xlink:href="classAP__Airspeed.html#a694a19befdc15d84bccbbae3c348f52d" target="_top" xlink:title=" ">
<polygon fill="white" stroke="#666666" points="191,-19 74,-19 74,0 191,0 191,-19"/>
<text text-anchor="middle" x="132.5" y="-7" font-family="Helvetica,sans-Serif" font-size="10.00">AP_Airspeed::update</text>
</a>
</g>
</g>
<!-- Node1&#45;&gt;Node2 -->
<g id="edge2_Node000001_Node000002" class="edge">
<title>Node1&#45;&gt;Node2</title>
<g id="a_edge2_Node000001_Node000002"><a xlink:title=" ">
<path fill="none" stroke="#63b8ff" d="M216.77,-9.5C208.13,-9.5 199.48,-9.5 191.2,-9.5"/>
<polygon fill="#63b8ff" stroke="#63b8ff" points="216.89,-13 226.89,-9.5 216.89,-6 216.89,-13"/>
</a>
</g>
</g>
<!-- Node3 -->
<g id="Node000003" class="node">
<title>Node3</title>
<g id="a_Node000003"><a xlink:href="Airspeed_8cpp.html#afe461d27b9c48d5921c00d521181f12f" target="_top" xlink:title=" ">
<polygon fill="white" stroke="#666666" points="38,-19 0,-19 0,0 38,0 38,-19"/>
<text text-anchor="middle" x="19" y="-7" font-family="Helvetica,sans-Serif" font-size="10.00">loop</text>
</a>
</g>
</g>
<!-- Node2&#45;&gt;Node3 -->
<g id="edge3_Node000002_Node000003" class="edge">
<title>Node2&#45;&gt;Node3</title>
<g id="a_edge3_Node000002_Node000003"><a xlink:title=" ">
<path fill="none" stroke="#63b8ff" d="M63.54,-9.5C54.22,-9.5 45.38,-9.5 38.13,-9.5"/>
<polygon fill="#63b8ff" stroke="#63b8ff" points="63.79,-13 73.79,-9.5 63.79,-6 63.79,-13"/>
</a>
</g>
</g>
</g>
</svg>
