<?xml version="1.0" encoding="UTF-8" standalone="no"?>
<!DOCTYPE svg PUBLIC "-//W3C//DTD SVG 1.1//EN"
 "http://www.w3.org/Graphics/SVG/1.1/DTD/svg11.dtd">
<!-- Generated by graphviz version 2.43.0 (0)
 -->
<!-- Title: HALSITL::Util::set_cmdline_parameters Pages: 1 -->
<!--zoomable 190 -->

<svg id="main" version="1.1" xmlns="http://www.w3.org/2000/svg" xmlns:xlink="http://www.w3.org/1999/xlink" xml:space="preserve" onload="init(evt)">
<style type="text/css"><![CDATA[
.node, .edge {opacity: 0.7;}
.node.selected, .edge.selected {opacity: 1;}
.edge:hover path { stroke: red; }
.edge:hover polygon { stroke: red; fill: red; }
]]></style>

<defs>
  <circle id="rim" cx="0" cy="0" r="7"/>
  <circle id="rim2" cx="0" cy="0" r="3.5"/>
  <g id="zoomPlus">
    <use xlink:href="#rim" fill="#404040"><set attributeName="fill" to="#808080" begin="zoomplus.mouseover" end="zoomplus.mouseout"/></use>
    <path d="M-4,0h8M0,-4v8" fill="none" stroke="white" stroke-width="1.5" pointer-events="none"/>
  </g>
  <g id="zoomMin">
    <use xlink:href="#rim" fill="#404040"><set attributeName="fill" to="#808080" begin="zoomminus.mouseover" end="zoomminus.mouseout"/></use>
    <path d="M-4,0h8" fill="none" stroke="white" stroke-width="1.5" pointer-events="none"/>
  </g>
  <g id="arrowUp" transform="translate(30 24)">
    <use xlink:href="#rim"/>
    <path pointer-events="none" fill="none" stroke="white" stroke-width="1.5" d="M0,-3.0v7 M-2.5,-0.5L0,-3.0L2.5,-0.5"/>
  </g>
  <g id="arrowRight" transform="rotate(90) translate(36 -43)">
    <use xlink:href="#rim"/>
    <path pointer-events="none" fill="none" stroke="white" stroke-width="1.5" d="M0,-3.0v7 M-2.5,-0.5L0,-3.0L2.5,-0.5"/>
  </g>
  <g id="arrowDown" transform="rotate(180) translate(-30 -48)">
    <use xlink:href="#rim"/>
    <path pointer-events="none" fill="none" stroke="white" stroke-width="1.5" d="M0,-3.0v7 M-2.5,-0.5L0,-3.0L2.5,-0.5"/>
  </g>
  <g id="arrowLeft" transform="rotate(270) translate(-36 17)">
    <use xlink:href="#rim"/>
    <path pointer-events="none" fill="none" stroke="white" stroke-width="1.5" d="M0,-3.0v7 M-2.5,-0.5L0,-3.0L2.5,-0.5"/>
  </g>
  <g id="resetDef">
    <use xlink:href="#rim2" fill="#404040"><set attributeName="fill" to="#808080" begin="reset.mouseover" end="reset.mouseout"/></use>
  </g>
</defs>
<script type="application/ecmascript">
var viewWidth = 907;
var viewHeight = 190;
var sectionId = 'dynsection-5';
</script>
<script type="application/ecmascript" xlink:href="svg.min.js"/>
<svg id="graph" class="graph">
<g id="viewport">
<title>HALSITL::Util::set_cmdline_parameters</title>
<!-- Node1 -->
<g id="Node000001" class="node">
<title>Node1</title>
<g id="a_Node000001"><a xlink:title=" ">
<polygon fill="#999999" stroke="#666666" points="122,-81.5 0,-81.5 0,-51.5 122,-51.5 122,-81.5"/>
<text text-anchor="start" x="8" y="-69.5" font-family="Helvetica,sans-Serif" font-size="10.00">HALSITL::Util::set</text>
<text text-anchor="middle" x="61" y="-58.5" font-family="Helvetica,sans-Serif" font-size="10.00">_cmdline_parameters</text>
</a>
</g>
</g>
<!-- Node2 -->
<g id="Node000002" class="node">
<title>Node2</title>
<g id="a_Node000002"><a xlink:href="classAP__Param.html#a2b48c93dbe81f66160ffcd23f1d89dc4" target="_top" xlink:title=" ">
<polygon fill="white" stroke="#666666" points="284,-81.5 158,-81.5 158,-51.5 284,-51.5 284,-81.5"/>
<text text-anchor="start" x="166" y="-69.5" font-family="Helvetica,sans-Serif" font-size="10.00">AP_Param::set_default</text>
<text text-anchor="middle" x="221" y="-58.5" font-family="Helvetica,sans-Serif" font-size="10.00">_by_name</text>
</a>
</g>
</g>
<!-- Node1&#45;&gt;Node2 -->
<g id="edge1_Node000001_Node000002" class="edge">
<title>Node1&#45;&gt;Node2</title>
<g id="a_edge1_Node000001_Node000002"><a xlink:title=" ">
<path fill="none" stroke="#63b8ff" d="M122.18,-66.5C130.58,-66.5 139.28,-66.5 147.87,-66.5"/>
<polygon fill="#63b8ff" stroke="#63b8ff" points="147.89,-70 157.89,-66.5 147.89,-63 147.89,-70"/>
</a>
</g>
</g>
<!-- Node3 -->
<g id="Node000003" class="node">
<title>Node3</title>
<g id="a_Node000003"><a xlink:href="classAP__Param.html#a6ad46b205eda30d7723692e545ff43c8" target="_top" xlink:title=" ">
<polygon fill="white" stroke="#666666" points="409,-76 320,-76 320,-57 409,-57 409,-76"/>
<text text-anchor="middle" x="364.5" y="-64" font-family="Helvetica,sans-Serif" font-size="10.00">AP_Param::find</text>
</a>
</g>
</g>
<!-- Node2&#45;&gt;Node3 -->
<g id="edge2_Node000002_Node000003" class="edge">
<title>Node2&#45;&gt;Node3</title>
<g id="a_edge2_Node000002_Node000003"><a xlink:title=" ">
<path fill="none" stroke="#63b8ff" d="M284.06,-66.5C292.62,-66.5 301.34,-66.5 309.73,-66.5"/>
<polygon fill="#63b8ff" stroke="#63b8ff" points="309.75,-70 319.75,-66.5 309.75,-63 309.75,-70"/>
</a>
</g>
</g>
<!-- Node4 -->
<g id="Node000004" class="node">
<title>Node4</title>
<g id="a_Node000004"><a xlink:href="classAP__Param.html#a6d02e2c94f578782f8f68ef0fec7a43d" target="_top" xlink:title=" ">
<polygon fill="white" stroke="#666666" points="567,-133 445,-133 445,-114 567,-114 567,-133"/>
<text text-anchor="middle" x="506" y="-121" font-family="Helvetica,sans-Serif" font-size="10.00">AP_Param::find_group</text>
</a>
</g>
</g>
<!-- Node3&#45;&gt;Node4 -->
<g id="edge3_Node000003_Node000004" class="edge">
<title>Node3&#45;&gt;Node4</title>
<g id="a_edge3_Node000003_Node000004"><a xlink:title=" ">
<path fill="none" stroke="#63b8ff" d="M388.43,-76.11C404.29,-82.74 425.9,-91.72 445,-99.5 453.61,-103.01 462.92,-106.76 471.59,-110.23"/>
<polygon fill="#63b8ff" stroke="#63b8ff" points="470.45,-113.54 481.03,-113.99 473.04,-107.04 470.45,-113.54"/>
</a>
</g>
</g>
<!-- Node6 -->
<g id="Node000006" class="node">
<title>Node6</title>
<g id="a_Node000006"><a xlink:href="classAP__Param.html#a1dcc7820ea51e29cfb762387a9212818" target="_top" xlink:title=" ">
<polygon fill="white" stroke="#666666" points="899,-133 783,-133 783,-114 899,-114 899,-133"/>
<text text-anchor="middle" x="841" y="-121" font-family="Helvetica,sans-Serif" font-size="10.00">AP_Param::get_base</text>
</a>
</g>
</g>
<!-- Node3&#45;&gt;Node6 -->
<g id="edge9_Node000003_Node000006" class="edge">
<title>Node3&#45;&gt;Node6</title>
<g id="a_edge9_Node000003_Node000006"><a xlink:title=" ">
<path fill="none" stroke="#63b8ff" d="M409.15,-59.21C481.12,-48.81 628.51,-34.41 747,-67.5 774.92,-75.3 802.87,-93.94 820.73,-107.59"/>
<polygon fill="#63b8ff" stroke="#63b8ff" points="818.62,-110.38 828.64,-113.81 822.94,-104.88 818.62,-110.38"/>
</a>
</g>
</g>
<!-- Node7 -->
<g id="Node000007" class="node">
<title>Node7</title>
<g id="a_Node000007"><a xlink:href="classAP__Param.html#a69baa95e011c7a8c4a29625c558c5501" target="_top" xlink:title="get group_info pointer based on flags">
<polygon fill="white" stroke="#666666" points="747,-95 603,-95 603,-76 747,-76 747,-95"/>
<text text-anchor="middle" x="675" y="-83" font-family="Helvetica,sans-Serif" font-size="10.00">AP_Param::get_group_info</text>
</a>
</g>
</g>
<!-- Node3&#45;&gt;Node7 -->
<g id="edge10_Node000003_Node000007" class="edge">
<title>Node3&#45;&gt;Node7</title>
<g id="a_edge10_Node000003_Node000007"><a xlink:title=" ">
<path fill="none" stroke="#63b8ff" d="M409.05,-69.18C456.62,-72.11 533.89,-76.87 592.73,-80.49"/>
<polygon fill="#63b8ff" stroke="#63b8ff" points="592.56,-83.99 602.75,-81.11 592.99,-77 592.56,-83.99"/>
</a>
</g>
</g>
<!-- Node8 -->
<g id="Node000008" class="node">
<title>Node8</title>
<g id="a_Node000008"><a xlink:href="structtype.html#a9bc6db84bdab9cb1893658114058ad41" target="_top" xlink:title=" ">
<polygon fill="white" stroke="#666666" points="539,-19 473,-19 473,0 539,0 539,-19"/>
<text text-anchor="middle" x="506" y="-7" font-family="Helvetica,sans-Serif" font-size="10.00">type::type</text>
</a>
</g>
</g>
<!-- Node3&#45;&gt;Node8 -->
<g id="edge11_Node000003_Node000008" class="edge">
<title>Node3&#45;&gt;Node8</title>
<g id="a_edge11_Node000003_Node000008"><a xlink:title=" ">
<path fill="none" stroke="#63b8ff" d="M388.43,-56.89C404.29,-50.26 425.9,-41.28 445,-33.5 453.61,-29.99 462.92,-26.24 471.59,-22.77"/>
<polygon fill="#63b8ff" stroke="#63b8ff" points="473.04,-25.96 481.03,-19.01 470.45,-19.46 473.04,-25.96"/>
</a>
</g>
</g>
<!-- Node4&#45;&gt;Node4 -->
<g id="edge6_Node000004_Node000004" class="edge">
<title>Node4&#45;&gt;Node4</title>
<g id="a_edge6_Node000004_Node000004"><a xlink:title=" ">
<path fill="none" stroke="#63b8ff" d="M484.42,-133.08C473.92,-141.73 481.12,-151 506,-151 521.94,-151 530.62,-147.2 532.04,-142.19"/>
<polygon fill="#63b8ff" stroke="#63b8ff" points="535.12,-140.52 527.58,-133.08 528.84,-143.6 535.12,-140.52"/>
</a>
</g>
</g>
<!-- Node5 -->
<g id="Node000005" class="node">
<title>Node5</title>
<g id="a_Node000005"><a xlink:href="classAP__Param.html#aa8b43d95bca6adbf5497e8102cf73857" target="_top" xlink:title=" ">
<polygon fill="white" stroke="#666666" points="742,-181.5 608,-181.5 608,-151.5 742,-151.5 742,-181.5"/>
<text text-anchor="start" x="616" y="-169.5" font-family="Helvetica,sans-Serif" font-size="10.00">AP_Param::adjust_group</text>
<text text-anchor="middle" x="675" y="-158.5" font-family="Helvetica,sans-Serif" font-size="10.00">_offset</text>
</a>
</g>
</g>
<!-- Node4&#45;&gt;Node5 -->
<g id="edge4_Node000004_Node000005" class="edge">
<title>Node4&#45;&gt;Node5</title>
<g id="a_edge4_Node000004_Node000005"><a xlink:title=" ">
<path fill="none" stroke="#63b8ff" d="M544.06,-133.04C562.23,-137.72 584.7,-143.51 605.81,-148.94"/>
<polygon fill="#63b8ff" stroke="#63b8ff" points="605.16,-152.39 615.72,-151.49 606.91,-145.61 605.16,-152.39"/>
</a>
</g>
</g>
<!-- Node4&#45;&gt;Node6 -->
<g id="edge7_Node000004_Node000006" class="edge">
<title>Node4&#45;&gt;Node6</title>
<g id="a_edge7_Node000004_Node000006"><a xlink:title=" ">
<path fill="none" stroke="#63b8ff" d="M567.3,-123.5C625.24,-123.5 712.62,-123.5 772.77,-123.5"/>
<polygon fill="#63b8ff" stroke="#63b8ff" points="772.93,-127 782.93,-123.5 772.93,-120 772.93,-127"/>
</a>
</g>
</g>
<!-- Node4&#45;&gt;Node7 -->
<g id="edge8_Node000004_Node000007" class="edge">
<title>Node4&#45;&gt;Node7</title>
<g id="a_edge8_Node000004_Node000007"><a xlink:title=" ">
<path fill="none" stroke="#63b8ff" d="M549.14,-113.91C571.38,-108.85 598.85,-102.6 622.36,-97.25"/>
<polygon fill="#63b8ff" stroke="#63b8ff" points="623.19,-100.65 632.16,-95.02 621.63,-93.83 623.19,-100.65"/>
</a>
</g>
</g>
<!-- Node5&#45;&gt;Node6 -->
<g id="edge5_Node000005_Node000006" class="edge">
<title>Node5&#45;&gt;Node6</title>
<g id="a_edge5_Node000005_Node000006"><a xlink:title=" ">
<path fill="none" stroke="#63b8ff" d="M733.36,-151.46C753.09,-146.29 774.92,-140.56 793.66,-135.65"/>
<polygon fill="#63b8ff" stroke="#63b8ff" points="794.65,-139.01 803.44,-133.09 792.88,-132.24 794.65,-139.01"/>
</a>
</g>
</g>
</g>
</svg>

<g id="navigator" transform="translate(0 0)" fill="#404254">
  <rect fill="#f2f5e9" fill-opacity="0.5" stroke="#606060" stroke-width=".5" x="0" y="0" width="60" height="60"/>
  <use id="zoomplus" xlink:href="#zoomPlus" x="17" y="9" onmousedown="handleZoom(evt,'in')"/>
  <use id="zoomminus" xlink:href="#zoomMin" x="42" y="9" onmousedown="handleZoom(evt,'out')"/>
  <use id="reset" xlink:href="#resetDef" x="30" y="36" onmousedown="handleReset()"/>
   <use id="arrowup" xlink:href="#arrowUp" x="0" y="0" onmousedown="handlePan(0,-1)"/>
  <use id="arrowright" xlink:href="#arrowRight" x="0" y="0" onmousedown="handlePan(1,0)"/>
  <use id="arrowdown" xlink:href="#arrowDown" x="0" y="0" onmousedown="handlePan(0,1)"/>
  <use id="arrowleft" xlink:href="#arrowLeft" x="0" y="0" onmousedown="handlePan(-1,0)"/>
</g>
<svg viewBox="0 0 15 15" width="100%" height="30px" preserveAspectRatio="xMaxYMin meet">
 <g id="arrow_out" transform="scale(0.3 0.3)">
  <a xlink:href="classHALSITL_1_1Util_a6dc4ed592da197f6627761bdd671fa49_cgraph_org.svg" target="_base">
   <rect id="button" ry="5" rx="5" y="6" x="6" height="38" width="38"
        fill="#f2f5e9" fill-opacity="0.5" stroke="#606060" stroke-width="1.0"/>
   <path id="arrow"
     d="M 11.500037,31.436501 C 11.940474,20.09759 22.043105,11.32322 32.158766,21.979434 L 37.068811,17.246167 C 37.068811,17.246167 37.088388,32 37.088388,32 L 22.160133,31.978069 C 22.160133,31.978069 26.997745,27.140456 26.997745,27.140456 C 18.528582,18.264221 13.291696,25.230495 11.500037,31.436501 z"
     style="fill:#404040;"/>
  </a>
 </g>
</svg>

<style type='text/css'>
<![CDATA[
[data-mouse-over-selected='false'] { opacity: 0.7; }
[data-mouse-over-selected='true']  { opacity: 1.0; }
]]>
</style>
<script type="application/ecmascript"><![CDATA[
document.addEventListener('DOMContentLoaded', (event) => {
  highlightEdges();
  highlightAdjacentNodes();
});
]]></script>
</svg>
