<?xml version="1.0" encoding="UTF-8" standalone="no"?>
<!DOCTYPE svg PUBLIC "-//W3C//DTD SVG 1.1//EN"
 "http://www.w3.org/Graphics/SVG/1.1/DTD/svg11.dtd">
<!-- Generated by graphviz version 2.43.0 (0)
 -->
<!-- Title: _tds__GetSystemDateAndTimeResponse Pages: 1 -->
<svg width="379pt" height="247pt"
 viewBox="0.00 0.00 378.50 247.00" xmlns="http://www.w3.org/2000/svg" xmlns:xlink="http://www.w3.org/1999/xlink">
<g id="graph0" class="graph" transform="scale(1 1) rotate(0) translate(4 243)">
<title>_tds__GetSystemDateAndTimeResponse</title>
<!-- Node1 -->
<g id="Node000001" class="node">
<title>Node1</title>
<g id="a_Node000001"><a xlink:title="Top&#45;level root element &quot;http://www.onvif.org/ver10/device/wsdl&quot;:GetSystemDateAndTimeResponse.">
<polygon fill="#999999" stroke="#666666" points="228,-30 60,-30 60,0 228,0 228,-30"/>
<text text-anchor="start" x="68" y="-18" font-family="Helvetica,sans-Serif" font-size="10.00">_tds__GetSystemDateAndTime</text>
<text text-anchor="middle" x="144" y="-7" font-family="Helvetica,sans-Serif" font-size="10.00">Response</text>
</a>
</g>
</g>
<!-- Node2 -->
<g id="Node000002" class="node">
<title>Node2</title>
<g id="a_Node000002"><a xlink:href="classtt____SystemDateTime.html" target="_top" xlink:title="&quot;http://www.onvif.org/ver10/schema&quot;:SystemDateTime is a complexType.">
<polygon fill="white" stroke="#666666" points="203.5,-96 84.5,-96 84.5,-77 203.5,-77 203.5,-96"/>
<text text-anchor="middle" x="144" y="-84" font-family="Helvetica,sans-Serif" font-size="10.00">tt__SystemDateTime</text>
</a>
</g>
</g>
<!-- Node2&#45;&gt;Node1 -->
<g id="edge1_Node000001_Node000002" class="edge">
<title>Node2&#45;&gt;Node1</title>
<g id="a_edge1_Node000001_Node000002"><a xlink:title=" ">
<path fill="none" stroke="#9a32cd" stroke-dasharray="5,2" d="M144,-66.71C144,-55.19 144,-40.68 144,-30.14"/>
<polygon fill="#9a32cd" stroke="#9a32cd" points="140.5,-66.98 144,-76.98 147.5,-66.98 140.5,-66.98"/>
</a>
</g>
<text text-anchor="middle" x="197.5" y="-51" font-family="Helvetica,sans-Serif" font-size="10.00" fill="grey"> SystemDateAndTime</text>
</g>
<!-- Node3 -->
<g id="Node000003" class="node">
<title>Node3</title>
<g id="a_Node000003"><a xlink:href="classtt____TimeZone.html" target="_top" xlink:title="&quot;http://www.onvif.org/ver10/schema&quot;:TimeZone is a complexType.">
<polygon fill="white" stroke="#666666" points="84,-173 0,-173 0,-154 84,-154 84,-173"/>
<text text-anchor="middle" x="42" y="-161" font-family="Helvetica,sans-Serif" font-size="10.00">tt__TimeZone</text>
</a>
</g>
</g>
<!-- Node3&#45;&gt;Node2 -->
<g id="edge2_Node000002_Node000003" class="edge">
<title>Node3&#45;&gt;Node2</title>
<g id="a_edge2_Node000002_Node000003"><a xlink:title=" ">
<path fill="none" stroke="#9a32cd" stroke-dasharray="5,2" d="M54.91,-145.55C63.25,-135.44 74.79,-122.89 87,-114 97.15,-106.62 109.68,-100.52 120.41,-96.04"/>
<polygon fill="#9a32cd" stroke="#9a32cd" points="51.96,-143.64 48.48,-153.65 57.44,-147.99 51.96,-143.64"/>
</a>
</g>
<text text-anchor="middle" x="113.5" y="-122.5" font-family="Helvetica,sans-Serif" font-size="10.00" fill="grey"> TimeZone</text>
</g>
<!-- Node4 -->
<g id="Node000004" class="node">
<title>Node4</title>
<g id="a_Node000004"><a xlink:href="classtt____DateTime.html" target="_top" xlink:title="&quot;http://www.onvif.org/ver10/schema&quot;:DateTime is a complexType.">
<polygon fill="white" stroke="#666666" points="185.5,-173 102.5,-173 102.5,-154 185.5,-154 185.5,-173"/>
<text text-anchor="middle" x="144" y="-161" font-family="Helvetica,sans-Serif" font-size="10.00">tt__DateTime</text>
</a>
</g>
</g>
<!-- Node4&#45;&gt;Node2 -->
<g id="edge3_Node000002_Node000004" class="edge">
<title>Node4&#45;&gt;Node2</title>
<g id="a_edge3_Node000002_Node000004"><a xlink:title=" ">
<path fill="none" stroke="#9a32cd" stroke-dasharray="5,2" d="M144,-143.52C144,-128.24 144,-107.48 144,-96"/>
<polygon fill="#9a32cd" stroke="#9a32cd" points="140.5,-143.9 144,-153.9 147.5,-143.9 140.5,-143.9"/>
</a>
</g>
<text text-anchor="middle" x="182.5" y="-128" font-family="Helvetica,sans-Serif" font-size="10.00" fill="grey"> LocalDateTime</text>
<text text-anchor="middle" x="182.5" y="-117" font-family="Helvetica,sans-Serif" font-size="10.00" fill="grey">UTCDateTime</text>
</g>
<!-- Node5 -->
<g id="Node000005" class="node">
<title>Node5</title>
<g id="a_Node000005"><a xlink:href="classtt____Time.html" target="_top" xlink:title="&quot;http://www.onvif.org/ver10/schema&quot;:Time is a complexType.">
<polygon fill="white" stroke="#666666" points="134.5,-239 75.5,-239 75.5,-220 134.5,-220 134.5,-239"/>
<text text-anchor="middle" x="105" y="-227" font-family="Helvetica,sans-Serif" font-size="10.00">tt__Time</text>
</a>
</g>
</g>
<!-- Node5&#45;&gt;Node4 -->
<g id="edge4_Node000004_Node000005" class="edge">
<title>Node5&#45;&gt;Node4</title>
<g id="a_edge4_Node000004_Node000005"><a xlink:title=" ">
<path fill="none" stroke="#9a32cd" stroke-dasharray="5,2" d="M115.63,-211.05C123.06,-198.86 132.66,-183.11 138.57,-173.41"/>
<polygon fill="#9a32cd" stroke="#9a32cd" points="112.47,-209.51 110.26,-219.87 118.45,-213.15 112.47,-209.51"/>
</a>
</g>
<text text-anchor="middle" x="140" y="-194" font-family="Helvetica,sans-Serif" font-size="10.00" fill="grey"> Time</text>
</g>
<!-- Node6 -->
<g id="Node000006" class="node">
<title>Node6</title>
<g id="a_Node000006"><a xlink:href="classtt____Date.html" target="_top" xlink:title="&quot;http://www.onvif.org/ver10/schema&quot;:Date is a complexType.">
<polygon fill="white" stroke="#666666" points="211,-239 153,-239 153,-220 211,-220 211,-239"/>
<text text-anchor="middle" x="182" y="-227" font-family="Helvetica,sans-Serif" font-size="10.00">tt__Date</text>
</a>
</g>
</g>
<!-- Node6&#45;&gt;Node4 -->
<g id="edge5_Node000004_Node000006" class="edge">
<title>Node6&#45;&gt;Node4</title>
<g id="a_edge5_Node000004_Node000006"><a xlink:title=" ">
<path fill="none" stroke="#9a32cd" stroke-dasharray="5,2" d="M171.64,-211.05C164.4,-198.86 155.05,-183.11 149.29,-173.41"/>
<polygon fill="#9a32cd" stroke="#9a32cd" points="168.76,-213.06 176.88,-219.87 174.78,-209.48 168.76,-213.06"/>
</a>
</g>
<text text-anchor="middle" x="178.5" y="-194" font-family="Helvetica,sans-Serif" font-size="10.00" fill="grey"> Date</text>
</g>
<!-- Node7 -->
<g id="Node000007" class="node">
<title>Node7</title>
<g id="a_Node000007"><a xlink:href="classtt____SystemDateTimeExtension.html" target="_top" xlink:title="&quot;http://www.onvif.org/ver10/schema&quot;:SystemDateTimeExtension is a complexType.">
<polygon fill="white" stroke="#666666" points="370.5,-173 203.5,-173 203.5,-154 370.5,-154 370.5,-173"/>
<text text-anchor="middle" x="287" y="-161" font-family="Helvetica,sans-Serif" font-size="10.00">tt__SystemDateTimeExtension</text>
</a>
</g>
</g>
<!-- Node7&#45;&gt;Node2 -->
<g id="edge6_Node000002_Node000007" class="edge">
<title>Node7&#45;&gt;Node2</title>
<g id="a_edge6_Node000002_Node000007"><a xlink:title=" ">
<path fill="none" stroke="#9a32cd" stroke-dasharray="5,2" d="M270.34,-146.84C258.45,-136.35 241.69,-122.9 225,-114 210.64,-106.34 193.67,-100.37 178.97,-96.05"/>
<polygon fill="#9a32cd" stroke="#9a32cd" points="268.29,-149.71 278.05,-153.83 273,-144.52 268.29,-149.71"/>
</a>
</g>
<text text-anchor="middle" x="282" y="-122.5" font-family="Helvetica,sans-Serif" font-size="10.00" fill="grey"> Extension</text>
</g>
</g>
</svg>
