<?xml version="1.0" encoding="UTF-8" standalone="no"?>
<!DOCTYPE svg PUBLIC "-//W3C//DTD SVG 1.1//EN"
 "http://www.w3.org/Graphics/SVG/1.1/DTD/svg11.dtd">
<!-- Generated by graphviz version 2.43.0 (0)
 -->
<!-- Title: AP_Filesystem::lseek Pages: 1 -->
<svg width="298pt" height="86pt"
 viewBox="0.00 0.00 298.00 86.00" xmlns="http://www.w3.org/2000/svg" xmlns:xlink="http://www.w3.org/1999/xlink">
<g id="graph0" class="graph" transform="scale(1 1) rotate(0) translate(4 82)">
<title>AP_Filesystem::lseek</title>
<!-- Node1 -->
<g id="Node000001" class="node">
<title>Node1</title>
<g id="a_Node000001"><a xlink:title=" ">
<polygon fill="#999999" stroke="#666666" points="120,-48.5 0,-48.5 0,-29.5 120,-29.5 120,-48.5"/>
<text text-anchor="middle" x="60" y="-36.5" font-family="Helvetica,sans-Serif" font-size="10.00">AP_Filesystem::lseek</text>
</a>
</g>
</g>
<!-- Node2 -->
<g id="Node000002" class="node">
<title>Node2</title>
<g id="a_Node000002"><a xlink:href="classAP__Filesystem.html#a5682ad982f41d40f6e9894441e27a710" target="_top" xlink:title=" ">
<polygon fill="white" stroke="#666666" points="290,-78 156,-78 156,-48 290,-48 290,-78"/>
<text text-anchor="start" x="164" y="-66" font-family="Helvetica,sans-Serif" font-size="10.00">AP_Filesystem::backend</text>
<text text-anchor="middle" x="223" y="-55" font-family="Helvetica,sans-Serif" font-size="10.00">_by_fd</text>
</a>
</g>
</g>
<!-- Node1&#45;&gt;Node2 -->
<g id="edge1_Node000001_Node000002" class="edge">
<title>Node1&#45;&gt;Node2</title>
<g id="a_edge1_Node000001_Node000002"><a xlink:title=" ">
<path fill="none" stroke="#63b8ff" d="M120.04,-47.8C128.42,-49.05 137.14,-50.35 145.8,-51.64"/>
<polygon fill="#63b8ff" stroke="#63b8ff" points="145.49,-55.13 155.9,-53.15 146.53,-48.21 145.49,-55.13"/>
</a>
</g>
</g>
<!-- Node3 -->
<g id="Node000003" class="node">
<title>Node3</title>
<g id="a_Node000003"><a xlink:href="classAP__Filesystem__Backend.html#a35ee23319351666cf27cbac386b2fd1e" target="_top" xlink:title=" ">
<polygon fill="white" stroke="#666666" points="290,-30 156,-30 156,0 290,0 290,-30"/>
<text text-anchor="start" x="164" y="-18" font-family="Helvetica,sans-Serif" font-size="10.00">AP_Filesystem_Backend</text>
<text text-anchor="middle" x="223" y="-7" font-family="Helvetica,sans-Serif" font-size="10.00">::lseek</text>
</a>
</g>
</g>
<!-- Node1&#45;&gt;Node3 -->
<g id="edge2_Node000001_Node000003" class="edge">
<title>Node1&#45;&gt;Node3</title>
<g id="a_edge2_Node000001_Node000003"><a xlink:title=" ">
<path fill="none" stroke="#63b8ff" d="M120.04,-30.2C128.42,-28.95 137.14,-27.65 145.8,-26.36"/>
<polygon fill="#63b8ff" stroke="#63b8ff" points="146.53,-29.79 155.9,-24.85 145.49,-22.87 146.53,-29.79"/>
</a>
</g>
</g>
</g>
</svg>
