<?xml version="1.0" encoding="UTF-8" standalone="no"?>
<!DOCTYPE svg PUBLIC "-//W3C//DTD SVG 1.1//EN"
 "http://www.w3.org/Graphics/SVG/1.1/DTD/svg11.dtd">
<!-- Generated by graphviz version 2.43.0 (0)
 -->
<!-- Title: AP_Param::find_key_by_pointer_group Pages: 1 -->
<svg width="452pt" height="114pt"
 viewBox="0.00 0.00 452.00 113.50" xmlns="http://www.w3.org/2000/svg" xmlns:xlink="http://www.w3.org/1999/xlink">

<svg id="main" version="1.1" xmlns="http://www.w3.org/2000/svg" xmlns:xlink="http://www.w3.org/1999/xlink" xml:space="preserve" onload="init(evt)">
<style type="text/css"><![CDATA[
.node, .edge {opacity: 0.7;}
.node.selected, .edge.selected {opacity: 1;}
.edge:hover path { stroke: red; }
.edge:hover polygon { stroke: red; fill: red; }
]]></style>
<script type="application/ecmascript" xlink:href="svg.min.js"/>
<svg id="graph" class="graph">
<g id="graph0" class="graph" transform="scale(1 1) rotate(0) translate(4 109.5)">
<title>AP_Param::find_key_by_pointer_group</title>
<!-- Node1 -->
<g id="Node000001" class="node">
<title>Node1</title>
<g id="a_Node000001"><a xlink:title=" ">
<polygon fill="#999999" stroke="#666666" points="112,-62.5 0,-62.5 0,-32.5 112,-32.5 112,-62.5"/>
<text text-anchor="start" x="8" y="-50.5" font-family="Helvetica,sans-Serif" font-size="10.00">AP_Param::find_key</text>
<text text-anchor="middle" x="56" y="-39.5" font-family="Helvetica,sans-Serif" font-size="10.00">_by_pointer_group</text>
</a>
</g>
</g>
<!-- Node1&#45;&gt;Node1 -->
<g id="edge3_Node000001_Node000001" class="edge">
<title>Node1&#45;&gt;Node1</title>
<g id="a_edge3_Node000001_Node000001"><a xlink:title=" ">
<path fill="none" stroke="#63b8ff" d="M27.17,-62.78C20.77,-71.91 30.38,-80.5 56,-80.5 71.21,-80.5 80.78,-77.47 84.71,-73.1"/>
<polygon fill="#63b8ff" stroke="#63b8ff" points="88.21,-72.82 84.83,-62.78 81.21,-72.73 88.21,-72.82"/>
</a>
</g>
</g>
<!-- Node2 -->
<g id="Node000002" class="node">
<title>Node2</title>
<g id="a_Node000002"><a xlink:href="classAP__Param.html#aa8b43d95bca6adbf5497e8102cf73857" target="_top" xlink:title=" ">
<polygon fill="white" stroke="#666666" points="287,-105.5 153,-105.5 153,-75.5 287,-75.5 287,-105.5"/>
<text text-anchor="start" x="161" y="-93.5" font-family="Helvetica,sans-Serif" font-size="10.00">AP_Param::adjust_group</text>
<text text-anchor="middle" x="220" y="-82.5" font-family="Helvetica,sans-Serif" font-size="10.00">_offset</text>
</a>
</g>
</g>
<!-- Node1&#45;&gt;Node2 -->
<g id="edge1_Node000001_Node000002" class="edge">
<title>Node1&#45;&gt;Node2</title>
<g id="a_edge1_Node000001_Node000002"><a xlink:title=" ">
<path fill="none" stroke="#63b8ff" d="M112.3,-62.18C125.15,-65.59 138.97,-69.26 152.26,-72.79"/>
<polygon fill="#63b8ff" stroke="#63b8ff" points="151.73,-76.27 162.3,-75.45 153.53,-69.5 151.73,-76.27"/>
</a>
</g>
</g>
<!-- Node3 -->
<g id="Node000003" class="node">
<title>Node3</title>
<g id="a_Node000003"><a xlink:href="classAP__Param.html#a1dcc7820ea51e29cfb762387a9212818" target="_top" xlink:title=" ">
<polygon fill="white" stroke="#666666" points="444,-78 328,-78 328,-59 444,-59 444,-78"/>
<text text-anchor="middle" x="386" y="-66" font-family="Helvetica,sans-Serif" font-size="10.00">AP_Param::get_base</text>
</a>
</g>
</g>
<!-- Node1&#45;&gt;Node3 -->
<g id="edge4_Node000001_Node000003" class="edge">
<title>Node1&#45;&gt;Node3</title>
<g id="a_edge4_Node000001_Node000003"><a xlink:title=" ">
<path fill="none" stroke="#63b8ff" d="M112.27,-51.04C168.88,-54.66 256.95,-60.3 317.61,-64.19"/>
<polygon fill="#63b8ff" stroke="#63b8ff" points="317.65,-67.69 327.85,-64.84 318.09,-60.71 317.65,-67.69"/>
</a>
</g>
</g>
<!-- Node4 -->
<g id="Node000004" class="node">
<title>Node4</title>
<g id="a_Node000004"><a xlink:href="classAP__Param.html#a69baa95e011c7a8c4a29625c558c5501" target="_top" xlink:title="get group_info pointer based on flags">
<polygon fill="white" stroke="#666666" points="292,-19 148,-19 148,0 292,0 292,-19"/>
<text text-anchor="middle" x="220" y="-7" font-family="Helvetica,sans-Serif" font-size="10.00">AP_Param::get_group_info</text>
</a>
</g>
</g>
<!-- Node1&#45;&gt;Node4 -->
<g id="edge5_Node000001_Node000004" class="edge">
<title>Node1&#45;&gt;Node4</title>
<g id="a_edge5_Node000001_Node000004"><a xlink:title=" ">
<path fill="none" stroke="#63b8ff" d="M112.3,-34.53C130.38,-30.29 150.37,-25.6 168.11,-21.44"/>
<polygon fill="#63b8ff" stroke="#63b8ff" points="169.33,-24.75 178.27,-19.05 167.73,-17.93 169.33,-24.75"/>
</a>
</g>
</g>
<!-- Node2&#45;&gt;Node3 -->
<g id="edge2_Node000002_Node000003" class="edge">
<title>Node2&#45;&gt;Node3</title>
<g id="a_edge2_Node000002_Node000003"><a xlink:title=" ">
<path fill="none" stroke="#63b8ff" d="M287.23,-81.62C297.3,-80.26 307.7,-78.87 317.79,-77.52"/>
<polygon fill="#63b8ff" stroke="#63b8ff" points="318.3,-80.98 327.75,-76.18 317.37,-74.04 318.3,-80.98"/>
</a>
</g>
</g>
</g>
</svg>
</svg>

<style type='text/css'>
<![CDATA[
[data-mouse-over-selected='false'] { opacity: 0.7; }
[data-mouse-over-selected='true']  { opacity: 1.0; }
]]>
</style>
<script type="application/ecmascript"><![CDATA[
document.addEventListener('DOMContentLoaded', (event) => {
  highlightEdges();
  highlightAdjacentNodes();
});
]]></script>
</svg>
