<?xml version="1.0" encoding="UTF-8" standalone="no"?>
<!DOCTYPE svg PUBLIC "-//W3C//DTD SVG 1.1//EN"
 "http://www.w3.org/Graphics/SVG/1.1/DTD/svg11.dtd">
<!-- Generated by graphviz version 2.43.0 (0)
 -->
<!-- Title: SITL::EFI_MegaSquirt::update Pages: 1 -->
<svg width="548pt" height="299pt"
 viewBox="0.00 0.00 548.00 299.00" xmlns="http://www.w3.org/2000/svg" xmlns:xlink="http://www.w3.org/1999/xlink">
<g id="graph0" class="graph" transform="scale(1 1) rotate(0) translate(4 295)">
<title>SITL::EFI_MegaSquirt::update</title>
<!-- Node1 -->
<g id="Node000001" class="node">
<title>Node1</title>
<g id="a_Node000001"><a xlink:title=" ">
<polygon fill="#999999" stroke="#666666" points="119,-202.5 0,-202.5 0,-172.5 119,-172.5 119,-202.5"/>
<text text-anchor="start" x="8" y="-190.5" font-family="Helvetica,sans-Serif" font-size="10.00">SITL::EFI_MegaSquirt</text>
<text text-anchor="middle" x="59.5" y="-179.5" font-family="Helvetica,sans-Serif" font-size="10.00">::update</text>
</a>
</g>
</g>
<!-- Node2 -->
<g id="Node000002" class="node">
<title>Node2</title>
<g id="a_Node000002"><a xlink:href="namespaceAP.html#a8aec57eb0b7a79044cbc1f0ca4b75bcf" target="_top" xlink:title=" ">
<polygon fill="white" stroke="#666666" points="244.5,-291 187.5,-291 187.5,-272 244.5,-272 244.5,-291"/>
<text text-anchor="middle" x="216" y="-279" font-family="Helvetica,sans-Serif" font-size="10.00">AP::baro</text>
</a>
</g>
</g>
<!-- Node1&#45;&gt;Node2 -->
<g id="edge1_Node000001_Node000002" class="edge">
<title>Node1&#45;&gt;Node2</title>
<g id="a_edge1_Node000001_Node000002"><a xlink:title=" ">
<path fill="none" stroke="#63b8ff" d="M75.54,-202.73C93.15,-219.77 123.89,-247.13 155,-263.5 161.96,-267.16 169.77,-270.19 177.41,-272.65"/>
<polygon fill="#63b8ff" stroke="#63b8ff" points="176.66,-276.08 187.25,-275.57 178.65,-269.37 176.66,-276.08"/>
</a>
</g>
</g>
<!-- Node4 -->
<g id="Node000004" class="node">
<title>Node4</title>
<g id="a_Node000004"><a xlink:href="sparse-endian_8h.html#ac9479471ad041b1c2674a58bf7660c6c" target="_top" xlink:title=" ">
<polygon fill="white" stroke="#666666" points="244,-254 188,-254 188,-235 244,-235 244,-254"/>
<text text-anchor="middle" x="216" y="-242" font-family="Helvetica,sans-Serif" font-size="10.00">be32toh</text>
</a>
</g>
</g>
<!-- Node1&#45;&gt;Node4 -->
<g id="edge3_Node000001_Node000004" class="edge">
<title>Node1&#45;&gt;Node4</title>
<g id="a_edge3_Node000001_Node000004"><a xlink:title=" ">
<path fill="none" stroke="#63b8ff" d="M101.5,-202.63C125.75,-211.57 156.16,-222.79 179.4,-231.37"/>
<polygon fill="#63b8ff" stroke="#63b8ff" points="178.29,-234.69 188.88,-234.86 180.71,-228.12 178.29,-234.69"/>
</a>
</g>
</g>
<!-- Node5 -->
<g id="Node000005" class="node">
<title>Node5</title>
<g id="a_Node000005"><a xlink:href="SIM__EFI__MegaSquirt_8cpp.html#a81b9ebd342ab2d1316d26b2e57fb3f82" target="_top" xlink:title=" ">
<polygon fill="white" stroke="#666666" points="412,-216 343,-216 343,-197 412,-197 412,-216"/>
<text text-anchor="middle" x="377.5" y="-204" font-family="Helvetica,sans-Serif" font-size="10.00">CRC32_MS</text>
</a>
</g>
</g>
<!-- Node1&#45;&gt;Node5 -->
<g id="edge4_Node000001_Node000005" class="edge">
<title>Node1&#45;&gt;Node5</title>
<g id="a_edge4_Node000001_Node000005"><a xlink:title=" ">
<path fill="none" stroke="#63b8ff" d="M119.2,-191.03C181.07,-194.75 277.11,-200.52 332.69,-203.87"/>
<polygon fill="#63b8ff" stroke="#63b8ff" points="332.72,-207.37 342.91,-204.48 333.14,-200.39 332.72,-207.37"/>
</a>
</g>
</g>
<!-- Node7 -->
<g id="Node000007" class="node">
<title>Node7</title>
<g id="a_Node000007"><a xlink:href="stdio_8h.html#a55f3d956bb2ba20b5059e9e25484a47f" target="_top" xlink:title=" ">
<polygon fill="white" stroke="#666666" points="399,-179 356,-179 356,-160 399,-160 399,-179"/>
<text text-anchor="middle" x="377.5" y="-167" font-family="Helvetica,sans-Serif" font-size="10.00">printf</text>
</a>
</g>
</g>
<!-- Node1&#45;&gt;Node7 -->
<g id="edge6_Node000001_Node000007" class="edge">
<title>Node1&#45;&gt;Node7</title>
<g id="a_edge6_Node000001_Node000007"><a xlink:title=" ">
<path fill="none" stroke="#63b8ff" d="M119.2,-184.16C186.32,-180.33 293.67,-174.22 345.92,-171.24"/>
<polygon fill="#63b8ff" stroke="#63b8ff" points="346.12,-174.74 355.91,-170.67 345.73,-167.75 346.12,-174.74"/>
</a>
</g>
</g>
<!-- Node8 -->
<g id="Node000008" class="node">
<title>Node8</title>
<g id="a_Node000008"><a xlink:href="classSITL_1_1SerialDevice.html#a19281d87ba01fead1fa88e46fe48c966" target="_top" xlink:title=" ">
<polygon fill="white" stroke="#666666" points="277,-92.5 155,-92.5 155,-62.5 277,-62.5 277,-92.5"/>
<text text-anchor="start" x="163" y="-80.5" font-family="Helvetica,sans-Serif" font-size="10.00">SITL::SerialDevice</text>
<text text-anchor="middle" x="216" y="-69.5" font-family="Helvetica,sans-Serif" font-size="10.00">::read_from_autopilot</text>
</a>
</g>
</g>
<!-- Node1&#45;&gt;Node8 -->
<g id="edge7_Node000001_Node000008" class="edge">
<title>Node1&#45;&gt;Node8</title>
<g id="a_edge7_Node000001_Node000008"><a xlink:title=" ">
<path fill="none" stroke="#63b8ff" d="M73.9,-172.34C91.12,-153.61 122.66,-121.75 155,-101.5 157.45,-99.96 160.02,-98.5 162.65,-97.09"/>
<polygon fill="#63b8ff" stroke="#63b8ff" points="164.36,-100.15 171.79,-92.6 161.27,-93.87 164.36,-100.15"/>
</a>
</g>
</g>
<!-- Node9 -->
<g id="Node000009" class="node">
<title>Node9</title>
<g id="a_Node000009"><a xlink:href="classSITL_1_1EFI__MegaSquirt.html#a2624a8e12bad919d14ed53fc59181e02" target="_top" xlink:title=" ">
<polygon fill="white" stroke="#666666" points="275.5,-140.5 156.5,-140.5 156.5,-110.5 275.5,-110.5 275.5,-140.5"/>
<text text-anchor="start" x="164.5" y="-128.5" font-family="Helvetica,sans-Serif" font-size="10.00">SITL::EFI_MegaSquirt</text>
<text text-anchor="middle" x="216" y="-117.5" font-family="Helvetica,sans-Serif" font-size="10.00">::send_table</text>
</a>
</g>
</g>
<!-- Node1&#45;&gt;Node9 -->
<g id="edge8_Node000001_Node000009" class="edge">
<title>Node1&#45;&gt;Node9</title>
<g id="a_edge8_Node000001_Node000009"><a xlink:title=" ">
<path fill="none" stroke="#63b8ff" d="M97.9,-172.49C119,-164.02 145.56,-153.37 168.05,-144.34"/>
<polygon fill="#63b8ff" stroke="#63b8ff" points="169.43,-147.56 177.41,-140.59 166.82,-141.06 169.43,-147.56"/>
</a>
</g>
</g>
<!-- Node3 -->
<g id="Node000003" class="node">
<title>Node3</title>
<g id="a_Node000003"><a xlink:href="classAP__Baro.html#af6c560031f4ddc5c21bfad92c8dd5a8a" target="_top" xlink:title=" ">
<polygon fill="white" stroke="#666666" points="442,-291 313,-291 313,-272 442,-272 442,-291"/>
<text text-anchor="middle" x="377.5" y="-279" font-family="Helvetica,sans-Serif" font-size="10.00">AP_Baro::get_singleton</text>
</a>
</g>
</g>
<!-- Node2&#45;&gt;Node3 -->
<g id="edge2_Node000002_Node000003" class="edge">
<title>Node2&#45;&gt;Node3</title>
<g id="a_edge2_Node000002_Node000003"><a xlink:title=" ">
<path fill="none" stroke="#63b8ff" d="M244.78,-281.5C260.97,-281.5 282.21,-281.5 302.9,-281.5"/>
<polygon fill="#63b8ff" stroke="#63b8ff" points="302.98,-285 312.98,-281.5 302.98,-278 302.98,-285"/>
</a>
</g>
</g>
<!-- Node6 -->
<g id="Node000006" class="node">
<title>Node6</title>
<g id="a_Node000006"><a xlink:href="crc_8cpp.html#a6883728567d1a4e1d28ca0f725fe79cc" target="_top" xlink:title=" ">
<polygon fill="white" stroke="#666666" points="540,-216 478,-216 478,-197 540,-197 540,-216"/>
<text text-anchor="middle" x="509" y="-204" font-family="Helvetica,sans-Serif" font-size="10.00">crc_crc32</text>
</a>
</g>
</g>
<!-- Node5&#45;&gt;Node6 -->
<g id="edge5_Node000005_Node000006" class="edge">
<title>Node5&#45;&gt;Node6</title>
<g id="a_edge5_Node000005_Node000006"><a xlink:title=" ">
<path fill="none" stroke="#63b8ff" d="M412.19,-206.5C429.1,-206.5 449.72,-206.5 467.49,-206.5"/>
<polygon fill="#63b8ff" stroke="#63b8ff" points="467.58,-210 477.58,-206.5 467.58,-203 467.58,-210"/>
</a>
</g>
</g>
<!-- Node9&#45;&gt;Node5 -->
<g id="edge10_Node000009_Node000005" class="edge">
<title>Node9&#45;&gt;Node5</title>
<g id="a_edge10_Node000009_Node000005"><a xlink:title=" ">
<path fill="none" stroke="#63b8ff" d="M236.19,-140.64C254.87,-154.75 284.53,-175.5 313,-188.5 319.3,-191.38 326.17,-193.9 332.99,-196.08"/>
<polygon fill="#63b8ff" stroke="#63b8ff" points="332.28,-199.52 342.86,-199.01 334.27,-192.81 332.28,-199.52"/>
</a>
</g>
</g>
<!-- Node9&#45;&gt;Node7 -->
<g id="edge13_Node000009_Node000007" class="edge">
<title>Node9&#45;&gt;Node7</title>
<g id="a_edge13_Node000009_Node000007"><a xlink:title=" ">
<path fill="none" stroke="#63b8ff" d="M271.44,-140.52C296.42,-147.41 325.08,-155.32 346.16,-161.13"/>
<polygon fill="#63b8ff" stroke="#63b8ff" points="345.27,-164.52 355.84,-163.8 347.13,-157.77 345.27,-164.52"/>
</a>
</g>
</g>
<!-- Node10 -->
<g id="Node000010" class="node">
<title>Node10</title>
<g id="a_Node000010"><a xlink:href="sparse-endian_8h.html#a4460d76503583c1209bc0e78a5ccaefb" target="_top" xlink:title=" ">
<polygon fill="white" stroke="#666666" points="405.5,-93 349.5,-93 349.5,-74 405.5,-74 405.5,-93"/>
<text text-anchor="middle" x="377.5" y="-81" font-family="Helvetica,sans-Serif" font-size="10.00">be16toh</text>
</a>
</g>
</g>
<!-- Node9&#45;&gt;Node10 -->
<g id="edge9_Node000009_Node000010" class="edge">
<title>Node9&#45;&gt;Node10</title>
<g id="a_edge9_Node000009_Node000010"><a xlink:title=" ">
<path fill="none" stroke="#63b8ff" d="M274.13,-110.46C295.9,-104.72 320.12,-98.34 339.54,-93.23"/>
<polygon fill="#63b8ff" stroke="#63b8ff" points="340.44,-96.62 349.22,-90.68 338.65,-89.85 340.44,-96.62"/>
</a>
</g>
</g>
<!-- Node11 -->
<g id="Node000011" class="node">
<title>Node11</title>
<g id="a_Node000011"><a xlink:href="sparse-endian_8h.html#afeadfffc79afb9d2c017f0921b187204" target="_top" xlink:title=" ">
<polygon fill="white" stroke="#666666" points="405.5,-56 349.5,-56 349.5,-37 405.5,-37 405.5,-56"/>
<text text-anchor="middle" x="377.5" y="-44" font-family="Helvetica,sans-Serif" font-size="10.00">htobe16</text>
</a>
</g>
</g>
<!-- Node9&#45;&gt;Node11 -->
<g id="edge11_Node000009_Node000011" class="edge">
<title>Node9&#45;&gt;Node11</title>
<g id="a_edge11_Node000009_Node000011"><a xlink:title=" ">
<path fill="none" stroke="#63b8ff" d="M261.03,-110.4C266.59,-107.77 272.06,-104.81 277,-101.5 296.07,-88.74 293.29,-76.25 313,-64.5 321.01,-59.72 330.34,-56.17 339.35,-53.53"/>
<polygon fill="#63b8ff" stroke="#63b8ff" points="340.5,-56.85 349.29,-50.94 338.73,-50.08 340.5,-56.85"/>
</a>
</g>
</g>
<!-- Node12 -->
<g id="Node000012" class="node">
<title>Node12</title>
<g id="a_Node000012"><a xlink:href="sparse-endian_8h.html#ac8b20920f10befb0494722160b034a85" target="_top" xlink:title=" ">
<polygon fill="white" stroke="#666666" points="405.5,-19 349.5,-19 349.5,0 405.5,0 405.5,-19"/>
<text text-anchor="middle" x="377.5" y="-7" font-family="Helvetica,sans-Serif" font-size="10.00">htobe32</text>
</a>
</g>
</g>
<!-- Node9&#45;&gt;Node12 -->
<g id="edge12_Node000009_Node000012" class="edge">
<title>Node9&#45;&gt;Node12</title>
<g id="a_edge12_Node000009_Node000012"><a xlink:title=" ">
<path fill="none" stroke="#63b8ff" d="M264.56,-110.47C269.05,-107.91 273.3,-104.94 277,-101.5 303.78,-76.59 284.96,-50.98 313,-27.5 320.48,-21.23 330.02,-17.14 339.41,-14.48"/>
<polygon fill="#63b8ff" stroke="#63b8ff" points="340.52,-17.81 349.44,-12.11 338.9,-11 340.52,-17.81"/>
</a>
</g>
</g>
<!-- Node13 -->
<g id="Node000013" class="node">
<title>Node13</title>
<g id="a_Node000013"><a xlink:href="classSITL_1_1SerialDevice.html#ad6d128b5cc6ee8afcd7b1568d8e2fac3" target="_top" xlink:title=" ">
<polygon fill="white" stroke="#666666" points="433,-141.5 322,-141.5 322,-111.5 433,-111.5 433,-141.5"/>
<text text-anchor="start" x="330" y="-129.5" font-family="Helvetica,sans-Serif" font-size="10.00">SITL::SerialDevice</text>
<text text-anchor="middle" x="377.5" y="-118.5" font-family="Helvetica,sans-Serif" font-size="10.00">::write_to_autopilot</text>
</a>
</g>
</g>
<!-- Node9&#45;&gt;Node13 -->
<g id="edge14_Node000009_Node000013" class="edge">
<title>Node9&#45;&gt;Node13</title>
<g id="a_edge14_Node000009_Node000013"><a xlink:title=" ">
<path fill="none" stroke="#63b8ff" d="M275.94,-125.87C287.54,-125.94 299.77,-126.02 311.55,-126.09"/>
<polygon fill="#63b8ff" stroke="#63b8ff" points="311.75,-129.59 321.77,-126.16 311.79,-122.59 311.75,-129.59"/>
</a>
</g>
</g>
</g>
</svg>
