<?xml version="1.0" encoding="UTF-8" standalone="no"?>
<!DOCTYPE svg PUBLIC "-//W3C//DTD SVG 1.1//EN"
 "http://www.w3.org/Graphics/SVG/1.1/DTD/svg11.dtd">
<!-- Generated by graphviz version 2.43.0 (0)
 -->
<!-- Title: AP_Declination::get_earth_field_ga Pages: 1 -->
<svg width="527pt" height="76pt"
 viewBox="0.00 0.00 527.00 75.50" xmlns="http://www.w3.org/2000/svg" xmlns:xlink="http://www.w3.org/1999/xlink">
<g id="graph0" class="graph" transform="scale(1 1) rotate(0) translate(4 71.5)">
<title>AP_Declination::get_earth_field_ga</title>
<!-- Node1 -->
<g id="Node000001" class="node">
<title>Node1</title>
<g id="a_Node000001"><a xlink:title=" ">
<polygon fill="#999999" stroke="#666666" points="112,-51 0,-51 0,-21 112,-21 112,-51"/>
<text text-anchor="start" x="8" y="-39" font-family="Helvetica,sans-Serif" font-size="10.00">AP_Declination::get</text>
<text text-anchor="middle" x="56" y="-28" font-family="Helvetica,sans-Serif" font-size="10.00">_earth_field_ga</text>
</a>
</g>
</g>
<!-- Node2 -->
<g id="Node000002" class="node">
<title>Node2</title>
<g id="a_Node000002"><a xlink:href="classMatrix3.html#ace756290a0d39528992ead334c038de2" target="_top" xlink:title=" ">
<polygon fill="white" stroke="#666666" points="261,-67.5 148,-67.5 148,-48.5 261,-48.5 261,-67.5"/>
<text text-anchor="middle" x="204.5" y="-55.5" font-family="Helvetica,sans-Serif" font-size="10.00">Matrix3::from_euler</text>
</a>
</g>
</g>
<!-- Node1&#45;&gt;Node2 -->
<g id="edge1_Node000001_Node000002" class="edge">
<title>Node1&#45;&gt;Node2</title>
<g id="a_edge1_Node000001_Node000002"><a xlink:title=" ">
<path fill="none" stroke="#63b8ff" d="M112.39,-44.32C120.57,-45.55 129.06,-46.82 137.43,-48.08"/>
<polygon fill="#63b8ff" stroke="#63b8ff" points="137.14,-51.57 147.55,-49.6 138.18,-44.65 137.14,-51.57"/>
</a>
</g>
</g>
<!-- Node3 -->
<g id="Node000003" class="node">
<title>Node3</title>
<g id="a_Node000003"><a xlink:href="classAP__Declination.html#ae44aad89279ed8436901a2533353bbea" target="_top" xlink:title=" ">
<polygon fill="white" stroke="#666666" points="260.5,-30 148.5,-30 148.5,0 260.5,0 260.5,-30"/>
<text text-anchor="start" x="156.5" y="-18" font-family="Helvetica,sans-Serif" font-size="10.00">AP_Declination::get</text>
<text text-anchor="middle" x="204.5" y="-7" font-family="Helvetica,sans-Serif" font-size="10.00">_mag_field_ef</text>
</a>
</g>
</g>
<!-- Node1&#45;&gt;Node3 -->
<g id="edge2_Node000001_Node000003" class="edge">
<title>Node1&#45;&gt;Node3</title>
<g id="a_edge2_Node000001_Node000003"><a xlink:title=" ">
<path fill="none" stroke="#63b8ff" d="M112.39,-28.06C120.77,-26.86 129.49,-25.61 138.07,-24.38"/>
<polygon fill="#63b8ff" stroke="#63b8ff" points="138.63,-27.83 148.04,-22.95 137.64,-20.9 138.63,-27.83"/>
</a>
</g>
</g>
<!-- Node4 -->
<g id="Node000004" class="node">
<title>Node4</title>
<g id="a_Node000004"><a xlink:href="AP__Math_8h.html#a40141a958e445f6293a659e856c49f55" target="_top" xlink:title=" ">
<polygon fill="white" stroke="#666666" points="389,-24.5 297,-24.5 297,-5.5 389,-5.5 389,-24.5"/>
<text text-anchor="middle" x="343" y="-12.5" font-family="Helvetica,sans-Serif" font-size="10.00">constrain_int32</text>
</a>
</g>
</g>
<!-- Node3&#45;&gt;Node4 -->
<g id="edge3_Node000003_Node000004" class="edge">
<title>Node3&#45;&gt;Node4</title>
<g id="a_edge3_Node000003_Node000004"><a xlink:title=" ">
<path fill="none" stroke="#63b8ff" d="M260.63,-15C269.15,-15 277.95,-15 286.48,-15"/>
<polygon fill="#63b8ff" stroke="#63b8ff" points="286.71,-18.5 296.71,-15 286.71,-11.5 286.71,-18.5"/>
</a>
</g>
</g>
<!-- Node5 -->
<g id="Node000005" class="node">
<title>Node5</title>
<g id="a_Node000005"><a xlink:href="AP__Math_8cpp.html#a20e8f8671c282c69c1954652b6d61585" target="_top" xlink:title=" ">
<polygon fill="white" stroke="#666666" points="519,-24.5 425,-24.5 425,-5.5 519,-5.5 519,-24.5"/>
<text text-anchor="middle" x="472" y="-12.5" font-family="Helvetica,sans-Serif" font-size="10.00">constrain_value</text>
</a>
</g>
</g>
<!-- Node4&#45;&gt;Node5 -->
<g id="edge4_Node000004_Node000005" class="edge">
<title>Node4&#45;&gt;Node5</title>
<g id="a_edge4_Node000004_Node000005"><a xlink:title=" ">
<path fill="none" stroke="#63b8ff" d="M389.13,-15C397.34,-15 406,-15 414.49,-15"/>
<polygon fill="#63b8ff" stroke="#63b8ff" points="414.73,-18.5 424.73,-15 414.73,-11.5 414.73,-18.5"/>
</a>
</g>
</g>
</g>
</svg>
