<?xml version="1.0" encoding="UTF-8" standalone="no"?>
<!DOCTYPE svg PUBLIC "-//W3C//DTD SVG 1.1//EN"
 "http://www.w3.org/Graphics/SVG/1.1/DTD/svg11.dtd">
<!-- Generated by graphviz version 2.43.0 (0)
 -->
<!-- Title: MissionTest::run_set_current_cmd_test Pages: 1 -->
<svg width="788pt" height="262pt"
 viewBox="0.00 0.00 788.00 262.00" xmlns="http://www.w3.org/2000/svg" xmlns:xlink="http://www.w3.org/1999/xlink">
<g id="graph0" class="graph" transform="scale(1 1) rotate(0) translate(4 258)">
<title>MissionTest::run_set_current_cmd_test</title>
<!-- Node1 -->
<g id="Node000001" class="node">
<title>Node1</title>
<g id="a_Node000001"><a xlink:title=" ">
<polygon fill="#999999" stroke="#666666" points="116,-117.5 0,-117.5 0,-87.5 116,-87.5 116,-117.5"/>
<text text-anchor="start" x="8" y="-105.5" font-family="Helvetica,sans-Serif" font-size="10.00">MissionTest::run_set</text>
<text text-anchor="middle" x="58" y="-94.5" font-family="Helvetica,sans-Serif" font-size="10.00">_current_cmd_test</text>
</a>
</g>
</g>
<!-- Node2 -->
<g id="Node000002" class="node">
<title>Node2</title>
<g id="a_Node000002"><a xlink:href="classAP__Mission.html#ac4c73bdc284bb26ca56cd8253d6c3cdd" target="_top" xlink:title=" ">
<polygon fill="white" stroke="#666666" points="292.5,-217 170.5,-217 170.5,-198 292.5,-198 292.5,-217"/>
<text text-anchor="middle" x="231.5" y="-205" font-family="Helvetica,sans-Serif" font-size="10.00">AP_Mission::add_cmd</text>
</a>
</g>
</g>
<!-- Node1&#45;&gt;Node2 -->
<g id="edge1_Node000001_Node000002" class="edge">
<title>Node1&#45;&gt;Node2</title>
<g id="a_edge1_Node000001_Node000002"><a xlink:title=" ">
<path fill="none" stroke="#63b8ff" d="M71.13,-117.76C87.43,-137.19 118.27,-170.43 152,-188.5 156.26,-190.78 160.79,-192.79 165.44,-194.56"/>
<polygon fill="#63b8ff" stroke="#63b8ff" points="164.53,-197.95 175.13,-197.88 166.8,-191.33 164.53,-197.95"/>
</a>
</g>
</g>
<!-- Node3 -->
<g id="Node000003" class="node">
<title>Node3</title>
<g id="a_Node000003"><a xlink:href="classMissionTest.html#ab12c92170021b44ceb82f6808b92d8c7" target="_top" xlink:title=" ">
<polygon fill="white" stroke="#666666" points="282.5,-179.5 180.5,-179.5 180.5,-149.5 282.5,-149.5 282.5,-179.5"/>
<text text-anchor="start" x="188.5" y="-167.5" font-family="Helvetica,sans-Serif" font-size="10.00">MissionTest::print</text>
<text text-anchor="middle" x="231.5" y="-156.5" font-family="Helvetica,sans-Serif" font-size="10.00">_mission</text>
</a>
</g>
</g>
<!-- Node1&#45;&gt;Node3 -->
<g id="edge2_Node000001_Node000003" class="edge">
<title>Node1&#45;&gt;Node3</title>
<g id="a_edge2_Node000001_Node000003"><a xlink:title=" ">
<path fill="none" stroke="#63b8ff" d="M100.52,-117.51C124.14,-126.05 153.94,-136.82 179.05,-145.9"/>
<polygon fill="#63b8ff" stroke="#63b8ff" points="178.18,-149.31 188.77,-149.41 180.56,-142.72 178.18,-149.31"/>
</a>
</g>
</g>
<!-- Node6 -->
<g id="Node000006" class="node">
<title>Node6</title>
<g id="a_Node000006"><a xlink:href="classAP__HAL_1_1BetterStream.html#a8534aa004599bb81ad60f3e762791032" target="_top" xlink:title=" ">
<polygon fill="white" stroke="#666666" points="489,-131.5 364,-131.5 364,-101.5 489,-101.5 489,-131.5"/>
<text text-anchor="start" x="372" y="-119.5" font-family="Helvetica,sans-Serif" font-size="10.00">AP_HAL::BetterStream</text>
<text text-anchor="middle" x="426.5" y="-108.5" font-family="Helvetica,sans-Serif" font-size="10.00">::printf</text>
</a>
</g>
</g>
<!-- Node1&#45;&gt;Node6 -->
<g id="edge9_Node000001_Node000006" class="edge">
<title>Node1&#45;&gt;Node6</title>
<g id="a_edge9_Node000001_Node000006"><a xlink:title=" ">
<path fill="none" stroke="#63b8ff" d="M116.27,-104.69C180.22,-107.13 283.87,-111.09 353.33,-113.74"/>
<polygon fill="#63b8ff" stroke="#63b8ff" points="353.62,-117.26 363.74,-114.14 353.88,-110.26 353.62,-117.26"/>
</a>
</g>
</g>
<!-- Node10 -->
<g id="Node000010" class="node">
<title>Node10</title>
<g id="a_Node000010"><a xlink:href="classAP__Mission.html#ac79a188f81816b3ddfe045b6a0feb6d1" target="_top" xlink:title=" ">
<polygon fill="white" stroke="#666666" points="311,-93 152,-93 152,-74 311,-74 311,-93"/>
<text text-anchor="middle" x="231.5" y="-81" font-family="Helvetica,sans-Serif" font-size="10.00">AP_Mission::set_current_cmd</text>
</a>
</g>
</g>
<!-- Node1&#45;&gt;Node10 -->
<g id="edge10_Node000001_Node000010" class="edge">
<title>Node1&#45;&gt;Node10</title>
<g id="a_edge10_Node000001_Node000010"><a xlink:title=" ">
<path fill="none" stroke="#63b8ff" d="M116.11,-96.17C124.37,-95.26 133.04,-94.3 141.74,-93.33"/>
<polygon fill="#63b8ff" stroke="#63b8ff" points="142.41,-96.78 151.96,-92.2 141.64,-89.82 142.41,-96.78"/>
</a>
</g>
</g>
<!-- Node11 -->
<g id="Node000011" class="node">
<title>Node11</title>
<g id="a_Node000011"><a xlink:href="classAP__Mission.html#a3b4234e58e34ed5c83d8c6b9ce2718c9" target="_top" xlink:title=" ">
<polygon fill="white" stroke="#666666" points="282,-56 181,-56 181,-37 282,-37 282,-56"/>
<text text-anchor="middle" x="231.5" y="-44" font-family="Helvetica,sans-Serif" font-size="10.00">AP_Mission::start</text>
</a>
</g>
</g>
<!-- Node1&#45;&gt;Node11 -->
<g id="edge11_Node000001_Node000011" class="edge">
<title>Node1&#45;&gt;Node11</title>
<g id="a_edge11_Node000001_Node000011"><a xlink:title=" ">
<path fill="none" stroke="#63b8ff" d="M92.09,-87.44C109.64,-79.85 131.71,-70.92 152,-64.5 158.87,-62.32 166.16,-60.29 173.42,-58.44"/>
<polygon fill="#63b8ff" stroke="#63b8ff" points="174.38,-61.81 183.26,-56.02 172.71,-55.01 174.38,-61.81"/>
</a>
</g>
</g>
<!-- Node12 -->
<g id="Node000012" class="node">
<title>Node12</title>
<g id="a_Node000012"><a xlink:href="classAP__Mission.html#ad27b4531fa652b277bd9300b60ca4493" target="_top" xlink:title=" ">
<polygon fill="white" stroke="#666666" points="287.5,-19 175.5,-19 175.5,0 287.5,0 287.5,-19"/>
<text text-anchor="middle" x="231.5" y="-7" font-family="Helvetica,sans-Serif" font-size="10.00">AP_Mission::update</text>
</a>
</g>
</g>
<!-- Node1&#45;&gt;Node12 -->
<g id="edge12_Node000001_Node000012" class="edge">
<title>Node1&#45;&gt;Node12</title>
<g id="a_edge12_Node000001_Node000012"><a xlink:title=" ">
<path fill="none" stroke="#63b8ff" d="M73.3,-87.4C90.4,-70.26 120.65,-42.72 152,-27.5 156.33,-25.4 160.92,-23.53 165.61,-21.88"/>
<polygon fill="#63b8ff" stroke="#63b8ff" points="166.88,-25.15 175.35,-18.79 164.76,-18.48 166.88,-25.15"/>
</a>
</g>
</g>
<!-- Node4 -->
<g id="Node000004" class="node">
<title>Node4</title>
<g id="a_Node000004"><a xlink:href="classAP__Mission.html#a13287c51ef925f52060edfa0cff4f982" target="_top" xlink:title="is_nav_cmd &#45; returns true if the command&#39;s id is a &quot;navigation&quot; command, false if &quot;do&quot; or &quot;conditiona...">
<polygon fill="white" stroke="#666666" points="494.5,-254 358.5,-254 358.5,-235 494.5,-235 494.5,-254"/>
<text text-anchor="middle" x="426.5" y="-242" font-family="Helvetica,sans-Serif" font-size="10.00">AP_Mission::is_nav_cmd</text>
</a>
</g>
</g>
<!-- Node3&#45;&gt;Node4 -->
<g id="edge3_Node000003_Node000004" class="edge">
<title>Node3&#45;&gt;Node4</title>
<g id="a_edge3_Node000003_Node000004"><a xlink:title=" ">
<path fill="none" stroke="#63b8ff" d="M282.7,-176.43C292.48,-179.86 302.36,-184.16 311,-189.5 330.52,-201.56 327,-215.25 347,-226.5 350.24,-228.32 353.65,-229.96 357.16,-231.43"/>
<polygon fill="#63b8ff" stroke="#63b8ff" points="356.06,-234.75 366.65,-234.95 358.49,-228.19 356.06,-234.75"/>
</a>
</g>
</g>
<!-- Node5 -->
<g id="Node000005" class="node">
<title>Node5</title>
<g id="a_Node000005"><a xlink:href="classAP__Mission.html#af26b7935304c34d8c03881b02beb3f48" target="_top" xlink:title=" ">
<polygon fill="white" stroke="#666666" points="506,-217 347,-217 347,-198 506,-198 506,-217"/>
<text text-anchor="middle" x="426.5" y="-205" font-family="Helvetica,sans-Serif" font-size="10.00">AP_Mission::num_commands</text>
</a>
</g>
</g>
<!-- Node3&#45;&gt;Node5 -->
<g id="edge4_Node000003_Node000005" class="edge">
<title>Node3&#45;&gt;Node5</title>
<g id="a_edge4_Node000003_Node000005"><a xlink:title=" ">
<path fill="none" stroke="#63b8ff" d="M282.7,-175.69C310.36,-181.85 344.66,-189.49 372.71,-195.74"/>
<polygon fill="#63b8ff" stroke="#63b8ff" points="372.22,-199.21 382.74,-197.97 373.74,-192.38 372.22,-199.21"/>
</a>
</g>
</g>
<!-- Node3&#45;&gt;Node6 -->
<g id="edge5_Node000003_Node000006" class="edge">
<title>Node3&#45;&gt;Node6</title>
<g id="a_edge5_Node000003_Node000006"><a xlink:title=" ">
<path fill="none" stroke="#63b8ff" d="M282.7,-152.01C304.79,-146.52 331.12,-139.97 355.12,-134"/>
<polygon fill="#63b8ff" stroke="#63b8ff" points="356.03,-137.39 364.89,-131.58 354.34,-130.59 356.03,-137.39"/>
</a>
</g>
</g>
<!-- Node9 -->
<g id="Node000009" class="node">
<title>Node9</title>
<g id="a_Node000009"><a xlink:href="classAP__Mission.html#aac82471fe961e31cd0fba02ba7783aba" target="_top" xlink:title=" ">
<polygon fill="white" stroke="#666666" points="489.5,-179.5 363.5,-179.5 363.5,-149.5 489.5,-149.5 489.5,-179.5"/>
<text text-anchor="start" x="371.5" y="-167.5" font-family="Helvetica,sans-Serif" font-size="10.00">AP_Mission::read_cmd</text>
<text text-anchor="middle" x="426.5" y="-156.5" font-family="Helvetica,sans-Serif" font-size="10.00">_from_storage</text>
</a>
</g>
</g>
<!-- Node3&#45;&gt;Node9 -->
<g id="edge8_Node000003_Node000009" class="edge">
<title>Node3&#45;&gt;Node9</title>
<g id="a_edge8_Node000003_Node000009"><a xlink:title=" ">
<path fill="none" stroke="#63b8ff" d="M282.7,-164.5C304.21,-164.5 329.73,-164.5 353.2,-164.5"/>
<polygon fill="#63b8ff" stroke="#63b8ff" points="353.47,-168 363.47,-164.5 353.47,-161 353.47,-168"/>
</a>
</g>
</g>
<!-- Node7 -->
<g id="Node000007" class="node">
<title>Node7</title>
<g id="a_Node000007"><a xlink:href="classAP__HAL_1_1BetterStream.html#aa730be451d385d7ba03ee9677e6d91a2" target="_top" xlink:title=" ">
<polygon fill="white" stroke="#666666" points="667,-131.5 542,-131.5 542,-101.5 667,-101.5 667,-131.5"/>
<text text-anchor="start" x="550" y="-119.5" font-family="Helvetica,sans-Serif" font-size="10.00">AP_HAL::BetterStream</text>
<text text-anchor="middle" x="604.5" y="-108.5" font-family="Helvetica,sans-Serif" font-size="10.00">::vprintf</text>
</a>
</g>
</g>
<!-- Node6&#45;&gt;Node7 -->
<g id="edge6_Node000006_Node000007" class="edge">
<title>Node6&#45;&gt;Node7</title>
<g id="a_edge6_Node000006_Node000007"><a xlink:title=" ">
<path fill="none" stroke="#63b8ff" d="M489.06,-116.5C502.86,-116.5 517.61,-116.5 531.78,-116.5"/>
<polygon fill="#63b8ff" stroke="#63b8ff" points="531.98,-120 541.98,-116.5 531.98,-113 531.98,-120"/>
</a>
</g>
</g>
<!-- Node8 -->
<g id="Node000008" class="node">
<title>Node8</title>
<g id="a_Node000008"><a xlink:href="test__expandingstring__failure_8cpp.html#a98e0d5bb436a207f576379beaa786040" target="_top" xlink:title=" ">
<polygon fill="white" stroke="#666666" points="780,-126 703,-126 703,-107 780,-107 780,-126"/>
<text text-anchor="middle" x="741.5" y="-114" font-family="Helvetica,sans-Serif" font-size="10.00">print_vprintf</text>
</a>
</g>
</g>
<!-- Node7&#45;&gt;Node8 -->
<g id="edge7_Node000007_Node000008" class="edge">
<title>Node7&#45;&gt;Node8</title>
<g id="a_edge7_Node000007_Node000008"><a xlink:title=" ">
<path fill="none" stroke="#63b8ff" d="M667.07,-116.5C675.68,-116.5 684.41,-116.5 692.71,-116.5"/>
<polygon fill="#63b8ff" stroke="#63b8ff" points="692.95,-120 702.95,-116.5 692.95,-113 692.95,-120"/>
</a>
</g>
</g>
</g>
</svg>
