<?xml version="1.0" encoding="UTF-8" standalone="no"?>
<!DOCTYPE svg PUBLIC "-//W3C//DTD SVG 1.1//EN"
 "http://www.w3.org/Graphics/SVG/1.1/DTD/svg11.dtd">
<!-- Generated by graphviz version 2.43.0 (0)
 -->
<!-- Title: AC_PosControl::set_max_speed_accel_z Pages: 1 -->
<!--zoomable 207 -->

<svg id="main" version="1.1" xmlns="http://www.w3.org/2000/svg" xmlns:xlink="http://www.w3.org/1999/xlink" xml:space="preserve" onload="init(evt)">
<style type="text/css"><![CDATA[
.node, .edge {opacity: 0.7;}
.node.selected, .edge.selected {opacity: 1;}
.edge:hover path { stroke: red; }
.edge:hover polygon { stroke: red; fill: red; }
]]></style>

<defs>
  <circle id="rim" cx="0" cy="0" r="7"/>
  <circle id="rim2" cx="0" cy="0" r="3.5"/>
  <g id="zoomPlus">
    <use xlink:href="#rim" fill="#404040"><set attributeName="fill" to="#808080" begin="zoomplus.mouseover" end="zoomplus.mouseout"/></use>
    <path d="M-4,0h8M0,-4v8" fill="none" stroke="white" stroke-width="1.5" pointer-events="none"/>
  </g>
  <g id="zoomMin">
    <use xlink:href="#rim" fill="#404040"><set attributeName="fill" to="#808080" begin="zoomminus.mouseover" end="zoomminus.mouseout"/></use>
    <path d="M-4,0h8" fill="none" stroke="white" stroke-width="1.5" pointer-events="none"/>
  </g>
  <g id="arrowUp" transform="translate(30 24)">
    <use xlink:href="#rim"/>
    <path pointer-events="none" fill="none" stroke="white" stroke-width="1.5" d="M0,-3.0v7 M-2.5,-0.5L0,-3.0L2.5,-0.5"/>
  </g>
  <g id="arrowRight" transform="rotate(90) translate(36 -43)">
    <use xlink:href="#rim"/>
    <path pointer-events="none" fill="none" stroke="white" stroke-width="1.5" d="M0,-3.0v7 M-2.5,-0.5L0,-3.0L2.5,-0.5"/>
  </g>
  <g id="arrowDown" transform="rotate(180) translate(-30 -48)">
    <use xlink:href="#rim"/>
    <path pointer-events="none" fill="none" stroke="white" stroke-width="1.5" d="M0,-3.0v7 M-2.5,-0.5L0,-3.0L2.5,-0.5"/>
  </g>
  <g id="arrowLeft" transform="rotate(270) translate(-36 17)">
    <use xlink:href="#rim"/>
    <path pointer-events="none" fill="none" stroke="white" stroke-width="1.5" d="M0,-3.0v7 M-2.5,-0.5L0,-3.0L2.5,-0.5"/>
  </g>
  <g id="resetDef">
    <use xlink:href="#rim2" fill="#404040"><set attributeName="fill" to="#808080" begin="reset.mouseover" end="reset.mouseout"/></use>
  </g>
</defs>
<script type="application/ecmascript">
var viewWidth = 937;
var viewHeight = 207;
var sectionId = 'dynsection-108';
</script>
<script type="application/ecmascript" xlink:href="svg.min.js"/>
<svg id="graph" class="graph">
<g id="viewport">
<title>AC_PosControl::set_max_speed_accel_z</title>
<!-- Node1 -->
<g id="Node000001" class="node">
<title>Node1</title>
<g id="a_Node000001"><a xlink:title=" ">
<polygon fill="#999999" stroke="#666666" points="929,-167.5 810,-167.5 810,-137.5 929,-137.5 929,-167.5"/>
<text text-anchor="start" x="818" y="-155.5" font-family="Helvetica,sans-Serif" font-size="10.00">AC_PosControl::set</text>
<text text-anchor="middle" x="869.5" y="-144.5" font-family="Helvetica,sans-Serif" font-size="10.00">_max_speed_accel_z</text>
</a>
</g>
</g>
<!-- Node2 -->
<g id="Node000002" class="node">
<title>Node2</title>
<g id="a_Node000002"><a xlink:href="classAC__WPNav.html#a445bba570c26e83dd13a12d6621d94d5" target="_top" xlink:title="set current target descent rate during wp navigation">
<polygon fill="white" stroke="#666666" points="768,-199 611,-199 611,-180 768,-180 768,-199"/>
<text text-anchor="middle" x="689.5" y="-187" font-family="Helvetica,sans-Serif" font-size="10.00">AC_WPNav::set_speed_down</text>
</a>
</g>
</g>
<!-- Node1&#45;&gt;Node2 -->
<g id="edge1_Node000001_Node000002" class="edge">
<title>Node1&#45;&gt;Node2</title>
<g id="a_edge1_Node000001_Node000002"><a xlink:title=" ">
<path fill="none" stroke="#63b8ff" d="M799.76,-166.79C778.48,-171.21 755.57,-175.97 736.25,-179.99"/>
<polygon fill="#63b8ff" stroke="#63b8ff" points="800.64,-170.18 809.72,-164.72 799.22,-163.33 800.64,-170.18"/>
</a>
</g>
</g>
<!-- Node5 -->
<g id="Node000005" class="node">
<title>Node5</title>
<g id="a_Node000005"><a xlink:href="classAC__WPNav.html#ab46ed218833b1e09930b676556d5b7ee" target="_top" xlink:title="set current target climb or descent rate during wp navigation">
<polygon fill="white" stroke="#666666" points="761,-162 618,-162 618,-143 761,-143 761,-162"/>
<text text-anchor="middle" x="689.5" y="-150" font-family="Helvetica,sans-Serif" font-size="10.00">AC_WPNav::set_speed_up</text>
</a>
</g>
</g>
<!-- Node1&#45;&gt;Node5 -->
<g id="edge4_Node000001_Node000005" class="edge">
<title>Node1&#45;&gt;Node5</title>
<g id="a_edge4_Node000001_Node000005"><a xlink:title=" ">
<path fill="none" stroke="#63b8ff" d="M799.38,-152.5C786.88,-152.5 773.84,-152.5 761.29,-152.5"/>
<polygon fill="#63b8ff" stroke="#63b8ff" points="799.72,-156 809.72,-152.5 799.72,-149 799.72,-156"/>
</a>
</g>
</g>
<!-- Node6 -->
<g id="Node000006" class="node">
<title>Node6</title>
<g id="a_Node000006"><a xlink:href="classAC__WPNav.html#afa1d354f3c8b545c3592505d680d2b01" target="_top" xlink:title=" ">
<polygon fill="white" stroke="#666666" points="774,-125 605,-125 605,-106 774,-106 774,-125"/>
<text text-anchor="middle" x="689.5" y="-113" font-family="Helvetica,sans-Serif" font-size="10.00">AC_WPNav::wp_and_spline_init</text>
</a>
</g>
</g>
<!-- Node1&#45;&gt;Node6 -->
<g id="edge6_Node000001_Node000006" class="edge">
<title>Node1&#45;&gt;Node6</title>
<g id="a_edge6_Node000001_Node000006"><a xlink:title=" ">
<path fill="none" stroke="#63b8ff" d="M799.76,-138.21C778.48,-133.79 755.57,-129.03 736.25,-125.01"/>
<polygon fill="#63b8ff" stroke="#63b8ff" points="799.22,-141.67 809.72,-140.28 800.64,-134.82 799.22,-141.67"/>
</a>
</g>
</g>
<!-- Node3 -->
<g id="Node000003" class="node">
<title>Node3</title>
<g id="a_Node000003"><a xlink:href="classAC__WPNav.html#a7dc4785fbce8364d7eb3d8e2d0c1b987" target="_top" xlink:title="update_wpnav &#45; run the wp controller &#45; should be called at 100hz or higher">
<polygon fill="white" stroke="#666666" points="557.5,-190 410.5,-190 410.5,-171 557.5,-171 557.5,-190"/>
<text text-anchor="middle" x="484" y="-178" font-family="Helvetica,sans-Serif" font-size="10.00">AC_WPNav::update_wpnav</text>
</a>
</g>
</g>
<!-- Node2&#45;&gt;Node3 -->
<g id="edge2_Node000002_Node000003" class="edge">
<title>Node2&#45;&gt;Node3</title>
<g id="a_edge2_Node000002_Node000003"><a xlink:title=" ">
<path fill="none" stroke="#63b8ff" d="M600.62,-185.61C586.27,-184.98 571.54,-184.33 557.61,-183.71"/>
<polygon fill="#63b8ff" stroke="#63b8ff" points="600.84,-189.13 610.98,-186.07 601.15,-182.13 600.84,-189.13"/>
</a>
</g>
</g>
<!-- Node4 -->
<g id="Node000004" class="node">
<title>Node4</title>
<g id="a_Node000004"><a xlink:href="classAC__WPNav__OA.html#accf19b87aa0f2ce811241039bbf8a8b4" target="_top" xlink:title="run the wp controller">
<polygon fill="white" stroke="#666666" points="130,-104.5 0,-104.5 0,-74.5 130,-74.5 130,-104.5"/>
<text text-anchor="start" x="8" y="-92.5" font-family="Helvetica,sans-Serif" font-size="10.00">AC_WPNav_OA::update</text>
<text text-anchor="middle" x="65" y="-81.5" font-family="Helvetica,sans-Serif" font-size="10.00">_wpnav</text>
</a>
</g>
</g>
<!-- Node3&#45;&gt;Node4 -->
<g id="edge3_Node000003_Node000004" class="edge">
<title>Node3&#45;&gt;Node4</title>
<g id="a_edge3_Node000003_Node000004"><a xlink:title=" ">
<path fill="none" stroke="#63b8ff" d="M399.96,-187.93C334.5,-190.88 241.93,-188.52 166,-161.5 131.94,-149.38 99.27,-121.88 81,-104.59"/>
<polygon fill="#63b8ff" stroke="#63b8ff" points="400.41,-191.41 410.22,-187.41 400.06,-184.42 400.41,-191.41"/>
</a>
</g>
</g>
<!-- Node5&#45;&gt;Node3 -->
<g id="edge5_Node000005_Node000003" class="edge">
<title>Node5&#45;&gt;Node3</title>
<g id="a_edge5_Node000005_Node000003"><a xlink:title=" ">
<path fill="none" stroke="#63b8ff" d="M609.35,-163.39C591.2,-165.89 572.04,-168.52 554.33,-170.96"/>
<polygon fill="#63b8ff" stroke="#63b8ff" points="609.89,-166.85 619.32,-162.02 608.94,-159.91 609.89,-166.85"/>
</a>
</g>
</g>
<!-- Node7 -->
<g id="Node000007" class="node">
<title>Node7</title>
<g id="a_Node000007"><a xlink:href="classAC__WPNav.html#a1bcabf69173d99eb009ac487b45da5fe" target="_top" xlink:title=" ">
<polygon fill="white" stroke="#666666" points="546.5,-139.5 421.5,-139.5 421.5,-109.5 546.5,-109.5 546.5,-139.5"/>
<text text-anchor="start" x="429.5" y="-127.5" font-family="Helvetica,sans-Serif" font-size="10.00">AC_WPNav::set_spline</text>
<text text-anchor="middle" x="484" y="-116.5" font-family="Helvetica,sans-Serif" font-size="10.00">_destination</text>
</a>
</g>
</g>
<!-- Node6&#45;&gt;Node7 -->
<g id="edge7_Node000006_Node000007" class="edge">
<title>Node6&#45;&gt;Node7</title>
<g id="a_edge7_Node000006_Node000007"><a xlink:title=" ">
<path fill="none" stroke="#63b8ff" d="M594.72,-119.65C578.37,-120.37 561.75,-121.11 546.55,-121.78"/>
<polygon fill="#63b8ff" stroke="#63b8ff" points="595.01,-123.14 604.85,-119.2 594.7,-116.14 595.01,-123.14"/>
</a>
</g>
</g>
<!-- Node9 -->
<g id="Node000009" class="node">
<title>Node9</title>
<g id="a_Node000009"><a xlink:href="classAC__WPNav.html#a38519fcac3a24cf64ec7c37e90fc3e13" target="_top" xlink:title=" ">
<polygon fill="white" stroke="#666666" points="569,-78 399,-78 399,-59 569,-59 569,-78"/>
<text text-anchor="middle" x="484" y="-66" font-family="Helvetica,sans-Serif" font-size="10.00">AC_WPNav::set_wp_destination</text>
</a>
</g>
</g>
<!-- Node6&#45;&gt;Node9 -->
<g id="edge9_Node000006_Node000009" class="edge">
<title>Node6&#45;&gt;Node9</title>
<g id="a_edge9_Node000006_Node000009"><a xlink:title=" ">
<path fill="none" stroke="#63b8ff" d="M637.49,-103.72C603.2,-95.8 558.57,-85.49 526.47,-78.08"/>
<polygon fill="#63b8ff" stroke="#63b8ff" points="636.79,-107.15 647.32,-105.99 638.36,-100.33 636.79,-107.15"/>
</a>
</g>
</g>
<!-- Node8 -->
<g id="Node000008" class="node">
<title>Node8</title>
<g id="a_Node000008"><a xlink:href="classAC__WPNav.html#a913ef01327eea5b15c9e6f98bb6ad1b0" target="_top" xlink:title=" ">
<polygon fill="white" stroke="#666666" points="327,-152.5 202,-152.5 202,-122.5 327,-122.5 327,-152.5"/>
<text text-anchor="start" x="210" y="-140.5" font-family="Helvetica,sans-Serif" font-size="10.00">AC_WPNav::set_spline</text>
<text text-anchor="middle" x="264.5" y="-129.5" font-family="Helvetica,sans-Serif" font-size="10.00">_destination_loc</text>
</a>
</g>
</g>
<!-- Node7&#45;&gt;Node8 -->
<g id="edge8_Node000007_Node000008" class="edge">
<title>Node7&#45;&gt;Node8</title>
<g id="a_edge8_Node000007_Node000008"><a xlink:title=" ">
<path fill="none" stroke="#63b8ff" d="M411.02,-128.8C383.83,-130.43 353.17,-132.26 327.02,-133.82"/>
<polygon fill="#63b8ff" stroke="#63b8ff" points="411.48,-132.28 421.26,-128.19 411.06,-125.29 411.48,-132.28"/>
</a>
</g>
</g>
<!-- Node10 -->
<g id="Node000010" class="node">
<title>Node10</title>
<g id="a_Node000010"><a xlink:href="classAC__WPNav__OA.html#ab6a290e2ecfe6dc17c03b37cb0e1f659" target="_top" xlink:title=" ">
<polygon fill="white" stroke="#666666" points="330,-104.5 199,-104.5 199,-74.5 330,-74.5 330,-104.5"/>
<text text-anchor="start" x="207" y="-92.5" font-family="Helvetica,sans-Serif" font-size="10.00">AC_WPNav_OA::set_wp</text>
<text text-anchor="middle" x="264.5" y="-81.5" font-family="Helvetica,sans-Serif" font-size="10.00">_destination</text>
</a>
</g>
</g>
<!-- Node9&#45;&gt;Node10 -->
<g id="edge10_Node000009_Node000010" class="edge">
<title>Node9&#45;&gt;Node10</title>
<g id="a_edge10_Node000009_Node000010"><a xlink:title=" ">
<path fill="none" stroke="#63b8ff" d="M388.93,-77.58C369.09,-79.5 348.6,-81.48 330.14,-83.26"/>
<polygon fill="#63b8ff" stroke="#63b8ff" points="389.29,-81.06 398.91,-76.62 388.62,-74.1 389.29,-81.06"/>
</a>
</g>
</g>
<!-- Node11 -->
<g id="Node000011" class="node">
<title>Node11</title>
<g id="a_Node000011"><a xlink:href="classAC__WPNav.html#aa25b6b0b9e87cb6c9c94a051d5c939df" target="_top" xlink:title=" ">
<polygon fill="white" stroke="#666666" points="359.5,-56 169.5,-56 169.5,-37 359.5,-37 359.5,-56"/>
<text text-anchor="middle" x="264.5" y="-44" font-family="Helvetica,sans-Serif" font-size="10.00">AC_WPNav::set_wp_destination_loc</text>
</a>
</g>
</g>
<!-- Node9&#45;&gt;Node11 -->
<g id="edge12_Node000009_Node000011" class="edge">
<title>Node9&#45;&gt;Node11</title>
<g id="a_edge12_Node000009_Node000011"><a xlink:title=" ">
<path fill="none" stroke="#63b8ff" d="M388.84,-58.98C379.11,-57.99 369.22,-56.99 359.49,-56.01"/>
<polygon fill="#63b8ff" stroke="#63b8ff" points="388.61,-62.47 398.91,-59.99 389.31,-55.51 388.61,-62.47"/>
</a>
</g>
</g>
<!-- Node12 -->
<g id="Node000012" class="node">
<title>Node12</title>
<g id="a_Node000012"><a xlink:href="classAC__WPNav.html#a9a03d6c28caa4be4a9f0846dc5cff160" target="_top" xlink:title="set waypoint destination using NED position vector from ekf origin in meters">
<polygon fill="white" stroke="#666666" points="363,-19 166,-19 166,0 363,0 363,-19"/>
<text text-anchor="middle" x="264.5" y="-7" font-family="Helvetica,sans-Serif" font-size="10.00">AC_WPNav::set_wp_destination_NED</text>
</a>
</g>
</g>
<!-- Node9&#45;&gt;Node12 -->
<g id="edge14_Node000009_Node000012" class="edge">
<title>Node9&#45;&gt;Node12</title>
<g id="a_edge14_Node000009_Node000012"><a xlink:title=" ">
<path fill="none" stroke="#63b8ff" d="M448.88,-55.35C425.08,-46.54 392.45,-35.2 363,-27.5 350.76,-24.3 337.51,-21.45 324.84,-19.02"/>
<polygon fill="#63b8ff" stroke="#63b8ff" points="447.91,-58.72 458.5,-58.95 450.36,-52.16 447.91,-58.72"/>
</a>
</g>
</g>
<!-- Node10&#45;&gt;Node4 -->
<g id="edge11_Node000010_Node000004" class="edge">
<title>Node10&#45;&gt;Node4</title>
<g id="a_edge11_Node000010_Node000004"><a xlink:title=" ">
<path fill="none" stroke="#63b8ff" d="M188.59,-89.5C169.34,-89.5 148.79,-89.5 130.14,-89.5"/>
<polygon fill="#63b8ff" stroke="#63b8ff" points="188.83,-93 198.83,-89.5 188.83,-86 188.83,-93"/>
</a>
</g>
</g>
<!-- Node11&#45;&gt;Node4 -->
<g id="edge13_Node000011_Node000004" class="edge">
<title>Node11&#45;&gt;Node4</title>
<g id="a_edge13_Node000011_Node000004"><a xlink:title=" ">
<path fill="none" stroke="#63b8ff" d="M202.32,-58C190.26,-60.39 177.72,-62.95 166,-65.5 153.26,-68.27 139.66,-71.41 126.72,-74.48"/>
<polygon fill="#63b8ff" stroke="#63b8ff" points="203.17,-61.4 212.31,-56.05 201.82,-54.53 203.17,-61.4"/>
</a>
</g>
</g>
</g>
</svg>

<g id="navigator" transform="translate(0 0)" fill="#404254">
  <rect fill="#f2f5e9" fill-opacity="0.5" stroke="#606060" stroke-width=".5" x="0" y="0" width="60" height="60"/>
  <use id="zoomplus" xlink:href="#zoomPlus" x="17" y="9" onmousedown="handleZoom(evt,'in')"/>
  <use id="zoomminus" xlink:href="#zoomMin" x="42" y="9" onmousedown="handleZoom(evt,'out')"/>
  <use id="reset" xlink:href="#resetDef" x="30" y="36" onmousedown="handleReset()"/>
   <use id="arrowup" xlink:href="#arrowUp" x="0" y="0" onmousedown="handlePan(0,-1)"/>
  <use id="arrowright" xlink:href="#arrowRight" x="0" y="0" onmousedown="handlePan(1,0)"/>
  <use id="arrowdown" xlink:href="#arrowDown" x="0" y="0" onmousedown="handlePan(0,1)"/>
  <use id="arrowleft" xlink:href="#arrowLeft" x="0" y="0" onmousedown="handlePan(-1,0)"/>
</g>
<svg viewBox="0 0 15 15" width="100%" height="30px" preserveAspectRatio="xMaxYMin meet">
 <g id="arrow_out" transform="scale(0.3 0.3)">
  <a xlink:href="classAC__PosControl_a888df1ca376964272c17d6a0e04d8f32_icgraph_org.svg" target="_base">
   <rect id="button" ry="5" rx="5" y="6" x="6" height="38" width="38"
        fill="#f2f5e9" fill-opacity="0.5" stroke="#606060" stroke-width="1.0"/>
   <path id="arrow"
     d="M 11.500037,31.436501 C 11.940474,20.09759 22.043105,11.32322 32.158766,21.979434 L 37.068811,17.246167 C 37.068811,17.246167 37.088388,32 37.088388,32 L 22.160133,31.978069 C 22.160133,31.978069 26.997745,27.140456 26.997745,27.140456 C 18.528582,18.264221 13.291696,25.230495 11.500037,31.436501 z"
     style="fill:#404040;"/>
  </a>
 </g>
</svg>

<style type='text/css'>
<![CDATA[
[data-mouse-over-selected='false'] { opacity: 0.7; }
[data-mouse-over-selected='true']  { opacity: 1.0; }
]]>
</style>
<script type="application/ecmascript"><![CDATA[
document.addEventListener('DOMContentLoaded', (event) => {
  highlightEdges();
  highlightAdjacentNodes();
});
]]></script>
</svg>
