<?xml version="1.0" encoding="UTF-8" standalone="no"?>
<!DOCTYPE svg PUBLIC "-//W3C//DTD SVG 1.1//EN"
 "http://www.w3.org/Graphics/SVG/1.1/DTD/svg11.dtd">
<!-- Generated by graphviz version 2.43.0 (0)
 -->
<!-- Title: AC_PosControl::set_pos_error_max_xy_cm Pages: 1 -->
<svg width="295pt" height="64pt"
 viewBox="0.00 0.00 295.00 64.00" xmlns="http://www.w3.org/2000/svg" xmlns:xlink="http://www.w3.org/1999/xlink">
<g id="graph0" class="graph" transform="scale(1 1) rotate(0) translate(4 60)">
<title>AC_PosControl::set_pos_error_max_xy_cm</title>
<!-- Node1 -->
<g id="Node000001" class="node">
<title>Node1</title>
<g id="a_Node000001"><a xlink:title=" ">
<polygon fill="#999999" stroke="#666666" points="287,-42.5 155,-42.5 155,-12.5 287,-12.5 287,-42.5"/>
<text text-anchor="start" x="163" y="-30.5" font-family="Helvetica,sans-Serif" font-size="10.00">AC_PosControl::set</text>
<text text-anchor="middle" x="221" y="-19.5" font-family="Helvetica,sans-Serif" font-size="10.00">_pos_error_max_xy_cm</text>
</a>
</g>
</g>
<!-- Node2 -->
<g id="Node000002" class="node">
<title>Node2</title>
<g id="a_Node000002"><a xlink:href="classAC__Loiter.html#a223b900f1c94d4b24b1a8941f52d79ca" target="_top" xlink:title="initialize&#39;s position and feed&#45;forward velocity from current pos and velocity">
<polygon fill="white" stroke="#666666" points="119,-56 0,-56 0,-37 119,-37 119,-56"/>
<text text-anchor="middle" x="59.5" y="-44" font-family="Helvetica,sans-Serif" font-size="10.00">AC_Loiter::init_target</text>
</a>
</g>
</g>
<!-- Node1&#45;&gt;Node2 -->
<g id="edge1_Node000001_Node000002" class="edge">
<title>Node1&#45;&gt;Node2</title>
<g id="a_edge1_Node000001_Node000002"><a xlink:title=" ">
<path fill="none" stroke="#63b8ff" d="M144.64,-36.48C136.06,-37.5 127.4,-38.53 119.08,-39.52"/>
<polygon fill="#63b8ff" stroke="#63b8ff" points="145.15,-39.94 154.67,-35.28 144.32,-32.99 145.15,-39.94"/>
</a>
</g>
</g>
<!-- Node3 -->
<g id="Node000003" class="node">
<title>Node3</title>
<g id="a_Node000003"><a xlink:href="classAC__Loiter.html#a99cf0b3a37763b4c85900ec3fbf2f786" target="_top" xlink:title="init_target to a position in cm from ekf origin">
<polygon fill="white" stroke="#666666" points="119,-19 0,-19 0,0 119,0 119,-19"/>
<text text-anchor="middle" x="59.5" y="-7" font-family="Helvetica,sans-Serif" font-size="10.00">AC_Loiter::init_target</text>
</a>
</g>
</g>
<!-- Node1&#45;&gt;Node3 -->
<g id="edge2_Node000001_Node000003" class="edge">
<title>Node1&#45;&gt;Node3</title>
<g id="a_edge2_Node000001_Node000003"><a xlink:title=" ">
<path fill="none" stroke="#63b8ff" d="M144.64,-19C136.06,-18.03 127.4,-17.05 119.08,-16.11"/>
<polygon fill="#63b8ff" stroke="#63b8ff" points="144.34,-22.48 154.67,-20.13 145.12,-15.53 144.34,-22.48"/>
</a>
</g>
</g>
</g>
</svg>
