<?xml version="1.0" encoding="UTF-8" standalone="no"?>
<!DOCTYPE svg PUBLIC "-//W3C//DTD SVG 1.1//EN"
 "http://www.w3.org/Graphics/SVG/1.1/DTD/svg11.dtd">
<!-- Generated by graphviz version 2.43.0 (0)
 -->
<!-- Title: AC_WPNav::get_wp_bearing_to_destination Pages: 1 -->
<svg width="414pt" height="92pt"
 viewBox="0.00 0.00 414.00 92.00" xmlns="http://www.w3.org/2000/svg" xmlns:xlink="http://www.w3.org/1999/xlink">
<g id="graph0" class="graph" transform="scale(1 1) rotate(0) translate(4 88)">
<title>AC_WPNav::get_wp_bearing_to_destination</title>
<!-- Node1 -->
<g id="Node000001" class="node">
<title>Node1</title>
<g id="a_Node000001"><a xlink:title="get_bearing_to_destination &#45; get bearing to next waypoint in centi&#45;degrees">
<polygon fill="#999999" stroke="#666666" points="153,-46.5 0,-46.5 0,-16.5 153,-16.5 153,-46.5"/>
<text text-anchor="start" x="8" y="-34.5" font-family="Helvetica,sans-Serif" font-size="10.00">AC_WPNav::get_wp_bearing</text>
<text text-anchor="middle" x="76.5" y="-23.5" font-family="Helvetica,sans-Serif" font-size="10.00">_to_destination</text>
</a>
</g>
</g>
<!-- Node2 -->
<g id="Node000002" class="node">
<title>Node2</title>
<g id="a_Node000002"><a xlink:href="location_8cpp.html#a4b86b86d12c498b7460bbb8e6bf87814" target="_top" xlink:title=" ">
<polygon fill="white" stroke="#666666" points="289.5,-84 198.5,-84 198.5,-65 289.5,-65 289.5,-84"/>
<text text-anchor="middle" x="244" y="-72" font-family="Helvetica,sans-Serif" font-size="10.00">get_bearing_cd</text>
</a>
</g>
</g>
<!-- Node1&#45;&gt;Node2 -->
<g id="edge1_Node000001_Node000002" class="edge">
<title>Node1&#45;&gt;Node2</title>
<g id="a_edge1_Node000001_Node000002"><a xlink:title=" ">
<path fill="none" stroke="#63b8ff" d="M135.38,-46.54C155.3,-51.71 177.32,-57.44 196.24,-62.35"/>
<polygon fill="#63b8ff" stroke="#63b8ff" points="195.54,-65.79 206.1,-64.91 197.3,-59.01 195.54,-65.79"/>
</a>
</g>
</g>
<!-- Node3 -->
<g id="Node000003" class="node">
<title>Node3</title>
<g id="a_Node000003"><a xlink:href="classAP__InertialNav.html#a960dfd33a277bce4d2afe4a52506adef" target="_top" xlink:title=" ">
<polygon fill="white" stroke="#666666" points="299,-46.5 189,-46.5 189,-16.5 299,-16.5 299,-46.5"/>
<text text-anchor="start" x="197" y="-34.5" font-family="Helvetica,sans-Serif" font-size="10.00">AP_InertialNav::get</text>
<text text-anchor="middle" x="244" y="-23.5" font-family="Helvetica,sans-Serif" font-size="10.00">_position_xy_cm</text>
</a>
</g>
</g>
<!-- Node1&#45;&gt;Node3 -->
<g id="edge2_Node000001_Node000003" class="edge">
<title>Node1&#45;&gt;Node3</title>
<g id="a_edge2_Node000001_Node000003"><a xlink:title=" ">
<path fill="none" stroke="#63b8ff" d="M153.47,-31.5C161.83,-31.5 170.29,-31.5 178.5,-31.5"/>
<polygon fill="#63b8ff" stroke="#63b8ff" points="178.73,-35 188.73,-31.5 178.73,-28 178.73,-35"/>
</a>
</g>
</g>
<!-- Node4 -->
<g id="Node000004" class="node">
<title>Node4</title>
<g id="a_Node000004"><a xlink:href="classVector3.html#abcf8b89285b9966932d1aceeeadb21d3" target="_top" xlink:title=" ">
<polygon fill="white" stroke="#666666" points="406,-19 335,-19 335,0 406,0 406,-19"/>
<text text-anchor="middle" x="370.5" y="-7" font-family="Helvetica,sans-Serif" font-size="10.00">Vector3::xy</text>
</a>
</g>
</g>
<!-- Node1&#45;&gt;Node4 -->
<g id="edge4_Node000001_Node000004" class="edge">
<title>Node1&#45;&gt;Node4</title>
<g id="a_edge4_Node000001_Node000004"><a xlink:title=" ">
<path fill="none" stroke="#63b8ff" d="M136.15,-16.44C153.08,-12.76 171.67,-9.34 189,-7.5 237.61,-2.33 250.12,-6.81 299,-7.5 307.27,-7.62 316.08,-7.81 324.58,-8.03"/>
<polygon fill="#63b8ff" stroke="#63b8ff" points="324.63,-11.54 334.72,-8.32 324.82,-4.54 324.63,-11.54"/>
</a>
</g>
</g>
<!-- Node3&#45;&gt;Node4 -->
<g id="edge3_Node000003_Node000004" class="edge">
<title>Node3&#45;&gt;Node4</title>
<g id="a_edge3_Node000003_Node000004"><a xlink:title=" ">
<path fill="none" stroke="#63b8ff" d="M299.25,-21.91C307.82,-20.4 316.59,-18.85 324.91,-17.38"/>
<polygon fill="#63b8ff" stroke="#63b8ff" points="325.55,-20.82 334.79,-15.63 324.33,-13.93 325.55,-20.82"/>
</a>
</g>
</g>
</g>
</svg>
