<?xml version="1.0" encoding="UTF-8" standalone="no"?>
<!DOCTYPE svg PUBLIC "-//W3C//DTD SVG 1.1//EN"
 "http://www.w3.org/Graphics/SVG/1.1/DTD/svg11.dtd">
<!-- Generated by graphviz version 2.43.0 (0)
 -->
<!-- Title: ChibiOS::Storage::write_block Pages: 1 -->
<!--zoomable 646 -->

<svg id="main" version="1.1" xmlns="http://www.w3.org/2000/svg" xmlns:xlink="http://www.w3.org/1999/xlink" xml:space="preserve" onload="init(evt)">
<style type="text/css"><![CDATA[
.node, .edge {opacity: 0.7;}
.node.selected, .edge.selected {opacity: 1;}
.edge:hover path { stroke: red; }
.edge:hover polygon { stroke: red; fill: red; }
]]></style>

<defs>
  <circle id="rim" cx="0" cy="0" r="7"/>
  <circle id="rim2" cx="0" cy="0" r="3.5"/>
  <g id="zoomPlus">
    <use xlink:href="#rim" fill="#404040"><set attributeName="fill" to="#808080" begin="zoomplus.mouseover" end="zoomplus.mouseout"/></use>
    <path d="M-4,0h8M0,-4v8" fill="none" stroke="white" stroke-width="1.5" pointer-events="none"/>
  </g>
  <g id="zoomMin">
    <use xlink:href="#rim" fill="#404040"><set attributeName="fill" to="#808080" begin="zoomminus.mouseover" end="zoomminus.mouseout"/></use>
    <path d="M-4,0h8" fill="none" stroke="white" stroke-width="1.5" pointer-events="none"/>
  </g>
  <g id="arrowUp" transform="translate(30 24)">
    <use xlink:href="#rim"/>
    <path pointer-events="none" fill="none" stroke="white" stroke-width="1.5" d="M0,-3.0v7 M-2.5,-0.5L0,-3.0L2.5,-0.5"/>
  </g>
  <g id="arrowRight" transform="rotate(90) translate(36 -43)">
    <use xlink:href="#rim"/>
    <path pointer-events="none" fill="none" stroke="white" stroke-width="1.5" d="M0,-3.0v7 M-2.5,-0.5L0,-3.0L2.5,-0.5"/>
  </g>
  <g id="arrowDown" transform="rotate(180) translate(-30 -48)">
    <use xlink:href="#rim"/>
    <path pointer-events="none" fill="none" stroke="white" stroke-width="1.5" d="M0,-3.0v7 M-2.5,-0.5L0,-3.0L2.5,-0.5"/>
  </g>
  <g id="arrowLeft" transform="rotate(270) translate(-36 17)">
    <use xlink:href="#rim"/>
    <path pointer-events="none" fill="none" stroke="white" stroke-width="1.5" d="M0,-3.0v7 M-2.5,-0.5L0,-3.0L2.5,-0.5"/>
  </g>
  <g id="resetDef">
    <use xlink:href="#rim2" fill="#404040"><set attributeName="fill" to="#808080" begin="reset.mouseover" end="reset.mouseout"/></use>
  </g>
</defs>
<script type="application/ecmascript">
var viewWidth = 1168;
var viewHeight = 646;
var sectionId = 'dynsection-20';
</script>
<script type="application/ecmascript" xlink:href="svg.min.js"/>
<svg id="graph" class="graph">
<g id="viewport">
<title>ChibiOS::Storage::write_block</title>
<!-- Node1 -->
<g id="Node000001" class="node">
<title>Node1</title>
<g id="a_Node000001"><a xlink:title=" ">
<polygon fill="#999999" stroke="#666666" points="129,-487.5 0,-487.5 0,-457.5 129,-457.5 129,-487.5"/>
<text text-anchor="start" x="8" y="-475.5" font-family="Helvetica,sans-Serif" font-size="10.00">ChibiOS::Storage::write</text>
<text text-anchor="middle" x="64.5" y="-464.5" font-family="Helvetica,sans-Serif" font-size="10.00">_block</text>
</a>
</g>
</g>
<!-- Node2 -->
<g id="Node000002" class="node">
<title>Node2</title>
<g id="a_Node000002"><a xlink:href="classChibiOS_1_1Storage.html#a54862fa99ed88196746eb424b165ea8c" target="_top" xlink:title=" ">
<polygon fill="white" stroke="#666666" points="269,-577.5 165,-577.5 165,-547.5 269,-547.5 269,-577.5"/>
<text text-anchor="start" x="173" y="-565.5" font-family="Helvetica,sans-Serif" font-size="10.00">ChibiOS::Storage::</text>
<text text-anchor="middle" x="217" y="-554.5" font-family="Helvetica,sans-Serif" font-size="10.00">_mark_dirty</text>
</a>
</g>
</g>
<!-- Node1&#45;&gt;Node2 -->
<g id="edge1_Node000001_Node000002" class="edge">
<title>Node1&#45;&gt;Node2</title>
<g id="a_edge1_Node000001_Node000002"><a xlink:title=" ">
<path fill="none" stroke="#63b8ff" d="M90.69,-487.56C115.76,-502.56 154.39,-525.66 182.13,-542.25"/>
<polygon fill="#63b8ff" stroke="#63b8ff" points="180.35,-545.26 190.73,-547.39 183.94,-539.25 180.35,-545.26"/>
</a>
</g>
</g>
<!-- Node4 -->
<g id="Node000004" class="node">
<title>Node4</title>
<g id="a_Node000004"><a xlink:href="classChibiOS_1_1Storage.html#adf6fc2369946746d00bb2a7f86410258" target="_top" xlink:title=" ">
<polygon fill="white" stroke="#666666" points="269,-463.5 165,-463.5 165,-433.5 269,-433.5 269,-463.5"/>
<text text-anchor="start" x="173" y="-451.5" font-family="Helvetica,sans-Serif" font-size="10.00">ChibiOS::Storage::</text>
<text text-anchor="middle" x="217" y="-440.5" font-family="Helvetica,sans-Serif" font-size="10.00">_storage_open</text>
</a>
</g>
</g>
<!-- Node1&#45;&gt;Node4 -->
<g id="edge3_Node000001_Node000004" class="edge">
<title>Node1&#45;&gt;Node4</title>
<g id="a_edge3_Node000001_Node000004"><a xlink:title=" ">
<path fill="none" stroke="#63b8ff" d="M129.33,-462.32C137.76,-460.98 146.38,-459.6 154.77,-458.27"/>
<polygon fill="#63b8ff" stroke="#63b8ff" points="155.52,-461.69 164.84,-456.66 154.42,-454.78 155.52,-461.69"/>
</a>
</g>
</g>
<!-- Node3 -->
<g id="Node000003" class="node">
<title>Node3</title>
<g id="a_Node000003"><a xlink:href="classBitmask.html#a6d942e61abc55c452b001b11dadf8a18" target="_top" xlink:title=" ">
<polygon fill="white" stroke="#666666" points="402,-638 324,-638 324,-619 402,-619 402,-638"/>
<text text-anchor="middle" x="363" y="-626" font-family="Helvetica,sans-Serif" font-size="10.00">Bitmask::set</text>
</a>
</g>
</g>
<!-- Node2&#45;&gt;Node3 -->
<g id="edge2_Node000002_Node000003" class="edge">
<title>Node2&#45;&gt;Node3</title>
<g id="a_edge2_Node000002_Node000003"><a xlink:title=" ">
<path fill="none" stroke="#63b8ff" d="M242.47,-577.71C259.55,-587.9 283.12,-601.12 305,-610.5 309.19,-612.3 313.62,-614.01 318.09,-615.61"/>
<polygon fill="#63b8ff" stroke="#63b8ff" points="317.24,-619.02 327.84,-618.93 319.5,-612.39 317.24,-619.02"/>
</a>
</g>
</g>
<!-- Node5 -->
<g id="Node000005" class="node">
<title>Node5</title>
<g id="a_Node000005"><a xlink:href="classChibiOS_1_1Storage.html#ac28ebc723ced019aa01bcc0c194ddb19" target="_top" xlink:title=" ">
<polygon fill="white" stroke="#666666" points="415,-525.5 311,-525.5 311,-495.5 415,-495.5 415,-525.5"/>
<text text-anchor="start" x="319" y="-513.5" font-family="Helvetica,sans-Serif" font-size="10.00">ChibiOS::Storage::</text>
<text text-anchor="middle" x="363" y="-502.5" font-family="Helvetica,sans-Serif" font-size="10.00">_flash_load</text>
</a>
</g>
</g>
<!-- Node4&#45;&gt;Node5 -->
<g id="edge4_Node000004_Node000005" class="edge">
<title>Node4&#45;&gt;Node5</title>
<g id="a_edge4_Node000004_Node000005"><a xlink:title=" ">
<path fill="none" stroke="#63b8ff" d="M252.86,-463.51C272.35,-471.9 296.84,-482.44 317.68,-491.42"/>
<polygon fill="#63b8ff" stroke="#63b8ff" points="316.39,-494.67 326.96,-495.41 319.16,-488.25 316.39,-494.67"/>
</a>
</g>
</g>
<!-- Node6 -->
<g id="Node000006" class="node">
<title>Node6</title>
<g id="a_Node000006"><a xlink:href="namespaceAP__HAL.html#a52edeef7d5ffaa365e1229b87c170307" target="_top" xlink:title=" ">
<polygon fill="white" stroke="#666666" points="577.5,-563 491.5,-563 491.5,-544 577.5,-544 577.5,-563"/>
<text text-anchor="middle" x="534.5" y="-551" font-family="Helvetica,sans-Serif" font-size="10.00">AP_HAL::panic</text>
</a>
</g>
</g>
<!-- Node4&#45;&gt;Node6 -->
<g id="edge42_Node000004_Node000006" class="edge">
<title>Node4&#45;&gt;Node6</title>
<g id="a_edge42_Node000004_Node000006"><a xlink:title=" ">
<path fill="none" stroke="#63b8ff" d="M227.99,-463.53C242.33,-483.69 270.85,-518.79 305,-534.5 361.09,-560.31 433.1,-561.82 481.15,-559"/>
<polygon fill="#63b8ff" stroke="#63b8ff" points="481.58,-562.48 491.32,-558.32 481.11,-555.49 481.58,-562.48"/>
</a>
</g>
</g>
<!-- Node10 -->
<g id="Node000010" class="node">
<title>Node10</title>
<g id="a_Node000010"><a xlink:href="stdio_8h.html#a55f3d956bb2ba20b5059e9e25484a47f" target="_top" xlink:title=" ">
<polygon fill="white" stroke="#666666" points="556,-526 513,-526 513,-507 556,-507 556,-526"/>
<text text-anchor="middle" x="534.5" y="-514" font-family="Helvetica,sans-Serif" font-size="10.00">printf</text>
</a>
</g>
</g>
<!-- Node4&#45;&gt;Node10 -->
<g id="edge43_Node000004_Node000010" class="edge">
<title>Node4&#45;&gt;Node10</title>
<g id="a_edge43_Node000004_Node000010"><a xlink:title=" ">
<path fill="none" stroke="#63b8ff" d="M269.23,-456.46C310.48,-463.27 369.81,-473.93 421,-486.5 437.25,-490.49 440.88,-493.04 457,-497.5 472.03,-501.66 488.84,-505.88 502.86,-509.28"/>
<polygon fill="#63b8ff" stroke="#63b8ff" points="502.43,-512.78 512.97,-511.71 504.06,-505.97 502.43,-512.78"/>
</a>
</g>
</g>
<!-- Node11 -->
<g id="Node000011" class="node">
<title>Node11</title>
<g id="a_Node000011"><a xlink:href="classChibiOS_1_1Storage.html#a20e5423b235396a62e2fa32d84d38339" target="_top" xlink:title=" ">
<polygon fill="white" stroke="#666666" points="415,-230.5 311,-230.5 311,-200.5 415,-200.5 415,-230.5"/>
<text text-anchor="start" x="319" y="-218.5" font-family="Helvetica,sans-Serif" font-size="10.00">ChibiOS::Storage::</text>
<text text-anchor="middle" x="363" y="-207.5" font-family="Helvetica,sans-Serif" font-size="10.00">_save_backup</text>
</a>
</g>
</g>
<!-- Node4&#45;&gt;Node11 -->
<g id="edge10_Node000004_Node000011" class="edge">
<title>Node4&#45;&gt;Node11</title>
<g id="a_edge10_Node000004_Node000011"><a xlink:title=" ">
<path fill="none" stroke="#63b8ff" d="M224.72,-433.45C238.21,-403.86 270.26,-336.49 305,-284.5 315.87,-268.24 329.83,-251.29 341.21,-238.25"/>
<polygon fill="#63b8ff" stroke="#63b8ff" points="343.91,-240.49 347.92,-230.69 338.67,-235.85 343.91,-240.49"/>
</a>
</g>
</g>
<!-- Node13 -->
<g id="Node000013" class="node">
<title>Node13</title>
<g id="a_Node000013"><a xlink:href="classAP__Filesystem.html#afaae8b39b75584a4a51886ff1c44b414" target="_top" xlink:title=" ">
<polygon fill="white" stroke="#666666" points="594,-327 475,-327 475,-308 594,-308 594,-327"/>
<text text-anchor="middle" x="534.5" y="-315" font-family="Helvetica,sans-Serif" font-size="10.00">AP_Filesystem::close</text>
</a>
</g>
</g>
<!-- Node4&#45;&gt;Node13 -->
<g id="edge39_Node000004_Node000013" class="edge">
<title>Node4&#45;&gt;Node13</title>
<g id="a_edge39_Node000004_Node000013"><a xlink:title=" ">
<path fill="none" stroke="#63b8ff" d="M245.16,-433.33C288.69,-409.56 377.28,-363.37 457,-335.5 463.09,-333.37 469.53,-331.42 476,-329.64"/>
<polygon fill="#63b8ff" stroke="#63b8ff" points="477.33,-332.91 486.12,-327 475.56,-326.14 477.33,-332.91"/>
</a>
</g>
</g>
<!-- Node17 -->
<g id="Node000017" class="node">
<title>Node17</title>
<g id="a_Node000017"><a xlink:href="namespaceAP.html#abb3d1954cca601d4bda7c74f27be55b7" target="_top" xlink:title=" ">
<polygon fill="white" stroke="#666666" points="558,-19 511,-19 511,0 558,0 558,-19"/>
<text text-anchor="middle" x="534.5" y="-7" font-family="Helvetica,sans-Serif" font-size="10.00">AP::FS</text>
</a>
</g>
</g>
<!-- Node4&#45;&gt;Node17 -->
<g id="edge40_Node000004_Node000017" class="edge">
<title>Node4&#45;&gt;Node17</title>
<g id="a_edge40_Node000004_Node000017"><a xlink:title=" ">
<path fill="none" stroke="#63b8ff" d="M220.8,-433.37C228.9,-392.17 255,-275.49 305,-191.5 355.83,-106.1 371.11,-77.5 457,-27.5 470.15,-19.84 486.37,-15.44 500.49,-12.91"/>
<polygon fill="#63b8ff" stroke="#63b8ff" points="501.43,-16.31 510.78,-11.32 500.36,-9.39 501.43,-16.31"/>
</a>
</g>
</g>
<!-- Node28 -->
<g id="Node000028" class="node">
<title>Node28</title>
<g id="a_Node000028"><a xlink:href="classAP__Filesystem.html#a0ca70241ac482c4349fe1340a2b7f173" target="_top" xlink:title=" ">
<polygon fill="white" stroke="#666666" points="593.5,-290 475.5,-290 475.5,-271 593.5,-271 593.5,-290"/>
<text text-anchor="middle" x="534.5" y="-278" font-family="Helvetica,sans-Serif" font-size="10.00">AP_Filesystem::open</text>
</a>
</g>
</g>
<!-- Node4&#45;&gt;Node28 -->
<g id="edge41_Node000004_Node000028" class="edge">
<title>Node4&#45;&gt;Node28</title>
<g id="a_edge41_Node000004_Node000028"><a xlink:title=" ">
<path fill="none" stroke="#63b8ff" d="M227.27,-433.17C241.38,-411.11 270.29,-370.53 305,-347.5 353.4,-315.39 417.51,-298.34 465.49,-289.5"/>
<polygon fill="#63b8ff" stroke="#63b8ff" points="466.24,-292.92 475.48,-287.73 465.02,-286.03 466.24,-292.92"/>
</a>
</g>
</g>
<!-- Node35 -->
<g id="Node000035" class="node">
<title>Node35</title>
<g id="a_Node000035"><a xlink:href="classBitmask.html#ab753bfb6058f8a60e523c949802f3823" target="_top" xlink:title=" ">
<polygon fill="white" stroke="#666666" points="412.5,-601 313.5,-601 313.5,-582 412.5,-582 412.5,-601"/>
<text text-anchor="middle" x="363" y="-589" font-family="Helvetica,sans-Serif" font-size="10.00">Bitmask::clearall</text>
</a>
</g>
</g>
<!-- Node4&#45;&gt;Node35 -->
<g id="edge38_Node000004_Node000035" class="edge">
<title>Node4&#45;&gt;Node35</title>
<g id="a_edge38_Node000004_Node000035"><a xlink:title=" ">
<path fill="none" stroke="#63b8ff" d="M225.58,-463.7C238.65,-488.54 267.66,-537.98 305,-567.5 310.03,-571.48 315.81,-574.9 321.73,-577.82"/>
<polygon fill="#63b8ff" stroke="#63b8ff" points="320.48,-581.1 331.04,-581.99 323.34,-574.71 320.48,-581.1"/>
</a>
</g>
</g>
<!-- Node36 -->
<g id="Node000036" class="node">
<title>Node36</title>
<g id="a_Node000036"><a xlink:href="classAP__Filesystem.html#ab24f7b02a3521b81037f580911c612dc" target="_top" xlink:title=" ">
<polygon fill="white" stroke="#666666" points="421,-439 305,-439 305,-420 421,-420 421,-439"/>
<text text-anchor="middle" x="363" y="-427" font-family="Helvetica,sans-Serif" font-size="10.00">AP_Filesystem::read</text>
</a>
</g>
</g>
<!-- Node4&#45;&gt;Node36 -->
<g id="edge44_Node000004_Node000036" class="edge">
<title>Node4&#45;&gt;Node36</title>
<g id="a_edge44_Node000004_Node000036"><a xlink:title=" ">
<path fill="none" stroke="#63b8ff" d="M269.17,-441.75C277.43,-440.66 286.07,-439.52 294.64,-438.39"/>
<polygon fill="#63b8ff" stroke="#63b8ff" points="295.16,-441.85 304.62,-437.07 294.25,-434.91 295.16,-441.85"/>
</a>
</g>
</g>
<!-- Node5&#45;&gt;Node6 -->
<g id="edge5_Node000005_Node000006" class="edge">
<title>Node5&#45;&gt;Node6</title>
<g id="a_edge5_Node000005_Node000006"><a xlink:title=" ">
<path fill="none" stroke="#63b8ff" d="M415.14,-523.79C428.74,-527.3 443.42,-531.06 457,-534.5 465.96,-536.77 475.52,-539.16 484.74,-541.46"/>
<polygon fill="#63b8ff" stroke="#63b8ff" points="484.02,-544.89 494.57,-543.9 485.71,-538.09 484.02,-544.89"/>
</a>
</g>
</g>
<!-- Node5&#45;&gt;Node10 -->
<g id="edge9_Node000005_Node000010" class="edge">
<title>Node5&#45;&gt;Node10</title>
<g id="a_edge9_Node000005_Node000010"><a xlink:title=" ">
<path fill="none" stroke="#63b8ff" d="M415.32,-512.32C443.83,-513.33 478.37,-514.55 502.72,-515.41"/>
<polygon fill="#63b8ff" stroke="#63b8ff" points="502.69,-518.91 512.81,-515.77 502.94,-511.92 502.69,-518.91"/>
</a>
</g>
</g>
<!-- Node7 -->
<g id="Node000007" class="node">
<title>Node7</title>
<g id="a_Node000007"><a xlink:href="classAP__HAL_1_1Scheduler.html#ab3175e2e6223ccfe82f957e41cc12b26" target="_top" xlink:title=" ">
<polygon fill="white" stroke="#666666" points="782.5,-498.5 668.5,-498.5 668.5,-468.5 782.5,-468.5 782.5,-498.5"/>
<text text-anchor="start" x="676.5" y="-486.5" font-family="Helvetica,sans-Serif" font-size="10.00">AP_HAL::Scheduler::</text>
<text text-anchor="middle" x="725.5" y="-475.5" font-family="Helvetica,sans-Serif" font-size="10.00">delay</text>
</a>
</g>
</g>
<!-- Node6&#45;&gt;Node7 -->
<g id="edge6_Node000006_Node000007" class="edge">
<title>Node6&#45;&gt;Node7</title>
<g id="a_edge6_Node000006_Node000007"><a xlink:title=" ">
<path fill="none" stroke="#63b8ff" d="M577.84,-546.17C589.25,-543.35 601.37,-539.55 612,-534.5 630.07,-525.92 630.2,-516.62 648,-507.5 651.52,-505.69 655.21,-503.99 658.97,-502.4"/>
<polygon fill="#63b8ff" stroke="#63b8ff" points="660.45,-505.58 668.46,-498.64 657.87,-499.07 660.45,-505.58"/>
</a>
</g>
</g>
<!-- Node8 -->
<g id="Node000008" class="node">
<title>Node8</title>
<g id="a_Node000008"><a xlink:href="classAP__HAL_1_1Scheduler.html#a78c4f1b1f192ac1c99544b6cc8f099b0" target="_top" xlink:title=" ">
<polygon fill="white" stroke="#666666" points="783.5,-546.5 667.5,-546.5 667.5,-516.5 783.5,-516.5 783.5,-546.5"/>
<text text-anchor="start" x="675.5" y="-534.5" font-family="Helvetica,sans-Serif" font-size="10.00">AP_HAL::Scheduler::</text>
<text text-anchor="middle" x="725.5" y="-523.5" font-family="Helvetica,sans-Serif" font-size="10.00">delay_microseconds</text>
</a>
</g>
</g>
<!-- Node6&#45;&gt;Node8 -->
<g id="edge7_Node000006_Node000008" class="edge">
<title>Node6&#45;&gt;Node8</title>
<g id="a_edge7_Node000006_Node000008"><a xlink:title=" ">
<path fill="none" stroke="#63b8ff" d="M577.92,-548.56C601.27,-545.84 630.8,-542.41 657.22,-539.33"/>
<polygon fill="#63b8ff" stroke="#63b8ff" points="657.65,-542.81 667.17,-538.17 656.84,-535.85 657.65,-542.81"/>
</a>
</g>
</g>
<!-- Node9 -->
<g id="Node000009" class="node">
<title>Node9</title>
<g id="a_Node000009"><a xlink:href="stdio_8h.html#aae132cc6af1eb6cf43bf011d8d63e854" target="_top" xlink:title=" ">
<polygon fill="white" stroke="#666666" points="750,-584 701,-584 701,-565 750,-565 750,-584"/>
<text text-anchor="middle" x="725.5" y="-572" font-family="Helvetica,sans-Serif" font-size="10.00">vprintf</text>
</a>
</g>
</g>
<!-- Node6&#45;&gt;Node9 -->
<g id="edge8_Node000006_Node000009" class="edge">
<title>Node6&#45;&gt;Node9</title>
<g id="a_edge8_Node000006_Node000009"><a xlink:title=" ">
<path fill="none" stroke="#63b8ff" d="M577.92,-558.21C612.04,-562 659.35,-567.26 690.89,-570.77"/>
<polygon fill="#63b8ff" stroke="#63b8ff" points="690.61,-574.26 700.94,-571.88 691.39,-567.3 690.61,-574.26"/>
</a>
</g>
</g>
<!-- Node11&#45;&gt;Node7 -->
<g id="edge15_Node000011_Node000007" class="edge">
<title>Node11&#45;&gt;Node7</title>
<g id="a_edge15_Node000011_Node000007"><a xlink:title=" ">
<path fill="none" stroke="#63b8ff" d="M369.2,-230.62C380.5,-261.39 410.1,-331.81 457,-372.5 489.89,-401.04 600.76,-441.78 669.01,-465.14"/>
<polygon fill="#63b8ff" stroke="#63b8ff" points="668.16,-468.55 678.75,-468.46 670.42,-461.93 668.16,-468.55"/>
</a>
</g>
</g>
<!-- Node12 -->
<g id="Node000012" class="node">
<title>Node12</title>
<g id="a_Node000012"><a xlink:href="stdio_8h.html#a1af9acc6b6efdca3576cb8223d95f401" target="_top" xlink:title=" ">
<polygon fill="white" stroke="#666666" points="561.5,-93 507.5,-93 507.5,-74 561.5,-74 561.5,-93"/>
<text text-anchor="middle" x="534.5" y="-81" font-family="Helvetica,sans-Serif" font-size="10.00">asprintf</text>
</a>
</g>
</g>
<!-- Node11&#45;&gt;Node12 -->
<g id="edge11_Node000011_Node000012" class="edge">
<title>Node11&#45;&gt;Node12</title>
<g id="a_edge11_Node000011_Node000012"><a xlink:title=" ">
<path fill="none" stroke="#63b8ff" d="M372.02,-200.24C385.88,-175.45 416.72,-126.69 457,-101.5 469.08,-93.95 484.02,-89.56 497.49,-87.02"/>
<polygon fill="#63b8ff" stroke="#63b8ff" points="498.12,-90.46 507.43,-85.41 497,-83.55 498.12,-90.46"/>
</a>
</g>
</g>
<!-- Node11&#45;&gt;Node13 -->
<g id="edge12_Node000011_Node000013" class="edge">
<title>Node11&#45;&gt;Node13</title>
<g id="a_edge12_Node000011_Node000013"><a xlink:title=" ">
<path fill="none" stroke="#63b8ff" d="M376.55,-230.5C393.06,-249.26 423.9,-281.01 457,-298.5 461.31,-300.78 465.9,-302.79 470.62,-304.56"/>
<polygon fill="#63b8ff" stroke="#63b8ff" points="469.81,-307.99 480.4,-307.89 472.06,-301.36 469.81,-307.99"/>
</a>
</g>
</g>
<!-- Node16 -->
<g id="Node000016" class="node">
<title>Node16</title>
<g id="a_Node000016"><a xlink:href="malloc_8c.html#afbedc913aa4651b3c3b4b3aecd9b4711" target="_top" xlink:title=" ">
<polygon fill="white" stroke="#666666" points="552.5,-204 516.5,-204 516.5,-185 552.5,-185 552.5,-204"/>
<text text-anchor="middle" x="534.5" y="-192" font-family="Helvetica,sans-Serif" font-size="10.00">free</text>
</a>
</g>
</g>
<!-- Node11&#45;&gt;Node16 -->
<g id="edge16_Node000011_Node000016" class="edge">
<title>Node11&#45;&gt;Node16</title>
<g id="a_edge16_Node000011_Node000016"><a xlink:title=" ">
<path fill="none" stroke="#63b8ff" d="M415.32,-209.14C445.19,-205.44 481.67,-200.92 506.13,-197.89"/>
<polygon fill="#63b8ff" stroke="#63b8ff" points="506.64,-201.35 516.14,-196.65 505.78,-194.41 506.64,-201.35"/>
</a>
</g>
</g>
<!-- Node11&#45;&gt;Node17 -->
<g id="edge17_Node000011_Node000017" class="edge">
<title>Node11&#45;&gt;Node17</title>
<g id="a_edge17_Node000011_Node000017"><a xlink:title=" ">
<path fill="none" stroke="#63b8ff" d="M373.52,-200.25C385.39,-180.92 405.95,-146.4 421,-115.5 439.5,-77.51 424.87,-54.94 457,-27.5 469.02,-17.23 485.83,-12.57 500.64,-10.55"/>
<polygon fill="#63b8ff" stroke="#63b8ff" points="501.37,-13.99 510.96,-9.49 500.66,-7.03 501.37,-13.99"/>
</a>
</g>
</g>
<!-- Node18 -->
<g id="Node000018" class="node">
<title>Node18</title>
<g id="a_Node000018"><a xlink:href="namespaceAP__HAL.html#a77dffbb18891996280308e21316ec186" target="_top" xlink:title=" ">
<polygon fill="white" stroke="#666666" points="578,-56 491,-56 491,-37 578,-37 578,-56"/>
<text text-anchor="middle" x="534.5" y="-44" font-family="Helvetica,sans-Serif" font-size="10.00">AP_HAL::millis</text>
</a>
</g>
</g>
<!-- Node11&#45;&gt;Node18 -->
<g id="edge18_Node000011_Node000018" class="edge">
<title>Node11&#45;&gt;Node18</title>
<g id="a_edge18_Node000011_Node000018"><a xlink:title=" ">
<path fill="none" stroke="#63b8ff" d="M372.38,-200.48C392.77,-164.12 444.27,-73.69 457,-64.5 464.16,-59.34 472.58,-55.64 481.17,-52.98"/>
<polygon fill="#63b8ff" stroke="#63b8ff" points="482.11,-56.36 490.88,-50.42 480.32,-49.59 482.11,-56.36"/>
</a>
</g>
</g>
<!-- Node25 -->
<g id="Node000025" class="node">
<title>Node25</title>
<g id="a_Node000025"><a xlink:href="classAP__Filesystem.html#a29a38ee87b715fa946678f9c7d97e381" target="_top" xlink:title=" ">
<polygon fill="white" stroke="#666666" points="595.5,-167 473.5,-167 473.5,-148 595.5,-148 595.5,-167"/>
<text text-anchor="middle" x="534.5" y="-155" font-family="Helvetica,sans-Serif" font-size="10.00">AP_Filesystem::mkdir</text>
</a>
</g>
</g>
<!-- Node11&#45;&gt;Node25 -->
<g id="edge25_Node000011_Node000025" class="edge">
<title>Node11&#45;&gt;Node25</title>
<g id="a_edge25_Node000011_Node000025"><a xlink:title=" ">
<path fill="none" stroke="#63b8ff" d="M395.32,-200.4C413.11,-192.24 435.97,-182.44 457,-175.5 463.44,-173.37 470.27,-171.4 477.08,-169.59"/>
<polygon fill="#63b8ff" stroke="#63b8ff" points="478.19,-172.92 487.02,-167.06 476.47,-166.13 478.19,-172.92"/>
</a>
</g>
</g>
<!-- Node11&#45;&gt;Node28 -->
<g id="edge28_Node000011_Node000028" class="edge">
<title>Node11&#45;&gt;Node28</title>
<g id="a_edge28_Node000011_Node000028"><a xlink:title=" ">
<path fill="none" stroke="#63b8ff" d="M390.58,-230.57C408.82,-240.43 433.83,-253.01 457,-261.5 463.8,-263.99 471.06,-266.27 478.3,-268.31"/>
<polygon fill="#63b8ff" stroke="#63b8ff" points="477.54,-271.73 488.11,-270.94 479.36,-264.97 477.54,-271.73"/>
</a>
</g>
</g>
<!-- Node30 -->
<g id="Node000030" class="node">
<title>Node30</title>
<g id="a_Node000030"><a xlink:href="stdio_8h.html#a37c1e8ce8a2b411fa666dc33972a2cec" target="_top" xlink:title=" ">
<polygon fill="white" stroke="#666666" points="561.5,-130 507.5,-130 507.5,-111 561.5,-111 561.5,-130"/>
<text text-anchor="middle" x="534.5" y="-118" font-family="Helvetica,sans-Serif" font-size="10.00">snprintf</text>
</a>
</g>
</g>
<!-- Node11&#45;&gt;Node30 -->
<g id="edge32_Node000011_Node000030" class="edge">
<title>Node11&#45;&gt;Node30</title>
<g id="a_edge32_Node000011_Node000030"><a xlink:title=" ">
<path fill="none" stroke="#63b8ff" d="M377.93,-200.33C394.91,-182.78 425.28,-154.27 457,-138.5 469.44,-132.32 484.08,-128.21 497.2,-125.5"/>
<polygon fill="#63b8ff" stroke="#63b8ff" points="498.14,-128.88 507.33,-123.61 496.86,-122 498.14,-128.88"/>
</a>
</g>
</g>
<!-- Node31 -->
<g id="Node000031" class="node">
<title>Node31</title>
<g id="a_Node000031"><a xlink:href="classAP__HAL_1_1Util.html#a7e2bfdf81d56694c3e14d17623f81a72" target="_top" xlink:title=" ">
<polygon fill="white" stroke="#666666" points="612,-252.5 457,-252.5 457,-222.5 612,-222.5 612,-252.5"/>
<text text-anchor="start" x="465" y="-240.5" font-family="Helvetica,sans-Serif" font-size="10.00">AP_HAL::Util::was_watchdog</text>
<text text-anchor="middle" x="534.5" y="-229.5" font-family="Helvetica,sans-Serif" font-size="10.00">_armed</text>
</a>
</g>
</g>
<!-- Node11&#45;&gt;Node31 -->
<g id="edge33_Node000011_Node000031" class="edge">
<title>Node11&#45;&gt;Node31</title>
<g id="a_edge33_Node000011_Node000031"><a xlink:title=" ">
<path fill="none" stroke="#63b8ff" d="M415.32,-222.16C425.21,-223.44 435.83,-224.82 446.49,-226.21"/>
<polygon fill="#63b8ff" stroke="#63b8ff" points="446.35,-229.72 456.71,-227.53 447.25,-222.78 446.35,-229.72"/>
</a>
</g>
</g>
<!-- Node33 -->
<g id="Node000033" class="node">
<title>Node33</title>
<g id="a_Node000033"><a xlink:href="classAP__Filesystem.html#a2249a21cf482e93c1b9f5d11806906a9" target="_top" xlink:title=" ">
<polygon fill="white" stroke="#666666" points="594,-364 475,-364 475,-345 594,-345 594,-364"/>
<text text-anchor="middle" x="534.5" y="-352" font-family="Helvetica,sans-Serif" font-size="10.00">AP_Filesystem::write</text>
</a>
</g>
</g>
<!-- Node11&#45;&gt;Node33 -->
<g id="edge35_Node000011_Node000033" class="edge">
<title>Node11&#45;&gt;Node33</title>
<g id="a_edge35_Node000011_Node000033"><a xlink:title=" ">
<path fill="none" stroke="#63b8ff" d="M371.41,-230.68C384.79,-256.41 415.48,-308.45 457,-335.5 460.17,-337.56 463.54,-339.4 467.04,-341.04"/>
<polygon fill="#63b8ff" stroke="#63b8ff" points="465.96,-344.38 476.55,-344.93 468.62,-337.91 465.96,-344.38"/>
</a>
</g>
</g>
<!-- Node14 -->
<g id="Node000014" class="node">
<title>Node14</title>
<g id="a_Node000014"><a xlink:href="classAP__Filesystem.html#a5682ad982f41d40f6e9894441e27a710" target="_top" xlink:title=" ">
<polygon fill="white" stroke="#666666" points="792.5,-428.5 658.5,-428.5 658.5,-398.5 792.5,-398.5 792.5,-428.5"/>
<text text-anchor="start" x="666.5" y="-416.5" font-family="Helvetica,sans-Serif" font-size="10.00">AP_Filesystem::backend</text>
<text text-anchor="middle" x="725.5" y="-405.5" font-family="Helvetica,sans-Serif" font-size="10.00">_by_fd</text>
</a>
</g>
</g>
<!-- Node13&#45;&gt;Node14 -->
<g id="edge13_Node000013_Node000014" class="edge">
<title>Node13&#45;&gt;Node14</title>
<g id="a_edge13_Node000013_Node000014"><a xlink:title=" ">
<path fill="none" stroke="#63b8ff" d="M594.29,-326.44C600.57,-328.8 606.62,-331.76 612,-335.5 635.69,-351.95 624.92,-372.2 648,-389.5 649.85,-390.89 651.79,-392.2 653.79,-393.44"/>
<polygon fill="#63b8ff" stroke="#63b8ff" points="652.46,-396.7 662.92,-398.39 655.8,-390.55 652.46,-396.7"/>
</a>
</g>
</g>
<!-- Node15 -->
<g id="Node000015" class="node">
<title>Node15</title>
<g id="a_Node000015"><a xlink:href="classAP__Filesystem__Backend.html#a88375cae2f2ffc27fd1dd7b6d3c7d920" target="_top" xlink:title=" ">
<polygon fill="white" stroke="#666666" points="792.5,-332.5 658.5,-332.5 658.5,-302.5 792.5,-302.5 792.5,-332.5"/>
<text text-anchor="start" x="666.5" y="-320.5" font-family="Helvetica,sans-Serif" font-size="10.00">AP_Filesystem_Backend</text>
<text text-anchor="middle" x="725.5" y="-309.5" font-family="Helvetica,sans-Serif" font-size="10.00">::close</text>
</a>
</g>
</g>
<!-- Node13&#45;&gt;Node15 -->
<g id="edge14_Node000013_Node000015" class="edge">
<title>Node13&#45;&gt;Node15</title>
<g id="a_edge14_Node000013_Node000015"><a xlink:title=" ">
<path fill="none" stroke="#63b8ff" d="M594.01,-317.5C611.12,-317.5 630.09,-317.5 648.15,-317.5"/>
<polygon fill="#63b8ff" stroke="#63b8ff" points="648.35,-321 658.35,-317.5 648.35,-314 648.35,-321"/>
</a>
</g>
</g>
<!-- Node19 -->
<g id="Node000019" class="node">
<title>Node19</title>
<g id="a_Node000019"><a xlink:href="hrt_8c.html#a1295f128f60d29874243b5733c4db025" target="_top" xlink:title=" ">
<polygon fill="white" stroke="#666666" points="762.5,-56 688.5,-56 688.5,-37 762.5,-37 762.5,-56"/>
<text text-anchor="middle" x="725.5" y="-44" font-family="Helvetica,sans-Serif" font-size="10.00">hrt_millis32</text>
</a>
</g>
</g>
<!-- Node18&#45;&gt;Node19 -->
<g id="edge19_Node000018_Node000019" class="edge">
<title>Node18&#45;&gt;Node19</title>
<g id="a_edge19_Node000018_Node000019"><a xlink:title=" ">
<path fill="none" stroke="#63b8ff" d="M578.39,-46.5C608.1,-46.5 647.64,-46.5 678.09,-46.5"/>
<polygon fill="#63b8ff" stroke="#63b8ff" points="678.45,-50 688.45,-46.5 678.45,-43 678.45,-50"/>
</a>
</g>
</g>
<!-- Node20 -->
<g id="Node000020" class="node">
<title>Node20</title>
<g id="a_Node000020"><a xlink:href="hrt_8c.html#a7dd7d90aadd8f76f26da7d5abfad6fe8" target="_top" xlink:title=" ">
<polygon fill="white" stroke="#666666" points="913,-56 839,-56 839,-37 913,-37 913,-56"/>
<text text-anchor="middle" x="876" y="-44" font-family="Helvetica,sans-Serif" font-size="10.00">hrt_millis64</text>
</a>
</g>
</g>
<!-- Node19&#45;&gt;Node20 -->
<g id="edge20_Node000019_Node000020" class="edge">
<title>Node19&#45;&gt;Node20</title>
<g id="a_edge20_Node000019_Node000020"><a xlink:title=" ">
<path fill="none" stroke="#63b8ff" d="M762.83,-46.5C782.68,-46.5 807.47,-46.5 828.69,-46.5"/>
<polygon fill="#63b8ff" stroke="#63b8ff" points="828.79,-50 838.79,-46.5 828.79,-43 828.79,-50"/>
</a>
</g>
</g>
<!-- Node21 -->
<g id="Node000021" class="node">
<title>Node21</title>
<g id="a_Node000021"><a xlink:href="hrt_8c.html#a152c3348a8e83f2dfe35b44cc2e30362" target="_top" xlink:title=" ">
<polygon fill="white" stroke="#666666" points="1035,-75 955,-75 955,-56 1035,-56 1035,-75"/>
<text text-anchor="middle" x="995" y="-63" font-family="Helvetica,sans-Serif" font-size="10.00">hrt_micros64</text>
</a>
</g>
</g>
<!-- Node20&#45;&gt;Node21 -->
<g id="edge21_Node000020_Node000021" class="edge">
<title>Node20&#45;&gt;Node21</title>
<g id="a_edge21_Node000020_Node000021"><a xlink:title=" ">
<path fill="none" stroke="#63b8ff" d="M913.06,-52.36C923.03,-53.98 934.03,-55.76 944.62,-57.48"/>
<polygon fill="#63b8ff" stroke="#63b8ff" points="944.17,-60.95 954.6,-59.1 945.29,-54.04 944.17,-60.95"/>
</a>
</g>
</g>
<!-- Node24 -->
<g id="Node000024" class="node">
<title>Node24</title>
<g id="a_Node000024"><a xlink:href="div1000_8h.html#aece9e7f123414c41d0426fbadca097d8" target="_top" xlink:title=" ">
<polygon fill="white" stroke="#666666" points="1041,-38 949,-38 949,-19 1041,-19 1041,-38"/>
<text text-anchor="middle" x="995" y="-26" font-family="Helvetica,sans-Serif" font-size="10.00">uint64_div1000</text>
</a>
</g>
</g>
<!-- Node20&#45;&gt;Node24 -->
<g id="edge24_Node000020_Node000024" class="edge">
<title>Node20&#45;&gt;Node24</title>
<g id="a_edge24_Node000020_Node000024"><a xlink:title=" ">
<path fill="none" stroke="#63b8ff" d="M913.06,-40.95C921.17,-39.71 929.95,-38.35 938.64,-37.02"/>
<polygon fill="#63b8ff" stroke="#63b8ff" points="939.41,-40.44 948.76,-35.46 938.34,-33.52 939.41,-40.44"/>
</a>
</g>
</g>
<!-- Node22 -->
<g id="Node000022" class="node">
<title>Node22</title>
<g id="a_Node000022"><a xlink:href="hrt_8c.html#a5b4ffc7ff86bd5b893c4a98834e80200" target="_top" xlink:title=" ">
<polygon fill="white" stroke="#666666" points="1160,-94 1077,-94 1077,-75 1160,-75 1160,-94"/>
<text text-anchor="middle" x="1118.5" y="-82" font-family="Helvetica,sans-Serif" font-size="10.00">hrt_micros64I</text>
</a>
</g>
</g>
<!-- Node21&#45;&gt;Node22 -->
<g id="edge22_Node000021_Node000022" class="edge">
<title>Node21&#45;&gt;Node22</title>
<g id="a_edge22_Node000021_Node000022"><a xlink:title=" ">
<path fill="none" stroke="#63b8ff" d="M1035.11,-71.62C1045.21,-73.19 1056.22,-74.92 1066.81,-76.57"/>
<polygon fill="#63b8ff" stroke="#63b8ff" points="1066.37,-80.05 1076.79,-78.13 1067.45,-73.13 1066.37,-80.05"/>
</a>
</g>
</g>
<!-- Node23 -->
<g id="Node000023" class="node">
<title>Node23</title>
<g id="a_Node000023"><a xlink:href="hrt_8c.html#a723fef85be7bacb834af35445a891c18" target="_top" xlink:title=" ">
<polygon fill="white" stroke="#666666" points="1149.5,-57 1087.5,-57 1087.5,-38 1149.5,-38 1149.5,-57"/>
<text text-anchor="middle" x="1118.5" y="-45" font-family="Helvetica,sans-Serif" font-size="10.00">is_locked</text>
</a>
</g>
</g>
<!-- Node21&#45;&gt;Node23 -->
<g id="edge23_Node000021_Node000023" class="edge">
<title>Node21&#45;&gt;Node23</title>
<g id="a_edge23_Node000021_Node000023"><a xlink:title=" ">
<path fill="none" stroke="#63b8ff" d="M1035.11,-59.71C1048.6,-57.71 1063.73,-55.47 1077.3,-53.46"/>
<polygon fill="#63b8ff" stroke="#63b8ff" points="1077.95,-56.9 1087.32,-51.97 1076.92,-49.97 1077.95,-56.9"/>
</a>
</g>
</g>
<!-- Node26 -->
<g id="Node000026" class="node">
<title>Node26</title>
<g id="a_Node000026"><a xlink:href="classAP__Filesystem.html#ae03b772863a63c09f62d69bfc0a79554" target="_top" xlink:title=" ">
<polygon fill="white" stroke="#666666" points="792.5,-236.5 658.5,-236.5 658.5,-206.5 792.5,-206.5 792.5,-236.5"/>
<text text-anchor="start" x="666.5" y="-224.5" font-family="Helvetica,sans-Serif" font-size="10.00">AP_Filesystem::backend</text>
<text text-anchor="middle" x="725.5" y="-213.5" font-family="Helvetica,sans-Serif" font-size="10.00">_by_path</text>
</a>
</g>
</g>
<!-- Node25&#45;&gt;Node26 -->
<g id="edge26_Node000025_Node000026" class="edge">
<title>Node25&#45;&gt;Node26</title>
<g id="a_edge26_Node000025_Node000026"><a xlink:title=" ">
<path fill="none" stroke="#63b8ff" d="M586.42,-167.09C595.1,-169.4 603.92,-172.18 612,-175.5 629.34,-182.63 630.93,-189.75 648,-197.5 652.29,-199.45 656.78,-201.3 661.35,-203.05"/>
<polygon fill="#63b8ff" stroke="#63b8ff" points="660.19,-206.35 670.78,-206.49 662.59,-199.77 660.19,-206.35"/>
</a>
</g>
</g>
<!-- Node27 -->
<g id="Node000027" class="node">
<title>Node27</title>
<g id="a_Node000027"><a xlink:href="classAP__Filesystem__Backend.html#afa1d19b73fb0620082ba4723defa3a82" target="_top" xlink:title=" ">
<polygon fill="white" stroke="#666666" points="792.5,-140.5 658.5,-140.5 658.5,-110.5 792.5,-110.5 792.5,-140.5"/>
<text text-anchor="start" x="666.5" y="-128.5" font-family="Helvetica,sans-Serif" font-size="10.00">AP_Filesystem_Backend</text>
<text text-anchor="middle" x="725.5" y="-117.5" font-family="Helvetica,sans-Serif" font-size="10.00">::mkdir</text>
</a>
</g>
</g>
<!-- Node25&#45;&gt;Node27 -->
<g id="edge27_Node000025_Node000027" class="edge">
<title>Node25&#45;&gt;Node27</title>
<g id="a_edge27_Node000025_Node000027"><a xlink:title=" ">
<path fill="none" stroke="#63b8ff" d="M591.69,-147.99C609.4,-144.99 629.27,-141.62 648.14,-138.43"/>
<polygon fill="#63b8ff" stroke="#63b8ff" points="648.92,-141.85 658.2,-136.73 647.75,-134.94 648.92,-141.85"/>
</a>
</g>
</g>
<!-- Node28&#45;&gt;Node15 -->
<g id="edge30_Node000028_Node000015" class="edge">
<title>Node28&#45;&gt;Node15</title>
<g id="a_edge30_Node000028_Node000015"><a xlink:title=" ">
<path fill="none" stroke="#63b8ff" d="M584.17,-290.03C603.71,-293.85 626.7,-298.35 648.35,-302.59"/>
<polygon fill="#63b8ff" stroke="#63b8ff" points="647.7,-306.03 658.19,-304.52 649.04,-299.16 647.7,-306.03"/>
</a>
</g>
</g>
<!-- Node28&#45;&gt;Node26 -->
<g id="edge29_Node000028_Node000026" class="edge">
<title>Node28&#45;&gt;Node26</title>
<g id="a_edge29_Node000028_Node000026"><a xlink:title=" ">
<path fill="none" stroke="#63b8ff" d="M579.58,-270.95C590.29,-268.25 601.65,-265.06 612,-261.5 628.56,-255.81 631.62,-251.69 648,-245.5 653.13,-243.56 658.49,-241.66 663.89,-239.81"/>
<polygon fill="#63b8ff" stroke="#63b8ff" points="665.23,-243.05 673.61,-236.57 663.01,-236.41 665.23,-243.05"/>
</a>
</g>
</g>
<!-- Node29 -->
<g id="Node000029" class="node">
<title>Node29</title>
<g id="a_Node000029"><a xlink:href="classAP__Filesystem__Backend.html#a934054e6eeeb105d07a365b7c532707a" target="_top" xlink:title=" ">
<polygon fill="white" stroke="#666666" points="792.5,-284.5 658.5,-284.5 658.5,-254.5 792.5,-254.5 792.5,-284.5"/>
<text text-anchor="start" x="666.5" y="-272.5" font-family="Helvetica,sans-Serif" font-size="10.00">AP_Filesystem_Backend</text>
<text text-anchor="middle" x="725.5" y="-261.5" font-family="Helvetica,sans-Serif" font-size="10.00">::open</text>
</a>
</g>
</g>
<!-- Node28&#45;&gt;Node29 -->
<g id="edge31_Node000028_Node000029" class="edge">
<title>Node28&#45;&gt;Node29</title>
<g id="a_edge31_Node000028_Node000029"><a xlink:title=" ">
<path fill="none" stroke="#63b8ff" d="M593.75,-277.11C610.87,-276.11 629.87,-275.01 647.96,-273.95"/>
<polygon fill="#63b8ff" stroke="#63b8ff" points="648.41,-277.43 658.19,-273.36 648,-270.45 648.41,-277.43"/>
</a>
</g>
</g>
<!-- Node32 -->
<g id="Node000032" class="node">
<title>Node32</title>
<g id="a_Node000032"><a xlink:href="classAP__HAL_1_1Util.html#a19cbaa06e0e8804d1669deacf5ad6081" target="_top" xlink:title=" ">
<polygon fill="white" stroke="#666666" points="803,-188.5 648,-188.5 648,-158.5 803,-158.5 803,-188.5"/>
<text text-anchor="start" x="656" y="-176.5" font-family="Helvetica,sans-Serif" font-size="10.00">AP_HAL::Util::was_watchdog</text>
<text text-anchor="middle" x="725.5" y="-165.5" font-family="Helvetica,sans-Serif" font-size="10.00">_reset</text>
</a>
</g>
</g>
<!-- Node31&#45;&gt;Node32 -->
<g id="edge34_Node000031_Node000032" class="edge">
<title>Node31&#45;&gt;Node32</title>
<g id="a_edge34_Node000031_Node000032"><a xlink:title=" ">
<path fill="none" stroke="#63b8ff" d="M583.45,-222.47C592.96,-219.31 602.83,-215.9 612,-212.5 628.25,-206.47 631.71,-203.43 648,-197.5 653.23,-195.59 658.7,-193.7 664.19,-191.85"/>
<polygon fill="#63b8ff" stroke="#63b8ff" points="665.67,-195.05 674.08,-188.6 663.48,-188.4 665.67,-195.05"/>
</a>
</g>
</g>
<!-- Node33&#45;&gt;Node14 -->
<g id="edge36_Node000033_Node000014" class="edge">
<title>Node33&#45;&gt;Node14</title>
<g id="a_edge36_Node000033_Node000014"><a xlink:title=" ">
<path fill="none" stroke="#63b8ff" d="M566.29,-364.11C593.42,-372.58 633.67,-385.15 666.78,-395.48"/>
<polygon fill="#63b8ff" stroke="#63b8ff" points="665.77,-398.83 676.36,-398.47 667.85,-392.15 665.77,-398.83"/>
</a>
</g>
</g>
<!-- Node34 -->
<g id="Node000034" class="node">
<title>Node34</title>
<g id="a_Node000034"><a xlink:href="classAP__Filesystem__Backend.html#a26b1c7392b2b1b06051852ff286b1ff5" target="_top" xlink:title=" ">
<polygon fill="white" stroke="#666666" points="792.5,-380.5 658.5,-380.5 658.5,-350.5 792.5,-350.5 792.5,-380.5"/>
<text text-anchor="start" x="666.5" y="-368.5" font-family="Helvetica,sans-Serif" font-size="10.00">AP_Filesystem_Backend</text>
<text text-anchor="middle" x="725.5" y="-357.5" font-family="Helvetica,sans-Serif" font-size="10.00">::write</text>
</a>
</g>
</g>
<!-- Node33&#45;&gt;Node34 -->
<g id="edge37_Node000033_Node000034" class="edge">
<title>Node33&#45;&gt;Node34</title>
<g id="a_edge37_Node000033_Node000034"><a xlink:title=" ">
<path fill="none" stroke="#63b8ff" d="M594.01,-357.91C611.12,-358.9 630.09,-360.01 648.15,-361.06"/>
<polygon fill="#63b8ff" stroke="#63b8ff" points="648.17,-364.56 658.35,-361.65 648.57,-357.57 648.17,-364.56"/>
</a>
</g>
</g>
<!-- Node36&#45;&gt;Node14 -->
<g id="edge45_Node000036_Node000014" class="edge">
<title>Node36&#45;&gt;Node14</title>
<g id="a_edge45_Node000036_Node000014"><a xlink:title=" ">
<path fill="none" stroke="#63b8ff" d="M421.12,-426.96C482.5,-424.24 580.35,-419.9 648.26,-416.88"/>
<polygon fill="#63b8ff" stroke="#63b8ff" points="648.64,-420.37 658.48,-416.43 648.33,-413.38 648.64,-420.37"/>
</a>
</g>
</g>
<!-- Node37 -->
<g id="Node000037" class="node">
<title>Node37</title>
<g id="a_Node000037"><a xlink:href="classAP__Filesystem__Backend.html#a620b25a9ec01dd296cb22c0e02d5d9df" target="_top" xlink:title=" ">
<polygon fill="white" stroke="#666666" points="601.5,-488.5 467.5,-488.5 467.5,-458.5 601.5,-458.5 601.5,-488.5"/>
<text text-anchor="start" x="475.5" y="-476.5" font-family="Helvetica,sans-Serif" font-size="10.00">AP_Filesystem_Backend</text>
<text text-anchor="middle" x="534.5" y="-465.5" font-family="Helvetica,sans-Serif" font-size="10.00">::read</text>
</a>
</g>
</g>
<!-- Node36&#45;&gt;Node37 -->
<g id="edge46_Node000036_Node000037" class="edge">
<title>Node36&#45;&gt;Node37</title>
<g id="a_edge46_Node000036_Node000037"><a xlink:title=" ">
<path fill="none" stroke="#63b8ff" d="M400.78,-439.05C419.78,-443.98 443.57,-450.16 465.75,-455.91"/>
<polygon fill="#63b8ff" stroke="#63b8ff" points="464.91,-459.31 475.46,-458.43 466.66,-452.53 464.91,-459.31"/>
</a>
</g>
</g>
</g>
</svg>

<g id="navigator" transform="translate(0 0)" fill="#404254">
  <rect fill="#f2f5e9" fill-opacity="0.5" stroke="#606060" stroke-width=".5" x="0" y="0" width="60" height="60"/>
  <use id="zoomplus" xlink:href="#zoomPlus" x="17" y="9" onmousedown="handleZoom(evt,'in')"/>
  <use id="zoomminus" xlink:href="#zoomMin" x="42" y="9" onmousedown="handleZoom(evt,'out')"/>
  <use id="reset" xlink:href="#resetDef" x="30" y="36" onmousedown="handleReset()"/>
   <use id="arrowup" xlink:href="#arrowUp" x="0" y="0" onmousedown="handlePan(0,-1)"/>
  <use id="arrowright" xlink:href="#arrowRight" x="0" y="0" onmousedown="handlePan(1,0)"/>
  <use id="arrowdown" xlink:href="#arrowDown" x="0" y="0" onmousedown="handlePan(0,1)"/>
  <use id="arrowleft" xlink:href="#arrowLeft" x="0" y="0" onmousedown="handlePan(-1,0)"/>
</g>
<svg viewBox="0 0 15 15" width="100%" height="30px" preserveAspectRatio="xMaxYMin meet">
 <g id="arrow_out" transform="scale(0.3 0.3)">
  <a xlink:href="classChibiOS_1_1Storage_ac03700f2503573f43d8377fd2dd2c56f_cgraph_org.svg" target="_base">
   <rect id="button" ry="5" rx="5" y="6" x="6" height="38" width="38"
        fill="#f2f5e9" fill-opacity="0.5" stroke="#606060" stroke-width="1.0"/>
   <path id="arrow"
     d="M 11.500037,31.436501 C 11.940474,20.09759 22.043105,11.32322 32.158766,21.979434 L 37.068811,17.246167 C 37.068811,17.246167 37.088388,32 37.088388,32 L 22.160133,31.978069 C 22.160133,31.978069 26.997745,27.140456 26.997745,27.140456 C 18.528582,18.264221 13.291696,25.230495 11.500037,31.436501 z"
     style="fill:#404040;"/>
  </a>
 </g>
</svg>

<style type='text/css'>
<![CDATA[
[data-mouse-over-selected='false'] { opacity: 0.7; }
[data-mouse-over-selected='true']  { opacity: 1.0; }
]]>
</style>
<script type="application/ecmascript"><![CDATA[
document.addEventListener('DOMContentLoaded', (event) => {
  highlightEdges();
  highlightAdjacentNodes();
});
]]></script>
</svg>
