<?xml version="1.0" encoding="UTF-8" standalone="no"?>
<!DOCTYPE svg PUBLIC "-//W3C//DTD SVG 1.1//EN"
 "http://www.w3.org/Graphics/SVG/1.1/DTD/svg11.dtd">
<!-- Generated by graphviz version 2.43.0 (0)
 -->
<!-- Title: GCS_MAVLINK::send_global_position_int Pages: 1 -->
<svg width="1037pt" height="445pt"
 viewBox="0.00 0.00 1037.00 445.00" xmlns="http://www.w3.org/2000/svg" xmlns:xlink="http://www.w3.org/1999/xlink">
<g id="graph0" class="graph" transform="scale(1 1) rotate(0) translate(4 441)">
<title>GCS_MAVLINK::send_global_position_int</title>
<!-- Node1 -->
<g id="Node000001" class="node">
<title>Node1</title>
<g id="a_Node000001"><a xlink:title=" ">
<polygon fill="#999999" stroke="#666666" points="151,-239.5 0,-239.5 0,-209.5 151,-209.5 151,-239.5"/>
<text text-anchor="start" x="8" y="-227.5" font-family="Helvetica,sans-Serif" font-size="10.00">GCS_MAVLINK::send_global</text>
<text text-anchor="middle" x="75.5" y="-216.5" font-family="Helvetica,sans-Serif" font-size="10.00">_position_int</text>
</a>
</g>
</g>
<!-- Node2 -->
<g id="Node000002" class="node">
<title>Node2</title>
<g id="a_Node000002"><a xlink:href="namespaceAP.html#a99432cfdb696952c9b7146f155a815aa" target="_top" xlink:title=" ">
<polygon fill="white" stroke="#666666" points="454,-325 398,-325 398,-306 454,-306 454,-325"/>
<text text-anchor="middle" x="426" y="-313" font-family="Helvetica,sans-Serif" font-size="10.00">AP::ahrs</text>
</a>
</g>
</g>
<!-- Node1&#45;&gt;Node2 -->
<g id="edge1_Node000001_Node000002" class="edge">
<title>Node1&#45;&gt;Node2</title>
<g id="a_edge1_Node000001_Node000002"><a xlink:title=" ">
<path fill="none" stroke="#63b8ff" d="M93.79,-239.77C114.38,-256.96 150.59,-284.09 187,-296.5 254.84,-319.63 339.63,-320.18 387.51,-318.1"/>
<polygon fill="#63b8ff" stroke="#63b8ff" points="387.9,-321.59 397.72,-317.6 387.55,-314.6 387.9,-321.59"/>
</a>
</g>
</g>
<!-- Node4 -->
<g id="Node000004" class="node">
<title>Node4</title>
<g id="a_Node000004"><a xlink:href="classGCS__MAVLINK.html#a5e7cf1f9924831f616bcba8f884d38e4" target="_top" xlink:title=" ">
<polygon fill="white" stroke="#666666" points="318,-287.5 196,-287.5 196,-257.5 318,-257.5 318,-287.5"/>
<text text-anchor="start" x="204" y="-275.5" font-family="Helvetica,sans-Serif" font-size="10.00">GCS_MAVLINK::global</text>
<text text-anchor="middle" x="257" y="-264.5" font-family="Helvetica,sans-Serif" font-size="10.00">_position_int_alt</text>
</a>
</g>
</g>
<!-- Node1&#45;&gt;Node4 -->
<g id="edge3_Node000001_Node000004" class="edge">
<title>Node1&#45;&gt;Node4</title>
<g id="a_edge3_Node000001_Node000004"><a xlink:title=" ">
<path fill="none" stroke="#63b8ff" d="M132.8,-239.56C151.01,-244.43 171.37,-249.87 190.21,-254.91"/>
<polygon fill="#63b8ff" stroke="#63b8ff" points="189.33,-258.3 199.9,-257.5 191.14,-251.53 189.33,-258.3"/>
</a>
</g>
</g>
<!-- Node5 -->
<g id="Node000005" class="node">
<title>Node5</title>
<g id="a_Node000005"><a xlink:href="classGCS__MAVLINK.html#a47a95e0408b12f075a8ad043ac1ebcd4" target="_top" xlink:title=" ">
<polygon fill="white" stroke="#666666" points="327,-239.5 187,-239.5 187,-209.5 327,-209.5 327,-239.5"/>
<text text-anchor="start" x="195" y="-227.5" font-family="Helvetica,sans-Serif" font-size="10.00">GCS_MAVLINK::global</text>
<text text-anchor="middle" x="257" y="-216.5" font-family="Helvetica,sans-Serif" font-size="10.00">_position_int_relative_alt</text>
</a>
</g>
</g>
<!-- Node1&#45;&gt;Node5 -->
<g id="edge4_Node000001_Node000005" class="edge">
<title>Node1&#45;&gt;Node5</title>
<g id="a_edge4_Node000001_Node000005"><a xlink:title=" ">
<path fill="none" stroke="#63b8ff" d="M151.06,-224.5C159.49,-224.5 168.09,-224.5 176.58,-224.5"/>
<polygon fill="#63b8ff" stroke="#63b8ff" points="176.84,-228 186.84,-224.5 176.84,-221 176.84,-228"/>
</a>
</g>
</g>
<!-- Node22 -->
<g id="Node000022" class="node">
<title>Node22</title>
<g id="a_Node000022"><a xlink:href="namespaceAP__HAL.html#a77dffbb18891996280308e21316ec186" target="_top" xlink:title=" ">
<polygon fill="white" stroke="#666666" points="300.5,-191 213.5,-191 213.5,-172 300.5,-172 300.5,-191"/>
<text text-anchor="middle" x="257" y="-179" font-family="Helvetica,sans-Serif" font-size="10.00">AP_HAL::millis</text>
</a>
</g>
</g>
<!-- Node1&#45;&gt;Node22 -->
<g id="edge26_Node000001_Node000022" class="edge">
<title>Node1&#45;&gt;Node22</title>
<g id="a_edge26_Node000001_Node000022"><a xlink:title=" ">
<path fill="none" stroke="#63b8ff" d="M139.28,-209.46C161.26,-204.2 185.62,-198.36 206.38,-193.39"/>
<polygon fill="#63b8ff" stroke="#63b8ff" points="207.34,-196.76 216.25,-191.02 205.71,-189.95 207.34,-196.76"/>
</a>
</g>
</g>
<!-- Node29 -->
<g id="Node000029" class="node">
<title>Node29</title>
<g id="a_Node000029"><a xlink:href="classVector3.html#adf1769d5ee5df2f8585df2f540fa5efe" target="_top" xlink:title=" ">
<polygon fill="white" stroke="#666666" points="297,-154 217,-154 217,-135 297,-135 297,-154"/>
<text text-anchor="middle" x="257" y="-142" font-family="Helvetica,sans-Serif" font-size="10.00">Vector3::zero</text>
</a>
</g>
</g>
<!-- Node1&#45;&gt;Node29 -->
<g id="edge33_Node000001_Node000029" class="edge">
<title>Node1&#45;&gt;Node29</title>
<g id="a_edge33_Node000001_Node000029"><a xlink:title=" ">
<path fill="none" stroke="#63b8ff" d="M99.84,-209.49C121.67,-195.97 155.54,-176.3 187,-163.5 193.34,-160.92 200.15,-158.57 206.93,-156.47"/>
<polygon fill="#63b8ff" stroke="#63b8ff" points="208.17,-159.75 216.78,-153.58 206.2,-153.04 208.17,-159.75"/>
</a>
</g>
</g>
<!-- Node3 -->
<g id="Node000003" class="node">
<title>Node3</title>
<g id="a_Node000003"><a xlink:href="classAP__AHRS.html#af481888f56602f793fc8d9895d14a8c9" target="_top" xlink:title=" ">
<polygon fill="white" stroke="#666666" points="659,-437 525,-437 525,-418 659,-418 659,-437"/>
<text text-anchor="middle" x="592" y="-425" font-family="Helvetica,sans-Serif" font-size="10.00">AP_AHRS::get_singleton</text>
</a>
</g>
</g>
<!-- Node2&#45;&gt;Node3 -->
<g id="edge2_Node000002_Node000003" class="edge">
<title>Node2&#45;&gt;Node3</title>
<g id="a_edge2_Node000002_Node000003"><a xlink:title=" ">
<path fill="none" stroke="#63b8ff" d="M434.23,-325.11C449.08,-344.16 485,-386.84 525,-409.5 528.18,-411.3 531.56,-412.93 535.03,-414.41"/>
<polygon fill="#63b8ff" stroke="#63b8ff" points="533.79,-417.68 544.38,-417.95 536.27,-411.13 533.79,-417.68"/>
</a>
</g>
</g>
<!-- Node5&#45;&gt;Node2 -->
<g id="edge5_Node000005_Node000002" class="edge">
<title>Node5&#45;&gt;Node2</title>
<g id="a_edge5_Node000005_Node000002"><a xlink:title=" ">
<path fill="none" stroke="#63b8ff" d="M306.56,-239.56C313.54,-242.25 320.55,-245.24 327,-248.5 355.88,-263.07 386.19,-284.96 405.31,-299.72"/>
<polygon fill="#63b8ff" stroke="#63b8ff" points="403.24,-302.54 413.27,-305.94 407.55,-297.02 403.24,-302.54"/>
</a>
</g>
</g>
<!-- Node6 -->
<g id="Node000006" class="node">
<title>Node6</title>
<g id="a_Node000006"><a xlink:href="classAP__AHRS.html#a0ce7fb0e943712be46d2ec00e2c7e7de" target="_top" xlink:title=" ">
<polygon fill="white" stroke="#666666" points="489,-239.5 363,-239.5 363,-209.5 489,-209.5 489,-239.5"/>
<text text-anchor="start" x="371" y="-227.5" font-family="Helvetica,sans-Serif" font-size="10.00">AP_AHRS::get_relative</text>
<text text-anchor="middle" x="426" y="-216.5" font-family="Helvetica,sans-Serif" font-size="10.00">_position_D_home</text>
</a>
</g>
</g>
<!-- Node5&#45;&gt;Node6 -->
<g id="edge6_Node000005_Node000006" class="edge">
<title>Node5&#45;&gt;Node6</title>
<g id="a_edge6_Node000005_Node000006"><a xlink:title=" ">
<path fill="none" stroke="#63b8ff" d="M327.37,-224.5C335.72,-224.5 344.26,-224.5 352.65,-224.5"/>
<polygon fill="#63b8ff" stroke="#63b8ff" points="352.78,-228 362.78,-224.5 352.78,-221 352.78,-228"/>
</a>
</g>
</g>
<!-- Node7 -->
<g id="Node000007" class="node">
<title>Node7</title>
<g id="a_Node000007"><a xlink:href="classAP__AHRS.html#ace0f7b506770c77053e0c46fc6bf95f9" target="_top" xlink:title=" ">
<polygon fill="white" stroke="#666666" points="653,-308 531,-308 531,-289 653,-289 653,-308"/>
<text text-anchor="middle" x="592" y="-296" font-family="Helvetica,sans-Serif" font-size="10.00">AP_AHRS::_get_origin</text>
</a>
</g>
</g>
<!-- Node6&#45;&gt;Node7 -->
<g id="edge7_Node000006_Node000007" class="edge">
<title>Node6&#45;&gt;Node7</title>
<g id="a_edge7_Node000006_Node000007"><a xlink:title=" ">
<path fill="none" stroke="#63b8ff" d="M450.38,-239.66C469.77,-251.72 498.36,-268.37 525,-279.5 530.5,-281.8 536.36,-283.92 542.24,-285.85"/>
<polygon fill="#63b8ff" stroke="#63b8ff" points="541.51,-289.29 552.09,-288.92 543.59,-282.61 541.51,-289.29"/>
</a>
</g>
</g>
<!-- Node12 -->
<g id="Node000012" class="node">
<title>Node12</title>
<g id="a_Node000012"><a xlink:href="namespaceAP.html#a8aec57eb0b7a79044cbc1f0ca4b75bcf" target="_top" xlink:title=" ">
<polygon fill="white" stroke="#666666" points="620.5,-130 563.5,-130 563.5,-111 620.5,-111 620.5,-130"/>
<text text-anchor="middle" x="592" y="-118" font-family="Helvetica,sans-Serif" font-size="10.00">AP::baro</text>
</a>
</g>
</g>
<!-- Node6&#45;&gt;Node12 -->
<g id="edge13_Node000006_Node000012" class="edge">
<title>Node6&#45;&gt;Node12</title>
<g id="a_edge13_Node000006_Node000012"><a xlink:title=" ">
<path fill="none" stroke="#63b8ff" d="M440.43,-209.35C458.04,-190.37 490.76,-158.09 525,-139.5 533.79,-134.73 543.9,-131.04 553.53,-128.25"/>
<polygon fill="#63b8ff" stroke="#63b8ff" points="554.55,-131.6 563.31,-125.64 552.75,-124.83 554.55,-131.6"/>
</a>
</g>
</g>
<!-- Node14 -->
<g id="Node000014" class="node">
<title>Node14</title>
<g id="a_Node000014"><a xlink:href="classAP__Baro.html#a50ae73cce1699d88638e3dfab4ffd330" target="_top" xlink:title=" ">
<polygon fill="white" stroke="#666666" points="653,-204 531,-204 531,-185 653,-185 653,-204"/>
<text text-anchor="middle" x="592" y="-192" font-family="Helvetica,sans-Serif" font-size="10.00">AP_Baro::get_altitude</text>
</a>
</g>
</g>
<!-- Node6&#45;&gt;Node14 -->
<g id="edge15_Node000006_Node000014" class="edge">
<title>Node6&#45;&gt;Node14</title>
<g id="a_edge15_Node000006_Node000014"><a xlink:title=" ">
<path fill="none" stroke="#63b8ff" d="M489,-213.16C502.08,-210.77 515.89,-208.24 528.97,-205.85"/>
<polygon fill="#63b8ff" stroke="#63b8ff" points="529.61,-209.29 538.82,-204.05 528.35,-202.4 529.61,-209.29"/>
</a>
</g>
</g>
<!-- Node15 -->
<g id="Node000015" class="node">
<title>Node15</title>
<g id="a_Node000015"><a xlink:href="classAP__AHRS.html#a8c6d86329f149416dd092d873345bc7f" target="_top" xlink:title=" ">
<polygon fill="white" stroke="#666666" points="650,-167 534,-167 534,-148 650,-148 650,-167"/>
<text text-anchor="middle" x="592" y="-155" font-family="Helvetica,sans-Serif" font-size="10.00">AP_AHRS::get_home</text>
</a>
</g>
</g>
<!-- Node6&#45;&gt;Node15 -->
<g id="edge17_Node000006_Node000015" class="edge">
<title>Node6&#45;&gt;Node15</title>
<g id="a_edge17_Node000006_Node000015"><a xlink:title=" ">
<path fill="none" stroke="#63b8ff" d="M454.72,-209.3C474.03,-199.12 500.6,-185.9 525,-176.5 530.99,-174.19 537.37,-172.02 543.73,-170.02"/>
<polygon fill="#63b8ff" stroke="#63b8ff" points="545.06,-173.27 553.62,-167.03 543.04,-166.57 545.06,-173.27"/>
</a>
</g>
</g>
<!-- Node16 -->
<g id="Node000016" class="node">
<title>Node16</title>
<g id="a_Node000016"><a xlink:href="classAP__AHRS.html#a62cff9296af811471d4bdebeebddc8ad" target="_top" xlink:title=" ">
<polygon fill="white" stroke="#666666" points="655,-270.5 529,-270.5 529,-240.5 655,-240.5 655,-270.5"/>
<text text-anchor="start" x="537" y="-258.5" font-family="Helvetica,sans-Serif" font-size="10.00">AP_AHRS::get_relative</text>
<text text-anchor="middle" x="592" y="-247.5" font-family="Helvetica,sans-Serif" font-size="10.00">_position_D_origin</text>
</a>
</g>
</g>
<!-- Node6&#45;&gt;Node16 -->
<g id="edge18_Node000006_Node000016" class="edge">
<title>Node6&#45;&gt;Node16</title>
<g id="a_edge18_Node000006_Node000016"><a xlink:title=" ">
<path fill="none" stroke="#63b8ff" d="M489,-236.22C498.8,-238.07 509,-240 519,-241.89"/>
<polygon fill="#63b8ff" stroke="#63b8ff" points="518.43,-245.35 528.91,-243.76 519.74,-238.47 518.43,-245.35"/>
</a>
</g>
</g>
<!-- Node17 -->
<g id="Node000017" class="node">
<title>Node17</title>
<g id="a_Node000017"><a xlink:href="namespaceAP.html#ae6eeec356455220f913e47e323057cd5" target="_top" xlink:title=" ">
<polygon fill="white" stroke="#666666" points="618.5,-93 565.5,-93 565.5,-74 618.5,-74 618.5,-93"/>
<text text-anchor="middle" x="592" y="-81" font-family="Helvetica,sans-Serif" font-size="10.00">AP::gps</text>
</a>
</g>
</g>
<!-- Node6&#45;&gt;Node17 -->
<g id="edge20_Node000006_Node000017" class="edge">
<title>Node6&#45;&gt;Node17</title>
<g id="a_edge20_Node000006_Node000017"><a xlink:title=" ">
<path fill="none" stroke="#63b8ff" d="M439.44,-209.43C452.03,-194.15 471.99,-169.78 489,-148.5 505.21,-128.22 503.48,-117.02 525,-102.5 534.06,-96.39 545.1,-92.21 555.54,-89.38"/>
<polygon fill="#63b8ff" stroke="#63b8ff" points="556.36,-92.78 565.27,-87.05 554.73,-85.97 556.36,-92.78"/>
</a>
</g>
</g>
<!-- Node19 -->
<g id="Node000019" class="node">
<title>Node19</title>
<g id="a_Node000019"><a xlink:href="classAP__GPS.html#ab1da3f2cdc163164cfee43b3248821ed" target="_top" xlink:title=" ">
<polygon fill="white" stroke="#666666" points="641.5,-400 542.5,-400 542.5,-381 641.5,-381 641.5,-400"/>
<text text-anchor="middle" x="592" y="-388" font-family="Helvetica,sans-Serif" font-size="10.00">AP_GPS::location</text>
</a>
</g>
</g>
<!-- Node6&#45;&gt;Node19 -->
<g id="edge22_Node000006_Node000019" class="edge">
<title>Node6&#45;&gt;Node19</title>
<g id="a_edge22_Node000006_Node000019"><a xlink:title=" ">
<path fill="none" stroke="#63b8ff" d="M441.78,-239.53C455.2,-253.68 474.97,-275.88 489,-297.5 509.13,-328.51 496.6,-348.83 525,-372.5 527.55,-374.63 530.34,-376.51 533.28,-378.17"/>
<polygon fill="#63b8ff" stroke="#63b8ff" points="531.91,-381.39 542.45,-382.5 534.9,-375.06 531.91,-381.39"/>
</a>
</g>
</g>
<!-- Node20 -->
<g id="Node000020" class="node">
<title>Node20</title>
<g id="a_Node000020"><a xlink:href="classAP__GPS.html#ac22b61d2e6cf0b6ff647173ea336de01" target="_top" xlink:title="Query GPS status.">
<polygon fill="white" stroke="#666666" points="637,-363 547,-363 547,-344 637,-344 637,-363"/>
<text text-anchor="middle" x="592" y="-351" font-family="Helvetica,sans-Serif" font-size="10.00">AP_GPS::status</text>
</a>
</g>
</g>
<!-- Node6&#45;&gt;Node20 -->
<g id="edge23_Node000006_Node000020" class="edge">
<title>Node6&#45;&gt;Node20</title>
<g id="a_edge23_Node000006_Node000020"><a xlink:title=" ">
<path fill="none" stroke="#63b8ff" d="M440.13,-239.84C465.6,-269.52 519.68,-332.19 525,-335.5 528.85,-337.9 533.01,-339.98 537.32,-341.78"/>
<polygon fill="#63b8ff" stroke="#63b8ff" points="536.3,-345.14 546.89,-345.32 538.73,-338.57 536.3,-345.14"/>
</a>
</g>
</g>
<!-- Node7&#45;&gt;Node7 -->
<g id="edge8_Node000007_Node000007" class="edge">
<title>Node7&#45;&gt;Node7</title>
<g id="a_edge8_Node000007_Node000007"><a xlink:title=" ">
<path fill="none" stroke="#63b8ff" d="M566.41,-308.08C553.97,-316.73 562.5,-326 592,-326 611.36,-326 621.69,-322.01 622.99,-316.82"/>
<polygon fill="#63b8ff" stroke="#63b8ff" points="625.82,-314.75 617.59,-308.08 619.87,-318.43 625.82,-314.75"/>
</a>
</g>
</g>
<!-- Node8 -->
<g id="Node000008" class="node">
<title>Node8</title>
<g id="a_Node000008"><a xlink:href="classAP__AHRS.html#a13dcf78333b50371c176bf5b6be77251" target="_top" xlink:title=" ">
<polygon fill="white" stroke="#666666" points="844,-265 695,-265 695,-246 844,-246 844,-265"/>
<text text-anchor="middle" x="769.5" y="-253" font-family="Helvetica,sans-Serif" font-size="10.00">AP_AHRS::active_EKF_type</text>
</a>
</g>
</g>
<!-- Node7&#45;&gt;Node8 -->
<g id="edge9_Node000007_Node000008" class="edge">
<title>Node7&#45;&gt;Node8</title>
<g id="a_edge9_Node000007_Node000008"><a xlink:title=" ">
<path fill="none" stroke="#63b8ff" d="M631.95,-288.96C657.85,-282.61 692.07,-274.23 719.78,-267.44"/>
<polygon fill="#63b8ff" stroke="#63b8ff" points="720.78,-270.8 729.66,-265.02 719.11,-264 720.78,-270.8"/>
</a>
</g>
</g>
<!-- Node9 -->
<g id="Node000009" class="node">
<title>Node9</title>
<g id="a_Node000009"><a xlink:href="classAP__AHRS.html#abf9dc928e3f13d54d202d047bab70651" target="_top" xlink:title=" ">
<polygon fill="white" stroke="#666666" points="824.5,-302 714.5,-302 714.5,-283 824.5,-283 824.5,-302"/>
<text text-anchor="middle" x="769.5" y="-290" font-family="Helvetica,sans-Serif" font-size="10.00">AP_AHRS::ekf_type</text>
</a>
</g>
</g>
<!-- Node7&#45;&gt;Node9 -->
<g id="edge10_Node000007_Node000009" class="edge">
<title>Node7&#45;&gt;Node9</title>
<g id="a_edge10_Node000007_Node000009"><a xlink:title=" ">
<path fill="none" stroke="#63b8ff" d="M653.4,-296.44C669.82,-295.87 687.66,-295.26 704.29,-294.7"/>
<polygon fill="#63b8ff" stroke="#63b8ff" points="704.58,-298.19 714.46,-294.35 704.34,-291.19 704.58,-298.19"/>
</a>
</g>
</g>
<!-- Node11 -->
<g id="Node000011" class="node">
<title>Node11</title>
<g id="a_Node000011"><a xlink:href="classAP__HAL_1_1Util.html#a287a2b82fa30b92c8d52aad61d4d27b7" target="_top" xlink:title=" ">
<polygon fill="white" stroke="#666666" points="830.5,-350.5 708.5,-350.5 708.5,-320.5 830.5,-320.5 830.5,-350.5"/>
<text text-anchor="start" x="716.5" y="-338.5" font-family="Helvetica,sans-Serif" font-size="10.00">AP_HAL::Util::get_soft</text>
<text text-anchor="middle" x="769.5" y="-327.5" font-family="Helvetica,sans-Serif" font-size="10.00">_armed</text>
</a>
</g>
</g>
<!-- Node7&#45;&gt;Node11 -->
<g id="edge12_Node000007_Node000011" class="edge">
<title>Node7&#45;&gt;Node11</title>
<g id="a_edge12_Node000007_Node000011"><a xlink:title=" ">
<path fill="none" stroke="#63b8ff" d="M638.2,-308.03C656.52,-311.89 678.12,-316.45 698.41,-320.72"/>
<polygon fill="#63b8ff" stroke="#63b8ff" points="697.73,-324.16 708.24,-322.8 699.17,-317.31 697.73,-324.16"/>
</a>
</g>
</g>
<!-- Node10 -->
<g id="Node000010" class="node">
<title>Node10</title>
<g id="a_Node000010"><a xlink:href="classAP__AHRS.html#ab6e2d39bc4cee69c6532549694d694cd" target="_top" xlink:title=" ">
<polygon fill="white" stroke="#666666" points="1029,-302 880,-302 880,-283 1029,-283 1029,-302"/>
<text text-anchor="middle" x="954.5" y="-290" font-family="Helvetica,sans-Serif" font-size="10.00">AP_AHRS::always_use_EKF</text>
</a>
</g>
</g>
<!-- Node9&#45;&gt;Node10 -->
<g id="edge11_Node000009_Node000010" class="edge">
<title>Node9&#45;&gt;Node10</title>
<g id="a_edge11_Node000009_Node000010"><a xlink:title=" ">
<path fill="none" stroke="#63b8ff" d="M824.91,-292.5C838.95,-292.5 854.39,-292.5 869.55,-292.5"/>
<polygon fill="#63b8ff" stroke="#63b8ff" points="869.99,-296 879.99,-292.5 869.99,-289 869.99,-296"/>
</a>
</g>
</g>
<!-- Node13 -->
<g id="Node000013" class="node">
<title>Node13</title>
<g id="a_Node000013"><a xlink:href="classAP__Baro.html#af6c560031f4ddc5c21bfad92c8dd5a8a" target="_top" xlink:title=" ">
<polygon fill="white" stroke="#666666" points="834,-130 705,-130 705,-111 834,-111 834,-130"/>
<text text-anchor="middle" x="769.5" y="-118" font-family="Helvetica,sans-Serif" font-size="10.00">AP_Baro::get_singleton</text>
</a>
</g>
</g>
<!-- Node12&#45;&gt;Node13 -->
<g id="edge14_Node000012_Node000013" class="edge">
<title>Node12&#45;&gt;Node13</title>
<g id="a_edge14_Node000012_Node000013"><a xlink:title=" ">
<path fill="none" stroke="#63b8ff" d="M620.81,-120.5C640.69,-120.5 668.43,-120.5 694.51,-120.5"/>
<polygon fill="#63b8ff" stroke="#63b8ff" points="694.79,-124 704.79,-120.5 694.79,-117 694.79,-124"/>
</a>
</g>
</g>
<!-- Node14&#45;&gt;Node14 -->
<g id="edge16_Node000014_Node000014" class="edge">
<title>Node14&#45;&gt;Node14</title>
<g id="a_edge16_Node000014_Node000014"><a xlink:title=" ">
<path fill="none" stroke="#63b8ff" d="M566.41,-204.08C553.97,-212.73 562.5,-222 592,-222 611.36,-222 621.69,-218.01 622.99,-212.82"/>
<polygon fill="#63b8ff" stroke="#63b8ff" points="625.82,-210.75 617.59,-204.08 619.87,-214.43 625.82,-210.75"/>
</a>
</g>
</g>
<!-- Node16&#45;&gt;Node8 -->
<g id="edge19_Node000016_Node000008" class="edge">
<title>Node16&#45;&gt;Node8</title>
<g id="a_edge19_Node000016_Node000008"><a xlink:title=" ">
<path fill="none" stroke="#63b8ff" d="M655.37,-255.5C664.87,-255.5 674.82,-255.5 684.69,-255.5"/>
<polygon fill="#63b8ff" stroke="#63b8ff" points="684.93,-259 694.93,-255.5 684.93,-252 684.93,-259"/>
</a>
</g>
</g>
<!-- Node18 -->
<g id="Node000018" class="node">
<title>Node18</title>
<g id="a_Node000018"><a xlink:href="classAP__GPS.html#a8c15102b003581f2f84119ea84ad47c3" target="_top" xlink:title=" ">
<polygon fill="white" stroke="#666666" points="832.5,-93 706.5,-93 706.5,-74 832.5,-74 832.5,-93"/>
<text text-anchor="middle" x="769.5" y="-81" font-family="Helvetica,sans-Serif" font-size="10.00">AP_GPS::get_singleton</text>
</a>
</g>
</g>
<!-- Node17&#45;&gt;Node18 -->
<g id="edge21_Node000017_Node000018" class="edge">
<title>Node17&#45;&gt;Node18</title>
<g id="a_edge21_Node000017_Node000018"><a xlink:title=" ">
<path fill="none" stroke="#63b8ff" d="M618.52,-83.5C638.92,-83.5 668.58,-83.5 696.14,-83.5"/>
<polygon fill="#63b8ff" stroke="#63b8ff" points="696.18,-87 706.18,-83.5 696.18,-80 696.18,-87"/>
</a>
</g>
</g>
<!-- Node21 -->
<g id="Node000021" class="node">
<title>Node21</title>
<g id="a_Node000021"><a xlink:href="classAP__GPS.html#a23a9fce42abaf8f53d5a3f64c84461e7" target="_top" xlink:title=" ">
<polygon fill="white" stroke="#666666" points="814.5,-388 724.5,-388 724.5,-369 814.5,-369 814.5,-388"/>
<text text-anchor="middle" x="769.5" y="-376" font-family="Helvetica,sans-Serif" font-size="10.00">AP_GPS::status</text>
</a>
</g>
</g>
<!-- Node20&#45;&gt;Node21 -->
<g id="edge24_Node000020_Node000021" class="edge">
<title>Node20&#45;&gt;Node21</title>
<g id="a_edge24_Node000020_Node000021"><a xlink:title=" ">
<path fill="none" stroke="#63b8ff" d="M637.29,-359.81C660.67,-363.14 689.56,-367.26 714.28,-370.78"/>
<polygon fill="#63b8ff" stroke="#63b8ff" points="713.83,-374.25 724.23,-372.19 714.82,-367.32 713.83,-374.25"/>
</a>
</g>
</g>
<!-- Node21&#45;&gt;Node21 -->
<g id="edge25_Node000021_Node000021" class="edge">
<title>Node21&#45;&gt;Node21</title>
<g id="a_edge25_Node000021_Node000021"><a xlink:title=" ">
<path fill="none" stroke="#63b8ff" d="M742.37,-388.08C729.18,-396.73 738.22,-406 769.5,-406 790.52,-406 801.5,-401.82 802.43,-396.45"/>
<polygon fill="#63b8ff" stroke="#63b8ff" points="805.2,-394.3 796.63,-388.08 799.45,-398.29 805.2,-394.3"/>
</a>
</g>
</g>
<!-- Node23 -->
<g id="Node000023" class="node">
<title>Node23</title>
<g id="a_Node000023"><a xlink:href="hrt_8c.html#a1295f128f60d29874243b5733c4db025" target="_top" xlink:title=" ">
<polygon fill="white" stroke="#666666" points="463,-139 389,-139 389,-120 463,-120 463,-139"/>
<text text-anchor="middle" x="426" y="-127" font-family="Helvetica,sans-Serif" font-size="10.00">hrt_millis32</text>
</a>
</g>
</g>
<!-- Node22&#45;&gt;Node23 -->
<g id="edge27_Node000022_Node000023" class="edge">
<title>Node22&#45;&gt;Node23</title>
<g id="a_edge27_Node000022_Node000023"><a xlink:title=" ">
<path fill="none" stroke="#63b8ff" d="M296.83,-171.94C306.72,-169.35 317.29,-166.45 327,-163.5 348.04,-157.12 371.29,-149.09 389.87,-142.44"/>
<polygon fill="#63b8ff" stroke="#63b8ff" points="391.17,-145.69 399.39,-139.01 388.79,-139.11 391.17,-145.69"/>
</a>
</g>
</g>
<!-- Node24 -->
<g id="Node000024" class="node">
<title>Node24</title>
<g id="a_Node000024"><a xlink:href="hrt_8c.html#a7dd7d90aadd8f76f26da7d5abfad6fe8" target="_top" xlink:title=" ">
<polygon fill="white" stroke="#666666" points="629,-56 555,-56 555,-37 629,-37 629,-56"/>
<text text-anchor="middle" x="592" y="-44" font-family="Helvetica,sans-Serif" font-size="10.00">hrt_millis64</text>
</a>
</g>
</g>
<!-- Node23&#45;&gt;Node24 -->
<g id="edge28_Node000023_Node000024" class="edge">
<title>Node23&#45;&gt;Node24</title>
<g id="a_edge28_Node000023_Node000024"><a xlink:title=" ">
<path fill="none" stroke="#63b8ff" d="M438.99,-119.95C456.8,-106.18 491.74,-80.73 525,-65.5 531.26,-62.63 538.06,-60.09 544.84,-57.87"/>
<polygon fill="#63b8ff" stroke="#63b8ff" points="546.14,-61.14 554.67,-54.86 544.09,-54.44 546.14,-61.14"/>
</a>
</g>
</g>
<!-- Node25 -->
<g id="Node000025" class="node">
<title>Node25</title>
<g id="a_Node000025"><a xlink:href="hrt_8c.html#a152c3348a8e83f2dfe35b44cc2e30362" target="_top" xlink:title=" ">
<polygon fill="white" stroke="#666666" points="809.5,-56 729.5,-56 729.5,-37 809.5,-37 809.5,-56"/>
<text text-anchor="middle" x="769.5" y="-44" font-family="Helvetica,sans-Serif" font-size="10.00">hrt_micros64</text>
</a>
</g>
</g>
<!-- Node24&#45;&gt;Node25 -->
<g id="edge29_Node000024_Node000025" class="edge">
<title>Node24&#45;&gt;Node25</title>
<g id="a_edge29_Node000024_Node000025"><a xlink:title=" ">
<path fill="none" stroke="#63b8ff" d="M629.36,-46.5C655.38,-46.5 690.71,-46.5 719.26,-46.5"/>
<polygon fill="#63b8ff" stroke="#63b8ff" points="719.44,-50 729.44,-46.5 719.44,-43 719.44,-50"/>
</a>
</g>
</g>
<!-- Node28 -->
<g id="Node000028" class="node">
<title>Node28</title>
<g id="a_Node000028"><a xlink:href="div1000_8h.html#aece9e7f123414c41d0426fbadca097d8" target="_top" xlink:title=" ">
<polygon fill="white" stroke="#666666" points="815.5,-19 723.5,-19 723.5,0 815.5,0 815.5,-19"/>
<text text-anchor="middle" x="769.5" y="-7" font-family="Helvetica,sans-Serif" font-size="10.00">uint64_div1000</text>
</a>
</g>
</g>
<!-- Node24&#45;&gt;Node28 -->
<g id="edge32_Node000024_Node000028" class="edge">
<title>Node24&#45;&gt;Node28</title>
<g id="a_edge32_Node000024_Node000028"><a xlink:title=" ">
<path fill="none" stroke="#63b8ff" d="M629.36,-38.83C653.69,-33.71 686.14,-26.86 713.59,-21.08"/>
<polygon fill="#63b8ff" stroke="#63b8ff" points="714.38,-24.49 723.45,-19 712.94,-17.64 714.38,-24.49"/>
</a>
</g>
</g>
<!-- Node26 -->
<g id="Node000026" class="node">
<title>Node26</title>
<g id="a_Node000026"><a xlink:href="hrt_8c.html#a5b4ffc7ff86bd5b893c4a98834e80200" target="_top" xlink:title=" ">
<polygon fill="white" stroke="#666666" points="996,-37 913,-37 913,-18 996,-18 996,-37"/>
<text text-anchor="middle" x="954.5" y="-25" font-family="Helvetica,sans-Serif" font-size="10.00">hrt_micros64I</text>
</a>
</g>
</g>
<!-- Node25&#45;&gt;Node26 -->
<g id="edge30_Node000025_Node000026" class="edge">
<title>Node25&#45;&gt;Node26</title>
<g id="a_edge30_Node000025_Node000026"><a xlink:title=" ">
<path fill="none" stroke="#63b8ff" d="M809.76,-42.42C836.91,-39.61 873.29,-35.83 902.65,-32.78"/>
<polygon fill="#63b8ff" stroke="#63b8ff" points="903.14,-36.25 912.72,-31.73 902.41,-29.29 903.14,-36.25"/>
</a>
</g>
</g>
<!-- Node27 -->
<g id="Node000027" class="node">
<title>Node27</title>
<g id="a_Node000027"><a xlink:href="hrt_8c.html#a723fef85be7bacb834af35445a891c18" target="_top" xlink:title=" ">
<polygon fill="white" stroke="#666666" points="985.5,-74 923.5,-74 923.5,-55 985.5,-55 985.5,-74"/>
<text text-anchor="middle" x="954.5" y="-62" font-family="Helvetica,sans-Serif" font-size="10.00">is_locked</text>
</a>
</g>
</g>
<!-- Node25&#45;&gt;Node27 -->
<g id="edge31_Node000025_Node000027" class="edge">
<title>Node25&#45;&gt;Node27</title>
<g id="a_edge31_Node000025_Node000027"><a xlink:title=" ">
<path fill="none" stroke="#63b8ff" d="M809.76,-50.36C840.33,-53.37 882.6,-57.53 913.39,-60.55"/>
<polygon fill="#63b8ff" stroke="#63b8ff" points="913.06,-64.04 923.35,-61.53 913.75,-57.07 913.06,-64.04"/>
</a>
</g>
</g>
</g>
</svg>
