<?xml version="1.0" encoding="UTF-8" standalone="no"?>
<!DOCTYPE svg PUBLIC "-//W3C//DTD SVG 1.1//EN"
 "http://www.w3.org/Graphics/SVG/1.1/DTD/svg11.dtd">
<!-- Generated by graphviz version 2.43.0 (0)
 -->
<!-- Title: MAVLink_routing::send_to_components Pages: 1 -->
<!--zoomable 100 -->

<svg id="main" version="1.1" xmlns="http://www.w3.org/2000/svg" xmlns:xlink="http://www.w3.org/1999/xlink" xml:space="preserve" onload="init(evt)">
<style type="text/css"><![CDATA[
.node, .edge {opacity: 0.7;}
.node.selected, .edge.selected {opacity: 1;}
.edge:hover path { stroke: red; }
.edge:hover polygon { stroke: red; fill: red; }
]]></style>

<defs>
  <circle id="rim" cx="0" cy="0" r="7"/>
  <circle id="rim2" cx="0" cy="0" r="3.5"/>
  <g id="zoomPlus">
    <use xlink:href="#rim" fill="#404040"><set attributeName="fill" to="#808080" begin="zoomplus.mouseover" end="zoomplus.mouseout"/></use>
    <path d="M-4,0h8M0,-4v8" fill="none" stroke="white" stroke-width="1.5" pointer-events="none"/>
  </g>
  <g id="zoomMin">
    <use xlink:href="#rim" fill="#404040"><set attributeName="fill" to="#808080" begin="zoomminus.mouseover" end="zoomminus.mouseout"/></use>
    <path d="M-4,0h8" fill="none" stroke="white" stroke-width="1.5" pointer-events="none"/>
  </g>
  <g id="arrowUp" transform="translate(30 24)">
    <use xlink:href="#rim"/>
    <path pointer-events="none" fill="none" stroke="white" stroke-width="1.5" d="M0,-3.0v7 M-2.5,-0.5L0,-3.0L2.5,-0.5"/>
  </g>
  <g id="arrowRight" transform="rotate(90) translate(36 -43)">
    <use xlink:href="#rim"/>
    <path pointer-events="none" fill="none" stroke="white" stroke-width="1.5" d="M0,-3.0v7 M-2.5,-0.5L0,-3.0L2.5,-0.5"/>
  </g>
  <g id="arrowDown" transform="rotate(180) translate(-30 -48)">
    <use xlink:href="#rim"/>
    <path pointer-events="none" fill="none" stroke="white" stroke-width="1.5" d="M0,-3.0v7 M-2.5,-0.5L0,-3.0L2.5,-0.5"/>
  </g>
  <g id="arrowLeft" transform="rotate(270) translate(-36 17)">
    <use xlink:href="#rim"/>
    <path pointer-events="none" fill="none" stroke="white" stroke-width="1.5" d="M0,-3.0v7 M-2.5,-0.5L0,-3.0L2.5,-0.5"/>
  </g>
  <g id="resetDef">
    <use xlink:href="#rim2" fill="#404040"><set attributeName="fill" to="#808080" begin="reset.mouseover" end="reset.mouseout"/></use>
  </g>
</defs>
<script type="application/ecmascript">
var viewWidth = 1573;
var viewHeight = 100;
var sectionId = 'dynsection-12';
</script>
<script type="application/ecmascript" xlink:href="svg.min.js"/>
<svg id="graph" class="graph">
<g id="viewport">
<title>MAVLink_routing::send_to_components</title>
<!-- Node1 -->
<g id="Node000001" class="node">
<title>Node1</title>
<g id="a_Node000001"><a xlink:title=" ">
<polygon fill="#999999" stroke="#666666" points="1565,-74 1437,-74 1437,-44 1565,-44 1565,-74"/>
<text text-anchor="start" x="1445" y="-62" font-family="Helvetica,sans-Serif" font-size="10.00">MAVLink_routing::send</text>
<text text-anchor="middle" x="1501" y="-51" font-family="Helvetica,sans-Serif" font-size="10.00">_to_components</text>
</a>
</g>
</g>
<!-- Node1&#45;&gt;Node1 -->
<g id="edge13_Node000001_Node000001" class="edge">
<title>Node1&#45;&gt;Node1</title>
<g id="a_edge13_Node000001_Node000001"><a xlink:title=" ">
<path fill="none" stroke="#63b8ff" d="M1529.71,-84.6C1525.78,-88.97 1516.21,-92 1501,-92 1475.38,-92 1465.77,-83.41 1472.17,-74.28"/>
<polygon fill="#63b8ff" stroke="#63b8ff" points="1533.21,-84.32 1529.83,-74.28 1526.21,-84.23 1533.21,-84.32"/>
</a>
</g>
</g>
<!-- Node2 -->
<g id="Node000002" class="node">
<title>Node2</title>
<g id="a_Node000002"><a xlink:href="classGCS__MAVLINK.html#a6345980b9c5a30fed19c60870c24ae6b" target="_top" xlink:title=" ">
<polygon fill="white" stroke="#666666" points="1401,-74 1270,-74 1270,-44 1401,-44 1401,-74"/>
<text text-anchor="start" x="1278" y="-62" font-family="Helvetica,sans-Serif" font-size="10.00">GCS_MAVLINK::send_to</text>
<text text-anchor="middle" x="1335.5" y="-51" font-family="Helvetica,sans-Serif" font-size="10.00">_components</text>
</a>
</g>
</g>
<!-- Node1&#45;&gt;Node2 -->
<g id="edge1_Node000001_Node000002" class="edge">
<title>Node1&#45;&gt;Node2</title>
<g id="a_edge1_Node000001_Node000002"><a xlink:title=" ">
<path fill="none" stroke="#63b8ff" d="M1426.55,-59C1418.08,-59 1409.5,-59 1401.17,-59"/>
<polygon fill="#63b8ff" stroke="#63b8ff" points="1426.79,-62.5 1436.79,-59 1426.79,-55.5 1426.79,-62.5"/>
</a>
</g>
</g>
<!-- Node3 -->
<g id="Node000003" class="node">
<title>Node3</title>
<g id="a_Node000003"><a xlink:href="classAP__BattMonitor.html#a2bcc8d2b141d6b8603495deb7bdbabcf" target="_top" xlink:title=" ">
<polygon fill="white" stroke="#666666" points="1234,-90.5 1048,-90.5 1048,-71.5 1234,-71.5 1234,-90.5"/>
<text text-anchor="middle" x="1141" y="-78.5" font-family="Helvetica,sans-Serif" font-size="10.00">AP_BattMonitor::checkPoweringOff</text>
</a>
</g>
</g>
<!-- Node2&#45;&gt;Node3 -->
<g id="edge2_Node000002_Node000003" class="edge">
<title>Node2&#45;&gt;Node3</title>
<g id="a_edge2_Node000002_Node000003"><a xlink:title=" ">
<path fill="none" stroke="#63b8ff" d="M1259.65,-67.55C1248.38,-68.84 1236.7,-70.18 1225.27,-71.48"/>
<polygon fill="#63b8ff" stroke="#63b8ff" points="1260.33,-71 1269.86,-66.39 1259.53,-64.05 1260.33,-71"/>
</a>
</g>
</g>
<!-- Node5 -->
<g id="Node000005" class="node">
<title>Node5</title>
<g id="a_Node000005"><a xlink:href="classGCS__MAVLINK.html#ab9d8f010a30a30ef6223fa66f1f7ebe4" target="_top" xlink:title=" ">
<polygon fill="white" stroke="#666666" points="1203.5,-53 1078.5,-53 1078.5,-23 1203.5,-23 1203.5,-53"/>
<text text-anchor="start" x="1086.5" y="-41" font-family="Helvetica,sans-Serif" font-size="10.00">GCS_MAVLINK::handle</text>
<text text-anchor="middle" x="1141" y="-30" font-family="Helvetica,sans-Serif" font-size="10.00">_control_high_latency</text>
</a>
</g>
</g>
<!-- Node2&#45;&gt;Node5 -->
<g id="edge4_Node000002_Node000005" class="edge">
<title>Node2&#45;&gt;Node5</title>
<g id="a_edge4_Node000002_Node000005"><a xlink:title=" ">
<path fill="none" stroke="#63b8ff" d="M1259.68,-50.84C1241.1,-48.81 1221.39,-46.66 1203.53,-44.71"/>
<polygon fill="#63b8ff" stroke="#63b8ff" points="1259.54,-54.34 1269.86,-51.95 1260.3,-47.38 1259.54,-54.34"/>
</a>
</g>
</g>
<!-- Node4 -->
<g id="Node000004" class="node">
<title>Node4</title>
<g id="a_Node000004"><a xlink:href="classAP__BattMonitor.html#a2275643d2998063448035e89cba6f549" target="_top" xlink:title="Read the battery voltage and current for all batteries. Should be called at 10hz.">
<polygon fill="white" stroke="#666666" points="1009,-90.5 889,-90.5 889,-71.5 1009,-71.5 1009,-90.5"/>
<text text-anchor="middle" x="949" y="-78.5" font-family="Helvetica,sans-Serif" font-size="10.00">AP_BattMonitor::read</text>
</a>
</g>
</g>
<!-- Node3&#45;&gt;Node4 -->
<g id="edge3_Node000003_Node000004" class="edge">
<title>Node3&#45;&gt;Node4</title>
<g id="a_edge3_Node000003_Node000004"><a xlink:title=" ">
<path fill="none" stroke="#63b8ff" d="M1037.62,-81C1027.89,-81 1018.26,-81 1009.15,-81"/>
<polygon fill="#63b8ff" stroke="#63b8ff" points="1037.78,-84.5 1047.78,-81 1037.78,-77.5 1037.78,-84.5"/>
</a>
</g>
</g>
<!-- Node6 -->
<g id="Node000006" class="node">
<title>Node6</title>
<g id="a_Node000006"><a xlink:href="classGCS__MAVLINK.html#aad725bb94f05a7304fba0e90ae63b60b" target="_top" xlink:title=" ">
<polygon fill="white" stroke="#666666" points="1012,-53 886,-53 886,-23 1012,-23 1012,-53"/>
<text text-anchor="start" x="894" y="-41" font-family="Helvetica,sans-Serif" font-size="10.00">GCS_MAVLINK::handle</text>
<text text-anchor="middle" x="949" y="-30" font-family="Helvetica,sans-Serif" font-size="10.00">_command_int_packet</text>
</a>
</g>
</g>
<!-- Node5&#45;&gt;Node6 -->
<g id="edge5_Node000005_Node000006" class="edge">
<title>Node5&#45;&gt;Node6</title>
<g id="a_edge5_Node000005_Node000006"><a xlink:title=" ">
<path fill="none" stroke="#63b8ff" d="M1068.19,-38C1049.7,-38 1029.97,-38 1012.03,-38"/>
<polygon fill="#63b8ff" stroke="#63b8ff" points="1068.31,-41.5 1078.31,-38 1068.31,-34.5 1068.31,-41.5"/>
</a>
</g>
</g>
<!-- Node7 -->
<g id="Node000007" class="node">
<title>Node7</title>
<g id="a_Node000007"><a xlink:href="classGCS__MAVLINK.html#ab28430148b209e9c4446c1f168d6dc13" target="_top" xlink:title=" ">
<polygon fill="white" stroke="#666666" points="654,-78 529,-78 529,-48 654,-48 654,-78"/>
<text text-anchor="start" x="537" y="-66" font-family="Helvetica,sans-Serif" font-size="10.00">GCS_MAVLINK::handle</text>
<text text-anchor="middle" x="591.5" y="-55" font-family="Helvetica,sans-Serif" font-size="10.00">_command_int</text>
</a>
</g>
</g>
<!-- Node6&#45;&gt;Node7 -->
<g id="edge6_Node000006_Node000007" class="edge">
<title>Node6&#45;&gt;Node7</title>
<g id="a_edge6_Node000006_Node000007"><a xlink:title=" ">
<path fill="none" stroke="#63b8ff" d="M875.48,-43.1C810.34,-47.68 715.73,-54.33 654.16,-58.66"/>
<polygon fill="#63b8ff" stroke="#63b8ff" points="875.94,-46.58 885.67,-42.38 875.45,-39.59 875.94,-46.58"/>
</a>
</g>
</g>
<!-- Node11 -->
<g id="Node000011" class="node">
<title>Node11</title>
<g id="a_Node000011"><a xlink:href="classGCS__MAVLINK.html#aa87b593b8787bc584f535ab05a10a348" target="_top" xlink:title=" ">
<polygon fill="white" stroke="#666666" points="850,-32 690,-32 690,-2 850,-2 850,-32"/>
<text text-anchor="start" x="698" y="-20" font-family="Helvetica,sans-Serif" font-size="10.00">GCS_MAVLINK::try_command</text>
<text text-anchor="middle" x="770" y="-9" font-family="Helvetica,sans-Serif" font-size="10.00">_long_as_command_int</text>
</a>
</g>
</g>
<!-- Node6&#45;&gt;Node11 -->
<g id="edge10_Node000006_Node000011" class="edge">
<title>Node6&#45;&gt;Node11</title>
<g id="a_edge10_Node000006_Node000011"><a xlink:title=" ">
<path fill="none" stroke="#63b8ff" d="M875.53,-29.4C867.18,-28.41 858.64,-27.4 850.2,-26.4"/>
<polygon fill="#63b8ff" stroke="#63b8ff" points="875.25,-32.89 885.6,-30.6 876.08,-25.94 875.25,-32.89"/>
</a>
</g>
</g>
<!-- Node8 -->
<g id="Node000008" class="node">
<title>Node8</title>
<g id="a_Node000008"><a xlink:href="classGCS__MAVLINK.html#a04524aa4f259e8c03bcfe2d06fc53f62" target="_top" xlink:title=" ">
<polygon fill="white" stroke="#666666" points="493,-54 368,-54 368,-24 493,-24 493,-54"/>
<text text-anchor="start" x="376" y="-42" font-family="Helvetica,sans-Serif" font-size="10.00">GCS_MAVLINK::handle</text>
<text text-anchor="middle" x="430.5" y="-31" font-family="Helvetica,sans-Serif" font-size="10.00">_message</text>
</a>
</g>
</g>
<!-- Node7&#45;&gt;Node8 -->
<g id="edge7_Node000007_Node000008" class="edge">
<title>Node7&#45;&gt;Node8</title>
<g id="a_edge7_Node000007_Node000008"><a xlink:title=" ">
<path fill="none" stroke="#63b8ff" d="M518.41,-52.12C510.01,-50.85 501.5,-49.57 493.26,-48.32"/>
<polygon fill="#63b8ff" stroke="#63b8ff" points="518.16,-55.62 528.57,-53.65 519.21,-48.7 518.16,-55.62"/>
</a>
</g>
</g>
<!-- Node9 -->
<g id="Node000009" class="node">
<title>Node9</title>
<g id="a_Node000009"><a xlink:href="classGCS__MAVLINK.html#a68afd5b3679a046f48da0b4a202bd572" target="_top" xlink:title=" ">
<polygon fill="white" stroke="#666666" points="332,-48.5 162,-48.5 162,-29.5 332,-29.5 332,-48.5"/>
<text text-anchor="middle" x="247" y="-36.5" font-family="Helvetica,sans-Serif" font-size="10.00">GCS_MAVLINK::packetReceived</text>
</a>
</g>
</g>
<!-- Node8&#45;&gt;Node9 -->
<g id="edge8_Node000008_Node000009" class="edge">
<title>Node8&#45;&gt;Node9</title>
<g id="a_edge8_Node000008_Node000009"><a xlink:title=" ">
<path fill="none" stroke="#63b8ff" d="M357.66,-39C349.25,-39 340.6,-39 332.03,-39"/>
<polygon fill="#63b8ff" stroke="#63b8ff" points="357.8,-42.5 367.8,-39 357.8,-35.5 357.8,-42.5"/>
</a>
</g>
</g>
<!-- Node10 -->
<g id="Node000010" class="node">
<title>Node10</title>
<g id="a_Node000010"><a xlink:href="classGCS__MAVLINK.html#ac22097067827164c0c26e7ead36b21e7" target="_top" xlink:title=" ">
<polygon fill="white" stroke="#666666" points="126,-54 0,-54 0,-24 126,-24 126,-54"/>
<text text-anchor="start" x="8" y="-42" font-family="Helvetica,sans-Serif" font-size="10.00">GCS_MAVLINK::update</text>
<text text-anchor="middle" x="63" y="-31" font-family="Helvetica,sans-Serif" font-size="10.00">_receive</text>
</a>
</g>
</g>
<!-- Node9&#45;&gt;Node10 -->
<g id="edge9_Node000009_Node000010" class="edge">
<title>Node9&#45;&gt;Node10</title>
<g id="a_edge9_Node000009_Node000010"><a xlink:title=" ">
<path fill="none" stroke="#63b8ff" d="M151.77,-39C143.12,-39 134.5,-39 126.24,-39"/>
<polygon fill="#63b8ff" stroke="#63b8ff" points="151.93,-42.5 161.93,-39 151.93,-35.5 151.93,-42.5"/>
</a>
</g>
</g>
<!-- Node12 -->
<g id="Node000012" class="node">
<title>Node12</title>
<g id="a_Node000012"><a xlink:href="classGCS__MAVLINK.html#a7f6b8344d6c1a148756206b679a60e73" target="_top" xlink:title=" ">
<polygon fill="white" stroke="#666666" points="654,-30 529,-30 529,0 654,0 654,-30"/>
<text text-anchor="start" x="537" y="-18" font-family="Helvetica,sans-Serif" font-size="10.00">GCS_MAVLINK::handle</text>
<text text-anchor="middle" x="591.5" y="-7" font-family="Helvetica,sans-Serif" font-size="10.00">_command_long</text>
</a>
</g>
</g>
<!-- Node11&#45;&gt;Node12 -->
<g id="edge11_Node000011_Node000012" class="edge">
<title>Node11&#45;&gt;Node12</title>
<g id="a_edge11_Node000011_Node000012"><a xlink:title=" ">
<path fill="none" stroke="#63b8ff" d="M679.7,-15.99C671.1,-15.89 662.51,-15.79 654.26,-15.7"/>
<polygon fill="#63b8ff" stroke="#63b8ff" points="679.75,-19.49 689.78,-16.1 679.83,-12.49 679.75,-19.49"/>
</a>
</g>
</g>
<!-- Node12&#45;&gt;Node8 -->
<g id="edge12_Node000012_Node000008" class="edge">
<title>Node12&#45;&gt;Node8</title>
<g id="a_edge12_Node000012_Node000008"><a xlink:title=" ">
<path fill="none" stroke="#63b8ff" d="M518.41,-25.88C510.01,-27.15 501.5,-28.43 493.26,-29.68"/>
<polygon fill="#63b8ff" stroke="#63b8ff" points="519.21,-29.3 528.57,-24.35 518.16,-22.38 519.21,-29.3"/>
</a>
</g>
</g>
</g>
</svg>

<g id="navigator" transform="translate(0 0)" fill="#404254">
  <rect fill="#f2f5e9" fill-opacity="0.5" stroke="#606060" stroke-width=".5" x="0" y="0" width="60" height="60"/>
  <use id="zoomplus" xlink:href="#zoomPlus" x="17" y="9" onmousedown="handleZoom(evt,'in')"/>
  <use id="zoomminus" xlink:href="#zoomMin" x="42" y="9" onmousedown="handleZoom(evt,'out')"/>
  <use id="reset" xlink:href="#resetDef" x="30" y="36" onmousedown="handleReset()"/>
   <use id="arrowup" xlink:href="#arrowUp" x="0" y="0" onmousedown="handlePan(0,-1)"/>
  <use id="arrowright" xlink:href="#arrowRight" x="0" y="0" onmousedown="handlePan(1,0)"/>
  <use id="arrowdown" xlink:href="#arrowDown" x="0" y="0" onmousedown="handlePan(0,1)"/>
  <use id="arrowleft" xlink:href="#arrowLeft" x="0" y="0" onmousedown="handlePan(-1,0)"/>
</g>
<svg viewBox="0 0 15 15" width="100%" height="30px" preserveAspectRatio="xMaxYMin meet">
 <g id="arrow_out" transform="scale(0.3 0.3)">
  <a xlink:href="classMAVLink__routing_a4057d57d583e0111f02a5465bbb441a6_icgraph_org.svg" target="_base">
   <rect id="button" ry="5" rx="5" y="6" x="6" height="38" width="38"
        fill="#f2f5e9" fill-opacity="0.5" stroke="#606060" stroke-width="1.0"/>
   <path id="arrow"
     d="M 11.500037,31.436501 C 11.940474,20.09759 22.043105,11.32322 32.158766,21.979434 L 37.068811,17.246167 C 37.068811,17.246167 37.088388,32 37.088388,32 L 22.160133,31.978069 C 22.160133,31.978069 26.997745,27.140456 26.997745,27.140456 C 18.528582,18.264221 13.291696,25.230495 11.500037,31.436501 z"
     style="fill:#404040;"/>
  </a>
 </g>
</svg>

<style type='text/css'>
<![CDATA[
[data-mouse-over-selected='false'] { opacity: 0.7; }
[data-mouse-over-selected='true']  { opacity: 1.0; }
]]>
</style>
<script type="application/ecmascript"><![CDATA[
document.addEventListener('DOMContentLoaded', (event) => {
  highlightEdges();
  highlightAdjacentNodes();
});
]]></script>
</svg>
