<?xml version="1.0" encoding="UTF-8" standalone="no"?>
<!DOCTYPE svg PUBLIC "-//W3C//DTD SVG 1.1//EN"
 "http://www.w3.org/Graphics/SVG/1.1/DTD/svg11.dtd">
<!-- Generated by graphviz version 2.43.0 (0)
 -->
<!-- Title: ChibiOS::Scheduler::delay_microseconds_boost Pages: 1 -->
<svg width="489pt" height="124pt"
 viewBox="0.00 0.00 489.00 123.50" xmlns="http://www.w3.org/2000/svg" xmlns:xlink="http://www.w3.org/1999/xlink">
<g id="graph0" class="graph" transform="scale(1 1) rotate(0) translate(4 119.5)">
<title>ChibiOS::Scheduler::delay_microseconds_boost</title>
<!-- Node1 -->
<g id="Node000001" class="node">
<title>Node1</title>
<g id="a_Node000001"><a xlink:title=" ">
<polygon fill="#999999" stroke="#666666" points="155,-67.5 0,-67.5 0,-37.5 155,-37.5 155,-67.5"/>
<text text-anchor="start" x="8" y="-55.5" font-family="Helvetica,sans-Serif" font-size="10.00">ChibiOS::Scheduler</text>
<text text-anchor="middle" x="77.5" y="-44.5" font-family="Helvetica,sans-Serif" font-size="10.00">::delay_microseconds_boost</text>
</a>
</g>
</g>
<!-- Node2 -->
<g id="Node000002" class="node">
<title>Node2</title>
<g id="a_Node000002"><a xlink:href="classChibiOS_1_1Scheduler.html#a332cd2e17889c12f84b469eaf9f24fc8" target="_top" xlink:title=" ">
<polygon fill="white" stroke="#666666" points="313,-115.5 191,-115.5 191,-85.5 313,-85.5 313,-115.5"/>
<text text-anchor="start" x="199" y="-103.5" font-family="Helvetica,sans-Serif" font-size="10.00">ChibiOS::Scheduler</text>
<text text-anchor="middle" x="252" y="-92.5" font-family="Helvetica,sans-Serif" font-size="10.00">::delay_microseconds</text>
</a>
</g>
</g>
<!-- Node1&#45;&gt;Node2 -->
<g id="edge1_Node000001_Node000002" class="edge">
<title>Node1&#45;&gt;Node2</title>
<g id="a_edge1_Node000001_Node000002"><a xlink:title=" ">
<path fill="none" stroke="#63b8ff" d="M132.61,-67.56C149.95,-72.38 169.31,-77.77 187.27,-82.77"/>
<polygon fill="#63b8ff" stroke="#63b8ff" points="186.51,-86.19 197.09,-85.5 188.39,-79.44 186.51,-86.19"/>
</a>
</g>
</g>
<!-- Node3 -->
<g id="Node000003" class="node">
<title>Node3</title>
<g id="a_Node000003"><a xlink:href="classChibiOS_1_1Scheduler.html#a7d57edeaf35ec698eadeee0b82e19350" target="_top" xlink:title=" ">
<polygon fill="white" stroke="#666666" points="306.5,-67.5 197.5,-67.5 197.5,-37.5 306.5,-37.5 306.5,-67.5"/>
<text text-anchor="start" x="205.5" y="-55.5" font-family="Helvetica,sans-Serif" font-size="10.00">ChibiOS::Scheduler</text>
<text text-anchor="middle" x="252" y="-44.5" font-family="Helvetica,sans-Serif" font-size="10.00">::in_main_thread</text>
</a>
</g>
</g>
<!-- Node1&#45;&gt;Node3 -->
<g id="edge2_Node000001_Node000003" class="edge">
<title>Node1&#45;&gt;Node3</title>
<g id="a_edge2_Node000001_Node000003"><a xlink:title=" ">
<path fill="none" stroke="#63b8ff" d="M155.17,-52.5C165.83,-52.5 176.69,-52.5 187.08,-52.5"/>
<polygon fill="#63b8ff" stroke="#63b8ff" points="187.3,-56 197.3,-52.5 187.3,-49 187.3,-56"/>
</a>
</g>
</g>
<!-- Node5 -->
<g id="Node000005" class="node">
<title>Node5</title>
<g id="a_Node000005"><a xlink:href="AP__HAL__ChibiOS_2Scheduler_8cpp.html#afc36a78f0bec9fea35af877068d5c08e" target="_top" xlink:title=" ">
<polygon fill="white" stroke="#666666" points="301,-19 203,-19 203,0 301,0 301,-19"/>
<text text-anchor="middle" x="252" y="-7" font-family="Helvetica,sans-Serif" font-size="10.00">set_high_priority</text>
</a>
</g>
</g>
<!-- Node1&#45;&gt;Node5 -->
<g id="edge4_Node000001_Node000005" class="edge">
<title>Node1&#45;&gt;Node5</title>
<g id="a_edge4_Node000001_Node000005"><a xlink:title=" ">
<path fill="none" stroke="#63b8ff" d="M138.83,-37.46C159.86,-32.22 183.15,-26.41 203.04,-21.46"/>
<polygon fill="#63b8ff" stroke="#63b8ff" points="203.94,-24.84 212.8,-19.02 202.25,-18.04 203.94,-24.84"/>
</a>
</g>
</g>
<!-- Node4 -->
<g id="Node000004" class="node">
<title>Node4</title>
<g id="a_Node000004"><a xlink:href="HAL__ChibiOS__Class_8cpp.html#a60aac67902588404ce77548ebd14bcb7" target="_top" xlink:title=" ">
<polygon fill="white" stroke="#666666" points="464.5,-62 365.5,-62 365.5,-43 464.5,-43 464.5,-62"/>
<text text-anchor="middle" x="415" y="-50" font-family="Helvetica,sans-Serif" font-size="10.00">get_main_thread</text>
</a>
</g>
</g>
<!-- Node3&#45;&gt;Node4 -->
<g id="edge3_Node000003_Node000004" class="edge">
<title>Node3&#45;&gt;Node4</title>
<g id="a_edge3_Node000003_Node000004"><a xlink:title=" ">
<path fill="none" stroke="#63b8ff" d="M306.61,-52.5C322.14,-52.5 339.19,-52.5 355.03,-52.5"/>
<polygon fill="#63b8ff" stroke="#63b8ff" points="355.24,-56 365.24,-52.5 355.24,-49 355.24,-56"/>
</a>
</g>
</g>
<!-- Node6 -->
<g id="Node000006" class="node">
<title>Node6</title>
<g id="a_Node000006"><a xlink:href="HAL__ChibiOS__Class_8cpp.html#a89dfa2ba4c374d3ddf24cad7d58e159a" target="_top" xlink:title=" ">
<polygon fill="white" stroke="#666666" points="481,-19 349,-19 349,0 481,0 481,-19"/>
<text text-anchor="middle" x="415" y="-7" font-family="Helvetica,sans-Serif" font-size="10.00">hal_chibios_set_priority</text>
</a>
</g>
</g>
<!-- Node5&#45;&gt;Node6 -->
<g id="edge5_Node000005_Node000006" class="edge">
<title>Node5&#45;&gt;Node6</title>
<g id="a_edge5_Node000005_Node000006"><a xlink:title=" ">
<path fill="none" stroke="#63b8ff" d="M301.31,-9.5C313.07,-9.5 325.94,-9.5 338.63,-9.5"/>
<polygon fill="#63b8ff" stroke="#63b8ff" points="338.75,-13 348.75,-9.5 338.75,-6 338.75,-13"/>
</a>
</g>
</g>
</g>
</svg>
