<?xml version="1.0" encoding="UTF-8" standalone="no"?>
<!DOCTYPE svg PUBLIC "-//W3C//DTD SVG 1.1//EN"
 "http://www.w3.org/Graphics/SVG/1.1/DTD/svg11.dtd">
<!-- Generated by graphviz version 2.43.0 (0)
 -->
<!-- Title: AP_MotorsMulticopter::set_actuator_with_slew Pages: 1 -->
<svg width="471pt" height="278pt"
 viewBox="0.00 0.00 471.00 278.00" xmlns="http://www.w3.org/2000/svg" xmlns:xlink="http://www.w3.org/1999/xlink">

<svg id="main" version="1.1" xmlns="http://www.w3.org/2000/svg" xmlns:xlink="http://www.w3.org/1999/xlink" xml:space="preserve" onload="init(evt)">
<style type="text/css"><![CDATA[
.node, .edge {opacity: 0.7;}
.node.selected, .edge.selected {opacity: 1;}
.edge:hover path { stroke: red; }
.edge:hover polygon { stroke: red; fill: red; }
]]></style>
<script type="application/ecmascript" xlink:href="svg.min.js"/>
<svg id="graph" class="graph">
<g id="graph0" class="graph" transform="scale(1 1) rotate(0) translate(4 274)">
<title>AP_MotorsMulticopter::set_actuator_with_slew</title>
<!-- Node1 -->
<g id="Node000001" class="node">
<title>Node1</title>
<g id="a_Node000001"><a xlink:title=" ">
<polygon fill="#999999" stroke="#666666" points="463,-150 326,-150 326,-120 463,-120 463,-150"/>
<text text-anchor="start" x="334" y="-138" font-family="Helvetica,sans-Serif" font-size="10.00">AP_MotorsMulticopter</text>
<text text-anchor="middle" x="394.5" y="-127" font-family="Helvetica,sans-Serif" font-size="10.00">::set_actuator_with_slew</text>
</a>
</g>
</g>
<!-- Node2 -->
<g id="Node000002" class="node">
<title>Node2</title>
<g id="a_Node000002"><a xlink:href="classAP__MotorsMulticopter.html#a9979e6b08f73606d6650115b94e73759" target="_top" xlink:title=" ">
<polygon fill="white" stroke="#666666" points="283.5,-270 159.5,-270 159.5,-240 283.5,-240 283.5,-270"/>
<text text-anchor="start" x="167.5" y="-258" font-family="Helvetica,sans-Serif" font-size="10.00">AP_MotorsMulticopter</text>
<text text-anchor="middle" x="221.5" y="-247" font-family="Helvetica,sans-Serif" font-size="10.00">::output_motor_mask</text>
</a>
</g>
</g>
<!-- Node1&#45;&gt;Node2 -->
<g id="edge1_Node000001_Node000002" class="edge">
<title>Node1&#45;&gt;Node2</title>
<g id="a_edge1_Node000001_Node000002"><a xlink:title=" ">
<path fill="none" stroke="#63b8ff" d="M374.11,-157.68C354.72,-179.14 323.08,-210.96 290,-231 284.47,-234.35 278.4,-237.33 272.24,-239.95"/>
<polygon fill="#63b8ff" stroke="#63b8ff" points="376.9,-159.81 380.92,-150.01 371.66,-155.16 376.9,-159.81"/>
</a>
</g>
</g>
<!-- Node4 -->
<g id="Node000004" class="node">
<title>Node4</title>
<g id="a_Node000004"><a xlink:href="classAP__MotorsCoax.html#a461cbe86173b8360279491ac5aeacac7" target="_top" xlink:title=" ">
<polygon fill="white" stroke="#666666" points="287,-222 156,-222 156,-192 287,-192 287,-222"/>
<text text-anchor="start" x="164" y="-210" font-family="Helvetica,sans-Serif" font-size="10.00">AP_MotorsCoax::output</text>
<text text-anchor="middle" x="221.5" y="-199" font-family="Helvetica,sans-Serif" font-size="10.00">_to_motors</text>
</a>
</g>
</g>
<!-- Node1&#45;&gt;Node4 -->
<g id="edge3_Node000001_Node000004" class="edge">
<title>Node1&#45;&gt;Node4</title>
<g id="a_edge3_Node000001_Node000004"><a xlink:title=" ">
<path fill="none" stroke="#63b8ff" d="M354.01,-154.36C334.86,-163.48 311.43,-174.24 290,-183 282.52,-186.06 274.48,-189.11 266.66,-191.96"/>
<polygon fill="#63b8ff" stroke="#63b8ff" points="355.53,-157.51 363.03,-150.04 352.5,-151.2 355.53,-157.51"/>
</a>
</g>
</g>
<!-- Node5 -->
<g id="Node000005" class="node">
<title>Node5</title>
<g id="a_Node000005"><a xlink:href="classAP__MotorsMatrix.html#afabcd6515d526c629ae104f9cf42f165" target="_top" xlink:title=" ">
<polygon fill="white" stroke="#666666" points="290,-174 153,-174 153,-144 290,-144 290,-174"/>
<text text-anchor="start" x="161" y="-162" font-family="Helvetica,sans-Serif" font-size="10.00">AP_MotorsMatrix::output</text>
<text text-anchor="middle" x="221.5" y="-151" font-family="Helvetica,sans-Serif" font-size="10.00">_to_motors</text>
</a>
</g>
</g>
<!-- Node1&#45;&gt;Node5 -->
<g id="edge4_Node000001_Node000005" class="edge">
<title>Node1&#45;&gt;Node5</title>
<g id="a_edge4_Node000001_Node000005"><a xlink:title=" ">
<path fill="none" stroke="#63b8ff" d="M315.9,-145.89C307.31,-147.1 298.61,-148.32 290.15,-149.5"/>
<polygon fill="#63b8ff" stroke="#63b8ff" points="316.5,-149.34 325.92,-144.49 315.53,-142.41 316.5,-149.34"/>
</a>
</g>
</g>
<!-- Node6 -->
<g id="Node000006" class="node">
<title>Node6</title>
<g id="a_Node000006"><a xlink:href="classAP__MotorsSingle.html#a5c93cf6a62207bdbefc88b59f150d2fb" target="_top" xlink:title=" ">
<polygon fill="white" stroke="#666666" points="289.5,-126 153.5,-126 153.5,-96 289.5,-96 289.5,-126"/>
<text text-anchor="start" x="161.5" y="-114" font-family="Helvetica,sans-Serif" font-size="10.00">AP_MotorsSingle::output</text>
<text text-anchor="middle" x="221.5" y="-103" font-family="Helvetica,sans-Serif" font-size="10.00">_to_motors</text>
</a>
</g>
</g>
<!-- Node1&#45;&gt;Node6 -->
<g id="edge5_Node000001_Node000006" class="edge">
<title>Node1&#45;&gt;Node6</title>
<g id="a_edge5_Node000001_Node000006"><a xlink:title=" ">
<path fill="none" stroke="#63b8ff" d="M315.74,-124.09C307.01,-122.86 298.17,-121.62 289.59,-120.42"/>
<polygon fill="#63b8ff" stroke="#63b8ff" points="315.53,-127.59 325.92,-125.51 316.5,-120.66 315.53,-127.59"/>
</a>
</g>
</g>
<!-- Node7 -->
<g id="Node000007" class="node">
<title>Node7</title>
<g id="a_Node000007"><a xlink:href="classAP__MotorsTailsitter.html#ad8afd6b59eb811bdded6a17bbdec806d" target="_top" xlink:title=" ">
<polygon fill="white" stroke="#666666" points="276.5,-78 166.5,-78 166.5,-48 276.5,-48 276.5,-78"/>
<text text-anchor="start" x="174.5" y="-66" font-family="Helvetica,sans-Serif" font-size="10.00">AP_MotorsTailsitter</text>
<text text-anchor="middle" x="221.5" y="-55" font-family="Helvetica,sans-Serif" font-size="10.00">::output_to_motors</text>
</a>
</g>
</g>
<!-- Node1&#45;&gt;Node7 -->
<g id="edge6_Node000001_Node000007" class="edge">
<title>Node1&#45;&gt;Node7</title>
<g id="a_edge6_Node000001_Node000007"><a xlink:title=" ">
<path fill="none" stroke="#63b8ff" d="M354.01,-115.64C334.86,-106.52 311.43,-95.76 290,-87 282.52,-83.94 274.48,-80.89 266.66,-78.04"/>
<polygon fill="#63b8ff" stroke="#63b8ff" points="352.5,-118.8 363.03,-119.96 355.53,-112.49 352.5,-118.8"/>
</a>
</g>
</g>
<!-- Node8 -->
<g id="Node000008" class="node">
<title>Node8</title>
<g id="a_Node000008"><a xlink:href="classAP__MotorsTri.html#a81327742c3c59ceb1c117cbc801cd845" target="_top" xlink:title=" ">
<polygon fill="white" stroke="#666666" points="280,-30 163,-30 163,0 280,0 280,-30"/>
<text text-anchor="start" x="171" y="-18" font-family="Helvetica,sans-Serif" font-size="10.00">AP_MotorsTri::output</text>
<text text-anchor="middle" x="221.5" y="-7" font-family="Helvetica,sans-Serif" font-size="10.00">_to_motors</text>
</a>
</g>
</g>
<!-- Node1&#45;&gt;Node8 -->
<g id="edge7_Node000001_Node000008" class="edge">
<title>Node1&#45;&gt;Node8</title>
<g id="a_edge7_Node000001_Node000008"><a xlink:title=" ">
<path fill="none" stroke="#63b8ff" d="M374.11,-112.32C354.72,-90.86 323.08,-59.04 290,-39 284.47,-35.65 278.4,-32.67 272.24,-30.05"/>
<polygon fill="#63b8ff" stroke="#63b8ff" points="371.66,-114.84 380.92,-119.99 376.9,-110.19 371.66,-114.84"/>
</a>
</g>
</g>
<!-- Node3 -->
<g id="Node000003" class="node">
<title>Node3</title>
<g id="a_Node000003"><a xlink:href="classAP__MotorsTri.html#af9dc13e921b87ab000a51f12f8c60d6e" target="_top" xlink:title=" ">
<polygon fill="white" stroke="#666666" points="117,-270 0,-270 0,-240 117,-240 117,-270"/>
<text text-anchor="start" x="8" y="-258" font-family="Helvetica,sans-Serif" font-size="10.00">AP_MotorsTri::output</text>
<text text-anchor="middle" x="58.5" y="-247" font-family="Helvetica,sans-Serif" font-size="10.00">_motor_mask</text>
</a>
</g>
</g>
<!-- Node2&#45;&gt;Node3 -->
<g id="edge2_Node000002_Node000003" class="edge">
<title>Node2&#45;&gt;Node3</title>
<g id="a_edge2_Node000002_Node000003"><a xlink:title=" ">
<path fill="none" stroke="#63b8ff" d="M149.05,-255C138.4,-255 127.53,-255 117.21,-255"/>
<polygon fill="#63b8ff" stroke="#63b8ff" points="149.17,-258.5 159.17,-255 149.17,-251.5 149.17,-258.5"/>
</a>
</g>
</g>
</g>
</svg>
</svg>

<style type='text/css'>
<![CDATA[
[data-mouse-over-selected='false'] { opacity: 0.7; }
[data-mouse-over-selected='true']  { opacity: 1.0; }
]]>
</style>
<script type="application/ecmascript"><![CDATA[
document.addEventListener('DOMContentLoaded', (event) => {
  highlightEdges();
  highlightAdjacentNodes();
});
]]></script>
</svg>
