<?xml version="1.0" encoding="UTF-8" standalone="no"?>
<!DOCTYPE svg PUBLIC "-//W3C//DTD SVG 1.1//EN"
 "http://www.w3.org/Graphics/SVG/1.1/DTD/svg11.dtd">
<!-- Generated by graphviz version 2.43.0 (0)
 -->
<!-- Title: AC_PrecLand Pages: 1 -->
<svg width="1135pt" height="494pt"
 viewBox="0.00 0.00 1135.00 494.28" xmlns="http://www.w3.org/2000/svg" xmlns:xlink="http://www.w3.org/1999/xlink">
<g id="graph0" class="graph" transform="scale(1 1) rotate(0) translate(4 490.28)">
<title>AC_PrecLand</title>
<!-- Node1 -->
<g id="Node000001" class="node">
<title>Node1</title>
<g id="a_Node000001"><a xlink:title=" ">
<polygon fill="#999999" stroke="#666666" points="915,-290.78 835,-290.78 835,-271.78 915,-271.78 915,-290.78"/>
<text text-anchor="middle" x="875" y="-278.78" font-family="Helvetica,sans-Serif" font-size="10.00">AC_PrecLand</text>
</a>
</g>
</g>
<!-- Node1&#45;&gt;Node1 -->
<g id="edge22_Node000001_Node000001" class="edge">
<title>Node1&#45;&gt;Node1</title>
<g id="a_edge22_Node000001_Node000001"><a xlink:title=" ">
<path fill="none" stroke="#9a32cd" stroke-dasharray="5,2" d="M859.9,-300.69C861.09,-305.34 866.12,-308.78 875,-308.78 889.57,-308.78 893.79,-299.51 887.64,-290.86"/>
<polygon fill="#9a32cd" stroke="#9a32cd" points="863.33,-301.41 862.36,-290.86 856.54,-299.71 863.33,-301.41"/>
</a>
</g>
<text text-anchor="middle" x="875" y="-311.78" font-family="Helvetica,sans-Serif" font-size="10.00" fill="grey"> _singleton</text>
</g>
<!-- Node14 -->
<g id="Node000014" class="node">
<title>Node14</title>
<g id="a_Node000014"><a xlink:href="classAC__PrecLand__Backend.html" target="_top" xlink:title=" ">
<polygon fill="white" stroke="#666666" points="1127,-324.78 1001,-324.78 1001,-305.78 1127,-305.78 1127,-324.78"/>
<text text-anchor="middle" x="1064" y="-312.78" font-family="Helvetica,sans-Serif" font-size="10.00">AC_PrecLand_Backend</text>
</a>
</g>
</g>
<!-- Node1&#45;&gt;Node14 -->
<g id="edge20_Node000014_Node000001" class="edge">
<title>Node1&#45;&gt;Node14</title>
<g id="a_edge20_Node000014_Node000001"><a xlink:title=" ">
<path fill="none" stroke="#9a32cd" stroke-dasharray="5,2" d="M925.01,-291.73C927.71,-292.26 930.39,-292.78 933,-293.28 956.05,-297.65 981.48,-302.05 1003.7,-305.75"/>
<polygon fill="#9a32cd" stroke="#9a32cd" points="925.7,-288.3 915.21,-289.75 924.32,-295.16 925.7,-288.3"/>
</a>
</g>
<text text-anchor="middle" x="958" y="-304.28" font-family="Helvetica,sans-Serif" font-size="10.00" fill="grey"> _frontend</text>
</g>
<!-- Node2 -->
<g id="Node000002" class="node">
<title>Node2</title>
<g id="a_Node000002"><a xlink:href="structAP__Param_1_1GroupInfo.html" target="_top" xlink:title=" ">
<polygon fill="white" stroke="#666666" points="682,-397.78 563,-397.78 563,-378.78 682,-378.78 682,-397.78"/>
<text text-anchor="middle" x="622.5" y="-385.78" font-family="Helvetica,sans-Serif" font-size="10.00">AP_Param::GroupInfo</text>
</a>
</g>
</g>
<!-- Node2&#45;&gt;Node1 -->
<g id="edge1_Node000001_Node000002" class="edge">
<title>Node2&#45;&gt;Node1</title>
<g id="a_edge1_Node000001_Node000002"><a xlink:title=" ">
<path fill="none" stroke="#9a32cd" stroke-dasharray="5,2" d="M692.3,-390.66C731.38,-389.05 779.79,-381.8 817,-359.28 844.26,-342.78 862.46,-307.8 870.02,-290.87"/>
<polygon fill="#9a32cd" stroke="#9a32cd" points="691.95,-387.17 682.06,-390.97 692.16,-394.17 691.95,-387.17"/>
</a>
</g>
<text text-anchor="middle" x="767.5" y="-391.28" font-family="Helvetica,sans-Serif" font-size="10.00" fill="grey"> var_info</text>
</g>
<!-- Node2&#45;&gt;Node2 -->
<g id="edge2_Node000002_Node000002" class="edge">
<title>Node2&#45;&gt;Node2</title>
<g id="a_edge2_Node000002_Node000002"><a xlink:title=" ">
<path fill="none" stroke="#9a32cd" stroke-dasharray="5,2" d="M601.39,-407.33C602.8,-412.16 609.84,-415.78 622.5,-415.78 642.76,-415.78 648.62,-406.51 640.07,-397.86"/>
<polygon fill="#9a32cd" stroke="#9a32cd" points="604.71,-408.45 604.93,-397.86 598.15,-406 604.71,-408.45"/>
</a>
</g>
<text text-anchor="middle" x="622.5" y="-429.78" font-family="Helvetica,sans-Serif" font-size="10.00" fill="grey"> group_info</text>
<text text-anchor="middle" x="622.5" y="-418.78" font-family="Helvetica,sans-Serif" font-size="10.00" fill="grey">group_info_ptr</text>
</g>
<!-- Node3 -->
<g id="Node000003" class="node">
<title>Node3</title>
<g id="a_Node000003"><a xlink:href="classAP__Enum.html" target="_top" xlink:title=" ">
<polygon fill="white" stroke="#666666" points="676,-360.78 569,-360.78 569,-341.78 676,-341.78 676,-360.78"/>
<text text-anchor="middle" x="622.5" y="-348.78" font-family="Helvetica,sans-Serif" font-size="10.00">AP_Enum&lt; Type &gt;</text>
</a>
</g>
</g>
<!-- Node3&#45;&gt;Node1 -->
<g id="edge3_Node000001_Node000003" class="edge">
<title>Node3&#45;&gt;Node1</title>
<g id="a_edge3_Node000001_Node000003"><a xlink:title=" ">
<path fill="none" stroke="#9a32cd" stroke-dasharray="5,2" d="M686.19,-348.23C725,-344.66 775.23,-336.94 817,-320.28 834.6,-313.26 852.19,-300.05 863.07,-290.96"/>
<polygon fill="#9a32cd" stroke="#9a32cd" points="685.74,-344.75 676.07,-349.09 686.33,-351.73 685.74,-344.75"/>
</a>
</g>
<text text-anchor="middle" x="767.5" y="-347.28" font-family="Helvetica,sans-Serif" font-size="10.00" fill="grey"> _type</text>
</g>
<!-- Node4 -->
<g id="Node000004" class="node">
<title>Node4</title>
<g id="a_Node000004"><a xlink:title=" ">
<polygon fill="white" stroke="#666666" points="438.5,-338.78 385.5,-338.78 385.5,-319.78 438.5,-319.78 438.5,-338.78"/>
<text text-anchor="middle" x="412" y="-326.78" font-family="Helvetica,sans-Serif" font-size="10.00">AP_Int8</text>
</a>
</g>
</g>
<!-- Node4&#45;&gt;Node3 -->
<g id="edge4_Node000003_Node000004" class="edge">
<title>Node4&#45;&gt;Node3</title>
<g id="a_edge4_Node000003_Node000004"><a xlink:title=" ">
<path fill="none" stroke="#63b8ff" d="M448.68,-333.04C481.73,-336.53 531.31,-341.76 568.9,-345.73"/>
<polygon fill="#63b8ff" stroke="#63b8ff" points="448.88,-329.54 438.57,-331.98 448.14,-336.51 448.88,-329.54"/>
</a>
</g>
</g>
<!-- Node5 -->
<g id="Node000005" class="node">
<title>Node5</title>
<g id="a_Node000005"><a xlink:href="classAP__Enum.html" target="_top" xlink:title=" ">
<polygon fill="white" stroke="#666666" points="700,-323.78 545,-323.78 545,-304.78 700,-304.78 700,-323.78"/>
<text text-anchor="middle" x="622.5" y="-311.78" font-family="Helvetica,sans-Serif" font-size="10.00">AP_Enum&lt; EstimatorType &gt;</text>
</a>
</g>
</g>
<!-- Node4&#45;&gt;Node5 -->
<g id="edge6_Node000005_Node000004" class="edge">
<title>Node4&#45;&gt;Node5</title>
<g id="a_edge6_Node000005_Node000004"><a xlink:title=" ">
<path fill="none" stroke="#63b8ff" d="M448.84,-326.7C475.22,-324.8 512.07,-322.15 544.95,-319.78"/>
<polygon fill="#63b8ff" stroke="#63b8ff" points="448.29,-323.23 438.57,-327.44 448.79,-330.21 448.29,-323.23"/>
</a>
</g>
</g>
<!-- Node6 -->
<g id="Node000006" class="node">
<title>Node6</title>
<g id="a_Node000006"><a xlink:href="classAP__Enum.html" target="_top" xlink:title=" ">
<polygon fill="white" stroke="#666666" points="685.5,-286.78 559.5,-286.78 559.5,-267.78 685.5,-267.78 685.5,-286.78"/>
<text text-anchor="middle" x="622.5" y="-274.78" font-family="Helvetica,sans-Serif" font-size="10.00">AP_Enum&lt; Rotation &gt;</text>
</a>
</g>
</g>
<!-- Node4&#45;&gt;Node6 -->
<g id="edge8_Node000006_Node000004" class="edge">
<title>Node4&#45;&gt;Node6</title>
<g id="a_edge8_Node000006_Node000004"><a xlink:title=" ">
<path fill="none" stroke="#63b8ff" d="M448.78,-320.32C475.33,-313.67 512.42,-304.4 545,-296.28 557.35,-293.2 570.82,-289.85 582.97,-286.83"/>
<polygon fill="#63b8ff" stroke="#63b8ff" points="447.65,-316.99 438.8,-322.82 449.35,-323.78 447.65,-316.99"/>
</a>
</g>
</g>
<!-- Node5&#45;&gt;Node1 -->
<g id="edge5_Node000001_Node000005" class="edge">
<title>Node5&#45;&gt;Node1</title>
<g id="a_edge5_Node000001_Node000005"><a xlink:title=" ">
<path fill="none" stroke="#9a32cd" stroke-dasharray="5,2" d="M710.23,-306.72C743.69,-303.32 782.22,-298.81 817,-293.28 822.79,-292.36 828.89,-291.24 834.85,-290.05"/>
<polygon fill="#9a32cd" stroke="#9a32cd" points="709.62,-303.26 700.01,-307.74 710.31,-310.23 709.62,-303.26"/>
</a>
</g>
<text text-anchor="middle" x="767.5" y="-308.28" font-family="Helvetica,sans-Serif" font-size="10.00" fill="grey"> _estimator_type</text>
</g>
<!-- Node6&#45;&gt;Node1 -->
<g id="edge7_Node000001_Node000006" class="edge">
<title>Node6&#45;&gt;Node1</title>
<g id="a_edge7_Node000001_Node000006"><a xlink:title=" ">
<path fill="none" stroke="#9a32cd" stroke-dasharray="5,2" d="M695.81,-278.43C741.07,-279.15 797.64,-280.06 834.74,-280.65"/>
<polygon fill="#9a32cd" stroke="#9a32cd" points="695.8,-274.93 685.74,-278.27 695.69,-281.93 695.8,-274.93"/>
</a>
</g>
<text text-anchor="middle" x="767.5" y="-283.28" font-family="Helvetica,sans-Serif" font-size="10.00" fill="grey"> _orient</text>
</g>
<!-- Node7 -->
<g id="Node000007" class="node">
<title>Node7</title>
<g id="a_Node000007"><a xlink:href="classPosVelEKF.html" target="_top" xlink:title=" ">
<polygon fill="white" stroke="#666666" points="656.5,-249.78 588.5,-249.78 588.5,-230.78 656.5,-230.78 656.5,-249.78"/>
<text text-anchor="middle" x="622.5" y="-237.78" font-family="Helvetica,sans-Serif" font-size="10.00">PosVelEKF</text>
</a>
</g>
</g>
<!-- Node7&#45;&gt;Node1 -->
<g id="edge9_Node000001_Node000007" class="edge">
<title>Node7&#45;&gt;Node1</title>
<g id="a_edge9_Node000001_Node000007"><a xlink:title=" ">
<path fill="none" stroke="#9a32cd" stroke-dasharray="5,2" d="M666.84,-237.99C706.6,-237.05 766.77,-238.58 817,-252.28 832.21,-256.43 848.08,-264.9 859.21,-271.62"/>
<polygon fill="#9a32cd" stroke="#9a32cd" points="666.58,-234.5 656.69,-238.29 666.79,-241.49 666.58,-234.5"/>
</a>
</g>
<text text-anchor="middle" x="767.5" y="-266.28" font-family="Helvetica,sans-Serif" font-size="10.00" fill="grey"> _ekf_x</text>
<text text-anchor="middle" x="767.5" y="-255.28" font-family="Helvetica,sans-Serif" font-size="10.00" fill="grey">_ekf_y</text>
</g>
<!-- Node8 -->
<g id="Node000008" class="node">
<title>Node8</title>
<g id="a_Node000008"><a xlink:href="classVector3.html" target="_top" xlink:title=" ">
<polygon fill="white" stroke="#666666" points="98,-150.78 0,-150.78 0,-131.78 98,-131.78 98,-150.78"/>
<text text-anchor="middle" x="49" y="-138.78" font-family="Helvetica,sans-Serif" font-size="10.00">Vector3&lt; float &gt;</text>
</a>
</g>
</g>
<!-- Node8&#45;&gt;Node1 -->
<g id="edge10_Node000001_Node000008" class="edge">
<title>Node8&#45;&gt;Node1</title>
<g id="a_edge10_Node000001_Node000008"><a xlink:title=" ">
<path fill="none" stroke="#9a32cd" stroke-dasharray="5,2" d="M74.05,-156.04C105.8,-174.1 164.01,-202.28 218,-202.28 218,-202.28 218,-202.28 623.5,-202.28 710.67,-202.28 737.65,-198.2 817,-234.28 836.62,-243.2 855.03,-260.65 865.38,-271.6"/>
<polygon fill="#9a32cd" stroke="#9a32cd" points="75.48,-152.83 65.08,-150.81 71.95,-158.87 75.48,-152.83"/>
</a>
</g>
<text text-anchor="middle" x="412" y="-293.28" font-family="Helvetica,sans-Serif" font-size="10.00" fill="grey"> _approach_vector_body</text>
<text text-anchor="start" x="352.5" y="-282.28" font-family="Helvetica,sans-Serif" font-size="10.00" fill="grey">_last_target_pos_rel</text>
<text text-anchor="middle" x="412" y="-271.28" font-family="Helvetica,sans-Serif" font-size="10.00" fill="grey">_origin_NED</text>
<text text-anchor="start" x="352.5" y="-260.28" font-family="Helvetica,sans-Serif" font-size="10.00" fill="grey">_last_veh_velocity</text>
<text text-anchor="middle" x="412" y="-249.28" font-family="Helvetica,sans-Serif" font-size="10.00" fill="grey">_NED_ms</text>
<text text-anchor="start" x="352.5" y="-238.28" font-family="Helvetica,sans-Serif" font-size="10.00" fill="grey">_last_vehicle_pos</text>
<text text-anchor="middle" x="412" y="-227.28" font-family="Helvetica,sans-Serif" font-size="10.00" fill="grey">_NED</text>
<text text-anchor="start" x="352.5" y="-216.28" font-family="Helvetica,sans-Serif" font-size="10.00" fill="grey">_target_pos_rel</text>
<text text-anchor="middle" x="412" y="-205.28" font-family="Helvetica,sans-Serif" font-size="10.00" fill="grey">_meas_NED</text>
</g>
<!-- Node11 -->
<g id="Node000011" class="node">
<title>Node11</title>
<g id="a_Node000011"><a xlink:href="structAC__PrecLand_1_1inertial__data__frame__s.html" target="_top" xlink:title=" ">
<polygon fill="white" stroke="#666666" points="472,-142.28 352,-142.28 352,-112.28 472,-112.28 472,-142.28"/>
<text text-anchor="start" x="360" y="-130.28" font-family="Helvetica,sans-Serif" font-size="10.00">AC_PrecLand::inertial</text>
<text text-anchor="middle" x="412" y="-119.28" font-family="Helvetica,sans-Serif" font-size="10.00">_data_frame_s</text>
</a>
</g>
</g>
<!-- Node8&#45;&gt;Node11 -->
<g id="edge16_Node000011_Node000008" class="edge">
<title>Node8&#45;&gt;Node11</title>
<g id="a_edge16_Node000011_Node000008"><a xlink:title=" ">
<path fill="none" stroke="#9a32cd" stroke-dasharray="5,2" d="M108.69,-139C175.71,-136.4 284.71,-132.18 351.9,-129.57"/>
<polygon fill="#9a32cd" stroke="#9a32cd" points="108.17,-135.52 98.31,-139.4 108.44,-142.51 108.17,-135.52"/>
</a>
</g>
<text text-anchor="start" x="144" y="-162.28" font-family="Helvetica,sans-Serif" font-size="10.00" fill="grey"> correctedVehicleDeltaVelocity</text>
<text text-anchor="middle" x="219" y="-151.28" font-family="Helvetica,sans-Serif" font-size="10.00" fill="grey">NED</text>
<text text-anchor="middle" x="219" y="-140.28" font-family="Helvetica,sans-Serif" font-size="10.00" fill="grey">inertialNavVelocity</text>
</g>
<!-- Node12 -->
<g id="Node000012" class="node">
<title>Node12</title>
<g id="a_Node000012"><a xlink:href="classMatrix3.html" target="_top" xlink:title=" ">
<polygon fill="white" stroke="#666666" points="268,-103.78 170,-103.78 170,-84.78 268,-84.78 268,-103.78"/>
<text text-anchor="middle" x="219" y="-91.78" font-family="Helvetica,sans-Serif" font-size="10.00">Matrix3&lt; float &gt;</text>
</a>
</g>
</g>
<!-- Node8&#45;&gt;Node12 -->
<g id="edge15_Node000012_Node000008" class="edge">
<title>Node8&#45;&gt;Node12</title>
<g id="a_edge15_Node000012_Node000008"><a xlink:title=" ">
<path fill="none" stroke="#9a32cd" stroke-dasharray="5,2" d="M67.32,-124.32C79.74,-113.41 97.49,-100.19 116,-94.28 133.04,-88.83 152.51,-87.68 169.84,-88.29"/>
<polygon fill="#9a32cd" stroke="#9a32cd" points="64.62,-122.05 59.63,-131.39 69.36,-127.2 64.62,-122.05"/>
</a>
</g>
<text text-anchor="middle" x="121" y="-119.28" font-family="Helvetica,sans-Serif" font-size="10.00" fill="grey"> a</text>
<text text-anchor="middle" x="121" y="-108.28" font-family="Helvetica,sans-Serif" font-size="10.00" fill="grey">b</text>
<text text-anchor="middle" x="121" y="-97.28" font-family="Helvetica,sans-Serif" font-size="10.00" fill="grey">c</text>
</g>
<!-- Node9 -->
<g id="Node000009" class="node">
<title>Node9</title>
<g id="a_Node000009"><a xlink:href="structVector2.html" target="_top" xlink:title=" ">
<polygon fill="white" stroke="#666666" points="671.5,-35.78 573.5,-35.78 573.5,-16.78 671.5,-16.78 671.5,-35.78"/>
<text text-anchor="middle" x="622.5" y="-23.78" font-family="Helvetica,sans-Serif" font-size="10.00">Vector2&lt; float &gt;</text>
</a>
</g>
</g>
<!-- Node9&#45;&gt;Node1 -->
<g id="edge11_Node000001_Node000009" class="edge">
<title>Node9&#45;&gt;Node1</title>
<g id="a_edge11_Node000001_Node000009"><a xlink:title=" ">
<path fill="none" stroke="#9a32cd" stroke-dasharray="5,2" d="M658.32,-13.67C700.69,-0.77 772.14,12.76 817,-23.28 857.06,-55.45 870.65,-228.85 873.43,-271.7"/>
<polygon fill="#9a32cd" stroke="#9a32cd" points="657.18,-10.36 648.71,-16.73 659.3,-17.03 657.18,-10.36"/>
</a>
</g>
<text text-anchor="start" x="718" y="-103.28" font-family="Helvetica,sans-Serif" font-size="10.00" fill="grey"> _target_pos_rel_est</text>
<text text-anchor="middle" x="767.5" y="-92.28" font-family="Helvetica,sans-Serif" font-size="10.00" fill="grey">_NE</text>
<text text-anchor="start" x="718" y="-81.28" font-family="Helvetica,sans-Serif" font-size="10.00" fill="grey">_target_pos_rel</text>
<text text-anchor="middle" x="767.5" y="-70.28" font-family="Helvetica,sans-Serif" font-size="10.00" fill="grey">_out_NE</text>
<text text-anchor="start" x="718" y="-59.28" font-family="Helvetica,sans-Serif" font-size="10.00" fill="grey">_target_vel_rel</text>
<text text-anchor="middle" x="767.5" y="-48.28" font-family="Helvetica,sans-Serif" font-size="10.00" fill="grey">_est_NE</text>
<text text-anchor="start" x="718" y="-37.28" font-family="Helvetica,sans-Serif" font-size="10.00" fill="grey">_target_vel_rel</text>
<text text-anchor="middle" x="767.5" y="-26.28" font-family="Helvetica,sans-Serif" font-size="10.00" fill="grey">_out_NE</text>
</g>
<!-- Node10 -->
<g id="Node000010" class="node">
<title>Node10</title>
<g id="a_Node000010"><a xlink:href="classObjectArray.html" target="_top" xlink:title=" ">
<polygon fill="white" stroke="#666666" points="697,-127.28 548,-127.28 548,-97.28 697,-97.28 697,-127.28"/>
<text text-anchor="start" x="556" y="-115.28" font-family="Helvetica,sans-Serif" font-size="10.00">ObjectArray&lt; AC_PrecLand</text>
<text text-anchor="middle" x="622.5" y="-104.28" font-family="Helvetica,sans-Serif" font-size="10.00">::inertial_data_frame_s &gt;</text>
</a>
</g>
</g>
<!-- Node10&#45;&gt;Node1 -->
<g id="edge12_Node000001_Node000010" class="edge">
<title>Node10&#45;&gt;Node1</title>
<g id="a_edge12_Node000001_Node000010"><a xlink:title=" ">
<path fill="none" stroke="#9a32cd" stroke-dasharray="5,2" d="M707.39,-115.27C751.5,-118.43 799.89,-124.93 817,-138.28 860.83,-172.47 871.06,-245.5 873.36,-271.69"/>
<polygon fill="#9a32cd" stroke="#9a32cd" points="707.39,-111.76 697.18,-114.59 706.93,-118.74 707.39,-111.76"/>
</a>
</g>
<text text-anchor="middle" x="767.5" y="-141.28" font-family="Helvetica,sans-Serif" font-size="10.00" fill="grey"> _inertial_history</text>
</g>
<!-- Node11&#45;&gt;Node1 -->
<g id="edge17_Node000001_Node000011" class="edge">
<title>Node11&#45;&gt;Node1</title>
<g id="a_edge17_Node000001_Node000011"><a xlink:title=" ">
<path fill="none" stroke="#9a32cd" stroke-dasharray="5,2" d="M482.37,-136.21C594.17,-150.82 803.19,-179.12 817,-188.28 847.94,-208.79 864.91,-252.41 871.17,-271.73"/>
<polygon fill="#9a32cd" stroke="#9a32cd" points="482.56,-132.7 472.19,-134.88 481.65,-139.64 482.56,-132.7"/>
</a>
</g>
<text text-anchor="middle" x="622.5" y="-168.28" font-family="Helvetica,sans-Serif" font-size="10.00" fill="grey"> _inertial_data_delayed</text>
</g>
<!-- Node11&#45;&gt;Node10 -->
<g id="edge13_Node000010_Node000011" class="edge">
<title>Node11&#45;&gt;Node10</title>
<g id="a_edge13_Node000010_Node000011"><a xlink:title=" ">
<path fill="none" stroke="#9a32cd" stroke-dasharray="5,2" d="M482.3,-122.29C503.28,-120.78 526.4,-119.12 547.67,-117.59"/>
<polygon fill="#9a32cd" stroke="#9a32cd" points="481.91,-118.81 472.19,-123.02 482.42,-125.79 481.91,-118.81"/>
</a>
</g>
<text text-anchor="middle" x="508.5" y="-124.28" font-family="Helvetica,sans-Serif" font-size="10.00" fill="grey"> _buffer</text>
</g>
<!-- Node12&#45;&gt;Node11 -->
<g id="edge14_Node000011_Node000012" class="edge">
<title>Node12&#45;&gt;Node11</title>
<g id="a_edge14_Node000011_Node000012"><a xlink:title=" ">
<path fill="none" stroke="#9a32cd" stroke-dasharray="5,2" d="M278.3,-104.35C301.63,-108.38 328.48,-113.02 351.89,-117.06"/>
<polygon fill="#9a32cd" stroke="#9a32cd" points="278.65,-100.86 268.2,-102.6 277.46,-107.76 278.65,-100.86"/>
</a>
</g>
<text text-anchor="middle" x="323" y="-116.28" font-family="Helvetica,sans-Serif" font-size="10.00" fill="grey"> Tbn</text>
</g>
<!-- Node13 -->
<g id="Node000013" class="node">
<title>Node13</title>
<g id="a_Node000013"><a xlink:href="structAC__PrecLand_1_1precland__state.html" target="_top" xlink:title=" ">
<polygon fill="white" stroke="#666666" points="686.5,-486.28 558.5,-486.28 558.5,-456.28 686.5,-456.28 686.5,-486.28"/>
<text text-anchor="start" x="566.5" y="-474.28" font-family="Helvetica,sans-Serif" font-size="10.00">AC_PrecLand::precland</text>
<text text-anchor="middle" x="622.5" y="-463.28" font-family="Helvetica,sans-Serif" font-size="10.00">_state</text>
</a>
</g>
</g>
<!-- Node13&#45;&gt;Node1 -->
<g id="edge18_Node000001_Node000013" class="edge">
<title>Node13&#45;&gt;Node1</title>
<g id="a_edge18_Node000001_Node000013"><a xlink:title=" ">
<path fill="none" stroke="#9a32cd" stroke-dasharray="5,2" d="M685.11,-452.9C690.19,-451.1 695.2,-449.22 700,-447.28 708.29,-443.93 709.77,-441.77 718,-438.28 760.95,-420.03 782.44,-434.63 817,-403.28 851.98,-371.55 867.24,-313.93 872.13,-291.04"/>
<polygon fill="#9a32cd" stroke="#9a32cd" points="683.66,-449.69 675.34,-456.25 685.93,-456.32 683.66,-449.69"/>
</a>
</g>
<text text-anchor="middle" x="767.5" y="-441.28" font-family="Helvetica,sans-Serif" font-size="10.00" fill="grey"> _backend_state</text>
</g>
<!-- Node13&#45;&gt;Node14 -->
<g id="edge21_Node000014_Node000013" class="edge">
<title>Node13&#45;&gt;Node14</title>
<g id="a_edge21_Node000014_Node000013"><a xlink:title=" ">
<path fill="none" stroke="#9a32cd" stroke-dasharray="5,2" d="M696.79,-469.58C733.57,-467.07 778.4,-461.47 817,-449.28 912.99,-418.95 1014.59,-350.06 1049.96,-324.79"/>
<polygon fill="#9a32cd" stroke="#9a32cd" points="696.41,-466.1 686.64,-470.21 696.84,-473.08 696.41,-466.1"/>
</a>
</g>
<text text-anchor="middle" x="875" y="-445.28" font-family="Helvetica,sans-Serif" font-size="10.00" fill="grey"> _state</text>
</g>
<!-- Node14&#45;&gt;Node1 -->
<g id="edge19_Node000001_Node000014" class="edge">
<title>Node14&#45;&gt;Node1</title>
<g id="a_edge19_Node000001_Node000014"><a xlink:title=" ">
<path fill="none" stroke="#9a32cd" stroke-dasharray="5,2" d="M1036.24,-301.22C1021.07,-294.03 1001.48,-286.03 983,-282.28 960.79,-277.77 935.45,-277.33 915,-278.11"/>
<polygon fill="#9a32cd" stroke="#9a32cd" points="1034.99,-304.51 1045.51,-305.77 1038.07,-298.22 1034.99,-304.51"/>
</a>
</g>
<text text-anchor="middle" x="958" y="-285.28" font-family="Helvetica,sans-Serif" font-size="10.00" fill="grey"> _backend</text>
</g>
</g>
</svg>
