<?xml version="1.0" encoding="UTF-8" standalone="no"?>
<!DOCTYPE svg PUBLIC "-//W3C//DTD SVG 1.1//EN"
 "http://www.w3.org/Graphics/SVG/1.1/DTD/svg11.dtd">
<!-- Generated by graphviz version 2.43.0 (0)
 -->
<!-- Title: ESP32::I2CDeviceManager Pages: 1 -->
<!--zoomable 368 -->

<svg id="main" version="1.1" xmlns="http://www.w3.org/2000/svg" xmlns:xlink="http://www.w3.org/1999/xlink" xml:space="preserve" onload="init(evt)">
<style type="text/css"><![CDATA[
.node, .edge {opacity: 0.7;}
.node.selected, .edge.selected {opacity: 1;}
.edge:hover path { stroke: red; }
.edge:hover polygon { stroke: red; fill: red; }
]]></style>

<defs>
  <circle id="rim" cx="0" cy="0" r="7"/>
  <circle id="rim2" cx="0" cy="0" r="3.5"/>
  <g id="zoomPlus">
    <use xlink:href="#rim" fill="#404040"><set attributeName="fill" to="#808080" begin="zoomplus.mouseover" end="zoomplus.mouseout"/></use>
    <path d="M-4,0h8M0,-4v8" fill="none" stroke="white" stroke-width="1.5" pointer-events="none"/>
  </g>
  <g id="zoomMin">
    <use xlink:href="#rim" fill="#404040"><set attributeName="fill" to="#808080" begin="zoomminus.mouseover" end="zoomminus.mouseout"/></use>
    <path d="M-4,0h8" fill="none" stroke="white" stroke-width="1.5" pointer-events="none"/>
  </g>
  <g id="arrowUp" transform="translate(30 24)">
    <use xlink:href="#rim"/>
    <path pointer-events="none" fill="none" stroke="white" stroke-width="1.5" d="M0,-3.0v7 M-2.5,-0.5L0,-3.0L2.5,-0.5"/>
  </g>
  <g id="arrowRight" transform="rotate(90) translate(36 -43)">
    <use xlink:href="#rim"/>
    <path pointer-events="none" fill="none" stroke="white" stroke-width="1.5" d="M0,-3.0v7 M-2.5,-0.5L0,-3.0L2.5,-0.5"/>
  </g>
  <g id="arrowDown" transform="rotate(180) translate(-30 -48)">
    <use xlink:href="#rim"/>
    <path pointer-events="none" fill="none" stroke="white" stroke-width="1.5" d="M0,-3.0v7 M-2.5,-0.5L0,-3.0L2.5,-0.5"/>
  </g>
  <g id="arrowLeft" transform="rotate(270) translate(-36 17)">
    <use xlink:href="#rim"/>
    <path pointer-events="none" fill="none" stroke="white" stroke-width="1.5" d="M0,-3.0v7 M-2.5,-0.5L0,-3.0L2.5,-0.5"/>
  </g>
  <g id="resetDef">
    <use xlink:href="#rim2" fill="#404040"><set attributeName="fill" to="#808080" begin="reset.mouseover" end="reset.mouseout"/></use>
  </g>
</defs>
<script type="application/ecmascript">
var viewWidth = 550;
var viewHeight = 368;
var sectionId = 'dynsection-1';
</script>
<script type="application/ecmascript" xlink:href="svg.min.js"/>
<svg id="graph" class="graph">
<g id="viewport">
<title>ESP32::I2CDeviceManager</title>
<!-- Node1 -->
<g id="Node000001" class="node">
<title>Node1</title>
<g id="a_Node000001"><a xlink:title=" ">
<polygon fill="#999999" stroke="#666666" points="271.5,-19 126.5,-19 126.5,0 271.5,0 271.5,-19"/>
<text text-anchor="middle" x="199" y="-7" font-family="Helvetica,sans-Serif" font-size="10.00">ESP32::I2CDeviceManager</text>
</a>
</g>
</g>
<!-- Node2 -->
<g id="Node000002" class="node">
<title>Node2</title>
<g id="a_Node000002"><a xlink:href="classAP__HAL_1_1I2CDeviceManager.html" target="_top" xlink:title=" ">
<polygon fill="white" stroke="#666666" points="259,-85 107,-85 107,-66 259,-66 259,-85"/>
<text text-anchor="middle" x="183" y="-73" font-family="Helvetica,sans-Serif" font-size="10.00">AP_HAL::I2CDeviceManager</text>
</a>
</g>
</g>
<!-- Node2&#45;&gt;Node1 -->
<g id="edge1_Node000001_Node000002" class="edge">
<title>Node2&#45;&gt;Node1</title>
<g id="a_edge1_Node000001_Node000002"><a xlink:title=" ">
<path fill="none" stroke="#63b8ff" d="M187.64,-55.95C190.64,-43.93 194.42,-28.82 196.77,-19.41"/>
<polygon fill="#63b8ff" stroke="#63b8ff" points="184.19,-55.32 185.16,-65.87 190.98,-57.02 184.19,-55.32"/>
</a>
</g>
</g>
<!-- Node3 -->
<g id="Node000003" class="node">
<title>Node3</title>
<g id="a_Node000003"><a xlink:href="classESP32_1_1I2CBus.html" target="_top" xlink:title=" ">
<polygon fill="white" stroke="#666666" points="363,-85 277,-85 277,-66 363,-66 363,-85"/>
<text text-anchor="middle" x="320" y="-73" font-family="Helvetica,sans-Serif" font-size="10.00">ESP32::I2CBus</text>
</a>
</g>
</g>
<!-- Node3&#45;&gt;Node1 -->
<g id="edge2_Node000001_Node000003" class="edge">
<title>Node3&#45;&gt;Node1</title>
<g id="a_edge2_Node000001_Node000003"><a xlink:title=" ">
<path fill="none" stroke="#9a32cd" stroke-dasharray="5,2" d="M294.53,-61.03C270.7,-48.42 235.8,-29.97 215.45,-19.2"/>
<polygon fill="#9a32cd" stroke="#9a32cd" points="293.21,-64.29 303.68,-65.87 296.48,-58.1 293.21,-64.29"/>
</a>
</g>
<text text-anchor="middle" x="287" y="-40" font-family="Helvetica,sans-Serif" font-size="10.00" fill="grey"> businfo</text>
</g>
<!-- Node4 -->
<g id="Node000004" class="node">
<title>Node4</title>
<g id="a_Node000004"><a xlink:href="classESP32_1_1DeviceBus.html" target="_top" xlink:title=" ">
<polygon fill="white" stroke="#666666" points="270,-151 166,-151 166,-132 270,-132 270,-151"/>
<text text-anchor="middle" x="218" y="-139" font-family="Helvetica,sans-Serif" font-size="10.00">ESP32::DeviceBus</text>
</a>
</g>
</g>
<!-- Node4&#45;&gt;Node3 -->
<g id="edge3_Node000003_Node000004" class="edge">
<title>Node4&#45;&gt;Node3</title>
<g id="a_edge3_Node000003_Node000004"><a xlink:title=" ">
<path fill="none" stroke="#63b8ff" d="M240.28,-126.52C260.34,-113.93 289.2,-95.82 306.14,-85.2"/>
<polygon fill="#63b8ff" stroke="#63b8ff" points="238.37,-123.59 231.76,-131.87 242.09,-129.52 238.37,-123.59"/>
</a>
</g>
</g>
<!-- Node4&#45;&gt;Node4 -->
<g id="edge4_Node000004_Node000004" class="edge">
<title>Node4&#45;&gt;Node4</title>
<g id="a_edge4_Node000004_Node000004"><a xlink:title=" ">
<path fill="none" stroke="#9a32cd" stroke-dasharray="5,2" d="M280.4,-145.99C285.11,-144.99 288,-143.49 288,-141.5 288,-138.31 280.59,-136.4 270.2,-135.75"/>
<polygon fill="#9a32cd" stroke="#9a32cd" points="279.7,-142.55 270.2,-147.25 280.56,-149.5 279.7,-142.55"/>
</a>
</g>
<text text-anchor="middle" x="300.5" y="-139" font-family="Helvetica,sans-Serif" font-size="10.00" fill="grey"> next</text>
</g>
<!-- Node5 -->
<g id="Node000005" class="node">
<title>Node5</title>
<g id="a_Node000005"><a xlink:href="classESP32_1_1Semaphore.html" target="_top" xlink:title=" ">
<polygon fill="white" stroke="#666666" points="112,-217 4,-217 4,-198 112,-198 112,-217"/>
<text text-anchor="middle" x="58" y="-205" font-family="Helvetica,sans-Serif" font-size="10.00">ESP32::Semaphore</text>
</a>
</g>
</g>
<!-- Node5&#45;&gt;Node4 -->
<g id="edge5_Node000004_Node000005" class="edge">
<title>Node5&#45;&gt;Node4</title>
<g id="a_edge5_Node000004_Node000005"><a xlink:title=" ">
<path fill="none" stroke="#9a32cd" stroke-dasharray="5,2" d="M89.22,-194.01C120.85,-181.36 168.92,-162.13 196.51,-151.1"/>
<polygon fill="#9a32cd" stroke="#9a32cd" points="87.56,-190.91 79.58,-197.87 90.16,-197.4 87.56,-190.91"/>
</a>
</g>
<text text-anchor="middle" x="177" y="-172" font-family="Helvetica,sans-Serif" font-size="10.00" fill="grey"> semaphore</text>
</g>
<!-- Node6 -->
<g id="Node000006" class="node">
<title>Node6</title>
<g id="a_Node000006"><a xlink:href="classAP__HAL_1_1Semaphore.html" target="_top" xlink:title=" ">
<polygon fill="white" stroke="#666666" points="116,-294 0,-294 0,-275 116,-275 116,-294"/>
<text text-anchor="middle" x="58" y="-282" font-family="Helvetica,sans-Serif" font-size="10.00">AP_HAL::Semaphore</text>
</a>
</g>
</g>
<!-- Node6&#45;&gt;Node5 -->
<g id="edge6_Node000005_Node000006" class="edge">
<title>Node6&#45;&gt;Node5</title>
<g id="a_edge6_Node000005_Node000006"><a xlink:title=" ">
<path fill="none" stroke="#63b8ff" d="M58,-264.52C58,-249.24 58,-228.48 58,-217"/>
<polygon fill="#63b8ff" stroke="#63b8ff" points="54.5,-264.9 58,-274.9 61.5,-264.9 54.5,-264.9"/>
</a>
</g>
</g>
<!-- Node7 -->
<g id="Node000007" class="node">
<title>Node7</title>
<g id="a_Node000007"><a xlink:href="structESP32_1_1DeviceBus_1_1callback__info.html" target="_top" xlink:title=" ">
<polygon fill="white" stroke="#666666" points="305.5,-217 130.5,-217 130.5,-198 305.5,-198 305.5,-217"/>
<text text-anchor="middle" x="218" y="-205" font-family="Helvetica,sans-Serif" font-size="10.00">ESP32::DeviceBus::callback_info</text>
</a>
</g>
</g>
<!-- Node7&#45;&gt;Node4 -->
<g id="edge7_Node000004_Node000007" class="edge">
<title>Node7&#45;&gt;Node4</title>
<g id="a_edge7_Node000004_Node000007"><a xlink:title=" ">
<path fill="none" stroke="#9a32cd" stroke-dasharray="5,2" d="M218,-187.58C218,-175.63 218,-160.72 218,-151.41"/>
<polygon fill="#9a32cd" stroke="#9a32cd" points="214.5,-187.87 218,-197.87 221.5,-187.87 214.5,-187.87"/>
</a>
</g>
<text text-anchor="middle" x="242.5" y="-172" font-family="Helvetica,sans-Serif" font-size="10.00" fill="grey"> callbacks</text>
</g>
<!-- Node7&#45;&gt;Node7 -->
<g id="edge8_Node000007_Node000007" class="edge">
<title>Node7&#45;&gt;Node7</title>
<g id="a_edge8_Node000007_Node000007"><a xlink:title=" ">
<path fill="none" stroke="#9a32cd" stroke-dasharray="5,2" d="M315.71,-211.38C320.61,-210.41 323.5,-209.12 323.5,-207.5 323.5,-204.97 316.46,-203.24 305.72,-202.31"/>
<polygon fill="#9a32cd" stroke="#9a32cd" points="315.18,-207.92 305.72,-212.69 316.09,-214.86 315.18,-207.92"/>
</a>
</g>
<text text-anchor="middle" x="336" y="-205" font-family="Helvetica,sans-Serif" font-size="10.00" fill="grey"> next</text>
</g>
<!-- Node8 -->
<g id="Node000008" class="node">
<title>Node8</title>
<g id="a_Node000008"><a xlink:href="classAP__HAL_1_1Device.html" target="_top" xlink:title=" ">
<polygon fill="white" stroke="#666666" points="461,-217 367,-217 367,-198 461,-198 461,-217"/>
<text text-anchor="middle" x="414" y="-205" font-family="Helvetica,sans-Serif" font-size="10.00">AP_HAL::Device</text>
</a>
</g>
</g>
<!-- Node8&#45;&gt;Node4 -->
<g id="edge9_Node000004_Node000008" class="edge">
<title>Node8&#45;&gt;Node4</title>
<g id="a_edge9_Node000004_Node000008"><a xlink:title=" ">
<path fill="none" stroke="#9a32cd" stroke-dasharray="5,2" d="M377.75,-194.66C339.06,-182.03 278.71,-162.32 244.33,-151.1"/>
<polygon fill="#9a32cd" stroke="#9a32cd" points="376.97,-198.09 387.57,-197.87 379.15,-191.44 376.97,-198.09"/>
</a>
</g>
<text text-anchor="middle" x="356" y="-172" font-family="Helvetica,sans-Serif" font-size="10.00" fill="grey"> hal_device</text>
</g>
<!-- Node9 -->
<g id="Node000009" class="node">
<title>Node9</title>
<g id="a_Node000009"><a xlink:href="unionAP__HAL_1_1Device_1_1DeviceId.html" target="_top" xlink:title=" ">
<polygon fill="white" stroke="#666666" points="379.5,-294 236.5,-294 236.5,-275 379.5,-275 379.5,-294"/>
<text text-anchor="middle" x="308" y="-282" font-family="Helvetica,sans-Serif" font-size="10.00">AP_HAL::Device::DeviceId</text>
</a>
</g>
</g>
<!-- Node9&#45;&gt;Node8 -->
<g id="edge10_Node000008_Node000009" class="edge">
<title>Node9&#45;&gt;Node8</title>
<g id="a_edge10_Node000008_Node000009"><a xlink:title=" ">
<path fill="none" stroke="#9a32cd" stroke-dasharray="5,2" d="M328.42,-269.05C350.24,-253.61 384.1,-229.66 401.98,-217"/>
<polygon fill="#9a32cd" stroke="#9a32cd" points="326.3,-266.26 320.16,-274.9 330.34,-271.98 326.3,-266.26"/>
</a>
</g>
<text text-anchor="middle" x="393" y="-243.5" font-family="Helvetica,sans-Serif" font-size="10.00" fill="grey"> _bus_id</text>
</g>
<!-- Node10 -->
<g id="Node000010" class="node">
<title>Node10</title>
<g id="a_Node000010"><a xlink:href="structAP__HAL_1_1Device_1_1DeviceStructure.html" target="_top" xlink:title=" ">
<polygon fill="white" stroke="#666666" points="397,-360 219,-360 219,-341 397,-341 397,-360"/>
<text text-anchor="middle" x="308" y="-348" font-family="Helvetica,sans-Serif" font-size="10.00">AP_HAL::Device::DeviceStructure</text>
</a>
</g>
</g>
<!-- Node10&#45;&gt;Node9 -->
<g id="edge11_Node000009_Node000010" class="edge">
<title>Node10&#45;&gt;Node9</title>
<g id="a_edge11_Node000009_Node000010"><a xlink:title=" ">
<path fill="none" stroke="#9a32cd" stroke-dasharray="5,2" d="M308,-330.58C308,-318.63 308,-303.72 308,-294.41"/>
<polygon fill="#9a32cd" stroke="#9a32cd" points="304.5,-330.87 308,-340.87 311.5,-330.87 304.5,-330.87"/>
</a>
</g>
<text text-anchor="middle" x="328.5" y="-315" font-family="Helvetica,sans-Serif" font-size="10.00" fill="grey"> devid_s</text>
</g>
<!-- Node11 -->
<g id="Node000011" class="node">
<title>Node11</title>
<g id="a_Node000011"><a xlink:href="structAP__HAL_1_1Device_1_1checkreg.html" target="_top" xlink:title=" ">
<polygon fill="white" stroke="#666666" points="542,-294 398,-294 398,-275 542,-275 542,-294"/>
<text text-anchor="middle" x="470" y="-282" font-family="Helvetica,sans-Serif" font-size="10.00">AP_HAL::Device::checkreg</text>
</a>
</g>
</g>
<!-- Node11&#45;&gt;Node8 -->
<g id="edge12_Node000008_Node000011" class="edge">
<title>Node11&#45;&gt;Node8</title>
<g id="a_edge12_Node000008_Node000011"><a xlink:title=" ">
<path fill="none" stroke="#9a32cd" stroke-dasharray="5,2" d="M457.48,-266.73C445.96,-251.3 429.34,-229.04 420.35,-217"/>
<polygon fill="#9a32cd" stroke="#9a32cd" points="454.79,-268.98 463.58,-274.9 460.4,-264.79 454.79,-268.98"/>
</a>
</g>
<text text-anchor="middle" x="480" y="-249" font-family="Helvetica,sans-Serif" font-size="10.00" fill="grey"> last_reg_fail</text>
<text text-anchor="middle" x="480" y="-238" font-family="Helvetica,sans-Serif" font-size="10.00" fill="grey">regs</text>
</g>
<!-- Node12 -->
<g id="Node000012" class="node">
<title>Node12</title>
<g id="a_Node000012"><a xlink:href="struct__i2c__bus__t.html" target="_top" xlink:title=" ">
<polygon fill="white" stroke="#666666" points="399,-151 331,-151 331,-132 399,-132 399,-151"/>
<text text-anchor="middle" x="365" y="-139" font-family="Helvetica,sans-Serif" font-size="10.00">_i2c_bus_t</text>
</a>
</g>
</g>
<!-- Node12&#45;&gt;Node3 -->
<g id="edge13_Node000003_Node000012" class="edge">
<title>Node12&#45;&gt;Node3</title>
<g id="a_edge13_Node000003_Node000012"><a xlink:title=" ">
<path fill="none" stroke="#9a32cd" stroke-dasharray="5,2" d="M352.98,-123.41C344.38,-111.18 333.15,-95.2 326.26,-85.41"/>
<polygon fill="#9a32cd" stroke="#9a32cd" points="350.32,-125.7 358.93,-131.87 356.04,-121.68 350.32,-125.7"/>
</a>
</g>
<text text-anchor="middle" x="372.5" y="-106" font-family="Helvetica,sans-Serif" font-size="10.00" fill="grey"> sw_handle</text>
</g>
</g>
</svg>

<g id="navigator" transform="translate(0 0)" fill="#404254">
  <rect fill="#f2f5e9" fill-opacity="0.5" stroke="#606060" stroke-width=".5" x="0" y="0" width="60" height="60"/>
  <use id="zoomplus" xlink:href="#zoomPlus" x="17" y="9" onmousedown="handleZoom(evt,'in')"/>
  <use id="zoomminus" xlink:href="#zoomMin" x="42" y="9" onmousedown="handleZoom(evt,'out')"/>
  <use id="reset" xlink:href="#resetDef" x="30" y="36" onmousedown="handleReset()"/>
   <use id="arrowup" xlink:href="#arrowUp" x="0" y="0" onmousedown="handlePan(0,-1)"/>
  <use id="arrowright" xlink:href="#arrowRight" x="0" y="0" onmousedown="handlePan(1,0)"/>
  <use id="arrowdown" xlink:href="#arrowDown" x="0" y="0" onmousedown="handlePan(0,1)"/>
  <use id="arrowleft" xlink:href="#arrowLeft" x="0" y="0" onmousedown="handlePan(-1,0)"/>
</g>
<svg viewBox="0 0 15 15" width="100%" height="30px" preserveAspectRatio="xMaxYMin meet">
 <g id="arrow_out" transform="scale(0.3 0.3)">
  <a xlink:href="classESP32_1_1I2CDeviceManager__coll__graph_org.svg" target="_base">
   <rect id="button" ry="5" rx="5" y="6" x="6" height="38" width="38"
        fill="#f2f5e9" fill-opacity="0.5" stroke="#606060" stroke-width="1.0"/>
   <path id="arrow"
     d="M 11.500037,31.436501 C 11.940474,20.09759 22.043105,11.32322 32.158766,21.979434 L 37.068811,17.246167 C 37.068811,17.246167 37.088388,32 37.088388,32 L 22.160133,31.978069 C 22.160133,31.978069 26.997745,27.140456 26.997745,27.140456 C 18.528582,18.264221 13.291696,25.230495 11.500037,31.436501 z"
     style="fill:#404040;"/>
  </a>
 </g>
</svg>

<style type='text/css'>
<![CDATA[
[data-mouse-over-selected='false'] { opacity: 0.7; }
[data-mouse-over-selected='true']  { opacity: 1.0; }
]]>
</style>
<script type="application/ecmascript"><![CDATA[
document.addEventListener('DOMContentLoaded', (event) => {
  highlightEdges();
  highlightAdjacentNodes();
});
]]></script>
</svg>
