<?xml version="1.0" encoding="UTF-8" standalone="no"?>
<!DOCTYPE svg PUBLIC "-//W3C//DTD SVG 1.1//EN"
 "http://www.w3.org/Graphics/SVG/1.1/DTD/svg11.dtd">
<!-- Generated by graphviz version 2.43.0 (0)
 -->
<!-- Title: SITL::PS_LightWare_SF45B::update_input Pages: 1 -->
<svg width="638pt" height="318pt"
 viewBox="0.00 0.00 638.00 318.00" xmlns="http://www.w3.org/2000/svg" xmlns:xlink="http://www.w3.org/1999/xlink">
<g id="graph0" class="graph" transform="scale(1 1) rotate(0) translate(4 314)">
<title>SITL::PS_LightWare_SF45B::update_input</title>
<!-- Node1 -->
<g id="Node000001" class="node">
<title>Node1</title>
<g id="a_Node000001"><a xlink:title=" ">
<polygon fill="#999999" stroke="#666666" points="122,-159 0,-159 0,-129 122,-129 122,-159"/>
<text text-anchor="start" x="8" y="-147" font-family="Helvetica,sans-Serif" font-size="10.00">SITL::PS_LightWare</text>
<text text-anchor="middle" x="61" y="-136" font-family="Helvetica,sans-Serif" font-size="10.00">_SF45B::update_input</text>
</a>
</g>
</g>
<!-- Node2 -->
<g id="Node000002" class="node">
<title>Node2</title>
<g id="a_Node000002"><a xlink:href="classSITL_1_1PS__LightWare__SF45B.html#a3bff2fce1fa2ca91012121ab015a4d53" target="_top" xlink:title=" ">
<polygon fill="white" stroke="#666666" points="299,-310 158,-310 158,-280 299,-280 299,-310"/>
<text text-anchor="start" x="166" y="-298" font-family="Helvetica,sans-Serif" font-size="10.00">SITL::PS_LightWare</text>
<text text-anchor="middle" x="228.5" y="-287" font-family="Helvetica,sans-Serif" font-size="10.00">_SF45B::handle_message</text>
</a>
</g>
</g>
<!-- Node1&#45;&gt;Node2 -->
<g id="edge1_Node000001_Node000002" class="edge">
<title>Node1&#45;&gt;Node2</title>
<g id="a_edge1_Node000001_Node000002"><a xlink:title=" ">
<path fill="none" stroke="#63b8ff" d="M69.6,-159.24C83.55,-185.71 115.73,-240.31 158,-271 159.89,-272.37 161.86,-273.67 163.9,-274.9"/>
<polygon fill="#63b8ff" stroke="#63b8ff" points="162.69,-278.22 173.16,-279.84 165.99,-272.04 162.69,-278.22"/>
</a>
</g>
</g>
<!-- Node3 -->
<g id="Node000003" class="node">
<title>Node3</title>
<g id="a_Node000003"><a xlink:href="classSITL_1_1PS__LightWare__SF45B.html#a5364a22b172e456b502342e25c7f353f" target="_top" xlink:title=" ">
<polygon fill="white" stroke="#666666" points="297.5,-261.5 159.5,-261.5 159.5,-220.5 297.5,-220.5 297.5,-261.5"/>
<text text-anchor="start" x="167.5" y="-249.5" font-family="Helvetica,sans-Serif" font-size="10.00">SITL::PS_LightWare</text>
<text text-anchor="start" x="167.5" y="-238.5" font-family="Helvetica,sans-Serif" font-size="10.00">_SF45B::move_preamble</text>
<text text-anchor="middle" x="228.5" y="-227.5" font-family="Helvetica,sans-Serif" font-size="10.00">_in_buffer</text>
</a>
</g>
</g>
<!-- Node1&#45;&gt;Node3 -->
<g id="edge2_Node000001_Node000003" class="edge">
<title>Node1&#45;&gt;Node3</title>
<g id="a_edge2_Node000001_Node000003"><a xlink:title=" ">
<path fill="none" stroke="#63b8ff" d="M81.1,-159.07C99.96,-173.51 129.95,-195.37 158,-211 161.02,-212.68 164.15,-214.34 167.34,-215.95"/>
<polygon fill="#63b8ff" stroke="#63b8ff" points="165.92,-219.15 176.44,-220.37 168.98,-212.85 165.92,-219.15"/>
</a>
</g>
</g>
<!-- Node4 -->
<g id="Node000004" class="node">
<title>Node4</title>
<g id="a_Node000004"><a xlink:href="classSITL_1_1PS__LightWare__SF45B.html#a8323a6aa0a83d1da2a53ad6d7dd487f2" target="_top" xlink:title=" ">
<polygon fill="white" stroke="#666666" points="295.5,-202 161.5,-202 161.5,-172 295.5,-172 295.5,-202"/>
<text text-anchor="start" x="169.5" y="-190" font-family="Helvetica,sans-Serif" font-size="10.00">SITL::PS_LightWare</text>
<text text-anchor="middle" x="228.5" y="-179" font-family="Helvetica,sans-Serif" font-size="10.00">_SF45B::msg_checksum</text>
</a>
</g>
</g>
<!-- Node1&#45;&gt;Node4 -->
<g id="edge3_Node000001_Node000004" class="edge">
<title>Node1&#45;&gt;Node4</title>
<g id="a_edge3_Node000001_Node000004"><a xlink:title=" ">
<path fill="none" stroke="#63b8ff" d="M119.88,-159.04C132.73,-162.38 146.47,-165.95 159.67,-169.38"/>
<polygon fill="#63b8ff" stroke="#63b8ff" points="159.09,-172.84 169.65,-171.97 160.85,-166.07 159.09,-172.84"/>
</a>
</g>
</g>
<!-- Node7 -->
<g id="Node000007" class="node">
<title>Node7</title>
<g id="a_Node000007"><a xlink:href="classSITL_1_1PS__LightWare__SF45B.html#ac96396841445f7d78301c644e5029327" target="_top" xlink:title=" ">
<polygon fill="white" stroke="#666666" points="472,-186 338,-186 338,-156 472,-156 472,-186"/>
<text text-anchor="start" x="346" y="-174" font-family="Helvetica,sans-Serif" font-size="10.00">SITL::PS_LightWare</text>
<text text-anchor="middle" x="405" y="-163" font-family="Helvetica,sans-Serif" font-size="10.00">_SF45B::payload_length</text>
</a>
</g>
</g>
<!-- Node1&#45;&gt;Node7 -->
<g id="edge11_Node000001_Node000007" class="edge">
<title>Node1&#45;&gt;Node7</title>
<g id="a_edge11_Node000001_Node000007"><a xlink:title=" ">
<path fill="none" stroke="#63b8ff" d="M122.36,-148.76C179.57,-153.28 265.76,-160.09 327.71,-164.98"/>
<polygon fill="#63b8ff" stroke="#63b8ff" points="327.58,-168.48 337.83,-165.78 328.13,-161.5 327.58,-168.48"/>
</a>
</g>
</g>
<!-- Node8 -->
<g id="Node000008" class="node">
<title>Node8</title>
<g id="a_Node000008"><a xlink:href="namespaceAP__HAL.html#a52edeef7d5ffaa365e1229b87c170307" target="_top" xlink:title=" ">
<polygon fill="white" stroke="#666666" points="271.5,-115.5 185.5,-115.5 185.5,-96.5 271.5,-96.5 271.5,-115.5"/>
<text text-anchor="middle" x="228.5" y="-103.5" font-family="Helvetica,sans-Serif" font-size="10.00">AP_HAL::panic</text>
</a>
</g>
</g>
<!-- Node1&#45;&gt;Node8 -->
<g id="edge7_Node000001_Node000008" class="edge">
<title>Node1&#45;&gt;Node8</title>
<g id="a_edge7_Node000001_Node000008"><a xlink:title=" ">
<path fill="none" stroke="#63b8ff" d="M122.22,-130.17C139.91,-126.11 159.09,-121.71 176.17,-117.79"/>
<polygon fill="#63b8ff" stroke="#63b8ff" points="177,-121.19 185.96,-115.54 175.43,-114.36 177,-121.19"/>
</a>
</g>
</g>
<!-- Node12 -->
<g id="Node000012" class="node">
<title>Node12</title>
<g id="a_Node000012"><a xlink:href="classSITL_1_1SerialDevice.html#a19281d87ba01fead1fa88e46fe48c966" target="_top" xlink:title=" ">
<polygon fill="white" stroke="#666666" points="289.5,-78 167.5,-78 167.5,-48 289.5,-48 289.5,-78"/>
<text text-anchor="start" x="175.5" y="-66" font-family="Helvetica,sans-Serif" font-size="10.00">SITL::SerialDevice</text>
<text text-anchor="middle" x="228.5" y="-55" font-family="Helvetica,sans-Serif" font-size="10.00">::read_from_autopilot</text>
</a>
</g>
</g>
<!-- Node1&#45;&gt;Node12 -->
<g id="edge12_Node000001_Node000012" class="edge">
<title>Node1&#45;&gt;Node12</title>
<g id="a_edge12_Node000001_Node000012"><a xlink:title=" ">
<path fill="none" stroke="#63b8ff" d="M85.02,-128.96C104.08,-116.91 132.12,-100.08 158,-88 162.6,-85.85 167.44,-83.77 172.34,-81.79"/>
<polygon fill="#63b8ff" stroke="#63b8ff" points="173.74,-85 181.78,-78.1 171.19,-78.48 173.74,-85"/>
</a>
</g>
</g>
<!-- Node13 -->
<g id="Node000013" class="node">
<title>Node13</title>
<g id="a_Node000013"><a xlink:href="classSITL_1_1PS__LightWare__SF45B.html#a0496bb5b229845a00ffded13865b35b7" target="_top" xlink:title=" ">
<polygon fill="white" stroke="#666666" points="292.5,-30 164.5,-30 164.5,0 292.5,0 292.5,-30"/>
<text text-anchor="start" x="172.5" y="-18" font-family="Helvetica,sans-Serif" font-size="10.00">SITL::PS_LightWare</text>
<text text-anchor="middle" x="228.5" y="-7" font-family="Helvetica,sans-Serif" font-size="10.00">_SF45B::set_inputstate</text>
</a>
</g>
</g>
<!-- Node1&#45;&gt;Node13 -->
<g id="edge13_Node000001_Node000013" class="edge">
<title>Node1&#45;&gt;Node13</title>
<g id="a_edge13_Node000001_Node000013"><a xlink:title=" ">
<path fill="none" stroke="#63b8ff" d="M72.01,-128.94C87.76,-106.34 120.43,-63.69 158,-39 160.4,-37.42 162.92,-35.94 165.51,-34.54"/>
<polygon fill="#63b8ff" stroke="#63b8ff" points="167.11,-37.65 174.56,-30.12 164.03,-31.36 167.11,-37.65"/>
</a>
</g>
</g>
<!-- Node5 -->
<g id="Node000005" class="node">
<title>Node5</title>
<g id="a_Node000005"><a xlink:href="classSITL_1_1PS__LightWare__SF45B.html#a94b35c7ef77e518f929b62678f6631e2" target="_top" xlink:title=" ">
<polygon fill="white" stroke="#666666" points="475,-234 335,-234 335,-204 475,-204 475,-234"/>
<text text-anchor="start" x="343" y="-222" font-family="Helvetica,sans-Serif" font-size="10.00">SITL::PS_LightWare</text>
<text text-anchor="middle" x="405" y="-211" font-family="Helvetica,sans-Serif" font-size="10.00">_SF45B::checksum_bytes</text>
</a>
</g>
</g>
<!-- Node4&#45;&gt;Node5 -->
<g id="edge4_Node000004_Node000005" class="edge">
<title>Node4&#45;&gt;Node5</title>
<g id="a_edge4_Node000004_Node000005"><a xlink:title=" ">
<path fill="none" stroke="#63b8ff" d="M295.97,-199.19C305.4,-200.92 315.18,-202.71 324.83,-204.48"/>
<polygon fill="#63b8ff" stroke="#63b8ff" points="324.35,-207.95 334.82,-206.31 325.61,-201.07 324.35,-207.95"/>
</a>
</g>
</g>
<!-- Node4&#45;&gt;Node7 -->
<g id="edge6_Node000004_Node000007" class="edge">
<title>Node4&#45;&gt;Node7</title>
<g id="a_edge6_Node000004_Node000007"><a xlink:title=" ">
<path fill="none" stroke="#63b8ff" d="M295.97,-180.91C306.33,-179.96 317.11,-178.97 327.68,-178"/>
<polygon fill="#63b8ff" stroke="#63b8ff" points="328.08,-181.48 337.72,-177.08 327.44,-174.51 328.08,-181.48"/>
</a>
</g>
</g>
<!-- Node6 -->
<g id="Node000006" class="node">
<title>Node6</title>
<g id="a_Node000006"><a xlink:href="crc_8cpp.html#abe3d4804a4bf6a43485c6a6ffcbceb38" target="_top" xlink:title=" ">
<polygon fill="white" stroke="#666666" points="630,-228.5 511,-228.5 511,-209.5 630,-209.5 630,-228.5"/>
<text text-anchor="middle" x="570.5" y="-216.5" font-family="Helvetica,sans-Serif" font-size="10.00">crc_xmodem_update</text>
</a>
</g>
</g>
<!-- Node5&#45;&gt;Node6 -->
<g id="edge5_Node000005_Node000006" class="edge">
<title>Node5&#45;&gt;Node6</title>
<g id="a_edge5_Node000005_Node000006"><a xlink:title=" ">
<path fill="none" stroke="#63b8ff" d="M475.34,-219C483.75,-219 492.35,-219 500.76,-219"/>
<polygon fill="#63b8ff" stroke="#63b8ff" points="500.89,-222.5 510.89,-219 500.89,-215.5 500.89,-222.5"/>
</a>
</g>
</g>
<!-- Node9 -->
<g id="Node000009" class="node">
<title>Node9</title>
<g id="a_Node000009"><a xlink:href="classAP__HAL_1_1Scheduler.html#ab3175e2e6223ccfe82f957e41cc12b26" target="_top" xlink:title=" ">
<polygon fill="white" stroke="#666666" points="462,-138 348,-138 348,-108 462,-108 462,-138"/>
<text text-anchor="start" x="356" y="-126" font-family="Helvetica,sans-Serif" font-size="10.00">AP_HAL::Scheduler::</text>
<text text-anchor="middle" x="405" y="-115" font-family="Helvetica,sans-Serif" font-size="10.00">delay</text>
</a>
</g>
</g>
<!-- Node8&#45;&gt;Node9 -->
<g id="edge8_Node000008_Node000009" class="edge">
<title>Node8&#45;&gt;Node9</title>
<g id="a_edge8_Node000008_Node000009"><a xlink:title=" ">
<path fill="none" stroke="#63b8ff" d="M271.74,-110.12C291.6,-112.05 315.74,-114.4 337.93,-116.56"/>
<polygon fill="#63b8ff" stroke="#63b8ff" points="337.67,-120.05 347.97,-117.54 338.35,-113.09 337.67,-120.05"/>
</a>
</g>
</g>
<!-- Node10 -->
<g id="Node000010" class="node">
<title>Node10</title>
<g id="a_Node000010"><a xlink:href="classAP__HAL_1_1Scheduler.html#a78c4f1b1f192ac1c99544b6cc8f099b0" target="_top" xlink:title=" ">
<polygon fill="white" stroke="#666666" points="463,-90 347,-90 347,-60 463,-60 463,-90"/>
<text text-anchor="start" x="355" y="-78" font-family="Helvetica,sans-Serif" font-size="10.00">AP_HAL::Scheduler::</text>
<text text-anchor="middle" x="405" y="-67" font-family="Helvetica,sans-Serif" font-size="10.00">delay_microseconds</text>
</a>
</g>
</g>
<!-- Node8&#45;&gt;Node10 -->
<g id="edge9_Node000008_Node000010" class="edge">
<title>Node8&#45;&gt;Node10</title>
<g id="a_edge9_Node000008_Node000010"><a xlink:title=" ">
<path fill="none" stroke="#63b8ff" d="M271.74,-98.5C291.33,-95.01 315.1,-90.79 337.05,-86.89"/>
<polygon fill="#63b8ff" stroke="#63b8ff" points="337.75,-90.32 346.98,-85.13 336.52,-83.43 337.75,-90.32"/>
</a>
</g>
</g>
<!-- Node11 -->
<g id="Node000011" class="node">
<title>Node11</title>
<g id="a_Node000011"><a xlink:href="stdio_8h.html#aae132cc6af1eb6cf43bf011d8d63e854" target="_top" xlink:title=" ">
<polygon fill="white" stroke="#666666" points="429.5,-41.5 380.5,-41.5 380.5,-22.5 429.5,-22.5 429.5,-41.5"/>
<text text-anchor="middle" x="405" y="-29.5" font-family="Helvetica,sans-Serif" font-size="10.00">vprintf</text>
</a>
</g>
</g>
<!-- Node8&#45;&gt;Node11 -->
<g id="edge10_Node000008_Node000011" class="edge">
<title>Node8&#45;&gt;Node11</title>
<g id="a_edge10_Node000008_Node000011"><a xlink:title=" ">
<path fill="none" stroke="#63b8ff" d="M271.7,-98.22C281.06,-95.48 290.67,-91.84 299,-87 318.57,-75.64 315.44,-62.38 335,-51 345.8,-44.72 358.76,-40.44 370.52,-37.56"/>
<polygon fill="#63b8ff" stroke="#63b8ff" points="371.44,-40.94 380.45,-35.37 369.94,-34.1 371.44,-40.94"/>
</a>
</g>
</g>
</g>
</svg>
