<?xml version="1.0" encoding="UTF-8" standalone="no"?>
<!DOCTYPE svg PUBLIC "-//W3C//DTD SVG 1.1//EN"
 "http://www.w3.org/Graphics/SVG/1.1/DTD/svg11.dtd">
<!-- Generated by graphviz version 2.43.0 (0)
 -->
<!-- Title: NavEKF3::getLLH Pages: 1 -->
<svg width="800pt" height="230pt"
 viewBox="0.00 0.00 800.00 230.00" xmlns="http://www.w3.org/2000/svg" xmlns:xlink="http://www.w3.org/1999/xlink">
<g id="graph0" class="graph" transform="scale(1 1) rotate(0) translate(4 226)">
<title>NavEKF3::getLLH</title>
<!-- Node1 -->
<g id="Node000001" class="node">
<title>Node1</title>
<g id="a_Node000001"><a xlink:title=" ">
<polygon fill="#999999" stroke="#666666" points="101,-105 0,-105 0,-86 101,-86 101,-105"/>
<text text-anchor="middle" x="50.5" y="-93" font-family="Helvetica,sans-Serif" font-size="10.00">NavEKF3::getLLH</text>
</a>
</g>
</g>
<!-- Node2 -->
<g id="Node000002" class="node">
<title>Node2</title>
<g id="a_Node000002"><a xlink:href="classNavEKF3__core.html#a7e6f5368184ed65123b5a3e64857ec64" target="_top" xlink:title=" ">
<polygon fill="white" stroke="#666666" points="264,-105 137,-105 137,-86 264,-86 264,-105"/>
<text text-anchor="middle" x="200.5" y="-93" font-family="Helvetica,sans-Serif" font-size="10.00">NavEKF3_core::getLLH</text>
</a>
</g>
</g>
<!-- Node1&#45;&gt;Node2 -->
<g id="edge1_Node000001_Node000002" class="edge">
<title>Node1&#45;&gt;Node2</title>
<g id="a_edge1_Node000001_Node000002"><a xlink:title=" ">
<path fill="none" stroke="#63b8ff" d="M101.19,-95.5C109.4,-95.5 118.06,-95.5 126.7,-95.5"/>
<polygon fill="#63b8ff" stroke="#63b8ff" points="126.8,-99 136.8,-95.5 126.79,-92 126.8,-99"/>
</a>
</g>
</g>
<!-- Node3 -->
<g id="Node000003" class="node">
<title>Node3</title>
<g id="a_Node000003"><a xlink:href="classNavEKF3__core.html#ad0b3c2e276a1ad44c91fd55e0073d23f" target="_top" xlink:title=" ">
<polygon fill="white" stroke="#666666" points="451,-185 305,-185 305,-166 451,-166 451,-185"/>
<text text-anchor="middle" x="378" y="-173" font-family="Helvetica,sans-Serif" font-size="10.00">NavEKF3_core::getGPSLLH</text>
</a>
</g>
</g>
<!-- Node2&#45;&gt;Node3 -->
<g id="edge2_Node000002_Node000003" class="edge">
<title>Node2&#45;&gt;Node3</title>
<g id="a_edge2_Node000002_Node000003"><a xlink:title=" ">
<path fill="none" stroke="#63b8ff" d="M213.82,-105.17C231.77,-118.8 266.63,-143.56 300,-157.5 304.99,-159.58 310.26,-161.45 315.62,-163.12"/>
<polygon fill="#63b8ff" stroke="#63b8ff" points="314.72,-166.51 325.3,-165.92 316.67,-159.78 314.72,-166.51"/>
</a>
</g>
</g>
<!-- Node8 -->
<g id="Node000008" class="node">
<title>Node8</title>
<g id="a_Node000008"><a xlink:href="classNavEKF3__core.html#a18160d7949e6a45af08e8bfbbf9dc240" target="_top" xlink:title=" ">
<polygon fill="white" stroke="#666666" points="456,-148 300,-148 300,-129 456,-129 456,-148"/>
<text text-anchor="middle" x="378" y="-136" font-family="Helvetica,sans-Serif" font-size="10.00">NavEKF3_core::getOriginLLH</text>
</a>
</g>
</g>
<!-- Node2&#45;&gt;Node8 -->
<g id="edge8_Node000002_Node000008" class="edge">
<title>Node2&#45;&gt;Node8</title>
<g id="a_edge8_Node000002_Node000008"><a xlink:title=" ">
<path fill="none" stroke="#63b8ff" d="M240.45,-105.04C266.35,-111.39 300.57,-119.77 328.28,-126.56"/>
<polygon fill="#63b8ff" stroke="#63b8ff" points="327.61,-130 338.16,-128.98 329.28,-123.2 327.61,-130"/>
</a>
</g>
</g>
<!-- Node9 -->
<g id="Node000009" class="node">
<title>Node9</title>
<g id="a_Node000009"><a xlink:href="classNavEKF3__core.html#af1e04cfaf90639b1695696e276cdc8d6" target="_top" xlink:title=" ">
<polygon fill="white" stroke="#666666" points="445,-110.5 311,-110.5 311,-80.5 445,-80.5 445,-110.5"/>
<text text-anchor="start" x="319" y="-98.5" font-family="Helvetica,sans-Serif" font-size="10.00">NavEKF3_core::getPosD</text>
<text text-anchor="middle" x="378" y="-87.5" font-family="Helvetica,sans-Serif" font-size="10.00">_local</text>
</a>
</g>
</g>
<!-- Node2&#45;&gt;Node9 -->
<g id="edge9_Node000002_Node000009" class="edge">
<title>Node2&#45;&gt;Node9</title>
<g id="a_edge9_Node000002_Node000009"><a xlink:title=" ">
<path fill="none" stroke="#63b8ff" d="M264.36,-95.5C276.12,-95.5 288.53,-95.5 300.64,-95.5"/>
<polygon fill="#63b8ff" stroke="#63b8ff" points="300.72,-99 310.72,-95.5 300.72,-92 300.72,-99"/>
</a>
</g>
</g>
<!-- Node10 -->
<g id="Node000010" class="node">
<title>Node10</title>
<g id="a_Node000010"><a xlink:href="classLocation.html#a146775eb07ce9abcc8d05f1b730404b0" target="_top" xlink:title=" ">
<polygon fill="white" stroke="#666666" points="424,-62 332,-62 332,-43 424,-43 424,-62"/>
<text text-anchor="middle" x="378" y="-50" font-family="Helvetica,sans-Serif" font-size="10.00">Location::offset</text>
</a>
</g>
</g>
<!-- Node2&#45;&gt;Node10 -->
<g id="edge10_Node000002_Node000010" class="edge">
<title>Node2&#45;&gt;Node10</title>
<g id="a_edge10_Node000002_Node000010"><a xlink:title=" ">
<path fill="none" stroke="#63b8ff" d="M240.45,-85.96C266.35,-79.61 300.57,-71.23 328.28,-64.44"/>
<polygon fill="#63b8ff" stroke="#63b8ff" points="329.28,-67.8 338.16,-62.02 327.61,-61 329.28,-67.8"/>
</a>
</g>
</g>
<!-- Node15 -->
<g id="Node000015" class="node">
<title>Node15</title>
<g id="a_Node000015"><a xlink:href="classLocation.html#a42ff316c00ff41841042c65521a44944" target="_top" xlink:title=" ">
<polygon fill="white" stroke="#666666" points="436.5,-25 319.5,-25 319.5,-6 436.5,-6 436.5,-25"/>
<text text-anchor="middle" x="378" y="-13" font-family="Helvetica,sans-Serif" font-size="10.00">Location::set_alt_cm</text>
</a>
</g>
</g>
<!-- Node2&#45;&gt;Node15 -->
<g id="edge15_Node000002_Node000015" class="edge">
<title>Node2&#45;&gt;Node15</title>
<g id="a_edge15_Node000002_Node000015"><a xlink:title=" ">
<path fill="none" stroke="#63b8ff" d="M213.82,-85.83C231.77,-72.2 266.63,-47.44 300,-33.5 304.99,-31.42 310.26,-29.55 315.62,-27.88"/>
<polygon fill="#63b8ff" stroke="#63b8ff" points="316.67,-31.22 325.3,-25.08 314.72,-24.49 316.67,-31.22"/>
</a>
</g>
</g>
<!-- Node4 -->
<g id="Node000004" class="node">
<title>Node4</title>
<g id="a_Node000004"><a xlink:href="classAP__DAL.html#a6bcff1cd1ed06210972de4d7afb8d950" target="_top" xlink:title=" ">
<polygon fill="white" stroke="#666666" points="593,-222 516,-222 516,-203 593,-203 593,-222"/>
<text text-anchor="middle" x="554.5" y="-210" font-family="Helvetica,sans-Serif" font-size="10.00">AP_DAL::gps</text>
</a>
</g>
</g>
<!-- Node3&#45;&gt;Node4 -->
<g id="edge3_Node000003_Node000004" class="edge">
<title>Node3&#45;&gt;Node4</title>
<g id="a_edge3_Node000003_Node000004"><a xlink:title=" ">
<path fill="none" stroke="#63b8ff" d="M423.94,-185.03C449.08,-190.36 480.4,-197 505.95,-202.42"/>
<polygon fill="#63b8ff" stroke="#63b8ff" points="505.29,-205.85 515.79,-204.51 506.74,-199.01 505.29,-205.85"/>
</a>
</g>
</g>
<!-- Node5 -->
<g id="Node000005" class="node">
<title>Node5</title>
<g id="a_Node000005"><a xlink:href="classAP__GPS.html#ab1da3f2cdc163164cfee43b3248821ed" target="_top" xlink:title=" ">
<polygon fill="white" stroke="#666666" points="604,-185 505,-185 505,-166 604,-166 604,-185"/>
<text text-anchor="middle" x="554.5" y="-173" font-family="Helvetica,sans-Serif" font-size="10.00">AP_GPS::location</text>
</a>
</g>
</g>
<!-- Node3&#45;&gt;Node5 -->
<g id="edge4_Node000003_Node000005" class="edge">
<title>Node3&#45;&gt;Node5</title>
<g id="a_edge4_Node000003_Node000005"><a xlink:title=" ">
<path fill="none" stroke="#63b8ff" d="M451.24,-175.5C465.66,-175.5 480.64,-175.5 494.55,-175.5"/>
<polygon fill="#63b8ff" stroke="#63b8ff" points="494.95,-179 504.95,-175.5 494.95,-172 494.95,-179"/>
</a>
</g>
</g>
<!-- Node6 -->
<g id="Node000006" class="node">
<title>Node6</title>
<g id="a_Node000006"><a xlink:href="classAP__GPS.html#ac22b61d2e6cf0b6ff647173ea336de01" target="_top" xlink:title="Query GPS status.">
<polygon fill="white" stroke="#666666" points="599.5,-148 509.5,-148 509.5,-129 599.5,-129 599.5,-148"/>
<text text-anchor="middle" x="554.5" y="-136" font-family="Helvetica,sans-Serif" font-size="10.00">AP_GPS::status</text>
</a>
</g>
</g>
<!-- Node3&#45;&gt;Node6 -->
<g id="edge5_Node000003_Node000006" class="edge">
<title>Node3&#45;&gt;Node6</title>
<g id="a_edge5_Node000003_Node000006"><a xlink:title=" ">
<path fill="none" stroke="#63b8ff" d="M423.94,-165.97C446.91,-161.1 475.05,-155.13 499.23,-150.01"/>
<polygon fill="#63b8ff" stroke="#63b8ff" points="500.26,-153.37 509.32,-147.87 498.81,-146.52 500.26,-153.37"/>
</a>
</g>
</g>
<!-- Node7 -->
<g id="Node000007" class="node">
<title>Node7</title>
<g id="a_Node000007"><a xlink:href="classAP__GPS.html#a23a9fce42abaf8f53d5a3f64c84461e7" target="_top" xlink:title=" ">
<polygon fill="white" stroke="#666666" points="767.5,-148 677.5,-148 677.5,-129 767.5,-129 767.5,-148"/>
<text text-anchor="middle" x="722.5" y="-136" font-family="Helvetica,sans-Serif" font-size="10.00">AP_GPS::status</text>
</a>
</g>
</g>
<!-- Node6&#45;&gt;Node7 -->
<g id="edge6_Node000006_Node000007" class="edge">
<title>Node6&#45;&gt;Node7</title>
<g id="a_edge6_Node000006_Node000007"><a xlink:title=" ">
<path fill="none" stroke="#63b8ff" d="M599.55,-138.5C620.28,-138.5 645.2,-138.5 667.1,-138.5"/>
<polygon fill="#63b8ff" stroke="#63b8ff" points="667.25,-142 677.25,-138.5 667.24,-135 667.25,-142"/>
</a>
</g>
</g>
<!-- Node7&#45;&gt;Node7 -->
<g id="edge7_Node000007_Node000007" class="edge">
<title>Node7&#45;&gt;Node7</title>
<g id="a_edge7_Node000007_Node000007"><a xlink:title=" ">
<path fill="none" stroke="#63b8ff" d="M696.61,-148.08C684.01,-156.73 692.64,-166 722.5,-166 742.56,-166 753.04,-161.82 753.94,-156.45"/>
<polygon fill="#63b8ff" stroke="#63b8ff" points="756.84,-154.49 748.39,-148.08 751,-158.35 756.84,-154.49"/>
</a>
</g>
</g>
<!-- Node11 -->
<g id="Node000011" class="node">
<title>Node11</title>
<g id="a_Node000011"><a xlink:href="classLocation.html#ad9b9772b9d84be174e25a3c35f84702e" target="_top" xlink:title=" ">
<polygon fill="white" stroke="#666666" points="617,-62 492,-62 492,-43 617,-43 617,-62"/>
<text text-anchor="middle" x="554.5" y="-50" font-family="Helvetica,sans-Serif" font-size="10.00">Location::offset_latlng</text>
</a>
</g>
</g>
<!-- Node10&#45;&gt;Node11 -->
<g id="edge11_Node000010_Node000011" class="edge">
<title>Node10&#45;&gt;Node11</title>
<g id="a_edge11_Node000010_Node000011"><a xlink:title=" ">
<path fill="none" stroke="#63b8ff" d="M424.39,-52.5C441.94,-52.5 462.44,-52.5 481.87,-52.5"/>
<polygon fill="#63b8ff" stroke="#63b8ff" points="481.91,-56 491.91,-52.5 481.91,-49 481.91,-56"/>
</a>
</g>
</g>
<!-- Node12 -->
<g id="Node000012" class="node">
<title>Node12</title>
<g id="a_Node000012"><a xlink:href="classLocation.html#a526b1e4735fe7dfcdc3cc9af638d017c" target="_top" xlink:title=" ">
<polygon fill="white" stroke="#666666" points="789,-105 656,-105 656,-86 789,-86 789,-105"/>
<text text-anchor="middle" x="722.5" y="-93" font-family="Helvetica,sans-Serif" font-size="10.00">Location::limit_lattitude</text>
</a>
</g>
</g>
<!-- Node11&#45;&gt;Node12 -->
<g id="edge12_Node000011_Node000012" class="edge">
<title>Node11&#45;&gt;Node12</title>
<g id="a_edge12_Node000011_Node000012"><a xlink:title=" ">
<path fill="none" stroke="#63b8ff" d="M592.34,-62.04C616.73,-68.36 648.93,-76.7 675.07,-83.47"/>
<polygon fill="#63b8ff" stroke="#63b8ff" points="674.2,-86.86 684.76,-85.98 675.96,-80.09 674.2,-86.86"/>
</a>
</g>
</g>
<!-- Node13 -->
<g id="Node000013" class="node">
<title>Node13</title>
<g id="a_Node000013"><a xlink:href="classLocation.html#ab8844915021178ffc5cb56b19e95ad2c" target="_top" xlink:title=" ">
<polygon fill="white" stroke="#666666" points="777.5,-67.5 667.5,-67.5 667.5,-37.5 777.5,-37.5 777.5,-67.5"/>
<text text-anchor="start" x="675.5" y="-55.5" font-family="Helvetica,sans-Serif" font-size="10.00">Location::longitude</text>
<text text-anchor="middle" x="722.5" y="-44.5" font-family="Helvetica,sans-Serif" font-size="10.00">_scale</text>
</a>
</g>
</g>
<!-- Node11&#45;&gt;Node13 -->
<g id="edge13_Node000011_Node000013" class="edge">
<title>Node11&#45;&gt;Node13</title>
<g id="a_edge13_Node000011_Node000013"><a xlink:title=" ">
<path fill="none" stroke="#63b8ff" d="M617.31,-52.5C630.26,-52.5 643.94,-52.5 656.99,-52.5"/>
<polygon fill="#63b8ff" stroke="#63b8ff" points="657.28,-56 667.28,-52.5 657.28,-49 657.28,-56"/>
</a>
</g>
</g>
<!-- Node14 -->
<g id="Node000014" class="node">
<title>Node14</title>
<g id="a_Node000014"><a xlink:href="classLocation.html#a785b0c592d17ce62f33ca9c8281335c6" target="_top" xlink:title=" ">
<polygon fill="white" stroke="#666666" points="792,-19 653,-19 653,0 792,0 792,-19"/>
<text text-anchor="middle" x="722.5" y="-7" font-family="Helvetica,sans-Serif" font-size="10.00">Location::wrap_longitude</text>
</a>
</g>
</g>
<!-- Node11&#45;&gt;Node14 -->
<g id="edge14_Node000011_Node000014" class="edge">
<title>Node11&#45;&gt;Node14</title>
<g id="a_edge14_Node000011_Node000014"><a xlink:title=" ">
<path fill="none" stroke="#63b8ff" d="M592.34,-42.96C616.73,-36.64 648.93,-28.3 675.07,-21.53"/>
<polygon fill="#63b8ff" stroke="#63b8ff" points="675.96,-24.91 684.76,-19.02 674.2,-18.14 675.96,-24.91"/>
</a>
</g>
</g>
</g>
</svg>
