<?xml version="1.0" encoding="UTF-8" standalone="no"?>
<!DOCTYPE svg PUBLIC "-//W3C//DTD SVG 1.1//EN"
 "http://www.w3.org/Graphics/SVG/1.1/DTD/svg11.dtd">
<!-- Generated by graphviz version 2.43.0 (0)
 -->
<!-- Title: HALSITL::Scheduler::thread_create Pages: 1 -->
<svg width="691pt" height="289pt"
 viewBox="0.00 0.00 691.00 288.50" xmlns="http://www.w3.org/2000/svg" xmlns:xlink="http://www.w3.org/1999/xlink">
<g id="graph0" class="graph" transform="scale(1 1) rotate(0) translate(4 284.5)">
<title>HALSITL::Scheduler::thread_create</title>
<!-- Node1 -->
<g id="Node000001" class="node">
<title>Node1</title>
<g id="a_Node000001"><a xlink:title=" ">
<polygon fill="#999999" stroke="#666666" points="110,-110.5 0,-110.5 0,-80.5 110,-80.5 110,-110.5"/>
<text text-anchor="start" x="8" y="-98.5" font-family="Helvetica,sans-Serif" font-size="10.00">HALSITL::Scheduler</text>
<text text-anchor="middle" x="55" y="-87.5" font-family="Helvetica,sans-Serif" font-size="10.00">::thread_create</text>
</a>
</g>
</g>
<!-- Node2 -->
<g id="Node000002" class="node">
<title>Node2</title>
<g id="a_Node000002"><a xlink:href="RTC__Test_8cpp.html#a85c495b724f6148313bf4d931a405c3c" target="_top" xlink:title=" ">
<polygon fill="white" stroke="#666666" points="242.5,-145 198.5,-145 198.5,-126 242.5,-126 242.5,-145"/>
<text text-anchor="middle" x="220.5" y="-133" font-family="Helvetica,sans-Serif" font-size="10.00">failed</text>
</a>
</g>
</g>
<!-- Node1&#45;&gt;Node2 -->
<g id="edge1_Node000001_Node000002" class="edge">
<title>Node1&#45;&gt;Node2</title>
<g id="a_edge1_Node000001_Node000002"><a xlink:title=" ">
<path fill="none" stroke="#63b8ff" d="M110.44,-108.82C136.43,-115.18 166.57,-122.55 188.57,-127.93"/>
<polygon fill="#63b8ff" stroke="#63b8ff" points="187.82,-131.35 198.36,-130.33 189.48,-124.55 187.82,-131.35"/>
</a>
</g>
</g>
<!-- Node7 -->
<g id="Node000007" class="node">
<title>Node7</title>
<g id="a_Node000007"><a xlink:href="malloc_8c.html#afbedc913aa4651b3c3b4b3aecd9b4711" target="_top" xlink:title=" ">
<polygon fill="white" stroke="#666666" points="411.5,-60 375.5,-60 375.5,-41 411.5,-41 411.5,-60"/>
<text text-anchor="middle" x="393.5" y="-48" font-family="Helvetica,sans-Serif" font-size="10.00">free</text>
</a>
</g>
</g>
<!-- Node1&#45;&gt;Node7 -->
<g id="edge6_Node000001_Node000007" class="edge">
<title>Node1&#45;&gt;Node7</title>
<g id="a_edge6_Node000001_Node000007"><a xlink:title=" ">
<path fill="none" stroke="#63b8ff" d="M110.45,-93.98C159.12,-91.95 232.23,-87.27 295,-76.5 319.3,-72.33 346.34,-64.89 365.77,-59.03"/>
<polygon fill="#63b8ff" stroke="#63b8ff" points="366.92,-62.34 375.45,-56.06 364.86,-55.65 366.92,-62.34"/>
</a>
</g>
</g>
<!-- Node8 -->
<g id="Node000008" class="node">
<title>Node8</title>
<g id="a_Node000008"><a xlink:href="test__nmea__vaprint_8cpp.html#a9c36d0fe3ec4675cbffdc9b52f5fb399" target="_top" xlink:title=" ">
<polygon fill="white" stroke="#666666" points="245.5,-19 195.5,-19 195.5,0 245.5,0 245.5,-19"/>
<text text-anchor="middle" x="220.5" y="-7" font-family="Helvetica,sans-Serif" font-size="10.00">malloc</text>
</a>
</g>
</g>
<!-- Node1&#45;&gt;Node8 -->
<g id="edge7_Node000001_Node000008" class="edge">
<title>Node1&#45;&gt;Node8</title>
<g id="a_edge7_Node000001_Node000008"><a xlink:title=" ">
<path fill="none" stroke="#63b8ff" d="M72.3,-80.26C89.41,-65.05 117.71,-42.04 146,-28.5 158.29,-22.62 172.64,-18.39 185.38,-15.44"/>
<polygon fill="#63b8ff" stroke="#63b8ff" points="186.14,-18.85 195.18,-13.33 184.67,-12.01 186.14,-18.85"/>
</a>
</g>
</g>
<!-- Node12 -->
<g id="Node000012" class="node">
<title>Node12</title>
<g id="a_Node000012"><a xlink:href="namespaceAP__HAL.html#a52edeef7d5ffaa365e1229b87c170307" target="_top" xlink:title=" ">
<polygon fill="white" stroke="#666666" points="263.5,-210 177.5,-210 177.5,-191 263.5,-191 263.5,-210"/>
<text text-anchor="middle" x="220.5" y="-198" font-family="Helvetica,sans-Serif" font-size="10.00">AP_HAL::panic</text>
</a>
</g>
</g>
<!-- Node1&#45;&gt;Node12 -->
<g id="edge11_Node000001_Node000012" class="edge">
<title>Node1&#45;&gt;Node12</title>
<g id="a_edge11_Node000001_Node000012"><a xlink:title=" ">
<path fill="none" stroke="#63b8ff" d="M78.85,-110.67C96.99,-122.67 123.03,-139.79 146,-154.5 162.32,-164.96 180.83,-176.54 195.18,-185.46"/>
<polygon fill="#63b8ff" stroke="#63b8ff" points="193.61,-188.6 203.95,-190.9 197.3,-182.66 193.61,-188.6"/>
</a>
</g>
</g>
<!-- Node15 -->
<g id="Node000015" class="node">
<title>Node15</title>
<g id="a_Node000015"><a xlink:href="classHALSITL_1_1Scheduler.html#a6ac16b43d9a15ea4ce1fa57f75341073" target="_top" xlink:title=" ">
<polygon fill="white" stroke="#666666" points="295,-67.5 146,-67.5 146,-37.5 295,-37.5 295,-67.5"/>
<text text-anchor="start" x="154" y="-55.5" font-family="Helvetica,sans-Serif" font-size="10.00">HALSITL::Scheduler</text>
<text text-anchor="middle" x="220.5" y="-44.5" font-family="Helvetica,sans-Serif" font-size="10.00">::thread_create_trampoline</text>
</a>
</g>
</g>
<!-- Node1&#45;&gt;Node15 -->
<g id="edge15_Node000001_Node000015" class="edge">
<title>Node1&#45;&gt;Node15</title>
<g id="a_edge15_Node000001_Node000015"><a xlink:title=" ">
<path fill="none" stroke="#63b8ff" d="M110.44,-81.18C123.82,-77.66 138.31,-73.85 152.21,-70.2"/>
<polygon fill="#63b8ff" stroke="#63b8ff" points="153.43,-73.49 162.21,-67.57 151.65,-66.72 153.43,-73.49"/>
</a>
</g>
</g>
<!-- Node3 -->
<g id="Node000003" class="node">
<title>Node3</title>
<g id="a_Node000003"><a xlink:href="classAP__HAL_1_1Scheduler.html#ab3175e2e6223ccfe82f957e41cc12b26" target="_top" xlink:title=" ">
<polygon fill="white" stroke="#666666" points="450.5,-194.5 336.5,-194.5 336.5,-164.5 450.5,-164.5 450.5,-194.5"/>
<text text-anchor="start" x="344.5" y="-182.5" font-family="Helvetica,sans-Serif" font-size="10.00">AP_HAL::Scheduler::</text>
<text text-anchor="middle" x="393.5" y="-171.5" font-family="Helvetica,sans-Serif" font-size="10.00">delay</text>
</a>
</g>
</g>
<!-- Node2&#45;&gt;Node3 -->
<g id="edge2_Node000002_Node000003" class="edge">
<title>Node2&#45;&gt;Node3</title>
<g id="a_edge2_Node000002_Node000003"><a xlink:title=" ">
<path fill="none" stroke="#63b8ff" d="M242.81,-140.98C263.73,-146.36 296.71,-154.85 326.41,-162.49"/>
<polygon fill="#63b8ff" stroke="#63b8ff" points="325.77,-165.94 336.33,-165.05 327.51,-159.16 325.77,-165.94"/>
</a>
</g>
</g>
<!-- Node4 -->
<g id="Node000004" class="node">
<title>Node4</title>
<g id="a_Node000004"><a xlink:href="stdio_8h.html#a37c1e8ce8a2b411fa666dc33972a2cec" target="_top" xlink:title=" ">
<polygon fill="white" stroke="#666666" points="420.5,-146 366.5,-146 366.5,-127 420.5,-127 420.5,-146"/>
<text text-anchor="middle" x="393.5" y="-134" font-family="Helvetica,sans-Serif" font-size="10.00">snprintf</text>
</a>
</g>
</g>
<!-- Node2&#45;&gt;Node4 -->
<g id="edge3_Node000002_Node000004" class="edge">
<title>Node2&#45;&gt;Node4</title>
<g id="a_edge3_Node000002_Node000004"><a xlink:title=" ">
<path fill="none" stroke="#63b8ff" d="M242.81,-135.62C271.21,-135.79 321.87,-136.09 356.31,-136.29"/>
<polygon fill="#63b8ff" stroke="#63b8ff" points="356.42,-139.79 366.44,-136.35 356.46,-132.79 356.42,-139.79"/>
</a>
</g>
</g>
<!-- Node5 -->
<g id="Node000005" class="node">
<title>Node5</title>
<g id="a_Node000005"><a xlink:href="classAP__HAL_1_1BetterStream.html#aa730be451d385d7ba03ee9677e6d91a2" target="_top" xlink:title=" ">
<polygon fill="white" stroke="#666666" points="456,-108.5 331,-108.5 331,-78.5 456,-78.5 456,-108.5"/>
<text text-anchor="start" x="339" y="-96.5" font-family="Helvetica,sans-Serif" font-size="10.00">AP_HAL::BetterStream</text>
<text text-anchor="middle" x="393.5" y="-85.5" font-family="Helvetica,sans-Serif" font-size="10.00">::vprintf</text>
</a>
</g>
</g>
<!-- Node2&#45;&gt;Node5 -->
<g id="edge4_Node000002_Node000005" class="edge">
<title>Node2&#45;&gt;Node5</title>
<g id="a_edge4_Node000002_Node000005"><a xlink:title=" ">
<path fill="none" stroke="#63b8ff" d="M242.81,-130.27C262.51,-125.43 292.93,-117.96 321.21,-111.01"/>
<polygon fill="#63b8ff" stroke="#63b8ff" points="322.23,-114.36 331.11,-108.58 320.56,-107.57 322.23,-114.36"/>
</a>
</g>
</g>
<!-- Node6 -->
<g id="Node000006" class="node">
<title>Node6</title>
<g id="a_Node000006"><a xlink:href="test__expandingstring__failure_8cpp.html#a98e0d5bb436a207f576379beaa786040" target="_top" xlink:title=" ">
<polygon fill="white" stroke="#666666" points="569,-103 492,-103 492,-84 569,-84 569,-103"/>
<text text-anchor="middle" x="530.5" y="-91" font-family="Helvetica,sans-Serif" font-size="10.00">print_vprintf</text>
</a>
</g>
</g>
<!-- Node5&#45;&gt;Node6 -->
<g id="edge5_Node000005_Node000006" class="edge">
<title>Node5&#45;&gt;Node6</title>
<g id="a_edge5_Node000005_Node000006"><a xlink:title=" ">
<path fill="none" stroke="#63b8ff" d="M456.07,-93.5C464.68,-93.5 473.41,-93.5 481.71,-93.5"/>
<polygon fill="#63b8ff" stroke="#63b8ff" points="481.95,-97 491.95,-93.5 481.95,-90 481.95,-97"/>
</a>
</g>
</g>
<!-- Node9 -->
<g id="Node000009" class="node">
<title>Node9</title>
<g id="a_Node000009"><a xlink:href="malloc_8c.html#a2807e26a012717736641384f91ab2563" target="_top" xlink:title=" ">
<polygon fill="white" stroke="#666666" points="416,-19 371,-19 371,0 416,0 416,-19"/>
<text text-anchor="middle" x="393.5" y="-7" font-family="Helvetica,sans-Serif" font-size="10.00">calloc</text>
</a>
</g>
</g>
<!-- Node8&#45;&gt;Node9 -->
<g id="edge8_Node000008_Node000009" class="edge">
<title>Node8&#45;&gt;Node9</title>
<g id="a_edge8_Node000008_Node000009"><a xlink:title=" ">
<path fill="none" stroke="#63b8ff" d="M245.64,-9.5C275.79,-9.5 327.47,-9.5 360.79,-9.5"/>
<polygon fill="#63b8ff" stroke="#63b8ff" points="360.92,-13 370.92,-9.5 360.92,-6 360.92,-13"/>
</a>
</g>
</g>
<!-- Node10 -->
<g id="Node000010" class="node">
<title>Node10</title>
<g id="a_Node000010"><a xlink:href="malloc_8c.html#a9c36d0fe3ec4675cbffdc9b52f5fb399" target="_top" xlink:title=" ">
<polygon fill="white" stroke="#666666" points="555.5,-19 505.5,-19 505.5,0 555.5,0 555.5,-19"/>
<text text-anchor="middle" x="530.5" y="-7" font-family="Helvetica,sans-Serif" font-size="10.00">malloc</text>
</a>
</g>
</g>
<!-- Node9&#45;&gt;Node10 -->
<g id="edge9_Node000009_Node000010" class="edge">
<title>Node9&#45;&gt;Node10</title>
<g id="a_edge9_Node000009_Node000010"><a xlink:title=" ">
<path fill="none" stroke="#63b8ff" d="M416.19,-9.5C437.45,-9.5 470.19,-9.5 495.02,-9.5"/>
<polygon fill="#63b8ff" stroke="#63b8ff" points="495.12,-13 505.12,-9.5 495.12,-6 495.12,-13"/>
</a>
</g>
</g>
<!-- Node11 -->
<g id="Node000011" class="node">
<title>Node11</title>
<g id="a_Node000011"><a xlink:href="malloc_8c.html#ad8aac7aa28f6dea23cb5bc9c3268e330" target="_top" xlink:title=" ">
<polygon fill="white" stroke="#666666" points="683,-19 605,-19 605,0 683,0 683,-19"/>
<text text-anchor="middle" x="644" y="-7" font-family="Helvetica,sans-Serif" font-size="10.00">malloc_flags</text>
</a>
</g>
</g>
<!-- Node10&#45;&gt;Node11 -->
<g id="edge10_Node000010_Node000011" class="edge">
<title>Node10&#45;&gt;Node11</title>
<g id="a_edge10_Node000010_Node000011"><a xlink:title=" ">
<path fill="none" stroke="#63b8ff" d="M555.69,-9.5C567.13,-9.5 581.2,-9.5 594.68,-9.5"/>
<polygon fill="#63b8ff" stroke="#63b8ff" points="594.82,-13 604.82,-9.5 594.82,-6 594.82,-13"/>
</a>
</g>
</g>
<!-- Node12&#45;&gt;Node3 -->
<g id="edge12_Node000012_Node000003" class="edge">
<title>Node12&#45;&gt;Node3</title>
<g id="a_edge12_Node000012_Node000003"><a xlink:title=" ">
<path fill="none" stroke="#63b8ff" d="M263.77,-195.31C282.55,-193 305.11,-190.23 326.07,-187.66"/>
<polygon fill="#63b8ff" stroke="#63b8ff" points="326.7,-191.11 336.2,-186.41 325.85,-184.16 326.7,-191.11"/>
</a>
</g>
</g>
<!-- Node13 -->
<g id="Node000013" class="node">
<title>Node13</title>
<g id="a_Node000013"><a xlink:href="classAP__HAL_1_1Scheduler.html#a78c4f1b1f192ac1c99544b6cc8f099b0" target="_top" xlink:title=" ">
<polygon fill="white" stroke="#666666" points="451.5,-280.5 335.5,-280.5 335.5,-250.5 451.5,-250.5 451.5,-280.5"/>
<text text-anchor="start" x="343.5" y="-268.5" font-family="Helvetica,sans-Serif" font-size="10.00">AP_HAL::Scheduler::</text>
<text text-anchor="middle" x="393.5" y="-257.5" font-family="Helvetica,sans-Serif" font-size="10.00">delay_microseconds</text>
</a>
</g>
</g>
<!-- Node12&#45;&gt;Node13 -->
<g id="edge13_Node000012_Node000013" class="edge">
<title>Node12&#45;&gt;Node13</title>
<g id="a_edge13_Node000012_Node000013"><a xlink:title=" ">
<path fill="none" stroke="#63b8ff" d="M246.73,-210.09C272.07,-219.72 311.79,-234.82 343.37,-246.82"/>
<polygon fill="#63b8ff" stroke="#63b8ff" points="342.29,-250.16 352.88,-250.44 344.78,-243.62 342.29,-250.16"/>
</a>
</g>
</g>
<!-- Node14 -->
<g id="Node000014" class="node">
<title>Node14</title>
<g id="a_Node000014"><a xlink:href="stdio_8h.html#aae132cc6af1eb6cf43bf011d8d63e854" target="_top" xlink:title=" ">
<polygon fill="white" stroke="#666666" points="418,-232 369,-232 369,-213 418,-213 418,-232"/>
<text text-anchor="middle" x="393.5" y="-220" font-family="Helvetica,sans-Serif" font-size="10.00">vprintf</text>
</a>
</g>
</g>
<!-- Node12&#45;&gt;Node14 -->
<g id="edge14_Node000012_Node000014" class="edge">
<title>Node12&#45;&gt;Node14</title>
<g id="a_edge14_Node000012_Node000014"><a xlink:title=" ">
<path fill="none" stroke="#63b8ff" d="M263.77,-205.94C292.93,-209.69 331.2,-214.61 358.41,-218.11"/>
<polygon fill="#63b8ff" stroke="#63b8ff" points="358.25,-221.62 368.62,-219.43 359.15,-214.68 358.25,-221.62"/>
</a>
</g>
</g>
<!-- Node15&#45;&gt;Node7 -->
<g id="edge16_Node000015_Node000007" class="edge">
<title>Node15&#45;&gt;Node7</title>
<g id="a_edge16_Node000015_Node000007"><a xlink:title=" ">
<path fill="none" stroke="#63b8ff" d="M295.01,-51.64C319.95,-51.35 346.27,-51.04 365.27,-50.82"/>
<polygon fill="#63b8ff" stroke="#63b8ff" points="365.32,-54.32 375.28,-50.7 365.24,-47.32 365.32,-54.32"/>
</a>
</g>
</g>
</g>
</svg>
