<?xml version="1.0" encoding="UTF-8" standalone="no"?>
<!DOCTYPE svg PUBLIC "-//W3C//DTD SVG 1.1//EN"
 "http://www.w3.org/Graphics/SVG/1.1/DTD/svg11.dtd">
<!-- Generated by graphviz version 2.43.0 (0)
 -->
<!-- Title: tt__RotateOptions Pages: 1 -->
<svg width="254pt" height="93pt"
 viewBox="0.00 0.00 253.50 93.00" xmlns="http://www.w3.org/2000/svg" xmlns:xlink="http://www.w3.org/1999/xlink">
<g id="graph0" class="graph" transform="scale(1 1) rotate(0) translate(4 89)">
<title>tt__RotateOptions</title>
<!-- Node1 -->
<g id="Node000001" class="node">
<title>Node1</title>
<g id="a_Node000001"><a xlink:title="&quot;http://www.onvif.org/ver10/schema&quot;:RotateOptions is a complexType.">
<polygon fill="#999999" stroke="#666666" points="155.5,-19 51.5,-19 51.5,0 155.5,0 155.5,-19"/>
<text text-anchor="middle" x="103.5" y="-7" font-family="Helvetica,sans-Serif" font-size="10.00">tt__RotateOptions</text>
</a>
</g>
</g>
<!-- Node2 -->
<g id="Node000002" class="node">
<title>Node2</title>
<g id="a_Node000002"><a xlink:href="classtt____IntItems.html" target="_top" xlink:title="&quot;http://www.onvif.org/ver10/schema&quot;:IntItems is a complexType.">
<polygon fill="white" stroke="#666666" points="75,-85 0,-85 0,-66 75,-66 75,-85"/>
<text text-anchor="middle" x="37.5" y="-73" font-family="Helvetica,sans-Serif" font-size="10.00">tt__IntItems</text>
</a>
</g>
</g>
<!-- Node2&#45;&gt;Node1 -->
<g id="edge1_Node000001_Node000002" class="edge">
<title>Node2&#45;&gt;Node1</title>
<g id="a_edge1_Node000001_Node000002"><a xlink:title=" ">
<path fill="none" stroke="#9a32cd" stroke-dasharray="5,2" d="M53.66,-58.83C66.44,-46.44 83.82,-29.59 94.32,-19.41"/>
<polygon fill="#9a32cd" stroke="#9a32cd" points="51.14,-56.39 46.4,-65.87 56.02,-61.42 51.14,-56.39"/>
</a>
</g>
<text text-anchor="middle" x="102.5" y="-40" font-family="Helvetica,sans-Serif" font-size="10.00" fill="grey"> DegreeList</text>
</g>
<!-- Node3 -->
<g id="Node000003" class="node">
<title>Node3</title>
<g id="a_Node000003"><a xlink:href="classtt____RotateOptionsExtension.html" target="_top" xlink:title="&quot;http://www.onvif.org/ver10/schema&quot;:RotateOptionsExtension is a complexType.">
<polygon fill="white" stroke="#666666" points="245.5,-85 93.5,-85 93.5,-66 245.5,-66 245.5,-85"/>
<text text-anchor="middle" x="169.5" y="-73" font-family="Helvetica,sans-Serif" font-size="10.00">tt__RotateOptionsExtension</text>
</a>
</g>
</g>
<!-- Node3&#45;&gt;Node1 -->
<g id="edge2_Node000001_Node000003" class="edge">
<title>Node3&#45;&gt;Node1</title>
<g id="a_edge2_Node000001_Node000003"><a xlink:title=" ">
<path fill="none" stroke="#9a32cd" stroke-dasharray="5,2" d="M154.95,-58.11C148.8,-51.4 141.47,-43.67 134.5,-37 127.95,-30.73 120.2,-24.11 114.09,-19.05"/>
<polygon fill="#9a32cd" stroke="#9a32cd" points="152.68,-60.82 161.98,-65.9 157.87,-56.13 152.68,-60.82"/>
</a>
</g>
<text text-anchor="middle" x="170.5" y="-40" font-family="Helvetica,sans-Serif" font-size="10.00" fill="grey"> Extension</text>
</g>
</g>
</svg>
