<?xml version="1.0" encoding="UTF-8" standalone="no"?>
<!DOCTYPE svg PUBLIC "-//W3C//DTD SVG 1.1//EN"
 "http://www.w3.org/Graphics/SVG/1.1/DTD/svg11.dtd">
<!-- Generated by graphviz version 2.43.0 (0)
 -->
<!-- Title: AP_Airspeed::last_update_ms Pages: 1 -->
<!--zoomable 138 -->

<svg id="main" version="1.1" xmlns="http://www.w3.org/2000/svg" xmlns:xlink="http://www.w3.org/1999/xlink" xml:space="preserve" onload="init(evt)">
<style type="text/css"><![CDATA[
.node, .edge {opacity: 0.7;}
.node.selected, .edge.selected {opacity: 1;}
.edge:hover path { stroke: red; }
.edge:hover polygon { stroke: red; fill: red; }
]]></style>

<defs>
  <circle id="rim" cx="0" cy="0" r="7"/>
  <circle id="rim2" cx="0" cy="0" r="3.5"/>
  <g id="zoomPlus">
    <use xlink:href="#rim" fill="#404040"><set attributeName="fill" to="#808080" begin="zoomplus.mouseover" end="zoomplus.mouseout"/></use>
    <path d="M-4,0h8M0,-4v8" fill="none" stroke="white" stroke-width="1.5" pointer-events="none"/>
  </g>
  <g id="zoomMin">
    <use xlink:href="#rim" fill="#404040"><set attributeName="fill" to="#808080" begin="zoomminus.mouseover" end="zoomminus.mouseout"/></use>
    <path d="M-4,0h8" fill="none" stroke="white" stroke-width="1.5" pointer-events="none"/>
  </g>
  <g id="arrowUp" transform="translate(30 24)">
    <use xlink:href="#rim"/>
    <path pointer-events="none" fill="none" stroke="white" stroke-width="1.5" d="M0,-3.0v7 M-2.5,-0.5L0,-3.0L2.5,-0.5"/>
  </g>
  <g id="arrowRight" transform="rotate(90) translate(36 -43)">
    <use xlink:href="#rim"/>
    <path pointer-events="none" fill="none" stroke="white" stroke-width="1.5" d="M0,-3.0v7 M-2.5,-0.5L0,-3.0L2.5,-0.5"/>
  </g>
  <g id="arrowDown" transform="rotate(180) translate(-30 -48)">
    <use xlink:href="#rim"/>
    <path pointer-events="none" fill="none" stroke="white" stroke-width="1.5" d="M0,-3.0v7 M-2.5,-0.5L0,-3.0L2.5,-0.5"/>
  </g>
  <g id="arrowLeft" transform="rotate(270) translate(-36 17)">
    <use xlink:href="#rim"/>
    <path pointer-events="none" fill="none" stroke="white" stroke-width="1.5" d="M0,-3.0v7 M-2.5,-0.5L0,-3.0L2.5,-0.5"/>
  </g>
  <g id="resetDef">
    <use xlink:href="#rim2" fill="#404040"><set attributeName="fill" to="#808080" begin="reset.mouseover" end="reset.mouseout"/></use>
  </g>
</defs>
<script type="application/ecmascript">
var viewWidth = 1017;
var viewHeight = 138;
var sectionId = 'dynsection-59';
</script>
<script type="application/ecmascript" xlink:href="svg.min.js"/>
<svg id="graph" class="graph">
<g id="viewport">
<title>AP_Airspeed::last_update_ms</title>
<!-- Node1 -->
<g id="Node000001" class="node">
<title>Node1</title>
<g id="a_Node000001"><a xlink:title=" ">
<polygon fill="#999999" stroke="#666666" points="1009,-108 848,-108 848,-89 1009,-89 1009,-108"/>
<text text-anchor="middle" x="928.5" y="-96" font-family="Helvetica,sans-Serif" font-size="10.00">AP_Airspeed::last_update_ms</text>
</a>
</g>
</g>
<!-- Node2 -->
<g id="Node000002" class="node">
<title>Node2</title>
<g id="a_Node000002"><a xlink:href="classNavEKF3__core.html#a99b7c56750cb0a41f9e3a9ce4130dd00" target="_top" xlink:title=" ">
<polygon fill="white" stroke="#666666" points="812,-130 642,-130 642,-111 812,-111 812,-130"/>
<text text-anchor="middle" x="727" y="-118" font-family="Helvetica,sans-Serif" font-size="10.00">NavEKF3_core::readAirSpdData</text>
</a>
</g>
</g>
<!-- Node1&#45;&gt;Node2 -->
<g id="edge1_Node000001_Node000002" class="edge">
<title>Node1&#45;&gt;Node2</title>
<g id="a_edge1_Node000001_Node000002"><a xlink:title=" ">
<path fill="none" stroke="#63b8ff" d="M837.83,-108.39C829.28,-109.33 820.64,-110.28 812.16,-111.22"/>
<polygon fill="#63b8ff" stroke="#63b8ff" points="838.24,-111.86 847.79,-107.29 837.47,-104.91 838.24,-111.86"/>
</a>
</g>
</g>
<!-- Node7 -->
<g id="Node000007" class="node">
<title>Node7</title>
<g id="a_Node000007"><a xlink:href="classAP__DAL__Airspeed.html#a7be795d972323665b7e2f88e0afce013" target="_top" xlink:title=" ">
<polygon fill="white" stroke="#666666" points="792.5,-92.5 661.5,-92.5 661.5,-62.5 792.5,-62.5 792.5,-92.5"/>
<text text-anchor="start" x="669.5" y="-80.5" font-family="Helvetica,sans-Serif" font-size="10.00">AP_DAL_Airspeed::start</text>
<text text-anchor="middle" x="727" y="-69.5" font-family="Helvetica,sans-Serif" font-size="10.00">_frame</text>
</a>
</g>
</g>
<!-- Node1&#45;&gt;Node7 -->
<g id="edge6_Node000001_Node000007" class="edge">
<title>Node1&#45;&gt;Node7</title>
<g id="a_edge6_Node000001_Node000007"><a xlink:title=" ">
<path fill="none" stroke="#63b8ff" d="M837.83,-89.06C822.57,-87.46 807,-85.82 792.56,-84.3"/>
<polygon fill="#63b8ff" stroke="#63b8ff" points="837.48,-92.54 847.79,-90.11 838.21,-85.58 837.48,-92.54"/>
</a>
</g>
</g>
<!-- Node3 -->
<g id="Node000003" class="node">
<title>Node3</title>
<g id="a_Node000003"><a xlink:href="classNavEKF3__core.html#a26f75214891e1ce1406fd8f6aea398de" target="_top" xlink:title=" ">
<polygon fill="white" stroke="#666666" points="606,-130 436,-130 436,-111 606,-111 606,-130"/>
<text text-anchor="middle" x="521" y="-118" font-family="Helvetica,sans-Serif" font-size="10.00">NavEKF3_core::SelectTasFusion</text>
</a>
</g>
</g>
<!-- Node2&#45;&gt;Node3 -->
<g id="edge2_Node000002_Node000003" class="edge">
<title>Node2&#45;&gt;Node3</title>
<g id="a_edge2_Node000002_Node000003"><a xlink:title=" ">
<path fill="none" stroke="#63b8ff" d="M631.6,-120.5C623.15,-120.5 614.64,-120.5 606.29,-120.5"/>
<polygon fill="#63b8ff" stroke="#63b8ff" points="631.85,-124 641.85,-120.5 631.85,-117 631.85,-124"/>
</a>
</g>
</g>
<!-- Node4 -->
<g id="Node000004" class="node">
<title>Node4</title>
<g id="a_Node000004"><a xlink:href="classNavEKF3__core.html#a2a7fae9e0bf2ce6fc2f9b3918dc168d3" target="_top" xlink:title=" ">
<polygon fill="white" stroke="#666666" points="400,-130 247,-130 247,-111 400,-111 400,-130"/>
<text text-anchor="middle" x="323.5" y="-118" font-family="Helvetica,sans-Serif" font-size="10.00">NavEKF3_core::UpdateFilter</text>
</a>
</g>
</g>
<!-- Node3&#45;&gt;Node4 -->
<g id="edge3_Node000003_Node000004" class="edge">
<title>Node3&#45;&gt;Node4</title>
<g id="a_edge3_Node000003_Node000004"><a xlink:title=" ">
<path fill="none" stroke="#63b8ff" d="M425.86,-120.5C417.24,-120.5 408.58,-120.5 400.15,-120.5"/>
<polygon fill="#63b8ff" stroke="#63b8ff" points="425.96,-124 435.96,-120.5 425.96,-117 425.96,-124"/>
</a>
</g>
</g>
<!-- Node5 -->
<g id="Node000005" class="node">
<title>Node5</title>
<g id="a_Node000005"><a xlink:href="classNavEKF3.html#a477020fcf29376e0c2205dbf79728104" target="_top" xlink:title=" ">
<polygon fill="white" stroke="#666666" points="207.5,-130 80.5,-130 80.5,-111 207.5,-111 207.5,-130"/>
<text text-anchor="middle" x="144" y="-118" font-family="Helvetica,sans-Serif" font-size="10.00">NavEKF3::UpdateFilter</text>
</a>
</g>
</g>
<!-- Node4&#45;&gt;Node5 -->
<g id="edge4_Node000004_Node000005" class="edge">
<title>Node4&#45;&gt;Node5</title>
<g id="a_edge4_Node000004_Node000005"><a xlink:title=" ">
<path fill="none" stroke="#63b8ff" d="M236.76,-120.5C226.94,-120.5 217.06,-120.5 207.62,-120.5"/>
<polygon fill="#63b8ff" stroke="#63b8ff" points="236.97,-124 246.97,-120.5 236.97,-117 236.97,-124"/>
</a>
</g>
</g>
<!-- Node6 -->
<g id="Node000006" class="node">
<title>Node6</title>
<g id="a_Node000006"><a xlink:href="main_8cpp.html#ac0f2228420376f4db7e1274f2b41667c" target="_top" xlink:title=" ">
<polygon fill="white" stroke="#666666" points="41,-74 0,-74 0,-55 41,-55 41,-74"/>
<text text-anchor="middle" x="20.5" y="-62" font-family="Helvetica,sans-Serif" font-size="10.00">main</text>
</a>
</g>
</g>
<!-- Node5&#45;&gt;Node6 -->
<g id="edge5_Node000005_Node000006" class="edge">
<title>Node5&#45;&gt;Node6</title>
<g id="a_edge5_Node000005_Node000006"><a xlink:title=" ">
<path fill="none" stroke="#63b8ff" d="M92.76,-107.81C87.35,-105.92 82,-103.82 77,-101.5 61.03,-94.1 44.46,-82.44 33.63,-74.19"/>
<polygon fill="#63b8ff" stroke="#63b8ff" points="91.9,-111.21 102.49,-110.97 94.07,-104.55 91.9,-111.21"/>
</a>
</g>
</g>
<!-- Node8 -->
<g id="Node000008" class="node">
<title>Node8</title>
<g id="a_Node000008"><a xlink:href="classAP__DAL.html#aacd3492110784dce84ac67e3442cfee6" target="_top" xlink:title=" ">
<polygon fill="white" stroke="#666666" points="382,-87 265,-87 265,-68 382,-68 382,-87"/>
<text text-anchor="middle" x="323.5" y="-75" font-family="Helvetica,sans-Serif" font-size="10.00">AP_DAL::start_frame</text>
</a>
</g>
</g>
<!-- Node7&#45;&gt;Node8 -->
<g id="edge7_Node000007_Node000008" class="edge">
<title>Node7&#45;&gt;Node8</title>
<g id="a_edge7_Node000007_Node000008"><a xlink:title=" ">
<path fill="none" stroke="#63b8ff" d="M651.26,-77.5C573.32,-77.5 452.84,-77.5 382.01,-77.5"/>
<polygon fill="#63b8ff" stroke="#63b8ff" points="651.49,-81 661.49,-77.5 651.49,-74 651.49,-81"/>
</a>
</g>
</g>
<!-- Node8&#45;&gt;Node5 -->
<g id="edge14_Node000008_Node000005" class="edge">
<title>Node8&#45;&gt;Node5</title>
<g id="a_edge14_Node000008_Node000005"><a xlink:title=" ">
<path fill="none" stroke="#63b8ff" d="M273.1,-89.47C245.06,-96.26 210.46,-104.64 184.28,-110.98"/>
<polygon fill="#63b8ff" stroke="#63b8ff" points="274.21,-92.8 283.11,-87.04 272.56,-86 274.21,-92.8"/>
</a>
</g>
</g>
<!-- Node9 -->
<g id="Node000009" class="node">
<title>Node9</title>
<g id="a_Node000009"><a xlink:href="classNavEKF2.html#a9c447b8d84abf2dfc845ddbbbad46a2b" target="_top" xlink:title=" ">
<polygon fill="white" stroke="#666666" points="211,-93 77,-93 77,-74 211,-74 211,-93"/>
<text text-anchor="middle" x="144" y="-81" font-family="Helvetica,sans-Serif" font-size="10.00">NavEKF2::InitialiseFilter</text>
</a>
</g>
</g>
<!-- Node8&#45;&gt;Node9 -->
<g id="edge8_Node000008_Node000009" class="edge">
<title>Node8&#45;&gt;Node9</title>
<g id="a_edge8_Node000008_Node000009"><a xlink:title=" ">
<path fill="none" stroke="#63b8ff" d="M254.67,-79.79C240.44,-80.27 225.45,-80.78 211.28,-81.26"/>
<polygon fill="#63b8ff" stroke="#63b8ff" points="254.99,-83.28 264.87,-79.45 254.76,-76.29 254.99,-83.28"/>
</a>
</g>
</g>
<!-- Node10 -->
<g id="Node000010" class="node">
<title>Node10</title>
<g id="a_Node000010"><a xlink:href="classNavEKF3.html#a07f064fa513fbb6e7188141904f3b5b5" target="_top" xlink:title=" ">
<polygon fill="white" stroke="#666666" points="211,-56 77,-56 77,-37 211,-37 211,-56"/>
<text text-anchor="middle" x="144" y="-44" font-family="Helvetica,sans-Serif" font-size="10.00">NavEKF3::InitialiseFilter</text>
</a>
</g>
</g>
<!-- Node8&#45;&gt;Node10 -->
<g id="edge10_Node000008_Node000010" class="edge">
<title>Node8&#45;&gt;Node10</title>
<g id="a_edge10_Node000008_Node000010"><a xlink:title=" ">
<path fill="none" stroke="#63b8ff" d="M257.94,-66.23C238.78,-62.88 217.98,-59.25 199.52,-56.02"/>
<polygon fill="#63b8ff" stroke="#63b8ff" points="257.34,-69.67 267.8,-67.95 258.55,-62.78 257.34,-69.67"/>
</a>
</g>
</g>
<!-- Node11 -->
<g id="Node000011" class="node">
<title>Node11</title>
<g id="a_Node000011"><a xlink:href="classNavEKF2.html#a72815b1bbd9d7ceb0ff7ae52d14516df" target="_top" xlink:title=" ">
<polygon fill="white" stroke="#666666" points="207.5,-19 80.5,-19 80.5,0 207.5,0 207.5,-19"/>
<text text-anchor="middle" x="144" y="-7" font-family="Helvetica,sans-Serif" font-size="10.00">NavEKF2::UpdateFilter</text>
</a>
</g>
</g>
<!-- Node8&#45;&gt;Node11 -->
<g id="edge12_Node000008_Node000011" class="edge">
<title>Node8&#45;&gt;Node11</title>
<g id="a_edge12_Node000008_Node000011"><a xlink:title=" ">
<path fill="none" stroke="#63b8ff" d="M294.34,-63.41C272.09,-52.63 240.05,-37.91 211,-27.5 202.39,-24.42 192.99,-21.56 184.05,-19.07"/>
<polygon fill="#63b8ff" stroke="#63b8ff" points="293.01,-66.65 303.54,-67.9 296.09,-60.36 293.01,-66.65"/>
</a>
</g>
</g>
<!-- Node9&#45;&gt;Node6 -->
<g id="edge9_Node000009_Node000006" class="edge">
<title>Node9&#45;&gt;Node6</title>
<g id="a_edge9_Node000009_Node000006"><a xlink:title=" ">
<path fill="none" stroke="#63b8ff" d="M71.9,-72.38C60.62,-70.62 49.83,-68.93 41.15,-67.57"/>
<polygon fill="#63b8ff" stroke="#63b8ff" points="71.47,-75.86 81.89,-73.94 72.55,-68.94 71.47,-75.86"/>
</a>
</g>
</g>
<!-- Node10&#45;&gt;Node6 -->
<g id="edge11_Node000010_Node000006" class="edge">
<title>Node10&#45;&gt;Node6</title>
<g id="a_edge11_Node000010_Node000006"><a xlink:title=" ">
<path fill="none" stroke="#63b8ff" d="M68.53,-57.53C58.51,-59.02 49.01,-60.42 41.21,-61.58"/>
<polygon fill="#63b8ff" stroke="#63b8ff" points="69.31,-60.95 78.69,-56.03 68.29,-54.03 69.31,-60.95"/>
</a>
</g>
</g>
<!-- Node11&#45;&gt;Node6 -->
<g id="edge13_Node000011_Node000006" class="edge">
<title>Node11&#45;&gt;Node6</title>
<g id="a_edge13_Node000011_Node000006"><a xlink:title=" ">
<path fill="none" stroke="#63b8ff" d="M90.49,-22.14C85.86,-23.76 81.3,-25.54 77,-27.5 60.98,-34.79 44.42,-46.47 33.6,-54.75"/>
<polygon fill="#63b8ff" stroke="#63b8ff" points="91.6,-25.46 100.04,-19.06 89.45,-18.8 91.6,-25.46"/>
</a>
</g>
</g>
</g>
</svg>

<g id="navigator" transform="translate(0 0)" fill="#404254">
  <rect fill="#f2f5e9" fill-opacity="0.5" stroke="#606060" stroke-width=".5" x="0" y="0" width="60" height="60"/>
  <use id="zoomplus" xlink:href="#zoomPlus" x="17" y="9" onmousedown="handleZoom(evt,'in')"/>
  <use id="zoomminus" xlink:href="#zoomMin" x="42" y="9" onmousedown="handleZoom(evt,'out')"/>
  <use id="reset" xlink:href="#resetDef" x="30" y="36" onmousedown="handleReset()"/>
   <use id="arrowup" xlink:href="#arrowUp" x="0" y="0" onmousedown="handlePan(0,-1)"/>
  <use id="arrowright" xlink:href="#arrowRight" x="0" y="0" onmousedown="handlePan(1,0)"/>
  <use id="arrowdown" xlink:href="#arrowDown" x="0" y="0" onmousedown="handlePan(0,1)"/>
  <use id="arrowleft" xlink:href="#arrowLeft" x="0" y="0" onmousedown="handlePan(-1,0)"/>
</g>
<svg viewBox="0 0 15 15" width="100%" height="30px" preserveAspectRatio="xMaxYMin meet">
 <g id="arrow_out" transform="scale(0.3 0.3)">
  <a xlink:href="classAP__Airspeed_a871b19d05ef2261d27e08c60f74ac9ce_icgraph_org.svg" target="_base">
   <rect id="button" ry="5" rx="5" y="6" x="6" height="38" width="38"
        fill="#f2f5e9" fill-opacity="0.5" stroke="#606060" stroke-width="1.0"/>
   <path id="arrow"
     d="M 11.500037,31.436501 C 11.940474,20.09759 22.043105,11.32322 32.158766,21.979434 L 37.068811,17.246167 C 37.068811,17.246167 37.088388,32 37.088388,32 L 22.160133,31.978069 C 22.160133,31.978069 26.997745,27.140456 26.997745,27.140456 C 18.528582,18.264221 13.291696,25.230495 11.500037,31.436501 z"
     style="fill:#404040;"/>
  </a>
 </g>
</svg>

<style type='text/css'>
<![CDATA[
[data-mouse-over-selected='false'] { opacity: 0.7; }
[data-mouse-over-selected='true']  { opacity: 1.0; }
]]>
</style>
<script type="application/ecmascript"><![CDATA[
document.addEventListener('DOMContentLoaded', (event) => {
  highlightEdges();
  highlightAdjacentNodes();
});
]]></script>
</svg>
