<?xml version="1.0" encoding="UTF-8" standalone="no"?>
<!DOCTYPE svg PUBLIC "-//W3C//DTD SVG 1.1//EN"
 "http://www.w3.org/Graphics/SVG/1.1/DTD/svg11.dtd">
<!-- Generated by graphviz version 2.43.0 (0)
 -->
<!-- Title: GPIO_Navigator::pinMode Pages: 1 -->
<svg width="491pt" height="94pt"
 viewBox="0.00 0.00 491.00 93.50" xmlns="http://www.w3.org/2000/svg" xmlns:xlink="http://www.w3.org/1999/xlink">
<g id="graph0" class="graph" transform="scale(1 1) rotate(0) translate(4 89.5)">
<title>GPIO_Navigator::pinMode</title>
<!-- Node1 -->
<g id="Node000001" class="node">
<title>Node1</title>
<g id="a_Node000001"><a xlink:title=" ">
<polygon fill="#999999" stroke="#666666" points="142,-66.5 0,-66.5 0,-47.5 142,-47.5 142,-66.5"/>
<text text-anchor="middle" x="71" y="-54.5" font-family="Helvetica,sans-Serif" font-size="10.00">GPIO_Navigator::pinMode</text>
</a>
</g>
</g>
<!-- Node2 -->
<g id="Node000002" class="node">
<title>Node2</title>
<g id="a_Node000002"><a xlink:href="classGPIO__Navigator.html#a811eb745fc557cec325cf5631d62cbc2" target="_top" xlink:title=" ">
<polygon fill="white" stroke="#666666" points="332,-85.5 178,-85.5 178,-66.5 332,-66.5 332,-85.5"/>
<text text-anchor="middle" x="255" y="-73.5" font-family="Helvetica,sans-Serif" font-size="10.00">GPIO_Navigator::pinAllowed</text>
</a>
</g>
</g>
<!-- Node1&#45;&gt;Node2 -->
<g id="edge1_Node000001_Node000002" class="edge">
<title>Node1&#45;&gt;Node2</title>
<g id="a_edge1_Node000001_Node000002"><a xlink:title=" ">
<path fill="none" stroke="#63b8ff" d="M142.11,-64.32C150.53,-65.2 159.2,-66.1 167.82,-67"/>
<polygon fill="#63b8ff" stroke="#63b8ff" points="167.57,-70.5 177.88,-68.05 168.3,-63.53 167.57,-70.5"/>
</a>
</g>
</g>
<!-- Node3 -->
<g id="Node000003" class="node">
<title>Node3</title>
<g id="a_Node000003"><a xlink:href="classLinux_1_1GPIO__RPI.html#a6ae68469f5bafa5545197ac2eeafce87" target="_top" xlink:title=" ">
<polygon fill="white" stroke="#666666" points="326,-48.5 184,-48.5 184,-29.5 326,-29.5 326,-48.5"/>
<text text-anchor="middle" x="255" y="-36.5" font-family="Helvetica,sans-Serif" font-size="10.00">Linux::GPIO_RPI::pinMode</text>
</a>
</g>
</g>
<!-- Node1&#45;&gt;Node3 -->
<g id="edge2_Node000001_Node000003" class="edge">
<title>Node1&#45;&gt;Node3</title>
<g id="a_edge2_Node000001_Node000003"><a xlink:title=" ">
<path fill="none" stroke="#63b8ff" d="M142.11,-50.07C152.5,-49.04 163.28,-47.97 173.86,-46.93"/>
<polygon fill="#63b8ff" stroke="#63b8ff" points="174.32,-50.4 183.93,-45.93 173.63,-43.43 174.32,-50.4"/>
</a>
</g>
</g>
<!-- Node4 -->
<g id="Node000004" class="node">
<title>Node4</title>
<g id="a_Node000004"><a xlink:href="classLinux_1_1GPIO__RPI.html#a9f2b790709201d5044e9e8f3396ab0ee" target="_top" xlink:title="Set a specific GPIO as input Check Linux::GPIO_RPI::set_gpio_mode_alt for more information.">
<polygon fill="white" stroke="#666666" points="483,-78 368,-78 368,-48 483,-48 483,-78"/>
<text text-anchor="start" x="376" y="-66" font-family="Helvetica,sans-Serif" font-size="10.00">Linux::GPIO_RPI::set</text>
<text text-anchor="middle" x="425.5" y="-55" font-family="Helvetica,sans-Serif" font-size="10.00">_gpio_mode_in</text>
</a>
</g>
</g>
<!-- Node3&#45;&gt;Node4 -->
<g id="edge3_Node000003_Node000004" class="edge">
<title>Node3&#45;&gt;Node4</title>
<g id="a_edge3_Node000003_Node000004"><a xlink:title=" ">
<path fill="none" stroke="#63b8ff" d="M323.08,-48.55C334.58,-50.19 346.52,-51.89 358.01,-53.53"/>
<polygon fill="#63b8ff" stroke="#63b8ff" points="357.56,-57 367.96,-54.95 358.55,-50.07 357.56,-57"/>
</a>
</g>
</g>
<!-- Node5 -->
<g id="Node000005" class="node">
<title>Node5</title>
<g id="a_Node000005"><a xlink:href="classLinux_1_1GPIO__RPI.html#a70ff300c797d7ff07c12e04c821a0ec1" target="_top" xlink:title="Set a specific GPIO as output Check Linux::GPIO_RPI::set_gpio_mode_alt for more information.">
<polygon fill="white" stroke="#666666" points="483,-30 368,-30 368,0 483,0 483,-30"/>
<text text-anchor="start" x="376" y="-18" font-family="Helvetica,sans-Serif" font-size="10.00">Linux::GPIO_RPI::set</text>
<text text-anchor="middle" x="425.5" y="-7" font-family="Helvetica,sans-Serif" font-size="10.00">_gpio_mode_out</text>
</a>
</g>
</g>
<!-- Node3&#45;&gt;Node5 -->
<g id="edge4_Node000003_Node000005" class="edge">
<title>Node3&#45;&gt;Node5</title>
<g id="a_edge4_Node000003_Node000005"><a xlink:title=" ">
<path fill="none" stroke="#63b8ff" d="M323.08,-29.45C334.58,-27.81 346.52,-26.11 358.01,-24.47"/>
<polygon fill="#63b8ff" stroke="#63b8ff" points="358.55,-27.93 367.96,-23.05 357.56,-21 358.55,-27.93"/>
</a>
</g>
</g>
</g>
</svg>
