<?xml version="1.0" encoding="UTF-8" standalone="no"?>
<!DOCTYPE svg PUBLIC "-//W3C//DTD SVG 1.1//EN"
 "http://www.w3.org/Graphics/SVG/1.1/DTD/svg11.dtd">
<!-- Generated by graphviz version 2.43.0 (0)
 -->
<!-- Title: AP_AHRS::_get_secondary_EKF_type Pages: 1 -->
<svg width="710pt" height="134pt"
 viewBox="0.00 0.00 710.00 134.00" xmlns="http://www.w3.org/2000/svg" xmlns:xlink="http://www.w3.org/1999/xlink">
<g id="graph0" class="graph" transform="scale(1 1) rotate(0) translate(4 130)">
<title>AP_AHRS::_get_secondary_EKF_type</title>
<!-- Node1 -->
<g id="Node000001" class="node">
<title>Node1</title>
<g id="a_Node000001"><a xlink:title=" ">
<polygon fill="#999999" stroke="#666666" points="702,-78 558,-78 558,-48 702,-48 702,-78"/>
<text text-anchor="start" x="566" y="-66" font-family="Helvetica,sans-Serif" font-size="10.00">AP_AHRS::_get_secondary</text>
<text text-anchor="middle" x="630" y="-55" font-family="Helvetica,sans-Serif" font-size="10.00">_EKF_type</text>
</a>
</g>
</g>
<!-- Node2 -->
<g id="Node000002" class="node">
<title>Node2</title>
<g id="a_Node000002"><a xlink:href="classAP__AHRS.html#a75f0a23d4fde6c4fd8d76db586380e0e" target="_top" xlink:title=" ">
<polygon fill="white" stroke="#666666" points="522,-126 378,-126 378,-96 522,-96 522,-126"/>
<text text-anchor="start" x="386" y="-114" font-family="Helvetica,sans-Serif" font-size="10.00">AP_AHRS::_get_secondary</text>
<text text-anchor="middle" x="450" y="-103" font-family="Helvetica,sans-Serif" font-size="10.00">_attitude</text>
</a>
</g>
</g>
<!-- Node1&#45;&gt;Node2 -->
<g id="edge1_Node000001_Node000002" class="edge">
<title>Node1&#45;&gt;Node2</title>
<g id="a_edge1_Node000001_Node000002"><a xlink:title=" ">
<path fill="none" stroke="#63b8ff" d="M563.29,-80.72C544.67,-85.74 524.59,-91.15 506.63,-96"/>
<polygon fill="#63b8ff" stroke="#63b8ff" points="564.42,-84.04 573.17,-78.06 562.6,-77.28 564.42,-84.04"/>
</a>
</g>
</g>
<!-- Node6 -->
<g id="Node000006" class="node">
<title>Node6</title>
<g id="a_Node000006"><a xlink:href="classAP__AHRS.html#ac1a399eb71c50c91044518c754c72846" target="_top" xlink:title=" ">
<polygon fill="white" stroke="#666666" points="522,-78 378,-78 378,-48 522,-48 522,-78"/>
<text text-anchor="start" x="386" y="-66" font-family="Helvetica,sans-Serif" font-size="10.00">AP_AHRS::_get_secondary</text>
<text text-anchor="middle" x="450" y="-55" font-family="Helvetica,sans-Serif" font-size="10.00">_position</text>
</a>
</g>
</g>
<!-- Node1&#45;&gt;Node6 -->
<g id="edge5_Node000001_Node000006" class="edge">
<title>Node1&#45;&gt;Node6</title>
<g id="a_edge5_Node000001_Node000006"><a xlink:title=" ">
<path fill="none" stroke="#63b8ff" d="M547.83,-63C539.21,-63 530.49,-63 522,-63"/>
<polygon fill="#63b8ff" stroke="#63b8ff" points="547.88,-66.5 557.88,-63 547.88,-59.5 547.88,-66.5"/>
</a>
</g>
</g>
<!-- Node7 -->
<g id="Node000007" class="node">
<title>Node7</title>
<g id="a_Node000007"><a xlink:href="classAP__AHRS.html#a437923af71a9e14a40fe2d07706603b2" target="_top" xlink:title=" ">
<polygon fill="white" stroke="#666666" points="522,-30 378,-30 378,0 522,0 522,-30"/>
<text text-anchor="start" x="386" y="-18" font-family="Helvetica,sans-Serif" font-size="10.00">AP_AHRS::_get_secondary</text>
<text text-anchor="middle" x="450" y="-7" font-family="Helvetica,sans-Serif" font-size="10.00">_quaternion</text>
</a>
</g>
</g>
<!-- Node1&#45;&gt;Node7 -->
<g id="edge7_Node000001_Node000007" class="edge">
<title>Node1&#45;&gt;Node7</title>
<g id="a_edge7_Node000001_Node000007"><a xlink:title=" ">
<path fill="none" stroke="#63b8ff" d="M563.29,-45.28C544.67,-40.26 524.59,-34.85 506.63,-30"/>
<polygon fill="#63b8ff" stroke="#63b8ff" points="562.6,-48.72 573.17,-47.94 564.42,-41.96 562.6,-48.72"/>
</a>
</g>
</g>
<!-- Node3 -->
<g id="Node000003" class="node">
<title>Node3</title>
<g id="a_Node000003"><a xlink:href="classAP__AHRS.html#a7fb314b5977fea695ce9ee9611d867b0" target="_top" xlink:title=" ">
<polygon fill="white" stroke="#666666" points="342,-72.5 211,-72.5 211,-53.5 342,-53.5 342,-72.5"/>
<text text-anchor="middle" x="276.5" y="-60.5" font-family="Helvetica,sans-Serif" font-size="10.00">AP_AHRS::update_state</text>
</a>
</g>
</g>
<!-- Node2&#45;&gt;Node3 -->
<g id="edge2_Node000002_Node000003" class="edge">
<title>Node2&#45;&gt;Node3</title>
<g id="a_edge2_Node000002_Node000003"><a xlink:title=" ">
<path fill="none" stroke="#63b8ff" d="M385.42,-93.21C360.43,-86.21 332.75,-78.46 311.67,-72.56"/>
<polygon fill="#63b8ff" stroke="#63b8ff" points="384.63,-96.62 395.21,-95.94 386.52,-89.88 384.63,-96.62"/>
</a>
</g>
</g>
<!-- Node4 -->
<g id="Node000004" class="node">
<title>Node4</title>
<g id="a_Node000004"><a xlink:href="classAP__AHRS.html#a9969f325139cc43ff49fc76904d3f0a2" target="_top" xlink:title=" ">
<polygon fill="white" stroke="#666666" points="175,-72.5 74,-72.5 74,-53.5 175,-53.5 175,-72.5"/>
<text text-anchor="middle" x="124.5" y="-60.5" font-family="Helvetica,sans-Serif" font-size="10.00">AP_AHRS::update</text>
</a>
</g>
</g>
<!-- Node3&#45;&gt;Node4 -->
<g id="edge3_Node000003_Node000004" class="edge">
<title>Node3&#45;&gt;Node4</title>
<g id="a_edge3_Node000003_Node000004"><a xlink:title=" ">
<path fill="none" stroke="#63b8ff" d="M200.5,-63C191.9,-63 183.29,-63 175.14,-63"/>
<polygon fill="#63b8ff" stroke="#63b8ff" points="200.58,-66.5 210.58,-63 200.58,-59.5 200.58,-66.5"/>
</a>
</g>
</g>
<!-- Node5 -->
<g id="Node000005" class="node">
<title>Node5</title>
<g id="a_Node000005"><a xlink:href="ModuleTest_8cpp.html#afe461d27b9c48d5921c00d521181f12f" target="_top" xlink:title=" ">
<polygon fill="white" stroke="#666666" points="38,-72.5 0,-72.5 0,-53.5 38,-53.5 38,-72.5"/>
<text text-anchor="middle" x="19" y="-60.5" font-family="Helvetica,sans-Serif" font-size="10.00">loop</text>
</a>
</g>
</g>
<!-- Node4&#45;&gt;Node5 -->
<g id="edge4_Node000004_Node000005" class="edge">
<title>Node4&#45;&gt;Node5</title>
<g id="a_edge4_Node000004_Node000005"><a xlink:title=" ">
<path fill="none" stroke="#63b8ff" d="M63.81,-63C54.6,-63 45.74,-63 38.42,-63"/>
<polygon fill="#63b8ff" stroke="#63b8ff" points="63.87,-66.5 73.87,-63 63.87,-59.5 63.87,-66.5"/>
</a>
</g>
</g>
<!-- Node6&#45;&gt;Node3 -->
<g id="edge6_Node000006_Node000003" class="edge">
<title>Node6&#45;&gt;Node3</title>
<g id="a_edge6_Node000006_Node000003"><a xlink:title=" ">
<path fill="none" stroke="#63b8ff" d="M367.75,-63C359.18,-63 350.56,-63 342.21,-63"/>
<polygon fill="#63b8ff" stroke="#63b8ff" points="367.76,-66.5 377.76,-63 367.76,-59.5 367.76,-66.5"/>
</a>
</g>
</g>
<!-- Node7&#45;&gt;Node3 -->
<g id="edge8_Node000007_Node000003" class="edge">
<title>Node7&#45;&gt;Node3</title>
<g id="a_edge8_Node000007_Node000003"><a xlink:title=" ">
<path fill="none" stroke="#63b8ff" d="M385.42,-32.79C360.43,-39.79 332.75,-47.54 311.67,-53.44"/>
<polygon fill="#63b8ff" stroke="#63b8ff" points="386.52,-36.12 395.21,-30.06 384.63,-29.38 386.52,-36.12"/>
</a>
</g>
</g>
</g>
</svg>
