<?xml version="1.0" encoding="UTF-8" standalone="no"?>
<!DOCTYPE svg PUBLIC "-//W3C//DTD SVG 1.1//EN"
 "http://www.w3.org/Graphics/SVG/1.1/DTD/svg11.dtd">
<!-- Generated by graphviz version 2.43.0 (0)
 -->
<!-- Title: AP_RSSI::read_receiver_rssi Pages: 1 -->
<svg width="1614pt" height="225pt"
 viewBox="0.00 0.00 1614.00 224.50" xmlns="http://www.w3.org/2000/svg" xmlns:xlink="http://www.w3.org/1999/xlink">
<g id="graph0" class="graph" transform="scale(1 1) rotate(0) translate(4 220.5)">
<title>AP_RSSI::read_receiver_rssi</title>
<!-- Node1 -->
<g id="Node000001" class="node">
<title>Node1</title>
<g id="a_Node000001"><a xlink:title=" ">
<polygon fill="#999999" stroke="#666666" points="1606,-62 1454,-62 1454,-43 1606,-43 1606,-62"/>
<text text-anchor="middle" x="1530" y="-50" font-family="Helvetica,sans-Serif" font-size="10.00">AP_RSSI::read_receiver_rssi</text>
</a>
</g>
</g>
<!-- Node2 -->
<g id="Node000002" class="node">
<title>Node2</title>
<g id="a_Node000002"><a xlink:href="classAP__MSP__Telem__Backend.html#a6ff6b87dffd532ea438701ba76d2b769" target="_top" xlink:title=" ">
<polygon fill="white" stroke="#666666" points="1418,-134.5 1281,-134.5 1281,-104.5 1418,-104.5 1418,-134.5"/>
<text text-anchor="start" x="1289" y="-122.5" font-family="Helvetica,sans-Serif" font-size="10.00">AP_MSP_Telem_Backend</text>
<text text-anchor="middle" x="1349.5" y="-111.5" font-family="Helvetica,sans-Serif" font-size="10.00">::get_rssi</text>
</a>
</g>
</g>
<!-- Node1&#45;&gt;Node2 -->
<g id="edge1_Node000001_Node000002" class="edge">
<title>Node1&#45;&gt;Node2</title>
<g id="a_edge1_Node000001_Node000002"><a xlink:title=" ">
<path fill="none" stroke="#63b8ff" d="M1493.87,-65.68C1464.15,-76.84 1421.56,-92.83 1390.52,-104.48"/>
<polygon fill="#63b8ff" stroke="#63b8ff" points="1495.29,-68.89 1503.43,-62.1 1492.83,-62.34 1495.29,-68.89"/>
</a>
</g>
</g>
<!-- Node15 -->
<g id="Node000015" class="node">
<title>Node15</title>
<g id="a_Node000015"><a xlink:href="classAP__RSSI.html#ad243edc62e00237673d7a9649fa05dd8" target="_top" xlink:title=" ">
<polygon fill="white" stroke="#666666" points="1414,-67.5 1285,-67.5 1285,-37.5 1414,-37.5 1414,-67.5"/>
<text text-anchor="start" x="1293" y="-55.5" font-family="Helvetica,sans-Serif" font-size="10.00">AP_RSSI::read_receiver</text>
<text text-anchor="middle" x="1349.5" y="-44.5" font-family="Helvetica,sans-Serif" font-size="10.00">_rssi_uint8</text>
</a>
</g>
</g>
<!-- Node1&#45;&gt;Node15 -->
<g id="edge15_Node000001_Node000015" class="edge">
<title>Node1&#45;&gt;Node15</title>
<g id="a_edge15_Node000001_Node000015"><a xlink:title=" ">
<path fill="none" stroke="#63b8ff" d="M1443.51,-52.5C1433.58,-52.5 1423.58,-52.5 1414.02,-52.5"/>
<polygon fill="#63b8ff" stroke="#63b8ff" points="1443.82,-56 1453.82,-52.5 1443.82,-49 1443.82,-56"/>
</a>
</g>
</g>
<!-- Node20 -->
<g id="Node000020" class="node">
<title>Node20</title>
<g id="a_Node000020"><a xlink:href="classAP__OSD.html#ae0f3a8d857d10b5c0630eca15e653fb9" target="_top" xlink:title=" ">
<polygon fill="white" stroke="#666666" points="1412,-19 1287,-19 1287,0 1412,0 1412,-19"/>
<text text-anchor="middle" x="1349.5" y="-7" font-family="Helvetica,sans-Serif" font-size="10.00">AP_OSD::update_stats</text>
</a>
</g>
</g>
<!-- Node1&#45;&gt;Node20 -->
<g id="edge20_Node000001_Node000020" class="edge">
<title>Node1&#45;&gt;Node20</title>
<g id="a_edge20_Node000001_Node000020"><a xlink:title=" ">
<path fill="none" stroke="#63b8ff" d="M1479.32,-40.53C1451.13,-33.74 1416.33,-25.36 1390,-19.02"/>
<polygon fill="#63b8ff" stroke="#63b8ff" points="1478.84,-44.02 1489.39,-42.96 1480.48,-37.21 1478.84,-44.02"/>
</a>
</g>
</g>
<!-- Node3 -->
<g id="Node000003" class="node">
<title>Node3</title>
<g id="a_Node000003"><a xlink:href="classAP__MSP__Telem__DJI.html#acc0eb83ea01aa764f1e863fb16b6e7af" target="_top" xlink:title=" ">
<polygon fill="white" stroke="#666666" points="1245,-211 1092,-211 1092,-192 1245,-192 1245,-211"/>
<text text-anchor="middle" x="1168.5" y="-199" font-family="Helvetica,sans-Serif" font-size="10.00">AP_MSP_Telem_DJI::get_rssi</text>
</a>
</g>
</g>
<!-- Node2&#45;&gt;Node3 -->
<g id="edge2_Node000002_Node000003" class="edge">
<title>Node2&#45;&gt;Node3</title>
<g id="a_edge2_Node000002_Node000003"><a xlink:title=" ">
<path fill="none" stroke="#63b8ff" d="M1319.33,-140.54C1299.26,-154.17 1271.54,-171.39 1245,-182.5 1236.02,-186.26 1226.12,-189.41 1216.53,-191.99"/>
<polygon fill="#63b8ff" stroke="#63b8ff" points="1321.46,-143.32 1327.7,-134.75 1317.48,-137.55 1321.46,-143.32"/>
</a>
</g>
</g>
<!-- Node4 -->
<g id="Node000004" class="node">
<title>Node4</title>
<g id="a_Node000004"><a xlink:href="classAP__MSP__Telem__Backend.html#abeee44f74daeb733a72143855c5413e4" target="_top" xlink:title=" ">
<polygon fill="white" stroke="#666666" points="1237,-173.5 1100,-173.5 1100,-143.5 1237,-143.5 1237,-173.5"/>
<text text-anchor="start" x="1108" y="-161.5" font-family="Helvetica,sans-Serif" font-size="10.00">AP_MSP_Telem_Backend</text>
<text text-anchor="middle" x="1168.5" y="-150.5" font-family="Helvetica,sans-Serif" font-size="10.00">::hide_osd_items</text>
</a>
</g>
</g>
<!-- Node2&#45;&gt;Node4 -->
<g id="edge3_Node000002_Node000004" class="edge">
<title>Node2&#45;&gt;Node4</title>
<g id="a_edge3_Node000002_Node000004"><a xlink:title=" ">
<path fill="none" stroke="#63b8ff" d="M1271.03,-136.38C1259.79,-138.83 1248.3,-141.33 1237.27,-143.73"/>
<polygon fill="#63b8ff" stroke="#63b8ff" points="1271.8,-139.79 1280.83,-134.24 1270.31,-132.95 1271.8,-139.79"/>
</a>
</g>
</g>
<!-- Node9 -->
<g id="Node000009" class="node">
<title>Node9</title>
<g id="a_Node000009"><a xlink:href="classAP__MSP__Telem__Backend.html#ad53262effb2cca83263be1f860cc4b3f" target="_top" xlink:title=" ">
<polygon fill="white" stroke="#666666" points="1241.5,-125.5 1095.5,-125.5 1095.5,-95.5 1241.5,-95.5 1241.5,-125.5"/>
<text text-anchor="start" x="1103.5" y="-113.5" font-family="Helvetica,sans-Serif" font-size="10.00">AP_MSP_Telem_Backend</text>
<text text-anchor="middle" x="1168.5" y="-102.5" font-family="Helvetica,sans-Serif" font-size="10.00">::msp_process_out_analog</text>
</a>
</g>
</g>
<!-- Node2&#45;&gt;Node9 -->
<g id="edge8_Node000002_Node000009" class="edge">
<title>Node2&#45;&gt;Node9</title>
<g id="a_edge8_Node000002_Node000009"><a xlink:title=" ">
<path fill="none" stroke="#63b8ff" d="M1270.54,-115.58C1260.97,-115.1 1251.23,-114.61 1241.75,-114.13"/>
<polygon fill="#63b8ff" stroke="#63b8ff" points="1270.66,-119.09 1280.83,-116.1 1271.02,-112.1 1270.66,-119.09"/>
</a>
</g>
</g>
<!-- Node5 -->
<g id="Node000005" class="node">
<title>Node5</title>
<g id="a_Node000005"><a xlink:href="classAP__MSP__Telem__DJI.html#ade9110ab4affd925a2386e3616caf89e" target="_top" xlink:title=" ">
<polygon fill="white" stroke="#666666" points="1042.5,-216.5 906.5,-216.5 906.5,-186.5 1042.5,-186.5 1042.5,-216.5"/>
<text text-anchor="start" x="914.5" y="-204.5" font-family="Helvetica,sans-Serif" font-size="10.00">AP_MSP_Telem_DJI::hide</text>
<text text-anchor="middle" x="974.5" y="-193.5" font-family="Helvetica,sans-Serif" font-size="10.00">_osd_items</text>
</a>
</g>
</g>
<!-- Node4&#45;&gt;Node5 -->
<g id="edge4_Node000004_Node000005" class="edge">
<title>Node4&#45;&gt;Node5</title>
<g id="a_edge4_Node000004_Node000005"><a xlink:title=" ">
<path fill="none" stroke="#63b8ff" d="M1090.57,-175.73C1074.7,-179.28 1058.11,-183 1042.61,-186.47"/>
<polygon fill="#63b8ff" stroke="#63b8ff" points="1091.35,-179.14 1100.35,-173.54 1089.82,-172.31 1091.35,-179.14"/>
</a>
</g>
</g>
<!-- Node6 -->
<g id="Node000006" class="node">
<title>Node6</title>
<g id="a_Node000006"><a xlink:href="classAP__MSP.html#aac6a07b1d018e65ec316652b7d2de3dc" target="_top" xlink:title=" ">
<polygon fill="white" stroke="#666666" points="335,-143 252,-143 252,-124 335,-124 335,-143"/>
<text text-anchor="middle" x="293.5" y="-131" font-family="Helvetica,sans-Serif" font-size="10.00">AP_MSP::loop</text>
</a>
</g>
</g>
<!-- Node4&#45;&gt;Node6 -->
<g id="edge5_Node000004_Node000006" class="edge">
<title>Node4&#45;&gt;Node6</title>
<g id="a_edge5_Node000004_Node000006"><a xlink:title=" ">
<path fill="none" stroke="#63b8ff" d="M1089.92,-158.5C1013.22,-158.5 892.51,-158.5 788,-158.5 788,-158.5 788,-158.5 611.5,-158.5 512.13,-158.5 395.78,-146.14 335.45,-138.8"/>
<polygon fill="#63b8ff" stroke="#63b8ff" points="1089.98,-162 1099.98,-158.5 1089.98,-155 1089.98,-162"/>
</a>
</g>
</g>
<!-- Node7 -->
<g id="Node000007" class="node">
<title>Node7</title>
<g id="a_Node000007"><a xlink:href="classAP__MSP.html#a5d0e9a2fb42f362c9fc9fa626e1aef1b" target="_top" xlink:title=" ">
<polygon fill="white" stroke="#666666" points="216,-143 139,-143 139,-124 216,-124 216,-143"/>
<text text-anchor="middle" x="177.5" y="-131" font-family="Helvetica,sans-Serif" font-size="10.00">AP_MSP::init</text>
</a>
</g>
</g>
<!-- Node6&#45;&gt;Node7 -->
<g id="edge6_Node000006_Node000007" class="edge">
<title>Node6&#45;&gt;Node7</title>
<g id="a_edge6_Node000006_Node000007"><a xlink:title=" ">
<path fill="none" stroke="#63b8ff" d="M241.97,-133.5C233.32,-133.5 224.46,-133.5 216.22,-133.5"/>
<polygon fill="#63b8ff" stroke="#63b8ff" points="241.99,-137 251.99,-133.5 241.99,-130 241.99,-137"/>
</a>
</g>
</g>
<!-- Node8 -->
<g id="Node000008" class="node">
<title>Node8</title>
<g id="a_Node000008"><a xlink:href="classAP__Vehicle.html#ac0f751deebdba5725b2b52862719a15d" target="_top" xlink:title=" ">
<polygon fill="white" stroke="#666666" points="103,-143 0,-143 0,-124 103,-124 103,-143"/>
<text text-anchor="middle" x="51.5" y="-131" font-family="Helvetica,sans-Serif" font-size="10.00">AP_Vehicle::setup</text>
</a>
</g>
</g>
<!-- Node7&#45;&gt;Node8 -->
<g id="edge7_Node000007_Node000008" class="edge">
<title>Node7&#45;&gt;Node8</title>
<g id="a_edge7_Node000007_Node000008"><a xlink:title=" ">
<path fill="none" stroke="#63b8ff" d="M128.92,-133.5C120.49,-133.5 111.69,-133.5 103.19,-133.5"/>
<polygon fill="#63b8ff" stroke="#63b8ff" points="128.96,-137 138.96,-133.5 128.96,-130 128.96,-137"/>
</a>
</g>
</g>
<!-- Node10 -->
<g id="Node000010" class="node">
<title>Node10</title>
<g id="a_Node000010"><a xlink:href="classAP__MSP__Telem__Backend.html#a121f03edb5161774968ec8afa2cee4fe" target="_top" xlink:title=" ">
<polygon fill="white" stroke="#666666" points="1055,-125.5 894,-125.5 894,-95.5 1055,-95.5 1055,-125.5"/>
<text text-anchor="start" x="902" y="-113.5" font-family="Helvetica,sans-Serif" font-size="10.00">AP_MSP_Telem_Backend</text>
<text text-anchor="middle" x="974.5" y="-102.5" font-family="Helvetica,sans-Serif" font-size="10.00">::msp_process_out_command</text>
</a>
</g>
</g>
<!-- Node9&#45;&gt;Node10 -->
<g id="edge9_Node000009_Node000010" class="edge">
<title>Node9&#45;&gt;Node10</title>
<g id="a_edge9_Node000009_Node000010"><a xlink:title=" ">
<path fill="none" stroke="#63b8ff" d="M1085.14,-110.5C1075.16,-110.5 1064.97,-110.5 1055.03,-110.5"/>
<polygon fill="#63b8ff" stroke="#63b8ff" points="1085.46,-114 1095.46,-110.5 1085.46,-107 1085.46,-114"/>
</a>
</g>
</g>
<!-- Node11 -->
<g id="Node000011" class="node">
<title>Node11</title>
<g id="a_Node000011"><a xlink:href="classAP__MSP__Telem__Backend.html#aae04afca8a936c3a19b96934bedbee30" target="_top" xlink:title=" ">
<polygon fill="white" stroke="#666666" points="857,-128.5 717,-128.5 717,-98.5 857,-98.5 857,-128.5"/>
<text text-anchor="start" x="725" y="-116.5" font-family="Helvetica,sans-Serif" font-size="10.00">AP_MSP_Telem_Backend</text>
<text text-anchor="middle" x="787" y="-105.5" font-family="Helvetica,sans-Serif" font-size="10.00">::msp_process_command</text>
</a>
</g>
</g>
<!-- Node10&#45;&gt;Node11 -->
<g id="edge10_Node000010_Node000011" class="edge">
<title>Node10&#45;&gt;Node11</title>
<g id="a_edge10_Node000010_Node000011"><a xlink:title=" ">
<path fill="none" stroke="#63b8ff" d="M883.72,-111.95C874.79,-112.1 865.84,-112.24 857.17,-112.38"/>
<polygon fill="#63b8ff" stroke="#63b8ff" points="883.81,-115.45 893.75,-111.79 883.7,-108.45 883.81,-115.45"/>
</a>
</g>
</g>
<!-- Node14 -->
<g id="Node000014" class="node">
<title>Node14</title>
<g id="a_Node000014"><a xlink:href="classAP__MSP__Telem__Backend.html#a590b698888ceb16be8bdbbe96a3ab14d" target="_top" xlink:title=" ">
<polygon fill="white" stroke="#666666" points="855.5,-80.5 718.5,-80.5 718.5,-50.5 855.5,-50.5 855.5,-80.5"/>
<text text-anchor="start" x="726.5" y="-68.5" font-family="Helvetica,sans-Serif" font-size="10.00">AP_MSP_Telem_Backend</text>
<text text-anchor="middle" x="787" y="-57.5" font-family="Helvetica,sans-Serif" font-size="10.00">::process_packet</text>
</a>
</g>
</g>
<!-- Node10&#45;&gt;Node14 -->
<g id="edge14_Node000010_Node000014" class="edge">
<title>Node10&#45;&gt;Node14</title>
<g id="a_edge14_Node000010_Node000014"><a xlink:title=" ">
<path fill="none" stroke="#63b8ff" d="M901.58,-93.05C884.54,-88.92 866.52,-84.55 849.97,-80.53"/>
<polygon fill="#63b8ff" stroke="#63b8ff" points="900.93,-96.5 911.47,-95.45 902.58,-89.69 900.93,-96.5"/>
</a>
</g>
</g>
<!-- Node12 -->
<g id="Node000012" class="node">
<title>Node12</title>
<g id="a_Node000012"><a xlink:href="classAP__MSP__Telem__Backend.html#ac8cee43a4a52aa7458fec37ec2f368a6" target="_top" xlink:title=" ">
<polygon fill="white" stroke="#666666" points="681,-130 544,-130 544,-89 681,-89 681,-130"/>
<text text-anchor="start" x="552" y="-118" font-family="Helvetica,sans-Serif" font-size="10.00">AP_MSP_Telem_Backend</text>
<text text-anchor="start" x="552" y="-107" font-family="Helvetica,sans-Serif" font-size="10.00">::msp_process_received</text>
<text text-anchor="middle" x="612.5" y="-96" font-family="Helvetica,sans-Serif" font-size="10.00">_command</text>
</a>
</g>
</g>
<!-- Node11&#45;&gt;Node12 -->
<g id="edge11_Node000011_Node000012" class="edge">
<title>Node11&#45;&gt;Node12</title>
<g id="a_edge11_Node000011_Node000012"><a xlink:title=" ">
<path fill="none" stroke="#63b8ff" d="M706.58,-111.66C698.13,-111.46 689.58,-111.26 681.28,-111.07"/>
<polygon fill="#63b8ff" stroke="#63b8ff" points="706.75,-115.16 716.83,-111.9 706.92,-108.17 706.75,-115.16"/>
</a>
</g>
</g>
<!-- Node13 -->
<g id="Node000013" class="node">
<title>Node13</title>
<g id="a_Node000013"><a xlink:href="classAP__MSP__Telem__Backend.html#a1c5af3ffe2f8da323b049063794d34a9" target="_top" xlink:title=" ">
<polygon fill="white" stroke="#666666" points="508,-127.5 371,-127.5 371,-97.5 508,-97.5 508,-127.5"/>
<text text-anchor="start" x="379" y="-115.5" font-family="Helvetica,sans-Serif" font-size="10.00">AP_MSP_Telem_Backend</text>
<text text-anchor="middle" x="439.5" y="-104.5" font-family="Helvetica,sans-Serif" font-size="10.00">::process_incoming_data</text>
</a>
</g>
</g>
<!-- Node12&#45;&gt;Node13 -->
<g id="edge12_Node000012_Node000013" class="edge">
<title>Node12&#45;&gt;Node13</title>
<g id="a_edge12_Node000012_Node000013"><a xlink:title=" ">
<path fill="none" stroke="#63b8ff" d="M533.9,-110.86C525.31,-111.01 516.61,-111.16 508.15,-111.31"/>
<polygon fill="#63b8ff" stroke="#63b8ff" points="533.98,-114.36 543.92,-110.69 533.86,-107.36 533.98,-114.36"/>
</a>
</g>
</g>
<!-- Node13&#45;&gt;Node6 -->
<g id="edge13_Node000013_Node000006" class="edge">
<title>Node13&#45;&gt;Node6</title>
<g id="a_edge13_Node000013_Node000006"><a xlink:title=" ">
<path fill="none" stroke="#63b8ff" d="M360.78,-123.83C351.99,-125.12 343.32,-126.38 335.29,-127.55"/>
<polygon fill="#63b8ff" stroke="#63b8ff" points="361.33,-127.29 370.72,-122.39 360.32,-120.36 361.33,-127.29"/>
</a>
</g>
</g>
<!-- Node16 -->
<g id="Node000016" class="node">
<title>Node16</title>
<g id="a_Node000016"><a xlink:href="classAP__LTM__Telem.html#abac7f3c41bf60238063a6d747c58359b" target="_top" xlink:title=" ">
<polygon fill="white" stroke="#666666" points="1227.5,-67.5 1109.5,-67.5 1109.5,-37.5 1227.5,-37.5 1227.5,-67.5"/>
<text text-anchor="start" x="1117.5" y="-55.5" font-family="Helvetica,sans-Serif" font-size="10.00">AP_LTM_Telem::send</text>
<text text-anchor="middle" x="1168.5" y="-44.5" font-family="Helvetica,sans-Serif" font-size="10.00">_Sframe</text>
</a>
</g>
</g>
<!-- Node15&#45;&gt;Node16 -->
<g id="edge16_Node000015_Node000016" class="edge">
<title>Node15&#45;&gt;Node16</title>
<g id="a_edge16_Node000015_Node000016"><a xlink:title=" ">
<path fill="none" stroke="#63b8ff" d="M1274.67,-52.5C1258.95,-52.5 1242.57,-52.5 1227.54,-52.5"/>
<polygon fill="#63b8ff" stroke="#63b8ff" points="1274.89,-56 1284.89,-52.5 1274.89,-49 1274.89,-56"/>
</a>
</g>
</g>
<!-- Node17 -->
<g id="Node000017" class="node">
<title>Node17</title>
<g id="a_Node000017"><a xlink:href="classAP__LTM__Telem.html#a1fedb3e18034ffc4996ad178f1784a8e" target="_top" xlink:title=" ">
<polygon fill="white" stroke="#666666" points="1056,-59 893,-59 893,-40 1056,-40 1056,-59"/>
<text text-anchor="middle" x="974.5" y="-47" font-family="Helvetica,sans-Serif" font-size="10.00">AP_LTM_Telem::generate_LTM</text>
</a>
</g>
</g>
<!-- Node16&#45;&gt;Node17 -->
<g id="edge17_Node000016_Node000017" class="edge">
<title>Node16&#45;&gt;Node17</title>
<g id="a_edge17_Node000016_Node000017"><a xlink:title=" ">
<path fill="none" stroke="#63b8ff" d="M1099.35,-51.44C1085.35,-51.22 1070.49,-50.98 1056.1,-50.76"/>
<polygon fill="#63b8ff" stroke="#63b8ff" points="1099.32,-54.94 1109.37,-51.59 1099.43,-47.94 1099.32,-54.94"/>
</a>
</g>
</g>
<!-- Node18 -->
<g id="Node000018" class="node">
<title>Node18</title>
<g id="a_Node000018"><a xlink:href="classAP__LTM__Telem.html#a497a8878435646303588caa392066714" target="_top" xlink:title=" ">
<polygon fill="white" stroke="#666666" points="843.5,-32 730.5,-32 730.5,-13 843.5,-13 843.5,-32"/>
<text text-anchor="middle" x="787" y="-20" font-family="Helvetica,sans-Serif" font-size="10.00">AP_LTM_Telem::tick</text>
</a>
</g>
</g>
<!-- Node17&#45;&gt;Node18 -->
<g id="edge18_Node000017_Node000018" class="edge">
<title>Node17&#45;&gt;Node18</title>
<g id="a_edge18_Node000017_Node000018"><a xlink:title=" ">
<path fill="none" stroke="#63b8ff" d="M898.09,-38.52C879.87,-35.87 860.72,-33.08 843.6,-30.59"/>
<polygon fill="#63b8ff" stroke="#63b8ff" points="897.7,-42 908.1,-39.98 898.71,-35.08 897.7,-42"/>
</a>
</g>
</g>
<!-- Node19 -->
<g id="Node000019" class="node">
<title>Node19</title>
<g id="a_Node000019"><a xlink:href="classAP__LTM__Telem.html#a4c3cadc1777b6169879920b6e6753c4f" target="_top" xlink:title=" ">
<polygon fill="white" stroke="#666666" points="667.5,-32 557.5,-32 557.5,-13 667.5,-13 667.5,-32"/>
<text text-anchor="middle" x="612.5" y="-20" font-family="Helvetica,sans-Serif" font-size="10.00">AP_LTM_Telem::init</text>
</a>
</g>
</g>
<!-- Node18&#45;&gt;Node19 -->
<g id="edge19_Node000018_Node000019" class="edge">
<title>Node18&#45;&gt;Node19</title>
<g id="a_edge19_Node000018_Node000019"><a xlink:title=" ">
<path fill="none" stroke="#63b8ff" d="M720.4,-22.5C703.02,-22.5 684.45,-22.5 667.75,-22.5"/>
<polygon fill="#63b8ff" stroke="#63b8ff" points="720.47,-26 730.47,-22.5 720.47,-19 720.47,-26"/>
</a>
</g>
</g>
<!-- Node21 -->
<g id="Node000021" class="node">
<title>Node21</title>
<g id="a_Node000021"><a xlink:href="classAP__OSD.html#a508ef8c63d701dbe12cfd8c78e95ec43" target="_top" xlink:title=" ">
<polygon fill="white" stroke="#666666" points="1226.5,-19 1110.5,-19 1110.5,0 1226.5,0 1226.5,-19"/>
<text text-anchor="middle" x="1168.5" y="-7" font-family="Helvetica,sans-Serif" font-size="10.00">AP_OSD::osd_thread</text>
</a>
</g>
</g>
<!-- Node20&#45;&gt;Node21 -->
<g id="edge21_Node000020_Node000021" class="edge">
<title>Node20&#45;&gt;Node21</title>
<g id="a_edge21_Node000020_Node000021"><a xlink:title=" ">
<path fill="none" stroke="#63b8ff" d="M1276.68,-9.5C1260.06,-9.5 1242.6,-9.5 1226.7,-9.5"/>
<polygon fill="#63b8ff" stroke="#63b8ff" points="1276.9,-13 1286.9,-9.5 1276.9,-6 1276.9,-13"/>
</a>
</g>
</g>
<!-- Node22 -->
<g id="Node000022" class="node">
<title>Node22</title>
<g id="a_Node000022"><a xlink:href="classAP__OSD.html#a09e7d40118a2fe4de6ecbbb168ebd8b7" target="_top" xlink:title=" ">
<polygon fill="white" stroke="#666666" points="1013,-19 936,-19 936,0 1013,0 1013,-19"/>
<text text-anchor="middle" x="974.5" y="-7" font-family="Helvetica,sans-Serif" font-size="10.00">AP_OSD::init</text>
</a>
</g>
</g>
<!-- Node21&#45;&gt;Node22 -->
<g id="edge22_Node000021_Node000022" class="edge">
<title>Node21&#45;&gt;Node22</title>
<g id="a_edge22_Node000021_Node000022"><a xlink:title=" ">
<path fill="none" stroke="#63b8ff" d="M1100.28,-9.5C1071.1,-9.5 1038.02,-9.5 1013.26,-9.5"/>
<polygon fill="#63b8ff" stroke="#63b8ff" points="1100.41,-13 1110.41,-9.5 1100.41,-6 1100.41,-13"/>
</a>
</g>
</g>
</g>
</svg>
