<?xml version="1.0" encoding="UTF-8" standalone="no"?>
<!DOCTYPE svg PUBLIC "-//W3C//DTD SVG 1.1//EN"
 "http://www.w3.org/Graphics/SVG/1.1/DTD/svg11.dtd">
<!-- Generated by graphviz version 2.43.0 (0)
 -->
<!-- Title: AC_WPNav::get_wp_destination_loc Pages: 1 -->
<svg width="576pt" height="64pt"
 viewBox="0.00 0.00 576.00 64.00" xmlns="http://www.w3.org/2000/svg" xmlns:xlink="http://www.w3.org/1999/xlink">
<g id="graph0" class="graph" transform="scale(1 1) rotate(0) translate(4 60)">
<title>AC_WPNav::get_wp_destination_loc</title>
<!-- Node1 -->
<g id="Node000001" class="node">
<title>Node1</title>
<g id="a_Node000001"><a xlink:title=" ">
<polygon fill="#999999" stroke="#666666" points="191,-37 0,-37 0,-18 191,-18 191,-37"/>
<text text-anchor="middle" x="95.5" y="-25" font-family="Helvetica,sans-Serif" font-size="10.00">AC_WPNav::get_wp_destination_loc</text>
</a>
</g>
</g>
<!-- Node2 -->
<g id="Node000002" class="node">
<title>Node2</title>
<g id="a_Node000002"><a xlink:href="namespaceAP.html#a99432cfdb696952c9b7146f155a815aa" target="_top" xlink:title=" ">
<polygon fill="white" stroke="#666666" points="340.5,-56 284.5,-56 284.5,-37 340.5,-37 340.5,-56"/>
<text text-anchor="middle" x="312.5" y="-44" font-family="Helvetica,sans-Serif" font-size="10.00">AP::ahrs</text>
</a>
</g>
</g>
<!-- Node1&#45;&gt;Node2 -->
<g id="edge1_Node000001_Node000002" class="edge">
<title>Node1&#45;&gt;Node2</title>
<g id="a_edge1_Node000001_Node000002"><a xlink:title=" ">
<path fill="none" stroke="#63b8ff" d="M191.12,-35.86C220.42,-38.45 251.03,-41.16 274.05,-43.19"/>
<polygon fill="#63b8ff" stroke="#63b8ff" points="273.79,-46.68 284.06,-44.07 274.4,-39.71 273.79,-46.68"/>
</a>
</g>
</g>
<!-- Node4 -->
<g id="Node000004" class="node">
<title>Node4</title>
<g id="a_Node000004"><a xlink:href="classAC__WPNav.html#a594f57d7f69004642d0f129ff86425bf" target="_top" xlink:title=" ">
<polygon fill="white" stroke="#666666" points="398,-19 227,-19 227,0 398,0 398,-19"/>
<text text-anchor="middle" x="312.5" y="-7" font-family="Helvetica,sans-Serif" font-size="10.00">AC_WPNav::get_wp_destination</text>
</a>
</g>
</g>
<!-- Node1&#45;&gt;Node4 -->
<g id="edge3_Node000001_Node000004" class="edge">
<title>Node1&#45;&gt;Node4</title>
<g id="a_edge3_Node000001_Node000004"><a xlink:title=" ">
<path fill="none" stroke="#63b8ff" d="M191.12,-19.58C199.7,-18.86 208.39,-18.13 216.98,-17.41"/>
<polygon fill="#63b8ff" stroke="#63b8ff" points="217.31,-20.9 226.99,-16.58 216.73,-13.92 217.31,-20.9"/>
</a>
</g>
</g>
<!-- Node3 -->
<g id="Node000003" class="node">
<title>Node3</title>
<g id="a_Node000003"><a xlink:href="classAP__AHRS.html#af481888f56602f793fc8d9895d14a8c9" target="_top" xlink:title=" ">
<polygon fill="white" stroke="#666666" points="568,-56 434,-56 434,-37 568,-37 568,-56"/>
<text text-anchor="middle" x="501" y="-44" font-family="Helvetica,sans-Serif" font-size="10.00">AP_AHRS::get_singleton</text>
</a>
</g>
</g>
<!-- Node2&#45;&gt;Node3 -->
<g id="edge2_Node000002_Node000003" class="edge">
<title>Node2&#45;&gt;Node3</title>
<g id="a_edge2_Node000002_Node000003"><a xlink:title=" ">
<path fill="none" stroke="#63b8ff" d="M340.62,-46.5C362.4,-46.5 394.09,-46.5 423.49,-46.5"/>
<polygon fill="#63b8ff" stroke="#63b8ff" points="423.78,-50 433.78,-46.5 423.78,-43 423.78,-50"/>
</a>
</g>
</g>
</g>
</svg>
