<?xml version="1.0" encoding="UTF-8" standalone="no"?>
<!DOCTYPE svg PUBLIC "-//W3C//DTD SVG 1.1//EN"
 "http://www.w3.org/Graphics/SVG/1.1/DTD/svg11.dtd">
<!-- Generated by graphviz version 2.43.0 (0)
 -->
<!-- Title: SITL::FlightAxis::create Pages: 1 -->
<svg width="1303pt" height="639pt"
 viewBox="0.00 0.00 1303.00 638.50" xmlns="http://www.w3.org/2000/svg" xmlns:xlink="http://www.w3.org/1999/xlink">
<g id="graph0" class="graph" transform="scale(1 1) rotate(0) translate(4 634.5)">
<title>SITL::FlightAxis::create</title>
<!-- Node1 -->
<g id="Node000001" class="node">
<title>Node1</title>
<g id="a_Node000001"><a xlink:title=" ">
<polygon fill="#999999" stroke="#666666" points="128,-208.5 0,-208.5 0,-189.5 128,-189.5 128,-208.5"/>
<text text-anchor="middle" x="64" y="-196.5" font-family="Helvetica,sans-Serif" font-size="10.00">SITL::FlightAxis::create</text>
</a>
</g>
</g>
<!-- Node2 -->
<g id="Node000002" class="node">
<title>Node2</title>
<g id="a_Node000002"><a xlink:href="classSITL_1_1FlightAxis.html#a24624bcd2b33ad294a1fd0a01af64176" target="_top" xlink:title=" ">
<polygon fill="white" stroke="#666666" points="310,-208.5 164,-208.5 164,-189.5 310,-189.5 310,-208.5"/>
<text text-anchor="middle" x="237" y="-196.5" font-family="Helvetica,sans-Serif" font-size="10.00">SITL::FlightAxis::FlightAxis</text>
</a>
</g>
</g>
<!-- Node1&#45;&gt;Node2 -->
<g id="edge1_Node000001_Node000002" class="edge">
<title>Node1&#45;&gt;Node2</title>
<g id="a_edge1_Node000001_Node000002"><a xlink:title=" ">
<path fill="none" stroke="#63b8ff" d="M128.19,-199C136.53,-199 145.18,-199 153.78,-199"/>
<polygon fill="#63b8ff" stroke="#63b8ff" points="153.84,-202.5 163.84,-199 153.84,-195.5 153.84,-202.5"/>
</a>
</g>
</g>
<!-- Node3 -->
<g id="Node000003" class="node">
<title>Node3</title>
<g id="a_Node000003"><a xlink:href="classAP__Param.html#ada08756cc319a3205e7593c661294c18" target="_top" xlink:title=" ">
<polygon fill="white" stroke="#666666" points="471.5,-370.5 349.5,-370.5 349.5,-351.5 471.5,-351.5 471.5,-370.5"/>
<text text-anchor="middle" x="410.5" y="-358.5" font-family="Helvetica,sans-Serif" font-size="10.00">AP_Param::configured</text>
</a>
</g>
</g>
<!-- Node2&#45;&gt;Node3 -->
<g id="edge2_Node000002_Node000003" class="edge">
<title>Node2&#45;&gt;Node3</title>
<g id="a_edge2_Node000002_Node000003"><a xlink:title=" ">
<path fill="none" stroke="#63b8ff" d="M248.21,-208.65C276.51,-235.37 356.14,-310.6 391.82,-344.3"/>
<polygon fill="#63b8ff" stroke="#63b8ff" points="389.45,-346.87 399.12,-351.2 394.26,-341.79 389.45,-346.87"/>
</a>
</g>
</g>
<!-- Node21 -->
<g id="Node000021" class="node">
<title>Node21</title>
<g id="a_Node000021"><a xlink:href="classAP__Param.html#a6ad46b205eda30d7723692e545ff43c8" target="_top" xlink:title=" ">
<polygon fill="white" stroke="#666666" points="780.5,-251.5 691.5,-251.5 691.5,-232.5 780.5,-232.5 780.5,-251.5"/>
<text text-anchor="middle" x="736" y="-239.5" font-family="Helvetica,sans-Serif" font-size="10.00">AP_Param::find</text>
</a>
</g>
</g>
<!-- Node2&#45;&gt;Node21 -->
<g id="edge26_Node000002_Node000021" class="edge">
<title>Node2&#45;&gt;Node21</title>
<g id="a_edge26_Node000002_Node000021"><a xlink:title=" ">
<path fill="none" stroke="#63b8ff" d="M248.66,-208.51C266.98,-224.15 306.32,-254.69 346,-266 467.35,-300.58 618.32,-272.05 691.36,-254"/>
<polygon fill="#63b8ff" stroke="#63b8ff" points="692.3,-257.37 701.14,-251.53 690.59,-250.59 692.3,-257.37"/>
</a>
</g>
</g>
<!-- Node23 -->
<g id="Node000023" class="node">
<title>Node23</title>
<g id="a_Node000023"><a xlink:href="stdio_8h.html#a55f3d956bb2ba20b5059e9e25484a47f" target="_top" xlink:title=" ">
<polygon fill="white" stroke="#666666" points="593.5,-211.5 550.5,-211.5 550.5,-192.5 593.5,-192.5 593.5,-211.5"/>
<text text-anchor="middle" x="572" y="-199.5" font-family="Helvetica,sans-Serif" font-size="10.00">printf</text>
</a>
</g>
</g>
<!-- Node2&#45;&gt;Node23 -->
<g id="edge35_Node000002_Node000023" class="edge">
<title>Node2&#45;&gt;Node23</title>
<g id="a_edge35_Node000002_Node000023"><a xlink:title=" ">
<path fill="none" stroke="#63b8ff" d="M310.26,-199.65C381.87,-200.3 488.16,-201.25 540.13,-201.72"/>
<polygon fill="#63b8ff" stroke="#63b8ff" points="540.33,-205.22 550.36,-201.81 540.4,-198.22 540.33,-205.22"/>
</a>
</g>
</g>
<!-- Node24 -->
<g id="Node000024" class="node">
<title>Node24</title>
<g id="a_Node000024"><a xlink:href="classAP__Param.html#a7dafa445dc17b3238fef6b6787c3948a" target="_top" xlink:title=" ">
<polygon fill="white" stroke="#666666" points="458,-121.5 363,-121.5 363,-102.5 458,-102.5 458,-121.5"/>
<text text-anchor="middle" x="410.5" y="-109.5" font-family="Helvetica,sans-Serif" font-size="10.00">AP_Param::save</text>
</a>
</g>
</g>
<!-- Node2&#45;&gt;Node24 -->
<g id="edge36_Node000002_Node000024" class="edge">
<title>Node2&#45;&gt;Node24</title>
<g id="a_edge36_Node000002_Node000024"><a xlink:title=" ">
<path fill="none" stroke="#63b8ff" d="M251.03,-189.41C270.74,-175.25 309.7,-148.66 346,-132 351.72,-129.37 357.88,-126.96 364.04,-124.79"/>
<polygon fill="#63b8ff" stroke="#63b8ff" points="365.27,-128.07 373.64,-121.57 363.05,-121.43 365.27,-128.07"/>
</a>
</g>
</g>
<!-- Node29 -->
<g id="Node000029" class="node">
<title>Node29</title>
<g id="a_Node000029"><a xlink:href="classAP__Param.html#a2b48c93dbe81f66160ffcd23f1d89dc4" target="_top" xlink:title=" ">
<polygon fill="white" stroke="#666666" points="473.5,-257 347.5,-257 347.5,-227 473.5,-227 473.5,-257"/>
<text text-anchor="start" x="355.5" y="-245" font-family="Helvetica,sans-Serif" font-size="10.00">AP_Param::set_default</text>
<text text-anchor="middle" x="410.5" y="-234" font-family="Helvetica,sans-Serif" font-size="10.00">_by_name</text>
</a>
</g>
</g>
<!-- Node2&#45;&gt;Node29 -->
<g id="edge41_Node000002_Node000029" class="edge">
<title>Node2&#45;&gt;Node29</title>
<g id="a_edge41_Node000002_Node000029"><a xlink:title=" ">
<path fill="none" stroke="#63b8ff" d="M276.06,-208.54C294.8,-213.24 318,-219.06 339.77,-224.52"/>
<polygon fill="#63b8ff" stroke="#63b8ff" points="339.1,-227.96 349.65,-226.99 340.8,-221.17 339.1,-227.96"/>
</a>
</g>
</g>
<!-- Node30 -->
<g id="Node000030" class="node">
<title>Node30</title>
<g id="a_Node000030"><a xlink:href="classSITL_1_1FlightAxis.html#a4cec0fc400e898c1856dab6e917b2503" target="_top" xlink:title=" ">
<polygon fill="white" stroke="#666666" points="475,-171 346,-171 346,-141 475,-141 475,-171"/>
<text text-anchor="start" x="354" y="-159" font-family="Helvetica,sans-Serif" font-size="10.00">SITL::FlightAxis::socket</text>
<text text-anchor="middle" x="410.5" y="-148" font-family="Helvetica,sans-Serif" font-size="10.00">_creator</text>
</a>
</g>
</g>
<!-- Node2&#45;&gt;Node30 -->
<g id="edge43_Node000002_Node000030" class="edge">
<title>Node2&#45;&gt;Node30</title>
<g id="a_edge43_Node000002_Node000030"><a xlink:title=" ">
<path fill="none" stroke="#63b8ff" d="M276.06,-189.46C294.8,-184.76 318,-178.94 339.77,-173.48"/>
<polygon fill="#63b8ff" stroke="#63b8ff" points="340.8,-176.83 349.65,-171.01 339.1,-170.04 340.8,-176.83"/>
</a>
</g>
</g>
<!-- Node31 -->
<g id="Node000031" class="node">
<title>Node31</title>
<g id="a_Node000031"><a xlink:href="classAP__HAL_1_1Scheduler.html#aa6ce504fcdbd583bc7c05eb1f1fb2129" target="_top" xlink:title=" ">
<polygon fill="white" stroke="#666666" points="467.5,-84 353.5,-84 353.5,-54 467.5,-54 467.5,-84"/>
<text text-anchor="start" x="361.5" y="-72" font-family="Helvetica,sans-Serif" font-size="10.00">AP_HAL::Scheduler::</text>
<text text-anchor="middle" x="410.5" y="-61" font-family="Helvetica,sans-Serif" font-size="10.00">thread_create</text>
</a>
</g>
</g>
<!-- Node2&#45;&gt;Node31 -->
<g id="edge45_Node000002_Node000031" class="edge">
<title>Node2&#45;&gt;Node31</title>
<g id="a_edge45_Node000002_Node000031"><a xlink:title=" ">
<path fill="none" stroke="#63b8ff" d="M245.67,-189.29C262.09,-169.06 302.72,-121.94 346,-94 349.07,-92.02 352.32,-90.15 355.66,-88.4"/>
<polygon fill="#63b8ff" stroke="#63b8ff" points="357.19,-91.55 364.66,-84.04 354.14,-85.25 357.19,-91.55"/>
</a>
</g>
</g>
<!-- Node4 -->
<g id="Node000004" class="node">
<title>Node4</title>
<g id="a_Node000004"><a xlink:href="classAP__Param.html#a791fd4e92df2597815723f0a291bef02" target="_top" xlink:title=" ">
<polygon fill="white" stroke="#666666" points="633,-376 511,-376 511,-346 633,-346 633,-376"/>
<text text-anchor="start" x="519" y="-364" font-family="Helvetica,sans-Serif" font-size="10.00">AP_Param::configured</text>
<text text-anchor="middle" x="572" y="-353" font-family="Helvetica,sans-Serif" font-size="10.00">_in_defaults_file</text>
</a>
</g>
</g>
<!-- Node3&#45;&gt;Node4 -->
<g id="edge3_Node000003_Node000004" class="edge">
<title>Node3&#45;&gt;Node4</title>
<g id="a_edge3_Node000003_Node000004"><a xlink:title=" ">
<path fill="none" stroke="#63b8ff" d="M471.8,-361C481.29,-361 491.18,-361 500.87,-361"/>
<polygon fill="#63b8ff" stroke="#63b8ff" points="500.88,-364.5 510.88,-361 500.88,-357.5 500.88,-364.5"/>
</a>
</g>
</g>
<!-- Node12 -->
<g id="Node000012" class="node">
<title>Node12</title>
<g id="a_Node000012"><a xlink:href="classAP__Param.html#af2183e20ccd40e1642a7ced4e9667667" target="_top" xlink:title=" ">
<polygon fill="white" stroke="#666666" points="633,-468 511,-468 511,-438 633,-438 633,-468"/>
<text text-anchor="start" x="519" y="-456" font-family="Helvetica,sans-Serif" font-size="10.00">AP_Param::configured</text>
<text text-anchor="middle" x="572" y="-445" font-family="Helvetica,sans-Serif" font-size="10.00">_in_storage</text>
</a>
</g>
</g>
<!-- Node3&#45;&gt;Node12 -->
<g id="edge15_Node000003_Node000012" class="edge">
<title>Node3&#45;&gt;Node12</title>
<g id="a_edge15_Node000003_Node000012"><a xlink:title=" ">
<path fill="none" stroke="#63b8ff" d="M428.27,-370.67C453.64,-385.3 502.35,-413.4 535.75,-432.67"/>
<polygon fill="#63b8ff" stroke="#63b8ff" points="534.32,-435.88 544.73,-437.85 537.82,-429.82 534.32,-435.88"/>
</a>
</g>
</g>
<!-- Node5 -->
<g id="Node000005" class="node">
<title>Node5</title>
<g id="a_Node000005"><a xlink:href="classAP__Param.html#a262ff617d4da618000056ee0766297a9" target="_top" xlink:title=" ">
<polygon fill="white" stroke="#666666" points="803,-370.5 669,-370.5 669,-351.5 803,-351.5 803,-370.5"/>
<text text-anchor="middle" x="736" y="-358.5" font-family="Helvetica,sans-Serif" font-size="10.00">AP_Param::find_var_info</text>
</a>
</g>
</g>
<!-- Node4&#45;&gt;Node5 -->
<g id="edge4_Node000004_Node000005" class="edge">
<title>Node4&#45;&gt;Node5</title>
<g id="a_edge4_Node000004_Node000005"><a xlink:title=" ">
<path fill="none" stroke="#63b8ff" d="M633.32,-361C641.66,-361 650.32,-361 658.9,-361"/>
<polygon fill="#63b8ff" stroke="#63b8ff" points="658.91,-364.5 668.91,-361 658.91,-357.5 658.91,-364.5"/>
</a>
</g>
</g>
<!-- Node6 -->
<g id="Node000006" class="node">
<title>Node6</title>
<g id="a_Node000006"><a xlink:href="classAP__Param.html#a6236c6d05bc7342b57cf69a21d9afd48" target="_top" xlink:title=" ">
<polygon fill="white" stroke="#666666" points="956,-376 846,-376 846,-346 956,-346 956,-376"/>
<text text-anchor="start" x="854" y="-364" font-family="Helvetica,sans-Serif" font-size="10.00">AP_Param::find_var</text>
<text text-anchor="middle" x="901" y="-353" font-family="Helvetica,sans-Serif" font-size="10.00">_info_group</text>
</a>
</g>
</g>
<!-- Node5&#45;&gt;Node6 -->
<g id="edge5_Node000005_Node000006" class="edge">
<title>Node5&#45;&gt;Node6</title>
<g id="a_edge5_Node000005_Node000006"><a xlink:title=" ">
<path fill="none" stroke="#63b8ff" d="M803.3,-361C814.05,-361 825.17,-361 835.87,-361"/>
<polygon fill="#63b8ff" stroke="#63b8ff" points="835.98,-364.5 845.98,-361 835.98,-357.5 835.98,-364.5"/>
</a>
</g>
</g>
<!-- Node8 -->
<g id="Node000008" class="node">
<title>Node8</title>
<g id="a_Node000008"><a xlink:href="classAP__Param.html#a1dcc7820ea51e29cfb762387a9212818" target="_top" xlink:title=" ">
<polygon fill="white" stroke="#666666" points="1295,-294.5 1179,-294.5 1179,-275.5 1295,-275.5 1295,-294.5"/>
<text text-anchor="middle" x="1237" y="-282.5" font-family="Helvetica,sans-Serif" font-size="10.00">AP_Param::get_base</text>
</a>
</g>
</g>
<!-- Node5&#45;&gt;Node8 -->
<g id="edge12_Node000005_Node000008" class="edge">
<title>Node5&#45;&gt;Node8</title>
<g id="a_edge12_Node000005_Node000008"><a xlink:title=" ">
<path fill="none" stroke="#63b8ff" d="M754.39,-370.64C774.18,-381 807.81,-396.83 839,-403 972.32,-429.37 1021.28,-430.44 1143,-370 1175.77,-353.73 1205.41,-322.44 1222.03,-302.7"/>
<polygon fill="#63b8ff" stroke="#63b8ff" points="1224.89,-304.73 1228.52,-294.78 1219.48,-300.3 1224.89,-304.73"/>
</a>
</g>
</g>
<!-- Node9 -->
<g id="Node000009" class="node">
<title>Node9</title>
<g id="a_Node000009"><a xlink:href="classAP__Param.html#a69baa95e011c7a8c4a29625c558c5501" target="_top" xlink:title="get group_info pointer based on flags">
<polygon fill="white" stroke="#666666" points="1143,-251.5 999,-251.5 999,-232.5 1143,-232.5 1143,-251.5"/>
<text text-anchor="middle" x="1071" y="-239.5" font-family="Helvetica,sans-Serif" font-size="10.00">AP_Param::get_group_info</text>
</a>
</g>
</g>
<!-- Node5&#45;&gt;Node9 -->
<g id="edge13_Node000005_Node000009" class="edge">
<title>Node5&#45;&gt;Node9</title>
<g id="a_edge13_Node000005_Node000009"><a xlink:title=" ">
<path fill="none" stroke="#63b8ff" d="M776.27,-351.45C836.62,-336.59 946.9,-308.65 963,-299 982.95,-287.04 979.01,-272.9 999,-261 1002.64,-258.83 1006.53,-256.91 1010.54,-255.2"/>
<polygon fill="#63b8ff" stroke="#63b8ff" points="1011.95,-258.41 1020.07,-251.6 1009.48,-251.86 1011.95,-258.41"/>
</a>
</g>
</g>
<!-- Node11 -->
<g id="Node000011" class="node">
<title>Node11</title>
<g id="a_Node000011"><a xlink:href="structtype.html#a9bc6db84bdab9cb1893658114058ad41" target="_top" xlink:title=" ">
<polygon fill="white" stroke="#666666" points="934,-289.5 868,-289.5 868,-270.5 934,-270.5 934,-289.5"/>
<text text-anchor="middle" x="901" y="-277.5" font-family="Helvetica,sans-Serif" font-size="10.00">type::type</text>
</a>
</g>
</g>
<!-- Node5&#45;&gt;Node11 -->
<g id="edge14_Node000005_Node000011" class="edge">
<title>Node5&#45;&gt;Node11</title>
<g id="a_edge14_Node000005_Node000011"><a xlink:title=" ">
<path fill="none" stroke="#63b8ff" d="M752.55,-351.44C772.26,-339.53 807.46,-318.93 839,-304 846.98,-300.22 855.74,-296.53 864.05,-293.21"/>
<polygon fill="#63b8ff" stroke="#63b8ff" points="865.5,-296.41 873.55,-289.52 862.96,-289.88 865.5,-296.41"/>
</a>
</g>
</g>
<!-- Node6&#45;&gt;Node6 -->
<g id="edge8_Node000006_Node000006" class="edge">
<title>Node6&#45;&gt;Node6</title>
<g id="a_edge8_Node000006_Node000006"><a xlink:title=" ">
<path fill="none" stroke="#63b8ff" d="M872.17,-376.28C865.77,-385.41 875.38,-394 901,-394 916.21,-394 925.78,-390.97 929.71,-386.6"/>
<polygon fill="#63b8ff" stroke="#63b8ff" points="933.21,-386.32 929.83,-376.28 926.21,-386.23 933.21,-386.32"/>
</a>
</g>
</g>
<!-- Node7 -->
<g id="Node000007" class="node">
<title>Node7</title>
<g id="a_Node000007"><a xlink:href="classAP__Param.html#aa8b43d95bca6adbf5497e8102cf73857" target="_top" xlink:title=" ">
<polygon fill="white" stroke="#666666" points="1138,-300 1004,-300 1004,-270 1138,-270 1138,-300"/>
<text text-anchor="start" x="1012" y="-288" font-family="Helvetica,sans-Serif" font-size="10.00">AP_Param::adjust_group</text>
<text text-anchor="middle" x="1071" y="-277" font-family="Helvetica,sans-Serif" font-size="10.00">_offset</text>
</a>
</g>
</g>
<!-- Node6&#45;&gt;Node7 -->
<g id="edge6_Node000006_Node000007" class="edge">
<title>Node6&#45;&gt;Node7</title>
<g id="a_edge6_Node000006_Node000007"><a xlink:title=" ">
<path fill="none" stroke="#63b8ff" d="M935.24,-345.97C944.34,-341.65 954.13,-336.8 963,-332 979.49,-323.07 982.06,-318.05 999,-310 1003.6,-307.81 1008.45,-305.71 1013.36,-303.72"/>
<polygon fill="#63b8ff" stroke="#63b8ff" points="1014.79,-306.92 1022.84,-300.04 1012.25,-300.4 1014.79,-306.92"/>
</a>
</g>
</g>
<!-- Node6&#45;&gt;Node8 -->
<g id="edge9_Node000006_Node000008" class="edge">
<title>Node6&#45;&gt;Node8</title>
<g id="a_edge9_Node000006_Node000008"><a xlink:title=" ">
<path fill="none" stroke="#63b8ff" d="M956.17,-365.81C1006.04,-368.4 1081.4,-367.62 1143,-347 1171.78,-337.37 1200.11,-316.36 1217.79,-301.48"/>
<polygon fill="#63b8ff" stroke="#63b8ff" points="1220.31,-303.93 1225.58,-294.74 1215.72,-298.64 1220.31,-303.93"/>
</a>
</g>
</g>
<!-- Node6&#45;&gt;Node9 -->
<g id="edge10_Node000006_Node000009" class="edge">
<title>Node6&#45;&gt;Node9</title>
<g id="a_edge10_Node000006_Node000009"><a xlink:title=" ">
<path fill="none" stroke="#63b8ff" d="M943.45,-345.89C950.51,-342.08 957.37,-337.48 963,-332 988.33,-307.3 971.52,-283.29 999,-261 1001.08,-259.31 1003.3,-257.77 1005.62,-256.37"/>
<polygon fill="#63b8ff" stroke="#63b8ff" points="1007.65,-259.26 1014.97,-251.61 1004.47,-253.02 1007.65,-259.26"/>
</a>
</g>
</g>
<!-- Node10 -->
<g id="Node000010" class="node">
<title>Node10</title>
<g id="a_Node000010"><a xlink:href="classAP__Param.html#a90f6be43b427d44475380211164f8292" target="_top" xlink:title=" ">
<polygon fill="white" stroke="#666666" points="1127.5,-337.5 1014.5,-337.5 1014.5,-318.5 1127.5,-318.5 1127.5,-337.5"/>
<text text-anchor="middle" x="1071" y="-325.5" font-family="Helvetica,sans-Serif" font-size="10.00">AP_Param::group_id</text>
</a>
</g>
</g>
<!-- Node6&#45;&gt;Node10 -->
<g id="edge11_Node000006_Node000010" class="edge">
<title>Node6&#45;&gt;Node10</title>
<g id="a_edge11_Node000006_Node000010"><a xlink:title=" ">
<path fill="none" stroke="#63b8ff" d="M956.08,-350.38C973.81,-346.9 993.57,-343.01 1011.6,-339.47"/>
<polygon fill="#63b8ff" stroke="#63b8ff" points="1012.28,-342.91 1021.42,-337.54 1010.93,-336.04 1012.28,-342.91"/>
</a>
</g>
</g>
<!-- Node7&#45;&gt;Node8 -->
<g id="edge7_Node000007_Node000008" class="edge">
<title>Node7&#45;&gt;Node8</title>
<g id="a_edge7_Node000007_Node000008"><a xlink:title=" ">
<path fill="none" stroke="#63b8ff" d="M1138.23,-285C1148.2,-285 1158.48,-285 1168.47,-285"/>
<polygon fill="#63b8ff" stroke="#63b8ff" points="1168.75,-288.5 1178.75,-285 1168.75,-281.5 1168.75,-288.5"/>
</a>
</g>
</g>
<!-- Node12&#45;&gt;Node5 -->
<g id="edge16_Node000012_Node000005" class="edge">
<title>Node12&#45;&gt;Node5</title>
<g id="a_edge16_Node000012_Node000005"><a xlink:title=" ">
<path fill="none" stroke="#63b8ff" d="M599.75,-437.81C630.08,-420.58 679.19,-392.7 709.14,-375.69"/>
<polygon fill="#63b8ff" stroke="#63b8ff" points="711.18,-378.55 718.15,-370.57 707.72,-372.47 711.18,-378.55"/>
</a>
</g>
</g>
<!-- Node13 -->
<g id="Node000013" class="node">
<title>Node13</title>
<g id="a_Node000013"><a xlink:href="classAP__Param.html#aa416fb587f072ed8d8039168d122ecb4" target="_top" xlink:title=" ">
<polygon fill="white" stroke="#666666" points="783,-506.5 689,-506.5 689,-487.5 783,-487.5 783,-506.5"/>
<text text-anchor="middle" x="736" y="-494.5" font-family="Helvetica,sans-Serif" font-size="10.00">AP_Param::scan</text>
</a>
</g>
</g>
<!-- Node12&#45;&gt;Node13 -->
<g id="edge17_Node000012_Node000013" class="edge">
<title>Node12&#45;&gt;Node13</title>
<g id="a_edge17_Node000012_Node000013"><a xlink:title=" ">
<path fill="none" stroke="#63b8ff" d="M628.3,-468.02C648.44,-473.49 670.94,-479.6 690.07,-484.8"/>
<polygon fill="#63b8ff" stroke="#63b8ff" points="689.17,-488.18 699.73,-487.42 691,-481.42 689.17,-488.18"/>
</a>
</g>
</g>
<!-- Node20 -->
<g id="Node000020" class="node">
<title>Node20</title>
<g id="a_Node000020"><a xlink:href="classAP__Param.html#a0d927132804c19fa222b1fcb871e7009" target="_top" xlink:title=" ">
<polygon fill="white" stroke="#666666" points="790.5,-543.5 681.5,-543.5 681.5,-524.5 790.5,-524.5 790.5,-543.5"/>
<text text-anchor="middle" x="736" y="-531.5" font-family="Helvetica,sans-Serif" font-size="10.00">AP_Param::set_key</text>
</a>
</g>
</g>
<!-- Node12&#45;&gt;Node20 -->
<g id="edge25_Node000012_Node000020" class="edge">
<title>Node12&#45;&gt;Node20</title>
<g id="a_edge25_Node000012_Node000020"><a xlink:title=" ">
<path fill="none" stroke="#63b8ff" d="M592.17,-468.21C610.82,-482.36 640.47,-503.14 669,-516 673.31,-517.94 677.87,-519.71 682.5,-521.32"/>
<polygon fill="#63b8ff" stroke="#63b8ff" points="681.47,-524.67 692.06,-524.4 683.61,-518 681.47,-524.67"/>
</a>
</g>
</g>
<!-- Node14 -->
<g id="Node000014" class="node">
<title>Node14</title>
<g id="a_Node000014"><a xlink:href="classAP__Param.html#a292ed97cd29eb839a301d85690d125bd" target="_top" xlink:title=" ">
<polygon fill="white" stroke="#666666" points="1126,-525.5 1016,-525.5 1016,-506.5 1126,-506.5 1126,-525.5"/>
<text text-anchor="middle" x="1071" y="-513.5" font-family="Helvetica,sans-Serif" font-size="10.00">AP_Param::get_key</text>
</a>
</g>
</g>
<!-- Node13&#45;&gt;Node14 -->
<g id="edge18_Node000013_Node000014" class="edge">
<title>Node13&#45;&gt;Node14</title>
<g id="a_edge18_Node000013_Node000014"><a xlink:title=" ">
<path fill="none" stroke="#63b8ff" d="M778.44,-506.51C796.88,-510.28 818.91,-514.14 839,-516 895.06,-521.18 959.1,-520.68 1005.51,-519.17"/>
<polygon fill="#63b8ff" stroke="#63b8ff" points="1005.86,-522.66 1015.73,-518.81 1005.61,-515.66 1005.86,-522.66"/>
</a>
</g>
</g>
<!-- Node15 -->
<g id="Node000015" class="node">
<title>Node15</title>
<g id="a_Node000015"><a xlink:href="classAP__Param.html#aa2a6f6980713f1055fbee50f67082296" target="_top" xlink:title=" ">
<polygon fill="white" stroke="#666666" points="963,-506.5 839,-506.5 839,-487.5 963,-487.5 963,-506.5"/>
<text text-anchor="middle" x="901" y="-494.5" font-family="Helvetica,sans-Serif" font-size="10.00">AP_Param::is_sentinal</text>
</a>
</g>
</g>
<!-- Node13&#45;&gt;Node15 -->
<g id="edge19_Node000013_Node000015" class="edge">
<title>Node13&#45;&gt;Node15</title>
<g id="a_edge19_Node000013_Node000015"><a xlink:title=" ">
<path fill="none" stroke="#63b8ff" d="M783.27,-497C797.48,-497 813.45,-497 828.92,-497"/>
<polygon fill="#63b8ff" stroke="#63b8ff" points="828.99,-500.5 838.99,-497 828.99,-493.5 828.99,-500.5"/>
</a>
</g>
</g>
<!-- Node16 -->
<g id="Node000016" class="node">
<title>Node16</title>
<g id="a_Node000016"><a xlink:href="classStorageAccess.html#abb169f592c849f2158a48615c8dee90a" target="_top" xlink:title=" ">
<polygon fill="white" stroke="#666666" points="959,-593 843,-593 843,-563 959,-563 959,-593"/>
<text text-anchor="start" x="851" y="-581" font-family="Helvetica,sans-Serif" font-size="10.00">StorageAccess::read</text>
<text text-anchor="middle" x="901" y="-570" font-family="Helvetica,sans-Serif" font-size="10.00">_block</text>
</a>
</g>
</g>
<!-- Node13&#45;&gt;Node16 -->
<g id="edge21_Node000013_Node000016" class="edge">
<title>Node13&#45;&gt;Node16</title>
<g id="a_edge21_Node000013_Node000016"><a xlink:title=" ">
<path fill="none" stroke="#63b8ff" d="M780.76,-506.5C788.42,-509.02 796.14,-512.15 803,-516 821.93,-526.62 821,-536.87 839,-549 843.86,-552.27 849.15,-555.37 854.51,-558.24"/>
<polygon fill="#63b8ff" stroke="#63b8ff" points="853.04,-561.43 863.54,-562.85 856.22,-555.19 853.04,-561.43"/>
</a>
</g>
</g>
<!-- Node18 -->
<g id="Node000018" class="node">
<title>Node18</title>
<g id="a_Node000018"><a xlink:href="classStorageAccess.html#aa810ebbc83bfc0986aa6c13f76d08eaf" target="_top" xlink:title=" ">
<polygon fill="white" stroke="#666666" points="957.5,-469.5 844.5,-469.5 844.5,-450.5 957.5,-450.5 957.5,-469.5"/>
<text text-anchor="middle" x="901" y="-457.5" font-family="Helvetica,sans-Serif" font-size="10.00">StorageAccess::size</text>
</a>
</g>
</g>
<!-- Node13&#45;&gt;Node18 -->
<g id="edge23_Node000013_Node000018" class="edge">
<title>Node13&#45;&gt;Node18</title>
<g id="a_edge23_Node000013_Node000018"><a xlink:title=" ">
<path fill="none" stroke="#63b8ff" d="M778.98,-487.47C800,-482.7 825.65,-476.88 847.92,-471.82"/>
<polygon fill="#63b8ff" stroke="#63b8ff" points="848.91,-475.19 857.88,-469.56 847.36,-468.36 848.91,-475.19"/>
</a>
</g>
</g>
<!-- Node19 -->
<g id="Node000019" class="node">
<title>Node19</title>
<g id="a_Node000019"><a xlink:href="classAP__Param.html#a2e66d023b56a62888747cbfaaef729d9" target="_top" xlink:title="get the size of a type in bytes">
<polygon fill="white" stroke="#666666" points="960,-630.5 842,-630.5 842,-611.5 960,-611.5 960,-630.5"/>
<text text-anchor="middle" x="901" y="-618.5" font-family="Helvetica,sans-Serif" font-size="10.00">AP_Param::type_size</text>
</a>
</g>
</g>
<!-- Node13&#45;&gt;Node19 -->
<g id="edge24_Node000013_Node000019" class="edge">
<title>Node13&#45;&gt;Node19</title>
<g id="a_edge24_Node000013_Node000019"><a xlink:title=" ">
<path fill="none" stroke="#63b8ff" d="M783.07,-504.47C790.32,-507.2 797.3,-510.93 803,-516 833.95,-543.55 808.35,-574.12 839,-602 840.73,-603.58 842.6,-605.02 844.55,-606.35"/>
<polygon fill="#63b8ff" stroke="#63b8ff" points="843.22,-609.61 853.66,-611.43 846.63,-603.5 843.22,-609.61"/>
</a>
</g>
</g>
<!-- Node15&#45;&gt;Node14 -->
<g id="edge20_Node000015_Node000014" class="edge">
<title>Node15&#45;&gt;Node14</title>
<g id="a_edge20_Node000015_Node000014"><a xlink:title=" ">
<path fill="none" stroke="#63b8ff" d="M963.13,-503.91C977.02,-505.48 991.81,-507.16 1005.83,-508.74"/>
<polygon fill="#63b8ff" stroke="#63b8ff" points="1005.54,-512.23 1015.87,-509.88 1006.33,-505.28 1005.54,-512.23"/>
</a>
</g>
</g>
<!-- Node17 -->
<g id="Node000017" class="node">
<title>Node17</title>
<g id="a_Node000017"><a xlink:href="classAP__HAL_1_1Storage.html#a1c3b1e80b0bec7d4bacd3ecbefb3b3f3" target="_top" xlink:title=" ">
<polygon fill="white" stroke="#666666" points="1133.5,-593 1008.5,-593 1008.5,-563 1133.5,-563 1133.5,-593"/>
<text text-anchor="start" x="1016.5" y="-581" font-family="Helvetica,sans-Serif" font-size="10.00">AP_HAL::Storage::read</text>
<text text-anchor="middle" x="1071" y="-570" font-family="Helvetica,sans-Serif" font-size="10.00">_block</text>
</a>
</g>
</g>
<!-- Node16&#45;&gt;Node17 -->
<g id="edge22_Node000016_Node000017" class="edge">
<title>Node16&#45;&gt;Node17</title>
<g id="a_edge22_Node000016_Node000017"><a xlink:title=" ">
<path fill="none" stroke="#63b8ff" d="M959.35,-578C971.8,-578 985.12,-578 998.05,-578"/>
<polygon fill="#63b8ff" stroke="#63b8ff" points="998.32,-581.5 1008.32,-578 998.32,-574.5 998.32,-581.5"/>
</a>
</g>
</g>
<!-- Node21&#45;&gt;Node8 -->
<g id="edge32_Node000021_Node000008" class="edge">
<title>Node21&#45;&gt;Node8</title>
<g id="a_edge32_Node000021_Node000008"><a xlink:title=" ">
<path fill="none" stroke="#63b8ff" d="M745.96,-232.34C762.43,-215.38 799.46,-180.83 839,-168 891.42,-150.99 907.97,-164.95 963,-168 1043.37,-172.45 1070.82,-152.37 1143,-188 1179.41,-205.97 1209.29,-244.33 1224.7,-267.06"/>
<polygon fill="#63b8ff" stroke="#63b8ff" points="1221.81,-269.03 1230.22,-275.47 1227.66,-265.19 1221.81,-269.03"/>
</a>
</g>
</g>
<!-- Node21&#45;&gt;Node9 -->
<g id="edge33_Node000021_Node000009" class="edge">
<title>Node21&#45;&gt;Node9</title>
<g id="a_edge33_Node000021_Node000009"><a xlink:title=" ">
<path fill="none" stroke="#63b8ff" d="M780.53,-242C833.16,-242 922.83,-242 988.45,-242"/>
<polygon fill="#63b8ff" stroke="#63b8ff" points="988.76,-245.5 998.76,-242 988.76,-238.5 988.76,-245.5"/>
</a>
</g>
</g>
<!-- Node21&#45;&gt;Node11 -->
<g id="edge34_Node000021_Node000011" class="edge">
<title>Node21&#45;&gt;Node11</title>
<g id="a_edge34_Node000021_Node000011"><a xlink:title=" ">
<path fill="none" stroke="#63b8ff" d="M778.13,-251.59C802.58,-257.29 833.52,-264.5 858.11,-270.23"/>
<polygon fill="#63b8ff" stroke="#63b8ff" points="857.34,-273.65 867.88,-272.51 858.93,-266.83 857.34,-273.65"/>
</a>
</g>
</g>
<!-- Node22 -->
<g id="Node000022" class="node">
<title>Node22</title>
<g id="a_Node000022"><a xlink:href="classAP__Param.html#a6d02e2c94f578782f8f68ef0fec7a43d" target="_top" xlink:title=" ">
<polygon fill="white" stroke="#666666" points="962,-195.5 840,-195.5 840,-176.5 962,-176.5 962,-195.5"/>
<text text-anchor="middle" x="901" y="-183.5" font-family="Helvetica,sans-Serif" font-size="10.00">AP_Param::find_group</text>
</a>
</g>
</g>
<!-- Node21&#45;&gt;Node22 -->
<g id="edge27_Node000021_Node000022" class="edge">
<title>Node21&#45;&gt;Node22</title>
<g id="a_edge27_Node000021_Node000022"><a xlink:title=" ">
<path fill="none" stroke="#63b8ff" d="M765.02,-232.37C792.01,-223.1 833,-209.02 862.73,-198.8"/>
<polygon fill="#63b8ff" stroke="#63b8ff" points="864.02,-202.06 872.34,-195.5 861.75,-195.44 864.02,-202.06"/>
</a>
</g>
</g>
<!-- Node22&#45;&gt;Node7 -->
<g id="edge28_Node000022_Node000007" class="edge">
<title>Node22&#45;&gt;Node7</title>
<g id="a_edge28_Node000022_Node000007"><a xlink:title=" ">
<path fill="none" stroke="#63b8ff" d="M911.96,-195.56C928.71,-211.18 964.1,-242.29 999,-261 1002.29,-262.76 1005.73,-264.43 1009.26,-266.01"/>
<polygon fill="#63b8ff" stroke="#63b8ff" points="1008.13,-269.33 1018.71,-269.95 1010.83,-262.87 1008.13,-269.33"/>
</a>
</g>
</g>
<!-- Node22&#45;&gt;Node8 -->
<g id="edge30_Node000022_Node000008" class="edge">
<title>Node22&#45;&gt;Node8</title>
<g id="a_edge30_Node000022_Node000008"><a xlink:title=" ">
<path fill="none" stroke="#63b8ff" d="M962,-188.43C1011.9,-192.09 1084.02,-201.23 1143,-224 1170.86,-234.76 1199.01,-254.79 1216.92,-268.96"/>
<polygon fill="#63b8ff" stroke="#63b8ff" points="1214.88,-271.8 1224.85,-275.37 1219.28,-266.36 1214.88,-271.8"/>
</a>
</g>
</g>
<!-- Node22&#45;&gt;Node9 -->
<g id="edge31_Node000022_Node000009" class="edge">
<title>Node22&#45;&gt;Node9</title>
<g id="a_edge31_Node000022_Node000009"><a xlink:title=" ">
<path fill="none" stroke="#63b8ff" d="M930.88,-195.63C958.82,-204.94 1001.31,-219.1 1031.99,-229.33"/>
<polygon fill="#63b8ff" stroke="#63b8ff" points="1030.9,-232.66 1041.5,-232.5 1033.12,-226.02 1030.9,-232.66"/>
</a>
</g>
</g>
<!-- Node22&#45;&gt;Node22 -->
<g id="edge29_Node000022_Node000022" class="edge">
<title>Node22&#45;&gt;Node22</title>
<g id="a_edge29_Node000022_Node000022"><a xlink:title=" ">
<path fill="none" stroke="#63b8ff" d="M875.72,-195.58C863.43,-204.23 871.85,-213.5 901,-213.5 920.13,-213.5 930.33,-209.51 931.61,-204.32"/>
<polygon fill="#63b8ff" stroke="#63b8ff" points="934.48,-202.29 926.28,-195.58 928.5,-205.94 934.48,-202.29"/>
</a>
</g>
</g>
<!-- Node25 -->
<g id="Node000025" class="node">
<title>Node25</title>
<g id="a_Node000025"><a xlink:href="classAP__HAL_1_1Scheduler.html#a78c4f1b1f192ac1c99544b6cc8f099b0" target="_top" xlink:title=" ">
<polygon fill="white" stroke="#666666" points="630,-30 514,-30 514,0 630,0 630,-30"/>
<text text-anchor="start" x="522" y="-18" font-family="Helvetica,sans-Serif" font-size="10.00">AP_HAL::Scheduler::</text>
<text text-anchor="middle" x="572" y="-7" font-family="Helvetica,sans-Serif" font-size="10.00">delay_microseconds</text>
</a>
</g>
</g>
<!-- Node24&#45;&gt;Node25 -->
<g id="edge37_Node000024_Node000025" class="edge">
<title>Node24&#45;&gt;Node25</title>
<g id="a_edge37_Node000024_Node000025"><a xlink:title=" ">
<path fill="none" stroke="#63b8ff" d="M457.4,-102.48C463.65,-100.01 469.73,-96.9 475,-93 498.19,-75.85 488.6,-57.17 511,-39 512.57,-37.73 514.21,-36.52 515.91,-35.36"/>
<polygon fill="#63b8ff" stroke="#63b8ff" points="518.01,-38.19 524.82,-30.07 514.44,-32.17 518.01,-38.19"/>
</a>
</g>
</g>
<!-- Node26 -->
<g id="Node000026" class="node">
<title>Node26</title>
<g id="a_Node000026"><a xlink:href="classAP__HAL_1_1Scheduler.html#a11ba6b24b490a55c24e9b1096d9f2790" target="_top" xlink:title=" ">
<polygon fill="white" stroke="#666666" points="629,-174 515,-174 515,-144 629,-144 629,-174"/>
<text text-anchor="start" x="523" y="-162" font-family="Helvetica,sans-Serif" font-size="10.00">AP_HAL::Scheduler::</text>
<text text-anchor="middle" x="572" y="-151" font-family="Helvetica,sans-Serif" font-size="10.00">expect_delay_ms</text>
</a>
</g>
</g>
<!-- Node24&#45;&gt;Node26 -->
<g id="edge38_Node000024_Node000026" class="edge">
<title>Node24&#45;&gt;Node26</title>
<g id="a_edge38_Node000024_Node000026"><a xlink:title=" ">
<path fill="none" stroke="#63b8ff" d="M443.78,-121.51C462.81,-127.12 487.51,-134.4 510.08,-141.05"/>
<polygon fill="#63b8ff" stroke="#63b8ff" points="509.35,-144.48 519.93,-143.95 511.33,-137.77 509.35,-144.48"/>
</a>
</g>
</g>
<!-- Node27 -->
<g id="Node000027" class="node">
<title>Node27</title>
<g id="a_Node000027"><a xlink:href="classAP__HAL_1_1Util.html#a287a2b82fa30b92c8d52aad61d4d27b7" target="_top" xlink:title=" ">
<polygon fill="white" stroke="#666666" points="633,-126 511,-126 511,-96 633,-96 633,-126"/>
<text text-anchor="start" x="519" y="-114" font-family="Helvetica,sans-Serif" font-size="10.00">AP_HAL::Util::get_soft</text>
<text text-anchor="middle" x="572" y="-103" font-family="Helvetica,sans-Serif" font-size="10.00">_armed</text>
</a>
</g>
</g>
<!-- Node24&#45;&gt;Node27 -->
<g id="edge39_Node000024_Node000027" class="edge">
<title>Node24&#45;&gt;Node27</title>
<g id="a_edge39_Node000024_Node000027"><a xlink:title=" ">
<path fill="none" stroke="#63b8ff" d="M458.06,-111.71C471.31,-111.63 486.04,-111.53 500.37,-111.44"/>
<polygon fill="#63b8ff" stroke="#63b8ff" points="500.73,-114.94 510.71,-111.38 500.69,-107.94 500.73,-114.94"/>
</a>
</g>
</g>
<!-- Node28 -->
<g id="Node000028" class="node">
<title>Node28</title>
<g id="a_Node000028"><a xlink:href="classAP__HAL_1_1Scheduler.html#a555ccd11a987cf0fd4bfdf7edcd67028" target="_top" xlink:title=" ">
<polygon fill="white" stroke="#666666" points="629,-78 515,-78 515,-48 629,-48 629,-78"/>
<text text-anchor="start" x="523" y="-66" font-family="Helvetica,sans-Serif" font-size="10.00">AP_HAL::Scheduler::</text>
<text text-anchor="middle" x="572" y="-55" font-family="Helvetica,sans-Serif" font-size="10.00">in_main_thread</text>
</a>
</g>
</g>
<!-- Node24&#45;&gt;Node28 -->
<g id="edge40_Node000024_Node000028" class="edge">
<title>Node24&#45;&gt;Node28</title>
<g id="a_edge40_Node000024_Node000028"><a xlink:title=" ">
<path fill="none" stroke="#63b8ff" d="M443.83,-102.41C453.83,-99.42 464.88,-96.1 475,-93 487.51,-89.17 500.92,-85.02 513.62,-81.05"/>
<polygon fill="#63b8ff" stroke="#63b8ff" points="514.68,-84.39 523.18,-78.07 512.59,-77.71 514.68,-84.39"/>
</a>
</g>
</g>
<!-- Node29&#45;&gt;Node21 -->
<g id="edge42_Node000029_Node000021" class="edge">
<title>Node29&#45;&gt;Node21</title>
<g id="a_edge42_Node000029_Node000021"><a xlink:title=" ">
<path fill="none" stroke="#63b8ff" d="M473.87,-242C534.02,-242 624.11,-242 681.2,-242"/>
<polygon fill="#63b8ff" stroke="#63b8ff" points="681.46,-245.5 691.46,-242 681.46,-238.5 681.46,-245.5"/>
</a>
</g>
</g>
<!-- Node30&#45;&gt;Node23 -->
<g id="edge44_Node000030_Node000023" class="edge">
<title>Node30&#45;&gt;Node23</title>
<g id="a_edge44_Node000030_Node000023"><a xlink:title=" ">
<path fill="none" stroke="#63b8ff" d="M463.73,-171.06C489.14,-178.39 518.8,-186.95 540.48,-193.2"/>
<polygon fill="#63b8ff" stroke="#63b8ff" points="539.56,-196.58 550.14,-195.98 541.5,-189.85 539.56,-196.58"/>
</a>
</g>
</g>
</g>
</svg>
