<?xml version="1.0" encoding="UTF-8" standalone="no"?>
<!DOCTYPE svg PUBLIC "-//W3C//DTD SVG 1.1//EN"
 "http://www.w3.org/Graphics/SVG/1.1/DTD/svg11.dtd">
<!-- Generated by graphviz version 2.43.0 (0)
 -->
<!-- Title: Linux::RCOutput_PCA9685::write_gpio Pages: 1 -->
<svg width="691pt" height="172pt"
 viewBox="0.00 0.00 691.00 172.00" xmlns="http://www.w3.org/2000/svg" xmlns:xlink="http://www.w3.org/1999/xlink">
<g id="graph0" class="graph" transform="scale(1 1) rotate(0) translate(4 168)">
<title>Linux::RCOutput_PCA9685::write_gpio</title>
<!-- Node1 -->
<g id="Node000001" class="node">
<title>Node1</title>
<g id="a_Node000001"><a xlink:title=" ">
<polygon fill="#999999" stroke="#666666" points="144,-99 0,-99 0,-69 144,-69 144,-99"/>
<text text-anchor="start" x="8" y="-87" font-family="Helvetica,sans-Serif" font-size="10.00">Linux::RCOutput_PCA9685</text>
<text text-anchor="middle" x="72" y="-76" font-family="Helvetica,sans-Serif" font-size="10.00">::write_gpio</text>
</a>
</g>
</g>
<!-- Node2 -->
<g id="Node000002" class="node">
<title>Node2</title>
<g id="a_Node000002"><a xlink:href="classLinux_1_1RCOutput__PCA9685.html#a58429c0cb30299bc837e03673db287ce" target="_top" xlink:title=" ">
<polygon fill="white" stroke="#666666" points="324,-99 180,-99 180,-69 324,-69 324,-99"/>
<text text-anchor="start" x="188" y="-87" font-family="Helvetica,sans-Serif" font-size="10.00">Linux::RCOutput_PCA9685</text>
<text text-anchor="middle" x="252" y="-76" font-family="Helvetica,sans-Serif" font-size="10.00">::write_raw</text>
</a>
</g>
</g>
<!-- Node1&#45;&gt;Node2 -->
<g id="edge1_Node000001_Node000002" class="edge">
<title>Node1&#45;&gt;Node2</title>
<g id="a_edge1_Node000001_Node000002"><a xlink:title=" ">
<path fill="none" stroke="#63b8ff" d="M144.12,-84C152.61,-84 161.33,-84 169.94,-84"/>
<polygon fill="#63b8ff" stroke="#63b8ff" points="170,-87.5 180,-84 170,-80.5 170,-87.5"/>
</a>
</g>
</g>
<!-- Node3 -->
<g id="Node000003" class="node">
<title>Node3</title>
<g id="a_Node000003"><a xlink:href="classLinux_1_1RCOutput__PCA9685.html#a7fb21fe48e7a7ead89ced675463e953b" target="_top" xlink:title=" ">
<polygon fill="white" stroke="#666666" points="504,-99 360,-99 360,-69 504,-69 504,-99"/>
<text text-anchor="start" x="368" y="-87" font-family="Helvetica,sans-Serif" font-size="10.00">Linux::RCOutput_PCA9685</text>
<text text-anchor="middle" x="432" y="-76" font-family="Helvetica,sans-Serif" font-size="10.00">::push</text>
</a>
</g>
</g>
<!-- Node2&#45;&gt;Node3 -->
<g id="edge2_Node000002_Node000003" class="edge">
<title>Node2&#45;&gt;Node3</title>
<g id="a_edge2_Node000002_Node000003"><a xlink:title=" ">
<path fill="none" stroke="#63b8ff" d="M324.12,-84C332.61,-84 341.33,-84 349.94,-84"/>
<polygon fill="#63b8ff" stroke="#63b8ff" points="350,-87.5 360,-84 350,-80.5 350,-87.5"/>
</a>
</g>
</g>
<!-- Node4 -->
<g id="Node000004" class="node">
<title>Node4</title>
<g id="a_Node000004"><a xlink:href="classAP__HAL_1_1I2CDevice.html#a6cc77d0b90d91cd9293e0f4081974969" target="_top" xlink:title=" ">
<polygon fill="white" stroke="#666666" points="669.5,-164 553.5,-164 553.5,-134 669.5,-134 669.5,-164"/>
<text text-anchor="start" x="561.5" y="-152" font-family="Helvetica,sans-Serif" font-size="10.00">AP_HAL::I2CDevice::</text>
<text text-anchor="middle" x="611.5" y="-141" font-family="Helvetica,sans-Serif" font-size="10.00">get_semaphore</text>
</a>
</g>
</g>
<!-- Node3&#45;&gt;Node4 -->
<g id="edge3_Node000003_Node000004" class="edge">
<title>Node3&#45;&gt;Node4</title>
<g id="a_edge3_Node000003_Node000004"><a xlink:title=" ">
<path fill="none" stroke="#63b8ff" d="M471.5,-99.16C491.81,-107.05 517.18,-116.75 540,-125 545.09,-126.84 550.4,-128.72 555.73,-130.58"/>
<polygon fill="#63b8ff" stroke="#63b8ff" points="554.69,-133.92 565.28,-133.89 556.98,-127.31 554.69,-133.92"/>
</a>
</g>
</g>
<!-- Node5 -->
<g id="Node000005" class="node">
<title>Node5</title>
<g id="a_Node000005"><a xlink:href="classAP__HAL_1_1Semaphore.html#afcdbf03d5bea9d83037acc93bfaea7ce" target="_top" xlink:title=" ">
<polygon fill="white" stroke="#666666" points="683,-115.5 540,-115.5 540,-96.5 683,-96.5 683,-115.5"/>
<text text-anchor="middle" x="611.5" y="-103.5" font-family="Helvetica,sans-Serif" font-size="10.00">AP_HAL::Semaphore::give</text>
</a>
</g>
</g>
<!-- Node3&#45;&gt;Node5 -->
<g id="edge4_Node000003_Node000005" class="edge">
<title>Node3&#45;&gt;Node5</title>
<g id="a_edge4_Node000003_Node000005"><a xlink:title=" ">
<path fill="none" stroke="#63b8ff" d="M504.17,-92.82C512.63,-93.87 521.31,-94.95 529.89,-96.01"/>
<polygon fill="#63b8ff" stroke="#63b8ff" points="529.53,-99.49 539.89,-97.25 530.4,-92.54 529.53,-99.49"/>
</a>
</g>
</g>
<!-- Node6 -->
<g id="Node000006" class="node">
<title>Node6</title>
<g id="a_Node000006"><a xlink:href="classAP__HAL_1_1Semaphore.html#a266e91db5eecb64d8b934d09f5e972cf" target="_top" xlink:title=" ">
<polygon fill="white" stroke="#666666" points="672.5,-78 550.5,-78 550.5,-48 672.5,-48 672.5,-78"/>
<text text-anchor="start" x="558.5" y="-66" font-family="Helvetica,sans-Serif" font-size="10.00">AP_HAL::Semaphore::</text>
<text text-anchor="middle" x="611.5" y="-55" font-family="Helvetica,sans-Serif" font-size="10.00">take_nonblocking</text>
</a>
</g>
</g>
<!-- Node3&#45;&gt;Node6 -->
<g id="edge5_Node000003_Node000006" class="edge">
<title>Node3&#45;&gt;Node6</title>
<g id="a_edge5_Node000003_Node000006"><a xlink:title=" ">
<path fill="none" stroke="#63b8ff" d="M504.17,-75.58C516.03,-74.18 528.33,-72.72 540.17,-71.32"/>
<polygon fill="#63b8ff" stroke="#63b8ff" points="540.92,-74.76 550.44,-70.11 540.09,-67.81 540.92,-74.76"/>
</a>
</g>
</g>
<!-- Node7 -->
<g id="Node000007" class="node">
<title>Node7</title>
<g id="a_Node000007"><a xlink:href="classAP__HAL_1_1I2CDevice.html#a2e581ddc9b02eb73ad2fdf488fe8dc86" target="_top" xlink:title=" ">
<polygon fill="white" stroke="#666666" points="669.5,-30 553.5,-30 553.5,0 669.5,0 669.5,-30"/>
<text text-anchor="start" x="561.5" y="-18" font-family="Helvetica,sans-Serif" font-size="10.00">AP_HAL::I2CDevice::</text>
<text text-anchor="middle" x="611.5" y="-7" font-family="Helvetica,sans-Serif" font-size="10.00">transfer</text>
</a>
</g>
</g>
<!-- Node3&#45;&gt;Node7 -->
<g id="edge6_Node000003_Node000007" class="edge">
<title>Node3&#45;&gt;Node7</title>
<g id="a_edge6_Node000003_Node000007"><a xlink:title=" ">
<path fill="none" stroke="#63b8ff" d="M466.97,-69C487.88,-59.94 515.32,-48.38 540,-39 544.86,-37.15 549.93,-35.29 555.03,-33.47"/>
<polygon fill="#63b8ff" stroke="#63b8ff" points="556.55,-36.65 564.82,-30.03 554.23,-30.05 556.55,-36.65"/>
</a>
</g>
</g>
</g>
</svg>
