<?xml version="1.0" encoding="UTF-8" standalone="no"?>
<!DOCTYPE svg PUBLIC "-//W3C//DTD SVG 1.1//EN"
 "http://www.w3.org/Graphics/SVG/1.1/DTD/svg11.dtd">
<!-- Generated by graphviz version 2.43.0 (0)
 -->
<!-- Title: AC_AutoTune_Heli::updating_max_gains_all Pages: 1 -->
<svg width="1004pt" height="272pt"
 viewBox="0.00 0.00 1004.00 271.50" xmlns="http://www.w3.org/2000/svg" xmlns:xlink="http://www.w3.org/1999/xlink">
<g id="graph0" class="graph" transform="scale(1 1) rotate(0) translate(4 267.5)">
<title>AC_AutoTune_Heli::updating_max_gains_all</title>
<!-- Node1 -->
<g id="Node000001" class="node">
<title>Node1</title>
<g id="a_Node000001"><a xlink:title=" ">
<polygon fill="#999999" stroke="#666666" points="154,-198 0,-198 0,-168 154,-168 154,-198"/>
<text text-anchor="start" x="8" y="-186" font-family="Helvetica,sans-Serif" font-size="10.00">AC_AutoTune_Heli::updating</text>
<text text-anchor="middle" x="77" y="-175" font-family="Helvetica,sans-Serif" font-size="10.00">_max_gains_all</text>
</a>
</g>
</g>
<!-- Node2 -->
<g id="Node000002" class="node">
<title>Node2</title>
<g id="a_Node000002"><a xlink:href="AP__Math_8h.html#a2a12cce483e9b870da70d30406d82c60" target="_top" xlink:title=" ">
<polygon fill="white" stroke="#666666" points="473.5,-245.5 422.5,-245.5 422.5,-226.5 473.5,-226.5 473.5,-245.5"/>
<text text-anchor="middle" x="448" y="-233.5" font-family="Helvetica,sans-Serif" font-size="10.00">is_zero</text>
</a>
</g>
</g>
<!-- Node1&#45;&gt;Node2 -->
<g id="edge1_Node000001_Node000002" class="edge">
<title>Node1&#45;&gt;Node2</title>
<g id="a_edge1_Node000001_Node000002"><a xlink:title=" ">
<path fill="none" stroke="#63b8ff" d="M154.01,-193.92C233.06,-205.27 353.32,-222.54 412.14,-230.99"/>
<polygon fill="#63b8ff" stroke="#63b8ff" points="411.98,-234.51 422.38,-232.46 412.98,-227.58 411.98,-234.51"/>
</a>
</g>
</g>
<!-- Node3 -->
<g id="Node000003" class="node">
<title>Node3</title>
<g id="a_Node000003"><a xlink:href="classAC__AutoTune__Heli.html#aa4f00efc813dcc08a7acc889441b5ba2" target="_top" xlink:title=" ">
<polygon fill="white" stroke="#666666" points="344,-177 190,-177 190,-147 344,-147 344,-177"/>
<text text-anchor="start" x="198" y="-165" font-family="Helvetica,sans-Serif" font-size="10.00">AC_AutoTune_Heli::updating</text>
<text text-anchor="middle" x="267" y="-154" font-family="Helvetica,sans-Serif" font-size="10.00">_max_gains</text>
</a>
</g>
</g>
<!-- Node1&#45;&gt;Node3 -->
<g id="edge3_Node000001_Node000003" class="edge">
<title>Node1&#45;&gt;Node3</title>
<g id="a_edge3_Node000001_Node000003"><a xlink:title=" ">
<path fill="none" stroke="#63b8ff" d="M154.2,-174.49C162.61,-173.55 171.22,-172.59 179.74,-171.63"/>
<polygon fill="#63b8ff" stroke="#63b8ff" points="180.15,-175.11 189.7,-170.52 179.37,-168.16 180.15,-175.11"/>
</a>
</g>
</g>
<!-- Node2&#45;&gt;Node2 -->
<g id="edge2_Node000002_Node000002" class="edge">
<title>Node2&#45;&gt;Node2</title>
<g id="a_edge2_Node000002_Node000002"><a xlink:title=" ">
<path fill="none" stroke="#63b8ff" d="M423.65,-245.58C411.8,-254.23 419.92,-263.5 448,-263.5 466.43,-263.5 476.26,-259.51 477.49,-254.32"/>
<polygon fill="#63b8ff" stroke="#63b8ff" points="480.44,-252.43 472.35,-245.58 474.41,-255.98 480.44,-252.43"/>
</a>
</g>
</g>
<!-- Node3&#45;&gt;Node2 -->
<g id="edge7_Node000003_Node000002" class="edge">
<title>Node3&#45;&gt;Node2</title>
<g id="a_edge7_Node000003_Node000002"><a xlink:title=" ">
<path fill="none" stroke="#63b8ff" d="M294.47,-177.14C316.75,-189.41 349.72,-206.5 380,-218 390.41,-221.95 402.04,-225.4 412.65,-228.19"/>
<polygon fill="#63b8ff" stroke="#63b8ff" points="411.88,-231.61 422.44,-230.66 413.6,-224.82 411.88,-231.61"/>
</a>
</g>
</g>
<!-- Node4 -->
<g id="Node000004" class="node">
<title>Node4</title>
<g id="a_Node000004"><a xlink:href="GCS__Common_8cpp.html#ab53f292b698f9a6a3f029dfdbd5a43de" target="_top" xlink:title=" ">
<polygon fill="white" stroke="#666666" points="464.5,-208.5 431.5,-208.5 431.5,-189.5 464.5,-189.5 464.5,-208.5"/>
<text text-anchor="middle" x="448" y="-196.5" font-family="Helvetica,sans-Serif" font-size="10.00">gcs</text>
</a>
</g>
</g>
<!-- Node3&#45;&gt;Node4 -->
<g id="edge4_Node000003_Node000004" class="edge">
<title>Node3&#45;&gt;Node4</title>
<g id="a_edge4_Node000003_Node000004"><a xlink:title=" ">
<path fill="none" stroke="#63b8ff" d="M340.81,-177.05C369.32,-182.94 400.19,-189.32 421.25,-193.68"/>
<polygon fill="#63b8ff" stroke="#63b8ff" points="420.81,-197.16 431.31,-195.76 422.23,-190.31 420.81,-197.16"/>
</a>
</g>
</g>
<!-- Node6 -->
<g id="Node000006" class="node">
<title>Node6</title>
<g id="a_Node000006"><a xlink:href="AP__Math_8cpp.html#a74db690fa0d764d7e0900a9c97f629b2" target="_top" xlink:title=" ">
<polygon fill="white" stroke="#666666" points="476.5,-171.5 419.5,-171.5 419.5,-152.5 476.5,-152.5 476.5,-171.5"/>
<text text-anchor="middle" x="448" y="-159.5" font-family="Helvetica,sans-Serif" font-size="10.00">is_equal</text>
</a>
</g>
</g>
<!-- Node3&#45;&gt;Node6 -->
<g id="edge6_Node000003_Node000006" class="edge">
<title>Node3&#45;&gt;Node6</title>
<g id="a_edge6_Node000003_Node000006"><a xlink:title=" ">
<path fill="none" stroke="#63b8ff" d="M344.17,-162C366.55,-162 390.06,-162 408.95,-162"/>
<polygon fill="#63b8ff" stroke="#63b8ff" points="409.21,-165.5 419.21,-162 409.21,-158.5 409.21,-165.5"/>
</a>
</g>
</g>
<!-- Node7 -->
<g id="Node000007" class="node">
<title>Node7</title>
<g id="a_Node000007"><a xlink:href="AP__Math_8cpp.html#ae2d4d03c107c3e6a127fb167e3908aa2" target="_top" xlink:title=" ">
<polygon fill="white" stroke="#666666" points="499.5,-134.5 396.5,-134.5 396.5,-115.5 499.5,-115.5 499.5,-134.5"/>
<text text-anchor="middle" x="448" y="-122.5" font-family="Helvetica,sans-Serif" font-size="10.00">linear_interpolate</text>
</a>
</g>
</g>
<!-- Node3&#45;&gt;Node7 -->
<g id="edge8_Node000003_Node000007" class="edge">
<title>Node3&#45;&gt;Node7</title>
<g id="a_edge8_Node000003_Node000007"><a xlink:title=" ">
<path fill="none" stroke="#63b8ff" d="M340.81,-146.95C357.48,-143.5 374.96,-139.89 390.81,-136.62"/>
<polygon fill="#63b8ff" stroke="#63b8ff" points="391.88,-139.97 400.96,-134.52 390.46,-133.11 391.88,-139.97"/>
</a>
</g>
</g>
<!-- Node9 -->
<g id="Node000009" class="node">
<title>Node9</title>
<g id="a_Node000009"><a xlink:href="classAC__AutoTune__Heli.html#ae42e6d198721a81bde8b8e2ec4f2c790" target="_top" xlink:title=" ">
<polygon fill="white" stroke="#666666" points="516,-97 380,-97 380,-67 516,-67 516,-97"/>
<text text-anchor="start" x="388" y="-85" font-family="Helvetica,sans-Serif" font-size="10.00">AC_AutoTune_Heli::reset</text>
<text text-anchor="middle" x="448" y="-74" font-family="Helvetica,sans-Serif" font-size="10.00">_sweep_variables</text>
</a>
</g>
</g>
<!-- Node3&#45;&gt;Node9 -->
<g id="edge10_Node000003_Node000009" class="edge">
<title>Node3&#45;&gt;Node9</title>
<g id="a_edge10_Node000003_Node000009"><a xlink:title=" ">
<path fill="none" stroke="#63b8ff" d="M296.64,-146.96C319.05,-135.42 351.15,-119.43 380,-107 384.79,-104.93 389.82,-102.87 394.87,-100.87"/>
<polygon fill="#63b8ff" stroke="#63b8ff" points="396.52,-103.99 404.57,-97.1 393.98,-97.46 396.52,-103.99"/>
</a>
</g>
</g>
<!-- Node10 -->
<g id="Node000010" class="node">
<title>Node10</title>
<g id="a_Node000010"><a xlink:href="classGCS.html#a2f099d18721b0874af08fde3f6aae6b6" target="_top" xlink:title=" ">
<polygon fill="white" stroke="#666666" points="493.5,-48.5 402.5,-48.5 402.5,-29.5 493.5,-29.5 493.5,-48.5"/>
<text text-anchor="middle" x="448" y="-36.5" font-family="Helvetica,sans-Serif" font-size="10.00">GCS::send_text</text>
</a>
</g>
</g>
<!-- Node3&#45;&gt;Node10 -->
<g id="edge11_Node000003_Node000010" class="edge">
<title>Node3&#45;&gt;Node10</title>
<g id="a_edge11_Node000003_Node000010"><a xlink:title=" ">
<path fill="none" stroke="#63b8ff" d="M280.11,-146.89C299.06,-124.25 337.91,-81.67 380,-58 383.96,-55.77 388.2,-53.79 392.56,-52.03"/>
<polygon fill="#63b8ff" stroke="#63b8ff" points="394.01,-55.22 402.2,-48.51 391.61,-48.65 394.01,-55.22"/>
</a>
</g>
</g>
<!-- Node5 -->
<g id="Node000005" class="node">
<title>Node5</title>
<g id="a_Node000005"><a xlink:href="classGCS.html#a06b86c7032c4a91eaa2d31c06795570c" target="_top" xlink:title=" ">
<polygon fill="white" stroke="#666666" points="661,-208.5 552,-208.5 552,-189.5 661,-189.5 661,-208.5"/>
<text text-anchor="middle" x="606.5" y="-196.5" font-family="Helvetica,sans-Serif" font-size="10.00">GCS::get_singleton</text>
</a>
</g>
</g>
<!-- Node4&#45;&gt;Node5 -->
<g id="edge5_Node000004_Node000005" class="edge">
<title>Node4&#45;&gt;Node5</title>
<g id="a_edge5_Node000004_Node000005"><a xlink:title=" ">
<path fill="none" stroke="#63b8ff" d="M464.58,-199C482.55,-199 513.25,-199 541.42,-199"/>
<polygon fill="#63b8ff" stroke="#63b8ff" points="541.65,-202.5 551.65,-199 541.65,-195.5 541.65,-202.5"/>
</a>
</g>
</g>
<!-- Node8 -->
<g id="Node000008" class="node">
<title>Node8</title>
<g id="a_Node000008"><a xlink:href="AP__Math_8cpp.html#a61943c08873529b6aeb6e9cc14dd9152" target="_top" xlink:title=" ">
<polygon fill="white" stroke="#666666" points="641,-134.5 572,-134.5 572,-115.5 641,-115.5 641,-134.5"/>
<text text-anchor="middle" x="606.5" y="-122.5" font-family="Helvetica,sans-Serif" font-size="10.00">swap_float</text>
</a>
</g>
</g>
<!-- Node7&#45;&gt;Node8 -->
<g id="edge9_Node000007_Node000008" class="edge">
<title>Node7&#45;&gt;Node8</title>
<g id="a_edge9_Node000007_Node000008"><a xlink:title=" ">
<path fill="none" stroke="#63b8ff" d="M499.81,-125C519.69,-125 542.28,-125 561.45,-125"/>
<polygon fill="#63b8ff" stroke="#63b8ff" points="561.72,-128.5 571.72,-125 561.72,-121.5 561.72,-128.5"/>
</a>
</g>
</g>
<!-- Node11 -->
<g id="Node000011" class="node">
<title>Node11</title>
<g id="a_Node000011"><a xlink:href="classGCS.html#a96bea5f4a8234593db645ec80adb36f4" target="_top" xlink:title=" ">
<polygon fill="white" stroke="#666666" points="655,-48.5 558,-48.5 558,-29.5 655,-29.5 655,-48.5"/>
<text text-anchor="middle" x="606.5" y="-36.5" font-family="Helvetica,sans-Serif" font-size="10.00">GCS::send_textv</text>
</a>
</g>
</g>
<!-- Node10&#45;&gt;Node11 -->
<g id="edge12_Node000010_Node000011" class="edge">
<title>Node10&#45;&gt;Node11</title>
<g id="a_edge12_Node000010_Node000011"><a xlink:title=" ">
<path fill="none" stroke="#63b8ff" d="M493.85,-39C510.61,-39 529.89,-39 547.66,-39"/>
<polygon fill="#63b8ff" stroke="#63b8ff" points="547.92,-42.5 557.92,-39 547.92,-35.5 547.92,-42.5"/>
</a>
</g>
</g>
<!-- Node11&#45;&gt;Node11 -->
<g id="edge13_Node000011_Node000011" class="edge">
<title>Node11&#45;&gt;Node11</title>
<g id="a_edge13_Node000011_Node000011"><a xlink:title=" ">
<path fill="none" stroke="#63b8ff" d="M583.38,-48.58C572.13,-57.23 579.84,-66.5 606.5,-66.5 624,-66.5 633.33,-62.51 634.5,-57.32"/>
<polygon fill="#63b8ff" stroke="#63b8ff" points="637.55,-55.61 629.62,-48.58 631.44,-59.02 637.55,-55.61"/>
</a>
</g>
</g>
<!-- Node12 -->
<g id="Node000012" class="node">
<title>Node12</title>
<g id="a_Node000012"><a xlink:href="classGCS.html#a1e951b08ebd46ba40f2c8d6c9ced9c49" target="_top" xlink:title=" ">
<polygon fill="white" stroke="#666666" points="818,-54 697,-54 697,-24 818,-24 818,-54"/>
<text text-anchor="start" x="705" y="-42" font-family="Helvetica,sans-Serif" font-size="10.00">GCS::statustext_send</text>
<text text-anchor="middle" x="757.5" y="-31" font-family="Helvetica,sans-Serif" font-size="10.00">_channel_mask</text>
</a>
</g>
</g>
<!-- Node11&#45;&gt;Node12 -->
<g id="edge14_Node000011_Node000012" class="edge">
<title>Node11&#45;&gt;Node12</title>
<g id="a_edge14_Node000011_Node000012"><a xlink:title=" ">
<path fill="none" stroke="#63b8ff" d="M655.05,-39C665.12,-39 675.95,-39 686.65,-39"/>
<polygon fill="#63b8ff" stroke="#63b8ff" points="686.84,-42.5 696.84,-39 686.84,-35.5 686.84,-42.5"/>
</a>
</g>
</g>
<!-- Node13 -->
<g id="Node000013" class="node">
<title>Node13</title>
<g id="a_Node000013"><a xlink:href="classGCS__MAVLINK.html#acad5b4ab40c7b7486392f07193ce4190" target="_top" xlink:title=" ">
<polygon fill="white" stroke="#666666" points="986,-78 864,-78 864,-48 986,-48 986,-78"/>
<text text-anchor="start" x="872" y="-66" font-family="Helvetica,sans-Serif" font-size="10.00">GCS_MAVLINK::active</text>
<text text-anchor="middle" x="925" y="-55" font-family="Helvetica,sans-Serif" font-size="10.00">_channel_mask</text>
</a>
</g>
</g>
<!-- Node12&#45;&gt;Node13 -->
<g id="edge15_Node000012_Node000013" class="edge">
<title>Node12&#45;&gt;Node13</title>
<g id="a_edge15_Node000012_Node000013"><a xlink:title=" ">
<path fill="none" stroke="#63b8ff" d="M818.25,-47.66C829.71,-49.33 841.8,-51.08 853.56,-52.79"/>
<polygon fill="#63b8ff" stroke="#63b8ff" points="853.38,-56.3 863.78,-54.27 854.39,-49.37 853.38,-56.3"/>
</a>
</g>
</g>
<!-- Node14 -->
<g id="Node000014" class="node">
<title>Node14</title>
<g id="a_Node000014"><a xlink:href="classGCS__MAVLINK.html#af948c4a65f98679941885e2c7cc12ac5" target="_top" xlink:title=" ">
<polygon fill="white" stroke="#666666" points="996,-30 854,-30 854,0 996,0 996,-30"/>
<text text-anchor="start" x="862" y="-18" font-family="Helvetica,sans-Serif" font-size="10.00">GCS_MAVLINK::streaming</text>
<text text-anchor="middle" x="925" y="-7" font-family="Helvetica,sans-Serif" font-size="10.00">_channel_mask</text>
</a>
</g>
</g>
<!-- Node12&#45;&gt;Node14 -->
<g id="edge16_Node000012_Node000014" class="edge">
<title>Node12&#45;&gt;Node14</title>
<g id="a_edge16_Node000012_Node000014"><a xlink:title=" ">
<path fill="none" stroke="#63b8ff" d="M818.25,-30.34C826.57,-29.13 835.22,-27.87 843.84,-26.62"/>
<polygon fill="#63b8ff" stroke="#63b8ff" points="844.52,-30.06 853.92,-25.16 843.52,-23.13 844.52,-30.06"/>
</a>
</g>
</g>
</g>
</svg>
