<?xml version="1.0" encoding="UTF-8" standalone="no"?>
<!DOCTYPE svg PUBLIC "-//W3C//DTD SVG 1.1//EN"
 "http://www.w3.org/Graphics/SVG/1.1/DTD/svg11.dtd">
<!-- Generated by graphviz version 2.43.0 (0)
 -->
<!-- Title: AP_AdvancedFailsafe::gcs_terminate Pages: 1 -->
<svg width="782pt" height="131pt"
 viewBox="0.00 0.00 782.00 130.50" xmlns="http://www.w3.org/2000/svg" xmlns:xlink="http://www.w3.org/1999/xlink">
<g id="graph0" class="graph" transform="scale(1 1) rotate(0) translate(4 126.5)">
<title>AP_AdvancedFailsafe::gcs_terminate</title>
<!-- Node1 -->
<g id="Node000001" class="node">
<title>Node1</title>
<g id="a_Node000001"><a xlink:title=" ">
<polygon fill="#999999" stroke="#666666" points="120,-73 0,-73 0,-43 120,-43 120,-73"/>
<text text-anchor="start" x="8" y="-61" font-family="Helvetica,sans-Serif" font-size="10.00">AP_AdvancedFailsafe</text>
<text text-anchor="middle" x="60" y="-50" font-family="Helvetica,sans-Serif" font-size="10.00">::gcs_terminate</text>
</a>
</g>
</g>
<!-- Node2 -->
<g id="Node000002" class="node">
<title>Node2</title>
<g id="a_Node000002"><a xlink:href="GCS__Common_8cpp.html#ab53f292b698f9a6a3f029dfdbd5a43de" target="_top" xlink:title=" ">
<polygon fill="white" stroke="#666666" points="236,-113.5 203,-113.5 203,-94.5 236,-94.5 236,-113.5"/>
<text text-anchor="middle" x="219.5" y="-101.5" font-family="Helvetica,sans-Serif" font-size="10.00">gcs</text>
</a>
</g>
</g>
<!-- Node1&#45;&gt;Node2 -->
<g id="edge1_Node000001_Node000002" class="edge">
<title>Node1&#45;&gt;Node2</title>
<g id="a_edge1_Node000001_Node000002"><a xlink:title=" ">
<path fill="none" stroke="#63b8ff" d="M112.57,-73.06C139.56,-80.94 171.39,-90.24 193.07,-96.57"/>
<polygon fill="#63b8ff" stroke="#63b8ff" points="192.25,-99.98 202.83,-99.42 194.21,-93.26 192.25,-99.98"/>
</a>
</g>
</g>
<!-- Node4 -->
<g id="Node000004" class="node">
<title>Node4</title>
<g id="a_Node000004"><a xlink:href="classGCS.html#a2f099d18721b0874af08fde3f6aae6b6" target="_top" xlink:title=" ">
<polygon fill="white" stroke="#666666" points="265,-67.5 174,-67.5 174,-48.5 265,-48.5 265,-67.5"/>
<text text-anchor="middle" x="219.5" y="-55.5" font-family="Helvetica,sans-Serif" font-size="10.00">GCS::send_text</text>
</a>
</g>
</g>
<!-- Node1&#45;&gt;Node4 -->
<g id="edge3_Node000001_Node000004" class="edge">
<title>Node1&#45;&gt;Node4</title>
<g id="a_edge3_Node000001_Node000004"><a xlink:title=" ">
<path fill="none" stroke="#63b8ff" d="M120.1,-58C134.42,-58 149.68,-58 163.8,-58"/>
<polygon fill="#63b8ff" stroke="#63b8ff" points="163.84,-61.5 173.84,-58 163.84,-54.5 163.84,-61.5"/>
</a>
</g>
</g>
<!-- Node9 -->
<g id="Node000009" class="node">
<title>Node9</title>
<g id="a_Node000009"><a xlink:href="classAP__AdvancedFailsafe.html#a900ff082f11cf536095896eab27ad54c" target="_top" xlink:title=" ">
<polygon fill="white" stroke="#666666" points="283,-30 156,-30 156,0 283,0 283,-30"/>
<text text-anchor="start" x="164" y="-18" font-family="Helvetica,sans-Serif" font-size="10.00">AP_AdvancedFailsafe</text>
<text text-anchor="middle" x="219.5" y="-7" font-family="Helvetica,sans-Serif" font-size="10.00">::should_crash_vehicle</text>
</a>
</g>
</g>
<!-- Node1&#45;&gt;Node9 -->
<g id="edge9_Node000001_Node000009" class="edge">
<title>Node1&#45;&gt;Node9</title>
<g id="a_edge9_Node000001_Node000009"><a xlink:title=" ">
<path fill="none" stroke="#63b8ff" d="M116.09,-42.96C128.2,-39.65 141.13,-36.12 153.58,-32.72"/>
<polygon fill="#63b8ff" stroke="#63b8ff" points="154.72,-36.04 163.45,-30.03 152.88,-29.29 154.72,-36.04"/>
</a>
</g>
</g>
<!-- Node3 -->
<g id="Node000003" class="node">
<title>Node3</title>
<g id="a_Node000003"><a xlink:href="classGCS.html#a06b86c7032c4a91eaa2d31c06795570c" target="_top" xlink:title=" ">
<polygon fill="white" stroke="#666666" points="433.5,-122.5 324.5,-122.5 324.5,-103.5 433.5,-103.5 433.5,-122.5"/>
<text text-anchor="middle" x="379" y="-110.5" font-family="Helvetica,sans-Serif" font-size="10.00">GCS::get_singleton</text>
</a>
</g>
</g>
<!-- Node2&#45;&gt;Node3 -->
<g id="edge2_Node000002_Node000003" class="edge">
<title>Node2&#45;&gt;Node3</title>
<g id="a_edge2_Node000002_Node000003"><a xlink:title=" ">
<path fill="none" stroke="#63b8ff" d="M236.18,-104.9C254.33,-105.93 285.4,-107.71 313.83,-109.33"/>
<polygon fill="#63b8ff" stroke="#63b8ff" points="313.98,-112.85 324.16,-109.92 314.38,-105.86 313.98,-112.85"/>
</a>
</g>
</g>
<!-- Node5 -->
<g id="Node000005" class="node">
<title>Node5</title>
<g id="a_Node000005"><a xlink:href="classGCS.html#a96bea5f4a8234593db645ec80adb36f4" target="_top" xlink:title=" ">
<polygon fill="white" stroke="#666666" points="427.5,-67.5 330.5,-67.5 330.5,-48.5 427.5,-48.5 427.5,-67.5"/>
<text text-anchor="middle" x="379" y="-55.5" font-family="Helvetica,sans-Serif" font-size="10.00">GCS::send_textv</text>
</a>
</g>
</g>
<!-- Node4&#45;&gt;Node5 -->
<g id="edge4_Node000004_Node000005" class="edge">
<title>Node4&#45;&gt;Node5</title>
<g id="a_edge4_Node000004_Node000005"><a xlink:title=" ">
<path fill="none" stroke="#63b8ff" d="M265.21,-58C282.32,-58 302.08,-58 320.24,-58"/>
<polygon fill="#63b8ff" stroke="#63b8ff" points="320.42,-61.5 330.42,-58 320.42,-54.5 320.42,-61.5"/>
</a>
</g>
</g>
<!-- Node5&#45;&gt;Node5 -->
<g id="edge5_Node000005_Node000005" class="edge">
<title>Node5&#45;&gt;Node5</title>
<g id="a_edge5_Node000005_Node000005"><a xlink:title=" ">
<path fill="none" stroke="#63b8ff" d="M354.96,-67.58C343.26,-76.23 351.27,-85.5 379,-85.5 397.2,-85.5 406.9,-81.51 408.12,-76.32"/>
<polygon fill="#63b8ff" stroke="#63b8ff" points="411.09,-74.47 403.04,-67.58 405.04,-77.99 411.09,-74.47"/>
</a>
</g>
</g>
<!-- Node6 -->
<g id="Node000006" class="node">
<title>Node6</title>
<g id="a_Node000006"><a xlink:href="classGCS.html#a1e951b08ebd46ba40f2c8d6c9ced9c49" target="_top" xlink:title=" ">
<polygon fill="white" stroke="#666666" points="596,-73 475,-73 475,-43 596,-43 596,-73"/>
<text text-anchor="start" x="483" y="-61" font-family="Helvetica,sans-Serif" font-size="10.00">GCS::statustext_send</text>
<text text-anchor="middle" x="535.5" y="-50" font-family="Helvetica,sans-Serif" font-size="10.00">_channel_mask</text>
</a>
</g>
</g>
<!-- Node5&#45;&gt;Node6 -->
<g id="edge6_Node000005_Node000006" class="edge">
<title>Node5&#45;&gt;Node6</title>
<g id="a_edge6_Node000005_Node000006"><a xlink:title=" ">
<path fill="none" stroke="#63b8ff" d="M427.62,-58C439.25,-58 451.95,-58 464.39,-58"/>
<polygon fill="#63b8ff" stroke="#63b8ff" points="464.76,-61.5 474.76,-58 464.76,-54.5 464.76,-61.5"/>
</a>
</g>
</g>
<!-- Node7 -->
<g id="Node000007" class="node">
<title>Node7</title>
<g id="a_Node000007"><a xlink:href="classGCS__MAVLINK.html#acad5b4ab40c7b7486392f07193ce4190" target="_top" xlink:title=" ">
<polygon fill="white" stroke="#666666" points="764,-97 642,-97 642,-67 764,-67 764,-97"/>
<text text-anchor="start" x="650" y="-85" font-family="Helvetica,sans-Serif" font-size="10.00">GCS_MAVLINK::active</text>
<text text-anchor="middle" x="703" y="-74" font-family="Helvetica,sans-Serif" font-size="10.00">_channel_mask</text>
</a>
</g>
</g>
<!-- Node6&#45;&gt;Node7 -->
<g id="edge7_Node000006_Node000007" class="edge">
<title>Node6&#45;&gt;Node7</title>
<g id="a_edge7_Node000006_Node000007"><a xlink:title=" ">
<path fill="none" stroke="#63b8ff" d="M596.25,-66.66C607.71,-68.33 619.8,-70.08 631.56,-71.79"/>
<polygon fill="#63b8ff" stroke="#63b8ff" points="631.38,-75.3 641.78,-73.27 632.39,-68.37 631.38,-75.3"/>
</a>
</g>
</g>
<!-- Node8 -->
<g id="Node000008" class="node">
<title>Node8</title>
<g id="a_Node000008"><a xlink:href="classGCS__MAVLINK.html#af948c4a65f98679941885e2c7cc12ac5" target="_top" xlink:title=" ">
<polygon fill="white" stroke="#666666" points="774,-49 632,-49 632,-19 774,-19 774,-49"/>
<text text-anchor="start" x="640" y="-37" font-family="Helvetica,sans-Serif" font-size="10.00">GCS_MAVLINK::streaming</text>
<text text-anchor="middle" x="703" y="-26" font-family="Helvetica,sans-Serif" font-size="10.00">_channel_mask</text>
</a>
</g>
</g>
<!-- Node6&#45;&gt;Node8 -->
<g id="edge8_Node000006_Node000008" class="edge">
<title>Node6&#45;&gt;Node8</title>
<g id="a_edge8_Node000006_Node000008"><a xlink:title=" ">
<path fill="none" stroke="#63b8ff" d="M596.25,-49.34C604.57,-48.13 613.22,-46.87 621.84,-45.62"/>
<polygon fill="#63b8ff" stroke="#63b8ff" points="622.52,-49.06 631.92,-44.16 621.52,-42.13 622.52,-49.06"/>
</a>
</g>
</g>
<!-- Node10 -->
<g id="Node000010" class="node">
<title>Node10</title>
<g id="a_Node000010"><a xlink:href="classAP__AdvancedFailsafe.html#ac6c3bcc8c04239066e7b3250bc0e5764" target="_top" xlink:title=" ">
<polygon fill="white" stroke="#666666" points="439,-30 319,-30 319,0 439,0 439,-30"/>
<text text-anchor="start" x="327" y="-18" font-family="Helvetica,sans-Serif" font-size="10.00">AP_AdvancedFailsafe</text>
<text text-anchor="middle" x="379" y="-7" font-family="Helvetica,sans-Serif" font-size="10.00">::setup_IO_failsafe</text>
</a>
</g>
</g>
<!-- Node9&#45;&gt;Node10 -->
<g id="edge10_Node000009_Node000010" class="edge">
<title>Node9&#45;&gt;Node10</title>
<g id="a_edge10_Node000009_Node000010"><a xlink:title=" ">
<path fill="none" stroke="#63b8ff" d="M283.2,-15C291.56,-15 300.16,-15 308.62,-15"/>
<polygon fill="#63b8ff" stroke="#63b8ff" points="308.84,-18.5 318.84,-15 308.84,-11.5 308.84,-18.5"/>
</a>
</g>
</g>
</g>
</svg>
