<?xml version="1.0" encoding="UTF-8" standalone="no"?>
<!DOCTYPE svg PUBLIC "-//W3C//DTD SVG 1.1//EN"
 "http://www.w3.org/Graphics/SVG/1.1/DTD/svg11.dtd">
<!-- Generated by graphviz version 2.43.0 (0)
 -->
<!-- Title: AC_PosControl::pre_arm_checks Pages: 1 -->
<svg width="438pt" height="257pt"
 viewBox="0.00 0.00 438.00 256.50" xmlns="http://www.w3.org/2000/svg" xmlns:xlink="http://www.w3.org/1999/xlink">

<svg id="main" version="1.1" xmlns="http://www.w3.org/2000/svg" xmlns:xlink="http://www.w3.org/1999/xlink" xml:space="preserve" onload="init(evt)">
<style type="text/css"><![CDATA[
.node, .edge {opacity: 0.7;}
.node.selected, .edge.selected {opacity: 1;}
.edge:hover path { stroke: red; }
.edge:hover polygon { stroke: red; fill: red; }
]]></style>
<script type="application/ecmascript" xlink:href="svg.min.js"/>
<svg id="graph" class="graph">
<g id="graph0" class="graph" transform="scale(1 1) rotate(0) translate(4 252.5)">
<title>AC_PosControl::pre_arm_checks</title>
<!-- Node1 -->
<g id="Node000001" class="node">
<title>Node1</title>
<g id="a_Node000001"><a xlink:title=" ">
<polygon fill="#999999" stroke="#666666" points="110,-128.5 0,-128.5 0,-98.5 110,-98.5 110,-128.5"/>
<text text-anchor="start" x="8" y="-116.5" font-family="Helvetica,sans-Serif" font-size="10.00">AC_PosControl::pre</text>
<text text-anchor="middle" x="55" y="-105.5" font-family="Helvetica,sans-Serif" font-size="10.00">_arm_checks</text>
</a>
</g>
</g>
<!-- Node2 -->
<g id="Node000002" class="node">
<title>Node2</title>
<g id="a_Node000002"><a xlink:href="classAC__PosControl.html#a12e88f04873dc3a2ae8a775cd5cae795" target="_top" xlink:title=" ">
<polygon fill="white" stroke="#666666" points="261.5,-248.5 151.5,-248.5 151.5,-218.5 261.5,-218.5 261.5,-248.5"/>
<text text-anchor="start" x="159.5" y="-236.5" font-family="Helvetica,sans-Serif" font-size="10.00">AC_PosControl::get</text>
<text text-anchor="middle" x="206.5" y="-225.5" font-family="Helvetica,sans-Serif" font-size="10.00">_accel_z_pid</text>
</a>
</g>
</g>
<!-- Node1&#45;&gt;Node2 -->
<g id="edge1_Node000001_Node000002" class="edge">
<title>Node1&#45;&gt;Node2</title>
<g id="a_edge1_Node000001_Node000002"><a xlink:title=" ">
<path fill="none" stroke="#63b8ff" d="M66.89,-128.76C82.39,-149.51 112.64,-186.65 146,-209.5 148.13,-210.96 150.36,-212.35 152.66,-213.68"/>
<polygon fill="#63b8ff" stroke="#63b8ff" points="151.3,-216.91 161.78,-218.45 154.55,-210.71 151.3,-216.91"/>
</a>
</g>
</g>
<!-- Node3 -->
<g id="Node000003" class="node">
<title>Node3</title>
<g id="a_Node000003"><a xlink:href="classAC__PosControl.html#a5ccfcc25c5288d43f93f3c46b5cb419f" target="_top" xlink:title="Other.">
<polygon fill="white" stroke="#666666" points="261.5,-200.5 151.5,-200.5 151.5,-170.5 261.5,-170.5 261.5,-200.5"/>
<text text-anchor="start" x="159.5" y="-188.5" font-family="Helvetica,sans-Serif" font-size="10.00">AC_PosControl::get</text>
<text text-anchor="middle" x="206.5" y="-177.5" font-family="Helvetica,sans-Serif" font-size="10.00">_pos_xy_p</text>
</a>
</g>
</g>
<!-- Node1&#45;&gt;Node3 -->
<g id="edge2_Node000001_Node000003" class="edge">
<title>Node1&#45;&gt;Node3</title>
<g id="a_edge2_Node000001_Node000003"><a xlink:title=" ">
<path fill="none" stroke="#63b8ff" d="M82.4,-128.54C100.14,-138.4 124.18,-151.31 146,-161.5 149.59,-163.17 153.33,-164.85 157.1,-166.49"/>
<polygon fill="#63b8ff" stroke="#63b8ff" points="155.94,-169.79 166.52,-170.47 158.67,-163.35 155.94,-169.79"/>
</a>
</g>
</g>
<!-- Node4 -->
<g id="Node000004" class="node">
<title>Node4</title>
<g id="a_Node000004"><a xlink:href="classAC__PosControl.html#aeba8eb0da8e3e311ab1ac1ab34aa0084" target="_top" xlink:title=" ">
<polygon fill="white" stroke="#666666" points="261.5,-152.5 151.5,-152.5 151.5,-122.5 261.5,-122.5 261.5,-152.5"/>
<text text-anchor="start" x="159.5" y="-140.5" font-family="Helvetica,sans-Serif" font-size="10.00">AC_PosControl::get</text>
<text text-anchor="middle" x="206.5" y="-129.5" font-family="Helvetica,sans-Serif" font-size="10.00">_pos_z_p</text>
</a>
</g>
</g>
<!-- Node1&#45;&gt;Node4 -->
<g id="edge3_Node000001_Node000004" class="edge">
<title>Node1&#45;&gt;Node4</title>
<g id="a_edge3_Node000001_Node000004"><a xlink:title=" ">
<path fill="none" stroke="#63b8ff" d="M110.4,-122.23C120.41,-123.84 130.96,-125.53 141.24,-127.18"/>
<polygon fill="#63b8ff" stroke="#63b8ff" points="140.97,-130.68 151.39,-128.81 142.08,-123.77 140.97,-130.68"/>
</a>
</g>
</g>
<!-- Node5 -->
<g id="Node000005" class="node">
<title>Node5</title>
<g id="a_Node000005"><a xlink:href="classAC__PosControl.html#ab2d03e5fd7280983db3942cb1cfac9a1" target="_top" xlink:title=" ">
<polygon fill="white" stroke="#666666" points="261.5,-104.5 151.5,-104.5 151.5,-74.5 261.5,-74.5 261.5,-104.5"/>
<text text-anchor="start" x="159.5" y="-92.5" font-family="Helvetica,sans-Serif" font-size="10.00">AC_PosControl::get</text>
<text text-anchor="middle" x="206.5" y="-81.5" font-family="Helvetica,sans-Serif" font-size="10.00">_vel_z_pid</text>
</a>
</g>
</g>
<!-- Node1&#45;&gt;Node5 -->
<g id="edge4_Node000001_Node000005" class="edge">
<title>Node1&#45;&gt;Node5</title>
<g id="a_edge4_Node000001_Node000005"><a xlink:title=" ">
<path fill="none" stroke="#63b8ff" d="M110.4,-104.77C120.41,-103.16 130.96,-101.47 141.24,-99.82"/>
<polygon fill="#63b8ff" stroke="#63b8ff" points="142.08,-103.23 151.39,-98.19 140.97,-96.32 142.08,-103.23"/>
</a>
</g>
</g>
<!-- Node6 -->
<g id="Node000006" class="node">
<title>Node6</title>
<g id="a_Node000006"><a xlink:href="AP__Math_8h.html#a4e3ae698e8f99cec214348ad233e3c41" target="_top" xlink:title=" ">
<polygon fill="white" stroke="#666666" points="241,-56 172,-56 172,-37 241,-37 241,-56"/>
<text text-anchor="middle" x="206.5" y="-44" font-family="Helvetica,sans-Serif" font-size="10.00">is_positive</text>
</a>
</g>
</g>
<!-- Node1&#45;&gt;Node6 -->
<g id="edge5_Node000001_Node000006" class="edge">
<title>Node1&#45;&gt;Node6</title>
<g id="a_edge5_Node000001_Node000006"><a xlink:title=" ">
<path fill="none" stroke="#63b8ff" d="M81.39,-98.37C99.09,-88.21 123.49,-75.01 146,-65.5 151.18,-63.31 156.71,-61.23 162.22,-59.3"/>
<polygon fill="#63b8ff" stroke="#63b8ff" points="163.7,-62.5 172.07,-56.01 161.47,-55.86 163.7,-62.5"/>
</a>
</g>
</g>
<!-- Node7 -->
<g id="Node000007" class="node">
<title>Node7</title>
<g id="a_Node000007"><a xlink:href="classAP__HAL_1_1Util.html#afaedff8102d9ae2fbc398d2099e30cf6" target="_top" xlink:title=" ">
<polygon fill="white" stroke="#666666" points="267,-19 146,-19 146,0 267,0 267,-19"/>
<text text-anchor="middle" x="206.5" y="-7" font-family="Helvetica,sans-Serif" font-size="10.00">AP_HAL::Util::snprintf</text>
</a>
</g>
</g>
<!-- Node1&#45;&gt;Node7 -->
<g id="edge6_Node000001_Node000007" class="edge">
<title>Node1&#45;&gt;Node7</title>
<g id="a_edge6_Node000001_Node000007"><a xlink:title=" ">
<path fill="none" stroke="#63b8ff" d="M68.15,-98.45C84.13,-79.57 113.98,-47.39 146,-28.5 149.62,-26.36 153.52,-24.43 157.52,-22.7"/>
<polygon fill="#63b8ff" stroke="#63b8ff" points="158.91,-25.92 166.95,-19.02 156.37,-19.4 158.91,-25.92"/>
</a>
</g>
</g>
<!-- Node8 -->
<g id="Node000008" class="node">
<title>Node8</title>
<g id="a_Node000008"><a xlink:href="classAP__HAL_1_1Util.html#ae161746d300c291b0f1536f05a9f0462" target="_top" xlink:title=" ">
<polygon fill="white" stroke="#666666" points="430,-19 303,-19 303,0 430,0 430,-19"/>
<text text-anchor="middle" x="366.5" y="-7" font-family="Helvetica,sans-Serif" font-size="10.00">AP_HAL::Util::vsnprintf</text>
</a>
</g>
</g>
<!-- Node7&#45;&gt;Node8 -->
<g id="edge7_Node000007_Node000008" class="edge">
<title>Node7&#45;&gt;Node8</title>
<g id="a_edge7_Node000007_Node000008"><a xlink:title=" ">
<path fill="none" stroke="#63b8ff" d="M267.23,-9.5C275.5,-9.5 284.06,-9.5 292.53,-9.5"/>
<polygon fill="#63b8ff" stroke="#63b8ff" points="292.79,-13 302.79,-9.5 292.79,-6 292.79,-13"/>
</a>
</g>
</g>
</g>
</svg>
</svg>

<style type='text/css'>
<![CDATA[
[data-mouse-over-selected='false'] { opacity: 0.7; }
[data-mouse-over-selected='true']  { opacity: 1.0; }
]]>
</style>
<script type="application/ecmascript"><![CDATA[
document.addEventListener('DOMContentLoaded', (event) => {
  highlightEdges();
  highlightAdjacentNodes();
});
]]></script>
</svg>
