<?xml version="1.0" encoding="UTF-8" standalone="no"?>
<!DOCTYPE svg PUBLIC "-//W3C//DTD SVG 1.1//EN"
 "http://www.w3.org/Graphics/SVG/1.1/DTD/svg11.dtd">
<!-- Generated by graphviz version 2.43.0 (0)
 -->
<!-- Title: AP_OSD_Screen::draw_speed Pages: 1 -->
<svg width="320pt" height="76pt"
 viewBox="0.00 0.00 320.00 75.50" xmlns="http://www.w3.org/2000/svg" xmlns:xlink="http://www.w3.org/1999/xlink">
<g id="graph0" class="graph" transform="scale(1 1) rotate(0) translate(4 71.5)">
<title>AP_OSD_Screen::draw_speed</title>
<!-- Node1 -->
<g id="Node000001" class="node">
<title>Node1</title>
<g id="a_Node000001"><a xlink:title=" ">
<polygon fill="#999999" stroke="#666666" points="312,-45.5 188,-45.5 188,-15.5 312,-15.5 312,-45.5"/>
<text text-anchor="start" x="196" y="-33.5" font-family="Helvetica,sans-Serif" font-size="10.00">AP_OSD_Screen::draw</text>
<text text-anchor="middle" x="250" y="-22.5" font-family="Helvetica,sans-Serif" font-size="10.00">_speed</text>
</a>
</g>
</g>
<!-- Node2 -->
<g id="Node000002" class="node">
<title>Node2</title>
<g id="a_Node000002"><a xlink:href="classAP__OSD__Screen.html#aa5c481469bce884ebb3573c69618f3d0" target="_top" xlink:title=" ">
<polygon fill="white" stroke="#666666" points="138,-67.5 14,-67.5 14,-37.5 138,-37.5 138,-67.5"/>
<text text-anchor="start" x="22" y="-55.5" font-family="Helvetica,sans-Serif" font-size="10.00">AP_OSD_Screen::draw</text>
<text text-anchor="middle" x="76" y="-44.5" font-family="Helvetica,sans-Serif" font-size="10.00">_gspeed</text>
</a>
</g>
</g>
<!-- Node1&#45;&gt;Node2 -->
<g id="edge1_Node000001_Node000002" class="edge">
<title>Node1&#45;&gt;Node2</title>
<g id="a_edge1_Node000001_Node000002"><a xlink:title=" ">
<path fill="none" stroke="#63b8ff" d="M177.91,-39.59C164.73,-41.28 151.07,-43.03 138.22,-44.67"/>
<polygon fill="#63b8ff" stroke="#63b8ff" points="178.4,-43.06 187.87,-38.32 177.51,-36.12 178.4,-43.06"/>
</a>
</g>
</g>
<!-- Node3 -->
<g id="Node000003" class="node">
<title>Node3</title>
<g id="a_Node000003"><a xlink:href="classAP__OSD__Screen.html#a4df989d28855c82766ac6a64928d667c" target="_top" xlink:title=" ">
<polygon fill="white" stroke="#666666" points="152,-19 0,-19 0,0 152,0 152,-19"/>
<text text-anchor="middle" x="76" y="-7" font-family="Helvetica,sans-Serif" font-size="10.00">AP_OSD_Screen::draw_wind</text>
</a>
</g>
</g>
<!-- Node1&#45;&gt;Node3 -->
<g id="edge2_Node000001_Node000003" class="edge">
<title>Node1&#45;&gt;Node3</title>
<g id="a_edge2_Node000001_Node000003"><a xlink:title=" ">
<path fill="none" stroke="#63b8ff" d="M177.68,-21.79C169.23,-20.76 160.58,-19.71 152.08,-18.67"/>
<polygon fill="#63b8ff" stroke="#63b8ff" points="177.52,-25.3 187.87,-23.04 178.37,-18.35 177.52,-25.3"/>
</a>
</g>
</g>
</g>
</svg>
