<?xml version="1.0" encoding="UTF-8" standalone="no"?>
<!DOCTYPE svg PUBLIC "-//W3C//DTD SVG 1.1//EN"
 "http://www.w3.org/Graphics/SVG/1.1/DTD/svg11.dtd">
<!-- Generated by graphviz version 2.43.0 (0)
 -->
<!-- Title: SRV_Channel::should_e_stop Pages: 1 -->
<svg width="1894pt" height="318pt"
 viewBox="0.00 0.00 1894.00 317.50" xmlns="http://www.w3.org/2000/svg" xmlns:xlink="http://www.w3.org/1999/xlink">
<g id="graph0" class="graph" transform="scale(1 1) rotate(0) translate(4 313.5)">
<title>SRV_Channel::should_e_stop</title>
<!-- Node1 -->
<g id="Node000001" class="node">
<title>Node1</title>
<g id="a_Node000001"><a xlink:title=" ">
<polygon fill="#999999" stroke="#666666" points="1886,-134 1767,-134 1767,-104 1886,-104 1886,-134"/>
<text text-anchor="start" x="1775" y="-122" font-family="Helvetica,sans-Serif" font-size="10.00">SRV_Channel::should</text>
<text text-anchor="middle" x="1826.5" y="-111" font-family="Helvetica,sans-Serif" font-size="10.00">_e_stop</text>
</a>
</g>
</g>
<!-- Node2 -->
<g id="Node000002" class="node">
<title>Node2</title>
<g id="a_Node000002"><a xlink:href="classSRV__Channel.html#acbdf338e2df696f78919e1a74fac48d2" target="_top" xlink:title=" ">
<polygon fill="white" stroke="#666666" points="1728,-150.5 1592,-150.5 1592,-131.5 1728,-131.5 1728,-150.5"/>
<text text-anchor="middle" x="1660" y="-138.5" font-family="Helvetica,sans-Serif" font-size="10.00">SRV_Channel::calc_pwm</text>
</a>
</g>
</g>
<!-- Node1&#45;&gt;Node2 -->
<g id="edge1_Node000001_Node000002" class="edge">
<title>Node1&#45;&gt;Node2</title>
<g id="a_edge1_Node000001_Node000002"><a xlink:title=" ">
<path fill="none" stroke="#63b8ff" d="M1756.52,-128.23C1747.14,-129.48 1737.53,-130.77 1728.18,-132.01"/>
<polygon fill="#63b8ff" stroke="#63b8ff" points="1757.13,-131.68 1766.58,-126.88 1756.2,-124.74 1757.13,-131.68"/>
</a>
</g>
</g>
<!-- Node13 -->
<g id="Node000013" class="node">
<title>Node13</title>
<g id="a_Node000013"><a xlink:href="classAP__Arming.html#a40b33f4a1ce1fbcf90b4acf400a60123" target="_top" xlink:title=" ">
<polygon fill="white" stroke="#666666" points="1731,-110.5 1589,-110.5 1589,-91.5 1731,-91.5 1731,-110.5"/>
<text text-anchor="middle" x="1660" y="-98.5" font-family="Helvetica,sans-Serif" font-size="10.00">AP_Arming::servo_checks</text>
</a>
</g>
</g>
<!-- Node1&#45;&gt;Node13 -->
<g id="edge12_Node000001_Node000013" class="edge">
<title>Node1&#45;&gt;Node13</title>
<g id="a_edge12_Node000001_Node000013"><a xlink:title=" ">
<path fill="none" stroke="#63b8ff" d="M1756.44,-111.44C1748.03,-110.52 1739.44,-109.58 1731.02,-108.66"/>
<polygon fill="#63b8ff" stroke="#63b8ff" points="1756.25,-114.94 1766.58,-112.55 1757.02,-107.99 1756.25,-114.94"/>
</a>
</g>
</g>
<!-- Node3 -->
<g id="Node000003" class="node">
<title>Node3</title>
<g id="a_Node000003"><a xlink:href="classSRV__Channels.html#ade6632e078eb500dfab7910b28513ade" target="_top" xlink:title=" ">
<polygon fill="white" stroke="#666666" points="1535.5,-218.5 1394.5,-218.5 1394.5,-199.5 1535.5,-199.5 1535.5,-218.5"/>
<text text-anchor="middle" x="1465" y="-206.5" font-family="Helvetica,sans-Serif" font-size="10.00">SRV_Channels::calc_pwm</text>
</a>
</g>
</g>
<!-- Node2&#45;&gt;Node3 -->
<g id="edge2_Node000002_Node000003" class="edge">
<title>Node2&#45;&gt;Node3</title>
<g id="a_edge2_Node000002_Node000003"><a xlink:title=" ">
<path fill="none" stroke="#63b8ff" d="M1622.89,-154.07C1602.41,-161.45 1576.3,-170.81 1553,-179 1533.26,-185.94 1510.94,-193.64 1493.85,-199.49"/>
<polygon fill="#63b8ff" stroke="#63b8ff" points="1624.24,-157.3 1632.46,-150.62 1621.86,-150.72 1624.24,-157.3"/>
</a>
</g>
</g>
<!-- Node10 -->
<g id="Node000010" class="node">
<title>Node10</title>
<g id="a_Node000010"><a xlink:href="classSRV__Channels.html#a97d44273078830a2f7d5a00812decfd2" target="_top" xlink:title=" ">
<polygon fill="white" stroke="#666666" points="1553,-169.5 1377,-169.5 1377,-150.5 1553,-150.5 1553,-169.5"/>
<text text-anchor="middle" x="1465" y="-157.5" font-family="Helvetica,sans-Serif" font-size="10.00">SRV_Channels::get_output_norm</text>
</a>
</g>
</g>
<!-- Node2&#45;&gt;Node10 -->
<g id="edge9_Node000002_Node000010" class="edge">
<title>Node2&#45;&gt;Node10</title>
<g id="a_edge9_Node000002_Node000010"><a xlink:title=" ">
<path fill="none" stroke="#63b8ff" d="M1581.66,-148.61C1572.24,-149.54 1562.57,-150.49 1553.02,-151.43"/>
<polygon fill="#63b8ff" stroke="#63b8ff" points="1582.16,-152.08 1591.77,-147.62 1581.47,-145.12 1582.16,-152.08"/>
</a>
</g>
</g>
<!-- Node11 -->
<g id="Node000011" class="node">
<title>Node11</title>
<g id="a_Node000011"><a xlink:href="classSRV__Channels.html#af661b523ee4f3d6265810fd22b4ce71e" target="_top" xlink:title=" ">
<polygon fill="white" stroke="#666666" points="1552,-132.5 1378,-132.5 1378,-113.5 1552,-113.5 1552,-132.5"/>
<text text-anchor="middle" x="1465" y="-120.5" font-family="Helvetica,sans-Serif" font-size="10.00">SRV_Channels::get_output_pwm</text>
</a>
</g>
</g>
<!-- Node2&#45;&gt;Node11 -->
<g id="edge10_Node000002_Node000011" class="edge">
<title>Node2&#45;&gt;Node11</title>
<g id="a_edge10_Node000002_Node000011"><a xlink:title=" ">
<path fill="none" stroke="#63b8ff" d="M1581.71,-133.79C1571.94,-132.88 1561.89,-131.94 1552,-131.02"/>
<polygon fill="#63b8ff" stroke="#63b8ff" points="1581.49,-137.29 1591.77,-134.73 1582.14,-130.32 1581.49,-137.29"/>
</a>
</g>
</g>
<!-- Node4 -->
<g id="Node000004" class="node">
<title>Node4</title>
<g id="a_Node000004"><a xlink:href="classAP__MotorsUGV.html#aa030840d7598fc6302c3d523979b4b5b" target="_top" xlink:title=" ">
<polygon fill="white" stroke="#666666" points="1338,-309.5 1211,-309.5 1211,-290.5 1338,-290.5 1338,-309.5"/>
<text text-anchor="middle" x="1274.5" y="-297.5" font-family="Helvetica,sans-Serif" font-size="10.00">AP_MotorsUGV::output</text>
</a>
</g>
</g>
<!-- Node3&#45;&gt;Node4 -->
<g id="edge3_Node000003_Node000004" class="edge">
<title>Node3&#45;&gt;Node4</title>
<g id="a_edge3_Node000003_Node000004"><a xlink:title=" ">
<path fill="none" stroke="#63b8ff" d="M1441.84,-224.25C1417.86,-240.19 1378.09,-265.06 1341,-281 1332.62,-284.6 1323.36,-287.75 1314.5,-290.4"/>
<polygon fill="#63b8ff" stroke="#63b8ff" points="1443.87,-227.1 1450.21,-218.62 1439.96,-221.29 1443.87,-227.1"/>
</a>
</g>
</g>
<!-- Node5 -->
<g id="Node000005" class="node">
<title>Node5</title>
<g id="a_Node000005"><a xlink:href="classAP__MotorsUGV.html#a91d747bc014f8d8c125c69b6eb598251" target="_top" xlink:title=" ">
<polygon fill="white" stroke="#666666" points="1338,-272 1211,-272 1211,-242 1338,-242 1338,-272"/>
<text text-anchor="start" x="1219" y="-260" font-family="Helvetica,sans-Serif" font-size="10.00">AP_MotorsUGV::output</text>
<text text-anchor="middle" x="1274.5" y="-249" font-family="Helvetica,sans-Serif" font-size="10.00">_test_pct</text>
</a>
</g>
</g>
<!-- Node3&#45;&gt;Node5 -->
<g id="edge4_Node000003_Node000005" class="edge">
<title>Node3&#45;&gt;Node5</title>
<g id="a_edge4_Node000003_Node000005"><a xlink:title=" ">
<path fill="none" stroke="#63b8ff" d="M1416.4,-221.12C1391.58,-227.44 1360.99,-235.23 1334.65,-241.94"/>
<polygon fill="#63b8ff" stroke="#63b8ff" points="1417.48,-224.46 1426.31,-218.6 1415.75,-217.67 1417.48,-224.46"/>
</a>
</g>
</g>
<!-- Node6 -->
<g id="Node000006" class="node">
<title>Node6</title>
<g id="a_Node000006"><a xlink:href="classAP__MotorsUGV.html#aaa3219d6621f65d47b93b2af2fef51c5" target="_top" xlink:title=" ">
<polygon fill="white" stroke="#666666" points="1338,-224 1211,-224 1211,-194 1338,-194 1338,-224"/>
<text text-anchor="start" x="1219" y="-212" font-family="Helvetica,sans-Serif" font-size="10.00">AP_MotorsUGV::output</text>
<text text-anchor="middle" x="1274.5" y="-201" font-family="Helvetica,sans-Serif" font-size="10.00">_test_pwm</text>
</a>
</g>
</g>
<!-- Node3&#45;&gt;Node6 -->
<g id="edge5_Node000003_Node000006" class="edge">
<title>Node3&#45;&gt;Node6</title>
<g id="a_edge5_Node000003_Node000006"><a xlink:title=" ">
<path fill="none" stroke="#63b8ff" d="M1384.28,-209C1368.82,-209 1352.83,-209 1338.02,-209"/>
<polygon fill="#63b8ff" stroke="#63b8ff" points="1384.35,-212.5 1394.35,-209 1384.35,-205.5 1384.35,-212.5"/>
</a>
</g>
</g>
<!-- Node7 -->
<g id="Node000007" class="node">
<title>Node7</title>
<g id="a_Node000007"><a xlink:href="AP__Motors__test_8cpp.html#a7f47bb79f883994514efee9d8de3ec0c" target="_top" xlink:title=" ">
<polygon fill="white" stroke="#666666" points="1314.5,-175.5 1234.5,-175.5 1234.5,-156.5 1314.5,-156.5 1314.5,-175.5"/>
<text text-anchor="middle" x="1274.5" y="-163.5" font-family="Helvetica,sans-Serif" font-size="10.00">stability_test</text>
</a>
</g>
</g>
<!-- Node3&#45;&gt;Node7 -->
<g id="edge6_Node000003_Node000007" class="edge">
<title>Node3&#45;&gt;Node7</title>
<g id="a_edge6_Node000003_Node000007"><a xlink:title=" ">
<path fill="none" stroke="#63b8ff" d="M1412.04,-197.15C1381.25,-190.12 1342.87,-181.37 1314.64,-174.93"/>
<polygon fill="#63b8ff" stroke="#63b8ff" points="1411.64,-200.65 1422.17,-199.46 1413.19,-193.82 1411.64,-200.65"/>
</a>
</g>
</g>
<!-- Node8 -->
<g id="Node000008" class="node">
<title>Node8</title>
<g id="a_Node000008"><a xlink:href="AP__Motors__test_8cpp.html#afe461d27b9c48d5921c00d521181f12f" target="_top" xlink:title=" ">
<polygon fill="white" stroke="#666666" points="1131,-192.5 1093,-192.5 1093,-173.5 1131,-173.5 1131,-192.5"/>
<text text-anchor="middle" x="1112" y="-180.5" font-family="Helvetica,sans-Serif" font-size="10.00">loop</text>
</a>
</g>
</g>
<!-- Node7&#45;&gt;Node8 -->
<g id="edge7_Node000007_Node000008" class="edge">
<title>Node7&#45;&gt;Node8</title>
<g id="a_edge7_Node000007_Node000008"><a xlink:title=" ">
<path fill="none" stroke="#63b8ff" d="M1224.28,-171.21C1192.72,-174.56 1153.57,-178.7 1131.12,-181.08"/>
<polygon fill="#63b8ff" stroke="#63b8ff" points="1224.66,-174.69 1234.24,-170.16 1223.92,-167.73 1224.66,-174.69"/>
</a>
</g>
</g>
<!-- Node9 -->
<g id="Node000009" class="node">
<title>Node9</title>
<g id="a_Node000009"><a xlink:href="AP__Motors__test_8cpp.html#a4fc01d736fe50cf5b977f755b675f11d" target="_top" xlink:title=" ">
<polygon fill="white" stroke="#666666" points="1134,-155.5 1090,-155.5 1090,-136.5 1134,-136.5 1134,-155.5"/>
<text text-anchor="middle" x="1112" y="-143.5" font-family="Helvetica,sans-Serif" font-size="10.00">setup</text>
</a>
</g>
</g>
<!-- Node7&#45;&gt;Node9 -->
<g id="edge8_Node000007_Node000009" class="edge">
<title>Node7&#45;&gt;Node9</title>
<g id="a_edge8_Node000007_Node000009"><a xlink:title=" ">
<path fill="none" stroke="#63b8ff" d="M1224.3,-159.87C1194.11,-156.11 1156.99,-151.48 1134.17,-148.64"/>
<polygon fill="#63b8ff" stroke="#63b8ff" points="1223.88,-163.34 1234.24,-161.11 1224.75,-156.4 1223.88,-163.34"/>
</a>
</g>
</g>
<!-- Node12 -->
<g id="Node000012" class="node">
<title>Node12</title>
<g id="a_Node000012"><a xlink:href="classSRV__Channels.html#adfa585837a2cd27046e0f39bf427fea6" target="_top" xlink:title=" ">
<polygon fill="white" stroke="#666666" points="1341,-138 1208,-138 1208,-108 1341,-108 1341,-138"/>
<text text-anchor="start" x="1216" y="-126" font-family="Helvetica,sans-Serif" font-size="10.00">SRV_Channels::set_trim</text>
<text text-anchor="middle" x="1274.5" y="-115" font-family="Helvetica,sans-Serif" font-size="10.00">_to_servo_out_for</text>
</a>
</g>
</g>
<!-- Node11&#45;&gt;Node12 -->
<g id="edge11_Node000011_Node000012" class="edge">
<title>Node11&#45;&gt;Node12</title>
<g id="a_edge11_Node000011_Node000012"><a xlink:title=" ">
<path fill="none" stroke="#63b8ff" d="M1367.63,-123C1358.65,-123 1349.71,-123 1341.11,-123"/>
<polygon fill="#63b8ff" stroke="#63b8ff" points="1367.75,-126.5 1377.75,-123 1367.75,-119.5 1367.75,-126.5"/>
</a>
</g>
</g>
<!-- Node14 -->
<g id="Node000014" class="node">
<title>Node14</title>
<g id="a_Node000014"><a xlink:href="classAP__Arming.html#a73c03baf7f22b7124a2ac9e9286a850a" target="_top" xlink:title=" ">
<polygon fill="white" stroke="#666666" points="1523,-95 1407,-95 1407,-65 1523,-65 1523,-95"/>
<text text-anchor="start" x="1415" y="-83" font-family="Helvetica,sans-Serif" font-size="10.00">AP_Arming::pre_arm</text>
<text text-anchor="middle" x="1465" y="-72" font-family="Helvetica,sans-Serif" font-size="10.00">_checks</text>
</a>
</g>
</g>
<!-- Node13&#45;&gt;Node14 -->
<g id="edge13_Node000013_Node000014" class="edge">
<title>Node13&#45;&gt;Node14</title>
<g id="a_edge13_Node000013_Node000014"><a xlink:title=" ">
<path fill="none" stroke="#63b8ff" d="M1578.81,-92.27C1560.14,-90.24 1540.64,-88.12 1523.2,-86.22"/>
<polygon fill="#63b8ff" stroke="#63b8ff" points="1578.46,-95.76 1588.78,-93.36 1579.21,-88.8 1578.46,-95.76"/>
</a>
</g>
</g>
<!-- Node15 -->
<g id="Node000015" class="node">
<title>Node15</title>
<g id="a_Node000015"><a xlink:href="classAP__Arming.html#abeebfae7f8ef321308d6ca739c25d4f9" target="_top" xlink:title=" ">
<polygon fill="white" stroke="#666666" points="1322,-89.5 1227,-89.5 1227,-70.5 1322,-70.5 1322,-89.5"/>
<text text-anchor="middle" x="1274.5" y="-77.5" font-family="Helvetica,sans-Serif" font-size="10.00">AP_Arming::arm</text>
</a>
</g>
</g>
<!-- Node14&#45;&gt;Node15 -->
<g id="edge14_Node000014_Node000015" class="edge">
<title>Node14&#45;&gt;Node15</title>
<g id="a_edge14_Node000014_Node000015"><a xlink:title=" ">
<path fill="none" stroke="#63b8ff" d="M1396.9,-80C1372.19,-80 1344.77,-80 1322.24,-80"/>
<polygon fill="#63b8ff" stroke="#63b8ff" points="1396.93,-83.5 1406.93,-80 1396.93,-76.5 1396.93,-83.5"/>
</a>
</g>
</g>
<!-- Node29 -->
<g id="Node000029" class="node">
<title>Node29</title>
<g id="a_Node000029"><a xlink:href="classAP__Arming.html#a147cc051ad50d2fd681e781820d5db88" target="_top" xlink:title=" ">
<polygon fill="white" stroke="#666666" points="1329.5,-52.5 1219.5,-52.5 1219.5,-33.5 1329.5,-33.5 1329.5,-52.5"/>
<text text-anchor="middle" x="1274.5" y="-40.5" font-family="Helvetica,sans-Serif" font-size="10.00">AP_Arming::update</text>
</a>
</g>
</g>
<!-- Node14&#45;&gt;Node29 -->
<g id="edge29_Node000014_Node000029" class="edge">
<title>Node14&#45;&gt;Node29</title>
<g id="a_edge29_Node000014_Node000029"><a xlink:title=" ">
<path fill="none" stroke="#63b8ff" d="M1396.82,-66.81C1372.81,-62.1 1346.24,-56.89 1324.1,-52.54"/>
<polygon fill="#63b8ff" stroke="#63b8ff" points="1396.45,-70.31 1406.93,-68.8 1397.79,-63.44 1396.45,-70.31"/>
</a>
</g>
</g>
<!-- Node16 -->
<g id="Node000016" class="node">
<title>Node16</title>
<g id="a_Node000016"><a xlink:href="classRC__Channel.html#a338ed2992c099317acffb83a3ee2a40a" target="_top" xlink:title=" ">
<polygon fill="white" stroke="#666666" points="1016,-99 900,-99 900,-69 1016,-69 1016,-99"/>
<text text-anchor="start" x="908" y="-87" font-family="Helvetica,sans-Serif" font-size="10.00">RC_Channel::do_aux</text>
<text text-anchor="middle" x="958" y="-76" font-family="Helvetica,sans-Serif" font-size="10.00">_function</text>
</a>
</g>
</g>
<!-- Node15&#45;&gt;Node16 -->
<g id="edge15_Node000015_Node000016" class="edge">
<title>Node15&#45;&gt;Node16</title>
<g id="a_edge15_Node000015_Node000016"><a xlink:title=" ">
<path fill="none" stroke="#63b8ff" d="M1216.46,-84.63C1201.97,-85.61 1186.42,-86.5 1172,-87 1118.7,-88.84 1105.33,-87.86 1052,-87 1040.37,-86.81 1027.93,-86.49 1016.05,-86.13"/>
<polygon fill="#63b8ff" stroke="#63b8ff" points="1217.06,-88.09 1226.79,-83.9 1216.57,-81.11 1217.06,-88.09"/>
</a>
</g>
</g>
<!-- Node28 -->
<g id="Node000028" class="node">
<title>Node28</title>
<g id="a_Node000028"><a xlink:href="classRC__Channel.html#aed015ae6e676a9f90763a6115a7545ee" target="_top" xlink:title=" ">
<polygon fill="white" stroke="#666666" points="1172,-78 1052,-78 1052,-48 1172,-48 1172,-78"/>
<text text-anchor="start" x="1060" y="-66" font-family="Helvetica,sans-Serif" font-size="10.00">RC_Channel::do_aux</text>
<text text-anchor="middle" x="1112" y="-55" font-family="Helvetica,sans-Serif" font-size="10.00">_function_armdisarm</text>
</a>
</g>
</g>
<!-- Node15&#45;&gt;Node28 -->
<g id="edge27_Node000015_Node000028" class="edge">
<title>Node15&#45;&gt;Node28</title>
<g id="a_edge27_Node000015_Node000028"><a xlink:title=" ">
<path fill="none" stroke="#63b8ff" d="M1216.42,-73.95C1202.07,-72.43 1186.65,-70.8 1172.2,-69.27"/>
<polygon fill="#63b8ff" stroke="#63b8ff" points="1216.33,-77.46 1226.65,-75.04 1217.07,-70.5 1216.33,-77.46"/>
</a>
</g>
</g>
<!-- Node17 -->
<g id="Node000017" class="node">
<title>Node17</title>
<g id="a_Node000017"><a xlink:href="classRC__Channel.html#a466a63bf0f7aadea5619bef7da61e885" target="_top" xlink:title=" ">
<polygon fill="white" stroke="#666666" points="864,-99 744,-99 744,-69 864,-69 864,-99"/>
<text text-anchor="start" x="752" y="-87" font-family="Helvetica,sans-Serif" font-size="10.00">RC_Channel::run_aux</text>
<text text-anchor="middle" x="804" y="-76" font-family="Helvetica,sans-Serif" font-size="10.00">_function</text>
</a>
</g>
</g>
<!-- Node16&#45;&gt;Node17 -->
<g id="edge16_Node000016_Node000017" class="edge">
<title>Node16&#45;&gt;Node17</title>
<g id="a_edge16_Node000016_Node000017"><a xlink:title=" ">
<path fill="none" stroke="#63b8ff" d="M889.96,-84C881.36,-84 872.59,-84 864.13,-84"/>
<polygon fill="#63b8ff" stroke="#63b8ff" points="889.97,-87.5 899.97,-84 889.97,-80.5 889.97,-87.5"/>
</a>
</g>
</g>
<!-- Node18 -->
<g id="Node000018" class="node">
<title>Node18</title>
<g id="a_Node000018"><a xlink:href="classRC__Channel.html#ab6878bae0e26a59c15a5f51f6a51778e" target="_top" xlink:title=" ">
<polygon fill="white" stroke="#666666" points="705,-164 585,-164 585,-134 705,-134 705,-164"/>
<text text-anchor="start" x="593" y="-152" font-family="Helvetica,sans-Serif" font-size="10.00">RC_Channel::init_aux</text>
<text text-anchor="middle" x="645" y="-141" font-family="Helvetica,sans-Serif" font-size="10.00">_function</text>
</a>
</g>
</g>
<!-- Node17&#45;&gt;Node18 -->
<g id="edge17_Node000017_Node000018" class="edge">
<title>Node17&#45;&gt;Node18</title>
<g id="a_edge17_Node000017_Node000018"><a xlink:title=" ">
<path fill="none" stroke="#63b8ff" d="M759.63,-103.13C743.48,-110.15 724.96,-118.06 708,-125 700.74,-127.97 692.96,-131.06 685.45,-133.99"/>
<polygon fill="#63b8ff" stroke="#63b8ff" points="761.07,-106.32 768.83,-99.12 758.27,-99.91 761.07,-106.32"/>
</a>
</g>
</g>
<!-- Node23 -->
<g id="Node000023" class="node">
<title>Node23</title>
<g id="a_Node000023"><a xlink:href="classRC__Channel.html#aac5143b957916aec428b6bc79f29456d" target="_top" xlink:title=" ">
<polygon fill="white" stroke="#666666" points="708,-115.5 582,-115.5 582,-96.5 708,-96.5 708,-115.5"/>
<text text-anchor="middle" x="645" y="-103.5" font-family="Helvetica,sans-Serif" font-size="10.00">RC_Channel::read_aux</text>
</a>
</g>
</g>
<!-- Node17&#45;&gt;Node23 -->
<g id="edge22_Node000017_Node000023" class="edge">
<title>Node17&#45;&gt;Node23</title>
<g id="a_edge22_Node000017_Node000023"><a xlink:title=" ">
<path fill="none" stroke="#63b8ff" d="M733.71,-93.71C725.17,-94.91 716.48,-96.12 708.05,-97.3"/>
<polygon fill="#63b8ff" stroke="#63b8ff" points="734.23,-97.17 743.65,-92.32 733.26,-90.24 734.23,-97.17"/>
</a>
</g>
</g>
<!-- Node25 -->
<g id="Node000025" class="node">
<title>Node25</title>
<g id="a_Node000025"><a xlink:href="classRC__Channels.html#aa03377adb7e7b07575487043309d50c6" target="_top" xlink:title=" ">
<polygon fill="white" stroke="#666666" points="707.5,-78 582.5,-78 582.5,-48 707.5,-48 707.5,-78"/>
<text text-anchor="start" x="590.5" y="-66" font-family="Helvetica,sans-Serif" font-size="10.00">RC_Channels::run_aux</text>
<text text-anchor="middle" x="645" y="-55" font-family="Helvetica,sans-Serif" font-size="10.00">_function</text>
</a>
</g>
</g>
<!-- Node17&#45;&gt;Node25 -->
<g id="edge24_Node000017_Node000025" class="edge">
<title>Node17&#45;&gt;Node25</title>
<g id="a_edge24_Node000017_Node000025"><a xlink:title=" ">
<path fill="none" stroke="#63b8ff" d="M733.56,-74.71C724.89,-73.55 716.07,-72.37 707.53,-71.23"/>
<polygon fill="#63b8ff" stroke="#63b8ff" points="733.27,-78.2 743.65,-76.06 734.2,-71.27 733.27,-78.2"/>
</a>
</g>
</g>
<!-- Node26 -->
<g id="Node000026" class="node">
<title>Node26</title>
<g id="a_Node000026"><a xlink:href="classAP__Button.html#a62288ab93c5e64a4089d324737a52646" target="_top" xlink:title=" ">
<polygon fill="white" stroke="#666666" points="701,-30 589,-30 589,0 701,0 701,-30"/>
<text text-anchor="start" x="597" y="-18" font-family="Helvetica,sans-Serif" font-size="10.00">AP_Button::run_aux</text>
<text text-anchor="middle" x="645" y="-7" font-family="Helvetica,sans-Serif" font-size="10.00">_functions</text>
</a>
</g>
</g>
<!-- Node17&#45;&gt;Node26 -->
<g id="edge25_Node000017_Node000026" class="edge">
<title>Node17&#45;&gt;Node26</title>
<g id="a_edge25_Node000017_Node000026"><a xlink:title=" ">
<path fill="none" stroke="#63b8ff" d="M763.4,-64.45C746.46,-56.3 726.39,-46.9 708,-39 701,-35.99 693.49,-32.94 686.2,-30.07"/>
<polygon fill="#63b8ff" stroke="#63b8ff" points="761.93,-67.63 772.45,-68.83 764.98,-61.33 761.93,-67.63"/>
</a>
</g>
</g>
<!-- Node19 -->
<g id="Node000019" class="node">
<title>Node19</title>
<g id="a_Node000019"><a xlink:href="classRC__Channel.html#a2e0ed24b88e1d47d9056bc8b6e28650f" target="_top" xlink:title=" ">
<polygon fill="white" stroke="#666666" points="531.5,-158.5 411.5,-158.5 411.5,-139.5 531.5,-139.5 531.5,-158.5"/>
<text text-anchor="middle" x="471.5" y="-146.5" font-family="Helvetica,sans-Serif" font-size="10.00">RC_Channel::init_aux</text>
</a>
</g>
</g>
<!-- Node18&#45;&gt;Node19 -->
<g id="edge18_Node000018_Node000019" class="edge">
<title>Node18&#45;&gt;Node19</title>
<g id="a_edge18_Node000018_Node000019"><a xlink:title=" ">
<path fill="none" stroke="#63b8ff" d="M574.71,-149C560.43,-149 545.51,-149 531.63,-149"/>
<polygon fill="#63b8ff" stroke="#63b8ff" points="574.98,-152.5 584.98,-149 574.98,-145.5 574.98,-152.5"/>
</a>
</g>
</g>
<!-- Node20 -->
<g id="Node000020" class="node">
<title>Node20</title>
<g id="a_Node000020"><a xlink:href="classRC__Channels.html#a668ee11266919ed21cc542df61043cca" target="_top" xlink:title=" ">
<polygon fill="white" stroke="#666666" points="361,-158.5 218,-158.5 218,-139.5 361,-139.5 361,-158.5"/>
<text text-anchor="middle" x="289.5" y="-146.5" font-family="Helvetica,sans-Serif" font-size="10.00">RC_Channels::init_aux_all</text>
</a>
</g>
</g>
<!-- Node19&#45;&gt;Node20 -->
<g id="edge19_Node000019_Node000020" class="edge">
<title>Node19&#45;&gt;Node20</title>
<g id="a_edge19_Node000019_Node000020"><a xlink:title=" ">
<path fill="none" stroke="#63b8ff" d="M400.78,-149C387.77,-149 374.17,-149 361.14,-149"/>
<polygon fill="#63b8ff" stroke="#63b8ff" points="401.06,-152.5 411.06,-149 401.06,-145.5 401.06,-152.5"/>
</a>
</g>
</g>
<!-- Node21 -->
<g id="Node000021" class="node">
<title>Node21</title>
<g id="a_Node000021"><a xlink:href="classRC__Channels.html#a41ac050f115225f84b06b97fb79ee56f" target="_top" xlink:title=" ">
<polygon fill="white" stroke="#666666" points="182,-158.5 80,-158.5 80,-139.5 182,-139.5 182,-158.5"/>
<text text-anchor="middle" x="131" y="-146.5" font-family="Helvetica,sans-Serif" font-size="10.00">RC_Channels::init</text>
</a>
</g>
</g>
<!-- Node20&#45;&gt;Node21 -->
<g id="edge20_Node000020_Node000021" class="edge">
<title>Node20&#45;&gt;Node21</title>
<g id="a_edge20_Node000020_Node000021"><a xlink:title=" ">
<path fill="none" stroke="#63b8ff" d="M207.45,-149C198.82,-149 190.23,-149 182.11,-149"/>
<polygon fill="#63b8ff" stroke="#63b8ff" points="207.58,-152.5 217.58,-149 207.58,-145.5 207.58,-152.5"/>
</a>
</g>
</g>
<!-- Node22 -->
<g id="Node000022" class="node">
<title>Node22</title>
<g id="a_Node000022"><a xlink:href="AC__PID__test_8cpp.html#a4fc01d736fe50cf5b977f755b675f11d" target="_top" xlink:title=" ">
<polygon fill="white" stroke="#666666" points="44,-158.5 0,-158.5 0,-139.5 44,-139.5 44,-158.5"/>
<text text-anchor="middle" x="22" y="-146.5" font-family="Helvetica,sans-Serif" font-size="10.00">setup</text>
</a>
</g>
</g>
<!-- Node21&#45;&gt;Node22 -->
<g id="edge21_Node000021_Node000022" class="edge">
<title>Node21&#45;&gt;Node22</title>
<g id="a_edge21_Node000021_Node000022"><a xlink:title=" ">
<path fill="none" stroke="#63b8ff" d="M69.89,-149C60.67,-149 51.71,-149 44.14,-149"/>
<polygon fill="#63b8ff" stroke="#63b8ff" points="69.95,-152.5 79.95,-149 69.95,-145.5 69.95,-152.5"/>
</a>
</g>
</g>
<!-- Node24 -->
<g id="Node000024" class="node">
<title>Node24</title>
<g id="a_Node000024"><a xlink:href="classRC__Channels.html#afce42af83fb4e3a19d56c330a99c59b5" target="_top" xlink:title=" ">
<polygon fill="white" stroke="#666666" points="546,-115.5 397,-115.5 397,-96.5 546,-96.5 546,-115.5"/>
<text text-anchor="middle" x="471.5" y="-103.5" font-family="Helvetica,sans-Serif" font-size="10.00">RC_Channels::read_aux_all</text>
</a>
</g>
</g>
<!-- Node23&#45;&gt;Node24 -->
<g id="edge23_Node000023_Node000024" class="edge">
<title>Node23&#45;&gt;Node24</title>
<g id="a_edge23_Node000023_Node000024"><a xlink:title=" ">
<path fill="none" stroke="#63b8ff" d="M571.5,-106C563.14,-106 554.6,-106 546.22,-106"/>
<polygon fill="#63b8ff" stroke="#63b8ff" points="571.6,-109.5 581.6,-106 571.6,-102.5 571.6,-109.5"/>
</a>
</g>
</g>
<!-- Node27 -->
<g id="Node000027" class="node">
<title>Node27</title>
<g id="a_Node000027"><a xlink:href="classAP__Button.html#aca0e09611ac7454783d703c75d5df288" target="_top" xlink:title=" ">
<polygon fill="white" stroke="#666666" points="525,-24.5 418,-24.5 418,-5.5 525,-5.5 525,-24.5"/>
<text text-anchor="middle" x="471.5" y="-12.5" font-family="Helvetica,sans-Serif" font-size="10.00">AP_Button::update</text>
</a>
</g>
</g>
<!-- Node26&#45;&gt;Node27 -->
<g id="edge26_Node000026_Node000027" class="edge">
<title>Node26&#45;&gt;Node27</title>
<g id="a_edge26_Node000026_Node000027"><a xlink:title=" ">
<path fill="none" stroke="#63b8ff" d="M578.58,-15C560.95,-15 542.11,-15 525.27,-15"/>
<polygon fill="#63b8ff" stroke="#63b8ff" points="578.79,-18.5 588.79,-15 578.79,-11.5 578.79,-18.5"/>
</a>
</g>
</g>
<!-- Node28&#45;&gt;Node16 -->
<g id="edge28_Node000028_Node000016" class="edge">
<title>Node28&#45;&gt;Node16</title>
<g id="a_edge28_Node000028_Node000016"><a xlink:title=" ">
<path fill="none" stroke="#63b8ff" d="M1041.85,-72.55C1033.3,-73.73 1024.64,-74.93 1016.3,-76.08"/>
<polygon fill="#63b8ff" stroke="#63b8ff" points="1042.37,-76.02 1051.8,-71.18 1041.41,-69.08 1042.37,-76.02"/>
</a>
</g>
</g>
</g>
</svg>
