<?xml version="1.0" encoding="UTF-8" standalone="no"?>
<!DOCTYPE svg PUBLIC "-//W3C//DTD SVG 1.1//EN"
 "http://www.w3.org/Graphics/SVG/1.1/DTD/svg11.dtd">
<!-- Generated by graphviz version 2.43.0 (0)
 -->
<!-- Title: Location::change_alt_frame Pages: 1 -->
<svg width="617pt" height="218pt"
 viewBox="0.00 0.00 617.00 218.00" xmlns="http://www.w3.org/2000/svg" xmlns:xlink="http://www.w3.org/1999/xlink">
<g id="graph0" class="graph" transform="scale(1 1) rotate(0) translate(4 214)">
<title>Location::change_alt_frame</title>
<!-- Node1 -->
<g id="Node000001" class="node">
<title>Node1</title>
<g id="a_Node000001"><a xlink:title=" ">
<polygon fill="#999999" stroke="#666666" points="117,-122.5 0,-122.5 0,-92.5 117,-92.5 117,-122.5"/>
<text text-anchor="start" x="8" y="-110.5" font-family="Helvetica,sans-Serif" font-size="10.00">Location::change_alt</text>
<text text-anchor="middle" x="58.5" y="-99.5" font-family="Helvetica,sans-Serif" font-size="10.00">_frame</text>
</a>
</g>
</g>
<!-- Node2 -->
<g id="Node000002" class="node">
<title>Node2</title>
<g id="a_Node000002"><a xlink:href="classLocation.html#a0b8a5317ad6b631a7a82c52b258fec1f" target="_top" xlink:title="get altitude in desired frame">
<polygon fill="white" stroke="#666666" points="271,-136 153,-136 153,-117 271,-117 271,-136"/>
<text text-anchor="middle" x="212" y="-124" font-family="Helvetica,sans-Serif" font-size="10.00">Location::get_alt_cm</text>
</a>
</g>
</g>
<!-- Node1&#45;&gt;Node2 -->
<g id="edge1_Node000001_Node000002" class="edge">
<title>Node1&#45;&gt;Node2</title>
<g id="a_edge1_Node000001_Node000002"><a xlink:title=" ">
<path fill="none" stroke="#63b8ff" d="M117.21,-114.74C125.62,-115.79 134.35,-116.89 142.95,-117.97"/>
<polygon fill="#63b8ff" stroke="#63b8ff" points="142.59,-121.45 152.95,-119.22 143.46,-114.5 142.59,-121.45"/>
</a>
</g>
</g>
<!-- Node12 -->
<g id="Node000012" class="node">
<title>Node12</title>
<g id="a_Node000012"><a xlink:href="classLocation.html#a42ff316c00ff41841042c65521a44944" target="_top" xlink:title=" ">
<polygon fill="white" stroke="#666666" points="270.5,-99 153.5,-99 153.5,-80 270.5,-80 270.5,-99"/>
<text text-anchor="middle" x="212" y="-87" font-family="Helvetica,sans-Serif" font-size="10.00">Location::set_alt_cm</text>
</a>
</g>
</g>
<!-- Node1&#45;&gt;Node12 -->
<g id="edge11_Node000001_Node000012" class="edge">
<title>Node1&#45;&gt;Node12</title>
<g id="a_edge11_Node000001_Node000012"><a xlink:title=" ">
<path fill="none" stroke="#63b8ff" d="M117.21,-100.64C125.74,-99.63 134.6,-98.58 143.32,-97.54"/>
<polygon fill="#63b8ff" stroke="#63b8ff" points="143.94,-100.99 153.45,-96.34 143.11,-94.04 143.94,-100.99"/>
</a>
</g>
</g>
<!-- Node3 -->
<g id="Node000003" class="node">
<title>Node3</title>
<g id="a_Node000003"><a xlink:href="namespaceAP.html#a99432cfdb696952c9b7146f155a815aa" target="_top" xlink:title=" ">
<polygon fill="white" stroke="#666666" points="401,-210 345,-210 345,-191 401,-191 401,-210"/>
<text text-anchor="middle" x="373" y="-198" font-family="Helvetica,sans-Serif" font-size="10.00">AP::ahrs</text>
</a>
</g>
</g>
<!-- Node2&#45;&gt;Node3 -->
<g id="edge2_Node000002_Node000003" class="edge">
<title>Node2&#45;&gt;Node3</title>
<g id="a_edge2_Node000002_Node000003"><a xlink:title=" ">
<path fill="none" stroke="#63b8ff" d="M226.4,-136.06C244.1,-148.31 276.6,-169.52 307,-182.5 315.86,-186.28 325.73,-189.49 335.06,-192.11"/>
<polygon fill="#63b8ff" stroke="#63b8ff" points="334.32,-195.53 344.89,-194.71 336.12,-188.77 334.32,-195.53"/>
</a>
</g>
</g>
<!-- Node5 -->
<g id="Node000005" class="node">
<title>Node5</title>
<g id="a_Node000005"><a xlink:href="classLocation.html#a9553b50f057b38e4b622dbf5daa981dc" target="_top" xlink:title=" ">
<polygon fill="white" stroke="#666666" points="439,-173 307,-173 307,-154 439,-154 439,-173"/>
<text text-anchor="middle" x="373" y="-161" font-family="Helvetica,sans-Serif" font-size="10.00">Location::get_alt_frame</text>
</a>
</g>
</g>
<!-- Node2&#45;&gt;Node5 -->
<g id="edge4_Node000002_Node000005" class="edge">
<title>Node2&#45;&gt;Node5</title>
<g id="a_edge4_Node000002_Node000005"><a xlink:title=" ">
<path fill="none" stroke="#63b8ff" d="M253.95,-136.03C274.36,-140.78 299.25,-146.57 320.9,-151.61"/>
<polygon fill="#63b8ff" stroke="#63b8ff" points="320.38,-155.08 330.92,-153.94 321.97,-148.26 320.38,-155.08"/>
</a>
</g>
</g>
<!-- Node6 -->
<g id="Node000006" class="node">
<title>Node6</title>
<g id="a_Node000006"><a xlink:href="classAP__AHRS.html#a8c6d86329f149416dd092d873345bc7f" target="_top" xlink:title=" ">
<polygon fill="white" stroke="#666666" points="431,-136 315,-136 315,-117 431,-117 431,-136"/>
<text text-anchor="middle" x="373" y="-124" font-family="Helvetica,sans-Serif" font-size="10.00">AP_AHRS::get_home</text>
</a>
</g>
</g>
<!-- Node2&#45;&gt;Node6 -->
<g id="edge5_Node000002_Node000006" class="edge">
<title>Node2&#45;&gt;Node6</title>
<g id="a_edge5_Node000002_Node000006"><a xlink:title=" ">
<path fill="none" stroke="#63b8ff" d="M271.3,-126.5C282.16,-126.5 293.59,-126.5 304.69,-126.5"/>
<polygon fill="#63b8ff" stroke="#63b8ff" points="304.77,-130 314.77,-126.5 304.77,-123 304.77,-130"/>
</a>
</g>
</g>
<!-- Node7 -->
<g id="Node000007" class="node">
<title>Node7</title>
<g id="a_Node000007"><a xlink:href="classLocation.html#ab43fd82a0442d101e6e2554e43e606b9" target="_top" xlink:title=" ">
<polygon fill="white" stroke="#666666" points="429,-99 317,-99 317,-80 429,-80 429,-99"/>
<text text-anchor="middle" x="373" y="-87" font-family="Helvetica,sans-Serif" font-size="10.00">Location::initialised</text>
</a>
</g>
</g>
<!-- Node2&#45;&gt;Node7 -->
<g id="edge6_Node000002_Node000007" class="edge">
<title>Node2&#45;&gt;Node7</title>
<g id="a_edge6_Node000002_Node000007"><a xlink:title=" ">
<path fill="none" stroke="#63b8ff" d="M253.95,-116.97C274.36,-112.22 299.25,-106.43 320.9,-101.39"/>
<polygon fill="#63b8ff" stroke="#63b8ff" points="321.97,-104.74 330.92,-99.06 320.38,-97.92 321.97,-104.74"/>
</a>
</g>
</g>
<!-- Node8 -->
<g id="Node000008" class="node">
<title>Node8</title>
<g id="a_Node000008"><a xlink:href="namespaceAP__HAL.html#a52edeef7d5ffaa365e1229b87c170307" target="_top" xlink:title=" ">
<polygon fill="white" stroke="#666666" points="416,-62 330,-62 330,-43 416,-43 416,-62"/>
<text text-anchor="middle" x="373" y="-50" font-family="Helvetica,sans-Serif" font-size="10.00">AP_HAL::panic</text>
</a>
</g>
</g>
<!-- Node2&#45;&gt;Node8 -->
<g id="edge7_Node000002_Node000008" class="edge">
<title>Node2&#45;&gt;Node8</title>
<g id="a_edge7_Node000002_Node000008"><a xlink:title=" ">
<path fill="none" stroke="#63b8ff" d="M251.01,-116.98C257.93,-114.44 264.89,-111.31 271,-107.5 290.47,-95.35 287.26,-82.19 307,-70.5 311.13,-68.06 315.6,-65.93 320.2,-64.09"/>
<polygon fill="#63b8ff" stroke="#63b8ff" points="321.5,-67.34 329.75,-60.69 319.15,-60.75 321.5,-67.34"/>
</a>
</g>
</g>
<!-- Node4 -->
<g id="Node000004" class="node">
<title>Node4</title>
<g id="a_Node000004"><a xlink:href="classAP__AHRS.html#af481888f56602f793fc8d9895d14a8c9" target="_top" xlink:title=" ">
<polygon fill="white" stroke="#666666" points="609,-210 475,-210 475,-191 609,-191 609,-210"/>
<text text-anchor="middle" x="542" y="-198" font-family="Helvetica,sans-Serif" font-size="10.00">AP_AHRS::get_singleton</text>
</a>
</g>
</g>
<!-- Node3&#45;&gt;Node4 -->
<g id="edge3_Node000003_Node000004" class="edge">
<title>Node3&#45;&gt;Node4</title>
<g id="a_edge3_Node000003_Node000004"><a xlink:title=" ">
<path fill="none" stroke="#63b8ff" d="M401.2,-200.5C418.59,-200.5 442.08,-200.5 464.84,-200.5"/>
<polygon fill="#63b8ff" stroke="#63b8ff" points="464.87,-204 474.87,-200.5 464.87,-197 464.87,-204"/>
</a>
</g>
</g>
<!-- Node9 -->
<g id="Node000009" class="node">
<title>Node9</title>
<g id="a_Node000009"><a xlink:href="classAP__HAL_1_1Scheduler.html#ab3175e2e6223ccfe82f957e41cc12b26" target="_top" xlink:title=" ">
<polygon fill="white" stroke="#666666" points="599,-115.5 485,-115.5 485,-85.5 599,-85.5 599,-115.5"/>
<text text-anchor="start" x="493" y="-103.5" font-family="Helvetica,sans-Serif" font-size="10.00">AP_HAL::Scheduler::</text>
<text text-anchor="middle" x="542" y="-92.5" font-family="Helvetica,sans-Serif" font-size="10.00">delay</text>
</a>
</g>
</g>
<!-- Node8&#45;&gt;Node9 -->
<g id="edge8_Node000008_Node000009" class="edge">
<title>Node8&#45;&gt;Node9</title>
<g id="a_edge8_Node000008_Node000009"><a xlink:title=" ">
<path fill="none" stroke="#63b8ff" d="M408.77,-62.02C418.56,-64.73 429.2,-67.7 439,-70.5 452.5,-74.35 466.98,-78.56 480.66,-82.58"/>
<polygon fill="#63b8ff" stroke="#63b8ff" points="479.88,-86 490.46,-85.46 481.86,-79.28 479.88,-86"/>
</a>
</g>
</g>
<!-- Node10 -->
<g id="Node000010" class="node">
<title>Node10</title>
<g id="a_Node000010"><a xlink:href="classAP__HAL_1_1Scheduler.html#a78c4f1b1f192ac1c99544b6cc8f099b0" target="_top" xlink:title=" ">
<polygon fill="white" stroke="#666666" points="600,-67.5 484,-67.5 484,-37.5 600,-37.5 600,-67.5"/>
<text text-anchor="start" x="492" y="-55.5" font-family="Helvetica,sans-Serif" font-size="10.00">AP_HAL::Scheduler::</text>
<text text-anchor="middle" x="542" y="-44.5" font-family="Helvetica,sans-Serif" font-size="10.00">delay_microseconds</text>
</a>
</g>
</g>
<!-- Node8&#45;&gt;Node10 -->
<g id="edge9_Node000008_Node000010" class="edge">
<title>Node8&#45;&gt;Node10</title>
<g id="a_edge9_Node000008_Node000010"><a xlink:title=" ">
<path fill="none" stroke="#63b8ff" d="M416.14,-52.5C433.59,-52.5 454.25,-52.5 473.7,-52.5"/>
<polygon fill="#63b8ff" stroke="#63b8ff" points="473.73,-56 483.73,-52.5 473.73,-49 473.73,-56"/>
</a>
</g>
</g>
<!-- Node11 -->
<g id="Node000011" class="node">
<title>Node11</title>
<g id="a_Node000011"><a xlink:href="stdio_8h.html#aae132cc6af1eb6cf43bf011d8d63e854" target="_top" xlink:title=" ">
<polygon fill="white" stroke="#666666" points="566.5,-19 517.5,-19 517.5,0 566.5,0 566.5,-19"/>
<text text-anchor="middle" x="542" y="-7" font-family="Helvetica,sans-Serif" font-size="10.00">vprintf</text>
</a>
</g>
</g>
<!-- Node8&#45;&gt;Node11 -->
<g id="edge10_Node000008_Node000011" class="edge">
<title>Node8&#45;&gt;Node11</title>
<g id="a_edge10_Node000008_Node000011"><a xlink:title=" ">
<path fill="none" stroke="#63b8ff" d="M411.06,-42.96C439.99,-35.51 479.82,-25.25 507.73,-18.07"/>
<polygon fill="#63b8ff" stroke="#63b8ff" points="508.62,-21.45 517.43,-15.57 506.88,-14.67 508.62,-21.45"/>
</a>
</g>
</g>
</g>
</svg>
