<?xml version="1.0" encoding="UTF-8" standalone="no"?>
<!DOCTYPE svg PUBLIC "-//W3C//DTD SVG 1.1//EN"
 "http://www.w3.org/Graphics/SVG/1.1/DTD/svg11.dtd">
<!-- Generated by graphviz version 2.43.0 (0)
 -->
<!-- Title: SITL::CRRCSim::update Pages: 1 -->
<svg width="620pt" height="86pt"
 viewBox="0.00 0.00 620.00 86.00" xmlns="http://www.w3.org/2000/svg" xmlns:xlink="http://www.w3.org/1999/xlink">
<g id="graph0" class="graph" transform="scale(1 1) rotate(0) translate(4 82)">
<title>SITL::CRRCSim::update</title>
<!-- Node1 -->
<g id="Node000001" class="node">
<title>Node1</title>
<g id="a_Node000001"><a xlink:title=" ">
<polygon fill="#999999" stroke="#666666" points="128,-48.5 0,-48.5 0,-29.5 128,-29.5 128,-48.5"/>
<text text-anchor="middle" x="64" y="-36.5" font-family="Helvetica,sans-Serif" font-size="10.00">SITL::CRRCSim::update</text>
</a>
</g>
</g>
<!-- Node2 -->
<g id="Node000002" class="node">
<title>Node2</title>
<g id="a_Node000002"><a xlink:href="classSITL_1_1CRRCSim.html#a710d8276d948bfc5b82c8b57f406b65e" target="_top" xlink:title=" ">
<polygon fill="white" stroke="#666666" points="304,-67.5 164,-67.5 164,-48.5 304,-48.5 304,-67.5"/>
<text text-anchor="middle" x="234" y="-55.5" font-family="Helvetica,sans-Serif" font-size="10.00">SITL::CRRCSim::recv_fdm</text>
</a>
</g>
</g>
<!-- Node1&#45;&gt;Node2 -->
<g id="edge1_Node000001_Node000002" class="edge">
<title>Node1&#45;&gt;Node2</title>
<g id="a_edge1_Node000001_Node000002"><a xlink:title=" ">
<path fill="none" stroke="#63b8ff" d="M128.03,-46.13C136.47,-47.08 145.2,-48.07 153.86,-49.05"/>
<polygon fill="#63b8ff" stroke="#63b8ff" points="153.65,-52.55 163.98,-50.19 154.44,-45.59 153.65,-52.55"/>
</a>
</g>
</g>
<!-- Node3 -->
<g id="Node000003" class="node">
<title>Node3</title>
<g id="a_Node000003"><a xlink:href="classSITL_1_1CRRCSim.html#afd2b511bcb59aa852351f5ecfa3d72bc" target="_top" xlink:title=" ">
<polygon fill="white" stroke="#666666" points="458,-54 340,-54 340,-24 458,-24 458,-54"/>
<text text-anchor="start" x="348" y="-42" font-family="Helvetica,sans-Serif" font-size="10.00">SITL::CRRCSim::send</text>
<text text-anchor="middle" x="399" y="-31" font-family="Helvetica,sans-Serif" font-size="10.00">_servos</text>
</a>
</g>
</g>
<!-- Node1&#45;&gt;Node3 -->
<g id="edge5_Node000001_Node000003" class="edge">
<title>Node1&#45;&gt;Node3</title>
<g id="a_edge5_Node000001_Node000003"><a xlink:title=" ">
<path fill="none" stroke="#63b8ff" d="M128.03,-39C185.69,-39 270.78,-39 329.97,-39"/>
<polygon fill="#63b8ff" stroke="#63b8ff" points="329.97,-42.5 339.97,-39 329.97,-35.5 329.97,-42.5"/>
</a>
</g>
</g>
<!-- Node2&#45;&gt;Node3 -->
<g id="edge2_Node000002_Node000003" class="edge">
<title>Node2&#45;&gt;Node3</title>
<g id="a_edge2_Node000002_Node000003"><a xlink:title=" ">
<path fill="none" stroke="#63b8ff" d="M304.13,-49.94C312.58,-48.96 321.21,-47.95 329.65,-46.97"/>
<polygon fill="#63b8ff" stroke="#63b8ff" points="330.3,-50.42 339.82,-45.78 329.49,-43.46 330.3,-50.42"/>
</a>
</g>
</g>
<!-- Node4 -->
<g id="Node000004" class="node">
<title>Node4</title>
<g id="a_Node000004"><a xlink:href="classSITL_1_1CRRCSim.html#a72a2668eaa8f75514aeaba0a5d46f141" target="_top" xlink:title=" ">
<polygon fill="white" stroke="#666666" points="612,-78 494,-78 494,-48 612,-48 612,-78"/>
<text text-anchor="start" x="502" y="-66" font-family="Helvetica,sans-Serif" font-size="10.00">SITL::CRRCSim::send</text>
<text text-anchor="middle" x="553" y="-55" font-family="Helvetica,sans-Serif" font-size="10.00">_servos_fixed_wing</text>
</a>
</g>
</g>
<!-- Node3&#45;&gt;Node4 -->
<g id="edge3_Node000003_Node000004" class="edge">
<title>Node3&#45;&gt;Node4</title>
<g id="a_edge3_Node000003_Node000004"><a xlink:title=" ">
<path fill="none" stroke="#63b8ff" d="M458.33,-48.21C466.7,-49.53 475.36,-50.9 483.9,-52.25"/>
<polygon fill="#63b8ff" stroke="#63b8ff" points="483.4,-55.71 493.82,-53.81 484.49,-48.8 483.4,-55.71"/>
</a>
</g>
</g>
<!-- Node5 -->
<g id="Node000005" class="node">
<title>Node5</title>
<g id="a_Node000005"><a xlink:href="classSITL_1_1CRRCSim.html#a52c305ff3ea02cd2ec53f998616d1953" target="_top" xlink:title=" ">
<polygon fill="white" stroke="#666666" points="612,-30 494,-30 494,0 612,0 612,-30"/>
<text text-anchor="start" x="502" y="-18" font-family="Helvetica,sans-Serif" font-size="10.00">SITL::CRRCSim::send</text>
<text text-anchor="middle" x="553" y="-7" font-family="Helvetica,sans-Serif" font-size="10.00">_servos_heli</text>
</a>
</g>
</g>
<!-- Node3&#45;&gt;Node5 -->
<g id="edge4_Node000003_Node000005" class="edge">
<title>Node3&#45;&gt;Node5</title>
<g id="a_edge4_Node000003_Node000005"><a xlink:title=" ">
<path fill="none" stroke="#63b8ff" d="M458.33,-29.79C466.7,-28.47 475.36,-27.1 483.9,-25.75"/>
<polygon fill="#63b8ff" stroke="#63b8ff" points="484.49,-29.2 493.82,-24.19 483.4,-22.29 484.49,-29.2"/>
</a>
</g>
</g>
</g>
</svg>
