<?xml version="1.0" encoding="UTF-8" standalone="no"?>
<!DOCTYPE svg PUBLIC "-//W3C//DTD SVG 1.1//EN"
 "http://www.w3.org/Graphics/SVG/1.1/DTD/svg11.dtd">
<!-- Generated by graphviz version 2.43.0 (0)
 -->
<!-- Title: Linux::RCOutput_AeroIO::_usec_to_hw Pages: 1 -->
<svg width="652pt" height="220pt"
 viewBox="0.00 0.00 652.00 220.00" xmlns="http://www.w3.org/2000/svg" xmlns:xlink="http://www.w3.org/1999/xlink">
<g id="graph0" class="graph" transform="scale(1 1) rotate(0) translate(4 216)">
<title>Linux::RCOutput_AeroIO::_usec_to_hw</title>
<!-- Node1 -->
<g id="Node000001" class="node">
<title>Node1</title>
<g id="a_Node000001"><a xlink:title=" ">
<polygon fill="#999999" stroke="#666666" points="644,-121 510,-121 510,-91 644,-91 644,-121"/>
<text text-anchor="start" x="518" y="-109" font-family="Helvetica,sans-Serif" font-size="10.00">Linux::RCOutput_AeroIO</text>
<text text-anchor="middle" x="577" y="-98" font-family="Helvetica,sans-Serif" font-size="10.00">::_usec_to_hw</text>
</a>
</g>
</g>
<!-- Node2 -->
<g id="Node000002" class="node">
<title>Node2</title>
<g id="a_Node000002"><a xlink:href="classLinux_1_1RCOutput__AeroIO.html#af2acf35f44d06d9da38fec58ed4b9573" target="_top" xlink:title=" ">
<polygon fill="white" stroke="#666666" points="474,-121 340,-121 340,-91 474,-91 474,-121"/>
<text text-anchor="start" x="348" y="-109" font-family="Helvetica,sans-Serif" font-size="10.00">Linux::RCOutput_AeroIO</text>
<text text-anchor="middle" x="407" y="-98" font-family="Helvetica,sans-Serif" font-size="10.00">::push</text>
</a>
</g>
</g>
<!-- Node1&#45;&gt;Node2 -->
<g id="edge1_Node000001_Node000002" class="edge">
<title>Node1&#45;&gt;Node2</title>
<g id="a_edge1_Node000001_Node000002"><a xlink:title=" ">
<path fill="none" stroke="#63b8ff" d="M499.41,-106C490.99,-106 482.47,-106 474.19,-106"/>
<polygon fill="#63b8ff" stroke="#63b8ff" points="499.6,-109.5 509.6,-106 499.6,-102.5 499.6,-109.5"/>
</a>
</g>
</g>
<!-- Node3 -->
<g id="Node000003" class="node">
<title>Node3</title>
<g id="a_Node000003"><a xlink:href="classLinux_1_1RCOutput__AeroIO.html#ae725d49c751f11a93ccbeebfac9c2848" target="_top" xlink:title=" ">
<polygon fill="white" stroke="#666666" points="304,-212 170,-212 170,-182 304,-182 304,-212"/>
<text text-anchor="start" x="178" y="-200" font-family="Helvetica,sans-Serif" font-size="10.00">Linux::RCOutput_AeroIO</text>
<text text-anchor="middle" x="237" y="-189" font-family="Helvetica,sans-Serif" font-size="10.00">::disable_ch</text>
</a>
</g>
</g>
<!-- Node2&#45;&gt;Node3 -->
<g id="edge2_Node000002_Node000003" class="edge">
<title>Node2&#45;&gt;Node3</title>
<g id="a_edge2_Node000002_Node000003"><a xlink:title=" ">
<path fill="none" stroke="#63b8ff" d="M377.84,-127.07C357.93,-141.31 330.23,-159.84 304,-173 297.57,-176.23 290.6,-179.24 283.68,-181.97"/>
<polygon fill="#63b8ff" stroke="#63b8ff" points="380.09,-129.76 386.13,-121.06 375.98,-124.09 380.09,-129.76"/>
</a>
</g>
</g>
<!-- Node4 -->
<g id="Node000004" class="node">
<title>Node4</title>
<g id="a_Node000004"><a xlink:href="classLinux_1_1RCOutput__AeroIO.html#a3f223f56afa2e8e8631d74ca4d8f42ad" target="_top" xlink:title=" ">
<polygon fill="white" stroke="#666666" points="304,-164 170,-164 170,-134 304,-134 304,-164"/>
<text text-anchor="start" x="178" y="-152" font-family="Helvetica,sans-Serif" font-size="10.00">Linux::RCOutput_AeroIO</text>
<text text-anchor="middle" x="237" y="-141" font-family="Helvetica,sans-Serif" font-size="10.00">::enable_ch</text>
</a>
</g>
</g>
<!-- Node2&#45;&gt;Node4 -->
<g id="edge3_Node000002_Node000004" class="edge">
<title>Node2&#45;&gt;Node4</title>
<g id="a_edge3_Node000002_Node000004"><a xlink:title=" ">
<path fill="none" stroke="#63b8ff" d="M337.51,-123.53C323.98,-126.99 309.9,-130.6 296.73,-133.97"/>
<polygon fill="#63b8ff" stroke="#63b8ff" points="338.42,-126.91 347.24,-121.04 336.69,-120.13 338.42,-126.91"/>
</a>
</g>
</g>
<!-- Node5 -->
<g id="Node000005" class="node">
<title>Node5</title>
<g id="a_Node000005"><a xlink:href="classLinux_1_1RCOutput__AeroIO.html#a1df6eb697922f24aa97692268b2f10ca" target="_top" xlink:title=" ">
<polygon fill="white" stroke="#666666" points="134,-78 0,-78 0,-48 134,-48 134,-78"/>
<text text-anchor="start" x="8" y="-66" font-family="Helvetica,sans-Serif" font-size="10.00">Linux::RCOutput_AeroIO</text>
<text text-anchor="middle" x="67" y="-55" font-family="Helvetica,sans-Serif" font-size="10.00">::init</text>
</a>
</g>
</g>
<!-- Node2&#45;&gt;Node5 -->
<g id="edge4_Node000002_Node000005" class="edge">
<title>Node2&#45;&gt;Node5</title>
<g id="a_edge4_Node000002_Node000005"><a xlink:title=" ">
<path fill="none" stroke="#63b8ff" d="M329.55,-102.77C283.18,-100.09 222.95,-95.31 170,-87 155.35,-84.7 139.69,-81.43 125.15,-78.05"/>
<polygon fill="#63b8ff" stroke="#63b8ff" points="329.64,-106.28 339.82,-103.34 330.03,-99.29 329.64,-106.28"/>
</a>
</g>
</g>
<!-- Node6 -->
<g id="Node000006" class="node">
<title>Node6</title>
<g id="a_Node000006"><a xlink:href="classLinux_1_1RCOutput__AeroIO.html#ac8a38fde0b14bc4f038e2fe2ce37bc26" target="_top" xlink:title=" ">
<polygon fill="white" stroke="#666666" points="304,-78 170,-78 170,-48 304,-48 304,-78"/>
<text text-anchor="start" x="178" y="-66" font-family="Helvetica,sans-Serif" font-size="10.00">Linux::RCOutput_AeroIO</text>
<text text-anchor="middle" x="237" y="-55" font-family="Helvetica,sans-Serif" font-size="10.00">::set_freq</text>
</a>
</g>
</g>
<!-- Node2&#45;&gt;Node6 -->
<g id="edge5_Node000002_Node000006" class="edge">
<title>Node2&#45;&gt;Node6</title>
<g id="a_edge5_Node000002_Node000006"><a xlink:title=" ">
<path fill="none" stroke="#63b8ff" d="M337.51,-88.47C323.98,-85.01 309.9,-81.4 296.73,-78.03"/>
<polygon fill="#63b8ff" stroke="#63b8ff" points="336.69,-91.87 347.24,-90.96 338.42,-85.09 336.69,-91.87"/>
</a>
</g>
</g>
<!-- Node7 -->
<g id="Node000007" class="node">
<title>Node7</title>
<g id="a_Node000007"><a xlink:href="classLinux_1_1RCOutput__AeroIO.html#ae3690e60988e51ba858d25b0262f5cc6" target="_top" xlink:title=" ">
<polygon fill="white" stroke="#666666" points="304,-30 170,-30 170,0 304,0 304,-30"/>
<text text-anchor="start" x="178" y="-18" font-family="Helvetica,sans-Serif" font-size="10.00">Linux::RCOutput_AeroIO</text>
<text text-anchor="middle" x="237" y="-7" font-family="Helvetica,sans-Serif" font-size="10.00">::write</text>
</a>
</g>
</g>
<!-- Node2&#45;&gt;Node7 -->
<g id="edge7_Node000002_Node000007" class="edge">
<title>Node2&#45;&gt;Node7</title>
<g id="a_edge7_Node000002_Node000007"><a xlink:title=" ">
<path fill="none" stroke="#63b8ff" d="M377.84,-84.93C357.93,-70.69 330.23,-52.16 304,-39 297.57,-35.77 290.6,-32.76 283.68,-30.03"/>
<polygon fill="#63b8ff" stroke="#63b8ff" points="375.98,-87.91 386.13,-90.94 380.09,-82.24 375.98,-87.91"/>
</a>
</g>
</g>
<!-- Node6&#45;&gt;Node5 -->
<g id="edge6_Node000006_Node000005" class="edge">
<title>Node6&#45;&gt;Node5</title>
<g id="a_edge6_Node000006_Node000005"><a xlink:title=" ">
<path fill="none" stroke="#63b8ff" d="M159.41,-63C150.99,-63 142.47,-63 134.19,-63"/>
<polygon fill="#63b8ff" stroke="#63b8ff" points="159.6,-66.5 169.6,-63 159.6,-59.5 159.6,-66.5"/>
</a>
</g>
</g>
<!-- Node7&#45;&gt;Node5 -->
<g id="edge8_Node000007_Node000005" class="edge">
<title>Node7&#45;&gt;Node5</title>
<g id="a_edge8_Node000007_Node000005"><a xlink:title=" ">
<path fill="none" stroke="#63b8ff" d="M173.25,-32.93C155.89,-37.89 137.23,-43.22 120.51,-48"/>
<polygon fill="#63b8ff" stroke="#63b8ff" points="174.65,-36.17 183.3,-30.06 172.73,-29.44 174.65,-36.17"/>
</a>
</g>
</g>
</g>
</svg>
