<?xml version="1.0" encoding="UTF-8" standalone="no"?>
<!DOCTYPE svg PUBLIC "-//W3C//DTD SVG 1.1//EN"
 "http://www.w3.org/Graphics/SVG/1.1/DTD/svg11.dtd">
<!-- Generated by graphviz version 2.43.0 (0)
 -->
<!-- Title: AP_Compass_IST8308::init Pages: 1 -->
<!--zoomable 73 -->

<svg id="main" version="1.1" xmlns="http://www.w3.org/2000/svg" xmlns:xlink="http://www.w3.org/1999/xlink" xml:space="preserve" onload="init(evt)">
<style type="text/css"><![CDATA[
.node, .edge {opacity: 0.7;}
.node.selected, .edge.selected {opacity: 1;}
.edge:hover path { stroke: red; }
.edge:hover polygon { stroke: red; fill: red; }
]]></style>

<defs>
  <circle id="rim" cx="0" cy="0" r="7"/>
  <circle id="rim2" cx="0" cy="0" r="3.5"/>
  <g id="zoomPlus">
    <use xlink:href="#rim" fill="#404040"><set attributeName="fill" to="#808080" begin="zoomplus.mouseover" end="zoomplus.mouseout"/></use>
    <path d="M-4,0h8M0,-4v8" fill="none" stroke="white" stroke-width="1.5" pointer-events="none"/>
  </g>
  <g id="zoomMin">
    <use xlink:href="#rim" fill="#404040"><set attributeName="fill" to="#808080" begin="zoomminus.mouseover" end="zoomminus.mouseout"/></use>
    <path d="M-4,0h8" fill="none" stroke="white" stroke-width="1.5" pointer-events="none"/>
  </g>
  <g id="arrowUp" transform="translate(30 24)">
    <use xlink:href="#rim"/>
    <path pointer-events="none" fill="none" stroke="white" stroke-width="1.5" d="M0,-3.0v7 M-2.5,-0.5L0,-3.0L2.5,-0.5"/>
  </g>
  <g id="arrowRight" transform="rotate(90) translate(36 -43)">
    <use xlink:href="#rim"/>
    <path pointer-events="none" fill="none" stroke="white" stroke-width="1.5" d="M0,-3.0v7 M-2.5,-0.5L0,-3.0L2.5,-0.5"/>
  </g>
  <g id="arrowDown" transform="rotate(180) translate(-30 -48)">
    <use xlink:href="#rim"/>
    <path pointer-events="none" fill="none" stroke="white" stroke-width="1.5" d="M0,-3.0v7 M-2.5,-0.5L0,-3.0L2.5,-0.5"/>
  </g>
  <g id="arrowLeft" transform="rotate(270) translate(-36 17)">
    <use xlink:href="#rim"/>
    <path pointer-events="none" fill="none" stroke="white" stroke-width="1.5" d="M0,-3.0v7 M-2.5,-0.5L0,-3.0L2.5,-0.5"/>
  </g>
  <g id="resetDef">
    <use xlink:href="#rim2" fill="#404040"><set attributeName="fill" to="#808080" begin="reset.mouseover" end="reset.mouseout"/></use>
  </g>
</defs>
<script type="application/ecmascript">
var viewWidth = 1015;
var viewHeight = 73;
var sectionId = 'dynsection-4';
</script>
<script type="application/ecmascript" xlink:href="svg.min.js"/>
<svg id="graph" class="graph">
<g id="viewport">
<title>AP_Compass_IST8308::init</title>
<!-- Node1 -->
<g id="Node000001" class="node">
<title>Node1</title>
<g id="a_Node000001"><a xlink:title=" ">
<polygon fill="#999999" stroke="#666666" points="1007,-51 883,-51 883,-21 1007,-21 1007,-51"/>
<text text-anchor="start" x="891" y="-39" font-family="Helvetica,sans-Serif" font-size="10.00">AP_Compass_IST8308</text>
<text text-anchor="middle" x="945" y="-28" font-family="Helvetica,sans-Serif" font-size="10.00">::init</text>
</a>
</g>
</g>
<!-- Node2 -->
<g id="Node000002" class="node">
<title>Node2</title>
<g id="a_Node000002"><a xlink:href="classAP__Compass__IST8308.html#a173673c5186c86ef17579f7e93528562" target="_top" xlink:title=" ">
<polygon fill="white" stroke="#666666" points="847,-51 723,-51 723,-21 847,-21 847,-51"/>
<text text-anchor="start" x="731" y="-39" font-family="Helvetica,sans-Serif" font-size="10.00">AP_Compass_IST8308</text>
<text text-anchor="middle" x="785" y="-28" font-family="Helvetica,sans-Serif" font-size="10.00">::probe</text>
</a>
</g>
</g>
<!-- Node1&#45;&gt;Node2 -->
<g id="edge1_Node000001_Node000002" class="edge">
<title>Node1&#45;&gt;Node2</title>
<g id="a_edge1_Node000001_Node000002"><a xlink:title=" ">
<path fill="none" stroke="#63b8ff" d="M872.63,-36C864.14,-36 855.52,-36 847.18,-36"/>
<polygon fill="#63b8ff" stroke="#63b8ff" points="872.91,-39.5 882.91,-36 872.91,-32.5 872.91,-39.5"/>
</a>
</g>
</g>
<!-- Node3 -->
<g id="Node000003" class="node">
<title>Node3</title>
<g id="a_Node000003"><a xlink:href="classCompass.html#a766d77e1b78dc08be50ba76994c8b4ab" target="_top" xlink:title=" ">
<polygon fill="white" stroke="#666666" points="687,-51 541,-51 541,-21 687,-21 687,-51"/>
<text text-anchor="start" x="549" y="-39" font-family="Helvetica,sans-Serif" font-size="10.00">Compass::_probe_external</text>
<text text-anchor="middle" x="614" y="-28" font-family="Helvetica,sans-Serif" font-size="10.00">_i2c_compasses</text>
</a>
</g>
</g>
<!-- Node2&#45;&gt;Node3 -->
<g id="edge2_Node000002_Node000003" class="edge">
<title>Node2&#45;&gt;Node3</title>
<g id="a_edge2_Node000002_Node000003"><a xlink:title=" ">
<path fill="none" stroke="#63b8ff" d="M712.76,-36C704.29,-36 695.63,-36 687.15,-36"/>
<polygon fill="#63b8ff" stroke="#63b8ff" points="712.99,-39.5 722.99,-36 712.99,-32.5 712.99,-39.5"/>
</a>
</g>
</g>
<!-- Node4 -->
<g id="Node000004" class="node">
<title>Node4</title>
<g id="a_Node000004"><a xlink:href="classCompass.html#a1c48170d8c8966b22fb150b1634443ec" target="_top" xlink:title=" ">
<polygon fill="white" stroke="#666666" points="354,-45.5 199,-45.5 199,-26.5 354,-26.5 354,-45.5"/>
<text text-anchor="middle" x="276.5" y="-33.5" font-family="Helvetica,sans-Serif" font-size="10.00">Compass::_detect_backends</text>
</a>
</g>
</g>
<!-- Node3&#45;&gt;Node4 -->
<g id="edge3_Node000003_Node000004" class="edge">
<title>Node3&#45;&gt;Node4</title>
<g id="a_edge3_Node000003_Node000004"><a xlink:title=" ">
<path fill="none" stroke="#63b8ff" d="M530.78,-38.52C522.08,-38.72 513.36,-38.88 505,-39 453.89,-39.71 441.11,-39.68 390,-39 378.38,-38.85 366.08,-38.6 354.05,-38.32"/>
<polygon fill="#63b8ff" stroke="#63b8ff" points="531.06,-42.02 540.97,-38.28 530.89,-35.02 531.06,-42.02"/>
</a>
</g>
</g>
<!-- Node8 -->
<g id="Node000008" class="node">
<title>Node8</title>
<g id="a_Node000008"><a xlink:href="classCompass.html#a0f869a4e64bfe1c9b86265c71b73e0e8" target="_top" xlink:title=" ">
<polygon fill="white" stroke="#666666" points="505,-30 390,-30 390,0 505,0 505,-30"/>
<text text-anchor="start" x="398" y="-18" font-family="Helvetica,sans-Serif" font-size="10.00">Compass::probe_i2c</text>
<text text-anchor="middle" x="447.5" y="-7" font-family="Helvetica,sans-Serif" font-size="10.00">_spi_compasses</text>
</a>
</g>
</g>
<!-- Node3&#45;&gt;Node8 -->
<g id="edge7_Node000003_Node000008" class="edge">
<title>Node3&#45;&gt;Node8</title>
<g id="a_edge7_Node000003_Node000008"><a xlink:title=" ">
<path fill="none" stroke="#63b8ff" d="M530.75,-25.5C522.13,-24.4 513.51,-23.3 505.27,-22.25"/>
<polygon fill="#63b8ff" stroke="#63b8ff" points="530.49,-28.99 540.85,-26.79 531.37,-22.05 530.49,-28.99"/>
</a>
</g>
</g>
<!-- Node5 -->
<g id="Node000005" class="node">
<title>Node5</title>
<g id="a_Node000005"><a xlink:href="classCompass.html#a79db6bfd3fe309c6258d783f126326c6" target="_top" xlink:title=" ">
<polygon fill="white" stroke="#666666" points="163,-45.5 80,-45.5 80,-26.5 163,-26.5 163,-45.5"/>
<text text-anchor="middle" x="121.5" y="-33.5" font-family="Helvetica,sans-Serif" font-size="10.00">Compass::init</text>
</a>
</g>
</g>
<!-- Node4&#45;&gt;Node5 -->
<g id="edge4_Node000004_Node000005" class="edge">
<title>Node4&#45;&gt;Node5</title>
<g id="a_edge4_Node000004_Node000005"><a xlink:title=" ">
<path fill="none" stroke="#63b8ff" d="M188.29,-36C179.59,-36 171.08,-36 163.23,-36"/>
<polygon fill="#63b8ff" stroke="#63b8ff" points="188.55,-39.5 198.55,-36 188.55,-32.5 188.55,-39.5"/>
</a>
</g>
</g>
<!-- Node6 -->
<g id="Node000006" class="node">
<title>Node6</title>
<g id="a_Node000006"><a xlink:href="AHRS__Test_8cpp.html#a4fc01d736fe50cf5b977f755b675f11d" target="_top" xlink:title=" ">
<polygon fill="white" stroke="#666666" points="44,-64.5 0,-64.5 0,-45.5 44,-45.5 44,-64.5"/>
<text text-anchor="middle" x="22" y="-52.5" font-family="Helvetica,sans-Serif" font-size="10.00">setup</text>
</a>
</g>
</g>
<!-- Node5&#45;&gt;Node6 -->
<g id="edge5_Node000005_Node000006" class="edge">
<title>Node5&#45;&gt;Node6</title>
<g id="a_edge5_Node000005_Node000006"><a xlink:title=" ">
<path fill="none" stroke="#63b8ff" d="M70.07,-45.83C60.89,-47.62 51.78,-49.39 44.07,-50.89"/>
<polygon fill="#63b8ff" stroke="#63b8ff" points="70.85,-49.24 80,-43.89 69.51,-42.37 70.85,-49.24"/>
</a>
</g>
</g>
<!-- Node7 -->
<g id="Node000007" class="node">
<title>Node7</title>
<g id="a_Node000007"><a xlink:href="AP__Compass__test_8cpp.html#a90de5b68ab8defa635679fc0620fb698" target="_top" xlink:title=" ">
<polygon fill="white" stroke="#666666" points="44,-27.5 0,-27.5 0,-8.5 44,-8.5 44,-27.5"/>
<text text-anchor="middle" x="22" y="-15.5" font-family="Helvetica,sans-Serif" font-size="10.00">setup</text>
</a>
</g>
</g>
<!-- Node5&#45;&gt;Node7 -->
<g id="edge6_Node000005_Node000007" class="edge">
<title>Node5&#45;&gt;Node7</title>
<g id="a_edge6_Node000005_Node000007"><a xlink:title=" ">
<path fill="none" stroke="#63b8ff" d="M70.07,-26.69C60.89,-24.99 51.78,-23.31 44.07,-21.89"/>
<polygon fill="#63b8ff" stroke="#63b8ff" points="69.53,-30.15 80,-28.52 70.8,-23.27 69.53,-30.15"/>
</a>
</g>
</g>
<!-- Node8&#45;&gt;Node4 -->
<g id="edge8_Node000008_Node000004" class="edge">
<title>Node8&#45;&gt;Node4</title>
<g id="a_edge8_Node000008_Node000004"><a xlink:title=" ">
<path fill="none" stroke="#63b8ff" d="M379.69,-23.3C371.33,-24.34 362.72,-25.41 354.21,-26.47"/>
<polygon fill="#63b8ff" stroke="#63b8ff" points="380.26,-26.76 389.76,-22.05 379.4,-19.81 380.26,-26.76"/>
</a>
</g>
</g>
</g>
</svg>

<g id="navigator" transform="translate(0 0)" fill="#404254">
  <rect fill="#f2f5e9" fill-opacity="0.5" stroke="#606060" stroke-width=".5" x="0" y="0" width="60" height="60"/>
  <use id="zoomplus" xlink:href="#zoomPlus" x="17" y="9" onmousedown="handleZoom(evt,'in')"/>
  <use id="zoomminus" xlink:href="#zoomMin" x="42" y="9" onmousedown="handleZoom(evt,'out')"/>
  <use id="reset" xlink:href="#resetDef" x="30" y="36" onmousedown="handleReset()"/>
   <use id="arrowup" xlink:href="#arrowUp" x="0" y="0" onmousedown="handlePan(0,-1)"/>
  <use id="arrowright" xlink:href="#arrowRight" x="0" y="0" onmousedown="handlePan(1,0)"/>
  <use id="arrowdown" xlink:href="#arrowDown" x="0" y="0" onmousedown="handlePan(0,1)"/>
  <use id="arrowleft" xlink:href="#arrowLeft" x="0" y="0" onmousedown="handlePan(-1,0)"/>
</g>
<svg viewBox="0 0 15 15" width="100%" height="30px" preserveAspectRatio="xMaxYMin meet">
 <g id="arrow_out" transform="scale(0.3 0.3)">
  <a xlink:href="classAP__Compass__IST8308_a58d7d320cef74856326a30048b8f9f36_icgraph_org.svg" target="_base">
   <rect id="button" ry="5" rx="5" y="6" x="6" height="38" width="38"
        fill="#f2f5e9" fill-opacity="0.5" stroke="#606060" stroke-width="1.0"/>
   <path id="arrow"
     d="M 11.500037,31.436501 C 11.940474,20.09759 22.043105,11.32322 32.158766,21.979434 L 37.068811,17.246167 C 37.068811,17.246167 37.088388,32 37.088388,32 L 22.160133,31.978069 C 22.160133,31.978069 26.997745,27.140456 26.997745,27.140456 C 18.528582,18.264221 13.291696,25.230495 11.500037,31.436501 z"
     style="fill:#404040;"/>
  </a>
 </g>
</svg>

<style type='text/css'>
<![CDATA[
[data-mouse-over-selected='false'] { opacity: 0.7; }
[data-mouse-over-selected='true']  { opacity: 1.0; }
]]>
</style>
<script type="application/ecmascript"><![CDATA[
document.addEventListener('DOMContentLoaded', (event) => {
  highlightEdges();
  highlightAdjacentNodes();
});
]]></script>
</svg>
