<?xml version="1.0" encoding="UTF-8" standalone="no"?>
<!DOCTYPE svg PUBLIC "-//W3C//DTD SVG 1.1//EN"
 "http://www.w3.org/Graphics/SVG/1.1/DTD/svg11.dtd">
<!-- Generated by graphviz version 2.43.0 (0)
 -->
<!-- Title: NavEKF2::resetHeightDatum Pages: 1 -->
<svg width="611pt" height="64pt"
 viewBox="0.00 0.00 611.00 64.00" xmlns="http://www.w3.org/2000/svg" xmlns:xlink="http://www.w3.org/1999/xlink">
<g id="graph0" class="graph" transform="scale(1 1) rotate(0) translate(4 60)">
<title>NavEKF2::resetHeightDatum</title>
<!-- Node1 -->
<g id="Node000001" class="node">
<title>Node1</title>
<g id="a_Node000001"><a xlink:title=" ">
<polygon fill="#999999" stroke="#666666" points="157,-37 0,-37 0,-18 157,-18 157,-37"/>
<text text-anchor="middle" x="78.5" y="-25" font-family="Helvetica,sans-Serif" font-size="10.00">NavEKF2::resetHeightDatum</text>
</a>
</g>
</g>
<!-- Node1&#45;&gt;Node1 -->
<g id="edge6_Node000001_Node000001" class="edge">
<title>Node1&#45;&gt;Node1</title>
<g id="a_edge6_Node000001_Node000001"><a xlink:title=" ">
<path fill="none" stroke="#63b8ff" d="M52.3,-37.08C39.55,-45.73 48.29,-55 78.5,-55 98.8,-55 109.4,-50.82 110.31,-45.45"/>
<polygon fill="#63b8ff" stroke="#63b8ff" points="113.18,-43.44 104.7,-37.08 107.36,-47.34 113.18,-43.44"/>
</a>
</g>
</g>
<!-- Node2 -->
<g id="Node000002" class="node">
<title>Node2</title>
<g id="a_Node000002"><a xlink:href="namespaceAP.html#a72bac6dee7ddc414f93cbf7cad325f55" target="_top" xlink:title=" ">
<polygon fill="white" stroke="#666666" points="275,-56 225,-56 225,-37 275,-37 275,-56"/>
<text text-anchor="middle" x="250" y="-44" font-family="Helvetica,sans-Serif" font-size="10.00">AP::dal</text>
</a>
</g>
</g>
<!-- Node1&#45;&gt;Node2 -->
<g id="edge1_Node000001_Node000002" class="edge">
<title>Node1&#45;&gt;Node2</title>
<g id="a_edge1_Node000001_Node000002"><a xlink:title=" ">
<path fill="none" stroke="#63b8ff" d="M157.3,-36.22C177.44,-38.48 198.1,-40.79 214.69,-42.65"/>
<polygon fill="#63b8ff" stroke="#63b8ff" points="214.64,-46.17 224.97,-43.81 215.42,-39.21 214.64,-46.17"/>
</a>
</g>
</g>
<!-- Node5 -->
<g id="Node000005" class="node">
<title>Node5</title>
<g id="a_Node000005"><a xlink:href="classAP__DAL.html#a0fe445b9f0d9c66f066dcb27807b751b" target="_top" xlink:title=" ">
<polygon fill="white" stroke="#666666" points="307,-19 193,-19 193,0 307,0 307,-19"/>
<text text-anchor="middle" x="250" y="-7" font-family="Helvetica,sans-Serif" font-size="10.00">AP_DAL::log_event2</text>
</a>
</g>
</g>
<!-- Node1&#45;&gt;Node5 -->
<g id="edge4_Node000001_Node000005" class="edge">
<title>Node1&#45;&gt;Node5</title>
<g id="a_edge4_Node000001_Node000005"><a xlink:title=" ">
<path fill="none" stroke="#63b8ff" d="M157.3,-19.24C165.84,-18.33 174.48,-17.41 182.85,-16.52"/>
<polygon fill="#63b8ff" stroke="#63b8ff" points="183.35,-19.99 192.92,-15.46 182.61,-13.03 183.35,-19.99"/>
</a>
</g>
</g>
<!-- Node3 -->
<g id="Node000003" class="node">
<title>Node3</title>
<g id="a_Node000003"><a xlink:href="classAP__DAL.html#acd91e7fa4911059c7ea56e4dc96ded2b" target="_top" xlink:title=" ">
<polygon fill="white" stroke="#666666" points="469,-56 343,-56 343,-37 469,-37 469,-56"/>
<text text-anchor="middle" x="406" y="-44" font-family="Helvetica,sans-Serif" font-size="10.00">AP_DAL::get_singleton</text>
</a>
</g>
</g>
<!-- Node2&#45;&gt;Node3 -->
<g id="edge2_Node000002_Node000003" class="edge">
<title>Node2&#45;&gt;Node3</title>
<g id="a_edge2_Node000002_Node000003"><a xlink:title=" ">
<path fill="none" stroke="#63b8ff" d="M275.06,-46.5C290.69,-46.5 311.96,-46.5 332.77,-46.5"/>
<polygon fill="#63b8ff" stroke="#63b8ff" points="332.92,-50 342.92,-46.5 332.92,-43 332.92,-50"/>
</a>
</g>
</g>
<!-- Node4 -->
<g id="Node000004" class="node">
<title>Node4</title>
<g id="a_Node000004"><a xlink:href="classAP__DAL.html#a26972f837da1c3206aae5b90ef82d202" target="_top" xlink:title=" ">
<polygon fill="white" stroke="#666666" points="603,-56 505,-56 505,-37 603,-37 603,-56"/>
<text text-anchor="middle" x="554" y="-44" font-family="Helvetica,sans-Serif" font-size="10.00">AP_DAL::AP_DAL</text>
</a>
</g>
</g>
<!-- Node3&#45;&gt;Node4 -->
<g id="edge3_Node000003_Node000004" class="edge">
<title>Node3&#45;&gt;Node4</title>
<g id="a_edge3_Node000003_Node000004"><a xlink:title=" ">
<path fill="none" stroke="#63b8ff" d="M469.34,-46.5C477.83,-46.5 486.51,-46.5 494.91,-46.5"/>
<polygon fill="#63b8ff" stroke="#63b8ff" points="495,-50 505,-46.5 495,-43 495,-50"/>
</a>
</g>
</g>
<!-- Node6 -->
<g id="Node000006" class="node">
<title>Node6</title>
<g id="a_Node000006"><a xlink:href="classAP__DAL.html#aa0edb3b3259b34432492ac00391c6d83" target="_top" xlink:title=" ">
<polygon fill="white" stroke="#666666" points="462.5,-19 349.5,-19 349.5,0 462.5,0 462.5,-19"/>
<text text-anchor="middle" x="406" y="-7" font-family="Helvetica,sans-Serif" font-size="10.00">AP_DAL::end_frame</text>
</a>
</g>
</g>
<!-- Node5&#45;&gt;Node6 -->
<g id="edge5_Node000005_Node000006" class="edge">
<title>Node5&#45;&gt;Node6</title>
<g id="a_edge5_Node000005_Node000006"><a xlink:title=" ">
<path fill="none" stroke="#63b8ff" d="M307.03,-9.5C317.46,-9.5 328.44,-9.5 339.13,-9.5"/>
<polygon fill="#63b8ff" stroke="#63b8ff" points="339.27,-13 349.27,-9.5 339.27,-6 339.27,-13"/>
</a>
</g>
</g>
</g>
</svg>
