<?xml version="1.0" encoding="UTF-8" standalone="no"?>
<!DOCTYPE svg PUBLIC "-//W3C//DTD SVG 1.1//EN"
 "http://www.w3.org/Graphics/SVG/1.1/DTD/svg11.dtd">
<!-- Generated by graphviz version 2.43.0 (0)
 -->
<!-- Title: AP_GPS::calc_blend_weights Pages: 1 -->
<svg width="302pt" height="279pt"
 viewBox="0.00 0.00 302.00 279.00" xmlns="http://www.w3.org/2000/svg" xmlns:xlink="http://www.w3.org/1999/xlink">
<g id="graph0" class="graph" transform="scale(1 1) rotate(0) translate(4 275)">
<title>AP_GPS::calc_blend_weights</title>
<!-- Node1 -->
<g id="Node000001" class="node">
<title>Node1</title>
<g id="a_Node000001"><a xlink:title=" ">
<polygon fill="#999999" stroke="#666666" points="112,-153.5 0,-153.5 0,-123.5 112,-123.5 112,-153.5"/>
<text text-anchor="start" x="8" y="-141.5" font-family="Helvetica,sans-Serif" font-size="10.00">AP_GPS::calc_blend</text>
<text text-anchor="middle" x="56" y="-130.5" font-family="Helvetica,sans-Serif" font-size="10.00">_weights</text>
</a>
</g>
</g>
<!-- Node2 -->
<g id="Node000002" class="node">
<title>Node2</title>
<g id="a_Node000002"><a xlink:href="classAP__GPS.html#ac9f4da4e698ba211f2323a9a6731826c" target="_top" xlink:title=" ">
<polygon fill="white" stroke="#666666" points="281.5,-271 160.5,-271 160.5,-252 281.5,-252 281.5,-271"/>
<text text-anchor="middle" x="221" y="-259" font-family="Helvetica,sans-Serif" font-size="10.00">AP_GPS::get_rate_ms</text>
</a>
</g>
</g>
<!-- Node1&#45;&gt;Node2 -->
<g id="edge1_Node000001_Node000002" class="edge">
<title>Node1&#45;&gt;Node2</title>
<g id="a_edge1_Node000001_Node000002"><a xlink:title=" ">
<path fill="none" stroke="#63b8ff" d="M66.11,-153.78C80.55,-176.63 110.89,-219.49 148,-242.5 151.43,-244.62 155.08,-246.51 158.87,-248.19"/>
<polygon fill="#63b8ff" stroke="#63b8ff" points="157.88,-251.56 168.47,-251.95 160.43,-245.04 157.88,-251.56"/>
</a>
</g>
</g>
<!-- Node3 -->
<g id="Node000003" class="node">
<title>Node3</title>
<g id="a_Node000003"><a xlink:href="classAP__GPS.html#abca09c2218f7fec3eef23679dead41b4" target="_top" xlink:title=" ">
<polygon fill="white" stroke="#666666" points="275.5,-233.5 166.5,-233.5 166.5,-203.5 275.5,-203.5 275.5,-233.5"/>
<text text-anchor="start" x="174.5" y="-221.5" font-family="Helvetica,sans-Serif" font-size="10.00">AP_GPS::horizontal</text>
<text text-anchor="middle" x="221" y="-210.5" font-family="Helvetica,sans-Serif" font-size="10.00">_accuracy</text>
</a>
</g>
</g>
<!-- Node1&#45;&gt;Node3 -->
<g id="edge2_Node000001_Node000003" class="edge">
<title>Node1&#45;&gt;Node3</title>
<g id="a_edge2_Node000001_Node000003"><a xlink:title=" ">
<path fill="none" stroke="#63b8ff" d="M78.28,-153.54C96.24,-165.76 122.95,-182.81 148,-194.5 152,-196.37 156.19,-198.16 160.45,-199.86"/>
<polygon fill="#63b8ff" stroke="#63b8ff" points="159.25,-203.15 169.84,-203.44 161.74,-196.61 159.25,-203.15"/>
</a>
</g>
</g>
<!-- Node4 -->
<g id="Node000004" class="node">
<title>Node4</title>
<g id="a_Node000004"><a xlink:href="AP__Math_8h.html#a4e3ae698e8f99cec214348ad233e3c41" target="_top" xlink:title=" ">
<polygon fill="white" stroke="#666666" points="255.5,-185 186.5,-185 186.5,-166 255.5,-166 255.5,-185"/>
<text text-anchor="middle" x="221" y="-173" font-family="Helvetica,sans-Serif" font-size="10.00">is_positive</text>
</a>
</g>
</g>
<!-- Node1&#45;&gt;Node4 -->
<g id="edge3_Node000001_Node000004" class="edge">
<title>Node1&#45;&gt;Node4</title>
<g id="a_edge3_Node000001_Node000004"><a xlink:title=" ">
<path fill="none" stroke="#63b8ff" d="M112.18,-151.03C133.11,-155.78 156.62,-161.11 176.33,-165.59"/>
<polygon fill="#63b8ff" stroke="#63b8ff" points="175.74,-169.04 186.26,-167.84 177.29,-162.22 175.74,-169.04"/>
</a>
</g>
</g>
<!-- Node5 -->
<g id="Node000005" class="node">
<title>Node5</title>
<g id="a_Node000005"><a xlink:href="classAP__GPS.html#a32634fda14b879872e3434733dac25ba" target="_top" xlink:title=" ">
<polygon fill="white" stroke="#666666" points="290,-148 152,-148 152,-129 290,-129 290,-148"/>
<text text-anchor="middle" x="221" y="-136" font-family="Helvetica,sans-Serif" font-size="10.00">AP_GPS::speed_accuracy</text>
</a>
</g>
</g>
<!-- Node1&#45;&gt;Node5 -->
<g id="edge4_Node000001_Node000005" class="edge">
<title>Node1&#45;&gt;Node5</title>
<g id="a_edge4_Node000001_Node000005"><a xlink:title=" ">
<path fill="none" stroke="#63b8ff" d="M112.18,-138.5C121.64,-138.5 131.63,-138.5 141.56,-138.5"/>
<polygon fill="#63b8ff" stroke="#63b8ff" points="141.86,-142 151.86,-138.5 141.86,-135 141.86,-142"/>
</a>
</g>
</g>
<!-- Node6 -->
<g id="Node000006" class="node">
<title>Node6</title>
<g id="a_Node000006"><a xlink:href="AP__Math_8h.html#a34f41fcf2bc527b1728ae04423dfba46" target="_top" xlink:title=" ">
<polygon fill="white" stroke="#666666" points="235.5,-111 206.5,-111 206.5,-92 235.5,-92 235.5,-111"/>
<text text-anchor="middle" x="221" y="-99" font-family="Helvetica,sans-Serif" font-size="10.00">sq</text>
</a>
</g>
</g>
<!-- Node1&#45;&gt;Node6 -->
<g id="edge5_Node000001_Node000006" class="edge">
<title>Node1&#45;&gt;Node6</title>
<g id="a_edge5_Node000001_Node000006"><a xlink:title=" ">
<path fill="none" stroke="#63b8ff" d="M112.18,-125.97C140.92,-119.45 174.54,-111.82 196.5,-106.83"/>
<polygon fill="#63b8ff" stroke="#63b8ff" points="197.29,-110.24 206.27,-104.62 195.74,-103.42 197.29,-110.24"/>
</a>
</g>
</g>
<!-- Node7 -->
<g id="Node000007" class="node">
<title>Node7</title>
<g id="a_Node000007"><a xlink:href="classAP__GPS.html#a23a9fce42abaf8f53d5a3f64c84461e7" target="_top" xlink:title=" ">
<polygon fill="white" stroke="#666666" points="266,-56 176,-56 176,-37 266,-37 266,-56"/>
<text text-anchor="middle" x="221" y="-44" font-family="Helvetica,sans-Serif" font-size="10.00">AP_GPS::status</text>
</a>
</g>
</g>
<!-- Node1&#45;&gt;Node7 -->
<g id="edge6_Node000001_Node000007" class="edge">
<title>Node1&#45;&gt;Node7</title>
<g id="a_edge6_Node000001_Node000007"><a xlink:title=" ">
<path fill="none" stroke="#63b8ff" d="M81.07,-123.33C99.26,-112.02 124.95,-96.37 148,-83.5 162.12,-75.62 178.09,-67.35 191.4,-60.63"/>
<polygon fill="#63b8ff" stroke="#63b8ff" points="193.19,-63.65 200.56,-56.04 190.05,-57.39 193.19,-63.65"/>
</a>
</g>
</g>
<!-- Node8 -->
<g id="Node000008" class="node">
<title>Node8</title>
<g id="a_Node000008"><a xlink:href="classAP__GPS.html#afa08eb7c0337c97e2ebab7e7c930423d" target="_top" xlink:title=" ">
<polygon fill="white" stroke="#666666" points="294,-19 148,-19 148,0 294,0 294,-19"/>
<text text-anchor="middle" x="221" y="-7" font-family="Helvetica,sans-Serif" font-size="10.00">AP_GPS::vertical_accuracy</text>
</a>
</g>
</g>
<!-- Node1&#45;&gt;Node8 -->
<g id="edge8_Node000001_Node000008" class="edge">
<title>Node1&#45;&gt;Node8</title>
<g id="a_edge8_Node000001_Node000008"><a xlink:title=" ">
<path fill="none" stroke="#63b8ff" d="M65.43,-123.12C79.38,-99.14 109.58,-53.06 148,-28.5 151.34,-26.37 154.9,-24.47 158.6,-22.79"/>
<polygon fill="#63b8ff" stroke="#63b8ff" points="160.01,-26 168,-19.03 157.41,-19.5 160.01,-26"/>
</a>
</g>
</g>
<!-- Node7&#45;&gt;Node7 -->
<g id="edge7_Node000007_Node000007" class="edge">
<title>Node7&#45;&gt;Node7</title>
<g id="a_edge7_Node000007_Node000007"><a xlink:title=" ">
<path fill="none" stroke="#63b8ff" d="M195.72,-56.08C183.43,-64.73 191.85,-74 221,-74 240.13,-74 250.33,-70.01 251.61,-64.82"/>
<polygon fill="#63b8ff" stroke="#63b8ff" points="254.48,-62.79 246.28,-56.08 248.5,-66.44 254.48,-62.79"/>
</a>
</g>
</g>
</g>
</svg>
