<?xml version="1.0" encoding="UTF-8" standalone="no"?>
<!DOCTYPE svg PUBLIC "-//W3C//DTD SVG 1.1//EN"
 "http://www.w3.org/Graphics/SVG/1.1/DTD/svg11.dtd">
<!-- Generated by graphviz version 2.43.0 (0)
 -->
<!-- Title: AC_Loiter::get_stopping_point_xy Pages: 1 -->
<svg width="705pt" height="236pt"
 viewBox="0.00 0.00 705.00 235.50" xmlns="http://www.w3.org/2000/svg" xmlns:xlink="http://www.w3.org/1999/xlink">
<g id="graph0" class="graph" transform="scale(1 1) rotate(0) translate(4 231.5)">
<title>AC_Loiter::get_stopping_point_xy</title>
<!-- Node1 -->
<g id="Node000001" class="node">
<title>Node1</title>
<g id="a_Node000001"><a xlink:title="get vector to stopping point based on a horizontal position and velocity">
<polygon fill="#999999" stroke="#666666" points="132,-95.5 0,-95.5 0,-65.5 132,-65.5 132,-95.5"/>
<text text-anchor="start" x="8" y="-83.5" font-family="Helvetica,sans-Serif" font-size="10.00">AC_Loiter::get_stopping</text>
<text text-anchor="middle" x="66" y="-72.5" font-family="Helvetica,sans-Serif" font-size="10.00">_point_xy</text>
</a>
</g>
</g>
<!-- Node2 -->
<g id="Node000002" class="node">
<title>Node2</title>
<g id="a_Node000002"><a xlink:href="classAC__PosControl.html#af53a52b212deae43fb9b5f7765651b91" target="_top" xlink:title="get_stopping_point_xy_cm &#45; calculates stopping point in NEU cm based on current position,...">
<polygon fill="white" stroke="#666666" points="299,-117.5 168,-117.5 168,-87.5 299,-87.5 299,-117.5"/>
<text text-anchor="start" x="176" y="-105.5" font-family="Helvetica,sans-Serif" font-size="10.00">AC_PosControl::get</text>
<text text-anchor="middle" x="233.5" y="-94.5" font-family="Helvetica,sans-Serif" font-size="10.00">_stopping_point_xy_cm</text>
</a>
</g>
</g>
<!-- Node1&#45;&gt;Node2 -->
<g id="edge1_Node000001_Node000002" class="edge">
<title>Node1&#45;&gt;Node2</title>
<g id="a_edge1_Node000001_Node000002"><a xlink:title=" ">
<path fill="none" stroke="#63b8ff" d="M132.41,-89.19C140.79,-90.31 149.41,-91.46 157.92,-92.59"/>
<polygon fill="#63b8ff" stroke="#63b8ff" points="157.46,-96.06 167.84,-93.9 158.38,-89.12 157.46,-96.06"/>
</a>
</g>
</g>
<!-- Node15 -->
<g id="Node000015" class="node">
<title>Node15</title>
<g id="a_Node000015"><a xlink:href="structVector2.html#ab0a4967c31a10beb0809d53997835326" target="_top" xlink:title=" ">
<polygon fill="white" stroke="#666666" points="279,-69 188,-69 188,-50 279,-50 279,-69"/>
<text text-anchor="middle" x="233.5" y="-57" font-family="Helvetica,sans-Serif" font-size="10.00">Vector2::tofloat</text>
</a>
</g>
</g>
<!-- Node1&#45;&gt;Node15 -->
<g id="edge18_Node000001_Node000015" class="edge">
<title>Node1&#45;&gt;Node15</title>
<g id="a_edge18_Node000001_Node000015"><a xlink:title=" ">
<path fill="none" stroke="#63b8ff" d="M132.41,-72.2C147.39,-70.3 163.16,-68.3 177.64,-66.46"/>
<polygon fill="#63b8ff" stroke="#63b8ff" points="178.44,-69.89 187.92,-65.16 177.56,-62.94 178.44,-69.89"/>
</a>
</g>
</g>
<!-- Node3 -->
<g id="Node000003" class="node">
<title>Node3</title>
<g id="a_Node000003"><a xlink:href="classAP__InertialNav.html#a960dfd33a277bce4d2afe4a52506adef" target="_top" xlink:title=" ">
<polygon fill="white" stroke="#666666" points="445,-227.5 335,-227.5 335,-197.5 445,-197.5 445,-227.5"/>
<text text-anchor="start" x="343" y="-215.5" font-family="Helvetica,sans-Serif" font-size="10.00">AP_InertialNav::get</text>
<text text-anchor="middle" x="390" y="-204.5" font-family="Helvetica,sans-Serif" font-size="10.00">_position_xy_cm</text>
</a>
</g>
</g>
<!-- Node2&#45;&gt;Node3 -->
<g id="edge2_Node000002_Node000003" class="edge">
<title>Node2&#45;&gt;Node3</title>
<g id="a_edge2_Node000002_Node000003"><a xlink:title=" ">
<path fill="none" stroke="#63b8ff" d="M249.4,-117.72C268.11,-136.21 301.79,-167.54 335,-188.5 337.4,-190.01 339.91,-191.48 342.48,-192.89"/>
<polygon fill="#63b8ff" stroke="#63b8ff" points="340.88,-196.01 351.38,-197.48 344.09,-189.79 340.88,-196.01"/>
</a>
</g>
</g>
<!-- Node5 -->
<g id="Node000005" class="node">
<title>Node5</title>
<g id="a_Node000005"><a xlink:href="classAP__InertialNav.html#a05442ad0ede5dac03a79529e045cf511" target="_top" xlink:title=" ">
<polygon fill="white" stroke="#666666" points="445,-179.5 335,-179.5 335,-149.5 445,-149.5 445,-179.5"/>
<text text-anchor="start" x="343" y="-167.5" font-family="Helvetica,sans-Serif" font-size="10.00">AP_InertialNav::get</text>
<text text-anchor="middle" x="390" y="-156.5" font-family="Helvetica,sans-Serif" font-size="10.00">_velocity_xy_cms</text>
</a>
</g>
</g>
<!-- Node2&#45;&gt;Node5 -->
<g id="edge4_Node000002_Node000005" class="edge">
<title>Node2&#45;&gt;Node5</title>
<g id="a_edge4_Node000002_Node000005"><a xlink:title=" ">
<path fill="none" stroke="#63b8ff" d="M271.9,-117.51C293,-125.98 319.56,-136.63 342.05,-145.66"/>
<polygon fill="#63b8ff" stroke="#63b8ff" points="340.82,-148.94 351.41,-149.41 343.43,-142.44 340.82,-148.94"/>
</a>
</g>
</g>
<!-- Node6 -->
<g id="Node000006" class="node">
<title>Node6</title>
<g id="a_Node000006"><a xlink:href="AP__Math_8h.html#a4e3ae698e8f99cec214348ad233e3c41" target="_top" xlink:title=" ">
<polygon fill="white" stroke="#666666" points="695,-158 626,-158 626,-139 695,-139 695,-158"/>
<text text-anchor="middle" x="660.5" y="-146" font-family="Helvetica,sans-Serif" font-size="10.00">is_positive</text>
</a>
</g>
</g>
<!-- Node2&#45;&gt;Node6 -->
<g id="edge6_Node000002_Node000006" class="edge">
<title>Node2&#45;&gt;Node6</title>
<g id="a_edge6_Node000002_Node000006"><a xlink:title=" ">
<path fill="none" stroke="#63b8ff" d="M299.05,-109.49C386.54,-118.96 540.46,-135.62 615.66,-143.76"/>
<polygon fill="#63b8ff" stroke="#63b8ff" points="615.42,-147.25 625.74,-144.85 616.17,-140.29 615.42,-147.25"/>
</a>
</g>
</g>
<!-- Node7 -->
<g id="Node000007" class="node">
<title>Node7</title>
<g id="a_Node000007"><a xlink:href="classAC__P__2D.html#ae7575a39017324b2201600fc3da92403" target="_top" xlink:title=" ">
<polygon fill="white" stroke="#666666" points="429,-19 351,-19 351,0 429,0 429,-19"/>
<text text-anchor="middle" x="390" y="-7" font-family="Helvetica,sans-Serif" font-size="10.00">AC_P_2D::kP</text>
</a>
</g>
</g>
<!-- Node2&#45;&gt;Node7 -->
<g id="edge7_Node000002_Node000007" class="edge">
<title>Node2&#45;&gt;Node7</title>
<g id="a_edge7_Node000002_Node000007"><a xlink:title=" ">
<path fill="none" stroke="#63b8ff" d="M284.38,-87.48C289.56,-84.9 294.55,-81.93 299,-78.5 320.98,-61.57 312.73,-44.05 335,-27.5 337.08,-25.95 339.31,-24.53 341.62,-23.23"/>
<polygon fill="#63b8ff" stroke="#63b8ff" points="343.38,-26.27 350.88,-18.78 340.35,-19.96 343.38,-26.27"/>
</a>
</g>
</g>
<!-- Node8 -->
<g id="Node000008" class="node">
<title>Node8</title>
<g id="a_Node000008"><a xlink:href="structVector2.html#aed3cf4803ee803dc1447985ca323178f" target="_top" xlink:title=" ">
<polygon fill="white" stroke="#666666" points="435,-56 345,-56 345,-37 435,-37 435,-56"/>
<text text-anchor="middle" x="390" y="-44" font-family="Helvetica,sans-Serif" font-size="10.00">Vector2::length</text>
</a>
</g>
</g>
<!-- Node2&#45;&gt;Node8 -->
<g id="edge8_Node000002_Node000008" class="edge">
<title>Node2&#45;&gt;Node8</title>
<g id="a_edge8_Node000002_Node000008"><a xlink:title=" ">
<path fill="none" stroke="#63b8ff" d="M275.04,-87.42C293.33,-80.66 315.23,-72.62 335,-65.5 340.51,-63.52 346.35,-61.44 352.07,-59.42"/>
<polygon fill="#63b8ff" stroke="#63b8ff" points="353.23,-62.71 361.5,-56.09 350.91,-56.11 353.23,-62.71"/>
</a>
</g>
</g>
<!-- Node11 -->
<g id="Node000011" class="node">
<title>Node11</title>
<g id="a_Node000011"><a xlink:href="control_8cpp.html#a8ccdba8946c8e84725a882c0e0dfc6de" target="_top" xlink:title=" ">
<polygon fill="white" stroke="#666666" points="442.5,-93 337.5,-93 337.5,-74 442.5,-74 442.5,-93"/>
<text text-anchor="middle" x="390" y="-81" font-family="Helvetica,sans-Serif" font-size="10.00">stopping_distance</text>
</a>
</g>
</g>
<!-- Node2&#45;&gt;Node11 -->
<g id="edge11_Node000002_Node000011" class="edge">
<title>Node2&#45;&gt;Node11</title>
<g id="a_edge11_Node000002_Node000011"><a xlink:title=" ">
<path fill="none" stroke="#63b8ff" d="M299.13,-94.55C308.48,-93.4 318.08,-92.22 327.37,-91.08"/>
<polygon fill="#63b8ff" stroke="#63b8ff" points="327.81,-94.55 337.31,-89.86 326.95,-87.6 327.81,-94.55"/>
</a>
</g>
</g>
<!-- Node4 -->
<g id="Node000004" class="node">
<title>Node4</title>
<g id="a_Node000004"><a xlink:href="classVector3.html#abcf8b89285b9966932d1aceeeadb21d3" target="_top" xlink:title=" ">
<polygon fill="white" stroke="#666666" points="570,-198 499,-198 499,-179 570,-179 570,-198"/>
<text text-anchor="middle" x="534.5" y="-186" font-family="Helvetica,sans-Serif" font-size="10.00">Vector3::xy</text>
</a>
</g>
</g>
<!-- Node3&#45;&gt;Node4 -->
<g id="edge3_Node000003_Node000004" class="edge">
<title>Node3&#45;&gt;Node4</title>
<g id="a_edge3_Node000003_Node000004"><a xlink:title=" ">
<path fill="none" stroke="#63b8ff" d="M445.28,-203.36C459.57,-200.95 474.83,-198.38 488.57,-196.07"/>
<polygon fill="#63b8ff" stroke="#63b8ff" points="489.45,-199.47 498.73,-194.36 488.29,-192.56 489.45,-199.47"/>
</a>
</g>
</g>
<!-- Node5&#45;&gt;Node4 -->
<g id="edge5_Node000005_Node000004" class="edge">
<title>Node5&#45;&gt;Node4</title>
<g id="a_edge5_Node000005_Node000004"><a xlink:title=" ">
<path fill="none" stroke="#63b8ff" d="M445.28,-173.64C459.57,-176.05 474.83,-178.62 488.57,-180.93"/>
<polygon fill="#63b8ff" stroke="#63b8ff" points="488.29,-184.44 498.73,-182.64 489.45,-177.53 488.29,-184.44"/>
</a>
</g>
</g>
<!-- Node9 -->
<g id="Node000009" class="node">
<title>Node9</title>
<g id="a_Node000009"><a xlink:href="AP__Math_8h.html#a3bc9391295c1f7aaa8fb95ee897f639a" target="_top" xlink:title=" ">
<polygon fill="white" stroke="#666666" points="555.5,-56 513.5,-56 513.5,-37 555.5,-37 555.5,-56"/>
<text text-anchor="middle" x="534.5" y="-44" font-family="Helvetica,sans-Serif" font-size="10.00">norm</text>
</a>
</g>
</g>
<!-- Node8&#45;&gt;Node9 -->
<g id="edge9_Node000008_Node000009" class="edge">
<title>Node8&#45;&gt;Node9</title>
<g id="a_edge9_Node000008_Node000009"><a xlink:title=" ">
<path fill="none" stroke="#63b8ff" d="M435.31,-46.5C457.37,-46.5 483.47,-46.5 503.21,-46.5"/>
<polygon fill="#63b8ff" stroke="#63b8ff" points="503.46,-50 513.46,-46.5 503.46,-43 503.46,-50"/>
</a>
</g>
</g>
<!-- Node10 -->
<g id="Node000010" class="node">
<title>Node10</title>
<g id="a_Node000010"><a xlink:href="AP__Math_8h.html#a34f41fcf2bc527b1728ae04423dfba46" target="_top" xlink:title=" ">
<polygon fill="white" stroke="#666666" points="675,-29 646,-29 646,-10 675,-10 675,-29"/>
<text text-anchor="middle" x="660.5" y="-17" font-family="Helvetica,sans-Serif" font-size="10.00">sq</text>
</a>
</g>
</g>
<!-- Node9&#45;&gt;Node10 -->
<g id="edge10_Node000009_Node000010" class="edge">
<title>Node9&#45;&gt;Node10</title>
<g id="a_edge10_Node000009_Node000010"><a xlink:title=" ">
<path fill="none" stroke="#63b8ff" d="M555.7,-42.1C577.62,-37.33 612.59,-29.71 635.79,-24.66"/>
<polygon fill="#63b8ff" stroke="#63b8ff" points="636.81,-28.02 645.84,-22.48 635.32,-21.18 636.81,-28.02"/>
</a>
</g>
</g>
<!-- Node12 -->
<g id="Node000012" class="node">
<title>Node12</title>
<g id="a_Node000012"><a xlink:href="control_8cpp.html#a2fe745ee070bd250d31bf8c6a8532156" target="_top" xlink:title=" ">
<polygon fill="white" stroke="#666666" points="588,-93 481,-93 481,-74 588,-74 588,-93"/>
<text text-anchor="middle" x="534.5" y="-81" font-family="Helvetica,sans-Serif" font-size="10.00">inv_sqrt_controller</text>
</a>
</g>
</g>
<!-- Node11&#45;&gt;Node12 -->
<g id="edge12_Node000011_Node000012" class="edge">
<title>Node11&#45;&gt;Node12</title>
<g id="a_edge12_Node000011_Node000012"><a xlink:title=" ">
<path fill="none" stroke="#63b8ff" d="M442.85,-83.5C451.97,-83.5 461.54,-83.5 470.91,-83.5"/>
<polygon fill="#63b8ff" stroke="#63b8ff" points="470.97,-87 480.97,-83.5 470.97,-80 470.97,-87"/>
</a>
</g>
</g>
<!-- Node12&#45;&gt;Node6 -->
<g id="edge14_Node000012_Node000006" class="edge">
<title>Node12&#45;&gt;Node6</title>
<g id="a_edge14_Node000012_Node000006"><a xlink:title=" ">
<path fill="none" stroke="#63b8ff" d="M558.32,-93.1C567.67,-97.24 578.49,-102.32 588,-107.5 604.67,-116.58 607.51,-121.08 624,-130.5 626.21,-131.76 628.51,-133.03 630.84,-134.28"/>
<polygon fill="#63b8ff" stroke="#63b8ff" points="629.3,-137.42 639.78,-138.94 632.53,-131.21 629.3,-137.42"/>
</a>
</g>
</g>
<!-- Node12&#45;&gt;Node10 -->
<g id="edge17_Node000012_Node000010" class="edge">
<title>Node12&#45;&gt;Node10</title>
<g id="a_edge17_Node000012_Node000010"><a xlink:title=" ">
<path fill="none" stroke="#63b8ff" d="M568.7,-73.98C575.26,-71.59 581.98,-68.75 588,-65.5 605.83,-55.86 606.88,-48.36 624,-37.5 627.98,-34.98 632.36,-32.52 636.65,-30.27"/>
<polygon fill="#63b8ff" stroke="#63b8ff" points="638.3,-33.35 645.68,-25.75 635.17,-27.1 638.3,-33.35"/>
</a>
</g>
</g>
<!-- Node13 -->
<g id="Node000013" class="node">
<title>Node13</title>
<g id="a_Node000013"><a xlink:href="AP__Math_8h.html#a8b6f71a42818d74fd8bfe348108942fa" target="_top" xlink:title=" ">
<polygon fill="white" stroke="#666666" points="697,-121 624,-121 624,-102 697,-102 697,-121"/>
<text text-anchor="middle" x="660.5" y="-109" font-family="Helvetica,sans-Serif" font-size="10.00">is_negative</text>
</a>
</g>
</g>
<!-- Node12&#45;&gt;Node13 -->
<g id="edge13_Node000012_Node000013" class="edge">
<title>Node12&#45;&gt;Node13</title>
<g id="a_edge13_Node000012_Node000013"><a xlink:title=" ">
<path fill="none" stroke="#63b8ff" d="M577.83,-93.06C589.44,-95.68 602.08,-98.53 613.87,-101.2"/>
<polygon fill="#63b8ff" stroke="#63b8ff" points="613.44,-104.69 623.96,-103.48 614.98,-97.86 613.44,-104.69"/>
</a>
</g>
</g>
<!-- Node14 -->
<g id="Node000014" class="node">
<title>Node14</title>
<g id="a_Node000014"><a xlink:href="AP__Math_8h.html#a2a12cce483e9b870da70d30406d82c60" target="_top" xlink:title=" ">
<polygon fill="white" stroke="#666666" points="686,-66 635,-66 635,-47 686,-47 686,-66"/>
<text text-anchor="middle" x="660.5" y="-54" font-family="Helvetica,sans-Serif" font-size="10.00">is_zero</text>
</a>
</g>
</g>
<!-- Node12&#45;&gt;Node14 -->
<g id="edge15_Node000012_Node000014" class="edge">
<title>Node12&#45;&gt;Node14</title>
<g id="a_edge15_Node000012_Node000014"><a xlink:title=" ">
<path fill="none" stroke="#63b8ff" d="M579.22,-73.98C594.25,-70.71 610.87,-67.09 625.06,-64"/>
<polygon fill="#63b8ff" stroke="#63b8ff" points="625.88,-67.4 634.91,-61.85 624.4,-60.56 625.88,-67.4"/>
</a>
</g>
</g>
<!-- Node14&#45;&gt;Node14 -->
<g id="edge16_Node000014_Node000014" class="edge">
<title>Node14&#45;&gt;Node14</title>
<g id="a_edge16_Node000014_Node000014"><a xlink:title=" ">
<path fill="none" stroke="#63b8ff" d="M641.08,-66.08C631.63,-74.73 638.11,-84 660.5,-84 674.5,-84 682.27,-80.38 683.83,-75.55"/>
<polygon fill="#63b8ff" stroke="#63b8ff" points="686.97,-73.99 679.92,-66.08 680.5,-76.66 686.97,-73.99"/>
</a>
</g>
</g>
</g>
</svg>
