<?xml version="1.0" encoding="UTF-8" standalone="no"?>
<!DOCTYPE svg PUBLIC "-//W3C//DTD SVG 1.1//EN"
 "http://www.w3.org/Graphics/SVG/1.1/DTD/svg11.dtd">
<!-- Generated by graphviz version 2.43.0 (0)
 -->
<!-- Title: AP_RangeFinder_VL53L0X::getSequenceStepEnables Pages: 1 -->
<!--zoomable 86 -->

<svg id="main" version="1.1" xmlns="http://www.w3.org/2000/svg" xmlns:xlink="http://www.w3.org/1999/xlink" xml:space="preserve" onload="init(evt)">
<style type="text/css"><![CDATA[
.node, .edge {opacity: 0.7;}
.node.selected, .edge.selected {opacity: 1;}
.edge:hover path { stroke: red; }
.edge:hover polygon { stroke: red; fill: red; }
]]></style>

<defs>
  <circle id="rim" cx="0" cy="0" r="7"/>
  <circle id="rim2" cx="0" cy="0" r="3.5"/>
  <g id="zoomPlus">
    <use xlink:href="#rim" fill="#404040"><set attributeName="fill" to="#808080" begin="zoomplus.mouseover" end="zoomplus.mouseout"/></use>
    <path d="M-4,0h8M0,-4v8" fill="none" stroke="white" stroke-width="1.5" pointer-events="none"/>
  </g>
  <g id="zoomMin">
    <use xlink:href="#rim" fill="#404040"><set attributeName="fill" to="#808080" begin="zoomminus.mouseover" end="zoomminus.mouseout"/></use>
    <path d="M-4,0h8" fill="none" stroke="white" stroke-width="1.5" pointer-events="none"/>
  </g>
  <g id="arrowUp" transform="translate(30 24)">
    <use xlink:href="#rim"/>
    <path pointer-events="none" fill="none" stroke="white" stroke-width="1.5" d="M0,-3.0v7 M-2.5,-0.5L0,-3.0L2.5,-0.5"/>
  </g>
  <g id="arrowRight" transform="rotate(90) translate(36 -43)">
    <use xlink:href="#rim"/>
    <path pointer-events="none" fill="none" stroke="white" stroke-width="1.5" d="M0,-3.0v7 M-2.5,-0.5L0,-3.0L2.5,-0.5"/>
  </g>
  <g id="arrowDown" transform="rotate(180) translate(-30 -48)">
    <use xlink:href="#rim"/>
    <path pointer-events="none" fill="none" stroke="white" stroke-width="1.5" d="M0,-3.0v7 M-2.5,-0.5L0,-3.0L2.5,-0.5"/>
  </g>
  <g id="arrowLeft" transform="rotate(270) translate(-36 17)">
    <use xlink:href="#rim"/>
    <path pointer-events="none" fill="none" stroke="white" stroke-width="1.5" d="M0,-3.0v7 M-2.5,-0.5L0,-3.0L2.5,-0.5"/>
  </g>
  <g id="resetDef">
    <use xlink:href="#rim2" fill="#404040"><set attributeName="fill" to="#808080" begin="reset.mouseover" end="reset.mouseout"/></use>
  </g>
</defs>
<script type="application/ecmascript">
var viewWidth = 1087;
var viewHeight = 86;
var sectionId = 'dynsection-16';
</script>
<script type="application/ecmascript" xlink:href="svg.min.js"/>
<svg id="graph" class="graph">
<g id="viewport">
<title>AP_RangeFinder_VL53L0X::getSequenceStepEnables</title>
<!-- Node1 -->
<g id="Node000001" class="node">
<title>Node1</title>
<g id="a_Node000001"><a xlink:title=" ">
<polygon fill="#999999" stroke="#666666" points="1079,-54 933,-54 933,-24 1079,-24 1079,-54"/>
<text text-anchor="start" x="941" y="-42" font-family="Helvetica,sans-Serif" font-size="10.00">AP_RangeFinder_VL53L0X</text>
<text text-anchor="middle" x="1006" y="-31" font-family="Helvetica,sans-Serif" font-size="10.00">::getSequenceStepEnables</text>
</a>
</g>
</g>
<!-- Node2 -->
<g id="Node000002" class="node">
<title>Node2</title>
<g id="a_Node000002"><a xlink:href="classAP__RangeFinder__VL53L0X.html#a99578fad928a8259ab6419cd20a9d00f" target="_top" xlink:title=" ">
<polygon fill="white" stroke="#666666" points="897,-78 723,-78 723,-48 897,-48 897,-78"/>
<text text-anchor="start" x="731" y="-66" font-family="Helvetica,sans-Serif" font-size="10.00">AP_RangeFinder_VL53L0X</text>
<text text-anchor="middle" x="810" y="-55" font-family="Helvetica,sans-Serif" font-size="10.00">::getMeasurementTimingBudget</text>
</a>
</g>
</g>
<!-- Node1&#45;&gt;Node2 -->
<g id="edge1_Node000001_Node000002" class="edge">
<title>Node1&#45;&gt;Node2</title>
<g id="a_edge1_Node000001_Node000002"><a xlink:title=" ">
<path fill="none" stroke="#63b8ff" d="M922.56,-49.2C914.12,-50.24 905.54,-51.3 897.06,-52.35"/>
<polygon fill="#63b8ff" stroke="#63b8ff" points="923.27,-52.64 932.76,-47.94 922.41,-45.69 923.27,-52.64"/>
</a>
</g>
</g>
<!-- Node8 -->
<g id="Node000008" class="node">
<title>Node8</title>
<g id="a_Node000008"><a xlink:href="classAP__RangeFinder__VL53L0X.html#adec2d569b8b1567535371a3d69b4c95f" target="_top" xlink:title=" ">
<polygon fill="white" stroke="#666666" points="896.5,-30 723.5,-30 723.5,0 896.5,0 896.5,-30"/>
<text text-anchor="start" x="731.5" y="-18" font-family="Helvetica,sans-Serif" font-size="10.00">AP_RangeFinder_VL53L0X</text>
<text text-anchor="middle" x="810" y="-7" font-family="Helvetica,sans-Serif" font-size="10.00">::setMeasurementTimingBudget</text>
</a>
</g>
</g>
<!-- Node1&#45;&gt;Node8 -->
<g id="edge7_Node000001_Node000008" class="edge">
<title>Node1&#45;&gt;Node8</title>
<g id="a_edge7_Node000001_Node000008"><a xlink:title=" ">
<path fill="none" stroke="#63b8ff" d="M922.75,-28.82C914.14,-27.76 905.38,-26.68 896.73,-25.61"/>
<polygon fill="#63b8ff" stroke="#63b8ff" points="922.41,-32.31 932.76,-30.06 923.27,-25.36 922.41,-32.31"/>
</a>
</g>
</g>
<!-- Node3 -->
<g id="Node000003" class="node">
<title>Node3</title>
<g id="a_Node000003"><a xlink:href="classAP__RangeFinder__VL53L0X.html#a9bfdf8ae014422adc21f93b7d4218a04" target="_top" xlink:title=" ">
<polygon fill="white" stroke="#666666" points="687,-54 544,-54 544,-24 687,-24 687,-54"/>
<text text-anchor="start" x="552" y="-42" font-family="Helvetica,sans-Serif" font-size="10.00">AP_RangeFinder_VL53L0X</text>
<text text-anchor="middle" x="615.5" y="-31" font-family="Helvetica,sans-Serif" font-size="10.00">::init</text>
</a>
</g>
</g>
<!-- Node2&#45;&gt;Node3 -->
<g id="edge2_Node000002_Node000003" class="edge">
<title>Node2&#45;&gt;Node3</title>
<g id="a_edge2_Node000002_Node000003"><a xlink:title=" ">
<path fill="none" stroke="#63b8ff" d="M712.8,-51.01C704.2,-49.93 695.59,-48.86 687.26,-47.82"/>
<polygon fill="#63b8ff" stroke="#63b8ff" points="712.53,-54.5 722.88,-52.26 713.39,-47.55 712.53,-54.5"/>
</a>
</g>
</g>
<!-- Node4 -->
<g id="Node000004" class="node">
<title>Node4</title>
<g id="a_Node000004"><a xlink:href="classAP__RangeFinder__VL53L0X.html#aee87f0704b1531571f9d645f7a3a7dac" target="_top" xlink:title=" ">
<polygon fill="white" stroke="#666666" points="508,-54 365,-54 365,-24 508,-24 508,-54"/>
<text text-anchor="start" x="373" y="-42" font-family="Helvetica,sans-Serif" font-size="10.00">AP_RangeFinder_VL53L0X</text>
<text text-anchor="middle" x="436.5" y="-31" font-family="Helvetica,sans-Serif" font-size="10.00">::detect</text>
</a>
</g>
</g>
<!-- Node3&#45;&gt;Node4 -->
<g id="edge3_Node000003_Node000004" class="edge">
<title>Node3&#45;&gt;Node4</title>
<g id="a_edge3_Node000003_Node000004"><a xlink:title=" ">
<path fill="none" stroke="#63b8ff" d="M533.51,-39C525.03,-39 516.46,-39 508.11,-39"/>
<polygon fill="#63b8ff" stroke="#63b8ff" points="533.78,-42.5 543.78,-39 533.78,-35.5 533.78,-42.5"/>
</a>
</g>
</g>
<!-- Node5 -->
<g id="Node000005" class="node">
<title>Node5</title>
<g id="a_Node000005"><a xlink:href="classRangeFinder.html#a2d16a636e444ce916e524d1e2623d1d3" target="_top" xlink:title=" ">
<polygon fill="white" stroke="#666666" points="329,-54 215,-54 215,-24 329,-24 329,-54"/>
<text text-anchor="start" x="223" y="-42" font-family="Helvetica,sans-Serif" font-size="10.00">RangeFinder::detect</text>
<text text-anchor="middle" x="272" y="-31" font-family="Helvetica,sans-Serif" font-size="10.00">_instance</text>
</a>
</g>
</g>
<!-- Node4&#45;&gt;Node5 -->
<g id="edge4_Node000004_Node000005" class="edge">
<title>Node4&#45;&gt;Node5</title>
<g id="a_edge4_Node000004_Node000005"><a xlink:title=" ">
<path fill="none" stroke="#63b8ff" d="M354.69,-39C346.14,-39 337.59,-39 329.41,-39"/>
<polygon fill="#63b8ff" stroke="#63b8ff" points="354.7,-42.5 364.7,-39 354.7,-35.5 354.7,-42.5"/>
</a>
</g>
</g>
<!-- Node6 -->
<g id="Node000006" class="node">
<title>Node6</title>
<g id="a_Node000006"><a xlink:href="classRangeFinder.html#ad3e3b3a548b8da70aedd97c4be3a5b6d" target="_top" xlink:title=" ">
<polygon fill="white" stroke="#666666" points="179,-48.5 80,-48.5 80,-29.5 179,-29.5 179,-48.5"/>
<text text-anchor="middle" x="129.5" y="-36.5" font-family="Helvetica,sans-Serif" font-size="10.00">RangeFinder::init</text>
</a>
</g>
</g>
<!-- Node5&#45;&gt;Node6 -->
<g id="edge5_Node000005_Node000006" class="edge">
<title>Node5&#45;&gt;Node6</title>
<g id="a_edge5_Node000005_Node000006"><a xlink:title=" ">
<path fill="none" stroke="#63b8ff" d="M204.65,-39C196.05,-39 187.39,-39 179.16,-39"/>
<polygon fill="#63b8ff" stroke="#63b8ff" points="204.66,-42.5 214.66,-39 204.66,-35.5 204.66,-42.5"/>
</a>
</g>
</g>
<!-- Node7 -->
<g id="Node000007" class="node">
<title>Node7</title>
<g id="a_Node000007"><a xlink:href="RFIND__test_8cpp.html#a4fc01d736fe50cf5b977f755b675f11d" target="_top" xlink:title=" ">
<polygon fill="white" stroke="#666666" points="44,-48.5 0,-48.5 0,-29.5 44,-29.5 44,-48.5"/>
<text text-anchor="middle" x="22" y="-36.5" font-family="Helvetica,sans-Serif" font-size="10.00">setup</text>
</a>
</g>
</g>
<!-- Node6&#45;&gt;Node7 -->
<g id="edge6_Node000006_Node000007" class="edge">
<title>Node6&#45;&gt;Node7</title>
<g id="a_edge6_Node000006_Node000007"><a xlink:title=" ">
<path fill="none" stroke="#63b8ff" d="M69.48,-39C60.41,-39 51.6,-39 44.12,-39"/>
<polygon fill="#63b8ff" stroke="#63b8ff" points="69.76,-42.5 79.76,-39 69.76,-35.5 69.76,-42.5"/>
</a>
</g>
</g>
<!-- Node8&#45;&gt;Node3 -->
<g id="edge8_Node000008_Node000003" class="edge">
<title>Node8&#45;&gt;Node3</title>
<g id="a_edge8_Node000008_Node000003"><a xlink:title=" ">
<path fill="none" stroke="#63b8ff" d="M713.44,-26.91C704.57,-28.02 695.68,-29.13 687.09,-30.2"/>
<polygon fill="#63b8ff" stroke="#63b8ff" points="713.96,-30.38 723.45,-25.67 713.09,-23.43 713.96,-30.38"/>
</a>
</g>
</g>
</g>
</svg>

<g id="navigator" transform="translate(0 0)" fill="#404254">
  <rect fill="#f2f5e9" fill-opacity="0.5" stroke="#606060" stroke-width=".5" x="0" y="0" width="60" height="60"/>
  <use id="zoomplus" xlink:href="#zoomPlus" x="17" y="9" onmousedown="handleZoom(evt,'in')"/>
  <use id="zoomminus" xlink:href="#zoomMin" x="42" y="9" onmousedown="handleZoom(evt,'out')"/>
  <use id="reset" xlink:href="#resetDef" x="30" y="36" onmousedown="handleReset()"/>
   <use id="arrowup" xlink:href="#arrowUp" x="0" y="0" onmousedown="handlePan(0,-1)"/>
  <use id="arrowright" xlink:href="#arrowRight" x="0" y="0" onmousedown="handlePan(1,0)"/>
  <use id="arrowdown" xlink:href="#arrowDown" x="0" y="0" onmousedown="handlePan(0,1)"/>
  <use id="arrowleft" xlink:href="#arrowLeft" x="0" y="0" onmousedown="handlePan(-1,0)"/>
</g>
<svg viewBox="0 0 15 15" width="100%" height="30px" preserveAspectRatio="xMaxYMin meet">
 <g id="arrow_out" transform="scale(0.3 0.3)">
  <a xlink:href="classAP__RangeFinder__VL53L0X_a26f17f242a24905021a0bc78f4b92b3d_icgraph_org.svg" target="_base">
   <rect id="button" ry="5" rx="5" y="6" x="6" height="38" width="38"
        fill="#f2f5e9" fill-opacity="0.5" stroke="#606060" stroke-width="1.0"/>
   <path id="arrow"
     d="M 11.500037,31.436501 C 11.940474,20.09759 22.043105,11.32322 32.158766,21.979434 L 37.068811,17.246167 C 37.068811,17.246167 37.088388,32 37.088388,32 L 22.160133,31.978069 C 22.160133,31.978069 26.997745,27.140456 26.997745,27.140456 C 18.528582,18.264221 13.291696,25.230495 11.500037,31.436501 z"
     style="fill:#404040;"/>
  </a>
 </g>
</svg>

<style type='text/css'>
<![CDATA[
[data-mouse-over-selected='false'] { opacity: 0.7; }
[data-mouse-over-selected='true']  { opacity: 1.0; }
]]>
</style>
<script type="application/ecmascript"><![CDATA[
document.addEventListener('DOMContentLoaded', (event) => {
  highlightEdges();
  highlightAdjacentNodes();
});
]]></script>
</svg>
