<?xml version="1.0" encoding="UTF-8" standalone="no"?>
<!DOCTYPE svg PUBLIC "-//W3C//DTD SVG 1.1//EN"
 "http://www.w3.org/Graphics/SVG/1.1/DTD/svg11.dtd">
<!-- Generated by graphviz version 2.43.0 (0)
 -->
<!-- Title: NavEKF2_core::InitialiseVariablesMag Pages: 1 -->
<svg width="305pt" height="76pt"
 viewBox="0.00 0.00 305.00 75.50" xmlns="http://www.w3.org/2000/svg" xmlns:xlink="http://www.w3.org/1999/xlink">
<g id="graph0" class="graph" transform="scale(1 1) rotate(0) translate(4 71.5)">
<title>NavEKF2_core::InitialiseVariablesMag</title>
<!-- Node1 -->
<g id="Node000001" class="node">
<title>Node1</title>
<g id="a_Node000001"><a xlink:title=" ">
<polygon fill="#999999" stroke="#666666" points="135,-51 0,-51 0,-21 135,-21 135,-51"/>
<text text-anchor="start" x="8" y="-39" font-family="Helvetica,sans-Serif" font-size="10.00">NavEKF2_core::Initialise</text>
<text text-anchor="middle" x="67.5" y="-28" font-family="Helvetica,sans-Serif" font-size="10.00">VariablesMag</text>
</a>
</g>
</g>
<!-- Node2 -->
<g id="Node000002" class="node">
<title>Node2</title>
<g id="a_Node000002"><a xlink:href="classAP__DAL.html#af4c322d89636a54a302a0a74fea3fb2a" target="_top" xlink:title=" ">
<polygon fill="white" stroke="#666666" points="286,-67.5 182,-67.5 182,-48.5 286,-48.5 286,-67.5"/>
<text text-anchor="middle" x="234" y="-55.5" font-family="Helvetica,sans-Serif" font-size="10.00">AP_DAL::compass</text>
</a>
</g>
</g>
<!-- Node1&#45;&gt;Node2 -->
<g id="edge1_Node000001_Node000002" class="edge">
<title>Node1&#45;&gt;Node2</title>
<g id="a_edge1_Node000001_Node000002"><a xlink:title=" ">
<path fill="none" stroke="#63b8ff" d="M135.41,-44.95C147.38,-46.55 159.8,-48.21 171.61,-49.79"/>
<polygon fill="#63b8ff" stroke="#63b8ff" points="171.42,-53.3 181.8,-51.15 172.35,-46.36 171.42,-53.3"/>
</a>
</g>
</g>
<!-- Node3 -->
<g id="Node000003" class="node">
<title>Node3</title>
<g id="a_Node000003"><a xlink:href="classAP__DAL__Compass.html#a5f67d2eae290cac9e5e82df1cd2797a2" target="_top" xlink:title=" ">
<polygon fill="white" stroke="#666666" points="297,-30 171,-30 171,0 297,0 297,-30"/>
<text text-anchor="start" x="179" y="-18" font-family="Helvetica,sans-Serif" font-size="10.00">AP_DAL_Compass::get</text>
<text text-anchor="middle" x="234" y="-7" font-family="Helvetica,sans-Serif" font-size="10.00">_first_usable</text>
</a>
</g>
</g>
<!-- Node1&#45;&gt;Node3 -->
<g id="edge2_Node000001_Node000003" class="edge">
<title>Node1&#45;&gt;Node3</title>
<g id="a_edge2_Node000001_Node000003"><a xlink:title=" ">
<path fill="none" stroke="#63b8ff" d="M135.41,-27.46C143.76,-26.39 152.32,-25.3 160.75,-24.22"/>
<polygon fill="#63b8ff" stroke="#63b8ff" points="161.45,-27.66 170.93,-22.92 160.56,-20.72 161.45,-27.66"/>
</a>
</g>
</g>
</g>
</svg>
