<?xml version="1.0" encoding="UTF-8" standalone="no"?>
<!DOCTYPE svg PUBLIC "-//W3C//DTD SVG 1.1//EN"
 "http://www.w3.org/Graphics/SVG/1.1/DTD/svg11.dtd">
<!-- Generated by graphviz version 2.43.0 (0)
 -->
<!-- Title: AP_MotorsHeli::reset_flight_controls Pages: 1 -->
<svg width="301pt" height="86pt"
 viewBox="0.00 0.00 301.00 86.00" xmlns="http://www.w3.org/2000/svg" xmlns:xlink="http://www.w3.org/1999/xlink">
<g id="graph0" class="graph" transform="scale(1 1) rotate(0) translate(4 82)">
<title>AP_MotorsHeli::reset_flight_controls</title>
<!-- Node1 -->
<g id="Node000001" class="node">
<title>Node1</title>
<g id="a_Node000001"><a xlink:title=" ">
<polygon fill="#999999" stroke="#666666" points="119,-54 0,-54 0,-24 119,-24 119,-54"/>
<text text-anchor="start" x="8" y="-42" font-family="Helvetica,sans-Serif" font-size="10.00">AP_MotorsHeli::reset</text>
<text text-anchor="middle" x="59.5" y="-31" font-family="Helvetica,sans-Serif" font-size="10.00">_flight_controls</text>
</a>
</g>
</g>
<!-- Node2 -->
<g id="Node000002" class="node">
<title>Node2</title>
<g id="a_Node000002"><a xlink:href="classAP__MotorsHeli.html#a3b035659d70ab36f882f7c9871074b0c" target="_top" xlink:title=" ">
<polygon fill="white" stroke="#666666" points="293,-78 155,-78 155,-48 293,-48 293,-78"/>
<text text-anchor="start" x="163" y="-66" font-family="Helvetica,sans-Serif" font-size="10.00">AP_MotorsHeli::calculate</text>
<text text-anchor="middle" x="224" y="-55" font-family="Helvetica,sans-Serif" font-size="10.00">_scalars</text>
</a>
</g>
</g>
<!-- Node1&#45;&gt;Node2 -->
<g id="edge1_Node000001_Node000002" class="edge">
<title>Node1&#45;&gt;Node2</title>
<g id="a_edge1_Node000001_Node000002"><a xlink:title=" ">
<path fill="none" stroke="#63b8ff" d="M119.17,-47.66C127.46,-48.89 136.1,-50.17 144.7,-51.44"/>
<polygon fill="#63b8ff" stroke="#63b8ff" points="144.34,-54.92 154.75,-52.92 145.37,-48 144.34,-54.92"/>
</a>
</g>
</g>
<!-- Node3 -->
<g id="Node000003" class="node">
<title>Node3</title>
<g id="a_Node000003"><a xlink:href="classAP__MotorsHeli.html#a661837bc0cce230aa991f7068e3b58d2" target="_top" xlink:title=" ">
<polygon fill="white" stroke="#666666" points="279,-30 169,-30 169,0 279,0 279,-30"/>
<text text-anchor="start" x="177" y="-18" font-family="Helvetica,sans-Serif" font-size="10.00">AP_MotorsHeli::init</text>
<text text-anchor="middle" x="224" y="-7" font-family="Helvetica,sans-Serif" font-size="10.00">_outputs</text>
</a>
</g>
</g>
<!-- Node1&#45;&gt;Node3 -->
<g id="edge2_Node000001_Node000003" class="edge">
<title>Node1&#45;&gt;Node3</title>
<g id="a_edge2_Node000001_Node000003"><a xlink:title=" ">
<path fill="none" stroke="#63b8ff" d="M119.17,-30.34C131.93,-28.45 145.51,-26.44 158.49,-24.53"/>
<polygon fill="#63b8ff" stroke="#63b8ff" points="159.37,-27.94 168.75,-23.01 158.34,-21.01 159.37,-27.94"/>
</a>
</g>
</g>
</g>
</svg>
