<?xml version="1.0" encoding="UTF-8" standalone="no"?>
<!DOCTYPE svg PUBLIC "-//W3C//DTD SVG 1.1//EN"
 "http://www.w3.org/Graphics/SVG/1.1/DTD/svg11.dtd">
<!-- Generated by graphviz version 2.43.0 (0)
 -->
<!-- Title: LowPassHelper::print_transfer_function Pages: 1 -->
<svg width="640pt" height="179pt"
 viewBox="0.00 0.00 640.00 178.50" xmlns="http://www.w3.org/2000/svg" xmlns:xlink="http://www.w3.org/1999/xlink">
<g id="graph0" class="graph" transform="scale(1 1) rotate(0) translate(4 174.5)">
<title>LowPassHelper::print_transfer_function</title>
<!-- Node1 -->
<g id="Node000001" class="node">
<title>Node1</title>
<g id="a_Node000001"><a xlink:title=" ">
<polygon fill="#999999" stroke="#666666" points="119,-78 0,-78 0,-48 119,-48 119,-78"/>
<text text-anchor="start" x="8" y="-66" font-family="Helvetica,sans-Serif" font-size="10.00">LowPassHelper::print</text>
<text text-anchor="middle" x="59.5" y="-55" font-family="Helvetica,sans-Serif" font-size="10.00">_transfer_function</text>
</a>
</g>
</g>
<!-- Node2 -->
<g id="Node000002" class="node">
<title>Node2</title>
<g id="a_Node000002"><a xlink:href="AP__Math_8cpp.html#af85526f09770bf084ecba71cb8839c76" target="_top" xlink:title=" ">
<polygon fill="white" stroke="#666666" points="283,-115.5 155,-115.5 155,-96.5 283,-96.5 283,-115.5"/>
<text text-anchor="middle" x="219" y="-103.5" font-family="Helvetica,sans-Serif" font-size="10.00">calc_lowpass_alpha_dt</text>
</a>
</g>
</g>
<!-- Node1&#45;&gt;Node2 -->
<g id="edge1_Node000001_Node000002" class="edge">
<title>Node1&#45;&gt;Node2</title>
<g id="a_edge1_Node000001_Node000002"><a xlink:title=" ">
<path fill="none" stroke="#63b8ff" d="M115.59,-78.04C134.36,-83.16 155.11,-88.83 173,-93.71"/>
<polygon fill="#63b8ff" stroke="#63b8ff" points="172.32,-97.16 182.89,-96.41 174.16,-90.4 172.32,-97.16"/>
</a>
</g>
</g>
<!-- Node7 -->
<g id="Node000007" class="node">
<title>Node7</title>
<g id="a_Node000007"><a xlink:href="classLowPassFilter.html#a92fa90d583bfbf889724e4fbc1ca8d87" target="_top" xlink:title=" ">
<polygon fill="white" stroke="#666666" points="277,-78 161,-78 161,-48 277,-48 277,-78"/>
<text text-anchor="start" x="169" y="-66" font-family="Helvetica,sans-Serif" font-size="10.00">LowPassFilter&lt; float</text>
<text text-anchor="middle" x="219" y="-55" font-family="Helvetica,sans-Serif" font-size="10.00"> &gt;::get_cutoff_freq</text>
</a>
</g>
</g>
<!-- Node1&#45;&gt;Node7 -->
<g id="edge7_Node000001_Node000007" class="edge">
<title>Node1&#45;&gt;Node7</title>
<g id="a_edge7_Node000001_Node000007"><a xlink:title=" ">
<path fill="none" stroke="#63b8ff" d="M119.15,-63C129.49,-63 140.32,-63 150.87,-63"/>
<polygon fill="#63b8ff" stroke="#63b8ff" points="150.87,-66.5 160.87,-63 150.87,-59.5 150.87,-66.5"/>
</a>
</g>
</g>
<!-- Node8 -->
<g id="Node000008" class="node">
<title>Node8</title>
<g id="a_Node000008"><a xlink:href="classAP__HAL_1_1BetterStream.html#a8534aa004599bb81ad60f3e762791032" target="_top" xlink:title=" ">
<polygon fill="white" stroke="#666666" points="281.5,-30 156.5,-30 156.5,0 281.5,0 281.5,-30"/>
<text text-anchor="start" x="164.5" y="-18" font-family="Helvetica,sans-Serif" font-size="10.00">AP_HAL::BetterStream</text>
<text text-anchor="middle" x="219" y="-7" font-family="Helvetica,sans-Serif" font-size="10.00">::printf</text>
</a>
</g>
</g>
<!-- Node1&#45;&gt;Node8 -->
<g id="edge8_Node000001_Node000008" class="edge">
<title>Node1&#45;&gt;Node8</title>
<g id="a_edge8_Node000001_Node000008"><a xlink:title=" ">
<path fill="none" stroke="#63b8ff" d="M109.9,-47.94C125.44,-43.21 142.76,-37.93 158.9,-33.01"/>
<polygon fill="#63b8ff" stroke="#63b8ff" points="160.23,-36.27 168.77,-30 158.19,-29.57 160.23,-36.27"/>
</a>
</g>
</g>
<!-- Node3 -->
<g id="Node000003" class="node">
<title>Node3</title>
<g id="a_Node000003"><a xlink:href="AP__Math_8h.html#a8b6f71a42818d74fd8bfe348108942fa" target="_top" xlink:title=" ">
<polygon fill="white" stroke="#666666" points="418,-170.5 345,-170.5 345,-151.5 418,-151.5 418,-170.5"/>
<text text-anchor="middle" x="381.5" y="-158.5" font-family="Helvetica,sans-Serif" font-size="10.00">is_negative</text>
</a>
</g>
</g>
<!-- Node2&#45;&gt;Node3 -->
<g id="edge2_Node000002_Node000003" class="edge">
<title>Node2&#45;&gt;Node3</title>
<g id="a_edge2_Node000002_Node000003"><a xlink:title=" ">
<path fill="none" stroke="#63b8ff" d="M244.23,-115.62C264.17,-123.4 293.23,-134.43 319,-143 324.61,-144.87 330.55,-146.74 336.43,-148.52"/>
<polygon fill="#63b8ff" stroke="#63b8ff" points="335.62,-151.94 346.21,-151.44 337.63,-145.23 335.62,-151.94"/>
</a>
</g>
</g>
<!-- Node4 -->
<g id="Node000004" class="node">
<title>Node4</title>
<g id="a_Node000004"><a xlink:href="AP__Math_8h.html#a2a12cce483e9b870da70d30406d82c60" target="_top" xlink:title=" ">
<polygon fill="white" stroke="#666666" points="407,-115.5 356,-115.5 356,-96.5 407,-96.5 407,-115.5"/>
<text text-anchor="middle" x="381.5" y="-103.5" font-family="Helvetica,sans-Serif" font-size="10.00">is_zero</text>
</a>
</g>
</g>
<!-- Node2&#45;&gt;Node4 -->
<g id="edge3_Node000002_Node000004" class="edge">
<title>Node2&#45;&gt;Node4</title>
<g id="a_edge3_Node000002_Node000004"><a xlink:title=" ">
<path fill="none" stroke="#63b8ff" d="M283.43,-106C304.68,-106 327.56,-106 345.78,-106"/>
<polygon fill="#63b8ff" stroke="#63b8ff" points="345.91,-109.5 355.91,-106 345.91,-102.5 345.91,-109.5"/>
</a>
</g>
</g>
<!-- Node5 -->
<g id="Node000005" class="node">
<title>Node5</title>
<g id="a_Node000005"><a xlink:href="RC__Channels_8cpp.html#abe35aea6177a1cdf87a22af5c263bb89" target="_top" xlink:title=" ">
<polygon fill="white" stroke="#666666" points="396,-78.5 367,-78.5 367,-59.5 396,-59.5 396,-78.5"/>
<text text-anchor="middle" x="381.5" y="-66.5" font-family="Helvetica,sans-Serif" font-size="10.00">rc</text>
</a>
</g>
</g>
<!-- Node2&#45;&gt;Node5 -->
<g id="edge5_Node000002_Node000005" class="edge">
<title>Node2&#45;&gt;Node5</title>
<g id="a_edge5_Node000002_Node000005"><a xlink:title=" ">
<path fill="none" stroke="#63b8ff" d="M261.33,-96.47C291.59,-89.5 331.59,-80.27 356.69,-74.49"/>
<polygon fill="#63b8ff" stroke="#63b8ff" points="357.81,-77.82 366.77,-72.17 356.24,-71 357.81,-77.82"/>
</a>
</g>
</g>
<!-- Node4&#45;&gt;Node4 -->
<g id="edge4_Node000004_Node000004" class="edge">
<title>Node4&#45;&gt;Node4</title>
<g id="a_edge4_Node000004_Node000004"><a xlink:title=" ">
<path fill="none" stroke="#63b8ff" d="M356.53,-115.58C344.38,-124.23 352.71,-133.5 381.5,-133.5 400.4,-133.5 410.48,-129.51 411.74,-124.32"/>
<polygon fill="#63b8ff" stroke="#63b8ff" points="414.63,-122.34 406.47,-115.58 408.64,-125.95 414.63,-122.34"/>
</a>
</g>
</g>
<!-- Node6 -->
<g id="Node000006" class="node">
<title>Node6</title>
<g id="a_Node000006"><a xlink:href="classRC__Channels.html#ae4e66c56cdd1eb498d22b52dffc687d6" target="_top" xlink:title=" ">
<polygon fill="white" stroke="#666666" points="632,-78.5 480,-78.5 480,-59.5 632,-59.5 632,-78.5"/>
<text text-anchor="middle" x="556" y="-66.5" font-family="Helvetica,sans-Serif" font-size="10.00">RC_Channels::get_singleton</text>
</a>
</g>
</g>
<!-- Node5&#45;&gt;Node6 -->
<g id="edge6_Node000005_Node000006" class="edge">
<title>Node5&#45;&gt;Node6</title>
<g id="a_edge6_Node000005_Node000006"><a xlink:title=" ">
<path fill="none" stroke="#63b8ff" d="M396.04,-69C412.31,-69 441,-69 469.58,-69"/>
<polygon fill="#63b8ff" stroke="#63b8ff" points="469.66,-72.5 479.66,-69 469.66,-65.5 469.66,-72.5"/>
</a>
</g>
</g>
<!-- Node9 -->
<g id="Node000009" class="node">
<title>Node9</title>
<g id="a_Node000009"><a xlink:href="classAP__HAL_1_1BetterStream.html#aa730be451d385d7ba03ee9677e6d91a2" target="_top" xlink:title=" ">
<polygon fill="white" stroke="#666666" points="444,-30 319,-30 319,0 444,0 444,-30"/>
<text text-anchor="start" x="327" y="-18" font-family="Helvetica,sans-Serif" font-size="10.00">AP_HAL::BetterStream</text>
<text text-anchor="middle" x="381.5" y="-7" font-family="Helvetica,sans-Serif" font-size="10.00">::vprintf</text>
</a>
</g>
</g>
<!-- Node8&#45;&gt;Node9 -->
<g id="edge9_Node000008_Node000009" class="edge">
<title>Node8&#45;&gt;Node9</title>
<g id="a_edge9_Node000008_Node000009"><a xlink:title=" ">
<path fill="none" stroke="#63b8ff" d="M281.59,-15C290.46,-15 299.64,-15 308.68,-15"/>
<polygon fill="#63b8ff" stroke="#63b8ff" points="308.81,-18.5 318.81,-15 308.81,-11.5 308.81,-18.5"/>
</a>
</g>
</g>
<!-- Node10 -->
<g id="Node000010" class="node">
<title>Node10</title>
<g id="a_Node000010"><a xlink:href="test__expandingstring__failure_8cpp.html#a98e0d5bb436a207f576379beaa786040" target="_top" xlink:title=" ">
<polygon fill="white" stroke="#666666" points="594.5,-24.5 517.5,-24.5 517.5,-5.5 594.5,-5.5 594.5,-24.5"/>
<text text-anchor="middle" x="556" y="-12.5" font-family="Helvetica,sans-Serif" font-size="10.00">print_vprintf</text>
</a>
</g>
</g>
<!-- Node9&#45;&gt;Node10 -->
<g id="edge10_Node000009_Node000010" class="edge">
<title>Node9&#45;&gt;Node10</title>
<g id="a_edge10_Node000009_Node000010"><a xlink:title=" ">
<path fill="none" stroke="#63b8ff" d="M444.29,-15C465.02,-15 487.81,-15 507.29,-15"/>
<polygon fill="#63b8ff" stroke="#63b8ff" points="507.45,-18.5 517.45,-15 507.45,-11.5 507.45,-18.5"/>
</a>
</g>
</g>
</g>
</svg>
