<?xml version="1.0" encoding="UTF-8" standalone="no"?>
<!DOCTYPE svg PUBLIC "-//W3C//DTD SVG 1.1//EN"
 "http://www.w3.org/Graphics/SVG/1.1/DTD/svg11.dtd">
<!-- Generated by graphviz version 2.43.0 (0)
 -->
<!-- Title: AR_AttitudeControl::get_desired_speed_accel_limited Pages: 1 -->
<!--zoomable 209 -->

<svg id="main" version="1.1" xmlns="http://www.w3.org/2000/svg" xmlns:xlink="http://www.w3.org/1999/xlink" xml:space="preserve" onload="init(evt)">
<style type="text/css"><![CDATA[
.node, .edge {opacity: 0.7;}
.node.selected, .edge.selected {opacity: 1;}
.edge:hover path { stroke: red; }
.edge:hover polygon { stroke: red; fill: red; }
]]></style>

<defs>
  <circle id="rim" cx="0" cy="0" r="7"/>
  <circle id="rim2" cx="0" cy="0" r="3.5"/>
  <g id="zoomPlus">
    <use xlink:href="#rim" fill="#404040"><set attributeName="fill" to="#808080" begin="zoomplus.mouseover" end="zoomplus.mouseout"/></use>
    <path d="M-4,0h8M0,-4v8" fill="none" stroke="white" stroke-width="1.5" pointer-events="none"/>
  </g>
  <g id="zoomMin">
    <use xlink:href="#rim" fill="#404040"><set attributeName="fill" to="#808080" begin="zoomminus.mouseover" end="zoomminus.mouseout"/></use>
    <path d="M-4,0h8" fill="none" stroke="white" stroke-width="1.5" pointer-events="none"/>
  </g>
  <g id="arrowUp" transform="translate(30 24)">
    <use xlink:href="#rim"/>
    <path pointer-events="none" fill="none" stroke="white" stroke-width="1.5" d="M0,-3.0v7 M-2.5,-0.5L0,-3.0L2.5,-0.5"/>
  </g>
  <g id="arrowRight" transform="rotate(90) translate(36 -43)">
    <use xlink:href="#rim"/>
    <path pointer-events="none" fill="none" stroke="white" stroke-width="1.5" d="M0,-3.0v7 M-2.5,-0.5L0,-3.0L2.5,-0.5"/>
  </g>
  <g id="arrowDown" transform="rotate(180) translate(-30 -48)">
    <use xlink:href="#rim"/>
    <path pointer-events="none" fill="none" stroke="white" stroke-width="1.5" d="M0,-3.0v7 M-2.5,-0.5L0,-3.0L2.5,-0.5"/>
  </g>
  <g id="arrowLeft" transform="rotate(270) translate(-36 17)">
    <use xlink:href="#rim"/>
    <path pointer-events="none" fill="none" stroke="white" stroke-width="1.5" d="M0,-3.0v7 M-2.5,-0.5L0,-3.0L2.5,-0.5"/>
  </g>
  <g id="resetDef">
    <use xlink:href="#rim2" fill="#404040"><set attributeName="fill" to="#808080" begin="reset.mouseover" end="reset.mouseout"/></use>
  </g>
</defs>
<script type="application/ecmascript">
var viewWidth = 796;
var viewHeight = 209;
var sectionId = 'dynsection-9';
</script>
<script type="application/ecmascript" xlink:href="svg.min.js"/>
<svg id="graph" class="graph">
<g id="viewport">
<title>AR_AttitudeControl::get_desired_speed_accel_limited</title>
<!-- Node1 -->
<g id="Node000001" class="node">
<title>Node1</title>
<g id="a_Node000001"><a xlink:title=" ">
<polygon fill="#999999" stroke="#666666" points="788,-106 674,-106 674,-65 788,-65 788,-106"/>
<text text-anchor="start" x="682" y="-94" font-family="Helvetica,sans-Serif" font-size="10.00">AR_AttitudeControl</text>
<text text-anchor="start" x="682" y="-83" font-family="Helvetica,sans-Serif" font-size="10.00">::get_desired_speed</text>
<text text-anchor="middle" x="731" y="-72" font-family="Helvetica,sans-Serif" font-size="10.00">_accel_limited</text>
</a>
</g>
</g>
<!-- Node2 -->
<g id="Node000002" class="node">
<title>Node2</title>
<g id="a_Node000002"><a xlink:href="classAR__AttitudeControl.html#a9aab31d9702c59bf0cd5dbfc8db2fc6b" target="_top" xlink:title=" ">
<polygon fill="white" stroke="#666666" points="638,-200.5 503,-200.5 503,-170.5 638,-170.5 638,-200.5"/>
<text text-anchor="start" x="511" y="-188.5" font-family="Helvetica,sans-Serif" font-size="10.00">AR_AttitudeControl</text>
<text text-anchor="middle" x="570.5" y="-177.5" font-family="Helvetica,sans-Serif" font-size="10.00">::get_throttle_out_speed</text>
</a>
</g>
</g>
<!-- Node1&#45;&gt;Node2 -->
<g id="edge1_Node000001_Node000002" class="edge">
<title>Node1&#45;&gt;Node2</title>
<g id="a_edge1_Node000001_Node000002"><a xlink:title=" ">
<path fill="none" stroke="#63b8ff" d="M698.55,-112.88C681.39,-127.01 659.34,-143.88 638,-156.5 629.44,-161.57 619.83,-166.27 610.63,-170.35"/>
<polygon fill="#63b8ff" stroke="#63b8ff" points="701.13,-115.3 706.56,-106.2 696.64,-109.92 701.13,-115.3"/>
</a>
</g>
</g>
<!-- Node3 -->
<g id="Node000003" class="node">
<title>Node3</title>
<g id="a_Node000003"><a xlink:href="classAR__AttitudeControl.html#aa6d93dc014f5037bbcd88e96a392cc5e" target="_top" xlink:title=" ">
<polygon fill="white" stroke="#666666" points="453,-178.5 326,-178.5 326,-148.5 453,-148.5 453,-178.5"/>
<text text-anchor="start" x="334" y="-166.5" font-family="Helvetica,sans-Serif" font-size="10.00">AR_AttitudeControl</text>
<text text-anchor="middle" x="389.5" y="-155.5" font-family="Helvetica,sans-Serif" font-size="10.00">::get_throttle_out_stop</text>
</a>
</g>
</g>
<!-- Node1&#45;&gt;Node3 -->
<g id="edge3_Node000001_Node000003" class="edge">
<title>Node1&#45;&gt;Node3</title>
<g id="a_edge3_Node000001_Node000003"><a xlink:title=" ">
<path fill="none" stroke="#63b8ff" d="M676.5,-110.04C664.05,-115.06 650.72,-119.9 638,-123.5 576.33,-140.96 503.72,-151.57 453.16,-157.43"/>
<polygon fill="#63b8ff" stroke="#63b8ff" points="677.91,-113.24 685.81,-106.18 675.24,-106.77 677.91,-113.24"/>
</a>
</g>
</g>
<!-- Node4 -->
<g id="Node000004" class="node">
<title>Node4</title>
<g id="a_Node000004"><a xlink:href="classAR__PosControl.html#abfd7ebfb9cb20be3fd7bb56a902198a0" target="_top" xlink:title=" ">
<polygon fill="white" stroke="#666666" points="634.5,-114 506.5,-114 506.5,-95 634.5,-95 634.5,-114"/>
<text text-anchor="middle" x="570.5" y="-102" font-family="Helvetica,sans-Serif" font-size="10.00">AR_PosControl::update</text>
</a>
</g>
</g>
<!-- Node1&#45;&gt;Node4 -->
<g id="edge4_Node000001_Node000004" class="edge">
<title>Node1&#45;&gt;Node4</title>
<g id="a_edge4_Node000001_Node000004"><a xlink:title=" ">
<path fill="none" stroke="#63b8ff" d="M663.45,-93.48C653.92,-94.62 644.13,-95.79 634.66,-96.93"/>
<polygon fill="#63b8ff" stroke="#63b8ff" points="664.16,-96.92 673.67,-92.25 663.33,-89.97 664.16,-96.92"/>
</a>
</g>
</g>
<!-- Node5 -->
<g id="Node000005" class="node">
<title>Node5</title>
<g id="a_Node000005"><a xlink:href="classAR__WPNav.html#aaa74d8b4969e410e36f2f04f05edaea1" target="_top" xlink:title=" ">
<polygon fill="white" stroke="#666666" points="467,-86.5 312,-86.5 312,-56.5 467,-56.5 467,-86.5"/>
<text text-anchor="start" x="320" y="-74.5" font-family="Helvetica,sans-Serif" font-size="10.00">AR_WPNav::update_steering</text>
<text text-anchor="middle" x="389.5" y="-63.5" font-family="Helvetica,sans-Serif" font-size="10.00">_and_speed</text>
</a>
</g>
</g>
<!-- Node1&#45;&gt;Node5 -->
<g id="edge10_Node000001_Node000005" class="edge">
<title>Node1&#45;&gt;Node5</title>
<g id="a_edge10_Node000001_Node000005"><a xlink:title=" ">
<path fill="none" stroke="#63b8ff" d="M663.72,-82.77C607.37,-80.44 526.45,-77.11 467.3,-74.67"/>
<polygon fill="#63b8ff" stroke="#63b8ff" points="663.8,-86.27 673.94,-83.19 664.09,-79.28 663.8,-86.27"/>
</a>
</g>
</g>
<!-- Node6 -->
<g id="Node000006" class="node">
<title>Node6</title>
<g id="a_Node000006"><a xlink:href="classAR__WPNav.html#a537e00d4cacfe212829be555575c66f4" target="_top" xlink:title=" ">
<polygon fill="white" stroke="#666666" points="276,-38 166,-38 166,-19 276,-19 276,-38"/>
<text text-anchor="middle" x="221" y="-26" font-family="Helvetica,sans-Serif" font-size="10.00">AR_WPNav::update</text>
</a>
</g>
</g>
<!-- Node1&#45;&gt;Node6 -->
<g id="edge8_Node000001_Node000006" class="edge">
<title>Node1&#45;&gt;Node6</title>
<g id="a_edge8_Node000001_Node000006"><a xlink:title=" ">
<path fill="none" stroke="#63b8ff" d="M663.56,-75.3C654.96,-74 646.27,-72.71 638,-71.5 562.06,-60.39 543.29,-55.8 467,-47.5 401.47,-40.37 325.8,-34.92 276.1,-31.73"/>
<polygon fill="#63b8ff" stroke="#63b8ff" points="663.17,-78.78 673.58,-76.81 664.21,-71.85 663.17,-78.78"/>
</a>
</g>
</g>
<!-- Node7 -->
<g id="Node000007" class="node">
<title>Node7</title>
<g id="a_Node000007"><a xlink:href="classAR__WPNav__OA.html#aacfc598570918972c86c1de6e50bf565" target="_top" xlink:title=" ">
<polygon fill="white" stroke="#666666" points="130,-19 0,-19 0,0 130,0 130,-19"/>
<text text-anchor="middle" x="65" y="-7" font-family="Helvetica,sans-Serif" font-size="10.00">AR_WPNav_OA::update</text>
</a>
</g>
</g>
<!-- Node1&#45;&gt;Node7 -->
<g id="edge9_Node000001_Node000007" class="edge">
<title>Node1&#45;&gt;Node7</title>
<g id="a_edge9_Node000001_Node000007"><a xlink:title=" ">
<path fill="none" stroke="#63b8ff" d="M677.8,-60.91C665.02,-55.74 651.22,-50.85 638,-47.5 458.32,-1.95 237.32,-2.56 130.23,-6.28"/>
<polygon fill="#63b8ff" stroke="#63b8ff" points="676.77,-64.27 687.35,-64.9 679.47,-57.82 676.77,-64.27"/>
</a>
</g>
</g>
<!-- Node2&#45;&gt;Node3 -->
<g id="edge2_Node000002_Node000003" class="edge">
<title>Node2&#45;&gt;Node3</title>
<g id="a_edge2_Node000002_Node000003"><a xlink:title=" ">
<path fill="none" stroke="#63b8ff" d="M492.8,-176.07C479.54,-174.44 465.89,-172.77 453.06,-171.19"/>
<polygon fill="#63b8ff" stroke="#63b8ff" points="492.49,-179.56 502.85,-177.31 493.35,-172.61 492.49,-179.56"/>
</a>
</g>
</g>
<!-- Node4&#45;&gt;Node5 -->
<g id="edge5_Node000004_Node000005" class="edge">
<title>Node4&#45;&gt;Node5</title>
<g id="a_edge5_Node000004_Node000005"><a xlink:title=" ">
<path fill="none" stroke="#63b8ff" d="M507.88,-93.14C494.76,-90.72 480.74,-88.14 467.13,-85.63"/>
<polygon fill="#63b8ff" stroke="#63b8ff" points="507.26,-96.58 517.73,-94.96 508.53,-89.7 507.26,-96.58"/>
</a>
</g>
</g>
<!-- Node5&#45;&gt;Node6 -->
<g id="edge6_Node000005_Node000006" class="edge">
<title>Node5&#45;&gt;Node6</title>
<g id="a_edge6_Node000005_Node000006"><a xlink:title=" ">
<path fill="none" stroke="#63b8ff" d="M320.43,-53.92C299.47,-48.51 277.18,-42.75 259.12,-38.09"/>
<polygon fill="#63b8ff" stroke="#63b8ff" points="319.71,-57.35 330.27,-56.46 321.46,-50.57 319.71,-57.35"/>
</a>
</g>
</g>
<!-- Node6&#45;&gt;Node7 -->
<g id="edge7_Node000006_Node000007" class="edge">
<title>Node6&#45;&gt;Node7</title>
<g id="a_edge7_Node000006_Node000007"><a xlink:title=" ">
<path fill="none" stroke="#63b8ff" d="M155.56,-20.55C147.13,-19.51 138.5,-18.45 130.08,-17.41"/>
<polygon fill="#63b8ff" stroke="#63b8ff" points="155.35,-24.05 165.71,-21.8 156.21,-17.1 155.35,-24.05"/>
</a>
</g>
</g>
</g>
</svg>

<g id="navigator" transform="translate(0 0)" fill="#404254">
  <rect fill="#f2f5e9" fill-opacity="0.5" stroke="#606060" stroke-width=".5" x="0" y="0" width="60" height="60"/>
  <use id="zoomplus" xlink:href="#zoomPlus" x="17" y="9" onmousedown="handleZoom(evt,'in')"/>
  <use id="zoomminus" xlink:href="#zoomMin" x="42" y="9" onmousedown="handleZoom(evt,'out')"/>
  <use id="reset" xlink:href="#resetDef" x="30" y="36" onmousedown="handleReset()"/>
   <use id="arrowup" xlink:href="#arrowUp" x="0" y="0" onmousedown="handlePan(0,-1)"/>
  <use id="arrowright" xlink:href="#arrowRight" x="0" y="0" onmousedown="handlePan(1,0)"/>
  <use id="arrowdown" xlink:href="#arrowDown" x="0" y="0" onmousedown="handlePan(0,1)"/>
  <use id="arrowleft" xlink:href="#arrowLeft" x="0" y="0" onmousedown="handlePan(-1,0)"/>
</g>
<svg viewBox="0 0 15 15" width="100%" height="30px" preserveAspectRatio="xMaxYMin meet">
 <g id="arrow_out" transform="scale(0.3 0.3)">
  <a xlink:href="classAR__AttitudeControl_afc29228fde53e3229643ffe0108da06a_icgraph_org.svg" target="_base">
   <rect id="button" ry="5" rx="5" y="6" x="6" height="38" width="38"
        fill="#f2f5e9" fill-opacity="0.5" stroke="#606060" stroke-width="1.0"/>
   <path id="arrow"
     d="M 11.500037,31.436501 C 11.940474,20.09759 22.043105,11.32322 32.158766,21.979434 L 37.068811,17.246167 C 37.068811,17.246167 37.088388,32 37.088388,32 L 22.160133,31.978069 C 22.160133,31.978069 26.997745,27.140456 26.997745,27.140456 C 18.528582,18.264221 13.291696,25.230495 11.500037,31.436501 z"
     style="fill:#404040;"/>
  </a>
 </g>
</svg>

<style type='text/css'>
<![CDATA[
[data-mouse-over-selected='false'] { opacity: 0.7; }
[data-mouse-over-selected='true']  { opacity: 1.0; }
]]>
</style>
<script type="application/ecmascript"><![CDATA[
document.addEventListener('DOMContentLoaded', (event) => {
  highlightEdges();
  highlightAdjacentNodes();
});
]]></script>
</svg>
