<?xml version="1.0" encoding="UTF-8" standalone="no"?>
<!DOCTYPE svg PUBLIC "-//W3C//DTD SVG 1.1//EN"
 "http://www.w3.org/Graphics/SVG/1.1/DTD/svg11.dtd">
<!-- Generated by graphviz version 2.43.0 (0)
 -->
<!-- Title: SITL::Helicopter Pages: 1 -->
<svg width="320pt" height="203pt"
 viewBox="0.00 0.00 320.00 203.00" xmlns="http://www.w3.org/2000/svg" xmlns:xlink="http://www.w3.org/1999/xlink">

<svg id="main" version="1.1" xmlns="http://www.w3.org/2000/svg" xmlns:xlink="http://www.w3.org/1999/xlink" xml:space="preserve" onload="init(evt)">
<style type="text/css"><![CDATA[
.node, .edge {opacity: 0.7;}
.node.selected, .edge.selected {opacity: 1;}
.edge:hover path { stroke: red; }
.edge:hover polygon { stroke: red; fill: red; }
]]></style>
<script type="application/ecmascript" xlink:href="svg.min.js"/>
<svg id="graph" class="graph">
<g id="graph0" class="graph" transform="scale(1 1) rotate(0) translate(4 199)">
<title>SITL::Helicopter</title>
<!-- Node1 -->
<g id="Node000001" class="node">
<title>Node1</title>
<g id="a_Node000001"><a xlink:title=" ">
<polygon fill="#999999" stroke="#666666" points="169.5,-19 76.5,-19 76.5,0 169.5,0 169.5,-19"/>
<text text-anchor="middle" x="123" y="-7" font-family="Helvetica,sans-Serif" font-size="10.00">SITL::Helicopter</text>
</a>
</g>
</g>
<!-- Node2 -->
<g id="Node000002" class="node">
<title>Node2</title>
<g id="a_Node000002"><a xlink:title=" ">
<polygon fill="white" stroke="#666666" points="52,-118 0,-118 0,-99 52,-99 52,-118"/>
<text text-anchor="middle" x="26" y="-106" font-family="Helvetica,sans-Serif" font-size="10.00">Aircraft</text>
</a>
</g>
</g>
<!-- Node2&#45;&gt;Node1 -->
<g id="edge1_Node000001_Node000002" class="edge">
<title>Node2&#45;&gt;Node1</title>
<g id="a_edge1_Node000001_Node000002"><a xlink:title=" ">
<path fill="none" stroke="#63b8ff" d="M41.72,-91.78C62.36,-71.14 97.9,-35.6 114.27,-19.23"/>
<polygon fill="#63b8ff" stroke="#63b8ff" points="39.2,-89.35 34.61,-98.89 44.15,-94.3 39.2,-89.35"/>
</a>
</g>
</g>
<!-- Node3 -->
<g id="Node000003" class="node">
<title>Node3</title>
<g id="a_Node000003"><a xlink:href="classObjectBuffer.html" target="_top" xlink:title=" ">
<polygon fill="white" stroke="#666666" points="181.5,-129 70.5,-129 70.5,-88 181.5,-88 181.5,-129"/>
<text text-anchor="start" x="78.5" y="-117" font-family="Helvetica,sans-Serif" font-size="10.00">ObjectBuffer&lt; SITL</text>
<text text-anchor="start" x="78.5" y="-106" font-family="Helvetica,sans-Serif" font-size="10.00">::Helicopter::servos</text>
<text text-anchor="middle" x="126" y="-95" font-family="Helvetica,sans-Serif" font-size="10.00">_stored &gt;</text>
</a>
</g>
</g>
<!-- Node3&#45;&gt;Node1 -->
<g id="edge2_Node000001_Node000003" class="edge">
<title>Node3&#45;&gt;Node1</title>
<g id="a_edge2_Node000001_Node000003"><a xlink:title=" ">
<path fill="none" stroke="#9a32cd" stroke-dasharray="5,2" d="M124.3,-77.44C124.19,-74.92 124.08,-72.42 124,-70 123.37,-52.03 123.13,-31 123.05,-19.37"/>
<polygon fill="#9a32cd" stroke="#9a32cd" points="120.82,-77.84 124.81,-87.66 127.81,-77.49 120.82,-77.84"/>
</a>
</g>
<text text-anchor="middle" x="177" y="-51" font-family="Helvetica,sans-Serif" font-size="10.00" fill="grey"> servos_stored_buffer</text>
</g>
<!-- Node4 -->
<g id="Node000004" class="node">
<title>Node4</title>
<g id="a_Node000004"><a xlink:href="classByteBuffer.html" target="_top" xlink:title=" ">
<polygon fill="white" stroke="#666666" points="160,-195 92,-195 92,-176 160,-176 160,-195"/>
<text text-anchor="middle" x="126" y="-183" font-family="Helvetica,sans-Serif" font-size="10.00">ByteBuffer</text>
</a>
</g>
</g>
<!-- Node4&#45;&gt;Node3 -->
<g id="edge3_Node000003_Node000004" class="edge">
<title>Node4&#45;&gt;Node3</title>
<g id="a_edge3_Node000003_Node000004"><a xlink:title=" ">
<path fill="none" stroke="#9a32cd" stroke-dasharray="5,2" d="M126,-165.61C126,-154.5 126,-140.46 126,-129.21"/>
<polygon fill="#9a32cd" stroke="#9a32cd" points="122.5,-165.9 126,-175.9 129.5,-165.9 122.5,-165.9"/>
</a>
</g>
<text text-anchor="middle" x="142" y="-150" font-family="Helvetica,sans-Serif" font-size="10.00" fill="grey"> buffer</text>
</g>
<!-- Node5 -->
<g id="Node000005" class="node">
<title>Node5</title>
<g id="a_Node000005"><a xlink:href="structVector2.html" target="_top" xlink:title=" ">
<polygon fill="white" stroke="#666666" points="301,-118 203,-118 203,-99 301,-99 301,-118"/>
<text text-anchor="middle" x="252" y="-106" font-family="Helvetica,sans-Serif" font-size="10.00">Vector2&lt; float &gt;</text>
</a>
</g>
</g>
<!-- Node5&#45;&gt;Node1 -->
<g id="edge4_Node000001_Node000005" class="edge">
<title>Node5&#45;&gt;Node1</title>
<g id="a_edge4_Node000001_Node000005"><a xlink:title=" ">
<path fill="none" stroke="#9a32cd" stroke-dasharray="5,2" d="M251.06,-88.44C249.23,-72.5 244.12,-50.3 230,-37 213.84,-21.78 190.36,-14.91 169.5,-11.95"/>
<polygon fill="#9a32cd" stroke="#9a32cd" points="247.59,-89.03 251.88,-98.72 254.57,-88.47 247.59,-89.03"/>
</a>
</g>
<text text-anchor="middle" x="279.5" y="-62" font-family="Helvetica,sans-Serif" font-size="10.00" fill="grey"> _tpp_angle</text>
<text text-anchor="middle" x="279.5" y="-51" font-family="Helvetica,sans-Serif" font-size="10.00" fill="grey">_tpp_angle_1</text>
<text text-anchor="middle" x="279.5" y="-40" font-family="Helvetica,sans-Serif" font-size="10.00" fill="grey">_tpp_angle_2</text>
</g>
</g>
</svg>
</svg>

<style type='text/css'>
<![CDATA[
[data-mouse-over-selected='false'] { opacity: 0.7; }
[data-mouse-over-selected='true']  { opacity: 1.0; }
]]>
</style>
<script type="application/ecmascript"><![CDATA[
document.addEventListener('DOMContentLoaded', (event) => {
  highlightEdges();
  highlightAdjacentNodes();
});
]]></script>
</svg>
