<?xml version="1.0" encoding="UTF-8" standalone="no"?>
<!DOCTYPE svg PUBLIC "-//W3C//DTD SVG 1.1//EN"
 "http://www.w3.org/Graphics/SVG/1.1/DTD/svg11.dtd">
<!-- Generated by graphviz version 2.43.0 (0)
 -->
<!-- Title: AP_RangeFinder_Backend_Serial::init_serial Pages: 1 -->
<!--zoomable 283 -->

<svg id="main" version="1.1" xmlns="http://www.w3.org/2000/svg" xmlns:xlink="http://www.w3.org/1999/xlink" xml:space="preserve" onload="init(evt)">
<style type="text/css"><![CDATA[
.node, .edge {opacity: 0.7;}
.node.selected, .edge.selected {opacity: 1;}
.edge:hover path { stroke: red; }
.edge:hover polygon { stroke: red; fill: red; }
]]></style>

<defs>
  <circle id="rim" cx="0" cy="0" r="7"/>
  <circle id="rim2" cx="0" cy="0" r="3.5"/>
  <g id="zoomPlus">
    <use xlink:href="#rim" fill="#404040"><set attributeName="fill" to="#808080" begin="zoomplus.mouseover" end="zoomplus.mouseout"/></use>
    <path d="M-4,0h8M0,-4v8" fill="none" stroke="white" stroke-width="1.5" pointer-events="none"/>
  </g>
  <g id="zoomMin">
    <use xlink:href="#rim" fill="#404040"><set attributeName="fill" to="#808080" begin="zoomminus.mouseover" end="zoomminus.mouseout"/></use>
    <path d="M-4,0h8" fill="none" stroke="white" stroke-width="1.5" pointer-events="none"/>
  </g>
  <g id="arrowUp" transform="translate(30 24)">
    <use xlink:href="#rim"/>
    <path pointer-events="none" fill="none" stroke="white" stroke-width="1.5" d="M0,-3.0v7 M-2.5,-0.5L0,-3.0L2.5,-0.5"/>
  </g>
  <g id="arrowRight" transform="rotate(90) translate(36 -43)">
    <use xlink:href="#rim"/>
    <path pointer-events="none" fill="none" stroke="white" stroke-width="1.5" d="M0,-3.0v7 M-2.5,-0.5L0,-3.0L2.5,-0.5"/>
  </g>
  <g id="arrowDown" transform="rotate(180) translate(-30 -48)">
    <use xlink:href="#rim"/>
    <path pointer-events="none" fill="none" stroke="white" stroke-width="1.5" d="M0,-3.0v7 M-2.5,-0.5L0,-3.0L2.5,-0.5"/>
  </g>
  <g id="arrowLeft" transform="rotate(270) translate(-36 17)">
    <use xlink:href="#rim"/>
    <path pointer-events="none" fill="none" stroke="white" stroke-width="1.5" d="M0,-3.0v7 M-2.5,-0.5L0,-3.0L2.5,-0.5"/>
  </g>
  <g id="resetDef">
    <use xlink:href="#rim2" fill="#404040"><set attributeName="fill" to="#808080" begin="reset.mouseover" end="reset.mouseout"/></use>
  </g>
</defs>
<script type="application/ecmascript">
var viewWidth = 879;
var viewHeight = 283;
var sectionId = 'dynsection-4';
</script>
<script type="application/ecmascript" xlink:href="svg.min.js"/>
<svg id="graph" class="graph">
<g id="viewport">
<title>AP_RangeFinder_Backend_Serial::init_serial</title>
<!-- Node1 -->
<g id="Node000001" class="node">
<title>Node1</title>
<g id="a_Node000001"><a xlink:title=" ">
<polygon fill="#999999" stroke="#666666" points="142,-142 0,-142 0,-112 142,-112 142,-142"/>
<text text-anchor="start" x="8" y="-130" font-family="Helvetica,sans-Serif" font-size="10.00">AP_RangeFinder_Backend</text>
<text text-anchor="middle" x="71" y="-119" font-family="Helvetica,sans-Serif" font-size="10.00">_Serial::init_serial</text>
</a>
</g>
</g>
<!-- Node2 -->
<g id="Node000002" class="node">
<title>Node2</title>
<g id="a_Node000002"><a xlink:href="classAP__HAL_1_1UARTDriver.html#a1ea1968a3238d1abb9d4880d1b679af4" target="_top" xlink:title=" ">
<polygon fill="white" stroke="#666666" points="307,-260 191,-260 191,-230 307,-230 307,-260"/>
<text text-anchor="start" x="199" y="-248" font-family="Helvetica,sans-Serif" font-size="10.00">AP_HAL::UARTDriver</text>
<text text-anchor="middle" x="249" y="-237" font-family="Helvetica,sans-Serif" font-size="10.00">::begin</text>
</a>
</g>
</g>
<!-- Node1&#45;&gt;Node2 -->
<g id="edge1_Node000001_Node000002" class="edge">
<title>Node1&#45;&gt;Node2</title>
<g id="a_edge1_Node000001_Node000002"><a xlink:title=" ">
<path fill="none" stroke="#63b8ff" d="M85.31,-142.07C104.12,-162.53 140.39,-199.07 178,-221 180.98,-222.74 184.1,-224.37 187.3,-225.91"/>
<polygon fill="#63b8ff" stroke="#63b8ff" points="185.92,-229.13 196.49,-229.98 188.76,-222.73 185.92,-229.13"/>
</a>
</g>
</g>
<!-- Node3 -->
<g id="Node000003" class="node">
<title>Node3</title>
<g id="a_Node000003"><a xlink:href="classAP__SerialManager.html#a58cb32ebb77d9fc18e4756d0270d1970" target="_top" xlink:title=" ">
<polygon fill="white" stroke="#666666" points="313.5,-212 184.5,-212 184.5,-182 313.5,-182 313.5,-212"/>
<text text-anchor="start" x="192.5" y="-200" font-family="Helvetica,sans-Serif" font-size="10.00">AP_SerialManager::find</text>
<text text-anchor="middle" x="249" y="-189" font-family="Helvetica,sans-Serif" font-size="10.00">_serial</text>
</a>
</g>
</g>
<!-- Node1&#45;&gt;Node3 -->
<g id="edge2_Node000001_Node000003" class="edge">
<title>Node1&#45;&gt;Node3</title>
<g id="a_edge2_Node000001_Node000003"><a xlink:title=" ">
<path fill="none" stroke="#63b8ff" d="M105.14,-142.18C125.9,-151.5 153.31,-163.43 178,-173 182.74,-174.84 187.7,-176.68 192.68,-178.49"/>
<polygon fill="#63b8ff" stroke="#63b8ff" points="191.65,-181.84 202.25,-181.9 194,-175.25 191.65,-181.84"/>
</a>
</g>
</g>
<!-- Node8 -->
<g id="Node000008" class="node">
<title>Node8</title>
<g id="a_Node000008"><a xlink:href="classAP__RangeFinder__Backend__Serial.html#ac1ce977e29e4f890d8ee1da6f7c98819" target="_top" xlink:title=" ">
<polygon fill="white" stroke="#666666" points="320,-164 178,-164 178,-134 320,-134 320,-164"/>
<text text-anchor="start" x="186" y="-152" font-family="Helvetica,sans-Serif" font-size="10.00">AP_RangeFinder_Backend</text>
<text text-anchor="middle" x="249" y="-141" font-family="Helvetica,sans-Serif" font-size="10.00">_Serial::initial_baudrate</text>
</a>
</g>
</g>
<!-- Node1&#45;&gt;Node8 -->
<g id="edge7_Node000001_Node000008" class="edge">
<title>Node1&#45;&gt;Node8</title>
<g id="a_edge7_Node000001_Node000008"><a xlink:title=" ">
<path fill="none" stroke="#63b8ff" d="M142.07,-135.76C150.54,-136.82 159.25,-137.91 167.85,-138.98"/>
<polygon fill="#63b8ff" stroke="#63b8ff" points="167.53,-142.47 177.89,-140.24 168.4,-135.52 167.53,-142.47"/>
</a>
</g>
</g>
<!-- Node12 -->
<g id="Node000012" class="node">
<title>Node12</title>
<g id="a_Node000012"><a xlink:href="namespaceAP.html#aa01135941499a6cbb5fc30403fc24c65" target="_top" xlink:title=" ">
<polygon fill="white" stroke="#666666" points="473.5,-115.5 367.5,-115.5 367.5,-96.5 473.5,-96.5 473.5,-115.5"/>
<text text-anchor="middle" x="420.5" y="-103.5" font-family="Helvetica,sans-Serif" font-size="10.00">AP::serialmanager</text>
</a>
</g>
</g>
<!-- Node1&#45;&gt;Node12 -->
<g id="edge15_Node000001_Node000012" class="edge">
<title>Node1&#45;&gt;Node12</title>
<g id="a_edge15_Node000001_Node000012"><a xlink:title=" ">
<path fill="none" stroke="#63b8ff" d="M142.32,-122.75C205.31,-118.94 296.82,-113.41 357.22,-109.76"/>
<polygon fill="#63b8ff" stroke="#63b8ff" points="357.61,-113.25 367.38,-109.15 357.19,-106.26 357.61,-113.25"/>
</a>
</g>
</g>
<!-- Node14 -->
<g id="Node000014" class="node">
<title>Node14</title>
<g id="a_Node000014"><a xlink:href="classAP__RangeFinder__Backend__Serial.html#a59fe20ef4961964c4b35e176984bcac1" target="_top" xlink:title=" ">
<polygon fill="white" stroke="#666666" points="320,-78 178,-78 178,-48 320,-48 320,-78"/>
<text text-anchor="start" x="186" y="-66" font-family="Helvetica,sans-Serif" font-size="10.00">AP_RangeFinder_Backend</text>
<text text-anchor="middle" x="249" y="-55" font-family="Helvetica,sans-Serif" font-size="10.00">_Serial::rx_bufsize</text>
</a>
</g>
</g>
<!-- Node1&#45;&gt;Node14 -->
<g id="edge14_Node000001_Node000014" class="edge">
<title>Node1&#45;&gt;Node14</title>
<g id="a_edge14_Node000001_Node000014"><a xlink:title=" ">
<path fill="none" stroke="#63b8ff" d="M113.26,-111.99C138.33,-102.88 170.52,-91.17 197.15,-81.49"/>
<polygon fill="#63b8ff" stroke="#63b8ff" points="198.49,-84.73 206.69,-78.02 196.1,-78.15 198.49,-84.73"/>
</a>
</g>
</g>
<!-- Node15 -->
<g id="Node000015" class="node">
<title>Node15</title>
<g id="a_Node000015"><a xlink:href="classAP__RangeFinder__Backend__Serial.html#a8ae3c9d0b45b490741caf7f2d9a4ceed" target="_top" xlink:title=" ">
<polygon fill="white" stroke="#666666" points="320,-30 178,-30 178,0 320,0 320,-30"/>
<text text-anchor="start" x="186" y="-18" font-family="Helvetica,sans-Serif" font-size="10.00">AP_RangeFinder_Backend</text>
<text text-anchor="middle" x="249" y="-7" font-family="Helvetica,sans-Serif" font-size="10.00">_Serial::tx_bufsize</text>
</a>
</g>
</g>
<!-- Node1&#45;&gt;Node15 -->
<g id="edge16_Node000001_Node000015" class="edge">
<title>Node1&#45;&gt;Node15</title>
<g id="a_edge16_Node000001_Node000015"><a xlink:title=" ">
<path fill="none" stroke="#63b8ff" d="M86.49,-111.97C105.78,-92.71 141.71,-59.37 178,-39 181.06,-37.28 184.27,-35.66 187.55,-34.12"/>
<polygon fill="#63b8ff" stroke="#63b8ff" points="189.17,-37.24 196.96,-30.05 186.39,-30.81 189.17,-37.24"/>
</a>
</g>
</g>
<!-- Node4 -->
<g id="Node000004" class="node">
<title>Node4</title>
<g id="a_Node000004"><a xlink:href="classAP__SerialManager.html#a073cb2777b00ddb4695dea07acc786d9" target="_top" xlink:title=" ">
<polygon fill="white" stroke="#666666" points="667,-254 538,-254 538,-224 667,-224 667,-254"/>
<text text-anchor="start" x="546" y="-242" font-family="Helvetica,sans-Serif" font-size="10.00">AP_SerialManager::find</text>
<text text-anchor="middle" x="602.5" y="-231" font-family="Helvetica,sans-Serif" font-size="10.00">_protocol_instance</text>
</a>
</g>
</g>
<!-- Node3&#45;&gt;Node4 -->
<g id="edge3_Node000003_Node000004" class="edge">
<title>Node3&#45;&gt;Node4</title>
<g id="a_edge3_Node000003_Node000004"><a xlink:title=" ">
<path fill="none" stroke="#63b8ff" d="M302.9,-212.02C308.87,-214.62 314.7,-217.6 320,-221 339.57,-233.58 334.63,-249.81 356,-259 418.42,-285.85 497.94,-271.66 549.28,-257.04"/>
<polygon fill="#63b8ff" stroke="#63b8ff" points="550.56,-260.31 559.16,-254.12 548.58,-253.59 550.56,-260.31"/>
</a>
</g>
</g>
<!-- Node6 -->
<g id="Node000006" class="node">
<title>Node6</title>
<g id="a_Node000006"><a xlink:href="classAP__HAL_1_1HAL.html#aa8bb0f38f4f9f9117f77cb356c68f04f" target="_top" xlink:title=" ">
<polygon fill="white" stroke="#666666" points="477,-249.5 364,-249.5 364,-230.5 477,-230.5 477,-249.5"/>
<text text-anchor="middle" x="420.5" y="-237.5" font-family="Helvetica,sans-Serif" font-size="10.00">AP_HAL::HAL::serial</text>
</a>
</g>
</g>
<!-- Node3&#45;&gt;Node6 -->
<g id="edge5_Node000003_Node000006" class="edge">
<title>Node3&#45;&gt;Node6</title>
<g id="a_edge5_Node000003_Node000006"><a xlink:title=" ">
<path fill="none" stroke="#63b8ff" d="M309.28,-212.04C329.85,-217.26 352.62,-223.03 372.11,-227.98"/>
<polygon fill="#63b8ff" stroke="#63b8ff" points="371.41,-231.41 381.96,-230.48 373.13,-224.63 371.41,-231.41"/>
</a>
</g>
</g>
<!-- Node7 -->
<g id="Node000007" class="node">
<title>Node7</title>
<g id="a_Node000007"><a xlink:href="classAP__HAL_1_1UARTDriver.html#ab198069f163bf69fcc82b0c653fa787f" target="_top" xlink:title=" ">
<polygon fill="white" stroke="#666666" points="478.5,-212 362.5,-212 362.5,-182 478.5,-182 478.5,-212"/>
<text text-anchor="start" x="370.5" y="-200" font-family="Helvetica,sans-Serif" font-size="10.00">AP_HAL::UARTDriver</text>
<text text-anchor="middle" x="420.5" y="-189" font-family="Helvetica,sans-Serif" font-size="10.00">::set_options</text>
</a>
</g>
</g>
<!-- Node3&#45;&gt;Node7 -->
<g id="edge6_Node000003_Node000007" class="edge">
<title>Node3&#45;&gt;Node7</title>
<g id="a_edge6_Node000003_Node000007"><a xlink:title=" ">
<path fill="none" stroke="#63b8ff" d="M313.6,-197C326.2,-197 339.47,-197 352.19,-197"/>
<polygon fill="#63b8ff" stroke="#63b8ff" points="352.25,-200.5 362.25,-197 352.25,-193.5 352.25,-200.5"/>
</a>
</g>
</g>
<!-- Node5 -->
<g id="Node000005" class="node">
<title>Node5</title>
<g id="a_Node000005"><a xlink:href="classAP__SerialManager.html#aeecba06b097b0443637b7cf5349fdf68" target="_top" xlink:title=" ">
<polygon fill="white" stroke="#666666" points="871,-254 720,-254 720,-224 871,-224 871,-254"/>
<text text-anchor="start" x="728" y="-242" font-family="Helvetica,sans-Serif" font-size="10.00">AP_SerialManager::protocol</text>
<text text-anchor="middle" x="795.5" y="-231" font-family="Helvetica,sans-Serif" font-size="10.00">_match</text>
</a>
</g>
</g>
<!-- Node4&#45;&gt;Node5 -->
<g id="edge4_Node000004_Node000005" class="edge">
<title>Node4&#45;&gt;Node5</title>
<g id="a_edge4_Node000004_Node000005"><a xlink:title=" ">
<path fill="none" stroke="#63b8ff" d="M667.1,-239C680.72,-239 695.32,-239 709.6,-239"/>
<polygon fill="#63b8ff" stroke="#63b8ff" points="709.93,-242.5 719.93,-239 709.93,-235.5 709.93,-242.5"/>
</a>
</g>
</g>
<!-- Node9 -->
<g id="Node000009" class="node">
<title>Node9</title>
<g id="a_Node000009"><a xlink:href="classAP__SerialManager.html#a5e363f0274897cdcf5a427d5bbe3eb51" target="_top" xlink:title=" ">
<polygon fill="white" stroke="#666666" points="485,-164 356,-164 356,-134 485,-134 485,-164"/>
<text text-anchor="start" x="364" y="-152" font-family="Helvetica,sans-Serif" font-size="10.00">AP_SerialManager::find</text>
<text text-anchor="middle" x="420.5" y="-141" font-family="Helvetica,sans-Serif" font-size="10.00">_baudrate</text>
</a>
</g>
</g>
<!-- Node8&#45;&gt;Node9 -->
<g id="edge8_Node000008_Node000009" class="edge">
<title>Node8&#45;&gt;Node9</title>
<g id="a_edge8_Node000008_Node000009"><a xlink:title=" ">
<path fill="none" stroke="#63b8ff" d="M320.41,-149C328.75,-149 337.29,-149 345.67,-149"/>
<polygon fill="#63b8ff" stroke="#63b8ff" points="345.81,-152.5 355.81,-149 345.81,-145.5 345.81,-152.5"/>
</a>
</g>
</g>
<!-- Node8&#45;&gt;Node12 -->
<g id="edge12_Node000008_Node000012" class="edge">
<title>Node8&#45;&gt;Node12</title>
<g id="a_edge12_Node000008_Node000012"><a xlink:title=" ">
<path fill="none" stroke="#63b8ff" d="M309.28,-133.96C329.85,-128.74 352.62,-122.97 372.11,-118.02"/>
<polygon fill="#63b8ff" stroke="#63b8ff" points="373.13,-121.37 381.96,-115.52 371.41,-114.59 373.13,-121.37"/>
</a>
</g>
</g>
<!-- Node9&#45;&gt;Node4 -->
<g id="edge11_Node000009_Node000004" class="edge">
<title>Node9&#45;&gt;Node4</title>
<g id="a_edge11_Node000009_Node000004"><a xlink:title=" ">
<path fill="none" stroke="#63b8ff" d="M464.23,-164.11C471.25,-166.89 478.38,-169.9 485,-173 514.17,-186.68 545.91,-204.89 568.88,-218.72"/>
<polygon fill="#63b8ff" stroke="#63b8ff" points="567.17,-221.78 577.53,-223.97 570.8,-215.79 567.17,-221.78"/>
</a>
</g>
</g>
<!-- Node10 -->
<g id="Node000010" class="node">
<title>Node10</title>
<g id="a_Node000010"><a xlink:href="classAP__SerialManager_1_1UARTState.html#aee9750efebe4d1500f059b9858d455b2" target="_top" xlink:title=" ">
<polygon fill="white" stroke="#666666" points="684,-167 521,-167 521,-137 684,-137 684,-167"/>
<text text-anchor="start" x="529" y="-155" font-family="Helvetica,sans-Serif" font-size="10.00">AP_SerialManager::UARTState</text>
<text text-anchor="middle" x="602.5" y="-144" font-family="Helvetica,sans-Serif" font-size="10.00">::baudrate</text>
</a>
</g>
</g>
<!-- Node9&#45;&gt;Node10 -->
<g id="edge9_Node000009_Node000010" class="edge">
<title>Node9&#45;&gt;Node10</title>
<g id="a_edge9_Node000009_Node000010"><a xlink:title=" ">
<path fill="none" stroke="#63b8ff" d="M485.21,-150.06C493.5,-150.2 502.11,-150.34 510.74,-150.49"/>
<polygon fill="#63b8ff" stroke="#63b8ff" points="510.79,-153.99 520.84,-150.66 510.9,-146.99 510.79,-153.99"/>
</a>
</g>
</g>
<!-- Node11 -->
<g id="Node000011" class="node">
<title>Node11</title>
<g id="a_Node000011"><a xlink:href="classAP__SerialManager.html#acde2d1b826b0cad7017ecb39f60ae6f5" target="_top" xlink:title=" ">
<polygon fill="white" stroke="#666666" points="862,-167 729,-167 729,-137 862,-137 862,-167"/>
<text text-anchor="start" x="737" y="-155" font-family="Helvetica,sans-Serif" font-size="10.00">AP_SerialManager::map</text>
<text text-anchor="middle" x="795.5" y="-144" font-family="Helvetica,sans-Serif" font-size="10.00">_baudrate</text>
</a>
</g>
</g>
<!-- Node10&#45;&gt;Node11 -->
<g id="edge10_Node000010_Node000011" class="edge">
<title>Node10&#45;&gt;Node11</title>
<g id="a_edge10_Node000010_Node000011"><a xlink:title=" ">
<path fill="none" stroke="#63b8ff" d="M684.22,-152C695.61,-152 707.27,-152 718.56,-152"/>
<polygon fill="#63b8ff" stroke="#63b8ff" points="718.8,-155.5 728.8,-152 718.8,-148.5 718.8,-155.5"/>
</a>
</g>
</g>
<!-- Node13 -->
<g id="Node000013" class="node">
<title>Node13</title>
<g id="a_Node000013"><a xlink:href="classAP__SerialManager.html#ac8e4d24e9ff1fd9c10fcb751e4454479" target="_top" xlink:title=" ">
<polygon fill="white" stroke="#666666" points="666,-119 539,-119 539,-89 666,-89 666,-119"/>
<text text-anchor="start" x="547" y="-107" font-family="Helvetica,sans-Serif" font-size="10.00">AP_SerialManager::get</text>
<text text-anchor="middle" x="602.5" y="-96" font-family="Helvetica,sans-Serif" font-size="10.00">_singleton</text>
</a>
</g>
</g>
<!-- Node12&#45;&gt;Node13 -->
<g id="edge13_Node000012_Node000013" class="edge">
<title>Node12&#45;&gt;Node13</title>
<g id="a_edge13_Node000012_Node000013"><a xlink:title=" ">
<path fill="none" stroke="#63b8ff" d="M473.56,-105.42C490.73,-105.23 510.16,-105.01 528.59,-104.81"/>
<polygon fill="#63b8ff" stroke="#63b8ff" points="528.75,-108.31 538.71,-104.7 528.67,-101.31 528.75,-108.31"/>
</a>
</g>
</g>
</g>
</svg>

<g id="navigator" transform="translate(0 0)" fill="#404254">
  <rect fill="#f2f5e9" fill-opacity="0.5" stroke="#606060" stroke-width=".5" x="0" y="0" width="60" height="60"/>
  <use id="zoomplus" xlink:href="#zoomPlus" x="17" y="9" onmousedown="handleZoom(evt,'in')"/>
  <use id="zoomminus" xlink:href="#zoomMin" x="42" y="9" onmousedown="handleZoom(evt,'out')"/>
  <use id="reset" xlink:href="#resetDef" x="30" y="36" onmousedown="handleReset()"/>
   <use id="arrowup" xlink:href="#arrowUp" x="0" y="0" onmousedown="handlePan(0,-1)"/>
  <use id="arrowright" xlink:href="#arrowRight" x="0" y="0" onmousedown="handlePan(1,0)"/>
  <use id="arrowdown" xlink:href="#arrowDown" x="0" y="0" onmousedown="handlePan(0,1)"/>
  <use id="arrowleft" xlink:href="#arrowLeft" x="0" y="0" onmousedown="handlePan(-1,0)"/>
</g>
<svg viewBox="0 0 15 15" width="100%" height="30px" preserveAspectRatio="xMaxYMin meet">
 <g id="arrow_out" transform="scale(0.3 0.3)">
  <a xlink:href="classAP__RangeFinder__Backend__Serial_a53587f3adbbb47fbfd70d651772eb1c4_cgraph_org.svg" target="_base">
   <rect id="button" ry="5" rx="5" y="6" x="6" height="38" width="38"
        fill="#f2f5e9" fill-opacity="0.5" stroke="#606060" stroke-width="1.0"/>
   <path id="arrow"
     d="M 11.500037,31.436501 C 11.940474,20.09759 22.043105,11.32322 32.158766,21.979434 L 37.068811,17.246167 C 37.068811,17.246167 37.088388,32 37.088388,32 L 22.160133,31.978069 C 22.160133,31.978069 26.997745,27.140456 26.997745,27.140456 C 18.528582,18.264221 13.291696,25.230495 11.500037,31.436501 z"
     style="fill:#404040;"/>
  </a>
 </g>
</svg>

<style type='text/css'>
<![CDATA[
[data-mouse-over-selected='false'] { opacity: 0.7; }
[data-mouse-over-selected='true']  { opacity: 1.0; }
]]>
</style>
<script type="application/ecmascript"><![CDATA[
document.addEventListener('DOMContentLoaded', (event) => {
  highlightEdges();
  highlightAdjacentNodes();
});
]]></script>
</svg>
