<?xml version="1.0" encoding="UTF-8" standalone="no"?>
<!DOCTYPE svg PUBLIC "-//W3C//DTD SVG 1.1//EN"
 "http://www.w3.org/Graphics/SVG/1.1/DTD/svg11.dtd">
<!-- Generated by graphviz version 2.43.0 (0)
 -->
<!-- Title: AP_Proximity_Params Pages: 1 -->
<svg width="218pt" height="96pt"
 viewBox="0.00 0.00 218.00 96.00" xmlns="http://www.w3.org/2000/svg" xmlns:xlink="http://www.w3.org/1999/xlink">
<g id="graph0" class="graph" transform="scale(1 1) rotate(0) translate(4 92)">
<title>AP_Proximity_Params</title>
<!-- Node1 -->
<g id="Node000001" class="node">
<title>Node1</title>
<g id="a_Node000001"><a xlink:title=" ">
<polygon fill="#999999" stroke="#666666" points="123,-19 0,-19 0,0 123,0 123,-19"/>
<text text-anchor="middle" x="61.5" y="-7" font-family="Helvetica,sans-Serif" font-size="10.00">AP_Proximity_Params</text>
</a>
</g>
</g>
<!-- Node2 -->
<g id="Node000002" class="node">
<title>Node2</title>
<g id="a_Node000002"><a xlink:href="structAP__Param_1_1GroupInfo.html" target="_top" xlink:title=" ">
<polygon fill="white" stroke="#666666" points="121,-86.5 2,-86.5 2,-67.5 121,-67.5 121,-86.5"/>
<text text-anchor="middle" x="61.5" y="-74.5" font-family="Helvetica,sans-Serif" font-size="10.00">AP_Param::GroupInfo</text>
</a>
</g>
</g>
<!-- Node2&#45;&gt;Node1 -->
<g id="edge1_Node000001_Node000002" class="edge">
<title>Node2&#45;&gt;Node1</title>
<g id="a_edge1_Node000001_Node000002"><a xlink:title=" ">
<path fill="none" stroke="#9a32cd" stroke-dasharray="5,2" d="M61.5,-57.18C61.5,-44.71 61.5,-28.92 61.5,-19.27"/>
<polygon fill="#9a32cd" stroke="#9a32cd" points="58,-57.44 61.5,-67.44 65,-57.44 58,-57.44"/>
</a>
</g>
<text text-anchor="middle" x="83" y="-40" font-family="Helvetica,sans-Serif" font-size="10.00" fill="grey"> var_info</text>
</g>
<!-- Node2&#45;&gt;Node2 -->
<g id="edge2_Node000002_Node000002" class="edge">
<title>Node2&#45;&gt;Node2</title>
<g id="a_edge2_Node000002_Node000002"><a xlink:title=" ">
<path fill="none" stroke="#9a32cd" stroke-dasharray="5,2" d="M131.48,-81.58C136.16,-80.52 139,-78.99 139,-77 139,-73.81 131.73,-71.82 121.29,-71.02"/>
<polygon fill="#9a32cd" stroke="#9a32cd" points="130.72,-78.15 121.29,-82.98 131.67,-85.08 130.72,-78.15"/>
</a>
</g>
<text text-anchor="middle" x="174.5" y="-80" font-family="Helvetica,sans-Serif" font-size="10.00" fill="grey"> group_info</text>
<text text-anchor="middle" x="174.5" y="-69" font-family="Helvetica,sans-Serif" font-size="10.00" fill="grey">group_info_ptr</text>
</g>
</g>
</svg>
