<?xml version="1.0" encoding="UTF-8" standalone="no"?>
<!DOCTYPE svg PUBLIC "-//W3C//DTD SVG 1.1//EN"
 "http://www.w3.org/Graphics/SVG/1.1/DTD/svg11.dtd">
<!-- Generated by graphviz version 2.43.0 (0)
 -->
<!-- Title: GCS_MAVLINK::battery_remaining_pct Pages: 1 -->
<svg width="834pt" height="86pt"
 viewBox="0.00 0.00 834.00 86.00" xmlns="http://www.w3.org/2000/svg" xmlns:xlink="http://www.w3.org/1999/xlink">
<g id="graph0" class="graph" transform="scale(1 1) rotate(0) translate(4 82)">
<title>GCS_MAVLINK::battery_remaining_pct</title>
<!-- Node1 -->
<g id="Node000001" class="node">
<title>Node1</title>
<g id="a_Node000001"><a xlink:title=" ">
<polygon fill="#999999" stroke="#666666" points="826,-54 698,-54 698,-24 826,-24 826,-54"/>
<text text-anchor="start" x="706" y="-42" font-family="Helvetica,sans-Serif" font-size="10.00">GCS_MAVLINK::battery</text>
<text text-anchor="middle" x="762" y="-31" font-family="Helvetica,sans-Serif" font-size="10.00">_remaining_pct</text>
</a>
</g>
</g>
<!-- Node2 -->
<g id="Node000002" class="node">
<title>Node2</title>
<g id="a_Node000002"><a xlink:href="classGCS__MAVLINK.html#a060f14ec45ef3300906fc3b8d86e7240" target="_top" xlink:title=" ">
<polygon fill="white" stroke="#666666" points="662,-78 520,-78 520,-48 662,-48 662,-78"/>
<text text-anchor="start" x="528" y="-66" font-family="Helvetica,sans-Serif" font-size="10.00">GCS_MAVLINK::send_high</text>
<text text-anchor="middle" x="591" y="-55" font-family="Helvetica,sans-Serif" font-size="10.00">_latency2</text>
</a>
</g>
</g>
<!-- Node1&#45;&gt;Node2 -->
<g id="edge1_Node000001_Node000002" class="edge">
<title>Node1&#45;&gt;Node2</title>
<g id="a_edge1_Node000001_Node000002"><a xlink:title=" ">
<path fill="none" stroke="#63b8ff" d="M687.68,-49.41C679.15,-50.62 670.48,-51.86 662,-53.06"/>
<polygon fill="#63b8ff" stroke="#63b8ff" points="688.18,-52.88 697.59,-48 687.2,-45.95 688.18,-52.88"/>
</a>
</g>
</g>
<!-- Node6 -->
<g id="Node000006" class="node">
<title>Node6</title>
<g id="a_Node000006"><a xlink:href="classGCS__MAVLINK.html#aa5be0175cd3488cff905d41913f8fd3f" target="_top" xlink:title=" ">
<polygon fill="white" stroke="#666666" points="659.5,-30 522.5,-30 522.5,0 659.5,0 659.5,-30"/>
<text text-anchor="start" x="530.5" y="-18" font-family="Helvetica,sans-Serif" font-size="10.00">GCS_MAVLINK::send_sys</text>
<text text-anchor="middle" x="591" y="-7" font-family="Helvetica,sans-Serif" font-size="10.00">_status</text>
</a>
</g>
</g>
<!-- Node1&#45;&gt;Node6 -->
<g id="edge5_Node000001_Node000006" class="edge">
<title>Node1&#45;&gt;Node6</title>
<g id="a_edge5_Node000001_Node000006"><a xlink:title=" ">
<path fill="none" stroke="#63b8ff" d="M687.62,-28.58C678.35,-27.26 668.9,-25.92 659.72,-24.62"/>
<polygon fill="#63b8ff" stroke="#63b8ff" points="687.2,-32.05 697.59,-30 688.18,-25.12 687.2,-32.05"/>
</a>
</g>
</g>
<!-- Node3 -->
<g id="Node000003" class="node">
<title>Node3</title>
<g id="a_Node000003"><a xlink:href="classGCS__MAVLINK.html#a30034cdbd89bcfb86392411f9b5935db" target="_top" xlink:title=" ">
<polygon fill="white" stroke="#666666" points="484,-54 350,-54 350,-24 484,-24 484,-54"/>
<text text-anchor="start" x="358" y="-42" font-family="Helvetica,sans-Serif" font-size="10.00">GCS_MAVLINK::try_send</text>
<text text-anchor="middle" x="417" y="-31" font-family="Helvetica,sans-Serif" font-size="10.00">_message</text>
</a>
</g>
</g>
<!-- Node2&#45;&gt;Node3 -->
<g id="edge2_Node000002_Node000003" class="edge">
<title>Node2&#45;&gt;Node3</title>
<g id="a_edge2_Node000002_Node000003"><a xlink:title=" ">
<path fill="none" stroke="#63b8ff" d="M509.61,-51.78C501.1,-50.59 492.51,-49.4 484.19,-48.24"/>
<polygon fill="#63b8ff" stroke="#63b8ff" points="509.16,-55.25 519.54,-53.17 510.12,-48.32 509.16,-55.25"/>
</a>
</g>
</g>
<!-- Node4 -->
<g id="Node000004" class="node">
<title>Node4</title>
<g id="a_Node000004"><a xlink:href="classGCS__MAVLINK.html#ae94077536892270b4a40e5bcddb1c2f9" target="_top" xlink:title=" ">
<polygon fill="white" stroke="#666666" points="314,-54 191,-54 191,-24 314,-24 314,-54"/>
<text text-anchor="start" x="199" y="-42" font-family="Helvetica,sans-Serif" font-size="10.00">GCS_MAVLINK::do_try</text>
<text text-anchor="middle" x="252.5" y="-31" font-family="Helvetica,sans-Serif" font-size="10.00">_send_message</text>
</a>
</g>
</g>
<!-- Node3&#45;&gt;Node4 -->
<g id="edge3_Node000003_Node000004" class="edge">
<title>Node3&#45;&gt;Node4</title>
<g id="a_edge3_Node000003_Node000004"><a xlink:title=" ">
<path fill="none" stroke="#63b8ff" d="M339.81,-39C331.17,-39 322.44,-39 314.04,-39"/>
<polygon fill="#63b8ff" stroke="#63b8ff" points="339.91,-42.5 349.91,-39 339.9,-35.5 339.91,-42.5"/>
</a>
</g>
</g>
<!-- Node5 -->
<g id="Node000005" class="node">
<title>Node5</title>
<g id="a_Node000005"><a xlink:href="classGCS__MAVLINK.html#a97b3a94ebc165ee34ee93b26e2dee23d" target="_top" xlink:title=" ">
<polygon fill="white" stroke="#666666" points="155,-48.5 0,-48.5 0,-29.5 155,-29.5 155,-48.5"/>
<text text-anchor="middle" x="77.5" y="-36.5" font-family="Helvetica,sans-Serif" font-size="10.00">GCS_MAVLINK::update_send</text>
</a>
</g>
</g>
<!-- Node4&#45;&gt;Node5 -->
<g id="edge4_Node000004_Node000005" class="edge">
<title>Node4&#45;&gt;Node5</title>
<g id="a_edge4_Node000004_Node000005"><a xlink:title=" ">
<path fill="none" stroke="#63b8ff" d="M180.79,-39C172.32,-39 163.64,-39 155.09,-39"/>
<polygon fill="#63b8ff" stroke="#63b8ff" points="180.99,-42.5 190.99,-39 180.99,-35.5 180.99,-42.5"/>
</a>
</g>
</g>
<!-- Node6&#45;&gt;Node3 -->
<g id="edge6_Node000006_Node000003" class="edge">
<title>Node6&#45;&gt;Node3</title>
<g id="a_edge6_Node000006_Node000003"><a xlink:title=" ">
<path fill="none" stroke="#63b8ff" d="M511.98,-25.89C502.66,-27.19 493.21,-28.51 484.08,-29.78"/>
<polygon fill="#63b8ff" stroke="#63b8ff" points="512.6,-29.33 522.02,-24.49 511.63,-22.4 512.6,-29.33"/>
</a>
</g>
</g>
</g>
</svg>
