<?xml version="1.0" encoding="UTF-8" standalone="no"?>
<!DOCTYPE svg PUBLIC "-//W3C//DTD SVG 1.1//EN"
 "http://www.w3.org/Graphics/SVG/1.1/DTD/svg11.dtd">
<!-- Generated by graphviz version 2.43.0 (0)
 -->
<!-- Title: AC_PrecLand_Backend Pages: 1 -->
<!--zoomable 542 -->

<svg id="main" version="1.1" xmlns="http://www.w3.org/2000/svg" xmlns:xlink="http://www.w3.org/1999/xlink" xml:space="preserve" onload="init(evt)">
<style type="text/css"><![CDATA[
.node, .edge {opacity: 0.7;}
.node.selected, .edge.selected {opacity: 1;}
.edge:hover path { stroke: red; }
.edge:hover polygon { stroke: red; fill: red; }
]]></style>

<defs>
  <circle id="rim" cx="0" cy="0" r="7"/>
  <circle id="rim2" cx="0" cy="0" r="3.5"/>
  <g id="zoomPlus">
    <use xlink:href="#rim" fill="#404040"><set attributeName="fill" to="#808080" begin="zoomplus.mouseover" end="zoomplus.mouseout"/></use>
    <path d="M-4,0h8M0,-4v8" fill="none" stroke="white" stroke-width="1.5" pointer-events="none"/>
  </g>
  <g id="zoomMin">
    <use xlink:href="#rim" fill="#404040"><set attributeName="fill" to="#808080" begin="zoomminus.mouseover" end="zoomminus.mouseout"/></use>
    <path d="M-4,0h8" fill="none" stroke="white" stroke-width="1.5" pointer-events="none"/>
  </g>
  <g id="arrowUp" transform="translate(30 24)">
    <use xlink:href="#rim"/>
    <path pointer-events="none" fill="none" stroke="white" stroke-width="1.5" d="M0,-3.0v7 M-2.5,-0.5L0,-3.0L2.5,-0.5"/>
  </g>
  <g id="arrowRight" transform="rotate(90) translate(36 -43)">
    <use xlink:href="#rim"/>
    <path pointer-events="none" fill="none" stroke="white" stroke-width="1.5" d="M0,-3.0v7 M-2.5,-0.5L0,-3.0L2.5,-0.5"/>
  </g>
  <g id="arrowDown" transform="rotate(180) translate(-30 -48)">
    <use xlink:href="#rim"/>
    <path pointer-events="none" fill="none" stroke="white" stroke-width="1.5" d="M0,-3.0v7 M-2.5,-0.5L0,-3.0L2.5,-0.5"/>
  </g>
  <g id="arrowLeft" transform="rotate(270) translate(-36 17)">
    <use xlink:href="#rim"/>
    <path pointer-events="none" fill="none" stroke="white" stroke-width="1.5" d="M0,-3.0v7 M-2.5,-0.5L0,-3.0L2.5,-0.5"/>
  </g>
  <g id="resetDef">
    <use xlink:href="#rim2" fill="#404040"><set attributeName="fill" to="#808080" begin="reset.mouseover" end="reset.mouseout"/></use>
  </g>
</defs>
<script type="application/ecmascript">
var viewWidth = 931;
var viewHeight = 542;
var sectionId = 'dynsection-1';
</script>
<script type="application/ecmascript" xlink:href="svg.min.js"/>
<svg id="graph" class="graph">
<g id="viewport">
<title>AC_PrecLand_Backend</title>
<!-- Node1 -->
<g id="Node000001" class="node">
<title>Node1</title>
<g id="a_Node000001"><a xlink:title=" ">
<polygon fill="#999999" stroke="#666666" points="693.5,-84.49 567.5,-84.49 567.5,-65.49 693.5,-65.49 693.5,-84.49"/>
<text text-anchor="middle" x="630.5" y="-72.49" font-family="Helvetica,sans-Serif" font-size="10.00">AC_PrecLand_Backend</text>
</a>
</g>
</g>
<!-- Node2 -->
<g id="Node000002" class="node">
<title>Node2</title>
<g id="a_Node000002"><a xlink:href="classAC__PrecLand.html" target="_top" xlink:title=" ">
<polygon fill="white" stroke="#666666" points="923,-295.49 843,-295.49 843,-276.49 923,-276.49 923,-295.49"/>
<text text-anchor="middle" x="883" y="-283.49" font-family="Helvetica,sans-Serif" font-size="10.00">AC_PrecLand</text>
</a>
</g>
</g>
<!-- Node1&#45;&gt;Node2 -->
<g id="edge20_Node000002_Node000001" class="edge">
<title>Node1&#45;&gt;Node2</title>
<g id="a_edge20_Node000002_Node000001"><a xlink:title=" ">
<path fill="none" stroke="#9a32cd" stroke-dasharray="5,2" d="M703.85,-79.98C751.02,-84.64 807.03,-93.34 825,-108.99 876.61,-153.95 881.83,-245.83 882.1,-276.09"/>
<polygon fill="#9a32cd" stroke="#9a32cd" points="703.92,-76.47 693.63,-79.01 703.26,-83.44 703.92,-76.47"/>
</a>
</g>
<text text-anchor="middle" x="775.5" y="-111.99" font-family="Helvetica,sans-Serif" font-size="10.00" fill="grey"> _backend</text>
</g>
<!-- Node2&#45;&gt;Node1 -->
<g id="edge1_Node000001_Node000002" class="edge">
<title>Node2&#45;&gt;Node1</title>
<g id="a_edge1_Node000001_Node000002"><a xlink:title=" ">
<path fill="none" stroke="#9a32cd" stroke-dasharray="5,2" d="M879.83,-266.29C874.03,-217.68 856.43,-94.21 825,-69.99 775.62,-31.95 696.2,-51.67 656.21,-65.41"/>
<polygon fill="#9a32cd" stroke="#9a32cd" points="876.38,-266.92 881,-276.45 883.33,-266.12 876.38,-266.92"/>
</a>
</g>
<text text-anchor="middle" x="775.5" y="-72.99" font-family="Helvetica,sans-Serif" font-size="10.00" fill="grey"> _frontend</text>
</g>
<!-- Node2&#45;&gt;Node2 -->
<g id="edge21_Node000002_Node000002" class="edge">
<title>Node2&#45;&gt;Node2</title>
<g id="a_edge21_Node000002_Node000002"><a xlink:title=" ">
<path fill="none" stroke="#9a32cd" stroke-dasharray="5,2" d="M863.37,-305.05C864.68,-309.87 871.23,-313.49 883,-313.49 901.84,-313.49 907.29,-304.23 899.34,-295.58"/>
<polygon fill="#9a32cd" stroke="#9a32cd" points="866.69,-306.17 866.66,-295.58 860.07,-303.87 866.69,-306.17"/>
</a>
</g>
<text text-anchor="middle" x="883" y="-316.49" font-family="Helvetica,sans-Serif" font-size="10.00" fill="grey"> _singleton</text>
</g>
<!-- Node3 -->
<g id="Node000003" class="node">
<title>Node3</title>
<g id="a_Node000003"><a xlink:href="structAP__Param_1_1GroupInfo.html" target="_top" xlink:title=" ">
<polygon fill="white" stroke="#666666" points="690,-494.49 571,-494.49 571,-475.49 690,-475.49 690,-494.49"/>
<text text-anchor="middle" x="630.5" y="-482.49" font-family="Helvetica,sans-Serif" font-size="10.00">AP_Param::GroupInfo</text>
</a>
</g>
</g>
<!-- Node3&#45;&gt;Node2 -->
<g id="edge2_Node000002_Node000003" class="edge">
<title>Node3&#45;&gt;Node2</title>
<g id="a_edge2_Node000002_Node000003"><a xlink:title=" ">
<path fill="none" stroke="#9a32cd" stroke-dasharray="5,2" d="M700.54,-491.89C741.09,-492.17 790.91,-485.5 825,-456.99 875.9,-414.44 881.59,-325.1 882.04,-295.64"/>
<polygon fill="#9a32cd" stroke="#9a32cd" points="700.51,-488.39 690.44,-491.67 700.37,-495.38 700.51,-488.39"/>
</a>
</g>
<text text-anchor="middle" x="775.5" y="-492.99" font-family="Helvetica,sans-Serif" font-size="10.00" fill="grey"> var_info</text>
</g>
<!-- Node3&#45;&gt;Node3 -->
<g id="edge3_Node000003_Node000003" class="edge">
<title>Node3&#45;&gt;Node3</title>
<g id="a_edge3_Node000003_Node000003"><a xlink:title=" ">
<path fill="none" stroke="#9a32cd" stroke-dasharray="5,2" d="M609.39,-504.05C610.8,-508.87 617.84,-512.49 630.5,-512.49 650.76,-512.49 656.62,-503.23 648.07,-494.58"/>
<polygon fill="#9a32cd" stroke="#9a32cd" points="612.71,-505.17 612.93,-494.58 606.15,-502.72 612.71,-505.17"/>
</a>
</g>
<text text-anchor="middle" x="630.5" y="-526.49" font-family="Helvetica,sans-Serif" font-size="10.00" fill="grey"> group_info</text>
<text text-anchor="middle" x="630.5" y="-515.49" font-family="Helvetica,sans-Serif" font-size="10.00" fill="grey">group_info_ptr</text>
</g>
<!-- Node4 -->
<g id="Node000004" class="node">
<title>Node4</title>
<g id="a_Node000004"><a xlink:href="classAP__Enum.html" target="_top" xlink:title=" ">
<polygon fill="white" stroke="#666666" points="684,-457.49 577,-457.49 577,-438.49 684,-438.49 684,-457.49"/>
<text text-anchor="middle" x="630.5" y="-445.49" font-family="Helvetica,sans-Serif" font-size="10.00">AP_Enum&lt; Type &gt;</text>
</a>
</g>
</g>
<!-- Node4&#45;&gt;Node2 -->
<g id="edge4_Node000002_Node000004" class="edge">
<title>Node4&#45;&gt;Node2</title>
<g id="a_edge4_Node000002_Node000004"><a xlink:title=" ">
<path fill="none" stroke="#9a32cd" stroke-dasharray="5,2" d="M694.24,-445.49C742.78,-442.37 804.98,-435.41 825,-419.99 866.26,-388.22 878.03,-320.81 881.05,-295.7"/>
<polygon fill="#9a32cd" stroke="#9a32cd" points="693.89,-442 684.11,-446.1 694.31,-448.99 693.89,-442"/>
</a>
</g>
<text text-anchor="middle" x="775.5" y="-444.99" font-family="Helvetica,sans-Serif" font-size="10.00" fill="grey"> _type</text>
</g>
<!-- Node5 -->
<g id="Node000005" class="node">
<title>Node5</title>
<g id="a_Node000005"><a xlink:title=" ">
<polygon fill="white" stroke="#666666" points="442.5,-435.49 389.5,-435.49 389.5,-416.49 442.5,-416.49 442.5,-435.49"/>
<text text-anchor="middle" x="416" y="-423.49" font-family="Helvetica,sans-Serif" font-size="10.00">AP_Int8</text>
</a>
</g>
</g>
<!-- Node5&#45;&gt;Node4 -->
<g id="edge5_Node000004_Node000005" class="edge">
<title>Node5&#45;&gt;Node4</title>
<g id="a_edge5_Node000004_Node000005"><a xlink:title=" ">
<path fill="none" stroke="#63b8ff" d="M452.58,-429.68C486.57,-433.2 538.22,-438.54 576.95,-442.55"/>
<polygon fill="#63b8ff" stroke="#63b8ff" points="452.94,-426.2 442.63,-428.65 452.22,-433.16 452.94,-426.2"/>
</a>
</g>
</g>
<!-- Node6 -->
<g id="Node000006" class="node">
<title>Node6</title>
<g id="a_Node000006"><a xlink:href="classAP__Enum.html" target="_top" xlink:title=" ">
<polygon fill="white" stroke="#666666" points="708,-420.49 553,-420.49 553,-401.49 708,-401.49 708,-420.49"/>
<text text-anchor="middle" x="630.5" y="-408.49" font-family="Helvetica,sans-Serif" font-size="10.00">AP_Enum&lt; EstimatorType &gt;</text>
</a>
</g>
</g>
<!-- Node5&#45;&gt;Node6 -->
<g id="edge7_Node000006_Node000005" class="edge">
<title>Node5&#45;&gt;Node6</title>
<g id="a_edge7_Node000006_Node000005"><a xlink:title=" ">
<path fill="none" stroke="#63b8ff" d="M452.85,-423.46C480.07,-421.54 518.51,-418.83 552.58,-416.42"/>
<polygon fill="#63b8ff" stroke="#63b8ff" points="452.36,-419.99 442.63,-424.18 452.85,-426.97 452.36,-419.99"/>
</a>
</g>
</g>
<!-- Node7 -->
<g id="Node000007" class="node">
<title>Node7</title>
<g id="a_Node000007"><a xlink:href="classAP__Enum.html" target="_top" xlink:title=" ">
<polygon fill="white" stroke="#666666" points="693.5,-383.49 567.5,-383.49 567.5,-364.49 693.5,-364.49 693.5,-383.49"/>
<text text-anchor="middle" x="630.5" y="-371.49" font-family="Helvetica,sans-Serif" font-size="10.00">AP_Enum&lt; Rotation &gt;</text>
</a>
</g>
</g>
<!-- Node5&#45;&gt;Node7 -->
<g id="edge9_Node000007_Node000005" class="edge">
<title>Node5&#45;&gt;Node7</title>
<g id="a_edge9_Node000007_Node000005"><a xlink:title=" ">
<path fill="none" stroke="#63b8ff" d="M452.77,-417.24C490.89,-407.91 551.08,-393.18 590.43,-383.55"/>
<polygon fill="#63b8ff" stroke="#63b8ff" points="451.51,-413.94 442.63,-419.72 453.18,-420.74 451.51,-413.94"/>
</a>
</g>
</g>
<!-- Node6&#45;&gt;Node2 -->
<g id="edge6_Node000002_Node000006" class="edge">
<title>Node6&#45;&gt;Node2</title>
<g id="a_edge6_Node000002_Node000006"><a xlink:title=" ">
<path fill="none" stroke="#9a32cd" stroke-dasharray="5,2" d="M718.33,-406.77C761.22,-403.22 807.48,-396.75 825,-384.99 857.61,-363.11 873.87,-315.86 879.57,-295.57"/>
<polygon fill="#9a32cd" stroke="#9a32cd" points="717.79,-403.3 708.1,-407.57 718.34,-410.28 717.79,-403.3"/>
</a>
</g>
<text text-anchor="middle" x="775.5" y="-407.99" font-family="Helvetica,sans-Serif" font-size="10.00" fill="grey"> _estimator_type</text>
</g>
<!-- Node7&#45;&gt;Node2 -->
<g id="edge8_Node000002_Node000007" class="edge">
<title>Node7&#45;&gt;Node2</title>
<g id="a_edge8_Node000002_Node000007"><a xlink:title=" ">
<path fill="none" stroke="#9a32cd" stroke-dasharray="5,2" d="M704.22,-372.11C750.12,-369.85 804.48,-364.89 825,-353.99 850.03,-340.7 868.53,-311.39 876.95,-295.95"/>
<polygon fill="#9a32cd" stroke="#9a32cd" points="703.8,-368.62 693.97,-372.58 704.12,-375.62 703.8,-368.62"/>
</a>
</g>
<text text-anchor="middle" x="775.5" y="-372.99" font-family="Helvetica,sans-Serif" font-size="10.00" fill="grey"> _orient</text>
</g>
<!-- Node8 -->
<g id="Node000008" class="node">
<title>Node8</title>
<g id="a_Node000008"><a xlink:href="classPosVelEKF.html" target="_top" xlink:title=" ">
<polygon fill="white" stroke="#666666" points="664.5,-346.49 596.5,-346.49 596.5,-327.49 664.5,-327.49 664.5,-346.49"/>
<text text-anchor="middle" x="630.5" y="-334.49" font-family="Helvetica,sans-Serif" font-size="10.00">PosVelEKF</text>
</a>
</g>
</g>
<!-- Node8&#45;&gt;Node2 -->
<g id="edge10_Node000002_Node000008" class="edge">
<title>Node8&#45;&gt;Node2</title>
<g id="a_edge10_Node000002_Node000008"><a xlink:title=" ">
<path fill="none" stroke="#9a32cd" stroke-dasharray="5,2" d="M674.67,-334.2C714.32,-330.87 774.42,-323.92 825,-309.99 838.04,-306.4 852.06,-300.53 862.92,-295.5"/>
<polygon fill="#9a32cd" stroke="#9a32cd" points="674.24,-330.72 664.55,-335 674.8,-337.7 674.24,-330.72"/>
</a>
</g>
<text text-anchor="middle" x="775.5" y="-341.99" font-family="Helvetica,sans-Serif" font-size="10.00" fill="grey"> _ekf_x</text>
<text text-anchor="middle" x="775.5" y="-330.99" font-family="Helvetica,sans-Serif" font-size="10.00" fill="grey">_ekf_y</text>
</g>
<!-- Node9 -->
<g id="Node000009" class="node">
<title>Node9</title>
<g id="a_Node000009"><a xlink:href="classVector3.html" target="_top" xlink:title=" ">
<polygon fill="white" stroke="#666666" points="98,-247.49 0,-247.49 0,-228.49 98,-228.49 98,-247.49"/>
<text text-anchor="middle" x="49" y="-235.49" font-family="Helvetica,sans-Serif" font-size="10.00">Vector3&lt; float &gt;</text>
</a>
</g>
</g>
<!-- Node9&#45;&gt;Node2 -->
<g id="edge11_Node000002_Node000009" class="edge">
<title>Node9&#45;&gt;Node2</title>
<g id="a_edge11_Node000002_Node000009"><a xlink:title=" ">
<path fill="none" stroke="#9a32cd" stroke-dasharray="5,2" d="M74.05,-252.76C105.8,-270.81 164.01,-298.99 218,-298.99 218,-298.99 218,-298.99 631.5,-298.99 706.4,-298.99 793.73,-293.13 842.98,-289.27"/>
<polygon fill="#9a32cd" stroke="#9a32cd" points="75.48,-249.54 65.08,-247.52 71.95,-255.59 75.48,-249.54"/>
</a>
</g>
<text text-anchor="middle" x="416" y="-389.99" font-family="Helvetica,sans-Serif" font-size="10.00" fill="grey"> _approach_vector_body</text>
<text text-anchor="start" x="356.5" y="-378.99" font-family="Helvetica,sans-Serif" font-size="10.00" fill="grey">_last_target_pos_rel</text>
<text text-anchor="middle" x="416" y="-367.99" font-family="Helvetica,sans-Serif" font-size="10.00" fill="grey">_origin_NED</text>
<text text-anchor="start" x="356.5" y="-356.99" font-family="Helvetica,sans-Serif" font-size="10.00" fill="grey">_last_veh_velocity</text>
<text text-anchor="middle" x="416" y="-345.99" font-family="Helvetica,sans-Serif" font-size="10.00" fill="grey">_NED_ms</text>
<text text-anchor="start" x="356.5" y="-334.99" font-family="Helvetica,sans-Serif" font-size="10.00" fill="grey">_last_vehicle_pos</text>
<text text-anchor="middle" x="416" y="-323.99" font-family="Helvetica,sans-Serif" font-size="10.00" fill="grey">_NED</text>
<text text-anchor="start" x="356.5" y="-312.99" font-family="Helvetica,sans-Serif" font-size="10.00" fill="grey">_target_pos_rel</text>
<text text-anchor="middle" x="416" y="-301.99" font-family="Helvetica,sans-Serif" font-size="10.00" fill="grey">_meas_NED</text>
</g>
<!-- Node12 -->
<g id="Node000012" class="node">
<title>Node12</title>
<g id="a_Node000012"><a xlink:href="structAC__PrecLand_1_1inertial__data__frame__s.html" target="_top" xlink:title=" ">
<polygon fill="white" stroke="#666666" points="476,-231.99 356,-231.99 356,-201.99 476,-201.99 476,-231.99"/>
<text text-anchor="start" x="364" y="-219.99" font-family="Helvetica,sans-Serif" font-size="10.00">AC_PrecLand::inertial</text>
<text text-anchor="middle" x="416" y="-208.99" font-family="Helvetica,sans-Serif" font-size="10.00">_data_frame_s</text>
</a>
</g>
</g>
<!-- Node9&#45;&gt;Node12 -->
<g id="edge17_Node000012_Node000009" class="edge">
<title>Node9&#45;&gt;Node12</title>
<g id="a_edge17_Node000012_Node000009"><a xlink:title=" ">
<path fill="none" stroke="#9a32cd" stroke-dasharray="5,2" d="M108.19,-234.65C176.06,-230.74 287.66,-224.32 355.91,-220.39"/>
<polygon fill="#9a32cd" stroke="#9a32cd" points="107.88,-231.16 98.09,-235.23 108.28,-238.15 107.88,-231.16"/>
</a>
</g>
<text text-anchor="start" x="144" y="-256.99" font-family="Helvetica,sans-Serif" font-size="10.00" fill="grey"> correctedVehicleDeltaVelocity</text>
<text text-anchor="middle" x="219" y="-245.99" font-family="Helvetica,sans-Serif" font-size="10.00" fill="grey">NED</text>
<text text-anchor="middle" x="219" y="-234.99" font-family="Helvetica,sans-Serif" font-size="10.00" fill="grey">inertialNavVelocity</text>
</g>
<!-- Node13 -->
<g id="Node000013" class="node">
<title>Node13</title>
<g id="a_Node000013"><a xlink:href="classMatrix3.html" target="_top" xlink:title=" ">
<polygon fill="white" stroke="#666666" points="268,-200.49 170,-200.49 170,-181.49 268,-181.49 268,-200.49"/>
<text text-anchor="middle" x="219" y="-188.49" font-family="Helvetica,sans-Serif" font-size="10.00">Matrix3&lt; float &gt;</text>
</a>
</g>
</g>
<!-- Node9&#45;&gt;Node13 -->
<g id="edge16_Node000013_Node000009" class="edge">
<title>Node9&#45;&gt;Node13</title>
<g id="a_edge16_Node000013_Node000009"><a xlink:title=" ">
<path fill="none" stroke="#9a32cd" stroke-dasharray="5,2" d="M67.32,-221.04C79.74,-210.12 97.49,-196.91 116,-190.99 133.04,-185.55 152.51,-184.4 169.84,-185"/>
<polygon fill="#9a32cd" stroke="#9a32cd" points="64.62,-218.77 59.63,-228.11 69.36,-223.92 64.62,-218.77"/>
</a>
</g>
<text text-anchor="middle" x="121" y="-215.99" font-family="Helvetica,sans-Serif" font-size="10.00" fill="grey"> a</text>
<text text-anchor="middle" x="121" y="-204.99" font-family="Helvetica,sans-Serif" font-size="10.00" fill="grey">b</text>
<text text-anchor="middle" x="121" y="-193.99" font-family="Helvetica,sans-Serif" font-size="10.00" fill="grey">c</text>
</g>
<!-- Node10 -->
<g id="Node000010" class="node">
<title>Node10</title>
<g id="a_Node000010"><a xlink:href="structVector2.html" target="_top" xlink:title=" ">
<polygon fill="white" stroke="#666666" points="679.5,-146.49 581.5,-146.49 581.5,-127.49 679.5,-127.49 679.5,-146.49"/>
<text text-anchor="middle" x="630.5" y="-134.49" font-family="Helvetica,sans-Serif" font-size="10.00">Vector2&lt; float &gt;</text>
</a>
</g>
</g>
<!-- Node10&#45;&gt;Node2 -->
<g id="edge12_Node000002_Node000010" class="edge">
<title>Node10&#45;&gt;Node2</title>
<g id="a_edge12_Node000002_Node000010"><a xlink:title=" ">
<path fill="none" stroke="#9a32cd" stroke-dasharray="5,2" d="M689.9,-128.83C738.79,-123.29 803.86,-119.34 825,-133.99 873.65,-167.71 880.84,-248.39 881.85,-276.3"/>
<polygon fill="#9a32cd" stroke="#9a32cd" points="689.26,-125.38 679.74,-130.03 690.08,-132.33 689.26,-125.38"/>
</a>
</g>
<text text-anchor="start" x="726" y="-213.99" font-family="Helvetica,sans-Serif" font-size="10.00" fill="grey"> _target_pos_rel_est</text>
<text text-anchor="middle" x="775.5" y="-202.99" font-family="Helvetica,sans-Serif" font-size="10.00" fill="grey">_NE</text>
<text text-anchor="start" x="726" y="-191.99" font-family="Helvetica,sans-Serif" font-size="10.00" fill="grey">_target_pos_rel</text>
<text text-anchor="middle" x="775.5" y="-180.99" font-family="Helvetica,sans-Serif" font-size="10.00" fill="grey">_out_NE</text>
<text text-anchor="start" x="726" y="-169.99" font-family="Helvetica,sans-Serif" font-size="10.00" fill="grey">_target_vel_rel</text>
<text text-anchor="middle" x="775.5" y="-158.99" font-family="Helvetica,sans-Serif" font-size="10.00" fill="grey">_est_NE</text>
<text text-anchor="start" x="726" y="-147.99" font-family="Helvetica,sans-Serif" font-size="10.00" fill="grey">_target_vel_rel</text>
<text text-anchor="middle" x="775.5" y="-136.99" font-family="Helvetica,sans-Serif" font-size="10.00" fill="grey">_out_NE</text>
</g>
<!-- Node11 -->
<g id="Node000011" class="node">
<title>Node11</title>
<g id="a_Node000011"><a xlink:href="classObjectArray.html" target="_top" xlink:title=" ">
<polygon fill="white" stroke="#666666" points="705,-223.99 556,-223.99 556,-193.99 705,-193.99 705,-223.99"/>
<text text-anchor="start" x="564" y="-211.99" font-family="Helvetica,sans-Serif" font-size="10.00">ObjectArray&lt; AC_PrecLand</text>
<text text-anchor="middle" x="630.5" y="-200.99" font-family="Helvetica,sans-Serif" font-size="10.00">::inertial_data_frame_s &gt;</text>
</a>
</g>
</g>
<!-- Node11&#45;&gt;Node2 -->
<g id="edge13_Node000002_Node000011" class="edge">
<title>Node11&#45;&gt;Node2</title>
<g id="a_edge13_Node000002_Node000011"><a xlink:title=" ">
<path fill="none" stroke="#9a32cd" stroke-dasharray="5,2" d="M715.24,-224.81C762.6,-234.03 814.45,-244.66 825,-248.99 841.81,-255.9 859.02,-267.88 870.07,-276.34"/>
<polygon fill="#9a32cd" stroke="#9a32cd" points="715.7,-221.34 705.21,-222.87 714.37,-228.21 715.7,-221.34"/>
</a>
</g>
<text text-anchor="middle" x="775.5" y="-251.99" font-family="Helvetica,sans-Serif" font-size="10.00" fill="grey"> _inertial_history</text>
</g>
<!-- Node12&#45;&gt;Node2 -->
<g id="edge18_Node000002_Node000012" class="edge">
<title>Node12&#45;&gt;Node2</title>
<g id="a_edge18_Node000002_Node000012"><a xlink:title=" ">
<path fill="none" stroke="#9a32cd" stroke-dasharray="5,2" d="M486.28,-227.27C585.36,-241.98 764.22,-268.52 842.98,-280.2"/>
<polygon fill="#9a32cd" stroke="#9a32cd" points="486.77,-223.81 476.36,-225.8 485.74,-230.73 486.77,-223.81"/>
</a>
</g>
<text text-anchor="middle" x="630.5" y="-261.99" font-family="Helvetica,sans-Serif" font-size="10.00" fill="grey"> _inertial_data_delayed</text>
</g>
<!-- Node12&#45;&gt;Node11 -->
<g id="edge14_Node000011_Node000012" class="edge">
<title>Node12&#45;&gt;Node11</title>
<g id="a_edge14_Node000011_Node000012"><a xlink:title=" ">
<path fill="none" stroke="#9a32cd" stroke-dasharray="5,2" d="M486.24,-214.39C508.51,-213.55 533.27,-212.62 555.85,-211.77"/>
<polygon fill="#9a32cd" stroke="#9a32cd" points="486.05,-210.89 476.19,-214.77 486.32,-217.89 486.05,-210.89"/>
</a>
</g>
<text text-anchor="middle" x="516.5" y="-215.99" font-family="Helvetica,sans-Serif" font-size="10.00" fill="grey"> _buffer</text>
</g>
<!-- Node13&#45;&gt;Node12 -->
<g id="edge15_Node000012_Node000013" class="edge">
<title>Node13&#45;&gt;Node12</title>
<g id="a_edge15_Node000012_Node000013"><a xlink:title=" ">
<path fill="none" stroke="#9a32cd" stroke-dasharray="5,2" d="M278.43,-198.78C302.9,-202.05 331.31,-205.84 355.86,-209.11"/>
<polygon fill="#9a32cd" stroke="#9a32cd" points="278.58,-195.27 268.2,-197.42 277.65,-202.21 278.58,-195.27"/>
</a>
</g>
<text text-anchor="middle" x="323" y="-207.99" font-family="Helvetica,sans-Serif" font-size="10.00" fill="grey"> Tbn</text>
</g>
<!-- Node14 -->
<g id="Node000014" class="node">
<title>Node14</title>
<g id="a_Node000014"><a xlink:href="structAC__PrecLand_1_1precland__state.html" target="_top" xlink:title=" ">
<polygon fill="white" stroke="#666666" points="480,-70.99 352,-70.99 352,-40.99 480,-40.99 480,-70.99"/>
<text text-anchor="start" x="360" y="-58.99" font-family="Helvetica,sans-Serif" font-size="10.00">AC_PrecLand::precland</text>
<text text-anchor="middle" x="416" y="-47.99" font-family="Helvetica,sans-Serif" font-size="10.00">_state</text>
</a>
</g>
</g>
<!-- Node14&#45;&gt;Node1 -->
<g id="edge22_Node000001_Node000014" class="edge">
<title>Node14&#45;&gt;Node1</title>
<g id="a_edge22_Node000001_Node000014"><a xlink:title=" ">
<path fill="none" stroke="#9a32cd" stroke-dasharray="5,2" d="M490.37,-62.55C515.43,-64.79 543.2,-67.28 567.29,-69.43"/>
<polygon fill="#9a32cd" stroke="#9a32cd" points="490.45,-59.05 480.18,-61.64 489.83,-66.02 490.45,-59.05"/>
</a>
</g>
<text text-anchor="middle" x="516.5" y="-69.99" font-family="Helvetica,sans-Serif" font-size="10.00" fill="grey"> _state</text>
</g>
<!-- Node14&#45;&gt;Node2 -->
<g id="edge19_Node000002_Node000014" class="edge">
<title>Node14&#45;&gt;Node2</title>
<g id="a_edge19_Node000002_Node000014"><a xlink:title=" ">
<path fill="none" stroke="#9a32cd" stroke-dasharray="5,2" d="M464.62,-37.62C548.02,-8.87 721.45,35.17 825,-49.99 861.22,-79.78 877.54,-236.06 881.19,-276.46"/>
<polygon fill="#9a32cd" stroke="#9a32cd" points="463.42,-34.33 455.15,-40.95 465.74,-40.93 463.42,-34.33"/>
</a>
</g>
<text text-anchor="middle" x="630.5" y="-15.99" font-family="Helvetica,sans-Serif" font-size="10.00" fill="grey"> _backend_state</text>
</g>
</g>
</svg>

<g id="navigator" transform="translate(0 0)" fill="#404254">
  <rect fill="#f2f5e9" fill-opacity="0.5" stroke="#606060" stroke-width=".5" x="0" y="0" width="60" height="60"/>
  <use id="zoomplus" xlink:href="#zoomPlus" x="17" y="9" onmousedown="handleZoom(evt,'in')"/>
  <use id="zoomminus" xlink:href="#zoomMin" x="42" y="9" onmousedown="handleZoom(evt,'out')"/>
  <use id="reset" xlink:href="#resetDef" x="30" y="36" onmousedown="handleReset()"/>
   <use id="arrowup" xlink:href="#arrowUp" x="0" y="0" onmousedown="handlePan(0,-1)"/>
  <use id="arrowright" xlink:href="#arrowRight" x="0" y="0" onmousedown="handlePan(1,0)"/>
  <use id="arrowdown" xlink:href="#arrowDown" x="0" y="0" onmousedown="handlePan(0,1)"/>
  <use id="arrowleft" xlink:href="#arrowLeft" x="0" y="0" onmousedown="handlePan(-1,0)"/>
</g>
<svg viewBox="0 0 15 15" width="100%" height="30px" preserveAspectRatio="xMaxYMin meet">
 <g id="arrow_out" transform="scale(0.3 0.3)">
  <a xlink:href="classAC__PrecLand__Backend__coll__graph_org.svg" target="_base">
   <rect id="button" ry="5" rx="5" y="6" x="6" height="38" width="38"
        fill="#f2f5e9" fill-opacity="0.5" stroke="#606060" stroke-width="1.0"/>
   <path id="arrow"
     d="M 11.500037,31.436501 C 11.940474,20.09759 22.043105,11.32322 32.158766,21.979434 L 37.068811,17.246167 C 37.068811,17.246167 37.088388,32 37.088388,32 L 22.160133,31.978069 C 22.160133,31.978069 26.997745,27.140456 26.997745,27.140456 C 18.528582,18.264221 13.291696,25.230495 11.500037,31.436501 z"
     style="fill:#404040;"/>
  </a>
 </g>
</svg>

<style type='text/css'>
<![CDATA[
[data-mouse-over-selected='false'] { opacity: 0.7; }
[data-mouse-over-selected='true']  { opacity: 1.0; }
]]>
</style>
<script type="application/ecmascript"><![CDATA[
document.addEventListener('DOMContentLoaded', (event) => {
  highlightEdges();
  highlightAdjacentNodes();
});
]]></script>
</svg>
