<?xml version="1.0" encoding="UTF-8" standalone="no"?>
<!DOCTYPE svg PUBLIC "-//W3C//DTD SVG 1.1//EN"
 "http://www.w3.org/Graphics/SVG/1.1/DTD/svg11.dtd">
<!-- Generated by graphviz version 2.43.0 (0)
 -->
<!-- Title: SITL::EFI_Hirth::update Pages: 1 -->
<!--zoomable 536 -->

<svg id="main" version="1.1" xmlns="http://www.w3.org/2000/svg" xmlns:xlink="http://www.w3.org/1999/xlink" xml:space="preserve" onload="init(evt)">
<style type="text/css"><![CDATA[
.node, .edge {opacity: 0.7;}
.node.selected, .edge.selected {opacity: 1;}
.edge:hover path { stroke: red; }
.edge:hover polygon { stroke: red; fill: red; }
]]></style>

<defs>
  <circle id="rim" cx="0" cy="0" r="7"/>
  <circle id="rim2" cx="0" cy="0" r="3.5"/>
  <g id="zoomPlus">
    <use xlink:href="#rim" fill="#404040"><set attributeName="fill" to="#808080" begin="zoomplus.mouseover" end="zoomplus.mouseout"/></use>
    <path d="M-4,0h8M0,-4v8" fill="none" stroke="white" stroke-width="1.5" pointer-events="none"/>
  </g>
  <g id="zoomMin">
    <use xlink:href="#rim" fill="#404040"><set attributeName="fill" to="#808080" begin="zoomminus.mouseover" end="zoomminus.mouseout"/></use>
    <path d="M-4,0h8" fill="none" stroke="white" stroke-width="1.5" pointer-events="none"/>
  </g>
  <g id="arrowUp" transform="translate(30 24)">
    <use xlink:href="#rim"/>
    <path pointer-events="none" fill="none" stroke="white" stroke-width="1.5" d="M0,-3.0v7 M-2.5,-0.5L0,-3.0L2.5,-0.5"/>
  </g>
  <g id="arrowRight" transform="rotate(90) translate(36 -43)">
    <use xlink:href="#rim"/>
    <path pointer-events="none" fill="none" stroke="white" stroke-width="1.5" d="M0,-3.0v7 M-2.5,-0.5L0,-3.0L2.5,-0.5"/>
  </g>
  <g id="arrowDown" transform="rotate(180) translate(-30 -48)">
    <use xlink:href="#rim"/>
    <path pointer-events="none" fill="none" stroke="white" stroke-width="1.5" d="M0,-3.0v7 M-2.5,-0.5L0,-3.0L2.5,-0.5"/>
  </g>
  <g id="arrowLeft" transform="rotate(270) translate(-36 17)">
    <use xlink:href="#rim"/>
    <path pointer-events="none" fill="none" stroke="white" stroke-width="1.5" d="M0,-3.0v7 M-2.5,-0.5L0,-3.0L2.5,-0.5"/>
  </g>
  <g id="resetDef">
    <use xlink:href="#rim2" fill="#404040"><set attributeName="fill" to="#808080" begin="reset.mouseover" end="reset.mouseout"/></use>
  </g>
</defs>
<script type="application/ecmascript">
var viewWidth = 1105;
var viewHeight = 536;
var sectionId = 'dynsection-12';
</script>
<script type="application/ecmascript" xlink:href="svg.min.js"/>
<svg id="graph" class="graph">
<g id="viewport">
<title>SITL::EFI_Hirth::update</title>
<!-- Node1 -->
<g id="Node000001" class="node">
<title>Node1</title>
<g id="a_Node000001"><a xlink:title=" ">
<polygon fill="#999999" stroke="#666666" points="127,-345.27 0,-345.27 0,-326.27 127,-326.27 127,-345.27"/>
<text text-anchor="middle" x="63.5" y="-333.27" font-family="Helvetica,sans-Serif" font-size="10.00">SITL::EFI_Hirth::update</text>
</a>
</g>
</g>
<!-- Node2 -->
<g id="Node000002" class="node">
<title>Node2</title>
<g id="a_Node000002"><a xlink:href="classSITL_1_1EFI__Hirth.html#ac3a43f05b234b18fcc8c084261ddddac" target="_top" xlink:title=" ">
<polygon fill="white" stroke="#666666" points="471.5,-510.27 362.5,-510.27 362.5,-491.27 471.5,-491.27 471.5,-510.27"/>
<text text-anchor="middle" x="417" y="-498.27" font-family="Helvetica,sans-Serif" font-size="10.00">SITL::EFI_Hirth::init</text>
</a>
</g>
</g>
<!-- Node1&#45;&gt;Node2 -->
<g id="edge1_Node000001_Node000002" class="edge">
<title>Node1&#45;&gt;Node2</title>
<g id="a_edge1_Node000001_Node000002"><a xlink:title=" ">
<path fill="none" stroke="#63b8ff" d="M72.42,-345.32C87.94,-363.43 124.25,-402.93 163,-424.77 222.87,-458.51 299.33,-478.79 352.45,-489.81"/>
<polygon fill="#63b8ff" stroke="#63b8ff" points="351.92,-493.27 362.42,-491.83 353.31,-486.41 351.92,-493.27"/>
</a>
</g>
</g>
<!-- Node7 -->
<g id="Node000007" class="node">
<title>Node7</title>
<g id="a_Node000007"><a xlink:href="classSITL_1_1EFI__Hirth.html#aa49d8326507c7a8e58a1064be4a52d7c" target="_top" xlink:title=" ">
<polygon fill="white" stroke="#666666" points="304,-415.77 177,-415.77 177,-385.77 304,-385.77 304,-415.77"/>
<text text-anchor="start" x="185" y="-403.77" font-family="Helvetica,sans-Serif" font-size="10.00">SITL::EFI_Hirth::update</text>
<text text-anchor="middle" x="240.5" y="-392.77" font-family="Helvetica,sans-Serif" font-size="10.00">_engine_model</text>
</a>
</g>
</g>
<!-- Node1&#45;&gt;Node7 -->
<g id="edge8_Node000001_Node000007" class="edge">
<title>Node1&#45;&gt;Node7</title>
<g id="a_edge8_Node000001_Node000007"><a xlink:title=" ">
<path fill="none" stroke="#63b8ff" d="M90.32,-345.36C116.26,-354.99 156.9,-370.09 189.22,-382.09"/>
<polygon fill="#63b8ff" stroke="#63b8ff" points="188.36,-385.51 198.96,-385.71 190.8,-378.95 188.36,-385.51"/>
</a>
</g>
</g>
<!-- Node15 -->
<g id="Node000015" class="node">
<title>Node15</title>
<g id="a_Node000015"><a xlink:href="classSITL_1_1EFI__Hirth.html#ab532024600adcf505343978d2840812b" target="_top" xlink:title=" ">
<polygon fill="white" stroke="#666666" points="304,-143.77 177,-143.77 177,-113.77 304,-113.77 304,-143.77"/>
<text text-anchor="start" x="185" y="-131.77" font-family="Helvetica,sans-Serif" font-size="10.00">SITL::EFI_Hirth::update</text>
<text text-anchor="middle" x="240.5" y="-120.77" font-family="Helvetica,sans-Serif" font-size="10.00">_receive</text>
</a>
</g>
</g>
<!-- Node1&#45;&gt;Node15 -->
<g id="edge18_Node000001_Node000015" class="edge">
<title>Node1&#45;&gt;Node15</title>
<g id="a_edge18_Node000001_Node000015"><a xlink:title=" ">
<path fill="none" stroke="#63b8ff" d="M72.71,-326.06C99.04,-294.91 181.93,-196.86 220.02,-151.82"/>
<polygon fill="#63b8ff" stroke="#63b8ff" points="222.8,-153.95 226.58,-144.05 217.45,-149.43 222.8,-153.95"/>
</a>
</g>
</g>
<!-- Node25 -->
<g id="Node000025" class="node">
<title>Node25</title>
<g id="a_Node000025"><a xlink:href="classSITL_1_1EFI__Hirth.html#a8e6d5d00fe279234c8bef1285a90c2cd" target="_top" xlink:title=" ">
<polygon fill="white" stroke="#666666" points="318,-324.27 163,-324.27 163,-305.27 318,-305.27 318,-324.27"/>
<text text-anchor="middle" x="240.5" y="-312.27" font-family="Helvetica,sans-Serif" font-size="10.00">SITL::EFI_Hirth::update_send</text>
</a>
</g>
</g>
<!-- Node1&#45;&gt;Node25 -->
<g id="edge31_Node000001_Node000025" class="edge">
<title>Node1&#45;&gt;Node25</title>
<g id="a_edge31_Node000001_Node000025"><a xlink:title=" ">
<path fill="none" stroke="#63b8ff" d="M127.18,-328.25C135.5,-327.25 144.15,-326.21 152.78,-325.17"/>
<polygon fill="#63b8ff" stroke="#63b8ff" points="153.38,-328.63 162.89,-323.96 152.55,-321.68 153.38,-328.63"/>
</a>
</g>
</g>
<!-- Node3 -->
<g id="Node000003" class="node">
<title>Node3</title>
<g id="a_Node000003"><a xlink:href="namespaceAP.html#a8aec57eb0b7a79044cbc1f0ca4b75bcf" target="_top" xlink:title=" ">
<polygon fill="white" stroke="#666666" points="617,-472.27 560,-472.27 560,-453.27 617,-453.27 617,-472.27"/>
<text text-anchor="middle" x="588.5" y="-460.27" font-family="Helvetica,sans-Serif" font-size="10.00">AP::baro</text>
</a>
</g>
</g>
<!-- Node2&#45;&gt;Node3 -->
<g id="edge2_Node000002_Node000003" class="edge">
<title>Node2&#45;&gt;Node3</title>
<g id="a_edge2_Node000002_Node000003"><a xlink:title=" ">
<path fill="none" stroke="#63b8ff" d="M460.77,-491.18C488.22,-485.03 523.52,-477.11 549.89,-471.2"/>
<polygon fill="#63b8ff" stroke="#63b8ff" points="550.89,-474.56 559.88,-468.96 549.36,-467.73 550.89,-474.56"/>
</a>
</g>
</g>
<!-- Node5 -->
<g id="Node000005" class="node">
<title>Node5</title>
<g id="a_Node000005"><a xlink:href="classAP__Baro.html#ae7be7aff322792daa05c01e4f326cc42" target="_top" xlink:title=" ">
<polygon fill="white" stroke="#666666" points="661,-417.27 516,-417.27 516,-398.27 661,-398.27 661,-417.27"/>
<text text-anchor="middle" x="588.5" y="-405.27" font-family="Helvetica,sans-Serif" font-size="10.00">AP_Baro::get_temperature</text>
</a>
</g>
</g>
<!-- Node2&#45;&gt;Node5 -->
<g id="edge4_Node000002_Node000005" class="edge">
<title>Node2&#45;&gt;Node5</title>
<g id="a_edge4_Node000002_Node000005"><a xlink:title=" ">
<path fill="none" stroke="#63b8ff" d="M434.18,-491.25C453.52,-479.93 486.91,-460.6 516,-444.77 530.23,-437.03 546.22,-428.71 559.47,-421.93"/>
<polygon fill="#63b8ff" stroke="#63b8ff" points="561.25,-424.95 568.57,-417.29 558.07,-418.72 561.25,-424.95"/>
</a>
</g>
</g>
<!-- Node6 -->
<g id="Node000006" class="node">
<title>Node6</title>
<g id="a_Node000006"><a xlink:href="AP__Math_8h.html#a2a12cce483e9b870da70d30406d82c60" target="_top" xlink:title=" ">
<polygon fill="white" stroke="#666666" points="614,-510.27 563,-510.27 563,-491.27 614,-491.27 614,-510.27"/>
<text text-anchor="middle" x="588.5" y="-498.27" font-family="Helvetica,sans-Serif" font-size="10.00">is_zero</text>
</a>
</g>
</g>
<!-- Node2&#45;&gt;Node6 -->
<g id="edge6_Node000002_Node000006" class="edge">
<title>Node2&#45;&gt;Node6</title>
<g id="a_edge6_Node000002_Node000006"><a xlink:title=" ">
<path fill="none" stroke="#63b8ff" d="M471.63,-500.77C498.04,-500.77 529.13,-500.77 552.46,-500.77"/>
<polygon fill="#63b8ff" stroke="#63b8ff" points="552.58,-504.27 562.58,-500.77 552.58,-497.27 552.58,-504.27"/>
</a>
</g>
</g>
<!-- Node4 -->
<g id="Node000004" class="node">
<title>Node4</title>
<g id="a_Node000004"><a xlink:href="classAP__Baro.html#af6c560031f4ddc5c21bfad92c8dd5a8a" target="_top" xlink:title=" ">
<polygon fill="white" stroke="#666666" points="826,-472.27 697,-472.27 697,-453.27 826,-453.27 826,-472.27"/>
<text text-anchor="middle" x="761.5" y="-460.27" font-family="Helvetica,sans-Serif" font-size="10.00">AP_Baro::get_singleton</text>
</a>
</g>
</g>
<!-- Node3&#45;&gt;Node4 -->
<g id="edge3_Node000003_Node000004" class="edge">
<title>Node3&#45;&gt;Node4</title>
<g id="a_edge3_Node000003_Node000004"><a xlink:title=" ">
<path fill="none" stroke="#63b8ff" d="M617.35,-462.77C636.24,-462.77 662.14,-462.77 686.72,-462.77"/>
<polygon fill="#63b8ff" stroke="#63b8ff" points="686.79,-466.27 696.79,-462.77 686.79,-459.27 686.79,-466.27"/>
</a>
</g>
</g>
<!-- Node5&#45;&gt;Node5 -->
<g id="edge5_Node000005_Node000005" class="edge">
<title>Node5&#45;&gt;Node5</title>
<g id="a_edge5_Node000005_Node000005"><a xlink:title=" ">
<path fill="none" stroke="#63b8ff" d="M562.3,-417.35C549.55,-426 558.29,-435.27 588.5,-435.27 608.8,-435.27 619.4,-431.09 620.31,-425.72"/>
<polygon fill="#63b8ff" stroke="#63b8ff" points="623.18,-423.71 614.7,-417.35 617.36,-427.61 623.18,-423.71"/>
</a>
</g>
</g>
<!-- Node6&#45;&gt;Node6 -->
<g id="edge7_Node000006_Node000006" class="edge">
<title>Node6&#45;&gt;Node6</title>
<g id="a_edge7_Node000006_Node000006"><a xlink:title=" ">
<path fill="none" stroke="#63b8ff" d="M562.73,-510.07C549.36,-518.8 557.95,-528.27 588.5,-528.27 609.5,-528.27 620.12,-523.79 620.37,-518.16"/>
<polygon fill="#63b8ff" stroke="#63b8ff" points="623.09,-515.95 614.27,-510.07 617.5,-520.16 623.09,-515.95"/>
</a>
</g>
</g>
<!-- Node7&#45;&gt;Node3 -->
<g id="edge9_Node000007_Node000003" class="edge">
<title>Node7&#45;&gt;Node3</title>
<g id="a_edge9_Node000007_Node000003"><a xlink:title=" ">
<path fill="none" stroke="#63b8ff" d="M304.16,-412C375.81,-424.83 490.79,-445.44 549.83,-456.02"/>
<polygon fill="#63b8ff" stroke="#63b8ff" points="549.38,-459.49 559.84,-457.81 550.61,-452.6 549.38,-459.49"/>
</a>
</g>
</g>
<!-- Node7&#45;&gt;Node5 -->
<g id="edge10_Node000007_Node000005" class="edge">
<title>Node7&#45;&gt;Node5</title>
<g id="a_edge10_Node000007_Node000005"><a xlink:title=" ">
<path fill="none" stroke="#63b8ff" d="M304.26,-403.96C320.46,-404.67 337.88,-405.34 354,-405.77 404.38,-407.1 460.89,-407.61 505.7,-407.78"/>
<polygon fill="#63b8ff" stroke="#63b8ff" points="505.94,-411.29 515.95,-407.82 505.96,-404.29 505.94,-411.29"/>
</a>
</g>
</g>
<!-- Node8 -->
<g id="Node000008" class="node">
<title>Node8</title>
<g id="a_Node000008"><a xlink:href="namespaceAP__HAL.html#a77dffbb18891996280308e21316ec186" target="_top" xlink:title=" ">
<polygon fill="white" stroke="#666666" points="460.5,-348.27 373.5,-348.27 373.5,-329.27 460.5,-329.27 460.5,-348.27"/>
<text text-anchor="middle" x="417" y="-336.27" font-family="Helvetica,sans-Serif" font-size="10.00">AP_HAL::millis</text>
</a>
</g>
</g>
<!-- Node7&#45;&gt;Node8 -->
<g id="edge11_Node000007_Node000008" class="edge">
<title>Node7&#45;&gt;Node8</title>
<g id="a_edge11_Node000007_Node000008"><a xlink:title=" ">
<path fill="none" stroke="#63b8ff" d="M279.02,-385.7C300.79,-377.14 328.79,-366.44 354,-357.77 360.37,-355.58 367.14,-353.38 373.79,-351.29"/>
<polygon fill="#63b8ff" stroke="#63b8ff" points="374.85,-354.62 383.37,-348.32 372.78,-347.93 374.85,-354.62"/>
</a>
</g>
</g>
<!-- Node9 -->
<g id="Node000009" class="node">
<title>Node9</title>
<g id="a_Node000009"><a xlink:href="hrt_8c.html#a1295f128f60d29874243b5733c4db025" target="_top" xlink:title=" ">
<polygon fill="white" stroke="#666666" points="625.5,-348.27 551.5,-348.27 551.5,-329.27 625.5,-329.27 625.5,-348.27"/>
<text text-anchor="middle" x="588.5" y="-336.27" font-family="Helvetica,sans-Serif" font-size="10.00">hrt_millis32</text>
</a>
</g>
</g>
<!-- Node8&#45;&gt;Node9 -->
<g id="edge12_Node000008_Node000009" class="edge">
<title>Node8&#45;&gt;Node9</title>
<g id="a_edge12_Node000008_Node000009"><a xlink:title=" ">
<path fill="none" stroke="#63b8ff" d="M460.77,-338.77C485.34,-338.77 516.2,-338.77 541.32,-338.77"/>
<polygon fill="#63b8ff" stroke="#63b8ff" points="541.34,-342.27 551.34,-338.77 541.34,-335.27 541.34,-342.27"/>
</a>
</g>
</g>
<!-- Node10 -->
<g id="Node000010" class="node">
<title>Node10</title>
<g id="a_Node000010"><a xlink:href="hrt_8c.html#a7dd7d90aadd8f76f26da7d5abfad6fe8" target="_top" xlink:title=" ">
<polygon fill="white" stroke="#666666" points="798.5,-348.27 724.5,-348.27 724.5,-329.27 798.5,-329.27 798.5,-348.27"/>
<text text-anchor="middle" x="761.5" y="-336.27" font-family="Helvetica,sans-Serif" font-size="10.00">hrt_millis64</text>
</a>
</g>
</g>
<!-- Node9&#45;&gt;Node10 -->
<g id="edge13_Node000009_Node000010" class="edge">
<title>Node9&#45;&gt;Node10</title>
<g id="a_edge13_Node000009_Node000010"><a xlink:title=" ">
<path fill="none" stroke="#63b8ff" d="M625.76,-338.77C651.5,-338.77 686.25,-338.77 714.02,-338.77"/>
<polygon fill="#63b8ff" stroke="#63b8ff" points="714.29,-342.27 724.29,-338.77 714.29,-335.27 714.29,-342.27"/>
</a>
</g>
</g>
<!-- Node11 -->
<g id="Node000011" class="node">
<title>Node11</title>
<g id="a_Node000011"><a xlink:href="hrt_8c.html#a152c3348a8e83f2dfe35b44cc2e30362" target="_top" xlink:title=" ">
<polygon fill="white" stroke="#666666" points="960,-330.27 880,-330.27 880,-311.27 960,-311.27 960,-330.27"/>
<text text-anchor="middle" x="920" y="-318.27" font-family="Helvetica,sans-Serif" font-size="10.00">hrt_micros64</text>
</a>
</g>
</g>
<!-- Node10&#45;&gt;Node11 -->
<g id="edge14_Node000010_Node000011" class="edge">
<title>Node10&#45;&gt;Node11</title>
<g id="a_edge14_Node000010_Node000011"><a xlink:title=" ">
<path fill="none" stroke="#63b8ff" d="M798.8,-334.59C819.86,-332.17 846.68,-329.09 869.64,-326.45"/>
<polygon fill="#63b8ff" stroke="#63b8ff" points="870.35,-329.89 879.89,-325.27 869.55,-322.93 870.35,-329.89"/>
</a>
</g>
</g>
<!-- Node14 -->
<g id="Node000014" class="node">
<title>Node14</title>
<g id="a_Node000014"><a xlink:href="div1000_8h.html#aece9e7f123414c41d0426fbadca097d8" target="_top" xlink:title=" ">
<polygon fill="white" stroke="#666666" points="966,-367.27 874,-367.27 874,-348.27 966,-348.27 966,-367.27"/>
<text text-anchor="middle" x="920" y="-355.27" font-family="Helvetica,sans-Serif" font-size="10.00">uint64_div1000</text>
</a>
</g>
</g>
<!-- Node10&#45;&gt;Node14 -->
<g id="edge17_Node000010_Node000014" class="edge">
<title>Node10&#45;&gt;Node14</title>
<g id="a_edge17_Node000010_Node000014"><a xlink:title=" ">
<path fill="none" stroke="#63b8ff" d="M798.8,-343.18C818.13,-345.52 842.31,-348.46 863.91,-351.08"/>
<polygon fill="#63b8ff" stroke="#63b8ff" points="863.59,-354.57 873.94,-352.3 864.44,-347.62 863.59,-354.57"/>
</a>
</g>
</g>
<!-- Node12 -->
<g id="Node000012" class="node">
<title>Node12</title>
<g id="a_Node000012"><a xlink:href="hrt_8c.html#a5b4ffc7ff86bd5b893c4a98834e80200" target="_top" xlink:title=" ">
<polygon fill="white" stroke="#666666" points="1097,-348.27 1014,-348.27 1014,-329.27 1097,-329.27 1097,-348.27"/>
<text text-anchor="middle" x="1055.5" y="-336.27" font-family="Helvetica,sans-Serif" font-size="10.00">hrt_micros64I</text>
</a>
</g>
</g>
<!-- Node11&#45;&gt;Node12 -->
<g id="edge15_Node000011_Node000012" class="edge">
<title>Node11&#45;&gt;Node12</title>
<g id="a_edge15_Node000011_Node000012"><a xlink:title=" ">
<path fill="none" stroke="#63b8ff" d="M960.33,-326.07C973.82,-327.89 989.13,-329.95 1003.41,-331.88"/>
<polygon fill="#63b8ff" stroke="#63b8ff" points="1003.22,-335.39 1013.6,-333.25 1004.15,-328.45 1003.22,-335.39"/>
</a>
</g>
</g>
<!-- Node13 -->
<g id="Node000013" class="node">
<title>Node13</title>
<g id="a_Node000013"><a xlink:href="hrt_8c.html#a723fef85be7bacb834af35445a891c18" target="_top" xlink:title=" ">
<polygon fill="white" stroke="#666666" points="1086.5,-311.27 1024.5,-311.27 1024.5,-292.27 1086.5,-292.27 1086.5,-311.27"/>
<text text-anchor="middle" x="1055.5" y="-299.27" font-family="Helvetica,sans-Serif" font-size="10.00">is_locked</text>
</a>
</g>
</g>
<!-- Node11&#45;&gt;Node13 -->
<g id="edge16_Node000011_Node000013" class="edge">
<title>Node11&#45;&gt;Node13</title>
<g id="a_edge16_Node000011_Node000013"><a xlink:title=" ">
<path fill="none" stroke="#63b8ff" d="M960.33,-315.17C977.27,-312.76 997.07,-309.94 1014.13,-307.51"/>
<polygon fill="#63b8ff" stroke="#63b8ff" points="1014.94,-310.93 1024.34,-306.06 1013.95,-304 1014.94,-310.93"/>
</a>
</g>
</g>
<!-- Node15&#45;&gt;Node8 -->
<g id="edge28_Node000015_Node000008" class="edge">
<title>Node15&#45;&gt;Node8</title>
<g id="a_edge28_Node000015_Node000008"><a xlink:title=" ">
<path fill="none" stroke="#63b8ff" d="M246.17,-143.98C258.04,-180.08 292.82,-271.5 354,-319.77 357.09,-322.21 360.5,-324.34 364.08,-326.19"/>
<polygon fill="#63b8ff" stroke="#63b8ff" points="362.67,-329.4 373.23,-330.27 365.52,-323 362.67,-329.4"/>
</a>
</g>
</g>
<!-- Node16 -->
<g id="Node000016" class="node">
<title>Node16</title>
<g id="a_Node000016"><a xlink:href="classSITL_1_1EFI__Hirth.html#a07407aae4f330567b9d5f3b4b23377d0" target="_top" xlink:title=" ">
<polygon fill="white" stroke="#666666" points="650,-52.77 527,-52.77 527,-22.77 650,-22.77 650,-52.77"/>
<text text-anchor="start" x="535" y="-40.77" font-family="Helvetica,sans-Serif" font-size="10.00">SITL::EFI_Hirth::assert</text>
<text text-anchor="middle" x="588.5" y="-29.77" font-family="Helvetica,sans-Serif" font-size="10.00">_receive_size</text>
</a>
</g>
</g>
<!-- Node15&#45;&gt;Node16 -->
<g id="edge19_Node000015_Node000016" class="edge">
<title>Node15&#45;&gt;Node16</title>
<g id="a_edge19_Node000015_Node000016"><a xlink:title=" ">
<path fill="none" stroke="#63b8ff" d="M250.59,-113.47C267.21,-87.16 305.34,-34.24 354,-13.77 414.09,11.51 490.27,-4.18 538.95,-19.5"/>
<polygon fill="#63b8ff" stroke="#63b8ff" points="538.02,-22.88 548.61,-22.65 540.19,-16.22 538.02,-22.88"/>
</a>
</g>
</g>
<!-- Node17 -->
<g id="Node000017" class="node">
<title>Node17</title>
<g id="a_Node000017"><a xlink:href="namespaceAP__HAL.html#a52edeef7d5ffaa365e1229b87c170307" target="_top" xlink:title=" ">
<polygon fill="white" stroke="#666666" points="804.5,-176.27 718.5,-176.27 718.5,-157.27 804.5,-157.27 804.5,-176.27"/>
<text text-anchor="middle" x="761.5" y="-164.27" font-family="Helvetica,sans-Serif" font-size="10.00">AP_HAL::panic</text>
</a>
</g>
</g>
<!-- Node15&#45;&gt;Node17 -->
<g id="edge29_Node000015_Node000017" class="edge">
<title>Node15&#45;&gt;Node17</title>
<g id="a_edge29_Node000015_Node000017"><a xlink:title=" ">
<path fill="none" stroke="#63b8ff" d="M304.09,-140.72C320.29,-143.43 337.75,-146.02 354,-147.77 480.47,-161.35 630.1,-165.23 707.77,-166.33"/>
<polygon fill="#63b8ff" stroke="#63b8ff" points="708.19,-169.84 718.24,-166.47 708.28,-162.84 708.19,-169.84"/>
</a>
</g>
</g>
<!-- Node21 -->
<g id="Node000021" class="node">
<title>Node21</title>
<g id="a_Node000021"><a xlink:href="crc_8cpp.html#aa64c73060bd39d81dbfd85dc7914b637" target="_top" xlink:title=" ">
<polygon fill="white" stroke="#666666" points="469,-138.27 365,-138.27 365,-119.27 469,-119.27 469,-138.27"/>
<text text-anchor="middle" x="417" y="-126.27" font-family="Helvetica,sans-Serif" font-size="10.00">crc_sum_of_bytes</text>
</a>
</g>
</g>
<!-- Node15&#45;&gt;Node21 -->
<g id="edge24_Node000015_Node000021" class="edge">
<title>Node15&#45;&gt;Node21</title>
<g id="a_edge24_Node000015_Node000021"><a xlink:title=" ">
<path fill="none" stroke="#63b8ff" d="M304.01,-128.77C320.53,-128.77 338.34,-128.77 354.79,-128.77"/>
<polygon fill="#63b8ff" stroke="#63b8ff" points="354.83,-132.27 364.83,-128.77 354.83,-125.27 354.83,-132.27"/>
</a>
</g>
</g>
<!-- Node23 -->
<g id="Node000023" class="node">
<title>Node23</title>
<g id="a_Node000023"><a xlink:href="classSITL_1_1EFI__Hirth.html#af76e6f94604f1f614a234450e8cc7a7a" target="_top" xlink:title=" ">
<polygon fill="white" stroke="#666666" points="480,-52.77 354,-52.77 354,-22.77 480,-22.77 480,-52.77"/>
<text text-anchor="start" x="362" y="-40.77" font-family="Helvetica,sans-Serif" font-size="10.00">SITL::EFI_Hirth::handle</text>
<text text-anchor="middle" x="417" y="-29.77" font-family="Helvetica,sans-Serif" font-size="10.00">_set_values</text>
</a>
</g>
</g>
<!-- Node15&#45;&gt;Node23 -->
<g id="edge26_Node000015_Node000023" class="edge">
<title>Node15&#45;&gt;Node23</title>
<g id="a_edge26_Node000015_Node000023"><a xlink:title=" ">
<path fill="none" stroke="#63b8ff" d="M264.14,-113.74C286.42,-99.33 321.71,-77.5 354,-61.77 357.52,-60.05 361.19,-58.37 364.92,-56.75"/>
<polygon fill="#63b8ff" stroke="#63b8ff" points="366.37,-59.93 374.23,-52.83 363.66,-53.48 366.37,-59.93"/>
</a>
</g>
</g>
<!-- Node24 -->
<g id="Node000024" class="node">
<title>Node24</title>
<g id="a_Node000024"><a xlink:href="classSITL_1_1SerialDevice.html#a19281d87ba01fead1fa88e46fe48c966" target="_top" xlink:title=" ">
<polygon fill="white" stroke="#666666" points="478,-100.77 356,-100.77 356,-70.77 478,-70.77 478,-100.77"/>
<text text-anchor="start" x="364" y="-88.77" font-family="Helvetica,sans-Serif" font-size="10.00">SITL::SerialDevice</text>
<text text-anchor="middle" x="417" y="-77.77" font-family="Helvetica,sans-Serif" font-size="10.00">::read_from_autopilot</text>
</a>
</g>
</g>
<!-- Node15&#45;&gt;Node24 -->
<g id="edge30_Node000015_Node000024" class="edge">
<title>Node15&#45;&gt;Node24</title>
<g id="a_edge30_Node000015_Node000024"><a xlink:title=" ">
<path fill="none" stroke="#63b8ff" d="M302.53,-113.73C316.59,-110.27 331.64,-106.56 346.04,-103.01"/>
<polygon fill="#63b8ff" stroke="#63b8ff" points="347.01,-106.37 355.89,-100.58 345.34,-99.58 347.01,-106.37"/>
</a>
</g>
</g>
<!-- Node16&#45;&gt;Node17 -->
<g id="edge20_Node000016_Node000017" class="edge">
<title>Node16&#45;&gt;Node17</title>
<g id="a_edge20_Node000016_Node000017"><a xlink:title=" ">
<path fill="none" stroke="#63b8ff" d="M609.45,-52.82C641.96,-77.35 706.08,-125.71 739.35,-150.81"/>
<polygon fill="#63b8ff" stroke="#63b8ff" points="737.39,-153.72 747.48,-156.95 741.61,-148.13 737.39,-153.72"/>
</a>
</g>
</g>
<!-- Node18 -->
<g id="Node000018" class="node">
<title>Node18</title>
<g id="a_Node000018"><a xlink:href="classAP__HAL_1_1Scheduler.html#ab3175e2e6223ccfe82f957e41cc12b26" target="_top" xlink:title=" ">
<polygon fill="white" stroke="#666666" points="977,-229.77 863,-229.77 863,-199.77 977,-199.77 977,-229.77"/>
<text text-anchor="start" x="871" y="-217.77" font-family="Helvetica,sans-Serif" font-size="10.00">AP_HAL::Scheduler::</text>
<text text-anchor="middle" x="920" y="-206.77" font-family="Helvetica,sans-Serif" font-size="10.00">delay</text>
</a>
</g>
</g>
<!-- Node17&#45;&gt;Node18 -->
<g id="edge21_Node000017_Node000018" class="edge">
<title>Node17&#45;&gt;Node18</title>
<g id="a_edge21_Node000017_Node000018"><a xlink:title=" ">
<path fill="none" stroke="#63b8ff" d="M793.79,-176.37C812.75,-182.18 837.55,-189.79 860.07,-196.69"/>
<polygon fill="#63b8ff" stroke="#63b8ff" points="859.3,-200.12 869.89,-199.71 861.35,-193.43 859.3,-200.12"/>
</a>
</g>
</g>
<!-- Node19 -->
<g id="Node000019" class="node">
<title>Node19</title>
<g id="a_Node000019"><a xlink:href="classAP__HAL_1_1Scheduler.html#a78c4f1b1f192ac1c99544b6cc8f099b0" target="_top" xlink:title=" ">
<polygon fill="white" stroke="#666666" points="978,-181.77 862,-181.77 862,-151.77 978,-151.77 978,-181.77"/>
<text text-anchor="start" x="870" y="-169.77" font-family="Helvetica,sans-Serif" font-size="10.00">AP_HAL::Scheduler::</text>
<text text-anchor="middle" x="920" y="-158.77" font-family="Helvetica,sans-Serif" font-size="10.00">delay_microseconds</text>
</a>
</g>
</g>
<!-- Node17&#45;&gt;Node19 -->
<g id="edge22_Node000017_Node000019" class="edge">
<title>Node17&#45;&gt;Node19</title>
<g id="a_edge22_Node000017_Node000019"><a xlink:title=" ">
<path fill="none" stroke="#63b8ff" d="M804.85,-166.77C819.26,-166.77 835.74,-166.77 851.61,-166.77"/>
<polygon fill="#63b8ff" stroke="#63b8ff" points="851.92,-170.27 861.92,-166.77 851.92,-163.27 851.92,-170.27"/>
</a>
</g>
</g>
<!-- Node20 -->
<g id="Node000020" class="node">
<title>Node20</title>
<g id="a_Node000020"><a xlink:href="stdio_8h.html#aae132cc6af1eb6cf43bf011d8d63e854" target="_top" xlink:title=" ">
<polygon fill="white" stroke="#666666" points="944.5,-133.27 895.5,-133.27 895.5,-114.27 944.5,-114.27 944.5,-133.27"/>
<text text-anchor="middle" x="920" y="-121.27" font-family="Helvetica,sans-Serif" font-size="10.00">vprintf</text>
</a>
</g>
</g>
<!-- Node17&#45;&gt;Node20 -->
<g id="edge23_Node000017_Node000020" class="edge">
<title>Node17&#45;&gt;Node20</title>
<g id="a_edge23_Node000017_Node000020"><a xlink:title=" ">
<path fill="none" stroke="#63b8ff" d="M797.23,-157.23C823.47,-150.02 859.27,-140.18 885.26,-133.04"/>
<polygon fill="#63b8ff" stroke="#63b8ff" points="886.33,-136.37 895.04,-130.35 884.47,-129.63 886.33,-136.37"/>
</a>
</g>
</g>
<!-- Node22 -->
<g id="Node000022" class="node">
<title>Node22</title>
<g id="a_Node000022"><a xlink:href="crc_8cpp.html#a90be70f5300e3530a8cd37b0448cb297" target="_top" xlink:title=" ">
<polygon fill="white" stroke="#666666" points="649.5,-138.27 527.5,-138.27 527.5,-119.27 649.5,-119.27 649.5,-138.27"/>
<text text-anchor="middle" x="588.5" y="-126.27" font-family="Helvetica,sans-Serif" font-size="10.00">crc_sum_of_bytes_16</text>
</a>
</g>
</g>
<!-- Node21&#45;&gt;Node22 -->
<g id="edge25_Node000021_Node000022" class="edge">
<title>Node21&#45;&gt;Node22</title>
<g id="a_edge25_Node000021_Node000022"><a xlink:title=" ">
<path fill="none" stroke="#63b8ff" d="M469.32,-128.77C484.34,-128.77 501.04,-128.77 517.04,-128.77"/>
<polygon fill="#63b8ff" stroke="#63b8ff" points="517.42,-132.27 527.42,-128.77 517.42,-125.27 517.42,-132.27"/>
</a>
</g>
</g>
<!-- Node23&#45;&gt;Node16 -->
<g id="edge27_Node000023_Node000016" class="edge">
<title>Node23&#45;&gt;Node16</title>
<g id="a_edge27_Node000023_Node000016"><a xlink:title=" ">
<path fill="none" stroke="#63b8ff" d="M480.15,-37.77C492.04,-37.77 504.56,-37.77 516.69,-37.77"/>
<polygon fill="#63b8ff" stroke="#63b8ff" points="516.77,-41.27 526.77,-37.77 516.77,-34.27 516.77,-41.27"/>
</a>
</g>
</g>
<!-- Node25&#45;&gt;Node8 -->
<g id="edge32_Node000025_Node000008" class="edge">
<title>Node25&#45;&gt;Node8</title>
<g id="a_edge32_Node000025_Node000008"><a xlink:title=" ">
<path fill="none" stroke="#63b8ff" d="M310.72,-324.29C328.21,-326.69 346.72,-329.24 363.25,-331.51"/>
<polygon fill="#63b8ff" stroke="#63b8ff" points="362.88,-335 373.26,-332.89 363.83,-328.06 362.88,-335"/>
</a>
</g>
</g>
<!-- Node25&#45;&gt;Node17 -->
<g id="edge33_Node000025_Node000017" class="edge">
<title>Node25&#45;&gt;Node17</title>
<g id="a_edge33_Node000025_Node000017"><a xlink:title=" ">
<path fill="none" stroke="#63b8ff" d="M249.97,-305.05C267.31,-285.87 309.07,-243.28 354,-223.77 385.91,-209.91 605.7,-184.02 708.15,-172.53"/>
<polygon fill="#63b8ff" stroke="#63b8ff" points="708.73,-175.98 718.28,-171.39 707.95,-169.03 708.73,-175.98"/>
</a>
</g>
</g>
<!-- Node26 -->
<g id="Node000026" class="node">
<title>Node26</title>
<g id="a_Node000026"><a xlink:href="classSITL_1_1EFI__Hirth.html#ae769ea5093c0ac1671b3c4663fe7c409" target="_top" xlink:title=" ">
<polygon fill="white" stroke="#666666" points="475,-396.77 359,-396.77 359,-366.77 475,-366.77 475,-396.77"/>
<text text-anchor="start" x="367" y="-384.77" font-family="Helvetica,sans-Serif" font-size="10.00">SITL::EFI_Hirth::send</text>
<text text-anchor="middle" x="417" y="-373.77" font-family="Helvetica,sans-Serif" font-size="10.00">_record1</text>
</a>
</g>
</g>
<!-- Node25&#45;&gt;Node26 -->
<g id="edge34_Node000025_Node000026" class="edge">
<title>Node25&#45;&gt;Node26</title>
<g id="a_edge34_Node000025_Node000026"><a xlink:title=" ">
<path fill="none" stroke="#63b8ff" d="M266.5,-324.37C292.75,-334.45 334.68,-350.54 367.46,-363.13"/>
<polygon fill="#63b8ff" stroke="#63b8ff" points="366.29,-366.43 376.88,-366.75 368.8,-359.89 366.29,-366.43"/>
</a>
</g>
</g>
<!-- Node27 -->
<g id="Node000027" class="node">
<title>Node27</title>
<g id="a_Node000027"><a xlink:href="classSITL_1_1EFI__Hirth.html#a169081353f0bbb0bc7f8905b3321e629" target="_top" xlink:title=" ">
<polygon fill="white" stroke="#666666" points="475,-310.77 359,-310.77 359,-280.77 475,-280.77 475,-310.77"/>
<text text-anchor="start" x="367" y="-298.77" font-family="Helvetica,sans-Serif" font-size="10.00">SITL::EFI_Hirth::send</text>
<text text-anchor="middle" x="417" y="-287.77" font-family="Helvetica,sans-Serif" font-size="10.00">_record2</text>
</a>
</g>
</g>
<!-- Node25&#45;&gt;Node27 -->
<g id="edge37_Node000025_Node000027" class="edge">
<title>Node25&#45;&gt;Node27</title>
<g id="a_edge37_Node000025_Node000027"><a xlink:title=" ">
<path fill="none" stroke="#63b8ff" d="M318.04,-306.43C328.34,-305.31 338.84,-304.17 348.97,-303.07"/>
<polygon fill="#63b8ff" stroke="#63b8ff" points="349.37,-306.54 358.94,-301.98 348.62,-299.58 349.37,-306.54"/>
</a>
</g>
</g>
<!-- Node28 -->
<g id="Node000028" class="node">
<title>Node28</title>
<g id="a_Node000028"><a xlink:href="classSITL_1_1EFI__Hirth.html#ac0e7ed82583dfb5aac26a806973451f6" target="_top" xlink:title=" ">
<polygon fill="white" stroke="#666666" points="475,-262.77 359,-262.77 359,-232.77 475,-232.77 475,-262.77"/>
<text text-anchor="start" x="367" y="-250.77" font-family="Helvetica,sans-Serif" font-size="10.00">SITL::EFI_Hirth::send</text>
<text text-anchor="middle" x="417" y="-239.77" font-family="Helvetica,sans-Serif" font-size="10.00">_record3</text>
</a>
</g>
</g>
<!-- Node25&#45;&gt;Node28 -->
<g id="edge38_Node000025_Node000028" class="edge">
<title>Node25&#45;&gt;Node28</title>
<g id="a_edge38_Node000025_Node000028"><a xlink:title=" ">
<path fill="none" stroke="#63b8ff" d="M266.5,-305.17C292.75,-295.09 334.68,-278.99 367.46,-266.41"/>
<polygon fill="#63b8ff" stroke="#63b8ff" points="368.8,-269.64 376.88,-262.79 366.29,-263.11 368.8,-269.64"/>
</a>
</g>
</g>
<!-- Node26&#45;&gt;Node3 -->
<g id="edge35_Node000026_Node000003" class="edge">
<title>Node26&#45;&gt;Node3</title>
<g id="a_edge35_Node000026_Node000003"><a xlink:title=" ">
<path fill="none" stroke="#63b8ff" d="M437.2,-396.81C456.22,-411.04 486.68,-432.06 516,-444.77 526.7,-449.41 538.84,-453.02 550.04,-455.76"/>
<polygon fill="#63b8ff" stroke="#63b8ff" points="549.47,-459.22 559.99,-458.03 551.02,-452.39 549.47,-459.22"/>
</a>
</g>
</g>
<!-- Node26&#45;&gt;Node5 -->
<g id="edge36_Node000026_Node000005" class="edge">
<title>Node26&#45;&gt;Node5</title>
<g id="a_edge36_Node000026_Node000005"><a xlink:title=" ">
<path fill="none" stroke="#63b8ff" d="M475.38,-390.57C488.24,-392.54 502.04,-394.66 515.41,-396.71"/>
<polygon fill="#63b8ff" stroke="#63b8ff" points="515.11,-400.21 525.53,-398.26 516.17,-393.29 515.11,-400.21"/>
</a>
</g>
</g>
</g>
</svg>

<g id="navigator" transform="translate(0 0)" fill="#404254">
  <rect fill="#f2f5e9" fill-opacity="0.5" stroke="#606060" stroke-width=".5" x="0" y="0" width="60" height="60"/>
  <use id="zoomplus" xlink:href="#zoomPlus" x="17" y="9" onmousedown="handleZoom(evt,'in')"/>
  <use id="zoomminus" xlink:href="#zoomMin" x="42" y="9" onmousedown="handleZoom(evt,'out')"/>
  <use id="reset" xlink:href="#resetDef" x="30" y="36" onmousedown="handleReset()"/>
   <use id="arrowup" xlink:href="#arrowUp" x="0" y="0" onmousedown="handlePan(0,-1)"/>
  <use id="arrowright" xlink:href="#arrowRight" x="0" y="0" onmousedown="handlePan(1,0)"/>
  <use id="arrowdown" xlink:href="#arrowDown" x="0" y="0" onmousedown="handlePan(0,1)"/>
  <use id="arrowleft" xlink:href="#arrowLeft" x="0" y="0" onmousedown="handlePan(-1,0)"/>
</g>
<svg viewBox="0 0 15 15" width="100%" height="30px" preserveAspectRatio="xMaxYMin meet">
 <g id="arrow_out" transform="scale(0.3 0.3)">
  <a xlink:href="classSITL_1_1EFI__Hirth_ad6d5cfb575ecafb4509fdc0866230e49_cgraph_org.svg" target="_base">
   <rect id="button" ry="5" rx="5" y="6" x="6" height="38" width="38"
        fill="#f2f5e9" fill-opacity="0.5" stroke="#606060" stroke-width="1.0"/>
   <path id="arrow"
     d="M 11.500037,31.436501 C 11.940474,20.09759 22.043105,11.32322 32.158766,21.979434 L 37.068811,17.246167 C 37.068811,17.246167 37.088388,32 37.088388,32 L 22.160133,31.978069 C 22.160133,31.978069 26.997745,27.140456 26.997745,27.140456 C 18.528582,18.264221 13.291696,25.230495 11.500037,31.436501 z"
     style="fill:#404040;"/>
  </a>
 </g>
</svg>

<style type='text/css'>
<![CDATA[
[data-mouse-over-selected='false'] { opacity: 0.7; }
[data-mouse-over-selected='true']  { opacity: 1.0; }
]]>
</style>
<script type="application/ecmascript"><![CDATA[
document.addEventListener('DOMContentLoaded', (event) => {
  highlightEdges();
  highlightAdjacentNodes();
});
]]></script>
</svg>
