<?xml version="1.0" encoding="UTF-8" standalone="no"?>
<!DOCTYPE svg PUBLIC "-//W3C//DTD SVG 1.1//EN"
 "http://www.w3.org/Graphics/SVG/1.1/DTD/svg11.dtd">
<!-- Generated by graphviz version 2.43.0 (0)
 -->
<!-- Title: AP_RangeFinder_VL53L1X::write_register Pages: 1 -->
<svg width="1441pt" height="273pt"
 viewBox="0.00 0.00 1441.00 273.30" xmlns="http://www.w3.org/2000/svg" xmlns:xlink="http://www.w3.org/1999/xlink">
<g id="graph0" class="graph" transform="scale(1 1) rotate(0) translate(4 269.3)">
<title>AP_RangeFinder_VL53L1X::write_register</title>
<!-- Node1 -->
<g id="Node000001" class="node">
<title>Node1</title>
<g id="a_Node000001"><a xlink:title=" ">
<polygon fill="#999999" stroke="#666666" points="1433,-159 1290,-159 1290,-129 1433,-129 1433,-159"/>
<text text-anchor="start" x="1298" y="-147" font-family="Helvetica,sans-Serif" font-size="10.00">AP_RangeFinder_VL53L1X</text>
<text text-anchor="middle" x="1361.5" y="-136" font-family="Helvetica,sans-Serif" font-size="10.00">::write_register</text>
</a>
</g>
</g>
<!-- Node2 -->
<g id="Node000002" class="node">
<title>Node2</title>
<g id="a_Node000002"><a xlink:href="classAP__RangeFinder__VL53L1X.html#a51e41323966d652ad9969755fbb8b2ce" target="_top" xlink:title=" ">
<polygon fill="white" stroke="#666666" points="1045,-240 902,-240 902,-210 1045,-210 1045,-240"/>
<text text-anchor="start" x="910" y="-228" font-family="Helvetica,sans-Serif" font-size="10.00">AP_RangeFinder_VL53L1X</text>
<text text-anchor="middle" x="973.5" y="-217" font-family="Helvetica,sans-Serif" font-size="10.00">::get_reading</text>
</a>
</g>
</g>
<!-- Node1&#45;&gt;Node2 -->
<g id="edge1_Node000001_Node000002" class="edge">
<title>Node1&#45;&gt;Node2</title>
<g id="a_edge1_Node000001_Node000002"><a xlink:title=" ">
<path fill="none" stroke="#63b8ff" d="M1345.18,-167.57C1326.97,-193.17 1293.97,-232.61 1254,-249 1174.69,-281.52 1072.33,-257.98 1016.09,-240.09"/>
<polygon fill="#63b8ff" stroke="#63b8ff" points="1348.19,-169.37 1350.99,-159.15 1342.43,-165.39 1348.19,-169.37"/>
</a>
</g>
</g>
<!-- Node4 -->
<g id="Node000004" class="node">
<title>Node4</title>
<g id="a_Node000004"><a xlink:href="classAP__RangeFinder__VL53L1X.html#a8b89d49fbbfb072d09f8991ee25c9c9f" target="_top" xlink:title=" ">
<polygon fill="white" stroke="#666666" points="687,-132 544,-132 544,-102 687,-102 687,-132"/>
<text text-anchor="start" x="552" y="-120" font-family="Helvetica,sans-Serif" font-size="10.00">AP_RangeFinder_VL53L1X</text>
<text text-anchor="middle" x="615.5" y="-109" font-family="Helvetica,sans-Serif" font-size="10.00">::init</text>
</a>
</g>
</g>
<!-- Node1&#45;&gt;Node4 -->
<g id="edge8_Node000001_Node000004" class="edge">
<title>Node1&#45;&gt;Node4</title>
<g id="a_edge8_Node000001_Node000004"><a xlink:title=" ">
<path fill="none" stroke="#63b8ff" d="M1279.76,-158.26C1157.73,-177.16 919.7,-203.66 723,-163 694.4,-157.09 664.03,-143.12 643.07,-132.11"/>
<polygon fill="#63b8ff" stroke="#63b8ff" points="1280.43,-161.7 1289.77,-156.68 1279.35,-154.78 1280.43,-161.7"/>
</a>
</g>
</g>
<!-- Node9 -->
<g id="Node000009" class="node">
<title>Node9</title>
<g id="a_Node000009"><a xlink:href="classAP__RangeFinder__VL53L1X.html#a697bdc0c8441fee9bea2028ef973ca80" target="_top" xlink:title=" ">
<polygon fill="white" stroke="#666666" points="866,-154 723,-154 723,-124 866,-124 866,-154"/>
<text text-anchor="start" x="731" y="-142" font-family="Helvetica,sans-Serif" font-size="10.00">AP_RangeFinder_VL53L1X</text>
<text text-anchor="middle" x="794.5" y="-131" font-family="Helvetica,sans-Serif" font-size="10.00">::reset</text>
</a>
</g>
</g>
<!-- Node1&#45;&gt;Node9 -->
<g id="edge9_Node000001_Node000009" class="edge">
<title>Node1&#45;&gt;Node9</title>
<g id="a_edge9_Node000001_Node000009"><a xlink:title=" ">
<path fill="none" stroke="#63b8ff" d="M1279.68,-143.28C1168.87,-142.3 971.56,-140.56 866.28,-139.63"/>
<polygon fill="#63b8ff" stroke="#63b8ff" points="1279.77,-146.79 1289.8,-143.37 1279.83,-139.79 1279.77,-146.79"/>
</a>
</g>
</g>
<!-- Node10 -->
<g id="Node000010" class="node">
<title>Node10</title>
<g id="a_Node000010"><a xlink:href="classAP__RangeFinder__VL53L1X.html#a54f66b0f5ec3f1e112ab970ad933a322" target="_top" xlink:title=" ">
<polygon fill="white" stroke="#666666" points="1045,-116 902,-116 902,-86 1045,-86 1045,-116"/>
<text text-anchor="start" x="910" y="-104" font-family="Helvetica,sans-Serif" font-size="10.00">AP_RangeFinder_VL53L1X</text>
<text text-anchor="middle" x="973.5" y="-93" font-family="Helvetica,sans-Serif" font-size="10.00">::setDistanceMode</text>
</a>
</g>
</g>
<!-- Node1&#45;&gt;Node10 -->
<g id="edge11_Node000001_Node000010" class="edge">
<title>Node1&#45;&gt;Node10</title>
<g id="a_edge11_Node000001_Node000010"><a xlink:title=" ">
<path fill="none" stroke="#63b8ff" d="M1279.66,-133.14C1271,-132.04 1262.32,-130.98 1254,-130 1183.02,-121.65 1101.75,-113.36 1045.2,-107.8"/>
<polygon fill="#63b8ff" stroke="#63b8ff" points="1279.42,-136.64 1289.78,-134.43 1280.31,-129.69 1279.42,-136.64"/>
</a>
</g>
</g>
<!-- Node11 -->
<g id="Node000011" class="node">
<title>Node11</title>
<g id="a_Node000011"><a xlink:href="classAP__RangeFinder__VL53L1X.html#ad2788a0a70417b9225dc30dc76ffbaca" target="_top" xlink:title=" ">
<polygon fill="white" stroke="#666666" points="1254,-78 1081,-78 1081,-48 1254,-48 1254,-78"/>
<text text-anchor="start" x="1089" y="-66" font-family="Helvetica,sans-Serif" font-size="10.00">AP_RangeFinder_VL53L1X</text>
<text text-anchor="middle" x="1167.5" y="-55" font-family="Helvetica,sans-Serif" font-size="10.00">::setMeasurementTimingBudget</text>
</a>
</g>
</g>
<!-- Node1&#45;&gt;Node11 -->
<g id="edge13_Node000001_Node000011" class="edge">
<title>Node1&#45;&gt;Node11</title>
<g id="a_edge13_Node000001_Node000011"><a xlink:title=" ">
<path fill="none" stroke="#63b8ff" d="M1322.88,-124.18C1302.73,-113.93 1277.32,-101.6 1254,-92 1241.97,-87.05 1228.75,-82.26 1216.38,-78.05"/>
<polygon fill="#63b8ff" stroke="#63b8ff" points="1321.53,-127.42 1332.02,-128.87 1324.72,-121.19 1321.53,-127.42"/>
</a>
</g>
</g>
<!-- Node12 -->
<g id="Node000012" class="node">
<title>Node12</title>
<g id="a_Node000012"><a xlink:href="classAP__RangeFinder__VL53L1X.html#afac1585f522f661b13b8ed075696fc70" target="_top" xlink:title=" ">
<polygon fill="white" stroke="#666666" points="1239,-240 1096,-240 1096,-210 1239,-210 1239,-240"/>
<text text-anchor="start" x="1104" y="-228" font-family="Helvetica,sans-Serif" font-size="10.00">AP_RangeFinder_VL53L1X</text>
<text text-anchor="middle" x="1167.5" y="-217" font-family="Helvetica,sans-Serif" font-size="10.00">::setupManualCalibration</text>
</a>
</g>
</g>
<!-- Node1&#45;&gt;Node12 -->
<g id="edge16_Node000001_Node000012" class="edge">
<title>Node1&#45;&gt;Node12</title>
<g id="a_edge16_Node000001_Node000012"><a xlink:title=" ">
<path fill="none" stroke="#63b8ff" d="M1322.88,-163.82C1302.73,-174.07 1277.32,-186.4 1254,-196 1241.97,-200.95 1228.75,-205.74 1216.38,-209.95"/>
<polygon fill="#63b8ff" stroke="#63b8ff" points="1324.72,-166.81 1332.02,-159.13 1321.53,-160.58 1324.72,-166.81"/>
</a>
</g>
</g>
<!-- Node13 -->
<g id="Node000013" class="node">
<title>Node13</title>
<g id="a_Node000013"><a xlink:href="classAP__RangeFinder__VL53L1X.html#aaba5bcb17a1894d8c6a2a8b9eb479cd3" target="_top" xlink:title=" ">
<polygon fill="white" stroke="#666666" points="1045,-30 902,-30 902,0 1045,0 1045,-30"/>
<text text-anchor="start" x="910" y="-18" font-family="Helvetica,sans-Serif" font-size="10.00">AP_RangeFinder_VL53L1X</text>
<text text-anchor="middle" x="973.5" y="-7" font-family="Helvetica,sans-Serif" font-size="10.00">::startContinuous</text>
</a>
</g>
</g>
<!-- Node1&#45;&gt;Node13 -->
<g id="edge18_Node000001_Node000013" class="edge">
<title>Node1&#45;&gt;Node13</title>
<g id="a_edge18_Node000001_Node000013"><a xlink:title=" ">
<path fill="none" stroke="#63b8ff" d="M1344.61,-120.65C1326.1,-95.6 1293.02,-56.99 1254,-39 1187.88,-8.52 1103.66,-5.45 1045.04,-8.18"/>
<polygon fill="#63b8ff" stroke="#63b8ff" points="1341.85,-122.82 1350.53,-128.89 1347.54,-118.73 1341.85,-122.82"/>
</a>
</g>
</g>
<!-- Node3 -->
<g id="Node000003" class="node">
<title>Node3</title>
<g id="a_Node000003"><a xlink:href="classAP__RangeFinder__VL53L1X.html#afb93972292f9f948c590312038a46eed" target="_top" xlink:title=" ">
<polygon fill="white" stroke="#666666" points="866,-240 723,-240 723,-210 866,-210 866,-240"/>
<text text-anchor="start" x="731" y="-228" font-family="Helvetica,sans-Serif" font-size="10.00">AP_RangeFinder_VL53L1X</text>
<text text-anchor="middle" x="794.5" y="-217" font-family="Helvetica,sans-Serif" font-size="10.00">::timer</text>
</a>
</g>
</g>
<!-- Node2&#45;&gt;Node3 -->
<g id="edge2_Node000002_Node000003" class="edge">
<title>Node2&#45;&gt;Node3</title>
<g id="a_edge2_Node000002_Node000003"><a xlink:title=" ">
<path fill="none" stroke="#63b8ff" d="M891.51,-225C883.03,-225 874.46,-225 866.11,-225"/>
<polygon fill="#63b8ff" stroke="#63b8ff" points="891.78,-228.5 901.78,-225 891.78,-221.5 891.78,-228.5"/>
</a>
</g>
</g>
<!-- Node3&#45;&gt;Node4 -->
<g id="edge3_Node000003_Node000004" class="edge">
<title>Node3&#45;&gt;Node4</title>
<g id="a_edge3_Node000003_Node000004"><a xlink:title=" ">
<path fill="none" stroke="#63b8ff" d="M742.83,-205.95C736.03,-202.88 729.26,-199.54 723,-196 689.53,-177.09 654.4,-149.23 634.03,-132.15"/>
<polygon fill="#63b8ff" stroke="#63b8ff" points="741.49,-209.18 752.05,-209.96 744.28,-202.76 741.49,-209.18"/>
</a>
</g>
</g>
<!-- Node5 -->
<g id="Node000005" class="node">
<title>Node5</title>
<g id="a_Node000005"><a xlink:href="classAP__RangeFinder__VL53L1X.html#a8e1989100bf6514a5579ffd41928192d" target="_top" xlink:title=" ">
<polygon fill="white" stroke="#666666" points="508,-132 365,-132 365,-102 508,-102 508,-132"/>
<text text-anchor="start" x="373" y="-120" font-family="Helvetica,sans-Serif" font-size="10.00">AP_RangeFinder_VL53L1X</text>
<text text-anchor="middle" x="436.5" y="-109" font-family="Helvetica,sans-Serif" font-size="10.00">::detect</text>
</a>
</g>
</g>
<!-- Node4&#45;&gt;Node5 -->
<g id="edge4_Node000004_Node000005" class="edge">
<title>Node4&#45;&gt;Node5</title>
<g id="a_edge4_Node000004_Node000005"><a xlink:title=" ">
<path fill="none" stroke="#63b8ff" d="M533.51,-117C525.03,-117 516.46,-117 508.11,-117"/>
<polygon fill="#63b8ff" stroke="#63b8ff" points="533.78,-120.5 543.78,-117 533.78,-113.5 533.78,-120.5"/>
</a>
</g>
</g>
<!-- Node6 -->
<g id="Node000006" class="node">
<title>Node6</title>
<g id="a_Node000006"><a xlink:href="classRangeFinder.html#a2d16a636e444ce916e524d1e2623d1d3" target="_top" xlink:title=" ">
<polygon fill="white" stroke="#666666" points="329,-132 215,-132 215,-102 329,-102 329,-132"/>
<text text-anchor="start" x="223" y="-120" font-family="Helvetica,sans-Serif" font-size="10.00">RangeFinder::detect</text>
<text text-anchor="middle" x="272" y="-109" font-family="Helvetica,sans-Serif" font-size="10.00">_instance</text>
</a>
</g>
</g>
<!-- Node5&#45;&gt;Node6 -->
<g id="edge5_Node000005_Node000006" class="edge">
<title>Node5&#45;&gt;Node6</title>
<g id="a_edge5_Node000005_Node000006"><a xlink:title=" ">
<path fill="none" stroke="#63b8ff" d="M354.69,-117C346.14,-117 337.59,-117 329.41,-117"/>
<polygon fill="#63b8ff" stroke="#63b8ff" points="354.7,-120.5 364.7,-117 354.7,-113.5 354.7,-120.5"/>
</a>
</g>
</g>
<!-- Node7 -->
<g id="Node000007" class="node">
<title>Node7</title>
<g id="a_Node000007"><a xlink:href="classRangeFinder.html#ad3e3b3a548b8da70aedd97c4be3a5b6d" target="_top" xlink:title=" ">
<polygon fill="white" stroke="#666666" points="179,-126.5 80,-126.5 80,-107.5 179,-107.5 179,-126.5"/>
<text text-anchor="middle" x="129.5" y="-114.5" font-family="Helvetica,sans-Serif" font-size="10.00">RangeFinder::init</text>
</a>
</g>
</g>
<!-- Node6&#45;&gt;Node7 -->
<g id="edge6_Node000006_Node000007" class="edge">
<title>Node6&#45;&gt;Node7</title>
<g id="a_edge6_Node000006_Node000007"><a xlink:title=" ">
<path fill="none" stroke="#63b8ff" d="M204.65,-117C196.05,-117 187.39,-117 179.16,-117"/>
<polygon fill="#63b8ff" stroke="#63b8ff" points="204.66,-120.5 214.66,-117 204.66,-113.5 204.66,-120.5"/>
</a>
</g>
</g>
<!-- Node8 -->
<g id="Node000008" class="node">
<title>Node8</title>
<g id="a_Node000008"><a xlink:href="RFIND__test_8cpp.html#a4fc01d736fe50cf5b977f755b675f11d" target="_top" xlink:title=" ">
<polygon fill="white" stroke="#666666" points="44,-126.5 0,-126.5 0,-107.5 44,-107.5 44,-126.5"/>
<text text-anchor="middle" x="22" y="-114.5" font-family="Helvetica,sans-Serif" font-size="10.00">setup</text>
</a>
</g>
</g>
<!-- Node7&#45;&gt;Node8 -->
<g id="edge7_Node000007_Node000008" class="edge">
<title>Node7&#45;&gt;Node8</title>
<g id="a_edge7_Node000007_Node000008"><a xlink:title=" ">
<path fill="none" stroke="#63b8ff" d="M69.48,-117C60.41,-117 51.6,-117 44.12,-117"/>
<polygon fill="#63b8ff" stroke="#63b8ff" points="69.76,-120.5 79.76,-117 69.76,-113.5 69.76,-120.5"/>
</a>
</g>
</g>
<!-- Node9&#45;&gt;Node4 -->
<g id="edge10_Node000009_Node000004" class="edge">
<title>Node9&#45;&gt;Node4</title>
<g id="a_edge10_Node000009_Node000004"><a xlink:title=" ">
<path fill="none" stroke="#63b8ff" d="M712.79,-128.97C704.22,-127.9 695.55,-126.83 687.11,-125.78"/>
<polygon fill="#63b8ff" stroke="#63b8ff" points="712.43,-132.45 722.78,-130.21 713.29,-125.5 712.43,-132.45"/>
</a>
</g>
</g>
<!-- Node10&#45;&gt;Node4 -->
<g id="edge12_Node000010_Node000004" class="edge">
<title>Node10&#45;&gt;Node4</title>
<g id="a_edge12_Node000010_Node000004"><a xlink:title=" ">
<path fill="none" stroke="#63b8ff" d="M891.67,-104.63C830.06,-107.4 746.06,-111.18 687.13,-113.83"/>
<polygon fill="#63b8ff" stroke="#63b8ff" points="891.91,-108.13 901.74,-104.18 891.59,-101.13 891.91,-108.13"/>
</a>
</g>
</g>
<!-- Node11&#45;&gt;Node4 -->
<g id="edge14_Node000011_Node000004" class="edge">
<title>Node11&#45;&gt;Node4</title>
<g id="a_edge14_Node000011_Node000004"><a xlink:title=" ">
<path fill="none" stroke="#63b8ff" d="M1070.68,-66.09C1020.38,-68.21 957.78,-71.64 902,-77 822.04,-84.69 802.55,-90.84 723,-102 711.44,-103.62 699.18,-105.34 687.25,-107.02"/>
<polygon fill="#63b8ff" stroke="#63b8ff" points="1071.05,-69.58 1080.89,-65.67 1070.76,-62.58 1071.05,-69.58"/>
</a>
</g>
</g>
<!-- Node11&#45;&gt;Node10 -->
<g id="edge15_Node000011_Node000010" class="edge">
<title>Node11&#45;&gt;Node10</title>
<g id="a_edge15_Node000011_Node000010"><a xlink:title=" ">
<path fill="none" stroke="#63b8ff" d="M1080.7,-79.98C1068.81,-82.33 1056.71,-84.73 1045.15,-87.02"/>
<polygon fill="#63b8ff" stroke="#63b8ff" points="1081.49,-83.39 1090.62,-78.02 1080.13,-76.53 1081.49,-83.39"/>
</a>
</g>
</g>
<!-- Node12&#45;&gt;Node2 -->
<g id="edge17_Node000012_Node000002" class="edge">
<title>Node12&#45;&gt;Node2</title>
<g id="a_edge17_Node000012_Node000002"><a xlink:title=" ">
<path fill="none" stroke="#63b8ff" d="M1085.61,-225C1072.12,-225 1058.23,-225 1045.03,-225"/>
<polygon fill="#63b8ff" stroke="#63b8ff" points="1085.82,-228.5 1095.82,-225 1085.82,-221.5 1085.82,-228.5"/>
</a>
</g>
</g>
<!-- Node13&#45;&gt;Node4 -->
<g id="edge19_Node000013_Node000004" class="edge">
<title>Node13&#45;&gt;Node4</title>
<g id="a_edge19_Node000013_Node000004"><a xlink:title=" ">
<path fill="none" stroke="#63b8ff" d="M891.7,-14.61C841.7,-16.72 776.97,-23.79 723,-44 687.73,-57.21 652.89,-84.52 633.1,-101.73"/>
<polygon fill="#63b8ff" stroke="#63b8ff" points="891.96,-18.1 901.82,-14.24 891.7,-11.1 891.96,-18.1"/>
</a>
</g>
</g>
</g>
</svg>
