<?xml version="1.0" encoding="UTF-8" standalone="no"?>
<!DOCTYPE svg PUBLIC "-//W3C//DTD SVG 1.1//EN"
 "http://www.w3.org/Graphics/SVG/1.1/DTD/svg11.dtd">
<!-- Generated by graphviz version 2.43.0 (0)
 -->
<!-- Title: AP_AHRS_View::get_gyro Pages: 1 -->
<!--zoomable 873 -->

<svg id="main" version="1.1" xmlns="http://www.w3.org/2000/svg" xmlns:xlink="http://www.w3.org/1999/xlink" xml:space="preserve" onload="init(evt)">
<style type="text/css"><![CDATA[
.node, .edge {opacity: 0.7;}
.node.selected, .edge.selected {opacity: 1;}
.edge:hover path { stroke: red; }
.edge:hover polygon { stroke: red; fill: red; }
]]></style>

<defs>
  <circle id="rim" cx="0" cy="0" r="7"/>
  <circle id="rim2" cx="0" cy="0" r="3.5"/>
  <g id="zoomPlus">
    <use xlink:href="#rim" fill="#404040"><set attributeName="fill" to="#808080" begin="zoomplus.mouseover" end="zoomplus.mouseout"/></use>
    <path d="M-4,0h8M0,-4v8" fill="none" stroke="white" stroke-width="1.5" pointer-events="none"/>
  </g>
  <g id="zoomMin">
    <use xlink:href="#rim" fill="#404040"><set attributeName="fill" to="#808080" begin="zoomminus.mouseover" end="zoomminus.mouseout"/></use>
    <path d="M-4,0h8" fill="none" stroke="white" stroke-width="1.5" pointer-events="none"/>
  </g>
  <g id="arrowUp" transform="translate(30 24)">
    <use xlink:href="#rim"/>
    <path pointer-events="none" fill="none" stroke="white" stroke-width="1.5" d="M0,-3.0v7 M-2.5,-0.5L0,-3.0L2.5,-0.5"/>
  </g>
  <g id="arrowRight" transform="rotate(90) translate(36 -43)">
    <use xlink:href="#rim"/>
    <path pointer-events="none" fill="none" stroke="white" stroke-width="1.5" d="M0,-3.0v7 M-2.5,-0.5L0,-3.0L2.5,-0.5"/>
  </g>
  <g id="arrowDown" transform="rotate(180) translate(-30 -48)">
    <use xlink:href="#rim"/>
    <path pointer-events="none" fill="none" stroke="white" stroke-width="1.5" d="M0,-3.0v7 M-2.5,-0.5L0,-3.0L2.5,-0.5"/>
  </g>
  <g id="arrowLeft" transform="rotate(270) translate(-36 17)">
    <use xlink:href="#rim"/>
    <path pointer-events="none" fill="none" stroke="white" stroke-width="1.5" d="M0,-3.0v7 M-2.5,-0.5L0,-3.0L2.5,-0.5"/>
  </g>
  <g id="resetDef">
    <use xlink:href="#rim2" fill="#404040"><set attributeName="fill" to="#808080" begin="reset.mouseover" end="reset.mouseout"/></use>
  </g>
</defs>
<script type="application/ecmascript">
var viewWidth = 888;
var viewHeight = 873;
var sectionId = 'dynsection-9';
</script>
<script type="application/ecmascript" xlink:href="svg.min.js"/>
<svg id="graph" class="graph">
<g id="viewport">
<title>AP_AHRS_View::get_gyro</title>
<!-- Node1 -->
<g id="Node000001" class="node">
<title>Node1</title>
<g id="a_Node000001"><a xlink:title=" ">
<polygon fill="#999999" stroke="#666666" points="880,-263.04 741,-263.04 741,-244.04 880,-244.04 880,-263.04"/>
<text text-anchor="middle" x="810.5" y="-251.04" font-family="Helvetica,sans-Serif" font-size="10.00">AP_AHRS_View::get_gyro</text>
</a>
</g>
</g>
<!-- Node2 -->
<g id="Node000002" class="node">
<title>Node2</title>
<g id="a_Node000002"><a xlink:href="classAC__AttitudeControl.html#a7b9cf8568575052931b43054717b4f87" target="_top" xlink:title=" ">
<polygon fill="white" stroke="#666666" points="687.5,-533.04 574.5,-533.04 574.5,-492.04 687.5,-492.04 687.5,-533.04"/>
<text text-anchor="start" x="582.5" y="-521.04" font-family="Helvetica,sans-Serif" font-size="10.00">AC_AttitudeControl</text>
<text text-anchor="start" x="582.5" y="-510.04" font-family="Helvetica,sans-Serif" font-size="10.00">::attitude_controller</text>
<text text-anchor="middle" x="631" y="-499.04" font-family="Helvetica,sans-Serif" font-size="10.00">_run_quat</text>
</a>
</g>
</g>
<!-- Node1&#45;&gt;Node2 -->
<g id="edge1_Node000001_Node000002" class="edge">
<title>Node1&#45;&gt;Node2</title>
<g id="a_edge1_Node000001_Node000002"><a xlink:title=" ">
<path fill="none" stroke="#63b8ff" d="M797.16,-271.55C765.2,-318.18 679.87,-442.69 646.07,-492.01"/>
<polygon fill="#63b8ff" stroke="#63b8ff" points="800.21,-273.3 802.97,-263.07 794.43,-269.34 800.21,-273.3"/>
</a>
</g>
</g>
<!-- Node4 -->
<g id="Node000004" class="node">
<title>Node4</title>
<g id="a_Node000004"><a xlink:href="classAC__AutoTune__Multi.html#a0aca39a54a6b88a8decb0b6a5648b595" target="_top" xlink:title=" ">
<polygon fill="white" stroke="#666666" points="318.5,-835.54 202.5,-835.54 202.5,-805.54 318.5,-805.54 318.5,-835.54"/>
<text text-anchor="start" x="210.5" y="-823.54" font-family="Helvetica,sans-Serif" font-size="10.00">AC_AutoTune_Multi::</text>
<text text-anchor="middle" x="260.5" y="-812.54" font-family="Helvetica,sans-Serif" font-size="10.00">twitch_test_run</text>
</a>
</g>
</g>
<!-- Node1&#45;&gt;Node4 -->
<g id="edge45_Node000001_Node000004" class="edge">
<title>Node1&#45;&gt;Node4</title>
<g id="a_edge45_Node000001_Node000004"><a xlink:title=" ">
<path fill="none" stroke="#63b8ff" d="M808.07,-273.36C802.91,-334.93 781.29,-526.93 705,-662.54 647.68,-764.44 628.77,-805.22 521,-850.54 446.17,-882.01 349.11,-854.81 297.5,-835.59"/>
<polygon fill="#63b8ff" stroke="#63b8ff" points="811.58,-273.37 808.88,-263.13 804.61,-272.83 811.58,-273.37"/>
</a>
</g>
</g>
<!-- Node7 -->
<g id="Node000007" class="node">
<title>Node7</title>
<g id="a_Node000007"><a xlink:href="classAC__AutoTune__Heli.html#a0b4a5ef0f8e568e311198ec52770d1a9" target="_top" xlink:title=" ">
<polygon fill="white" stroke="#666666" points="329,-676.54 192,-676.54 192,-646.54 329,-646.54 329,-676.54"/>
<text text-anchor="start" x="200" y="-664.54" font-family="Helvetica,sans-Serif" font-size="10.00">AC_AutoTune_Heli::dwell</text>
<text text-anchor="middle" x="260.5" y="-653.54" font-family="Helvetica,sans-Serif" font-size="10.00">_test_run</text>
</a>
</g>
</g>
<!-- Node1&#45;&gt;Node7 -->
<g id="edge37_Node000001_Node000007" class="edge">
<title>Node1&#45;&gt;Node7</title>
<g id="a_edge37_Node000001_Node000007"><a xlink:title=" ">
<path fill="none" stroke="#63b8ff" d="M806.94,-273.26C799.54,-323.39 774.08,-457.73 705,-542.54 644.39,-616.95 613.04,-628.38 521,-655.54 457.9,-674.16 382.37,-673.5 329.11,-669.49"/>
<polygon fill="#63b8ff" stroke="#63b8ff" points="810.43,-273.53 808.35,-263.15 803.5,-272.57 810.43,-273.53"/>
</a>
</g>
</g>
<!-- Node11 -->
<g id="Node000011" class="node">
<title>Node11</title>
<g id="a_Node000011"><a xlink:href="classAC__AutoTune__Heli.html#ae4f0684ddb2081516f8bd34aea2f742f" target="_top" xlink:title=" ">
<polygon fill="white" stroke="#666666" points="326,-724.54 195,-724.54 195,-694.54 326,-694.54 326,-724.54"/>
<text text-anchor="start" x="203" y="-712.54" font-family="Helvetica,sans-Serif" font-size="10.00">AC_AutoTune_Heli::rate</text>
<text text-anchor="middle" x="260.5" y="-701.54" font-family="Helvetica,sans-Serif" font-size="10.00">_ff_test_run</text>
</a>
</g>
</g>
<!-- Node1&#45;&gt;Node11 -->
<g id="edge41_Node000001_Node000011" class="edge">
<title>Node1&#45;&gt;Node11</title>
<g id="a_edge41_Node000001_Node000011"><a xlink:title=" ">
<path fill="none" stroke="#63b8ff" d="M809.42,-273.3C808.13,-332 796.42,-507.46 705,-606.54 607.31,-712.42 423.94,-719.75 326.39,-715.19"/>
<polygon fill="#63b8ff" stroke="#63b8ff" points="812.93,-273.22 809.56,-263.17 805.93,-273.12 812.93,-273.22"/>
</a>
</g>
</g>
<!-- Node14 -->
<g id="Node000014" class="node">
<title>Node14</title>
<g id="a_Node000014"><a xlink:href="classAC__AutoTune.html#a7553749cc2b73850fcf4b14a61e384bb" target="_top" xlink:title=" ">
<polygon fill="white" stroke="#666666" points="320.5,-310.54 200.5,-310.54 200.5,-280.54 320.5,-280.54 320.5,-310.54"/>
<text text-anchor="start" x="208.5" y="-298.54" font-family="Helvetica,sans-Serif" font-size="10.00">AC_AutoTune::control</text>
<text text-anchor="middle" x="260.5" y="-287.54" font-family="Helvetica,sans-Serif" font-size="10.00">_attitude</text>
</a>
</g>
</g>
<!-- Node1&#45;&gt;Node14 -->
<g id="edge32_Node000001_Node000014" class="edge">
<title>Node1&#45;&gt;Node14</title>
<g id="a_edge32_Node000001_Node000014"><a xlink:title=" ">
<path fill="none" stroke="#63b8ff" d="M765.51,-265.55C746.98,-270.11 725.08,-274.85 705,-277.54 568.28,-295.86 405.93,-297.36 320.63,-296.61"/>
<polygon fill="#63b8ff" stroke="#63b8ff" points="766.59,-268.89 775.43,-263.05 764.88,-262.1 766.59,-268.89"/>
</a>
</g>
</g>
<!-- Node23 -->
<g id="Node000023" class="node">
<title>Node23</title>
<g id="a_Node000023"><a xlink:href="classAC__AutoTune.html#a7ccfcee7d7984b48fc4027c804d1a76e" target="_top" xlink:title=" ">
<polygon fill="white" stroke="#666666" points="696,-268.54 566,-268.54 566,-238.54 696,-238.54 696,-268.54"/>
<text text-anchor="start" x="574" y="-256.54" font-family="Helvetica,sans-Serif" font-size="10.00">AC_AutoTune::currently</text>
<text text-anchor="middle" x="631" y="-245.54" font-family="Helvetica,sans-Serif" font-size="10.00">_level</text>
</a>
</g>
</g>
<!-- Node1&#45;&gt;Node23 -->
<g id="edge33_Node000001_Node000023" class="edge">
<title>Node1&#45;&gt;Node23</title>
<g id="a_edge33_Node000001_Node000023"><a xlink:title=" ">
<path fill="none" stroke="#63b8ff" d="M730.76,-253.54C719.16,-253.54 707.33,-253.54 696.08,-253.54"/>
<polygon fill="#63b8ff" stroke="#63b8ff" points="730.87,-257.04 740.87,-253.54 730.87,-250.04 730.87,-257.04"/>
</a>
</g>
</g>
<!-- Node24 -->
<g id="Node000024" class="node">
<title>Node24</title>
<g id="a_Node000024"><a xlink:href="classAC__AutoTune__Heli.html#aa330dc948b12cc0fc815d00e707454ba" target="_top" xlink:title=" ">
<polygon fill="white" stroke="#666666" points="699.5,-220.54 562.5,-220.54 562.5,-190.54 699.5,-190.54 699.5,-220.54"/>
<text text-anchor="start" x="570.5" y="-208.54" font-family="Helvetica,sans-Serif" font-size="10.00">AC_AutoTune_Heli::dwell</text>
<text text-anchor="middle" x="631" y="-197.54" font-family="Helvetica,sans-Serif" font-size="10.00">_test_init</text>
</a>
</g>
</g>
<!-- Node1&#45;&gt;Node24 -->
<g id="edge35_Node000001_Node000024" class="edge">
<title>Node1&#45;&gt;Node24</title>
<g id="a_edge35_Node000001_Node000024"><a xlink:title=" ">
<path fill="none" stroke="#63b8ff" d="M764.06,-241.25C740.79,-234.96 712.28,-227.25 687.7,-220.61"/>
<polygon fill="#63b8ff" stroke="#63b8ff" points="763.44,-244.71 774.01,-243.95 765.27,-237.96 763.44,-244.71"/>
</a>
</g>
</g>
<!-- Node26 -->
<g id="Node000026" class="node">
<title>Node26</title>
<g id="a_Node000026"><a xlink:href="classAC__AttitudeControl__Heli.html#a3265956995cc26998ae6e816e37d974f" target="_top" xlink:title=" ">
<polygon fill="white" stroke="#666666" points="689.5,-172.54 572.5,-172.54 572.5,-120.54 689.5,-120.54 689.5,-172.54"/>
<text text-anchor="start" x="580.5" y="-160.54" font-family="Helvetica,sans-Serif" font-size="10.00">AC_AttitudeControl</text>
<text text-anchor="start" x="580.5" y="-149.54" font-family="Helvetica,sans-Serif" font-size="10.00">_Heli::integrate_bf</text>
<text text-anchor="start" x="580.5" y="-138.54" font-family="Helvetica,sans-Serif" font-size="10.00">_rate_error_to_angle</text>
<text text-anchor="middle" x="631" y="-127.54" font-family="Helvetica,sans-Serif" font-size="10.00">_errors</text>
</a>
</g>
</g>
<!-- Node1&#45;&gt;Node26 -->
<g id="edge38_Node000001_Node000026" class="edge">
<title>Node1&#45;&gt;Node26</title>
<g id="a_edge38_Node000001_Node000026"><a xlink:title=" ">
<path fill="none" stroke="#63b8ff" d="M789.01,-238C768.38,-222.7 735.36,-199.13 705,-181.54 699.77,-178.51 694.24,-175.51 688.65,-172.62"/>
<polygon fill="#63b8ff" stroke="#63b8ff" points="786.94,-240.83 797.05,-244.01 791.14,-235.22 786.94,-240.83"/>
</a>
</g>
</g>
<!-- Node27 -->
<g id="Node000027" class="node">
<title>Node27</title>
<g id="a_Node000027"><a xlink:href="classAC__AttitudeControl__Heli.html#a3741c5f0deabfef2c6889171b5c4a217" target="_top" xlink:title=" ">
<polygon fill="white" stroke="#666666" points="506.5,-127.04 384.5,-127.04 384.5,-86.04 506.5,-86.04 506.5,-127.04"/>
<text text-anchor="start" x="392.5" y="-115.04" font-family="Helvetica,sans-Serif" font-size="10.00">AC_AttitudeControl</text>
<text text-anchor="start" x="392.5" y="-104.04" font-family="Helvetica,sans-Serif" font-size="10.00">_Heli::passthrough_bf</text>
<text text-anchor="middle" x="445.5" y="-93.04" font-family="Helvetica,sans-Serif" font-size="10.00">_roll_pitch_rate_yaw</text>
</a>
</g>
</g>
<!-- Node1&#45;&gt;Node27 -->
<g id="edge40_Node000001_Node000027" class="edge">
<title>Node1&#45;&gt;Node27</title>
<g id="a_edge40_Node000001_Node000027"><a xlink:title=" ">
<path fill="none" stroke="#63b8ff" d="M802.06,-234.29C788.43,-202.03 756.04,-137.98 705,-111.54 643.22,-79.55 561.49,-84.46 506.61,-93.32"/>
<polygon fill="#63b8ff" stroke="#63b8ff" points="798.97,-235.97 805.97,-243.92 805.45,-233.34 798.97,-235.97"/>
</a>
</g>
</g>
<!-- Node28 -->
<g id="Node000028" class="node">
<title>Node28</title>
<g id="a_Node000028"><a xlink:href="classAC__AttitudeControl.html#ad5f06ff5ba37d9af1afdb1ab18827a06" target="_top" xlink:title=" ">
<polygon fill="white" stroke="#666666" points="705,-64.54 557,-64.54 557,-34.54 705,-34.54 705,-64.54"/>
<text text-anchor="start" x="565" y="-52.54" font-family="Helvetica,sans-Serif" font-size="10.00">AC_AttitudeControl</text>
<text text-anchor="middle" x="631" y="-41.54" font-family="Helvetica,sans-Serif" font-size="10.00">::relax_attitude_controllers</text>
</a>
</g>
</g>
<!-- Node1&#45;&gt;Node28 -->
<g id="edge42_Node000001_Node000028" class="edge">
<title>Node1&#45;&gt;Node28</title>
<g id="a_edge42_Node000001_Node000028"><a xlink:title=" ">
<path fill="none" stroke="#63b8ff" d="M802.71,-234.02C789.38,-198.38 756.52,-122.41 705,-78.54 698.46,-72.97 690.72,-68.39 682.76,-64.64"/>
<polygon fill="#63b8ff" stroke="#63b8ff" points="799.52,-235.5 806.22,-243.71 806.1,-233.12 799.52,-235.5"/>
</a>
</g>
</g>
<!-- Node29 -->
<g id="Node000029" class="node">
<title>Node29</title>
<g id="a_Node000029"><a xlink:href="classAC__AttitudeControl__TS.html#a3f4040508d220a7d689c443377aacc68" target="_top" xlink:title=" ">
<polygon fill="white" stroke="#666666" points="500.5,-55.04 390.5,-55.04 390.5,-14.04 500.5,-14.04 500.5,-55.04"/>
<text text-anchor="start" x="398.5" y="-43.04" font-family="Helvetica,sans-Serif" font-size="10.00">AC_AttitudeControl</text>
<text text-anchor="start" x="398.5" y="-32.04" font-family="Helvetica,sans-Serif" font-size="10.00">_TS::relax_attitude</text>
<text text-anchor="middle" x="445.5" y="-21.04" font-family="Helvetica,sans-Serif" font-size="10.00">_controllers</text>
</a>
</g>
</g>
<!-- Node1&#45;&gt;Node29 -->
<g id="edge44_Node000001_Node000029" class="edge">
<title>Node1&#45;&gt;Node29</title>
<g id="a_edge44_Node000001_Node000029"><a xlink:title=" ">
<path fill="none" stroke="#63b8ff" d="M807.38,-233.66C801.27,-187.42 778.99,-73.02 705,-25.54 643.77,13.74 556.52,-0.3 500.7,-15.9"/>
<polygon fill="#63b8ff" stroke="#63b8ff" points="803.94,-234.35 808.61,-243.86 810.89,-233.51 803.94,-234.35"/>
</a>
</g>
</g>
<!-- Node3 -->
<g id="Node000003" class="node">
<title>Node3</title>
<g id="a_Node000003"><a xlink:href="classAC__AttitudeControl.html#a2115e6e5df7db5798f73423d5d2a5149" target="_top" xlink:title=" ">
<polygon fill="white" stroke="#666666" points="506,-841.04 385,-841.04 385,-800.04 506,-800.04 506,-841.04"/>
<text text-anchor="start" x="393" y="-829.04" font-family="Helvetica,sans-Serif" font-size="10.00">AC_AttitudeControl</text>
<text text-anchor="start" x="393" y="-818.04" font-family="Helvetica,sans-Serif" font-size="10.00">::input_angle_step_bf</text>
<text text-anchor="middle" x="445.5" y="-807.04" font-family="Helvetica,sans-Serif" font-size="10.00">_roll_pitch_yaw</text>
</a>
</g>
</g>
<!-- Node2&#45;&gt;Node3 -->
<g id="edge2_Node000002_Node000003" class="edge">
<title>Node2&#45;&gt;Node3</title>
<g id="a_edge2_Node000002_Node000003"><a xlink:title=" ">
<path fill="none" stroke="#63b8ff" d="M626.17,-543.22C617.54,-599.77 591.52,-721.12 521,-791.54 516.68,-795.86 511.64,-799.55 506.26,-802.7"/>
<polygon fill="#63b8ff" stroke="#63b8ff" points="629.66,-543.52 627.63,-533.12 622.73,-542.52 629.66,-543.52"/>
</a>
</g>
</g>
<!-- Node6 -->
<g id="Node000006" class="node">
<title>Node6</title>
<g id="a_Node000006"><a xlink:href="classAC__AttitudeControl.html#af0e7aef643e29d1f1af2a9cd1945d426" target="_top" xlink:title=" ">
<polygon fill="white" stroke="#666666" points="519,-646.04 372,-646.04 372,-605.04 519,-605.04 519,-646.04"/>
<text text-anchor="start" x="380" y="-634.04" font-family="Helvetica,sans-Serif" font-size="10.00">AC_AttitudeControl</text>
<text text-anchor="start" x="380" y="-623.04" font-family="Helvetica,sans-Serif" font-size="10.00">::input_euler_angle</text>
<text text-anchor="middle" x="445.5" y="-612.04" font-family="Helvetica,sans-Serif" font-size="10.00">_roll_pitch_euler_rate_yaw</text>
</a>
</g>
</g>
<!-- Node2&#45;&gt;Node6 -->
<g id="edge5_Node000002_Node000006" class="edge">
<title>Node2&#45;&gt;Node6</title>
<g id="a_edge5_Node000002_Node000006"><a xlink:title=" ">
<path fill="none" stroke="#63b8ff" d="M599.51,-539.87C578.53,-557.68 549.41,-580.51 521,-596.54 515.68,-599.55 509.99,-602.37 504.21,-605"/>
<polygon fill="#63b8ff" stroke="#63b8ff" points="601.84,-542.48 607.14,-533.31 597.27,-537.17 601.84,-542.48"/>
</a>
</g>
</g>
<!-- Node13 -->
<g id="Node000013" class="node">
<title>Node13</title>
<g id="a_Node000013"><a xlink:href="classAC__AttitudeControl.html#aa111691a6822ceea4c70c434ee6d38e7" target="_top" xlink:title=" ">
<polygon fill="white" stroke="#666666" points="500.5,-479.04 390.5,-479.04 390.5,-438.04 500.5,-438.04 500.5,-479.04"/>
<text text-anchor="start" x="398.5" y="-467.04" font-family="Helvetica,sans-Serif" font-size="10.00">AC_AttitudeControl</text>
<text text-anchor="start" x="398.5" y="-456.04" font-family="Helvetica,sans-Serif" font-size="10.00">::input_euler_angle</text>
<text text-anchor="middle" x="445.5" y="-445.04" font-family="Helvetica,sans-Serif" font-size="10.00">_roll_pitch_yaw</text>
</a>
</g>
</g>
<!-- Node2&#45;&gt;Node13 -->
<g id="edge13_Node000002_Node000013" class="edge">
<title>Node2&#45;&gt;Node13</title>
<g id="a_edge13_Node000002_Node000013"><a xlink:title=" ">
<path fill="none" stroke="#63b8ff" d="M564.65,-493.31C543.67,-487.14 520.68,-480.37 500.6,-474.47"/>
<polygon fill="#63b8ff" stroke="#63b8ff" points="563.86,-496.73 574.45,-496.2 565.84,-490.01 563.86,-496.73"/>
</a>
</g>
</g>
<!-- Node16 -->
<g id="Node000016" class="node">
<title>Node16</title>
<g id="a_Node000016"><a xlink:href="classAC__AttitudeControl.html#a49cd1e5d7c1a3550080c9ccca6ce8da8" target="_top" xlink:title=" ">
<polygon fill="white" stroke="#666666" points="507,-587.04 384,-587.04 384,-546.04 507,-546.04 507,-587.04"/>
<text text-anchor="start" x="392" y="-575.04" font-family="Helvetica,sans-Serif" font-size="10.00">AC_AttitudeControl</text>
<text text-anchor="start" x="392" y="-564.04" font-family="Helvetica,sans-Serif" font-size="10.00">::input_euler_rate_roll</text>
<text text-anchor="middle" x="445.5" y="-553.04" font-family="Helvetica,sans-Serif" font-size="10.00">_pitch_yaw</text>
</a>
</g>
</g>
<!-- Node2&#45;&gt;Node16 -->
<g id="edge21_Node000002_Node000016" class="edge">
<title>Node2&#45;&gt;Node16</title>
<g id="a_edge21_Node000002_Node000016"><a xlink:title=" ">
<path fill="none" stroke="#63b8ff" d="M564.82,-531.72C546.09,-537.24 525.75,-543.22 507.3,-548.65"/>
<polygon fill="#63b8ff" stroke="#63b8ff" points="565.84,-535.07 574.45,-528.89 563.86,-528.36 565.84,-535.07"/>
</a>
</g>
</g>
<!-- Node17 -->
<g id="Node000017" class="node">
<title>Node17</title>
<g id="a_Node000017"><a xlink:href="classAC__AttitudeControl.html#a69a84d4add370c46a8e64a615741d1c2" target="_top" xlink:title=" ">
<polygon fill="white" stroke="#666666" points="500.5,-527.54 390.5,-527.54 390.5,-497.54 500.5,-497.54 500.5,-527.54"/>
<text text-anchor="start" x="398.5" y="-515.54" font-family="Helvetica,sans-Serif" font-size="10.00">AC_AttitudeControl</text>
<text text-anchor="middle" x="445.5" y="-504.54" font-family="Helvetica,sans-Serif" font-size="10.00">::input_quaternion</text>
</a>
</g>
</g>
<!-- Node2&#45;&gt;Node17 -->
<g id="edge22_Node000002_Node000017" class="edge">
<title>Node2&#45;&gt;Node17</title>
<g id="a_edge22_Node000002_Node000017"><a xlink:title=" ">
<path fill="none" stroke="#63b8ff" d="M564.37,-512.54C543.47,-512.54 520.59,-512.54 500.6,-512.54"/>
<polygon fill="#63b8ff" stroke="#63b8ff" points="564.45,-516.04 574.45,-512.54 564.45,-509.04 564.45,-516.04"/>
</a>
</g>
</g>
<!-- Node18 -->
<g id="Node000018" class="node">
<title>Node18</title>
<g id="a_Node000018"><a xlink:href="classAC__AttitudeControl.html#a2ca277e7c4a5ac2980814673aae2d037" target="_top" xlink:title=" ">
<polygon fill="white" stroke="#666666" points="500.5,-782.04 390.5,-782.04 390.5,-741.04 500.5,-741.04 500.5,-782.04"/>
<text text-anchor="start" x="398.5" y="-770.04" font-family="Helvetica,sans-Serif" font-size="10.00">AC_AttitudeControl</text>
<text text-anchor="start" x="398.5" y="-759.04" font-family="Helvetica,sans-Serif" font-size="10.00">::input_rate_bf_roll</text>
<text text-anchor="middle" x="445.5" y="-748.04" font-family="Helvetica,sans-Serif" font-size="10.00">_pitch_yaw</text>
</a>
</g>
</g>
<!-- Node2&#45;&gt;Node18 -->
<g id="edge23_Node000002_Node000018" class="edge">
<title>Node2&#45;&gt;Node18</title>
<g id="a_edge23_Node000002_Node000018"><a xlink:title=" ">
<path fill="none" stroke="#63b8ff" d="M608.56,-541.63C571.01,-592.59 494.23,-696.77 461.66,-740.98"/>
<polygon fill="#63b8ff" stroke="#63b8ff" points="611.56,-543.47 614.67,-533.35 605.92,-539.32 611.56,-543.47"/>
</a>
</g>
</g>
<!-- Node20 -->
<g id="Node000020" class="node">
<title>Node20</title>
<g id="a_Node000020"><a xlink:href="classAC__AttitudeControl.html#a401a90ad51cee10503cd70d906b6bc52" target="_top" xlink:title=" ">
<polygon fill="white" stroke="#666666" points="504,-361.04 387,-361.04 387,-320.04 504,-320.04 504,-361.04"/>
<text text-anchor="start" x="395" y="-349.04" font-family="Helvetica,sans-Serif" font-size="10.00">AC_AttitudeControl</text>
<text text-anchor="start" x="395" y="-338.04" font-family="Helvetica,sans-Serif" font-size="10.00">::input_thrust_vector</text>
<text text-anchor="middle" x="445.5" y="-327.04" font-family="Helvetica,sans-Serif" font-size="10.00">_heading</text>
</a>
</g>
</g>
<!-- Node2&#45;&gt;Node20 -->
<g id="edge28_Node000002_Node000020" class="edge">
<title>Node2&#45;&gt;Node20</title>
<g id="a_edge28_Node000002_Node000020"><a xlink:title=" ">
<path fill="none" stroke="#63b8ff" d="M613.86,-483.08C595.21,-451.42 561.77,-401.51 521,-370.54 515.89,-366.66 510.21,-363.21 504.34,-360.16"/>
<polygon fill="#63b8ff" stroke="#63b8ff" points="610.92,-484.97 618.95,-491.88 616.98,-481.47 610.92,-484.97"/>
</a>
</g>
</g>
<!-- Node22 -->
<g id="Node000022" class="node">
<title>Node22</title>
<g id="a_Node000022"><a xlink:href="classAC__AttitudeControl.html#aa0df6bbc8caa1cbc36c7be1b756b99de" target="_top" xlink:title=" ">
<polygon fill="white" stroke="#666666" points="504,-420.04 387,-420.04 387,-379.04 504,-379.04 504,-420.04"/>
<text text-anchor="start" x="395" y="-408.04" font-family="Helvetica,sans-Serif" font-size="10.00">AC_AttitudeControl</text>
<text text-anchor="start" x="395" y="-397.04" font-family="Helvetica,sans-Serif" font-size="10.00">::input_thrust_vector</text>
<text text-anchor="middle" x="445.5" y="-386.04" font-family="Helvetica,sans-Serif" font-size="10.00">_rate_heading</text>
</a>
</g>
</g>
<!-- Node2&#45;&gt;Node22 -->
<g id="edge30_Node000002_Node000022" class="edge">
<title>Node2&#45;&gt;Node22</title>
<g id="a_edge30_Node000002_Node000022"><a xlink:title=" ">
<path fill="none" stroke="#63b8ff" d="M598.71,-485.11C577.73,-467.65 548.93,-445.42 521,-429.54 515.06,-426.17 508.66,-422.99 502.21,-420.05"/>
<polygon fill="#63b8ff" stroke="#63b8ff" points="596.73,-488.01 606.63,-491.78 601.24,-482.66 596.73,-488.01"/>
</a>
</g>
</g>
<!-- Node3&#45;&gt;Node4 -->
<g id="edge3_Node000003_Node000004" class="edge">
<title>Node3&#45;&gt;Node4</title>
<g id="a_edge3_Node000003_Node000004"><a xlink:title=" ">
<path fill="none" stroke="#63b8ff" d="M374.69,-820.54C356.15,-820.54 336.36,-820.54 318.6,-820.54"/>
<polygon fill="#63b8ff" stroke="#63b8ff" points="374.83,-824.04 384.83,-820.54 374.83,-817.04 374.83,-824.04"/>
</a>
</g>
</g>
<!-- Node5 -->
<g id="Node000005" class="node">
<title>Node5</title>
<g id="a_Node000005"><a xlink:href="classAC__AutoTune__Multi.html#aaed68ccc3cff65b4b098b90156b3f6b0" target="_top" xlink:title=" ">
<polygon fill="white" stroke="#666666" points="133.5,-835.54 17.5,-835.54 17.5,-805.54 133.5,-805.54 133.5,-835.54"/>
<text text-anchor="start" x="25.5" y="-823.54" font-family="Helvetica,sans-Serif" font-size="10.00">AC_AutoTune_Multi::</text>
<text text-anchor="middle" x="75.5" y="-812.54" font-family="Helvetica,sans-Serif" font-size="10.00">test_run</text>
</a>
</g>
</g>
<!-- Node4&#45;&gt;Node5 -->
<g id="edge4_Node000004_Node000005" class="edge">
<title>Node4&#45;&gt;Node5</title>
<g id="a_edge4_Node000004_Node000005"><a xlink:title=" ">
<path fill="none" stroke="#63b8ff" d="M192.14,-820.54C172.89,-820.54 152.1,-820.54 133.53,-820.54"/>
<polygon fill="#63b8ff" stroke="#63b8ff" points="192.35,-824.04 202.35,-820.54 192.35,-817.04 192.35,-824.04"/>
</a>
</g>
</g>
<!-- Node6&#45;&gt;Node7 -->
<g id="edge6_Node000006_Node000007" class="edge">
<title>Node6&#45;&gt;Node7</title>
<g id="a_edge6_Node000006_Node000007"><a xlink:title=" ">
<path fill="none" stroke="#63b8ff" d="M361.93,-641.79C351,-643.94 339.89,-646.12 329.24,-648.22"/>
<polygon fill="#63b8ff" stroke="#63b8ff" points="362.77,-645.19 371.91,-639.82 361.42,-638.32 362.77,-645.19"/>
</a>
</g>
</g>
<!-- Node9 -->
<g id="Node000009" class="node">
<title>Node9</title>
<g id="a_Node000009"><a xlink:href="classAC__AttitudeControl__Heli.html#a96317d64d32a0d29202c4f443bd06076" target="_top" xlink:title=" ">
<polygon fill="white" stroke="#666666" points="334,-628.04 187,-628.04 187,-587.04 334,-587.04 334,-628.04"/>
<text text-anchor="start" x="195" y="-616.04" font-family="Helvetica,sans-Serif" font-size="10.00">AC_AttitudeControl</text>
<text text-anchor="start" x="195" y="-605.04" font-family="Helvetica,sans-Serif" font-size="10.00">_Heli::input_euler_angle</text>
<text text-anchor="middle" x="260.5" y="-594.04" font-family="Helvetica,sans-Serif" font-size="10.00">_roll_pitch_euler_rate_yaw</text>
</a>
</g>
</g>
<!-- Node6&#45;&gt;Node9 -->
<g id="edge8_Node000006_Node000009" class="edge">
<title>Node6&#45;&gt;Node9</title>
<g id="a_edge8_Node000006_Node000009"><a xlink:title=" ">
<path fill="none" stroke="#63b8ff" d="M361.89,-617.42C352.58,-616.5 343.16,-615.58 334,-614.68"/>
<polygon fill="#63b8ff" stroke="#63b8ff" points="361.62,-620.91 371.91,-618.4 362.3,-613.94 361.62,-620.91"/>
</a>
</g>
</g>
<!-- Node10 -->
<g id="Node000010" class="node">
<title>Node10</title>
<g id="a_Node000010"><a xlink:href="classAC__AttitudeControl__Sub.html#a10394c6ab7dce0ba228c927bc01dc2b6" target="_top" xlink:title=" ">
<polygon fill="white" stroke="#666666" points="327,-530.04 194,-530.04 194,-489.04 327,-489.04 327,-530.04"/>
<text text-anchor="start" x="202" y="-518.04" font-family="Helvetica,sans-Serif" font-size="10.00">AC_AttitudeControl</text>
<text text-anchor="start" x="202" y="-507.04" font-family="Helvetica,sans-Serif" font-size="10.00">_Sub::input_euler_angle</text>
<text text-anchor="middle" x="260.5" y="-496.04" font-family="Helvetica,sans-Serif" font-size="10.00">_roll_pitch_slew_yaw</text>
</a>
</g>
</g>
<!-- Node6&#45;&gt;Node10 -->
<g id="edge9_Node000006_Node000010" class="edge">
<title>Node6&#45;&gt;Node10</title>
<g id="a_edge9_Node000006_Node000010"><a xlink:title=" ">
<path fill="none" stroke="#63b8ff" d="M374.17,-599.63C372.74,-598.64 371.35,-597.61 370,-596.54 347.94,-579.13 355.36,-562.81 334,-544.54 327.63,-539.09 320.26,-534.28 312.71,-530.09"/>
<polygon fill="#63b8ff" stroke="#63b8ff" points="372.36,-602.63 382.69,-604.96 376.07,-596.69 372.36,-602.63"/>
</a>
</g>
</g>
<!-- Node6&#45;&gt;Node11 -->
<g id="edge10_Node000006_Node000011" class="edge">
<title>Node6&#45;&gt;Node11</title>
<g id="a_edge10_Node000006_Node000011"><a xlink:title=" ">
<path fill="none" stroke="#63b8ff" d="M401.55,-651.18C381.45,-662.57 356.93,-675.62 334,-685.54 326.7,-688.7 318.84,-691.7 311.08,-694.44"/>
<polygon fill="#63b8ff" stroke="#63b8ff" points="403.51,-654.09 410.45,-646.08 400.03,-648.01 403.51,-654.09"/>
</a>
</g>
</g>
<!-- Node12 -->
<g id="Node000012" class="node">
<title>Node12</title>
<g id="a_Node000012"><a xlink:href="classAC__AutoTune.html#a1a880de557aca3dc882924b746bcf383" target="_top" xlink:title=" ">
<polygon fill="white" stroke="#666666" points="126.5,-437.04 24.5,-437.04 24.5,-418.04 126.5,-418.04 126.5,-437.04"/>
<text text-anchor="middle" x="75.5" y="-425.04" font-family="Helvetica,sans-Serif" font-size="10.00">AC_AutoTune::run</text>
</a>
</g>
</g>
<!-- Node6&#45;&gt;Node12 -->
<g id="edge12_Node000006_Node000012" class="edge">
<title>Node6&#45;&gt;Node12</title>
<g id="a_edge12_Node000006_Node000012"><a xlink:title=" ">
<path fill="none" stroke="#63b8ff" d="M380.36,-601.02C376.84,-599.54 373.37,-598.04 370,-596.54 353.65,-589.29 350.73,-584.87 334,-578.54 270.77,-554.64 245.47,-573.47 187,-539.54 139.75,-512.13 98.88,-459.19 83.27,-437.34"/>
<polygon fill="#63b8ff" stroke="#63b8ff" points="379.16,-604.31 389.74,-604.9 381.84,-597.84 379.16,-604.31"/>
</a>
</g>
</g>
<!-- Node8 -->
<g id="Node000008" class="node">
<title>Node8</title>
<g id="a_Node000008"><a xlink:href="classAC__AutoTune__Heli.html#a581fd3200d08720e87bb6fb6fe7ee301" target="_top" xlink:title=" ">
<polygon fill="white" stroke="#666666" points="151,-671.04 0,-671.04 0,-652.04 151,-652.04 151,-671.04"/>
<text text-anchor="middle" x="75.5" y="-659.04" font-family="Helvetica,sans-Serif" font-size="10.00">AC_AutoTune_Heli::test_run</text>
</a>
</g>
</g>
<!-- Node7&#45;&gt;Node8 -->
<g id="edge7_Node000007_Node000008" class="edge">
<title>Node7&#45;&gt;Node8</title>
<g id="a_edge7_Node000007_Node000008"><a xlink:title=" ">
<path fill="none" stroke="#63b8ff" d="M181.84,-661.54C171.7,-661.54 161.33,-661.54 151.24,-661.54"/>
<polygon fill="#63b8ff" stroke="#63b8ff" points="181.88,-665.04 191.88,-661.54 181.88,-658.04 181.88,-665.04"/>
</a>
</g>
</g>
<!-- Node11&#45;&gt;Node8 -->
<g id="edge11_Node000011_Node000008" class="edge">
<title>Node11&#45;&gt;Node8</title>
<g id="a_edge11_Node000011_Node000008"><a xlink:title=" ">
<path fill="none" stroke="#63b8ff" d="M192.36,-691.93C165.52,-684.89 135.65,-677.06 112.96,-671.11"/>
<polygon fill="#63b8ff" stroke="#63b8ff" points="191.54,-695.34 202.1,-694.49 193.31,-688.57 191.54,-695.34"/>
</a>
</g>
</g>
<!-- Node13&#45;&gt;Node7 -->
<g id="edge16_Node000013_Node000007" class="edge">
<title>Node13&#45;&gt;Node7</title>
<g id="a_edge16_Node000013_Node000007"><a xlink:title=" ">
<path fill="none" stroke="#63b8ff" d="M381.68,-478.23C377.36,-481.21 373.39,-484.62 370,-488.54 325.46,-540.1 380.14,-587.42 334,-637.54 330.86,-640.96 327.22,-643.89 323.28,-646.4"/>
<polygon fill="#63b8ff" stroke="#63b8ff" points="383.57,-481.18 390.35,-473.04 379.97,-475.18 383.57,-481.18"/>
</a>
</g>
</g>
<!-- Node13&#45;&gt;Node8 -->
<g id="edge20_Node000013_Node000008" class="edge">
<title>Node13&#45;&gt;Node8</title>
<g id="a_edge20_Node000013_Node000008"><a xlink:title=" ">
<path fill="none" stroke="#63b8ff" d="M380.29,-448.73C324.94,-443.64 245.01,-444.66 187,-480.54 120,-521.99 87.8,-620.62 79.04,-651.87"/>
<polygon fill="#63b8ff" stroke="#63b8ff" points="380.03,-452.22 390.33,-449.74 380.73,-445.25 380.03,-452.22"/>
</a>
</g>
</g>
<!-- Node13&#45;&gt;Node10 -->
<g id="edge17_Node000013_Node000010" class="edge">
<title>Node13&#45;&gt;Node10</title>
<g id="a_edge17_Node000013_Node000010"><a xlink:title=" ">
<path fill="none" stroke="#63b8ff" d="M380.14,-476.48C362.92,-481.28 344.29,-486.47 327.01,-491.29"/>
<polygon fill="#63b8ff" stroke="#63b8ff" points="381.4,-479.76 390.09,-473.71 379.52,-473.02 381.4,-479.76"/>
</a>
</g>
</g>
<!-- Node13&#45;&gt;Node11 -->
<g id="edge19_Node000013_Node000011" class="edge">
<title>Node13&#45;&gt;Node11</title>
<g id="a_edge19_Node000013_Node000011"><a xlink:title=" ">
<path fill="none" stroke="#63b8ff" d="M381.65,-477.88C377.3,-480.93 373.33,-484.46 370,-488.54 313.73,-557.51 392.42,-618.39 334,-685.54 331.04,-688.94 327.59,-691.87 323.83,-694.37"/>
<polygon fill="#63b8ff" stroke="#63b8ff" points="383.67,-480.75 390.41,-472.58 380.04,-474.76 383.67,-480.75"/>
</a>
</g>
</g>
<!-- Node13&#45;&gt;Node14 -->
<g id="edge14_Node000013_Node000014" class="edge">
<title>Node13&#45;&gt;Node14</title>
<g id="a_edge14_Node000013_Node000014"><a xlink:title=" ">
<path fill="none" stroke="#63b8ff" d="M381.52,-439.02C377.32,-436.26 373.41,-433.12 370,-429.54 335.36,-393.25 368.91,-358.59 334,-322.54 329.42,-317.82 323.94,-313.91 318.07,-310.68"/>
<polygon fill="#63b8ff" stroke="#63b8ff" points="380.06,-442.22 390.47,-444.17 383.54,-436.15 380.06,-442.22"/>
</a>
</g>
</g>
<!-- Node15 -->
<g id="Node000015" class="node">
<title>Node15</title>
<g id="a_Node000015"><a xlink:href="classAC__AttitudeControl__Heli.html#a8720532877383f5bc054862f88e64dfe" target="_top" xlink:title=" ">
<polygon fill="white" stroke="#666666" points="327.5,-432.04 193.5,-432.04 193.5,-391.04 327.5,-391.04 327.5,-432.04"/>
<text text-anchor="start" x="201.5" y="-420.04" font-family="Helvetica,sans-Serif" font-size="10.00">AC_AttitudeControl</text>
<text text-anchor="start" x="201.5" y="-409.04" font-family="Helvetica,sans-Serif" font-size="10.00">_Heli::input_euler_angle</text>
<text text-anchor="middle" x="260.5" y="-398.04" font-family="Helvetica,sans-Serif" font-size="10.00">_roll_pitch_yaw</text>
</a>
</g>
</g>
<!-- Node13&#45;&gt;Node15 -->
<g id="edge18_Node000013_Node000015" class="edge">
<title>Node13&#45;&gt;Node15</title>
<g id="a_edge18_Node000013_Node000015"><a xlink:title=" ">
<path fill="none" stroke="#63b8ff" d="M380.24,-442.04C363.22,-437.67 344.8,-432.94 327.67,-428.54"/>
<polygon fill="#63b8ff" stroke="#63b8ff" points="379.53,-445.47 390.09,-444.57 381.27,-438.69 379.53,-445.47"/>
</a>
</g>
</g>
<!-- Node14&#45;&gt;Node12 -->
<g id="edge15_Node000014_Node000012" class="edge">
<title>Node14&#45;&gt;Node12</title>
<g id="a_edge15_Node000014_Node000012"><a xlink:title=" ">
<path fill="none" stroke="#63b8ff" d="M201.49,-314.69C196.46,-317.08 191.56,-319.7 187,-322.54 142.78,-350.16 101.18,-397.45 84.36,-417.78"/>
<polygon fill="#63b8ff" stroke="#63b8ff" points="202.91,-317.89 210.63,-310.64 200.07,-311.49 202.91,-317.89"/>
</a>
</g>
</g>
<!-- Node18&#45;&gt;Node4 -->
<g id="edge27_Node000018_Node000004" class="edge">
<title>Node18&#45;&gt;Node4</title>
<g id="a_edge27_Node000018_Node000004"><a xlink:title=" ">
<path fill="none" stroke="#63b8ff" d="M380.44,-782.2C356.68,-789.86 330.2,-798.39 308.27,-805.47"/>
<polygon fill="#63b8ff" stroke="#63b8ff" points="381.65,-785.49 390.09,-779.09 379.5,-778.82 381.65,-785.49"/>
</a>
</g>
</g>
<!-- Node18&#45;&gt;Node7 -->
<g id="edge24_Node000018_Node000007" class="edge">
<title>Node18&#45;&gt;Node7</title>
<g id="a_edge24_Node000018_Node000007"><a xlink:title=" ">
<path fill="none" stroke="#63b8ff" d="M410.99,-734.78C389.84,-718.86 361.43,-699.17 334,-685.54 327.35,-682.24 320.14,-679.23 312.93,-676.55"/>
<polygon fill="#63b8ff" stroke="#63b8ff" points="408.94,-737.62 419.01,-740.9 413.18,-732.05 408.94,-737.62"/>
</a>
</g>
</g>
<!-- Node18&#45;&gt;Node11 -->
<g id="edge26_Node000018_Node000011" class="edge">
<title>Node18&#45;&gt;Node11</title>
<g id="a_edge26_Node000018_Node000011"><a xlink:title=" ">
<path fill="none" stroke="#63b8ff" d="M380.36,-743.32C358.81,-737.2 335.03,-730.44 314.44,-724.59"/>
<polygon fill="#63b8ff" stroke="#63b8ff" points="379.51,-746.72 390.09,-746.08 381.43,-739.98 379.51,-746.72"/>
</a>
</g>
</g>
<!-- Node19 -->
<g id="Node000019" class="node">
<title>Node19</title>
<g id="a_Node000019"><a xlink:href="classAC__AttitudeControl__Heli.html#aa78e07c940c43aa150caf3c52cf76809" target="_top" xlink:title=" ">
<polygon fill="white" stroke="#666666" points="316.5,-784.04 204.5,-784.04 204.5,-743.04 316.5,-743.04 316.5,-784.04"/>
<text text-anchor="start" x="212.5" y="-772.04" font-family="Helvetica,sans-Serif" font-size="10.00">AC_AttitudeControl</text>
<text text-anchor="start" x="212.5" y="-761.04" font-family="Helvetica,sans-Serif" font-size="10.00">_Heli::input_rate_bf</text>
<text text-anchor="middle" x="260.5" y="-750.04" font-family="Helvetica,sans-Serif" font-size="10.00">_roll_pitch_yaw</text>
</a>
</g>
</g>
<!-- Node18&#45;&gt;Node19 -->
<g id="edge25_Node000018_Node000019" class="edge">
<title>Node18&#45;&gt;Node19</title>
<g id="a_edge25_Node000018_Node000019"><a xlink:title=" ">
<path fill="none" stroke="#63b8ff" d="M379.82,-762.25C359.18,-762.48 336.55,-762.72 316.65,-762.94"/>
<polygon fill="#63b8ff" stroke="#63b8ff" points="380.13,-765.75 390.09,-762.14 380.05,-758.75 380.13,-765.75"/>
</a>
</g>
</g>
<!-- Node21 -->
<g id="Node000021" class="node">
<title>Node21</title>
<g id="a_Node000021"><a xlink:href="classAC__AttitudeControl.html#ab2acdf9337854daee754e40e9c0379de" target="_top" xlink:title=" ">
<polygon fill="white" stroke="#666666" points="319,-372.04 202,-372.04 202,-331.04 319,-331.04 319,-372.04"/>
<text text-anchor="start" x="210" y="-360.04" font-family="Helvetica,sans-Serif" font-size="10.00">AC_AttitudeControl</text>
<text text-anchor="start" x="210" y="-349.04" font-family="Helvetica,sans-Serif" font-size="10.00">::input_thrust_vector</text>
<text text-anchor="middle" x="260.5" y="-338.04" font-family="Helvetica,sans-Serif" font-size="10.00">_heading</text>
</a>
</g>
</g>
<!-- Node20&#45;&gt;Node21 -->
<g id="edge29_Node000020_Node000021" class="edge">
<title>Node20&#45;&gt;Node21</title>
<g id="a_edge29_Node000020_Node000021"><a xlink:title=" ">
<path fill="none" stroke="#63b8ff" d="M376.8,-344.61C357.87,-345.75 337.47,-346.98 319.18,-348.08"/>
<polygon fill="#63b8ff" stroke="#63b8ff" points="377.08,-348.1 386.85,-344.01 376.66,-341.12 377.08,-348.1"/>
</a>
</g>
</g>
<!-- Node22&#45;&gt;Node21 -->
<g id="edge31_Node000022_Node000021" class="edge">
<title>Node22&#45;&gt;Node21</title>
<g id="a_edge31_Node000022_Node000021"><a xlink:title=" ">
<path fill="none" stroke="#63b8ff" d="M377.06,-381.86C358.06,-376.87 337.56,-371.49 319.18,-366.67"/>
<polygon fill="#63b8ff" stroke="#63b8ff" points="376.29,-385.27 386.85,-384.42 378.06,-378.5 376.29,-385.27"/>
</a>
</g>
</g>
<!-- Node23&#45;&gt;Node14 -->
<g id="edge34_Node000023_Node000014" class="edge">
<title>Node23&#45;&gt;Node14</title>
<g id="a_edge34_Node000023_Node000014"><a xlink:title=" ">
<path fill="none" stroke="#63b8ff" d="M555.6,-258.97C503.52,-263.13 432.38,-269.5 370,-277.54 353.9,-279.62 336.53,-282.3 320.51,-284.96"/>
<polygon fill="#63b8ff" stroke="#63b8ff" points="556.05,-262.45 565.75,-258.17 555.5,-255.47 556.05,-262.45"/>
</a>
</g>
</g>
<!-- Node25 -->
<g id="Node000025" class="node">
<title>Node25</title>
<g id="a_Node000025"><a xlink:href="classAC__AutoTune__Heli.html#af6c010324c9ac265b7ab2728f03f954c" target="_top" xlink:title=" ">
<polygon fill="white" stroke="#666666" points="521,-215.04 370,-215.04 370,-196.04 521,-196.04 521,-215.04"/>
<text text-anchor="middle" x="445.5" y="-203.04" font-family="Helvetica,sans-Serif" font-size="10.00">AC_AutoTune_Heli::test_init</text>
</a>
</g>
</g>
<!-- Node24&#45;&gt;Node25 -->
<g id="edge36_Node000024_Node000025" class="edge">
<title>Node24&#45;&gt;Node25</title>
<g id="a_edge36_Node000024_Node000025"><a xlink:title=" ">
<path fill="none" stroke="#63b8ff" d="M552.22,-205.54C541.88,-205.54 531.3,-205.54 521.01,-205.54"/>
<polygon fill="#63b8ff" stroke="#63b8ff" points="552.45,-209.04 562.45,-205.54 552.45,-202.04 552.45,-209.04"/>
</a>
</g>
</g>
<!-- Node26&#45;&gt;Node27 -->
<g id="edge39_Node000026_Node000027" class="edge">
<title>Node26&#45;&gt;Node27</title>
<g id="a_edge39_Node000026_Node000027"><a xlink:title=" ">
<path fill="none" stroke="#63b8ff" d="M562.46,-131.82C544.19,-127.84 524.54,-123.56 506.7,-119.67"/>
<polygon fill="#63b8ff" stroke="#63b8ff" points="561.93,-135.29 572.44,-134 563.42,-128.45 561.93,-135.29"/>
</a>
</g>
</g>
<!-- Node28&#45;&gt;Node29 -->
<g id="edge43_Node000028_Node000029" class="edge">
<title>Node28&#45;&gt;Node29</title>
<g id="a_edge43_Node000028_Node000029"><a xlink:title=" ">
<path fill="none" stroke="#63b8ff" d="M546.73,-42.74C531.09,-41.46 515.11,-40.15 500.64,-38.97"/>
<polygon fill="#63b8ff" stroke="#63b8ff" points="546.7,-46.25 556.95,-43.57 547.27,-39.27 546.7,-46.25"/>
</a>
</g>
</g>
</g>
</svg>

<g id="navigator" transform="translate(0 0)" fill="#404254">
  <rect fill="#f2f5e9" fill-opacity="0.5" stroke="#606060" stroke-width=".5" x="0" y="0" width="60" height="60"/>
  <use id="zoomplus" xlink:href="#zoomPlus" x="17" y="9" onmousedown="handleZoom(evt,'in')"/>
  <use id="zoomminus" xlink:href="#zoomMin" x="42" y="9" onmousedown="handleZoom(evt,'out')"/>
  <use id="reset" xlink:href="#resetDef" x="30" y="36" onmousedown="handleReset()"/>
   <use id="arrowup" xlink:href="#arrowUp" x="0" y="0" onmousedown="handlePan(0,-1)"/>
  <use id="arrowright" xlink:href="#arrowRight" x="0" y="0" onmousedown="handlePan(1,0)"/>
  <use id="arrowdown" xlink:href="#arrowDown" x="0" y="0" onmousedown="handlePan(0,1)"/>
  <use id="arrowleft" xlink:href="#arrowLeft" x="0" y="0" onmousedown="handlePan(-1,0)"/>
</g>
<svg viewBox="0 0 15 15" width="100%" height="30px" preserveAspectRatio="xMaxYMin meet">
 <g id="arrow_out" transform="scale(0.3 0.3)">
  <a xlink:href="classAP__AHRS__View_a8733f799a129c0bd015c4f72bc8a1ee8_icgraph_org.svg" target="_base">
   <rect id="button" ry="5" rx="5" y="6" x="6" height="38" width="38"
        fill="#f2f5e9" fill-opacity="0.5" stroke="#606060" stroke-width="1.0"/>
   <path id="arrow"
     d="M 11.500037,31.436501 C 11.940474,20.09759 22.043105,11.32322 32.158766,21.979434 L 37.068811,17.246167 C 37.068811,17.246167 37.088388,32 37.088388,32 L 22.160133,31.978069 C 22.160133,31.978069 26.997745,27.140456 26.997745,27.140456 C 18.528582,18.264221 13.291696,25.230495 11.500037,31.436501 z"
     style="fill:#404040;"/>
  </a>
 </g>
</svg>

<style type='text/css'>
<![CDATA[
[data-mouse-over-selected='false'] { opacity: 0.7; }
[data-mouse-over-selected='true']  { opacity: 1.0; }
]]>
</style>
<script type="application/ecmascript"><![CDATA[
document.addEventListener('DOMContentLoaded', (event) => {
  highlightEdges();
  highlightAdjacentNodes();
});
]]></script>
</svg>
