<?xml version="1.0" encoding="UTF-8" standalone="no"?>
<!DOCTYPE svg PUBLIC "-//W3C//DTD SVG 1.1//EN"
 "http://www.w3.org/Graphics/SVG/1.1/DTD/svg11.dtd">
<!-- Generated by graphviz version 2.43.0 (0)
 -->
<!-- Title: SITL::EFI_Hirth::send_record1 Pages: 1 -->
<svg width="470pt" height="82pt"
 viewBox="0.00 0.00 470.00 82.00" xmlns="http://www.w3.org/2000/svg" xmlns:xlink="http://www.w3.org/1999/xlink">

<svg id="main" version="1.1" xmlns="http://www.w3.org/2000/svg" xmlns:xlink="http://www.w3.org/1999/xlink" xml:space="preserve" onload="init(evt)">
<style type="text/css"><![CDATA[
.node, .edge {opacity: 0.7;}
.node.selected, .edge.selected {opacity: 1;}
.edge:hover path { stroke: red; }
.edge:hover polygon { stroke: red; fill: red; }
]]></style>
<script type="application/ecmascript" xlink:href="svg.min.js"/>
<svg id="graph" class="graph">
<g id="graph0" class="graph" transform="scale(1 1) rotate(0) translate(4 78)">
<title>SITL::EFI_Hirth::send_record1</title>
<!-- Node1 -->
<g id="Node000001" class="node">
<title>Node1</title>
<g id="a_Node000001"><a xlink:title=" ">
<polygon fill="#999999" stroke="#666666" points="116,-51.5 0,-51.5 0,-21.5 116,-21.5 116,-51.5"/>
<text text-anchor="start" x="8" y="-39.5" font-family="Helvetica,sans-Serif" font-size="10.00">SITL::EFI_Hirth::send</text>
<text text-anchor="middle" x="58" y="-28.5" font-family="Helvetica,sans-Serif" font-size="10.00">_record1</text>
</a>
</g>
</g>
<!-- Node2 -->
<g id="Node000002" class="node">
<title>Node2</title>
<g id="a_Node000002"><a xlink:href="namespaceAP.html#a8aec57eb0b7a79044cbc1f0ca4b75bcf" target="_top" xlink:title=" ">
<polygon fill="white" stroke="#666666" points="253,-74 196,-74 196,-55 253,-55 253,-74"/>
<text text-anchor="middle" x="224.5" y="-62" font-family="Helvetica,sans-Serif" font-size="10.00">AP::baro</text>
</a>
</g>
</g>
<!-- Node1&#45;&gt;Node2 -->
<g id="edge1_Node000001_Node000002" class="edge">
<title>Node1&#45;&gt;Node2</title>
<g id="a_edge1_Node000001_Node000002"><a xlink:title=" ">
<path fill="none" stroke="#63b8ff" d="M116.07,-46.21C139.09,-50.13 165.03,-54.55 185.65,-58.06"/>
<polygon fill="#63b8ff" stroke="#63b8ff" points="185.16,-61.52 195.6,-59.75 186.33,-54.62 185.16,-61.52"/>
</a>
</g>
</g>
<!-- Node4 -->
<g id="Node000004" class="node">
<title>Node4</title>
<g id="a_Node000004"><a xlink:href="classAP__Baro.html#ae7be7aff322792daa05c01e4f326cc42" target="_top" xlink:title=" ">
<polygon fill="white" stroke="#666666" points="297,-19 152,-19 152,0 297,0 297,-19"/>
<text text-anchor="middle" x="224.5" y="-7" font-family="Helvetica,sans-Serif" font-size="10.00">AP_Baro::get_temperature</text>
</a>
</g>
</g>
<!-- Node1&#45;&gt;Node4 -->
<g id="edge3_Node000001_Node000004" class="edge">
<title>Node1&#45;&gt;Node4</title>
<g id="a_edge3_Node000001_Node000004"><a xlink:title=" ">
<path fill="none" stroke="#63b8ff" d="M116.07,-27.13C128.79,-25.04 142.4,-22.81 155.51,-20.66"/>
<polygon fill="#63b8ff" stroke="#63b8ff" points="156.11,-24.11 165.41,-19.03 154.98,-17.2 156.11,-24.11"/>
</a>
</g>
</g>
<!-- Node3 -->
<g id="Node000003" class="node">
<title>Node3</title>
<g id="a_Node000003"><a xlink:href="classAP__Baro.html#af6c560031f4ddc5c21bfad92c8dd5a8a" target="_top" xlink:title=" ">
<polygon fill="white" stroke="#666666" points="462,-74 333,-74 333,-55 462,-55 462,-74"/>
<text text-anchor="middle" x="397.5" y="-62" font-family="Helvetica,sans-Serif" font-size="10.00">AP_Baro::get_singleton</text>
</a>
</g>
</g>
<!-- Node2&#45;&gt;Node3 -->
<g id="edge2_Node000002_Node000003" class="edge">
<title>Node2&#45;&gt;Node3</title>
<g id="a_edge2_Node000002_Node000003"><a xlink:title=" ">
<path fill="none" stroke="#63b8ff" d="M253.35,-64.5C272.24,-64.5 298.14,-64.5 322.72,-64.5"/>
<polygon fill="#63b8ff" stroke="#63b8ff" points="322.79,-68 332.79,-64.5 322.79,-61 322.79,-68"/>
</a>
</g>
</g>
<!-- Node4&#45;&gt;Node4 -->
<g id="edge4_Node000004_Node000004" class="edge">
<title>Node4&#45;&gt;Node4</title>
<g id="a_edge4_Node000004_Node000004"><a xlink:title=" ">
<path fill="none" stroke="#63b8ff" d="M198.91,-19.08C186.47,-27.73 195,-37 224.5,-37 243.86,-37 254.19,-33.01 255.49,-27.82"/>
<polygon fill="#63b8ff" stroke="#63b8ff" points="258.32,-25.75 250.09,-19.08 252.37,-29.43 258.32,-25.75"/>
</a>
</g>
</g>
</g>
</svg>
</svg>

<style type='text/css'>
<![CDATA[
[data-mouse-over-selected='false'] { opacity: 0.7; }
[data-mouse-over-selected='true']  { opacity: 1.0; }
]]>
</style>
<script type="application/ecmascript"><![CDATA[
document.addEventListener('DOMContentLoaded', (event) => {
  highlightEdges();
  highlightAdjacentNodes();
});
]]></script>
</svg>
