<?xml version="1.0" encoding="UTF-8" standalone="no"?>
<!DOCTYPE svg PUBLIC "-//W3C//DTD SVG 1.1//EN"
 "http://www.w3.org/Graphics/SVG/1.1/DTD/svg11.dtd">
<!-- Generated by graphviz version 2.43.0 (0)
 -->
<!-- Title: AP_RunCam::handle_recording Pages: 1 -->
<svg width="682pt" height="86pt"
 viewBox="0.00 0.00 682.00 86.00" xmlns="http://www.w3.org/2000/svg" xmlns:xlink="http://www.w3.org/1999/xlink">
<g id="graph0" class="graph" transform="scale(1 1) rotate(0) translate(4 82)">
<title>AP_RunCam::handle_recording</title>
<!-- Node1 -->
<g id="Node000001" class="node">
<title>Node1</title>
<g id="a_Node000001"><a xlink:title=" ">
<polygon fill="#999999" stroke="#666666" points="674,-48.5 508,-48.5 508,-29.5 674,-29.5 674,-48.5"/>
<text text-anchor="middle" x="591" y="-36.5" font-family="Helvetica,sans-Serif" font-size="10.00">AP_RunCam::handle_recording</text>
</a>
</g>
</g>
<!-- Node2 -->
<g id="Node000002" class="node">
<title>Node2</title>
<g id="a_Node000002"><a xlink:href="classAP__RunCam.html#af788b733f05aa25f37589046b3238ec3" target="_top" xlink:title=" ">
<polygon fill="white" stroke="#666666" points="472,-78 326,-78 326,-48 472,-48 472,-78"/>
<text text-anchor="start" x="334" y="-66" font-family="Helvetica,sans-Serif" font-size="10.00">AP_RunCam::update_state</text>
<text text-anchor="middle" x="399" y="-55" font-family="Helvetica,sans-Serif" font-size="10.00">_machine_armed</text>
</a>
</g>
</g>
<!-- Node1&#45;&gt;Node2 -->
<g id="edge1_Node000001_Node000002" class="edge">
<title>Node1&#45;&gt;Node2</title>
<g id="a_edge1_Node000001_Node000002"><a xlink:title=" ">
<path fill="none" stroke="#63b8ff" d="M504.39,-49.81C493.63,-51.17 482.7,-52.55 472.18,-53.88"/>
<polygon fill="#63b8ff" stroke="#63b8ff" points="505.15,-53.25 514.63,-48.52 504.27,-46.3 505.15,-53.25"/>
</a>
</g>
</g>
<!-- Node5 -->
<g id="Node000005" class="node">
<title>Node5</title>
<g id="a_Node000005"><a xlink:href="classAP__RunCam.html#a0acdf328be1b12fae8329e9d823126f4" target="_top" xlink:title=" ">
<polygon fill="white" stroke="#666666" points="472,-30 326,-30 326,0 472,0 472,-30"/>
<text text-anchor="start" x="334" y="-18" font-family="Helvetica,sans-Serif" font-size="10.00">AP_RunCam::update_state</text>
<text text-anchor="middle" x="399" y="-7" font-family="Helvetica,sans-Serif" font-size="10.00">_machine_disarmed</text>
</a>
</g>
</g>
<!-- Node1&#45;&gt;Node5 -->
<g id="edge4_Node000001_Node000005" class="edge">
<title>Node1&#45;&gt;Node5</title>
<g id="a_edge4_Node000001_Node000005"><a xlink:title=" ">
<path fill="none" stroke="#63b8ff" d="M504.39,-28.19C493.63,-26.83 482.7,-25.45 472.18,-24.12"/>
<polygon fill="#63b8ff" stroke="#63b8ff" points="504.27,-31.7 514.63,-29.48 505.15,-24.75 504.27,-31.7"/>
</a>
</g>
</g>
<!-- Node3 -->
<g id="Node000003" class="node">
<title>Node3</title>
<g id="a_Node000003"><a xlink:href="classAP__RunCam.html#adc8b93a2f97ea9af8972d53d856393ed" target="_top" xlink:title=" ">
<polygon fill="white" stroke="#666666" points="290,-48.5 152,-48.5 152,-29.5 290,-29.5 290,-48.5"/>
<text text-anchor="middle" x="221" y="-36.5" font-family="Helvetica,sans-Serif" font-size="10.00">AP_RunCam::update_osd</text>
</a>
</g>
</g>
<!-- Node2&#45;&gt;Node3 -->
<g id="edge2_Node000002_Node000003" class="edge">
<title>Node2&#45;&gt;Node3</title>
<g id="a_edge2_Node000002_Node000003"><a xlink:title=" ">
<path fill="none" stroke="#63b8ff" d="M315.82,-51.79C307.18,-50.62 298.47,-49.43 290.01,-48.27"/>
<polygon fill="#63b8ff" stroke="#63b8ff" points="315.53,-55.29 325.91,-53.17 316.47,-48.35 315.53,-55.29"/>
</a>
</g>
</g>
<!-- Node4 -->
<g id="Node000004" class="node">
<title>Node4</title>
<g id="a_Node000004"><a xlink:href="classAP__RunCam.html#aad7559939029911385d2db41bdf2c023" target="_top" xlink:title=" ">
<polygon fill="white" stroke="#666666" points="116,-48.5 0,-48.5 0,-29.5 116,-29.5 116,-48.5"/>
<text text-anchor="middle" x="58" y="-36.5" font-family="Helvetica,sans-Serif" font-size="10.00">AP_RunCam::update</text>
</a>
</g>
</g>
<!-- Node3&#45;&gt;Node4 -->
<g id="edge3_Node000003_Node000004" class="edge">
<title>Node3&#45;&gt;Node4</title>
<g id="a_edge3_Node000003_Node000004"><a xlink:title=" ">
<path fill="none" stroke="#63b8ff" d="M141.68,-39C133.09,-39 124.47,-39 116.21,-39"/>
<polygon fill="#63b8ff" stroke="#63b8ff" points="141.72,-42.5 151.72,-39 141.72,-35.5 141.72,-42.5"/>
</a>
</g>
</g>
<!-- Node5&#45;&gt;Node3 -->
<g id="edge5_Node000005_Node000003" class="edge">
<title>Node5&#45;&gt;Node3</title>
<g id="a_edge5_Node000005_Node000003"><a xlink:title=" ">
<path fill="none" stroke="#63b8ff" d="M315.82,-26.21C307.18,-27.38 298.47,-28.57 290.01,-29.73"/>
<polygon fill="#63b8ff" stroke="#63b8ff" points="316.47,-29.65 325.91,-24.83 315.53,-22.71 316.47,-29.65"/>
</a>
</g>
</g>
</g>
</svg>
