<?xml version="1.0" encoding="UTF-8" standalone="no"?>
<!DOCTYPE svg PUBLIC "-//W3C//DTD SVG 1.1//EN"
 "http://www.w3.org/Graphics/SVG/1.1/DTD/svg11.dtd">
<!-- Generated by graphviz version 2.43.0 (0)
 -->
<!-- Title: AP_HAL::Util::malloc_type Pages: 1 -->
<!--zoomable 438 -->

<svg id="main" version="1.1" xmlns="http://www.w3.org/2000/svg" xmlns:xlink="http://www.w3.org/1999/xlink" xml:space="preserve" onload="init(evt)">
<style type="text/css"><![CDATA[
.node, .edge {opacity: 0.7;}
.node.selected, .edge.selected {opacity: 1;}
.edge:hover path { stroke: red; }
.edge:hover polygon { stroke: red; fill: red; }
]]></style>

<defs>
  <circle id="rim" cx="0" cy="0" r="7"/>
  <circle id="rim2" cx="0" cy="0" r="3.5"/>
  <g id="zoomPlus">
    <use xlink:href="#rim" fill="#404040"><set attributeName="fill" to="#808080" begin="zoomplus.mouseover" end="zoomplus.mouseout"/></use>
    <path d="M-4,0h8M0,-4v8" fill="none" stroke="white" stroke-width="1.5" pointer-events="none"/>
  </g>
  <g id="zoomMin">
    <use xlink:href="#rim" fill="#404040"><set attributeName="fill" to="#808080" begin="zoomminus.mouseover" end="zoomminus.mouseout"/></use>
    <path d="M-4,0h8" fill="none" stroke="white" stroke-width="1.5" pointer-events="none"/>
  </g>
  <g id="arrowUp" transform="translate(30 24)">
    <use xlink:href="#rim"/>
    <path pointer-events="none" fill="none" stroke="white" stroke-width="1.5" d="M0,-3.0v7 M-2.5,-0.5L0,-3.0L2.5,-0.5"/>
  </g>
  <g id="arrowRight" transform="rotate(90) translate(36 -43)">
    <use xlink:href="#rim"/>
    <path pointer-events="none" fill="none" stroke="white" stroke-width="1.5" d="M0,-3.0v7 M-2.5,-0.5L0,-3.0L2.5,-0.5"/>
  </g>
  <g id="arrowDown" transform="rotate(180) translate(-30 -48)">
    <use xlink:href="#rim"/>
    <path pointer-events="none" fill="none" stroke="white" stroke-width="1.5" d="M0,-3.0v7 M-2.5,-0.5L0,-3.0L2.5,-0.5"/>
  </g>
  <g id="arrowLeft" transform="rotate(270) translate(-36 17)">
    <use xlink:href="#rim"/>
    <path pointer-events="none" fill="none" stroke="white" stroke-width="1.5" d="M0,-3.0v7 M-2.5,-0.5L0,-3.0L2.5,-0.5"/>
  </g>
  <g id="resetDef">
    <use xlink:href="#rim2" fill="#404040"><set attributeName="fill" to="#808080" begin="reset.mouseover" end="reset.mouseout"/></use>
  </g>
</defs>
<script type="application/ecmascript">
var viewWidth = 609;
var viewHeight = 438;
var sectionId = 'dynsection-19';
</script>
<script type="application/ecmascript" xlink:href="svg.min.js"/>
<svg id="graph" class="graph">
<g id="viewport">
<title>AP_HAL::Util::malloc_type</title>
<!-- Node1 -->
<g id="Node000001" class="node">
<title>Node1</title>
<g id="a_Node000001"><a xlink:title=" ">
<polygon fill="#999999" stroke="#666666" points="601,-237.5 458,-237.5 458,-218.5 601,-218.5 601,-237.5"/>
<text text-anchor="middle" x="529.5" y="-225.5" font-family="Helvetica,sans-Serif" font-size="10.00">AP_HAL::Util::malloc_type</text>
</a>
</g>
</g>
<!-- Node2 -->
<g id="Node000002" class="node">
<title>Node2</title>
<g id="a_Node000002"><a xlink:href="classChibiOS_1_1UARTDriver.html#a41bc3dc1653b20b8bcd2bd14cdc5ba8b" target="_top" xlink:title=" ">
<polygon fill="white" stroke="#666666" points="393,-430 276,-430 276,-400 393,-400 393,-430"/>
<text text-anchor="start" x="284" y="-418" font-family="Helvetica,sans-Serif" font-size="10.00">ChibiOS::UARTDriver</text>
<text text-anchor="middle" x="334.5" y="-407" font-family="Helvetica,sans-Serif" font-size="10.00">::_begin</text>
</a>
</g>
</g>
<!-- Node1&#45;&gt;Node2 -->
<g id="edge1_Node000001_Node000002" class="edge">
<title>Node1&#45;&gt;Node2</title>
<g id="a_edge1_Node000001_Node000002"><a xlink:title=" ">
<path fill="none" stroke="#63b8ff" d="M521.32,-247.19C507.51,-281.43 473.93,-353.03 422,-391 413.45,-397.26 403.33,-401.88 393.09,-405.3"/>
<polygon fill="#63b8ff" stroke="#63b8ff" points="524.59,-248.43 524.97,-237.84 518.07,-245.88 524.59,-248.43"/>
</a>
</g>
</g>
<!-- Node3 -->
<g id="Node000003" class="node">
<title>Node3</title>
<g id="a_Node000003"><a xlink:href="classChibiOS_1_1SoftSigReader.html#a244a06413d983fe6feeff356673cf082" target="_top" xlink:title=" ">
<polygon fill="white" stroke="#666666" points="399,-382 270,-382 270,-352 399,-352 399,-382"/>
<text text-anchor="start" x="278" y="-370" font-family="Helvetica,sans-Serif" font-size="10.00">ChibiOS::SoftSigReader</text>
<text text-anchor="middle" x="334.5" y="-359" font-family="Helvetica,sans-Serif" font-size="10.00">::attach_capture_timer</text>
</a>
</g>
</g>
<!-- Node1&#45;&gt;Node3 -->
<g id="edge2_Node000001_Node000003" class="edge">
<title>Node1&#45;&gt;Node3</title>
<g id="a_edge2_Node000001_Node000003"><a xlink:title=" ">
<path fill="none" stroke="#63b8ff" d="M516.69,-246.07C499.1,-271.52 463.6,-317.65 422,-343 414.95,-347.3 407.11,-350.84 399.11,-353.77"/>
<polygon fill="#63b8ff" stroke="#63b8ff" points="519.64,-247.95 522.33,-237.7 513.84,-244.03 519.64,-247.95"/>
</a>
</g>
</g>
<!-- Node5 -->
<g id="Node000005" class="node">
<title>Node5</title>
<g id="a_Node000005"><a xlink:href="classAP__Logger__Block.html#a9c268769f4ddf3cb114609d55ed00d4b" target="_top" xlink:title=" ">
<polygon fill="white" stroke="#666666" points="395.5,-333.5 273.5,-333.5 273.5,-314.5 395.5,-314.5 395.5,-333.5"/>
<text text-anchor="middle" x="334.5" y="-321.5" font-family="Helvetica,sans-Serif" font-size="10.00">AP_Logger_Block::Init</text>
</a>
</g>
</g>
<!-- Node1&#45;&gt;Node5 -->
<g id="edge4_Node000001_Node000005" class="edge">
<title>Node1&#45;&gt;Node5</title>
<g id="a_edge4_Node000001_Node000005"><a xlink:title=" ">
<path fill="none" stroke="#63b8ff" d="M511.2,-244.37C491.27,-262.29 456.78,-290.52 422,-306 413.73,-309.68 404.68,-312.62 395.65,-314.96"/>
<polygon fill="#63b8ff" stroke="#63b8ff" points="513.56,-246.95 518.57,-237.61 508.83,-241.79 513.56,-246.95"/>
</a>
</g>
</g>
<!-- Node8 -->
<g id="Node000008" class="node">
<title>Node8</title>
<g id="a_Node000008"><a xlink:href="classAP__DAL.html#af59be9a791f80ecdb6127906be93d1da" target="_top" xlink:title=" ">
<polygon fill="white" stroke="#666666" points="394.5,-296.5 274.5,-296.5 274.5,-277.5 394.5,-277.5 394.5,-296.5"/>
<text text-anchor="middle" x="334.5" y="-284.5" font-family="Helvetica,sans-Serif" font-size="10.00">AP_DAL::malloc_type</text>
</a>
</g>
</g>
<!-- Node1&#45;&gt;Node8 -->
<g id="edge7_Node000001_Node000008" class="edge">
<title>Node1&#45;&gt;Node8</title>
<g id="a_edge7_Node000001_Node000008"><a xlink:title=" ">
<path fill="none" stroke="#63b8ff" d="M497.46,-241.49C476.46,-250.23 447.92,-261.37 422,-269 411.26,-272.16 399.61,-274.99 388.44,-277.4"/>
<polygon fill="#63b8ff" stroke="#63b8ff" points="498.97,-244.65 506.83,-237.54 496.26,-238.2 498.97,-244.65"/>
</a>
</g>
</g>
<!-- Node12 -->
<g id="Node000012" class="node">
<title>Node12</title>
<g id="a_Node000012"><a xlink:href="classAP__Networking.html#a27c1ea09416c21b25f20cf697f9daab3" target="_top" xlink:title=" ">
<polygon fill="white" stroke="#666666" points="402,-259.5 267,-259.5 267,-240.5 402,-240.5 402,-259.5"/>
<text text-anchor="middle" x="334.5" y="-247.5" font-family="Helvetica,sans-Serif" font-size="10.00">AP_Networking::sendfile</text>
</a>
</g>
</g>
<!-- Node1&#45;&gt;Node12 -->
<g id="edge12_Node000001_Node000012" class="edge">
<title>Node1&#45;&gt;Node12</title>
<g id="a_edge12_Node000001_Node000012"><a xlink:title=" ">
<path fill="none" stroke="#63b8ff" d="M447.38,-237.25C432.29,-238.97 416.68,-240.75 402.09,-242.41"/>
<polygon fill="#63b8ff" stroke="#63b8ff" points="448.19,-240.68 457.73,-236.07 447.4,-233.72 448.19,-240.68"/>
</a>
</g>
</g>
<!-- Node13 -->
<g id="Node000013" class="node">
<title>Node13</title>
<g id="a_Node000013"><a xlink:href="classChibiOS_1_1AnalogIn.html#a07e20febc3f49cf48df97bc7b1f7f576" target="_top" xlink:title=" ">
<polygon fill="white" stroke="#666666" points="389.5,-222 279.5,-222 279.5,-192 389.5,-192 389.5,-222"/>
<text text-anchor="start" x="287.5" y="-210" font-family="Helvetica,sans-Serif" font-size="10.00">ChibiOS::AnalogIn::</text>
<text text-anchor="middle" x="334.5" y="-199" font-family="Helvetica,sans-Serif" font-size="10.00">setup_adc</text>
</a>
</g>
</g>
<!-- Node1&#45;&gt;Node13 -->
<g id="edge13_Node000001_Node000013" class="edge">
<title>Node1&#45;&gt;Node13</title>
<g id="a_edge13_Node000001_Node000013"><a xlink:title=" ">
<path fill="none" stroke="#63b8ff" d="M447.6,-219.2C428.05,-217.07 407.62,-214.85 389.63,-212.89"/>
<polygon fill="#63b8ff" stroke="#63b8ff" points="447.41,-222.7 457.73,-220.3 448.17,-215.74 447.41,-222.7"/>
</a>
</g>
</g>
<!-- Node15 -->
<g id="Node000015" class="node">
<title>Node15</title>
<g id="a_Node000015"><a xlink:href="classChibiOS_1_1RCOutput.html#a36f20398587db1524c580b9255c51476" target="_top" xlink:title=" ">
<polygon fill="white" stroke="#666666" points="391,-174 278,-174 278,-144 391,-144 391,-174"/>
<text text-anchor="start" x="286" y="-162" font-family="Helvetica,sans-Serif" font-size="10.00">ChibiOS::RCOutput::</text>
<text text-anchor="middle" x="334.5" y="-151" font-family="Helvetica,sans-Serif" font-size="10.00">setup_group_DMA</text>
</a>
</g>
</g>
<!-- Node1&#45;&gt;Node15 -->
<g id="edge15_Node000001_Node000015" class="edge">
<title>Node1&#45;&gt;Node15</title>
<g id="a_edge15_Node000001_Node000015"><a xlink:title=" ">
<path fill="none" stroke="#63b8ff" d="M498.6,-214.14C477.48,-204.65 448.35,-192.18 422,-183 412.14,-179.56 401.52,-176.28 391.2,-173.31"/>
<polygon fill="#63b8ff" stroke="#63b8ff" points="497.44,-217.46 507.99,-218.4 500.33,-211.08 497.44,-217.46"/>
</a>
</g>
</g>
<!-- Node16 -->
<g id="Node000016" class="node">
<title>Node16</title>
<g id="a_Node000016"><a xlink:href="classAP__InertialSensor__Invensense.html#ad54c13370e4efffcfa2c0eece9b53239" target="_top" xlink:title=" ">
<polygon fill="white" stroke="#666666" points="416,-126 253,-126 253,-96 416,-96 416,-126"/>
<text text-anchor="start" x="261" y="-114" font-family="Helvetica,sans-Serif" font-size="10.00">AP_InertialSensor_Invensense</text>
<text text-anchor="middle" x="334.5" y="-103" font-family="Helvetica,sans-Serif" font-size="10.00">::start</text>
</a>
</g>
</g>
<!-- Node1&#45;&gt;Node16 -->
<g id="edge16_Node000001_Node000016" class="edge">
<title>Node1&#45;&gt;Node16</title>
<g id="a_edge16_Node000001_Node000016"><a xlink:title=" ">
<path fill="none" stroke="#63b8ff" d="M513.38,-210.73C494.17,-189.83 459.01,-154.94 422,-135 415.69,-131.6 408.85,-128.65 401.88,-126.09"/>
<polygon fill="#63b8ff" stroke="#63b8ff" points="510.87,-213.17 520.16,-218.25 516.07,-208.48 510.87,-213.17"/>
</a>
</g>
</g>
<!-- Node17 -->
<g id="Node000017" class="node">
<title>Node17</title>
<g id="a_Node000017"><a xlink:href="classAP__InertialSensor__Invensensev2.html#aabef6fa96d268997a2921d8e0563d34c" target="_top" xlink:title=" ">
<polygon fill="white" stroke="#666666" points="422,-78 247,-78 247,-48 422,-48 422,-78"/>
<text text-anchor="start" x="255" y="-66" font-family="Helvetica,sans-Serif" font-size="10.00">AP_InertialSensor_Invensensev2</text>
<text text-anchor="middle" x="334.5" y="-55" font-family="Helvetica,sans-Serif" font-size="10.00">::start</text>
</a>
</g>
</g>
<!-- Node1&#45;&gt;Node17 -->
<g id="edge17_Node000001_Node000017" class="edge">
<title>Node1&#45;&gt;Node17</title>
<g id="a_edge17_Node000001_Node000017"><a xlink:title=" ">
<path fill="none" stroke="#63b8ff" d="M519.54,-209.32C504.01,-178.97 469.18,-119.09 422,-87 416.97,-83.58 411.47,-80.65 405.76,-78.13"/>
<polygon fill="#63b8ff" stroke="#63b8ff" points="516.47,-211.01 524.06,-218.41 522.74,-207.89 516.47,-211.01"/>
</a>
</g>
</g>
<!-- Node18 -->
<g id="Node000018" class="node">
<title>Node18</title>
<g id="a_Node000018"><a xlink:href="classAP__InertialSensor__Invensensev3.html#a9099f3263dba777bc2e006dfaa8cd590" target="_top" xlink:title=" ">
<polygon fill="white" stroke="#666666" points="422,-30 247,-30 247,0 422,0 422,-30"/>
<text text-anchor="start" x="255" y="-18" font-family="Helvetica,sans-Serif" font-size="10.00">AP_InertialSensor_Invensensev3</text>
<text text-anchor="middle" x="334.5" y="-7" font-family="Helvetica,sans-Serif" font-size="10.00">::start</text>
</a>
</g>
</g>
<!-- Node1&#45;&gt;Node18 -->
<g id="edge18_Node000001_Node000018" class="edge">
<title>Node1&#45;&gt;Node18</title>
<g id="a_edge18_Node000001_Node000018"><a xlink:title=" ">
<path fill="none" stroke="#63b8ff" d="M523.05,-208.5C511.28,-170.03 479.77,-84.22 422,-39 417.58,-35.54 412.7,-32.58 407.56,-30.05"/>
<polygon fill="#63b8ff" stroke="#63b8ff" points="519.79,-209.81 525.97,-218.42 526.51,-207.84 519.79,-209.81"/>
</a>
</g>
</g>
<!-- Node4 -->
<g id="Node000004" class="node">
<title>Node4</title>
<g id="a_Node000004"><a xlink:href="classChibiOS_1_1RCInput.html#a5164972235059f01f832b9da3e360c42" target="_top" xlink:title=" ">
<polygon fill="white" stroke="#666666" points="204.5,-424.5 83.5,-424.5 83.5,-405.5 204.5,-405.5 204.5,-424.5"/>
<text text-anchor="middle" x="144" y="-412.5" font-family="Helvetica,sans-Serif" font-size="10.00">ChibiOS::RCInput::init</text>
</a>
</g>
</g>
<!-- Node3&#45;&gt;Node4 -->
<g id="edge3_Node000003_Node000004" class="edge">
<title>Node3&#45;&gt;Node4</title>
<g id="a_edge3_Node000003_Node000004"><a xlink:title=" ">
<path fill="none" stroke="#63b8ff" d="M264.35,-384.61C236.69,-391.65 205.93,-399.49 182.56,-405.44"/>
<polygon fill="#63b8ff" stroke="#63b8ff" points="265.55,-387.92 274.37,-382.06 263.82,-381.13 265.55,-387.92"/>
</a>
</g>
</g>
<!-- Node6 -->
<g id="Node000006" class="node">
<title>Node6</title>
<g id="a_Node000006"><a xlink:href="classAP__Logger__Flash__JEDEC.html#a7f88c68085840c7a312134f4dbd261c0" target="_top" xlink:title=" ">
<polygon fill="white" stroke="#666666" points="211,-387 77,-387 77,-357 211,-357 211,-387"/>
<text text-anchor="start" x="85" y="-375" font-family="Helvetica,sans-Serif" font-size="10.00">AP_Logger_Flash_JEDEC</text>
<text text-anchor="middle" x="144" y="-364" font-family="Helvetica,sans-Serif" font-size="10.00">::Init</text>
</a>
</g>
</g>
<!-- Node5&#45;&gt;Node6 -->
<g id="edge5_Node000005_Node000006" class="edge">
<title>Node5&#45;&gt;Node6</title>
<g id="a_edge5_Node000005_Node000006"><a xlink:title=" ">
<path fill="none" stroke="#63b8ff" d="M277.55,-335.77C267.36,-338.06 256.84,-340.52 247,-343 230.22,-347.22 212.01,-352.26 195.68,-356.93"/>
<polygon fill="#63b8ff" stroke="#63b8ff" points="278.58,-339.12 287.59,-333.54 277.07,-332.29 278.58,-339.12"/>
</a>
</g>
</g>
<!-- Node7 -->
<g id="Node000007" class="node">
<title>Node7</title>
<g id="a_Node000007"><a xlink:href="classAP__Logger__W25N01GV.html#a055dfde9685848d3a6476877f23e6d86" target="_top" xlink:title=" ">
<polygon fill="white" stroke="#666666" points="208,-339 80,-339 80,-309 208,-309 208,-339"/>
<text text-anchor="start" x="88" y="-327" font-family="Helvetica,sans-Serif" font-size="10.00">AP_Logger_W25N01GV</text>
<text text-anchor="middle" x="144" y="-316" font-family="Helvetica,sans-Serif" font-size="10.00">::Init</text>
</a>
</g>
</g>
<!-- Node5&#45;&gt;Node7 -->
<g id="edge6_Node000005_Node000007" class="edge">
<title>Node5&#45;&gt;Node7</title>
<g id="a_edge6_Node000005_Node000007"><a xlink:title=" ">
<path fill="none" stroke="#63b8ff" d="M263.17,-324C245.12,-324 225.82,-324 208.16,-324"/>
<polygon fill="#63b8ff" stroke="#63b8ff" points="263.34,-327.5 273.34,-324 263.34,-320.5 263.34,-327.5"/>
</a>
</g>
</g>
<!-- Node9 -->
<g id="Node000009" class="node">
<title>Node9</title>
<g id="a_Node000009"><a xlink:href="classNavEKF2.html#a9c447b8d84abf2dfc845ddbbbad46a2b" target="_top" xlink:title=" ">
<polygon fill="white" stroke="#666666" points="211,-290.5 77,-290.5 77,-271.5 211,-271.5 211,-290.5"/>
<text text-anchor="middle" x="144" y="-278.5" font-family="Helvetica,sans-Serif" font-size="10.00">NavEKF2::InitialiseFilter</text>
</a>
</g>
</g>
<!-- Node8&#45;&gt;Node9 -->
<g id="edge8_Node000008_Node000009" class="edge">
<title>Node8&#45;&gt;Node9</title>
<g id="a_edge8_Node000008_Node000009"><a xlink:title=" ">
<path fill="none" stroke="#63b8ff" d="M264.31,-284.8C246.94,-284.24 228.35,-283.65 211.13,-283.11"/>
<polygon fill="#63b8ff" stroke="#63b8ff" points="264.27,-288.3 274.37,-285.12 264.49,-281.3 264.27,-288.3"/>
</a>
</g>
</g>
<!-- Node11 -->
<g id="Node000011" class="node">
<title>Node11</title>
<g id="a_Node000011"><a xlink:href="classNavEKF3.html#a07f064fa513fbb6e7188141904f3b5b5" target="_top" xlink:title=" ">
<polygon fill="white" stroke="#666666" points="211,-253.5 77,-253.5 77,-234.5 211,-234.5 211,-253.5"/>
<text text-anchor="middle" x="144" y="-241.5" font-family="Helvetica,sans-Serif" font-size="10.00">NavEKF3::InitialiseFilter</text>
</a>
</g>
</g>
<!-- Node8&#45;&gt;Node11 -->
<g id="edge10_Node000008_Node000011" class="edge">
<title>Node8&#45;&gt;Node11</title>
<g id="a_edge10_Node000008_Node000011"><a xlink:title=" ">
<path fill="none" stroke="#63b8ff" d="M276.25,-275.38C266.48,-273.32 256.44,-271.14 247,-269 225.66,-264.17 201.92,-258.37 182.71,-253.58"/>
<polygon fill="#63b8ff" stroke="#63b8ff" points="275.79,-278.86 286.3,-277.49 277.23,-272.01 275.79,-278.86"/>
</a>
</g>
</g>
<!-- Node10 -->
<g id="Node000010" class="node">
<title>Node10</title>
<g id="a_Node000010"><a xlink:href="main_8cpp.html#ac0f2228420376f4db7e1274f2b41667c" target="_top" xlink:title=" ">
<polygon fill="white" stroke="#666666" points="41,-271.5 0,-271.5 0,-252.5 41,-252.5 41,-271.5"/>
<text text-anchor="middle" x="20.5" y="-259.5" font-family="Helvetica,sans-Serif" font-size="10.00">main</text>
</a>
</g>
</g>
<!-- Node9&#45;&gt;Node10 -->
<g id="edge9_Node000009_Node000010" class="edge">
<title>Node9&#45;&gt;Node10</title>
<g id="a_edge9_Node000009_Node000010"><a xlink:title=" ">
<path fill="none" stroke="#63b8ff" d="M71.9,-269.88C60.62,-268.12 49.83,-266.43 41.15,-265.07"/>
<polygon fill="#63b8ff" stroke="#63b8ff" points="71.47,-273.36 81.89,-271.44 72.55,-266.44 71.47,-273.36"/>
</a>
</g>
</g>
<!-- Node11&#45;&gt;Node10 -->
<g id="edge11_Node000011_Node000010" class="edge">
<title>Node11&#45;&gt;Node10</title>
<g id="a_edge11_Node000011_Node000010"><a xlink:title=" ">
<path fill="none" stroke="#63b8ff" d="M68.53,-255.03C58.51,-256.52 49.01,-257.92 41.21,-259.08"/>
<polygon fill="#63b8ff" stroke="#63b8ff" points="69.31,-258.45 78.69,-253.53 68.29,-251.53 69.31,-258.45"/>
</a>
</g>
</g>
<!-- Node14 -->
<g id="Node000014" class="node">
<title>Node14</title>
<g id="a_Node000014"><a xlink:href="classChibiOS_1_1AnalogIn.html#a54e9cb489c6a6982588619427cb98815" target="_top" xlink:title=" ">
<polygon fill="white" stroke="#666666" points="206.5,-216.5 81.5,-216.5 81.5,-197.5 206.5,-197.5 206.5,-216.5"/>
<text text-anchor="middle" x="144" y="-204.5" font-family="Helvetica,sans-Serif" font-size="10.00">ChibiOS::AnalogIn::init</text>
</a>
</g>
</g>
<!-- Node13&#45;&gt;Node14 -->
<g id="edge14_Node000013_Node000014" class="edge">
<title>Node13&#45;&gt;Node14</title>
<g id="a_edge14_Node000013_Node000014"><a xlink:title=" ">
<path fill="none" stroke="#63b8ff" d="M269.4,-207C249.13,-207 226.77,-207 206.66,-207"/>
<polygon fill="#63b8ff" stroke="#63b8ff" points="269.48,-210.5 279.48,-207 269.48,-203.5 269.48,-210.5"/>
</a>
</g>
</g>
</g>
</svg>

<g id="navigator" transform="translate(0 0)" fill="#404254">
  <rect fill="#f2f5e9" fill-opacity="0.5" stroke="#606060" stroke-width=".5" x="0" y="0" width="60" height="60"/>
  <use id="zoomplus" xlink:href="#zoomPlus" x="17" y="9" onmousedown="handleZoom(evt,'in')"/>
  <use id="zoomminus" xlink:href="#zoomMin" x="42" y="9" onmousedown="handleZoom(evt,'out')"/>
  <use id="reset" xlink:href="#resetDef" x="30" y="36" onmousedown="handleReset()"/>
   <use id="arrowup" xlink:href="#arrowUp" x="0" y="0" onmousedown="handlePan(0,-1)"/>
  <use id="arrowright" xlink:href="#arrowRight" x="0" y="0" onmousedown="handlePan(1,0)"/>
  <use id="arrowdown" xlink:href="#arrowDown" x="0" y="0" onmousedown="handlePan(0,1)"/>
  <use id="arrowleft" xlink:href="#arrowLeft" x="0" y="0" onmousedown="handlePan(-1,0)"/>
</g>
<svg viewBox="0 0 15 15" width="100%" height="30px" preserveAspectRatio="xMaxYMin meet">
 <g id="arrow_out" transform="scale(0.3 0.3)">
  <a xlink:href="classAP__HAL_1_1Util_ada9a9483db83d0cf1532f3e21c464602_icgraph_org.svg" target="_base">
   <rect id="button" ry="5" rx="5" y="6" x="6" height="38" width="38"
        fill="#f2f5e9" fill-opacity="0.5" stroke="#606060" stroke-width="1.0"/>
   <path id="arrow"
     d="M 11.500037,31.436501 C 11.940474,20.09759 22.043105,11.32322 32.158766,21.979434 L 37.068811,17.246167 C 37.068811,17.246167 37.088388,32 37.088388,32 L 22.160133,31.978069 C 22.160133,31.978069 26.997745,27.140456 26.997745,27.140456 C 18.528582,18.264221 13.291696,25.230495 11.500037,31.436501 z"
     style="fill:#404040;"/>
  </a>
 </g>
</svg>

<style type='text/css'>
<![CDATA[
[data-mouse-over-selected='false'] { opacity: 0.7; }
[data-mouse-over-selected='true']  { opacity: 1.0; }
]]>
</style>
<script type="application/ecmascript"><![CDATA[
document.addEventListener('DOMContentLoaded', (event) => {
  highlightEdges();
  highlightAdjacentNodes();
});
]]></script>
</svg>
