<?xml version="1.0" encoding="UTF-8" standalone="no"?>
<!DOCTYPE svg PUBLIC "-//W3C//DTD SVG 1.1//EN"
 "http://www.w3.org/Graphics/SVG/1.1/DTD/svg11.dtd">
<!-- Generated by graphviz version 2.43.0 (0)
 -->
<!-- Title: AP_InertialSensor::get_gyro_health_all Pages: 1 -->
<svg width="265pt" height="104pt"
 viewBox="0.00 0.00 265.00 104.00" xmlns="http://www.w3.org/2000/svg" xmlns:xlink="http://www.w3.org/1999/xlink">
<g id="graph0" class="graph" transform="scale(1 1) rotate(0) translate(4 100)">
<title>AP_InertialSensor::get_gyro_health_all</title>
<!-- Node1 -->
<g id="Node000001" class="node">
<title>Node1</title>
<g id="a_Node000001"><a xlink:title=" ">
<polygon fill="#999999" stroke="#666666" points="113,-63 0,-63 0,-33 113,-33 113,-63"/>
<text text-anchor="start" x="8" y="-51" font-family="Helvetica,sans-Serif" font-size="10.00">AP_InertialSensor::</text>
<text text-anchor="middle" x="56.5" y="-40" font-family="Helvetica,sans-Serif" font-size="10.00">get_gyro_health_all</text>
</a>
</g>
</g>
<!-- Node2 -->
<g id="Node000002" class="node">
<title>Node2</title>
<g id="a_Node000002"><a xlink:href="classAP__InertialSensor.html#a4a421a821c8e43665a66501624522b9d" target="_top" xlink:title=" ">
<polygon fill="white" stroke="#666666" points="257,-96 149,-96 149,-66 257,-66 257,-96"/>
<text text-anchor="start" x="157" y="-84" font-family="Helvetica,sans-Serif" font-size="10.00">AP_InertialSensor::</text>
<text text-anchor="middle" x="203" y="-73" font-family="Helvetica,sans-Serif" font-size="10.00">get_gyro_count</text>
</a>
</g>
</g>
<!-- Node1&#45;&gt;Node2 -->
<g id="edge1_Node000001_Node000002" class="edge">
<title>Node1&#45;&gt;Node2</title>
<g id="a_edge1_Node000001_Node000002"><a xlink:title=" ">
<path fill="none" stroke="#63b8ff" d="M113.37,-60.76C121.7,-62.66 130.34,-64.64 138.81,-66.57"/>
<polygon fill="#63b8ff" stroke="#63b8ff" points="138.13,-70 148.65,-68.82 139.68,-63.18 138.13,-70"/>
</a>
</g>
</g>
<!-- Node3 -->
<g id="Node000003" class="node">
<title>Node3</title>
<g id="a_Node000003"><a xlink:href="classAP__InertialSensor.html#adab0e15f297d55a8436b607627db0e5f" target="_top" xlink:title=" ">
<polygon fill="white" stroke="#666666" points="257,-30 149,-30 149,0 257,0 257,-30"/>
<text text-anchor="start" x="157" y="-18" font-family="Helvetica,sans-Serif" font-size="10.00">AP_InertialSensor::</text>
<text text-anchor="middle" x="203" y="-7" font-family="Helvetica,sans-Serif" font-size="10.00">get_gyro_health</text>
</a>
</g>
</g>
<!-- Node1&#45;&gt;Node3 -->
<g id="edge2_Node000001_Node000003" class="edge">
<title>Node1&#45;&gt;Node3</title>
<g id="a_edge2_Node000001_Node000003"><a xlink:title=" ">
<path fill="none" stroke="#63b8ff" d="M113.37,-35.24C121.7,-33.34 130.34,-31.36 138.81,-29.43"/>
<polygon fill="#63b8ff" stroke="#63b8ff" points="139.68,-32.82 148.65,-27.18 138.13,-26 139.68,-32.82"/>
</a>
</g>
</g>
<!-- Node3&#45;&gt;Node3 -->
<g id="edge3_Node000003_Node000003" class="edge">
<title>Node3&#45;&gt;Node3</title>
<g id="a_edge3_Node000003_Node000003"><a xlink:title=" ">
<path fill="none" stroke="#63b8ff" d="M177.34,-30.28C171.63,-39.41 180.19,-48 203,-48 216.54,-48 225.06,-44.97 228.56,-40.6"/>
<polygon fill="#63b8ff" stroke="#63b8ff" points="232.06,-40.31 228.66,-30.28 225.06,-40.24 232.06,-40.31"/>
</a>
</g>
</g>
</g>
</svg>
