<?xml version="1.0" encoding="UTF-8" standalone="no"?>
<!DOCTYPE svg PUBLIC "-//W3C//DTD SVG 1.1//EN"
 "http://www.w3.org/Graphics/SVG/1.1/DTD/svg11.dtd">
<!-- Generated by graphviz version 2.43.0 (0)
 -->
<!-- Title: AP_Spektrum_Telem Pages: 1 -->
<svg width="335pt" height="247pt"
 viewBox="0.00 0.00 335.00 247.00" xmlns="http://www.w3.org/2000/svg" xmlns:xlink="http://www.w3.org/1999/xlink">
<g id="graph0" class="graph" transform="scale(1 1) rotate(0) translate(4 243)">
<title>AP_Spektrum_Telem</title>
<!-- Node1 -->
<g id="Node000001" class="node">
<title>Node1</title>
<g id="a_Node000001"><a xlink:title=" ">
<polygon fill="#999999" stroke="#666666" points="250,-19 134,-19 134,0 250,0 250,-19"/>
<text text-anchor="middle" x="192" y="-7" font-family="Helvetica,sans-Serif" font-size="10.00">AP_Spektrum_Telem</text>
</a>
</g>
</g>
<!-- Node1&#45;&gt;Node1 -->
<g id="edge6_Node000001_Node000001" class="edge">
<title>Node1&#45;&gt;Node1</title>
<g id="a_edge6_Node000001_Node000001"><a xlink:title=" ">
<path fill="none" stroke="#9a32cd" stroke-dasharray="5,2" d="M260.48,-13.84C265.16,-12.84 268,-11.39 268,-9.5 268,-6.47 260.73,-4.59 250.31,-3.85"/>
<polygon fill="#9a32cd" stroke="#9a32cd" points="259.78,-10.4 250.31,-15.15 260.68,-17.34 259.78,-10.4"/>
</a>
</g>
<text text-anchor="middle" x="292.5" y="-7" font-family="Helvetica,sans-Serif" font-size="10.00" fill="grey"> singleton</text>
</g>
<!-- Node2 -->
<g id="Node000002" class="node">
<title>Node2</title>
<g id="a_Node000002"><a xlink:href="classAP__RCTelemetry.html" target="_top" xlink:title=" ">
<polygon fill="white" stroke="#666666" points="112.5,-90.5 15.5,-90.5 15.5,-71.5 112.5,-71.5 112.5,-90.5"/>
<text text-anchor="middle" x="64" y="-78.5" font-family="Helvetica,sans-Serif" font-size="10.00">AP_RCTelemetry</text>
</a>
</g>
</g>
<!-- Node2&#45;&gt;Node1 -->
<g id="edge1_Node000001_Node000002" class="edge">
<title>Node2&#45;&gt;Node1</title>
<g id="a_edge1_Node000001_Node000002"><a xlink:title=" ">
<path fill="none" stroke="#63b8ff" d="M88.51,-66.69C114.33,-52.67 154.23,-31.01 176.18,-19.09"/>
<polygon fill="#63b8ff" stroke="#63b8ff" points="86.81,-63.63 79.7,-71.48 90.15,-69.78 86.81,-63.63"/>
</a>
</g>
</g>
<!-- Node3 -->
<g id="Node000003" class="node">
<title>Node3</title>
<g id="a_Node000003"><a xlink:href="classObjectBuffer.html" target="_top" xlink:title=" ">
<polygon fill="white" stroke="#666666" points="128,-173 0,-173 0,-143 128,-143 128,-173"/>
<text text-anchor="start" x="8" y="-161" font-family="Helvetica,sans-Serif" font-size="10.00">ObjectBuffer&lt; mavlink</text>
<text text-anchor="middle" x="64" y="-150" font-family="Helvetica,sans-Serif" font-size="10.00">_statustext_t &gt;</text>
</a>
</g>
</g>
<!-- Node3&#45;&gt;Node2 -->
<g id="edge2_Node000002_Node000003" class="edge">
<title>Node3&#45;&gt;Node2</title>
<g id="a_edge2_Node000002_Node000003"><a xlink:title=" ">
<path fill="none" stroke="#9a32cd" stroke-dasharray="5,2" d="M64,-132.68C64,-118.36 64,-101.11 64,-90.87"/>
<polygon fill="#9a32cd" stroke="#9a32cd" points="60.5,-132.89 64,-142.89 67.5,-132.89 60.5,-132.89"/>
</a>
</g>
<text text-anchor="middle" x="81" y="-117" font-family="Helvetica,sans-Serif" font-size="10.00" fill="grey"> queue</text>
</g>
<!-- Node4 -->
<g id="Node000004" class="node">
<title>Node4</title>
<g id="a_Node000004"><a xlink:href="classByteBuffer.html" target="_top" xlink:title=" ">
<polygon fill="white" stroke="#666666" points="98,-239 30,-239 30,-220 98,-220 98,-239"/>
<text text-anchor="middle" x="64" y="-227" font-family="Helvetica,sans-Serif" font-size="10.00">ByteBuffer</text>
</a>
</g>
</g>
<!-- Node4&#45;&gt;Node3 -->
<g id="edge3_Node000003_Node000004" class="edge">
<title>Node4&#45;&gt;Node3</title>
<g id="a_edge3_Node000003_Node000004"><a xlink:title=" ">
<path fill="none" stroke="#9a32cd" stroke-dasharray="5,2" d="M64,-209.71C64,-198.19 64,-183.68 64,-173.14"/>
<polygon fill="#9a32cd" stroke="#9a32cd" points="60.5,-209.98 64,-219.98 67.5,-209.98 60.5,-209.98"/>
</a>
</g>
<text text-anchor="middle" x="80" y="-194" font-family="Helvetica,sans-Serif" font-size="10.00" fill="grey"> buffer</text>
</g>
<!-- Node5 -->
<g id="Node000005" class="node">
<title>Node5</title>
<g id="a_Node000005"><a xlink:href="structAP__Spektrum__Telem_1_1MessageChunk.html" target="_top" xlink:title=" ">
<polygon fill="white" stroke="#666666" points="253,-96 131,-96 131,-66 253,-66 253,-96"/>
<text text-anchor="start" x="139" y="-84" font-family="Helvetica,sans-Serif" font-size="10.00">AP_Spektrum_Telem::</text>
<text text-anchor="middle" x="192" y="-73" font-family="Helvetica,sans-Serif" font-size="10.00">MessageChunk</text>
</a>
</g>
</g>
<!-- Node5&#45;&gt;Node1 -->
<g id="edge4_Node000001_Node000005" class="edge">
<title>Node5&#45;&gt;Node1</title>
<g id="a_edge4_Node000001_Node000005"><a xlink:title=" ">
<path fill="none" stroke="#9a32cd" stroke-dasharray="5,2" d="M192,-55.56C192,-42.95 192,-28.35 192,-19.27"/>
<polygon fill="#9a32cd" stroke="#9a32cd" points="188.5,-55.94 192,-65.94 195.5,-55.94 188.5,-55.94"/>
</a>
</g>
<text text-anchor="middle" x="224" y="-40" font-family="Helvetica,sans-Serif" font-size="10.00" fill="grey"> _msg_chunk</text>
</g>
<!-- Node6 -->
<g id="Node000006" class="node">
<title>Node6</title>
<g id="a_Node000006"><a xlink:href="unionPACKED.html" target="_top" xlink:title=" ">
<polygon fill="white" stroke="#666666" points="327,-90.5 271,-90.5 271,-71.5 327,-71.5 327,-90.5"/>
<text text-anchor="middle" x="299" y="-78.5" font-family="Helvetica,sans-Serif" font-size="10.00">PACKED</text>
</a>
</g>
</g>
<!-- Node6&#45;&gt;Node1 -->
<g id="edge5_Node000001_Node000006" class="edge">
<title>Node6&#45;&gt;Node1</title>
<g id="a_edge5_Node000001_Node000006"><a xlink:title=" ">
<path fill="none" stroke="#9a32cd" stroke-dasharray="5,2" d="M286.88,-63.25C279.84,-54.48 270.34,-44.11 260,-37 248.73,-29.24 234.86,-23.31 222.6,-19.05"/>
<polygon fill="#9a32cd" stroke="#9a32cd" points="284.19,-65.49 293.04,-71.31 289.75,-61.24 284.19,-65.49"/>
</a>
</g>
<text text-anchor="middle" x="290.5" y="-40" font-family="Helvetica,sans-Serif" font-size="10.00" fill="grey"> _telem</text>
</g>
</g>
</svg>
