<?xml version="1.0" encoding="UTF-8" standalone="no"?>
<!DOCTYPE svg PUBLIC "-//W3C//DTD SVG 1.1//EN"
 "http://www.w3.org/Graphics/SVG/1.1/DTD/svg11.dtd">
<!-- Generated by graphviz version 2.43.0 (0)
 -->
<!-- Title: Compass::get_healthy_mask Pages: 1 -->
<svg width="306pt" height="45pt"
 viewBox="0.00 0.00 306.00 45.00" xmlns="http://www.w3.org/2000/svg" xmlns:xlink="http://www.w3.org/1999/xlink">
<g id="graph0" class="graph" transform="scale(1 1) rotate(0) translate(4 41)">
<title>Compass::get_healthy_mask</title>
<!-- Node1 -->
<g id="Node000001" class="node">
<title>Node1</title>
<g id="a_Node000001"><a xlink:title=" ">
<polygon fill="#999999" stroke="#666666" points="158,-19 0,-19 0,0 158,0 158,-19"/>
<text text-anchor="middle" x="79" y="-7" font-family="Helvetica,sans-Serif" font-size="10.00">Compass::get_healthy_mask</text>
</a>
</g>
</g>
<!-- Node2 -->
<g id="Node000002" class="node">
<title>Node2</title>
<g id="a_Node000002"><a xlink:href="classCompass.html#a76b5ecbd5bd613d28b1172834d3a8db9" target="_top" xlink:title=" ">
<polygon fill="white" stroke="#666666" points="298,-19 194,-19 194,0 298,0 298,-19"/>
<text text-anchor="middle" x="246" y="-7" font-family="Helvetica,sans-Serif" font-size="10.00">Compass::healthy</text>
</a>
</g>
</g>
<!-- Node1&#45;&gt;Node2 -->
<g id="edge1_Node000001_Node000002" class="edge">
<title>Node1&#45;&gt;Node2</title>
<g id="a_edge1_Node000001_Node000002"><a xlink:title=" ">
<path fill="none" stroke="#63b8ff" d="M158.15,-9.5C166.8,-9.5 175.51,-9.5 183.9,-9.5"/>
<polygon fill="#63b8ff" stroke="#63b8ff" points="183.95,-13 193.95,-9.5 183.95,-6 183.95,-13"/>
</a>
</g>
</g>
<!-- Node2&#45;&gt;Node2 -->
<g id="edge2_Node000002_Node000002" class="edge">
<title>Node2&#45;&gt;Node2</title>
<g id="a_edge2_Node000002_Node000002"><a xlink:title=" ">
<path fill="none" stroke="#63b8ff" d="M220.41,-19.08C207.97,-27.73 216.5,-37 246,-37 265.36,-37 275.69,-33.01 276.99,-27.82"/>
<polygon fill="#63b8ff" stroke="#63b8ff" points="279.82,-25.75 271.59,-19.08 273.87,-29.43 279.82,-25.75"/>
</a>
</g>
</g>
</g>
</svg>
