<?xml version="1.0" encoding="UTF-8" standalone="no"?>
<!DOCTYPE svg PUBLIC "-//W3C//DTD SVG 1.1//EN"
 "http://www.w3.org/Graphics/SVG/1.1/DTD/svg11.dtd">
<!-- Generated by graphviz version 2.43.0 (0)
 -->
<!-- Title: AP_Scheduler::time_available_usec Pages: 1 -->
<svg width="1448pt" height="127pt"
 viewBox="0.00 0.00 1448.00 126.50" xmlns="http://www.w3.org/2000/svg" xmlns:xlink="http://www.w3.org/1999/xlink">
<g id="graph0" class="graph" transform="scale(1 1) rotate(0) translate(4 122.5)">
<title>AP_Scheduler::time_available_usec</title>
<!-- Node1 -->
<g id="Node000001" class="node">
<title>Node1</title>
<g id="a_Node000001"><a xlink:title=" ">
<polygon fill="#999999" stroke="#666666" points="1440,-69.5 1329,-69.5 1329,-39.5 1440,-39.5 1440,-69.5"/>
<text text-anchor="start" x="1337" y="-57.5" font-family="Helvetica,sans-Serif" font-size="10.00">AP_Scheduler::time</text>
<text text-anchor="middle" x="1384.5" y="-46.5" font-family="Helvetica,sans-Serif" font-size="10.00">_available_usec</text>
</a>
</g>
</g>
<!-- Node2 -->
<g id="Node000002" class="node">
<title>Node2</title>
<g id="a_Node000002"><a xlink:href="classLoggerMessageWriter.html#a3799369e697b49b4015e3ca97efd0f0b" target="_top" xlink:title=" ">
<polygon fill="white" stroke="#666666" points="1293,-51 1154,-51 1154,-10 1293,-10 1293,-51"/>
<text text-anchor="start" x="1162" y="-39" font-family="Helvetica,sans-Serif" font-size="10.00">LoggerMessageWriter</text>
<text text-anchor="start" x="1162" y="-28" font-family="Helvetica,sans-Serif" font-size="10.00">::out_of_time_for_writing</text>
<text text-anchor="middle" x="1223.5" y="-17" font-family="Helvetica,sans-Serif" font-size="10.00">_messages</text>
</a>
</g>
</g>
<!-- Node1&#45;&gt;Node2 -->
<g id="edge1_Node000001_Node000002" class="edge">
<title>Node1&#45;&gt;Node2</title>
<g id="a_edge1_Node000001_Node000002"><a xlink:title=" ">
<path fill="none" stroke="#63b8ff" d="M1318.64,-44.71C1310.22,-43.44 1301.57,-42.13 1293.08,-40.85"/>
<polygon fill="#63b8ff" stroke="#63b8ff" points="1318.37,-48.21 1328.78,-46.24 1319.42,-41.29 1318.37,-48.21"/>
</a>
</g>
</g>
<!-- Node3 -->
<g id="Node000003" class="node">
<title>Node3</title>
<g id="a_Node000003"><a xlink:href="classLoggerMessageWriter__DFLogStart.html#aca01e483aa1c85d494f911b6ef56b8f1" target="_top" xlink:title=" ">
<polygon fill="white" stroke="#666666" points="1118,-100 946,-100 946,-59 1118,-59 1118,-100"/>
<text text-anchor="start" x="954" y="-88" font-family="Helvetica,sans-Serif" font-size="10.00">LoggerMessageWriter</text>
<text text-anchor="start" x="954" y="-77" font-family="Helvetica,sans-Serif" font-size="10.00">_DFLogStart::out_of</text>
<text text-anchor="middle" x="1032" y="-66" font-family="Helvetica,sans-Serif" font-size="10.00">_time_for_writing_messages_df</text>
</a>
</g>
</g>
<!-- Node1&#45;&gt;Node3 -->
<g id="edge11_Node000001_Node000003" class="edge">
<title>Node1&#45;&gt;Node3</title>
<g id="a_edge11_Node000001_Node000003"><a xlink:title=" ">
<path fill="none" stroke="#63b8ff" d="M1318.5,-59.14C1262.01,-63.17 1179.78,-69.03 1118.07,-73.43"/>
<polygon fill="#63b8ff" stroke="#63b8ff" points="1319.01,-62.61 1328.73,-58.41 1318.51,-55.63 1319.01,-62.61"/>
</a>
</g>
</g>
<!-- Node2&#45;&gt;Node3 -->
<g id="edge2_Node000002_Node000003" class="edge">
<title>Node2&#45;&gt;Node3</title>
<g id="a_edge2_Node000002_Node000003"><a xlink:title=" ">
<path fill="none" stroke="#63b8ff" d="M1143.93,-50.82C1133.51,-53.51 1122.82,-56.27 1112.39,-58.97"/>
<polygon fill="#63b8ff" stroke="#63b8ff" points="1145.01,-54.15 1153.82,-48.26 1143.26,-47.37 1145.01,-54.15"/>
</a>
</g>
</g>
<!-- Node11 -->
<g id="Node000011" class="node">
<title>Node11</title>
<g id="a_Node000011"><a xlink:href="classLoggerMessageWriter__WriteEntireMission.html#a127dde52029477e76337de37aa9403f7" target="_top" xlink:title=" ">
<polygon fill="white" stroke="#666666" points="1093.5,-41 970.5,-41 970.5,0 1093.5,0 1093.5,-41"/>
<text text-anchor="start" x="978.5" y="-29" font-family="Helvetica,sans-Serif" font-size="10.00">LoggerMessageWriter</text>
<text text-anchor="start" x="978.5" y="-18" font-family="Helvetica,sans-Serif" font-size="10.00">_WriteEntireMission</text>
<text text-anchor="middle" x="1032" y="-7" font-family="Helvetica,sans-Serif" font-size="10.00">::process</text>
</a>
</g>
</g>
<!-- Node2&#45;&gt;Node11 -->
<g id="edge10_Node000002_Node000011" class="edge">
<title>Node2&#45;&gt;Node11</title>
<g id="a_edge10_Node000002_Node000011"><a xlink:title=" ">
<path fill="none" stroke="#63b8ff" d="M1143.53,-26.33C1126.85,-25.45 1109.49,-24.54 1093.61,-23.7"/>
<polygon fill="#63b8ff" stroke="#63b8ff" points="1143.65,-29.84 1153.82,-26.88 1144.02,-22.85 1143.65,-29.84"/>
</a>
</g>
</g>
<!-- Node4 -->
<g id="Node000004" class="node">
<title>Node4</title>
<g id="a_Node000004"><a xlink:href="classLoggerMessageWriter__DFLogStart.html#a620900808df16dda045b143c17bb0670" target="_top" xlink:title=" ">
<polygon fill="white" stroke="#666666" points="910,-94.5 787,-94.5 787,-64.5 910,-64.5 910,-94.5"/>
<text text-anchor="start" x="795" y="-82.5" font-family="Helvetica,sans-Serif" font-size="10.00">LoggerMessageWriter</text>
<text text-anchor="middle" x="848.5" y="-71.5" font-family="Helvetica,sans-Serif" font-size="10.00">_DFLogStart::process</text>
</a>
</g>
</g>
<!-- Node3&#45;&gt;Node4 -->
<g id="edge3_Node000003_Node000004" class="edge">
<title>Node3&#45;&gt;Node4</title>
<g id="a_edge3_Node000003_Node000004"><a xlink:title=" ">
<path fill="none" stroke="#63b8ff" d="M935.64,-79.5C926.96,-79.5 918.34,-79.5 910.1,-79.5"/>
<polygon fill="#63b8ff" stroke="#63b8ff" points="935.83,-83 945.83,-79.5 935.83,-76 935.83,-83"/>
</a>
</g>
</g>
<!-- Node5 -->
<g id="Node000005" class="node">
<title>Node5</title>
<g id="a_Node000005"><a xlink:href="classAP__Logger__Backend.html#a70bac8d1493337dc4345af22ef99c799" target="_top" xlink:title=" ">
<polygon fill="white" stroke="#666666" points="751,-94.5 599,-94.5 599,-64.5 751,-64.5 751,-94.5"/>
<text text-anchor="start" x="607" y="-82.5" font-family="Helvetica,sans-Serif" font-size="10.00">AP_Logger_Backend::</text>
<text text-anchor="middle" x="675" y="-71.5" font-family="Helvetica,sans-Serif" font-size="10.00">WriteMoreStartupMessages</text>
</a>
</g>
</g>
<!-- Node4&#45;&gt;Node5 -->
<g id="edge4_Node000004_Node000005" class="edge">
<title>Node4&#45;&gt;Node5</title>
<g id="a_edge4_Node000004_Node000005"><a xlink:title=" ">
<path fill="none" stroke="#63b8ff" d="M776.48,-79.5C768.12,-79.5 759.57,-79.5 751.16,-79.5"/>
<polygon fill="#63b8ff" stroke="#63b8ff" points="776.55,-83 786.55,-79.5 776.55,-76 776.55,-83"/>
</a>
</g>
</g>
<!-- Node6 -->
<g id="Node000006" class="node">
<title>Node6</title>
<g id="a_Node000006"><a xlink:href="classAP__Logger__Backend.html#af2057bbd5422205c3ebb4bd6528b4876" target="_top" xlink:title=" ">
<polygon fill="white" stroke="#666666" points="563,-94.5 443,-94.5 443,-64.5 563,-64.5 563,-94.5"/>
<text text-anchor="start" x="451" y="-82.5" font-family="Helvetica,sans-Serif" font-size="10.00">AP_Logger_Backend::</text>
<text text-anchor="middle" x="503" y="-71.5" font-family="Helvetica,sans-Serif" font-size="10.00">push_log_blocks</text>
</a>
</g>
</g>
<!-- Node5&#45;&gt;Node6 -->
<g id="edge5_Node000005_Node000006" class="edge">
<title>Node5&#45;&gt;Node6</title>
<g id="a_edge5_Node000005_Node000006"><a xlink:title=" ">
<path fill="none" stroke="#63b8ff" d="M588.77,-79.5C580.08,-79.5 571.4,-79.5 563.09,-79.5"/>
<polygon fill="#63b8ff" stroke="#63b8ff" points="588.94,-83 598.94,-79.5 588.94,-76 588.94,-83"/>
</a>
</g>
</g>
<!-- Node7 -->
<g id="Node000007" class="node">
<title>Node7</title>
<g id="a_Node000007"><a xlink:href="classAP__Logger__Backend.html#a90c5f87edad21be54246ee10e2a94838" target="_top" xlink:title=" ">
<polygon fill="white" stroke="#666666" points="375,-118.5 255,-118.5 255,-88.5 375,-88.5 375,-118.5"/>
<text text-anchor="start" x="263" y="-106.5" font-family="Helvetica,sans-Serif" font-size="10.00">AP_Logger_Backend::</text>
<text text-anchor="middle" x="315" y="-95.5" font-family="Helvetica,sans-Serif" font-size="10.00">periodic_fullrate</text>
</a>
</g>
</g>
<!-- Node6&#45;&gt;Node7 -->
<g id="edge6_Node000006_Node000007" class="edge">
<title>Node6&#45;&gt;Node7</title>
<g id="a_edge6_Node000006_Node000007"><a xlink:title=" ">
<path fill="none" stroke="#63b8ff" d="M432.85,-88.42C413.92,-90.86 393.59,-93.49 375.27,-95.85"/>
<polygon fill="#63b8ff" stroke="#63b8ff" points="433.42,-91.88 442.89,-87.13 432.53,-84.94 433.42,-91.88"/>
</a>
</g>
</g>
<!-- Node9 -->
<g id="Node000009" class="node">
<title>Node9</title>
<g id="a_Node000009"><a xlink:href="classAP__Logger__Backend.html#a9343c876a19ea69c49771b070f4e18fd" target="_top" xlink:title=" ">
<polygon fill="white" stroke="#666666" points="407,-70.5 223,-70.5 223,-40.5 407,-40.5 407,-70.5"/>
<text text-anchor="start" x="231" y="-58.5" font-family="Helvetica,sans-Serif" font-size="10.00">AP_Logger_Backend::</text>
<text text-anchor="middle" x="315" y="-47.5" font-family="Helvetica,sans-Serif" font-size="10.00">WriteBlockCheckStartupMessages</text>
</a>
</g>
</g>
<!-- Node6&#45;&gt;Node9 -->
<g id="edge8_Node000006_Node000009" class="edge">
<title>Node6&#45;&gt;Node9</title>
<g id="a_edge8_Node000006_Node000009"><a xlink:title=" ">
<path fill="none" stroke="#63b8ff" d="M432.85,-70.58C424.48,-69.5 415.84,-68.38 407.22,-67.27"/>
<polygon fill="#63b8ff" stroke="#63b8ff" points="432.53,-74.06 442.89,-71.87 433.42,-67.12 432.53,-74.06"/>
</a>
</g>
</g>
<!-- Node8 -->
<g id="Node000008" class="node">
<title>Node8</title>
<g id="a_Node000008"><a xlink:href="classAP__Logger__Backend.html#a3acb85cdb9cbd47a202d89ca50830810" target="_top" xlink:title=" ">
<polygon fill="white" stroke="#666666" points="153.5,-118.5 33.5,-118.5 33.5,-88.5 153.5,-88.5 153.5,-118.5"/>
<text text-anchor="start" x="41.5" y="-106.5" font-family="Helvetica,sans-Serif" font-size="10.00">AP_Logger_Backend::</text>
<text text-anchor="middle" x="93.5" y="-95.5" font-family="Helvetica,sans-Serif" font-size="10.00">periodic_tasks</text>
</a>
</g>
</g>
<!-- Node7&#45;&gt;Node8 -->
<g id="edge7_Node000007_Node000008" class="edge">
<title>Node7&#45;&gt;Node8</title>
<g id="a_edge7_Node000007_Node000008"><a xlink:title=" ">
<path fill="none" stroke="#63b8ff" d="M244.75,-103.5C215.5,-103.5 181.79,-103.5 153.72,-103.5"/>
<polygon fill="#63b8ff" stroke="#63b8ff" points="244.89,-107 254.89,-103.5 244.89,-100 244.89,-107"/>
</a>
</g>
</g>
<!-- Node10 -->
<g id="Node000010" class="node">
<title>Node10</title>
<g id="a_Node000010"><a xlink:href="classAP__Logger__Block.html#aca670ce37c20dcdad7c4b9cf40a37005" target="_top" xlink:title=" ">
<polygon fill="white" stroke="#666666" points="187,-70.5 0,-70.5 0,-40.5 187,-40.5 187,-70.5"/>
<text text-anchor="start" x="8" y="-58.5" font-family="Helvetica,sans-Serif" font-size="10.00">AP_Logger_Block::_WritePrioritised</text>
<text text-anchor="middle" x="93.5" y="-47.5" font-family="Helvetica,sans-Serif" font-size="10.00">Block</text>
</a>
</g>
</g>
<!-- Node9&#45;&gt;Node10 -->
<g id="edge9_Node000009_Node000010" class="edge">
<title>Node9&#45;&gt;Node10</title>
<g id="a_edge9_Node000009_Node000010"><a xlink:title=" ">
<path fill="none" stroke="#63b8ff" d="M212.54,-55.5C204.08,-55.5 195.56,-55.5 187.17,-55.5"/>
<polygon fill="#63b8ff" stroke="#63b8ff" points="212.82,-59 222.82,-55.5 212.82,-52 212.82,-59"/>
</a>
</g>
</g>
</g>
</svg>
