<?xml version="1.0" encoding="UTF-8" standalone="no"?>
<!DOCTYPE svg PUBLIC "-//W3C//DTD SVG 1.1//EN"
 "http://www.w3.org/Graphics/SVG/1.1/DTD/svg11.dtd">
<!-- Generated by graphviz version 2.43.0 (0)
 -->
<!-- Title: GCS_MAVLINK::send_text Pages: 1 -->
<!--zoomable 263 -->

<svg id="main" version="1.1" xmlns="http://www.w3.org/2000/svg" xmlns:xlink="http://www.w3.org/1999/xlink" xml:space="preserve" onload="init(evt)">
<style type="text/css"><![CDATA[
.node, .edge {opacity: 0.7;}
.node.selected, .edge.selected {opacity: 1;}
.edge:hover path { stroke: red; }
.edge:hover polygon { stroke: red; fill: red; }
]]></style>

<defs>
  <circle id="rim" cx="0" cy="0" r="7"/>
  <circle id="rim2" cx="0" cy="0" r="3.5"/>
  <g id="zoomPlus">
    <use xlink:href="#rim" fill="#404040"><set attributeName="fill" to="#808080" begin="zoomplus.mouseover" end="zoomplus.mouseout"/></use>
    <path d="M-4,0h8M0,-4v8" fill="none" stroke="white" stroke-width="1.5" pointer-events="none"/>
  </g>
  <g id="zoomMin">
    <use xlink:href="#rim" fill="#404040"><set attributeName="fill" to="#808080" begin="zoomminus.mouseover" end="zoomminus.mouseout"/></use>
    <path d="M-4,0h8" fill="none" stroke="white" stroke-width="1.5" pointer-events="none"/>
  </g>
  <g id="arrowUp" transform="translate(30 24)">
    <use xlink:href="#rim"/>
    <path pointer-events="none" fill="none" stroke="white" stroke-width="1.5" d="M0,-3.0v7 M-2.5,-0.5L0,-3.0L2.5,-0.5"/>
  </g>
  <g id="arrowRight" transform="rotate(90) translate(36 -43)">
    <use xlink:href="#rim"/>
    <path pointer-events="none" fill="none" stroke="white" stroke-width="1.5" d="M0,-3.0v7 M-2.5,-0.5L0,-3.0L2.5,-0.5"/>
  </g>
  <g id="arrowDown" transform="rotate(180) translate(-30 -48)">
    <use xlink:href="#rim"/>
    <path pointer-events="none" fill="none" stroke="white" stroke-width="1.5" d="M0,-3.0v7 M-2.5,-0.5L0,-3.0L2.5,-0.5"/>
  </g>
  <g id="arrowLeft" transform="rotate(270) translate(-36 17)">
    <use xlink:href="#rim"/>
    <path pointer-events="none" fill="none" stroke="white" stroke-width="1.5" d="M0,-3.0v7 M-2.5,-0.5L0,-3.0L2.5,-0.5"/>
  </g>
  <g id="resetDef">
    <use xlink:href="#rim2" fill="#404040"><set attributeName="fill" to="#808080" begin="reset.mouseover" end="reset.mouseout"/></use>
  </g>
</defs>
<script type="application/ecmascript">
var viewWidth = 1809;
var viewHeight = 263;
var sectionId = 'dynsection-339';
</script>
<script type="application/ecmascript" xlink:href="svg.min.js"/>
<svg id="graph" class="graph">
<g id="viewport">
<title>GCS_MAVLINK::send_text</title>
<!-- Node1 -->
<g id="Node000001" class="node">
<title>Node1</title>
<g id="a_Node000001"><a xlink:title=" ">
<polygon fill="#999999" stroke="#666666" points="1801,-156.5 1661,-156.5 1661,-137.5 1801,-137.5 1801,-156.5"/>
<text text-anchor="middle" x="1731" y="-144.5" font-family="Helvetica,sans-Serif" font-size="10.00">GCS_MAVLINK::send_text</text>
</a>
</g>
</g>
<!-- Node2 -->
<g id="Node000002" class="node">
<title>Node2</title>
<g id="a_Node000002"><a xlink:href="classGCS__MAVLINK.html#aad725bb94f05a7304fba0e90ae63b60b" target="_top" xlink:title=" ">
<polygon fill="white" stroke="#666666" points="1430,-205 1304,-205 1304,-175 1430,-175 1430,-205"/>
<text text-anchor="start" x="1312" y="-193" font-family="Helvetica,sans-Serif" font-size="10.00">GCS_MAVLINK::handle</text>
<text text-anchor="middle" x="1367" y="-182" font-family="Helvetica,sans-Serif" font-size="10.00">_command_int_packet</text>
</a>
</g>
</g>
<!-- Node1&#45;&gt;Node2 -->
<g id="edge1_Node000001_Node000002" class="edge">
<title>Node1&#45;&gt;Node2</title>
<g id="a_edge1_Node000001_Node000002"><a xlink:title=" ">
<path fill="none" stroke="#63b8ff" d="M1650.7,-157.75C1642.03,-158.87 1633.33,-159.97 1625,-161 1558.49,-169.19 1482.18,-177.68 1430.1,-183.35"/>
<polygon fill="#63b8ff" stroke="#63b8ff" points="1651.37,-161.19 1660.84,-156.42 1650.47,-154.25 1651.37,-161.19"/>
</a>
</g>
</g>
<!-- Node9 -->
<g id="Node000009" class="node">
<title>Node9</title>
<g id="a_Node000009"><a xlink:href="classGCS__MAVLINK.html#a36bcd3f0187cce183627e4f97c00050a" target="_top" xlink:title=" ">
<polygon fill="white" stroke="#666666" points="1610,-243 1485,-243 1485,-213 1610,-213 1610,-243"/>
<text text-anchor="start" x="1493" y="-231" font-family="Helvetica,sans-Serif" font-size="10.00">GCS_MAVLINK::handle</text>
<text text-anchor="middle" x="1547.5" y="-220" font-family="Helvetica,sans-Serif" font-size="10.00">_preflight_reboot</text>
</a>
</g>
</g>
<!-- Node1&#45;&gt;Node9 -->
<g id="edge9_Node000001_Node000009" class="edge">
<title>Node1&#45;&gt;Node9</title>
<g id="a_edge9_Node000001_Node000009"><a xlink:title=" ">
<path fill="none" stroke="#63b8ff" d="M1703.07,-161.24C1682.06,-172.13 1652.01,-187.23 1625,-199 1613.93,-203.82 1601.78,-208.64 1590.49,-212.93"/>
<polygon fill="#63b8ff" stroke="#63b8ff" points="1704.8,-164.29 1712.04,-156.56 1701.56,-158.08 1704.8,-164.29"/>
</a>
</g>
</g>
<!-- Node10 -->
<g id="Node000010" class="node">
<title>Node10</title>
<g id="a_Node000010"><a xlink:href="classGCS__MAVLINK.html#ad2e4c48ff9427f8ff3b47c3b63751fe1" target="_top" xlink:title=" ">
<polygon fill="white" stroke="#666666" points="876,-162 751,-162 751,-132 876,-132 876,-162"/>
<text text-anchor="start" x="759" y="-150" font-family="Helvetica,sans-Serif" font-size="10.00">GCS_MAVLINK::handle</text>
<text text-anchor="middle" x="813.5" y="-139" font-family="Helvetica,sans-Serif" font-size="10.00">_setup_signing</text>
</a>
</g>
</g>
<!-- Node1&#45;&gt;Node10 -->
<g id="edge11_Node000001_Node000010" class="edge">
<title>Node1&#45;&gt;Node10</title>
<g id="a_edge11_Node000001_Node000010"><a xlink:title=" ">
<path fill="none" stroke="#63b8ff" d="M1650.85,-147C1577.52,-147 1465.39,-147 1368,-147 1368,-147 1368,-147 1183,-147 1075.04,-147 949.29,-147 876.11,-147"/>
<polygon fill="#63b8ff" stroke="#63b8ff" points="1650.94,-150.5 1660.94,-147 1650.94,-143.5 1650.94,-150.5"/>
</a>
</g>
</g>
<!-- Node11 -->
<g id="Node000011" class="node">
<title>Node11</title>
<g id="a_Node000011"><a xlink:href="classGCS__MAVLINK.html#adcf424c726b3b459b5c9f5346236224a" target="_top" xlink:title=" ">
<polygon fill="white" stroke="#666666" points="1625,-116.5 1470,-116.5 1470,-97.5 1625,-97.5 1625,-116.5"/>
<text text-anchor="middle" x="1547.5" y="-104.5" font-family="Helvetica,sans-Serif" font-size="10.00">GCS_MAVLINK::send_banner</text>
</a>
</g>
</g>
<!-- Node1&#45;&gt;Node11 -->
<g id="edge13_Node000001_Node000011" class="edge">
<title>Node1&#45;&gt;Node11</title>
<g id="a_edge13_Node000001_Node000011"><a xlink:title=" ">
<path fill="none" stroke="#63b8ff" d="M1676.45,-135.2C1649.41,-129.24 1617.03,-122.1 1591.62,-116.5"/>
<polygon fill="#63b8ff" stroke="#63b8ff" points="1676.01,-138.68 1686.53,-137.42 1677.51,-131.85 1676.01,-138.68"/>
</a>
</g>
</g>
<!-- Node19 -->
<g id="Node000019" class="node">
<title>Node19</title>
<g id="a_Node000019"><a xlink:href="classGCS__MAVLINK.html#ae3225e833fb2cec2762f10b4ae49d85f" target="_top" xlink:title=" ">
<polygon fill="white" stroke="#666666" points="702,-30 529,-30 529,0 702,0 702,-30"/>
<text text-anchor="start" x="537" y="-18" font-family="Helvetica,sans-Serif" font-size="10.00">GCS_MAVLINK::send_received</text>
<text text-anchor="middle" x="615.5" y="-7" font-family="Helvetica,sans-Serif" font-size="10.00">_message_deprecation_warning</text>
</a>
</g>
</g>
<!-- Node1&#45;&gt;Node19 -->
<g id="edge24_Node000001_Node000019" class="edge">
<title>Node1&#45;&gt;Node19</title>
<g id="a_edge24_Node000001_Node000019"><a xlink:title=" ">
<path fill="none" stroke="#63b8ff" d="M1706.79,-131.78C1650.93,-96.68 1503.57,-13 1368,-13 1368,-13 1368,-13 995.5,-13 894.83,-13 779.11,-13.71 702.3,-14.29"/>
<polygon fill="#63b8ff" stroke="#63b8ff" points="1705.23,-134.94 1715.55,-137.36 1708.99,-129.04 1705.23,-134.94"/>
</a>
</g>
</g>
<!-- Node3 -->
<g id="Node000003" class="node">
<title>Node3</title>
<g id="a_Node000003"><a xlink:href="classGCS__MAVLINK.html#ab28430148b209e9c4446c1f168d6dc13" target="_top" xlink:title=" ">
<polygon fill="white" stroke="#666666" points="1059,-248 934,-248 934,-218 1059,-218 1059,-248"/>
<text text-anchor="start" x="942" y="-236" font-family="Helvetica,sans-Serif" font-size="10.00">GCS_MAVLINK::handle</text>
<text text-anchor="middle" x="996.5" y="-225" font-family="Helvetica,sans-Serif" font-size="10.00">_command_int</text>
</a>
</g>
</g>
<!-- Node2&#45;&gt;Node3 -->
<g id="edge2_Node000002_Node000003" class="edge">
<title>Node2&#45;&gt;Node3</title>
<g id="a_edge2_Node000002_Node000003"><a xlink:title=" ">
<path fill="none" stroke="#63b8ff" d="M1299.61,-207.24C1287.81,-209.84 1275.59,-212.23 1264,-214 1194.3,-224.62 1113.42,-229.32 1059.2,-231.4"/>
<polygon fill="#63b8ff" stroke="#63b8ff" points="1300.42,-210.64 1309.4,-205.02 1298.87,-203.82 1300.42,-210.64"/>
</a>
</g>
</g>
<!-- Node7 -->
<g id="Node000007" class="node">
<title>Node7</title>
<g id="a_Node000007"><a xlink:href="classGCS__MAVLINK.html#aa87b593b8787bc584f535ab05a10a348" target="_top" xlink:title=" ">
<polygon fill="white" stroke="#666666" points="1264,-205 1104,-205 1104,-175 1264,-175 1264,-205"/>
<text text-anchor="start" x="1112" y="-193" font-family="Helvetica,sans-Serif" font-size="10.00">GCS_MAVLINK::try_command</text>
<text text-anchor="middle" x="1184" y="-182" font-family="Helvetica,sans-Serif" font-size="10.00">_long_as_command_int</text>
</a>
</g>
</g>
<!-- Node2&#45;&gt;Node7 -->
<g id="edge6_Node000002_Node000007" class="edge">
<title>Node2&#45;&gt;Node7</title>
<g id="a_edge6_Node000002_Node000007"><a xlink:title=" ">
<path fill="none" stroke="#63b8ff" d="M1293.92,-190C1284.16,-190 1274.1,-190 1264.23,-190"/>
<polygon fill="#63b8ff" stroke="#63b8ff" points="1293.96,-193.5 1303.96,-190 1293.96,-186.5 1293.96,-193.5"/>
</a>
</g>
</g>
<!-- Node4 -->
<g id="Node000004" class="node">
<title>Node4</title>
<g id="a_Node000004"><a xlink:href="classGCS__MAVLINK.html#a04524aa4f259e8c03bcfe2d06fc53f62" target="_top" xlink:title=" ">
<polygon fill="white" stroke="#666666" points="493,-140 368,-140 368,-110 493,-110 493,-140"/>
<text text-anchor="start" x="376" y="-128" font-family="Helvetica,sans-Serif" font-size="10.00">GCS_MAVLINK::handle</text>
<text text-anchor="middle" x="430.5" y="-117" font-family="Helvetica,sans-Serif" font-size="10.00">_message</text>
</a>
</g>
</g>
<!-- Node3&#45;&gt;Node4 -->
<g id="edge3_Node000003_Node000004" class="edge">
<title>Node3&#45;&gt;Node4</title>
<g id="a_edge3_Node000003_Node000004"><a xlink:title=" ">
<path fill="none" stroke="#63b8ff" d="M923.76,-244.78C829.3,-257.07 659.91,-267.85 529,-214 491.06,-198.39 458.51,-161.1 442.36,-140.08"/>
<polygon fill="#63b8ff" stroke="#63b8ff" points="924.33,-248.24 933.78,-243.44 923.4,-241.3 924.33,-248.24"/>
</a>
</g>
</g>
<!-- Node5 -->
<g id="Node000005" class="node">
<title>Node5</title>
<g id="a_Node000005"><a xlink:href="classGCS__MAVLINK.html#a68afd5b3679a046f48da0b4a202bd572" target="_top" xlink:title=" ">
<polygon fill="white" stroke="#666666" points="332,-134.5 162,-134.5 162,-115.5 332,-115.5 332,-134.5"/>
<text text-anchor="middle" x="247" y="-122.5" font-family="Helvetica,sans-Serif" font-size="10.00">GCS_MAVLINK::packetReceived</text>
</a>
</g>
</g>
<!-- Node4&#45;&gt;Node5 -->
<g id="edge4_Node000004_Node000005" class="edge">
<title>Node4&#45;&gt;Node5</title>
<g id="a_edge4_Node000004_Node000005"><a xlink:title=" ">
<path fill="none" stroke="#63b8ff" d="M357.66,-125C349.25,-125 340.6,-125 332.03,-125"/>
<polygon fill="#63b8ff" stroke="#63b8ff" points="357.8,-128.5 367.8,-125 357.8,-121.5 357.8,-128.5"/>
</a>
</g>
</g>
<!-- Node6 -->
<g id="Node000006" class="node">
<title>Node6</title>
<g id="a_Node000006"><a xlink:href="classGCS__MAVLINK.html#ac22097067827164c0c26e7ead36b21e7" target="_top" xlink:title=" ">
<polygon fill="white" stroke="#666666" points="126,-140 0,-140 0,-110 126,-110 126,-140"/>
<text text-anchor="start" x="8" y="-128" font-family="Helvetica,sans-Serif" font-size="10.00">GCS_MAVLINK::update</text>
<text text-anchor="middle" x="63" y="-117" font-family="Helvetica,sans-Serif" font-size="10.00">_receive</text>
</a>
</g>
</g>
<!-- Node5&#45;&gt;Node6 -->
<g id="edge5_Node000005_Node000006" class="edge">
<title>Node5&#45;&gt;Node6</title>
<g id="a_edge5_Node000005_Node000006"><a xlink:title=" ">
<path fill="none" stroke="#63b8ff" d="M151.77,-125C143.12,-125 134.5,-125 126.24,-125"/>
<polygon fill="#63b8ff" stroke="#63b8ff" points="151.93,-128.5 161.93,-125 151.93,-121.5 151.93,-128.5"/>
</a>
</g>
</g>
<!-- Node8 -->
<g id="Node000008" class="node">
<title>Node8</title>
<g id="a_Node000008"><a xlink:href="classGCS__MAVLINK.html#a7f6b8344d6c1a148756206b679a60e73" target="_top" xlink:title=" ">
<polygon fill="white" stroke="#666666" points="678,-205 553,-205 553,-175 678,-175 678,-205"/>
<text text-anchor="start" x="561" y="-193" font-family="Helvetica,sans-Serif" font-size="10.00">GCS_MAVLINK::handle</text>
<text text-anchor="middle" x="615.5" y="-182" font-family="Helvetica,sans-Serif" font-size="10.00">_command_long</text>
</a>
</g>
</g>
<!-- Node7&#45;&gt;Node8 -->
<g id="edge7_Node000007_Node000008" class="edge">
<title>Node7&#45;&gt;Node8</title>
<g id="a_edge7_Node000007_Node000008"><a xlink:title=" ">
<path fill="none" stroke="#63b8ff" d="M1093.67,-190C977.71,-190 778.36,-190 678.01,-190"/>
<polygon fill="#63b8ff" stroke="#63b8ff" points="1093.93,-193.5 1103.93,-190 1093.93,-186.5 1093.93,-193.5"/>
</a>
</g>
</g>
<!-- Node8&#45;&gt;Node4 -->
<g id="edge8_Node000008_Node000004" class="edge">
<title>Node8&#45;&gt;Node4</title>
<g id="a_edge8_Node000008_Node000004"><a xlink:title=" ">
<path fill="none" stroke="#63b8ff" d="M559.55,-171.6C549.37,-168.13 538.85,-164.49 529,-161 510.12,-154.31 489.28,-146.66 471.73,-140.13"/>
<polygon fill="#63b8ff" stroke="#63b8ff" points="558.57,-174.97 569.16,-174.87 560.82,-168.34 558.57,-174.97"/>
</a>
</g>
</g>
<!-- Node9&#45;&gt;Node2 -->
<g id="edge10_Node000009_Node000002" class="edge">
<title>Node9&#45;&gt;Node2</title>
<g id="a_edge10_Node000009_Node000002"><a xlink:title=" ">
<path fill="none" stroke="#63b8ff" d="M1474.75,-212.73C1460.03,-209.59 1444.64,-206.32 1430.29,-203.26"/>
<polygon fill="#63b8ff" stroke="#63b8ff" points="1474.31,-216.21 1484.82,-214.87 1475.77,-209.36 1474.31,-216.21"/>
</a>
</g>
</g>
<!-- Node10&#45;&gt;Node4 -->
<g id="edge12_Node000010_Node000004" class="edge">
<title>Node10&#45;&gt;Node4</title>
<g id="a_edge12_Node000010_Node000004"><a xlink:title=" ">
<path fill="none" stroke="#63b8ff" d="M740.59,-142.85C669.12,-138.72 560.66,-132.46 493.05,-128.55"/>
<polygon fill="#63b8ff" stroke="#63b8ff" points="740.68,-146.36 750.86,-143.44 741.08,-139.37 740.68,-146.36"/>
</a>
</g>
</g>
<!-- Node11&#45;&gt;Node2 -->
<g id="edge14_Node000011_Node000002" class="edge">
<title>Node11&#45;&gt;Node2</title>
<g id="a_edge14_Node000011_Node000002"><a xlink:title=" ">
<path fill="none" stroke="#63b8ff" d="M1516.68,-120.87C1484.49,-135.83 1433.39,-159.59 1400.27,-174.99"/>
<polygon fill="#63b8ff" stroke="#63b8ff" points="1518.43,-123.91 1526.02,-116.52 1515.48,-117.56 1518.43,-123.91"/>
</a>
</g>
</g>
<!-- Node12 -->
<g id="Node000012" class="node">
<title>Node12</title>
<g id="a_Node000012"><a xlink:href="classGCS__MAVLINK.html#a654165e4013cd7980e576e9e887899f2" target="_top" xlink:title=" ">
<polygon fill="white" stroke="#666666" points="1429.5,-71 1304.5,-71 1304.5,-41 1429.5,-41 1429.5,-71"/>
<text text-anchor="start" x="1312.5" y="-59" font-family="Helvetica,sans-Serif" font-size="10.00">GCS_MAVLINK::handle</text>
<text text-anchor="middle" x="1367" y="-48" font-family="Helvetica,sans-Serif" font-size="10.00">_param_request_list</text>
</a>
</g>
</g>
<!-- Node11&#45;&gt;Node12 -->
<g id="edge15_Node000011_Node000012" class="edge">
<title>Node11&#45;&gt;Node12</title>
<g id="a_edge15_Node000011_Node000012"><a xlink:title=" ">
<path fill="none" stroke="#63b8ff" d="M1503.07,-94.59C1478.25,-87.5 1446.94,-78.56 1420.72,-71.06"/>
<polygon fill="#63b8ff" stroke="#63b8ff" points="1502.35,-98.03 1512.93,-97.41 1504.27,-91.29 1502.35,-98.03"/>
</a>
</g>
</g>
<!-- Node14 -->
<g id="Node000014" class="node">
<title>Node14</title>
<g id="a_Node000014"><a xlink:href="classGCS__MAVLINK.html#a39c9deda5abc83c7d06e861bc226aad5" target="_top" xlink:title=" ">
<polygon fill="white" stroke="#666666" points="1434,-119 1300,-119 1300,-89 1434,-89 1434,-119"/>
<text text-anchor="start" x="1308" y="-107" font-family="Helvetica,sans-Serif" font-size="10.00">GCS_MAVLINK::send_ftp</text>
<text text-anchor="middle" x="1367" y="-96" font-family="Helvetica,sans-Serif" font-size="10.00">_reply</text>
</a>
</g>
</g>
<!-- Node11&#45;&gt;Node14 -->
<g id="edge18_Node000011_Node000014" class="edge">
<title>Node11&#45;&gt;Node14</title>
<g id="a_edge18_Node000011_Node000014"><a xlink:title=" ">
<path fill="none" stroke="#63b8ff" d="M1459.67,-105.54C1451.04,-105.4 1442.37,-105.25 1434.01,-105.11"/>
<polygon fill="#63b8ff" stroke="#63b8ff" points="1459.71,-109.04 1469.76,-105.71 1459.82,-102.04 1459.71,-109.04"/>
</a>
</g>
</g>
<!-- Node13 -->
<g id="Node000013" class="node">
<title>Node13</title>
<g id="a_Node000013"><a xlink:href="classGCS__MAVLINK.html#a690e269d849da0d657ea0fe2634acbcb" target="_top" xlink:title=" ">
<polygon fill="white" stroke="#666666" points="889,-74 738,-74 738,-44 889,-44 889,-74"/>
<text text-anchor="start" x="746" y="-62" font-family="Helvetica,sans-Serif" font-size="10.00">GCS_MAVLINK::handle</text>
<text text-anchor="middle" x="813.5" y="-51" font-family="Helvetica,sans-Serif" font-size="10.00">_common_param_message</text>
</a>
</g>
</g>
<!-- Node12&#45;&gt;Node13 -->
<g id="edge16_Node000012_Node000013" class="edge">
<title>Node12&#45;&gt;Node13</title>
<g id="a_edge16_Node000012_Node000013"><a xlink:title=" ">
<path fill="none" stroke="#63b8ff" d="M1294.18,-56.39C1189.45,-56.96 995.75,-58.01 889.34,-58.59"/>
<polygon fill="#63b8ff" stroke="#63b8ff" points="1294.36,-59.89 1304.34,-56.34 1294.32,-52.89 1294.36,-59.89"/>
</a>
</g>
</g>
<!-- Node13&#45;&gt;Node4 -->
<g id="edge17_Node000013_Node000004" class="edge">
<title>Node13&#45;&gt;Node4</title>
<g id="a_edge17_Node000013_Node000004"><a xlink:title=" ">
<path fill="none" stroke="#63b8ff" d="M727.84,-57.42C670.81,-58.26 594.36,-63.09 529,-80 503.55,-86.58 476.56,-99.57 457.44,-109.9"/>
<polygon fill="#63b8ff" stroke="#63b8ff" points="727.94,-60.92 737.9,-57.31 727.86,-53.92 727.94,-60.92"/>
</a>
</g>
</g>
<!-- Node15 -->
<g id="Node000015" class="node">
<title>Node15</title>
<g id="a_Node000015"><a xlink:href="classGCS__MAVLINK.html#a86be322b6c1a26c5c917d2a45c8b91e4" target="_top" xlink:title=" ">
<polygon fill="white" stroke="#666666" points="1251,-119 1117,-119 1117,-89 1251,-89 1251,-119"/>
<text text-anchor="start" x="1125" y="-107" font-family="Helvetica,sans-Serif" font-size="10.00">GCS_MAVLINK::ftp_push</text>
<text text-anchor="middle" x="1184" y="-96" font-family="Helvetica,sans-Serif" font-size="10.00">_replies</text>
</a>
</g>
</g>
<!-- Node14&#45;&gt;Node15 -->
<g id="edge19_Node000014_Node000015" class="edge">
<title>Node14&#45;&gt;Node15</title>
<g id="a_edge19_Node000014_Node000015"><a xlink:title=" ">
<path fill="none" stroke="#63b8ff" d="M1289.73,-104C1276.94,-104 1263.75,-104 1251.24,-104"/>
<polygon fill="#63b8ff" stroke="#63b8ff" points="1289.89,-107.5 1299.89,-104 1289.89,-100.5 1289.89,-107.5"/>
</a>
</g>
</g>
<!-- Node16 -->
<g id="Node000016" class="node">
<title>Node16</title>
<g id="a_Node000016"><a xlink:href="classGCS__MAVLINK.html#ab30c1437af0af0e19ed4c864188c78d3" target="_top" xlink:title=" ">
<polygon fill="white" stroke="#666666" points="1068,-113.5 925,-113.5 925,-94.5 1068,-94.5 1068,-113.5"/>
<text text-anchor="middle" x="996.5" y="-101.5" font-family="Helvetica,sans-Serif" font-size="10.00">GCS_MAVLINK::ftp_worker</text>
</a>
</g>
</g>
<!-- Node15&#45;&gt;Node16 -->
<g id="edge20_Node000015_Node000016" class="edge">
<title>Node15&#45;&gt;Node16</title>
<g id="a_edge20_Node000015_Node000016"><a xlink:title=" ">
<path fill="none" stroke="#63b8ff" d="M1106.68,-104C1093.9,-104 1080.68,-104 1068.06,-104"/>
<polygon fill="#63b8ff" stroke="#63b8ff" points="1106.82,-107.5 1116.82,-104 1106.82,-100.5 1106.82,-107.5"/>
</a>
</g>
</g>
<!-- Node17 -->
<g id="Node000017" class="node">
<title>Node17</title>
<g id="a_Node000017"><a xlink:href="classGCS__MAVLINK.html#a79018dbfafc49eecfebce8a9c8e7819e" target="_top" xlink:title=" ">
<polygon fill="white" stroke="#666666" points="876.5,-113.5 750.5,-113.5 750.5,-94.5 876.5,-94.5 876.5,-113.5"/>
<text text-anchor="middle" x="813.5" y="-101.5" font-family="Helvetica,sans-Serif" font-size="10.00">GCS_MAVLINK::ftp_init</text>
</a>
</g>
</g>
<!-- Node16&#45;&gt;Node17 -->
<g id="edge21_Node000016_Node000017" class="edge">
<title>Node16&#45;&gt;Node17</title>
<g id="a_edge21_Node000016_Node000017"><a xlink:title=" ">
<path fill="none" stroke="#63b8ff" d="M914.61,-104C901.88,-104 888.9,-104 876.68,-104"/>
<polygon fill="#63b8ff" stroke="#63b8ff" points="914.74,-107.5 924.74,-104 914.74,-100.5 914.74,-107.5"/>
</a>
</g>
</g>
<!-- Node18 -->
<g id="Node000018" class="node">
<title>Node18</title>
<g id="a_Node000018"><a xlink:href="classGCS__MAVLINK.html#a1b57878ddd125d1a984fbd5b60f1f0c0" target="_top" xlink:title=" ">
<polygon fill="white" stroke="#666666" points="678,-119 553,-119 553,-89 678,-89 678,-119"/>
<text text-anchor="start" x="561" y="-107" font-family="Helvetica,sans-Serif" font-size="10.00">GCS_MAVLINK::handle</text>
<text text-anchor="middle" x="615.5" y="-96" font-family="Helvetica,sans-Serif" font-size="10.00">_file_transfer_protocol</text>
</a>
</g>
</g>
<!-- Node17&#45;&gt;Node18 -->
<g id="edge22_Node000017_Node000018" class="edge">
<title>Node17&#45;&gt;Node18</title>
<g id="a_edge22_Node000017_Node000018"><a xlink:title=" ">
<path fill="none" stroke="#63b8ff" d="M740.29,-104C719.87,-104 697.85,-104 678.11,-104"/>
<polygon fill="#63b8ff" stroke="#63b8ff" points="740.48,-107.5 750.48,-104 740.48,-100.5 740.48,-107.5"/>
</a>
</g>
</g>
<!-- Node18&#45;&gt;Node4 -->
<g id="edge23_Node000018_Node000004" class="edge">
<title>Node18&#45;&gt;Node4</title>
<g id="a_edge23_Node000018_Node000004"><a xlink:title=" ">
<path fill="none" stroke="#63b8ff" d="M542.75,-112.23C526.39,-114.11 509.14,-116.09 493.24,-117.91"/>
<polygon fill="#63b8ff" stroke="#63b8ff" points="543.26,-115.7 552.8,-111.08 542.47,-108.74 543.26,-115.7"/>
</a>
</g>
</g>
<!-- Node19&#45;&gt;Node4 -->
<g id="edge25_Node000019_Node000004" class="edge">
<title>Node19&#45;&gt;Node4</title>
<g id="a_edge25_Node000019_Node000004"><a xlink:title=" ">
<path fill="none" stroke="#63b8ff" d="M554.49,-33.86C545.73,-37.44 536.97,-41.49 529,-46 497.14,-64.01 465.1,-92.4 446.85,-109.8"/>
<polygon fill="#63b8ff" stroke="#63b8ff" points="555.93,-37.06 563.97,-30.16 553.39,-30.53 555.93,-37.06"/>
</a>
</g>
</g>
</g>
</svg>

<g id="navigator" transform="translate(0 0)" fill="#404254">
  <rect fill="#f2f5e9" fill-opacity="0.5" stroke="#606060" stroke-width=".5" x="0" y="0" width="60" height="60"/>
  <use id="zoomplus" xlink:href="#zoomPlus" x="17" y="9" onmousedown="handleZoom(evt,'in')"/>
  <use id="zoomminus" xlink:href="#zoomMin" x="42" y="9" onmousedown="handleZoom(evt,'out')"/>
  <use id="reset" xlink:href="#resetDef" x="30" y="36" onmousedown="handleReset()"/>
   <use id="arrowup" xlink:href="#arrowUp" x="0" y="0" onmousedown="handlePan(0,-1)"/>
  <use id="arrowright" xlink:href="#arrowRight" x="0" y="0" onmousedown="handlePan(1,0)"/>
  <use id="arrowdown" xlink:href="#arrowDown" x="0" y="0" onmousedown="handlePan(0,1)"/>
  <use id="arrowleft" xlink:href="#arrowLeft" x="0" y="0" onmousedown="handlePan(-1,0)"/>
</g>
<svg viewBox="0 0 15 15" width="100%" height="30px" preserveAspectRatio="xMaxYMin meet">
 <g id="arrow_out" transform="scale(0.3 0.3)">
  <a xlink:href="classGCS__MAVLINK_a97f1ae6658f9cf86cb94562e5fe4bc7f_icgraph_org.svg" target="_base">
   <rect id="button" ry="5" rx="5" y="6" x="6" height="38" width="38"
        fill="#f2f5e9" fill-opacity="0.5" stroke="#606060" stroke-width="1.0"/>
   <path id="arrow"
     d="M 11.500037,31.436501 C 11.940474,20.09759 22.043105,11.32322 32.158766,21.979434 L 37.068811,17.246167 C 37.068811,17.246167 37.088388,32 37.088388,32 L 22.160133,31.978069 C 22.160133,31.978069 26.997745,27.140456 26.997745,27.140456 C 18.528582,18.264221 13.291696,25.230495 11.500037,31.436501 z"
     style="fill:#404040;"/>
  </a>
 </g>
</svg>

<style type='text/css'>
<![CDATA[
[data-mouse-over-selected='false'] { opacity: 0.7; }
[data-mouse-over-selected='true']  { opacity: 1.0; }
]]>
</style>
<script type="application/ecmascript"><![CDATA[
document.addEventListener('DOMContentLoaded', (event) => {
  highlightEdges();
  highlightAdjacentNodes();
});
]]></script>
</svg>
