<?xml version="1.0" encoding="UTF-8" standalone="no"?>
<!DOCTYPE svg PUBLIC "-//W3C//DTD SVG 1.1//EN"
 "http://www.w3.org/Graphics/SVG/1.1/DTD/svg11.dtd">
<!-- Generated by graphviz version 2.43.0 (0)
 -->
<!-- Title: Linux::SPIDeviceManager Pages: 1 -->
<svg width="266pt" height="93pt"
 viewBox="0.00 0.00 266.00 93.00" xmlns="http://www.w3.org/2000/svg" xmlns:xlink="http://www.w3.org/1999/xlink">
<g id="graph0" class="graph" transform="scale(1 1) rotate(0) translate(4 89)">
<title>Linux::SPIDeviceManager</title>
<!-- Node1 -->
<g id="Node000001" class="node">
<title>Node1</title>
<g id="a_Node000001"><a xlink:title=" ">
<polygon fill="#999999" stroke="#666666" points="215,-19 75,-19 75,0 215,0 215,-19"/>
<text text-anchor="middle" x="145" y="-7" font-family="Helvetica,sans-Serif" font-size="10.00">Linux::SPIDeviceManager</text>
</a>
</g>
</g>
<!-- Node2 -->
<g id="Node000002" class="node">
<title>Node2</title>
<g id="a_Node000002"><a xlink:href="classAP__HAL_1_1SPIDeviceManager.html" target="_top" xlink:title=" ">
<polygon fill="white" stroke="#666666" points="152,-85 0,-85 0,-66 152,-66 152,-85"/>
<text text-anchor="middle" x="76" y="-73" font-family="Helvetica,sans-Serif" font-size="10.00">AP_HAL::SPIDeviceManager</text>
</a>
</g>
</g>
<!-- Node2&#45;&gt;Node1 -->
<g id="edge1_Node000001_Node000002" class="edge">
<title>Node2&#45;&gt;Node1</title>
<g id="a_edge1_Node000001_Node000002"><a xlink:title=" ">
<path fill="none" stroke="#63b8ff" d="M92.89,-58.83C106.25,-46.44 124.42,-29.59 135.4,-19.41"/>
<polygon fill="#63b8ff" stroke="#63b8ff" points="90.26,-56.5 85.31,-65.87 95.02,-61.63 90.26,-56.5"/>
</a>
</g>
</g>
<!-- Node3 -->
<g id="Node000003" class="node">
<title>Node3</title>
<g id="a_Node000003"><a xlink:href="structLinux_1_1SPIDesc.html" target="_top" xlink:title=" ">
<polygon fill="white" stroke="#666666" points="258,-85 170,-85 170,-66 258,-66 258,-85"/>
<text text-anchor="middle" x="214" y="-73" font-family="Helvetica,sans-Serif" font-size="10.00">Linux::SPIDesc</text>
</a>
</g>
</g>
<!-- Node3&#45;&gt;Node1 -->
<g id="edge2_Node000001_Node000003" class="edge">
<title>Node3&#45;&gt;Node1</title>
<g id="a_edge2_Node000001_Node000003"><a xlink:title=" ">
<path fill="none" stroke="#9a32cd" stroke-dasharray="5,2" d="M197.11,-58.83C183.75,-46.44 165.58,-29.59 154.6,-19.41"/>
<polygon fill="#9a32cd" stroke="#9a32cd" points="194.98,-61.63 204.69,-65.87 199.74,-56.5 194.98,-61.63"/>
</a>
</g>
<text text-anchor="middle" x="203.5" y="-40" font-family="Helvetica,sans-Serif" font-size="10.00" fill="grey"> _device</text>
</g>
</g>
</svg>
