<?xml version="1.0" encoding="UTF-8" standalone="no"?>
<!DOCTYPE svg PUBLIC "-//W3C//DTD SVG 1.1//EN"
 "http://www.w3.org/Graphics/SVG/1.1/DTD/svg11.dtd">
<!-- Generated by graphviz version 2.43.0 (0)
 -->
<!-- Title: GCS_MAVLINK::is_private Pages: 1 -->
<!--zoomable 183 -->

<svg id="main" version="1.1" xmlns="http://www.w3.org/2000/svg" xmlns:xlink="http://www.w3.org/1999/xlink" xml:space="preserve" onload="init(evt)">
<style type="text/css"><![CDATA[
.node, .edge {opacity: 0.7;}
.node.selected, .edge.selected {opacity: 1;}
.edge:hover path { stroke: red; }
.edge:hover polygon { stroke: red; fill: red; }
]]></style>

<defs>
  <circle id="rim" cx="0" cy="0" r="7"/>
  <circle id="rim2" cx="0" cy="0" r="3.5"/>
  <g id="zoomPlus">
    <use xlink:href="#rim" fill="#404040"><set attributeName="fill" to="#808080" begin="zoomplus.mouseover" end="zoomplus.mouseout"/></use>
    <path d="M-4,0h8M0,-4v8" fill="none" stroke="white" stroke-width="1.5" pointer-events="none"/>
  </g>
  <g id="zoomMin">
    <use xlink:href="#rim" fill="#404040"><set attributeName="fill" to="#808080" begin="zoomminus.mouseover" end="zoomminus.mouseout"/></use>
    <path d="M-4,0h8" fill="none" stroke="white" stroke-width="1.5" pointer-events="none"/>
  </g>
  <g id="arrowUp" transform="translate(30 24)">
    <use xlink:href="#rim"/>
    <path pointer-events="none" fill="none" stroke="white" stroke-width="1.5" d="M0,-3.0v7 M-2.5,-0.5L0,-3.0L2.5,-0.5"/>
  </g>
  <g id="arrowRight" transform="rotate(90) translate(36 -43)">
    <use xlink:href="#rim"/>
    <path pointer-events="none" fill="none" stroke="white" stroke-width="1.5" d="M0,-3.0v7 M-2.5,-0.5L0,-3.0L2.5,-0.5"/>
  </g>
  <g id="arrowDown" transform="rotate(180) translate(-30 -48)">
    <use xlink:href="#rim"/>
    <path pointer-events="none" fill="none" stroke="white" stroke-width="1.5" d="M0,-3.0v7 M-2.5,-0.5L0,-3.0L2.5,-0.5"/>
  </g>
  <g id="arrowLeft" transform="rotate(270) translate(-36 17)">
    <use xlink:href="#rim"/>
    <path pointer-events="none" fill="none" stroke="white" stroke-width="1.5" d="M0,-3.0v7 M-2.5,-0.5L0,-3.0L2.5,-0.5"/>
  </g>
  <g id="resetDef">
    <use xlink:href="#rim2" fill="#404040"><set attributeName="fill" to="#808080" begin="reset.mouseover" end="reset.mouseout"/></use>
  </g>
</defs>
<script type="application/ecmascript">
var viewWidth = 796;
var viewHeight = 183;
var sectionId = 'dynsection-209';
</script>
<script type="application/ecmascript" xlink:href="svg.min.js"/>
<svg id="graph" class="graph">
<g id="viewport">
<title>GCS_MAVLINK::is_private</title>
<!-- Node1 -->
<g id="Node000001" class="node">
<title>Node1</title>
<g id="a_Node000001"><a xlink:title=" ">
<polygon fill="#999999" stroke="#666666" points="788,-95 648,-95 648,-76 788,-76 788,-95"/>
<text text-anchor="middle" x="718" y="-83" font-family="Helvetica,sans-Serif" font-size="10.00">GCS_MAVLINK::is_private</text>
</a>
</g>
</g>
<!-- Node2 -->
<g id="Node000002" class="node">
<title>Node2</title>
<g id="a_Node000002"><a xlink:href="classMAVLink__routing.html#ad89763391270649c9763f22505b005ea" target="_top" xlink:title=" ">
<polygon fill="white" stroke="#666666" points="612,-143.5 479,-143.5 479,-113.5 612,-113.5 612,-143.5"/>
<text text-anchor="start" x="487" y="-131.5" font-family="Helvetica,sans-Serif" font-size="10.00">MAVLink_routing::check</text>
<text text-anchor="middle" x="545.5" y="-120.5" font-family="Helvetica,sans-Serif" font-size="10.00">_and_forward</text>
</a>
</g>
</g>
<!-- Node1&#45;&gt;Node2 -->
<g id="edge1_Node000001_Node000002" class="edge">
<title>Node1&#45;&gt;Node2</title>
<g id="a_edge1_Node000001_Node000002"><a xlink:title=" ">
<path fill="none" stroke="#63b8ff" d="M669.23,-97.55C649.62,-102.49 626.69,-108.28 606,-113.49"/>
<polygon fill="#63b8ff" stroke="#63b8ff" points="670.32,-100.88 679.16,-95.04 668.61,-94.09 670.32,-100.88"/>
</a>
</g>
</g>
<!-- Node6 -->
<g id="Node000006" class="node">
<title>Node6</title>
<g id="a_Node000006"><a xlink:href="classGCS.html#ad303c099a0fc8035085a95d1d14eec0c" target="_top" xlink:title=" ">
<polygon fill="white" stroke="#666666" points="603.5,-76.5 487.5,-76.5 487.5,-46.5 603.5,-46.5 603.5,-76.5"/>
<text text-anchor="start" x="495.5" y="-64.5" font-family="Helvetica,sans-Serif" font-size="10.00">GCS::send_to_active</text>
<text text-anchor="middle" x="545.5" y="-53.5" font-family="Helvetica,sans-Serif" font-size="10.00">_channels</text>
</a>
</g>
</g>
<!-- Node1&#45;&gt;Node6 -->
<g id="edge5_Node000001_Node000006" class="edge">
<title>Node1&#45;&gt;Node6</title>
<g id="a_edge5_Node000001_Node000006"><a xlink:title=" ">
<path fill="none" stroke="#63b8ff" d="M639.16,-74.54C627.23,-72.86 615.09,-71.16 603.71,-69.55"/>
<polygon fill="#63b8ff" stroke="#63b8ff" points="638.73,-78.02 649.12,-75.95 639.71,-71.09 638.73,-78.02"/>
</a>
</g>
</g>
<!-- Node3 -->
<g id="Node000003" class="node">
<title>Node3</title>
<g id="a_Node000003"><a xlink:href="routing_8cpp.html#afe461d27b9c48d5921c00d521181f12f" target="_top" xlink:title=" ">
<polygon fill="white" stroke="#666666" points="377,-175 339,-175 339,-156 377,-156 377,-175"/>
<text text-anchor="middle" x="358" y="-163" font-family="Helvetica,sans-Serif" font-size="10.00">loop</text>
</a>
</g>
</g>
<!-- Node2&#45;&gt;Node3 -->
<g id="edge2_Node000002_Node000003" class="edge">
<title>Node2&#45;&gt;Node3</title>
<g id="a_edge2_Node000002_Node000003"><a xlink:title=" ">
<path fill="none" stroke="#63b8ff" d="M468.99,-143.56C435.37,-150.27 398.62,-157.6 377.25,-161.86"/>
<polygon fill="#63b8ff" stroke="#63b8ff" points="469.72,-146.99 478.84,-141.6 468.35,-140.12 469.72,-146.99"/>
</a>
</g>
</g>
<!-- Node4 -->
<g id="Node000004" class="node">
<title>Node4</title>
<g id="a_Node000004"><a xlink:href="classGCS__MAVLINK.html#a68afd5b3679a046f48da0b4a202bd572" target="_top" xlink:title=" ">
<polygon fill="white" stroke="#666666" points="443,-138 273,-138 273,-119 443,-119 443,-138"/>
<text text-anchor="middle" x="358" y="-126" font-family="Helvetica,sans-Serif" font-size="10.00">GCS_MAVLINK::packetReceived</text>
</a>
</g>
</g>
<!-- Node2&#45;&gt;Node4 -->
<g id="edge3_Node000002_Node000004" class="edge">
<title>Node2&#45;&gt;Node4</title>
<g id="a_edge3_Node000002_Node000004"><a xlink:title=" ">
<path fill="none" stroke="#63b8ff" d="M468.67,-128.5C460.24,-128.5 451.62,-128.5 443.09,-128.5"/>
<polygon fill="#63b8ff" stroke="#63b8ff" points="468.84,-132 478.84,-128.5 468.84,-125 468.84,-132"/>
</a>
</g>
</g>
<!-- Node5 -->
<g id="Node000005" class="node">
<title>Node5</title>
<g id="a_Node000005"><a xlink:href="classGCS__MAVLINK.html#ac22097067827164c0c26e7ead36b21e7" target="_top" xlink:title=" ">
<polygon fill="white" stroke="#666666" points="218.5,-153.5 92.5,-153.5 92.5,-123.5 218.5,-123.5 218.5,-153.5"/>
<text text-anchor="start" x="100.5" y="-141.5" font-family="Helvetica,sans-Serif" font-size="10.00">GCS_MAVLINK::update</text>
<text text-anchor="middle" x="155.5" y="-130.5" font-family="Helvetica,sans-Serif" font-size="10.00">_receive</text>
</a>
</g>
</g>
<!-- Node4&#45;&gt;Node5 -->
<g id="edge4_Node000004_Node000005" class="edge">
<title>Node4&#45;&gt;Node5</title>
<g id="a_edge4_Node000004_Node000005"><a xlink:title=" ">
<path fill="none" stroke="#63b8ff" d="M262.59,-133.21C247.73,-133.95 232.69,-134.7 218.8,-135.39"/>
<polygon fill="#63b8ff" stroke="#63b8ff" points="263.03,-136.69 272.84,-132.7 262.68,-129.7 263.03,-136.69"/>
</a>
</g>
</g>
<!-- Node7 -->
<g id="Node000007" class="node">
<title>Node7</title>
<g id="a_Node000007"><a xlink:href="classGCS.html#a36bac57d1573fce99894d56aef0f7c59" target="_top" xlink:title=" ">
<polygon fill="white" stroke="#666666" points="424,-71 292,-71 292,-52 424,-52 424,-71"/>
<text text-anchor="middle" x="358" y="-59" font-family="Helvetica,sans-Serif" font-size="10.00">GCS::send_named_float</text>
</a>
</g>
</g>
<!-- Node6&#45;&gt;Node7 -->
<g id="edge6_Node000006_Node000007" class="edge">
<title>Node6&#45;&gt;Node7</title>
<g id="a_edge6_Node000006_Node000007"><a xlink:title=" ">
<path fill="none" stroke="#63b8ff" d="M477.29,-61.5C459.95,-61.5 441.32,-61.5 424.09,-61.5"/>
<polygon fill="#63b8ff" stroke="#63b8ff" points="477.33,-65 487.33,-61.5 477.33,-58 477.33,-65"/>
</a>
</g>
</g>
<!-- Node12 -->
<g id="Node000012" class="node">
<title>Node12</title>
<g id="a_Node000012"><a xlink:href="classGCS.html#a324769a550ab1cef735783be8845013c" target="_top" xlink:title=" ">
<polygon fill="white" stroke="#666666" points="419,-33.5 297,-33.5 297,-3.5 419,-3.5 419,-33.5"/>
<text text-anchor="start" x="305" y="-21.5" font-family="Helvetica,sans-Serif" font-size="10.00">GCS::send_parameter</text>
<text text-anchor="middle" x="358" y="-10.5" font-family="Helvetica,sans-Serif" font-size="10.00">_value</text>
</a>
</g>
</g>
<!-- Node6&#45;&gt;Node12 -->
<g id="edge11_Node000006_Node000012" class="edge">
<title>Node6&#45;&gt;Node12</title>
<g id="a_edge11_Node000006_Node000012"><a xlink:title=" ">
<path fill="none" stroke="#63b8ff" d="M477.53,-45.97C458.46,-41.56 437.82,-36.77 419.19,-32.45"/>
<polygon fill="#63b8ff" stroke="#63b8ff" points="476.8,-49.4 487.33,-48.25 478.38,-42.58 476.8,-49.4"/>
</a>
</g>
</g>
<!-- Node8 -->
<g id="Node000008" class="node">
<title>Node8</title>
<g id="a_Node000008"><a xlink:href="classAP__WindVane.html#ac991e16d68d3e664f5a42651d33eb813" target="_top" xlink:title=" ">
<polygon fill="white" stroke="#666666" points="226,-105 85,-105 85,-86 226,-86 226,-105"/>
<text text-anchor="middle" x="155.5" y="-93" font-family="Helvetica,sans-Serif" font-size="10.00">AP_WindVane::send_wind</text>
</a>
</g>
</g>
<!-- Node7&#45;&gt;Node8 -->
<g id="edge7_Node000007_Node000008" class="edge">
<title>Node7&#45;&gt;Node8</title>
<g id="a_edge7_Node000007_Node000008"><a xlink:title=" ">
<path fill="none" stroke="#63b8ff" d="M290.98,-72.7C265.62,-77 236.94,-81.86 212.6,-85.99"/>
<polygon fill="#63b8ff" stroke="#63b8ff" points="291.61,-76.14 300.88,-71.02 290.44,-69.24 291.61,-76.14"/>
</a>
</g>
</g>
<!-- Node9 -->
<g id="Node000009" class="node">
<title>Node9</title>
<g id="a_Node000009"><a xlink:href="classAP__InertialSensor__Invensense.html#a917a449ac89da74bf081f779c811e855" target="_top" xlink:title=" ">
<polygon fill="white" stroke="#666666" points="237,-67.5 74,-67.5 74,-37.5 237,-37.5 237,-67.5"/>
<text text-anchor="start" x="82" y="-55.5" font-family="Helvetica,sans-Serif" font-size="10.00">AP_InertialSensor_Invensense</text>
<text text-anchor="middle" x="155.5" y="-44.5" font-family="Helvetica,sans-Serif" font-size="10.00">::update</text>
</a>
</g>
</g>
<!-- Node7&#45;&gt;Node9 -->
<g id="edge8_Node000007_Node000009" class="edge">
<title>Node7&#45;&gt;Node9</title>
<g id="a_edge8_Node000007_Node000009"><a xlink:title=" ">
<path fill="none" stroke="#63b8ff" d="M281.91,-58.13C267.27,-57.47 251.86,-56.78 237.05,-56.12"/>
<polygon fill="#63b8ff" stroke="#63b8ff" points="281.76,-61.63 291.9,-58.58 282.07,-54.63 281.76,-61.63"/>
</a>
</g>
</g>
<!-- Node10 -->
<g id="Node000010" class="node">
<title>Node10</title>
<g id="a_Node000010"><a xlink:href="classAP__Airspeed.html#a694a19befdc15d84bccbbae3c348f52d" target="_top" xlink:title=" ">
<polygon fill="white" stroke="#666666" points="214,-19 97,-19 97,0 214,0 214,-19"/>
<text text-anchor="middle" x="155.5" y="-7" font-family="Helvetica,sans-Serif" font-size="10.00">AP_Airspeed::update</text>
</a>
</g>
</g>
<!-- Node7&#45;&gt;Node10 -->
<g id="edge9_Node000007_Node000010" class="edge">
<title>Node7&#45;&gt;Node10</title>
<g id="a_edge9_Node000007_Node000010"><a xlink:title=" ">
<path fill="none" stroke="#63b8ff" d="M299.25,-49.63C290.4,-47.47 281.41,-45.07 273,-42.5 256.58,-37.48 253.39,-33.6 237,-28.5 225.76,-25.01 213.46,-21.8 201.93,-19.06"/>
<polygon fill="#63b8ff" stroke="#63b8ff" points="298.61,-53.07 309.14,-51.97 300.22,-46.26 298.61,-53.07"/>
</a>
</g>
</g>
<!-- Node11 -->
<g id="Node000011" class="node">
<title>Node11</title>
<g id="a_Node000011"><a xlink:href="Airspeed_8cpp.html#afe461d27b9c48d5921c00d521181f12f" target="_top" xlink:title=" ">
<polygon fill="white" stroke="#666666" points="38,-19 0,-19 0,0 38,0 38,-19"/>
<text text-anchor="middle" x="19" y="-7" font-family="Helvetica,sans-Serif" font-size="10.00">loop</text>
</a>
</g>
</g>
<!-- Node10&#45;&gt;Node11 -->
<g id="edge10_Node000010_Node000011" class="edge">
<title>Node10&#45;&gt;Node11</title>
<g id="a_edge10_Node000010_Node000011"><a xlink:title=" ">
<path fill="none" stroke="#63b8ff" d="M86.24,-9.5C68.47,-9.5 50.79,-9.5 38.17,-9.5"/>
<polygon fill="#63b8ff" stroke="#63b8ff" points="86.68,-13 96.68,-9.5 86.68,-6 86.68,-13"/>
</a>
</g>
</g>
</g>
</svg>

<g id="navigator" transform="translate(0 0)" fill="#404254">
  <rect fill="#f2f5e9" fill-opacity="0.5" stroke="#606060" stroke-width=".5" x="0" y="0" width="60" height="60"/>
  <use id="zoomplus" xlink:href="#zoomPlus" x="17" y="9" onmousedown="handleZoom(evt,'in')"/>
  <use id="zoomminus" xlink:href="#zoomMin" x="42" y="9" onmousedown="handleZoom(evt,'out')"/>
  <use id="reset" xlink:href="#resetDef" x="30" y="36" onmousedown="handleReset()"/>
   <use id="arrowup" xlink:href="#arrowUp" x="0" y="0" onmousedown="handlePan(0,-1)"/>
  <use id="arrowright" xlink:href="#arrowRight" x="0" y="0" onmousedown="handlePan(1,0)"/>
  <use id="arrowdown" xlink:href="#arrowDown" x="0" y="0" onmousedown="handlePan(0,1)"/>
  <use id="arrowleft" xlink:href="#arrowLeft" x="0" y="0" onmousedown="handlePan(-1,0)"/>
</g>
<svg viewBox="0 0 15 15" width="100%" height="30px" preserveAspectRatio="xMaxYMin meet">
 <g id="arrow_out" transform="scale(0.3 0.3)">
  <a xlink:href="classGCS__MAVLINK_a2b8223e10e6c8e4beb569ff4c06e68b4_icgraph_org.svg" target="_base">
   <rect id="button" ry="5" rx="5" y="6" x="6" height="38" width="38"
        fill="#f2f5e9" fill-opacity="0.5" stroke="#606060" stroke-width="1.0"/>
   <path id="arrow"
     d="M 11.500037,31.436501 C 11.940474,20.09759 22.043105,11.32322 32.158766,21.979434 L 37.068811,17.246167 C 37.068811,17.246167 37.088388,32 37.088388,32 L 22.160133,31.978069 C 22.160133,31.978069 26.997745,27.140456 26.997745,27.140456 C 18.528582,18.264221 13.291696,25.230495 11.500037,31.436501 z"
     style="fill:#404040;"/>
  </a>
 </g>
</svg>

<style type='text/css'>
<![CDATA[
[data-mouse-over-selected='false'] { opacity: 0.7; }
[data-mouse-over-selected='true']  { opacity: 1.0; }
]]>
</style>
<script type="application/ecmascript"><![CDATA[
document.addEventListener('DOMContentLoaded', (event) => {
  highlightEdges();
  highlightAdjacentNodes();
});
]]></script>
</svg>
