<?xml version="1.0" encoding="UTF-8" standalone="no"?>
<!DOCTYPE svg PUBLIC "-//W3C//DTD SVG 1.1//EN"
 "http://www.w3.org/Graphics/SVG/1.1/DTD/svg11.dtd">
<!-- Generated by graphviz version 2.43.0 (0)
 -->
<!-- Title: AP_HAL::RCOutput::set_dshot_esc_type Pages: 1 -->
<svg width="905pt" height="400pt"
 viewBox="0.00 0.00 905.00 400.00" xmlns="http://www.w3.org/2000/svg" xmlns:xlink="http://www.w3.org/1999/xlink">
<g id="graph0" class="graph" transform="scale(1 1) rotate(0) translate(4 396)">
<title>AP_HAL::RCOutput::set_dshot_esc_type</title>
<!-- Node1 -->
<g id="Node000001" class="node">
<title>Node1</title>
<g id="a_Node000001"><a xlink:title=" ">
<polygon fill="#999999" stroke="#666666" points="897,-78 769,-78 769,-48 897,-48 897,-78"/>
<text text-anchor="start" x="777" y="-66" font-family="Helvetica,sans-Serif" font-size="10.00">AP_HAL::RCOutput::set</text>
<text text-anchor="middle" x="833" y="-55" font-family="Helvetica,sans-Serif" font-size="10.00">_dshot_esc_type</text>
</a>
</g>
</g>
<!-- Node2 -->
<g id="Node000002" class="node">
<title>Node2</title>
<g id="a_Node000002"><a xlink:href="classAP__Motors.html#a3d84a895c644d34e7fe78d7301ccf534" target="_top" xlink:title=" ">
<polygon fill="white" stroke="#666666" points="733,-218.5 605,-218.5 605,-199.5 733,-199.5 733,-218.5"/>
<text text-anchor="middle" x="669" y="-206.5" font-family="Helvetica,sans-Serif" font-size="10.00">AP_Motors::rc_set_freq</text>
</a>
</g>
</g>
<!-- Node1&#45;&gt;Node2 -->
<g id="edge1_Node000001_Node000002" class="edge">
<title>Node1&#45;&gt;Node2</title>
<g id="a_edge1_Node000001_Node000002"><a xlink:title=" ">
<path fill="none" stroke="#63b8ff" d="M807.68,-84.92C771.82,-117.24 706.26,-176.32 680.65,-199.4"/>
<polygon fill="#63b8ff" stroke="#63b8ff" points="810.19,-87.37 815.27,-78.07 805.5,-82.17 810.19,-87.37"/>
</a>
</g>
</g>
<!-- Node15 -->
<g id="Node000015" class="node">
<title>Node15</title>
<g id="a_Node000015"><a xlink:href="classAP__IOMCU__FW.html#a43030d57d47a80e97578178e5c21115e" target="_top" xlink:title=" ">
<polygon fill="white" stroke="#666666" points="728.5,-78 609.5,-78 609.5,-48 728.5,-48 728.5,-78"/>
<text text-anchor="start" x="617.5" y="-66" font-family="Helvetica,sans-Serif" font-size="10.00">AP_IOMCU_FW::rcout</text>
<text text-anchor="middle" x="669" y="-55" font-family="Helvetica,sans-Serif" font-size="10.00">_config_update</text>
</a>
</g>
</g>
<!-- Node1&#45;&gt;Node15 -->
<g id="edge14_Node000001_Node000015" class="edge">
<title>Node1&#45;&gt;Node15</title>
<g id="a_edge14_Node000001_Node000015"><a xlink:title=" ">
<path fill="none" stroke="#63b8ff" d="M758.87,-63C748.76,-63 738.49,-63 728.69,-63"/>
<polygon fill="#63b8ff" stroke="#63b8ff" points="758.9,-66.5 768.9,-63 758.9,-59.5 758.9,-66.5"/>
</a>
</g>
</g>
<!-- Node18 -->
<g id="Node000018" class="node">
<title>Node18</title>
<g id="a_Node000018"><a xlink:href="classAP__MotorsUGV.html#ad6bff94ef4f16c46677ffdda08d7c4ae" target="_top" xlink:title=" ">
<polygon fill="white" stroke="#666666" points="730,-30 608,-30 608,0 730,0 730,-30"/>
<text text-anchor="start" x="616" y="-18" font-family="Helvetica,sans-Serif" font-size="10.00">AP_MotorsUGV::setup</text>
<text text-anchor="middle" x="669" y="-7" font-family="Helvetica,sans-Serif" font-size="10.00">_pwm_type</text>
</a>
</g>
</g>
<!-- Node1&#45;&gt;Node18 -->
<g id="edge17_Node000001_Node000018" class="edge">
<title>Node1&#45;&gt;Node18</title>
<g id="a_edge17_Node000001_Node000018"><a xlink:title=" ">
<path fill="none" stroke="#63b8ff" d="M771.5,-45.07C754.75,-40.11 736.75,-34.78 720.63,-30"/>
<polygon fill="#63b8ff" stroke="#63b8ff" points="770.6,-48.46 781.19,-47.94 772.59,-41.75 770.6,-48.46"/>
</a>
</g>
</g>
<!-- Node3 -->
<g id="Node000003" class="node">
<title>Node3</title>
<g id="a_Node000003"><a xlink:href="classAP__MotorsCoax.html#a4c9604f1f24f8b65890ea29d392f6ba5" target="_top" xlink:title=" ">
<polygon fill="white" stroke="#666666" points="544,-392 430,-392 430,-362 544,-362 544,-392"/>
<text text-anchor="start" x="438" y="-380" font-family="Helvetica,sans-Serif" font-size="10.00">AP_MotorsCoax::set</text>
<text text-anchor="middle" x="487" y="-369" font-family="Helvetica,sans-Serif" font-size="10.00">_update_rate</text>
</a>
</g>
</g>
<!-- Node2&#45;&gt;Node3 -->
<g id="edge2_Node000002_Node000003" class="edge">
<title>Node2&#45;&gt;Node3</title>
<g id="a_edge2_Node000002_Node000003"><a xlink:title=" ">
<path fill="none" stroke="#63b8ff" d="M660.08,-227.98C646.22,-258.86 614.65,-319.84 569,-353 561.64,-358.34 553.1,-362.51 544.37,-365.75"/>
<polygon fill="#63b8ff" stroke="#63b8ff" points="663.31,-229.32 664.09,-218.75 656.89,-226.53 663.31,-229.32"/>
</a>
</g>
</g>
<!-- Node4 -->
<g id="Node000004" class="node">
<title>Node4</title>
<g id="a_Node000004"><a xlink:href="classAP__MotorsHeli__Dual.html#aa02b6d52fbd392d8e50c6feb79fef768" target="_top" xlink:title=" ">
<polygon fill="white" stroke="#666666" points="545,-344 429,-344 429,-314 545,-314 545,-344"/>
<text text-anchor="start" x="437" y="-332" font-family="Helvetica,sans-Serif" font-size="10.00">AP_MotorsHeli_Dual</text>
<text text-anchor="middle" x="487" y="-321" font-family="Helvetica,sans-Serif" font-size="10.00">::set_update_rate</text>
</a>
</g>
</g>
<!-- Node2&#45;&gt;Node4 -->
<g id="edge3_Node000002_Node000004" class="edge">
<title>Node2&#45;&gt;Node4</title>
<g id="a_edge3_Node000002_Node000004"><a xlink:title=" ">
<path fill="none" stroke="#63b8ff" d="M654.31,-226.74C636.79,-248.28 604.42,-284.29 569,-305 561.66,-309.29 553.48,-312.87 545.23,-315.84"/>
<polygon fill="#63b8ff" stroke="#63b8ff" points="657.19,-228.75 660.68,-218.74 651.72,-224.39 657.19,-228.75"/>
</a>
</g>
</g>
<!-- Node5 -->
<g id="Node000005" class="node">
<title>Node5</title>
<g id="a_Node000005"><a xlink:href="classAP__MotorsHeli__Quad.html#a13a5d8ff0ad2b869711c8bbac440067d" target="_top" xlink:title=" ">
<polygon fill="white" stroke="#666666" points="546.5,-296 427.5,-296 427.5,-266 546.5,-266 546.5,-296"/>
<text text-anchor="start" x="435.5" y="-284" font-family="Helvetica,sans-Serif" font-size="10.00">AP_MotorsHeli_Quad</text>
<text text-anchor="middle" x="487" y="-273" font-family="Helvetica,sans-Serif" font-size="10.00">::set_update_rate</text>
</a>
</g>
</g>
<!-- Node2&#45;&gt;Node5 -->
<g id="edge4_Node000002_Node000005" class="edge">
<title>Node2&#45;&gt;Node5</title>
<g id="a_edge4_Node000002_Node000005"><a xlink:title=" ">
<path fill="none" stroke="#63b8ff" d="M641.55,-223.29C621.91,-233.54 594.25,-247.21 569,-257 560.79,-260.18 551.99,-263.19 543.31,-265.93"/>
<polygon fill="#63b8ff" stroke="#63b8ff" points="643.29,-226.33 650.5,-218.57 640.03,-220.14 643.29,-226.33"/>
</a>
</g>
</g>
<!-- Node6 -->
<g id="Node000006" class="node">
<title>Node6</title>
<g id="a_Node000006"><a xlink:href="classAP__MotorsHeli__Single.html#a54ccb51f6ac963c50ba729ec458c356d" target="_top" xlink:title=" ">
<polygon fill="white" stroke="#666666" points="548.5,-248 425.5,-248 425.5,-218 548.5,-218 548.5,-248"/>
<text text-anchor="start" x="433.5" y="-236" font-family="Helvetica,sans-Serif" font-size="10.00">AP_MotorsHeli_Single</text>
<text text-anchor="middle" x="487" y="-225" font-family="Helvetica,sans-Serif" font-size="10.00">::set_update_rate</text>
</a>
</g>
</g>
<!-- Node2&#45;&gt;Node6 -->
<g id="edge5_Node000002_Node000006" class="edge">
<title>Node2&#45;&gt;Node6</title>
<g id="a_edge5_Node000002_Node000006"><a xlink:title=" ">
<path fill="none" stroke="#63b8ff" d="M594.83,-218.76C579.48,-220.8 563.46,-222.94 548.64,-224.92"/>
<polygon fill="#63b8ff" stroke="#63b8ff" points="595.34,-222.22 604.79,-217.43 594.42,-215.28 595.34,-222.22"/>
</a>
</g>
</g>
<!-- Node7 -->
<g id="Node000007" class="node">
<title>Node7</title>
<g id="a_Node000007"><a xlink:href="classAP__MotorsMatrix.html#a1249a38e99dc59f13e7305ba94319f76" target="_top" xlink:title=" ">
<polygon fill="white" stroke="#666666" points="547.5,-200 426.5,-200 426.5,-170 547.5,-170 547.5,-200"/>
<text text-anchor="start" x="434.5" y="-188" font-family="Helvetica,sans-Serif" font-size="10.00">AP_MotorsMatrix::set</text>
<text text-anchor="middle" x="487" y="-177" font-family="Helvetica,sans-Serif" font-size="10.00">_update_rate</text>
</a>
</g>
</g>
<!-- Node2&#45;&gt;Node7 -->
<g id="edge6_Node000002_Node000007" class="edge">
<title>Node2&#45;&gt;Node7</title>
<g id="a_edge6_Node000002_Node000007"><a xlink:title=" ">
<path fill="none" stroke="#63b8ff" d="M594.66,-199.22C579.05,-197.14 562.76,-194.97 547.73,-192.96"/>
<polygon fill="#63b8ff" stroke="#63b8ff" points="594.42,-202.72 604.79,-200.57 595.34,-195.78 594.42,-202.72"/>
</a>
</g>
</g>
<!-- Node12 -->
<g id="Node000012" class="node">
<title>Node12</title>
<g id="a_Node000012"><a xlink:href="classAP__MotorsSingle.html#a369660804b9993572860955615b55ea7" target="_top" xlink:title=" ">
<polygon fill="white" stroke="#666666" points="546.5,-152 427.5,-152 427.5,-122 546.5,-122 546.5,-152"/>
<text text-anchor="start" x="435.5" y="-140" font-family="Helvetica,sans-Serif" font-size="10.00">AP_MotorsSingle::set</text>
<text text-anchor="middle" x="487" y="-129" font-family="Helvetica,sans-Serif" font-size="10.00">_update_rate</text>
</a>
</g>
</g>
<!-- Node2&#45;&gt;Node12 -->
<g id="edge11_Node000002_Node000012" class="edge">
<title>Node2&#45;&gt;Node12</title>
<g id="a_edge11_Node000002_Node000012"><a xlink:title=" ">
<path fill="none" stroke="#63b8ff" d="M641.55,-194.71C621.91,-184.46 594.25,-170.79 569,-161 560.79,-157.82 551.99,-154.81 543.31,-152.07"/>
<polygon fill="#63b8ff" stroke="#63b8ff" points="640.03,-197.86 650.5,-199.43 643.29,-191.67 640.03,-197.86"/>
</a>
</g>
</g>
<!-- Node13 -->
<g id="Node000013" class="node">
<title>Node13</title>
<g id="a_Node000013"><a xlink:href="classAP__MotorsTri.html#a8ed8dcfaa80acd0f3a2f1341bd5a5a8f" target="_top" xlink:title=" ">
<polygon fill="white" stroke="#666666" points="569,-103.5 405,-103.5 405,-84.5 569,-84.5 569,-103.5"/>
<text text-anchor="middle" x="487" y="-91.5" font-family="Helvetica,sans-Serif" font-size="10.00">AP_MotorsTri::set_update_rate</text>
</a>
</g>
</g>
<!-- Node2&#45;&gt;Node13 -->
<g id="edge12_Node000002_Node000013" class="edge">
<title>Node2&#45;&gt;Node13</title>
<g id="a_edge12_Node000002_Node000013"><a xlink:title=" ">
<path fill="none" stroke="#63b8ff" d="M654.77,-191.26C637.5,-169.41 605.19,-132.78 569,-113 561.9,-109.12 554.03,-106.03 546.07,-103.57"/>
<polygon fill="#63b8ff" stroke="#63b8ff" points="652.14,-193.58 661.02,-199.36 657.68,-189.3 652.14,-193.58"/>
</a>
</g>
</g>
<!-- Node8 -->
<g id="Node000008" class="node">
<title>Node8</title>
<g id="a_Node000008"><a xlink:href="classAP__MotorsMatrix.html#a74999b8c2bdb8a6c9a139e4d4a742679" target="_top" xlink:title=" ">
<polygon fill="white" stroke="#666666" points="369,-194.5 247,-194.5 247,-175.5 369,-175.5 369,-194.5"/>
<text text-anchor="middle" x="308" y="-182.5" font-family="Helvetica,sans-Serif" font-size="10.00">AP_MotorsMatrix::init</text>
</a>
</g>
</g>
<!-- Node7&#45;&gt;Node8 -->
<g id="edge7_Node000007_Node000008" class="edge">
<title>Node7&#45;&gt;Node8</title>
<g id="a_edge7_Node000007_Node000008"><a xlink:title=" ">
<path fill="none" stroke="#63b8ff" d="M416.03,-185C400.53,-185 384.23,-185 369.16,-185"/>
<polygon fill="#63b8ff" stroke="#63b8ff" points="416.08,-188.5 426.08,-185 416.08,-181.5 416.08,-188.5"/>
</a>
</g>
</g>
<!-- Node9 -->
<g id="Node000009" class="node">
<title>Node9</title>
<g id="a_Node000009"><a xlink:href="AP__Motors__test_8cpp.html#ae22722841fa406cadd51a97de949f1eb" target="_top" xlink:title=" ">
<polygon fill="white" stroke="#666666" points="209.5,-215.5 81.5,-215.5 81.5,-196.5 209.5,-196.5 209.5,-215.5"/>
<text text-anchor="middle" x="145.5" y="-203.5" font-family="Helvetica,sans-Serif" font-size="10.00">print_all_motor_matrix</text>
</a>
</g>
</g>
<!-- Node8&#45;&gt;Node9 -->
<g id="edge8_Node000008_Node000009" class="edge">
<title>Node8&#45;&gt;Node9</title>
<g id="a_edge8_Node000008_Node000009"><a xlink:title=" ">
<path fill="none" stroke="#63b8ff" d="M236.73,-194.19C227.75,-195.37 218.6,-196.57 209.74,-197.73"/>
<polygon fill="#63b8ff" stroke="#63b8ff" points="237.32,-197.65 246.78,-192.88 236.41,-190.71 237.32,-197.65"/>
</a>
</g>
</g>
<!-- Node11 -->
<g id="Node000011" class="node">
<title>Node11</title>
<g id="a_Node000011"><a xlink:href="classAP__MotorsMatrix.html#ad608ef0a8298cd204251d4374a2699c4" target="_top" xlink:title=" ">
<polygon fill="white" stroke="#666666" points="211,-178 80,-178 80,-148 211,-148 211,-178"/>
<text text-anchor="start" x="88" y="-166" font-family="Helvetica,sans-Serif" font-size="10.00">AP_MotorsMatrix::set</text>
<text text-anchor="middle" x="145.5" y="-155" font-family="Helvetica,sans-Serif" font-size="10.00">_frame_class_and_type</text>
</a>
</g>
</g>
<!-- Node8&#45;&gt;Node11 -->
<g id="edge10_Node000008_Node000011" class="edge">
<title>Node8&#45;&gt;Node11</title>
<g id="a_edge10_Node000008_Node000011"><a xlink:title=" ">
<path fill="none" stroke="#63b8ff" d="M236.83,-175.38C228.27,-174.21 219.56,-173.01 211.09,-171.85"/>
<polygon fill="#63b8ff" stroke="#63b8ff" points="236.4,-178.85 246.78,-176.75 237.35,-171.92 236.4,-178.85"/>
</a>
</g>
</g>
<!-- Node10 -->
<g id="Node000010" class="node">
<title>Node10</title>
<g id="a_Node000010"><a xlink:href="AP__Motors__test_8cpp.html#a4fc01d736fe50cf5b977f755b675f11d" target="_top" xlink:title=" ">
<polygon fill="white" stroke="#666666" points="44,-215.5 0,-215.5 0,-196.5 44,-196.5 44,-215.5"/>
<text text-anchor="middle" x="22" y="-203.5" font-family="Helvetica,sans-Serif" font-size="10.00">setup</text>
</a>
</g>
</g>
<!-- Node9&#45;&gt;Node10 -->
<g id="edge9_Node000009_Node000010" class="edge">
<title>Node9&#45;&gt;Node10</title>
<g id="a_edge9_Node000009_Node000010"><a xlink:title=" ">
<path fill="none" stroke="#63b8ff" d="M70.99,-206C61.25,-206 51.97,-206 44.21,-206"/>
<polygon fill="#63b8ff" stroke="#63b8ff" points="71.26,-209.5 81.26,-206 71.26,-202.5 71.26,-209.5"/>
</a>
</g>
</g>
<!-- Node14 -->
<g id="Node000014" class="node">
<title>Node14</title>
<g id="a_Node000014"><a xlink:href="classAP__MotorsTri.html#adacd9f3694be635672054ce1accf0f1c" target="_top" xlink:title=" ">
<polygon fill="white" stroke="#666666" points="358.5,-103.5 257.5,-103.5 257.5,-84.5 358.5,-84.5 358.5,-103.5"/>
<text text-anchor="middle" x="308" y="-91.5" font-family="Helvetica,sans-Serif" font-size="10.00">AP_MotorsTri::init</text>
</a>
</g>
</g>
<!-- Node13&#45;&gt;Node14 -->
<g id="edge13_Node000013_Node000014" class="edge">
<title>Node13&#45;&gt;Node14</title>
<g id="a_edge13_Node000013_Node000014"><a xlink:title=" ">
<path fill="none" stroke="#63b8ff" d="M394.47,-94C382.23,-94 370.06,-94 358.92,-94"/>
<polygon fill="#63b8ff" stroke="#63b8ff" points="394.75,-97.5 404.75,-94 394.75,-90.5 394.75,-97.5"/>
</a>
</g>
</g>
<!-- Node16 -->
<g id="Node000016" class="node">
<title>Node16</title>
<g id="a_Node000016"><a xlink:href="classAP__IOMCU__FW.html#aa6e97452785d6ade70465f15a87978f4" target="_top" xlink:title=" ">
<polygon fill="white" stroke="#666666" points="551,-66.5 423,-66.5 423,-47.5 551,-47.5 551,-66.5"/>
<text text-anchor="middle" x="487" y="-54.5" font-family="Helvetica,sans-Serif" font-size="10.00">AP_IOMCU_FW::update</text>
</a>
</g>
</g>
<!-- Node15&#45;&gt;Node16 -->
<g id="edge15_Node000015_Node000016" class="edge">
<title>Node15&#45;&gt;Node16</title>
<g id="a_edge15_Node000015_Node000016"><a xlink:title=" ">
<path fill="none" stroke="#63b8ff" d="M598.88,-60.7C583.17,-60.17 566.55,-59.62 551.1,-59.1"/>
<polygon fill="#63b8ff" stroke="#63b8ff" points="598.95,-64.2 609.06,-61.04 599.18,-57.2 598.95,-64.2"/>
</a>
</g>
</g>
<!-- Node17 -->
<g id="Node000017" class="node">
<title>Node17</title>
<g id="a_Node000017"><a xlink:href="iofirmware_8cpp.html#afe461d27b9c48d5921c00d521181f12f" target="_top" xlink:title=" ">
<polygon fill="white" stroke="#666666" points="327,-66.5 289,-66.5 289,-47.5 327,-47.5 327,-66.5"/>
<text text-anchor="middle" x="308" y="-54.5" font-family="Helvetica,sans-Serif" font-size="10.00">loop</text>
</a>
</g>
</g>
<!-- Node16&#45;&gt;Node17 -->
<g id="edge16_Node000016_Node000017" class="edge">
<title>Node16&#45;&gt;Node17</title>
<g id="a_edge16_Node000016_Node000017"><a xlink:title=" ">
<path fill="none" stroke="#63b8ff" d="M412.53,-57C381.16,-57 347.2,-57 327.03,-57"/>
<polygon fill="#63b8ff" stroke="#63b8ff" points="412.6,-60.5 422.6,-57 412.6,-53.5 412.6,-60.5"/>
</a>
</g>
</g>
<!-- Node19 -->
<g id="Node000019" class="node">
<title>Node19</title>
<g id="a_Node000019"><a xlink:href="classAP__MotorsUGV.html#a1c5e16c084e3a1b2255bdfea8a7efb71" target="_top" xlink:title=" ">
<polygon fill="white" stroke="#666666" points="542.5,-24.5 431.5,-24.5 431.5,-5.5 542.5,-5.5 542.5,-24.5"/>
<text text-anchor="middle" x="487" y="-12.5" font-family="Helvetica,sans-Serif" font-size="10.00">AP_MotorsUGV::init</text>
</a>
</g>
</g>
<!-- Node18&#45;&gt;Node19 -->
<g id="edge18_Node000018_Node000019" class="edge">
<title>Node18&#45;&gt;Node19</title>
<g id="a_edge18_Node000018_Node000019"><a xlink:title=" ">
<path fill="none" stroke="#63b8ff" d="M597.78,-15C579.48,-15 560.04,-15 542.67,-15"/>
<polygon fill="#63b8ff" stroke="#63b8ff" points="597.81,-18.5 607.81,-15 597.81,-11.5 597.81,-18.5"/>
</a>
</g>
</g>
</g>
</svg>
