<?xml version="1.0" encoding="UTF-8" standalone="no"?>
<!DOCTYPE svg PUBLIC "-//W3C//DTD SVG 1.1//EN"
 "http://www.w3.org/Graphics/SVG/1.1/DTD/svg11.dtd">
<!-- Generated by graphviz version 2.43.0 (0)
 -->
<!-- Title: Linux::Pollable::on_hang_up Pages: 1 -->
<svg width="397pt" height="38pt"
 viewBox="0.00 0.00 397.00 38.00" xmlns="http://www.w3.org/2000/svg" xmlns:xlink="http://www.w3.org/1999/xlink">
<g id="graph0" class="graph" transform="scale(1 1) rotate(0) translate(4 34)">
<title>Linux::Pollable::on_hang_up</title>
<!-- Node1 -->
<g id="Node000001" class="node">
<title>Node1</title>
<g id="a_Node000001"><a xlink:title=" ">
<polygon fill="#999999" stroke="#666666" points="389,-30 283,-30 283,0 389,0 389,-30"/>
<text text-anchor="start" x="291" y="-18" font-family="Helvetica,sans-Serif" font-size="10.00">Linux::Pollable::on</text>
<text text-anchor="middle" x="336" y="-7" font-family="Helvetica,sans-Serif" font-size="10.00">_hang_up</text>
</a>
</g>
</g>
<!-- Node2 -->
<g id="Node000002" class="node">
<title>Node2</title>
<g id="a_Node000002"><a xlink:href="classLinux_1_1Poller.html#a68f38ddda037d2639c0cc959b779d144" target="_top" xlink:title=" ">
<polygon fill="white" stroke="#666666" points="247,-24.5 146,-24.5 146,-5.5 247,-5.5 247,-24.5"/>
<text text-anchor="middle" x="196.5" y="-12.5" font-family="Helvetica,sans-Serif" font-size="10.00">Linux::Poller::poll</text>
</a>
</g>
</g>
<!-- Node1&#45;&gt;Node2 -->
<g id="edge1_Node000001_Node000002" class="edge">
<title>Node1&#45;&gt;Node2</title>
<g id="a_edge1_Node000001_Node000002"><a xlink:title=" ">
<path fill="none" stroke="#63b8ff" d="M272.36,-15C263.86,-15 255.24,-15 247.01,-15"/>
<polygon fill="#63b8ff" stroke="#63b8ff" points="272.62,-18.5 282.62,-15 272.62,-11.5 272.62,-18.5"/>
</a>
</g>
</g>
<!-- Node3 -->
<g id="Node000003" class="node">
<title>Node3</title>
<g id="a_Node000003"><a xlink:href="classLinux_1_1PollerThread.html#a7f6ed7fe3b9da2413c0118d22297ca5d" target="_top" xlink:title=" ">
<polygon fill="white" stroke="#666666" points="110,-30 0,-30 0,0 110,0 110,-30"/>
<text text-anchor="start" x="8" y="-18" font-family="Helvetica,sans-Serif" font-size="10.00">Linux::PollerThread</text>
<text text-anchor="middle" x="55" y="-7" font-family="Helvetica,sans-Serif" font-size="10.00">::mainloop</text>
</a>
</g>
</g>
<!-- Node2&#45;&gt;Node3 -->
<g id="edge2_Node000002_Node000003" class="edge">
<title>Node2&#45;&gt;Node3</title>
<g id="a_edge2_Node000002_Node000003"><a xlink:title=" ">
<path fill="none" stroke="#63b8ff" d="M135.7,-15C127.22,-15 118.53,-15 110.15,-15"/>
<polygon fill="#63b8ff" stroke="#63b8ff" points="135.92,-18.5 145.92,-15 135.92,-11.5 135.92,-18.5"/>
</a>
</g>
</g>
</g>
</svg>
