<?xml version="1.0" encoding="UTF-8" standalone="no"?>
<!DOCTYPE svg PUBLIC "-//W3C//DTD SVG 1.1//EN"
 "http://www.w3.org/Graphics/SVG/1.1/DTD/svg11.dtd">
<!-- Generated by graphviz version 2.43.0 (0)
 -->
<!-- Title: AP_HAL::CANIface::send Pages: 1 -->
<svg width="518pt" height="64pt"
 viewBox="0.00 0.00 518.00 64.00" xmlns="http://www.w3.org/2000/svg" xmlns:xlink="http://www.w3.org/1999/xlink">
<g id="graph0" class="graph" transform="scale(1 1) rotate(0) translate(4 60)">
<title>AP_HAL::CANIface::send</title>
<!-- Node1 -->
<g id="Node000001" class="node">
<title>Node1</title>
<g id="a_Node000001"><a xlink:title=" ">
<polygon fill="#999999" stroke="#666666" points="134,-37 0,-37 0,-18 134,-18 134,-37"/>
<text text-anchor="middle" x="67" y="-25" font-family="Helvetica,sans-Serif" font-size="10.00">AP_HAL::CANIface::send</text>
</a>
</g>
</g>
<!-- Node2 -->
<g id="Node000002" class="node">
<title>Node2</title>
<g id="a_Node000002"><a xlink:href="namespaceAP__HAL.html#a7aa0ce7625c9680e30ff4a99940907a5" target="_top" xlink:title=" ">
<polygon fill="white" stroke="#666666" points="275,-37 170,-37 170,-18 275,-18 275,-37"/>
<text text-anchor="middle" x="222.5" y="-25" font-family="Helvetica,sans-Serif" font-size="10.00">AP_HAL::micros64</text>
</a>
</g>
</g>
<!-- Node1&#45;&gt;Node2 -->
<g id="edge1_Node000001_Node000002" class="edge">
<title>Node1&#45;&gt;Node2</title>
<g id="a_edge1_Node000001_Node000002"><a xlink:title=" ">
<path fill="none" stroke="#63b8ff" d="M134.43,-27.5C142.84,-27.5 151.42,-27.5 159.76,-27.5"/>
<polygon fill="#63b8ff" stroke="#63b8ff" points="159.77,-31 169.77,-27.5 159.77,-24 159.77,-31"/>
</a>
</g>
</g>
<!-- Node3 -->
<g id="Node000003" class="node">
<title>Node3</title>
<g id="a_Node000003"><a xlink:href="hrt_8c.html#a152c3348a8e83f2dfe35b44cc2e30362" target="_top" xlink:title=" ">
<polygon fill="white" stroke="#666666" points="391,-37 311,-37 311,-18 391,-18 391,-37"/>
<text text-anchor="middle" x="351" y="-25" font-family="Helvetica,sans-Serif" font-size="10.00">hrt_micros64</text>
</a>
</g>
</g>
<!-- Node2&#45;&gt;Node3 -->
<g id="edge2_Node000002_Node000003" class="edge">
<title>Node2&#45;&gt;Node3</title>
<g id="a_edge2_Node000002_Node000003"><a xlink:title=" ">
<path fill="none" stroke="#63b8ff" d="M275.32,-27.5C283.67,-27.5 292.29,-27.5 300.58,-27.5"/>
<polygon fill="#63b8ff" stroke="#63b8ff" points="300.85,-31 310.85,-27.5 300.85,-24 300.85,-31"/>
</a>
</g>
</g>
<!-- Node4 -->
<g id="Node000004" class="node">
<title>Node4</title>
<g id="a_Node000004"><a xlink:href="hrt_8c.html#a5b4ffc7ff86bd5b893c4a98834e80200" target="_top" xlink:title=" ">
<polygon fill="white" stroke="#666666" points="510,-56 427,-56 427,-37 510,-37 510,-56"/>
<text text-anchor="middle" x="468.5" y="-44" font-family="Helvetica,sans-Serif" font-size="10.00">hrt_micros64I</text>
</a>
</g>
</g>
<!-- Node3&#45;&gt;Node4 -->
<g id="edge3_Node000003_Node000004" class="edge">
<title>Node3&#45;&gt;Node4</title>
<g id="a_edge3_Node000003_Node000004"><a xlink:title=" ">
<path fill="none" stroke="#63b8ff" d="M391.1,-33.93C399.38,-35.29 408.23,-36.75 416.87,-38.17"/>
<polygon fill="#63b8ff" stroke="#63b8ff" points="416.42,-41.64 426.86,-39.81 417.56,-34.74 416.42,-41.64"/>
</a>
</g>
</g>
<!-- Node5 -->
<g id="Node000005" class="node">
<title>Node5</title>
<g id="a_Node000005"><a xlink:href="hrt_8c.html#a723fef85be7bacb834af35445a891c18" target="_top" xlink:title=" ">
<polygon fill="white" stroke="#666666" points="499.5,-19 437.5,-19 437.5,0 499.5,0 499.5,-19"/>
<text text-anchor="middle" x="468.5" y="-7" font-family="Helvetica,sans-Serif" font-size="10.00">is_locked</text>
</a>
</g>
</g>
<!-- Node3&#45;&gt;Node5 -->
<g id="edge4_Node000003_Node000005" class="edge">
<title>Node3&#45;&gt;Node5</title>
<g id="a_edge4_Node000003_Node000005"><a xlink:title=" ">
<path fill="none" stroke="#63b8ff" d="M391.1,-21.41C402.74,-19.59 415.52,-17.6 427.23,-15.78"/>
<polygon fill="#63b8ff" stroke="#63b8ff" points="427.86,-19.22 437.2,-14.22 426.78,-12.3 427.86,-19.22"/>
</a>
</g>
</g>
</g>
</svg>
