<?xml version="1.0" encoding="UTF-8" standalone="no"?>
<!DOCTYPE svg PUBLIC "-//W3C//DTD SVG 1.1//EN"
 "http://www.w3.org/Graphics/SVG/1.1/DTD/svg11.dtd">
<!-- Generated by graphviz version 2.43.0 (0)
 -->
<!-- Title: Linux::PWM_Sysfs_Base::set_freq Pages: 1 -->
<svg width="756pt" height="161pt"
 viewBox="0.00 0.00 756.00 161.00" xmlns="http://www.w3.org/2000/svg" xmlns:xlink="http://www.w3.org/1999/xlink">
<g id="graph0" class="graph" transform="scale(1 1) rotate(0) translate(4 157)">
<title>Linux::PWM_Sysfs_Base::set_freq</title>
<!-- Node1 -->
<g id="Node000001" class="node">
<title>Node1</title>
<g id="a_Node000001"><a xlink:title=" ">
<polygon fill="#999999" stroke="#666666" points="134,-112.5 0,-112.5 0,-82.5 134,-82.5 134,-112.5"/>
<text text-anchor="start" x="8" y="-100.5" font-family="Helvetica,sans-Serif" font-size="10.00">Linux::PWM_Sysfs_Base</text>
<text text-anchor="middle" x="67" y="-89.5" font-family="Helvetica,sans-Serif" font-size="10.00">::set_freq</text>
</a>
</g>
</g>
<!-- Node2 -->
<g id="Node000002" class="node">
<title>Node2</title>
<g id="a_Node000002"><a xlink:href="AP__Math_8h.html#ad150577ed4a9fd4d9d1dec4a0063bee2" target="_top" xlink:title=" ">
<polygon fill="white" stroke="#666666" points="272.5,-129 201.5,-129 201.5,-110 272.5,-110 272.5,-129"/>
<text text-anchor="middle" x="237" y="-117" font-family="Helvetica,sans-Serif" font-size="10.00">hz_to_nsec</text>
</a>
</g>
</g>
<!-- Node1&#45;&gt;Node2 -->
<g id="edge1_Node000001_Node000002" class="edge">
<title>Node1&#45;&gt;Node2</title>
<g id="a_edge1_Node000001_Node000002"><a xlink:title=" ">
<path fill="none" stroke="#63b8ff" d="M134.4,-106.19C153.57,-108.7 174.01,-111.38 191.5,-113.67"/>
<polygon fill="#63b8ff" stroke="#63b8ff" points="191.06,-117.14 201.43,-114.97 191.96,-110.2 191.06,-117.14"/>
</a>
</g>
</g>
<!-- Node3 -->
<g id="Node000003" class="node">
<title>Node3</title>
<g id="a_Node000003"><a xlink:href="classLinux_1_1PWM__Sysfs__Base.html#ae559797471c204de7ff10c2aced67b0e" target="_top" xlink:title=" ">
<polygon fill="white" stroke="#666666" points="304,-91.5 170,-91.5 170,-61.5 304,-61.5 304,-91.5"/>
<text text-anchor="start" x="178" y="-79.5" font-family="Helvetica,sans-Serif" font-size="10.00">Linux::PWM_Sysfs_Base</text>
<text text-anchor="middle" x="237" y="-68.5" font-family="Helvetica,sans-Serif" font-size="10.00">::set_period</text>
</a>
</g>
</g>
<!-- Node1&#45;&gt;Node3 -->
<g id="edge2_Node000001_Node000003" class="edge">
<title>Node1&#45;&gt;Node3</title>
<g id="a_edge2_Node000001_Node000003"><a xlink:title=" ">
<path fill="none" stroke="#63b8ff" d="M134.4,-89.2C142.68,-88.17 151.2,-87.1 159.62,-86.05"/>
<polygon fill="#63b8ff" stroke="#63b8ff" points="160.32,-89.49 169.81,-84.77 159.45,-82.54 160.32,-89.49"/>
</a>
</g>
</g>
<!-- Node4 -->
<g id="Node000004" class="node">
<title>Node4</title>
<g id="a_Node000004"><a xlink:href="classLinux_1_1Util.html#af9d9eecac555e3e222df531216f69dda" target="_top" xlink:title=" ">
<polygon fill="white" stroke="#666666" points="454.5,-153 359.5,-153 359.5,-134 454.5,-134 454.5,-153"/>
<text text-anchor="middle" x="407" y="-141" font-family="Helvetica,sans-Serif" font-size="10.00">Linux::Util::from</text>
</a>
</g>
</g>
<!-- Node3&#45;&gt;Node4 -->
<g id="edge3_Node000003_Node000004" class="edge">
<title>Node3&#45;&gt;Node4</title>
<g id="a_edge3_Node000003_Node000004"><a xlink:title=" ">
<path fill="none" stroke="#63b8ff" d="M281.51,-91.52C289.12,-94.56 296.88,-97.93 304,-101.5 320.97,-110.02 322.7,-116.68 340,-124.5 345.09,-126.8 350.53,-128.9 356.02,-130.79"/>
<polygon fill="#63b8ff" stroke="#63b8ff" points="355.31,-134.23 365.9,-133.96 357.45,-127.57 355.31,-134.23"/>
</a>
</g>
</g>
<!-- Node5 -->
<g id="Node000005" class="node">
<title>Node5</title>
<g id="a_Node000005"><a xlink:href="classAP__HAL_1_1BetterStream.html#a8534aa004599bb81ad60f3e762791032" target="_top" xlink:title=" ">
<polygon fill="white" stroke="#666666" points="469.5,-115.5 344.5,-115.5 344.5,-85.5 469.5,-85.5 469.5,-115.5"/>
<text text-anchor="start" x="352.5" y="-103.5" font-family="Helvetica,sans-Serif" font-size="10.00">AP_HAL::BetterStream</text>
<text text-anchor="middle" x="407" y="-92.5" font-family="Helvetica,sans-Serif" font-size="10.00">::printf</text>
</a>
</g>
</g>
<!-- Node3&#45;&gt;Node5 -->
<g id="edge4_Node000003_Node000005" class="edge">
<title>Node3&#45;&gt;Node5</title>
<g id="a_edge4_Node000003_Node000005"><a xlink:title=" ">
<path fill="none" stroke="#63b8ff" d="M304.4,-85.99C314.3,-87.4 324.55,-88.86 334.55,-90.29"/>
<polygon fill="#63b8ff" stroke="#63b8ff" points="334.06,-93.76 344.46,-91.71 335.05,-86.83 334.06,-93.76"/>
</a>
</g>
</g>
<!-- Node8 -->
<g id="Node000008" class="node">
<title>Node8</title>
<g id="a_Node000008"><a xlink:href="classLinux_1_1PWM__Sysfs__Base.html#a498c10f6b0197ec9ac2f8e5e40dbdb4b" target="_top" xlink:title=" ">
<polygon fill="white" stroke="#666666" points="474,-67.5 340,-67.5 340,-37.5 474,-37.5 474,-67.5"/>
<text text-anchor="start" x="348" y="-55.5" font-family="Helvetica,sans-Serif" font-size="10.00">Linux::PWM_Sysfs_Base</text>
<text text-anchor="middle" x="407" y="-44.5" font-family="Helvetica,sans-Serif" font-size="10.00">::set_duty_cycle</text>
</a>
</g>
</g>
<!-- Node3&#45;&gt;Node8 -->
<g id="edge7_Node000003_Node000008" class="edge">
<title>Node3&#45;&gt;Node8</title>
<g id="a_edge7_Node000003_Node000008"><a xlink:title=" ">
<path fill="none" stroke="#63b8ff" d="M304.4,-67.01C312.77,-65.82 321.39,-64.59 329.89,-63.37"/>
<polygon fill="#63b8ff" stroke="#63b8ff" points="330.4,-66.83 339.81,-61.96 329.41,-59.91 330.4,-66.83"/>
</a>
</g>
</g>
<!-- Node9 -->
<g id="Node000009" class="node">
<title>Node9</title>
<g id="a_Node000009"><a xlink:href="classLinux_1_1Util.html#af217ed63397b599a1b94ff6d0675ff9c" target="_top" xlink:title=" ">
<polygon fill="white" stroke="#666666" points="465.5,-19 348.5,-19 348.5,0 465.5,0 465.5,-19"/>
<text text-anchor="middle" x="407" y="-7" font-family="Helvetica,sans-Serif" font-size="10.00">Linux::Util::write_file</text>
</a>
</g>
</g>
<!-- Node3&#45;&gt;Node9 -->
<g id="edge8_Node000003_Node000009" class="edge">
<title>Node3&#45;&gt;Node9</title>
<g id="a_edge8_Node000003_Node000009"><a xlink:title=" ">
<path fill="none" stroke="#63b8ff" d="M266.92,-61.37C287.06,-51.22 314.72,-38.02 340,-28.5 346.08,-26.21 352.56,-24.04 358.99,-22.03"/>
<polygon fill="#63b8ff" stroke="#63b8ff" points="360.43,-25.25 369,-19.03 358.42,-18.55 360.43,-25.25"/>
</a>
</g>
</g>
<!-- Node6 -->
<g id="Node000006" class="node">
<title>Node6</title>
<g id="a_Node000006"><a xlink:href="classAP__HAL_1_1BetterStream.html#aa730be451d385d7ba03ee9677e6d91a2" target="_top" xlink:title=" ">
<polygon fill="white" stroke="#666666" points="635,-115.5 510,-115.5 510,-85.5 635,-85.5 635,-115.5"/>
<text text-anchor="start" x="518" y="-103.5" font-family="Helvetica,sans-Serif" font-size="10.00">AP_HAL::BetterStream</text>
<text text-anchor="middle" x="572.5" y="-92.5" font-family="Helvetica,sans-Serif" font-size="10.00">::vprintf</text>
</a>
</g>
</g>
<!-- Node5&#45;&gt;Node6 -->
<g id="edge5_Node000005_Node000006" class="edge">
<title>Node5&#45;&gt;Node6</title>
<g id="a_edge5_Node000005_Node000006"><a xlink:title=" ">
<path fill="none" stroke="#63b8ff" d="M469.81,-100.5C479.54,-100.5 489.68,-100.5 499.61,-100.5"/>
<polygon fill="#63b8ff" stroke="#63b8ff" points="499.87,-104 509.87,-100.5 499.87,-97 499.87,-104"/>
</a>
</g>
</g>
<!-- Node7 -->
<g id="Node000007" class="node">
<title>Node7</title>
<g id="a_Node000007"><a xlink:href="test__expandingstring__failure_8cpp.html#a98e0d5bb436a207f576379beaa786040" target="_top" xlink:title=" ">
<polygon fill="white" stroke="#666666" points="748,-110 671,-110 671,-91 748,-91 748,-110"/>
<text text-anchor="middle" x="709.5" y="-98" font-family="Helvetica,sans-Serif" font-size="10.00">print_vprintf</text>
</a>
</g>
</g>
<!-- Node6&#45;&gt;Node7 -->
<g id="edge6_Node000006_Node000007" class="edge">
<title>Node6&#45;&gt;Node7</title>
<g id="a_edge6_Node000006_Node000007"><a xlink:title=" ">
<path fill="none" stroke="#63b8ff" d="M635.07,-100.5C643.68,-100.5 652.41,-100.5 660.71,-100.5"/>
<polygon fill="#63b8ff" stroke="#63b8ff" points="660.95,-104 670.95,-100.5 660.95,-97 660.95,-104"/>
</a>
</g>
</g>
</g>
</svg>
