<?xml version="1.0" encoding="UTF-8" standalone="no"?>
<!DOCTYPE svg PUBLIC "-//W3C//DTD SVG 1.1//EN"
 "http://www.w3.org/Graphics/SVG/1.1/DTD/svg11.dtd">
<!-- Generated by graphviz version 2.43.0 (0)
 -->
<!-- Title: AP_HAL::RCOutput::force_safety_on Pages: 1 -->
<svg width="1785pt" height="507pt"
 viewBox="0.00 0.00 1785.00 507.00" xmlns="http://www.w3.org/2000/svg" xmlns:xlink="http://www.w3.org/1999/xlink">
<g id="graph0" class="graph" transform="scale(1 1) rotate(0) translate(4 503)">
<title>AP_HAL::RCOutput::force_safety_on</title>
<!-- Node1 -->
<g id="Node000001" class="node">
<title>Node1</title>
<g id="a_Node000001"><a xlink:title=" ">
<polygon fill="#999999" stroke="#666666" points="1777,-196 1640,-196 1640,-166 1777,-166 1777,-196"/>
<text text-anchor="start" x="1648" y="-184" font-family="Helvetica,sans-Serif" font-size="10.00">AP_HAL::RCOutput::force</text>
<text text-anchor="middle" x="1708.5" y="-173" font-family="Helvetica,sans-Serif" font-size="10.00">_safety_on</text>
</a>
</g>
</g>
<!-- Node2 -->
<g id="Node000002" class="node">
<title>Node2</title>
<g id="a_Node000002"><a xlink:href="classGCS__MAVLINK.html#a7ff42b90dc344d26bf27e7ed3f21c656" target="_top" xlink:title=" ">
<polygon fill="white" stroke="#666666" points="1604,-279 1458,-279 1458,-249 1604,-249 1604,-279"/>
<text text-anchor="start" x="1466" y="-267" font-family="Helvetica,sans-Serif" font-size="10.00">GCS_MAVLINK::_set_mode</text>
<text text-anchor="middle" x="1531" y="-256" font-family="Helvetica,sans-Serif" font-size="10.00">_common</text>
</a>
</g>
</g>
<!-- Node1&#45;&gt;Node2 -->
<g id="edge1_Node000001_Node000002" class="edge">
<title>Node1&#45;&gt;Node2</title>
<g id="a_edge1_Node000001_Node000002"><a xlink:title=" ">
<path fill="none" stroke="#63b8ff" d="M1669.58,-200.73C1650.11,-210.68 1625.93,-222.78 1604,-233 1592.4,-238.4 1579.62,-244.02 1568.08,-248.96"/>
<polygon fill="#63b8ff" stroke="#63b8ff" points="1671.43,-203.71 1678.72,-196.03 1668.23,-197.48 1671.43,-203.71"/>
</a>
</g>
</g>
<!-- Node12 -->
<g id="Node000012" class="node">
<title>Node12</title>
<g id="a_Node000012"><a xlink:href="classAP__Arming.html#a97cd0d015cd8f9b6920cfa1b304d84ef" target="_top" xlink:title=" ">
<polygon fill="white" stroke="#666666" points="1586,-407.5 1476,-407.5 1476,-388.5 1586,-388.5 1586,-407.5"/>
<text text-anchor="middle" x="1531" y="-395.5" font-family="Helvetica,sans-Serif" font-size="10.00">AP_Arming::disarm</text>
</a>
</g>
</g>
<!-- Node1&#45;&gt;Node12 -->
<g id="edge13_Node000001_Node000012" class="edge">
<title>Node1&#45;&gt;Node12</title>
<g id="a_edge13_Node000001_Node000012"><a xlink:title=" ">
<path fill="none" stroke="#63b8ff" d="M1697.62,-205.47C1682.07,-241.65 1648.94,-309.98 1604,-355 1589.6,-369.43 1569.42,-380.93 1554.08,-388.4"/>
<polygon fill="#63b8ff" stroke="#63b8ff" points="1700.89,-206.74 1701.54,-196.16 1694.44,-204.02 1700.89,-206.74"/>
</a>
</g>
</g>
<!-- Node26 -->
<g id="Node000026" class="node">
<title>Node26</title>
<g id="a_Node000026"><a xlink:href="classAP__IOMCU__FW.html#a588a102aed1b2ef4fd7f48e4efdb7cf5" target="_top" xlink:title=" ">
<polygon fill="white" stroke="#666666" points="1595,-346 1467,-346 1467,-316 1595,-316 1595,-346"/>
<text text-anchor="start" x="1475" y="-334" font-family="Helvetica,sans-Serif" font-size="10.00">AP_IOMCU_FW::handle</text>
<text text-anchor="middle" x="1531" y="-323" font-family="Helvetica,sans-Serif" font-size="10.00">_code_write</text>
</a>
</g>
</g>
<!-- Node1&#45;&gt;Node26 -->
<g id="edge28_Node000001_Node000026" class="edge">
<title>Node1&#45;&gt;Node26</title>
<g id="a_edge28_Node000001_Node000026"><a xlink:title=" ">
<path fill="none" stroke="#63b8ff" d="M1688.54,-203.89C1668.86,-226.8 1636.47,-262.26 1604,-288 1590.76,-298.49 1574.74,-308.3 1561.17,-315.9"/>
<polygon fill="#63b8ff" stroke="#63b8ff" points="1691.39,-205.94 1695.19,-196.05 1686.05,-201.41 1691.39,-205.94"/>
</a>
</g>
</g>
<!-- Node30 -->
<g id="Node000030" class="node">
<title>Node30</title>
<g id="a_Node000030"><a xlink:href="classGCS__MAVLINK.html#a427f5463db16f863b7d098909864d2e5" target="_top" xlink:title=" ">
<polygon fill="white" stroke="#666666" points="1404.5,-231 1247.5,-231 1247.5,-201 1404.5,-201 1404.5,-231"/>
<text text-anchor="start" x="1255.5" y="-219" font-family="Helvetica,sans-Serif" font-size="10.00">GCS_MAVLINK::handle</text>
<text text-anchor="middle" x="1326" y="-208" font-family="Helvetica,sans-Serif" font-size="10.00">_do_set_safety_switch_state</text>
</a>
</g>
</g>
<!-- Node1&#45;&gt;Node30 -->
<g id="edge32_Node000001_Node000030" class="edge">
<title>Node1&#45;&gt;Node30</title>
<g id="a_edge32_Node000001_Node000030"><a xlink:title=" ">
<path fill="none" stroke="#63b8ff" d="M1629.67,-196.36C1621.03,-197.74 1612.34,-199 1604,-200 1536.92,-208.06 1460.2,-212.09 1404.54,-214.09"/>
<polygon fill="#63b8ff" stroke="#63b8ff" points="1630.47,-199.77 1639.76,-194.68 1629.32,-192.86 1630.47,-199.77"/>
</a>
</g>
</g>
<!-- Node31 -->
<g id="Node000031" class="node">
<title>Node31</title>
<g id="a_Node000031"><a xlink:href="classAP__Vehicle.html#adfea30d579ab9d05e228d3e91854dd53" target="_top" xlink:title=" ">
<polygon fill="white" stroke="#666666" points="1584.5,-190.5 1477.5,-190.5 1477.5,-171.5 1584.5,-171.5 1584.5,-190.5"/>
<text text-anchor="middle" x="1531" y="-178.5" font-family="Helvetica,sans-Serif" font-size="10.00">AP_Vehicle::reboot</text>
</a>
</g>
</g>
<!-- Node1&#45;&gt;Node31 -->
<g id="edge34_Node000001_Node000031" class="edge">
<title>Node1&#45;&gt;Node31</title>
<g id="a_edge34_Node000001_Node000031"><a xlink:title=" ">
<path fill="none" stroke="#63b8ff" d="M1629.47,-181C1614.28,-181 1598.7,-181 1584.58,-181"/>
<polygon fill="#63b8ff" stroke="#63b8ff" points="1629.9,-184.5 1639.9,-181 1629.9,-177.5 1629.9,-184.5"/>
</a>
</g>
</g>
<!-- Node39 -->
<g id="Node000039" class="node">
<title>Node39</title>
<g id="a_Node000039"><a xlink:href="classChibiOS_1_1Scheduler.html#a1b2c3c10fba129d89a5bfd6c2aac69c4" target="_top" xlink:title=" ">
<polygon fill="white" stroke="#666666" points="1585.5,-153 1476.5,-153 1476.5,-123 1585.5,-123 1585.5,-153"/>
<text text-anchor="start" x="1484.5" y="-141" font-family="Helvetica,sans-Serif" font-size="10.00">ChibiOS::Scheduler</text>
<text text-anchor="middle" x="1531" y="-130" font-family="Helvetica,sans-Serif" font-size="10.00">::reboot</text>
</a>
</g>
</g>
<!-- Node1&#45;&gt;Node39 -->
<g id="edge43_Node000001_Node000039" class="edge">
<title>Node1&#45;&gt;Node39</title>
<g id="a_edge43_Node000001_Node000039"><a xlink:title=" ">
<path fill="none" stroke="#63b8ff" d="M1636.3,-163.55C1619.42,-159.42 1601.7,-155.08 1585.75,-151.17"/>
<polygon fill="#63b8ff" stroke="#63b8ff" points="1635.57,-166.98 1646.12,-165.96 1637.24,-160.18 1635.57,-166.98"/>
</a>
</g>
</g>
<!-- Node40 -->
<g id="Node000040" class="node">
<title>Node40</title>
<g id="a_Node000040"><a xlink:href="classESP32_1_1Scheduler.html#a1b2c3c10fba129d89a5bfd6c2aac69c4" target="_top" xlink:title=" ">
<polygon fill="white" stroke="#666666" points="1600,-104.5 1462,-104.5 1462,-85.5 1600,-85.5 1600,-104.5"/>
<text text-anchor="middle" x="1531" y="-92.5" font-family="Helvetica,sans-Serif" font-size="10.00">ESP32::Scheduler::reboot</text>
</a>
</g>
</g>
<!-- Node1&#45;&gt;Node40 -->
<g id="edge44_Node000001_Node000040" class="edge">
<title>Node1&#45;&gt;Node40</title>
<g id="a_edge44_Node000001_Node000040"><a xlink:title=" ">
<path fill="none" stroke="#63b8ff" d="M1680.26,-159.93C1660.15,-145.26 1631.58,-126.19 1604,-114 1595.49,-110.24 1586.07,-107.09 1576.92,-104.5"/>
<polygon fill="#63b8ff" stroke="#63b8ff" points="1678.22,-162.78 1688.34,-165.92 1682.39,-157.16 1678.22,-162.78"/>
</a>
</g>
</g>
<!-- Node41 -->
<g id="Node000041" class="node">
<title>Node41</title>
<g id="a_Node000041"><a xlink:href="classHAL__Linux.html#a9b8394eb66ea6d3d5539aaaf47c3bf80" target="_top" xlink:title=" ">
<polygon fill="white" stroke="#666666" points="1575.5,-67.5 1486.5,-67.5 1486.5,-48.5 1575.5,-48.5 1575.5,-67.5"/>
<text text-anchor="middle" x="1531" y="-55.5" font-family="Helvetica,sans-Serif" font-size="10.00">HAL_Linux::run</text>
</a>
</g>
</g>
<!-- Node1&#45;&gt;Node41 -->
<g id="edge45_Node000001_Node000041" class="edge">
<title>Node1&#45;&gt;Node41</title>
<g id="a_edge45_Node000001_Node000041"><a xlink:title=" ">
<path fill="none" stroke="#63b8ff" d="M1690.79,-157.68C1672.28,-133.59 1640.23,-96.68 1604,-76 1595.38,-71.08 1585.44,-67.49 1575.74,-64.88"/>
<polygon fill="#63b8ff" stroke="#63b8ff" points="1688.17,-160.03 1696.97,-165.92 1693.77,-155.82 1688.17,-160.03"/>
</a>
</g>
</g>
<!-- Node42 -->
<g id="Node000042" class="node">
<title>Node42</title>
<g id="a_Node000042"><a xlink:href="classAP__IOMCU__FW.html#a6a00574abc4606791259e65ec376a0a1" target="_top" xlink:title=" ">
<polygon fill="white" stroke="#666666" points="1593.5,-30 1468.5,-30 1468.5,0 1593.5,0 1593.5,-30"/>
<text text-anchor="start" x="1476.5" y="-18" font-family="Helvetica,sans-Serif" font-size="10.00">AP_IOMCU_FW::safety</text>
<text text-anchor="middle" x="1531" y="-7" font-family="Helvetica,sans-Serif" font-size="10.00">_update</text>
</a>
</g>
</g>
<!-- Node1&#45;&gt;Node42 -->
<g id="edge46_Node000001_Node000042" class="edge">
<title>Node1&#45;&gt;Node42</title>
<g id="a_edge46_Node000001_Node000042"><a xlink:title=" ">
<path fill="none" stroke="#63b8ff" d="M1695.89,-156.76C1679.6,-125.24 1647.07,-70.49 1604,-39 1599.32,-35.58 1594.12,-32.62 1588.72,-30.08"/>
<polygon fill="#63b8ff" stroke="#63b8ff" points="1692.79,-158.39 1700.42,-165.75 1699.04,-155.24 1692.79,-158.39"/>
</a>
</g>
</g>
<!-- Node3 -->
<g id="Node000003" class="node">
<title>Node3</title>
<g id="a_Node000003"><a xlink:href="classGCS__MAVLINK.html#a214db675f6d60b1c478371430ac900fd" target="_top" xlink:title=" ">
<polygon fill="white" stroke="#666666" points="1396.5,-279 1255.5,-279 1255.5,-249 1396.5,-249 1396.5,-279"/>
<text text-anchor="start" x="1263.5" y="-267" font-family="Helvetica,sans-Serif" font-size="10.00">GCS_MAVLINK::handle</text>
<text text-anchor="middle" x="1326" y="-256" font-family="Helvetica,sans-Serif" font-size="10.00">_command_do_set_mode</text>
</a>
</g>
</g>
<!-- Node2&#45;&gt;Node3 -->
<g id="edge2_Node000002_Node000003" class="edge">
<title>Node2&#45;&gt;Node3</title>
<g id="a_edge2_Node000002_Node000003"><a xlink:title=" ">
<path fill="none" stroke="#63b8ff" d="M1447.45,-264C1430.54,-264 1412.92,-264 1396.53,-264"/>
<polygon fill="#63b8ff" stroke="#63b8ff" points="1447.86,-267.5 1457.86,-264 1447.86,-260.5 1447.86,-267.5"/>
</a>
</g>
</g>
<!-- Node11 -->
<g id="Node000011" class="node">
<title>Node11</title>
<g id="a_Node000011"><a xlink:href="classGCS__MAVLINK.html#a6f4794955432abe5051104e343f0c74a" target="_top" xlink:title=" ">
<polygon fill="white" stroke="#666666" points="1176,-322 1051,-322 1051,-292 1176,-292 1176,-322"/>
<text text-anchor="start" x="1059" y="-310" font-family="Helvetica,sans-Serif" font-size="10.00">GCS_MAVLINK::handle</text>
<text text-anchor="middle" x="1113.5" y="-299" font-family="Helvetica,sans-Serif" font-size="10.00">_set_mode</text>
</a>
</g>
</g>
<!-- Node2&#45;&gt;Node11 -->
<g id="edge11_Node000002_Node000011" class="edge">
<title>Node2&#45;&gt;Node11</title>
<g id="a_edge11_Node000002_Node000011"><a xlink:title=" ">
<path fill="none" stroke="#63b8ff" d="M1460.28,-281.17C1447.61,-283.81 1434.46,-286.24 1422,-288 1337.26,-299.96 1238.33,-304.39 1176.05,-306.03"/>
<polygon fill="#63b8ff" stroke="#63b8ff" points="1461.28,-284.54 1470.32,-279.02 1459.81,-277.69 1461.28,-284.54"/>
</a>
</g>
</g>
<!-- Node4 -->
<g id="Node000004" class="node">
<title>Node4</title>
<g id="a_Node000004"><a xlink:href="classGCS__MAVLINK.html#aad725bb94f05a7304fba0e90ae63b60b" target="_top" xlink:title=" ">
<polygon fill="white" stroke="#666666" points="1176.5,-231 1050.5,-231 1050.5,-201 1176.5,-201 1176.5,-231"/>
<text text-anchor="start" x="1058.5" y="-219" font-family="Helvetica,sans-Serif" font-size="10.00">GCS_MAVLINK::handle</text>
<text text-anchor="middle" x="1113.5" y="-208" font-family="Helvetica,sans-Serif" font-size="10.00">_command_int_packet</text>
</a>
</g>
</g>
<!-- Node3&#45;&gt;Node4 -->
<g id="edge3_Node000003_Node000004" class="edge">
<title>Node3&#45;&gt;Node4</title>
<g id="a_edge3_Node000003_Node000004"><a xlink:title=" ">
<path fill="none" stroke="#63b8ff" d="M1248.95,-246.66C1225.23,-241.25 1199.36,-235.35 1176.7,-230.18"/>
<polygon fill="#63b8ff" stroke="#63b8ff" points="1248.45,-250.13 1258.97,-248.94 1250,-243.31 1248.45,-250.13"/>
</a>
</g>
</g>
<!-- Node5 -->
<g id="Node000005" class="node">
<title>Node5</title>
<g id="a_Node000005"><a xlink:href="classGCS__MAVLINK.html#ab28430148b209e9c4446c1f168d6dc13" target="_top" xlink:title=" ">
<polygon fill="white" stroke="#666666" points="979,-279 854,-279 854,-249 979,-249 979,-279"/>
<text text-anchor="start" x="862" y="-267" font-family="Helvetica,sans-Serif" font-size="10.00">GCS_MAVLINK::handle</text>
<text text-anchor="middle" x="916.5" y="-256" font-family="Helvetica,sans-Serif" font-size="10.00">_command_int</text>
</a>
</g>
</g>
<!-- Node4&#45;&gt;Node5 -->
<g id="edge4_Node000004_Node000005" class="edge">
<title>Node4&#45;&gt;Node5</title>
<g id="a_edge4_Node000004_Node000005"><a xlink:title=" ">
<path fill="none" stroke="#63b8ff" d="M1041.36,-233.51C1020.73,-238.59 998.4,-244.09 978.45,-249"/>
<polygon fill="#63b8ff" stroke="#63b8ff" points="1042.46,-236.84 1051.34,-231.06 1040.79,-230.05 1042.46,-236.84"/>
</a>
</g>
</g>
<!-- Node9 -->
<g id="Node000009" class="node">
<title>Node9</title>
<g id="a_Node000009"><a xlink:href="classGCS__MAVLINK.html#aa87b593b8787bc584f535ab05a10a348" target="_top" xlink:title=" ">
<polygon fill="white" stroke="#666666" points="996.5,-231 836.5,-231 836.5,-201 996.5,-201 996.5,-231"/>
<text text-anchor="start" x="844.5" y="-219" font-family="Helvetica,sans-Serif" font-size="10.00">GCS_MAVLINK::try_command</text>
<text text-anchor="middle" x="916.5" y="-208" font-family="Helvetica,sans-Serif" font-size="10.00">_long_as_command_int</text>
</a>
</g>
</g>
<!-- Node4&#45;&gt;Node9 -->
<g id="edge8_Node000004_Node000009" class="edge">
<title>Node4&#45;&gt;Node9</title>
<g id="a_edge8_Node000004_Node000009"><a xlink:title=" ">
<path fill="none" stroke="#63b8ff" d="M1040.1,-216C1025.93,-216 1011.01,-216 996.63,-216"/>
<polygon fill="#63b8ff" stroke="#63b8ff" points="1040.26,-219.5 1050.26,-216 1040.26,-212.5 1040.26,-219.5"/>
</a>
</g>
</g>
<!-- Node6 -->
<g id="Node000006" class="node">
<title>Node6</title>
<g id="a_Node000006"><a xlink:href="classGCS__MAVLINK.html#a04524aa4f259e8c03bcfe2d06fc53f62" target="_top" xlink:title=" ">
<polygon fill="white" stroke="#666666" points="588,-279 463,-279 463,-249 588,-249 588,-279"/>
<text text-anchor="start" x="471" y="-267" font-family="Helvetica,sans-Serif" font-size="10.00">GCS_MAVLINK::handle</text>
<text text-anchor="middle" x="525.5" y="-256" font-family="Helvetica,sans-Serif" font-size="10.00">_message</text>
</a>
</g>
</g>
<!-- Node5&#45;&gt;Node6 -->
<g id="edge5_Node000005_Node000006" class="edge">
<title>Node5&#45;&gt;Node6</title>
<g id="a_edge5_Node000005_Node000006"><a xlink:title=" ">
<path fill="none" stroke="#63b8ff" d="M843.78,-264C770.43,-264 657.65,-264 588.17,-264"/>
<polygon fill="#63b8ff" stroke="#63b8ff" points="843.86,-267.5 853.86,-264 843.86,-260.5 843.86,-267.5"/>
</a>
</g>
</g>
<!-- Node7 -->
<g id="Node000007" class="node">
<title>Node7</title>
<g id="a_Node000007"><a xlink:href="classGCS__MAVLINK.html#a68afd5b3679a046f48da0b4a202bd572" target="_top" xlink:title=" ">
<polygon fill="white" stroke="#666666" points="412,-273.5 242,-273.5 242,-254.5 412,-254.5 412,-273.5"/>
<text text-anchor="middle" x="327" y="-261.5" font-family="Helvetica,sans-Serif" font-size="10.00">GCS_MAVLINK::packetReceived</text>
</a>
</g>
</g>
<!-- Node6&#45;&gt;Node7 -->
<g id="edge6_Node000006_Node000007" class="edge">
<title>Node6&#45;&gt;Node7</title>
<g id="a_edge6_Node000006_Node000007"><a xlink:title=" ">
<path fill="none" stroke="#63b8ff" d="M452.5,-264C439.36,-264 425.55,-264 412.1,-264"/>
<polygon fill="#63b8ff" stroke="#63b8ff" points="452.87,-267.5 462.87,-264 452.87,-260.5 452.87,-267.5"/>
</a>
</g>
</g>
<!-- Node8 -->
<g id="Node000008" class="node">
<title>Node8</title>
<g id="a_Node000008"><a xlink:href="classGCS__MAVLINK.html#ac22097067827164c0c26e7ead36b21e7" target="_top" xlink:title=" ">
<polygon fill="white" stroke="#666666" points="206,-279 80,-279 80,-249 206,-249 206,-279"/>
<text text-anchor="start" x="88" y="-267" font-family="Helvetica,sans-Serif" font-size="10.00">GCS_MAVLINK::update</text>
<text text-anchor="middle" x="143" y="-256" font-family="Helvetica,sans-Serif" font-size="10.00">_receive</text>
</a>
</g>
</g>
<!-- Node7&#45;&gt;Node8 -->
<g id="edge7_Node000007_Node000008" class="edge">
<title>Node7&#45;&gt;Node8</title>
<g id="a_edge7_Node000007_Node000008"><a xlink:title=" ">
<path fill="none" stroke="#63b8ff" d="M231.77,-264C223.12,-264 214.5,-264 206.24,-264"/>
<polygon fill="#63b8ff" stroke="#63b8ff" points="231.93,-267.5 241.93,-264 231.93,-260.5 231.93,-267.5"/>
</a>
</g>
</g>
<!-- Node10 -->
<g id="Node000010" class="node">
<title>Node10</title>
<g id="a_Node000010"><a xlink:href="classGCS__MAVLINK.html#a7f6b8344d6c1a148756206b679a60e73" target="_top" xlink:title=" ">
<polygon fill="white" stroke="#666666" points="782,-234 657,-234 657,-204 782,-204 782,-234"/>
<text text-anchor="start" x="665" y="-222" font-family="Helvetica,sans-Serif" font-size="10.00">GCS_MAVLINK::handle</text>
<text text-anchor="middle" x="719.5" y="-211" font-family="Helvetica,sans-Serif" font-size="10.00">_command_long</text>
</a>
</g>
</g>
<!-- Node9&#45;&gt;Node10 -->
<g id="edge9_Node000009_Node000010" class="edge">
<title>Node9&#45;&gt;Node10</title>
<g id="a_edge9_Node000009_Node000010"><a xlink:title=" ">
<path fill="none" stroke="#63b8ff" d="M826.24,-217.37C811.38,-217.6 796.26,-217.83 782.28,-218.05"/>
<polygon fill="#63b8ff" stroke="#63b8ff" points="826.52,-220.87 836.47,-217.22 826.41,-213.87 826.52,-220.87"/>
</a>
</g>
</g>
<!-- Node10&#45;&gt;Node6 -->
<g id="edge10_Node000010_Node000006" class="edge">
<title>Node10&#45;&gt;Node6</title>
<g id="a_edge10_Node000010_Node000006"><a xlink:title=" ">
<path fill="none" stroke="#63b8ff" d="M646.97,-235.76C627.6,-240.31 606.8,-245.18 588.02,-249.58"/>
<polygon fill="#63b8ff" stroke="#63b8ff" points="648.02,-239.11 656.96,-233.42 646.42,-232.3 648.02,-239.11"/>
</a>
</g>
</g>
<!-- Node11&#45;&gt;Node6 -->
<g id="edge12_Node000011_Node000006" class="edge">
<title>Node11&#45;&gt;Node6</title>
<g id="a_edge12_Node000011_Node000006"><a xlink:title=" ">
<path fill="none" stroke="#63b8ff" d="M1040.61,-304C947.72,-299.8 781.08,-291.18 639,-278 622.44,-276.46 604.55,-274.42 588.02,-272.36"/>
<polygon fill="#63b8ff" stroke="#63b8ff" points="1040.59,-307.5 1050.74,-304.45 1040.9,-300.51 1040.59,-307.5"/>
</a>
</g>
</g>
<!-- Node13 -->
<g id="Node000013" class="node">
<title>Node13</title>
<g id="a_Node000013"><a xlink:href="classRC__Channel.html#a338ed2992c099317acffb83a3ee2a40a" target="_top" xlink:title=" ">
<polygon fill="white" stroke="#666666" points="1171.5,-434 1055.5,-434 1055.5,-404 1171.5,-404 1171.5,-434"/>
<text text-anchor="start" x="1063.5" y="-422" font-family="Helvetica,sans-Serif" font-size="10.00">RC_Channel::do_aux</text>
<text text-anchor="middle" x="1113.5" y="-411" font-family="Helvetica,sans-Serif" font-size="10.00">_function</text>
</a>
</g>
</g>
<!-- Node12&#45;&gt;Node13 -->
<g id="edge14_Node000012_Node000013" class="edge">
<title>Node12&#45;&gt;Node13</title>
<g id="a_edge14_Node000012_Node000013"><a xlink:title=" ">
<path fill="none" stroke="#63b8ff" d="M1485.99,-410.07C1466.54,-414.8 1443.3,-419.66 1422,-422 1335.1,-431.54 1233.56,-427.65 1171.66,-423.6"/>
<polygon fill="#63b8ff" stroke="#63b8ff" points="1486.94,-413.44 1495.79,-407.61 1485.24,-406.65 1486.94,-413.44"/>
</a>
</g>
</g>
<!-- Node25 -->
<g id="Node000025" class="node">
<title>Node25</title>
<g id="a_Node000025"><a xlink:href="classRC__Channel.html#aed015ae6e676a9f90763a6115a7545ee" target="_top" xlink:title=" ">
<polygon fill="white" stroke="#666666" points="1386,-413 1266,-413 1266,-383 1386,-383 1386,-413"/>
<text text-anchor="start" x="1274" y="-401" font-family="Helvetica,sans-Serif" font-size="10.00">RC_Channel::do_aux</text>
<text text-anchor="middle" x="1326" y="-390" font-family="Helvetica,sans-Serif" font-size="10.00">_function_armdisarm</text>
</a>
</g>
</g>
<!-- Node12&#45;&gt;Node25 -->
<g id="edge26_Node000012_Node000025" class="edge">
<title>Node12&#45;&gt;Node25</title>
<g id="a_edge26_Node000012_Node000025"><a xlink:title=" ">
<path fill="none" stroke="#63b8ff" d="M1465.59,-398C1440.2,-398 1411.21,-398 1386.33,-398"/>
<polygon fill="#63b8ff" stroke="#63b8ff" points="1465.87,-401.5 1475.87,-398 1465.87,-394.5 1465.87,-401.5"/>
</a>
</g>
</g>
<!-- Node14 -->
<g id="Node000014" class="node">
<title>Node14</title>
<g id="a_Node000014"><a xlink:href="classRC__Channel.html#a466a63bf0f7aadea5619bef7da61e885" target="_top" xlink:title=" ">
<polygon fill="white" stroke="#666666" points="976.5,-434 856.5,-434 856.5,-404 976.5,-404 976.5,-434"/>
<text text-anchor="start" x="864.5" y="-422" font-family="Helvetica,sans-Serif" font-size="10.00">RC_Channel::run_aux</text>
<text text-anchor="middle" x="916.5" y="-411" font-family="Helvetica,sans-Serif" font-size="10.00">_function</text>
</a>
</g>
</g>
<!-- Node13&#45;&gt;Node14 -->
<g id="edge15_Node000013_Node000014" class="edge">
<title>Node13&#45;&gt;Node14</title>
<g id="a_edge15_Node000013_Node000014"><a xlink:title=" ">
<path fill="none" stroke="#63b8ff" d="M1045.26,-419C1022.98,-419 998.35,-419 976.72,-419"/>
<polygon fill="#63b8ff" stroke="#63b8ff" points="1045.31,-422.5 1055.31,-419 1045.31,-415.5 1045.31,-422.5"/>
</a>
</g>
</g>
<!-- Node15 -->
<g id="Node000015" class="node">
<title>Node15</title>
<g id="a_Node000015"><a xlink:href="classRC__Channel.html#ab6878bae0e26a59c15a5f51f6a51778e" target="_top" xlink:title=" ">
<polygon fill="white" stroke="#666666" points="779.5,-499 659.5,-499 659.5,-469 779.5,-469 779.5,-499"/>
<text text-anchor="start" x="667.5" y="-487" font-family="Helvetica,sans-Serif" font-size="10.00">RC_Channel::init_aux</text>
<text text-anchor="middle" x="719.5" y="-476" font-family="Helvetica,sans-Serif" font-size="10.00">_function</text>
</a>
</g>
</g>
<!-- Node14&#45;&gt;Node15 -->
<g id="edge16_Node000014_Node000015" class="edge">
<title>Node14&#45;&gt;Node15</title>
<g id="a_edge16_Node000014_Node000015"><a xlink:title=" ">
<path fill="none" stroke="#63b8ff" d="M864.91,-437.55C844.78,-444.77 821.37,-452.99 800,-460 790.82,-463.01 781,-466.09 771.51,-469"/>
<polygon fill="#63b8ff" stroke="#63b8ff" points="866.28,-440.78 874.5,-434.09 863.91,-434.19 866.28,-440.78"/>
</a>
</g>
</g>
<!-- Node20 -->
<g id="Node000020" class="node">
<title>Node20</title>
<g id="a_Node000020"><a xlink:href="classRC__Channel.html#aac5143b957916aec428b6bc79f29456d" target="_top" xlink:title=" ">
<polygon fill="white" stroke="#666666" points="782.5,-450.5 656.5,-450.5 656.5,-431.5 782.5,-431.5 782.5,-450.5"/>
<text text-anchor="middle" x="719.5" y="-438.5" font-family="Helvetica,sans-Serif" font-size="10.00">RC_Channel::read_aux</text>
</a>
</g>
</g>
<!-- Node14&#45;&gt;Node20 -->
<g id="edge21_Node000014_Node000020" class="edge">
<title>Node14&#45;&gt;Node20</title>
<g id="a_edge21_Node000014_Node000020"><a xlink:title=" ">
<path fill="none" stroke="#63b8ff" d="M846.44,-426.79C825.67,-429.13 803.02,-431.69 782.72,-433.98"/>
<polygon fill="#63b8ff" stroke="#63b8ff" points="846.92,-430.26 856.46,-425.66 846.14,-423.3 846.92,-430.26"/>
</a>
</g>
</g>
<!-- Node22 -->
<g id="Node000022" class="node">
<title>Node22</title>
<g id="a_Node000022"><a xlink:href="classRC__Channels.html#aa03377adb7e7b07575487043309d50c6" target="_top" xlink:title=" ">
<polygon fill="white" stroke="#666666" points="782,-365 657,-365 657,-335 782,-335 782,-365"/>
<text text-anchor="start" x="665" y="-353" font-family="Helvetica,sans-Serif" font-size="10.00">RC_Channels::run_aux</text>
<text text-anchor="middle" x="719.5" y="-342" font-family="Helvetica,sans-Serif" font-size="10.00">_function</text>
</a>
</g>
</g>
<!-- Node14&#45;&gt;Node22 -->
<g id="edge23_Node000014_Node000022" class="edge">
<title>Node14&#45;&gt;Node22</title>
<g id="a_edge23_Node000014_Node000022"><a xlink:title=" ">
<path fill="none" stroke="#63b8ff" d="M869.74,-400.22C848.65,-391.81 823.2,-382.01 800,-374 791.14,-370.94 781.66,-367.89 772.43,-365.04"/>
<polygon fill="#63b8ff" stroke="#63b8ff" points="868.51,-403.5 879.1,-403.97 871.12,-397 868.51,-403.5"/>
</a>
</g>
</g>
<!-- Node23 -->
<g id="Node000023" class="node">
<title>Node23</title>
<g id="a_Node000023"><a xlink:href="classAP__Button.html#a62288ab93c5e64a4089d324737a52646" target="_top" xlink:title=" ">
<polygon fill="white" stroke="#666666" points="775.5,-413 663.5,-413 663.5,-383 775.5,-383 775.5,-413"/>
<text text-anchor="start" x="671.5" y="-401" font-family="Helvetica,sans-Serif" font-size="10.00">AP_Button::run_aux</text>
<text text-anchor="middle" x="719.5" y="-390" font-family="Helvetica,sans-Serif" font-size="10.00">_functions</text>
</a>
</g>
</g>
<!-- Node14&#45;&gt;Node23 -->
<g id="edge24_Node000014_Node000023" class="edge">
<title>Node14&#45;&gt;Node23</title>
<g id="a_edge24_Node000014_Node000023"><a xlink:title=" ">
<path fill="none" stroke="#63b8ff" d="M846.35,-411.55C823.16,-409.06 797.64,-406.31 775.67,-403.94"/>
<polygon fill="#63b8ff" stroke="#63b8ff" points="846.15,-415.05 856.46,-412.64 846.9,-408.09 846.15,-415.05"/>
</a>
</g>
</g>
<!-- Node16 -->
<g id="Node000016" class="node">
<title>Node16</title>
<g id="a_Node000016"><a xlink:href="classRC__Channel.html#a2e0ed24b88e1d47d9056bc8b6e28650f" target="_top" xlink:title=" ">
<polygon fill="white" stroke="#666666" points="585.5,-493.5 465.5,-493.5 465.5,-474.5 585.5,-474.5 585.5,-493.5"/>
<text text-anchor="middle" x="525.5" y="-481.5" font-family="Helvetica,sans-Serif" font-size="10.00">RC_Channel::init_aux</text>
</a>
</g>
</g>
<!-- Node15&#45;&gt;Node16 -->
<g id="edge17_Node000015_Node000016" class="edge">
<title>Node15&#45;&gt;Node16</title>
<g id="a_edge17_Node000015_Node000016"><a xlink:title=" ">
<path fill="none" stroke="#63b8ff" d="M649.29,-484C628.5,-484 605.89,-484 585.81,-484"/>
<polygon fill="#63b8ff" stroke="#63b8ff" points="649.33,-487.5 659.33,-484 649.33,-480.5 649.33,-487.5"/>
</a>
</g>
</g>
<!-- Node17 -->
<g id="Node000017" class="node">
<title>Node17</title>
<g id="a_Node000017"><a xlink:href="classRC__Channels.html#a668ee11266919ed21cc542df61043cca" target="_top" xlink:title=" ">
<polygon fill="white" stroke="#666666" points="398.5,-493.5 255.5,-493.5 255.5,-474.5 398.5,-474.5 398.5,-493.5"/>
<text text-anchor="middle" x="327" y="-481.5" font-family="Helvetica,sans-Serif" font-size="10.00">RC_Channels::init_aux_all</text>
</a>
</g>
</g>
<!-- Node16&#45;&gt;Node17 -->
<g id="edge18_Node000016_Node000017" class="edge">
<title>Node16&#45;&gt;Node17</title>
<g id="a_edge18_Node000016_Node000017"><a xlink:title=" ">
<path fill="none" stroke="#63b8ff" d="M455.23,-484C436.85,-484 416.98,-484 398.53,-484"/>
<polygon fill="#63b8ff" stroke="#63b8ff" points="455.28,-487.5 465.28,-484 455.28,-480.5 455.28,-487.5"/>
</a>
</g>
</g>
<!-- Node18 -->
<g id="Node000018" class="node">
<title>Node18</title>
<g id="a_Node000018"><a xlink:href="classRC__Channels.html#a41ac050f115225f84b06b97fb79ee56f" target="_top" xlink:title=" ">
<polygon fill="white" stroke="#666666" points="194,-493.5 92,-493.5 92,-474.5 194,-474.5 194,-493.5"/>
<text text-anchor="middle" x="143" y="-481.5" font-family="Helvetica,sans-Serif" font-size="10.00">RC_Channels::init</text>
</a>
</g>
</g>
<!-- Node17&#45;&gt;Node18 -->
<g id="edge19_Node000017_Node000018" class="edge">
<title>Node17&#45;&gt;Node18</title>
<g id="a_edge19_Node000017_Node000018"><a xlink:title=" ">
<path fill="none" stroke="#63b8ff" d="M245.19,-484C227.77,-484 209.85,-484 194.01,-484"/>
<polygon fill="#63b8ff" stroke="#63b8ff" points="245.37,-487.5 255.37,-484 245.37,-480.5 245.37,-487.5"/>
</a>
</g>
</g>
<!-- Node19 -->
<g id="Node000019" class="node">
<title>Node19</title>
<g id="a_Node000019"><a xlink:href="AC__PID__test_8cpp.html#a4fc01d736fe50cf5b977f755b675f11d" target="_top" xlink:title=" ">
<polygon fill="white" stroke="#666666" points="44,-493.5 0,-493.5 0,-474.5 44,-474.5 44,-493.5"/>
<text text-anchor="middle" x="22" y="-481.5" font-family="Helvetica,sans-Serif" font-size="10.00">setup</text>
</a>
</g>
</g>
<!-- Node18&#45;&gt;Node19 -->
<g id="edge20_Node000018_Node000019" class="edge">
<title>Node18&#45;&gt;Node19</title>
<g id="a_edge20_Node000018_Node000019"><a xlink:title=" ">
<path fill="none" stroke="#63b8ff" d="M81.58,-484C68.07,-484 54.62,-484 44.02,-484"/>
<polygon fill="#63b8ff" stroke="#63b8ff" points="81.88,-487.5 91.88,-484 81.88,-480.5 81.88,-487.5"/>
</a>
</g>
</g>
<!-- Node21 -->
<g id="Node000021" class="node">
<title>Node21</title>
<g id="a_Node000021"><a xlink:href="classRC__Channels.html#afce42af83fb4e3a19d56c330a99c59b5" target="_top" xlink:title=" ">
<polygon fill="white" stroke="#666666" points="600,-450.5 451,-450.5 451,-431.5 600,-431.5 600,-450.5"/>
<text text-anchor="middle" x="525.5" y="-438.5" font-family="Helvetica,sans-Serif" font-size="10.00">RC_Channels::read_aux_all</text>
</a>
</g>
</g>
<!-- Node20&#45;&gt;Node21 -->
<g id="edge22_Node000020_Node000021" class="edge">
<title>Node20&#45;&gt;Node21</title>
<g id="a_edge22_Node000020_Node000021"><a xlink:title=" ">
<path fill="none" stroke="#63b8ff" d="M646.15,-441C631.08,-441 615.19,-441 600.07,-441"/>
<polygon fill="#63b8ff" stroke="#63b8ff" points="646.43,-444.5 656.43,-441 646.43,-437.5 646.43,-444.5"/>
</a>
</g>
</g>
<!-- Node24 -->
<g id="Node000024" class="node">
<title>Node24</title>
<g id="a_Node000024"><a xlink:href="classAP__Button.html#aca0e09611ac7454783d703c75d5df288" target="_top" xlink:title=" ">
<polygon fill="white" stroke="#666666" points="579,-407.5 472,-407.5 472,-388.5 579,-388.5 579,-407.5"/>
<text text-anchor="middle" x="525.5" y="-395.5" font-family="Helvetica,sans-Serif" font-size="10.00">AP_Button::update</text>
</a>
</g>
</g>
<!-- Node23&#45;&gt;Node24 -->
<g id="edge25_Node000023_Node000024" class="edge">
<title>Node23&#45;&gt;Node24</title>
<g id="a_edge25_Node000023_Node000024"><a xlink:title=" ">
<path fill="none" stroke="#63b8ff" d="M653.33,-398C629.18,-398 602.12,-398 579.21,-398"/>
<polygon fill="#63b8ff" stroke="#63b8ff" points="653.48,-401.5 663.48,-398 653.48,-394.5 653.48,-401.5"/>
</a>
</g>
</g>
<!-- Node25&#45;&gt;Node13 -->
<g id="edge27_Node000025_Node000013" class="edge">
<title>Node25&#45;&gt;Node13</title>
<g id="a_edge27_Node000025_Node000013"><a xlink:title=" ">
<path fill="none" stroke="#63b8ff" d="M1255.59,-404.92C1228.43,-407.63 1197.66,-410.7 1171.8,-413.28"/>
<polygon fill="#63b8ff" stroke="#63b8ff" points="1256.2,-408.38 1265.8,-403.91 1255.51,-401.42 1256.2,-408.38"/>
</a>
</g>
</g>
<!-- Node27 -->
<g id="Node000027" class="node">
<title>Node27</title>
<g id="a_Node000027"><a xlink:href="classAP__IOMCU__FW.html#ac14e26cad684438adbf4dc26186e1295" target="_top" xlink:title=" ">
<polygon fill="white" stroke="#666666" points="1392,-365 1260,-365 1260,-335 1392,-335 1392,-365"/>
<text text-anchor="start" x="1268" y="-353" font-family="Helvetica,sans-Serif" font-size="10.00">AP_IOMCU_FW::process</text>
<text text-anchor="middle" x="1326" y="-342" font-family="Helvetica,sans-Serif" font-size="10.00">_io_packet</text>
</a>
</g>
</g>
<!-- Node26&#45;&gt;Node27 -->
<g id="edge29_Node000026_Node000027" class="edge">
<title>Node26&#45;&gt;Node27</title>
<g id="a_edge29_Node000026_Node000027"><a xlink:title=" ">
<path fill="none" stroke="#63b8ff" d="M1456.69,-337.86C1435.6,-339.84 1412.74,-341.97 1392.18,-343.9"/>
<polygon fill="#63b8ff" stroke="#63b8ff" points="1457.25,-341.32 1466.88,-336.91 1456.6,-334.35 1457.25,-341.32"/>
</a>
</g>
</g>
<!-- Node28 -->
<g id="Node000028" class="node">
<title>Node28</title>
<g id="a_Node000028"><a xlink:href="iofirmware_8cpp.html#a762f9f47c54b061a9024d4575a0b34ee" target="_top" xlink:title=" ">
<polygon fill="white" stroke="#666666" points="1160,-359.5 1067,-359.5 1067,-340.5 1160,-340.5 1160,-359.5"/>
<text text-anchor="middle" x="1113.5" y="-347.5" font-family="Helvetica,sans-Serif" font-size="10.00">dma_rx_end_cb</text>
</a>
</g>
</g>
<!-- Node27&#45;&gt;Node28 -->
<g id="edge30_Node000027_Node000028" class="edge">
<title>Node27&#45;&gt;Node28</title>
<g id="a_edge30_Node000027_Node000028"><a xlink:title=" ">
<path fill="none" stroke="#63b8ff" d="M1249.81,-350C1219.79,-350 1186.21,-350 1160.02,-350"/>
<polygon fill="#63b8ff" stroke="#63b8ff" points="1249.84,-353.5 1259.84,-350 1249.84,-346.5 1249.84,-353.5"/>
</a>
</g>
</g>
<!-- Node29 -->
<g id="Node000029" class="node">
<title>Node29</title>
<g id="a_Node000029"><a xlink:href="iofirmware_8cpp.html#abbc0f2f755b4172f1c3680c20a02f0dc" target="_top" xlink:title=" ">
<polygon fill="white" stroke="#666666" points="962.5,-359.5 870.5,-359.5 870.5,-340.5 962.5,-340.5 962.5,-359.5"/>
<text text-anchor="middle" x="916.5" y="-347.5" font-family="Helvetica,sans-Serif" font-size="10.00">idle_rx_handler</text>
</a>
</g>
</g>
<!-- Node28&#45;&gt;Node29 -->
<g id="edge31_Node000028_Node000029" class="edge">
<title>Node28&#45;&gt;Node29</title>
<g id="a_edge31_Node000028_Node000029"><a xlink:title=" ">
<path fill="none" stroke="#63b8ff" d="M1056.53,-350C1026.73,-350 990.57,-350 962.6,-350"/>
<polygon fill="#63b8ff" stroke="#63b8ff" points="1056.78,-353.5 1066.78,-350 1056.78,-346.5 1056.78,-353.5"/>
</a>
</g>
</g>
<!-- Node30&#45;&gt;Node4 -->
<g id="edge33_Node000030_Node000004" class="edge">
<title>Node30&#45;&gt;Node4</title>
<g id="a_edge33_Node000030_Node000004"><a xlink:title=" ">
<path fill="none" stroke="#63b8ff" d="M1237,-216C1216.68,-216 1195.47,-216 1176.52,-216"/>
<polygon fill="#63b8ff" stroke="#63b8ff" points="1237.22,-219.5 1247.22,-216 1237.22,-212.5 1237.22,-219.5"/>
</a>
</g>
</g>
<!-- Node32 -->
<g id="Node000032" class="node">
<title>Node32</title>
<g id="a_Node000032"><a xlink:href="classAP__Frsky__MAVliteMsgHandler.html#a3c0f248495c616397e2f1f21f4cab6ad" target="_top" xlink:title=" ">
<polygon fill="white" stroke="#666666" points="1422,-135 1230,-135 1230,-105 1422,-105 1422,-135"/>
<text text-anchor="start" x="1238" y="-123" font-family="Helvetica,sans-Serif" font-size="10.00">AP_Frsky_MAVliteMsgHandler</text>
<text text-anchor="middle" x="1326" y="-112" font-family="Helvetica,sans-Serif" font-size="10.00">::handle_command_preflight_reboot</text>
</a>
</g>
</g>
<!-- Node31&#45;&gt;Node32 -->
<g id="edge35_Node000031_Node000032" class="edge">
<title>Node31&#45;&gt;Node32</title>
<g id="a_edge35_Node000031_Node000032"><a xlink:title=" ">
<path fill="none" stroke="#63b8ff" d="M1478.1,-168.68C1471.27,-166.66 1464.42,-164.42 1458,-162 1441.26,-155.68 1438.77,-150.23 1422,-144 1413.15,-140.71 1403.67,-137.72 1394.25,-135.06"/>
<polygon fill="#63b8ff" stroke="#63b8ff" points="1477.47,-172.14 1488.04,-171.48 1479.37,-165.4 1477.47,-172.14"/>
</a>
</g>
</g>
<!-- Node38 -->
<g id="Node000038" class="node">
<title>Node38</title>
<g id="a_Node000038"><a xlink:href="classGCS__MAVLINK.html#a36bcd3f0187cce183627e4f97c00050a" target="_top" xlink:title=" ">
<polygon fill="white" stroke="#666666" points="1388.5,-183 1263.5,-183 1263.5,-153 1388.5,-153 1388.5,-183"/>
<text text-anchor="start" x="1271.5" y="-171" font-family="Helvetica,sans-Serif" font-size="10.00">GCS_MAVLINK::handle</text>
<text text-anchor="middle" x="1326" y="-160" font-family="Helvetica,sans-Serif" font-size="10.00">_preflight_reboot</text>
</a>
</g>
</g>
<!-- Node31&#45;&gt;Node38 -->
<g id="edge41_Node000031_Node000038" class="edge">
<title>Node31&#45;&gt;Node38</title>
<g id="a_edge41_Node000031_Node000038"><a xlink:title=" ">
<path fill="none" stroke="#63b8ff" d="M1467.35,-176.99C1442.33,-175.39 1413.61,-173.55 1388.69,-171.95"/>
<polygon fill="#63b8ff" stroke="#63b8ff" points="1467.26,-180.49 1477.46,-177.64 1467.7,-173.5 1467.26,-180.49"/>
</a>
</g>
</g>
<!-- Node33 -->
<g id="Node000033" class="node">
<title>Node33</title>
<g id="a_Node000033"><a xlink:href="classAP__Frsky__MAVliteMsgHandler.html#a76ba6a923653399c9ab25c04cacc8a2f" target="_top" xlink:title=" ">
<polygon fill="white" stroke="#666666" points="1194,-135 1033,-135 1033,-105 1194,-105 1194,-135"/>
<text text-anchor="start" x="1041" y="-123" font-family="Helvetica,sans-Serif" font-size="10.00">AP_Frsky_MAVliteMsgHandler</text>
<text text-anchor="middle" x="1113.5" y="-112" font-family="Helvetica,sans-Serif" font-size="10.00">::handle_command</text>
</a>
</g>
</g>
<!-- Node32&#45;&gt;Node33 -->
<g id="edge36_Node000032_Node000033" class="edge">
<title>Node32&#45;&gt;Node33</title>
<g id="a_edge36_Node000032_Node000033"><a xlink:title=" ">
<path fill="none" stroke="#63b8ff" d="M1219.77,-120C1211.12,-120 1202.47,-120 1194.05,-120"/>
<polygon fill="#63b8ff" stroke="#63b8ff" points="1219.91,-123.5 1229.91,-120 1219.91,-116.5 1219.91,-123.5"/>
</a>
</g>
</g>
<!-- Node34 -->
<g id="Node000034" class="node">
<title>Node34</title>
<g id="a_Node000034"><a xlink:href="classAP__Frsky__MAVliteMsgHandler.html#a2e0e37580869d0ed5e4500df368931e0" target="_top" xlink:title=" ">
<polygon fill="white" stroke="#666666" points="997,-135 836,-135 836,-105 997,-105 997,-135"/>
<text text-anchor="start" x="844" y="-123" font-family="Helvetica,sans-Serif" font-size="10.00">AP_Frsky_MAVliteMsgHandler</text>
<text text-anchor="middle" x="916.5" y="-112" font-family="Helvetica,sans-Serif" font-size="10.00">::handle_command_long</text>
</a>
</g>
</g>
<!-- Node33&#45;&gt;Node34 -->
<g id="edge37_Node000033_Node000034" class="edge">
<title>Node33&#45;&gt;Node34</title>
<g id="a_edge37_Node000033_Node000034"><a xlink:title=" ">
<path fill="none" stroke="#63b8ff" d="M1022.88,-120C1014.3,-120 1005.64,-120 997.16,-120"/>
<polygon fill="#63b8ff" stroke="#63b8ff" points="1022.9,-123.5 1032.9,-120 1022.9,-116.5 1022.9,-123.5"/>
</a>
</g>
</g>
<!-- Node35 -->
<g id="Node000035" class="node">
<title>Node35</title>
<g id="a_Node000035"><a xlink:href="classAP__Frsky__MAVliteMsgHandler.html#ad74ec9b26322218ed99fae1753993333" target="_top" xlink:title=" ">
<polygon fill="white" stroke="#666666" points="800,-135 639,-135 639,-105 800,-105 800,-135"/>
<text text-anchor="start" x="647" y="-123" font-family="Helvetica,sans-Serif" font-size="10.00">AP_Frsky_MAVliteMsgHandler</text>
<text text-anchor="middle" x="719.5" y="-112" font-family="Helvetica,sans-Serif" font-size="10.00">::process_message</text>
</a>
</g>
</g>
<!-- Node34&#45;&gt;Node35 -->
<g id="edge38_Node000034_Node000035" class="edge">
<title>Node34&#45;&gt;Node35</title>
<g id="a_edge38_Node000034_Node000035"><a xlink:title=" ">
<path fill="none" stroke="#63b8ff" d="M825.88,-120C817.3,-120 808.64,-120 800.16,-120"/>
<polygon fill="#63b8ff" stroke="#63b8ff" points="825.9,-123.5 835.9,-120 825.9,-116.5 825.9,-123.5"/>
</a>
</g>
</g>
<!-- Node36 -->
<g id="Node000036" class="node">
<title>Node36</title>
<g id="a_Node000036"><a xlink:href="classAP__Frsky__SPort__Passthrough.html#a44cb26d66736f3ccd25f35010aa1e521" target="_top" xlink:title=" ">
<polygon fill="white" stroke="#666666" points="603,-135 448,-135 448,-105 603,-105 603,-135"/>
<text text-anchor="start" x="456" y="-123" font-family="Helvetica,sans-Serif" font-size="10.00">AP_Frsky_SPort_Passthrough</text>
<text text-anchor="middle" x="525.5" y="-112" font-family="Helvetica,sans-Serif" font-size="10.00">::process_rx_queue</text>
</a>
</g>
</g>
<!-- Node35&#45;&gt;Node36 -->
<g id="edge39_Node000035_Node000036" class="edge">
<title>Node35&#45;&gt;Node36</title>
<g id="a_edge39_Node000035_Node000036"><a xlink:title=" ">
<path fill="none" stroke="#63b8ff" d="M628.49,-120C620.05,-120 611.54,-120 603.23,-120"/>
<polygon fill="#63b8ff" stroke="#63b8ff" points="628.74,-123.5 638.74,-120 628.74,-116.5 628.74,-123.5"/>
</a>
</g>
</g>
<!-- Node37 -->
<g id="Node000037" class="node">
<title>Node37</title>
<g id="a_Node000037"><a xlink:href="classAP__Frsky__SPort__Passthrough.html#a6d125aa3453182b7940a25d89518f51b" target="_top" xlink:title=" ">
<polygon fill="white" stroke="#666666" points="404.5,-135 249.5,-135 249.5,-105 404.5,-105 404.5,-135"/>
<text text-anchor="start" x="257.5" y="-123" font-family="Helvetica,sans-Serif" font-size="10.00">AP_Frsky_SPort_Passthrough</text>
<text text-anchor="middle" x="327" y="-112" font-family="Helvetica,sans-Serif" font-size="10.00">::setup_wfq_scheduler</text>
</a>
</g>
</g>
<!-- Node36&#45;&gt;Node37 -->
<g id="edge40_Node000036_Node000037" class="edge">
<title>Node36&#45;&gt;Node37</title>
<g id="a_edge40_Node000036_Node000037"><a xlink:title=" ">
<path fill="none" stroke="#63b8ff" d="M437.87,-120C426.81,-120 415.54,-120 404.65,-120"/>
<polygon fill="#63b8ff" stroke="#63b8ff" points="437.97,-123.5 447.97,-120 437.97,-116.5 437.97,-123.5"/>
</a>
</g>
</g>
<!-- Node38&#45;&gt;Node4 -->
<g id="edge42_Node000038_Node000004" class="edge">
<title>Node38&#45;&gt;Node4</title>
<g id="a_edge42_Node000038_Node000004"><a xlink:title=" ">
<path fill="none" stroke="#63b8ff" d="M1253.49,-184.31C1228.53,-190 1200.73,-196.34 1176.6,-201.84"/>
<polygon fill="#63b8ff" stroke="#63b8ff" points="1254.29,-187.71 1263.27,-182.08 1252.74,-180.89 1254.29,-187.71"/>
</a>
</g>
</g>
<!-- Node43 -->
<g id="Node000043" class="node">
<title>Node43</title>
<g id="a_Node000043"><a xlink:href="classAP__IOMCU__FW.html#aa6e97452785d6ade70465f15a87978f4" target="_top" xlink:title=" ">
<polygon fill="white" stroke="#666666" points="1390,-24.5 1262,-24.5 1262,-5.5 1390,-5.5 1390,-24.5"/>
<text text-anchor="middle" x="1326" y="-12.5" font-family="Helvetica,sans-Serif" font-size="10.00">AP_IOMCU_FW::update</text>
</a>
</g>
</g>
<!-- Node42&#45;&gt;Node43 -->
<g id="edge47_Node000042_Node000043" class="edge">
<title>Node42&#45;&gt;Node43</title>
<g id="a_edge47_Node000042_Node000043"><a xlink:title=" ">
<path fill="none" stroke="#63b8ff" d="M1458.23,-15C1436.04,-15 1411.76,-15 1390.19,-15"/>
<polygon fill="#63b8ff" stroke="#63b8ff" points="1458.27,-18.5 1468.27,-15 1458.27,-11.5 1458.27,-18.5"/>
</a>
</g>
</g>
<!-- Node44 -->
<g id="Node000044" class="node">
<title>Node44</title>
<g id="a_Node000044"><a xlink:href="iofirmware_8cpp.html#afe461d27b9c48d5921c00d521181f12f" target="_top" xlink:title=" ">
<polygon fill="white" stroke="#666666" points="1132.5,-24.5 1094.5,-24.5 1094.5,-5.5 1132.5,-5.5 1132.5,-24.5"/>
<text text-anchor="middle" x="1113.5" y="-12.5" font-family="Helvetica,sans-Serif" font-size="10.00">loop</text>
</a>
</g>
</g>
<!-- Node43&#45;&gt;Node44 -->
<g id="edge48_Node000043_Node000044" class="edge">
<title>Node43&#45;&gt;Node44</title>
<g id="a_edge48_Node000043_Node000044"><a xlink:title=" ">
<path fill="none" stroke="#63b8ff" d="M1251.79,-15C1209.32,-15 1159.16,-15 1132.8,-15"/>
<polygon fill="#63b8ff" stroke="#63b8ff" points="1251.84,-18.5 1261.84,-15 1251.84,-11.5 1251.84,-18.5"/>
</a>
</g>
</g>
</g>
</svg>
