<?xml version="1.0" encoding="UTF-8" standalone="no"?>
<!DOCTYPE svg PUBLIC "-//W3C//DTD SVG 1.1//EN"
 "http://www.w3.org/Graphics/SVG/1.1/DTD/svg11.dtd">
<!-- Generated by graphviz version 2.43.0 (0)
 -->
<!-- Title: AP_Frsky_Telem::init Pages: 1 -->
<!--zoomable 220 -->

<svg id="main" version="1.1" xmlns="http://www.w3.org/2000/svg" xmlns:xlink="http://www.w3.org/1999/xlink" xml:space="preserve" onload="init(evt)">
<style type="text/css"><![CDATA[
.node, .edge {opacity: 0.7;}
.node.selected, .edge.selected {opacity: 1;}
.edge:hover path { stroke: red; }
.edge:hover polygon { stroke: red; fill: red; }
]]></style>

<defs>
  <circle id="rim" cx="0" cy="0" r="7"/>
  <circle id="rim2" cx="0" cy="0" r="3.5"/>
  <g id="zoomPlus">
    <use xlink:href="#rim" fill="#404040"><set attributeName="fill" to="#808080" begin="zoomplus.mouseover" end="zoomplus.mouseout"/></use>
    <path d="M-4,0h8M0,-4v8" fill="none" stroke="white" stroke-width="1.5" pointer-events="none"/>
  </g>
  <g id="zoomMin">
    <use xlink:href="#rim" fill="#404040"><set attributeName="fill" to="#808080" begin="zoomminus.mouseover" end="zoomminus.mouseout"/></use>
    <path d="M-4,0h8" fill="none" stroke="white" stroke-width="1.5" pointer-events="none"/>
  </g>
  <g id="arrowUp" transform="translate(30 24)">
    <use xlink:href="#rim"/>
    <path pointer-events="none" fill="none" stroke="white" stroke-width="1.5" d="M0,-3.0v7 M-2.5,-0.5L0,-3.0L2.5,-0.5"/>
  </g>
  <g id="arrowRight" transform="rotate(90) translate(36 -43)">
    <use xlink:href="#rim"/>
    <path pointer-events="none" fill="none" stroke="white" stroke-width="1.5" d="M0,-3.0v7 M-2.5,-0.5L0,-3.0L2.5,-0.5"/>
  </g>
  <g id="arrowDown" transform="rotate(180) translate(-30 -48)">
    <use xlink:href="#rim"/>
    <path pointer-events="none" fill="none" stroke="white" stroke-width="1.5" d="M0,-3.0v7 M-2.5,-0.5L0,-3.0L2.5,-0.5"/>
  </g>
  <g id="arrowLeft" transform="rotate(270) translate(-36 17)">
    <use xlink:href="#rim"/>
    <path pointer-events="none" fill="none" stroke="white" stroke-width="1.5" d="M0,-3.0v7 M-2.5,-0.5L0,-3.0L2.5,-0.5"/>
  </g>
  <g id="resetDef">
    <use xlink:href="#rim2" fill="#404040"><set attributeName="fill" to="#808080" begin="reset.mouseover" end="reset.mouseout"/></use>
  </g>
</defs>
<script type="application/ecmascript">
var viewWidth = 847;
var viewHeight = 220;
var sectionId = 'dynsection-10';
</script>
<script type="application/ecmascript" xlink:href="svg.min.js"/>
<svg id="graph" class="graph">
<g id="viewport">
<title>AP_Frsky_Telem::init</title>
<!-- Node1 -->
<g id="Node000001" class="node">
<title>Node1</title>
<g id="a_Node000001"><a xlink:title=" ">
<polygon fill="#999999" stroke="#666666" points="116,-72.5 0,-72.5 0,-53.5 116,-53.5 116,-72.5"/>
<text text-anchor="middle" x="58" y="-60.5" font-family="Helvetica,sans-Serif" font-size="10.00">AP_Frsky_Telem::init</text>
</a>
</g>
</g>
<!-- Node2 -->
<g id="Node000002" class="node">
<title>Node2</title>
<g id="a_Node000002"><a xlink:href="classAP__SerialManager.html#a58cb32ebb77d9fc18e4756d0270d1970" target="_top" xlink:title=" ">
<polygon fill="white" stroke="#666666" points="281,-147 152,-147 152,-117 281,-117 281,-147"/>
<text text-anchor="start" x="160" y="-135" font-family="Helvetica,sans-Serif" font-size="10.00">AP_SerialManager::find</text>
<text text-anchor="middle" x="216.5" y="-124" font-family="Helvetica,sans-Serif" font-size="10.00">_serial</text>
</a>
</g>
</g>
<!-- Node1&#45;&gt;Node2 -->
<g id="edge1_Node000001_Node000002" class="edge">
<title>Node1&#45;&gt;Node2</title>
<g id="a_edge1_Node000001_Node000002"><a xlink:title=" ">
<path fill="none" stroke="#63b8ff" d="M80.76,-72.59C104.25,-82.95 142.3,-99.72 171.97,-112.81"/>
<polygon fill="#63b8ff" stroke="#63b8ff" points="170.73,-116.08 181.29,-116.92 173.55,-109.68 170.73,-116.08"/>
</a>
</g>
</g>
<!-- Node7 -->
<g id="Node000007" class="node">
<title>Node7</title>
<g id="a_Node000007"><a xlink:href="classAP__Frsky__Backend.html#a7c44a2aeee5786da116db301823edef0" target="_top" xlink:title=" ">
<polygon fill="white" stroke="#666666" points="280.5,-72.5 152.5,-72.5 152.5,-53.5 280.5,-53.5 280.5,-72.5"/>
<text text-anchor="middle" x="216.5" y="-60.5" font-family="Helvetica,sans-Serif" font-size="10.00">AP_Frsky_Backend::init</text>
</a>
</g>
</g>
<!-- Node1&#45;&gt;Node7 -->
<g id="edge6_Node000001_Node000007" class="edge">
<title>Node1&#45;&gt;Node7</title>
<g id="a_edge6_Node000001_Node000007"><a xlink:title=" ">
<path fill="none" stroke="#63b8ff" d="M116.39,-63C124.79,-63 133.54,-63 142.2,-63"/>
<polygon fill="#63b8ff" stroke="#63b8ff" points="142.31,-66.5 152.31,-63 142.31,-59.5 142.31,-66.5"/>
</a>
</g>
</g>
<!-- Node16 -->
<g id="Node000016" class="node">
<title>Node16</title>
<g id="a_Node000016"><a xlink:href="namespaceAP.html#aa01135941499a6cbb5fc30403fc24c65" target="_top" xlink:title=" ">
<polygon fill="white" stroke="#666666" points="269.5,-30.5 163.5,-30.5 163.5,-11.5 269.5,-11.5 269.5,-30.5"/>
<text text-anchor="middle" x="216.5" y="-18.5" font-family="Helvetica,sans-Serif" font-size="10.00">AP::serialmanager</text>
</a>
</g>
</g>
<!-- Node1&#45;&gt;Node16 -->
<g id="edge15_Node000001_Node000016" class="edge">
<title>Node1&#45;&gt;Node16</title>
<g id="a_edge15_Node000001_Node000016"><a xlink:title=" ">
<path fill="none" stroke="#63b8ff" d="M94.51,-53.47C116.84,-47.48 145.87,-39.69 169.9,-33.24"/>
<polygon fill="#63b8ff" stroke="#63b8ff" points="171.11,-36.54 179.86,-30.57 169.29,-29.78 171.11,-36.54"/>
</a>
</g>
</g>
<!-- Node3 -->
<g id="Node000003" class="node">
<title>Node3</title>
<g id="a_Node000003"><a xlink:href="classAP__SerialManager.html#a073cb2777b00ddb4695dea07acc786d9" target="_top" xlink:title=" ">
<polygon fill="white" stroke="#666666" points="446,-212 317,-212 317,-182 446,-182 446,-212"/>
<text text-anchor="start" x="325" y="-200" font-family="Helvetica,sans-Serif" font-size="10.00">AP_SerialManager::find</text>
<text text-anchor="middle" x="381.5" y="-189" font-family="Helvetica,sans-Serif" font-size="10.00">_protocol_instance</text>
</a>
</g>
</g>
<!-- Node2&#45;&gt;Node3 -->
<g id="edge2_Node000002_Node000003" class="edge">
<title>Node2&#45;&gt;Node3</title>
<g id="a_edge2_Node000002_Node000003"><a xlink:title=" ">
<path fill="none" stroke="#63b8ff" d="M253.32,-147.06C272.21,-154.92 295.8,-164.63 317,-173 321.43,-174.75 326.04,-176.54 330.66,-178.32"/>
<polygon fill="#63b8ff" stroke="#63b8ff" points="329.53,-181.64 340.12,-181.94 332.03,-175.1 329.53,-181.64"/>
</a>
</g>
</g>
<!-- Node5 -->
<g id="Node000005" class="node">
<title>Node5</title>
<g id="a_Node000005"><a xlink:href="classAP__HAL_1_1HAL.html#aa8bb0f38f4f9f9117f77cb356c68f04f" target="_top" xlink:title=" ">
<polygon fill="white" stroke="#666666" points="438,-163.5 325,-163.5 325,-144.5 438,-144.5 438,-163.5"/>
<text text-anchor="middle" x="381.5" y="-151.5" font-family="Helvetica,sans-Serif" font-size="10.00">AP_HAL::HAL::serial</text>
</a>
</g>
</g>
<!-- Node2&#45;&gt;Node5 -->
<g id="edge4_Node000002_Node000005" class="edge">
<title>Node2&#45;&gt;Node5</title>
<g id="a_edge4_Node000002_Node000005"><a xlink:title=" ">
<path fill="none" stroke="#63b8ff" d="M281.45,-140.63C292.45,-142.12 303.89,-143.66 314.93,-145.15"/>
<polygon fill="#63b8ff" stroke="#63b8ff" points="314.54,-148.63 324.92,-146.5 315.48,-141.69 314.54,-148.63"/>
</a>
</g>
</g>
<!-- Node6 -->
<g id="Node000006" class="node">
<title>Node6</title>
<g id="a_Node000006"><a xlink:href="classAP__HAL_1_1UARTDriver.html#ab198069f163bf69fcc82b0c653fa787f" target="_top" xlink:title=" ">
<polygon fill="white" stroke="#666666" points="439.5,-126 323.5,-126 323.5,-96 439.5,-96 439.5,-126"/>
<text text-anchor="start" x="331.5" y="-114" font-family="Helvetica,sans-Serif" font-size="10.00">AP_HAL::UARTDriver</text>
<text text-anchor="middle" x="381.5" y="-103" font-family="Helvetica,sans-Serif" font-size="10.00">::set_options</text>
</a>
</g>
</g>
<!-- Node2&#45;&gt;Node6 -->
<g id="edge5_Node000002_Node000006" class="edge">
<title>Node2&#45;&gt;Node6</title>
<g id="a_edge5_Node000002_Node000006"><a xlink:title=" ">
<path fill="none" stroke="#63b8ff" d="M281.45,-123.76C291.93,-122.41 302.81,-121.01 313.36,-119.65"/>
<polygon fill="#63b8ff" stroke="#63b8ff" points="313.88,-123.11 323.35,-118.36 312.99,-116.17 313.88,-123.11"/>
</a>
</g>
</g>
<!-- Node4 -->
<g id="Node000004" class="node">
<title>Node4</title>
<g id="a_Node000004"><a xlink:href="classAP__SerialManager.html#aeecba06b097b0443637b7cf5349fdf68" target="_top" xlink:title=" ">
<polygon fill="white" stroke="#666666" points="633,-212 482,-212 482,-182 633,-182 633,-212"/>
<text text-anchor="start" x="490" y="-200" font-family="Helvetica,sans-Serif" font-size="10.00">AP_SerialManager::protocol</text>
<text text-anchor="middle" x="557.5" y="-189" font-family="Helvetica,sans-Serif" font-size="10.00">_match</text>
</a>
</g>
</g>
<!-- Node3&#45;&gt;Node4 -->
<g id="edge3_Node000003_Node000004" class="edge">
<title>Node3&#45;&gt;Node4</title>
<g id="a_edge3_Node000003_Node000004"><a xlink:title=" ">
<path fill="none" stroke="#63b8ff" d="M446.3,-197C454.6,-197 463.2,-197 471.77,-197"/>
<polygon fill="#63b8ff" stroke="#63b8ff" points="471.8,-200.5 481.8,-197 471.8,-193.5 471.8,-200.5"/>
</a>
</g>
</g>
<!-- Node8 -->
<g id="Node000008" class="node">
<title>Node8</title>
<g id="a_Node000008"><a xlink:href="classAP__Frsky__Backend.html#a22c81a585a2da82ccc83dacb4eaa6b36" target="_top" xlink:title=" ">
<polygon fill="white" stroke="#666666" points="445.5,-78 317.5,-78 317.5,-48 445.5,-48 445.5,-78"/>
<text text-anchor="start" x="325.5" y="-66" font-family="Helvetica,sans-Serif" font-size="10.00">AP_Frsky_Backend::init</text>
<text text-anchor="middle" x="381.5" y="-55" font-family="Helvetica,sans-Serif" font-size="10.00">_serial_port</text>
</a>
</g>
</g>
<!-- Node7&#45;&gt;Node8 -->
<g id="edge7_Node000007_Node000008" class="edge">
<title>Node7&#45;&gt;Node8</title>
<g id="a_edge7_Node000007_Node000008"><a xlink:title=" ">
<path fill="none" stroke="#63b8ff" d="M280.52,-63C289.31,-63 298.4,-63 307.35,-63"/>
<polygon fill="#63b8ff" stroke="#63b8ff" points="307.38,-66.5 317.38,-63 307.38,-59.5 307.38,-66.5"/>
</a>
</g>
</g>
<!-- Node9 -->
<g id="Node000009" class="node">
<title>Node9</title>
<g id="a_Node000009"><a xlink:href="classAP__Frsky__Backend.html#aeadfba90d8bd1f27c1899007413bcff8" target="_top" xlink:title=" ">
<polygon fill="white" stroke="#666666" points="624.5,-115.5 490.5,-115.5 490.5,-96.5 624.5,-96.5 624.5,-115.5"/>
<text text-anchor="middle" x="557.5" y="-103.5" font-family="Helvetica,sans-Serif" font-size="10.00">AP_Frsky_Backend::loop</text>
</a>
</g>
</g>
<!-- Node8&#45;&gt;Node9 -->
<g id="edge8_Node000008_Node000009" class="edge">
<title>Node8&#45;&gt;Node9</title>
<g id="a_edge8_Node000008_Node000009"><a xlink:title=" ">
<path fill="none" stroke="#63b8ff" d="M443.36,-78.04C464.57,-83.28 488.06,-89.09 508.12,-94.04"/>
<polygon fill="#63b8ff" stroke="#63b8ff" points="507.42,-97.48 517.97,-96.48 509.1,-90.68 507.42,-97.48"/>
</a>
</g>
</g>
<!-- Node14 -->
<g id="Node000014" class="node">
<title>Node14</title>
<g id="a_Node000014"><a xlink:href="classAP__HAL_1_1UARTDriver.html#ae831a0d75f4760267d444c522e1271a1" target="_top" xlink:title=" ">
<polygon fill="white" stroke="#666666" points="615.5,-78 499.5,-78 499.5,-48 615.5,-48 615.5,-78"/>
<text text-anchor="start" x="507.5" y="-66" font-family="Helvetica,sans-Serif" font-size="10.00">AP_HAL::UARTDriver</text>
<text text-anchor="middle" x="557.5" y="-55" font-family="Helvetica,sans-Serif" font-size="10.00">::set_flow_control</text>
</a>
</g>
</g>
<!-- Node8&#45;&gt;Node14 -->
<g id="edge13_Node000008_Node000014" class="edge">
<title>Node8&#45;&gt;Node14</title>
<g id="a_edge13_Node000008_Node000014"><a xlink:title=" ">
<path fill="none" stroke="#63b8ff" d="M445.81,-63C459.88,-63 474.85,-63 489.09,-63"/>
<polygon fill="#63b8ff" stroke="#63b8ff" points="489.3,-66.5 499.3,-63 489.3,-59.5 489.3,-66.5"/>
</a>
</g>
</g>
<!-- Node15 -->
<g id="Node000015" class="node">
<title>Node15</title>
<g id="a_Node000015"><a xlink:href="classAP__HAL_1_1Scheduler.html#aa6ce504fcdbd583bc7c05eb1f1fb2129" target="_top" xlink:title=" ">
<polygon fill="white" stroke="#666666" points="614.5,-30 500.5,-30 500.5,0 614.5,0 614.5,-30"/>
<text text-anchor="start" x="508.5" y="-18" font-family="Helvetica,sans-Serif" font-size="10.00">AP_HAL::Scheduler::</text>
<text text-anchor="middle" x="557.5" y="-7" font-family="Helvetica,sans-Serif" font-size="10.00">thread_create</text>
</a>
</g>
</g>
<!-- Node8&#45;&gt;Node15 -->
<g id="edge14_Node000008_Node000015" class="edge">
<title>Node8&#45;&gt;Node15</title>
<g id="a_edge14_Node000008_Node000015"><a xlink:title=" ">
<path fill="none" stroke="#63b8ff" d="M437.08,-47.94C454.65,-43.1 474.28,-37.68 492.47,-32.66"/>
<polygon fill="#63b8ff" stroke="#63b8ff" points="493.41,-36.04 502.12,-30 491.55,-29.29 493.41,-36.04"/>
</a>
</g>
</g>
<!-- Node10 -->
<g id="Node000010" class="node">
<title>Node10</title>
<g id="a_Node000010"><a xlink:href="classAP__HAL_1_1UARTDriver.html#a1ea1968a3238d1abb9d4880d1b679af4" target="_top" xlink:title=" ">
<polygon fill="white" stroke="#666666" points="812,-190 696,-190 696,-160 812,-160 812,-190"/>
<text text-anchor="start" x="704" y="-178" font-family="Helvetica,sans-Serif" font-size="10.00">AP_HAL::UARTDriver</text>
<text text-anchor="middle" x="754" y="-167" font-family="Helvetica,sans-Serif" font-size="10.00">::begin</text>
</a>
</g>
</g>
<!-- Node9&#45;&gt;Node10 -->
<g id="edge9_Node000009_Node000010" class="edge">
<title>Node9&#45;&gt;Node10</title>
<g id="a_edge9_Node000009_Node000010"><a xlink:title=" ">
<path fill="none" stroke="#63b8ff" d="M580.25,-115.67C602.34,-125.31 637.67,-140.18 669,-151 674.93,-153.05 681.13,-155.06 687.37,-156.99"/>
<polygon fill="#63b8ff" stroke="#63b8ff" points="686.57,-160.41 697.16,-159.96 688.6,-153.71 686.57,-160.41"/>
</a>
</g>
</g>
<!-- Node11 -->
<g id="Node000011" class="node">
<title>Node11</title>
<g id="a_Node000011"><a xlink:href="classAP__HAL_1_1Scheduler.html#ab3175e2e6223ccfe82f957e41cc12b26" target="_top" xlink:title=" ">
<polygon fill="white" stroke="#666666" points="811,-142 697,-142 697,-112 811,-112 811,-142"/>
<text text-anchor="start" x="705" y="-130" font-family="Helvetica,sans-Serif" font-size="10.00">AP_HAL::Scheduler::</text>
<text text-anchor="middle" x="754" y="-119" font-family="Helvetica,sans-Serif" font-size="10.00">delay</text>
</a>
</g>
</g>
<!-- Node9&#45;&gt;Node11 -->
<g id="edge10_Node000009_Node000011" class="edge">
<title>Node9&#45;&gt;Node11</title>
<g id="a_edge10_Node000009_Node000011"><a xlink:title=" ">
<path fill="none" stroke="#63b8ff" d="M624.62,-113.14C644.69,-115.31 666.73,-117.69 686.8,-119.85"/>
<polygon fill="#63b8ff" stroke="#63b8ff" points="686.47,-123.34 696.79,-120.93 687.22,-116.38 686.47,-123.34"/>
</a>
</g>
</g>
<!-- Node12 -->
<g id="Node000012" class="node">
<title>Node12</title>
<g id="a_Node000012"><a xlink:href="classAP__Frsky__Backend.html#a536e6a6da00640a74a747c4a293b6540" target="_top" xlink:title=" ">
<polygon fill="white" stroke="#666666" points="839,-93.5 669,-93.5 669,-74.5 839,-74.5 839,-93.5"/>
<text text-anchor="middle" x="754" y="-81.5" font-family="Helvetica,sans-Serif" font-size="10.00">AP_Frsky_Backend::initial_baud</text>
</a>
</g>
</g>
<!-- Node9&#45;&gt;Node12 -->
<g id="edge11_Node000009_Node000012" class="edge">
<title>Node9&#45;&gt;Node12</title>
<g id="a_edge11_Node000009_Node000012"><a xlink:title=" ">
<path fill="none" stroke="#63b8ff" d="M624.62,-98.52C635.61,-97.28 647.19,-95.97 658.71,-94.66"/>
<polygon fill="#63b8ff" stroke="#63b8ff" points="659.27,-98.12 668.81,-93.52 658.48,-91.17 659.27,-98.12"/>
</a>
</g>
</g>
<!-- Node13 -->
<g id="Node000013" class="node">
<title>Node13</title>
<g id="a_Node000013"><a xlink:href="classAP__Frsky__Backend.html#aaf5374e9757016f1122fb4dbb7022135" target="_top" xlink:title=" ">
<polygon fill="white" stroke="#666666" points="822,-56.5 686,-56.5 686,-37.5 822,-37.5 822,-56.5"/>
<text text-anchor="middle" x="754" y="-44.5" font-family="Helvetica,sans-Serif" font-size="10.00">AP_Frsky_Backend::send</text>
</a>
</g>
</g>
<!-- Node9&#45;&gt;Node13 -->
<g id="edge12_Node000009_Node000013" class="edge">
<title>Node9&#45;&gt;Node13</title>
<g id="a_edge12_Node000009_Node000013"><a xlink:title=" ">
<path fill="none" stroke="#63b8ff" d="M604.46,-96.42C614.05,-93.83 623.98,-90.69 633,-87 650.14,-79.98 651.77,-72.79 669,-66 675.45,-63.46 682.32,-61.22 689.24,-59.25"/>
<polygon fill="#63b8ff" stroke="#63b8ff" points="690.62,-62.5 699.38,-56.55 688.82,-55.74 690.62,-62.5"/>
</a>
</g>
</g>
<!-- Node17 -->
<g id="Node000017" class="node">
<title>Node17</title>
<g id="a_Node000017"><a xlink:href="classAP__SerialManager.html#ac8e4d24e9ff1fd9c10fcb751e4454479" target="_top" xlink:title=" ">
<polygon fill="white" stroke="#666666" points="445,-30 318,-30 318,0 445,0 445,-30"/>
<text text-anchor="start" x="326" y="-18" font-family="Helvetica,sans-Serif" font-size="10.00">AP_SerialManager::get</text>
<text text-anchor="middle" x="381.5" y="-7" font-family="Helvetica,sans-Serif" font-size="10.00">_singleton</text>
</a>
</g>
</g>
<!-- Node16&#45;&gt;Node17 -->
<g id="edge16_Node000016_Node000017" class="edge">
<title>Node16&#45;&gt;Node17</title>
<g id="a_edge16_Node000016_Node000017"><a xlink:title=" ">
<path fill="none" stroke="#63b8ff" d="M269.52,-19.09C281.65,-18.64 294.79,-18.15 307.64,-17.68"/>
<polygon fill="#63b8ff" stroke="#63b8ff" points="307.99,-21.17 317.85,-17.31 307.73,-14.18 307.99,-21.17"/>
</a>
</g>
</g>
</g>
</svg>

<g id="navigator" transform="translate(0 0)" fill="#404254">
  <rect fill="#f2f5e9" fill-opacity="0.5" stroke="#606060" stroke-width=".5" x="0" y="0" width="60" height="60"/>
  <use id="zoomplus" xlink:href="#zoomPlus" x="17" y="9" onmousedown="handleZoom(evt,'in')"/>
  <use id="zoomminus" xlink:href="#zoomMin" x="42" y="9" onmousedown="handleZoom(evt,'out')"/>
  <use id="reset" xlink:href="#resetDef" x="30" y="36" onmousedown="handleReset()"/>
   <use id="arrowup" xlink:href="#arrowUp" x="0" y="0" onmousedown="handlePan(0,-1)"/>
  <use id="arrowright" xlink:href="#arrowRight" x="0" y="0" onmousedown="handlePan(1,0)"/>
  <use id="arrowdown" xlink:href="#arrowDown" x="0" y="0" onmousedown="handlePan(0,1)"/>
  <use id="arrowleft" xlink:href="#arrowLeft" x="0" y="0" onmousedown="handlePan(-1,0)"/>
</g>
<svg viewBox="0 0 15 15" width="100%" height="30px" preserveAspectRatio="xMaxYMin meet">
 <g id="arrow_out" transform="scale(0.3 0.3)">
  <a xlink:href="classAP__Frsky__Telem_a9c08ace6f5f7f464990d7682a76ff0dd_cgraph_org.svg" target="_base">
   <rect id="button" ry="5" rx="5" y="6" x="6" height="38" width="38"
        fill="#f2f5e9" fill-opacity="0.5" stroke="#606060" stroke-width="1.0"/>
   <path id="arrow"
     d="M 11.500037,31.436501 C 11.940474,20.09759 22.043105,11.32322 32.158766,21.979434 L 37.068811,17.246167 C 37.068811,17.246167 37.088388,32 37.088388,32 L 22.160133,31.978069 C 22.160133,31.978069 26.997745,27.140456 26.997745,27.140456 C 18.528582,18.264221 13.291696,25.230495 11.500037,31.436501 z"
     style="fill:#404040;"/>
  </a>
 </g>
</svg>

<style type='text/css'>
<![CDATA[
[data-mouse-over-selected='false'] { opacity: 0.7; }
[data-mouse-over-selected='true']  { opacity: 1.0; }
]]>
</style>
<script type="application/ecmascript"><![CDATA[
document.addEventListener('DOMContentLoaded', (event) => {
  highlightEdges();
  highlightAdjacentNodes();
});
]]></script>
</svg>
