<?xml version="1.0" encoding="UTF-8" standalone="no"?>
<!DOCTYPE svg PUBLIC "-//W3C//DTD SVG 1.1//EN"
 "http://www.w3.org/Graphics/SVG/1.1/DTD/svg11.dtd">
<!-- Generated by graphviz version 2.43.0 (0)
 -->
<!-- Title: AP_RangeFinder_Benewake_TFMiniPlus::init Pages: 1 -->
<!--zoomable 467 -->

<svg id="main" version="1.1" xmlns="http://www.w3.org/2000/svg" xmlns:xlink="http://www.w3.org/1999/xlink" xml:space="preserve" onload="init(evt)">
<style type="text/css"><![CDATA[
.node, .edge {opacity: 0.7;}
.node.selected, .edge.selected {opacity: 1;}
.edge:hover path { stroke: red; }
.edge:hover polygon { stroke: red; fill: red; }
]]></style>

<defs>
  <circle id="rim" cx="0" cy="0" r="7"/>
  <circle id="rim2" cx="0" cy="0" r="3.5"/>
  <g id="zoomPlus">
    <use xlink:href="#rim" fill="#404040"><set attributeName="fill" to="#808080" begin="zoomplus.mouseover" end="zoomplus.mouseout"/></use>
    <path d="M-4,0h8M0,-4v8" fill="none" stroke="white" stroke-width="1.5" pointer-events="none"/>
  </g>
  <g id="zoomMin">
    <use xlink:href="#rim" fill="#404040"><set attributeName="fill" to="#808080" begin="zoomminus.mouseover" end="zoomminus.mouseout"/></use>
    <path d="M-4,0h8" fill="none" stroke="white" stroke-width="1.5" pointer-events="none"/>
  </g>
  <g id="arrowUp" transform="translate(30 24)">
    <use xlink:href="#rim"/>
    <path pointer-events="none" fill="none" stroke="white" stroke-width="1.5" d="M0,-3.0v7 M-2.5,-0.5L0,-3.0L2.5,-0.5"/>
  </g>
  <g id="arrowRight" transform="rotate(90) translate(36 -43)">
    <use xlink:href="#rim"/>
    <path pointer-events="none" fill="none" stroke="white" stroke-width="1.5" d="M0,-3.0v7 M-2.5,-0.5L0,-3.0L2.5,-0.5"/>
  </g>
  <g id="arrowDown" transform="rotate(180) translate(-30 -48)">
    <use xlink:href="#rim"/>
    <path pointer-events="none" fill="none" stroke="white" stroke-width="1.5" d="M0,-3.0v7 M-2.5,-0.5L0,-3.0L2.5,-0.5"/>
  </g>
  <g id="arrowLeft" transform="rotate(270) translate(-36 17)">
    <use xlink:href="#rim"/>
    <path pointer-events="none" fill="none" stroke="white" stroke-width="1.5" d="M0,-3.0v7 M-2.5,-0.5L0,-3.0L2.5,-0.5"/>
  </g>
  <g id="resetDef">
    <use xlink:href="#rim2" fill="#404040"><set attributeName="fill" to="#808080" begin="reset.mouseover" end="reset.mouseout"/></use>
  </g>
</defs>
<script type="application/ecmascript">
var viewWidth = 854;
var viewHeight = 467;
var sectionId = 'dynsection-6';
</script>
<script type="application/ecmascript" xlink:href="svg.min.js"/>
<svg id="graph" class="graph">
<g id="viewport">
<title>AP_RangeFinder_Benewake_TFMiniPlus::init</title>
<!-- Node1 -->
<g id="Node000001" class="node">
<title>Node1</title>
<g id="a_Node000001"><a xlink:title=" ">
<polygon fill="#999999" stroke="#666666" points="151,-260 0,-260 0,-230 151,-230 151,-260"/>
<text text-anchor="start" x="8" y="-248" font-family="Helvetica,sans-Serif" font-size="10.00">AP_RangeFinder_Benewake</text>
<text text-anchor="middle" x="75.5" y="-237" font-family="Helvetica,sans-Serif" font-size="10.00">_TFMiniPlus::init</text>
</a>
</g>
</g>
<!-- Node2 -->
<g id="Node000002" class="node">
<title>Node2</title>
<g id="a_Node000002"><a xlink:href="classAP__RangeFinder__Benewake__TFMiniPlus.html#a50667c80d3e0fb57833b34247df4d635" target="_top" xlink:title=" ">
<polygon fill="white" stroke="#666666" points="538,-186 374,-186 374,-156 538,-156 538,-186"/>
<text text-anchor="start" x="382" y="-174" font-family="Helvetica,sans-Serif" font-size="10.00">AP_RangeFinder_Benewake</text>
<text text-anchor="middle" x="456" y="-163" font-family="Helvetica,sans-Serif" font-size="10.00">_TFMiniPlus::check_checksum</text>
</a>
</g>
</g>
<!-- Node1&#45;&gt;Node2 -->
<g id="edge1_Node000001_Node000002" class="edge">
<title>Node1&#45;&gt;Node2</title>
<g id="a_edge1_Node000001_Node000002"><a xlink:title=" ">
<path fill="none" stroke="#63b8ff" d="M88.42,-229.74C106.78,-207.6 144.36,-167.55 187,-152 255.68,-126.94 340.73,-139.69 396.35,-153.35"/>
<polygon fill="#63b8ff" stroke="#63b8ff" points="395.83,-156.82 406.39,-155.9 397.56,-150.04 395.83,-156.82"/>
</a>
</g>
</g>
<!-- Node3 -->
<g id="Node000003" class="node">
<title>Node3</title>
<g id="a_Node000003"><a xlink:href="classAP__HAL_1_1Scheduler.html#ab3175e2e6223ccfe82f957e41cc12b26" target="_top" xlink:title=" ">
<polygon fill="white" stroke="#666666" points="319.5,-411 205.5,-411 205.5,-381 319.5,-381 319.5,-411"/>
<text text-anchor="start" x="213.5" y="-399" font-family="Helvetica,sans-Serif" font-size="10.00">AP_HAL::Scheduler::</text>
<text text-anchor="middle" x="262.5" y="-388" font-family="Helvetica,sans-Serif" font-size="10.00">delay</text>
</a>
</g>
</g>
<!-- Node1&#45;&gt;Node3 -->
<g id="edge2_Node000001_Node000003" class="edge">
<title>Node1&#45;&gt;Node3</title>
<g id="a_edge2_Node000001_Node000003"><a xlink:title=" ">
<path fill="none" stroke="#63b8ff" d="M85.77,-260.29C102.64,-286.85 140.89,-341.58 187,-372 189.92,-373.93 193.02,-375.71 196.21,-377.36"/>
<polygon fill="#63b8ff" stroke="#63b8ff" points="194.89,-380.61 205.43,-381.66 197.84,-374.26 194.89,-380.61"/>
</a>
</g>
</g>
<!-- Node4 -->
<g id="Node000004" class="node">
<title>Node4</title>
<g id="a_Node000004"><a xlink:href="eedump__apparam_8c.html#a11fab3228d1d3ab1f79be9480422c759" target="_top" xlink:title=" ">
<polygon fill="white" stroke="#666666" points="278.5,-362.5 246.5,-362.5 246.5,-343.5 278.5,-343.5 278.5,-362.5"/>
<text text-anchor="middle" x="262.5" y="-350.5" font-family="Helvetica,sans-Serif" font-size="10.00">fail</text>
</a>
</g>
</g>
<!-- Node1&#45;&gt;Node4 -->
<g id="edge3_Node000001_Node000004" class="edge">
<title>Node1&#45;&gt;Node4</title>
<g id="a_edge3_Node000001_Node000004"><a xlink:title=" ">
<path fill="none" stroke="#63b8ff" d="M91.11,-260.3C110.97,-280.21 148.45,-314.71 187,-334 202.47,-341.74 221.36,-346.51 236.25,-349.34"/>
<polygon fill="#63b8ff" stroke="#63b8ff" points="235.83,-352.81 246.28,-351.06 237.02,-345.92 235.83,-352.81"/>
</a>
</g>
</g>
<!-- Node5 -->
<g id="Node000005" class="node">
<title>Node5</title>
<g id="a_Node000005"><a xlink:href="classAP__HAL_1_1I2CDevice.html#a6cc77d0b90d91cd9293e0f4081974969" target="_top" xlink:title=" ">
<polygon fill="white" stroke="#666666" points="320.5,-325 204.5,-325 204.5,-295 320.5,-295 320.5,-325"/>
<text text-anchor="start" x="212.5" y="-313" font-family="Helvetica,sans-Serif" font-size="10.00">AP_HAL::I2CDevice::</text>
<text text-anchor="middle" x="262.5" y="-302" font-family="Helvetica,sans-Serif" font-size="10.00">get_semaphore</text>
</a>
</g>
</g>
<!-- Node1&#45;&gt;Node5 -->
<g id="edge4_Node000001_Node000005" class="edge">
<title>Node1&#45;&gt;Node5</title>
<g id="a_edge4_Node000001_Node000005"><a xlink:title=" ">
<path fill="none" stroke="#63b8ff" d="M117.35,-260.05C138.16,-267.65 163.88,-276.94 187,-285 193.32,-287.2 199.95,-289.48 206.54,-291.72"/>
<polygon fill="#63b8ff" stroke="#63b8ff" points="205.54,-295.08 216.13,-294.97 207.78,-288.45 205.54,-295.08"/>
</a>
</g>
</g>
<!-- Node6 -->
<g id="Node000006" class="node">
<title>Node6</title>
<g id="a_Node000006"><a xlink:href="classAP__HAL_1_1Semaphore.html#afcdbf03d5bea9d83037acc93bfaea7ce" target="_top" xlink:title=" ">
<polygon fill="white" stroke="#666666" points="334,-276.5 191,-276.5 191,-257.5 334,-257.5 334,-276.5"/>
<text text-anchor="middle" x="262.5" y="-264.5" font-family="Helvetica,sans-Serif" font-size="10.00">AP_HAL::Semaphore::give</text>
</a>
</g>
</g>
<!-- Node1&#45;&gt;Node6 -->
<g id="edge5_Node000001_Node000006" class="edge">
<title>Node1&#45;&gt;Node6</title>
<g id="a_edge5_Node000001_Node000006"><a xlink:title=" ">
<path fill="none" stroke="#63b8ff" d="M151.21,-253.88C160.89,-255.04 170.83,-256.22 180.6,-257.38"/>
<polygon fill="#63b8ff" stroke="#63b8ff" points="180.36,-260.88 190.7,-258.58 181.19,-253.92 180.36,-260.88"/>
</a>
</g>
</g>
<!-- Node7 -->
<g id="Node000007" class="node">
<title>Node7</title>
<g id="a_Node000007"><a xlink:href="classAP__HAL_1_1I2CDevice.html#a5d6a208d57d47068884af3a4fb90f1a2" target="_top" xlink:title=" ">
<polygon fill="white" stroke="#666666" points="334.5,-239 190.5,-239 190.5,-209 334.5,-209 334.5,-239"/>
<text text-anchor="start" x="198.5" y="-227" font-family="Helvetica,sans-Serif" font-size="10.00">AP_HAL::I2CDevice::</text>
<text text-anchor="middle" x="262.5" y="-216" font-family="Helvetica,sans-Serif" font-size="10.00">register_periodic_callback</text>
</a>
</g>
</g>
<!-- Node1&#45;&gt;Node7 -->
<g id="edge6_Node000001_Node000007" class="edge">
<title>Node1&#45;&gt;Node7</title>
<g id="a_edge6_Node000001_Node000007"><a xlink:title=" ">
<path fill="none" stroke="#63b8ff" d="M151.21,-236.52C160.81,-235.43 170.68,-234.31 180.38,-233.21"/>
<polygon fill="#63b8ff" stroke="#63b8ff" points="180.86,-236.68 190.41,-232.07 180.07,-229.72 180.86,-236.68"/>
</a>
</g>
</g>
<!-- Node8 -->
<g id="Node000008" class="node">
<title>Node8</title>
<g id="a_Node000008"><a xlink:href="classAP__HAL_1_1Device.html#a871deca702e85b91191788a3415b50ca" target="_top" xlink:title=" ">
<polygon fill="white" stroke="#666666" points="320,-191 205,-191 205,-161 320,-161 320,-191"/>
<text text-anchor="start" x="213" y="-179" font-family="Helvetica,sans-Serif" font-size="10.00">AP_HAL::Device::set</text>
<text text-anchor="middle" x="262.5" y="-168" font-family="Helvetica,sans-Serif" font-size="10.00">_retries</text>
</a>
</g>
</g>
<!-- Node1&#45;&gt;Node8 -->
<g id="edge7_Node000001_Node000008" class="edge">
<title>Node1&#45;&gt;Node8</title>
<g id="a_edge7_Node000001_Node000008"><a xlink:title=" ">
<path fill="none" stroke="#63b8ff" d="M111.57,-229.93C133.17,-220.85 161.5,-209.28 187,-200 192.19,-198.11 197.6,-196.22 203.05,-194.37"/>
<polygon fill="#63b8ff" stroke="#63b8ff" points="204.46,-197.59 212.83,-191.1 202.24,-190.95 204.46,-197.59"/>
</a>
</g>
</g>
<!-- Node9 -->
<g id="Node000009" class="node">
<title>Node9</title>
<g id="a_Node000009"><a xlink:href="classAP__HAL_1_1Semaphore.html#ab4866b1d5b6d1ec196328fafdc4705a8" target="_top" xlink:title=" ">
<polygon fill="white" stroke="#666666" points="323.5,-459 201.5,-459 201.5,-429 323.5,-429 323.5,-459"/>
<text text-anchor="start" x="209.5" y="-447" font-family="Helvetica,sans-Serif" font-size="10.00">AP_HAL::Semaphore::</text>
<text text-anchor="middle" x="262.5" y="-436" font-family="Helvetica,sans-Serif" font-size="10.00">take_blocking</text>
</a>
</g>
</g>
<!-- Node1&#45;&gt;Node9 -->
<g id="edge8_Node000001_Node000009" class="edge">
<title>Node1&#45;&gt;Node9</title>
<g id="a_edge8_Node000001_Node000009"><a xlink:title=" ">
<path fill="none" stroke="#63b8ff" d="M81.9,-260.14C94.71,-293.92 130.21,-375.96 187,-420 188.79,-421.39 190.66,-422.7 192.6,-423.93"/>
<polygon fill="#63b8ff" stroke="#63b8ff" points="191,-427.05 201.44,-428.87 194.42,-420.94 191,-427.05"/>
</a>
</g>
</g>
<!-- Node11 -->
<g id="Node000011" class="node">
<title>Node11</title>
<g id="a_Node000011"><a xlink:href="classAP__RangeFinder__Benewake__TFMiniPlus.html#a9151c1ea60c09e6f45060ca0de1a6472" target="_top" xlink:title=" ">
<polygon fill="white" stroke="#666666" points="338,-105 187,-105 187,-75 338,-75 338,-105"/>
<text text-anchor="start" x="195" y="-93" font-family="Helvetica,sans-Serif" font-size="10.00">AP_RangeFinder_Benewake</text>
<text text-anchor="middle" x="262.5" y="-82" font-family="Helvetica,sans-Serif" font-size="10.00">_TFMiniPlus::timer</text>
</a>
</g>
</g>
<!-- Node1&#45;&gt;Node11 -->
<g id="edge10_Node000001_Node000011" class="edge">
<title>Node1&#45;&gt;Node11</title>
<g id="a_edge10_Node000001_Node000011"><a xlink:title=" ">
<path fill="none" stroke="#63b8ff" d="M86.26,-229.7C103.61,-203.62 142.2,-150.38 187,-119 192.15,-115.39 197.81,-112.16 203.63,-109.27"/>
<polygon fill="#63b8ff" stroke="#63b8ff" points="205.25,-112.38 212.88,-105.02 202.33,-106.02 205.25,-112.38"/>
</a>
</g>
</g>
<!-- Node18 -->
<g id="Node000018" class="node">
<title>Node18</title>
<g id="a_Node000018"><a xlink:href="classAP__HAL_1_1I2CDevice.html#a2e581ddc9b02eb73ad2fdf488fe8dc86" target="_top" xlink:title=" ">
<polygon fill="white" stroke="#666666" points="514,-30 398,-30 398,0 514,0 514,-30"/>
<text text-anchor="start" x="406" y="-18" font-family="Helvetica,sans-Serif" font-size="10.00">AP_HAL::I2CDevice::</text>
<text text-anchor="middle" x="456" y="-7" font-family="Helvetica,sans-Serif" font-size="10.00">transfer</text>
</a>
</g>
</g>
<!-- Node1&#45;&gt;Node18 -->
<g id="edge19_Node000001_Node000018" class="edge">
<title>Node1&#45;&gt;Node18</title>
<g id="a_edge19_Node000001_Node000018"><a xlink:title=" ">
<path fill="none" stroke="#63b8ff" d="M81.15,-229.79C92.73,-194.66 126.38,-107.73 187,-66 246.34,-25.15 329.79,-14.84 387.74,-13.2"/>
<polygon fill="#63b8ff" stroke="#63b8ff" points="387.96,-16.69 397.89,-12.99 387.82,-9.69 387.96,-16.69"/>
</a>
</g>
</g>
<!-- Node10 -->
<g id="Node000010" class="node">
<title>Node10</title>
<g id="a_Node000010"><a xlink:href="classAP__HAL_1_1Semaphore.html#abd3a0affad8bb211981a979f30386589" target="_top" xlink:title=" ">
<polygon fill="white" stroke="#666666" points="527.5,-453.5 384.5,-453.5 384.5,-434.5 527.5,-434.5 527.5,-453.5"/>
<text text-anchor="middle" x="456" y="-441.5" font-family="Helvetica,sans-Serif" font-size="10.00">AP_HAL::Semaphore::take</text>
</a>
</g>
</g>
<!-- Node9&#45;&gt;Node10 -->
<g id="edge9_Node000009_Node000010" class="edge">
<title>Node9&#45;&gt;Node10</title>
<g id="a_edge9_Node000009_Node000010"><a xlink:title=" ">
<path fill="none" stroke="#63b8ff" d="M323.57,-444C339.55,-444 357.09,-444 374,-444"/>
<polygon fill="#63b8ff" stroke="#63b8ff" points="374.42,-447.5 384.42,-444 374.42,-440.5 374.42,-447.5"/>
</a>
</g>
</g>
<!-- Node11&#45;&gt;Node2 -->
<g id="edge11_Node000011_Node000002" class="edge">
<title>Node11&#45;&gt;Node2</title>
<g id="a_edge11_Node000011_Node000002"><a xlink:title=" ">
<path fill="none" stroke="#63b8ff" d="M308.13,-105.09C318.2,-109.11 328.66,-113.81 338,-119 355.48,-128.72 356.18,-136.92 374,-146 378.47,-148.28 383.2,-150.4 388.02,-152.35"/>
<polygon fill="#63b8ff" stroke="#63b8ff" points="386.79,-155.63 397.38,-155.92 389.28,-149.09 386.79,-155.63"/>
</a>
</g>
</g>
<!-- Node12 -->
<g id="Node000012" class="node">
<title>Node12</title>
<g id="a_Node000012"><a xlink:href="classAP__RangeFinder__Backend.html#a839e273328aa5334c72c8fa819e168eb" target="_top" xlink:title=" ">
<polygon fill="white" stroke="#666666" points="527,-78 385,-78 385,-48 527,-48 527,-78"/>
<text text-anchor="start" x="393" y="-66" font-family="Helvetica,sans-Serif" font-size="10.00">AP_RangeFinder_Backend</text>
<text text-anchor="middle" x="456" y="-55" font-family="Helvetica,sans-Serif" font-size="10.00">::distance</text>
</a>
</g>
</g>
<!-- Node11&#45;&gt;Node12 -->
<g id="edge12_Node000011_Node000012" class="edge">
<title>Node11&#45;&gt;Node12</title>
<g id="a_edge12_Node000011_Node000012"><a xlink:title=" ">
<path fill="none" stroke="#63b8ff" d="M338.09,-79.48C350.07,-77.79 362.51,-76.04 374.62,-74.33"/>
<polygon fill="#63b8ff" stroke="#63b8ff" points="375.28,-77.77 384.69,-72.91 374.3,-70.84 375.28,-77.77"/>
</a>
</g>
</g>
<!-- Node13 -->
<g id="Node000013" class="node">
<title>Node13</title>
<g id="a_Node000013"><a xlink:href="classAP__RangeFinder__Benewake__TFMiniPlus.html#a715aeac03f87e73780ba3e25f864b8bb" target="_top" xlink:title=" ">
<polygon fill="white" stroke="#666666" points="531.5,-137.5 380.5,-137.5 380.5,-96.5 531.5,-96.5 531.5,-137.5"/>
<text text-anchor="start" x="388.5" y="-125.5" font-family="Helvetica,sans-Serif" font-size="10.00">AP_RangeFinder_Benewake</text>
<text text-anchor="start" x="388.5" y="-114.5" font-family="Helvetica,sans-Serif" font-size="10.00">_TFMiniPlus::process_raw</text>
<text text-anchor="middle" x="456" y="-103.5" font-family="Helvetica,sans-Serif" font-size="10.00">_measure</text>
</a>
</g>
</g>
<!-- Node11&#45;&gt;Node13 -->
<g id="edge13_Node000011_Node000013" class="edge">
<title>Node11&#45;&gt;Node13</title>
<g id="a_edge13_Node000011_Node000013"><a xlink:title=" ">
<path fill="none" stroke="#63b8ff" d="M338.09,-100.52C348.59,-102 359.46,-103.53 370.14,-105.03"/>
<polygon fill="#63b8ff" stroke="#63b8ff" points="369.91,-108.54 380.3,-106.47 370.89,-101.61 369.91,-108.54"/>
</a>
</g>
</g>
<!-- Node11&#45;&gt;Node18 -->
<g id="edge18_Node000011_Node000018" class="edge">
<title>Node11&#45;&gt;Node18</title>
<g id="a_edge18_Node000011_Node000018"><a xlink:title=" ">
<path fill="none" stroke="#63b8ff" d="M302.15,-74.89C313.79,-70.08 326.52,-64.55 338,-59 354.48,-51.03 357.12,-46.09 374,-39 378.7,-37.03 383.61,-35.15 388.6,-33.37"/>
<polygon fill="#63b8ff" stroke="#63b8ff" points="389.89,-36.63 398.23,-30.09 387.64,-30 389.89,-36.63"/>
</a>
</g>
</g>
<!-- Node14 -->
<g id="Node000014" class="node">
<title>Node14</title>
<g id="a_Node000014"><a xlink:href="AP__Math_8h.html#a68558c4f79a8582543daefde13c64abc" target="_top" xlink:title=" ">
<polygon fill="white" stroke="#666666" points="691,-163.5 599,-163.5 599,-144.5 691,-144.5 691,-163.5"/>
<text text-anchor="middle" x="645" y="-151.5" font-family="Helvetica,sans-Serif" font-size="10.00">constrain_int16</text>
</a>
</g>
</g>
<!-- Node13&#45;&gt;Node14 -->
<g id="edge14_Node000013_Node000014" class="edge">
<title>Node13&#45;&gt;Node14</title>
<g id="a_edge14_Node000013_Node000014"><a xlink:title=" ">
<path fill="none" stroke="#63b8ff" d="M531.71,-131.78C550.77,-135.55 570.9,-139.54 588.79,-143.08"/>
<polygon fill="#63b8ff" stroke="#63b8ff" points="588.26,-146.54 598.75,-145.05 589.61,-139.67 588.26,-146.54"/>
</a>
</g>
</g>
<!-- Node16 -->
<g id="Node000016" class="node">
<title>Node16</title>
<g id="a_Node000016"><a xlink:href="sparse-endian_8h.html#aac44081a8b38d989b76dc3020c5215c4" target="_top" xlink:title=" ">
<polygon fill="white" stroke="#666666" points="671.5,-126.5 618.5,-126.5 618.5,-107.5 671.5,-107.5 671.5,-126.5"/>
<text text-anchor="middle" x="645" y="-114.5" font-family="Helvetica,sans-Serif" font-size="10.00">le16toh</text>
</a>
</g>
</g>
<!-- Node13&#45;&gt;Node16 -->
<g id="edge16_Node000013_Node000016" class="edge">
<title>Node13&#45;&gt;Node16</title>
<g id="a_edge16_Node000013_Node000016"><a xlink:title=" ">
<path fill="none" stroke="#63b8ff" d="M531.71,-117C558.12,-117 586.6,-117 608.28,-117"/>
<polygon fill="#63b8ff" stroke="#63b8ff" points="608.33,-120.5 618.33,-117 608.33,-113.5 608.33,-120.5"/>
</a>
</g>
</g>
<!-- Node17 -->
<g id="Node000017" class="node">
<title>Node17</title>
<g id="a_Node000017"><a xlink:href="classAP__RangeFinder__Backend.html#a494624fffc4725c2560957d5f9afe991" target="_top" xlink:title=" ">
<polygon fill="white" stroke="#666666" points="716,-89 574,-89 574,-59 716,-59 716,-89"/>
<text text-anchor="start" x="582" y="-77" font-family="Helvetica,sans-Serif" font-size="10.00">AP_RangeFinder_Backend</text>
<text text-anchor="middle" x="645" y="-66" font-family="Helvetica,sans-Serif" font-size="10.00">::max_distance_cm</text>
</a>
</g>
</g>
<!-- Node13&#45;&gt;Node17 -->
<g id="edge17_Node000013_Node000017" class="edge">
<title>Node13&#45;&gt;Node17</title>
<g id="a_edge17_Node000013_Node000017"><a xlink:title=" ">
<path fill="none" stroke="#63b8ff" d="M531.71,-99.82C543.87,-97.02 556.48,-94.13 568.65,-91.33"/>
<polygon fill="#63b8ff" stroke="#63b8ff" points="569.8,-94.65 578.76,-89 568.23,-87.83 569.8,-94.65"/>
</a>
</g>
</g>
<!-- Node15 -->
<g id="Node000015" class="node">
<title>Node15</title>
<g id="a_Node000015"><a xlink:href="AP__Math_8cpp.html#a20e8f8671c282c69c1954652b6d61585" target="_top" xlink:title=" ">
<polygon fill="white" stroke="#666666" points="846,-163.5 752,-163.5 752,-144.5 846,-144.5 846,-163.5"/>
<text text-anchor="middle" x="799" y="-151.5" font-family="Helvetica,sans-Serif" font-size="10.00">constrain_value</text>
</a>
</g>
</g>
<!-- Node14&#45;&gt;Node15 -->
<g id="edge15_Node000014_Node000015" class="edge">
<title>Node14&#45;&gt;Node15</title>
<g id="a_edge15_Node000014_Node000015"><a xlink:title=" ">
<path fill="none" stroke="#63b8ff" d="M691.19,-154C707.06,-154 725.09,-154 741.76,-154"/>
<polygon fill="#63b8ff" stroke="#63b8ff" points="741.93,-157.5 751.93,-154 741.93,-150.5 741.93,-157.5"/>
</a>
</g>
</g>
</g>
</svg>

<g id="navigator" transform="translate(0 0)" fill="#404254">
  <rect fill="#f2f5e9" fill-opacity="0.5" stroke="#606060" stroke-width=".5" x="0" y="0" width="60" height="60"/>
  <use id="zoomplus" xlink:href="#zoomPlus" x="17" y="9" onmousedown="handleZoom(evt,'in')"/>
  <use id="zoomminus" xlink:href="#zoomMin" x="42" y="9" onmousedown="handleZoom(evt,'out')"/>
  <use id="reset" xlink:href="#resetDef" x="30" y="36" onmousedown="handleReset()"/>
   <use id="arrowup" xlink:href="#arrowUp" x="0" y="0" onmousedown="handlePan(0,-1)"/>
  <use id="arrowright" xlink:href="#arrowRight" x="0" y="0" onmousedown="handlePan(1,0)"/>
  <use id="arrowdown" xlink:href="#arrowDown" x="0" y="0" onmousedown="handlePan(0,1)"/>
  <use id="arrowleft" xlink:href="#arrowLeft" x="0" y="0" onmousedown="handlePan(-1,0)"/>
</g>
<svg viewBox="0 0 15 15" width="100%" height="30px" preserveAspectRatio="xMaxYMin meet">
 <g id="arrow_out" transform="scale(0.3 0.3)">
  <a xlink:href="classAP__RangeFinder__Benewake__TFMiniPlus_ad47ddc2d559ad96f7652dfee49e45ecd_cgraph_org.svg" target="_base">
   <rect id="button" ry="5" rx="5" y="6" x="6" height="38" width="38"
        fill="#f2f5e9" fill-opacity="0.5" stroke="#606060" stroke-width="1.0"/>
   <path id="arrow"
     d="M 11.500037,31.436501 C 11.940474,20.09759 22.043105,11.32322 32.158766,21.979434 L 37.068811,17.246167 C 37.068811,17.246167 37.088388,32 37.088388,32 L 22.160133,31.978069 C 22.160133,31.978069 26.997745,27.140456 26.997745,27.140456 C 18.528582,18.264221 13.291696,25.230495 11.500037,31.436501 z"
     style="fill:#404040;"/>
  </a>
 </g>
</svg>

<style type='text/css'>
<![CDATA[
[data-mouse-over-selected='false'] { opacity: 0.7; }
[data-mouse-over-selected='true']  { opacity: 1.0; }
]]>
</style>
<script type="application/ecmascript"><![CDATA[
document.addEventListener('DOMContentLoaded', (event) => {
  highlightEdges();
  highlightAdjacentNodes();
});
]]></script>
</svg>
