<?xml version="1.0" encoding="UTF-8" standalone="no"?>
<!DOCTYPE svg PUBLIC "-//W3C//DTD SVG 1.1//EN"
 "http://www.w3.org/Graphics/SVG/1.1/DTD/svg11.dtd">
<!-- Generated by graphviz version 2.43.0 (0)
 -->
<!-- Title: AP_Baro_ICP201XX::mode_select Pages: 1 -->
<svg width="694pt" height="124pt"
 viewBox="0.00 0.00 694.00 124.00" xmlns="http://www.w3.org/2000/svg" xmlns:xlink="http://www.w3.org/1999/xlink">
<g id="graph0" class="graph" transform="scale(1 1) rotate(0) translate(4 120)">
<title>AP_Baro_ICP201XX::mode_select</title>
<!-- Node1 -->
<g id="Node000001" class="node">
<title>Node1</title>
<g id="a_Node000001"><a xlink:title=" ">
<polygon fill="#999999" stroke="#666666" points="686,-73 543,-73 543,-43 686,-43 686,-73"/>
<text text-anchor="start" x="551" y="-61" font-family="Helvetica,sans-Serif" font-size="10.00">AP_Baro_ICP201XX::mode</text>
<text text-anchor="middle" x="614.5" y="-50" font-family="Helvetica,sans-Serif" font-size="10.00">_select</text>
</a>
</g>
</g>
<!-- Node2 -->
<g id="Node000002" class="node">
<title>Node2</title>
<g id="a_Node000002"><a xlink:href="classAP__Baro__ICP201XX.html#a260ffbc10dd8a16034744926246b6b0c" target="_top" xlink:title=" ">
<polygon fill="white" stroke="#666666" points="495,-116 358,-116 358,-86 495,-86 495,-116"/>
<text text-anchor="start" x="366" y="-104" font-family="Helvetica,sans-Serif" font-size="10.00">AP_Baro_ICP201XX::boot</text>
<text text-anchor="middle" x="426.5" y="-93" font-family="Helvetica,sans-Serif" font-size="10.00">_sequence</text>
</a>
</g>
</g>
<!-- Node1&#45;&gt;Node2 -->
<g id="edge1_Node000001_Node000002" class="edge">
<title>Node1&#45;&gt;Node2</title>
<g id="a_edge1_Node000001_Node000002"><a xlink:title=" ">
<path fill="none" stroke="#63b8ff" d="M538.54,-75.33C523.3,-78.85 507.38,-82.53 492.52,-85.97"/>
<polygon fill="#63b8ff" stroke="#63b8ff" points="539.49,-78.7 548.45,-73.04 537.91,-71.88 539.49,-78.7"/>
</a>
</g>
</g>
<!-- Node5 -->
<g id="Node000005" class="node">
<title>Node5</title>
<g id="a_Node000005"><a xlink:href="classAP__Baro__ICP201XX.html#ad5070fbcad01bbee7efd2d143dbeca3b" target="_top" xlink:title=" ">
<polygon fill="white" stroke="#666666" points="507,-67.5 346,-67.5 346,-48.5 507,-48.5 507,-67.5"/>
<text text-anchor="middle" x="426.5" y="-55.5" font-family="Helvetica,sans-Serif" font-size="10.00">AP_Baro_ICP201XX::configure</text>
</a>
</g>
</g>
<!-- Node1&#45;&gt;Node5 -->
<g id="edge4_Node000001_Node000005" class="edge">
<title>Node1&#45;&gt;Node5</title>
<g id="a_edge4_Node000001_Node000005"><a xlink:title=" ">
<path fill="none" stroke="#63b8ff" d="M532.65,-58C524.16,-58 515.53,-58 507.06,-58"/>
<polygon fill="#63b8ff" stroke="#63b8ff" points="532.92,-61.5 542.92,-58 532.92,-54.5 532.92,-61.5"/>
</a>
</g>
</g>
<!-- Node6 -->
<g id="Node000006" class="node">
<title>Node6</title>
<g id="a_Node000006"><a xlink:href="classAP__Baro__ICP201XX.html#aba3341bdfb3e9ede40ed8800a77a7a85" target="_top" xlink:title=" ">
<polygon fill="white" stroke="#666666" points="493.5,-30 359.5,-30 359.5,0 493.5,0 493.5,-30"/>
<text text-anchor="start" x="367.5" y="-18" font-family="Helvetica,sans-Serif" font-size="10.00">AP_Baro_ICP201XX::soft</text>
<text text-anchor="middle" x="426.5" y="-7" font-family="Helvetica,sans-Serif" font-size="10.00">_reset</text>
</a>
</g>
</g>
<!-- Node1&#45;&gt;Node6 -->
<g id="edge6_Node000001_Node000006" class="edge">
<title>Node1&#45;&gt;Node6</title>
<g id="a_edge6_Node000001_Node000006"><a xlink:title=" ">
<path fill="none" stroke="#63b8ff" d="M538.54,-40.67C523.3,-37.15 507.38,-33.47 492.52,-30.03"/>
<polygon fill="#63b8ff" stroke="#63b8ff" points="537.91,-44.12 548.45,-42.96 539.49,-37.3 537.91,-44.12"/>
</a>
</g>
</g>
<!-- Node3 -->
<g id="Node000003" class="node">
<title>Node3</title>
<g id="a_Node000003"><a xlink:href="classAP__Baro__ICP201XX.html#a58737440e6503a1ef322bfd8f757fe2d" target="_top" xlink:title=" ">
<polygon fill="white" stroke="#666666" points="310,-67.5 179,-67.5 179,-48.5 310,-48.5 310,-67.5"/>
<text text-anchor="middle" x="244.5" y="-55.5" font-family="Helvetica,sans-Serif" font-size="10.00">AP_Baro_ICP201XX::init</text>
</a>
</g>
</g>
<!-- Node2&#45;&gt;Node3 -->
<g id="edge2_Node000002_Node000003" class="edge">
<title>Node2&#45;&gt;Node3</title>
<g id="a_edge2_Node000002_Node000003"><a xlink:title=" ">
<path fill="none" stroke="#63b8ff" d="M352.79,-83.63C329.77,-78.13 305.18,-72.26 285.36,-67.52"/>
<polygon fill="#63b8ff" stroke="#63b8ff" points="352.01,-87.04 362.54,-85.96 353.63,-80.23 352.01,-87.04"/>
</a>
</g>
</g>
<!-- Node4 -->
<g id="Node000004" class="node">
<title>Node4</title>
<g id="a_Node000004"><a xlink:href="classAP__Baro__ICP201XX.html#ad3d24fc07942f4989fb0b6ec6d960b17" target="_top" xlink:title=" ">
<polygon fill="white" stroke="#666666" points="143,-67.5 0,-67.5 0,-48.5 143,-48.5 143,-67.5"/>
<text text-anchor="middle" x="71.5" y="-55.5" font-family="Helvetica,sans-Serif" font-size="10.00">AP_Baro_ICP201XX::probe</text>
</a>
</g>
</g>
<!-- Node3&#45;&gt;Node4 -->
<g id="edge3_Node000003_Node000004" class="edge">
<title>Node3&#45;&gt;Node4</title>
<g id="a_edge3_Node000003_Node000004"><a xlink:title=" ">
<path fill="none" stroke="#63b8ff" d="M168.65,-58C160.21,-58 151.63,-58 143.24,-58"/>
<polygon fill="#63b8ff" stroke="#63b8ff" points="168.85,-61.5 178.85,-58 168.85,-54.5 168.85,-61.5"/>
</a>
</g>
</g>
<!-- Node5&#45;&gt;Node3 -->
<g id="edge5_Node000005_Node000003" class="edge">
<title>Node5&#45;&gt;Node3</title>
<g id="a_edge5_Node000005_Node000003"><a xlink:title=" ">
<path fill="none" stroke="#63b8ff" d="M335.65,-58C327.01,-58 318.38,-58 310.06,-58"/>
<polygon fill="#63b8ff" stroke="#63b8ff" points="335.76,-61.5 345.76,-58 335.76,-54.5 335.76,-61.5"/>
</a>
</g>
</g>
<!-- Node6&#45;&gt;Node3 -->
<g id="edge7_Node000006_Node000003" class="edge">
<title>Node6&#45;&gt;Node3</title>
<g id="a_edge7_Node000006_Node000003"><a xlink:title=" ">
<path fill="none" stroke="#63b8ff" d="M352.79,-32.37C329.77,-37.87 305.18,-43.74 285.36,-48.48"/>
<polygon fill="#63b8ff" stroke="#63b8ff" points="353.63,-35.77 362.54,-30.04 352.01,-28.96 353.63,-35.77"/>
</a>
</g>
</g>
</g>
</svg>
