<?xml version="1.0" encoding="UTF-8" standalone="no"?>
<!DOCTYPE svg PUBLIC "-//W3C//DTD SVG 1.1//EN"
 "http://www.w3.org/Graphics/SVG/1.1/DTD/svg11.dtd">
<!-- Generated by graphviz version 2.43.0 (0)
 -->
<!-- Title: RangeFinder::has_data_orient Pages: 1 -->
<svg width="679pt" height="124pt"
 viewBox="0.00 0.00 679.00 123.50" xmlns="http://www.w3.org/2000/svg" xmlns:xlink="http://www.w3.org/1999/xlink">
<g id="graph0" class="graph" transform="scale(1 1) rotate(0) translate(4 119.5)">
<title>RangeFinder::has_data_orient</title>
<!-- Node1 -->
<g id="Node000001" class="node">
<title>Node1</title>
<g id="a_Node000001"><a xlink:title=" ">
<polygon fill="#999999" stroke="#666666" points="128,-56 0,-56 0,-26 128,-26 128,-56"/>
<text text-anchor="start" x="8" y="-44" font-family="Helvetica,sans-Serif" font-size="10.00">RangeFinder::has_data</text>
<text text-anchor="middle" x="64" y="-33" font-family="Helvetica,sans-Serif" font-size="10.00">_orient</text>
</a>
</g>
</g>
<!-- Node2 -->
<g id="Node000002" class="node">
<title>Node2</title>
<g id="a_Node000002"><a xlink:href="classRangeFinder.html#a1491b0acf5a52d28ad96980bf494fab0" target="_top" xlink:title=" ">
<polygon fill="white" stroke="#666666" points="312,-72.5 164,-72.5 164,-53.5 312,-53.5 312,-72.5"/>
<text text-anchor="middle" x="238" y="-60.5" font-family="Helvetica,sans-Serif" font-size="10.00">RangeFinder::find_instance</text>
</a>
</g>
</g>
<!-- Node1&#45;&gt;Node2 -->
<g id="edge1_Node000001_Node000002" class="edge">
<title>Node1&#45;&gt;Node2</title>
<g id="a_edge1_Node000001_Node000002"><a xlink:title=" ">
<path fill="none" stroke="#63b8ff" d="M128.07,-49.07C136.41,-50.13 145.06,-51.24 153.67,-52.34"/>
<polygon fill="#63b8ff" stroke="#63b8ff" points="153.38,-55.83 163.74,-53.63 154.27,-48.89 153.38,-55.83"/>
</a>
</g>
</g>
<!-- Node7 -->
<g id="Node000007" class="node">
<title>Node7</title>
<g id="a_Node000007"><a xlink:href="classAP__RangeFinder__Backend.html#acb4240a40844d61d3114b9f2a260754e" target="_top" xlink:title=" ">
<polygon fill="white" stroke="#666666" points="309,-35 167,-35 167,-5 309,-5 309,-35"/>
<text text-anchor="start" x="175" y="-23" font-family="Helvetica,sans-Serif" font-size="10.00">AP_RangeFinder_Backend</text>
<text text-anchor="middle" x="238" y="-12" font-family="Helvetica,sans-Serif" font-size="10.00">::has_data</text>
</a>
</g>
</g>
<!-- Node1&#45;&gt;Node7 -->
<g id="edge6_Node000001_Node000007" class="edge">
<title>Node1&#45;&gt;Node7</title>
<g id="a_edge6_Node000001_Node000007"><a xlink:title=" ">
<path fill="none" stroke="#63b8ff" d="M128.07,-33.3C137.46,-32.15 147.25,-30.96 156.93,-29.78"/>
<polygon fill="#63b8ff" stroke="#63b8ff" points="157.47,-33.24 166.97,-28.55 156.62,-26.29 157.47,-33.24"/>
</a>
</g>
</g>
<!-- Node3 -->
<g id="Node000003" class="node">
<title>Node3</title>
<g id="a_Node000003"><a xlink:href="classRangeFinder.html#aa7b45987158dbccaea5ea52ed4dd1954" target="_top" xlink:title=" ">
<polygon fill="white" stroke="#666666" points="493,-115.5 348,-115.5 348,-96.5 493,-96.5 493,-115.5"/>
<text text-anchor="middle" x="420.5" y="-103.5" font-family="Helvetica,sans-Serif" font-size="10.00">RangeFinder::get_backend</text>
</a>
</g>
</g>
<!-- Node2&#45;&gt;Node3 -->
<g id="edge2_Node000002_Node000003" class="edge">
<title>Node2&#45;&gt;Node3</title>
<g id="a_edge2_Node000002_Node000003"><a xlink:title=" ">
<path fill="none" stroke="#63b8ff" d="M279.06,-72.54C305.82,-78.92 341.2,-87.35 369.76,-94.15"/>
<polygon fill="#63b8ff" stroke="#63b8ff" points="369.01,-97.57 379.55,-96.48 370.64,-90.76 369.01,-97.57"/>
</a>
</g>
</g>
<!-- Node4 -->
<g id="Node000004" class="node">
<title>Node4</title>
<g id="a_Node000004"><a xlink:href="classAP__RangeFinder__Backend.html#ab18f1f3fb5439ebc82721c6937ee3bc6" target="_top" xlink:title=" ">
<polygon fill="white" stroke="#666666" points="491.5,-78 349.5,-78 349.5,-48 491.5,-48 491.5,-78"/>
<text text-anchor="start" x="357.5" y="-66" font-family="Helvetica,sans-Serif" font-size="10.00">AP_RangeFinder_Backend</text>
<text text-anchor="middle" x="420.5" y="-55" font-family="Helvetica,sans-Serif" font-size="10.00">::orientation</text>
</a>
</g>
</g>
<!-- Node2&#45;&gt;Node4 -->
<g id="edge3_Node000002_Node000004" class="edge">
<title>Node2&#45;&gt;Node4</title>
<g id="a_edge3_Node000002_Node000004"><a xlink:title=" ">
<path fill="none" stroke="#63b8ff" d="M312.16,-63C321.1,-63 330.28,-63 339.32,-63"/>
<polygon fill="#63b8ff" stroke="#63b8ff" points="339.45,-66.5 349.45,-63 339.45,-59.5 339.45,-66.5"/>
</a>
</g>
</g>
<!-- Node5 -->
<g id="Node000005" class="node">
<title>Node5</title>
<g id="a_Node000005"><a xlink:href="classAP__RangeFinder__Backend.html#aed76f84a79e749bb871b9022b48aafcc" target="_top" xlink:title=" ">
<polygon fill="white" stroke="#666666" points="491.5,-30 349.5,-30 349.5,0 491.5,0 491.5,-30"/>
<text text-anchor="start" x="357.5" y="-18" font-family="Helvetica,sans-Serif" font-size="10.00">AP_RangeFinder_Backend</text>
<text text-anchor="middle" x="420.5" y="-7" font-family="Helvetica,sans-Serif" font-size="10.00">::status</text>
</a>
</g>
</g>
<!-- Node2&#45;&gt;Node5 -->
<g id="edge4_Node000002_Node000005" class="edge">
<title>Node2&#45;&gt;Node5</title>
<g id="a_edge4_Node000002_Node000005"><a xlink:title=" ">
<path fill="none" stroke="#63b8ff" d="M275.78,-53.5C287.37,-50.48 300.23,-47.12 312,-44 325.61,-40.39 340.17,-36.49 354.05,-32.76"/>
<polygon fill="#63b8ff" stroke="#63b8ff" points="355.26,-36.05 364.01,-30.07 353.44,-29.29 355.26,-36.05"/>
</a>
</g>
</g>
<!-- Node6 -->
<g id="Node000006" class="node">
<title>Node6</title>
<g id="a_Node000006"><a xlink:href="classAP__RangeFinder__Backend.html#aca492be94498767328c54fbca99dc5b0" target="_top" xlink:title=" ">
<polygon fill="white" stroke="#666666" points="671,-30 529,-30 529,0 671,0 671,-30"/>
<text text-anchor="start" x="537" y="-18" font-family="Helvetica,sans-Serif" font-size="10.00">AP_RangeFinder_Backend</text>
<text text-anchor="middle" x="600" y="-7" font-family="Helvetica,sans-Serif" font-size="10.00">::type</text>
</a>
</g>
</g>
<!-- Node5&#45;&gt;Node6 -->
<g id="edge5_Node000005_Node000006" class="edge">
<title>Node5&#45;&gt;Node6</title>
<g id="a_edge5_Node000005_Node000006"><a xlink:title=" ">
<path fill="none" stroke="#63b8ff" d="M491.65,-15C500.52,-15 509.65,-15 518.67,-15"/>
<polygon fill="#63b8ff" stroke="#63b8ff" points="518.78,-18.5 528.78,-15 518.78,-11.5 518.78,-18.5"/>
</a>
</g>
</g>
</g>
</svg>
