<?xml version="1.0" encoding="UTF-8" standalone="no"?>
<!DOCTYPE svg PUBLIC "-//W3C//DTD SVG 1.1//EN"
 "http://www.w3.org/Graphics/SVG/1.1/DTD/svg11.dtd">
<!-- Generated by graphviz version 2.43.0 (0)
 -->
<!-- Title: AP_DAL_InertialSensor::update_filtered Pages: 1 -->
<svg width="596pt" height="168pt"
 viewBox="0.00 0.00 596.00 168.00" xmlns="http://www.w3.org/2000/svg" xmlns:xlink="http://www.w3.org/1999/xlink">
<g id="graph0" class="graph" transform="scale(1 1) rotate(0) translate(4 164)">
<title>AP_DAL_InertialSensor::update_filtered</title>
<!-- Node1 -->
<g id="Node000001" class="node">
<title>Node1</title>
<g id="a_Node000001"><a xlink:title=" ">
<polygon fill="#999999" stroke="#666666" points="127,-67.5 0,-67.5 0,-37.5 127,-37.5 127,-67.5"/>
<text text-anchor="start" x="8" y="-55.5" font-family="Helvetica,sans-Serif" font-size="10.00">AP_DAL_InertialSensor</text>
<text text-anchor="middle" x="63.5" y="-44.5" font-family="Helvetica,sans-Serif" font-size="10.00">::update_filtered</text>
</a>
</g>
</g>
<!-- Node2 -->
<g id="Node000002" class="node">
<title>Node2</title>
<g id="a_Node000002"><a xlink:href="AP__Math_8cpp.html#af85526f09770bf084ecba71cb8839c76" target="_top" xlink:title=" ">
<polygon fill="white" stroke="#666666" points="291,-105 163,-105 163,-86 291,-86 291,-105"/>
<text text-anchor="middle" x="227" y="-93" font-family="Helvetica,sans-Serif" font-size="10.00">calc_lowpass_alpha_dt</text>
</a>
</g>
</g>
<!-- Node1&#45;&gt;Node2 -->
<g id="edge1_Node000001_Node000002" class="edge">
<title>Node1&#45;&gt;Node2</title>
<g id="a_edge1_Node000001_Node000002"><a xlink:title=" ">
<path fill="none" stroke="#63b8ff" d="M120.98,-67.54C140.33,-72.69 161.71,-78.38 180.11,-83.28"/>
<polygon fill="#63b8ff" stroke="#63b8ff" points="179.43,-86.72 189.99,-85.91 181.23,-79.96 179.43,-86.72"/>
</a>
</g>
</g>
<!-- Node7 -->
<g id="Node000007" class="node">
<title>Node7</title>
<g id="a_Node000007"><a xlink:href="classAP__DAL__InertialSensor.html#afe96276edad6311d9dd5577176d5bad3" target="_top" xlink:title=" ">
<polygon fill="white" stroke="#666666" points="290.5,-67.5 163.5,-67.5 163.5,-37.5 290.5,-37.5 290.5,-67.5"/>
<text text-anchor="start" x="171.5" y="-55.5" font-family="Helvetica,sans-Serif" font-size="10.00">AP_DAL_InertialSensor</text>
<text text-anchor="middle" x="227" y="-44.5" font-family="Helvetica,sans-Serif" font-size="10.00">::get_loop_delta_t</text>
</a>
</g>
</g>
<!-- Node1&#45;&gt;Node7 -->
<g id="edge7_Node000001_Node000007" class="edge">
<title>Node1&#45;&gt;Node7</title>
<g id="a_edge7_Node000001_Node000007"><a xlink:title=" ">
<path fill="none" stroke="#63b8ff" d="M127.4,-52.5C135.87,-52.5 144.61,-52.5 153.23,-52.5"/>
<polygon fill="#63b8ff" stroke="#63b8ff" points="153.27,-56 163.27,-52.5 153.27,-49 153.27,-56"/>
</a>
</g>
</g>
<!-- Node8 -->
<g id="Node000008" class="node">
<title>Node8</title>
<g id="a_Node000008"><a xlink:href="AP__Math_8h.html#a4e3ae698e8f99cec214348ad233e3c41" target="_top" xlink:title=" ">
<polygon fill="white" stroke="#666666" points="261.5,-19 192.5,-19 192.5,0 261.5,0 261.5,-19"/>
<text text-anchor="middle" x="227" y="-7" font-family="Helvetica,sans-Serif" font-size="10.00">is_positive</text>
</a>
</g>
</g>
<!-- Node1&#45;&gt;Node8 -->
<g id="edge8_Node000001_Node000008" class="edge">
<title>Node1&#45;&gt;Node8</title>
<g id="a_edge8_Node000001_Node000008"><a xlink:title=" ">
<path fill="none" stroke="#63b8ff" d="M120.98,-37.46C141.19,-32.08 163.62,-26.11 182.55,-21.07"/>
<polygon fill="#63b8ff" stroke="#63b8ff" points="183.62,-24.41 192.38,-18.45 181.82,-17.64 183.62,-24.41"/>
</a>
</g>
</g>
<!-- Node3 -->
<g id="Node000003" class="node">
<title>Node3</title>
<g id="a_Node000003"><a xlink:href="AP__Math_8h.html#a8b6f71a42818d74fd8bfe348108942fa" target="_top" xlink:title=" ">
<polygon fill="white" stroke="#666666" points="400,-160 327,-160 327,-141 400,-141 400,-160"/>
<text text-anchor="middle" x="363.5" y="-148" font-family="Helvetica,sans-Serif" font-size="10.00">is_negative</text>
</a>
</g>
</g>
<!-- Node2&#45;&gt;Node3 -->
<g id="edge2_Node000002_Node000003" class="edge">
<title>Node2&#45;&gt;Node3</title>
<g id="a_edge2_Node000002_Node000003"><a xlink:title=" ">
<path fill="none" stroke="#63b8ff" d="M251.43,-105.08C272.99,-113.9 305.21,-127.07 329.4,-136.96"/>
<polygon fill="#63b8ff" stroke="#63b8ff" points="328.31,-140.3 338.89,-140.84 330.96,-133.82 328.31,-140.3"/>
</a>
</g>
</g>
<!-- Node4 -->
<g id="Node000004" class="node">
<title>Node4</title>
<g id="a_Node000004"><a xlink:href="AP__Math_8h.html#a2a12cce483e9b870da70d30406d82c60" target="_top" xlink:title=" ">
<polygon fill="white" stroke="#666666" points="389,-105 338,-105 338,-86 389,-86 389,-105"/>
<text text-anchor="middle" x="363.5" y="-93" font-family="Helvetica,sans-Serif" font-size="10.00">is_zero</text>
</a>
</g>
</g>
<!-- Node2&#45;&gt;Node4 -->
<g id="edge3_Node000002_Node000004" class="edge">
<title>Node2&#45;&gt;Node4</title>
<g id="a_edge3_Node000002_Node000004"><a xlink:title=" ">
<path fill="none" stroke="#63b8ff" d="M291.31,-95.5C303.81,-95.5 316.48,-95.5 327.61,-95.5"/>
<polygon fill="#63b8ff" stroke="#63b8ff" points="327.74,-99 337.74,-95.5 327.74,-92 327.74,-99"/>
</a>
</g>
</g>
<!-- Node5 -->
<g id="Node000005" class="node">
<title>Node5</title>
<g id="a_Node000005"><a xlink:href="RC__Channels_8cpp.html#abe35aea6177a1cdf87a22af5c263bb89" target="_top" xlink:title=" ">
<polygon fill="white" stroke="#666666" points="378,-68 349,-68 349,-49 378,-49 378,-68"/>
<text text-anchor="middle" x="363.5" y="-56" font-family="Helvetica,sans-Serif" font-size="10.00">rc</text>
</a>
</g>
</g>
<!-- Node2&#45;&gt;Node5 -->
<g id="edge5_Node000002_Node000005" class="edge">
<title>Node2&#45;&gt;Node5</title>
<g id="a_edge5_Node000002_Node000005"><a xlink:title=" ">
<path fill="none" stroke="#63b8ff" d="M262.64,-85.97C286.61,-79.38 317.87,-70.78 338.98,-64.97"/>
<polygon fill="#63b8ff" stroke="#63b8ff" points="340.02,-68.32 348.73,-62.29 338.16,-61.57 340.02,-68.32"/>
</a>
</g>
</g>
<!-- Node4&#45;&gt;Node4 -->
<g id="edge4_Node000004_Node000004" class="edge">
<title>Node4&#45;&gt;Node4</title>
<g id="a_edge4_Node000004_Node000004"><a xlink:title=" ">
<path fill="none" stroke="#63b8ff" d="M342.54,-105.08C332.34,-113.73 339.33,-123 363.5,-123 378.99,-123 387.42,-119.2 388.8,-114.19"/>
<polygon fill="#63b8ff" stroke="#63b8ff" points="391.92,-112.61 384.46,-105.08 385.6,-115.62 391.92,-112.61"/>
</a>
</g>
</g>
<!-- Node6 -->
<g id="Node000006" class="node">
<title>Node6</title>
<g id="a_Node000006"><a xlink:href="classRC__Channels.html#ae4e66c56cdd1eb498d22b52dffc687d6" target="_top" xlink:title=" ">
<polygon fill="white" stroke="#666666" points="588,-68 436,-68 436,-49 588,-49 588,-68"/>
<text text-anchor="middle" x="512" y="-56" font-family="Helvetica,sans-Serif" font-size="10.00">RC_Channels::get_singleton</text>
</a>
</g>
</g>
<!-- Node5&#45;&gt;Node6 -->
<g id="edge6_Node000005_Node000006" class="edge">
<title>Node5&#45;&gt;Node6</title>
<g id="a_edge6_Node000005_Node000006"><a xlink:title=" ">
<path fill="none" stroke="#63b8ff" d="M378.02,-58.5C389.49,-58.5 407,-58.5 425.59,-58.5"/>
<polygon fill="#63b8ff" stroke="#63b8ff" points="425.68,-62 435.68,-58.5 425.68,-55 425.68,-62"/>
</a>
</g>
</g>
</g>
</svg>
