<?xml version="1.0" encoding="UTF-8" standalone="no"?>
<!DOCTYPE svg PUBLIC "-//W3C//DTD SVG 1.1//EN"
 "http://www.w3.org/Graphics/SVG/1.1/DTD/svg11.dtd">
<!-- Generated by graphviz version 2.43.0 (0)
 -->
<!-- Title: SITL::Vicon::update_vicon_position_estimate Pages: 1 -->
<!--zoomable 811 -->

<svg id="main" version="1.1" xmlns="http://www.w3.org/2000/svg" xmlns:xlink="http://www.w3.org/1999/xlink" xml:space="preserve" onload="init(evt)">
<style type="text/css"><![CDATA[
.node, .edge {opacity: 0.7;}
.node.selected, .edge.selected {opacity: 1;}
.edge:hover path { stroke: red; }
.edge:hover polygon { stroke: red; fill: red; }
]]></style>

<defs>
  <circle id="rim" cx="0" cy="0" r="7"/>
  <circle id="rim2" cx="0" cy="0" r="3.5"/>
  <g id="zoomPlus">
    <use xlink:href="#rim" fill="#404040"><set attributeName="fill" to="#808080" begin="zoomplus.mouseover" end="zoomplus.mouseout"/></use>
    <path d="M-4,0h8M0,-4v8" fill="none" stroke="white" stroke-width="1.5" pointer-events="none"/>
  </g>
  <g id="zoomMin">
    <use xlink:href="#rim" fill="#404040"><set attributeName="fill" to="#808080" begin="zoomminus.mouseover" end="zoomminus.mouseout"/></use>
    <path d="M-4,0h8" fill="none" stroke="white" stroke-width="1.5" pointer-events="none"/>
  </g>
  <g id="arrowUp" transform="translate(30 24)">
    <use xlink:href="#rim"/>
    <path pointer-events="none" fill="none" stroke="white" stroke-width="1.5" d="M0,-3.0v7 M-2.5,-0.5L0,-3.0L2.5,-0.5"/>
  </g>
  <g id="arrowRight" transform="rotate(90) translate(36 -43)">
    <use xlink:href="#rim"/>
    <path pointer-events="none" fill="none" stroke="white" stroke-width="1.5" d="M0,-3.0v7 M-2.5,-0.5L0,-3.0L2.5,-0.5"/>
  </g>
  <g id="arrowDown" transform="rotate(180) translate(-30 -48)">
    <use xlink:href="#rim"/>
    <path pointer-events="none" fill="none" stroke="white" stroke-width="1.5" d="M0,-3.0v7 M-2.5,-0.5L0,-3.0L2.5,-0.5"/>
  </g>
  <g id="arrowLeft" transform="rotate(270) translate(-36 17)">
    <use xlink:href="#rim"/>
    <path pointer-events="none" fill="none" stroke="white" stroke-width="1.5" d="M0,-3.0v7 M-2.5,-0.5L0,-3.0L2.5,-0.5"/>
  </g>
  <g id="resetDef">
    <use xlink:href="#rim2" fill="#404040"><set attributeName="fill" to="#808080" begin="reset.mouseover" end="reset.mouseout"/></use>
  </g>
</defs>
<script type="application/ecmascript">
var viewWidth = 734;
var viewHeight = 811;
var sectionId = 'dynsection-8';
</script>
<script type="application/ecmascript" xlink:href="svg.min.js"/>
<svg id="graph" class="graph">
<g id="viewport">
<title>SITL::Vicon::update_vicon_position_estimate</title>
<!-- Node1 -->
<g id="Node000001" class="node">
<title>Node1</title>
<g id="a_Node000001"><a xlink:title=" ">
<polygon fill="#999999" stroke="#666666" points="141,-393 0,-393 0,-363 141,-363 141,-393"/>
<text text-anchor="start" x="8" y="-381" font-family="Helvetica,sans-Serif" font-size="10.00">SITL::Vicon::update</text>
<text text-anchor="middle" x="70.5" y="-370" font-family="Helvetica,sans-Serif" font-size="10.00">_vicon_position_estimate</text>
</a>
</g>
</g>
<!-- Node2 -->
<g id="Node000002" class="node">
<title>Node2</title>
<g id="a_Node000002"><a xlink:href="RCProtocolTest_8cpp.html#ab59cbd9523fdc9601bf57f555a9f8733" target="_top" xlink:title=" ">
<polygon fill="white" stroke="#666666" points="285.5,-748.5 221.5,-748.5 221.5,-729.5 285.5,-729.5 285.5,-748.5"/>
<text text-anchor="middle" x="253.5" y="-736.5" font-family="Helvetica,sans-Serif" font-size="10.00">delay_ms</text>
</a>
</g>
</g>
<!-- Node1&#45;&gt;Node2 -->
<g id="edge1_Node000001_Node000002" class="edge">
<title>Node1&#45;&gt;Node2</title>
<g id="a_edge1_Node000001_Node000002"><a xlink:title=" ">
<path fill="none" stroke="#63b8ff" d="M71.69,-393.07C73.18,-445.02 85.11,-618.64 177,-713 186.23,-722.48 199.08,-728.51 211.56,-732.34"/>
<polygon fill="#63b8ff" stroke="#63b8ff" points="210.86,-735.77 221.42,-734.96 212.66,-729.01 210.86,-735.77"/>
</a>
</g>
</g>
<!-- Node4 -->
<g id="Node000004" class="node">
<title>Node4</title>
<g id="a_Node000004"><a xlink:href="namespaceAP__HAL.html#a7aa0ce7625c9680e30ff4a99940907a5" target="_top" xlink:title=" ">
<polygon fill="white" stroke="#666666" points="481,-706.5 376,-706.5 376,-687.5 481,-687.5 481,-706.5"/>
<text text-anchor="middle" x="428.5" y="-694.5" font-family="Helvetica,sans-Serif" font-size="10.00">AP_HAL::micros64</text>
</a>
</g>
</g>
<!-- Node1&#45;&gt;Node4 -->
<g id="edge17_Node000001_Node000004" class="edge">
<title>Node1&#45;&gt;Node4</title>
<g id="a_edge17_Node000001_Node000004"><a xlink:title=" ">
<path fill="none" stroke="#63b8ff" d="M71.44,-393.19C72.17,-443.8 82.03,-607.62 177,-680 234.77,-724.03 323.46,-717.94 378.35,-708.33"/>
<polygon fill="#63b8ff" stroke="#63b8ff" points="378.99,-711.77 388.19,-706.5 377.72,-704.89 378.99,-711.77"/>
</a>
</g>
</g>
<!-- Node9 -->
<g id="Node000009" class="node">
<title>Node9</title>
<g id="a_Node000009"><a xlink:href="classMatrix3.html#ace756290a0d39528992ead334c038de2" target="_top" xlink:title=" ">
<polygon fill="white" stroke="#666666" points="310,-670.5 197,-670.5 197,-651.5 310,-651.5 310,-670.5"/>
<text text-anchor="middle" x="253.5" y="-658.5" font-family="Helvetica,sans-Serif" font-size="10.00">Matrix3::from_euler</text>
</a>
</g>
</g>
<!-- Node1&#45;&gt;Node9 -->
<g id="edge8_Node000001_Node000009" class="edge">
<title>Node1&#45;&gt;Node9</title>
<g id="a_edge8_Node000001_Node000009"><a xlink:title=" ">
<path fill="none" stroke="#63b8ff" d="M72.77,-393.03C77.45,-438.31 97.78,-574.5 177,-643 180.21,-645.78 183.77,-648.14 187.56,-650.16"/>
<polygon fill="#63b8ff" stroke="#63b8ff" points="186.15,-653.36 196.71,-654.24 189.01,-646.97 186.15,-653.36"/>
</a>
</g>
</g>
<!-- Node10 -->
<g id="Node000010" class="node">
<title>Node10</title>
<g id="a_Node000010"><a xlink:href="classQuaternionT.html#a9c1c817741fe8177f45909f197c03a0e" target="_top" xlink:title=" ">
<polygon fill="white" stroke="#666666" points="321,-633.5 186,-633.5 186,-614.5 321,-614.5 321,-633.5"/>
<text text-anchor="middle" x="253.5" y="-621.5" font-family="Helvetica,sans-Serif" font-size="10.00">QuaternionT::from_euler</text>
</a>
</g>
</g>
<!-- Node1&#45;&gt;Node10 -->
<g id="edge9_Node000001_Node000010" class="edge">
<title>Node1&#45;&gt;Node10</title>
<g id="a_edge9_Node000001_Node000010"><a xlink:title=" ">
<path fill="none" stroke="#63b8ff" d="M73.94,-393.17C81.36,-434.08 107.52,-547.52 177,-605 179.05,-606.7 181.23,-608.24 183.51,-609.66"/>
<polygon fill="#63b8ff" stroke="#63b8ff" points="182.24,-612.94 192.73,-614.46 185.48,-606.73 182.24,-612.94"/>
</a>
</g>
</g>
<!-- Node11 -->
<g id="Node000011" class="node">
<title>Node11</title>
<g id="a_Node000011"><a xlink:href="classQuaternionT.html#ab75b77bf0cf491c47493e6d57f101d72" target="_top" xlink:title=" ">
<polygon fill="white" stroke="#666666" points="317.5,-596 189.5,-596 189.5,-566 317.5,-566 317.5,-596"/>
<text text-anchor="start" x="197.5" y="-584" font-family="Helvetica,sans-Serif" font-size="10.00">QuaternionT::get_euler</text>
<text text-anchor="middle" x="253.5" y="-573" font-family="Helvetica,sans-Serif" font-size="10.00">_pitch</text>
</a>
</g>
</g>
<!-- Node1&#45;&gt;Node11 -->
<g id="edge10_Node000001_Node000011" class="edge">
<title>Node1&#45;&gt;Node11</title>
<g id="a_edge10_Node000001_Node000011"><a xlink:title=" ">
<path fill="none" stroke="#63b8ff" d="M76.25,-393.23C87.76,-427.65 120.44,-511.92 177,-557 178.61,-558.29 180.3,-559.5 182.04,-560.66"/>
<polygon fill="#63b8ff" stroke="#63b8ff" points="180.73,-563.94 191.14,-565.9 184.22,-557.88 180.73,-563.94"/>
</a>
</g>
</g>
<!-- Node13 -->
<g id="Node000013" class="node">
<title>Node13</title>
<g id="a_Node000013"><a xlink:href="classQuaternionT.html#a954c8a81a7f2507aa6cb56aeb8ebfea1" target="_top" xlink:title=" ">
<polygon fill="white" stroke="#666666" points="328,-547.5 179,-547.5 179,-528.5 328,-528.5 328,-547.5"/>
<text text-anchor="middle" x="253.5" y="-535.5" font-family="Helvetica,sans-Serif" font-size="10.00">QuaternionT::get_euler_roll</text>
</a>
</g>
</g>
<!-- Node1&#45;&gt;Node13 -->
<g id="edge12_Node000001_Node000013" class="edge">
<title>Node1&#45;&gt;Node13</title>
<g id="a_edge12_Node000001_Node000013"><a xlink:title=" ">
<path fill="none" stroke="#63b8ff" d="M78.31,-393.18C92.32,-422.57 127.26,-487.2 177,-520 179.43,-521.6 181.98,-523.06 184.62,-524.39"/>
<polygon fill="#63b8ff" stroke="#63b8ff" points="183.32,-527.64 193.88,-528.42 186.11,-521.22 183.32,-527.64"/>
</a>
</g>
</g>
<!-- Node14 -->
<g id="Node000014" class="node">
<title>Node14</title>
<g id="a_Node000014"><a xlink:href="classQuaternionT.html#a3220695bcc0fe6b010ab9f1eb791eb53" target="_top" xlink:title=" ">
<polygon fill="white" stroke="#666666" points="330,-510.5 177,-510.5 177,-491.5 330,-491.5 330,-510.5"/>
<text text-anchor="middle" x="253.5" y="-498.5" font-family="Helvetica,sans-Serif" font-size="10.00">QuaternionT::get_euler_yaw</text>
</a>
</g>
</g>
<!-- Node1&#45;&gt;Node14 -->
<g id="edge13_Node000001_Node000014" class="edge">
<title>Node1&#45;&gt;Node14</title>
<g id="a_edge13_Node000001_Node000014"><a xlink:title=" ">
<path fill="none" stroke="#63b8ff" d="M82.62,-393.29C100.09,-416.17 136.2,-459.05 177,-482 180.95,-484.22 185.16,-486.19 189.5,-487.93"/>
<polygon fill="#63b8ff" stroke="#63b8ff" points="188.54,-491.3 199.13,-491.38 190.9,-484.71 188.54,-491.3"/>
</a>
</g>
</g>
<!-- Node15 -->
<g id="Node000015" class="node">
<title>Node15</title>
<g id="a_Node000015"><a xlink:href="classSITL_1_1Vicon.html#afd505ca56dc771f35d5bdc48832e6751" target="_top" xlink:title=" ">
<polygon fill="white" stroke="#666666" points="311.5,-473 195.5,-473 195.5,-443 311.5,-443 311.5,-473"/>
<text text-anchor="start" x="203.5" y="-461" font-family="Helvetica,sans-Serif" font-size="10.00">SITL::Vicon::get_free</text>
<text text-anchor="middle" x="253.5" y="-450" font-family="Helvetica,sans-Serif" font-size="10.00">_msg_buf_index</text>
</a>
</g>
</g>
<!-- Node1&#45;&gt;Node15 -->
<g id="edge14_Node000001_Node000015" class="edge">
<title>Node1&#45;&gt;Node15</title>
<g id="a_edge14_Node000001_Node000015"><a xlink:title=" ">
<path fill="none" stroke="#63b8ff" d="M96.88,-393.14C117.87,-405.25 148.71,-422.11 177,-434 181.64,-435.95 186.49,-437.83 191.4,-439.62"/>
<polygon fill="#63b8ff" stroke="#63b8ff" points="190.28,-442.94 200.88,-442.96 192.61,-436.34 190.28,-442.94"/>
</a>
</g>
</g>
<!-- Node16 -->
<g id="Node000016" class="node">
<title>Node16</title>
<g id="a_Node000016"><a xlink:href="classQuaternionT.html#a2782dcf2392c7b642742f814d328e791" target="_top" xlink:title=" ">
<polygon fill="white" stroke="#666666" points="312.5,-424.5 194.5,-424.5 194.5,-405.5 312.5,-405.5 312.5,-424.5"/>
<text text-anchor="middle" x="253.5" y="-412.5" font-family="Helvetica,sans-Serif" font-size="10.00">QuaternionT::inverse</text>
</a>
</g>
</g>
<!-- Node1&#45;&gt;Node16 -->
<g id="edge15_Node000001_Node000016" class="edge">
<title>Node1&#45;&gt;Node16</title>
<g id="a_edge15_Node000001_Node000016"><a xlink:title=" ">
<path fill="none" stroke="#63b8ff" d="M141.22,-392.25C159.29,-395.95 178.52,-399.88 195.82,-403.41"/>
<polygon fill="#63b8ff" stroke="#63b8ff" points="195.27,-406.87 205.77,-405.45 196.67,-400.01 195.27,-406.87"/>
</a>
</g>
</g>
<!-- Node17 -->
<g id="Node000017" class="node">
<title>Node17</title>
<g id="a_Node000017"><a xlink:href="classQuaternionT.html#a780594f25d7d5ce65e64657401757207" target="_top" xlink:title=" ">
<polygon fill="white" stroke="#666666" points="308.5,-387.5 198.5,-387.5 198.5,-368.5 308.5,-368.5 308.5,-387.5"/>
<text text-anchor="middle" x="253.5" y="-375.5" font-family="Helvetica,sans-Serif" font-size="10.00">QuaternionT::invert</text>
</a>
</g>
</g>
<!-- Node1&#45;&gt;Node17 -->
<g id="edge16_Node000001_Node000017" class="edge">
<title>Node1&#45;&gt;Node17</title>
<g id="a_edge16_Node000001_Node000017"><a xlink:title=" ">
<path fill="none" stroke="#63b8ff" d="M141.22,-378C156.59,-378 172.81,-378 187.97,-378"/>
<polygon fill="#63b8ff" stroke="#63b8ff" points="188.27,-381.5 198.27,-378 188.27,-374.5 188.27,-381.5"/>
</a>
</g>
</g>
<!-- Node18 -->
<g id="Node000018" class="node">
<title>Node18</title>
<g id="a_Node000018"><a xlink:href="classAP__HAL_1_1BetterStream.html#a8534aa004599bb81ad60f3e762791032" target="_top" xlink:title=" ">
<polygon fill="white" stroke="#666666" points="316,-350 191,-350 191,-320 316,-320 316,-350"/>
<text text-anchor="start" x="199" y="-338" font-family="Helvetica,sans-Serif" font-size="10.00">AP_HAL::BetterStream</text>
<text text-anchor="middle" x="253.5" y="-327" font-family="Helvetica,sans-Serif" font-size="10.00">::printf</text>
</a>
</g>
</g>
<!-- Node1&#45;&gt;Node18 -->
<g id="edge18_Node000001_Node000018" class="edge">
<title>Node1&#45;&gt;Node18</title>
<g id="a_edge18_Node000001_Node000018"><a xlink:title=" ">
<path fill="none" stroke="#63b8ff" d="M134.81,-362.96C149.69,-359.42 165.66,-355.63 180.88,-352.01"/>
<polygon fill="#63b8ff" stroke="#63b8ff" points="181.84,-355.39 190.76,-349.67 180.22,-348.57 181.84,-355.39"/>
</a>
</g>
</g>
<!-- Node21 -->
<g id="Node000021" class="node">
<title>Node21</title>
<g id="a_Node000021"><a xlink:href="stdio_8h.html#a55f3d956bb2ba20b5059e9e25484a47f" target="_top" xlink:title=" ">
<polygon fill="white" stroke="#666666" points="275,-301.5 232,-301.5 232,-282.5 275,-282.5 275,-301.5"/>
<text text-anchor="middle" x="253.5" y="-289.5" font-family="Helvetica,sans-Serif" font-size="10.00">printf</text>
</a>
</g>
</g>
<!-- Node1&#45;&gt;Node21 -->
<g id="edge21_Node000001_Node000021" class="edge">
<title>Node1&#45;&gt;Node21</title>
<g id="a_edge21_Node000001_Node000021"><a xlink:title=" ">
<path fill="none" stroke="#63b8ff" d="M91.04,-362.87C111.46,-347.74 144.91,-324.8 177,-311 191.15,-304.91 207.66,-300.48 221.63,-297.44"/>
<polygon fill="#63b8ff" stroke="#63b8ff" points="222.64,-300.8 231.73,-295.37 221.24,-293.95 222.64,-300.8"/>
</a>
</g>
</g>
<!-- Node22 -->
<g id="Node000022" class="node">
<title>Node22</title>
<g id="a_Node000022"><a xlink:href="AP__Math_8h.html#a49ad7fa2fa2e3d8aa75e8e0ec3f83b99" target="_top" xlink:title=" ">
<polygon fill="white" stroke="#666666" points="280,-264.5 227,-264.5 227,-245.5 280,-245.5 280,-264.5"/>
<text text-anchor="middle" x="253.5" y="-252.5" font-family="Helvetica,sans-Serif" font-size="10.00">radians</text>
</a>
</g>
</g>
<!-- Node1&#45;&gt;Node22 -->
<g id="edge22_Node000001_Node000022" class="edge">
<title>Node1&#45;&gt;Node22</title>
<g id="a_edge22_Node000001_Node000022"><a xlink:title=" ">
<path fill="none" stroke="#63b8ff" d="M82.62,-362.71C100.09,-339.83 136.2,-296.95 177,-274 189.08,-267.2 203.61,-262.8 216.67,-259.97"/>
<polygon fill="#63b8ff" stroke="#63b8ff" points="217.61,-263.35 226.76,-258.02 216.28,-256.48 217.61,-263.35"/>
</a>
</g>
</g>
<!-- Node23 -->
<g id="Node000023" class="node">
<title>Node23</title>
<g id="a_Node000023"><a xlink:href="classQuaternionT.html#abd4e7382ed50cf778869f4bdf274eb23" target="_top" xlink:title=" ">
<polygon fill="white" stroke="#666666" points="313.5,-227 193.5,-227 193.5,-197 313.5,-197 313.5,-227"/>
<text text-anchor="start" x="201.5" y="-215" font-family="Helvetica,sans-Serif" font-size="10.00">QuaternionT::rotation</text>
<text text-anchor="middle" x="253.5" y="-204" font-family="Helvetica,sans-Serif" font-size="10.00">_matrix</text>
</a>
</g>
</g>
<!-- Node1&#45;&gt;Node23 -->
<g id="edge23_Node000001_Node000023" class="edge">
<title>Node1&#45;&gt;Node23</title>
<g id="a_edge23_Node000001_Node000023"><a xlink:title=" ">
<path fill="none" stroke="#63b8ff" d="M78.82,-362.85C93.47,-334.11 129.12,-271.48 177,-237 179.69,-235.06 182.54,-233.27 185.49,-231.61"/>
<polygon fill="#63b8ff" stroke="#63b8ff" points="187.26,-234.64 194.62,-227.02 184.11,-228.39 187.26,-234.64"/>
</a>
</g>
</g>
<!-- Node24 -->
<g id="Node000024" class="node">
<title>Node24</title>
<g id="a_Node000024"><a xlink:href="classSITL_1_1Vicon.html#abf2c0cc93971cb7df711f7d76d6f1a1d" target="_top" xlink:title=" ">
<polygon fill="white" stroke="#666666" points="322,-178.5 185,-178.5 185,-159.5 322,-159.5 322,-178.5"/>
<text text-anchor="middle" x="253.5" y="-166.5" font-family="Helvetica,sans-Serif" font-size="10.00">SITL::Vicon::should_send</text>
</a>
</g>
</g>
<!-- Node1&#45;&gt;Node24 -->
<g id="edge24_Node000001_Node000024" class="edge">
<title>Node1&#45;&gt;Node24</title>
<g id="a_edge24_Node000001_Node000024"><a xlink:title=" ">
<path fill="none" stroke="#63b8ff" d="M75.38,-362.94C85.52,-326.8 116.27,-234.67 177,-188 179.36,-186.19 181.88,-184.54 184.5,-183.06"/>
<polygon fill="#63b8ff" stroke="#63b8ff" points="186.29,-186.08 193.77,-178.57 183.25,-179.77 186.29,-186.08"/>
</a>
</g>
</g>
<!-- Node25 -->
<g id="Node000025" class="node">
<title>Node25</title>
<g id="a_Node000025"><a xlink:href="classQuaternionT.html#adf9b14124210a71c64efdc0f47076ee3" target="_top" xlink:title=" ">
<polygon fill="white" stroke="#666666" points="314.5,-141.5 192.5,-141.5 192.5,-122.5 314.5,-122.5 314.5,-141.5"/>
<text text-anchor="middle" x="253.5" y="-129.5" font-family="Helvetica,sans-Serif" font-size="10.00">QuaternionT::to_euler</text>
</a>
</g>
</g>
<!-- Node1&#45;&gt;Node25 -->
<g id="edge25_Node000001_Node000025" class="edge">
<title>Node1&#45;&gt;Node25</title>
<g id="a_edge25_Node000001_Node000025"><a xlink:title=" ">
<path fill="none" stroke="#63b8ff" d="M73.94,-362.83C81.36,-321.92 107.52,-208.48 177,-151 179.05,-149.3 181.23,-147.76 183.51,-146.34"/>
<polygon fill="#63b8ff" stroke="#63b8ff" points="185.48,-149.27 192.73,-141.54 182.24,-143.06 185.48,-149.27"/>
</a>
</g>
</g>
<!-- Node26 -->
<g id="Node000026" class="node">
<title>Node26</title>
<g id="a_Node000026"><a xlink:href="classMatrix3.html#a3137c75d93163dd806b72301ae69834f" target="_top" xlink:title=" ">
<polygon fill="white" stroke="#666666" points="299.5,-104.5 207.5,-104.5 207.5,-85.5 299.5,-85.5 299.5,-104.5"/>
<text text-anchor="middle" x="253.5" y="-92.5" font-family="Helvetica,sans-Serif" font-size="10.00">Matrix3::tofloat</text>
</a>
</g>
</g>
<!-- Node1&#45;&gt;Node26 -->
<g id="edge26_Node000001_Node000026" class="edge">
<title>Node1&#45;&gt;Node26</title>
<g id="a_edge26_Node000001_Node000026"><a xlink:title=" ">
<path fill="none" stroke="#63b8ff" d="M72.87,-362.75C77.77,-317.45 98.61,-182.56 177,-114 182.94,-108.81 190.09,-104.99 197.6,-102.2"/>
<polygon fill="#63b8ff" stroke="#63b8ff" points="198.74,-105.51 207.23,-99.19 196.64,-98.83 198.74,-105.51"/>
</a>
</g>
</g>
<!-- Node27 -->
<g id="Node000027" class="node">
<title>Node27</title>
<g id="a_Node000027"><a xlink:href="AP__Math_8cpp.html#ae77517d032abb1e1b525d2b43ff9a27d" target="_top" xlink:title=" ">
<polygon fill="white" stroke="#666666" points="281,-67.5 226,-67.5 226,-48.5 281,-48.5 281,-67.5"/>
<text text-anchor="middle" x="253.5" y="-55.5" font-family="Helvetica,sans-Serif" font-size="10.00">wrap_PI</text>
</a>
</g>
</g>
<!-- Node1&#45;&gt;Node27 -->
<g id="edge27_Node000001_Node000027" class="edge">
<title>Node1&#45;&gt;Node27</title>
<g id="a_edge27_Node000001_Node000027"><a xlink:title=" ">
<path fill="none" stroke="#63b8ff" d="M71.96,-362.71C74.33,-313.17 88.78,-155.64 177,-76 187.52,-66.5 202.14,-61.77 215.72,-59.49"/>
<polygon fill="#63b8ff" stroke="#63b8ff" points="216.34,-62.94 225.81,-58.19 215.45,-56 216.34,-62.94"/>
</a>
</g>
</g>
<!-- Node29 -->
<g id="Node000029" class="node">
<title>Node29</title>
<g id="a_Node000029"><a xlink:href="classSITL_1_1SerialDevice.html#ad6d128b5cc6ee8afcd7b1568d8e2fac3" target="_top" xlink:title=" ">
<polygon fill="white" stroke="#666666" points="309,-30 198,-30 198,0 309,0 309,-30"/>
<text text-anchor="start" x="206" y="-18" font-family="Helvetica,sans-Serif" font-size="10.00">SITL::SerialDevice</text>
<text text-anchor="middle" x="253.5" y="-7" font-family="Helvetica,sans-Serif" font-size="10.00">::write_to_autopilot</text>
</a>
</g>
</g>
<!-- Node1&#45;&gt;Node29 -->
<g id="edge29_Node000001_Node000029" class="edge">
<title>Node1&#45;&gt;Node29</title>
<g id="a_edge29_Node000001_Node000029"><a xlink:title=" ">
<path fill="none" stroke="#63b8ff" d="M71.55,-362.67C72.56,-309.85 83.14,-133.43 177,-39 180.45,-35.52 184.41,-32.55 188.66,-30.01"/>
<polygon fill="#63b8ff" stroke="#63b8ff" points="190.42,-33.04 197.73,-25.37 187.23,-26.81 190.42,-33.04"/>
</a>
</g>
</g>
<!-- Node3 -->
<g id="Node000003" class="node">
<title>Node3</title>
<g id="a_Node000003"><a xlink:href="classAP__HAL_1_1Scheduler.html#ab3175e2e6223ccfe82f957e41cc12b26" target="_top" xlink:title=" ">
<polygon fill="white" stroke="#666666" points="485.5,-803 371.5,-803 371.5,-773 485.5,-773 485.5,-803"/>
<text text-anchor="start" x="379.5" y="-791" font-family="Helvetica,sans-Serif" font-size="10.00">AP_HAL::Scheduler::</text>
<text text-anchor="middle" x="428.5" y="-780" font-family="Helvetica,sans-Serif" font-size="10.00">delay</text>
</a>
</g>
</g>
<!-- Node2&#45;&gt;Node3 -->
<g id="edge2_Node000002_Node000003" class="edge">
<title>Node2&#45;&gt;Node3</title>
<g id="a_edge2_Node000002_Node000003"><a xlink:title=" ">
<path fill="none" stroke="#63b8ff" d="M285.83,-747.87C307.77,-754.09 337.84,-762.6 364.63,-770.19"/>
<polygon fill="#63b8ff" stroke="#63b8ff" points="363.76,-773.58 374.33,-772.94 365.66,-766.85 363.76,-773.58"/>
</a>
</g>
</g>
<!-- Node2&#45;&gt;Node4 -->
<g id="edge3_Node000002_Node000004" class="edge">
<title>Node2&#45;&gt;Node4</title>
<g id="a_edge3_Node000002_Node000004"><a xlink:title=" ">
<path fill="none" stroke="#63b8ff" d="M285.83,-731.39C311.64,-725.13 348.69,-716.13 378.43,-708.91"/>
<polygon fill="#63b8ff" stroke="#63b8ff" points="379.31,-712.3 388.21,-706.54 377.66,-705.5 379.31,-712.3"/>
</a>
</g>
</g>
<!-- Node8 -->
<g id="Node000008" class="node">
<title>Node8</title>
<g id="a_Node000008"><a xlink:href="classAP__HAL_1_1Scheduler.html#ac5bbc114d0c65fd9e076f5db23b11bdb" target="_top" xlink:title=" ">
<polygon fill="white" stroke="#666666" points="485.5,-755 371.5,-755 371.5,-725 485.5,-725 485.5,-755"/>
<text text-anchor="start" x="379.5" y="-743" font-family="Helvetica,sans-Serif" font-size="10.00">AP_HAL::Scheduler::</text>
<text text-anchor="middle" x="428.5" y="-732" font-family="Helvetica,sans-Serif" font-size="10.00">stop_clock</text>
</a>
</g>
</g>
<!-- Node2&#45;&gt;Node8 -->
<g id="edge7_Node000002_Node000008" class="edge">
<title>Node2&#45;&gt;Node8</title>
<g id="a_edge7_Node000002_Node000008"><a xlink:title=" ">
<path fill="none" stroke="#63b8ff" d="M285.83,-739.18C306.8,-739.3 335.21,-739.47 361.07,-739.62"/>
<polygon fill="#63b8ff" stroke="#63b8ff" points="361.2,-743.12 371.22,-739.67 361.24,-736.12 361.2,-743.12"/>
</a>
</g>
</g>
<!-- Node5 -->
<g id="Node000005" class="node">
<title>Node5</title>
<g id="a_Node000005"><a xlink:href="hrt_8c.html#a152c3348a8e83f2dfe35b44cc2e30362" target="_top" xlink:title=" ">
<polygon fill="white" stroke="#666666" points="607,-706.5 527,-706.5 527,-687.5 607,-687.5 607,-706.5"/>
<text text-anchor="middle" x="567" y="-694.5" font-family="Helvetica,sans-Serif" font-size="10.00">hrt_micros64</text>
</a>
</g>
</g>
<!-- Node4&#45;&gt;Node5 -->
<g id="edge4_Node000004_Node000005" class="edge">
<title>Node4&#45;&gt;Node5</title>
<g id="a_edge4_Node000004_Node000005"><a xlink:title=" ">
<path fill="none" stroke="#63b8ff" d="M481.1,-697C492.67,-697 504.9,-697 516.38,-697"/>
<polygon fill="#63b8ff" stroke="#63b8ff" points="516.67,-700.5 526.67,-697 516.67,-693.5 516.67,-700.5"/>
</a>
</g>
</g>
<!-- Node6 -->
<g id="Node000006" class="node">
<title>Node6</title>
<g id="a_Node000006"><a xlink:href="hrt_8c.html#a5b4ffc7ff86bd5b893c4a98834e80200" target="_top" xlink:title=" ">
<polygon fill="white" stroke="#666666" points="726,-724.5 643,-724.5 643,-705.5 726,-705.5 726,-724.5"/>
<text text-anchor="middle" x="684.5" y="-712.5" font-family="Helvetica,sans-Serif" font-size="10.00">hrt_micros64I</text>
</a>
</g>
</g>
<!-- Node5&#45;&gt;Node6 -->
<g id="edge5_Node000005_Node000006" class="edge">
<title>Node5&#45;&gt;Node6</title>
<g id="a_edge5_Node000005_Node000006"><a xlink:title=" ">
<path fill="none" stroke="#63b8ff" d="M607.1,-703.09C615.38,-704.38 624.23,-705.76 632.87,-707.11"/>
<polygon fill="#63b8ff" stroke="#63b8ff" points="632.44,-710.58 642.86,-708.67 633.52,-703.67 632.44,-710.58"/>
</a>
</g>
</g>
<!-- Node7 -->
<g id="Node000007" class="node">
<title>Node7</title>
<g id="a_Node000007"><a xlink:href="hrt_8c.html#a723fef85be7bacb834af35445a891c18" target="_top" xlink:title=" ">
<polygon fill="white" stroke="#666666" points="715.5,-687.5 653.5,-687.5 653.5,-668.5 715.5,-668.5 715.5,-687.5"/>
<text text-anchor="middle" x="684.5" y="-675.5" font-family="Helvetica,sans-Serif" font-size="10.00">is_locked</text>
</a>
</g>
</g>
<!-- Node5&#45;&gt;Node7 -->
<g id="edge6_Node000005_Node000007" class="edge">
<title>Node5&#45;&gt;Node7</title>
<g id="a_edge6_Node000005_Node000007"><a xlink:title=" ">
<path fill="none" stroke="#63b8ff" d="M607.1,-690.57C618.74,-688.65 631.52,-686.55 643.23,-684.62"/>
<polygon fill="#63b8ff" stroke="#63b8ff" points="643.9,-688.06 653.2,-682.98 642.77,-681.15 643.9,-688.06"/>
</a>
</g>
</g>
<!-- Node12 -->
<g id="Node000012" class="node">
<title>Node12</title>
<g id="a_Node000012"><a xlink:href="AP__Math_8cpp.html#a3370ada2588e54722319d65e00d8545c" target="_top" xlink:title=" ">
<polygon fill="white" stroke="#666666" points="460,-590.5 397,-590.5 397,-571.5 460,-571.5 460,-590.5"/>
<text text-anchor="middle" x="428.5" y="-578.5" font-family="Helvetica,sans-Serif" font-size="10.00">safe_asin</text>
</a>
</g>
</g>
<!-- Node11&#45;&gt;Node12 -->
<g id="edge11_Node000011_Node000012" class="edge">
<title>Node11&#45;&gt;Node12</title>
<g id="a_edge11_Node000011_Node000012"><a xlink:title=" ">
<path fill="none" stroke="#63b8ff" d="M317.94,-581C340.77,-581 365.91,-581 386.34,-581"/>
<polygon fill="#63b8ff" stroke="#63b8ff" points="386.56,-584.5 396.56,-581 386.56,-577.5 386.56,-584.5"/>
</a>
</g>
</g>
<!-- Node19 -->
<g id="Node000019" class="node">
<title>Node19</title>
<g id="a_Node000019"><a xlink:href="classAP__HAL_1_1BetterStream.html#aa730be451d385d7ba03ee9677e6d91a2" target="_top" xlink:title=" ">
<polygon fill="white" stroke="#666666" points="491,-350 366,-350 366,-320 491,-320 491,-350"/>
<text text-anchor="start" x="374" y="-338" font-family="Helvetica,sans-Serif" font-size="10.00">AP_HAL::BetterStream</text>
<text text-anchor="middle" x="428.5" y="-327" font-family="Helvetica,sans-Serif" font-size="10.00">::vprintf</text>
</a>
</g>
</g>
<!-- Node18&#45;&gt;Node19 -->
<g id="edge19_Node000018_Node000019" class="edge">
<title>Node18&#45;&gt;Node19</title>
<g id="a_edge19_Node000018_Node000019"><a xlink:title=" ">
<path fill="none" stroke="#63b8ff" d="M316.47,-335C329.17,-335 342.64,-335 355.65,-335"/>
<polygon fill="#63b8ff" stroke="#63b8ff" points="355.96,-338.5 365.96,-335 355.96,-331.5 355.96,-338.5"/>
</a>
</g>
</g>
<!-- Node20 -->
<g id="Node000020" class="node">
<title>Node20</title>
<g id="a_Node000020"><a xlink:href="test__expandingstring__failure_8cpp.html#a98e0d5bb436a207f576379beaa786040" target="_top" xlink:title=" ">
<polygon fill="white" stroke="#666666" points="605.5,-344.5 528.5,-344.5 528.5,-325.5 605.5,-325.5 605.5,-344.5"/>
<text text-anchor="middle" x="567" y="-332.5" font-family="Helvetica,sans-Serif" font-size="10.00">print_vprintf</text>
</a>
</g>
</g>
<!-- Node19&#45;&gt;Node20 -->
<g id="edge20_Node000019_Node000020" class="edge">
<title>Node19&#45;&gt;Node20</title>
<g id="a_edge20_Node000019_Node000020"><a xlink:title=" ">
<path fill="none" stroke="#63b8ff" d="M491.36,-335C500.29,-335 509.36,-335 517.96,-335"/>
<polygon fill="#63b8ff" stroke="#63b8ff" points="518.18,-338.5 528.18,-335 518.18,-331.5 518.18,-338.5"/>
</a>
</g>
</g>
<!-- Node28 -->
<g id="Node000028" class="node">
<title>Node28</title>
<g id="a_Node000028"><a xlink:href="AP__Math_8cpp.html#a353dfb5c2fca0a8a40ccab3b811cfe64" target="_top" xlink:title=" ">
<polygon fill="white" stroke="#666666" points="459,-67.5 398,-67.5 398,-48.5 459,-48.5 459,-67.5"/>
<text text-anchor="middle" x="428.5" y="-55.5" font-family="Helvetica,sans-Serif" font-size="10.00">wrap_2PI</text>
</a>
</g>
</g>
<!-- Node27&#45;&gt;Node28 -->
<g id="edge28_Node000027_Node000028" class="edge">
<title>Node27&#45;&gt;Node28</title>
<g id="a_edge28_Node000027_Node000028"><a xlink:title=" ">
<path fill="none" stroke="#63b8ff" d="M281.15,-58C309.63,-58 355.09,-58 387.79,-58"/>
<polygon fill="#63b8ff" stroke="#63b8ff" points="387.92,-61.5 397.92,-58 387.92,-54.5 387.92,-61.5"/>
</a>
</g>
</g>
</g>
</svg>

<g id="navigator" transform="translate(0 0)" fill="#404254">
  <rect fill="#f2f5e9" fill-opacity="0.5" stroke="#606060" stroke-width=".5" x="0" y="0" width="60" height="60"/>
  <use id="zoomplus" xlink:href="#zoomPlus" x="17" y="9" onmousedown="handleZoom(evt,'in')"/>
  <use id="zoomminus" xlink:href="#zoomMin" x="42" y="9" onmousedown="handleZoom(evt,'out')"/>
  <use id="reset" xlink:href="#resetDef" x="30" y="36" onmousedown="handleReset()"/>
   <use id="arrowup" xlink:href="#arrowUp" x="0" y="0" onmousedown="handlePan(0,-1)"/>
  <use id="arrowright" xlink:href="#arrowRight" x="0" y="0" onmousedown="handlePan(1,0)"/>
  <use id="arrowdown" xlink:href="#arrowDown" x="0" y="0" onmousedown="handlePan(0,1)"/>
  <use id="arrowleft" xlink:href="#arrowLeft" x="0" y="0" onmousedown="handlePan(-1,0)"/>
</g>
<svg viewBox="0 0 15 15" width="100%" height="30px" preserveAspectRatio="xMaxYMin meet">
 <g id="arrow_out" transform="scale(0.3 0.3)">
  <a xlink:href="classSITL_1_1Vicon_ae890015fbef19bd017c5dc039fc50749_cgraph_org.svg" target="_base">
   <rect id="button" ry="5" rx="5" y="6" x="6" height="38" width="38"
        fill="#f2f5e9" fill-opacity="0.5" stroke="#606060" stroke-width="1.0"/>
   <path id="arrow"
     d="M 11.500037,31.436501 C 11.940474,20.09759 22.043105,11.32322 32.158766,21.979434 L 37.068811,17.246167 C 37.068811,17.246167 37.088388,32 37.088388,32 L 22.160133,31.978069 C 22.160133,31.978069 26.997745,27.140456 26.997745,27.140456 C 18.528582,18.264221 13.291696,25.230495 11.500037,31.436501 z"
     style="fill:#404040;"/>
  </a>
 </g>
</svg>

<style type='text/css'>
<![CDATA[
[data-mouse-over-selected='false'] { opacity: 0.7; }
[data-mouse-over-selected='true']  { opacity: 1.0; }
]]>
</style>
<script type="application/ecmascript"><![CDATA[
document.addEventListener('DOMContentLoaded', (event) => {
  highlightEdges();
  highlightAdjacentNodes();
});
]]></script>
</svg>
