<?xml version="1.0" encoding="UTF-8" standalone="no"?>
<!DOCTYPE svg PUBLIC "-//W3C//DTD SVG 1.1//EN"
 "http://www.w3.org/Graphics/SVG/1.1/DTD/svg11.dtd">
<!-- Generated by graphviz version 2.43.0 (0)
 -->
<!-- Title: AP_BattMonitor_Bebop::read Pages: 1 -->
<svg width="600pt" height="286pt"
 viewBox="0.00 0.00 600.00 285.50" xmlns="http://www.w3.org/2000/svg" xmlns:xlink="http://www.w3.org/1999/xlink">
<g id="graph0" class="graph" transform="scale(1 1) rotate(0) translate(4 281.5)">
<title>AP_BattMonitor_Bebop::read</title>
<!-- Node1 -->
<g id="Node000001" class="node">
<title>Node1</title>
<g id="a_Node000001"><a xlink:title=" ">
<polygon fill="#999999" stroke="#666666" points="128,-157.5 0,-157.5 0,-127.5 128,-127.5 128,-157.5"/>
<text text-anchor="start" x="8" y="-145.5" font-family="Helvetica,sans-Serif" font-size="10.00">AP_BattMonitor_Bebop</text>
<text text-anchor="middle" x="64" y="-134.5" font-family="Helvetica,sans-Serif" font-size="10.00">::read</text>
</a>
</g>
</g>
<!-- Node2 -->
<g id="Node000002" class="node">
<title>Node2</title>
<g id="a_Node000002"><a xlink:href="classAP__BattMonitor__Bebop.html#acb45406116c4ed86563da29ca2e8e809" target="_top" xlink:title=" ">
<polygon fill="white" stroke="#666666" points="335,-277.5 164,-277.5 164,-247.5 335,-247.5 335,-277.5"/>
<text text-anchor="start" x="172" y="-265.5" font-family="Helvetica,sans-Serif" font-size="10.00">AP_BattMonitor_Bebop</text>
<text text-anchor="middle" x="249.5" y="-254.5" font-family="Helvetica,sans-Serif" font-size="10.00">::_compute_battery_percentage</text>
</a>
</g>
</g>
<!-- Node1&#45;&gt;Node2 -->
<g id="edge1_Node000001_Node000002" class="edge">
<title>Node1&#45;&gt;Node2</title>
<g id="a_edge1_Node000001_Node000002"><a xlink:title=" ">
<path fill="none" stroke="#63b8ff" d="M76.41,-157.52C93.27,-178.68 126.88,-217.08 164,-238.5 167.06,-240.27 170.27,-241.91 173.56,-243.44"/>
<polygon fill="#63b8ff" stroke="#63b8ff" points="172.46,-246.78 183.03,-247.45 175.19,-240.33 172.46,-246.78"/>
</a>
</g>
</g>
<!-- Node3 -->
<g id="Node000003" class="node">
<title>Node3</title>
<g id="a_Node000003"><a xlink:href="classAP__BattMonitor__Bebop.html#a4c8681db11d7dfa0bc6ee6a1e7b6d477" target="_top" xlink:title=" ">
<polygon fill="white" stroke="#666666" points="322,-229.5 177,-229.5 177,-199.5 322,-199.5 322,-229.5"/>
<text text-anchor="start" x="185" y="-217.5" font-family="Helvetica,sans-Serif" font-size="10.00">AP_BattMonitor_Bebop</text>
<text text-anchor="middle" x="249.5" y="-206.5" font-family="Helvetica,sans-Serif" font-size="10.00">::_compute_compensation</text>
</a>
</g>
</g>
<!-- Node1&#45;&gt;Node3 -->
<g id="edge2_Node000001_Node000003" class="edge">
<title>Node1&#45;&gt;Node3</title>
<g id="a_edge2_Node000001_Node000003"><a xlink:title=" ">
<path fill="none" stroke="#63b8ff" d="M93.01,-157.71C112.52,-167.9 139.37,-181.11 164,-190.5 169.39,-192.55 175.02,-194.52 180.72,-196.39"/>
<polygon fill="#63b8ff" stroke="#63b8ff" points="179.74,-199.75 190.33,-199.43 181.85,-193.08 179.74,-199.75"/>
</a>
</g>
</g>
<!-- Node4 -->
<g id="Node000004" class="node">
<title>Node4</title>
<g id="a_Node000004"><a xlink:href="classAP__BattMonitor__Bebop.html#a4308abf88b84b0a0894109a0685b9670" target="_top" xlink:title=" ">
<polygon fill="white" stroke="#666666" points="313.5,-181.5 185.5,-181.5 185.5,-151.5 313.5,-151.5 313.5,-181.5"/>
<text text-anchor="start" x="193.5" y="-169.5" font-family="Helvetica,sans-Serif" font-size="10.00">AP_BattMonitor_Bebop</text>
<text text-anchor="middle" x="249.5" y="-158.5" font-family="Helvetica,sans-Serif" font-size="10.00">::_filter_voltage</text>
</a>
</g>
</g>
<!-- Node1&#45;&gt;Node4 -->
<g id="edge3_Node000001_Node000004" class="edge">
<title>Node1&#45;&gt;Node4</title>
<g id="a_edge3_Node000001_Node000004"><a xlink:title=" ">
<path fill="none" stroke="#63b8ff" d="M128.15,-150.76C143.29,-152.74 159.58,-154.87 175.14,-156.9"/>
<polygon fill="#63b8ff" stroke="#63b8ff" points="174.86,-160.4 185.23,-158.23 175.77,-153.46 174.86,-160.4"/>
</a>
</g>
</g>
<!-- Node5 -->
<g id="Node000005" class="node">
<title>Node5</title>
<g id="a_Node000005"><a xlink:href="classLinux_1_1RCOutput__Bebop.html#a9871ddefe7e6ab18a02f6545de8b99ec" target="_top" xlink:title=" ">
<polygon fill="white" stroke="#666666" points="315,-133.5 184,-133.5 184,-103.5 315,-103.5 315,-133.5"/>
<text text-anchor="start" x="192" y="-121.5" font-family="Helvetica,sans-Serif" font-size="10.00">Linux::RCOutput_Bebop</text>
<text text-anchor="middle" x="249.5" y="-110.5" font-family="Helvetica,sans-Serif" font-size="10.00">::from</text>
</a>
</g>
</g>
<!-- Node1&#45;&gt;Node5 -->
<g id="edge4_Node000001_Node000005" class="edge">
<title>Node1&#45;&gt;Node5</title>
<g id="a_edge4_Node000001_Node000005"><a xlink:title=" ">
<path fill="none" stroke="#63b8ff" d="M128.15,-134.24C142.81,-132.32 158.55,-130.27 173.65,-128.29"/>
<polygon fill="#63b8ff" stroke="#63b8ff" points="174.52,-131.71 183.99,-126.94 173.62,-124.76 174.52,-131.71"/>
</a>
</g>
</g>
<!-- Node6 -->
<g id="Node000006" class="node">
<title>Node6</title>
<g id="a_Node000006"><a xlink:href="classLinux_1_1RCOutput__Disco.html#a8f1957ddb71ea768f83b5007854ab652" target="_top" xlink:title=" ">
<polygon fill="white" stroke="#666666" points="313.5,-85.5 185.5,-85.5 185.5,-55.5 313.5,-55.5 313.5,-85.5"/>
<text text-anchor="start" x="193.5" y="-73.5" font-family="Helvetica,sans-Serif" font-size="10.00">Linux::RCOutput_Disco</text>
<text text-anchor="middle" x="249.5" y="-62.5" font-family="Helvetica,sans-Serif" font-size="10.00">::from</text>
</a>
</g>
</g>
<!-- Node1&#45;&gt;Node6 -->
<g id="edge5_Node000001_Node000006" class="edge">
<title>Node1&#45;&gt;Node6</title>
<g id="a_edge5_Node000001_Node000006"><a xlink:title=" ">
<path fill="none" stroke="#63b8ff" d="M93.01,-127.29C112.52,-117.1 139.37,-103.89 164,-94.5 169.39,-92.45 175.02,-90.48 180.72,-88.61"/>
<polygon fill="#63b8ff" stroke="#63b8ff" points="181.85,-91.92 190.33,-85.57 179.74,-85.25 181.85,-91.92"/>
</a>
</g>
</g>
<!-- Node7 -->
<g id="Node000007" class="node">
<title>Node7</title>
<g id="a_Node000007"><a xlink:href="namespaceAP__HAL.html#a8293355e35887733b1fd151aef08a787" target="_top" xlink:title=" ">
<polygon fill="white" stroke="#666666" points="296,-37 203,-37 203,-18 296,-18 296,-37"/>
<text text-anchor="middle" x="249.5" y="-25" font-family="Helvetica,sans-Serif" font-size="10.00">AP_HAL::micros</text>
</a>
</g>
</g>
<!-- Node1&#45;&gt;Node7 -->
<g id="edge6_Node000001_Node000007" class="edge">
<title>Node1&#45;&gt;Node7</title>
<g id="a_edge6_Node000001_Node000007"><a xlink:title=" ">
<path fill="none" stroke="#63b8ff" d="M76.25,-127.2C92.92,-105.69 126.3,-66.88 164,-46.5 172.83,-41.73 182.8,-38.15 192.71,-35.47"/>
<polygon fill="#63b8ff" stroke="#63b8ff" points="193.67,-38.84 202.57,-33.08 192.02,-32.04 193.67,-38.84"/>
</a>
</g>
</g>
<!-- Node8 -->
<g id="Node000008" class="node">
<title>Node8</title>
<g id="a_Node000008"><a xlink:href="hrt_8c.html#aaec580bcdf1351b82110305f0f6dd437" target="_top" xlink:title=" ">
<polygon fill="white" stroke="#666666" points="451,-37 371,-37 371,-18 451,-18 451,-37"/>
<text text-anchor="middle" x="411" y="-25" font-family="Helvetica,sans-Serif" font-size="10.00">hrt_micros32</text>
</a>
</g>
</g>
<!-- Node7&#45;&gt;Node8 -->
<g id="edge7_Node000007_Node000008" class="edge">
<title>Node7&#45;&gt;Node8</title>
<g id="a_edge7_Node000007_Node000008"><a xlink:title=" ">
<path fill="none" stroke="#63b8ff" d="M296.21,-27.5C316.37,-27.5 340.1,-27.5 360.66,-27.5"/>
<polygon fill="#63b8ff" stroke="#63b8ff" points="360.78,-31 370.78,-27.5 360.78,-24 360.78,-31"/>
</a>
</g>
</g>
<!-- Node9 -->
<g id="Node000009" class="node">
<title>Node9</title>
<g id="a_Node000009"><a xlink:href="hrt_8c.html#a8e056f016b4bb5d52754d890a539c433" target="_top" xlink:title=" ">
<polygon fill="white" stroke="#666666" points="592,-56 487,-56 487,-37 592,-37 592,-56"/>
<text text-anchor="middle" x="539.5" y="-44" font-family="Helvetica,sans-Serif" font-size="10.00">get_systime_us32</text>
</a>
</g>
</g>
<!-- Node8&#45;&gt;Node9 -->
<g id="edge8_Node000008_Node000009" class="edge">
<title>Node8&#45;&gt;Node9</title>
<g id="a_edge8_Node000008_Node000009"><a xlink:title=" ">
<path fill="none" stroke="#63b8ff" d="M451.33,-33.41C459.36,-34.61 467.99,-35.91 476.59,-37.2"/>
<polygon fill="#63b8ff" stroke="#63b8ff" points="476.22,-40.68 486.63,-38.71 477.26,-33.76 476.22,-40.68"/>
</a>
</g>
</g>
<!-- Node10 -->
<g id="Node000010" class="node">
<title>Node10</title>
<g id="a_Node000010"><a xlink:href="hrt_8c.html#a723fef85be7bacb834af35445a891c18" target="_top" xlink:title=" ">
<polygon fill="white" stroke="#666666" points="570.5,-19 508.5,-19 508.5,0 570.5,0 570.5,-19"/>
<text text-anchor="middle" x="539.5" y="-7" font-family="Helvetica,sans-Serif" font-size="10.00">is_locked</text>
</a>
</g>
</g>
<!-- Node8&#45;&gt;Node10 -->
<g id="edge9_Node000008_Node000010" class="edge">
<title>Node8&#45;&gt;Node10</title>
<g id="a_edge9_Node000008_Node000010"><a xlink:title=" ">
<path fill="none" stroke="#63b8ff" d="M451.33,-21.9C466.3,-19.77 483.36,-17.35 498.4,-15.21"/>
<polygon fill="#63b8ff" stroke="#63b8ff" points="499.03,-18.65 508.44,-13.78 498.05,-11.72 499.03,-18.65"/>
</a>
</g>
</g>
</g>
</svg>
