<?xml version="1.0" encoding="UTF-8" standalone="no"?>
<!DOCTYPE svg PUBLIC "-//W3C//DTD SVG 1.1//EN"
 "http://www.w3.org/Graphics/SVG/1.1/DTD/svg11.dtd">
<!-- Generated by graphviz version 2.43.0 (0)
 -->
<!-- Title: AP_GPS_ERB Pages: 1 -->
<!--zoomable 786 -->

<svg id="main" version="1.1" xmlns="http://www.w3.org/2000/svg" xmlns:xlink="http://www.w3.org/1999/xlink" xml:space="preserve" onload="init(evt)">
<style type="text/css"><![CDATA[
.node, .edge {opacity: 0.7;}
.node.selected, .edge.selected {opacity: 1;}
.edge:hover path { stroke: red; }
.edge:hover polygon { stroke: red; fill: red; }
]]></style>

<defs>
  <circle id="rim" cx="0" cy="0" r="7"/>
  <circle id="rim2" cx="0" cy="0" r="3.5"/>
  <g id="zoomPlus">
    <use xlink:href="#rim" fill="#404040"><set attributeName="fill" to="#808080" begin="zoomplus.mouseover" end="zoomplus.mouseout"/></use>
    <path d="M-4,0h8M0,-4v8" fill="none" stroke="white" stroke-width="1.5" pointer-events="none"/>
  </g>
  <g id="zoomMin">
    <use xlink:href="#rim" fill="#404040"><set attributeName="fill" to="#808080" begin="zoomminus.mouseover" end="zoomminus.mouseout"/></use>
    <path d="M-4,0h8" fill="none" stroke="white" stroke-width="1.5" pointer-events="none"/>
  </g>
  <g id="arrowUp" transform="translate(30 24)">
    <use xlink:href="#rim"/>
    <path pointer-events="none" fill="none" stroke="white" stroke-width="1.5" d="M0,-3.0v7 M-2.5,-0.5L0,-3.0L2.5,-0.5"/>
  </g>
  <g id="arrowRight" transform="rotate(90) translate(36 -43)">
    <use xlink:href="#rim"/>
    <path pointer-events="none" fill="none" stroke="white" stroke-width="1.5" d="M0,-3.0v7 M-2.5,-0.5L0,-3.0L2.5,-0.5"/>
  </g>
  <g id="arrowDown" transform="rotate(180) translate(-30 -48)">
    <use xlink:href="#rim"/>
    <path pointer-events="none" fill="none" stroke="white" stroke-width="1.5" d="M0,-3.0v7 M-2.5,-0.5L0,-3.0L2.5,-0.5"/>
  </g>
  <g id="arrowLeft" transform="rotate(270) translate(-36 17)">
    <use xlink:href="#rim"/>
    <path pointer-events="none" fill="none" stroke="white" stroke-width="1.5" d="M0,-3.0v7 M-2.5,-0.5L0,-3.0L2.5,-0.5"/>
  </g>
  <g id="resetDef">
    <use xlink:href="#rim2" fill="#404040"><set attributeName="fill" to="#808080" begin="reset.mouseover" end="reset.mouseout"/></use>
  </g>
</defs>
<script type="application/ecmascript">
var viewWidth = 825;
var viewHeight = 786;
var sectionId = 'dynsection-1';
</script>
<script type="application/ecmascript" xlink:href="svg.min.js"/>
<svg id="graph" class="graph">
<g id="viewport">
<title>AP_GPS_ERB</title>
<!-- Node1 -->
<g id="Node000001" class="node">
<title>Node1</title>
<g id="a_Node000001"><a xlink:title=" ">
<polygon fill="#999999" stroke="#666666" points="817,-220 738,-220 738,-201 817,-201 817,-220"/>
<text text-anchor="middle" x="777.5" y="-208" font-family="Helvetica,sans-Serif" font-size="10.00">AP_GPS_ERB</text>
</a>
</g>
</g>
<!-- Node2 -->
<g id="Node000002" class="node">
<title>Node2</title>
<g id="a_Node000002"><a xlink:href="classAP__GPS__Backend.html" target="_top" xlink:title=" ">
<polygon fill="white" stroke="#666666" points="617,-300 516,-300 516,-281 617,-281 617,-300"/>
<text text-anchor="middle" x="566.5" y="-288" font-family="Helvetica,sans-Serif" font-size="10.00">AP_GPS_Backend</text>
</a>
</g>
</g>
<!-- Node2&#45;&gt;Node1 -->
<g id="edge1_Node000001_Node000002" class="edge">
<title>Node2&#45;&gt;Node1</title>
<g id="a_edge1_Node000001_Node000002"><a xlink:title=" ">
<path fill="none" stroke="#63b8ff" d="M602.28,-277.19C644.42,-261.06 714.37,-234.28 751.53,-220.06"/>
<polygon fill="#63b8ff" stroke="#63b8ff" points="600.8,-274.01 592.71,-280.85 603.3,-280.54 600.8,-274.01"/>
</a>
</g>
</g>
<!-- Node5 -->
<g id="Node000005" class="node">
<title>Node5</title>
<g id="a_Node000005"><a xlink:href="classAP__GPS.html" target="_top" xlink:title=" ">
<polygon fill="white" stroke="#666666" points="804.5,-430 750.5,-430 750.5,-411 804.5,-411 804.5,-430"/>
<text text-anchor="middle" x="777.5" y="-418" font-family="Helvetica,sans-Serif" font-size="10.00">AP_GPS</text>
</a>
</g>
</g>
<!-- Node2&#45;&gt;Node5 -->
<g id="edge16_Node000005_Node000002" class="edge">
<title>Node2&#45;&gt;Node5</title>
<g id="a_edge16_Node000005_Node000002"><a xlink:title=" ">
<path fill="none" stroke="#9a32cd" stroke-dasharray="5,2" d="M608.13,-278.71C641.02,-271.7 687.12,-267.88 720,-289.5 762.63,-317.54 773.24,-385.28 775.75,-410.67"/>
<polygon fill="#9a32cd" stroke="#9a32cd" points="607.33,-275.3 598.37,-280.96 608.91,-282.12 607.33,-275.3"/>
</a>
</g>
<text text-anchor="middle" x="688" y="-292.5" font-family="Helvetica,sans-Serif" font-size="10.00" fill="grey"> drivers</text>
</g>
<!-- Node3 -->
<g id="Node000003" class="node">
<title>Node3</title>
<g id="a_Node000003"><a xlink:href="classAP__HAL_1_1UARTDriver.html" target="_top" xlink:title=" ">
<polygon fill="white" stroke="#666666" points="326.5,-417 210.5,-417 210.5,-398 326.5,-398 326.5,-417"/>
<text text-anchor="middle" x="268.5" y="-405" font-family="Helvetica,sans-Serif" font-size="10.00">AP_HAL::UARTDriver</text>
</a>
</g>
</g>
<!-- Node3&#45;&gt;Node2 -->
<g id="edge2_Node000002_Node000003" class="edge">
<title>Node3&#45;&gt;Node2</title>
<g id="a_edge2_Node000002_Node000003"><a xlink:title=" ">
<path fill="none" stroke="#9a32cd" stroke-dasharray="5,2" d="M315.76,-395.05C359.46,-382.03 425.77,-358.94 477,-326.5 486.3,-320.61 485.4,-314.87 495,-309.5 501.86,-305.66 509.53,-302.57 517.22,-300.09"/>
<polygon fill="#9a32cd" stroke="#9a32cd" points="314.59,-391.74 305.97,-397.91 316.56,-398.46 314.59,-391.74"/>
</a>
</g>
<text text-anchor="middle" x="414" y="-385.5" font-family="Helvetica,sans-Serif" font-size="10.00" fill="grey"> port</text>
</g>
<!-- Node3&#45;&gt;Node5 -->
<g id="edge17_Node000005_Node000003" class="edge">
<title>Node3&#45;&gt;Node5</title>
<g id="a_edge17_Node000005_Node000003"><a xlink:title=" ">
<path fill="none" stroke="#9a32cd" stroke-dasharray="5,2" d="M336.96,-409.23C450.34,-412.14 674.17,-417.88 750.38,-419.83"/>
<polygon fill="#9a32cd" stroke="#9a32cd" points="336.76,-405.72 326.67,-408.97 336.58,-412.72 336.76,-405.72"/>
</a>
</g>
<text text-anchor="middle" x="566.5" y="-419.5" font-family="Helvetica,sans-Serif" font-size="10.00" fill="grey"> _port</text>
</g>
<!-- Node4 -->
<g id="Node000004" class="node">
<title>Node4</title>
<g id="a_Node000004"><a xlink:href="classAP__HAL_1_1BetterStream.html" target="_top" xlink:title=" ">
<polygon fill="white" stroke="#666666" points="125,-417 0,-417 0,-398 125,-398 125,-417"/>
<text text-anchor="middle" x="62.5" y="-405" font-family="Helvetica,sans-Serif" font-size="10.00">AP_HAL::BetterStream</text>
</a>
</g>
</g>
<!-- Node4&#45;&gt;Node3 -->
<g id="edge3_Node000003_Node000004" class="edge">
<title>Node4&#45;&gt;Node3</title>
<g id="a_edge3_Node000003_Node000004"><a xlink:title=" ">
<path fill="none" stroke="#63b8ff" d="M135.28,-407.5C159.93,-407.5 187.16,-407.5 210.47,-407.5"/>
<polygon fill="#63b8ff" stroke="#63b8ff" points="135.26,-404 125.26,-407.5 135.26,-411 135.26,-404"/>
</a>
</g>
</g>
<!-- Node5&#45;&gt;Node2 -->
<g id="edge4_Node000002_Node000005" class="edge">
<title>Node5&#45;&gt;Node2</title>
<g id="a_edge4_Node000002_Node000005"><a xlink:title=" ">
<path fill="none" stroke="#9a32cd" stroke-dasharray="5,2" d="M770.51,-400.99C762.63,-378.69 746.56,-342.79 720,-323.5 703.78,-311.72 655.35,-302.53 617.36,-296.87"/>
<polygon fill="#9a32cd" stroke="#9a32cd" points="767.27,-402.32 773.74,-410.71 773.91,-400.12 767.27,-402.32"/>
</a>
</g>
<text text-anchor="middle" x="688" y="-326.5" font-family="Helvetica,sans-Serif" font-size="10.00" fill="grey"> gps</text>
</g>
<!-- Node5&#45;&gt;Node5 -->
<g id="edge11_Node000005_Node000005" class="edge">
<title>Node5&#45;&gt;Node5</title>
<g id="a_edge11_Node000005_Node000005"><a xlink:title=" ">
<path fill="none" stroke="#9a32cd" stroke-dasharray="5,2" d="M761.29,-439.91C762.57,-444.56 767.97,-448 777.5,-448 793.14,-448 797.66,-438.73 791.06,-430.08"/>
<polygon fill="#9a32cd" stroke="#9a32cd" points="764.72,-440.65 763.94,-430.08 757.96,-438.83 764.72,-440.65"/>
</a>
</g>
<text text-anchor="middle" x="777.5" y="-451" font-family="Helvetica,sans-Serif" font-size="10.00" fill="grey"> _singleton</text>
</g>
<!-- Node6 -->
<g id="Node000006" class="node">
<title>Node6</title>
<g id="a_Node000006"><a xlink:href="structAP__Param_1_1GroupInfo.html" target="_top" xlink:title=" ">
<polygon fill="white" stroke="#666666" points="328,-515 209,-515 209,-496 328,-496 328,-515"/>
<text text-anchor="middle" x="268.5" y="-503" font-family="Helvetica,sans-Serif" font-size="10.00">AP_Param::GroupInfo</text>
</a>
</g>
</g>
<!-- Node6&#45;&gt;Node5 -->
<g id="edge5_Node000005_Node000006" class="edge">
<title>Node6&#45;&gt;Node5</title>
<g id="a_edge5_Node000005_Node000006"><a xlink:title=" ">
<path fill="none" stroke="#9a32cd" stroke-dasharray="5,2" d="M338.34,-503.4C412.6,-500.44 534.18,-493.62 638,-478.5 674.92,-473.12 685.87,-475.58 720,-460.5 737.37,-452.83 754.82,-439.39 765.64,-430.22"/>
<polygon fill="#9a32cd" stroke="#9a32cd" points="338.04,-499.9 328.18,-503.79 338.31,-506.9 338.04,-499.9"/>
</a>
</g>
<text text-anchor="middle" x="566.5" y="-496.5" font-family="Helvetica,sans-Serif" font-size="10.00" fill="grey"> var_info</text>
</g>
<!-- Node6&#45;&gt;Node6 -->
<g id="edge6_Node000006_Node000006" class="edge">
<title>Node6&#45;&gt;Node6</title>
<g id="a_edge6_Node000006_Node000006"><a xlink:title=" ">
<path fill="none" stroke="#9a32cd" stroke-dasharray="5,2" d="M249.24,-524.55C250.53,-529.38 256.95,-533 268.5,-533 286.98,-533 292.33,-523.73 284.53,-515.08"/>
<polygon fill="#9a32cd" stroke="#9a32cd" points="252.56,-525.68 252.47,-515.08 245.93,-523.42 252.56,-525.68"/>
</a>
</g>
<text text-anchor="middle" x="268.5" y="-547" font-family="Helvetica,sans-Serif" font-size="10.00" fill="grey"> group_info</text>
<text text-anchor="middle" x="268.5" y="-536" font-family="Helvetica,sans-Serif" font-size="10.00" fill="grey">group_info_ptr</text>
</g>
<!-- Node9 -->
<g id="Node000009" class="node">
<title>Node9</title>
<g id="a_Node000009"><a xlink:href="classMovingBase.html" target="_top" xlink:title=" ">
<polygon fill="white" stroke="#666666" points="605,-554 528,-554 528,-535 605,-535 605,-554"/>
<text text-anchor="middle" x="566.5" y="-542" font-family="Helvetica,sans-Serif" font-size="10.00">MovingBase</text>
</a>
</g>
</g>
<!-- Node6&#45;&gt;Node9 -->
<g id="edge10_Node000009_Node000006" class="edge">
<title>Node6&#45;&gt;Node9</title>
<g id="a_edge10_Node000009_Node000006"><a xlink:title=" ">
<path fill="none" stroke="#9a32cd" stroke-dasharray="5,2" d="M332.79,-516.72C338.93,-517.7 345.08,-518.65 351,-519.5 412.79,-528.4 484.94,-536.3 527.83,-540.73"/>
<polygon fill="#9a32cd" stroke="#9a32cd" points="332.92,-513.19 322.48,-515.03 331.78,-520.1 332.92,-513.19"/>
</a>
</g>
<text text-anchor="middle" x="414" y="-537.5" font-family="Helvetica,sans-Serif" font-size="10.00" fill="grey"> var_info</text>
</g>
<!-- Node7 -->
<g id="Node000007" class="node">
<title>Node7</title>
<g id="a_Node000007"><a xlink:href="classAP__Enum.html" target="_top" xlink:title=" ">
<polygon fill="white" stroke="#666666" points="638,-469 495,-469 495,-450 638,-450 638,-469"/>
<text text-anchor="middle" x="566.5" y="-457" font-family="Helvetica,sans-Serif" font-size="10.00">AP_Enum&lt; SBAS_Mode &gt;</text>
</a>
</g>
</g>
<!-- Node7&#45;&gt;Node5 -->
<g id="edge7_Node000005_Node000007" class="edge">
<title>Node7&#45;&gt;Node5</title>
<g id="a_edge7_Node000005_Node000007"><a xlink:title=" ">
<path fill="none" stroke="#9a32cd" stroke-dasharray="5,2" d="M643.02,-448.35C667.64,-444.39 695.05,-439.63 720,-434.5 730,-432.45 740.9,-429.83 750.44,-427.42"/>
<polygon fill="#9a32cd" stroke="#9a32cd" points="642.34,-444.92 633.02,-449.94 643.44,-451.83 642.34,-444.92"/>
</a>
</g>
<text text-anchor="middle" x="688" y="-448.5" font-family="Helvetica,sans-Serif" font-size="10.00" fill="grey"> _sbas_mode</text>
</g>
<!-- Node8 -->
<g id="Node000008" class="node">
<title>Node8</title>
<g id="a_Node000008"><a xlink:title=" ">
<polygon fill="white" stroke="#666666" points="295,-469 242,-469 242,-450 295,-450 295,-469"/>
<text text-anchor="middle" x="268.5" y="-457" font-family="Helvetica,sans-Serif" font-size="10.00">AP_Int8</text>
</a>
</g>
</g>
<!-- Node8&#45;&gt;Node7 -->
<g id="edge8_Node000007_Node000008" class="edge">
<title>Node8&#45;&gt;Node7</title>
<g id="a_edge8_Node000007_Node000008"><a xlink:title=" ">
<path fill="none" stroke="#63b8ff" d="M305.51,-459.5C352.31,-459.5 435.11,-459.5 494.71,-459.5"/>
<polygon fill="#63b8ff" stroke="#63b8ff" points="305.25,-456 295.25,-459.5 305.25,-463 305.25,-456"/>
</a>
</g>
</g>
<!-- Node9&#45;&gt;Node5 -->
<g id="edge9_Node000005_Node000009" class="edge">
<title>Node9&#45;&gt;Node5</title>
<g id="a_edge9_Node000005_Node000009"><a xlink:title=" ">
<path fill="none" stroke="#9a32cd" stroke-dasharray="5,2" d="M615.1,-546.94C647.35,-546.28 689.48,-540.71 720,-519.5 752.01,-497.25 768.21,-450.62 773.98,-430.31"/>
<polygon fill="#9a32cd" stroke="#9a32cd" points="614.98,-543.44 605,-546.99 615.02,-550.44 614.98,-543.44"/>
</a>
</g>
<text text-anchor="middle" x="688" y="-545.5" font-family="Helvetica,sans-Serif" font-size="10.00" fill="grey"> mb_params</text>
</g>
<!-- Node10 -->
<g id="Node000010" class="node">
<title>Node10</title>
<g id="a_Node000010"><a xlink:href="structAP__GPS_1_1GPS__timing.html" target="_top" xlink:title=" ">
<polygon fill="white" stroke="#666666" points="624.5,-337 508.5,-337 508.5,-318 624.5,-318 624.5,-337"/>
<text text-anchor="middle" x="566.5" y="-325" font-family="Helvetica,sans-Serif" font-size="10.00">AP_GPS::GPS_timing</text>
</a>
</g>
</g>
<!-- Node10&#45;&gt;Node5 -->
<g id="edge12_Node000005_Node000010" class="edge">
<title>Node10&#45;&gt;Node5</title>
<g id="a_edge12_Node000005_Node000010"><a xlink:title=" ">
<path fill="none" stroke="#9a32cd" stroke-dasharray="5,2" d="M634.81,-332.6C662.57,-336.93 694.21,-344.9 720,-359.5 742.61,-372.3 761.36,-397.26 770.5,-410.95"/>
<polygon fill="#9a32cd" stroke="#9a32cd" points="635.17,-329.11 624.77,-331.16 634.17,-336.04 635.17,-329.11"/>
</a>
</g>
<text text-anchor="middle" x="688" y="-362.5" font-family="Helvetica,sans-Serif" font-size="10.00" fill="grey"> timing</text>
</g>
<!-- Node11 -->
<g id="Node000011" class="node">
<title>Node11</title>
<g id="a_Node000011"><a xlink:href="structAP__GPS_1_1GPS__State.html" target="_top" xlink:title=" ">
<polygon fill="white" stroke="#666666" points="323.5,-330 213.5,-330 213.5,-311 323.5,-311 323.5,-330"/>
<text text-anchor="middle" x="268.5" y="-318" font-family="Helvetica,sans-Serif" font-size="10.00">AP_GPS::GPS_State</text>
</a>
</g>
</g>
<!-- Node11&#45;&gt;Node2 -->
<g id="edge27_Node000002_Node000011" class="edge">
<title>Node11&#45;&gt;Node2</title>
<g id="a_edge27_Node000002_Node000011"><a xlink:title=" ">
<path fill="none" stroke="#9a32cd" stroke-dasharray="5,2" d="M334.07,-313.96C388.78,-308.41 466.06,-300.58 515.98,-295.52"/>
<polygon fill="#9a32cd" stroke="#9a32cd" points="333.39,-310.51 323.79,-315 334.09,-317.47 333.39,-310.51"/>
</a>
</g>
<text text-anchor="middle" x="414" y="-314.5" font-family="Helvetica,sans-Serif" font-size="10.00" fill="grey"> state</text>
</g>
<!-- Node11&#45;&gt;Node5 -->
<g id="edge13_Node000005_Node000011" class="edge">
<title>Node11&#45;&gt;Node5</title>
<g id="a_edge13_Node000005_Node000011"><a xlink:title=" ">
<path fill="none" stroke="#9a32cd" stroke-dasharray="5,2" d="M328.06,-332.05C438.21,-353.78 672.19,-399.93 750.42,-415.36"/>
<polygon fill="#9a32cd" stroke="#9a32cd" points="328.6,-328.59 318.11,-330.09 327.25,-335.46 328.6,-328.59"/>
</a>
</g>
<text text-anchor="middle" x="566.5" y="-395.5" font-family="Helvetica,sans-Serif" font-size="10.00" fill="grey"> state</text>
</g>
<!-- Node12 -->
<g id="Node000012" class="node">
<title>Node12</title>
<g id="a_Node000012"><a xlink:href="classLocation.html" target="_top" xlink:title=" ">
<polygon fill="white" stroke="#666666" points="91.5,-330 33.5,-330 33.5,-311 91.5,-311 91.5,-330"/>
<text text-anchor="middle" x="62.5" y="-318" font-family="Helvetica,sans-Serif" font-size="10.00">Location</text>
</a>
</g>
</g>
<!-- Node12&#45;&gt;Node11 -->
<g id="edge14_Node000011_Node000012" class="edge">
<title>Node12&#45;&gt;Node11</title>
<g id="a_edge14_Node000011_Node000012"><a xlink:title=" ">
<path fill="none" stroke="#9a32cd" stroke-dasharray="5,2" d="M101.99,-320.5C133.44,-320.5 178.28,-320.5 213.35,-320.5"/>
<polygon fill="#9a32cd" stroke="#9a32cd" points="101.87,-317 91.87,-320.5 101.87,-324 101.87,-317"/>
</a>
</g>
<text text-anchor="middle" x="164.5" y="-323.5" font-family="Helvetica,sans-Serif" font-size="10.00" fill="grey"> location</text>
</g>
<!-- Node13 -->
<g id="Node000013" class="node">
<title>Node13</title>
<g id="a_Node000013"><a xlink:href="classVector3.html" target="_top" xlink:title=" ">
<polygon fill="white" stroke="#666666" points="111.5,-264 13.5,-264 13.5,-245 111.5,-245 111.5,-264"/>
<text text-anchor="middle" x="62.5" y="-252" font-family="Helvetica,sans-Serif" font-size="10.00">Vector3&lt; float &gt;</text>
</a>
</g>
</g>
<!-- Node13&#45;&gt;Node5 -->
<g id="edge26_Node000005_Node000013" class="edge">
<title>Node13&#45;&gt;Node5</title>
<g id="a_edge26_Node000005_Node000013"><a xlink:title=" ">
<path fill="none" stroke="#9a32cd" stroke-dasharray="5,2" d="M122.24,-247.63C264.98,-232.2 625.28,-201.15 720,-268.5 768.18,-302.76 775.34,-383.1 776.35,-410.86"/>
<polygon fill="#9a32cd" stroke="#9a32cd" points="121.5,-244.19 111.94,-248.76 122.26,-251.15 121.5,-244.19"/>
</a>
</g>
<text text-anchor="middle" x="414" y="-231.5" font-family="Helvetica,sans-Serif" font-size="10.00" fill="grey"> _blended_antenna_offset</text>
</g>
<!-- Node13&#45;&gt;Node11 -->
<g id="edge15_Node000011_Node000013" class="edge">
<title>Node13&#45;&gt;Node11</title>
<g id="a_edge15_Node000011_Node000013"><a xlink:title=" ">
<path fill="none" stroke="#9a32cd" stroke-dasharray="5,2" d="M99.5,-267.39C127.79,-277.37 168.23,-291.33 204,-302.5 213.19,-305.37 223.18,-308.29 232.47,-310.93"/>
<polygon fill="#9a32cd" stroke="#9a32cd" points="100.63,-264.07 90.04,-264.03 98.29,-270.67 100.63,-264.07"/>
</a>
</g>
<text text-anchor="middle" x="164.5" y="-298.5" font-family="Helvetica,sans-Serif" font-size="10.00" fill="grey"> velocity</text>
</g>
<!-- Node14 -->
<g id="Node000014" class="node">
<title>Node14</title>
<g id="a_Node000014"><a xlink:href="structAP__GPS_1_1detect__state.html" target="_top" xlink:title=" ">
<polygon fill="white" stroke="#666666" points="627,-666 506,-666 506,-647 627,-647 627,-666"/>
<text text-anchor="middle" x="566.5" y="-654" font-family="Helvetica,sans-Serif" font-size="10.00">AP_GPS::detect_state</text>
</a>
</g>
</g>
<!-- Node14&#45;&gt;Node5 -->
<g id="edge18_Node000005_Node000014" class="edge">
<title>Node14&#45;&gt;Node5</title>
<g id="a_edge18_Node000005_Node000014"><a xlink:title=" ">
<path fill="none" stroke="#9a32cd" stroke-dasharray="5,2" d="M633.23,-644.17C663.28,-635.46 697.18,-620.83 720,-596.5 766.32,-547.11 774.67,-459.57 776.17,-430.32"/>
<polygon fill="#9a32cd" stroke="#9a32cd" points="631.93,-640.9 623.2,-646.91 633.77,-647.65 631.93,-640.9"/>
</a>
</g>
<text text-anchor="middle" x="688" y="-638.5" font-family="Helvetica,sans-Serif" font-size="10.00" fill="grey"> detect_state</text>
</g>
<!-- Node15 -->
<g id="Node000015" class="node">
<title>Node15</title>
<g id="a_Node000015"><a xlink:href="structUBLOX__detect__state.html" target="_top" xlink:title=" ">
<polygon fill="white" stroke="#666666" points="326.5,-666 210.5,-666 210.5,-647 326.5,-647 326.5,-666"/>
<text text-anchor="middle" x="268.5" y="-654" font-family="Helvetica,sans-Serif" font-size="10.00">UBLOX_detect_state</text>
</a>
</g>
</g>
<!-- Node15&#45;&gt;Node14 -->
<g id="edge19_Node000014_Node000015" class="edge">
<title>Node15&#45;&gt;Node14</title>
<g id="a_edge19_Node000014_Node000015"><a xlink:title=" ">
<path fill="none" stroke="#9a32cd" stroke-dasharray="5,2" d="M336.81,-656.5C387.69,-656.5 456.9,-656.5 505.81,-656.5"/>
<polygon fill="#9a32cd" stroke="#9a32cd" points="336.57,-653 326.57,-656.5 336.57,-660 336.57,-653"/>
</a>
</g>
<text text-anchor="middle" x="414" y="-659.5" font-family="Helvetica,sans-Serif" font-size="10.00" fill="grey"> ublox_detect_state</text>
</g>
<!-- Node16 -->
<g id="Node000016" class="node">
<title>Node16</title>
<g id="a_Node000016"><a xlink:href="structSIRF__detect__state.html" target="_top" xlink:title=" ">
<polygon fill="white" stroke="#666666" points="320.5,-629 216.5,-629 216.5,-610 320.5,-610 320.5,-629"/>
<text text-anchor="middle" x="268.5" y="-617" font-family="Helvetica,sans-Serif" font-size="10.00">SIRF_detect_state</text>
</a>
</g>
</g>
<!-- Node16&#45;&gt;Node14 -->
<g id="edge20_Node000014_Node000016" class="edge">
<title>Node16&#45;&gt;Node14</title>
<g id="a_edge20_Node000014_Node000016"><a xlink:title=" ">
<path fill="none" stroke="#9a32cd" stroke-dasharray="5,2" d="M330.96,-625C372.32,-628.96 428.04,-634.76 477,-641.5 488.58,-643.09 500.97,-645.04 512.7,-647"/>
<polygon fill="#9a32cd" stroke="#9a32cd" points="331.06,-621.5 320.77,-624.04 330.4,-628.47 331.06,-621.5"/>
</a>
</g>
<text text-anchor="middle" x="414" y="-644.5" font-family="Helvetica,sans-Serif" font-size="10.00" fill="grey"> sirf_detect_state</text>
</g>
<!-- Node17 -->
<g id="Node000017" class="node">
<title>Node17</title>
<g id="a_Node000017"><a xlink:href="structNMEA__detect__state.html" target="_top" xlink:title=" ">
<polygon fill="white" stroke="#666666" points="324.5,-592 212.5,-592 212.5,-573 324.5,-573 324.5,-592"/>
<text text-anchor="middle" x="268.5" y="-580" font-family="Helvetica,sans-Serif" font-size="10.00">NMEA_detect_state</text>
</a>
</g>
</g>
<!-- Node17&#45;&gt;Node14 -->
<g id="edge21_Node000014_Node000017" class="edge">
<title>Node17&#45;&gt;Node14</title>
<g id="a_edge21_Node000014_Node000017"><a xlink:title=" ">
<path fill="none" stroke="#9a32cd" stroke-dasharray="5,2" d="M334.75,-586.06C376.24,-589.68 430.68,-596.94 477,-611.5 504.3,-620.08 533.4,-636.46 550.5,-646.91"/>
<polygon fill="#9a32cd" stroke="#9a32cd" points="335.02,-582.57 324.76,-585.24 334.44,-589.55 335.02,-582.57"/>
</a>
</g>
<text text-anchor="middle" x="414" y="-614.5" font-family="Helvetica,sans-Serif" font-size="10.00" fill="grey"> nmea_detect_state</text>
</g>
<!-- Node18 -->
<g id="Node000018" class="node">
<title>Node18</title>
<g id="a_Node000018"><a xlink:href="structSBP__detect__state.html" target="_top" xlink:title=" ">
<polygon fill="white" stroke="#666666" points="319,-777 218,-777 218,-758 319,-758 319,-777"/>
<text text-anchor="middle" x="268.5" y="-765" font-family="Helvetica,sans-Serif" font-size="10.00">SBP_detect_state</text>
</a>
</g>
</g>
<!-- Node18&#45;&gt;Node14 -->
<g id="edge22_Node000014_Node000018" class="edge">
<title>Node18&#45;&gt;Node14</title>
<g id="a_edge22_Node000014_Node000018"><a xlink:title=" ">
<path fill="none" stroke="#9a32cd" stroke-dasharray="5,2" d="M329.28,-768.52C372.27,-767.07 430.6,-760.52 477,-738.5 513.33,-721.26 544.95,-683.75 558.48,-666.08"/>
<polygon fill="#9a32cd" stroke="#9a32cd" points="329.16,-765.02 319.25,-768.77 329.34,-772.02 329.16,-765.02"/>
</a>
</g>
<text text-anchor="middle" x="414" y="-769.5" font-family="Helvetica,sans-Serif" font-size="10.00" fill="grey"> sbp_detect_state</text>
</g>
<!-- Node19 -->
<g id="Node000019" class="node">
<title>Node19</title>
<g id="a_Node000019"><a xlink:href="structSBP2__detect__state.html" target="_top" xlink:title=" ">
<polygon fill="white" stroke="#666666" points="322,-740 215,-740 215,-721 322,-721 322,-740"/>
<text text-anchor="middle" x="268.5" y="-728" font-family="Helvetica,sans-Serif" font-size="10.00">SBP2_detect_state</text>
</a>
</g>
</g>
<!-- Node19&#45;&gt;Node14 -->
<g id="edge23_Node000014_Node000019" class="edge">
<title>Node19&#45;&gt;Node14</title>
<g id="a_edge23_Node000014_Node000019"><a xlink:title=" ">
<path fill="none" stroke="#9a32cd" stroke-dasharray="5,2" d="M332.14,-726.65C373.92,-722.82 429.65,-715.28 477,-700.5 504.03,-692.07 532.98,-676.23 550.15,-666.03"/>
<polygon fill="#9a32cd" stroke="#9a32cd" points="331.77,-723.17 322.11,-727.52 332.37,-730.14 331.77,-723.17"/>
</a>
</g>
<text text-anchor="middle" x="414" y="-726.5" font-family="Helvetica,sans-Serif" font-size="10.00" fill="grey"> sbp2_detect_state</text>
</g>
<!-- Node20 -->
<g id="Node000020" class="node">
<title>Node20</title>
<g id="a_Node000020"><a xlink:href="structERB__detect__state.html" target="_top" xlink:title=" ">
<polygon fill="white" stroke="#666666" points="319.5,-703 217.5,-703 217.5,-684 319.5,-684 319.5,-703"/>
<text text-anchor="middle" x="268.5" y="-691" font-family="Helvetica,sans-Serif" font-size="10.00">ERB_detect_state</text>
</a>
</g>
</g>
<!-- Node20&#45;&gt;Node14 -->
<g id="edge24_Node000014_Node000020" class="edge">
<title>Node20&#45;&gt;Node14</title>
<g id="a_edge24_Node000014_Node000020"><a xlink:title=" ">
<path fill="none" stroke="#9a32cd" stroke-dasharray="5,2" d="M330.13,-688.08C371.57,-684.12 427.7,-678.28 477,-671.5 488.58,-669.91 500.97,-667.96 512.7,-666"/>
<polygon fill="#9a32cd" stroke="#9a32cd" points="329.55,-684.61 319.92,-689.04 330.21,-691.58 329.55,-684.61"/>
</a>
</g>
<text text-anchor="middle" x="414" y="-688.5" font-family="Helvetica,sans-Serif" font-size="10.00" fill="grey"> erb_detect_state</text>
</g>
<!-- Node21 -->
<g id="Node000021" class="node">
<title>Node21</title>
<g id="a_Node000021"><a xlink:href="structAP__GPS_1_1rtcm__buffer.html" target="_top" xlink:title=" ">
<polygon fill="white" stroke="#666666" points="624.5,-591 508.5,-591 508.5,-572 624.5,-572 624.5,-591"/>
<text text-anchor="middle" x="566.5" y="-579" font-family="Helvetica,sans-Serif" font-size="10.00">AP_GPS::rtcm_buffer</text>
</a>
</g>
</g>
<!-- Node21&#45;&gt;Node5 -->
<g id="edge25_Node000005_Node000021" class="edge">
<title>Node21&#45;&gt;Node5</title>
<g id="a_edge25_Node000005_Node000021"><a xlink:title=" ">
<path fill="none" stroke="#9a32cd" stroke-dasharray="5,2" d="M634.71,-584.97C663.63,-583.15 696.19,-576.28 720,-557.5 761.81,-524.52 772.95,-455.3 775.68,-430.01"/>
<polygon fill="#9a32cd" stroke="#9a32cd" points="634.49,-581.47 624.65,-585.41 634.8,-588.46 634.49,-581.47"/>
</a>
</g>
<text text-anchor="middle" x="688" y="-584.5" font-family="Helvetica,sans-Serif" font-size="10.00" fill="grey"> rtcm_buffer</text>
</g>
<!-- Node22 -->
<g id="Node000022" class="node">
<title>Node22</title>
<g id="a_Node000022"><a xlink:href="classJitterCorrection.html" target="_top" xlink:title=" ">
<polygon fill="white" stroke="#666666" points="313.5,-293 223.5,-293 223.5,-274 313.5,-274 313.5,-293"/>
<text text-anchor="middle" x="268.5" y="-281" font-family="Helvetica,sans-Serif" font-size="10.00">JitterCorrection</text>
</a>
</g>
</g>
<!-- Node22&#45;&gt;Node2 -->
<g id="edge28_Node000002_Node000022" class="edge">
<title>Node22&#45;&gt;Node2</title>
<g id="a_edge28_Node000002_Node000022"><a xlink:title=" ">
<path fill="none" stroke="#9a32cd" stroke-dasharray="5,2" d="M323.88,-283.83C365.75,-284.19 425.04,-284.95 477,-286.5 489.61,-286.88 503.22,-287.42 515.89,-287.99"/>
<polygon fill="#9a32cd" stroke="#9a32cd" points="323.66,-280.33 313.63,-283.75 323.6,-287.33 323.66,-280.33"/>
</a>
</g>
<text text-anchor="middle" x="414" y="-289.5" font-family="Helvetica,sans-Serif" font-size="10.00" fill="grey"> jitter_correction</text>
</g>
<!-- Node23 -->
<g id="Node000023" class="node">
<title>Node23</title>
<g id="a_Node000023"><a xlink:href="unionAP__GPS__ERB_1_1PACKED.html" target="_top" xlink:title=" ">
<polygon fill="white" stroke="#666666" points="628.5,-130 504.5,-130 504.5,-111 628.5,-111 628.5,-130"/>
<text text-anchor="middle" x="566.5" y="-118" font-family="Helvetica,sans-Serif" font-size="10.00">AP_GPS_ERB::PACKED</text>
</a>
</g>
</g>
<!-- Node23&#45;&gt;Node1 -->
<g id="edge29_Node000001_Node000023" class="edge">
<title>Node23&#45;&gt;Node1</title>
<g id="a_edge29_Node000001_Node000023"><a xlink:title=" ">
<path fill="none" stroke="#9a32cd" stroke-dasharray="5,2" d="M599.24,-134.17C642.02,-152.59 717.08,-184.91 754.29,-200.94"/>
<polygon fill="#9a32cd" stroke="#9a32cd" points="600.44,-130.87 589.87,-130.13 597.67,-137.3 600.44,-130.87"/>
</a>
</g>
<text text-anchor="middle" x="688" y="-186.5" font-family="Helvetica,sans-Serif" font-size="10.00" fill="grey"> _buffer</text>
</g>
<!-- Node24 -->
<g id="Node000024" class="node">
<title>Node24</title>
<g id="a_Node000024"><a xlink:href="structAP__GPS__ERB_1_1erb__ver.html" target="_top" xlink:title=" ">
<polygon fill="white" stroke="#666666" points="329.5,-93 207.5,-93 207.5,-74 329.5,-74 329.5,-93"/>
<text text-anchor="middle" x="268.5" y="-81" font-family="Helvetica,sans-Serif" font-size="10.00">AP_GPS_ERB::erb_ver</text>
</a>
</g>
</g>
<!-- Node24&#45;&gt;Node23 -->
<g id="edge30_Node000023_Node000024" class="edge">
<title>Node24&#45;&gt;Node23</title>
<g id="a_edge30_Node000023_Node000024"><a xlink:title=" ">
<path fill="none" stroke="#9a32cd" stroke-dasharray="5,2" d="M339.54,-89.83C379.82,-93.75 431.34,-99.22 477,-105.5 488.58,-107.09 500.97,-109.04 512.7,-111"/>
<polygon fill="#9a32cd" stroke="#9a32cd" points="339.84,-86.34 329.55,-88.87 339.17,-93.31 339.84,-86.34"/>
</a>
</g>
<text text-anchor="middle" x="414" y="-108.5" font-family="Helvetica,sans-Serif" font-size="10.00" fill="grey"> ver</text>
</g>
<!-- Node25 -->
<g id="Node000025" class="node">
<title>Node25</title>
<g id="a_Node000025"><a xlink:href="structAP__GPS__ERB_1_1erb__pos.html" target="_top" xlink:title=" ">
<polygon fill="white" stroke="#666666" points="330,-56 207,-56 207,-37 330,-37 330,-56"/>
<text text-anchor="middle" x="268.5" y="-44" font-family="Helvetica,sans-Serif" font-size="10.00">AP_GPS_ERB::erb_pos</text>
</a>
</g>
</g>
<!-- Node25&#45;&gt;Node23 -->
<g id="edge31_Node000023_Node000025" class="edge">
<title>Node25&#45;&gt;Node23</title>
<g id="a_edge31_Node000023_Node000025"><a xlink:title=" ">
<path fill="none" stroke="#9a32cd" stroke-dasharray="5,2" d="M340.24,-50.55C380.97,-54.32 432.7,-61.57 477,-75.5 504.3,-84.08 533.4,-100.46 550.5,-110.91"/>
<polygon fill="#9a32cd" stroke="#9a32cd" points="340.41,-47.06 330.14,-49.67 339.8,-54.03 340.41,-47.06"/>
</a>
</g>
<text text-anchor="middle" x="414" y="-78.5" font-family="Helvetica,sans-Serif" font-size="10.00" fill="grey"> pos</text>
</g>
<!-- Node26 -->
<g id="Node000026" class="node">
<title>Node26</title>
<g id="a_Node000026"><a xlink:href="structAP__GPS__ERB_1_1erb__stat.html" target="_top" xlink:title=" ">
<polygon fill="white" stroke="#666666" points="331,-19 206,-19 206,0 331,0 331,-19"/>
<text text-anchor="middle" x="268.5" y="-7" font-family="Helvetica,sans-Serif" font-size="10.00">AP_GPS_ERB::erb_stat</text>
</a>
</g>
</g>
<!-- Node26&#45;&gt;Node23 -->
<g id="edge32_Node000023_Node000026" class="edge">
<title>Node26&#45;&gt;Node23</title>
<g id="a_edge32_Node000023_Node000026"><a xlink:title=" ">
<path fill="none" stroke="#9a32cd" stroke-dasharray="5,2" d="M341.36,-7.99C382.81,-9.72 434.88,-16.45 477,-36.5 513.91,-54.08 545.47,-92.89 558.77,-110.94"/>
<polygon fill="#9a32cd" stroke="#9a32cd" points="341.45,-4.49 331.34,-7.66 341.22,-11.49 341.45,-4.49"/>
</a>
</g>
<text text-anchor="middle" x="414" y="-39.5" font-family="Helvetica,sans-Serif" font-size="10.00" fill="grey"> stat</text>
</g>
<!-- Node27 -->
<g id="Node000027" class="node">
<title>Node27</title>
<g id="a_Node000027"><a xlink:href="structAP__GPS__ERB_1_1erb__dops.html" target="_top" xlink:title=" ">
<polygon fill="white" stroke="#666666" points="333,-204 204,-204 204,-185 333,-185 333,-204"/>
<text text-anchor="middle" x="268.5" y="-192" font-family="Helvetica,sans-Serif" font-size="10.00">AP_GPS_ERB::erb_dops</text>
</a>
</g>
</g>
<!-- Node27&#45;&gt;Node23 -->
<g id="edge33_Node000023_Node000027" class="edge">
<title>Node27&#45;&gt;Node23</title>
<g id="a_edge33_Node000023_Node000027"><a xlink:title=" ">
<path fill="none" stroke="#9a32cd" stroke-dasharray="5,2" d="M343.31,-189.57C383.52,-185.46 433.76,-177.99 477,-164.5 504.03,-156.07 532.98,-140.23 550.15,-130.03"/>
<polygon fill="#9a32cd" stroke="#9a32cd" points="342.92,-186.09 333.31,-190.54 343.6,-193.05 342.92,-186.09"/>
</a>
</g>
<text text-anchor="middle" x="414" y="-190.5" font-family="Helvetica,sans-Serif" font-size="10.00" fill="grey"> dops</text>
</g>
<!-- Node28 -->
<g id="Node000028" class="node">
<title>Node28</title>
<g id="a_Node000028"><a xlink:href="structAP__GPS__ERB_1_1erb__vel.html" target="_top" xlink:title=" ">
<polygon fill="white" stroke="#666666" points="329,-167 208,-167 208,-148 329,-148 329,-167"/>
<text text-anchor="middle" x="268.5" y="-155" font-family="Helvetica,sans-Serif" font-size="10.00">AP_GPS_ERB::erb_vel</text>
</a>
</g>
</g>
<!-- Node28&#45;&gt;Node23 -->
<g id="edge34_Node000023_Node000028" class="edge">
<title>Node28&#45;&gt;Node23</title>
<g id="a_edge34_Node000023_Node000028"><a xlink:title=" ">
<path fill="none" stroke="#9a32cd" stroke-dasharray="5,2" d="M339.1,-151.21C379.45,-147.29 431.18,-141.81 477,-135.5 488.58,-133.91 500.97,-131.96 512.7,-130"/>
<polygon fill="#9a32cd" stroke="#9a32cd" points="338.72,-147.73 329.1,-152.17 339.39,-154.7 338.72,-147.73"/>
</a>
</g>
<text text-anchor="middle" x="414" y="-152.5" font-family="Helvetica,sans-Serif" font-size="10.00" fill="grey"> vel</text>
</g>
<!-- Node29 -->
<g id="Node000029" class="node">
<title>Node29</title>
<g id="a_Node000029"><a xlink:href="structAP__GPS__ERB_1_1erb__rtk.html" target="_top" xlink:title=" ">
<polygon fill="white" stroke="#666666" points="328,-130 209,-130 209,-111 328,-111 328,-130"/>
<text text-anchor="middle" x="268.5" y="-118" font-family="Helvetica,sans-Serif" font-size="10.00">AP_GPS_ERB::erb_rtk</text>
</a>
</g>
</g>
<!-- Node29&#45;&gt;Node23 -->
<g id="edge35_Node000023_Node000029" class="edge">
<title>Node29&#45;&gt;Node23</title>
<g id="a_edge35_Node000023_Node000029"><a xlink:title=" ">
<path fill="none" stroke="#9a32cd" stroke-dasharray="5,2" d="M338.46,-120.5C388.72,-120.5 456.19,-120.5 504.49,-120.5"/>
<polygon fill="#9a32cd" stroke="#9a32cd" points="338.33,-117 328.33,-120.5 338.33,-124 338.33,-117"/>
</a>
</g>
<text text-anchor="middle" x="414" y="-123.5" font-family="Helvetica,sans-Serif" font-size="10.00" fill="grey"> rtk</text>
</g>
</g>
</svg>

<g id="navigator" transform="translate(0 0)" fill="#404254">
  <rect fill="#f2f5e9" fill-opacity="0.5" stroke="#606060" stroke-width=".5" x="0" y="0" width="60" height="60"/>
  <use id="zoomplus" xlink:href="#zoomPlus" x="17" y="9" onmousedown="handleZoom(evt,'in')"/>
  <use id="zoomminus" xlink:href="#zoomMin" x="42" y="9" onmousedown="handleZoom(evt,'out')"/>
  <use id="reset" xlink:href="#resetDef" x="30" y="36" onmousedown="handleReset()"/>
   <use id="arrowup" xlink:href="#arrowUp" x="0" y="0" onmousedown="handlePan(0,-1)"/>
  <use id="arrowright" xlink:href="#arrowRight" x="0" y="0" onmousedown="handlePan(1,0)"/>
  <use id="arrowdown" xlink:href="#arrowDown" x="0" y="0" onmousedown="handlePan(0,1)"/>
  <use id="arrowleft" xlink:href="#arrowLeft" x="0" y="0" onmousedown="handlePan(-1,0)"/>
</g>
<svg viewBox="0 0 15 15" width="100%" height="30px" preserveAspectRatio="xMaxYMin meet">
 <g id="arrow_out" transform="scale(0.3 0.3)">
  <a xlink:href="classAP__GPS__ERB__coll__graph_org.svg" target="_base">
   <rect id="button" ry="5" rx="5" y="6" x="6" height="38" width="38"
        fill="#f2f5e9" fill-opacity="0.5" stroke="#606060" stroke-width="1.0"/>
   <path id="arrow"
     d="M 11.500037,31.436501 C 11.940474,20.09759 22.043105,11.32322 32.158766,21.979434 L 37.068811,17.246167 C 37.068811,17.246167 37.088388,32 37.088388,32 L 22.160133,31.978069 C 22.160133,31.978069 26.997745,27.140456 26.997745,27.140456 C 18.528582,18.264221 13.291696,25.230495 11.500037,31.436501 z"
     style="fill:#404040;"/>
  </a>
 </g>
</svg>

<style type='text/css'>
<![CDATA[
[data-mouse-over-selected='false'] { opacity: 0.7; }
[data-mouse-over-selected='true']  { opacity: 1.0; }
]]>
</style>
<script type="application/ecmascript"><![CDATA[
document.addEventListener('DOMContentLoaded', (event) => {
  highlightEdges();
  highlightAdjacentNodes();
});
]]></script>
</svg>
