<?xml version="1.0" encoding="UTF-8" standalone="no"?>
<!DOCTYPE svg PUBLIC "-//W3C//DTD SVG 1.1//EN"
 "http://www.w3.org/Graphics/SVG/1.1/DTD/svg11.dtd">
<!-- Generated by graphviz version 2.43.0 (0)
 -->
<!-- Title: AP_InertialSensor_LSM9DS0::_register_read_xm Pages: 1 -->
<svg width="1994pt" height="179pt"
 viewBox="0.00 0.00 1994.00 178.92" xmlns="http://www.w3.org/2000/svg" xmlns:xlink="http://www.w3.org/1999/xlink">
<g id="graph0" class="graph" transform="scale(1 1) rotate(0) translate(4 174.92)">
<title>AP_InertialSensor_LSM9DS0::_register_read_xm</title>
<!-- Node1 -->
<g id="Node000001" class="node">
<title>Node1</title>
<g id="a_Node000001"><a xlink:title=" ">
<polygon fill="#999999" stroke="#666666" points="1986,-67.92 1833,-67.92 1833,-37.92 1986,-37.92 1986,-67.92"/>
<text text-anchor="start" x="1841" y="-55.92" font-family="Helvetica,sans-Serif" font-size="10.00">AP_InertialSensor_LSM9DS0</text>
<text text-anchor="middle" x="1909.5" y="-44.92" font-family="Helvetica,sans-Serif" font-size="10.00">::_register_read_xm</text>
</a>
</g>
</g>
<!-- Node2 -->
<g id="Node000002" class="node">
<title>Node2</title>
<g id="a_Node000002"><a xlink:href="classAP__InertialSensor__LSM9DS0.html#aec37c46f246a7d601507f1d533e4f7b5" target="_top" xlink:title=" ">
<polygon fill="white" stroke="#666666" points="1797,-132.92 1644,-132.92 1644,-102.92 1797,-102.92 1797,-132.92"/>
<text text-anchor="start" x="1652" y="-120.92" font-family="Helvetica,sans-Serif" font-size="10.00">AP_InertialSensor_LSM9DS0</text>
<text text-anchor="middle" x="1720.5" y="-109.92" font-family="Helvetica,sans-Serif" font-size="10.00">::_accel_data_ready</text>
</a>
</g>
</g>
<!-- Node1&#45;&gt;Node2 -->
<g id="edge1_Node000001_Node000002" class="edge">
<title>Node1&#45;&gt;Node2</title>
<g id="a_edge1_Node000001_Node000002"><a xlink:title=" ">
<path fill="none" stroke="#63b8ff" d="M1855.67,-71.28C1827.01,-81.24 1792.02,-93.41 1764.96,-102.81"/>
<polygon fill="#63b8ff" stroke="#63b8ff" points="1856.83,-74.58 1865.13,-68 1854.53,-67.97 1856.83,-74.58"/>
</a>
</g>
</g>
<!-- Node3 -->
<g id="Node000003" class="node">
<title>Node3</title>
<g id="a_Node000003"><a xlink:href="classAP__InertialSensor__LSM9DS0.html#acb102d8d40344dc71c8332ddbb45cb73" target="_top" xlink:title=" ">
<polygon fill="white" stroke="#666666" points="1419,-89.92 1266,-89.92 1266,-59.92 1419,-59.92 1419,-89.92"/>
<text text-anchor="start" x="1274" y="-77.92" font-family="Helvetica,sans-Serif" font-size="10.00">AP_InertialSensor_LSM9DS0</text>
<text text-anchor="middle" x="1342.5" y="-66.92" font-family="Helvetica,sans-Serif" font-size="10.00">::_hardware_init</text>
</a>
</g>
</g>
<!-- Node1&#45;&gt;Node3 -->
<g id="edge25_Node000001_Node000003" class="edge">
<title>Node1&#45;&gt;Node3</title>
<g id="a_edge25_Node000001_Node000003"><a xlink:title=" ">
<path fill="none" stroke="#63b8ff" d="M1822.83,-56.26C1712.91,-60.54 1523.94,-67.89 1419.12,-71.98"/>
<polygon fill="#63b8ff" stroke="#63b8ff" points="1823.03,-59.75 1832.89,-55.86 1822.76,-52.76 1823.03,-59.75"/>
</a>
</g>
</g>
<!-- Node21 -->
<g id="Node000021" class="node">
<title>Node21</title>
<g id="a_Node000021"><a xlink:href="classAP__InertialSensor__LSM9DS0.html#a187f65cbf8ce4549baf7c52349ac721f" target="_top" xlink:title=" ">
<polygon fill="white" stroke="#666666" points="1797,-46.92 1644,-46.92 1644,-16.92 1797,-16.92 1797,-46.92"/>
<text text-anchor="start" x="1652" y="-34.92" font-family="Helvetica,sans-Serif" font-size="10.00">AP_InertialSensor_LSM9DS0</text>
<text text-anchor="middle" x="1720.5" y="-23.92" font-family="Helvetica,sans-Serif" font-size="10.00">::_accel_disable_i2c</text>
</a>
</g>
</g>
<!-- Node1&#45;&gt;Node21 -->
<g id="edge21_Node000001_Node000021" class="edge">
<title>Node1&#45;&gt;Node21</title>
<g id="a_edge21_Node000001_Node000021"><a xlink:title=" ">
<path fill="none" stroke="#63b8ff" d="M1822.98,-43.32C1814.42,-42.35 1805.76,-41.38 1797.3,-40.43"/>
<polygon fill="#63b8ff" stroke="#63b8ff" points="1822.65,-46.8 1832.98,-44.44 1823.43,-39.84 1822.65,-46.8"/>
</a>
</g>
</g>
<!-- Node22 -->
<g id="Node000022" class="node">
<title>Node22</title>
<g id="a_Node000022"><a xlink:href="classAP__InertialSensor__LSM9DS0.html#aaf475e872a0f8700eeaae195ea69f097" target="_top" xlink:title=" ">
<polygon fill="white" stroke="#666666" points="1608,-46.92 1455,-46.92 1455,-16.92 1608,-16.92 1608,-46.92"/>
<text text-anchor="start" x="1463" y="-34.92" font-family="Helvetica,sans-Serif" font-size="10.00">AP_InertialSensor_LSM9DS0</text>
<text text-anchor="middle" x="1531.5" y="-23.92" font-family="Helvetica,sans-Serif" font-size="10.00">::_accel_init</text>
</a>
</g>
</g>
<!-- Node1&#45;&gt;Node22 -->
<g id="edge24_Node000001_Node000022" class="edge">
<title>Node1&#45;&gt;Node22</title>
<g id="a_edge24_Node000001_Node000022"><a xlink:title=" ">
<path fill="none" stroke="#63b8ff" d="M1870.85,-33.51C1849.74,-23.72 1822.59,-12.89 1797,-7.92 1730.25,5.04 1711.62,-0.72 1644,-7.92 1626.67,-9.76 1608.08,-13.18 1591.15,-16.86"/>
<polygon fill="#63b8ff" stroke="#63b8ff" points="1869.56,-36.77 1880.09,-37.91 1872.57,-30.45 1869.56,-36.77"/>
</a>
</g>
</g>
<!-- Node2&#45;&gt;Node3 -->
<g id="edge2_Node000002_Node000003" class="edge">
<title>Node2&#45;&gt;Node3</title>
<g id="a_edge2_Node000002_Node000003"><a xlink:title=" ">
<path fill="none" stroke="#63b8ff" d="M1633.79,-108.87C1582,-103.31 1514.68,-95.94 1455,-88.92 1443.37,-87.55 1431.07,-86.06 1419.05,-84.57"/>
<polygon fill="#63b8ff" stroke="#63b8ff" points="1633.62,-112.37 1643.93,-109.95 1634.36,-105.41 1633.62,-112.37"/>
</a>
</g>
</g>
<!-- Node19 -->
<g id="Node000019" class="node">
<title>Node19</title>
<g id="a_Node000019"><a xlink:href="classAP__InertialSensor__LSM9DS0.html#a517db16a43fdfa7fa31615d07b225474" target="_top" xlink:title=" ">
<polygon fill="white" stroke="#666666" points="1608,-170.92 1455,-170.92 1455,-140.92 1608,-140.92 1608,-170.92"/>
<text text-anchor="start" x="1463" y="-158.92" font-family="Helvetica,sans-Serif" font-size="10.00">AP_InertialSensor_LSM9DS0</text>
<text text-anchor="middle" x="1531.5" y="-147.92" font-family="Helvetica,sans-Serif" font-size="10.00">::_poll_data</text>
</a>
</g>
</g>
<!-- Node2&#45;&gt;Node19 -->
<g id="edge19_Node000002_Node000019" class="edge">
<title>Node2&#45;&gt;Node19</title>
<g id="a_edge19_Node000002_Node000019"><a xlink:title=" ">
<path fill="none" stroke="#63b8ff" d="M1635.56,-134.98C1625.86,-136.95 1616.03,-138.95 1606.48,-140.89"/>
<polygon fill="#63b8ff" stroke="#63b8ff" points="1636.49,-138.36 1645.59,-132.94 1635.1,-131.5 1636.49,-138.36"/>
</a>
</g>
</g>
<!-- Node4 -->
<g id="Node000004" class="node">
<title>Node4</title>
<g id="a_Node000004"><a xlink:href="classAP__InertialSensor__LSM9DS0.html#a62227996a40da07a9733ace45b6b0c71" target="_top" xlink:title=" ">
<polygon fill="white" stroke="#666666" points="1230,-89.92 1077,-89.92 1077,-59.92 1230,-59.92 1230,-89.92"/>
<text text-anchor="start" x="1085" y="-77.92" font-family="Helvetica,sans-Serif" font-size="10.00">AP_InertialSensor_LSM9DS0</text>
<text text-anchor="middle" x="1153.5" y="-66.92" font-family="Helvetica,sans-Serif" font-size="10.00">::_init_sensor</text>
</a>
</g>
</g>
<!-- Node3&#45;&gt;Node4 -->
<g id="edge3_Node000003_Node000004" class="edge">
<title>Node3&#45;&gt;Node4</title>
<g id="a_edge3_Node000003_Node000004"><a xlink:title=" ">
<path fill="none" stroke="#63b8ff" d="M1255.7,-74.92C1247.23,-74.92 1238.67,-74.92 1230.3,-74.92"/>
<polygon fill="#63b8ff" stroke="#63b8ff" points="1255.98,-78.42 1265.98,-74.92 1255.98,-71.42 1255.98,-78.42"/>
</a>
</g>
</g>
<!-- Node5 -->
<g id="Node000005" class="node">
<title>Node5</title>
<g id="a_Node000005"><a xlink:href="classAP__InertialSensor__LSM9DS0.html#ac6a55be439b55fb2c7dc8a1bea52f79d" target="_top" xlink:title=" ">
<polygon fill="white" stroke="#666666" points="1041,-89.92 888,-89.92 888,-59.92 1041,-59.92 1041,-89.92"/>
<text text-anchor="start" x="896" y="-77.92" font-family="Helvetica,sans-Serif" font-size="10.00">AP_InertialSensor_LSM9DS0</text>
<text text-anchor="middle" x="964.5" y="-66.92" font-family="Helvetica,sans-Serif" font-size="10.00">::probe</text>
</a>
</g>
</g>
<!-- Node4&#45;&gt;Node5 -->
<g id="edge4_Node000004_Node000005" class="edge">
<title>Node4&#45;&gt;Node5</title>
<g id="a_edge4_Node000004_Node000005"><a xlink:title=" ">
<path fill="none" stroke="#63b8ff" d="M1066.7,-74.92C1058.23,-74.92 1049.67,-74.92 1041.3,-74.92"/>
<polygon fill="#63b8ff" stroke="#63b8ff" points="1066.98,-78.42 1076.98,-74.92 1066.98,-71.42 1066.98,-78.42"/>
</a>
</g>
</g>
<!-- Node6 -->
<g id="Node000006" class="node">
<title>Node6</title>
<g id="a_Node000006"><a xlink:href="classAP__InertialSensor.html#a8967734e82a4f472c6d8ddd8db656804" target="_top" xlink:title=" ">
<polygon fill="white" stroke="#666666" points="852,-89.92 744,-89.92 744,-59.92 852,-59.92 852,-89.92"/>
<text text-anchor="start" x="752" y="-77.92" font-family="Helvetica,sans-Serif" font-size="10.00">AP_InertialSensor::</text>
<text text-anchor="middle" x="798" y="-66.92" font-family="Helvetica,sans-Serif" font-size="10.00">detect_backends</text>
</a>
</g>
</g>
<!-- Node5&#45;&gt;Node6 -->
<g id="edge5_Node000005_Node000006" class="edge">
<title>Node5&#45;&gt;Node6</title>
<g id="a_edge5_Node000005_Node000006"><a xlink:title=" ">
<path fill="none" stroke="#63b8ff" d="M877.85,-74.92C869.21,-74.92 860.62,-74.92 852.46,-74.92"/>
<polygon fill="#63b8ff" stroke="#63b8ff" points="877.99,-78.42 887.99,-74.92 877.99,-71.42 877.99,-78.42"/>
</a>
</g>
</g>
<!-- Node7 -->
<g id="Node000007" class="node">
<title>Node7</title>
<g id="a_Node000007"><a xlink:href="classAP__InertialSensor.html#a9949b7e301b0d7a5f3e59385d2e8d97a" target="_top" xlink:title=" ">
<polygon fill="white" stroke="#666666" points="698,-137.92 590,-137.92 590,-107.92 698,-107.92 698,-137.92"/>
<text text-anchor="start" x="598" y="-125.92" font-family="Helvetica,sans-Serif" font-size="10.00">AP_InertialSensor::</text>
<text text-anchor="middle" x="644" y="-114.92" font-family="Helvetica,sans-Serif" font-size="10.00">_start_backends</text>
</a>
</g>
</g>
<!-- Node6&#45;&gt;Node7 -->
<g id="edge6_Node000006_Node000007" class="edge">
<title>Node6&#45;&gt;Node7</title>
<g id="a_edge6_Node000006_Node000007"><a xlink:title=" ">
<path fill="none" stroke="#63b8ff" d="M739.35,-93.13C723.89,-98.01 707.35,-103.23 692.51,-107.92"/>
<polygon fill="#63b8ff" stroke="#63b8ff" points="740.84,-96.32 749.32,-89.98 738.73,-89.65 740.84,-96.32"/>
</a>
</g>
</g>
<!-- Node13 -->
<g id="Node000013" class="node">
<title>Node13</title>
<g id="a_Node000013"><a xlink:href="classAP__InertialSensor.html#ad649def5689aecaebca16cf910d77fd8" target="_top" xlink:title=" ">
<polygon fill="white" stroke="#666666" points="698,-89.92 590,-89.92 590,-59.92 698,-59.92 698,-89.92"/>
<text text-anchor="start" x="598" y="-77.92" font-family="Helvetica,sans-Serif" font-size="10.00">AP_InertialSensor::</text>
<text text-anchor="middle" x="644" y="-66.92" font-family="Helvetica,sans-Serif" font-size="10.00">get_auxiliary_bus</text>
</a>
</g>
</g>
<!-- Node6&#45;&gt;Node13 -->
<g id="edge12_Node000006_Node000013" class="edge">
<title>Node6&#45;&gt;Node13</title>
<g id="a_edge12_Node000006_Node000013"><a xlink:title=" ">
<path fill="none" stroke="#63b8ff" d="M733.6,-74.92C721.8,-74.92 709.59,-74.92 698.13,-74.92"/>
<polygon fill="#63b8ff" stroke="#63b8ff" points="733.84,-78.42 743.84,-74.92 733.84,-71.42 733.84,-78.42"/>
</a>
</g>
</g>
<!-- Node14 -->
<g id="Node000014" class="node">
<title>Node14</title>
<g id="a_Node000014"><a xlink:href="classAP__Compass__AK8963.html#af51ed96aa80a37fc89cd7856bf588b5c" target="_top" xlink:title=" ">
<polygon fill="white" stroke="#666666" points="708,-41.92 580,-41.92 580,-11.92 708,-11.92 708,-41.92"/>
<text text-anchor="start" x="588" y="-29.92" font-family="Helvetica,sans-Serif" font-size="10.00">AP_Compass_AK8963::</text>
<text text-anchor="middle" x="644" y="-18.92" font-family="Helvetica,sans-Serif" font-size="10.00">probe_mpu9250</text>
</a>
</g>
</g>
<!-- Node6&#45;&gt;Node14 -->
<g id="edge13_Node000006_Node000014" class="edge">
<title>Node6&#45;&gt;Node14</title>
<g id="a_edge13_Node000006_Node000014"><a xlink:title=" ">
<path fill="none" stroke="#63b8ff" d="M739.35,-56.71C723.89,-51.83 707.35,-46.61 692.51,-41.92"/>
<polygon fill="#63b8ff" stroke="#63b8ff" points="738.73,-60.19 749.32,-59.86 740.84,-53.51 738.73,-60.19"/>
</a>
</g>
</g>
<!-- Node8 -->
<g id="Node000008" class="node">
<title>Node8</title>
<g id="a_Node000008"><a xlink:href="classAP__InertialSensor.html#a741065b13832b5e4c90bbae17519c0ad" target="_top" xlink:title=" ">
<polygon fill="white" stroke="#666666" points="544,-130.42 420,-130.42 420,-111.42 544,-111.42 544,-130.42"/>
<text text-anchor="middle" x="482" y="-118.42" font-family="Helvetica,sans-Serif" font-size="10.00">AP_InertialSensor::init</text>
</a>
</g>
</g>
<!-- Node7&#45;&gt;Node8 -->
<g id="edge7_Node000007_Node000008" class="edge">
<title>Node7&#45;&gt;Node8</title>
<g id="a_edge7_Node000007_Node000008"><a xlink:title=" ">
<path fill="none" stroke="#63b8ff" d="M579.59,-122.13C567.89,-121.98 555.7,-121.83 544.07,-121.68"/>
<polygon fill="#63b8ff" stroke="#63b8ff" points="579.68,-125.63 589.72,-122.25 579.77,-118.63 579.68,-125.63"/>
</a>
</g>
</g>
<!-- Node9 -->
<g id="Node000009" class="node">
<title>Node9</title>
<g id="a_Node000009"><a xlink:href="classDummyVehicle.html#aad9965e4dc1e71e9645d2cb47b549336" target="_top" xlink:title=" ">
<polygon fill="white" stroke="#666666" points="193,-156.42 80,-156.42 80,-137.42 193,-137.42 193,-156.42"/>
<text text-anchor="middle" x="136.5" y="-144.42" font-family="Helvetica,sans-Serif" font-size="10.00">DummyVehicle::init</text>
</a>
</g>
</g>
<!-- Node8&#45;&gt;Node9 -->
<g id="edge8_Node000008_Node000009" class="edge">
<title>Node8&#45;&gt;Node9</title>
<g id="a_edge8_Node000008_Node000009"><a xlink:title=" ">
<path fill="none" stroke="#63b8ff" d="M427.28,-132.38C413.26,-134.96 398.11,-137.39 384,-138.92 318.87,-145.98 243.54,-147.46 193.47,-147.5"/>
<polygon fill="#63b8ff" stroke="#63b8ff" points="428.09,-135.79 437.27,-130.49 426.79,-128.91 428.09,-135.79"/>
</a>
</g>
</g>
<!-- Node11 -->
<g id="Node000011" class="node">
<title>Node11</title>
<g id="a_Node000011"><a xlink:href="ReplayGyroFFT_8cpp.html#a4fc01d736fe50cf5b977f755b675f11d" target="_top" xlink:title=" ">
<polygon fill="white" stroke="#666666" points="328.5,-129.42 284.5,-129.42 284.5,-110.42 328.5,-110.42 328.5,-129.42"/>
<text text-anchor="middle" x="306.5" y="-117.42" font-family="Helvetica,sans-Serif" font-size="10.00">setup</text>
</a>
</g>
</g>
<!-- Node8&#45;&gt;Node11 -->
<g id="edge10_Node000008_Node000011" class="edge">
<title>Node8&#45;&gt;Node11</title>
<g id="a_edge10_Node000008_Node000011"><a xlink:title=" ">
<path fill="none" stroke="#63b8ff" d="M409.62,-120.51C380.41,-120.34 348.8,-120.16 328.61,-120.04"/>
<polygon fill="#63b8ff" stroke="#63b8ff" points="409.81,-124.01 419.83,-120.57 409.85,-117.01 409.81,-124.01"/>
</a>
</g>
</g>
<!-- Node12 -->
<g id="Node000012" class="node">
<title>Node12</title>
<g id="a_Node000012"><a xlink:href="INS__generic_8cpp.html#a7dfd9b79bc5a37d7df40207afbc5431f" target="_top" xlink:title=" ">
<polygon fill="white" stroke="#666666" points="328.5,-92.42 284.5,-92.42 284.5,-73.42 328.5,-73.42 328.5,-92.42"/>
<text text-anchor="middle" x="306.5" y="-80.42" font-family="Helvetica,sans-Serif" font-size="10.00">setup</text>
</a>
</g>
</g>
<!-- Node8&#45;&gt;Node12 -->
<g id="edge11_Node000008_Node000012" class="edge">
<title>Node8&#45;&gt;Node12</title>
<g id="a_edge11_Node000008_Node000012"><a xlink:title=" ">
<path fill="none" stroke="#63b8ff" d="M427.15,-109.13C393.84,-101.83 352.94,-92.87 328.61,-87.54"/>
<polygon fill="#63b8ff" stroke="#63b8ff" points="426.7,-112.61 437.22,-111.33 428.2,-105.77 426.7,-112.61"/>
</a>
</g>
</g>
<!-- Node10 -->
<g id="Node000010" class="node">
<title>Node10</title>
<g id="a_Node000010"><a xlink:href="AHRS__Test_8cpp.html#a4fc01d736fe50cf5b977f755b675f11d" target="_top" xlink:title=" ">
<polygon fill="white" stroke="#666666" points="44,-145.42 0,-145.42 0,-126.42 44,-126.42 44,-145.42"/>
<text text-anchor="middle" x="22" y="-133.42" font-family="Helvetica,sans-Serif" font-size="10.00">setup</text>
</a>
</g>
</g>
<!-- Node9&#45;&gt;Node10 -->
<g id="edge9_Node000009_Node000010" class="edge">
<title>Node9&#45;&gt;Node10</title>
<g id="a_edge9_Node000009_Node000010"><a xlink:title=" ">
<path fill="none" stroke="#63b8ff" d="M69.8,-140.5C60.57,-139.59 51.69,-138.72 44.19,-137.99"/>
<polygon fill="#63b8ff" stroke="#63b8ff" points="69.62,-143.99 79.91,-141.48 70.3,-137.03 69.62,-143.99"/>
</a>
</g>
</g>
<!-- Node15 -->
<g id="Node000015" class="node">
<title>Node15</title>
<g id="a_Node000015"><a xlink:href="classCompass.html#a0f869a4e64bfe1c9b86265c71b73e0e8" target="_top" xlink:title=" ">
<polygon fill="white" stroke="#666666" points="539.5,-52.92 424.5,-52.92 424.5,-22.92 539.5,-22.92 539.5,-52.92"/>
<text text-anchor="start" x="432.5" y="-40.92" font-family="Helvetica,sans-Serif" font-size="10.00">Compass::probe_i2c</text>
<text text-anchor="middle" x="482" y="-29.92" font-family="Helvetica,sans-Serif" font-size="10.00">_spi_compasses</text>
</a>
</g>
</g>
<!-- Node14&#45;&gt;Node15 -->
<g id="edge14_Node000014_Node000015" class="edge">
<title>Node14&#45;&gt;Node15</title>
<g id="a_edge14_Node000014_Node000015"><a xlink:title=" ">
<path fill="none" stroke="#63b8ff" d="M569.71,-31.96C559.58,-32.65 549.31,-33.36 539.55,-34.03"/>
<polygon fill="#63b8ff" stroke="#63b8ff" points="570.03,-35.44 579.76,-31.27 569.55,-28.46 570.03,-35.44"/>
</a>
</g>
</g>
<!-- Node16 -->
<g id="Node000016" class="node">
<title>Node16</title>
<g id="a_Node000016"><a xlink:href="classCompass.html#a1c48170d8c8966b22fb150b1634443ec" target="_top" xlink:title=" ">
<polygon fill="white" stroke="#666666" points="384,-52.42 229,-52.42 229,-33.42 384,-33.42 384,-52.42"/>
<text text-anchor="middle" x="306.5" y="-40.42" font-family="Helvetica,sans-Serif" font-size="10.00">Compass::_detect_backends</text>
</a>
</g>
</g>
<!-- Node15&#45;&gt;Node16 -->
<g id="edge15_Node000015_Node000016" class="edge">
<title>Node15&#45;&gt;Node16</title>
<g id="a_edge15_Node000015_Node000016"><a xlink:title=" ">
<path fill="none" stroke="#63b8ff" d="M414.16,-39.85C404.38,-40.13 394.25,-40.42 384.3,-40.71"/>
<polygon fill="#63b8ff" stroke="#63b8ff" points="414.29,-43.34 424.19,-39.56 414.09,-36.35 414.29,-43.34"/>
</a>
</g>
</g>
<!-- Node17 -->
<g id="Node000017" class="node">
<title>Node17</title>
<g id="a_Node000017"><a xlink:href="classCompass.html#a79db6bfd3fe309c6258d783f126326c6" target="_top" xlink:title=" ">
<polygon fill="white" stroke="#666666" points="178,-89.42 95,-89.42 95,-70.42 178,-70.42 178,-89.42"/>
<text text-anchor="middle" x="136.5" y="-77.42" font-family="Helvetica,sans-Serif" font-size="10.00">Compass::init</text>
</a>
</g>
</g>
<!-- Node16&#45;&gt;Node17 -->
<g id="edge16_Node000016_Node000017" class="edge">
<title>Node16&#45;&gt;Node17</title>
<g id="a_edge16_Node000016_Node000017"><a xlink:title=" ">
<path fill="none" stroke="#63b8ff" d="M252.21,-54.66C228.19,-59.95 200.29,-66.09 178.02,-71"/>
<polygon fill="#63b8ff" stroke="#63b8ff" points="253.22,-58.02 262.24,-52.45 251.72,-51.18 253.22,-58.02"/>
</a>
</g>
</g>
<!-- Node17&#45;&gt;Node10 -->
<g id="edge17_Node000017_Node000010" class="edge">
<title>Node17&#45;&gt;Node10</title>
<g id="a_edge17_Node000017_Node000010"><a xlink:title=" ">
<path fill="none" stroke="#63b8ff" d="M107.05,-94.08C86.71,-104.21 59.9,-117.55 42.09,-126.42"/>
<polygon fill="#63b8ff" stroke="#63b8ff" points="108.77,-97.14 116.16,-89.55 105.65,-90.87 108.77,-97.14"/>
</a>
</g>
</g>
<!-- Node18 -->
<g id="Node000018" class="node">
<title>Node18</title>
<g id="a_Node000018"><a xlink:href="AP__Compass__test_8cpp.html#a90de5b68ab8defa635679fc0620fb698" target="_top" xlink:title=" ">
<polygon fill="white" stroke="#666666" points="44,-89.42 0,-89.42 0,-70.42 44,-70.42 44,-89.42"/>
<text text-anchor="middle" x="22" y="-77.42" font-family="Helvetica,sans-Serif" font-size="10.00">setup</text>
</a>
</g>
</g>
<!-- Node17&#45;&gt;Node18 -->
<g id="edge18_Node000017_Node000018" class="edge">
<title>Node17&#45;&gt;Node18</title>
<g id="a_edge18_Node000017_Node000018"><a xlink:title=" ">
<path fill="none" stroke="#63b8ff" d="M84.67,-79.92C70.45,-79.92 55.76,-79.92 44.29,-79.92"/>
<polygon fill="#63b8ff" stroke="#63b8ff" points="84.88,-83.42 94.88,-79.92 84.88,-76.42 84.88,-83.42"/>
</a>
</g>
</g>
<!-- Node20 -->
<g id="Node000020" class="node">
<title>Node20</title>
<g id="a_Node000020"><a xlink:href="classAP__InertialSensor__LSM9DS0.html#a1fa1189f7920f61d52d526f779be3d8f" target="_top" xlink:title=" ">
<polygon fill="white" stroke="#666666" points="1419,-170.92 1266,-170.92 1266,-140.92 1419,-140.92 1419,-170.92"/>
<text text-anchor="start" x="1274" y="-158.92" font-family="Helvetica,sans-Serif" font-size="10.00">AP_InertialSensor_LSM9DS0</text>
<text text-anchor="middle" x="1342.5" y="-147.92" font-family="Helvetica,sans-Serif" font-size="10.00">::start</text>
</a>
</g>
</g>
<!-- Node19&#45;&gt;Node20 -->
<g id="edge20_Node000019_Node000020" class="edge">
<title>Node19&#45;&gt;Node20</title>
<g id="a_edge20_Node000019_Node000020"><a xlink:title=" ">
<path fill="none" stroke="#63b8ff" d="M1444.7,-155.92C1436.23,-155.92 1427.67,-155.92 1419.3,-155.92"/>
<polygon fill="#63b8ff" stroke="#63b8ff" points="1444.98,-159.42 1454.98,-155.92 1444.98,-152.42 1444.98,-159.42"/>
</a>
</g>
</g>
<!-- Node21&#45;&gt;Node22 -->
<g id="edge22_Node000021_Node000022" class="edge">
<title>Node21&#45;&gt;Node22</title>
<g id="a_edge22_Node000021_Node000022"><a xlink:title=" ">
<path fill="none" stroke="#63b8ff" d="M1633.7,-31.92C1625.23,-31.92 1616.67,-31.92 1608.3,-31.92"/>
<polygon fill="#63b8ff" stroke="#63b8ff" points="1633.98,-35.42 1643.98,-31.92 1633.98,-28.42 1633.98,-35.42"/>
</a>
</g>
</g>
<!-- Node22&#45;&gt;Node3 -->
<g id="edge23_Node000022_Node000003" class="edge">
<title>Node22&#45;&gt;Node3</title>
<g id="a_edge23_Node000022_Node000003"><a xlink:title=" ">
<path fill="none" stroke="#63b8ff" d="M1455.14,-49.25C1439.81,-52.77 1423.81,-56.45 1408.87,-59.89"/>
<polygon fill="#63b8ff" stroke="#63b8ff" points="1456.14,-52.61 1465.1,-46.96 1454.57,-45.79 1456.14,-52.61"/>
</a>
</g>
</g>
</g>
</svg>
