<?xml version="1.0" encoding="UTF-8" standalone="no"?>
<!DOCTYPE svg PUBLIC "-//W3C//DTD SVG 1.1//EN"
 "http://www.w3.org/Graphics/SVG/1.1/DTD/svg11.dtd">
<!-- Generated by graphviz version 2.43.0 (0)
 -->
<!-- Title: AP_BattMonitor_SMBus::read_temp Pages: 1 -->
<svg width="830pt" height="162pt"
 viewBox="0.00 0.00 830.00 161.50" xmlns="http://www.w3.org/2000/svg" xmlns:xlink="http://www.w3.org/1999/xlink">
<g id="graph0" class="graph" transform="scale(1 1) rotate(0) translate(4 157.5)">
<title>AP_BattMonitor_SMBus::read_temp</title>
<!-- Node1 -->
<g id="Node000001" class="node">
<title>Node1</title>
<g id="a_Node000001"><a xlink:title=" ">
<polygon fill="#999999" stroke="#666666" points="131,-99 0,-99 0,-69 131,-69 131,-99"/>
<text text-anchor="start" x="8" y="-87" font-family="Helvetica,sans-Serif" font-size="10.00">AP_BattMonitor_SMBus</text>
<text text-anchor="middle" x="65.5" y="-76" font-family="Helvetica,sans-Serif" font-size="10.00">::read_temp</text>
</a>
</g>
</g>
<!-- Node2 -->
<g id="Node000002" class="node">
<title>Node2</title>
<g id="a_Node000002"><a xlink:href="namespaceAP__HAL.html#a77dffbb18891996280308e21316ec186" target="_top" xlink:title=" ">
<polygon fill="white" stroke="#666666" points="276,-115.5 189,-115.5 189,-96.5 276,-96.5 276,-115.5"/>
<text text-anchor="middle" x="232.5" y="-103.5" font-family="Helvetica,sans-Serif" font-size="10.00">AP_HAL::millis</text>
</a>
</g>
</g>
<!-- Node1&#45;&gt;Node2 -->
<g id="edge1_Node000001_Node000002" class="edge">
<title>Node1&#45;&gt;Node2</title>
<g id="a_edge1_Node000001_Node000002"><a xlink:title=" ">
<path fill="none" stroke="#63b8ff" d="M131.24,-92.63C146.94,-94.72 163.54,-96.94 178.61,-98.95"/>
<polygon fill="#63b8ff" stroke="#63b8ff" points="178.4,-102.45 188.78,-100.3 179.33,-95.51 178.4,-102.45"/>
</a>
</g>
</g>
<!-- Node9 -->
<g id="Node000009" class="node">
<title>Node9</title>
<g id="a_Node000009"><a xlink:href="classAP__BattMonitor__SMBus.html#ac10f1791a37bbf796c42729b7540503d" target="_top" xlink:title=" ">
<polygon fill="white" stroke="#666666" points="298,-78 167,-78 167,-48 298,-48 298,-78"/>
<text text-anchor="start" x="175" y="-66" font-family="Helvetica,sans-Serif" font-size="10.00">AP_BattMonitor_SMBus</text>
<text text-anchor="middle" x="232.5" y="-55" font-family="Helvetica,sans-Serif" font-size="10.00">::read_word</text>
</a>
</g>
</g>
<!-- Node1&#45;&gt;Node9 -->
<g id="edge8_Node000001_Node000009" class="edge">
<title>Node1&#45;&gt;Node9</title>
<g id="a_edge8_Node000001_Node000009"><a xlink:title=" ">
<path fill="none" stroke="#63b8ff" d="M131.24,-75.76C139.67,-74.69 148.37,-73.58 156.95,-72.49"/>
<polygon fill="#63b8ff" stroke="#63b8ff" points="157.47,-75.95 166.95,-71.22 156.59,-69.01 157.47,-75.95"/>
</a>
</g>
</g>
<!-- Node3 -->
<g id="Node000003" class="node">
<title>Node3</title>
<g id="a_Node000003"><a xlink:href="hrt_8c.html#a1295f128f60d29874243b5733c4db025" target="_top" xlink:title=" ">
<polygon fill="white" stroke="#666666" points="436.5,-115.5 362.5,-115.5 362.5,-96.5 436.5,-96.5 436.5,-115.5"/>
<text text-anchor="middle" x="399.5" y="-103.5" font-family="Helvetica,sans-Serif" font-size="10.00">hrt_millis32</text>
</a>
</g>
</g>
<!-- Node2&#45;&gt;Node3 -->
<g id="edge2_Node000002_Node000003" class="edge">
<title>Node2&#45;&gt;Node3</title>
<g id="a_edge2_Node000002_Node000003"><a xlink:title=" ">
<path fill="none" stroke="#63b8ff" d="M276.42,-106C299.71,-106 328.52,-106 352.29,-106"/>
<polygon fill="#63b8ff" stroke="#63b8ff" points="352.49,-109.5 362.49,-106 352.49,-102.5 352.49,-109.5"/>
</a>
</g>
</g>
<!-- Node4 -->
<g id="Node000004" class="node">
<title>Node4</title>
<g id="a_Node000004"><a xlink:href="hrt_8c.html#a7dd7d90aadd8f76f26da7d5abfad6fe8" target="_top" xlink:title=" ">
<polygon fill="white" stroke="#666666" points="575,-115.5 501,-115.5 501,-96.5 575,-96.5 575,-115.5"/>
<text text-anchor="middle" x="538" y="-103.5" font-family="Helvetica,sans-Serif" font-size="10.00">hrt_millis64</text>
</a>
</g>
</g>
<!-- Node3&#45;&gt;Node4 -->
<g id="edge3_Node000003_Node000004" class="edge">
<title>Node3&#45;&gt;Node4</title>
<g id="a_edge3_Node000003_Node000004"><a xlink:title=" ">
<path fill="none" stroke="#63b8ff" d="M436.72,-106C453.23,-106 472.97,-106 490.55,-106"/>
<polygon fill="#63b8ff" stroke="#63b8ff" points="490.61,-109.5 500.61,-106 490.61,-102.5 490.61,-109.5"/>
</a>
</g>
</g>
<!-- Node5 -->
<g id="Node000005" class="node">
<title>Node5</title>
<g id="a_Node000005"><a xlink:href="hrt_8c.html#a152c3348a8e83f2dfe35b44cc2e30362" target="_top" xlink:title=" ">
<polygon fill="white" stroke="#666666" points="697,-134.5 617,-134.5 617,-115.5 697,-115.5 697,-134.5"/>
<text text-anchor="middle" x="657" y="-122.5" font-family="Helvetica,sans-Serif" font-size="10.00">hrt_micros64</text>
</a>
</g>
</g>
<!-- Node4&#45;&gt;Node5 -->
<g id="edge4_Node000004_Node000005" class="edge">
<title>Node4&#45;&gt;Node5</title>
<g id="a_edge4_Node000004_Node000005"><a xlink:title=" ">
<path fill="none" stroke="#63b8ff" d="M575.06,-111.86C585.03,-113.48 596.03,-115.26 606.62,-116.98"/>
<polygon fill="#63b8ff" stroke="#63b8ff" points="606.17,-120.45 616.6,-118.6 607.29,-113.54 606.17,-120.45"/>
</a>
</g>
</g>
<!-- Node8 -->
<g id="Node000008" class="node">
<title>Node8</title>
<g id="a_Node000008"><a xlink:href="div1000_8h.html#aece9e7f123414c41d0426fbadca097d8" target="_top" xlink:title=" ">
<polygon fill="white" stroke="#666666" points="703,-97.5 611,-97.5 611,-78.5 703,-78.5 703,-97.5"/>
<text text-anchor="middle" x="657" y="-85.5" font-family="Helvetica,sans-Serif" font-size="10.00">uint64_div1000</text>
</a>
</g>
</g>
<!-- Node4&#45;&gt;Node8 -->
<g id="edge7_Node000004_Node000008" class="edge">
<title>Node4&#45;&gt;Node8</title>
<g id="a_edge7_Node000004_Node000008"><a xlink:title=" ">
<path fill="none" stroke="#63b8ff" d="M575.06,-100.45C583.17,-99.21 591.95,-97.85 600.64,-96.52"/>
<polygon fill="#63b8ff" stroke="#63b8ff" points="601.41,-99.94 610.76,-94.96 600.34,-93.02 601.41,-99.94"/>
</a>
</g>
</g>
<!-- Node6 -->
<g id="Node000006" class="node">
<title>Node6</title>
<g id="a_Node000006"><a xlink:href="hrt_8c.html#a5b4ffc7ff86bd5b893c4a98834e80200" target="_top" xlink:title=" ">
<polygon fill="white" stroke="#666666" points="822,-153.5 739,-153.5 739,-134.5 822,-134.5 822,-153.5"/>
<text text-anchor="middle" x="780.5" y="-141.5" font-family="Helvetica,sans-Serif" font-size="10.00">hrt_micros64I</text>
</a>
</g>
</g>
<!-- Node5&#45;&gt;Node6 -->
<g id="edge5_Node000005_Node000006" class="edge">
<title>Node5&#45;&gt;Node6</title>
<g id="a_edge5_Node000005_Node000006"><a xlink:title=" ">
<path fill="none" stroke="#63b8ff" d="M697.11,-131.12C707.21,-132.69 718.22,-134.42 728.81,-136.07"/>
<polygon fill="#63b8ff" stroke="#63b8ff" points="728.37,-139.55 738.79,-137.63 729.45,-132.63 728.37,-139.55"/>
</a>
</g>
</g>
<!-- Node7 -->
<g id="Node000007" class="node">
<title>Node7</title>
<g id="a_Node000007"><a xlink:href="hrt_8c.html#a723fef85be7bacb834af35445a891c18" target="_top" xlink:title=" ">
<polygon fill="white" stroke="#666666" points="811.5,-116.5 749.5,-116.5 749.5,-97.5 811.5,-97.5 811.5,-116.5"/>
<text text-anchor="middle" x="780.5" y="-104.5" font-family="Helvetica,sans-Serif" font-size="10.00">is_locked</text>
</a>
</g>
</g>
<!-- Node5&#45;&gt;Node7 -->
<g id="edge6_Node000005_Node000007" class="edge">
<title>Node5&#45;&gt;Node7</title>
<g id="a_edge6_Node000005_Node000007"><a xlink:title=" ">
<path fill="none" stroke="#63b8ff" d="M697.11,-119.21C710.6,-117.21 725.73,-114.97 739.3,-112.96"/>
<polygon fill="#63b8ff" stroke="#63b8ff" points="739.95,-116.4 749.32,-111.47 738.92,-109.47 739.95,-116.4"/>
</a>
</g>
</g>
<!-- Node10 -->
<g id="Node000010" class="node">
<title>Node10</title>
<g id="a_Node000010"><a xlink:href="classAP__BattMonitor__SMBus.html#a2c925254f4b6953855c088faa0cd7421" target="_top" xlink:title="get_PEC &#45; calculate packet error correction code of buffer">
<polygon fill="white" stroke="#666666" points="465,-78 334,-78 334,-48 465,-48 465,-78"/>
<text text-anchor="start" x="342" y="-66" font-family="Helvetica,sans-Serif" font-size="10.00">AP_BattMonitor_SMBus</text>
<text text-anchor="middle" x="399.5" y="-55" font-family="Helvetica,sans-Serif" font-size="10.00">::get_PEC</text>
</a>
</g>
</g>
<!-- Node9&#45;&gt;Node10 -->
<g id="edge9_Node000009_Node000010" class="edge">
<title>Node9&#45;&gt;Node10</title>
<g id="a_edge9_Node000009_Node000010"><a xlink:title=" ">
<path fill="none" stroke="#63b8ff" d="M298.24,-63C306.58,-63 315.18,-63 323.67,-63"/>
<polygon fill="#63b8ff" stroke="#63b8ff" points="323.95,-66.5 333.95,-63 323.95,-59.5 323.95,-66.5"/>
</a>
</g>
</g>
<!-- Node11 -->
<g id="Node000011" class="node">
<title>Node11</title>
<g id="a_Node000011"><a xlink:href="classAP__HAL_1_1Device.html#a66215f964cfb5c7421effdb88a749550" target="_top" xlink:title=" ">
<polygon fill="white" stroke="#666666" points="460.5,-30 338.5,-30 338.5,0 460.5,0 460.5,-30"/>
<text text-anchor="start" x="346.5" y="-18" font-family="Helvetica,sans-Serif" font-size="10.00">AP_HAL::Device::read</text>
<text text-anchor="middle" x="399.5" y="-7" font-family="Helvetica,sans-Serif" font-size="10.00">_registers</text>
</a>
</g>
</g>
<!-- Node9&#45;&gt;Node11 -->
<g id="edge10_Node000009_Node000011" class="edge">
<title>Node9&#45;&gt;Node11</title>
<g id="a_edge10_Node000009_Node000011"><a xlink:title=" ">
<path fill="none" stroke="#63b8ff" d="M285.25,-47.94C301.69,-43.16 320.02,-37.83 337.07,-32.87"/>
<polygon fill="#63b8ff" stroke="#63b8ff" points="338.31,-36.16 346.93,-30 336.35,-29.44 338.31,-36.16"/>
</a>
</g>
</g>
</g>
</svg>
