<?xml version="1.0" encoding="UTF-8" standalone="no"?>
<!DOCTYPE svg PUBLIC "-//W3C//DTD SVG 1.1//EN"
 "http://www.w3.org/Graphics/SVG/1.1/DTD/svg11.dtd">
<!-- Generated by graphviz version 2.43.0 (0)
 -->
<!-- Title: AP_MotorsMatrix::get_motor_mask Pages: 1 -->
<!--zoomable 175 -->

<svg id="main" version="1.1" xmlns="http://www.w3.org/2000/svg" xmlns:xlink="http://www.w3.org/1999/xlink" xml:space="preserve" onload="init(evt)">
<style type="text/css"><![CDATA[
.node, .edge {opacity: 0.7;}
.node.selected, .edge.selected {opacity: 1;}
.edge:hover path { stroke: red; }
.edge:hover polygon { stroke: red; fill: red; }
]]></style>

<defs>
  <circle id="rim" cx="0" cy="0" r="7"/>
  <circle id="rim2" cx="0" cy="0" r="3.5"/>
  <g id="zoomPlus">
    <use xlink:href="#rim" fill="#404040"><set attributeName="fill" to="#808080" begin="zoomplus.mouseover" end="zoomplus.mouseout"/></use>
    <path d="M-4,0h8M0,-4v8" fill="none" stroke="white" stroke-width="1.5" pointer-events="none"/>
  </g>
  <g id="zoomMin">
    <use xlink:href="#rim" fill="#404040"><set attributeName="fill" to="#808080" begin="zoomminus.mouseover" end="zoomminus.mouseout"/></use>
    <path d="M-4,0h8" fill="none" stroke="white" stroke-width="1.5" pointer-events="none"/>
  </g>
  <g id="arrowUp" transform="translate(30 24)">
    <use xlink:href="#rim"/>
    <path pointer-events="none" fill="none" stroke="white" stroke-width="1.5" d="M0,-3.0v7 M-2.5,-0.5L0,-3.0L2.5,-0.5"/>
  </g>
  <g id="arrowRight" transform="rotate(90) translate(36 -43)">
    <use xlink:href="#rim"/>
    <path pointer-events="none" fill="none" stroke="white" stroke-width="1.5" d="M0,-3.0v7 M-2.5,-0.5L0,-3.0L2.5,-0.5"/>
  </g>
  <g id="arrowDown" transform="rotate(180) translate(-30 -48)">
    <use xlink:href="#rim"/>
    <path pointer-events="none" fill="none" stroke="white" stroke-width="1.5" d="M0,-3.0v7 M-2.5,-0.5L0,-3.0L2.5,-0.5"/>
  </g>
  <g id="arrowLeft" transform="rotate(270) translate(-36 17)">
    <use xlink:href="#rim"/>
    <path pointer-events="none" fill="none" stroke="white" stroke-width="1.5" d="M0,-3.0v7 M-2.5,-0.5L0,-3.0L2.5,-0.5"/>
  </g>
  <g id="resetDef">
    <use xlink:href="#rim2" fill="#404040"><set attributeName="fill" to="#808080" begin="reset.mouseover" end="reset.mouseout"/></use>
  </g>
</defs>
<script type="application/ecmascript">
var viewWidth = 989;
var viewHeight = 175;
var sectionId = 'dynsection-17';
</script>
<script type="application/ecmascript" xlink:href="svg.min.js"/>
<svg id="graph" class="graph">
<g id="viewport">
<title>AP_MotorsMatrix::get_motor_mask</title>
<!-- Node1 -->
<g id="Node000001" class="node">
<title>Node1</title>
<g id="a_Node000001"><a xlink:title=" ">
<polygon fill="#999999" stroke="#666666" points="122,-54 0,-54 0,-24 122,-24 122,-54"/>
<text text-anchor="start" x="8" y="-42" font-family="Helvetica,sans-Serif" font-size="10.00">AP_MotorsMatrix::get</text>
<text text-anchor="middle" x="61" y="-31" font-family="Helvetica,sans-Serif" font-size="10.00">_motor_mask</text>
</a>
</g>
</g>
<!-- Node2 -->
<g id="Node000002" class="node">
<title>Node2</title>
<g id="a_Node000002"><a xlink:href="classAP__MotorsMulticopter.html#afe35b9ee6494ddb709d082d96f019051" target="_top" xlink:title=" ">
<polygon fill="white" stroke="#666666" points="288,-78 164,-78 164,-48 288,-48 288,-78"/>
<text text-anchor="start" x="172" y="-66" font-family="Helvetica,sans-Serif" font-size="10.00">AP_MotorsMulticopter</text>
<text text-anchor="middle" x="226" y="-55" font-family="Helvetica,sans-Serif" font-size="10.00">::get_motor_mask</text>
</a>
</g>
</g>
<!-- Node1&#45;&gt;Node2 -->
<g id="edge1_Node000001_Node000002" class="edge">
<title>Node1&#45;&gt;Node2</title>
<g id="a_edge1_Node000001_Node000002"><a xlink:title=" ">
<path fill="none" stroke="#63b8ff" d="M122.23,-47.87C132.54,-49.39 143.34,-50.98 153.9,-52.53"/>
<polygon fill="#63b8ff" stroke="#63b8ff" points="153.52,-56.01 163.93,-54.01 154.54,-49.09 153.52,-56.01"/>
</a>
</g>
</g>
<!-- Node11 -->
<g id="Node000011" class="node">
<title>Node11</title>
<g id="a_Node000011"><a xlink:href="classAP__Motors.html#aa280993d255dc9ec475c6ffbb9f3a7a8" target="_top" xlink:title=" ">
<polygon fill="white" stroke="#666666" points="294,-30 158,-30 158,0 294,0 294,-30"/>
<text text-anchor="start" x="166" y="-18" font-family="Helvetica,sans-Serif" font-size="10.00">AP_Motors::motor_mask</text>
<text text-anchor="middle" x="226" y="-7" font-family="Helvetica,sans-Serif" font-size="10.00">_to_srv_channel_mask</text>
</a>
</g>
</g>
<!-- Node1&#45;&gt;Node11 -->
<g id="edge11_Node000001_Node000011" class="edge">
<title>Node1&#45;&gt;Node11</title>
<g id="a_edge11_Node000001_Node000011"><a xlink:title=" ">
<path fill="none" stroke="#63b8ff" d="M122.23,-30.13C130.58,-28.9 139.24,-27.63 147.84,-26.36"/>
<polygon fill="#63b8ff" stroke="#63b8ff" points="148.49,-29.8 157.88,-24.88 147.48,-22.88 148.49,-29.8"/>
</a>
</g>
</g>
<!-- Node3 -->
<g id="Node000003" class="node">
<title>Node3</title>
<g id="a_Node000003"><a xlink:href="classSRV__Channels.html#acdb0bd5d2defc4c7bcb51137f15e289d" target="_top" xlink:title=" ">
<polygon fill="white" stroke="#666666" points="475,-78 330,-78 330,-48 475,-48 475,-78"/>
<text text-anchor="start" x="338" y="-66" font-family="Helvetica,sans-Serif" font-size="10.00">SRV_Channels::get_output</text>
<text text-anchor="middle" x="402.5" y="-55" font-family="Helvetica,sans-Serif" font-size="10.00">_channel_mask</text>
</a>
</g>
</g>
<!-- Node2&#45;&gt;Node3 -->
<g id="edge2_Node000002_Node000003" class="edge">
<title>Node2&#45;&gt;Node3</title>
<g id="a_edge2_Node000002_Node000003"><a xlink:title=" ">
<path fill="none" stroke="#63b8ff" d="M288.03,-63C298.24,-63 308.97,-63 319.59,-63"/>
<polygon fill="#63b8ff" stroke="#63b8ff" points="319.73,-66.5 329.73,-63 319.73,-59.5 319.73,-66.5"/>
</a>
</g>
</g>
<!-- Node4 -->
<g id="Node000004" class="node">
<title>Node4</title>
<g id="a_Node000004"><a xlink:href="classSRV__Channels.html#a2bce803f8a1de705be47d8cf7a46584c" target="_top" xlink:title="setup the output range types of all functions">
<polygon fill="white" stroke="#666666" points="637,-111 511,-111 511,-81 637,-81 637,-111"/>
<text text-anchor="start" x="519" y="-99" font-family="Helvetica,sans-Serif" font-size="10.00">SRV_Channels::update</text>
<text text-anchor="middle" x="574" y="-88" font-family="Helvetica,sans-Serif" font-size="10.00">_aux_servo_function</text>
</a>
</g>
</g>
<!-- Node3&#45;&gt;Node4 -->
<g id="edge3_Node000003_Node000004" class="edge">
<title>Node3&#45;&gt;Node4</title>
<g id="a_edge3_Node000003_Node000004"><a xlink:title=" ">
<path fill="none" stroke="#63b8ff" d="M475.38,-76.99C483.88,-78.65 492.55,-80.34 501.05,-81.99"/>
<polygon fill="#63b8ff" stroke="#63b8ff" points="500.44,-85.44 510.92,-83.91 501.77,-78.57 500.44,-85.44"/>
</a>
</g>
</g>
<!-- Node10 -->
<g id="Node000010" class="node">
<title>Node10</title>
<g id="a_Node000010"><a xlink:href="classSRV__Channel.html#a6513c5f2557abb57749eda85c632e213" target="_top" xlink:title=" ">
<polygon fill="white" stroke="#666666" points="629.5,-45 518.5,-45 518.5,-15 629.5,-15 629.5,-45"/>
<text text-anchor="start" x="526.5" y="-33" font-family="Helvetica,sans-Serif" font-size="10.00">SRV_Channel::valid</text>
<text text-anchor="middle" x="574" y="-22" font-family="Helvetica,sans-Serif" font-size="10.00">_function</text>
</a>
</g>
</g>
<!-- Node3&#45;&gt;Node10 -->
<g id="edge9_Node000003_Node000010" class="edge">
<title>Node3&#45;&gt;Node10</title>
<g id="a_edge9_Node000003_Node000010"><a xlink:title=" ">
<path fill="none" stroke="#63b8ff" d="M475.38,-49.01C486.44,-46.85 497.79,-44.64 508.66,-42.53"/>
<polygon fill="#63b8ff" stroke="#63b8ff" points="509.35,-45.96 518.49,-40.61 508.01,-39.09 509.35,-45.96"/>
</a>
</g>
</g>
<!-- Node5 -->
<g id="Node000005" class="node">
<title>Node5</title>
<g id="a_Node000005"><a xlink:href="classSRV__Channel.html#aadaab2dbeb62aa6f7b42eb39bf4f2430" target="_top" xlink:title=" ">
<polygon fill="white" stroke="#666666" points="810,-154 673,-154 673,-124 810,-124 810,-154"/>
<text text-anchor="start" x="681" y="-142" font-family="Helvetica,sans-Serif" font-size="10.00">SRV_Channel::aux_servo</text>
<text text-anchor="middle" x="741.5" y="-131" font-family="Helvetica,sans-Serif" font-size="10.00">_function_setup</text>
</a>
</g>
</g>
<!-- Node4&#45;&gt;Node5 -->
<g id="edge4_Node000004_Node000005" class="edge">
<title>Node4&#45;&gt;Node5</title>
<g id="a_edge4_Node000004_Node000005"><a xlink:title=" ">
<path fill="none" stroke="#63b8ff" d="M632.88,-111.04C645.73,-114.38 659.47,-117.95 672.67,-121.38"/>
<polygon fill="#63b8ff" stroke="#63b8ff" points="672.09,-124.84 682.65,-123.97 673.85,-118.07 672.09,-124.84"/>
</a>
</g>
</g>
<!-- Node8 -->
<g id="Node000008" class="node">
<title>Node8</title>
<g id="a_Node000008"><a xlink:href="classBitmask.html#ab753bfb6058f8a60e523c949802f3823" target="_top" xlink:title=" ">
<polygon fill="white" stroke="#666666" points="791,-105.5 692,-105.5 692,-86.5 791,-86.5 791,-105.5"/>
<text text-anchor="middle" x="741.5" y="-93.5" font-family="Helvetica,sans-Serif" font-size="10.00">Bitmask::clearall</text>
</a>
</g>
</g>
<!-- Node4&#45;&gt;Node8 -->
<g id="edge7_Node000004_Node000008" class="edge">
<title>Node4&#45;&gt;Node8</title>
<g id="a_edge7_Node000004_Node000008"><a xlink:title=" ">
<path fill="none" stroke="#63b8ff" d="M637.1,-96C651.64,-96 667.09,-96 681.49,-96"/>
<polygon fill="#63b8ff" stroke="#63b8ff" points="681.76,-99.5 691.76,-96 681.76,-92.5 681.76,-99.5"/>
</a>
</g>
</g>
<!-- Node9 -->
<g id="Node000009" class="node">
<title>Node9</title>
<g id="a_Node000009"><a xlink:href="classBitmask.html#a6d942e61abc55c452b001b11dadf8a18" target="_top" xlink:title=" ">
<polygon fill="white" stroke="#666666" points="780.5,-68.5 702.5,-68.5 702.5,-49.5 780.5,-49.5 780.5,-68.5"/>
<text text-anchor="middle" x="741.5" y="-56.5" font-family="Helvetica,sans-Serif" font-size="10.00">Bitmask::set</text>
</a>
</g>
</g>
<!-- Node4&#45;&gt;Node9 -->
<g id="edge8_Node000004_Node000009" class="edge">
<title>Node4&#45;&gt;Node9</title>
<g id="a_edge8_Node000004_Node000009"><a xlink:title=" ">
<path fill="none" stroke="#63b8ff" d="M637.1,-82.12C655.35,-78.04 675.02,-73.64 692.27,-69.78"/>
<polygon fill="#63b8ff" stroke="#63b8ff" points="693.11,-73.18 702.11,-67.58 691.59,-66.35 693.11,-73.18"/>
</a>
</g>
</g>
<!-- Node6 -->
<g id="Node000006" class="node">
<title>Node6</title>
<g id="a_Node000006"><a xlink:href="classSRV__Channel.html#aaf3193d70a486747bfbc9c6398cff261" target="_top" xlink:title=" ">
<polygon fill="white" stroke="#666666" points="980.5,-166.5 846.5,-166.5 846.5,-147.5 980.5,-147.5 980.5,-166.5"/>
<text text-anchor="middle" x="913.5" y="-154.5" font-family="Helvetica,sans-Serif" font-size="10.00">SRV_Channel::set_angle</text>
</a>
</g>
</g>
<!-- Node5&#45;&gt;Node6 -->
<g id="edge5_Node000005_Node000006" class="edge">
<title>Node5&#45;&gt;Node6</title>
<g id="a_edge5_Node000005_Node000006"><a xlink:title=" ">
<path fill="none" stroke="#63b8ff" d="M810.18,-146.17C818.76,-147.07 827.59,-148.01 836.3,-148.93"/>
<polygon fill="#63b8ff" stroke="#63b8ff" points="836.13,-152.43 846.44,-150.01 836.87,-145.47 836.13,-152.43"/>
</a>
</g>
</g>
<!-- Node7 -->
<g id="Node000007" class="node">
<title>Node7</title>
<g id="a_Node000007"><a xlink:href="classSRV__Channel.html#a04f5baeec785c9f696798fa4a6c7d6ce" target="_top" xlink:title=" ">
<polygon fill="white" stroke="#666666" points="981,-129.5 846,-129.5 846,-110.5 981,-110.5 981,-129.5"/>
<text text-anchor="middle" x="913.5" y="-117.5" font-family="Helvetica,sans-Serif" font-size="10.00">SRV_Channel::set_range</text>
</a>
</g>
</g>
<!-- Node5&#45;&gt;Node7 -->
<g id="edge6_Node000005_Node000007" class="edge">
<title>Node5&#45;&gt;Node7</title>
<g id="a_edge6_Node000005_Node000007"><a xlink:title=" ">
<path fill="none" stroke="#63b8ff" d="M810.18,-131.44C818.63,-130.49 827.32,-129.52 835.9,-128.56"/>
<polygon fill="#63b8ff" stroke="#63b8ff" points="836.34,-132.03 845.89,-127.44 835.56,-125.08 836.34,-132.03"/>
</a>
</g>
</g>
<!-- Node10&#45;&gt;Node10 -->
<g id="edge10_Node000010_Node000010" class="edge">
<title>Node10&#45;&gt;Node10</title>
<g id="a_edge10_Node000010_Node000010"><a xlink:title=" ">
<path fill="none" stroke="#63b8ff" d="M544.82,-45.28C538.34,-54.41 548.06,-63 574,-63 589.4,-63 599.09,-59.97 603.06,-55.6"/>
<polygon fill="#63b8ff" stroke="#63b8ff" points="606.56,-55.32 603.18,-45.28 599.56,-55.23 606.56,-55.32"/>
</a>
</g>
</g>
<!-- Node11&#45;&gt;Node3 -->
<g id="edge13_Node000011_Node000003" class="edge">
<title>Node11&#45;&gt;Node3</title>
<g id="a_edge13_Node000011_Node000003"><a xlink:title=" ">
<path fill="none" stroke="#63b8ff" d="M281.73,-30.06C299.36,-34.9 319.04,-40.32 337.29,-45.34"/>
<polygon fill="#63b8ff" stroke="#63b8ff" points="336.39,-48.72 346.96,-48 338.25,-41.97 336.39,-48.72"/>
</a>
</g>
</g>
<!-- Node12 -->
<g id="Node000012" class="node">
<title>Node12</title>
<g id="a_Node000012"><a xlink:href="classSRV__Channels.html#acab9e1aba9fcbde6e598169af5b3181f" target="_top" xlink:title=" ">
<polygon fill="white" stroke="#666666" points="474,-30 331,-30 331,0 474,0 474,-30"/>
<text text-anchor="start" x="339" y="-18" font-family="Helvetica,sans-Serif" font-size="10.00">SRV_Channels::get_motor</text>
<text text-anchor="middle" x="402.5" y="-7" font-family="Helvetica,sans-Serif" font-size="10.00">_function</text>
</a>
</g>
</g>
<!-- Node11&#45;&gt;Node12 -->
<g id="edge12_Node000011_Node000012" class="edge">
<title>Node11&#45;&gt;Node12</title>
<g id="a_edge12_Node000011_Node000012"><a xlink:title=" ">
<path fill="none" stroke="#63b8ff" d="M294.47,-15C303.01,-15 311.83,-15 320.56,-15"/>
<polygon fill="#63b8ff" stroke="#63b8ff" points="320.75,-18.5 330.75,-15 320.75,-11.5 320.75,-18.5"/>
</a>
</g>
</g>
</g>
</svg>

<g id="navigator" transform="translate(0 0)" fill="#404254">
  <rect fill="#f2f5e9" fill-opacity="0.5" stroke="#606060" stroke-width=".5" x="0" y="0" width="60" height="60"/>
  <use id="zoomplus" xlink:href="#zoomPlus" x="17" y="9" onmousedown="handleZoom(evt,'in')"/>
  <use id="zoomminus" xlink:href="#zoomMin" x="42" y="9" onmousedown="handleZoom(evt,'out')"/>
  <use id="reset" xlink:href="#resetDef" x="30" y="36" onmousedown="handleReset()"/>
   <use id="arrowup" xlink:href="#arrowUp" x="0" y="0" onmousedown="handlePan(0,-1)"/>
  <use id="arrowright" xlink:href="#arrowRight" x="0" y="0" onmousedown="handlePan(1,0)"/>
  <use id="arrowdown" xlink:href="#arrowDown" x="0" y="0" onmousedown="handlePan(0,1)"/>
  <use id="arrowleft" xlink:href="#arrowLeft" x="0" y="0" onmousedown="handlePan(-1,0)"/>
</g>
<svg viewBox="0 0 15 15" width="100%" height="30px" preserveAspectRatio="xMaxYMin meet">
 <g id="arrow_out" transform="scale(0.3 0.3)">
  <a xlink:href="classAP__MotorsMatrix_a229c3d85c942ef90d49213551fc9bd90_cgraph_org.svg" target="_base">
   <rect id="button" ry="5" rx="5" y="6" x="6" height="38" width="38"
        fill="#f2f5e9" fill-opacity="0.5" stroke="#606060" stroke-width="1.0"/>
   <path id="arrow"
     d="M 11.500037,31.436501 C 11.940474,20.09759 22.043105,11.32322 32.158766,21.979434 L 37.068811,17.246167 C 37.068811,17.246167 37.088388,32 37.088388,32 L 22.160133,31.978069 C 22.160133,31.978069 26.997745,27.140456 26.997745,27.140456 C 18.528582,18.264221 13.291696,25.230495 11.500037,31.436501 z"
     style="fill:#404040;"/>
  </a>
 </g>
</svg>

<style type='text/css'>
<![CDATA[
[data-mouse-over-selected='false'] { opacity: 0.7; }
[data-mouse-over-selected='true']  { opacity: 1.0; }
]]>
</style>
<script type="application/ecmascript"><![CDATA[
document.addEventListener('DOMContentLoaded', (event) => {
  highlightEdges();
  highlightAdjacentNodes();
});
]]></script>
</svg>
