<?xml version="1.0" encoding="UTF-8" standalone="no"?>
<!DOCTYPE svg PUBLIC "-//W3C//DTD SVG 1.1//EN"
 "http://www.w3.org/Graphics/SVG/1.1/DTD/svg11.dtd">
<!-- Generated by graphviz version 2.43.0 (0)
 -->
<!-- Title: AP_WheelEncoder_SITL_Quadrature Pages: 1 -->
<svg width="566pt" height="184pt"
 viewBox="0.00 0.00 565.50 184.00" xmlns="http://www.w3.org/2000/svg" xmlns:xlink="http://www.w3.org/1999/xlink">
<g id="graph0" class="graph" transform="scale(1 1) rotate(0) translate(4 180)">
<title>AP_WheelEncoder_SITL_Quadrature</title>
<!-- Node1 -->
<g id="Node000001" class="node">
<title>Node1</title>
<g id="a_Node000001"><a xlink:title=" ">
<polygon fill="#999999" stroke="#666666" points="134.5,-30 4.5,-30 4.5,0 134.5,0 134.5,-30"/>
<text text-anchor="start" x="12.5" y="-18" font-family="Helvetica,sans-Serif" font-size="10.00">AP_WheelEncoder_SITL</text>
<text text-anchor="middle" x="69.5" y="-7" font-family="Helvetica,sans-Serif" font-size="10.00">_Quadrature</text>
</a>
</g>
</g>
<!-- Node2 -->
<g id="Node000002" class="node">
<title>Node2</title>
<g id="a_Node000002"><a xlink:href="classAP__WheelEncoder__Backend.html" target="_top" xlink:title=" ">
<polygon fill="white" stroke="#666666" points="151,-97.5 0,-97.5 0,-78.5 151,-78.5 151,-97.5"/>
<text text-anchor="middle" x="75.5" y="-85.5" font-family="Helvetica,sans-Serif" font-size="10.00">AP_WheelEncoder_Backend</text>
</a>
</g>
</g>
<!-- Node2&#45;&gt;Node1 -->
<g id="edge1_Node000001_Node000002" class="edge">
<title>Node2&#45;&gt;Node1</title>
<g id="a_edge1_Node000001_Node000002"><a xlink:title=" ">
<path fill="none" stroke="#63b8ff" d="M73.9,-68.1C72.9,-56.19 71.62,-41.06 70.7,-30.18"/>
<polygon fill="#63b8ff" stroke="#63b8ff" points="70.43,-68.62 74.76,-78.29 77.41,-68.03 70.43,-68.62"/>
</a>
</g>
</g>
<!-- Node3 -->
<g id="Node000003" class="node">
<title>Node3</title>
<g id="a_Node000003"><a xlink:href="classAP__WheelEncoder.html" target="_top" xlink:title=" ">
<polygon fill="white" stroke="#666666" points="287.5,-24.5 183.5,-24.5 183.5,-5.5 287.5,-5.5 287.5,-24.5"/>
<text text-anchor="middle" x="235.5" y="-12.5" font-family="Helvetica,sans-Serif" font-size="10.00">AP_WheelEncoder</text>
</a>
</g>
</g>
<!-- Node2&#45;&gt;Node3 -->
<g id="edge6_Node000003_Node000002" class="edge">
<title>Node2&#45;&gt;Node3</title>
<g id="a_edge6_Node000003_Node000002"><a xlink:title=" ">
<path fill="none" stroke="#9a32cd" stroke-dasharray="5,2" d="M82.67,-69.22C86.58,-61.62 92.15,-53.31 99.5,-48 112.97,-38.28 150.98,-29.8 183.39,-24.01"/>
<polygon fill="#9a32cd" stroke="#9a32cd" points="79.42,-67.91 78.47,-78.47 85.8,-70.81 79.42,-67.91"/>
</a>
</g>
<text text-anchor="middle" x="118" y="-51" font-family="Helvetica,sans-Serif" font-size="10.00" fill="grey"> drivers</text>
</g>
<!-- Node3&#45;&gt;Node2 -->
<g id="edge2_Node000002_Node000003" class="edge">
<title>Node3&#45;&gt;Node2</title>
<g id="a_edge2_Node000002_Node000003"><a xlink:title=" ">
<path fill="none" stroke="#9a32cd" stroke-dasharray="5,2" d="M207.75,-28.72C188.84,-37.35 163.2,-48.97 140.5,-59 125.55,-65.6 108.59,-72.9 95.74,-78.39"/>
<polygon fill="#9a32cd" stroke="#9a32cd" points="209.34,-31.84 216.98,-24.5 206.43,-25.48 209.34,-31.84"/>
</a>
</g>
<text text-anchor="middle" x="189.5" y="-51" font-family="Helvetica,sans-Serif" font-size="10.00" fill="grey"> _frontend</text>
</g>
<!-- Node3&#45;&gt;Node3 -->
<g id="edge8_Node000003_Node000003" class="edge">
<title>Node3&#45;&gt;Node3</title>
<g id="a_edge8_Node000003_Node000003"><a xlink:title=" ">
<path fill="none" stroke="#9a32cd" stroke-dasharray="5,2" d="M297.9,-20.33C302.61,-19.14 305.5,-17.37 305.5,-15 305.5,-11.21 298.09,-8.94 287.7,-8.17"/>
<polygon fill="#9a32cd" stroke="#9a32cd" points="297.09,-16.91 287.7,-21.83 298.11,-23.84 297.09,-16.91"/>
</a>
</g>
<text text-anchor="middle" x="332.5" y="-12.5" font-family="Helvetica,sans-Serif" font-size="10.00" fill="grey"> _singleton</text>
</g>
<!-- Node4 -->
<g id="Node000004" class="node">
<title>Node4</title>
<g id="a_Node000004"><a xlink:href="structAP__Param_1_1GroupInfo.html" target="_top" xlink:title=" ">
<polygon fill="white" stroke="#666666" points="288,-97.5 169,-97.5 169,-78.5 288,-78.5 288,-97.5"/>
<text text-anchor="middle" x="228.5" y="-85.5" font-family="Helvetica,sans-Serif" font-size="10.00">AP_Param::GroupInfo</text>
</a>
</g>
</g>
<!-- Node4&#45;&gt;Node3 -->
<g id="edge3_Node000003_Node000004" class="edge">
<title>Node4&#45;&gt;Node3</title>
<g id="a_edge3_Node000003_Node000004"><a xlink:title=" ">
<path fill="none" stroke="#9a32cd" stroke-dasharray="5,2" d="M230.35,-68.23C231.74,-54.16 233.57,-35.56 234.63,-24.78"/>
<polygon fill="#9a32cd" stroke="#9a32cd" points="226.86,-68 229.36,-78.29 233.82,-68.69 226.86,-68"/>
</a>
</g>
<text text-anchor="middle" x="254" y="-51" font-family="Helvetica,sans-Serif" font-size="10.00" fill="grey"> var_info</text>
</g>
<!-- Node4&#45;&gt;Node4 -->
<g id="edge4_Node000004_Node000004" class="edge">
<title>Node4&#45;&gt;Node4</title>
<g id="a_edge4_Node000004_Node000004"><a xlink:title=" ">
<path fill="none" stroke="#9a32cd" stroke-dasharray="5,2" d="M298.48,-92.58C303.16,-91.52 306,-89.99 306,-88 306,-84.81 298.73,-82.82 288.29,-82.02"/>
<polygon fill="#9a32cd" stroke="#9a32cd" points="297.72,-89.15 288.29,-93.98 298.67,-96.08 297.72,-89.15"/>
</a>
</g>
<text text-anchor="middle" x="341.5" y="-91" font-family="Helvetica,sans-Serif" font-size="10.00" fill="grey"> group_info</text>
<text text-anchor="middle" x="341.5" y="-80" font-family="Helvetica,sans-Serif" font-size="10.00" fill="grey">group_info_ptr</text>
</g>
<!-- Node5 -->
<g id="Node000005" class="node">
<title>Node5</title>
<g id="a_Node000005"><a xlink:href="structAP__WheelEncoder_1_1WheelEncoder__State.html" target="_top" xlink:title=" ">
<polygon fill="white" stroke="#666666" points="334.5,-176 154.5,-176 154.5,-146 334.5,-146 334.5,-176"/>
<text text-anchor="start" x="162.5" y="-164" font-family="Helvetica,sans-Serif" font-size="10.00">AP_WheelEncoder::WheelEncoder</text>
<text text-anchor="middle" x="244.5" y="-153" font-family="Helvetica,sans-Serif" font-size="10.00">_State</text>
</a>
</g>
</g>
<!-- Node5&#45;&gt;Node2 -->
<g id="edge9_Node000002_Node000005" class="edge">
<title>Node5&#45;&gt;Node2</title>
<g id="a_edge9_Node000002_Node000005"><a xlink:title=" ">
<path fill="none" stroke="#9a32cd" stroke-dasharray="5,2" d="M201.48,-141.93C167.68,-127.73 122.11,-108.58 96.06,-97.64"/>
<polygon fill="#9a32cd" stroke="#9a32cd" points="200.54,-145.33 211.11,-145.97 203.25,-138.87 200.54,-145.33"/>
</a>
</g>
<text text-anchor="middle" x="182.5" y="-120" font-family="Helvetica,sans-Serif" font-size="10.00" fill="grey"> _state</text>
</g>
<!-- Node5&#45;&gt;Node3 -->
<g id="edge5_Node000003_Node000005" class="edge">
<title>Node5&#45;&gt;Node3</title>
<g id="a_edge5_Node000003_Node000005"><a xlink:title=" ">
<path fill="none" stroke="#9a32cd" stroke-dasharray="5,2" d="M324.76,-143.13C367.79,-130.08 407.95,-108.8 386.5,-77 364.52,-44.42 321.89,-29.24 287.52,-22.16"/>
<polygon fill="#9a32cd" stroke="#9a32cd" points="323.62,-139.82 314.98,-145.95 325.56,-146.54 323.62,-139.82"/>
</a>
</g>
<text text-anchor="middle" x="405.5" y="-85.5" font-family="Helvetica,sans-Serif" font-size="10.00" fill="grey"> state</text>
</g>
<!-- Node6 -->
<g id="Node000006" class="node">
<title>Node6</title>
<g id="a_Node000006"><a xlink:href="classVector3.html" target="_top" xlink:title=" ">
<polygon fill="white" stroke="#666666" points="557.5,-97.5 459.5,-97.5 459.5,-78.5 557.5,-78.5 557.5,-97.5"/>
<text text-anchor="middle" x="508.5" y="-85.5" font-family="Helvetica,sans-Serif" font-size="10.00">Vector3&lt; float &gt;</text>
</a>
</g>
</g>
<!-- Node6&#45;&gt;Node3 -->
<g id="edge7_Node000003_Node000006" class="edge">
<title>Node6&#45;&gt;Node3</title>
<g id="a_edge7_Node000003_Node000006"><a xlink:title=" ">
<path fill="none" stroke="#9a32cd" stroke-dasharray="5,2" d="M484.78,-73.36C469.01,-64.86 447.58,-54.37 427.5,-48 381.43,-33.4 326.92,-25.13 287.78,-20.67"/>
<polygon fill="#9a32cd" stroke="#9a32cd" points="483.35,-76.57 493.8,-78.34 486.73,-70.45 483.35,-76.57"/>
</a>
</g>
<text text-anchor="middle" x="494.5" y="-51" font-family="Helvetica,sans-Serif" font-size="10.00" fill="grey"> pos_offset_zero</text>
</g>
</g>
</svg>
