<?xml version="1.0" encoding="UTF-8" standalone="no"?>
<!DOCTYPE svg PUBLIC "-//W3C//DTD SVG 1.1//EN"
 "http://www.w3.org/Graphics/SVG/1.1/DTD/svg11.dtd">
<!-- Generated by graphviz version 2.43.0 (0)
 -->
<!-- Title: NavEKF3::updateLaneSwitchPosResetData Pages: 1 -->
<svg width="696pt" height="311pt"
 viewBox="0.00 0.00 696.00 310.50" xmlns="http://www.w3.org/2000/svg" xmlns:xlink="http://www.w3.org/1999/xlink">
<g id="graph0" class="graph" transform="scale(1 1) rotate(0) translate(4 306.5)">
<title>NavEKF3::updateLaneSwitchPosResetData</title>
<!-- Node1 -->
<g id="Node000001" class="node">
<title>Node1</title>
<g id="a_Node000001"><a xlink:title=" ">
<polygon fill="#999999" stroke="#666666" points="156,-226.5 0,-226.5 0,-196.5 156,-196.5 156,-226.5"/>
<text text-anchor="start" x="8" y="-214.5" font-family="Helvetica,sans-Serif" font-size="10.00">NavEKF3::updateLaneSwitch</text>
<text text-anchor="middle" x="78" y="-203.5" font-family="Helvetica,sans-Serif" font-size="10.00">PosResetData</text>
</a>
</g>
</g>
<!-- Node2 -->
<g id="Node000002" class="node">
<title>Node2</title>
<g id="a_Node000002"><a xlink:href="classNavEKF3.html#a48b06963494d6987aa9b204276f354e3" target="_top" xlink:title=" ">
<polygon fill="white" stroke="#666666" points="339,-269.5 192,-269.5 192,-239.5 339,-239.5 339,-269.5"/>
<text text-anchor="start" x="200" y="-257.5" font-family="Helvetica,sans-Serif" font-size="10.00">NavEKF3::getLastPosNorth</text>
<text text-anchor="middle" x="265.5" y="-246.5" font-family="Helvetica,sans-Serif" font-size="10.00">EastReset</text>
</a>
</g>
</g>
<!-- Node1&#45;&gt;Node2 -->
<g id="edge1_Node000001_Node000002" class="edge">
<title>Node1&#45;&gt;Node2</title>
<g id="a_edge1_Node000001_Node000002"><a xlink:title=" ">
<path fill="none" stroke="#63b8ff" d="M143.88,-226.54C158.71,-229.98 174.58,-233.66 189.78,-237.18"/>
<polygon fill="#63b8ff" stroke="#63b8ff" points="189.13,-240.62 199.66,-239.47 190.71,-233.8 189.13,-240.62"/>
</a>
</g>
</g>
<!-- Node5 -->
<g id="Node000005" class="node">
<title>Node5</title>
<g id="a_Node000005"><a xlink:href="structVector2.html#a6b537328ae913e3e7267b539e7a4af92" target="_top" xlink:title=" ">
<polygon fill="white" stroke="#666666" points="488,-254 408,-254 408,-235 488,-235 488,-254"/>
<text text-anchor="middle" x="448" y="-242" font-family="Helvetica,sans-Serif" font-size="10.00">Vector2::zero</text>
</a>
</g>
</g>
<!-- Node1&#45;&gt;Node5 -->
<g id="edge17_Node000001_Node000005" class="edge">
<title>Node1&#45;&gt;Node5</title>
<g id="a_edge17_Node000001_Node000005"><a xlink:title=" ">
<path fill="none" stroke="#63b8ff" d="M156.18,-216C207.95,-219.31 277.65,-224.29 339,-230.5 358.28,-232.45 379.44,-235.09 397.88,-237.54"/>
<polygon fill="#63b8ff" stroke="#63b8ff" points="397.44,-241.01 407.82,-238.88 398.37,-234.08 397.44,-241.01"/>
</a>
</g>
</g>
<!-- Node6 -->
<g id="Node000006" class="node">
<title>Node6</title>
<g id="a_Node000006"><a xlink:href="classNavEKF3__core.html#af6c3f4076addbac86cceaba98bb38cbd" target="_top" xlink:title=" ">
<polygon fill="white" stroke="#666666" points="335.5,-162 195.5,-162 195.5,-143 335.5,-143 335.5,-162"/>
<text text-anchor="middle" x="265.5" y="-150" font-family="Helvetica,sans-Serif" font-size="10.00">NavEKF3_core::getPosNE</text>
</a>
</g>
</g>
<!-- Node1&#45;&gt;Node6 -->
<g id="edge5_Node000001_Node000006" class="edge">
<title>Node1&#45;&gt;Node6</title>
<g id="a_edge5_Node000001_Node000006"><a xlink:title=" ">
<path fill="none" stroke="#63b8ff" d="M126.29,-196.46C156.73,-186.78 195.84,-174.34 224.69,-165.16"/>
<polygon fill="#63b8ff" stroke="#63b8ff" points="225.97,-168.43 234.43,-162.06 223.84,-161.76 225.97,-168.43"/>
</a>
</g>
</g>
<!-- Node3 -->
<g id="Node000003" class="node">
<title>Node3</title>
<g id="a_Node000003"><a xlink:href="classNavEKF3__core.html#ada44d13b68ddfd4b28337d5e52921ce7" target="_top" xlink:title=" ">
<polygon fill="white" stroke="#666666" points="521,-302.5 375,-302.5 375,-272.5 521,-272.5 521,-302.5"/>
<text text-anchor="start" x="383" y="-290.5" font-family="Helvetica,sans-Serif" font-size="10.00">NavEKF3_core::getLastPos</text>
<text text-anchor="middle" x="448" y="-279.5" font-family="Helvetica,sans-Serif" font-size="10.00">NorthEastReset</text>
</a>
</g>
</g>
<!-- Node2&#45;&gt;Node3 -->
<g id="edge2_Node000002_Node000003" class="edge">
<title>Node2&#45;&gt;Node3</title>
<g id="a_edge2_Node000002_Node000003"><a xlink:title=" ">
<path fill="none" stroke="#63b8ff" d="M339.14,-267.78C347.59,-269.32 356.25,-270.91 364.81,-272.47"/>
<polygon fill="#63b8ff" stroke="#63b8ff" points="364.34,-275.95 374.81,-274.3 365.6,-269.06 364.34,-275.95"/>
</a>
</g>
</g>
<!-- Node2&#45;&gt;Node5 -->
<g id="edge4_Node000002_Node000005" class="edge">
<title>Node2&#45;&gt;Node5</title>
<g id="a_edge4_Node000002_Node000005"><a xlink:title=" ">
<path fill="none" stroke="#63b8ff" d="M339.14,-250.48C358.88,-249.38 379.8,-248.22 397.9,-247.22"/>
<polygon fill="#63b8ff" stroke="#63b8ff" points="398.13,-250.71 407.92,-246.66 397.75,-243.72 398.13,-250.71"/>
</a>
</g>
</g>
<!-- Node4 -->
<g id="Node000004" class="node">
<title>Node4</title>
<g id="a_Node000004"><a xlink:href="structVector2.html#ab0a4967c31a10beb0809d53997835326" target="_top" xlink:title=" ">
<polygon fill="white" stroke="#666666" points="668,-256 577,-256 577,-237 668,-237 668,-256"/>
<text text-anchor="middle" x="622.5" y="-244" font-family="Helvetica,sans-Serif" font-size="10.00">Vector2::tofloat</text>
</a>
</g>
</g>
<!-- Node3&#45;&gt;Node4 -->
<g id="edge3_Node000003_Node000004" class="edge">
<title>Node3&#45;&gt;Node4</title>
<g id="a_edge3_Node000003_Node000004"><a xlink:title=" ">
<path fill="none" stroke="#63b8ff" d="M512.25,-272.47C531.72,-267.84 552.88,-262.81 571.35,-258.42"/>
<polygon fill="#63b8ff" stroke="#63b8ff" points="572.38,-261.77 581.3,-256.05 570.76,-254.96 572.38,-261.77"/>
</a>
</g>
</g>
<!-- Node6&#45;&gt;Node4 -->
<g id="edge14_Node000006_Node000004" class="edge">
<title>Node6&#45;&gt;Node4</title>
<g id="a_edge14_Node000006_Node000004"><a xlink:title=" ">
<path fill="none" stroke="#63b8ff" d="M293.97,-162.01C315.8,-169.41 347.18,-179.7 375,-187.5 440.6,-205.9 517.02,-223.63 567.17,-234.76"/>
<polygon fill="#63b8ff" stroke="#63b8ff" points="566.63,-238.23 577.15,-236.97 568.14,-231.39 566.63,-238.23"/>
</a>
</g>
</g>
<!-- Node6&#45;&gt;Node5 -->
<g id="edge16_Node000006_Node000005" class="edge">
<title>Node6&#45;&gt;Node5</title>
<g id="a_edge16_Node000006_Node000005"><a xlink:title=" ">
<path fill="none" stroke="#63b8ff" d="M282.09,-162.1C296.8,-171.17 319.44,-185.18 339,-197.5 355.07,-207.62 357.86,-212.32 375,-220.5 383.83,-224.71 393.59,-228.5 403,-231.75"/>
<polygon fill="#63b8ff" stroke="#63b8ff" points="402.03,-235.12 412.62,-234.95 404.23,-228.47 402.03,-235.12"/>
</a>
</g>
</g>
<!-- Node7 -->
<g id="Node000007" class="node">
<title>Node7</title>
<g id="a_Node000007"><a xlink:href="classLocation.html#a6ec18899c41751a9646533494db2eb2f" target="_top" xlink:title=" ">
<polygon fill="white" stroke="#666666" points="511,-178.5 385,-178.5 385,-148.5 511,-148.5 511,-178.5"/>
<text text-anchor="start" x="393" y="-166.5" font-family="Helvetica,sans-Serif" font-size="10.00">Location::get_distance</text>
<text text-anchor="middle" x="448" y="-155.5" font-family="Helvetica,sans-Serif" font-size="10.00">_NE_ftype</text>
</a>
</g>
</g>
<!-- Node6&#45;&gt;Node7 -->
<g id="edge6_Node000006_Node000007" class="edge">
<title>Node6&#45;&gt;Node7</title>
<g id="a_edge6_Node000006_Node000007"><a xlink:title=" ">
<path fill="none" stroke="#63b8ff" d="M335.51,-156.71C348.31,-157.49 361.72,-158.3 374.61,-159.09"/>
<polygon fill="#63b8ff" stroke="#63b8ff" points="374.63,-162.6 384.83,-159.71 375.06,-155.61 374.63,-162.6"/>
</a>
</g>
</g>
<!-- Node10 -->
<g id="Node000010" class="node">
<title>Node10</title>
<g id="a_Node000010"><a xlink:href="classAP__DAL.html#a6bcff1cd1ed06210972de4d7afb8d950" target="_top" xlink:title=" ">
<polygon fill="white" stroke="#666666" points="486.5,-130 409.5,-130 409.5,-111 486.5,-111 486.5,-130"/>
<text text-anchor="middle" x="448" y="-118" font-family="Helvetica,sans-Serif" font-size="10.00">AP_DAL::gps</text>
</a>
</g>
</g>
<!-- Node6&#45;&gt;Node10 -->
<g id="edge9_Node000006_Node000010" class="edge">
<title>Node6&#45;&gt;Node10</title>
<g id="a_edge9_Node000006_Node000010"><a xlink:title=" ">
<path fill="none" stroke="#63b8ff" d="M320.17,-142.99C345.26,-138.54 374.9,-133.28 399.22,-128.97"/>
<polygon fill="#63b8ff" stroke="#63b8ff" points="400.05,-132.38 409.28,-127.19 398.82,-125.49 400.05,-132.38"/>
</a>
</g>
</g>
<!-- Node11 -->
<g id="Node000011" class="node">
<title>Node11</title>
<g id="a_Node000011"><a xlink:href="classAP__GPS.html#ab1da3f2cdc163164cfee43b3248821ed" target="_top" xlink:title=" ">
<polygon fill="white" stroke="#666666" points="497.5,-93 398.5,-93 398.5,-74 497.5,-74 497.5,-93"/>
<text text-anchor="middle" x="448" y="-81" font-family="Helvetica,sans-Serif" font-size="10.00">AP_GPS::location</text>
</a>
</g>
</g>
<!-- Node6&#45;&gt;Node11 -->
<g id="edge10_Node000006_Node000011" class="edge">
<title>Node6&#45;&gt;Node11</title>
<g id="a_edge10_Node000006_Node000011"><a xlink:title=" ">
<path fill="none" stroke="#63b8ff" d="M284.09,-142.92C305.19,-131.75 341.86,-113.3 375,-101.5 380.89,-99.4 387.14,-97.45 393.4,-95.67"/>
<polygon fill="#63b8ff" stroke="#63b8ff" points="394.46,-99.01 403.19,-93.01 392.62,-92.25 394.46,-99.01"/>
</a>
</g>
</g>
<!-- Node12 -->
<g id="Node000012" class="node">
<title>Node12</title>
<g id="a_Node000012"><a xlink:href="classAP__GPS.html#ac22b61d2e6cf0b6ff647173ea336de01" target="_top" xlink:title="Query GPS status.">
<polygon fill="white" stroke="#666666" points="493,-56 403,-56 403,-37 493,-37 493,-56"/>
<text text-anchor="middle" x="448" y="-44" font-family="Helvetica,sans-Serif" font-size="10.00">AP_GPS::status</text>
</a>
</g>
</g>
<!-- Node6&#45;&gt;Node12 -->
<g id="edge11_Node000006_Node000012" class="edge">
<title>Node6&#45;&gt;Node12</title>
<g id="a_edge11_Node000006_Node000012"><a xlink:title=" ">
<path fill="none" stroke="#63b8ff" d="M275.37,-142.93C292.72,-124.81 333.12,-85.42 375,-64.5 380.67,-61.67 386.83,-59.26 393.07,-57.21"/>
<polygon fill="#63b8ff" stroke="#63b8ff" points="394.3,-60.5 402.88,-54.29 392.3,-53.79 394.3,-60.5"/>
</a>
</g>
</g>
<!-- Node14 -->
<g id="Node000014" class="node">
<title>Node14</title>
<g id="a_Node000014"><a xlink:href="classVector3.html#abcf8b89285b9966932d1aceeeadb21d3" target="_top" xlink:title=" ">
<polygon fill="white" stroke="#666666" points="483.5,-19 412.5,-19 412.5,0 483.5,0 483.5,-19"/>
<text text-anchor="middle" x="448" y="-7" font-family="Helvetica,sans-Serif" font-size="10.00">Vector3::xy</text>
</a>
</g>
</g>
<!-- Node6&#45;&gt;Node14 -->
<g id="edge15_Node000006_Node000014" class="edge">
<title>Node6&#45;&gt;Node14</title>
<g id="a_edge15_Node000006_Node000014"><a xlink:title=" ">
<path fill="none" stroke="#63b8ff" d="M271.93,-142.92C285.8,-119.33 325.04,-58.16 375,-27.5 383.31,-22.4 393.01,-18.74 402.54,-16.12"/>
<polygon fill="#63b8ff" stroke="#63b8ff" points="403.45,-19.5 412.34,-13.74 401.8,-12.69 403.45,-19.5"/>
</a>
</g>
</g>
<!-- Node8 -->
<g id="Node000008" class="node">
<title>Node8</title>
<g id="a_Node000008"><a xlink:href="classLocation.html#a42744e951d248f823ca21bbfc2f5226e" target="_top" xlink:title=" ">
<polygon fill="white" stroke="#666666" points="688,-194 557,-194 557,-175 688,-175 688,-194"/>
<text text-anchor="middle" x="622.5" y="-182" font-family="Helvetica,sans-Serif" font-size="10.00">Location::diff_longitude</text>
</a>
</g>
</g>
<!-- Node7&#45;&gt;Node8 -->
<g id="edge7_Node000007_Node000008" class="edge">
<title>Node7&#45;&gt;Node8</title>
<g id="a_edge7_Node000007_Node000008"><a xlink:title=" ">
<path fill="none" stroke="#63b8ff" d="M511.28,-171.08C522.89,-172.49 535.13,-173.99 547.06,-175.44"/>
<polygon fill="#63b8ff" stroke="#63b8ff" points="546.64,-178.91 556.99,-176.65 547.49,-171.96 546.64,-178.91"/>
</a>
</g>
</g>
<!-- Node9 -->
<g id="Node000009" class="node">
<title>Node9</title>
<g id="a_Node000009"><a xlink:href="classLocation.html#ab8844915021178ffc5cb56b19e95ad2c" target="_top" xlink:title=" ">
<polygon fill="white" stroke="#666666" points="677.5,-156.5 567.5,-156.5 567.5,-126.5 677.5,-126.5 677.5,-156.5"/>
<text text-anchor="start" x="575.5" y="-144.5" font-family="Helvetica,sans-Serif" font-size="10.00">Location::longitude</text>
<text text-anchor="middle" x="622.5" y="-133.5" font-family="Helvetica,sans-Serif" font-size="10.00">_scale</text>
</a>
</g>
</g>
<!-- Node7&#45;&gt;Node9 -->
<g id="edge8_Node000007_Node000009" class="edge">
<title>Node7&#45;&gt;Node9</title>
<g id="a_edge8_Node000007_Node000009"><a xlink:title=" ">
<path fill="none" stroke="#63b8ff" d="M511.28,-155.56C526.17,-153.66 542.11,-151.63 557.1,-149.71"/>
<polygon fill="#63b8ff" stroke="#63b8ff" points="557.83,-153.15 567.3,-148.41 556.94,-146.21 557.83,-153.15"/>
</a>
</g>
</g>
<!-- Node13 -->
<g id="Node000013" class="node">
<title>Node13</title>
<g id="a_Node000013"><a xlink:href="classAP__GPS.html#a23a9fce42abaf8f53d5a3f64c84461e7" target="_top" xlink:title=" ">
<polygon fill="white" stroke="#666666" points="667.5,-56 577.5,-56 577.5,-37 667.5,-37 667.5,-56"/>
<text text-anchor="middle" x="622.5" y="-44" font-family="Helvetica,sans-Serif" font-size="10.00">AP_GPS::status</text>
</a>
</g>
</g>
<!-- Node12&#45;&gt;Node13 -->
<g id="edge12_Node000012_Node000013" class="edge">
<title>Node12&#45;&gt;Node13</title>
<g id="a_edge12_Node000012_Node000013"><a xlink:title=" ">
<path fill="none" stroke="#63b8ff" d="M493.42,-46.5C515.86,-46.5 543.27,-46.5 566.98,-46.5"/>
<polygon fill="#63b8ff" stroke="#63b8ff" points="567.23,-50 577.23,-46.5 567.23,-43 567.23,-50"/>
</a>
</g>
</g>
<!-- Node13&#45;&gt;Node13 -->
<g id="edge13_Node000013_Node000013" class="edge">
<title>Node13&#45;&gt;Node13</title>
<g id="a_edge13_Node000013_Node000013"><a xlink:title=" ">
<path fill="none" stroke="#63b8ff" d="M595.68,-56.08C582.63,-64.73 591.57,-74 622.5,-74 643.28,-74 654.13,-69.82 655.06,-64.45"/>
<polygon fill="#63b8ff" stroke="#63b8ff" points="657.86,-62.35 649.32,-56.08 652.09,-66.31 657.86,-62.35"/>
</a>
</g>
</g>
</g>
</svg>
