<?xml version="1.0" encoding="UTF-8" standalone="no"?>
<!DOCTYPE svg PUBLIC "-//W3C//DTD SVG 1.1//EN"
 "http://www.w3.org/Graphics/SVG/1.1/DTD/svg11.dtd">
<!-- Generated by graphviz version 2.43.0 (0)
 -->
<!-- Title: AP_Camera_Backend::take_picture Pages: 1 -->
<!--zoomable 332 -->

<svg id="main" version="1.1" xmlns="http://www.w3.org/2000/svg" xmlns:xlink="http://www.w3.org/1999/xlink" xml:space="preserve" onload="init(evt)">
<style type="text/css"><![CDATA[
.node, .edge {opacity: 0.7;}
.node.selected, .edge.selected {opacity: 1;}
.edge:hover path { stroke: red; }
.edge:hover polygon { stroke: red; fill: red; }
]]></style>

<defs>
  <circle id="rim" cx="0" cy="0" r="7"/>
  <circle id="rim2" cx="0" cy="0" r="3.5"/>
  <g id="zoomPlus">
    <use xlink:href="#rim" fill="#404040"><set attributeName="fill" to="#808080" begin="zoomplus.mouseover" end="zoomplus.mouseout"/></use>
    <path d="M-4,0h8M0,-4v8" fill="none" stroke="white" stroke-width="1.5" pointer-events="none"/>
  </g>
  <g id="zoomMin">
    <use xlink:href="#rim" fill="#404040"><set attributeName="fill" to="#808080" begin="zoomminus.mouseover" end="zoomminus.mouseout"/></use>
    <path d="M-4,0h8" fill="none" stroke="white" stroke-width="1.5" pointer-events="none"/>
  </g>
  <g id="arrowUp" transform="translate(30 24)">
    <use xlink:href="#rim"/>
    <path pointer-events="none" fill="none" stroke="white" stroke-width="1.5" d="M0,-3.0v7 M-2.5,-0.5L0,-3.0L2.5,-0.5"/>
  </g>
  <g id="arrowRight" transform="rotate(90) translate(36 -43)">
    <use xlink:href="#rim"/>
    <path pointer-events="none" fill="none" stroke="white" stroke-width="1.5" d="M0,-3.0v7 M-2.5,-0.5L0,-3.0L2.5,-0.5"/>
  </g>
  <g id="arrowDown" transform="rotate(180) translate(-30 -48)">
    <use xlink:href="#rim"/>
    <path pointer-events="none" fill="none" stroke="white" stroke-width="1.5" d="M0,-3.0v7 M-2.5,-0.5L0,-3.0L2.5,-0.5"/>
  </g>
  <g id="arrowLeft" transform="rotate(270) translate(-36 17)">
    <use xlink:href="#rim"/>
    <path pointer-events="none" fill="none" stroke="white" stroke-width="1.5" d="M0,-3.0v7 M-2.5,-0.5L0,-3.0L2.5,-0.5"/>
  </g>
  <g id="resetDef">
    <use xlink:href="#rim2" fill="#404040"><set attributeName="fill" to="#808080" begin="reset.mouseover" end="reset.mouseout"/></use>
  </g>
</defs>
<script type="application/ecmascript">
var viewWidth = 896;
var viewHeight = 332;
var sectionId = 'dynsection-35';
</script>
<script type="application/ecmascript" xlink:href="svg.min.js"/>
<svg id="graph" class="graph">
<g id="viewport">
<title>AP_Camera_Backend::take_picture</title>
<!-- Node1 -->
<g id="Node000001" class="node">
<title>Node1</title>
<g id="a_Node000001"><a xlink:title=" ">
<polygon fill="#999999" stroke="#666666" points="125,-225.5 0,-225.5 0,-195.5 125,-195.5 125,-225.5"/>
<text text-anchor="start" x="8" y="-213.5" font-family="Helvetica,sans-Serif" font-size="10.00">AP_Camera_Backend::</text>
<text text-anchor="middle" x="62.5" y="-202.5" font-family="Helvetica,sans-Serif" font-size="10.00">take_picture</text>
</a>
</g>
</g>
<!-- Node2 -->
<g id="Node000002" class="node">
<title>Node2</title>
<g id="a_Node000002"><a xlink:href="namespaceAP.html#a99432cfdb696952c9b7146f155a815aa" target="_top" xlink:title=" ">
<polygon fill="white" stroke="#666666" points="259,-318 203,-318 203,-299 259,-299 259,-318"/>
<text text-anchor="middle" x="231" y="-306" font-family="Helvetica,sans-Serif" font-size="10.00">AP::ahrs</text>
</a>
</g>
</g>
<!-- Node1&#45;&gt;Node2 -->
<g id="edge1_Node000001_Node000002" class="edge">
<title>Node1&#45;&gt;Node2</title>
<g id="a_edge1_Node000001_Node000002"><a xlink:title=" ">
<path fill="none" stroke="#63b8ff" d="M83.36,-225.72C102.59,-240.08 132.89,-261.7 161,-277.5 172.27,-283.84 185.07,-289.88 196.57,-294.93"/>
<polygon fill="#63b8ff" stroke="#63b8ff" points="195.28,-298.18 205.85,-298.91 198.04,-291.75 195.28,-298.18"/>
</a>
</g>
</g>
<!-- Node4 -->
<g id="Node000004" class="node">
<title>Node4</title>
<g id="a_Node000004"><a xlink:href="classAP__Camera__Backend.html#a47495235592230c2803c94a60e6189eb" target="_top" xlink:title=" ">
<polygon fill="white" stroke="#666666" points="293.5,-268.5 168.5,-268.5 168.5,-238.5 293.5,-238.5 293.5,-268.5"/>
<text text-anchor="start" x="176.5" y="-256.5" font-family="Helvetica,sans-Serif" font-size="10.00">AP_Camera_Backend::</text>
<text text-anchor="middle" x="231" y="-245.5" font-family="Helvetica,sans-Serif" font-size="10.00">log_picture</text>
</a>
</g>
</g>
<!-- Node1&#45;&gt;Node4 -->
<g id="edge3_Node000001_Node000004" class="edge">
<title>Node1&#45;&gt;Node4</title>
<g id="a_edge3_Node000001_Node000004"><a xlink:title=" ">
<path fill="none" stroke="#63b8ff" d="M121.73,-225.54C134.66,-228.88 148.48,-232.45 161.76,-235.88"/>
<polygon fill="#63b8ff" stroke="#63b8ff" points="161.24,-239.36 171.8,-238.47 162.99,-232.58 161.24,-239.36"/>
</a>
</g>
</g>
<!-- Node5 -->
<g id="Node000005" class="node">
<title>Node5</title>
<g id="a_Node000005"><a xlink:href="namespaceAP__HAL.html#a77dffbb18891996280308e21316ec186" target="_top" xlink:title=" ">
<polygon fill="white" stroke="#666666" points="274.5,-220 187.5,-220 187.5,-201 274.5,-201 274.5,-220"/>
<text text-anchor="middle" x="231" y="-208" font-family="Helvetica,sans-Serif" font-size="10.00">AP_HAL::millis</text>
</a>
</g>
</g>
<!-- Node1&#45;&gt;Node5 -->
<g id="edge4_Node000001_Node000005" class="edge">
<title>Node1&#45;&gt;Node5</title>
<g id="a_edge4_Node000001_Node000005"><a xlink:title=" ">
<path fill="none" stroke="#63b8ff" d="M125.03,-210.5C142.21,-210.5 160.72,-210.5 177.34,-210.5"/>
<polygon fill="#63b8ff" stroke="#63b8ff" points="177.42,-214 187.42,-210.5 177.42,-207 177.42,-214"/>
</a>
</g>
</g>
<!-- Node12 -->
<g id="Node000012" class="node">
<title>Node12</title>
<g id="a_Node000012"><a xlink:href="classAP__Camera__Backend.html#a380fd325614ab632d28146936cbcfe8a" target="_top" xlink:title=" ">
<polygon fill="white" stroke="#666666" points="301,-159.5 161,-159.5 161,-129.5 301,-129.5 301,-159.5"/>
<text text-anchor="start" x="169" y="-147.5" font-family="Helvetica,sans-Serif" font-size="10.00">AP_Camera_Backend::</text>
<text text-anchor="middle" x="231" y="-136.5" font-family="Helvetica,sans-Serif" font-size="10.00">setup_feedback_callback</text>
</a>
</g>
</g>
<!-- Node1&#45;&gt;Node12 -->
<g id="edge11_Node000001_Node000012" class="edge">
<title>Node1&#45;&gt;Node12</title>
<g id="a_edge11_Node000001_Node000012"><a xlink:title=" ">
<path fill="none" stroke="#63b8ff" d="M101.7,-195.36C125.71,-185.84 156.87,-173.49 182.47,-163.34"/>
<polygon fill="#63b8ff" stroke="#63b8ff" points="183.97,-166.51 191.98,-159.57 181.39,-160 183.97,-166.51"/>
</a>
</g>
</g>
<!-- Node23 -->
<g id="Node000023" class="node">
<title>Node23</title>
<g id="a_Node000023"><a xlink:href="classAP__Camera__Backend.html#a4285ddc3c7e6e67dbe168f5fe2475323" target="_top" xlink:title=" ">
<polygon fill="white" stroke="#666666" points="293.5,-111.5 168.5,-111.5 168.5,-81.5 293.5,-81.5 293.5,-111.5"/>
<text text-anchor="start" x="176.5" y="-99.5" font-family="Helvetica,sans-Serif" font-size="10.00">AP_Camera_Backend::</text>
<text text-anchor="middle" x="231" y="-88.5" font-family="Helvetica,sans-Serif" font-size="10.00">trigger_pic</text>
</a>
</g>
</g>
<!-- Node1&#45;&gt;Node23 -->
<g id="edge23_Node000001_Node000023" class="edge">
<title>Node1&#45;&gt;Node23</title>
<g id="a_edge23_Node000001_Node000023"><a xlink:title=" ">
<path fill="none" stroke="#63b8ff" d="M76.22,-195.4C93.56,-175.67 126.42,-141.23 161,-120.5 163.77,-118.84 166.68,-117.27 169.66,-115.79"/>
<polygon fill="#63b8ff" stroke="#63b8ff" points="171.15,-118.96 178.8,-111.62 168.25,-112.59 171.15,-118.96"/>
</a>
</g>
</g>
<!-- Node3 -->
<g id="Node000003" class="node">
<title>Node3</title>
<g id="a_Node000003"><a xlink:href="classAP__AHRS.html#af481888f56602f793fc8d9895d14a8c9" target="_top" xlink:title=" ">
<polygon fill="white" stroke="#666666" points="471,-324 337,-324 337,-305 471,-305 471,-324"/>
<text text-anchor="middle" x="404" y="-312" font-family="Helvetica,sans-Serif" font-size="10.00">AP_AHRS::get_singleton</text>
</a>
</g>
</g>
<!-- Node2&#45;&gt;Node3 -->
<g id="edge2_Node000002_Node000003" class="edge">
<title>Node2&#45;&gt;Node3</title>
<g id="a_edge2_Node000002_Node000003"><a xlink:title=" ">
<path fill="none" stroke="#63b8ff" d="M259.1,-309.45C277.39,-310.09 302.52,-310.97 326.66,-311.82"/>
<polygon fill="#63b8ff" stroke="#63b8ff" points="326.8,-315.33 336.92,-312.18 327.05,-308.33 326.8,-315.33"/>
</a>
</g>
</g>
<!-- Node6 -->
<g id="Node000006" class="node">
<title>Node6</title>
<g id="a_Node000006"><a xlink:href="hrt_8c.html#a1295f128f60d29874243b5733c4db025" target="_top" xlink:title=" ">
<polygon fill="white" stroke="#666666" points="441,-287 367,-287 367,-268 441,-268 441,-287"/>
<text text-anchor="middle" x="404" y="-275" font-family="Helvetica,sans-Serif" font-size="10.00">hrt_millis32</text>
</a>
</g>
</g>
<!-- Node5&#45;&gt;Node6 -->
<g id="edge5_Node000005_Node000006" class="edge">
<title>Node5&#45;&gt;Node6</title>
<g id="a_edge5_Node000005_Node000006"><a xlink:title=" ">
<path fill="none" stroke="#63b8ff" d="M274.63,-219.3C283.6,-221.95 292.82,-225.31 301,-229.5 319.29,-238.87 318.77,-249.03 337,-258.5 343.18,-261.71 349.99,-264.45 356.8,-266.76"/>
<polygon fill="#63b8ff" stroke="#63b8ff" points="356.13,-270.22 366.72,-269.85 358.21,-263.53 356.13,-270.22"/>
</a>
</g>
</g>
<!-- Node7 -->
<g id="Node000007" class="node">
<title>Node7</title>
<g id="a_Node000007"><a xlink:href="hrt_8c.html#a7dd7d90aadd8f76f26da7d5abfad6fe8" target="_top" xlink:title=" ">
<polygon fill="white" stroke="#666666" points="600,-285 526,-285 526,-266 600,-266 600,-285"/>
<text text-anchor="middle" x="563" y="-273" font-family="Helvetica,sans-Serif" font-size="10.00">hrt_millis64</text>
</a>
</g>
</g>
<!-- Node6&#45;&gt;Node7 -->
<g id="edge6_Node000006_Node000007" class="edge">
<title>Node6&#45;&gt;Node7</title>
<g id="a_edge6_Node000006_Node000007"><a xlink:title=" ">
<path fill="none" stroke="#63b8ff" d="M441.02,-277.04C463.18,-276.76 491.8,-276.39 515.64,-276.09"/>
<polygon fill="#63b8ff" stroke="#63b8ff" points="515.92,-279.59 525.88,-275.96 515.83,-272.59 515.92,-279.59"/>
</a>
</g>
</g>
<!-- Node8 -->
<g id="Node000008" class="node">
<title>Node8</title>
<g id="a_Node000008"><a xlink:href="hrt_8c.html#a152c3348a8e83f2dfe35b44cc2e30362" target="_top" xlink:title=" ">
<polygon fill="white" stroke="#666666" points="741,-285 661,-285 661,-266 741,-266 741,-285"/>
<text text-anchor="middle" x="701" y="-273" font-family="Helvetica,sans-Serif" font-size="10.00">hrt_micros64</text>
</a>
</g>
</g>
<!-- Node7&#45;&gt;Node8 -->
<g id="edge7_Node000007_Node000008" class="edge">
<title>Node7&#45;&gt;Node8</title>
<g id="a_edge7_Node000007_Node000008"><a xlink:title=" ">
<path fill="none" stroke="#63b8ff" d="M600.09,-275.5C615.6,-275.5 633.97,-275.5 650.71,-275.5"/>
<polygon fill="#63b8ff" stroke="#63b8ff" points="650.88,-279 660.88,-275.5 650.88,-272 650.88,-279"/>
</a>
</g>
</g>
<!-- Node11 -->
<g id="Node000011" class="node">
<title>Node11</title>
<g id="a_Node000011"><a xlink:href="div1000_8h.html#aece9e7f123414c41d0426fbadca097d8" target="_top" xlink:title=" ">
<polygon fill="white" stroke="#666666" points="747,-248 655,-248 655,-229 747,-229 747,-248"/>
<text text-anchor="middle" x="701" y="-236" font-family="Helvetica,sans-Serif" font-size="10.00">uint64_div1000</text>
</a>
</g>
</g>
<!-- Node7&#45;&gt;Node11 -->
<g id="edge10_Node000007_Node000011" class="edge">
<title>Node7&#45;&gt;Node11</title>
<g id="a_edge10_Node000007_Node000011"><a xlink:title=" ">
<path fill="none" stroke="#63b8ff" d="M599.02,-265.97C616.02,-261.35 636.65,-255.73 654.82,-250.79"/>
<polygon fill="#63b8ff" stroke="#63b8ff" points="655.89,-254.13 664.62,-248.12 654.05,-247.37 655.89,-254.13"/>
</a>
</g>
</g>
<!-- Node9 -->
<g id="Node000009" class="node">
<title>Node9</title>
<g id="a_Node000009"><a xlink:href="hrt_8c.html#a5b4ffc7ff86bd5b893c4a98834e80200" target="_top" xlink:title=" ">
<polygon fill="white" stroke="#666666" points="877,-285 794,-285 794,-266 877,-266 877,-285"/>
<text text-anchor="middle" x="835.5" y="-273" font-family="Helvetica,sans-Serif" font-size="10.00">hrt_micros64I</text>
</a>
</g>
</g>
<!-- Node8&#45;&gt;Node9 -->
<g id="edge8_Node000008_Node000009" class="edge">
<title>Node8&#45;&gt;Node9</title>
<g id="a_edge8_Node000008_Node000009"><a xlink:title=" ">
<path fill="none" stroke="#63b8ff" d="M741.04,-275.5C754.43,-275.5 769.62,-275.5 783.79,-275.5"/>
<polygon fill="#63b8ff" stroke="#63b8ff" points="783.9,-279 793.9,-275.5 783.9,-272 783.9,-279"/>
</a>
</g>
</g>
<!-- Node10 -->
<g id="Node000010" class="node">
<title>Node10</title>
<g id="a_Node000010"><a xlink:href="hrt_8c.html#a723fef85be7bacb834af35445a891c18" target="_top" xlink:title=" ">
<polygon fill="white" stroke="#666666" points="866.5,-246 804.5,-246 804.5,-227 866.5,-227 866.5,-246"/>
<text text-anchor="middle" x="835.5" y="-234" font-family="Helvetica,sans-Serif" font-size="10.00">is_locked</text>
</a>
</g>
</g>
<!-- Node8&#45;&gt;Node10 -->
<g id="edge9_Node000008_Node000010" class="edge">
<title>Node8&#45;&gt;Node10</title>
<g id="a_edge9_Node000008_Node000010"><a xlink:title=" ">
<path fill="none" stroke="#63b8ff" d="M734.41,-265.96C752.55,-260.62 775.31,-253.92 794.55,-248.26"/>
<polygon fill="#63b8ff" stroke="#63b8ff" points="795.63,-251.59 804.24,-245.41 793.66,-244.87 795.63,-251.59"/>
</a>
</g>
</g>
<!-- Node13 -->
<g id="Node000013" class="node">
<title>Node13</title>
<g id="a_Node000013"><a xlink:href="classAP__HAL_1_1GPIO.html#a25cb1ed83deec0e01b8468919f43bf21" target="_top" xlink:title=" ">
<polygon fill="white" stroke="#666666" points="464.5,-249.5 343.5,-249.5 343.5,-219.5 464.5,-219.5 464.5,-249.5"/>
<text text-anchor="start" x="351.5" y="-237.5" font-family="Helvetica,sans-Serif" font-size="10.00">AP_HAL::GPIO::attach</text>
<text text-anchor="middle" x="404" y="-226.5" font-family="Helvetica,sans-Serif" font-size="10.00">_interrupt</text>
</a>
</g>
</g>
<!-- Node12&#45;&gt;Node13 -->
<g id="edge12_Node000012_Node000013" class="edge">
<title>Node12&#45;&gt;Node13</title>
<g id="a_edge12_Node000012_Node000013"><a xlink:title=" ">
<path fill="none" stroke="#63b8ff" d="M252.95,-159.54C273.61,-173.91 306.44,-195.55 337,-210.5 340.59,-212.26 344.35,-213.96 348.17,-215.59"/>
<polygon fill="#63b8ff" stroke="#63b8ff" points="347.15,-218.96 357.73,-219.49 349.79,-212.47 347.15,-218.96"/>
</a>
</g>
</g>
<!-- Node14 -->
<g id="Node000014" class="node">
<title>Node14</title>
<g id="a_Node000014"><a xlink:href="classAP__Camera__Backend.html#a3e81ba43a046b7631ba207bf15e4e018" target="_top" xlink:title=" ">
<polygon fill="white" stroke="#666666" points="466.5,-201.5 341.5,-201.5 341.5,-171.5 466.5,-171.5 466.5,-201.5"/>
<text text-anchor="start" x="349.5" y="-189.5" font-family="Helvetica,sans-Serif" font-size="10.00">AP_Camera_Backend::</text>
<text text-anchor="middle" x="404" y="-178.5" font-family="Helvetica,sans-Serif" font-size="10.00">feedback_pin_isr</text>
</a>
</g>
</g>
<!-- Node12&#45;&gt;Node14 -->
<g id="edge13_Node000012_Node000014" class="edge">
<title>Node12&#45;&gt;Node14</title>
<g id="a_edge13_Node000012_Node000014"><a xlink:title=" ">
<path fill="none" stroke="#63b8ff" d="M293.25,-159.54C305.85,-162.64 319.22,-165.92 332.13,-169.09"/>
<polygon fill="#63b8ff" stroke="#63b8ff" points="331.34,-172.5 341.89,-171.49 333.01,-165.71 331.34,-172.5"/>
</a>
</g>
</g>
<!-- Node15 -->
<g id="Node000015" class="node">
<title>Node15</title>
<g id="a_Node000015"><a xlink:href="classAP__Camera__Backend.html#a73068547863e4580543dcbb6481e8ffa" target="_top" xlink:title=" ">
<polygon fill="white" stroke="#666666" points="466.5,-153.5 341.5,-153.5 341.5,-123.5 466.5,-123.5 466.5,-153.5"/>
<text text-anchor="start" x="349.5" y="-141.5" font-family="Helvetica,sans-Serif" font-size="10.00">AP_Camera_Backend::</text>
<text text-anchor="middle" x="404" y="-130.5" font-family="Helvetica,sans-Serif" font-size="10.00">feedback_pin_timer</text>
</a>
</g>
</g>
<!-- Node12&#45;&gt;Node15 -->
<g id="edge14_Node000012_Node000015" class="edge">
<title>Node12&#45;&gt;Node15</title>
<g id="a_edge14_Node000012_Node000015"><a xlink:title=" ">
<path fill="none" stroke="#63b8ff" d="M301.06,-142.08C310.97,-141.73 321.18,-141.37 331.14,-141.02"/>
<polygon fill="#63b8ff" stroke="#63b8ff" points="331.53,-144.51 341.4,-140.66 331.28,-137.51 331.53,-144.51"/>
</a>
</g>
</g>
<!-- Node20 -->
<g id="Node000020" class="node">
<title>Node20</title>
<g id="a_Node000020"><a xlink:href="classAP__HAL_1_1GPIO.html#a3dfc60214bd1aa4936d51ca72c045b95" target="_top" xlink:title=" ">
<polygon fill="white" stroke="#666666" points="470,-105 338,-105 338,-86 470,-86 470,-105"/>
<text text-anchor="middle" x="404" y="-93" font-family="Helvetica,sans-Serif" font-size="10.00">AP_HAL::GPIO::pinMode</text>
</a>
</g>
</g>
<!-- Node12&#45;&gt;Node20 -->
<g id="edge20_Node000012_Node000020" class="edge">
<title>Node12&#45;&gt;Node20</title>
<g id="a_edge20_Node000012_Node000020"><a xlink:title=" ">
<path fill="none" stroke="#63b8ff" d="M284.7,-129.4C308.89,-122.47 337.21,-114.35 360.08,-107.8"/>
<polygon fill="#63b8ff" stroke="#63b8ff" points="361.19,-111.12 369.84,-105 359.26,-104.39 361.19,-111.12"/>
</a>
</g>
</g>
<!-- Node21 -->
<g id="Node000021" class="node">
<title>Node21</title>
<g id="a_Node000021"><a xlink:href="classAP__HAL_1_1Scheduler.html#ac2c4230957d5dbd3c2fd104af2794b4f" target="_top" xlink:title=" ">
<polygon fill="white" stroke="#666666" points="468,-67.5 340,-67.5 340,-37.5 468,-37.5 468,-67.5"/>
<text text-anchor="start" x="348" y="-55.5" font-family="Helvetica,sans-Serif" font-size="10.00">AP_HAL::Scheduler::</text>
<text text-anchor="middle" x="404" y="-44.5" font-family="Helvetica,sans-Serif" font-size="10.00">register_timer_process</text>
</a>
</g>
</g>
<!-- Node12&#45;&gt;Node21 -->
<g id="edge21_Node000012_Node000021" class="edge">
<title>Node12&#45;&gt;Node21</title>
<g id="a_edge21_Node000012_Node000021"><a xlink:title=" ">
<path fill="none" stroke="#63b8ff" d="M285.07,-129.4C290.66,-126.84 296.09,-123.89 301,-120.5 321.51,-106.34 316.68,-91.94 337,-77.5 339.65,-75.62 342.45,-73.86 345.36,-72.22"/>
<polygon fill="#63b8ff" stroke="#63b8ff" points="347,-75.31 354.3,-67.63 343.8,-69.08 347,-75.31"/>
</a>
</g>
</g>
<!-- Node22 -->
<g id="Node000022" class="node">
<title>Node22</title>
<g id="a_Node000022"><a xlink:href="classAP__HAL_1_1GPIO.html#a2b0664bdab1876e3b0bbcd9064eec88e" target="_top" xlink:title=" ">
<polygon fill="white" stroke="#666666" points="461.5,-19 346.5,-19 346.5,0 461.5,0 461.5,-19"/>
<text text-anchor="middle" x="404" y="-7" font-family="Helvetica,sans-Serif" font-size="10.00">AP_HAL::GPIO::write</text>
</a>
</g>
</g>
<!-- Node12&#45;&gt;Node22 -->
<g id="edge22_Node000012_Node000022" class="edge">
<title>Node12&#45;&gt;Node22</title>
<g id="a_edge22_Node000012_Node000022"><a xlink:title=" ">
<path fill="none" stroke="#63b8ff" d="M289,-129.4C293.36,-126.87 297.44,-123.93 301,-120.5 332.64,-90.05 304.55,-58.08 337,-28.5 338.72,-26.93 340.56,-25.5 342.49,-24.18"/>
<polygon fill="#63b8ff" stroke="#63b8ff" points="344.48,-27.07 351.47,-19.11 341.04,-20.98 344.48,-27.07"/>
</a>
</g>
</g>
<!-- Node16 -->
<g id="Node000016" class="node">
<title>Node16</title>
<g id="a_Node000016"><a xlink:href="namespaceAP__HAL.html#a8293355e35887733b1fd151aef08a787" target="_top" xlink:title=" ">
<polygon fill="white" stroke="#666666" points="609.5,-199 516.5,-199 516.5,-180 609.5,-180 609.5,-199"/>
<text text-anchor="middle" x="563" y="-187" font-family="Helvetica,sans-Serif" font-size="10.00">AP_HAL::micros</text>
</a>
</g>
</g>
<!-- Node15&#45;&gt;Node16 -->
<g id="edge15_Node000015_Node000016" class="edge">
<title>Node15&#45;&gt;Node16</title>
<g id="a_edge15_Node000015_Node000016"><a xlink:title=" ">
<path fill="none" stroke="#63b8ff" d="M451.26,-153.53C474,-160.92 501.12,-169.72 522.83,-176.78"/>
<polygon fill="#63b8ff" stroke="#63b8ff" points="521.8,-180.12 532.39,-179.88 523.96,-173.46 521.8,-180.12"/>
</a>
</g>
</g>
<!-- Node19 -->
<g id="Node000019" class="node">
<title>Node19</title>
<g id="a_Node000019"><a xlink:href="classAP__HAL_1_1GPIO.html#a453e2829832c783a5337849218390efc" target="_top" xlink:title=" ">
<polygon fill="white" stroke="#666666" points="619,-148 507,-148 507,-129 619,-129 619,-148"/>
<text text-anchor="middle" x="563" y="-136" font-family="Helvetica,sans-Serif" font-size="10.00">AP_HAL::GPIO::read</text>
</a>
</g>
</g>
<!-- Node15&#45;&gt;Node19 -->
<g id="edge19_Node000015_Node000019" class="edge">
<title>Node15&#45;&gt;Node19</title>
<g id="a_edge19_Node000015_Node000019"><a xlink:title=" ">
<path fill="none" stroke="#63b8ff" d="M466.6,-138.5C476.48,-138.5 486.74,-138.5 496.71,-138.5"/>
<polygon fill="#63b8ff" stroke="#63b8ff" points="496.96,-142 506.96,-138.5 496.96,-135 496.96,-142"/>
</a>
</g>
</g>
<!-- Node17 -->
<g id="Node000017" class="node">
<title>Node17</title>
<g id="a_Node000017"><a xlink:href="hrt_8c.html#aaec580bcdf1351b82110305f0f6dd437" target="_top" xlink:title=" ">
<polygon fill="white" stroke="#666666" points="741,-206 661,-206 661,-187 741,-187 741,-206"/>
<text text-anchor="middle" x="701" y="-194" font-family="Helvetica,sans-Serif" font-size="10.00">hrt_micros32</text>
</a>
</g>
</g>
<!-- Node16&#45;&gt;Node17 -->
<g id="edge16_Node000016_Node000017" class="edge">
<title>Node16&#45;&gt;Node17</title>
<g id="a_edge16_Node000016_Node000017"><a xlink:title=" ">
<path fill="none" stroke="#63b8ff" d="M609.66,-191.85C622.69,-192.52 636.96,-193.26 650.22,-193.94"/>
<polygon fill="#63b8ff" stroke="#63b8ff" points="650.43,-197.45 660.6,-194.47 650.79,-190.46 650.43,-197.45"/>
</a>
</g>
</g>
<!-- Node17&#45;&gt;Node10 -->
<g id="edge18_Node000017_Node000010" class="edge">
<title>Node17&#45;&gt;Node10</title>
<g id="a_edge18_Node000017_Node000010"><a xlink:title=" ">
<path fill="none" stroke="#63b8ff" d="M733.74,-206.08C751.99,-211.59 775.1,-218.57 794.58,-224.45"/>
<polygon fill="#63b8ff" stroke="#63b8ff" points="793.8,-227.87 804.39,-227.41 795.83,-221.17 793.8,-227.87"/>
</a>
</g>
</g>
<!-- Node18 -->
<g id="Node000018" class="node">
<title>Node18</title>
<g id="a_Node000018"><a xlink:href="hrt_8c.html#a8e056f016b4bb5d52754d890a539c433" target="_top" xlink:title=" ">
<polygon fill="white" stroke="#666666" points="888,-206 783,-206 783,-187 888,-187 888,-206"/>
<text text-anchor="middle" x="835.5" y="-194" font-family="Helvetica,sans-Serif" font-size="10.00">get_systime_us32</text>
</a>
</g>
</g>
<!-- Node17&#45;&gt;Node18 -->
<g id="edge17_Node000017_Node000018" class="edge">
<title>Node17&#45;&gt;Node18</title>
<g id="a_edge17_Node000017_Node000018"><a xlink:title=" ">
<path fill="none" stroke="#63b8ff" d="M741.04,-196.5C750.99,-196.5 761.93,-196.5 772.71,-196.5"/>
<polygon fill="#63b8ff" stroke="#63b8ff" points="772.96,-200 782.96,-196.5 772.96,-193 772.96,-200"/>
</a>
</g>
</g>
</g>
</svg>

<g id="navigator" transform="translate(0 0)" fill="#404254">
  <rect fill="#f2f5e9" fill-opacity="0.5" stroke="#606060" stroke-width=".5" x="0" y="0" width="60" height="60"/>
  <use id="zoomplus" xlink:href="#zoomPlus" x="17" y="9" onmousedown="handleZoom(evt,'in')"/>
  <use id="zoomminus" xlink:href="#zoomMin" x="42" y="9" onmousedown="handleZoom(evt,'out')"/>
  <use id="reset" xlink:href="#resetDef" x="30" y="36" onmousedown="handleReset()"/>
   <use id="arrowup" xlink:href="#arrowUp" x="0" y="0" onmousedown="handlePan(0,-1)"/>
  <use id="arrowright" xlink:href="#arrowRight" x="0" y="0" onmousedown="handlePan(1,0)"/>
  <use id="arrowdown" xlink:href="#arrowDown" x="0" y="0" onmousedown="handlePan(0,1)"/>
  <use id="arrowleft" xlink:href="#arrowLeft" x="0" y="0" onmousedown="handlePan(-1,0)"/>
</g>
<svg viewBox="0 0 15 15" width="100%" height="30px" preserveAspectRatio="xMaxYMin meet">
 <g id="arrow_out" transform="scale(0.3 0.3)">
  <a xlink:href="classAP__Camera__Backend_a4eba3acd35c63d8bdd111ac169f3701b_cgraph_org.svg" target="_base">
   <rect id="button" ry="5" rx="5" y="6" x="6" height="38" width="38"
        fill="#f2f5e9" fill-opacity="0.5" stroke="#606060" stroke-width="1.0"/>
   <path id="arrow"
     d="M 11.500037,31.436501 C 11.940474,20.09759 22.043105,11.32322 32.158766,21.979434 L 37.068811,17.246167 C 37.068811,17.246167 37.088388,32 37.088388,32 L 22.160133,31.978069 C 22.160133,31.978069 26.997745,27.140456 26.997745,27.140456 C 18.528582,18.264221 13.291696,25.230495 11.500037,31.436501 z"
     style="fill:#404040;"/>
  </a>
 </g>
</svg>

<style type='text/css'>
<![CDATA[
[data-mouse-over-selected='false'] { opacity: 0.7; }
[data-mouse-over-selected='true']  { opacity: 1.0; }
]]>
</style>
<script type="application/ecmascript"><![CDATA[
document.addEventListener('DOMContentLoaded', (event) => {
  highlightEdges();
  highlightAdjacentNodes();
});
]]></script>
</svg>
