<?xml version="1.0" encoding="UTF-8" standalone="no"?>
<!DOCTYPE svg PUBLIC "-//W3C//DTD SVG 1.1//EN"
 "http://www.w3.org/Graphics/SVG/1.1/DTD/svg11.dtd">
<!-- Generated by graphviz version 2.43.0 (0)
 -->
<!-- Title: HALSITL::UARTDriver::_timer_tick Pages: 1 -->
<svg width="1335pt" height="727pt"
 viewBox="0.00 0.00 1335.00 727.12" xmlns="http://www.w3.org/2000/svg" xmlns:xlink="http://www.w3.org/1999/xlink">
<g id="graph0" class="graph" transform="scale(1 1) rotate(0) translate(4 723.12)">
<title>HALSITL::UARTDriver::_timer_tick</title>
<!-- Node1 -->
<g id="Node000001" class="node">
<title>Node1</title>
<g id="a_Node000001"><a xlink:title=" ">
<polygon fill="#999999" stroke="#666666" points="119,-335.82 0,-335.82 0,-305.82 119,-305.82 119,-335.82"/>
<text text-anchor="start" x="8" y="-323.82" font-family="Helvetica,sans-Serif" font-size="10.00">HALSITL::UARTDriver</text>
<text text-anchor="middle" x="59.5" y="-312.82" font-family="Helvetica,sans-Serif" font-size="10.00">::_timer_tick</text>
</a>
</g>
</g>
<!-- Node2 -->
<g id="Node000002" class="node">
<title>Node2</title>
<g id="a_Node000002"><a xlink:href="classHALSITL_1_1UARTDriver.html#a51027d9fd640f257a5f0f0601f65d90f" target="_top" xlink:title=" ">
<polygon fill="white" stroke="#666666" points="282,-511.32 156,-511.32 156,-470.32 282,-470.32 282,-511.32"/>
<text text-anchor="start" x="164" y="-499.32" font-family="Helvetica,sans-Serif" font-size="10.00">HALSITL::UARTDriver</text>
<text text-anchor="start" x="164" y="-488.32" font-family="Helvetica,sans-Serif" font-size="10.00">::handle_reading_from</text>
<text text-anchor="middle" x="219" y="-477.32" font-family="Helvetica,sans-Serif" font-size="10.00">_device_to_readbuffer</text>
</a>
</g>
</g>
<!-- Node1&#45;&gt;Node2 -->
<g id="edge1_Node000001_Node000002" class="edge">
<title>Node1&#45;&gt;Node2</title>
<g id="a_edge1_Node000001_Node000002"><a xlink:title=" ">
<path fill="none" stroke="#63b8ff" d="M74.48,-335.91C100.79,-364.32 158.08,-426.14 191.77,-462.52"/>
<polygon fill="#63b8ff" stroke="#63b8ff" points="189.63,-465.35 198.99,-470.31 194.76,-460.59 189.63,-465.35"/>
</a>
</g>
</g>
<!-- Node40 -->
<g id="Node000040" class="node">
<title>Node40</title>
<g id="a_Node000040"><a xlink:href="classHALSITL_1_1UARTDriver.html#abb7008c994d4a76ccfab595a6af27412" target="_top" xlink:title=" ">
<polygon fill="white" stroke="#666666" points="283,-215.32 155,-215.32 155,-174.32 283,-174.32 283,-215.32"/>
<text text-anchor="start" x="163" y="-203.32" font-family="Helvetica,sans-Serif" font-size="10.00">HALSITL::UARTDriver</text>
<text text-anchor="start" x="163" y="-192.32" font-family="Helvetica,sans-Serif" font-size="10.00">::handle_writing_from</text>
<text text-anchor="middle" x="219" y="-181.32" font-family="Helvetica,sans-Serif" font-size="10.00">_writebuffer_to_device</text>
</a>
</g>
</g>
<!-- Node1&#45;&gt;Node40 -->
<g id="edge46_Node000001_Node000040" class="edge">
<title>Node1&#45;&gt;Node40</title>
<g id="a_edge46_Node000001_Node000040"><a xlink:title=" ">
<path fill="none" stroke="#63b8ff" d="M79.5,-305.63C105.33,-284.96 151.99,-247.64 183.95,-222.06"/>
<polygon fill="#63b8ff" stroke="#63b8ff" points="186.52,-224.49 192.14,-215.51 182.15,-219.03 186.52,-224.49"/>
</a>
</g>
</g>
<!-- Node3 -->
<g id="Node000003" class="node">
<title>Node3</title>
<g id="a_Node000003"><a xlink:href="classHALSITL_1_1UARTDriver.html#acd081404b05f50cd909846b84f164583" target="_top" xlink:title=" ">
<polygon fill="white" stroke="#666666" points="442.5,-319.82 323.5,-319.82 323.5,-289.82 442.5,-289.82 442.5,-319.82"/>
<text text-anchor="start" x="331.5" y="-307.82" font-family="Helvetica,sans-Serif" font-size="10.00">HALSITL::UARTDriver</text>
<text text-anchor="middle" x="383" y="-296.82" font-family="Helvetica,sans-Serif" font-size="10.00">::_check_reconnect</text>
</a>
</g>
</g>
<!-- Node2&#45;&gt;Node3 -->
<g id="edge2_Node000002_Node000003" class="edge">
<title>Node2&#45;&gt;Node3</title>
<g id="a_edge2_Node000002_Node000003"><a xlink:title=" ">
<path fill="none" stroke="#63b8ff" d="M236.45,-470.29C255.8,-446.32 289.08,-405.64 319,-371.82 332.32,-356.77 347.77,-340.32 360.04,-327.49"/>
<polygon fill="#63b8ff" stroke="#63b8ff" points="362.82,-329.65 367.22,-320.01 357.77,-324.8 362.82,-329.65"/>
</a>
</g>
</g>
<!-- Node26 -->
<g id="Node000026" class="node">
<title>Node26</title>
<g id="a_Node000026"><a xlink:href="classHALSITL_1_1UARTDriver.html#a8b8c6116a527641b0c1a2f907c673740" target="_top" xlink:title=" ">
<polygon fill="white" stroke="#666666" points="442.5,-615.82 323.5,-615.82 323.5,-585.82 442.5,-585.82 442.5,-615.82"/>
<text text-anchor="start" x="331.5" y="-603.82" font-family="Helvetica,sans-Serif" font-size="10.00">HALSITL::UARTDriver</text>
<text text-anchor="middle" x="383" y="-592.82" font-family="Helvetica,sans-Serif" font-size="10.00">::_select_check</text>
</a>
</g>
</g>
<!-- Node2&#45;&gt;Node26 -->
<g id="edge25_Node000002_Node000026" class="edge">
<title>Node2&#45;&gt;Node26</title>
<g id="a_edge25_Node000002_Node000026"><a xlink:title=" ">
<path fill="none" stroke="#63b8ff" d="M239.57,-511.59C258.43,-530.63 288.53,-558.58 319,-576.82 321.76,-578.48 324.66,-580.05 327.62,-581.55"/>
<polygon fill="#63b8ff" stroke="#63b8ff" points="326.15,-584.72 336.69,-585.79 329.11,-578.38 326.15,-584.72"/>
</a>
</g>
</g>
<!-- Node27 -->
<g id="Node000027" class="node">
<title>Node27</title>
<g id="a_Node000027"><a xlink:href="namespaceAP__HAL.html#a8293355e35887733b1fd151aef08a787" target="_top" xlink:title=" ">
<polygon fill="white" stroke="#666666" points="596.5,-460.32 503.5,-460.32 503.5,-441.32 596.5,-441.32 596.5,-460.32"/>
<text text-anchor="middle" x="550" y="-448.32" font-family="Helvetica,sans-Serif" font-size="10.00">AP_HAL::micros</text>
</a>
</g>
</g>
<!-- Node2&#45;&gt;Node27 -->
<g id="edge26_Node000002_Node000027" class="edge">
<title>Node2&#45;&gt;Node27</title>
<g id="a_edge26_Node000002_Node000027"><a xlink:title=" ">
<path fill="none" stroke="#63b8ff" d="M282.27,-483.25C343.07,-475.86 434.76,-464.71 493.23,-457.6"/>
<polygon fill="#63b8ff" stroke="#63b8ff" points="493.89,-461.05 503.39,-456.37 493.04,-454.1 493.89,-461.05"/>
</a>
</g>
</g>
<!-- Node30 -->
<g id="Node000030" class="node">
<title>Node30</title>
<g id="a_Node000030"><a xlink:href="namespaceAP__HAL.html#a7aa0ce7625c9680e30ff4a99940907a5" target="_top" xlink:title=" ">
<polygon fill="white" stroke="#666666" points="1080,-395.32 975,-395.32 975,-376.32 1080,-376.32 1080,-395.32"/>
<text text-anchor="middle" x="1027.5" y="-383.32" font-family="Helvetica,sans-Serif" font-size="10.00">AP_HAL::micros64</text>
</a>
</g>
</g>
<!-- Node2&#45;&gt;Node30 -->
<g id="edge30_Node000002_Node000030" class="edge">
<title>Node2&#45;&gt;Node30</title>
<g id="a_edge30_Node000002_Node000030"><a xlink:title=" ">
<path fill="none" stroke="#63b8ff" d="M236.83,-469.97C254.77,-449.4 285.22,-419.06 319,-404.82 413.52,-364.99 446.43,-385.82 549,-385.82 549,-385.82 549,-385.82 716.5,-385.82 802.66,-385.82 902.29,-385.82 964.85,-385.82"/>
<polygon fill="#63b8ff" stroke="#63b8ff" points="964.94,-389.32 974.94,-385.82 964.94,-382.32 964.94,-389.32"/>
</a>
</g>
</g>
<!-- Node31 -->
<g id="Node000031" class="node">
<title>Node31</title>
<g id="a_Node000031"><a xlink:href="classAP__HAL_1_1UARTDriver.html#aad865126c7f40e0a3f66c37a4c708422" target="_top" xlink:title=" ">
<polygon fill="white" stroke="#666666" points="608,-508.82 492,-508.82 492,-478.82 608,-478.82 608,-508.82"/>
<text text-anchor="start" x="500" y="-496.82" font-family="Helvetica,sans-Serif" font-size="10.00">AP_HAL::UARTDriver</text>
<text text-anchor="middle" x="550" y="-485.82" font-family="Helvetica,sans-Serif" font-size="10.00">::read</text>
</a>
</g>
</g>
<!-- Node2&#45;&gt;Node31 -->
<g id="edge32_Node000002_Node000031" class="edge">
<title>Node2&#45;&gt;Node31</title>
<g id="a_edge32_Node000002_Node000031"><a xlink:title=" ">
<path fill="none" stroke="#63b8ff" d="M282.27,-491.39C339.21,-491.91 423.22,-492.68 481.69,-493.21"/>
<polygon fill="#63b8ff" stroke="#63b8ff" points="481.9,-496.71 491.94,-493.3 481.97,-489.71 481.9,-496.71"/>
</a>
</g>
</g>
<!-- Node32 -->
<g id="Node000032" class="node">
<title>Node32</title>
<g id="a_Node000032"><a xlink:href="classHALSITL_1_1UARTDriver.html#a414cc852a7d648b70509b60bd6832345" target="_top" xlink:title=" ">
<polygon fill="white" stroke="#666666" points="447,-567.82 319,-567.82 319,-537.82 447,-537.82 447,-567.82"/>
<text text-anchor="start" x="327" y="-555.82" font-family="Helvetica,sans-Serif" font-size="10.00">HALSITL::UARTDriver</text>
<text text-anchor="middle" x="383" y="-544.82" font-family="Helvetica,sans-Serif" font-size="10.00">::read_from_async_csv</text>
</a>
</g>
</g>
<!-- Node2&#45;&gt;Node32 -->
<g id="edge33_Node000002_Node000032" class="edge">
<title>Node2&#45;&gt;Node32</title>
<g id="a_edge33_Node000002_Node000032"><a xlink:title=" ">
<path fill="none" stroke="#63b8ff" d="M273.94,-511.47C293.07,-518.79 314.47,-526.98 333.14,-534.13"/>
<polygon fill="#63b8ff" stroke="#63b8ff" points="332.05,-537.45 342.64,-537.76 334.55,-530.92 332.05,-537.45"/>
</a>
</g>
</g>
<!-- Node35 -->
<g id="Node000035" class="node">
<title>Node35</title>
<g id="a_Node000035"><a xlink:href="classSITL_1_1SerialDevice.html#a3d35e87155bdb726499fa07a07010eec" target="_top" xlink:title=" ">
<polygon fill="white" stroke="#666666" points="438,-443.82 328,-443.82 328,-413.82 438,-413.82 438,-443.82"/>
<text text-anchor="start" x="336" y="-431.82" font-family="Helvetica,sans-Serif" font-size="10.00">SITL::SerialDevice</text>
<text text-anchor="middle" x="383" y="-420.82" font-family="Helvetica,sans-Serif" font-size="10.00">::read_from_device</text>
</a>
</g>
</g>
<!-- Node2&#45;&gt;Node35 -->
<g id="edge39_Node000002_Node000035" class="edge">
<title>Node2&#45;&gt;Node35</title>
<g id="a_edge39_Node000002_Node000035"><a xlink:title=" ">
<path fill="none" stroke="#63b8ff" d="M273.94,-470.18C293.07,-462.86 314.47,-454.67 333.14,-447.52"/>
<polygon fill="#63b8ff" stroke="#63b8ff" points="334.55,-450.73 342.64,-443.89 332.05,-444.2 334.55,-450.73"/>
</a>
</g>
</g>
<!-- Node36 -->
<g id="Node000036" class="node">
<title>Node36</title>
<g id="a_Node000036"><a xlink:href="classByteBuffer.html#a44decf7619adddfa5833f9d337fe56f4" target="_top" xlink:title=" ">
<polygon fill="white" stroke="#666666" points="767,-695.32 664,-695.32 664,-676.32 767,-676.32 767,-695.32"/>
<text text-anchor="middle" x="715.5" y="-683.32" font-family="Helvetica,sans-Serif" font-size="10.00">ByteBuffer::space</text>
</a>
</g>
</g>
<!-- Node2&#45;&gt;Node36 -->
<g id="edge40_Node000002_Node000036" class="edge">
<title>Node2&#45;&gt;Node36</title>
<g id="a_edge40_Node000002_Node000036"><a xlink:title=" ">
<path fill="none" stroke="#63b8ff" d="M225.52,-511.37C236.62,-548.54 265.3,-626.83 319,-666.82 424.39,-745.32 592.93,-717.18 671.53,-697.89"/>
<polygon fill="#63b8ff" stroke="#63b8ff" points="672.72,-701.2 681.56,-695.36 671.01,-694.41 672.72,-701.2"/>
</a>
</g>
</g>
<!-- Node37 -->
<g id="Node000037" class="node">
<title>Node37</title>
<g id="a_Node000037"><a xlink:href="classByteBuffer.html#ac57883bb2bce8263d26221a250f452dc" target="_top" xlink:title=" ">
<polygon fill="white" stroke="#666666" points="432.5,-658.32 333.5,-658.32 333.5,-639.32 432.5,-639.32 432.5,-658.32"/>
<text text-anchor="middle" x="383" y="-646.32" font-family="Helvetica,sans-Serif" font-size="10.00">ByteBuffer::write</text>
</a>
</g>
</g>
<!-- Node2&#45;&gt;Node37 -->
<g id="edge41_Node000002_Node000037" class="edge">
<title>Node2&#45;&gt;Node37</title>
<g id="a_edge41_Node000002_Node000037"><a xlink:title=" ">
<path fill="none" stroke="#63b8ff" d="M230.29,-511.4C245.79,-540.48 277.76,-593.52 319,-624.82 324.45,-628.96 330.7,-632.46 337.09,-635.4"/>
<polygon fill="#63b8ff" stroke="#63b8ff" points="335.91,-638.7 346.49,-639.3 338.6,-632.23 335.91,-638.7"/>
</a>
</g>
</g>
<!-- Node4 -->
<g id="Node000004" class="node">
<title>Node4</title>
<g id="a_Node000004"><a xlink:href="classHALSITL_1_1UARTDriver.html#a378857176ba475df8fe41c5f77dedc83" target="_top" xlink:title=" ">
<polygon fill="white" stroke="#666666" points="617,-319.82 483,-319.82 483,-289.82 617,-289.82 617,-319.82"/>
<text text-anchor="start" x="491" y="-307.82" font-family="Helvetica,sans-Serif" font-size="10.00">HALSITL::UARTDriver</text>
<text text-anchor="middle" x="550" y="-296.82" font-family="Helvetica,sans-Serif" font-size="10.00">::_uart_start_connection</text>
</a>
</g>
</g>
<!-- Node3&#45;&gt;Node4 -->
<g id="edge3_Node000003_Node000004" class="edge">
<title>Node3&#45;&gt;Node4</title>
<g id="a_edge3_Node000003_Node000004"><a xlink:title=" ">
<path fill="none" stroke="#63b8ff" d="M442.64,-304.82C452.43,-304.82 462.72,-304.82 472.88,-304.82"/>
<polygon fill="#63b8ff" stroke="#63b8ff" points="472.97,-308.32 482.97,-304.82 472.97,-301.32 472.97,-308.32"/>
</a>
</g>
</g>
<!-- Node5 -->
<g id="Node000005" class="node">
<title>Node5</title>
<g id="a_Node000005"><a xlink:href="namespaceAP__HAL.html#a77dffbb18891996280308e21316ec186" target="_top" xlink:title=" ">
<polygon fill="white" stroke="#666666" points="759,-261.32 672,-261.32 672,-242.32 759,-242.32 759,-261.32"/>
<text text-anchor="middle" x="715.5" y="-249.32" font-family="Helvetica,sans-Serif" font-size="10.00">AP_HAL::millis</text>
</a>
</g>
</g>
<!-- Node4&#45;&gt;Node5 -->
<g id="edge4_Node000004_Node000005" class="edge">
<title>Node4&#45;&gt;Node5</title>
<g id="a_edge4_Node000004_Node000005"><a xlink:title=" ">
<path fill="none" stroke="#63b8ff" d="M595.36,-289.8C613.24,-283.81 634.07,-276.9 653,-270.82 659.58,-268.71 666.56,-266.51 673.38,-264.39"/>
<polygon fill="#63b8ff" stroke="#63b8ff" points="674.66,-267.66 683.17,-261.36 672.58,-260.97 674.66,-267.66"/>
</a>
</g>
</g>
<!-- Node12 -->
<g id="Node000012" class="node">
<title>Node12</title>
<g id="a_Node000012"><a xlink:href="namespaceAP__HAL.html#a52edeef7d5ffaa365e1229b87c170307" target="_top" xlink:title=" ">
<polygon fill="white" stroke="#666666" points="758.5,-546.32 672.5,-546.32 672.5,-527.32 758.5,-527.32 758.5,-546.32"/>
<text text-anchor="middle" x="715.5" y="-534.32" font-family="Helvetica,sans-Serif" font-size="10.00">AP_HAL::panic</text>
</a>
</g>
</g>
<!-- Node4&#45;&gt;Node12 -->
<g id="edge11_Node000004_Node000012" class="edge">
<title>Node4&#45;&gt;Node12</title>
<g id="a_edge11_Node000004_Node000012"><a xlink:title=" ">
<path fill="none" stroke="#63b8ff" d="M559.16,-319.88C575.46,-349.48 613.85,-416.88 653,-468.82 666.8,-487.14 684.55,-506.38 697.43,-519.7"/>
<polygon fill="#63b8ff" stroke="#63b8ff" points="695.25,-522.47 704.74,-527.17 700.25,-517.58 695.25,-522.47"/>
</a>
</g>
</g>
<!-- Node16 -->
<g id="Node000016" class="node">
<title>Node16</title>
<g id="a_Node000016"><a xlink:href="classAP__HAL_1_1BetterStream.html#a8534aa004599bb81ad60f3e762791032" target="_top" xlink:title=" ">
<polygon fill="white" stroke="#666666" points="778,-309.82 653,-309.82 653,-279.82 778,-279.82 778,-309.82"/>
<text text-anchor="start" x="661" y="-297.82" font-family="Helvetica,sans-Serif" font-size="10.00">AP_HAL::BetterStream</text>
<text text-anchor="middle" x="715.5" y="-286.82" font-family="Helvetica,sans-Serif" font-size="10.00">::printf</text>
</a>
</g>
</g>
<!-- Node4&#45;&gt;Node16 -->
<g id="edge15_Node000004_Node000016" class="edge">
<title>Node4&#45;&gt;Node16</title>
<g id="a_edge15_Node000004_Node000016"><a xlink:title=" ">
<path fill="none" stroke="#63b8ff" d="M617.03,-300.79C625.57,-300.26 634.34,-299.73 642.96,-299.2"/>
<polygon fill="#63b8ff" stroke="#63b8ff" points="643.22,-302.69 652.98,-298.59 642.79,-295.7 643.22,-302.69"/>
</a>
</g>
</g>
<!-- Node19 -->
<g id="Node000019" class="node">
<title>Node19</title>
<g id="a_Node000019"><a xlink:href="classByteBuffer.html#a4279e626cb21779cc92f7cf63b9cb3f7" target="_top" xlink:title=" ">
<polygon fill="white" stroke="#666666" points="772.5,-175.32 658.5,-175.32 658.5,-156.32 772.5,-156.32 772.5,-175.32"/>
<text text-anchor="middle" x="715.5" y="-163.32" font-family="Helvetica,sans-Serif" font-size="10.00">ByteBuffer::set_size</text>
</a>
</g>
</g>
<!-- Node4&#45;&gt;Node19 -->
<g id="edge18_Node000004_Node000019" class="edge">
<title>Node4&#45;&gt;Node19</title>
<g id="a_edge18_Node000004_Node000019"><a xlink:title=" ">
<path fill="none" stroke="#63b8ff" d="M597.99,-289.73C604.97,-286 611.62,-281.41 617,-275.82 647.18,-244.5 621.08,-214.37 653,-184.82 654.7,-183.25 656.53,-181.81 658.45,-180.49"/>
<polygon fill="#63b8ff" stroke="#63b8ff" points="660.42,-183.39 667.4,-175.41 656.97,-177.3 660.42,-183.39"/>
</a>
</g>
</g>
<!-- Node24 -->
<g id="Node000024" class="node">
<title>Node24</title>
<g id="a_Node000024"><a xlink:href="classHALSITL_1_1UARTDriver.html#a3ee22c21ae4a4eafdee83cee66e8821b" target="_top" xlink:title=" ">
<polygon fill="white" stroke="#666666" points="775,-223.82 656,-223.82 656,-193.82 775,-193.82 775,-223.82"/>
<text text-anchor="start" x="664" y="-211.82" font-family="Helvetica,sans-Serif" font-size="10.00">HALSITL::UARTDriver</text>
<text text-anchor="middle" x="715.5" y="-200.82" font-family="Helvetica,sans-Serif" font-size="10.00">::set_speed</text>
</a>
</g>
</g>
<!-- Node4&#45;&gt;Node24 -->
<g id="edge23_Node000004_Node000024" class="edge">
<title>Node4&#45;&gt;Node24</title>
<g id="a_edge23_Node000004_Node000024"><a xlink:title=" ">
<path fill="none" stroke="#63b8ff" d="M593.11,-289.8C601.42,-285.89 609.79,-281.23 617,-275.82 636.93,-260.86 632.76,-247.37 653,-232.82 654.89,-231.47 656.87,-230.17 658.91,-228.94"/>
<polygon fill="#63b8ff" stroke="#63b8ff" points="661.03,-231.77 668.16,-223.94 657.7,-225.62 661.03,-231.77"/>
</a>
</g>
</g>
<!-- Node25 -->
<g id="Node000025" class="node">
<title>Node25</title>
<g id="a_Node000025"><a xlink:href="classHALSITL_1_1SITL__State.html#a8901beed7eedcb8ae79aabc6afd5beb6" target="_top" xlink:title=" ">
<polygon fill="white" stroke="#666666" points="772,-357.82 659,-357.82 659,-327.82 772,-327.82 772,-357.82"/>
<text text-anchor="start" x="667" y="-345.82" font-family="Helvetica,sans-Serif" font-size="10.00">HALSITL::SITL_State</text>
<text text-anchor="middle" x="715.5" y="-334.82" font-family="Helvetica,sans-Serif" font-size="10.00">::use_rtscts</text>
</a>
</g>
</g>
<!-- Node4&#45;&gt;Node25 -->
<g id="edge24_Node000004_Node000025" class="edge">
<title>Node4&#45;&gt;Node25</title>
<g id="a_edge24_Node000004_Node000025"><a xlink:title=" ">
<path fill="none" stroke="#63b8ff" d="M615.62,-319.84C626.55,-322.38 637.92,-325.03 648.88,-327.57"/>
<polygon fill="#63b8ff" stroke="#63b8ff" points="648.27,-331.02 658.8,-329.88 649.86,-324.21 648.27,-331.02"/>
</a>
</g>
</g>
<!-- Node6 -->
<g id="Node000006" class="node">
<title>Node6</title>
<g id="a_Node000006"><a xlink:href="hrt_8c.html#a1295f128f60d29874243b5733c4db025" target="_top" xlink:title=" ">
<polygon fill="white" stroke="#666666" points="913.5,-261.32 839.5,-261.32 839.5,-242.32 913.5,-242.32 913.5,-261.32"/>
<text text-anchor="middle" x="876.5" y="-249.32" font-family="Helvetica,sans-Serif" font-size="10.00">hrt_millis32</text>
</a>
</g>
</g>
<!-- Node5&#45;&gt;Node6 -->
<g id="edge5_Node000005_Node000006" class="edge">
<title>Node5&#45;&gt;Node6</title>
<g id="a_edge5_Node000005_Node000006"><a xlink:title=" ">
<path fill="none" stroke="#63b8ff" d="M759.11,-251.82C780.71,-251.82 806.98,-251.82 829.09,-251.82"/>
<polygon fill="#63b8ff" stroke="#63b8ff" points="829.25,-255.32 839.25,-251.82 829.25,-248.32 829.25,-255.32"/>
</a>
</g>
</g>
<!-- Node7 -->
<g id="Node000007" class="node">
<title>Node7</title>
<g id="a_Node000007"><a xlink:href="hrt_8c.html#a7dd7d90aadd8f76f26da7d5abfad6fe8" target="_top" xlink:title=" ">
<polygon fill="white" stroke="#666666" points="1064.5,-264.32 990.5,-264.32 990.5,-245.32 1064.5,-245.32 1064.5,-264.32"/>
<text text-anchor="middle" x="1027.5" y="-252.32" font-family="Helvetica,sans-Serif" font-size="10.00">hrt_millis64</text>
</a>
</g>
</g>
<!-- Node6&#45;&gt;Node7 -->
<g id="edge6_Node000006_Node000007" class="edge">
<title>Node6&#45;&gt;Node7</title>
<g id="a_edge6_Node000006_Node000007"><a xlink:title=" ">
<path fill="none" stroke="#63b8ff" d="M913.57,-252.55C933.55,-252.95 958.62,-253.46 980.05,-253.89"/>
<polygon fill="#63b8ff" stroke="#63b8ff" points="980.18,-257.39 990.25,-254.09 980.32,-250.39 980.18,-257.39"/>
</a>
</g>
</g>
<!-- Node8 -->
<g id="Node000008" class="node">
<title>Node8</title>
<g id="a_Node000008"><a xlink:href="hrt_8c.html#a152c3348a8e83f2dfe35b44cc2e30362" target="_top" xlink:title=" ">
<polygon fill="white" stroke="#666666" points="1202,-395.32 1122,-395.32 1122,-376.32 1202,-376.32 1202,-395.32"/>
<text text-anchor="middle" x="1162" y="-383.32" font-family="Helvetica,sans-Serif" font-size="10.00">hrt_micros64</text>
</a>
</g>
</g>
<!-- Node7&#45;&gt;Node8 -->
<g id="edge7_Node000007_Node000008" class="edge">
<title>Node7&#45;&gt;Node8</title>
<g id="a_edge7_Node000007_Node000008"><a xlink:title=" ">
<path fill="none" stroke="#63b8ff" d="M1059.68,-264.34C1066.77,-267.34 1073.98,-271.14 1080,-275.82 1112.58,-301.2 1138.31,-342.94 1151.44,-367.05"/>
<polygon fill="#63b8ff" stroke="#63b8ff" points="1148.51,-369 1156.28,-376.21 1154.7,-365.73 1148.51,-369"/>
</a>
</g>
</g>
<!-- Node11 -->
<g id="Node000011" class="node">
<title>Node11</title>
<g id="a_Node000011"><a xlink:href="div1000_8h.html#aece9e7f123414c41d0426fbadca097d8" target="_top" xlink:title=" ">
<polygon fill="white" stroke="#666666" points="1208,-264.32 1116,-264.32 1116,-245.32 1208,-245.32 1208,-264.32"/>
<text text-anchor="middle" x="1162" y="-252.32" font-family="Helvetica,sans-Serif" font-size="10.00">uint64_div1000</text>
</a>
</g>
</g>
<!-- Node7&#45;&gt;Node11 -->
<g id="edge10_Node000007_Node000011" class="edge">
<title>Node7&#45;&gt;Node11</title>
<g id="a_edge10_Node000007_Node000011"><a xlink:title=" ">
<path fill="none" stroke="#63b8ff" d="M1064.71,-254.82C1077.28,-254.82 1091.7,-254.82 1105.47,-254.82"/>
<polygon fill="#63b8ff" stroke="#63b8ff" points="1105.84,-258.32 1115.84,-254.82 1105.84,-251.32 1105.84,-258.32"/>
</a>
</g>
</g>
<!-- Node9 -->
<g id="Node000009" class="node">
<title>Node9</title>
<g id="a_Node000009"><a xlink:href="hrt_8c.html#a5b4ffc7ff86bd5b893c4a98834e80200" target="_top" xlink:title=" ">
<polygon fill="white" stroke="#666666" points="1327,-395.32 1244,-395.32 1244,-376.32 1327,-376.32 1327,-395.32"/>
<text text-anchor="middle" x="1285.5" y="-383.32" font-family="Helvetica,sans-Serif" font-size="10.00">hrt_micros64I</text>
</a>
</g>
</g>
<!-- Node8&#45;&gt;Node9 -->
<g id="edge8_Node000008_Node000009" class="edge">
<title>Node8&#45;&gt;Node9</title>
<g id="a_edge8_Node000008_Node000009"><a xlink:title=" ">
<path fill="none" stroke="#63b8ff" d="M1202.11,-385.82C1212.1,-385.82 1222.99,-385.82 1233.48,-385.82"/>
<polygon fill="#63b8ff" stroke="#63b8ff" points="1233.79,-389.32 1243.79,-385.82 1233.79,-382.32 1233.79,-389.32"/>
</a>
</g>
</g>
<!-- Node10 -->
<g id="Node000010" class="node">
<title>Node10</title>
<g id="a_Node000010"><a xlink:href="hrt_8c.html#a723fef85be7bacb834af35445a891c18" target="_top" xlink:title=" ">
<polygon fill="white" stroke="#666666" points="1316.5,-451.32 1254.5,-451.32 1254.5,-432.32 1316.5,-432.32 1316.5,-451.32"/>
<text text-anchor="middle" x="1285.5" y="-439.32" font-family="Helvetica,sans-Serif" font-size="10.00">is_locked</text>
</a>
</g>
</g>
<!-- Node8&#45;&gt;Node10 -->
<g id="edge9_Node000008_Node000010" class="edge">
<title>Node8&#45;&gt;Node10</title>
<g id="a_edge9_Node000008_Node000010"><a xlink:title=" ">
<path fill="none" stroke="#63b8ff" d="M1183.89,-395.45C1203.39,-404.44 1232.71,-417.95 1254.67,-428.08"/>
<polygon fill="#63b8ff" stroke="#63b8ff" points="1253.34,-431.32 1263.89,-432.32 1256.27,-424.96 1253.34,-431.32"/>
</a>
</g>
</g>
<!-- Node13 -->
<g id="Node000013" class="node">
<title>Node13</title>
<g id="a_Node000013"><a xlink:href="classAP__HAL_1_1Scheduler.html#ab3175e2e6223ccfe82f957e41cc12b26" target="_top" xlink:title=" ">
<polygon fill="white" stroke="#666666" points="933.5,-605.82 819.5,-605.82 819.5,-575.82 933.5,-575.82 933.5,-605.82"/>
<text text-anchor="start" x="827.5" y="-593.82" font-family="Helvetica,sans-Serif" font-size="10.00">AP_HAL::Scheduler::</text>
<text text-anchor="middle" x="876.5" y="-582.82" font-family="Helvetica,sans-Serif" font-size="10.00">delay</text>
</a>
</g>
</g>
<!-- Node12&#45;&gt;Node13 -->
<g id="edge12_Node000012_Node000013" class="edge">
<title>Node12&#45;&gt;Node13</title>
<g id="a_edge12_Node000012_Node000013"><a xlink:title=" ">
<path fill="none" stroke="#63b8ff" d="M744.56,-546.35C765.83,-553.58 795.7,-563.72 821.54,-572.5"/>
<polygon fill="#63b8ff" stroke="#63b8ff" points="820.62,-575.88 831.22,-575.79 822.88,-569.26 820.62,-575.88"/>
</a>
</g>
</g>
<!-- Node14 -->
<g id="Node000014" class="node">
<title>Node14</title>
<g id="a_Node000014"><a xlink:href="classAP__HAL_1_1Scheduler.html#a78c4f1b1f192ac1c99544b6cc8f099b0" target="_top" xlink:title=" ">
<polygon fill="white" stroke="#666666" points="934.5,-557.82 818.5,-557.82 818.5,-527.82 934.5,-527.82 934.5,-557.82"/>
<text text-anchor="start" x="826.5" y="-545.82" font-family="Helvetica,sans-Serif" font-size="10.00">AP_HAL::Scheduler::</text>
<text text-anchor="middle" x="876.5" y="-534.82" font-family="Helvetica,sans-Serif" font-size="10.00">delay_microseconds</text>
</a>
</g>
</g>
<!-- Node12&#45;&gt;Node14 -->
<g id="edge13_Node000012_Node000014" class="edge">
<title>Node12&#45;&gt;Node14</title>
<g id="a_edge13_Node000012_Node000014"><a xlink:title=" ">
<path fill="none" stroke="#63b8ff" d="M758.69,-538.42C773.85,-538.99 791.36,-539.65 808.12,-540.28"/>
<polygon fill="#63b8ff" stroke="#63b8ff" points="808.31,-543.79 818.44,-540.67 808.58,-536.8 808.31,-543.79"/>
</a>
</g>
</g>
<!-- Node15 -->
<g id="Node000015" class="node">
<title>Node15</title>
<g id="a_Node000015"><a xlink:href="stdio_8h.html#aae132cc6af1eb6cf43bf011d8d63e854" target="_top" xlink:title=" ">
<polygon fill="white" stroke="#666666" points="901,-509.32 852,-509.32 852,-490.32 901,-490.32 901,-509.32"/>
<text text-anchor="middle" x="876.5" y="-497.32" font-family="Helvetica,sans-Serif" font-size="10.00">vprintf</text>
</a>
</g>
</g>
<!-- Node12&#45;&gt;Node15 -->
<g id="edge14_Node000012_Node000015" class="edge">
<title>Node12&#45;&gt;Node15</title>
<g id="a_edge14_Node000012_Node000015"><a xlink:title=" ">
<path fill="none" stroke="#63b8ff" d="M757.45,-527.3C783.69,-521.19 817.34,-513.36 841.99,-507.62"/>
<polygon fill="#63b8ff" stroke="#63b8ff" points="843.01,-510.98 851.96,-505.3 841.42,-504.16 843.01,-510.98"/>
</a>
</g>
</g>
<!-- Node17 -->
<g id="Node000017" class="node">
<title>Node17</title>
<g id="a_Node000017"><a xlink:href="classAP__HAL_1_1BetterStream.html#aa730be451d385d7ba03ee9677e6d91a2" target="_top" xlink:title=" ">
<polygon fill="white" stroke="#666666" points="939,-309.82 814,-309.82 814,-279.82 939,-279.82 939,-309.82"/>
<text text-anchor="start" x="822" y="-297.82" font-family="Helvetica,sans-Serif" font-size="10.00">AP_HAL::BetterStream</text>
<text text-anchor="middle" x="876.5" y="-286.82" font-family="Helvetica,sans-Serif" font-size="10.00">::vprintf</text>
</a>
</g>
</g>
<!-- Node16&#45;&gt;Node17 -->
<g id="edge16_Node000016_Node000017" class="edge">
<title>Node16&#45;&gt;Node17</title>
<g id="a_edge16_Node000016_Node000017"><a xlink:title=" ">
<path fill="none" stroke="#63b8ff" d="M778.43,-294.82C786.67,-294.82 795.18,-294.82 803.58,-294.82"/>
<polygon fill="#63b8ff" stroke="#63b8ff" points="803.74,-298.32 813.74,-294.82 803.74,-291.32 803.74,-298.32"/>
</a>
</g>
</g>
<!-- Node18 -->
<g id="Node000018" class="node">
<title>Node18</title>
<g id="a_Node000018"><a xlink:href="test__expandingstring__failure_8cpp.html#a98e0d5bb436a207f576379beaa786040" target="_top" xlink:title=" ">
<polygon fill="white" stroke="#666666" points="1066,-304.32 989,-304.32 989,-285.32 1066,-285.32 1066,-304.32"/>
<text text-anchor="middle" x="1027.5" y="-292.32" font-family="Helvetica,sans-Serif" font-size="10.00">print_vprintf</text>
</a>
</g>
</g>
<!-- Node17&#45;&gt;Node18 -->
<g id="edge17_Node000017_Node000018" class="edge">
<title>Node17&#45;&gt;Node18</title>
<g id="a_edge17_Node000017_Node000018"><a xlink:title=" ">
<path fill="none" stroke="#63b8ff" d="M939.39,-294.82C952.51,-294.82 966.17,-294.82 978.67,-294.82"/>
<polygon fill="#63b8ff" stroke="#63b8ff" points="978.86,-298.32 988.86,-294.82 978.86,-291.32 978.86,-298.32"/>
</a>
</g>
</g>
<!-- Node20 -->
<g id="Node000020" class="node">
<title>Node20</title>
<g id="a_Node000020"><a xlink:href="malloc_8c.html#a2807e26a012717736641384f91ab2563" target="_top" xlink:title=" ">
<polygon fill="white" stroke="#666666" points="899,-194.32 854,-194.32 854,-175.32 899,-175.32 899,-194.32"/>
<text text-anchor="middle" x="876.5" y="-182.32" font-family="Helvetica,sans-Serif" font-size="10.00">calloc</text>
</a>
</g>
</g>
<!-- Node19&#45;&gt;Node20 -->
<g id="edge19_Node000019_Node000020" class="edge">
<title>Node19&#45;&gt;Node20</title>
<g id="a_edge19_Node000019_Node000020"><a xlink:title=" ">
<path fill="none" stroke="#63b8ff" d="M772.56,-172.52C796.46,-175.38 823.48,-178.61 843.83,-181.04"/>
<polygon fill="#63b8ff" stroke="#63b8ff" points="843.47,-184.52 853.82,-182.23 844.3,-177.57 843.47,-184.52"/>
</a>
</g>
</g>
<!-- Node23 -->
<g id="Node000023" class="node">
<title>Node23</title>
<g id="a_Node000023"><a xlink:href="malloc_8c.html#afbedc913aa4651b3c3b4b3aecd9b4711" target="_top" xlink:title=" ">
<polygon fill="white" stroke="#666666" points="894.5,-157.32 858.5,-157.32 858.5,-138.32 894.5,-138.32 894.5,-157.32"/>
<text text-anchor="middle" x="876.5" y="-145.32" font-family="Helvetica,sans-Serif" font-size="10.00">free</text>
</a>
</g>
</g>
<!-- Node19&#45;&gt;Node23 -->
<g id="edge22_Node000019_Node000023" class="edge">
<title>Node19&#45;&gt;Node23</title>
<g id="a_edge22_Node000019_Node000023"><a xlink:title=" ">
<path fill="none" stroke="#63b8ff" d="M772.56,-159.48C798.29,-156.56 827.62,-153.24 848.38,-150.89"/>
<polygon fill="#63b8ff" stroke="#63b8ff" points="848.84,-154.36 858.38,-149.76 848.05,-147.41 848.84,-154.36"/>
</a>
</g>
</g>
<!-- Node21 -->
<g id="Node000021" class="node">
<title>Node21</title>
<g id="a_Node000021"><a xlink:href="malloc_8c.html#a9c36d0fe3ec4675cbffdc9b52f5fb399" target="_top" xlink:title=" ">
<polygon fill="white" stroke="#666666" points="1052.5,-194.32 1002.5,-194.32 1002.5,-175.32 1052.5,-175.32 1052.5,-194.32"/>
<text text-anchor="middle" x="1027.5" y="-182.32" font-family="Helvetica,sans-Serif" font-size="10.00">malloc</text>
</a>
</g>
</g>
<!-- Node20&#45;&gt;Node21 -->
<g id="edge20_Node000020_Node000021" class="edge">
<title>Node20&#45;&gt;Node21</title>
<g id="a_edge20_Node000020_Node000021"><a xlink:title=" ">
<path fill="none" stroke="#63b8ff" d="M899.17,-184.82C923.5,-184.82 963.33,-184.82 991.96,-184.82"/>
<polygon fill="#63b8ff" stroke="#63b8ff" points="992.34,-188.32 1002.34,-184.82 992.34,-181.32 992.34,-188.32"/>
</a>
</g>
</g>
<!-- Node22 -->
<g id="Node000022" class="node">
<title>Node22</title>
<g id="a_Node000022"><a xlink:href="malloc_8c.html#ad8aac7aa28f6dea23cb5bc9c3268e330" target="_top" xlink:title=" ">
<polygon fill="white" stroke="#666666" points="1201,-194.32 1123,-194.32 1123,-175.32 1201,-175.32 1201,-194.32"/>
<text text-anchor="middle" x="1162" y="-182.32" font-family="Helvetica,sans-Serif" font-size="10.00">malloc_flags</text>
</a>
</g>
</g>
<!-- Node21&#45;&gt;Node22 -->
<g id="edge21_Node000021_Node000022" class="edge">
<title>Node21&#45;&gt;Node22</title>
<g id="a_edge21_Node000021_Node000022"><a xlink:title=" ">
<path fill="none" stroke="#63b8ff" d="M1052.8,-184.82C1069.55,-184.82 1092.37,-184.82 1112.73,-184.82"/>
<polygon fill="#63b8ff" stroke="#63b8ff" points="1112.8,-188.32 1122.8,-184.82 1112.8,-181.32 1112.8,-188.32"/>
</a>
</g>
</g>
<!-- Node28 -->
<g id="Node000028" class="node">
<title>Node28</title>
<g id="a_Node000028"><a xlink:href="hrt_8c.html#aaec580bcdf1351b82110305f0f6dd437" target="_top" xlink:title=" ">
<polygon fill="white" stroke="#666666" points="755.5,-460.32 675.5,-460.32 675.5,-441.32 755.5,-441.32 755.5,-460.32"/>
<text text-anchor="middle" x="715.5" y="-448.32" font-family="Helvetica,sans-Serif" font-size="10.00">hrt_micros32</text>
</a>
</g>
</g>
<!-- Node27&#45;&gt;Node28 -->
<g id="edge27_Node000027_Node000028" class="edge">
<title>Node27&#45;&gt;Node28</title>
<g id="a_edge27_Node000027_Node000028"><a xlink:title=" ">
<path fill="none" stroke="#63b8ff" d="M596.54,-450.82C617.92,-450.82 643.42,-450.82 665.24,-450.82"/>
<polygon fill="#63b8ff" stroke="#63b8ff" points="665.3,-454.32 675.3,-450.82 665.3,-447.32 665.3,-454.32"/>
</a>
</g>
</g>
<!-- Node28&#45;&gt;Node10 -->
<g id="edge29_Node000028_Node000010" class="edge">
<title>Node28&#45;&gt;Node10</title>
<g id="a_edge29_Node000028_Node000010"><a xlink:title=" ">
<path fill="none" stroke="#63b8ff" d="M755.54,-450.21C859.01,-448.57 1139.51,-444.12 1244.29,-442.46"/>
<polygon fill="#63b8ff" stroke="#63b8ff" points="1244.51,-445.96 1254.45,-442.3 1244.4,-438.96 1244.51,-445.96"/>
</a>
</g>
</g>
<!-- Node29 -->
<g id="Node000029" class="node">
<title>Node29</title>
<g id="a_Node000029"><a xlink:href="hrt_8c.html#a8e056f016b4bb5d52754d890a539c433" target="_top" xlink:title=" ">
<polygon fill="white" stroke="#666666" points="929,-433.32 824,-433.32 824,-414.32 929,-414.32 929,-433.32"/>
<text text-anchor="middle" x="876.5" y="-421.32" font-family="Helvetica,sans-Serif" font-size="10.00">get_systime_us32</text>
</a>
</g>
</g>
<!-- Node28&#45;&gt;Node29 -->
<g id="edge28_Node000028_Node000029" class="edge">
<title>Node28&#45;&gt;Node29</title>
<g id="a_edge28_Node000028_Node000029"><a xlink:title=" ">
<path fill="none" stroke="#63b8ff" d="M755.8,-444.15C773.27,-441.18 794.24,-437.62 813.72,-434.32"/>
<polygon fill="#63b8ff" stroke="#63b8ff" points="814.47,-437.74 823.75,-432.61 813.3,-430.84 814.47,-437.74"/>
</a>
</g>
</g>
<!-- Node30&#45;&gt;Node8 -->
<g id="edge31_Node000030_Node000008" class="edge">
<title>Node30&#45;&gt;Node8</title>
<g id="a_edge31_Node000030_Node000008"><a xlink:title=" ">
<path fill="none" stroke="#63b8ff" d="M1080.11,-385.82C1090.46,-385.82 1101.32,-385.82 1111.6,-385.82"/>
<polygon fill="#63b8ff" stroke="#63b8ff" points="1111.64,-389.32 1121.64,-385.82 1111.64,-382.32 1111.64,-389.32"/>
</a>
</g>
</g>
<!-- Node32&#45;&gt;Node12 -->
<g id="edge37_Node000032_Node000012" class="edge">
<title>Node32&#45;&gt;Node12</title>
<g id="a_edge37_Node000032_Node000012"><a xlink:title=" ">
<path fill="none" stroke="#63b8ff" d="M447.33,-549.76C509.75,-546.74 603.99,-542.17 662.26,-539.35"/>
<polygon fill="#63b8ff" stroke="#63b8ff" points="662.53,-542.84 672.35,-538.86 662.19,-535.85 662.53,-542.84"/>
</a>
</g>
</g>
<!-- Node32&#45;&gt;Node27 -->
<g id="edge35_Node000032_Node000027" class="edge">
<title>Node32&#45;&gt;Node27</title>
<g id="a_edge35_Node000032_Node000027"><a xlink:title=" ">
<path fill="none" stroke="#63b8ff" d="M397.98,-537.73C415.96,-519.18 448.94,-487.95 483,-469.82 487.25,-467.56 491.8,-465.54 496.45,-463.74"/>
<polygon fill="#63b8ff" stroke="#63b8ff" points="497.81,-466.98 506.08,-460.35 495.48,-460.37 497.81,-466.98"/>
</a>
</g>
</g>
<!-- Node32&#45;&gt;Node31 -->
<g id="edge38_Node000032_Node000031" class="edge">
<title>Node32&#45;&gt;Node31</title>
<g id="a_edge38_Node000032_Node000031"><a xlink:title=" ">
<path fill="none" stroke="#63b8ff" d="M426.06,-537.78C447.78,-530.02 474.48,-520.47 497.43,-512.26"/>
<polygon fill="#63b8ff" stroke="#63b8ff" points="498.78,-515.5 507.01,-508.84 496.42,-508.91 498.78,-515.5"/>
</a>
</g>
</g>
<!-- Node33 -->
<g id="Node000033" class="node">
<title>Node33</title>
<g id="a_Node000033"><a xlink:href="AP__Common_8cpp.html#a2740711e3aead6635d9cec38367dc1aa" target="_top" xlink:title=" ">
<polygon fill="white" stroke="#666666" points="588,-584.32 512,-584.32 512,-565.32 588,-565.32 588,-584.32"/>
<text text-anchor="middle" x="550" y="-572.32" font-family="Helvetica,sans-Serif" font-size="10.00">char_to_hex</text>
</a>
</g>
</g>
<!-- Node32&#45;&gt;Node33 -->
<g id="edge34_Node000032_Node000033" class="edge">
<title>Node32&#45;&gt;Node33</title>
<g id="a_edge34_Node000032_Node000033"><a xlink:title=" ">
<path fill="none" stroke="#63b8ff" d="M447.32,-561.27C465.38,-563.68 484.74,-566.26 501.67,-568.51"/>
<polygon fill="#63b8ff" stroke="#63b8ff" points="501.49,-572.02 511.87,-569.87 502.42,-565.08 501.49,-572.02"/>
</a>
</g>
</g>
<!-- Node34 -->
<g id="Node000034" class="node">
<title>Node34</title>
<g id="a_Node000034"><a xlink:href="minimal_8cpp.html#a5b9bce7f62b32b7c494d2c916eb89347" target="_top" xlink:title=" ">
<polygon fill="white" stroke="#666666" points="575,-621.32 525,-621.32 525,-602.32 575,-602.32 575,-621.32"/>
<text text-anchor="middle" x="550" y="-609.32" font-family="Helvetica,sans-Serif" font-size="10.00">micros</text>
</a>
</g>
</g>
<!-- Node32&#45;&gt;Node34 -->
<g id="edge36_Node000032_Node000034" class="edge">
<title>Node32&#45;&gt;Node34</title>
<g id="a_edge36_Node000032_Node000034"><a xlink:title=" ">
<path fill="none" stroke="#63b8ff" d="M424.46,-567.86C431.98,-570.77 439.75,-573.83 447,-576.82 463.19,-583.5 466.55,-586.83 483,-592.82 493.25,-596.56 504.61,-600.05 514.97,-603"/>
<polygon fill="#63b8ff" stroke="#63b8ff" points="514.35,-606.46 524.92,-605.75 516.21,-599.71 514.35,-606.46"/>
</a>
</g>
</g>
<!-- Node38 -->
<g id="Node000038" class="node">
<title>Node38</title>
<g id="a_Node000038"><a xlink:href="classByteBuffer.html#a866914509694b8f71af1280ad2eba222" target="_top" xlink:title=" ">
<polygon fill="white" stroke="#666666" points="606,-658.32 494,-658.32 494,-639.32 606,-639.32 606,-658.32"/>
<text text-anchor="middle" x="550" y="-646.32" font-family="Helvetica,sans-Serif" font-size="10.00">ByteBuffer::commit</text>
</a>
</g>
</g>
<!-- Node37&#45;&gt;Node38 -->
<g id="edge42_Node000037_Node000038" class="edge">
<title>Node37&#45;&gt;Node38</title>
<g id="a_edge42_Node000037_Node000038"><a xlink:title=" ">
<path fill="none" stroke="#63b8ff" d="M432.61,-648.82C448.51,-648.82 466.45,-648.82 483.39,-648.82"/>
<polygon fill="#63b8ff" stroke="#63b8ff" points="483.78,-652.32 493.78,-648.82 483.78,-645.32 483.78,-652.32"/>
</a>
</g>
</g>
<!-- Node39 -->
<g id="Node000039" class="node">
<title>Node39</title>
<g id="a_Node000039"><a xlink:href="classByteBuffer.html#ad5f9e7af638987efeadb7b4bb9c0ae28" target="_top" xlink:title=" ">
<polygon fill="white" stroke="#666666" points="605.5,-695.32 494.5,-695.32 494.5,-676.32 605.5,-676.32 605.5,-695.32"/>
<text text-anchor="middle" x="550" y="-683.32" font-family="Helvetica,sans-Serif" font-size="10.00">ByteBuffer::reserve</text>
</a>
</g>
</g>
<!-- Node37&#45;&gt;Node39 -->
<g id="edge44_Node000037_Node000039" class="edge">
<title>Node37&#45;&gt;Node39</title>
<g id="a_edge44_Node000037_Node000039"><a xlink:title=" ">
<path fill="none" stroke="#63b8ff" d="M426.49,-658.35C447.87,-663.15 473.97,-669 496.58,-674.07"/>
<polygon fill="#63b8ff" stroke="#63b8ff" points="495.84,-677.49 506.37,-676.26 497.37,-670.66 495.84,-677.49"/>
</a>
</g>
</g>
<!-- Node38&#45;&gt;Node36 -->
<g id="edge43_Node000038_Node000036" class="edge">
<title>Node38&#45;&gt;Node36</title>
<g id="a_edge43_Node000038_Node000036"><a xlink:title=" ">
<path fill="none" stroke="#63b8ff" d="M593.11,-658.35C614.19,-663.12 639.92,-668.95 662.26,-674"/>
<polygon fill="#63b8ff" stroke="#63b8ff" points="661.73,-677.47 672.25,-676.26 663.27,-670.64 661.73,-677.47"/>
</a>
</g>
</g>
<!-- Node39&#45;&gt;Node36 -->
<g id="edge45_Node000039_Node000036" class="edge">
<title>Node39&#45;&gt;Node36</title>
<g id="a_edge45_Node000039_Node000036"><a xlink:title=" ">
<path fill="none" stroke="#63b8ff" d="M605.9,-685.82C621.27,-685.82 638.07,-685.82 653.76,-685.82"/>
<polygon fill="#63b8ff" stroke="#63b8ff" points="653.88,-689.32 663.88,-685.82 653.88,-682.32 653.88,-689.32"/>
</a>
</g>
</g>
<!-- Node40&#45;&gt;Node3 -->
<g id="edge47_Node000040_Node000003" class="edge">
<title>Node40&#45;&gt;Node3</title>
<g id="a_edge47_Node000040_Node000003"><a xlink:title=" ">
<path fill="none" stroke="#63b8ff" d="M241.95,-215.56C261.23,-233.06 290.56,-258.05 319,-275.82 324.36,-279.17 330.17,-282.37 336.02,-285.33"/>
<polygon fill="#63b8ff" stroke="#63b8ff" points="334.67,-288.57 345.19,-289.79 337.73,-282.27 334.67,-288.57"/>
</a>
</g>
</g>
<!-- Node40&#45;&gt;Node27 -->
<g id="edge52_Node000040_Node000027" class="edge">
<title>Node40&#45;&gt;Node27</title>
<g id="a_edge52_Node000040_Node000027"><a xlink:title=" ">
<path fill="none" stroke="#63b8ff" d="M231.38,-215.68C247.73,-244.14 280.21,-295.41 319,-328.82 351.87,-357.14 464.78,-411.59 519.2,-437.06"/>
<polygon fill="#63b8ff" stroke="#63b8ff" points="517.8,-440.27 528.34,-441.32 520.76,-433.93 517.8,-440.27"/>
</a>
</g>
</g>
<!-- Node41 -->
<g id="Node000041" class="node">
<title>Node41</title>
<g id="a_Node000041"><a xlink:href="classByteBuffer.html#a876a74665a4f4358cf2a57941543d0d6" target="_top" xlink:title=" ">
<polygon fill="white" stroke="#666666" points="608,-137.32 492,-137.32 492,-118.32 608,-118.32 608,-137.32"/>
<text text-anchor="middle" x="550" y="-125.32" font-family="Helvetica,sans-Serif" font-size="10.00">ByteBuffer::advance</text>
</a>
</g>
</g>
<!-- Node40&#45;&gt;Node41 -->
<g id="edge48_Node000040_Node000041" class="edge">
<title>Node40&#45;&gt;Node41</title>
<g id="a_edge48_Node000040_Node000041"><a xlink:title=" ">
<path fill="none" stroke="#63b8ff" d="M254.5,-174.19C272.98,-164.16 296.52,-152.97 319,-146.82 372.36,-132.23 435.06,-127.85 481.5,-126.92"/>
<polygon fill="#63b8ff" stroke="#63b8ff" points="481.81,-130.41 491.75,-126.76 481.7,-123.41 481.81,-130.41"/>
</a>
</g>
</g>
<!-- Node42 -->
<g id="Node000042" class="node">
<title>Node42</title>
<g id="a_Node000042"><a xlink:href="classByteBuffer.html#a340aabf4c3be89a8b3445d1da3648bce" target="_top" xlink:title=" ">
<polygon fill="white" stroke="#666666" points="775,-137.32 656,-137.32 656,-118.32 775,-118.32 775,-137.32"/>
<text text-anchor="middle" x="715.5" y="-125.32" font-family="Helvetica,sans-Serif" font-size="10.00">ByteBuffer::available</text>
</a>
</g>
</g>
<!-- Node40&#45;&gt;Node42 -->
<g id="edge50_Node000040_Node000042" class="edge">
<title>Node40&#45;&gt;Node42</title>
<g id="a_edge50_Node000040_Node000042"><a xlink:title=" ">
<path fill="none" stroke="#63b8ff" d="M252.96,-215.47C271.58,-225.91 295.73,-237.48 319,-242.82 374.45,-255.56 391.46,-255.13 447,-242.82 545.62,-220.97 558.75,-183.15 653,-146.82 658.82,-144.58 665.02,-142.42 671.16,-140.4"/>
<polygon fill="#63b8ff" stroke="#63b8ff" points="672.24,-143.73 680.7,-137.36 670.11,-137.06 672.24,-143.73"/>
</a>
</g>
</g>
<!-- Node43 -->
<g id="Node000043" class="node">
<title>Node43</title>
<g id="a_Node000043"><a xlink:href="packetise_8h.html#aa839927c1a7e288eccc7eca0e2e2cce4" target="_top" xlink:title=" ">
<polygon fill="white" stroke="#666666" points="437,-62.32 329,-62.32 329,-43.32 437,-43.32 437,-62.32"/>
<text text-anchor="middle" x="383" y="-50.32" font-family="Helvetica,sans-Serif" font-size="10.00">mavlink_packetise</text>
</a>
</g>
</g>
<!-- Node40&#45;&gt;Node43 -->
<g id="edge51_Node000040_Node000043" class="edge">
<title>Node40&#45;&gt;Node43</title>
<g id="a_edge51_Node000040_Node000043"><a xlink:title=" ">
<path fill="none" stroke="#63b8ff" d="M231.14,-173.94C246.99,-146.23 278.65,-97.7 319,-70.82 321.4,-69.23 323.93,-67.77 326.56,-66.44"/>
<polygon fill="#63b8ff" stroke="#63b8ff" points="328.03,-69.62 335.78,-62.4 325.21,-63.21 328.03,-69.62"/>
</a>
</g>
</g>
<!-- Node44 -->
<g id="Node000044" class="node">
<title>Node44</title>
<g id="a_Node000044"><a xlink:href="classByteBuffer.html#af34d398a28a23bf19cad598487eeb54d" target="_top" xlink:title=" ">
<polygon fill="white" stroke="#666666" points="445.5,-99.32 320.5,-99.32 320.5,-80.32 445.5,-80.32 445.5,-99.32"/>
<text text-anchor="middle" x="383" y="-87.32" font-family="Helvetica,sans-Serif" font-size="10.00">ByteBuffer::peekbytes</text>
</a>
</g>
</g>
<!-- Node40&#45;&gt;Node44 -->
<g id="edge53_Node000040_Node000044" class="edge">
<title>Node40&#45;&gt;Node44</title>
<g id="a_edge53_Node000040_Node000044"><a xlink:title=" ">
<path fill="none" stroke="#63b8ff" d="M240.9,-174.31C259.98,-156.46 289.6,-130.85 319,-113.82 325.98,-109.78 333.77,-106.18 341.42,-103.07"/>
<polygon fill="#63b8ff" stroke="#63b8ff" points="342.89,-106.25 350.97,-99.4 340.38,-99.72 342.89,-106.25"/>
</a>
</g>
</g>
<!-- Node46 -->
<g id="Node000046" class="node">
<title>Node46</title>
<g id="a_Node000046"><a xlink:href="classByteBuffer.html#ac8877785d9931ae293a216b46951b4a1" target="_top" xlink:title=" ">
<polygon fill="white" stroke="#666666" points="770.5,-62.32 660.5,-62.32 660.5,-43.32 770.5,-43.32 770.5,-62.32"/>
<text text-anchor="middle" x="715.5" y="-50.32" font-family="Helvetica,sans-Serif" font-size="10.00">ByteBuffer::readptr</text>
</a>
</g>
</g>
<!-- Node40&#45;&gt;Node46 -->
<g id="edge57_Node000040_Node000046" class="edge">
<title>Node40&#45;&gt;Node46</title>
<g id="a_edge57_Node000040_Node000046"><a xlink:title=" ">
<path fill="none" stroke="#63b8ff" d="M225.5,-174.3C236.41,-138.2 264.58,-64.25 319,-33.82 437.34,32.33 608.08,-14.72 680.24,-39.82"/>
<polygon fill="#63b8ff" stroke="#63b8ff" points="679.16,-43.15 689.76,-43.2 681.51,-36.55 679.16,-43.15"/>
</a>
</g>
</g>
<!-- Node47 -->
<g id="Node000047" class="node">
<title>Node47</title>
<g id="a_Node000047"><a xlink:href="classAP__HAL_1_1UARTDriver.html#af9f67918783d70fbbce1db64228af9da" target="_top" xlink:title=" ">
<polygon fill="white" stroke="#666666" points="441,-233.82 325,-233.82 325,-203.82 441,-203.82 441,-233.82"/>
<text text-anchor="start" x="333" y="-221.82" font-family="Helvetica,sans-Serif" font-size="10.00">AP_HAL::UARTDriver</text>
<text text-anchor="middle" x="383" y="-210.82" font-family="Helvetica,sans-Serif" font-size="10.00">::write</text>
</a>
</g>
</g>
<!-- Node40&#45;&gt;Node47 -->
<g id="edge58_Node000040_Node000047" class="edge">
<title>Node40&#45;&gt;Node47</title>
<g id="a_edge58_Node000040_Node000047"><a xlink:title=" ">
<path fill="none" stroke="#63b8ff" d="M283.1,-204.17C293.53,-205.72 304.39,-207.33 314.91,-208.89"/>
<polygon fill="#63b8ff" stroke="#63b8ff" points="314.48,-212.36 324.89,-210.36 315.51,-205.44 314.48,-212.36"/>
</a>
</g>
</g>
<!-- Node48 -->
<g id="Node000048" class="node">
<title>Node48</title>
<g id="a_Node000048"><a xlink:href="classSITL_1_1SerialDevice.html#a2bf4056cc80e4604bb81b2095f8d4ccb" target="_top" xlink:title=" ">
<polygon fill="white" stroke="#666666" points="435,-185.82 331,-185.82 331,-155.82 435,-155.82 435,-185.82"/>
<text text-anchor="start" x="339" y="-173.82" font-family="Helvetica,sans-Serif" font-size="10.00">SITL::SerialDevice</text>
<text text-anchor="middle" x="383" y="-162.82" font-family="Helvetica,sans-Serif" font-size="10.00">::write_to_device</text>
</a>
</g>
</g>
<!-- Node40&#45;&gt;Node48 -->
<g id="edge59_Node000040_Node000048" class="edge">
<title>Node40&#45;&gt;Node48</title>
<g id="a_edge59_Node000040_Node000048"><a xlink:title=" ">
<path fill="none" stroke="#63b8ff" d="M283.1,-185.48C295.45,-183.65 308.39,-181.73 320.69,-179.91"/>
<polygon fill="#63b8ff" stroke="#63b8ff" points="321.46,-183.33 330.84,-178.4 320.43,-176.41 321.46,-183.33"/>
</a>
</g>
</g>
<!-- Node41&#45;&gt;Node42 -->
<g id="edge49_Node000041_Node000042" class="edge">
<title>Node41&#45;&gt;Node42</title>
<g id="a_edge49_Node000041_Node000042"><a xlink:title=" ">
<path fill="none" stroke="#63b8ff" d="M608.18,-127.82C620.27,-127.82 633.15,-127.82 645.61,-127.82"/>
<polygon fill="#63b8ff" stroke="#63b8ff" points="645.96,-131.32 655.96,-127.82 645.96,-124.32 645.96,-131.32"/>
</a>
</g>
</g>
<!-- Node45 -->
<g id="Node000045" class="node">
<title>Node45</title>
<g id="a_Node000045"><a xlink:href="classByteBuffer.html#a413289b6d4cc7f9550b9c75dc7e886d5" target="_top" xlink:title=" ">
<polygon fill="white" stroke="#666666" points="612.5,-99.32 487.5,-99.32 487.5,-80.32 612.5,-80.32 612.5,-99.32"/>
<text text-anchor="middle" x="550" y="-87.32" font-family="Helvetica,sans-Serif" font-size="10.00">ByteBuffer::peekiovec</text>
</a>
</g>
</g>
<!-- Node44&#45;&gt;Node45 -->
<g id="edge54_Node000044_Node000045" class="edge">
<title>Node44&#45;&gt;Node45</title>
<g id="a_edge54_Node000044_Node000045"><a xlink:title=" ">
<path fill="none" stroke="#63b8ff" d="M445.91,-89.82C456.06,-89.82 466.65,-89.82 477.02,-89.82"/>
<polygon fill="#63b8ff" stroke="#63b8ff" points="477.29,-93.32 487.29,-89.82 477.29,-86.32 477.29,-93.32"/>
</a>
</g>
</g>
<!-- Node45&#45;&gt;Node42 -->
<g id="edge55_Node000045_Node000042" class="edge">
<title>Node45&#45;&gt;Node42</title>
<g id="a_edge55_Node000045_Node000042"><a xlink:title=" ">
<path fill="none" stroke="#63b8ff" d="M592.26,-99.41C613.93,-104.45 640.68,-110.67 663.63,-116"/>
<polygon fill="#63b8ff" stroke="#63b8ff" points="663.01,-119.45 673.54,-118.3 664.59,-112.63 663.01,-119.45"/>
</a>
</g>
</g>
<!-- Node45&#45;&gt;Node46 -->
<g id="edge56_Node000045_Node000046" class="edge">
<title>Node45&#45;&gt;Node46</title>
<g id="a_edge56_Node000045_Node000046"><a xlink:title=" ">
<path fill="none" stroke="#63b8ff" d="M593.11,-80.3C614.19,-75.52 639.92,-69.7 662.26,-64.65"/>
<polygon fill="#63b8ff" stroke="#63b8ff" points="663.27,-68.01 672.25,-62.38 661.73,-61.18 663.27,-68.01"/>
</a>
</g>
</g>
</g>
</svg>
