<?xml version="1.0" encoding="UTF-8" standalone="no"?>
<!DOCTYPE svg PUBLIC "-//W3C//DTD SVG 1.1//EN"
 "http://www.w3.org/Graphics/SVG/1.1/DTD/svg11.dtd">
<!-- Generated by graphviz version 2.43.0 (0)
 -->
<!-- Title: SITL::RF_Benewake::packet_for_alt Pages: 1 -->
<svg width="278pt" height="182pt"
 viewBox="0.00 0.00 278.00 182.00" xmlns="http://www.w3.org/2000/svg" xmlns:xlink="http://www.w3.org/1999/xlink">

<svg id="main" version="1.1" xmlns="http://www.w3.org/2000/svg" xmlns:xlink="http://www.w3.org/1999/xlink" xml:space="preserve" onload="init(evt)">
<style type="text/css"><![CDATA[
.node, .edge {opacity: 0.7;}
.node.selected, .edge.selected {opacity: 1;}
.edge:hover path { stroke: red; }
.edge:hover polygon { stroke: red; fill: red; }
]]></style>
<script type="application/ecmascript" xlink:href="svg.min.js"/>
<svg id="graph" class="graph">
<g id="graph0" class="graph" transform="scale(1 1) rotate(0) translate(4 178)">
<title>SITL::RF_Benewake::packet_for_alt</title>
<!-- Node1 -->
<g id="Node000001" class="node">
<title>Node1</title>
<g id="a_Node000001"><a xlink:title=" ">
<polygon fill="#999999" stroke="#666666" points="117,-102 0,-102 0,-72 117,-72 117,-102"/>
<text text-anchor="start" x="8" y="-90" font-family="Helvetica,sans-Serif" font-size="10.00">SITL::RF_Benewake::</text>
<text text-anchor="middle" x="58.5" y="-79" font-family="Helvetica,sans-Serif" font-size="10.00">packet_for_alt</text>
</a>
</g>
</g>
<!-- Node2 -->
<g id="Node000002" class="node">
<title>Node2</title>
<g id="a_Node000002"><a xlink:href="classSITL_1_1RF__Benewake.html#a916befb3748086a347988d986bc4a3d5" target="_top" xlink:title=" ">
<polygon fill="white" stroke="#666666" points="270,-174 153,-174 153,-144 270,-144 270,-174"/>
<text text-anchor="start" x="161" y="-162" font-family="Helvetica,sans-Serif" font-size="10.00">SITL::RF_Benewake::</text>
<text text-anchor="middle" x="211.5" y="-151" font-family="Helvetica,sans-Serif" font-size="10.00">byte4</text>
</a>
</g>
</g>
<!-- Node1&#45;&gt;Node2 -->
<g id="edge1_Node000001_Node000002" class="edge">
<title>Node1&#45;&gt;Node2</title>
<g id="a_edge1_Node000001_Node000002"><a xlink:title=" ">
<path fill="none" stroke="#63b8ff" d="M87.45,-102.08C105.88,-111.84 130.66,-124.62 153,-135 156.54,-136.64 160.23,-138.3 163.95,-139.94"/>
<polygon fill="#63b8ff" stroke="#63b8ff" points="162.63,-143.18 173.2,-143.93 165.4,-136.75 162.63,-143.18"/>
</a>
</g>
</g>
<!-- Node3 -->
<g id="Node000003" class="node">
<title>Node3</title>
<g id="a_Node000003"><a xlink:href="classSITL_1_1RF__Benewake.html#a3ee4a64eba0da38c2b12302129fa6d58" target="_top" xlink:title=" ">
<polygon fill="white" stroke="#666666" points="270,-126 153,-126 153,-96 270,-96 270,-126"/>
<text text-anchor="start" x="161" y="-114" font-family="Helvetica,sans-Serif" font-size="10.00">SITL::RF_Benewake::</text>
<text text-anchor="middle" x="211.5" y="-103" font-family="Helvetica,sans-Serif" font-size="10.00">byte5</text>
</a>
</g>
</g>
<!-- Node1&#45;&gt;Node3 -->
<g id="edge2_Node000001_Node000003" class="edge">
<title>Node1&#45;&gt;Node3</title>
<g id="a_edge2_Node000001_Node000003"><a xlink:title=" ">
<path fill="none" stroke="#63b8ff" d="M117.02,-96.14C125.46,-97.48 134.23,-98.88 142.86,-100.25"/>
<polygon fill="#63b8ff" stroke="#63b8ff" points="142.47,-103.73 152.89,-101.84 143.57,-96.82 142.47,-103.73"/>
</a>
</g>
</g>
<!-- Node4 -->
<g id="Node000004" class="node">
<title>Node4</title>
<g id="a_Node000004"><a xlink:href="classSITL_1_1RF__Benewake.html#a39c3f9908eb050b7f51e70ec67a16999" target="_top" xlink:title=" ">
<polygon fill="white" stroke="#666666" points="270,-78 153,-78 153,-48 270,-48 270,-78"/>
<text text-anchor="start" x="161" y="-66" font-family="Helvetica,sans-Serif" font-size="10.00">SITL::RF_Benewake::</text>
<text text-anchor="middle" x="211.5" y="-55" font-family="Helvetica,sans-Serif" font-size="10.00">byte6</text>
</a>
</g>
</g>
<!-- Node1&#45;&gt;Node4 -->
<g id="edge3_Node000001_Node000004" class="edge">
<title>Node1&#45;&gt;Node4</title>
<g id="a_edge3_Node000001_Node000004"><a xlink:title=" ">
<path fill="none" stroke="#63b8ff" d="M117.02,-77.86C125.46,-76.52 134.23,-75.12 142.86,-73.75"/>
<polygon fill="#63b8ff" stroke="#63b8ff" points="143.57,-77.18 152.89,-72.16 142.47,-70.27 143.57,-77.18"/>
</a>
</g>
</g>
<!-- Node5 -->
<g id="Node000005" class="node">
<title>Node5</title>
<g id="a_Node000005"><a xlink:href="classSITL_1_1RF__Benewake.html#a899f54068fa26755491e9908bfaaac0c" target="_top" xlink:title=" ">
<polygon fill="white" stroke="#666666" points="270,-30 153,-30 153,0 270,0 270,-30"/>
<text text-anchor="start" x="161" y="-18" font-family="Helvetica,sans-Serif" font-size="10.00">SITL::RF_Benewake::</text>
<text text-anchor="middle" x="211.5" y="-7" font-family="Helvetica,sans-Serif" font-size="10.00">byte7</text>
</a>
</g>
</g>
<!-- Node1&#45;&gt;Node5 -->
<g id="edge4_Node000001_Node000005" class="edge">
<title>Node1&#45;&gt;Node5</title>
<g id="a_edge4_Node000001_Node000005"><a xlink:title=" ">
<path fill="none" stroke="#63b8ff" d="M87.45,-71.92C105.88,-62.16 130.66,-49.38 153,-39 156.54,-37.36 160.23,-35.7 163.95,-34.06"/>
<polygon fill="#63b8ff" stroke="#63b8ff" points="165.4,-37.25 173.2,-30.07 162.63,-30.82 165.4,-37.25"/>
</a>
</g>
</g>
</g>
</svg>
</svg>

<style type='text/css'>
<![CDATA[
[data-mouse-over-selected='false'] { opacity: 0.7; }
[data-mouse-over-selected='true']  { opacity: 1.0; }
]]>
</style>
<script type="application/ecmascript"><![CDATA[
document.addEventListener('DOMContentLoaded', (event) => {
  highlightEdges();
  highlightAdjacentNodes();
});
]]></script>
</svg>
