<?xml version="1.0" encoding="UTF-8" standalone="no"?>
<!DOCTYPE svg PUBLIC "-//W3C//DTD SVG 1.1//EN"
 "http://www.w3.org/Graphics/SVG/1.1/DTD/svg11.dtd">
<!-- Generated by graphviz version 2.43.0 (0)
 -->
<!-- Title: AP_HAL::Scheduler Pages: 1 -->
<svg width="262pt" height="175pt"
 viewBox="0.00 0.00 262.00 175.00" xmlns="http://www.w3.org/2000/svg" xmlns:xlink="http://www.w3.org/1999/xlink">
<g id="graph0" class="graph" transform="scale(1 1) rotate(0) translate(4 171)">
<title>AP_HAL::Scheduler</title>
<!-- Node1 -->
<g id="Node000001" class="node">
<title>Node1</title>
<g id="a_Node000001"><a xlink:title=" ">
<polygon fill="#999999" stroke="#666666" points="108,-93 0,-93 0,-74 108,-74 108,-93"/>
<text text-anchor="middle" x="54" y="-81" font-family="Helvetica,sans-Serif" font-size="10.00">AP_HAL::Scheduler</text>
</a>
</g>
</g>
<!-- Node2 -->
<g id="Node000002" class="node">
<title>Node2</title>
<g id="a_Node000002"><a xlink:href="classChibiOS_1_1Scheduler.html" target="_top" xlink:title=" ">
<polygon fill="white" stroke="#666666" points="253.5,-167 144.5,-167 144.5,-148 253.5,-148 253.5,-167"/>
<text text-anchor="middle" x="199" y="-155" font-family="Helvetica,sans-Serif" font-size="10.00">ChibiOS::Scheduler</text>
</a>
</g>
</g>
<!-- Node1&#45;&gt;Node2 -->
<g id="edge1_Node000001_Node000002" class="edge">
<title>Node1&#45;&gt;Node2</title>
<g id="a_edge1_Node000001_Node000002"><a xlink:title=" ">
<path fill="none" stroke="#63b8ff" d="M76.36,-98.99C93.88,-111.19 119.69,-128 144,-139.5 150.7,-142.67 158.11,-145.52 165.24,-147.98"/>
<polygon fill="#63b8ff" stroke="#63b8ff" points="78.18,-96 68,-93.09 74.14,-101.71 78.18,-96"/>
</a>
</g>
</g>
<!-- Node3 -->
<g id="Node000003" class="node">
<title>Node3</title>
<g id="a_Node000003"><a xlink:href="classESP32_1_1Scheduler.html" target="_top" xlink:title=" ">
<polygon fill="white" stroke="#666666" points="249.5,-130 148.5,-130 148.5,-111 249.5,-111 249.5,-130"/>
<text text-anchor="middle" x="199" y="-118" font-family="Helvetica,sans-Serif" font-size="10.00">ESP32::Scheduler</text>
</a>
</g>
</g>
<!-- Node1&#45;&gt;Node3 -->
<g id="edge2_Node000001_Node000003" class="edge">
<title>Node1&#45;&gt;Node3</title>
<g id="a_edge2_Node000001_Node000003"><a xlink:title=" ">
<path fill="none" stroke="#63b8ff" d="M101.58,-95.55C120.77,-100.52 142.71,-106.19 160.8,-110.88"/>
<polygon fill="#63b8ff" stroke="#63b8ff" points="102.38,-92.14 91.83,-93.03 100.63,-98.92 102.38,-92.14"/>
</a>
</g>
</g>
<!-- Node4 -->
<g id="Node000004" class="node">
<title>Node4</title>
<g id="a_Node000004"><a xlink:href="classEmpty_1_1Scheduler.html" target="_top" xlink:title=" ">
<polygon fill="white" stroke="#666666" points="249.5,-93 148.5,-93 148.5,-74 249.5,-74 249.5,-93"/>
<text text-anchor="middle" x="199" y="-81" font-family="Helvetica,sans-Serif" font-size="10.00">Empty::Scheduler</text>
</a>
</g>
</g>
<!-- Node1&#45;&gt;Node4 -->
<g id="edge3_Node000001_Node000004" class="edge">
<title>Node1&#45;&gt;Node4</title>
<g id="a_edge3_Node000001_Node000004"><a xlink:title=" ">
<path fill="none" stroke="#63b8ff" d="M118.27,-83.5C128.4,-83.5 138.75,-83.5 148.49,-83.5"/>
<polygon fill="#63b8ff" stroke="#63b8ff" points="118.25,-80 108.25,-83.5 118.25,-87 118.25,-80"/>
</a>
</g>
</g>
<!-- Node5 -->
<g id="Node000005" class="node">
<title>Node5</title>
<g id="a_Node000005"><a xlink:href="classHALSITL_1_1Scheduler.html" target="_top" xlink:title=" ">
<polygon fill="white" stroke="#666666" points="254,-56 144,-56 144,-37 254,-37 254,-56"/>
<text text-anchor="middle" x="199" y="-44" font-family="Helvetica,sans-Serif" font-size="10.00">HALSITL::Scheduler</text>
</a>
</g>
</g>
<!-- Node1&#45;&gt;Node5 -->
<g id="edge4_Node000001_Node000005" class="edge">
<title>Node1&#45;&gt;Node5</title>
<g id="a_edge4_Node000001_Node000005"><a xlink:title=" ">
<path fill="none" stroke="#63b8ff" d="M101.58,-71.45C120.77,-66.48 142.71,-60.81 160.8,-56.12"/>
<polygon fill="#63b8ff" stroke="#63b8ff" points="100.63,-68.08 91.83,-73.97 102.38,-74.86 100.63,-68.08"/>
</a>
</g>
</g>
<!-- Node6 -->
<g id="Node000006" class="node">
<title>Node6</title>
<g id="a_Node000006"><a xlink:href="classLinux_1_1Scheduler.html" target="_top" xlink:title=" ">
<polygon fill="white" stroke="#666666" points="247.5,-19 150.5,-19 150.5,0 247.5,0 247.5,-19"/>
<text text-anchor="middle" x="199" y="-7" font-family="Helvetica,sans-Serif" font-size="10.00">Linux::Scheduler</text>
</a>
</g>
</g>
<!-- Node1&#45;&gt;Node6 -->
<g id="edge5_Node000001_Node000006" class="edge">
<title>Node1&#45;&gt;Node6</title>
<g id="a_edge5_Node000001_Node000006"><a xlink:title=" ">
<path fill="none" stroke="#63b8ff" d="M76.75,-68.21C94.33,-56.32 120,-39.97 144,-28.5 151.35,-24.99 159.54,-21.77 167.26,-19.03"/>
<polygon fill="#63b8ff" stroke="#63b8ff" points="74.62,-65.43 68.35,-73.97 78.58,-71.2 74.62,-65.43"/>
</a>
</g>
</g>
</g>
</svg>
