<?xml version="1.0" encoding="UTF-8" standalone="no"?>
<!DOCTYPE svg PUBLIC "-//W3C//DTD SVG 1.1//EN"
 "http://www.w3.org/Graphics/SVG/1.1/DTD/svg11.dtd">
<!-- Generated by graphviz version 2.43.0 (0)
 -->
<!-- Title: AverageFilter::reset Pages: 1 -->
<svg width="459pt" height="140pt"
 viewBox="0.00 0.00 459.00 140.00" xmlns="http://www.w3.org/2000/svg" xmlns:xlink="http://www.w3.org/1999/xlink">

<svg id="main" version="1.1" xmlns="http://www.w3.org/2000/svg" xmlns:xlink="http://www.w3.org/1999/xlink" xml:space="preserve" onload="init(evt)">
<style type="text/css"><![CDATA[
.node, .edge {opacity: 0.7;}
.node.selected, .edge.selected {opacity: 1;}
.edge:hover path { stroke: red; }
.edge:hover polygon { stroke: red; fill: red; }
]]></style>
<script type="application/ecmascript" xlink:href="svg.min.js"/>
<svg id="graph" class="graph">
<g id="graph0" class="graph" transform="scale(1 1) rotate(0) translate(4 136)">
<title>AverageFilter::reset</title>
<!-- Node1 -->
<g id="Node000001" class="node">
<title>Node1</title>
<g id="a_Node000001"><a xlink:title=" ">
<polygon fill="#999999" stroke="#666666" points="451,-75 339,-75 339,-56 451,-56 451,-75"/>
<text text-anchor="middle" x="395" y="-63" font-family="Helvetica,sans-Serif" font-size="10.00">AverageFilter::reset</text>
</a>
</g>
</g>
<!-- Node2 -->
<g id="Node000002" class="node">
<title>Node2</title>
<g id="a_Node000002"><a xlink:href="classAP__TECS.html#a6c1b577ec8587bee338d0751ecd7a6f4" target="_top" xlink:title=" ">
<polygon fill="white" stroke="#666666" points="303,-132 164,-132 164,-113 303,-113 303,-132"/>
<text text-anchor="middle" x="233.5" y="-120" font-family="Helvetica,sans-Serif" font-size="10.00">AP_TECS::_update_speed</text>
</a>
</g>
</g>
<!-- Node1&#45;&gt;Node2 -->
<g id="edge1_Node000001_Node000002" class="edge">
<title>Node1&#45;&gt;Node2</title>
<g id="a_edge1_Node000001_Node000002"><a xlink:title=" ">
<path fill="none" stroke="#63b8ff" d="M358.32,-78.54C341.54,-84.65 321.26,-91.99 303,-98.5 289.47,-103.32 274.41,-108.61 261.86,-112.99"/>
<polygon fill="#63b8ff" stroke="#63b8ff" points="359.55,-81.82 367.74,-75.11 357.15,-75.24 359.55,-81.82"/>
</a>
</g>
</g>
<!-- Node3 -->
<g id="Node000003" class="node">
<title>Node3</title>
<g id="a_Node000003"><a xlink:href="classAP__TECS.html#a4d52e4f283cb0475971dc3ce22597f1c" target="_top" xlink:title=" ">
<polygon fill="white" stroke="#666666" points="128,-113 0,-113 0,-94 128,-94 128,-113"/>
<text text-anchor="middle" x="64" y="-101" font-family="Helvetica,sans-Serif" font-size="10.00">AP_TECS::update_50hz</text>
</a>
</g>
</g>
<!-- Node1&#45;&gt;Node3 -->
<g id="edge5_Node000001_Node000003" class="edge">
<title>Node1&#45;&gt;Node3</title>
<g id="a_edge5_Node000001_Node000003"><a xlink:title=" ">
<path fill="none" stroke="#63b8ff" d="M328.74,-73.04C270.49,-79.77 185.72,-89.56 128.13,-96.21"/>
<polygon fill="#63b8ff" stroke="#63b8ff" points="329.4,-76.48 338.93,-71.86 328.6,-69.53 329.4,-76.48"/>
</a>
</g>
</g>
<!-- Node4 -->
<g id="Node000004" class="node">
<title>Node4</title>
<g id="a_Node000004"><a xlink:href="test__averagefilter_8cpp.html#a09f9e95e778597b6d0cf7ea6e4d0549b" target="_top" xlink:title=" ">
<polygon fill="white" stroke="#666666" points="254,-56 213,-56 213,-37 254,-37 254,-56"/>
<text text-anchor="middle" x="233.5" y="-44" font-family="Helvetica,sans-Serif" font-size="10.00">TEST</text>
</a>
</g>
</g>
<!-- Node1&#45;&gt;Node4 -->
<g id="edge3_Node000001_Node000004" class="edge">
<title>Node1&#45;&gt;Node4</title>
<g id="a_edge3_Node000001_Node000004"><a xlink:title=" ">
<path fill="none" stroke="#63b8ff" d="M328.53,-57.7C301.75,-54.51 272.75,-51.06 254.14,-48.84"/>
<polygon fill="#63b8ff" stroke="#63b8ff" points="328.32,-61.2 338.66,-58.91 329.15,-54.25 328.32,-61.2"/>
</a>
</g>
</g>
<!-- Node5 -->
<g id="Node000005" class="node">
<title>Node5</title>
<g id="a_Node000005"><a xlink:href="test__averagefilter_8cpp.html#a575e30d2e4bfb6f1b6004b9c5762f76f" target="_top" xlink:title=" ">
<polygon fill="white" stroke="#666666" points="254,-19 213,-19 213,0 254,0 254,-19"/>
<text text-anchor="middle" x="233.5" y="-7" font-family="Helvetica,sans-Serif" font-size="10.00">TEST</text>
</a>
</g>
</g>
<!-- Node1&#45;&gt;Node5 -->
<g id="edge4_Node000001_Node000005" class="edge">
<title>Node1&#45;&gt;Node5</title>
<g id="a_edge4_Node000001_Node000005"><a xlink:title=" ">
<path fill="none" stroke="#63b8ff" d="M362.92,-51.82C345.49,-44.41 323.24,-35.4 303,-28.5 286.76,-22.97 267.96,-17.84 254.17,-14.31"/>
<polygon fill="#63b8ff" stroke="#63b8ff" points="362,-55.24 372.57,-55.97 364.76,-48.8 362,-55.24"/>
</a>
</g>
</g>
<!-- Node2&#45;&gt;Node3 -->
<g id="edge2_Node000002_Node000003" class="edge">
<title>Node2&#45;&gt;Node3</title>
<g id="a_edge2_Node000002_Node000003"><a xlink:title=" ">
<path fill="none" stroke="#63b8ff" d="M153.82,-113.58C145.21,-112.6 136.51,-111.61 128.12,-110.66"/>
<polygon fill="#63b8ff" stroke="#63b8ff" points="153.56,-117.07 163.89,-114.72 154.35,-110.11 153.56,-117.07"/>
</a>
</g>
</g>
</g>
</svg>
</svg>

<style type='text/css'>
<![CDATA[
[data-mouse-over-selected='false'] { opacity: 0.7; }
[data-mouse-over-selected='true']  { opacity: 1.0; }
]]>
</style>
<script type="application/ecmascript"><![CDATA[
document.addEventListener('DOMContentLoaded', (event) => {
  highlightEdges();
  highlightAdjacentNodes();
});
]]></script>
</svg>
