<?xml version="1.0" encoding="UTF-8" standalone="no"?>
<!DOCTYPE svg PUBLIC "-//W3C//DTD SVG 1.1//EN"
 "http://www.w3.org/Graphics/SVG/1.1/DTD/svg11.dtd">
<!-- Generated by graphviz version 2.43.0 (0)
 -->
<!-- Title: NavEKF3::getVariances Pages: 1 -->
<svg width="457pt" height="27pt"
 viewBox="0.00 0.00 457.00 27.00" xmlns="http://www.w3.org/2000/svg" xmlns:xlink="http://www.w3.org/1999/xlink">
<g id="graph0" class="graph" transform="scale(1 1) rotate(0) translate(4 23)">
<title>NavEKF3::getVariances</title>
<!-- Node1 -->
<g id="Node000001" class="node">
<title>Node1</title>
<g id="a_Node000001"><a xlink:title=" ">
<polygon fill="#999999" stroke="#666666" points="130,-19 0,-19 0,0 130,0 130,-19"/>
<text text-anchor="middle" x="65" y="-7" font-family="Helvetica,sans-Serif" font-size="10.00">NavEKF3::getVariances</text>
</a>
</g>
</g>
<!-- Node2 -->
<g id="Node000002" class="node">
<title>Node2</title>
<g id="a_Node000002"><a xlink:href="classNavEKF3__core.html#af6b7a2be6adb12caf10a55a54c820501" target="_top" xlink:title=" ">
<polygon fill="white" stroke="#666666" points="322,-19 166,-19 166,0 322,0 322,-19"/>
<text text-anchor="middle" x="244" y="-7" font-family="Helvetica,sans-Serif" font-size="10.00">NavEKF3_core::getVariances</text>
</a>
</g>
</g>
<!-- Node1&#45;&gt;Node2 -->
<g id="edge1_Node000001_Node000002" class="edge">
<title>Node1&#45;&gt;Node2</title>
<g id="a_edge1_Node000001_Node000002"><a xlink:title=" ">
<path fill="none" stroke="#63b8ff" d="M130.15,-9.5C138.47,-9.5 147.1,-9.5 155.72,-9.5"/>
<polygon fill="#63b8ff" stroke="#63b8ff" points="155.81,-13 165.81,-9.5 155.81,-6 155.81,-13"/>
</a>
</g>
</g>
<!-- Node3 -->
<g id="Node000003" class="node">
<title>Node3</title>
<g id="a_Node000003"><a xlink:href="structVector2.html#ab0a4967c31a10beb0809d53997835326" target="_top" xlink:title=" ">
<polygon fill="white" stroke="#666666" points="449,-19 358,-19 358,0 449,0 449,-19"/>
<text text-anchor="middle" x="403.5" y="-7" font-family="Helvetica,sans-Serif" font-size="10.00">Vector2::tofloat</text>
</a>
</g>
</g>
<!-- Node2&#45;&gt;Node3 -->
<g id="edge2_Node000002_Node000003" class="edge">
<title>Node2&#45;&gt;Node3</title>
<g id="a_edge2_Node000002_Node000003"><a xlink:title=" ">
<path fill="none" stroke="#63b8ff" d="M322.37,-9.5C330.9,-9.5 339.45,-9.5 347.63,-9.5"/>
<polygon fill="#63b8ff" stroke="#63b8ff" points="347.75,-13 357.75,-9.5 347.75,-6 347.75,-13"/>
</a>
</g>
</g>
</g>
</svg>
