<?xml version="1.0" encoding="UTF-8" standalone="no"?>
<!DOCTYPE svg PUBLIC "-//W3C//DTD SVG 1.1//EN"
 "http://www.w3.org/Graphics/SVG/1.1/DTD/svg11.dtd">
<!-- Generated by graphviz version 2.43.0 (0)
 -->
<!-- Title: tt__PTControlDirection Pages: 1 -->
<svg width="351pt" height="93pt"
 viewBox="0.00 0.00 351.00 93.00" xmlns="http://www.w3.org/2000/svg" xmlns:xlink="http://www.w3.org/1999/xlink">
<g id="graph0" class="graph" transform="scale(1 1) rotate(0) translate(4 89)">
<title>tt__PTControlDirection</title>
<!-- Node1 -->
<g id="Node000001" class="node">
<title>Node1</title>
<g id="a_Node000001"><a xlink:title="&quot;http://www.onvif.org/ver10/schema&quot;:PTControlDirection is a complexType.">
<polygon fill="#999999" stroke="#666666" points="177,-19 52,-19 52,0 177,0 177,-19"/>
<text text-anchor="middle" x="114.5" y="-7" font-family="Helvetica,sans-Serif" font-size="10.00">tt__PTControlDirection</text>
</a>
</g>
</g>
<!-- Node2 -->
<g id="Node000002" class="node">
<title>Node2</title>
<g id="a_Node000002"><a xlink:href="classtt____EFlip.html" target="_top" xlink:title="&quot;http://www.onvif.org/ver10/schema&quot;:EFlip is a complexType.">
<polygon fill="white" stroke="#666666" points="59,-85 0,-85 0,-66 59,-66 59,-85"/>
<text text-anchor="middle" x="29.5" y="-73" font-family="Helvetica,sans-Serif" font-size="10.00">tt__EFlip</text>
</a>
</g>
</g>
<!-- Node2&#45;&gt;Node1 -->
<g id="edge1_Node000001_Node000002" class="edge">
<title>Node2&#45;&gt;Node1</title>
<g id="a_edge1_Node000001_Node000002"><a xlink:title=" ">
<path fill="none" stroke="#9a32cd" stroke-dasharray="5,2" d="M48.98,-59.83C65.65,-47.28 89.09,-29.63 102.95,-19.2"/>
<polygon fill="#9a32cd" stroke="#9a32cd" points="46.85,-57.06 40.96,-65.87 51.06,-62.65 46.85,-57.06"/>
</a>
</g>
<text text-anchor="middle" x="91.5" y="-40" font-family="Helvetica,sans-Serif" font-size="10.00" fill="grey"> EFlip</text>
</g>
<!-- Node3 -->
<g id="Node000003" class="node">
<title>Node3</title>
<g id="a_Node000003"><a xlink:href="classtt____Reverse.html" target="_top" xlink:title="&quot;http://www.onvif.org/ver10/schema&quot;:Reverse is a complexType.">
<polygon fill="white" stroke="#666666" points="151.5,-85 77.5,-85 77.5,-66 151.5,-66 151.5,-85"/>
<text text-anchor="middle" x="114.5" y="-73" font-family="Helvetica,sans-Serif" font-size="10.00">tt__Reverse</text>
</a>
</g>
</g>
<!-- Node3&#45;&gt;Node1 -->
<g id="edge2_Node000001_Node000003" class="edge">
<title>Node3&#45;&gt;Node1</title>
<g id="a_edge2_Node000001_Node000003"><a xlink:title=" ">
<path fill="none" stroke="#9a32cd" stroke-dasharray="5,2" d="M114.5,-55.58C114.5,-43.63 114.5,-28.72 114.5,-19.41"/>
<polygon fill="#9a32cd" stroke="#9a32cd" points="111,-55.87 114.5,-65.87 118,-55.87 111,-55.87"/>
</a>
</g>
<text text-anchor="middle" x="136" y="-40" font-family="Helvetica,sans-Serif" font-size="10.00" fill="grey"> Reverse</text>
</g>
<!-- Node4 -->
<g id="Node000004" class="node">
<title>Node4</title>
<g id="a_Node000004"><a xlink:href="classtt____PTControlDirectionExtension.html" target="_top" xlink:title="&quot;http://www.onvif.org/ver10/schema&quot;:PTControlDirectionExtension is a complexType.">
<polygon fill="white" stroke="#666666" points="343,-85 170,-85 170,-66 343,-66 343,-85"/>
<text text-anchor="middle" x="256.5" y="-73" font-family="Helvetica,sans-Serif" font-size="10.00">tt__PTControlDirectionExtension</text>
</a>
</g>
</g>
<!-- Node4&#45;&gt;Node1 -->
<g id="edge3_Node000001_Node000004" class="edge">
<title>Node4&#45;&gt;Node1</title>
<g id="a_edge3_Node000001_Node000004"><a xlink:title=" ">
<path fill="none" stroke="#9a32cd" stroke-dasharray="5,2" d="M228.09,-61.69C200.1,-49.08 158.12,-30.16 133.8,-19.2"/>
<polygon fill="#9a32cd" stroke="#9a32cd" points="226.79,-64.95 237.35,-65.87 229.67,-58.57 226.79,-64.95"/>
</a>
</g>
<text text-anchor="middle" x="219.5" y="-40" font-family="Helvetica,sans-Serif" font-size="10.00" fill="grey"> Extension</text>
</g>
</g>
</svg>
