<?xml version="1.0" encoding="UTF-8" standalone="no"?>
<!DOCTYPE svg PUBLIC "-//W3C//DTD SVG 1.1//EN"
 "http://www.w3.org/Graphics/SVG/1.1/DTD/svg11.dtd">
<!-- Generated by graphviz version 2.43.0 (0)
 -->
<!-- Title: AP_SmartAudio::request_settings Pages: 1 -->
<svg width="718pt" height="76pt"
 viewBox="0.00 0.00 718.00 75.50" xmlns="http://www.w3.org/2000/svg" xmlns:xlink="http://www.w3.org/1999/xlink">
<g id="graph0" class="graph" transform="scale(1 1) rotate(0) translate(4 71.5)">
<title>AP_SmartAudio::request_settings</title>
<!-- Node1 -->
<g id="Node000001" class="node">
<title>Node1</title>
<g id="a_Node000001"><a xlink:title=" ">
<polygon fill="#999999" stroke="#666666" points="134,-51 0,-51 0,-21 134,-21 134,-51"/>
<text text-anchor="start" x="8" y="-39" font-family="Helvetica,sans-Serif" font-size="10.00">AP_SmartAudio::request</text>
<text text-anchor="middle" x="67" y="-28" font-family="Helvetica,sans-Serif" font-size="10.00">_settings</text>
</a>
</g>
</g>
<!-- Node2 -->
<g id="Node000002" class="node">
<title>Node2</title>
<g id="a_Node000002"><a xlink:href="classAP__SmartAudio.html#aa7233837c147e85e1b9a200916803a50" target="_top" xlink:title=" ">
<polygon fill="white" stroke="#666666" points="301,-51 170,-51 170,-21 301,-21 301,-51"/>
<text text-anchor="start" x="178" y="-39" font-family="Helvetica,sans-Serif" font-size="10.00">AP_SmartAudio::push</text>
<text text-anchor="middle" x="235.5" y="-28" font-family="Helvetica,sans-Serif" font-size="10.00">_command_only_frame</text>
</a>
</g>
</g>
<!-- Node1&#45;&gt;Node2 -->
<g id="edge1_Node000001_Node000002" class="edge">
<title>Node1&#45;&gt;Node2</title>
<g id="a_edge1_Node000001_Node000002"><a xlink:title=" ">
<path fill="none" stroke="#63b8ff" d="M134.28,-36C142.6,-36 151.15,-36 159.59,-36"/>
<polygon fill="#63b8ff" stroke="#63b8ff" points="159.8,-39.5 169.8,-36 159.8,-32.5 159.8,-39.5"/>
</a>
</g>
</g>
<!-- Node3 -->
<g id="Node000003" class="node">
<title>Node3</title>
<g id="a_Node000003"><a xlink:href="crc_8cpp.html#a3847aba5ef740b48bad45cf964cd13d9" target="_top" xlink:title=" ">
<polygon fill="white" stroke="#666666" points="477,-67.5 361,-67.5 361,-48.5 477,-48.5 477,-67.5"/>
<text text-anchor="middle" x="419" y="-55.5" font-family="Helvetica,sans-Serif" font-size="10.00">crc8_dvb_s2_update</text>
</a>
</g>
</g>
<!-- Node2&#45;&gt;Node3 -->
<g id="edge2_Node000002_Node000003" class="edge">
<title>Node2&#45;&gt;Node3</title>
<g id="a_edge2_Node000002_Node000003"><a xlink:title=" ">
<path fill="none" stroke="#63b8ff" d="M301,-43.82C317.2,-45.78 334.62,-47.89 350.95,-49.87"/>
<polygon fill="#63b8ff" stroke="#63b8ff" points="350.6,-53.36 360.95,-51.08 351.44,-46.41 350.6,-53.36"/>
</a>
</g>
</g>
<!-- Node6 -->
<g id="Node000006" class="node">
<title>Node6</title>
<g id="a_Node000006"><a xlink:href="structAP__SmartAudio_1_1FrameHeader.html#a2c3ef930cccac99027ed07beadebdd27" target="_top" xlink:title=" ">
<polygon fill="white" stroke="#666666" points="501,-30 337,-30 337,0 501,0 501,-30"/>
<text text-anchor="start" x="345" y="-18" font-family="Helvetica,sans-Serif" font-size="10.00">AP_SmartAudio::FrameHeader</text>
<text text-anchor="middle" x="419" y="-7" font-family="Helvetica,sans-Serif" font-size="10.00">::init</text>
</a>
</g>
</g>
<!-- Node2&#45;&gt;Node6 -->
<g id="edge5_Node000002_Node000006" class="edge">
<title>Node2&#45;&gt;Node6</title>
<g id="a_edge5_Node000002_Node000006"><a xlink:title=" ">
<path fill="none" stroke="#63b8ff" d="M301,-28.54C309.35,-27.57 318.02,-26.57 326.7,-25.56"/>
<polygon fill="#63b8ff" stroke="#63b8ff" points="327.34,-29.01 336.88,-24.39 326.54,-22.06 327.34,-29.01"/>
</a>
</g>
</g>
<!-- Node4 -->
<g id="Node000004" class="node">
<title>Node4</title>
<g id="a_Node000004"><a xlink:href="crc_8cpp.html#a8450224e1f7b32c4041be241deb2b6fe" target="_top" xlink:title=" ">
<polygon fill="white" stroke="#666666" points="614,-67.5 537,-67.5 537,-48.5 614,-48.5 614,-67.5"/>
<text text-anchor="middle" x="575.5" y="-55.5" font-family="Helvetica,sans-Serif" font-size="10.00">crc8_dvb_s2</text>
</a>
</g>
</g>
<!-- Node3&#45;&gt;Node4 -->
<g id="edge3_Node000003_Node000004" class="edge">
<title>Node3&#45;&gt;Node4</title>
<g id="a_edge3_Node000003_Node000004"><a xlink:title=" ">
<path fill="none" stroke="#63b8ff" d="M477.09,-58C493.45,-58 511.11,-58 526.83,-58"/>
<polygon fill="#63b8ff" stroke="#63b8ff" points="526.86,-61.5 536.86,-58 526.86,-54.5 526.86,-61.5"/>
</a>
</g>
</g>
<!-- Node5 -->
<g id="Node000005" class="node">
<title>Node5</title>
<g id="a_Node000005"><a xlink:href="crc_8cpp.html#ab834d52a3be6d3e4166d9df0630c3505" target="_top" xlink:title=" ">
<polygon fill="white" stroke="#666666" points="710,-67.5 650,-67.5 650,-48.5 710,-48.5 710,-67.5"/>
<text text-anchor="middle" x="680" y="-55.5" font-family="Helvetica,sans-Serif" font-size="10.00">crc8_dvb</text>
</a>
</g>
</g>
<!-- Node4&#45;&gt;Node5 -->
<g id="edge4_Node000004_Node000005" class="edge">
<title>Node4&#45;&gt;Node5</title>
<g id="a_edge4_Node000004_Node000005"><a xlink:title=" ">
<path fill="none" stroke="#63b8ff" d="M614.09,-58C622.36,-58 631.15,-58 639.5,-58"/>
<polygon fill="#63b8ff" stroke="#63b8ff" points="639.77,-61.5 649.77,-58 639.77,-54.5 639.77,-61.5"/>
</a>
</g>
</g>
</g>
</svg>
