<?xml version="1.0" encoding="UTF-8" standalone="no"?>
<!DOCTYPE svg PUBLIC "-//W3C//DTD SVG 1.1//EN"
 "http://www.w3.org/Graphics/SVG/1.1/DTD/svg11.dtd">
<!-- Generated by graphviz version 2.43.0 (0)
 -->
<!-- Title: Linux::RCOutput_AeroIO Pages: 1 -->
<svg width="346pt" height="313pt"
 viewBox="0.00 0.00 345.50 313.00" xmlns="http://www.w3.org/2000/svg" xmlns:xlink="http://www.w3.org/1999/xlink">

<svg id="main" version="1.1" xmlns="http://www.w3.org/2000/svg" xmlns:xlink="http://www.w3.org/1999/xlink" xml:space="preserve" onload="init(evt)">
<style type="text/css"><![CDATA[
.node, .edge {opacity: 0.7;}
.node.selected, .edge.selected {opacity: 1;}
.edge:hover path { stroke: red; }
.edge:hover polygon { stroke: red; fill: red; }
]]></style>
<script type="application/ecmascript" xlink:href="svg.min.js"/>
<svg id="graph" class="graph">
<g id="graph0" class="graph" transform="scale(1 1) rotate(0) translate(4 309)">
<title>Linux::RCOutput_AeroIO</title>
<!-- Node1 -->
<g id="Node000001" class="node">
<title>Node1</title>
<g id="a_Node000001"><a xlink:title=" ">
<polygon fill="#999999" stroke="#666666" points="136.5,-19 2.5,-19 2.5,0 136.5,0 136.5,-19"/>
<text text-anchor="middle" x="69.5" y="-7" font-family="Helvetica,sans-Serif" font-size="10.00">Linux::RCOutput_AeroIO</text>
</a>
</g>
</g>
<!-- Node2 -->
<g id="Node000002" class="node">
<title>Node2</title>
<g id="a_Node000002"><a xlink:href="classAP__HAL_1_1RCOutput.html" target="_top" xlink:title=" ">
<polygon fill="white" stroke="#666666" points="107,-90.5 0,-90.5 0,-71.5 107,-71.5 107,-90.5"/>
<text text-anchor="middle" x="53.5" y="-78.5" font-family="Helvetica,sans-Serif" font-size="10.00">AP_HAL::RCOutput</text>
</a>
</g>
</g>
<!-- Node2&#45;&gt;Node1 -->
<g id="edge1_Node000001_Node000002" class="edge">
<title>Node2&#45;&gt;Node1</title>
<g id="a_edge1_Node000001_Node000002"><a xlink:title=" ">
<path fill="none" stroke="#63b8ff" d="M57.73,-61.62C60.9,-47.86 65.09,-29.65 67.52,-19.09"/>
<polygon fill="#63b8ff" stroke="#63b8ff" points="54.29,-60.95 55.46,-71.48 61.12,-62.52 54.29,-60.95"/>
</a>
</g>
</g>
<!-- Node3 -->
<g id="Node000003" class="node">
<title>Node3</title>
<g id="a_Node000003"><a xlink:href="classAP__HAL_1_1OwnPtr.html" target="_top" xlink:title=" ">
<polygon fill="white" stroke="#666666" points="244,-96 125,-96 125,-66 244,-66 244,-96"/>
<text text-anchor="start" x="133" y="-84" font-family="Helvetica,sans-Serif" font-size="10.00">AP_HAL::OwnPtr&lt; AP</text>
<text text-anchor="middle" x="184.5" y="-73" font-family="Helvetica,sans-Serif" font-size="10.00">_HAL::Device &gt;</text>
</a>
</g>
</g>
<!-- Node3&#45;&gt;Node1 -->
<g id="edge2_Node000001_Node000003" class="edge">
<title>Node3&#45;&gt;Node1</title>
<g id="a_edge2_Node000001_Node000003"><a xlink:title=" ">
<path fill="none" stroke="#9a32cd" stroke-dasharray="5,2" d="M152.62,-60.73C130.02,-47.07 100.77,-29.4 83.68,-19.07"/>
<polygon fill="#9a32cd" stroke="#9a32cd" points="150.86,-63.76 161.23,-65.94 154.48,-57.77 150.86,-63.76"/>
</a>
</g>
<text text-anchor="middle" x="142" y="-40" font-family="Helvetica,sans-Serif" font-size="10.00" fill="grey"> _spi</text>
</g>
<!-- Node4 -->
<g id="Node000004" class="node">
<title>Node4</title>
<g id="a_Node000004"><a xlink:href="classAP__HAL_1_1Device.html" target="_top" xlink:title=" ">
<polygon fill="white" stroke="#666666" points="231.5,-162 137.5,-162 137.5,-143 231.5,-143 231.5,-162"/>
<text text-anchor="middle" x="184.5" y="-150" font-family="Helvetica,sans-Serif" font-size="10.00">AP_HAL::Device</text>
</a>
</g>
</g>
<!-- Node4&#45;&gt;Node3 -->
<g id="edge3_Node000003_Node000004" class="edge">
<title>Node4&#45;&gt;Node3</title>
<g id="a_edge3_Node000003_Node000004"><a xlink:title=" ">
<path fill="none" stroke="#9a32cd" stroke-dasharray="5,2" d="M184.5,-132.71C184.5,-121.19 184.5,-106.68 184.5,-96.14"/>
<polygon fill="#9a32cd" stroke="#9a32cd" points="181,-132.98 184.5,-142.98 188,-132.98 181,-132.98"/>
</a>
</g>
<text text-anchor="middle" x="195.5" y="-117" font-family="Helvetica,sans-Serif" font-size="10.00" fill="grey"> _ptr</text>
</g>
<!-- Node5 -->
<g id="Node000005" class="node">
<title>Node5</title>
<g id="a_Node000005"><a xlink:href="unionAP__HAL_1_1Device_1_1DeviceId.html" target="_top" xlink:title=" ">
<polygon fill="white" stroke="#666666" points="175,-239 32,-239 32,-220 175,-220 175,-239"/>
<text text-anchor="middle" x="103.5" y="-227" font-family="Helvetica,sans-Serif" font-size="10.00">AP_HAL::Device::DeviceId</text>
</a>
</g>
</g>
<!-- Node5&#45;&gt;Node4 -->
<g id="edge4_Node000004_Node000005" class="edge">
<title>Node5&#45;&gt;Node4</title>
<g id="a_edge4_Node000004_Node000005"><a xlink:title=" ">
<path fill="none" stroke="#9a32cd" stroke-dasharray="5,2" d="M120.23,-213.01C136.92,-197.55 161.95,-174.38 175.32,-162"/>
<polygon fill="#9a32cd" stroke="#9a32cd" points="117.75,-210.53 112.79,-219.9 122.51,-215.67 117.75,-210.53"/>
</a>
</g>
<text text-anchor="middle" x="174.5" y="-188.5" font-family="Helvetica,sans-Serif" font-size="10.00" fill="grey"> _bus_id</text>
</g>
<!-- Node6 -->
<g id="Node000006" class="node">
<title>Node6</title>
<g id="a_Node000006"><a xlink:href="structAP__HAL_1_1Device_1_1DeviceStructure.html" target="_top" xlink:title=" ">
<polygon fill="white" stroke="#666666" points="192.5,-305 14.5,-305 14.5,-286 192.5,-286 192.5,-305"/>
<text text-anchor="middle" x="103.5" y="-293" font-family="Helvetica,sans-Serif" font-size="10.00">AP_HAL::Device::DeviceStructure</text>
</a>
</g>
</g>
<!-- Node6&#45;&gt;Node5 -->
<g id="edge5_Node000005_Node000006" class="edge">
<title>Node6&#45;&gt;Node5</title>
<g id="a_edge5_Node000005_Node000006"><a xlink:title=" ">
<path fill="none" stroke="#9a32cd" stroke-dasharray="5,2" d="M103.5,-275.58C103.5,-263.63 103.5,-248.72 103.5,-239.41"/>
<polygon fill="#9a32cd" stroke="#9a32cd" points="100,-275.87 103.5,-285.87 107,-275.87 100,-275.87"/>
</a>
</g>
<text text-anchor="middle" x="124" y="-260" font-family="Helvetica,sans-Serif" font-size="10.00" fill="grey"> devid_s</text>
</g>
<!-- Node7 -->
<g id="Node000007" class="node">
<title>Node7</title>
<g id="a_Node000007"><a xlink:href="structAP__HAL_1_1Device_1_1checkreg.html" target="_top" xlink:title=" ">
<polygon fill="white" stroke="#666666" points="337.5,-239 193.5,-239 193.5,-220 337.5,-220 337.5,-239"/>
<text text-anchor="middle" x="265.5" y="-227" font-family="Helvetica,sans-Serif" font-size="10.00">AP_HAL::Device::checkreg</text>
</a>
</g>
</g>
<!-- Node7&#45;&gt;Node4 -->
<g id="edge6_Node000004_Node000007" class="edge">
<title>Node7&#45;&gt;Node4</title>
<g id="a_edge6_Node000004_Node000007"><a xlink:title=" ">
<path fill="none" stroke="#9a32cd" stroke-dasharray="5,2" d="M248.77,-213.01C232.08,-197.55 207.05,-174.38 193.68,-162"/>
<polygon fill="#9a32cd" stroke="#9a32cd" points="246.49,-215.67 256.21,-219.9 251.25,-210.53 246.49,-215.67"/>
</a>
</g>
<text text-anchor="middle" x="266.5" y="-194" font-family="Helvetica,sans-Serif" font-size="10.00" fill="grey"> last_reg_fail</text>
<text text-anchor="middle" x="266.5" y="-183" font-family="Helvetica,sans-Serif" font-size="10.00" fill="grey">regs</text>
</g>
</g>
</svg>
</svg>

<style type='text/css'>
<![CDATA[
[data-mouse-over-selected='false'] { opacity: 0.7; }
[data-mouse-over-selected='true']  { opacity: 1.0; }
]]>
</style>
<script type="application/ecmascript"><![CDATA[
document.addEventListener('DOMContentLoaded', (event) => {
  highlightEdges();
  highlightAdjacentNodes();
});
]]></script>
</svg>
