<?xml version="1.0" encoding="UTF-8" standalone="no"?>
<!DOCTYPE svg PUBLIC "-//W3C//DTD SVG 1.1//EN"
 "http://www.w3.org/Graphics/SVG/1.1/DTD/svg11.dtd">
<!-- Generated by graphviz version 2.43.0 (0)
 -->
<!-- Title: AC_AttitudeControl::lean_angle_max_cd Pages: 1 -->
<!--zoomable 386 -->

<svg id="main" version="1.1" xmlns="http://www.w3.org/2000/svg" xmlns:xlink="http://www.w3.org/1999/xlink" xml:space="preserve" onload="init(evt)">
<style type="text/css"><![CDATA[
.node, .edge {opacity: 0.7;}
.node.selected, .edge.selected {opacity: 1;}
.edge:hover path { stroke: red; }
.edge:hover polygon { stroke: red; fill: red; }
]]></style>

<defs>
  <circle id="rim" cx="0" cy="0" r="7"/>
  <circle id="rim2" cx="0" cy="0" r="3.5"/>
  <g id="zoomPlus">
    <use xlink:href="#rim" fill="#404040"><set attributeName="fill" to="#808080" begin="zoomplus.mouseover" end="zoomplus.mouseout"/></use>
    <path d="M-4,0h8M0,-4v8" fill="none" stroke="white" stroke-width="1.5" pointer-events="none"/>
  </g>
  <g id="zoomMin">
    <use xlink:href="#rim" fill="#404040"><set attributeName="fill" to="#808080" begin="zoomminus.mouseover" end="zoomminus.mouseout"/></use>
    <path d="M-4,0h8" fill="none" stroke="white" stroke-width="1.5" pointer-events="none"/>
  </g>
  <g id="arrowUp" transform="translate(30 24)">
    <use xlink:href="#rim"/>
    <path pointer-events="none" fill="none" stroke="white" stroke-width="1.5" d="M0,-3.0v7 M-2.5,-0.5L0,-3.0L2.5,-0.5"/>
  </g>
  <g id="arrowRight" transform="rotate(90) translate(36 -43)">
    <use xlink:href="#rim"/>
    <path pointer-events="none" fill="none" stroke="white" stroke-width="1.5" d="M0,-3.0v7 M-2.5,-0.5L0,-3.0L2.5,-0.5"/>
  </g>
  <g id="arrowDown" transform="rotate(180) translate(-30 -48)">
    <use xlink:href="#rim"/>
    <path pointer-events="none" fill="none" stroke="white" stroke-width="1.5" d="M0,-3.0v7 M-2.5,-0.5L0,-3.0L2.5,-0.5"/>
  </g>
  <g id="arrowLeft" transform="rotate(270) translate(-36 17)">
    <use xlink:href="#rim"/>
    <path pointer-events="none" fill="none" stroke="white" stroke-width="1.5" d="M0,-3.0v7 M-2.5,-0.5L0,-3.0L2.5,-0.5"/>
  </g>
  <g id="resetDef">
    <use xlink:href="#rim2" fill="#404040"><set attributeName="fill" to="#808080" begin="reset.mouseover" end="reset.mouseout"/></use>
  </g>
</defs>
<script type="application/ecmascript">
var viewWidth = 1444;
var viewHeight = 386;
var sectionId = 'dynsection-90';
</script>
<script type="application/ecmascript" xlink:href="svg.min.js"/>
<svg id="graph" class="graph">
<g id="viewport">
<title>AC_AttitudeControl::lean_angle_max_cd</title>
<!-- Node1 -->
<g id="Node000001" class="node">
<title>Node1</title>
<g id="a_Node000001"><a xlink:title=" ">
<polygon fill="#999999" stroke="#666666" points="1436,-273.5 1317,-273.5 1317,-243.5 1436,-243.5 1436,-273.5"/>
<text text-anchor="start" x="1325" y="-261.5" font-family="Helvetica,sans-Serif" font-size="10.00">AC_AttitudeControl</text>
<text text-anchor="middle" x="1376.5" y="-250.5" font-family="Helvetica,sans-Serif" font-size="10.00">::lean_angle_max_cd</text>
</a>
</g>
</g>
<!-- Node2 -->
<g id="Node000002" class="node">
<title>Node2</title>
<g id="a_Node000002"><a xlink:href="classAC__Loiter.html#a6582aea0fac09c77ad003a0ce85a323e" target="_top" xlink:title="get maximum lean angle when using loiter">
<polygon fill="white" stroke="#666666" points="1126,-316.5 1009,-316.5 1009,-286.5 1126,-286.5 1126,-316.5"/>
<text text-anchor="start" x="1017" y="-304.5" font-family="Helvetica,sans-Serif" font-size="10.00">AC_Loiter::get_angle</text>
<text text-anchor="middle" x="1067.5" y="-293.5" font-family="Helvetica,sans-Serif" font-size="10.00">_max_cd</text>
</a>
</g>
</g>
<!-- Node1&#45;&gt;Node2 -->
<g id="edge1_Node000001_Node000002" class="edge">
<title>Node1&#45;&gt;Node2</title>
<g id="a_edge1_Node000001_Node000002"><a xlink:title=" ">
<path fill="none" stroke="#63b8ff" d="M1312.45,-275.99C1302.01,-278.46 1291.24,-280.75 1281,-282.5 1228.97,-291.37 1169.02,-296.26 1126.09,-298.84"/>
<polygon fill="#63b8ff" stroke="#63b8ff" points="1313.46,-279.35 1322.34,-273.58 1311.8,-272.55 1313.46,-279.35"/>
</a>
</g>
</g>
<!-- Node5 -->
<g id="Node000005" class="node">
<title>Node5</title>
<g id="a_Node000005"><a xlink:href="classAC__PosControl.html#a84660e7d1713d6217dafeb78e037e42f" target="_top" xlink:title="get_lean_angle_max_cd &#45; returns the maximum lean angle the autopilot may request">
<polygon fill="white" stroke="#666666" points="1281,-273.5 1162,-273.5 1162,-243.5 1281,-243.5 1281,-273.5"/>
<text text-anchor="start" x="1170" y="-261.5" font-family="Helvetica,sans-Serif" font-size="10.00">AC_PosControl::get</text>
<text text-anchor="middle" x="1221.5" y="-250.5" font-family="Helvetica,sans-Serif" font-size="10.00">_lean_angle_max_cd</text>
</a>
</g>
</g>
<!-- Node1&#45;&gt;Node5 -->
<g id="edge4_Node000001_Node000005" class="edge">
<title>Node1&#45;&gt;Node5</title>
<g id="a_edge4_Node000001_Node000005"><a xlink:title=" ">
<path fill="none" stroke="#63b8ff" d="M1306.51,-258.5C1298.01,-258.5 1289.38,-258.5 1281.06,-258.5"/>
<polygon fill="#63b8ff" stroke="#63b8ff" points="1306.78,-262 1316.78,-258.5 1306.78,-255 1306.78,-262"/>
</a>
</g>
</g>
<!-- Node26 -->
<g id="Node000026" class="node">
<title>Node26</title>
<g id="a_Node000026"><a xlink:href="classAC__Loiter.html#ab99c92b5b940d3f4cde77ba3b1972d9f" target="_top" xlink:title=" ">
<polygon fill="white" stroke="#666666" points="958,-120.5 825,-120.5 825,-90.5 958,-90.5 958,-120.5"/>
<text text-anchor="start" x="833" y="-108.5" font-family="Helvetica,sans-Serif" font-size="10.00">AC_Loiter::sanity_check</text>
<text text-anchor="middle" x="891.5" y="-97.5" font-family="Helvetica,sans-Serif" font-size="10.00">_params</text>
</a>
</g>
</g>
<!-- Node1&#45;&gt;Node26 -->
<g id="edge31_Node000001_Node000026" class="edge">
<title>Node1&#45;&gt;Node26</title>
<g id="a_edge31_Node000001_Node000026"><a xlink:title=" ">
<path fill="none" stroke="#63b8ff" d="M1318.82,-240.34C1240.93,-215.42 1096.44,-169.29 973,-130.5 962.67,-127.25 951.58,-123.79 941.04,-120.52"/>
<polygon fill="#63b8ff" stroke="#63b8ff" points="1317.85,-243.71 1328.44,-243.42 1319.98,-237.04 1317.85,-243.71"/>
</a>
</g>
</g>
<!-- Node3 -->
<g id="Node000003" class="node">
<title>Node3</title>
<g id="a_Node000003"><a xlink:href="classAC__Loiter.html#a1c307789bd8c2bdf754aa6fd8e053fb1" target="_top" xlink:title=" ">
<polygon fill="white" stroke="#666666" points="956.5,-361.5 826.5,-361.5 826.5,-331.5 956.5,-331.5 956.5,-361.5"/>
<text text-anchor="start" x="834.5" y="-349.5" font-family="Helvetica,sans-Serif" font-size="10.00">AC_Loiter::calc_desired</text>
<text text-anchor="middle" x="891.5" y="-338.5" font-family="Helvetica,sans-Serif" font-size="10.00">_velocity</text>
</a>
</g>
</g>
<!-- Node2&#45;&gt;Node3 -->
<g id="edge2_Node000002_Node000003" class="edge">
<title>Node2&#45;&gt;Node3</title>
<g id="a_edge2_Node000002_Node000003"><a xlink:title=" ">
<path fill="none" stroke="#63b8ff" d="M998.82,-319C982.96,-323.11 966.19,-327.44 950.78,-331.43"/>
<polygon fill="#63b8ff" stroke="#63b8ff" points="999.76,-322.38 1008.56,-316.48 998,-315.6 999.76,-322.38"/>
</a>
</g>
</g>
<!-- Node4 -->
<g id="Node000004" class="node">
<title>Node4</title>
<g id="a_Node000004"><a xlink:href="classAC__Loiter.html#aeb9de62ab04f35ffba3a6d1ff479bf5a" target="_top" xlink:title="run the loiter controller">
<polygon fill="white" stroke="#666666" points="741,-378 638,-378 638,-359 741,-359 741,-378"/>
<text text-anchor="middle" x="689.5" y="-366" font-family="Helvetica,sans-Serif" font-size="10.00">AC_Loiter::update</text>
</a>
</g>
</g>
<!-- Node3&#45;&gt;Node4 -->
<g id="edge3_Node000003_Node000004" class="edge">
<title>Node3&#45;&gt;Node4</title>
<g id="a_edge3_Node000003_Node000004"><a xlink:title=" ">
<path fill="none" stroke="#63b8ff" d="M816.22,-354.67C791.26,-357.42 764,-360.41 741.27,-362.92"/>
<polygon fill="#63b8ff" stroke="#63b8ff" points="816.84,-358.12 826.39,-353.55 816.07,-351.17 816.84,-358.12"/>
</a>
</g>
</g>
<!-- Node5&#45;&gt;Node2 -->
<g id="edge5_Node000005_Node000002" class="edge">
<title>Node5&#45;&gt;Node2</title>
<g id="a_edge5_Node000005_Node000002"><a xlink:title=" ">
<path fill="none" stroke="#63b8ff" d="M1157.46,-276.33C1145.55,-279.7 1133.2,-283.2 1121.63,-286.47"/>
<polygon fill="#63b8ff" stroke="#63b8ff" points="1158.67,-279.63 1167.34,-273.54 1156.76,-272.89 1158.67,-279.63"/>
</a>
</g>
</g>
<!-- Node6 -->
<g id="Node000006" class="node">
<title>Node6</title>
<g id="a_Node000006"><a xlink:href="classAC__PosControl.html#a76932eed8be2c3c9b84728c3e56edd63" target="_top" xlink:title=" ">
<polygon fill="white" stroke="#666666" points="1122.5,-228.5 1012.5,-228.5 1012.5,-198.5 1122.5,-198.5 1122.5,-228.5"/>
<text text-anchor="start" x="1020.5" y="-216.5" font-family="Helvetica,sans-Serif" font-size="10.00">AC_PosControl::init</text>
<text text-anchor="middle" x="1067.5" y="-205.5" font-family="Helvetica,sans-Serif" font-size="10.00">_xy_controller</text>
</a>
</g>
</g>
<!-- Node5&#45;&gt;Node6 -->
<g id="edge6_Node000005_Node000006" class="edge">
<title>Node5&#45;&gt;Node6</title>
<g id="a_edge6_Node000005_Node000006"><a xlink:title=" ">
<path fill="none" stroke="#63b8ff" d="M1159.85,-240.54C1146.44,-236.57 1132.37,-232.41 1119.4,-228.57"/>
<polygon fill="#63b8ff" stroke="#63b8ff" points="1158.88,-243.91 1169.46,-243.39 1160.87,-237.2 1158.88,-243.91"/>
</a>
</g>
</g>
<!-- Node23 -->
<g id="Node000023" class="node">
<title>Node23</title>
<g id="a_Node000023"><a xlink:href="classAC__PosControl.html#ab71db0f35377ec2265517a91a0afa4a5" target="_top" xlink:title=" ">
<polygon fill="white" stroke="#666666" points="955.5,-291.5 827.5,-291.5 827.5,-261.5 955.5,-261.5 955.5,-291.5"/>
<text text-anchor="start" x="835.5" y="-279.5" font-family="Helvetica,sans-Serif" font-size="10.00">AC_PosControl::update</text>
<text text-anchor="middle" x="891.5" y="-268.5" font-family="Helvetica,sans-Serif" font-size="10.00">_xy_controller</text>
</a>
</g>
</g>
<!-- Node5&#45;&gt;Node23 -->
<g id="edge30_Node000005_Node000023" class="edge">
<title>Node5&#45;&gt;Node23</title>
<g id="a_edge30_Node000005_Node000023"><a xlink:title=" ">
<path fill="none" stroke="#63b8ff" d="M1151.71,-262.27C1093.87,-265.45 1011.86,-269.95 955.67,-273.03"/>
<polygon fill="#63b8ff" stroke="#63b8ff" points="1152.07,-265.76 1161.86,-261.72 1151.68,-258.77 1152.07,-265.76"/>
</a>
</g>
</g>
<!-- Node7 -->
<g id="Node000007" class="node">
<title>Node7</title>
<g id="a_Node000007"><a xlink:href="classAC__PosControl.html#ab8903f45fcdabaa724a20f5851a6d75b" target="_top" xlink:title=" ">
<polygon fill="white" stroke="#666666" points="973,-228.5 810,-228.5 810,-198.5 973,-198.5 973,-228.5"/>
<text text-anchor="start" x="818" y="-216.5" font-family="Helvetica,sans-Serif" font-size="10.00">AC_PosControl::init</text>
<text text-anchor="middle" x="891.5" y="-205.5" font-family="Helvetica,sans-Serif" font-size="10.00">_xy_controller_stopping_point</text>
</a>
</g>
</g>
<!-- Node6&#45;&gt;Node7 -->
<g id="edge7_Node000006_Node000007" class="edge">
<title>Node6&#45;&gt;Node7</title>
<g id="a_edge7_Node000006_Node000007"><a xlink:title=" ">
<path fill="none" stroke="#63b8ff" d="M1002.26,-213.5C992.76,-213.5 982.86,-213.5 973.08,-213.5"/>
<polygon fill="#63b8ff" stroke="#63b8ff" points="1002.4,-217 1012.4,-213.5 1002.4,-210 1002.4,-217"/>
</a>
</g>
</g>
<!-- Node19 -->
<g id="Node000019" class="node">
<title>Node19</title>
<g id="a_Node000019"><a xlink:href="classAC__PosControl.html#ac9ce92836a7cebd02ce1cedc0e061ae3" target="_top" xlink:title="This function decays the output acceleration by 95% every half second to achieve a smooth transition ...">
<polygon fill="white" stroke="#666666" points="956.5,-72.5 826.5,-72.5 826.5,-42.5 956.5,-42.5 956.5,-72.5"/>
<text text-anchor="start" x="834.5" y="-60.5" font-family="Helvetica,sans-Serif" font-size="10.00">AC_PosControl::relax</text>
<text text-anchor="middle" x="891.5" y="-49.5" font-family="Helvetica,sans-Serif" font-size="10.00">_velocity_controller_xy</text>
</a>
</g>
</g>
<!-- Node6&#45;&gt;Node19 -->
<g id="edge20_Node000006_Node000019" class="edge">
<title>Node6&#45;&gt;Node19</title>
<g id="a_edge20_Node000006_Node000019"><a xlink:title=" ">
<path fill="none" stroke="#63b8ff" d="M1055.48,-189.08C1040.83,-159.33 1012.16,-109.58 973,-81.5 968.02,-77.93 962.51,-74.89 956.78,-72.29"/>
<polygon fill="#63b8ff" stroke="#63b8ff" points="1052.44,-190.82 1059.91,-198.34 1058.75,-187.81 1052.44,-190.82"/>
</a>
</g>
</g>
<!-- Node22 -->
<g id="Node000022" class="node">
<title>Node22</title>
<g id="a_Node000022"><a xlink:href="classAC__WPNav.html#ae1d12d7cd0c6e4cb2003e2f11e151b1a" target="_top" xlink:title=" ">
<polygon fill="white" stroke="#666666" points="958,-180 825,-180 825,-139 958,-139 958,-180"/>
<text text-anchor="start" x="833" y="-168" font-family="Helvetica,sans-Serif" font-size="10.00">AC_WPNav::shift_wp</text>
<text text-anchor="start" x="833" y="-157" font-family="Helvetica,sans-Serif" font-size="10.00">_origin_and_destination</text>
<text text-anchor="middle" x="891.5" y="-146" font-family="Helvetica,sans-Serif" font-size="10.00">_to_current_pos_xy</text>
</a>
</g>
</g>
<!-- Node6&#45;&gt;Node22 -->
<g id="edge23_Node000006_Node000022" class="edge">
<title>Node6&#45;&gt;Node22</title>
<g id="a_edge23_Node000006_Node000022"><a xlink:title=" ">
<path fill="none" stroke="#63b8ff" d="M1008.26,-195.42C992.21,-190.45 974.7,-185.01 958.27,-179.91"/>
<polygon fill="#63b8ff" stroke="#63b8ff" points="1007.44,-198.84 1018.03,-198.46 1009.52,-192.15 1007.44,-198.84"/>
</a>
</g>
</g>
<!-- Node6&#45;&gt;Node23 -->
<g id="edge24_Node000006_Node000023" class="edge">
<title>Node6&#45;&gt;Node23</title>
<g id="a_edge24_Node000006_Node000023"><a xlink:title=" ">
<path fill="none" stroke="#63b8ff" d="M1015.2,-232.07C989.37,-241.43 958.47,-252.61 934.14,-261.42"/>
<polygon fill="#63b8ff" stroke="#63b8ff" points="1016.61,-235.29 1024.82,-228.59 1014.23,-228.7 1016.61,-235.29"/>
</a>
</g>
</g>
<!-- Node8 -->
<g id="Node000008" class="node">
<title>Node8</title>
<g id="a_Node000008"><a xlink:href="classAC__Circle.html#a20eefa0e2e7172498728dbf1f5eed4af" target="_top" xlink:title=" ">
<polygon fill="white" stroke="#666666" points="732,-152 647,-152 647,-133 732,-133 732,-152"/>
<text text-anchor="middle" x="689.5" y="-140" font-family="Helvetica,sans-Serif" font-size="10.00">AC_Circle::init</text>
</a>
</g>
</g>
<!-- Node7&#45;&gt;Node8 -->
<g id="edge8_Node000007_Node000008" class="edge">
<title>Node7&#45;&gt;Node8</title>
<g id="a_edge8_Node000007_Node000008"><a xlink:title=" ">
<path fill="none" stroke="#63b8ff" d="M821.04,-194.63C817.25,-193.03 813.55,-191.33 810,-189.5 791.98,-180.22 792.32,-170.18 774,-161.5 760.97,-155.33 745.82,-151.1 732.04,-148.24"/>
<polygon fill="#63b8ff" stroke="#63b8ff" points="820.02,-197.99 830.61,-198.37 822.57,-191.47 820.02,-197.99"/>
</a>
</g>
</g>
<!-- Node9 -->
<g id="Node000009" class="node">
<title>Node9</title>
<g id="a_Node000009"><a xlink:href="classAC__Circle.html#a5e94d2a88dc7cc293c260482df25eee4" target="_top" xlink:title=" ">
<polygon fill="white" stroke="#666666" points="732,-189 647,-189 647,-170 732,-170 732,-189"/>
<text text-anchor="middle" x="689.5" y="-177" font-family="Helvetica,sans-Serif" font-size="10.00">AC_Circle::init</text>
</a>
</g>
</g>
<!-- Node7&#45;&gt;Node9 -->
<g id="edge9_Node000007_Node000009" class="edge">
<title>Node7&#45;&gt;Node9</title>
<g id="a_edge9_Node000007_Node000009"><a xlink:title=" ">
<path fill="none" stroke="#63b8ff" d="M799.65,-198.06C776.01,-194.04 751.68,-189.9 732.01,-186.56"/>
<polygon fill="#63b8ff" stroke="#63b8ff" points="799.28,-201.54 809.73,-199.77 800.46,-194.64 799.28,-201.54"/>
</a>
</g>
</g>
<!-- Node10 -->
<g id="Node000010" class="node">
<title>Node10</title>
<g id="a_Node000010"><a xlink:href="classAC__Loiter.html#a99cf0b3a37763b4c85900ec3fbf2f786" target="_top" xlink:title="init_target to a position in cm from ekf origin">
<polygon fill="white" stroke="#666666" points="749,-115 630,-115 630,-96 749,-96 749,-115"/>
<text text-anchor="middle" x="689.5" y="-103" font-family="Helvetica,sans-Serif" font-size="10.00">AC_Loiter::init_target</text>
</a>
</g>
</g>
<!-- Node7&#45;&gt;Node10 -->
<g id="edge10_Node000007_Node000010" class="edge">
<title>Node7&#45;&gt;Node10</title>
<g id="a_edge10_Node000007_Node000010"><a xlink:title=" ">
<path fill="none" stroke="#63b8ff" d="M815.49,-193.49C813.59,-192.24 811.75,-190.91 810,-189.5 784.27,-168.8 800.4,-144.34 774,-124.5 766.75,-119.05 758.21,-115.12 749.42,-112.3"/>
<polygon fill="#63b8ff" stroke="#63b8ff" points="813.77,-196.54 824.19,-198.49 817.26,-190.47 813.77,-196.54"/>
</a>
</g>
</g>
<!-- Node11 -->
<g id="Node000011" class="node">
<title>Node11</title>
<g id="a_Node000011"><a xlink:href="classAC__WPNav.html#afa1d354f3c8b545c3592505d680d2b01" target="_top" xlink:title=" ">
<polygon fill="white" stroke="#666666" points="774,-226 605,-226 605,-207 774,-207 774,-226"/>
<text text-anchor="middle" x="689.5" y="-214" font-family="Helvetica,sans-Serif" font-size="10.00">AC_WPNav::wp_and_spline_init</text>
</a>
</g>
</g>
<!-- Node7&#45;&gt;Node11 -->
<g id="edge11_Node000007_Node000011" class="edge">
<title>Node7&#45;&gt;Node11</title>
<g id="a_edge11_Node000007_Node000011"><a xlink:title=" ">
<path fill="none" stroke="#63b8ff" d="M799.5,-214.87C791.07,-214.99 782.55,-215.12 774.18,-215.24"/>
<polygon fill="#63b8ff" stroke="#63b8ff" points="799.78,-218.36 809.73,-214.71 799.68,-211.36 799.78,-218.36"/>
</a>
</g>
</g>
<!-- Node12 -->
<g id="Node000012" class="node">
<title>Node12</title>
<g id="a_Node000012"><a xlink:href="classAC__WPNav.html#a1bcabf69173d99eb009ac487b45da5fe" target="_top" xlink:title=" ">
<polygon fill="white" stroke="#666666" points="546.5,-160.5 421.5,-160.5 421.5,-130.5 546.5,-130.5 546.5,-160.5"/>
<text text-anchor="start" x="429.5" y="-148.5" font-family="Helvetica,sans-Serif" font-size="10.00">AC_WPNav::set_spline</text>
<text text-anchor="middle" x="484" y="-137.5" font-family="Helvetica,sans-Serif" font-size="10.00">_destination</text>
</a>
</g>
</g>
<!-- Node11&#45;&gt;Node12 -->
<g id="edge12_Node000011_Node000012" class="edge">
<title>Node11&#45;&gt;Node12</title>
<g id="a_edge12_Node000011_Node000012"><a xlink:title=" ">
<path fill="none" stroke="#63b8ff" d="M626.48,-204.61C619.18,-202.77 611.88,-200.74 605,-198.5 573.16,-188.16 538.32,-172.22 514.42,-160.52"/>
<polygon fill="#63b8ff" stroke="#63b8ff" points="625.85,-208.06 636.39,-206.98 627.48,-201.25 625.85,-208.06"/>
</a>
</g>
</g>
<!-- Node14 -->
<g id="Node000014" class="node">
<title>Node14</title>
<g id="a_Node000014"><a xlink:href="classAC__WPNav.html#a38519fcac3a24cf64ec7c37e90fc3e13" target="_top" xlink:title=" ">
<polygon fill="white" stroke="#666666" points="569,-221 399,-221 399,-202 569,-202 569,-221"/>
<text text-anchor="middle" x="484" y="-209" font-family="Helvetica,sans-Serif" font-size="10.00">AC_WPNav::set_wp_destination</text>
</a>
</g>
</g>
<!-- Node11&#45;&gt;Node14 -->
<g id="edge14_Node000011_Node000014" class="edge">
<title>Node11&#45;&gt;Node14</title>
<g id="a_edge14_Node000011_Node000014"><a xlink:title=" ">
<path fill="none" stroke="#63b8ff" d="M594.61,-214.19C586.17,-213.99 577.66,-213.78 569.31,-213.57"/>
<polygon fill="#63b8ff" stroke="#63b8ff" points="594.76,-217.7 604.85,-214.44 594.94,-210.7 594.76,-217.7"/>
</a>
</g>
</g>
<!-- Node13 -->
<g id="Node000013" class="node">
<title>Node13</title>
<g id="a_Node000013"><a xlink:href="classAC__WPNav.html#a913ef01327eea5b15c9e6f98bb6ad1b0" target="_top" xlink:title=" ">
<polygon fill="white" stroke="#666666" points="327,-141.5 202,-141.5 202,-111.5 327,-111.5 327,-141.5"/>
<text text-anchor="start" x="210" y="-129.5" font-family="Helvetica,sans-Serif" font-size="10.00">AC_WPNav::set_spline</text>
<text text-anchor="middle" x="264.5" y="-118.5" font-family="Helvetica,sans-Serif" font-size="10.00">_destination_loc</text>
</a>
</g>
</g>
<!-- Node12&#45;&gt;Node13 -->
<g id="edge13_Node000012_Node000013" class="edge">
<title>Node12&#45;&gt;Node13</title>
<g id="a_edge13_Node000012_Node000013"><a xlink:title=" ">
<path fill="none" stroke="#63b8ff" d="M411.02,-139.21C383.83,-136.84 353.17,-134.16 327.02,-131.87"/>
<polygon fill="#63b8ff" stroke="#63b8ff" points="410.99,-142.72 421.26,-140.11 411.6,-135.75 410.99,-142.72"/>
</a>
</g>
</g>
<!-- Node15 -->
<g id="Node000015" class="node">
<title>Node15</title>
<g id="a_Node000015"><a xlink:href="classAC__WPNav__OA.html#ab6a290e2ecfe6dc17c03b37cb0e1f659" target="_top" xlink:title=" ">
<polygon fill="white" stroke="#666666" points="330,-264.5 199,-264.5 199,-234.5 330,-234.5 330,-264.5"/>
<text text-anchor="start" x="207" y="-252.5" font-family="Helvetica,sans-Serif" font-size="10.00">AC_WPNav_OA::set_wp</text>
<text text-anchor="middle" x="264.5" y="-241.5" font-family="Helvetica,sans-Serif" font-size="10.00">_destination</text>
</a>
</g>
</g>
<!-- Node14&#45;&gt;Node15 -->
<g id="edge15_Node000014_Node000015" class="edge">
<title>Node14&#45;&gt;Node15</title>
<g id="a_edge15_Node000014_Node000015"><a xlink:title=" ">
<path fill="none" stroke="#63b8ff" d="M418.37,-222.79C390.52,-227.66 358.04,-233.33 330.19,-238.2"/>
<polygon fill="#63b8ff" stroke="#63b8ff" points="419.15,-226.21 428.4,-221.04 417.94,-219.31 419.15,-226.21"/>
</a>
</g>
</g>
<!-- Node17 -->
<g id="Node000017" class="node">
<title>Node17</title>
<g id="a_Node000017"><a xlink:href="classAC__WPNav.html#aa25b6b0b9e87cb6c9c94a051d5c939df" target="_top" xlink:title=" ">
<polygon fill="white" stroke="#666666" points="359.5,-216 169.5,-216 169.5,-197 359.5,-197 359.5,-216"/>
<text text-anchor="middle" x="264.5" y="-204" font-family="Helvetica,sans-Serif" font-size="10.00">AC_WPNav::set_wp_destination_loc</text>
</a>
</g>
</g>
<!-- Node14&#45;&gt;Node17 -->
<g id="edge17_Node000014_Node000017" class="edge">
<title>Node14&#45;&gt;Node17</title>
<g id="a_edge17_Node000014_Node000017"><a xlink:title=" ">
<path fill="none" stroke="#63b8ff" d="M388.63,-209.33C379.09,-209.11 369.4,-208.89 359.85,-208.67"/>
<polygon fill="#63b8ff" stroke="#63b8ff" points="388.83,-212.84 398.91,-209.57 388.99,-205.84 388.83,-212.84"/>
</a>
</g>
</g>
<!-- Node18 -->
<g id="Node000018" class="node">
<title>Node18</title>
<g id="a_Node000018"><a xlink:href="classAC__WPNav.html#a9a03d6c28caa4be4a9f0846dc5cff160" target="_top" xlink:title="set waypoint destination using NED position vector from ekf origin in meters">
<polygon fill="white" stroke="#666666" points="363,-179 166,-179 166,-160 363,-160 363,-179"/>
<text text-anchor="middle" x="264.5" y="-167" font-family="Helvetica,sans-Serif" font-size="10.00">AC_WPNav::set_wp_destination_NED</text>
</a>
</g>
</g>
<!-- Node14&#45;&gt;Node18 -->
<g id="edge19_Node000014_Node000018" class="edge">
<title>Node14&#45;&gt;Node18</title>
<g id="a_edge19_Node000014_Node000018"><a xlink:title=" ">
<path fill="none" stroke="#63b8ff" d="M423.81,-200.07C389.72,-193.49 347.36,-185.31 315.03,-179.07"/>
<polygon fill="#63b8ff" stroke="#63b8ff" points="423.16,-203.51 433.65,-201.97 424.49,-196.64 423.16,-203.51"/>
</a>
</g>
</g>
<!-- Node16 -->
<g id="Node000016" class="node">
<title>Node16</title>
<g id="a_Node000016"><a xlink:href="classAC__WPNav__OA.html#accf19b87aa0f2ce811241039bbf8a8b4" target="_top" xlink:title="run the wp controller">
<polygon fill="white" stroke="#666666" points="130,-285.5 0,-285.5 0,-255.5 130,-255.5 130,-285.5"/>
<text text-anchor="start" x="8" y="-273.5" font-family="Helvetica,sans-Serif" font-size="10.00">AC_WPNav_OA::update</text>
<text text-anchor="middle" x="65" y="-262.5" font-family="Helvetica,sans-Serif" font-size="10.00">_wpnav</text>
</a>
</g>
</g>
<!-- Node15&#45;&gt;Node16 -->
<g id="edge16_Node000015_Node000016" class="edge">
<title>Node15&#45;&gt;Node16</title>
<g id="a_edge16_Node000015_Node000016"><a xlink:title=" ">
<path fill="none" stroke="#63b8ff" d="M188.86,-257.44C169.53,-259.49 148.88,-261.69 130.14,-263.68"/>
<polygon fill="#63b8ff" stroke="#63b8ff" points="189.26,-260.91 198.83,-256.38 188.52,-253.95 189.26,-260.91"/>
</a>
</g>
</g>
<!-- Node17&#45;&gt;Node16 -->
<g id="edge18_Node000017_Node000016" class="edge">
<title>Node17&#45;&gt;Node16</title>
<g id="a_edge18_Node000017_Node000016"><a xlink:title=" ">
<path fill="none" stroke="#63b8ff" d="M193.17,-218.19C183.95,-220.31 174.69,-222.74 166,-225.5 141.14,-233.4 114.25,-245.73 94.62,-255.49"/>
<polygon fill="#63b8ff" stroke="#63b8ff" points="194.12,-221.56 203.14,-216.01 192.62,-214.73 194.12,-221.56"/>
</a>
</g>
</g>
<!-- Node20 -->
<g id="Node000020" class="node">
<title>Node20</title>
<g id="a_Node000020"><a xlink:href="classAC__Loiter.html#a223b900f1c94d4b24b1a8941f52d79ca" target="_top" xlink:title="initialize&#39;s position and feed&#45;forward velocity from current pos and velocity">
<polygon fill="white" stroke="#666666" points="749,-78 630,-78 630,-59 749,-59 749,-78"/>
<text text-anchor="middle" x="689.5" y="-66" font-family="Helvetica,sans-Serif" font-size="10.00">AC_Loiter::init_target</text>
</a>
</g>
</g>
<!-- Node19&#45;&gt;Node20 -->
<g id="edge21_Node000019_Node000020" class="edge">
<title>Node19&#45;&gt;Node20</title>
<g id="a_edge21_Node000019_Node000020"><a xlink:title=" ">
<path fill="none" stroke="#63b8ff" d="M816.35,-61.58C794.18,-62.8 770.19,-64.12 749.16,-65.27"/>
<polygon fill="#63b8ff" stroke="#63b8ff" points="816.6,-65.07 826.39,-61.03 816.22,-58.08 816.6,-65.07"/>
</a>
</g>
</g>
<!-- Node21 -->
<g id="Node000021" class="node">
<title>Node21</title>
<g id="a_Node000021"><a xlink:href="classAC__WPNav.html#ab57df6b504f9e9f33ab6966774f3b6bf" target="_top" xlink:title=" ">
<polygon fill="white" stroke="#666666" points="756,-41 623,-41 623,0 756,0 756,-41"/>
<text text-anchor="start" x="631" y="-29" font-family="Helvetica,sans-Serif" font-size="10.00">AC_WPNav::shift_wp</text>
<text text-anchor="start" x="631" y="-18" font-family="Helvetica,sans-Serif" font-size="10.00">_origin_and_destination</text>
<text text-anchor="middle" x="689.5" y="-7" font-family="Helvetica,sans-Serif" font-size="10.00">_to_stopping_point_xy</text>
</a>
</g>
</g>
<!-- Node19&#45;&gt;Node21 -->
<g id="edge22_Node000019_Node000021" class="edge">
<title>Node19&#45;&gt;Node21</title>
<g id="a_edge22_Node000019_Node000021"><a xlink:title=" ">
<path fill="none" stroke="#63b8ff" d="M816.53,-43.81C796.78,-40.16 775.58,-36.24 756.31,-32.67"/>
<polygon fill="#63b8ff" stroke="#63b8ff" points="815.92,-47.26 826.39,-45.64 817.2,-40.38 815.92,-47.26"/>
</a>
</g>
</g>
<!-- Node23&#45;&gt;Node4 -->
<g id="edge25_Node000023_Node000004" class="edge">
<title>Node23&#45;&gt;Node4</title>
<g id="a_edge25_Node000023_Node000004"><a xlink:title=" ">
<path fill="none" stroke="#63b8ff" d="M854.7,-296.66C840.71,-304.62 824.55,-313.9 810,-322.5 793.86,-332.04 791.17,-336.95 774,-344.5 760.74,-350.33 745.69,-355.16 732.05,-358.92"/>
<polygon fill="#63b8ff" stroke="#63b8ff" points="856.58,-299.62 863.55,-291.64 853.13,-293.53 856.58,-299.62"/>
</a>
</g>
</g>
<!-- Node23&#45;&gt;Node16 -->
<g id="edge29_Node000023_Node000016" class="edge">
<title>Node23&#45;&gt;Node16</title>
<g id="a_edge29_Node000023_Node000016"><a xlink:title=" ">
<path fill="none" stroke="#63b8ff" d="M841.25,-294.77C820.76,-301.45 796.53,-308.19 774,-311.5 538.59,-346.1 255.14,-305.1 130.33,-282.92"/>
<polygon fill="#63b8ff" stroke="#63b8ff" points="842.62,-298 850.99,-291.51 840.39,-291.37 842.62,-298"/>
</a>
</g>
</g>
<!-- Node24 -->
<g id="Node000024" class="node">
<title>Node24</title>
<g id="a_Node000024"><a xlink:href="classAC__Circle.html#a8ee0ff9ded0e7f2766431b35f91bb1cd" target="_top" xlink:title="update &#45; update circle controller">
<polygon fill="white" stroke="#666666" points="741,-302 638,-302 638,-283 741,-283 741,-302"/>
<text text-anchor="middle" x="689.5" y="-290" font-family="Helvetica,sans-Serif" font-size="10.00">AC_Circle::update</text>
</a>
</g>
</g>
<!-- Node23&#45;&gt;Node24 -->
<g id="edge26_Node000023_Node000024" class="edge">
<title>Node23&#45;&gt;Node24</title>
<g id="a_edge26_Node000023_Node000024"><a xlink:title=" ">
<path fill="none" stroke="#63b8ff" d="M817.21,-282.36C791.94,-284.38 764.22,-286.6 741.17,-288.45"/>
<polygon fill="#63b8ff" stroke="#63b8ff" points="817.8,-285.83 827.49,-281.54 817.25,-278.85 817.8,-285.83"/>
</a>
</g>
</g>
<!-- Node25 -->
<g id="Node000025" class="node">
<title>Node25</title>
<g id="a_Node000025"><a xlink:href="classAC__WPNav.html#a7dc4785fbce8364d7eb3d8e2d0c1b987" target="_top" xlink:title="update_wpnav &#45; run the wp controller &#45; should be called at 100hz or higher">
<polygon fill="white" stroke="#666666" points="557.5,-283 410.5,-283 410.5,-264 557.5,-264 557.5,-283"/>
<text text-anchor="middle" x="484" y="-271" font-family="Helvetica,sans-Serif" font-size="10.00">AC_WPNav::update_wpnav</text>
</a>
</g>
</g>
<!-- Node23&#45;&gt;Node25 -->
<g id="edge27_Node000023_Node000025" class="edge">
<title>Node23&#45;&gt;Node25</title>
<g id="a_edge27_Node000023_Node000025"><a xlink:title=" ">
<path fill="none" stroke="#63b8ff" d="M817.05,-275.09C802.77,-274.85 787.92,-274.64 774,-274.5 700.37,-273.74 616.19,-273.52 557.75,-273.48"/>
<polygon fill="#63b8ff" stroke="#63b8ff" points="817.26,-278.59 827.32,-275.26 817.38,-271.59 817.26,-278.59"/>
</a>
</g>
</g>
<!-- Node25&#45;&gt;Node16 -->
<g id="edge28_Node000025_Node000016" class="edge">
<title>Node25&#45;&gt;Node16</title>
<g id="a_edge28_Node000025_Node000016"><a xlink:title=" ">
<path fill="none" stroke="#63b8ff" d="M400.26,-274.18C336.29,-274.54 245.53,-274.69 166,-273.5 154.36,-273.33 141.97,-273.04 130.01,-272.71"/>
<polygon fill="#63b8ff" stroke="#63b8ff" points="400.31,-277.68 410.29,-274.12 400.27,-270.68 400.31,-277.68"/>
</a>
</g>
</g>
<!-- Node26&#45;&gt;Node10 -->
<g id="edge33_Node000026_Node000010" class="edge">
<title>Node26&#45;&gt;Node10</title>
<g id="a_edge33_Node000026_Node000010"><a xlink:title=" ">
<path fill="none" stroke="#63b8ff" d="M814.59,-105.5C792.94,-105.5 769.68,-105.5 749.23,-105.5"/>
<polygon fill="#63b8ff" stroke="#63b8ff" points="814.74,-109 824.74,-105.5 814.74,-102 814.74,-109"/>
</a>
</g>
</g>
<!-- Node26&#45;&gt;Node20 -->
<g id="edge32_Node000026_Node000020" class="edge">
<title>Node26&#45;&gt;Node20</title>
<g id="a_edge32_Node000026_Node000020"><a xlink:title=" ">
<path fill="none" stroke="#63b8ff" d="M814.83,-91.5C790.53,-87.01 764.2,-82.13 742.04,-78.04"/>
<polygon fill="#63b8ff" stroke="#63b8ff" points="814.27,-94.96 824.74,-93.33 815.54,-88.07 814.27,-94.96"/>
</a>
</g>
</g>
</g>
</svg>

<g id="navigator" transform="translate(0 0)" fill="#404254">
  <rect fill="#f2f5e9" fill-opacity="0.5" stroke="#606060" stroke-width=".5" x="0" y="0" width="60" height="60"/>
  <use id="zoomplus" xlink:href="#zoomPlus" x="17" y="9" onmousedown="handleZoom(evt,'in')"/>
  <use id="zoomminus" xlink:href="#zoomMin" x="42" y="9" onmousedown="handleZoom(evt,'out')"/>
  <use id="reset" xlink:href="#resetDef" x="30" y="36" onmousedown="handleReset()"/>
   <use id="arrowup" xlink:href="#arrowUp" x="0" y="0" onmousedown="handlePan(0,-1)"/>
  <use id="arrowright" xlink:href="#arrowRight" x="0" y="0" onmousedown="handlePan(1,0)"/>
  <use id="arrowdown" xlink:href="#arrowDown" x="0" y="0" onmousedown="handlePan(0,1)"/>
  <use id="arrowleft" xlink:href="#arrowLeft" x="0" y="0" onmousedown="handlePan(-1,0)"/>
</g>
<svg viewBox="0 0 15 15" width="100%" height="30px" preserveAspectRatio="xMaxYMin meet">
 <g id="arrow_out" transform="scale(0.3 0.3)">
  <a xlink:href="classAC__AttitudeControl_aba75eb8a9d4ffec5efb4a5ff6c5a8858_icgraph_org.svg" target="_base">
   <rect id="button" ry="5" rx="5" y="6" x="6" height="38" width="38"
        fill="#f2f5e9" fill-opacity="0.5" stroke="#606060" stroke-width="1.0"/>
   <path id="arrow"
     d="M 11.500037,31.436501 C 11.940474,20.09759 22.043105,11.32322 32.158766,21.979434 L 37.068811,17.246167 C 37.068811,17.246167 37.088388,32 37.088388,32 L 22.160133,31.978069 C 22.160133,31.978069 26.997745,27.140456 26.997745,27.140456 C 18.528582,18.264221 13.291696,25.230495 11.500037,31.436501 z"
     style="fill:#404040;"/>
  </a>
 </g>
</svg>

<style type='text/css'>
<![CDATA[
[data-mouse-over-selected='false'] { opacity: 0.7; }
[data-mouse-over-selected='true']  { opacity: 1.0; }
]]>
</style>
<script type="application/ecmascript"><![CDATA[
document.addEventListener('DOMContentLoaded', (event) => {
  highlightEdges();
  highlightAdjacentNodes();
});
]]></script>
</svg>
