<?xml version="1.0" encoding="UTF-8" standalone="no"?>
<!DOCTYPE svg PUBLIC "-//W3C//DTD SVG 1.1//EN"
 "http://www.w3.org/Graphics/SVG/1.1/DTD/svg11.dtd">
<!-- Generated by graphviz version 2.43.0 (0)
 -->
<!-- Title: AC_AutoTune::reset Pages: 1 -->
<!--zoomable 213 -->

<svg id="main" version="1.1" xmlns="http://www.w3.org/2000/svg" xmlns:xlink="http://www.w3.org/1999/xlink" xml:space="preserve" onload="init(evt)">
<style type="text/css"><![CDATA[
.node, .edge {opacity: 0.7;}
.node.selected, .edge.selected {opacity: 1;}
.edge:hover path { stroke: red; }
.edge:hover polygon { stroke: red; fill: red; }
]]></style>

<defs>
  <circle id="rim" cx="0" cy="0" r="7"/>
  <circle id="rim2" cx="0" cy="0" r="3.5"/>
  <g id="zoomPlus">
    <use xlink:href="#rim" fill="#404040"><set attributeName="fill" to="#808080" begin="zoomplus.mouseover" end="zoomplus.mouseout"/></use>
    <path d="M-4,0h8M0,-4v8" fill="none" stroke="white" stroke-width="1.5" pointer-events="none"/>
  </g>
  <g id="zoomMin">
    <use xlink:href="#rim" fill="#404040"><set attributeName="fill" to="#808080" begin="zoomminus.mouseover" end="zoomminus.mouseout"/></use>
    <path d="M-4,0h8" fill="none" stroke="white" stroke-width="1.5" pointer-events="none"/>
  </g>
  <g id="arrowUp" transform="translate(30 24)">
    <use xlink:href="#rim"/>
    <path pointer-events="none" fill="none" stroke="white" stroke-width="1.5" d="M0,-3.0v7 M-2.5,-0.5L0,-3.0L2.5,-0.5"/>
  </g>
  <g id="arrowRight" transform="rotate(90) translate(36 -43)">
    <use xlink:href="#rim"/>
    <path pointer-events="none" fill="none" stroke="white" stroke-width="1.5" d="M0,-3.0v7 M-2.5,-0.5L0,-3.0L2.5,-0.5"/>
  </g>
  <g id="arrowDown" transform="rotate(180) translate(-30 -48)">
    <use xlink:href="#rim"/>
    <path pointer-events="none" fill="none" stroke="white" stroke-width="1.5" d="M0,-3.0v7 M-2.5,-0.5L0,-3.0L2.5,-0.5"/>
  </g>
  <g id="arrowLeft" transform="rotate(270) translate(-36 17)">
    <use xlink:href="#rim"/>
    <path pointer-events="none" fill="none" stroke="white" stroke-width="1.5" d="M0,-3.0v7 M-2.5,-0.5L0,-3.0L2.5,-0.5"/>
  </g>
  <g id="resetDef">
    <use xlink:href="#rim2" fill="#404040"><set attributeName="fill" to="#808080" begin="reset.mouseover" end="reset.mouseout"/></use>
  </g>
</defs>
<script type="application/ecmascript">
var viewWidth = 663;
var viewHeight = 213;
var sectionId = 'dynsection-34';
</script>
<script type="application/ecmascript" xlink:href="svg.min.js"/>
<svg id="graph" class="graph">
<g id="viewport">
<title>AC_AutoTune::reset</title>
<!-- Node1 -->
<g id="Node000001" class="node">
<title>Node1</title>
<g id="a_Node000001"><a xlink:title=" ">
<polygon fill="#999999" stroke="#666666" points="655,-72.5 544,-72.5 544,-53.5 655,-53.5 655,-72.5"/>
<text text-anchor="middle" x="599.5" y="-60.5" font-family="Helvetica,sans-Serif" font-size="10.00">AC_AutoTune::reset</text>
</a>
</g>
</g>
<!-- Node2 -->
<g id="Node000002" class="node">
<title>Node2</title>
<g id="a_Node000002"><a xlink:href="classAC__AutoTune.html#a6cd476570180457317560aa52651e69c" target="_top" xlink:title=" ">
<polygon fill="white" stroke="#666666" points="508,-115.5 346,-115.5 346,-96.5 508,-96.5 508,-115.5"/>
<text text-anchor="middle" x="427" y="-103.5" font-family="Helvetica,sans-Serif" font-size="10.00">AC_AutoTune::next_tune_type</text>
</a>
</g>
</g>
<!-- Node1&#45;&gt;Node2 -->
<g id="edge1_Node000001_Node000002" class="edge">
<title>Node1&#45;&gt;Node2</title>
<g id="a_edge1_Node000001_Node000002"><a xlink:title=" ">
<path fill="none" stroke="#63b8ff" d="M553.56,-75.16C539.04,-79.03 522.86,-83.27 508,-87 495.4,-90.17 481.65,-93.48 469.16,-96.44"/>
<polygon fill="#63b8ff" stroke="#63b8ff" points="554.56,-78.52 563.31,-72.56 552.75,-71.76 554.56,-78.52"/>
</a>
</g>
</g>
<!-- Node9 -->
<g id="Node000009" class="node">
<title>Node9</title>
<g id="a_Node000009"><a xlink:href="classAC__AutoTune__Heli.html#a9a8d1a1fc00366d6964f01951767accd" target="_top" xlink:title=" ">
<polygon fill="white" stroke="#666666" points="494,-78 360,-78 360,-48 494,-48 494,-78"/>
<text text-anchor="start" x="368" y="-66" font-family="Helvetica,sans-Serif" font-size="10.00">AC_AutoTune_Heli::save</text>
<text text-anchor="middle" x="427" y="-55" font-family="Helvetica,sans-Serif" font-size="10.00">_tuning_gains</text>
</a>
</g>
</g>
<!-- Node1&#45;&gt;Node9 -->
<g id="edge8_Node000001_Node000009" class="edge">
<title>Node1&#45;&gt;Node9</title>
<g id="a_edge8_Node000001_Node000009"><a xlink:title=" ">
<path fill="none" stroke="#63b8ff" d="M533.45,-63C520.56,-63 507.03,-63 494.11,-63"/>
<polygon fill="#63b8ff" stroke="#63b8ff" points="533.61,-66.5 543.61,-63 533.61,-59.5 533.61,-66.5"/>
</a>
</g>
</g>
<!-- Node10 -->
<g id="Node000010" class="node">
<title>Node10</title>
<g id="a_Node000010"><a xlink:href="classAC__AutoTune__Multi.html#a1a6f90c2f959e1007ec022a670fc8288" target="_top" xlink:title=" ">
<polygon fill="white" stroke="#666666" points="485,-30 369,-30 369,0 485,0 485,-30"/>
<text text-anchor="start" x="377" y="-18" font-family="Helvetica,sans-Serif" font-size="10.00">AC_AutoTune_Multi::</text>
<text text-anchor="middle" x="427" y="-7" font-family="Helvetica,sans-Serif" font-size="10.00">save_tuning_gains</text>
</a>
</g>
</g>
<!-- Node1&#45;&gt;Node10 -->
<g id="edge9_Node000001_Node000010" class="edge">
<title>Node1&#45;&gt;Node10</title>
<g id="a_edge9_Node000001_Node000010"><a xlink:title=" ">
<path fill="none" stroke="#63b8ff" d="M554.55,-50.63C532.26,-44.35 505,-36.68 481.51,-30.06"/>
<polygon fill="#63b8ff" stroke="#63b8ff" points="553.83,-54.06 564.41,-53.4 555.73,-47.32 553.83,-54.06"/>
</a>
</g>
</g>
<!-- Node3 -->
<g id="Node000003" class="node">
<title>Node3</title>
<g id="a_Node000003"><a xlink:href="classAC__AutoTune.html#a056a45355b20fe8d605dc38f5c1e1d4b" target="_top" xlink:title=" ">
<polygon fill="white" stroke="#666666" points="310,-149 189,-149 189,-119 310,-119 310,-149"/>
<text text-anchor="start" x="197" y="-137" font-family="Helvetica,sans-Serif" font-size="10.00">AC_AutoTune::backup</text>
<text text-anchor="middle" x="249.5" y="-126" font-family="Helvetica,sans-Serif" font-size="10.00">_gains_and_initialise</text>
</a>
</g>
</g>
<!-- Node2&#45;&gt;Node3 -->
<g id="edge2_Node000002_Node000003" class="edge">
<title>Node2&#45;&gt;Node3</title>
<g id="a_edge2_Node000002_Node000003"><a xlink:title=" ">
<path fill="none" stroke="#63b8ff" d="M356.2,-117.14C340.95,-119.57 324.95,-122.12 310.14,-124.49"/>
<polygon fill="#63b8ff" stroke="#63b8ff" points="356.77,-120.59 366.09,-115.56 355.67,-113.68 356.77,-120.59"/>
</a>
</g>
</g>
<!-- Node7 -->
<g id="Node000007" class="node">
<title>Node7</title>
<g id="a_Node000007"><a xlink:href="classAC__AutoTune.html#a7553749cc2b73850fcf4b14a61e384bb" target="_top" xlink:title=" ">
<polygon fill="white" stroke="#666666" points="309.5,-93 189.5,-93 189.5,-63 309.5,-63 309.5,-93"/>
<text text-anchor="start" x="197.5" y="-81" font-family="Helvetica,sans-Serif" font-size="10.00">AC_AutoTune::control</text>
<text text-anchor="middle" x="249.5" y="-70" font-family="Helvetica,sans-Serif" font-size="10.00">_attitude</text>
</a>
</g>
</g>
<!-- Node2&#45;&gt;Node7 -->
<g id="edge6_Node000002_Node000007" class="edge">
<title>Node2&#45;&gt;Node7</title>
<g id="a_edge6_Node000002_Node000007"><a xlink:title=" ">
<path fill="none" stroke="#63b8ff" d="M356.09,-94.85C340.67,-92.39 324.48,-89.8 309.54,-87.42"/>
<polygon fill="#63b8ff" stroke="#63b8ff" points="355.67,-98.32 366.09,-96.44 356.77,-91.41 355.67,-98.32"/>
</a>
</g>
</g>
<!-- Node4 -->
<g id="Node000004" class="node">
<title>Node4</title>
<g id="a_Node000004"><a xlink:href="classAC__AutoTune__Heli.html#afec312e9f685069bdc8742105dfcdf5a" target="_top" xlink:title=" ">
<polygon fill="white" stroke="#666666" points="149.5,-205 3.5,-205 3.5,-175 149.5,-175 149.5,-205"/>
<text text-anchor="start" x="11.5" y="-193" font-family="Helvetica,sans-Serif" font-size="10.00">AC_AutoTune_Heli::backup</text>
<text text-anchor="middle" x="76.5" y="-182" font-family="Helvetica,sans-Serif" font-size="10.00">_gains_and_initialise</text>
</a>
</g>
</g>
<!-- Node3&#45;&gt;Node4 -->
<g id="edge3_Node000003_Node000004" class="edge">
<title>Node3&#45;&gt;Node4</title>
<g id="a_edge3_Node000003_Node000004"><a xlink:title=" ">
<path fill="none" stroke="#63b8ff" d="M194.24,-152.34C180.78,-156.85 166.38,-161.63 153,-166 144.11,-168.9 134.61,-171.96 125.46,-174.88"/>
<polygon fill="#63b8ff" stroke="#63b8ff" points="195.48,-155.62 203.85,-149.12 193.26,-148.98 195.48,-155.62"/>
</a>
</g>
</g>
<!-- Node5 -->
<g id="Node000005" class="node">
<title>Node5</title>
<g id="a_Node000005"><a xlink:href="classAC__AutoTune__Multi.html#a3d3ddafa8afebdbf6f5f34c1ee3b2b70" target="_top" xlink:title=" ">
<polygon fill="white" stroke="#666666" points="153,-157 0,-157 0,-127 153,-127 153,-157"/>
<text text-anchor="start" x="8" y="-145" font-family="Helvetica,sans-Serif" font-size="10.00">AC_AutoTune_Multi::</text>
<text text-anchor="middle" x="76.5" y="-134" font-family="Helvetica,sans-Serif" font-size="10.00">backup_gains_and_initialise</text>
</a>
</g>
</g>
<!-- Node3&#45;&gt;Node5 -->
<g id="edge4_Node000003_Node000005" class="edge">
<title>Node3&#45;&gt;Node5</title>
<g id="a_edge4_Node000003_Node000005"><a xlink:title=" ">
<path fill="none" stroke="#63b8ff" d="M178.61,-137.27C170.23,-137.66 161.66,-138.06 153.21,-138.46"/>
<polygon fill="#63b8ff" stroke="#63b8ff" points="178.87,-140.76 188.69,-136.8 178.54,-133.77 178.87,-140.76"/>
</a>
</g>
</g>
<!-- Node6 -->
<g id="Node000006" class="node">
<title>Node6</title>
<g id="a_Node000006"><a xlink:href="classAC__AutoTune.html#a3ec24eaf78434a63974b2ec0bc8dc858" target="_top" xlink:title=" ">
<polygon fill="white" stroke="#666666" points="151.5,-108.5 1.5,-108.5 1.5,-89.5 151.5,-89.5 151.5,-108.5"/>
<text text-anchor="middle" x="76.5" y="-96.5" font-family="Helvetica,sans-Serif" font-size="10.00">AC_AutoTune::init_internals</text>
</a>
</g>
</g>
<!-- Node3&#45;&gt;Node6 -->
<g id="edge5_Node000003_Node000006" class="edge">
<title>Node3&#45;&gt;Node6</title>
<g id="a_edge5_Node000003_Node000006"><a xlink:title=" ">
<path fill="none" stroke="#63b8ff" d="M178.87,-119.75C160.42,-115.97 140.96,-111.99 124.07,-108.53"/>
<polygon fill="#63b8ff" stroke="#63b8ff" points="178.19,-123.18 188.69,-121.76 179.6,-116.32 178.19,-123.18"/>
</a>
</g>
</g>
<!-- Node8 -->
<g id="Node000008" class="node">
<title>Node8</title>
<g id="a_Node000008"><a xlink:href="classAC__AutoTune.html#a1a880de557aca3dc882924b746bcf383" target="_top" xlink:title=" ">
<polygon fill="white" stroke="#666666" points="127.5,-71.5 25.5,-71.5 25.5,-52.5 127.5,-52.5 127.5,-71.5"/>
<text text-anchor="middle" x="76.5" y="-59.5" font-family="Helvetica,sans-Serif" font-size="10.00">AC_AutoTune::run</text>
</a>
</g>
</g>
<!-- Node7&#45;&gt;Node8 -->
<g id="edge7_Node000007_Node000008" class="edge">
<title>Node7&#45;&gt;Node8</title>
<g id="a_edge7_Node000007_Node000008"><a xlink:title=" ">
<path fill="none" stroke="#63b8ff" d="M179.15,-71.51C161.9,-69.9 143.75,-68.2 127.64,-66.69"/>
<polygon fill="#63b8ff" stroke="#63b8ff" points="178.89,-75 189.17,-72.45 179.54,-68.03 178.89,-75"/>
</a>
</g>
</g>
</g>
</svg>

<g id="navigator" transform="translate(0 0)" fill="#404254">
  <rect fill="#f2f5e9" fill-opacity="0.5" stroke="#606060" stroke-width=".5" x="0" y="0" width="60" height="60"/>
  <use id="zoomplus" xlink:href="#zoomPlus" x="17" y="9" onmousedown="handleZoom(evt,'in')"/>
  <use id="zoomminus" xlink:href="#zoomMin" x="42" y="9" onmousedown="handleZoom(evt,'out')"/>
  <use id="reset" xlink:href="#resetDef" x="30" y="36" onmousedown="handleReset()"/>
   <use id="arrowup" xlink:href="#arrowUp" x="0" y="0" onmousedown="handlePan(0,-1)"/>
  <use id="arrowright" xlink:href="#arrowRight" x="0" y="0" onmousedown="handlePan(1,0)"/>
  <use id="arrowdown" xlink:href="#arrowDown" x="0" y="0" onmousedown="handlePan(0,1)"/>
  <use id="arrowleft" xlink:href="#arrowLeft" x="0" y="0" onmousedown="handlePan(-1,0)"/>
</g>
<svg viewBox="0 0 15 15" width="100%" height="30px" preserveAspectRatio="xMaxYMin meet">
 <g id="arrow_out" transform="scale(0.3 0.3)">
  <a xlink:href="classAC__AutoTune_a1c95bf9bc9e06ae04c56f5e6953a0758_icgraph_org.svg" target="_base">
   <rect id="button" ry="5" rx="5" y="6" x="6" height="38" width="38"
        fill="#f2f5e9" fill-opacity="0.5" stroke="#606060" stroke-width="1.0"/>
   <path id="arrow"
     d="M 11.500037,31.436501 C 11.940474,20.09759 22.043105,11.32322 32.158766,21.979434 L 37.068811,17.246167 C 37.068811,17.246167 37.088388,32 37.088388,32 L 22.160133,31.978069 C 22.160133,31.978069 26.997745,27.140456 26.997745,27.140456 C 18.528582,18.264221 13.291696,25.230495 11.500037,31.436501 z"
     style="fill:#404040;"/>
  </a>
 </g>
</svg>

<style type='text/css'>
<![CDATA[
[data-mouse-over-selected='false'] { opacity: 0.7; }
[data-mouse-over-selected='true']  { opacity: 1.0; }
]]>
</style>
<script type="application/ecmascript"><![CDATA[
document.addEventListener('DOMContentLoaded', (event) => {
  highlightEdges();
  highlightAdjacentNodes();
});
]]></script>
</svg>
