<?xml version="1.0" encoding="UTF-8" standalone="no"?>
<!DOCTYPE svg PUBLIC "-//W3C//DTD SVG 1.1//EN"
 "http://www.w3.org/Graphics/SVG/1.1/DTD/svg11.dtd">
<!-- Generated by graphviz version 2.43.0 (0)
 -->
<!-- Title: _tds__SetStorageConfiguration Pages: 1 -->
<svg width="1173pt" height="97pt"
 viewBox="0.00 0.00 1173.00 97.00" xmlns="http://www.w3.org/2000/svg" xmlns:xlink="http://www.w3.org/1999/xlink">
<g id="graph0" class="graph" transform="scale(1 1) rotate(0) translate(4 93)">
<title>_tds__SetStorageConfiguration</title>
<!-- Node1 -->
<g id="Node000001" class="node">
<title>Node1</title>
<g id="a_Node000001"><a xlink:title="Top&#45;level root element &quot;http://www.onvif.org/ver10/device/wsdl&quot;:SetStorageConfiguration.">
<polygon fill="#999999" stroke="#666666" points="1165,-66 999,-66 999,-47 1165,-47 1165,-66"/>
<text text-anchor="middle" x="1082" y="-54" font-family="Helvetica,sans-Serif" font-size="10.00">_tds__SetStorageConfiguration</text>
</a>
</g>
</g>
<!-- Node2 -->
<g id="Node000002" class="node">
<title>Node2</title>
<g id="a_Node000002"><a xlink:href="classtds____StorageConfiguration.html" target="_top" xlink:title="&quot;http://www.onvif.org/ver10/device/wsdl&quot;:StorageConfiguration is a complexType with complexContent ex...">
<polygon fill="white" stroke="#666666" points="857,-66 712,-66 712,-47 857,-47 857,-66"/>
<text text-anchor="middle" x="784.5" y="-54" font-family="Helvetica,sans-Serif" font-size="10.00">tds__StorageConfiguration</text>
</a>
</g>
</g>
<!-- Node2&#45;&gt;Node1 -->
<g id="edge1_Node000001_Node000002" class="edge">
<title>Node2&#45;&gt;Node1</title>
<g id="a_edge1_Node000001_Node000002"><a xlink:title=" ">
<path fill="none" stroke="#9a32cd" stroke-dasharray="5,2" d="M867.27,-56.5C908.28,-56.5 957.83,-56.5 998.89,-56.5"/>
<polygon fill="#9a32cd" stroke="#9a32cd" points="867.03,-53 857.03,-56.5 867.03,-60 867.03,-53"/>
</a>
</g>
<text text-anchor="middle" x="928" y="-59.5" font-family="Helvetica,sans-Serif" font-size="10.00" fill="grey"> StorageConfiguration</text>
</g>
<!-- Node3 -->
<g id="Node000003" class="node">
<title>Node3</title>
<g id="a_Node000003"><a xlink:href="classtt____DeviceEntity.html" target="_top" xlink:title="&quot;http://www.onvif.org/ver10/schema&quot;:DeviceEntity is a complexType.">
<polygon fill="white" stroke="#666666" points="613.5,-84 516.5,-84 516.5,-65 613.5,-65 613.5,-84"/>
<text text-anchor="middle" x="565" y="-72" font-family="Helvetica,sans-Serif" font-size="10.00">tt__DeviceEntity</text>
</a>
</g>
</g>
<!-- Node3&#45;&gt;Node2 -->
<g id="edge2_Node000002_Node000003" class="edge">
<title>Node3&#45;&gt;Node2</title>
<g id="a_edge2_Node000002_Node000003"><a xlink:title=" ">
<path fill="none" stroke="#63b8ff" d="M623.81,-69.72C650.85,-67.48 683.32,-64.79 711.9,-62.43"/>
<polygon fill="#63b8ff" stroke="#63b8ff" points="623.41,-66.24 613.73,-70.55 623.99,-73.21 623.41,-66.24"/>
</a>
</g>
</g>
<!-- Node4 -->
<g id="Node000004" class="node">
<title>Node4</title>
<g id="a_Node000004"><a xlink:href="classtds____StorageConfigurationData.html" target="_top" xlink:title="&quot;http://www.onvif.org/ver10/device/wsdl&quot;:StorageConfigurationData is a complexType.">
<polygon fill="white" stroke="#666666" points="649,-47 481,-47 481,-28 649,-28 649,-47"/>
<text text-anchor="middle" x="565" y="-35" font-family="Helvetica,sans-Serif" font-size="10.00">tds__StorageConfigurationData</text>
</a>
</g>
</g>
<!-- Node4&#45;&gt;Node2 -->
<g id="edge3_Node000002_Node000004" class="edge">
<title>Node4&#45;&gt;Node2</title>
<g id="a_edge3_Node000002_Node000004"><a xlink:title=" ">
<path fill="none" stroke="#9a32cd" stroke-dasharray="5,2" d="M659.4,-45.66C676.93,-47.19 695,-48.77 711.74,-50.23"/>
<polygon fill="#9a32cd" stroke="#9a32cd" points="659.43,-42.15 649.16,-44.76 658.82,-49.12 659.43,-42.15"/>
</a>
</g>
<text text-anchor="middle" x="680.5" y="-51.5" font-family="Helvetica,sans-Serif" font-size="10.00" fill="grey"> Data</text>
</g>
<!-- Node5 -->
<g id="Node000005" class="node">
<title>Node5</title>
<g id="a_Node000005"><a xlink:href="classtds____UserCredential.html" target="_top" xlink:title="&quot;http://www.onvif.org/ver10/device/wsdl&quot;:UserCredential is a complexType.">
<polygon fill="white" stroke="#666666" points="361,-78 246,-78 246,-59 361,-59 361,-78"/>
<text text-anchor="middle" x="303.5" y="-66" font-family="Helvetica,sans-Serif" font-size="10.00">tds__UserCredential</text>
</a>
</g>
</g>
<!-- Node5&#45;&gt;Node4 -->
<g id="edge4_Node000004_Node000005" class="edge">
<title>Node5&#45;&gt;Node4</title>
<g id="a_edge4_Node000004_Node000005"><a xlink:title=" ">
<path fill="none" stroke="#9a32cd" stroke-dasharray="5,2" d="M371.11,-60.54C405.66,-56.42 448.09,-51.35 484.36,-47.01"/>
<polygon fill="#9a32cd" stroke="#9a32cd" points="370.64,-57.07 361.13,-61.74 371.47,-64.02 370.64,-57.07"/>
</a>
</g>
<text text-anchor="middle" x="437" y="-59.5" font-family="Helvetica,sans-Serif" font-size="10.00" fill="grey"> User</text>
</g>
<!-- Node6 -->
<g id="Node000006" class="node">
<title>Node6</title>
<g id="a_Node000006"><a xlink:href="classtds____UserCredential_1_1__tds____UserCredential__Extension.html" target="_top" xlink:title=" ">
<polygon fill="white" stroke="#666666" points="126,-89 0,-89 0,-48 126,-48 126,-89"/>
<text text-anchor="start" x="8" y="-77" font-family="Helvetica,sans-Serif" font-size="10.00">tds__UserCredential</text>
<text text-anchor="start" x="8" y="-66" font-family="Helvetica,sans-Serif" font-size="10.00">::_tds__UserCredential</text>
<text text-anchor="middle" x="63" y="-55" font-family="Helvetica,sans-Serif" font-size="10.00">_Extension</text>
</a>
</g>
</g>
<!-- Node6&#45;&gt;Node5 -->
<g id="edge5_Node000005_Node000006" class="edge">
<title>Node6&#45;&gt;Node5</title>
<g id="a_edge5_Node000005_Node000006"><a xlink:title=" ">
<path fill="none" stroke="#9a32cd" stroke-dasharray="5,2" d="M136.23,-68.5C171.32,-68.5 212.88,-68.5 245.67,-68.5"/>
<polygon fill="#9a32cd" stroke="#9a32cd" points="136.04,-65 126.04,-68.5 136.04,-72 136.04,-65"/>
</a>
</g>
<text text-anchor="middle" x="170" y="-71.5" font-family="Helvetica,sans-Serif" font-size="10.00" fill="grey"> Extension</text>
</g>
<!-- Node7 -->
<g id="Node000007" class="node">
<title>Node7</title>
<g id="a_Node000007"><a xlink:href="classtds____StorageConfigurationData_1_1__tds____StorageConfigurationData__Extension.html" target="_top" xlink:title=" ">
<polygon fill="white" stroke="#666666" points="393,-41 214,-41 214,0 393,0 393,-41"/>
<text text-anchor="start" x="222" y="-29" font-family="Helvetica,sans-Serif" font-size="10.00">tds__StorageConfiguration</text>
<text text-anchor="start" x="222" y="-18" font-family="Helvetica,sans-Serif" font-size="10.00">Data::_tds__StorageConfiguration</text>
<text text-anchor="middle" x="303.5" y="-7" font-family="Helvetica,sans-Serif" font-size="10.00">Data_Extension</text>
</a>
</g>
</g>
<!-- Node7&#45;&gt;Node4 -->
<g id="edge6_Node000004_Node000007" class="edge">
<title>Node7&#45;&gt;Node4</title>
<g id="a_edge6_Node000004_Node000007"><a xlink:title=" ">
<path fill="none" stroke="#9a32cd" stroke-dasharray="5,2" d="M403.6,-24.91C423.29,-25.96 443.81,-27.16 463,-28.5 468.8,-28.9 474.77,-29.35 480.79,-29.83"/>
<polygon fill="#9a32cd" stroke="#9a32cd" points="403.56,-21.41 393.4,-24.38 403.2,-28.4 403.56,-21.41"/>
</a>
</g>
<text text-anchor="middle" x="437" y="-31.5" font-family="Helvetica,sans-Serif" font-size="10.00" fill="grey"> Extension</text>
</g>
</g>
</svg>
