<?xml version="1.0" encoding="UTF-8" standalone="no"?>
<!DOCTYPE svg PUBLIC "-//W3C//DTD SVG 1.1//EN"
 "http://www.w3.org/Graphics/SVG/1.1/DTD/svg11.dtd">
<!-- Generated by graphviz version 2.43.0 (0)
 -->
<!-- Title: SITL::SerialDevice::read_from_autopilot Pages: 1 -->
<svg width="1401pt" height="477pt"
 viewBox="0.00 0.00 1401.00 477.00" xmlns="http://www.w3.org/2000/svg" xmlns:xlink="http://www.w3.org/1999/xlink">
<g id="graph0" class="graph" transform="scale(1 1) rotate(0) translate(4 473)">
<title>SITL::SerialDevice::read_from_autopilot</title>
<!-- Node1 -->
<g id="Node000001" class="node">
<title>Node1</title>
<g id="a_Node000001"><a xlink:title=" ">
<polygon fill="#999999" stroke="#666666" points="1393,-265 1271,-265 1271,-235 1393,-235 1393,-265"/>
<text text-anchor="start" x="1279" y="-253" font-family="Helvetica,sans-Serif" font-size="10.00">SITL::SerialDevice</text>
<text text-anchor="middle" x="1332" y="-242" font-family="Helvetica,sans-Serif" font-size="10.00">::read_from_autopilot</text>
</a>
</g>
</g>
<!-- Node2 -->
<g id="Node000002" class="node">
<title>Node2</title>
<g id="a_Node000002"><a xlink:href="classSITL_1_1RF__Wasp.html#a6444881e50e08f786c411eb5c77a078e" target="_top" xlink:title=" ">
<polygon fill="white" stroke="#666666" points="1223,-469 1101,-469 1101,-439 1223,-439 1223,-469"/>
<text text-anchor="start" x="1109" y="-457" font-family="Helvetica,sans-Serif" font-size="10.00">SITL::RF_Wasp::check</text>
<text text-anchor="middle" x="1162" y="-446" font-family="Helvetica,sans-Serif" font-size="10.00">_configuration</text>
</a>
</g>
</g>
<!-- Node1&#45;&gt;Node2 -->
<g id="edge1_Node000001_Node000002" class="edge">
<title>Node1&#45;&gt;Node2</title>
<g id="a_edge1_Node000001_Node000002"><a xlink:title=" ">
<path fill="none" stroke="#63b8ff" d="M1324.16,-275.19C1312.38,-313.95 1284.59,-388.12 1235,-430 1230.97,-433.4 1226.45,-436.32 1221.68,-438.84"/>
<polygon fill="#63b8ff" stroke="#63b8ff" points="1327.62,-275.83 1327.07,-265.25 1320.9,-273.87 1327.62,-275.83"/>
</a>
</g>
</g>
<!-- Node10 -->
<g id="Node000010" class="node">
<title>Node10</title>
<g id="a_Node000010"><a xlink:href="classSITL_1_1RF__LightWareSerial.html#ac52cc0c2914aacc7b5527aeb12c2c2a4" target="_top" xlink:title=" ">
<polygon fill="white" stroke="#666666" points="1230.5,-421 1093.5,-421 1093.5,-391 1230.5,-391 1230.5,-421"/>
<text text-anchor="start" x="1101.5" y="-409" font-family="Helvetica,sans-Serif" font-size="10.00">SITL::RF_LightWareSerial</text>
<text text-anchor="middle" x="1162" y="-398" font-family="Helvetica,sans-Serif" font-size="10.00">::check_synced</text>
</a>
</g>
</g>
<!-- Node1&#45;&gt;Node10 -->
<g id="edge9_Node000001_Node000010" class="edge">
<title>Node1&#45;&gt;Node10</title>
<g id="a_edge9_Node000001_Node000010"><a xlink:title=" ">
<path fill="none" stroke="#63b8ff" d="M1319.37,-274.22C1304.01,-303.75 1274.24,-353.28 1235,-382 1230.32,-385.42 1225.12,-388.38 1219.73,-390.93"/>
<polygon fill="#63b8ff" stroke="#63b8ff" points="1322.63,-275.53 1324.02,-265.03 1316.38,-272.37 1322.63,-275.53"/>
</a>
</g>
</g>
<!-- Node12 -->
<g id="Node000012" class="node">
<title>Node12</title>
<g id="a_Node000012"><a xlink:href="classSITL_1_1ADSB.html#a60b0a4c7cca2bd66de544034b3bca385" target="_top" xlink:title=" ">
<polygon fill="white" stroke="#666666" points="1229,-372.5 1095,-372.5 1095,-353.5 1229,-353.5 1229,-372.5"/>
<text text-anchor="middle" x="1162" y="-360.5" font-family="Helvetica,sans-Serif" font-size="10.00">SITL::ADSB::send_report</text>
</a>
</g>
</g>
<!-- Node1&#45;&gt;Node12 -->
<g id="edge12_Node000001_Node000012" class="edge">
<title>Node1&#45;&gt;Node12</title>
<g id="a_edge12_Node000001_Node000012"><a xlink:title=" ">
<path fill="none" stroke="#63b8ff" d="M1313.77,-273.11C1296.3,-294.89 1267.29,-326.83 1235,-345 1228.94,-348.41 1222.23,-351.19 1215.41,-353.44"/>
<polygon fill="#63b8ff" stroke="#63b8ff" points="1316.69,-275.06 1320.1,-265.03 1311.18,-270.74 1316.69,-275.06"/>
</a>
</g>
</g>
<!-- Node14 -->
<g id="Node000014" class="node">
<title>Node14</title>
<g id="a_Node000014"><a xlink:href="classSITL_1_1CRSF.html#a841fc81d97a734932ac9f36ef4158a0c" target="_top" xlink:title=" ">
<polygon fill="white" stroke="#666666" points="1215.5,-335.5 1108.5,-335.5 1108.5,-316.5 1215.5,-316.5 1215.5,-335.5"/>
<text text-anchor="middle" x="1162" y="-323.5" font-family="Helvetica,sans-Serif" font-size="10.00">SITL::CRSF::update</text>
</a>
</g>
</g>
<!-- Node1&#45;&gt;Node14 -->
<g id="edge14_Node000001_Node000014" class="edge">
<title>Node1&#45;&gt;Node14</title>
<g id="a_edge14_Node000001_Node000014"><a xlink:title=" ">
<path fill="none" stroke="#63b8ff" d="M1296.97,-270.32C1278.93,-280.61 1256.18,-292.82 1235,-302 1222.43,-307.45 1208.19,-312.43 1195.71,-316.43"/>
<polygon fill="#63b8ff" stroke="#63b8ff" points="1299.02,-273.18 1305.94,-265.15 1295.52,-267.11 1299.02,-273.18"/>
</a>
</g>
</g>
<!-- Node15 -->
<g id="Node000015" class="node">
<title>Node15</title>
<g id="a_Node000015"><a xlink:href="classSITL_1_1EFI__MegaSquirt.html#a827cf4d83b02d918b2678a7ab02fc473" target="_top" xlink:title=" ">
<polygon fill="white" stroke="#666666" points="1044,-308 925,-308 925,-278 1044,-278 1044,-308"/>
<text text-anchor="start" x="933" y="-296" font-family="Helvetica,sans-Serif" font-size="10.00">SITL::EFI_MegaSquirt</text>
<text text-anchor="middle" x="984.5" y="-285" font-family="Helvetica,sans-Serif" font-size="10.00">::update</text>
</a>
</g>
</g>
<!-- Node1&#45;&gt;Node15 -->
<g id="edge15_Node000001_Node000015" class="edge">
<title>Node1&#45;&gt;Node15</title>
<g id="a_edge15_Node000001_Node000015"><a xlink:title=" ">
<path fill="none" stroke="#63b8ff" d="M1260.75,-260.48C1252.08,-261.71 1243.34,-262.91 1235,-264 1169.71,-272.55 1094.64,-281.11 1044.04,-286.68"/>
<polygon fill="#63b8ff" stroke="#63b8ff" points="1261.46,-263.92 1270.87,-259.04 1260.47,-256.99 1261.46,-263.92"/>
</a>
</g>
</g>
<!-- Node16 -->
<g id="Node000016" class="node">
<title>Node16</title>
<g id="a_Node000016"><a xlink:href="classSITL_1_1Frsky__D.html#aee7cfcd47a84089b95705032fa1765b6" target="_top" xlink:title=" ">
<polygon fill="white" stroke="#666666" points="1045,-259.5 924,-259.5 924,-240.5 1045,-240.5 1045,-259.5"/>
<text text-anchor="middle" x="984.5" y="-247.5" font-family="Helvetica,sans-Serif" font-size="10.00">SITL::Frsky_D::update</text>
</a>
</g>
</g>
<!-- Node1&#45;&gt;Node16 -->
<g id="edge17_Node000001_Node000016" class="edge">
<title>Node1&#45;&gt;Node16</title>
<g id="a_edge17_Node000001_Node000016"><a xlink:title=" ">
<path fill="none" stroke="#63b8ff" d="M1260.51,-250C1197.15,-250 1105.12,-250 1045.28,-250"/>
<polygon fill="#63b8ff" stroke="#63b8ff" points="1260.82,-253.5 1270.82,-250 1260.82,-246.5 1260.82,-253.5"/>
</a>
</g>
</g>
<!-- Node17 -->
<g id="Node000017" class="node">
<title>Node17</title>
<g id="a_Node000017"><a xlink:href="classSITL_1_1FETtecOneWireESC.html#a03c8b0d202092684ffffb0e96e33a288" target="_top" xlink:title=" ">
<polygon fill="white" stroke="#666666" points="1230.5,-222 1093.5,-222 1093.5,-192 1230.5,-192 1230.5,-222"/>
<text text-anchor="start" x="1101.5" y="-210" font-family="Helvetica,sans-Serif" font-size="10.00">SITL::FETtecOneWireESC</text>
<text text-anchor="middle" x="1162" y="-199" font-family="Helvetica,sans-Serif" font-size="10.00">::update_input</text>
</a>
</g>
</g>
<!-- Node1&#45;&gt;Node17 -->
<g id="edge19_Node000001_Node000017" class="edge">
<title>Node1&#45;&gt;Node17</title>
<g id="a_edge19_Node000001_Node000017"><a xlink:title=" ">
<path fill="none" stroke="#63b8ff" d="M1262.51,-232.47C1248.98,-229.01 1234.9,-225.4 1221.73,-222.03"/>
<polygon fill="#63b8ff" stroke="#63b8ff" points="1261.69,-235.87 1272.24,-234.96 1263.42,-229.09 1261.69,-235.87"/>
</a>
</g>
</g>
<!-- Node19 -->
<g id="Node000019" class="node">
<title>Node19</title>
<g id="a_Node000019"><a xlink:href="classSITL_1_1PS__LightWare__SF45B.html#a33603eaacad9f6aae2d543510df32d82" target="_top" xlink:title=" ">
<polygon fill="white" stroke="#666666" points="1223,-174 1101,-174 1101,-144 1223,-144 1223,-174"/>
<text text-anchor="start" x="1109" y="-162" font-family="Helvetica,sans-Serif" font-size="10.00">SITL::PS_LightWare</text>
<text text-anchor="middle" x="1162" y="-151" font-family="Helvetica,sans-Serif" font-size="10.00">_SF45B::update_input</text>
</a>
</g>
</g>
<!-- Node1&#45;&gt;Node19 -->
<g id="edge21_Node000001_Node000019" class="edge">
<title>Node1&#45;&gt;Node19</title>
<g id="a_edge21_Node000001_Node000019"><a xlink:title=" ">
<path fill="none" stroke="#63b8ff" d="M1304.89,-228.68C1286.28,-214.28 1260.2,-195.66 1235,-183 1228.52,-179.75 1221.51,-176.78 1214.48,-174.14"/>
<polygon fill="#63b8ff" stroke="#63b8ff" points="1302.86,-231.53 1312.88,-234.96 1307.18,-226.03 1302.86,-231.53"/>
</a>
</g>
</g>
<!-- Node21 -->
<g id="Node000021" class="node">
<title>Node21</title>
<g id="a_Node000021"><a xlink:href="classSITL_1_1PS__RPLidar.html#af5ca2aaf3ddaa71c87059482c4ca45f9" target="_top" xlink:title=" ">
<polygon fill="white" stroke="#666666" points="1230.5,-126 1093.5,-126 1093.5,-96 1230.5,-96 1230.5,-126"/>
<text text-anchor="start" x="1101.5" y="-114" font-family="Helvetica,sans-Serif" font-size="10.00">SITL::PS_RPLidar::update</text>
<text text-anchor="middle" x="1162" y="-103" font-family="Helvetica,sans-Serif" font-size="10.00">_input</text>
</a>
</g>
</g>
<!-- Node1&#45;&gt;Node21 -->
<g id="edge23_Node000001_Node000021" class="edge">
<title>Node1&#45;&gt;Node21</title>
<g id="a_edge23_Node000001_Node000021"><a xlink:title=" ">
<path fill="none" stroke="#63b8ff" d="M1316.82,-226.13C1300.26,-200.2 1270.56,-159.25 1235,-135 1229.99,-131.59 1224.46,-128.62 1218.75,-126.06"/>
<polygon fill="#63b8ff" stroke="#63b8ff" points="1313.85,-227.99 1322.12,-234.62 1319.79,-224.29 1313.85,-227.99"/>
</a>
</g>
</g>
<!-- Node23 -->
<g id="Node000023" class="node">
<title>Node23</title>
<g id="a_Node000023"><a xlink:href="classSITL_1_1EFI__Hirth.html#ab532024600adcf505343978d2840812b" target="_top" xlink:title=" ">
<polygon fill="white" stroke="#666666" points="1225.5,-78 1098.5,-78 1098.5,-48 1225.5,-48 1225.5,-78"/>
<text text-anchor="start" x="1106.5" y="-66" font-family="Helvetica,sans-Serif" font-size="10.00">SITL::EFI_Hirth::update</text>
<text text-anchor="middle" x="1162" y="-55" font-family="Helvetica,sans-Serif" font-size="10.00">_receive</text>
</a>
</g>
</g>
<!-- Node1&#45;&gt;Node23 -->
<g id="edge26_Node000001_Node000023" class="edge">
<title>Node1&#45;&gt;Node23</title>
<g id="a_edge26_Node000001_Node000023"><a xlink:title=" ">
<path fill="none" stroke="#63b8ff" d="M1322.84,-225.39C1309.82,-189.81 1281.02,-124.22 1235,-87 1230.8,-83.6 1226.1,-80.68 1221.16,-78.16"/>
<polygon fill="#63b8ff" stroke="#63b8ff" points="1319.6,-226.73 1326.24,-234.99 1326.2,-224.39 1319.6,-226.73"/>
</a>
</g>
</g>
<!-- Node25 -->
<g id="Node000025" class="node">
<title>Node25</title>
<g id="a_Node000025"><a xlink:href="classSITL_1_1ADSB__Sagetech__MXS.html#a76764055e6a480dd945f901f30a6e2b9" target="_top" xlink:title=" ">
<polygon fill="white" stroke="#666666" points="1235,-30 1089,-30 1089,0 1235,0 1235,-30"/>
<text text-anchor="start" x="1097" y="-18" font-family="Helvetica,sans-Serif" font-size="10.00">SITL::ADSB_Sagetech</text>
<text text-anchor="middle" x="1162" y="-7" font-family="Helvetica,sans-Serif" font-size="10.00">_MXS::update_serial_input</text>
</a>
</g>
</g>
<!-- Node1&#45;&gt;Node25 -->
<g id="edge29_Node000001_Node000025" class="edge">
<title>Node1&#45;&gt;Node25</title>
<g id="a_edge29_Node000001_Node000025"><a xlink:title=" ">
<path fill="none" stroke="#63b8ff" d="M1326.39,-224.93C1317.02,-181.01 1291.65,-89.99 1235,-39 1231.18,-35.56 1226.85,-32.62 1222.26,-30.09"/>
<polygon fill="#63b8ff" stroke="#63b8ff" points="1322.97,-225.68 1328.39,-234.79 1329.83,-224.29 1322.97,-225.68"/>
</a>
</g>
</g>
<!-- Node3 -->
<g id="Node000003" class="node">
<title>Node3</title>
<g id="a_Node000003"><a xlink:href="classSITL_1_1RF__Wasp.html#a3f2fa167715bbe8616efc9cd93628c79" target="_top" xlink:title=" ">
<polygon fill="white" stroke="#666666" points="1048,-460.5 921,-460.5 921,-441.5 1048,-441.5 1048,-460.5"/>
<text text-anchor="middle" x="984.5" y="-448.5" font-family="Helvetica,sans-Serif" font-size="10.00">SITL::RF_Wasp::update</text>
</a>
</g>
</g>
<!-- Node2&#45;&gt;Node3 -->
<g id="edge2_Node000002_Node000003" class="edge">
<title>Node2&#45;&gt;Node3</title>
<g id="a_edge2_Node000002_Node000003"><a xlink:title=" ">
<path fill="none" stroke="#63b8ff" d="M1090.52,-452.8C1076.49,-452.56 1061.84,-452.31 1048.1,-452.07"/>
<polygon fill="#63b8ff" stroke="#63b8ff" points="1090.54,-456.3 1100.6,-452.97 1090.66,-449.3 1090.54,-456.3"/>
</a>
</g>
</g>
<!-- Node4 -->
<g id="Node000004" class="node">
<title>Node4</title>
<g id="a_Node000004"><a xlink:href="classHALSITL_1_1SITL__State__Common.html#a203ad4f71c8f1cac590d11e0f98b23ea" target="_top" xlink:title=" ">
<polygon fill="white" stroke="#666666" points="880,-286 751,-286 751,-256 880,-256 880,-286"/>
<text text-anchor="start" x="759" y="-274" font-family="Helvetica,sans-Serif" font-size="10.00">HALSITL::SITL_State</text>
<text text-anchor="middle" x="815.5" y="-263" font-family="Helvetica,sans-Serif" font-size="10.00">_Common::sim_update</text>
</a>
</g>
</g>
<!-- Node3&#45;&gt;Node4 -->
<g id="edge3_Node000003_Node000004" class="edge">
<title>Node3&#45;&gt;Node4</title>
<g id="a_edge3_Node000003_Node000004"><a xlink:title=" ">
<path fill="none" stroke="#63b8ff" d="M927.72,-437.28C923.56,-435.18 919.6,-432.77 916,-430 865.19,-390.84 833.66,-317.79 821.82,-286.2"/>
<polygon fill="#63b8ff" stroke="#63b8ff" points="926.48,-440.55 937.05,-441.37 929.3,-434.15 926.48,-440.55"/>
</a>
</g>
</g>
<!-- Node5 -->
<g id="Node000005" class="node">
<title>Node5</title>
<g id="a_Node000005"><a xlink:href="classHALSITL_1_1SITL__State.html#a141fe78b0702ab2f2ac4cafc221fdb97" target="_top" xlink:title=" ">
<polygon fill="white" stroke="#666666" points="715,-286 602,-286 602,-256 715,-256 715,-286"/>
<text text-anchor="start" x="610" y="-274" font-family="Helvetica,sans-Serif" font-size="10.00">HALSITL::SITL_State</text>
<text text-anchor="middle" x="658.5" y="-263" font-family="Helvetica,sans-Serif" font-size="10.00">::_fdm_input_local</text>
</a>
</g>
</g>
<!-- Node4&#45;&gt;Node5 -->
<g id="edge4_Node000004_Node000005" class="edge">
<title>Node4&#45;&gt;Node5</title>
<g id="a_edge4_Node000004_Node000005"><a xlink:title=" ">
<path fill="none" stroke="#63b8ff" d="M740.36,-271C731.95,-271 723.49,-271 715.37,-271"/>
<polygon fill="#63b8ff" stroke="#63b8ff" points="740.56,-274.5 750.56,-271 740.56,-267.5 740.56,-274.5"/>
</a>
</g>
</g>
<!-- Node6 -->
<g id="Node000006" class="node">
<title>Node6</title>
<g id="a_Node000006"><a xlink:href="classHALSITL_1_1SITL__State.html#ae31c93a26ca780bb508dded2498e2e93" target="_top" xlink:title=" ">
<polygon fill="white" stroke="#666666" points="566,-286 453,-286 453,-256 566,-256 566,-286"/>
<text text-anchor="start" x="461" y="-274" font-family="Helvetica,sans-Serif" font-size="10.00">HALSITL::SITL_State</text>
<text text-anchor="middle" x="509.5" y="-263" font-family="Helvetica,sans-Serif" font-size="10.00">::_fdm_input_step</text>
</a>
</g>
</g>
<!-- Node5&#45;&gt;Node6 -->
<g id="edge5_Node000005_Node000006" class="edge">
<title>Node5&#45;&gt;Node6</title>
<g id="a_edge5_Node000005_Node000006"><a xlink:title=" ">
<path fill="none" stroke="#63b8ff" d="M591.92,-271C583.32,-271 574.57,-271 566.15,-271"/>
<polygon fill="#63b8ff" stroke="#63b8ff" points="591.93,-274.5 601.93,-271 591.93,-267.5 591.93,-274.5"/>
</a>
</g>
</g>
<!-- Node7 -->
<g id="Node000007" class="node">
<title>Node7</title>
<g id="a_Node000007"><a xlink:href="classHALSITL_1_1SITL__State.html#a3eeaf330efded46259bbf64fc53e6b9f" target="_top" xlink:title=" ">
<polygon fill="white" stroke="#666666" points="417,-286 304,-286 304,-256 417,-256 417,-286"/>
<text text-anchor="start" x="312" y="-274" font-family="Helvetica,sans-Serif" font-size="10.00">HALSITL::SITL_State</text>
<text text-anchor="middle" x="360.5" y="-263" font-family="Helvetica,sans-Serif" font-size="10.00">::wait_clock</text>
</a>
</g>
</g>
<!-- Node6&#45;&gt;Node7 -->
<g id="edge6_Node000006_Node000007" class="edge">
<title>Node6&#45;&gt;Node7</title>
<g id="a_edge6_Node000006_Node000007"><a xlink:title=" ">
<path fill="none" stroke="#63b8ff" d="M442.92,-271C434.32,-271 425.57,-271 417.15,-271"/>
<polygon fill="#63b8ff" stroke="#63b8ff" points="442.93,-274.5 452.93,-271 442.93,-267.5 442.93,-274.5"/>
</a>
</g>
</g>
<!-- Node8 -->
<g id="Node000008" class="node">
<title>Node8</title>
<g id="a_Node000008"><a xlink:href="classHALSITL_1_1Scheduler.html#a332cd2e17889c12f84b469eaf9f24fc8" target="_top" xlink:title=" ">
<polygon fill="white" stroke="#666666" points="268,-286 146,-286 146,-256 268,-256 268,-286"/>
<text text-anchor="start" x="154" y="-274" font-family="Helvetica,sans-Serif" font-size="10.00">HALSITL::Scheduler</text>
<text text-anchor="middle" x="207" y="-263" font-family="Helvetica,sans-Serif" font-size="10.00">::delay_microseconds</text>
</a>
</g>
</g>
<!-- Node7&#45;&gt;Node8 -->
<g id="edge7_Node000007_Node000008" class="edge">
<title>Node7&#45;&gt;Node8</title>
<g id="a_edge7_Node000007_Node000008"><a xlink:title=" ">
<path fill="none" stroke="#63b8ff" d="M293.7,-271C285.2,-271 276.54,-271 268.14,-271"/>
<polygon fill="#63b8ff" stroke="#63b8ff" points="293.95,-274.5 303.95,-271 293.95,-267.5 293.95,-274.5"/>
</a>
</g>
</g>
<!-- Node9 -->
<g id="Node000009" class="node">
<title>Node9</title>
<g id="a_Node000009"><a xlink:href="classHALSITL_1_1Scheduler.html#a8b298eda68e2de4c5c082f02dda3abd9" target="_top" xlink:title=" ">
<polygon fill="white" stroke="#666666" points="110,-286 0,-286 0,-256 110,-256 110,-286"/>
<text text-anchor="start" x="8" y="-274" font-family="Helvetica,sans-Serif" font-size="10.00">HALSITL::Scheduler</text>
<text text-anchor="middle" x="55" y="-263" font-family="Helvetica,sans-Serif" font-size="10.00">::delay</text>
</a>
</g>
</g>
<!-- Node8&#45;&gt;Node9 -->
<g id="edge8_Node000008_Node000009" class="edge">
<title>Node8&#45;&gt;Node9</title>
<g id="a_edge8_Node000008_Node000009"><a xlink:title=" ">
<path fill="none" stroke="#63b8ff" d="M135.58,-271C127.1,-271 118.54,-271 110.34,-271"/>
<polygon fill="#63b8ff" stroke="#63b8ff" points="135.85,-274.5 145.85,-271 135.85,-267.5 135.85,-274.5"/>
</a>
</g>
</g>
<!-- Node11 -->
<g id="Node000011" class="node">
<title>Node11</title>
<g id="a_Node000011"><a xlink:href="classSITL_1_1RF__LightWareSerial.html#aeaccb2f5f32cce0254471c5ab2361b4f" target="_top" xlink:title=" ">
<polygon fill="white" stroke="#666666" points="1053,-421 916,-421 916,-391 1053,-391 1053,-421"/>
<text text-anchor="start" x="924" y="-409" font-family="Helvetica,sans-Serif" font-size="10.00">SITL::RF_LightWareSerial</text>
<text text-anchor="middle" x="984.5" y="-398" font-family="Helvetica,sans-Serif" font-size="10.00">::update</text>
</a>
</g>
</g>
<!-- Node10&#45;&gt;Node11 -->
<g id="edge10_Node000010_Node000011" class="edge">
<title>Node10&#45;&gt;Node11</title>
<g id="a_edge10_Node000010_Node000011"><a xlink:title=" ">
<path fill="none" stroke="#63b8ff" d="M1083.38,-406C1073.27,-406 1062.99,-406 1053.07,-406"/>
<polygon fill="#63b8ff" stroke="#63b8ff" points="1083.4,-409.5 1093.4,-406 1083.4,-402.5 1083.4,-409.5"/>
</a>
</g>
</g>
<!-- Node11&#45;&gt;Node4 -->
<g id="edge11_Node000011_Node000004" class="edge">
<title>Node11&#45;&gt;Node4</title>
<g id="a_edge11_Node000011_Node000004"><a xlink:title=" ">
<path fill="none" stroke="#63b8ff" d="M923.43,-386.5C920.86,-385.09 918.37,-383.59 916,-382 876.45,-355.48 842.35,-309.74 826.3,-286.11"/>
<polygon fill="#63b8ff" stroke="#63b8ff" points="921.89,-389.64 932.4,-390.96 925,-383.37 921.89,-389.64"/>
</a>
</g>
</g>
<!-- Node13 -->
<g id="Node000013" class="node">
<title>Node13</title>
<g id="a_Node000013"><a xlink:href="classSITL_1_1ADSB.html#ab3e315badbb7cfe2160487549b61e5a5" target="_top" xlink:title=" ">
<polygon fill="white" stroke="#666666" points="1039.5,-372.5 929.5,-372.5 929.5,-353.5 1039.5,-353.5 1039.5,-372.5"/>
<text text-anchor="middle" x="984.5" y="-360.5" font-family="Helvetica,sans-Serif" font-size="10.00">SITL::ADSB::update</text>
</a>
</g>
</g>
<!-- Node12&#45;&gt;Node13 -->
<g id="edge13_Node000012_Node000013" class="edge">
<title>Node12&#45;&gt;Node13</title>
<g id="a_edge13_Node000012_Node000013"><a xlink:title=" ">
<path fill="none" stroke="#63b8ff" d="M1084.33,-363C1069.28,-363 1053.79,-363 1039.66,-363"/>
<polygon fill="#63b8ff" stroke="#63b8ff" points="1084.65,-366.5 1094.65,-363 1084.65,-359.5 1084.65,-366.5"/>
</a>
</g>
</g>
<!-- Node15&#45;&gt;Node4 -->
<g id="edge16_Node000015_Node000004" class="edge">
<title>Node15&#45;&gt;Node4</title>
<g id="a_edge16_Node000015_Node000004"><a xlink:title=" ">
<path fill="none" stroke="#63b8ff" d="M914.37,-283.89C903.07,-282.4 891.4,-280.87 880.24,-279.4"/>
<polygon fill="#63b8ff" stroke="#63b8ff" points="914.25,-287.41 924.62,-285.24 915.16,-280.47 914.25,-287.41"/>
</a>
</g>
</g>
<!-- Node16&#45;&gt;Node4 -->
<g id="edge18_Node000016_Node000004" class="edge">
<title>Node16&#45;&gt;Node4</title>
<g id="a_edge18_Node000016_Node000004"><a xlink:title=" ">
<path fill="none" stroke="#63b8ff" d="M913.6,-258.79C902.51,-260.18 891.08,-261.62 880.14,-263"/>
<polygon fill="#63b8ff" stroke="#63b8ff" points="914.2,-262.24 923.68,-257.52 913.32,-255.3 914.2,-262.24"/>
</a>
</g>
</g>
<!-- Node18 -->
<g id="Node000018" class="node">
<title>Node18</title>
<g id="a_Node000018"><a xlink:href="classSITL_1_1FETtecOneWireESC.html#a3fe33bc741e56bf2385db56cca5820b3" target="_top" xlink:title=" ">
<polygon fill="white" stroke="#666666" points="1053,-222 916,-222 916,-192 1053,-192 1053,-222"/>
<text text-anchor="start" x="924" y="-210" font-family="Helvetica,sans-Serif" font-size="10.00">SITL::FETtecOneWireESC</text>
<text text-anchor="middle" x="984.5" y="-199" font-family="Helvetica,sans-Serif" font-size="10.00">::update</text>
</a>
</g>
</g>
<!-- Node17&#45;&gt;Node18 -->
<g id="edge20_Node000017_Node000018" class="edge">
<title>Node17&#45;&gt;Node18</title>
<g id="a_edge20_Node000017_Node000018"><a xlink:title=" ">
<path fill="none" stroke="#63b8ff" d="M1083.38,-207C1073.27,-207 1062.99,-207 1053.07,-207"/>
<polygon fill="#63b8ff" stroke="#63b8ff" points="1083.4,-210.5 1093.4,-207 1083.4,-203.5 1083.4,-210.5"/>
</a>
</g>
</g>
<!-- Node20 -->
<g id="Node000020" class="node">
<title>Node20</title>
<g id="a_Node000020"><a xlink:href="classSITL_1_1PS__LightWare__SF45B.html#a4a044df1f3a51c76d11a356a95e0e839" target="_top" xlink:title=" ">
<polygon fill="white" stroke="#666666" points="1039,-174 930,-174 930,-144 1039,-144 1039,-174"/>
<text text-anchor="start" x="938" y="-162" font-family="Helvetica,sans-Serif" font-size="10.00">SITL::PS_LightWare</text>
<text text-anchor="middle" x="984.5" y="-151" font-family="Helvetica,sans-Serif" font-size="10.00">_SF45B::update</text>
</a>
</g>
</g>
<!-- Node19&#45;&gt;Node20 -->
<g id="edge22_Node000019_Node000020" class="edge">
<title>Node19&#45;&gt;Node20</title>
<g id="a_edge22_Node000019_Node000020"><a xlink:title=" ">
<path fill="none" stroke="#63b8ff" d="M1090.17,-159C1073.18,-159 1055.32,-159 1039.25,-159"/>
<polygon fill="#63b8ff" stroke="#63b8ff" points="1090.6,-162.5 1100.6,-159 1090.6,-155.5 1090.6,-162.5"/>
</a>
</g>
</g>
<!-- Node22 -->
<g id="Node000022" class="node">
<title>Node22</title>
<g id="a_Node000022"><a xlink:href="classSITL_1_1PS__RPLidar.html#ae2431cca19f4c9d86fc51de79bbbf04f" target="_top" xlink:title=" ">
<polygon fill="white" stroke="#666666" points="1053,-123.5 916,-123.5 916,-104.5 1053,-104.5 1053,-123.5"/>
<text text-anchor="middle" x="984.5" y="-111.5" font-family="Helvetica,sans-Serif" font-size="10.00">SITL::PS_RPLidar::update</text>
</a>
</g>
</g>
<!-- Node21&#45;&gt;Node22 -->
<g id="edge24_Node000021_Node000022" class="edge">
<title>Node21&#45;&gt;Node22</title>
<g id="a_edge24_Node000021_Node000022"><a xlink:title=" ">
<path fill="none" stroke="#63b8ff" d="M1083.38,-112.33C1073.27,-112.5 1062.99,-112.68 1053.07,-112.85"/>
<polygon fill="#63b8ff" stroke="#63b8ff" points="1083.46,-115.83 1093.4,-112.16 1083.34,-108.83 1083.46,-115.83"/>
</a>
</g>
</g>
<!-- Node22&#45;&gt;Node4 -->
<g id="edge25_Node000022_Node000004" class="edge">
<title>Node22&#45;&gt;Node4</title>
<g id="a_edge25_Node000022_Node000004"><a xlink:title=" ">
<path fill="none" stroke="#63b8ff" d="M928.88,-127.56C924.34,-129.7 919.97,-132.16 916,-135 870.3,-167.66 837.18,-227.83 823.48,-255.87"/>
<polygon fill="#63b8ff" stroke="#63b8ff" points="930.49,-130.68 938.39,-123.62 927.81,-124.22 930.49,-130.68"/>
</a>
</g>
</g>
<!-- Node24 -->
<g id="Node000024" class="node">
<title>Node24</title>
<g id="a_Node000024"><a xlink:href="classSITL_1_1EFI__Hirth.html#ad6d5cfb575ecafb4509fdc0866230e49" target="_top" xlink:title=" ">
<polygon fill="white" stroke="#666666" points="1048,-78.5 921,-78.5 921,-59.5 1048,-59.5 1048,-78.5"/>
<text text-anchor="middle" x="984.5" y="-66.5" font-family="Helvetica,sans-Serif" font-size="10.00">SITL::EFI_Hirth::update</text>
</a>
</g>
</g>
<!-- Node23&#45;&gt;Node24 -->
<g id="edge27_Node000023_Node000024" class="edge">
<title>Node23&#45;&gt;Node24</title>
<g id="a_edge27_Node000023_Node000024"><a xlink:title=" ">
<path fill="none" stroke="#63b8ff" d="M1088.11,-65.49C1074.86,-65.94 1061.15,-66.41 1048.22,-66.86"/>
<polygon fill="#63b8ff" stroke="#63b8ff" points="1088.26,-68.99 1098.14,-65.15 1088.02,-61.99 1088.26,-68.99"/>
</a>
</g>
</g>
<!-- Node24&#45;&gt;Node4 -->
<g id="edge28_Node000024_Node000004" class="edge">
<title>Node24&#45;&gt;Node4</title>
<g id="a_edge28_Node000024_Node000004"><a xlink:title=" ">
<path fill="none" stroke="#63b8ff" d="M935.59,-82.65C928.56,-85.97 921.75,-90.04 916,-95 862.98,-140.75 832.17,-222.08 821.15,-255.75"/>
<polygon fill="#63b8ff" stroke="#63b8ff" points="937.4,-85.68 945.25,-78.57 934.68,-79.23 937.4,-85.68"/>
</a>
</g>
</g>
<!-- Node26 -->
<g id="Node000026" class="node">
<title>Node26</title>
<g id="a_Node000026"><a xlink:href="classSITL_1_1ADSB__Sagetech__MXS.html#adbc27297ae0bd76e3317698f65737a82" target="_top" xlink:title=" ">
<polygon fill="white" stroke="#666666" points="1044.5,-30 924.5,-30 924.5,0 1044.5,0 1044.5,-30"/>
<text text-anchor="start" x="932.5" y="-18" font-family="Helvetica,sans-Serif" font-size="10.00">SITL::ADSB_Sagetech</text>
<text text-anchor="middle" x="984.5" y="-7" font-family="Helvetica,sans-Serif" font-size="10.00">_MXS::update</text>
</a>
</g>
</g>
<!-- Node25&#45;&gt;Node26 -->
<g id="edge30_Node000025_Node000026" class="edge">
<title>Node25&#45;&gt;Node26</title>
<g id="a_edge30_Node000025_Node000026"><a xlink:title=" ">
<path fill="none" stroke="#63b8ff" d="M1078.76,-15C1067.21,-15 1055.53,-15 1044.53,-15"/>
<polygon fill="#63b8ff" stroke="#63b8ff" points="1078.86,-18.5 1088.86,-15 1078.86,-11.5 1078.86,-18.5"/>
</a>
</g>
</g>
</g>
</svg>
