<?xml version="1.0" encoding="UTF-8" standalone="no"?>
<!DOCTYPE svg PUBLIC "-//W3C//DTD SVG 1.1//EN"
 "http://www.w3.org/Graphics/SVG/1.1/DTD/svg11.dtd">
<!-- Generated by graphviz version 2.43.0 (0)
 -->
<!-- Title: AP_OSD_Screen::draw_aspd1 Pages: 1 -->
<svg width="605pt" height="235pt"
 viewBox="0.00 0.00 605.00 235.00" xmlns="http://www.w3.org/2000/svg" xmlns:xlink="http://www.w3.org/1999/xlink">
<g id="graph0" class="graph" transform="scale(1 1) rotate(0) translate(4 231)">
<title>AP_OSD_Screen::draw_aspd1</title>
<!-- Node1 -->
<g id="Node000001" class="node">
<title>Node1</title>
<g id="a_Node000001"><a xlink:title=" ">
<polygon fill="#999999" stroke="#666666" points="124,-136.5 0,-136.5 0,-106.5 124,-106.5 124,-136.5"/>
<text text-anchor="start" x="8" y="-124.5" font-family="Helvetica,sans-Serif" font-size="10.00">AP_OSD_Screen::draw</text>
<text text-anchor="middle" x="62" y="-113.5" font-family="Helvetica,sans-Serif" font-size="10.00">_aspd1</text>
</a>
</g>
</g>
<!-- Node2 -->
<g id="Node000002" class="node">
<title>Node2</title>
<g id="a_Node000002"><a xlink:href="classAP__Airspeed.html#a02885c320f3cedbc08c02bc8894aba04" target="_top" xlink:title=" ">
<polygon fill="white" stroke="#666666" points="307.5,-227 161.5,-227 161.5,-208 307.5,-208 307.5,-227"/>
<text text-anchor="middle" x="234.5" y="-215" font-family="Helvetica,sans-Serif" font-size="10.00">AP_Airspeed::get_airspeed</text>
</a>
</g>
</g>
<!-- Node1&#45;&gt;Node2 -->
<g id="edge1_Node000001_Node000002" class="edge">
<title>Node1&#45;&gt;Node2</title>
<g id="a_edge1_Node000001_Node000002"><a xlink:title=" ">
<path fill="none" stroke="#63b8ff" d="M77.65,-136.8C95.47,-154.52 127.26,-183.33 160,-199.5 163.84,-201.4 167.9,-203.1 172.05,-204.64"/>
<polygon fill="#63b8ff" stroke="#63b8ff" points="171.28,-208.07 181.87,-207.91 173.49,-201.43 171.28,-208.07"/>
</a>
</g>
</g>
<!-- Node4 -->
<g id="Node000004" class="node">
<title>Node4</title>
<g id="a_Node000004"><a xlink:href="classAP__Airspeed.html#af8fe29e897226fc9e3f797c67e4c31fa" target="_top" xlink:title=" ">
<polygon fill="white" stroke="#666666" points="309,-190 160,-190 160,-171 309,-171 309,-190"/>
<text text-anchor="middle" x="234.5" y="-178" font-family="Helvetica,sans-Serif" font-size="10.00">AP_Airspeed::get_singleton</text>
</a>
</g>
</g>
<!-- Node1&#45;&gt;Node4 -->
<g id="edge4_Node000001_Node000004" class="edge">
<title>Node1&#45;&gt;Node4</title>
<g id="a_edge4_Node000001_Node000004"><a xlink:title=" ">
<path fill="none" stroke="#63b8ff" d="M95.28,-136.68C113.92,-145.05 137.96,-155.2 160,-162.5 166.37,-164.61 173.12,-166.6 179.85,-168.42"/>
<polygon fill="#63b8ff" stroke="#63b8ff" points="179.08,-171.84 189.64,-170.98 180.85,-165.06 179.08,-171.84"/>
</a>
</g>
</g>
<!-- Node5 -->
<g id="Node000005" class="node">
<title>Node5</title>
<g id="a_Node000005"><a xlink:href="classAP__Airspeed.html#a1f93ae84c30efc1375765b835004e7a9" target="_top" xlink:title=" ">
<polygon fill="white" stroke="#666666" points="294.5,-153 174.5,-153 174.5,-134 294.5,-134 294.5,-153"/>
<text text-anchor="middle" x="234.5" y="-141" font-family="Helvetica,sans-Serif" font-size="10.00">AP_Airspeed::healthy</text>
</a>
</g>
</g>
<!-- Node1&#45;&gt;Node5 -->
<g id="edge5_Node000001_Node000005" class="edge">
<title>Node1&#45;&gt;Node5</title>
<g id="a_edge5_Node000001_Node000005"><a xlink:title=" ">
<path fill="none" stroke="#63b8ff" d="M124.07,-129.38C137.09,-131.06 150.93,-132.85 164.24,-134.56"/>
<polygon fill="#63b8ff" stroke="#63b8ff" points="163.92,-138.05 174.28,-135.86 164.81,-131.11 163.92,-138.05"/>
</a>
</g>
</g>
<!-- Node6 -->
<g id="Node000006" class="node">
<title>Node6</title>
<g id="a_Node000006"><a xlink:href="classAP__OSD__AbstractScreen.html#a762a2fde411ca6e4fdeda8d19dc72340" target="_top" xlink:title=" ">
<polygon fill="white" stroke="#666666" points="301.5,-115.5 167.5,-115.5 167.5,-85.5 301.5,-85.5 301.5,-115.5"/>
<text text-anchor="start" x="175.5" y="-103.5" font-family="Helvetica,sans-Serif" font-size="10.00">AP_OSD_AbstractScreen</text>
<text text-anchor="middle" x="234.5" y="-92.5" font-family="Helvetica,sans-Serif" font-size="10.00">::u_icon</text>
</a>
</g>
</g>
<!-- Node1&#45;&gt;Node6 -->
<g id="edge7_Node000001_Node000006" class="edge">
<title>Node1&#45;&gt;Node6</title>
<g id="a_edge7_Node000001_Node000006"><a xlink:title=" ">
<path fill="none" stroke="#63b8ff" d="M124.07,-113.98C134.83,-112.65 146.14,-111.26 157.25,-109.89"/>
<polygon fill="#63b8ff" stroke="#63b8ff" points="157.87,-113.34 167.37,-108.65 157.02,-106.39 157.87,-113.34"/>
</a>
</g>
</g>
<!-- Node9 -->
<g id="Node000009" class="node">
<title>Node9</title>
<g id="a_Node000009"><a xlink:href="classAP__OSD__AbstractScreen.html#a08a0ceaa62f603989f41f04fc0f829fa" target="_top" xlink:title=" ">
<polygon fill="white" stroke="#666666" points="301.5,-67.5 167.5,-67.5 167.5,-37.5 301.5,-37.5 301.5,-67.5"/>
<text text-anchor="start" x="175.5" y="-55.5" font-family="Helvetica,sans-Serif" font-size="10.00">AP_OSD_AbstractScreen</text>
<text text-anchor="middle" x="234.5" y="-44.5" font-family="Helvetica,sans-Serif" font-size="10.00">::u_scale</text>
</a>
</g>
</g>
<!-- Node1&#45;&gt;Node9 -->
<g id="edge10_Node000001_Node000009" class="edge">
<title>Node1&#45;&gt;Node9</title>
<g id="a_edge10_Node000001_Node000009"><a xlink:title=" ">
<path fill="none" stroke="#63b8ff" d="M93.18,-106.37C112.12,-97.16 137.2,-85.48 160,-76.5 164.8,-74.61 169.81,-72.75 174.86,-70.95"/>
<polygon fill="#63b8ff" stroke="#63b8ff" points="176.28,-74.16 184.58,-67.57 173.99,-67.55 176.28,-74.16"/>
</a>
</g>
</g>
<!-- Node10 -->
<g id="Node000010" class="node">
<title>Node10</title>
<g id="a_Node000010"><a xlink:href="classAP__OSD__Backend.html#a0874cc679cadd5bc77b95df77192ef99" target="_top" xlink:title=" ">
<polygon fill="white" stroke="#666666" points="301,-19 168,-19 168,0 301,0 301,-19"/>
<text text-anchor="middle" x="234.5" y="-7" font-family="Helvetica,sans-Serif" font-size="10.00">AP_OSD_Backend::write</text>
</a>
</g>
</g>
<!-- Node1&#45;&gt;Node10 -->
<g id="edge12_Node000001_Node000010" class="edge">
<title>Node1&#45;&gt;Node10</title>
<g id="a_edge12_Node000001_Node000010"><a xlink:title=" ">
<path fill="none" stroke="#63b8ff" d="M74.43,-106.49C91,-85.79 123.73,-48.72 160,-28.5 163.99,-26.27 168.25,-24.3 172.64,-22.56"/>
<polygon fill="#63b8ff" stroke="#63b8ff" points="174.12,-25.74 182.37,-19.09 171.77,-19.15 174.12,-25.74"/>
</a>
</g>
</g>
<!-- Node3 -->
<g id="Node000003" class="node">
<title>Node3</title>
<g id="a_Node000003"><a xlink:href="classAP__Airspeed.html#a86b49520d90ba23d15fb79614605e522" target="_top" xlink:title=" ">
<polygon fill="white" stroke="#666666" points="467,-190 345,-190 345,-171 467,-171 467,-190"/>
<text text-anchor="middle" x="406" y="-178" font-family="Helvetica,sans-Serif" font-size="10.00">AP_Airspeed::enabled</text>
</a>
</g>
</g>
<!-- Node2&#45;&gt;Node3 -->
<g id="edge2_Node000002_Node000003" class="edge">
<title>Node2&#45;&gt;Node3</title>
<g id="a_edge2_Node000002_Node000003"><a xlink:title=" ">
<path fill="none" stroke="#63b8ff" d="M279.15,-207.97C301.11,-203.18 327.93,-197.32 351.15,-192.25"/>
<polygon fill="#63b8ff" stroke="#63b8ff" points="352.18,-195.61 361.2,-190.06 350.69,-188.77 352.18,-195.61"/>
</a>
</g>
</g>
<!-- Node3&#45;&gt;Node3 -->
<g id="edge3_Node000003_Node000003" class="edge">
<title>Node3&#45;&gt;Node3</title>
<g id="a_edge3_Node000003_Node000003"><a xlink:title=" ">
<path fill="none" stroke="#63b8ff" d="M383.81,-190.08C373.01,-198.73 380.41,-208 406,-208 422.4,-208 431.32,-204.2 432.79,-199.19"/>
<polygon fill="#63b8ff" stroke="#63b8ff" points="435.82,-197.44 428.19,-190.08 429.57,-200.59 435.82,-197.44"/>
</a>
</g>
</g>
<!-- Node5&#45;&gt;Node3 -->
<g id="edge6_Node000005_Node000003" class="edge">
<title>Node5&#45;&gt;Node3</title>
<g id="a_edge6_Node000005_Node000003"><a xlink:title=" ">
<path fill="none" stroke="#63b8ff" d="M279.15,-153.03C301.11,-157.82 327.93,-163.68 351.15,-168.75"/>
<polygon fill="#63b8ff" stroke="#63b8ff" points="350.69,-172.23 361.2,-170.94 352.18,-165.39 350.69,-172.23"/>
</a>
</g>
</g>
<!-- Node7 -->
<g id="Node000007" class="node">
<title>Node7</title>
<g id="a_Node000007"><a xlink:href="AP__Math_8h.html#a68558c4f79a8582543daefde13c64abc" target="_top" xlink:title=" ">
<polygon fill="white" stroke="#666666" points="452,-86 360,-86 360,-67 452,-67 452,-86"/>
<text text-anchor="middle" x="406" y="-74" font-family="Helvetica,sans-Serif" font-size="10.00">constrain_int16</text>
</a>
</g>
</g>
<!-- Node6&#45;&gt;Node7 -->
<g id="edge8_Node000006_Node000007" class="edge">
<title>Node6&#45;&gt;Node7</title>
<g id="a_edge8_Node000006_Node000007"><a xlink:title=" ">
<path fill="none" stroke="#63b8ff" d="M301.52,-91.15C317.53,-88.88 334.48,-86.48 349.93,-84.3"/>
<polygon fill="#63b8ff" stroke="#63b8ff" points="350.43,-87.76 359.84,-82.89 349.45,-80.83 350.43,-87.76"/>
</a>
</g>
</g>
<!-- Node8 -->
<g id="Node000008" class="node">
<title>Node8</title>
<g id="a_Node000008"><a xlink:href="AP__Math_8cpp.html#a20e8f8671c282c69c1954652b6d61585" target="_top" xlink:title=" ">
<polygon fill="white" stroke="#666666" points="597,-86 503,-86 503,-67 597,-67 597,-86"/>
<text text-anchor="middle" x="550" y="-74" font-family="Helvetica,sans-Serif" font-size="10.00">constrain_value</text>
</a>
</g>
</g>
<!-- Node7&#45;&gt;Node8 -->
<g id="edge9_Node000007_Node000008" class="edge">
<title>Node7&#45;&gt;Node8</title>
<g id="a_edge9_Node000007_Node000008"><a xlink:title=" ">
<path fill="none" stroke="#63b8ff" d="M452.32,-76.5C465.13,-76.5 479.22,-76.5 492.59,-76.5"/>
<polygon fill="#63b8ff" stroke="#63b8ff" points="492.65,-80 502.65,-76.5 492.65,-73 492.65,-80"/>
</a>
</g>
</g>
<!-- Node9&#45;&gt;Node7 -->
<g id="edge11_Node000009_Node000007" class="edge">
<title>Node9&#45;&gt;Node7</title>
<g id="a_edge11_Node000009_Node000007"><a xlink:title=" ">
<path fill="none" stroke="#63b8ff" d="M301.52,-61.85C317.53,-64.12 334.48,-66.52 349.93,-68.7"/>
<polygon fill="#63b8ff" stroke="#63b8ff" points="349.45,-72.17 359.84,-70.11 350.43,-65.24 349.45,-72.17"/>
</a>
</g>
</g>
</g>
</svg>
