<?xml version="1.0" encoding="UTF-8" standalone="no"?>
<!DOCTYPE svg PUBLIC "-//W3C//DTD SVG 1.1//EN"
 "http://www.w3.org/Graphics/SVG/1.1/DTD/svg11.dtd">
<!-- Generated by graphviz version 2.43.0 (0)
 -->
<!-- Title: AP_Generator_IE_FuelCell::update_state_msg Pages: 1 -->
<svg width="506pt" height="86pt"
 viewBox="0.00 0.00 506.00 86.00" xmlns="http://www.w3.org/2000/svg" xmlns:xlink="http://www.w3.org/1999/xlink">
<g id="graph0" class="graph" transform="scale(1 1) rotate(0) translate(4 82)">
<title>AP_Generator_IE_FuelCell::update_state_msg</title>
<!-- Node1 -->
<g id="Node000001" class="node">
<title>Node1</title>
<g id="a_Node000001"><a xlink:title=" ">
<polygon fill="#999999" stroke="#666666" points="498,-54 356,-54 356,-24 498,-24 498,-54"/>
<text text-anchor="start" x="364" y="-42" font-family="Helvetica,sans-Serif" font-size="10.00">AP_Generator_IE_FuelCell</text>
<text text-anchor="middle" x="427" y="-31" font-family="Helvetica,sans-Serif" font-size="10.00">::update_state_msg</text>
</a>
</g>
</g>
<!-- Node2 -->
<g id="Node000002" class="node">
<title>Node2</title>
<g id="a_Node000002"><a xlink:href="classAP__Generator__IE__FuelCell.html#ac07da0569ddec71d662eaeb66d499643" target="_top" xlink:title=" ">
<polygon fill="white" stroke="#666666" points="320,-78 178,-78 178,-48 320,-48 320,-78"/>
<text text-anchor="start" x="186" y="-66" font-family="Helvetica,sans-Serif" font-size="10.00">AP_Generator_IE_FuelCell</text>
<text text-anchor="middle" x="249" y="-55" font-family="Helvetica,sans-Serif" font-size="10.00">::check_status</text>
</a>
</g>
</g>
<!-- Node1&#45;&gt;Node2 -->
<g id="edge1_Node000001_Node000002" class="edge">
<title>Node1&#45;&gt;Node2</title>
<g id="a_edge1_Node000001_Node000002"><a xlink:title=" ">
<path fill="none" stroke="#63b8ff" d="M345.9,-49.92C337.29,-51.1 328.59,-52.28 320.11,-53.44"/>
<polygon fill="#63b8ff" stroke="#63b8ff" points="346.5,-53.37 355.93,-48.55 345.55,-46.44 346.5,-53.37"/>
</a>
</g>
</g>
<!-- Node4 -->
<g id="Node000004" class="node">
<title>Node4</title>
<g id="a_Node000004"><a xlink:href="classAP__Generator__IE__2400.html#a25948fe3cac6ccea32925fd4ccd02911" target="_top" xlink:title=" ">
<polygon fill="white" stroke="#666666" points="312.5,-30 185.5,-30 185.5,0 312.5,0 312.5,-30"/>
<text text-anchor="start" x="193.5" y="-18" font-family="Helvetica,sans-Serif" font-size="10.00">AP_Generator_IE_2400</text>
<text text-anchor="middle" x="249" y="-7" font-family="Helvetica,sans-Serif" font-size="10.00">::update_state_msg</text>
</a>
</g>
</g>
<!-- Node1&#45;&gt;Node4 -->
<g id="edge3_Node000001_Node000004" class="edge">
<title>Node1&#45;&gt;Node4</title>
<g id="a_edge3_Node000001_Node000004"><a xlink:title=" ">
<path fill="none" stroke="#63b8ff" d="M345.8,-28.06C334.7,-26.55 323.43,-25.01 312.7,-23.55"/>
<polygon fill="#63b8ff" stroke="#63b8ff" points="345.55,-31.56 355.93,-29.45 346.5,-24.63 345.55,-31.56"/>
</a>
</g>
</g>
<!-- Node3 -->
<g id="Node000003" class="node">
<title>Node3</title>
<g id="a_Node000003"><a xlink:href="classAP__Generator__IE__FuelCell.html#a9eda5a7ca55155240d1ef04475c01e9d" target="_top" xlink:title=" ">
<polygon fill="white" stroke="#666666" points="142,-78 0,-78 0,-48 142,-48 142,-78"/>
<text text-anchor="start" x="8" y="-66" font-family="Helvetica,sans-Serif" font-size="10.00">AP_Generator_IE_FuelCell</text>
<text text-anchor="middle" x="71" y="-55" font-family="Helvetica,sans-Serif" font-size="10.00">::update</text>
</a>
</g>
</g>
<!-- Node2&#45;&gt;Node3 -->
<g id="edge2_Node000002_Node000003" class="edge">
<title>Node2&#45;&gt;Node3</title>
<g id="a_edge2_Node000002_Node000003"><a xlink:title=" ">
<path fill="none" stroke="#63b8ff" d="M167.9,-63C159.29,-63 150.59,-63 142.11,-63"/>
<polygon fill="#63b8ff" stroke="#63b8ff" points="167.93,-66.5 177.93,-63 167.93,-59.5 167.93,-66.5"/>
</a>
</g>
</g>
</g>
</svg>
