<?xml version="1.0" encoding="UTF-8" standalone="no"?>
<!DOCTYPE svg PUBLIC "-//W3C//DTD SVG 1.1//EN"
 "http://www.w3.org/Graphics/SVG/1.1/DTD/svg11.dtd">
<!-- Generated by graphviz version 2.43.0 (0)
 -->
<!-- Title: AP_Mount_Siyi::update_zoom_control Pages: 1 -->
<svg width="878pt" height="216pt"
 viewBox="0.00 0.00 878.00 215.50" xmlns="http://www.w3.org/2000/svg" xmlns:xlink="http://www.w3.org/1999/xlink">
<g id="graph0" class="graph" transform="scale(1 1) rotate(0) translate(4 211.5)">
<title>AP_Mount_Siyi::update_zoom_control</title>
<!-- Node1 -->
<g id="Node000001" class="node">
<title>Node1</title>
<g id="a_Node000001"><a xlink:title=" ">
<polygon fill="#999999" stroke="#666666" points="128,-140 0,-140 0,-110 128,-110 128,-140"/>
<text text-anchor="start" x="8" y="-128" font-family="Helvetica,sans-Serif" font-size="10.00">AP_Mount_Siyi::update</text>
<text text-anchor="middle" x="64" y="-117" font-family="Helvetica,sans-Serif" font-size="10.00">_zoom_control</text>
</a>
</g>
</g>
<!-- Node2 -->
<g id="Node000002" class="node">
<title>Node2</title>
<g id="a_Node000002"><a xlink:href="AP__Math_8h.html#a2a12cce483e9b870da70d30406d82c60" target="_top" xlink:title=" ">
<polygon fill="white" stroke="#666666" points="248.5,-171.5 197.5,-171.5 197.5,-152.5 248.5,-152.5 248.5,-171.5"/>
<text text-anchor="middle" x="223" y="-159.5" font-family="Helvetica,sans-Serif" font-size="10.00">is_zero</text>
</a>
</g>
</g>
<!-- Node1&#45;&gt;Node2 -->
<g id="edge1_Node000001_Node000002" class="edge">
<title>Node1&#45;&gt;Node2</title>
<g id="a_edge1_Node000001_Node000002"><a xlink:title=" ">
<path fill="none" stroke="#63b8ff" d="M128.41,-139.94C148.42,-144.66 169.8,-149.7 187.06,-153.77"/>
<polygon fill="#63b8ff" stroke="#63b8ff" points="186.69,-157.27 197.23,-156.16 188.3,-150.46 186.69,-157.27"/>
</a>
</g>
</g>
<!-- Node3 -->
<g id="Node000003" class="node">
<title>Node3</title>
<g id="a_Node000003"><a xlink:href="namespaceAP__HAL.html#a77dffbb18891996280308e21316ec186" target="_top" xlink:title=" ">
<polygon fill="white" stroke="#666666" points="266.5,-134.5 179.5,-134.5 179.5,-115.5 266.5,-115.5 266.5,-134.5"/>
<text text-anchor="middle" x="223" y="-122.5" font-family="Helvetica,sans-Serif" font-size="10.00">AP_HAL::millis</text>
</a>
</g>
</g>
<!-- Node1&#45;&gt;Node3 -->
<g id="edge3_Node000001_Node000003" class="edge">
<title>Node1&#45;&gt;Node3</title>
<g id="a_edge3_Node000001_Node000003"><a xlink:title=" ">
<path fill="none" stroke="#63b8ff" d="M128.41,-125C141.84,-125 155.88,-125 168.88,-125"/>
<polygon fill="#63b8ff" stroke="#63b8ff" points="169.05,-128.5 179.05,-125 169.05,-121.5 169.05,-128.5"/>
</a>
</g>
</g>
<!-- Node10 -->
<g id="Node000010" class="node">
<title>Node10</title>
<g id="a_Node000010"><a xlink:href="classAP__Mount__Siyi.html#a604d4315551336163c2c8ab4dfb183f7" target="_top" xlink:title=" ">
<polygon fill="white" stroke="#666666" points="282,-97 164,-97 164,-67 282,-67 282,-97"/>
<text text-anchor="start" x="172" y="-85" font-family="Helvetica,sans-Serif" font-size="10.00">AP_Mount_Siyi::send</text>
<text text-anchor="middle" x="223" y="-74" font-family="Helvetica,sans-Serif" font-size="10.00">_zoom_rate</text>
</a>
</g>
</g>
<!-- Node1&#45;&gt;Node10 -->
<g id="edge10_Node000001_Node000010" class="edge">
<title>Node1&#45;&gt;Node10</title>
<g id="a_edge10_Node000001_Node000010"><a xlink:title=" ">
<path fill="none" stroke="#63b8ff" d="M119.91,-109.96C131.98,-106.65 144.87,-103.12 157.29,-99.72"/>
<polygon fill="#63b8ff" stroke="#63b8ff" points="158.4,-103.05 167.12,-97.03 156.55,-96.3 158.4,-103.05"/>
</a>
</g>
</g>
<!-- Node2&#45;&gt;Node2 -->
<g id="edge2_Node000002_Node000002" class="edge">
<title>Node2&#45;&gt;Node2</title>
<g id="a_edge2_Node000002_Node000002"><a xlink:title=" ">
<path fill="none" stroke="#63b8ff" d="M199.26,-171.58C187.72,-180.23 195.63,-189.5 223,-189.5 240.96,-189.5 250.54,-185.51 251.75,-180.32"/>
<polygon fill="#63b8ff" stroke="#63b8ff" points="254.75,-178.52 246.74,-171.58 248.67,-182 254.75,-178.52"/>
</a>
</g>
</g>
<!-- Node4 -->
<g id="Node000004" class="node">
<title>Node4</title>
<g id="a_Node000004"><a xlink:href="hrt_8c.html#a1295f128f60d29874243b5733c4db025" target="_top" xlink:title=" ">
<polygon fill="white" stroke="#666666" points="414,-134.5 340,-134.5 340,-115.5 414,-115.5 414,-134.5"/>
<text text-anchor="middle" x="377" y="-122.5" font-family="Helvetica,sans-Serif" font-size="10.00">hrt_millis32</text>
</a>
</g>
</g>
<!-- Node3&#45;&gt;Node4 -->
<g id="edge4_Node000003_Node000004" class="edge">
<title>Node3&#45;&gt;Node4</title>
<g id="a_edge4_Node000003_Node000004"><a xlink:title=" ">
<path fill="none" stroke="#63b8ff" d="M266.74,-125C286.41,-125 309.78,-125 329.84,-125"/>
<polygon fill="#63b8ff" stroke="#63b8ff" points="330,-128.5 340,-125 330,-121.5 330,-128.5"/>
</a>
</g>
</g>
<!-- Node5 -->
<g id="Node000005" class="node">
<title>Node5</title>
<g id="a_Node000005"><a xlink:href="hrt_8c.html#a7dd7d90aadd8f76f26da7d5abfad6fe8" target="_top" xlink:title=" ">
<polygon fill="white" stroke="#666666" points="568,-152.5 494,-152.5 494,-133.5 568,-133.5 568,-152.5"/>
<text text-anchor="middle" x="531" y="-140.5" font-family="Helvetica,sans-Serif" font-size="10.00">hrt_millis64</text>
</a>
</g>
</g>
<!-- Node4&#45;&gt;Node5 -->
<g id="edge5_Node000004_Node000005" class="edge">
<title>Node4&#45;&gt;Node5</title>
<g id="a_edge5_Node000004_Node000005"><a xlink:title=" ">
<path fill="none" stroke="#63b8ff" d="M414.02,-129.27C434.96,-131.74 461.55,-134.89 483.99,-137.55"/>
<polygon fill="#63b8ff" stroke="#63b8ff" points="483.63,-141.03 493.97,-138.73 484.45,-134.08 483.63,-141.03"/>
</a>
</g>
</g>
<!-- Node6 -->
<g id="Node000006" class="node">
<title>Node6</title>
<g id="a_Node000006"><a xlink:href="hrt_8c.html#a152c3348a8e83f2dfe35b44cc2e30362" target="_top" xlink:title=" ">
<polygon fill="white" stroke="#666666" points="728.5,-189.5 648.5,-189.5 648.5,-170.5 728.5,-170.5 728.5,-189.5"/>
<text text-anchor="middle" x="688.5" y="-177.5" font-family="Helvetica,sans-Serif" font-size="10.00">hrt_micros64</text>
</a>
</g>
</g>
<!-- Node5&#45;&gt;Node6 -->
<g id="edge6_Node000005_Node000006" class="edge">
<title>Node5&#45;&gt;Node6</title>
<g id="a_edge6_Node000005_Node000006"><a xlink:title=" ">
<path fill="none" stroke="#63b8ff" d="M568.07,-151.58C589.01,-156.57 615.69,-162.91 638.51,-168.34"/>
<polygon fill="#63b8ff" stroke="#63b8ff" points="637.82,-171.78 648.36,-170.69 639.44,-164.97 637.82,-171.78"/>
</a>
</g>
</g>
<!-- Node9 -->
<g id="Node000009" class="node">
<title>Node9</title>
<g id="a_Node000009"><a xlink:href="div1000_8h.html#aece9e7f123414c41d0426fbadca097d8" target="_top" xlink:title=" ">
<polygon fill="white" stroke="#666666" points="734.5,-152.5 642.5,-152.5 642.5,-133.5 734.5,-133.5 734.5,-152.5"/>
<text text-anchor="middle" x="688.5" y="-140.5" font-family="Helvetica,sans-Serif" font-size="10.00">uint64_div1000</text>
</a>
</g>
</g>
<!-- Node5&#45;&gt;Node9 -->
<g id="edge9_Node000005_Node000009" class="edge">
<title>Node5&#45;&gt;Node9</title>
<g id="a_edge9_Node000005_Node000009"><a xlink:title=" ">
<path fill="none" stroke="#63b8ff" d="M568.07,-143C587.11,-143 610.89,-143 632.21,-143"/>
<polygon fill="#63b8ff" stroke="#63b8ff" points="632.44,-146.5 642.44,-143 632.44,-139.5 632.44,-146.5"/>
</a>
</g>
</g>
<!-- Node7 -->
<g id="Node000007" class="node">
<title>Node7</title>
<g id="a_Node000007"><a xlink:href="hrt_8c.html#a5b4ffc7ff86bd5b893c4a98834e80200" target="_top" xlink:title=" ">
<polygon fill="white" stroke="#666666" points="870,-207.5 787,-207.5 787,-188.5 870,-188.5 870,-207.5"/>
<text text-anchor="middle" x="828.5" y="-195.5" font-family="Helvetica,sans-Serif" font-size="10.00">hrt_micros64I</text>
</a>
</g>
</g>
<!-- Node6&#45;&gt;Node7 -->
<g id="edge7_Node000006_Node000007" class="edge">
<title>Node6&#45;&gt;Node7</title>
<g id="a_edge7_Node000006_Node000007"><a xlink:title=" ">
<path fill="none" stroke="#63b8ff" d="M728.68,-185.11C743.58,-187.05 760.78,-189.3 776.61,-191.36"/>
<polygon fill="#63b8ff" stroke="#63b8ff" points="776.41,-194.87 786.78,-192.69 777.32,-187.93 776.41,-194.87"/>
</a>
</g>
</g>
<!-- Node8 -->
<g id="Node000008" class="node">
<title>Node8</title>
<g id="a_Node000008"><a xlink:href="hrt_8c.html#a723fef85be7bacb834af35445a891c18" target="_top" xlink:title=" ">
<polygon fill="white" stroke="#666666" points="859.5,-170.5 797.5,-170.5 797.5,-151.5 859.5,-151.5 859.5,-170.5"/>
<text text-anchor="middle" x="828.5" y="-158.5" font-family="Helvetica,sans-Serif" font-size="10.00">is_locked</text>
</a>
</g>
</g>
<!-- Node6&#45;&gt;Node8 -->
<g id="edge8_Node000006_Node000008" class="edge">
<title>Node6&#45;&gt;Node8</title>
<g id="a_edge8_Node000006_Node000008"><a xlink:title=" ">
<path fill="none" stroke="#63b8ff" d="M728.68,-174.61C747.01,-172.08 768.83,-169.08 787.29,-166.54"/>
<polygon fill="#63b8ff" stroke="#63b8ff" points="788.02,-169.97 797.44,-165.14 787.06,-163.03 788.02,-169.97"/>
</a>
</g>
</g>
<!-- Node11 -->
<g id="Node000011" class="node">
<title>Node11</title>
<g id="a_Node000011"><a xlink:href="classAP__Mount__Siyi.html#a637186348b42155795a4455012509465" target="_top" xlink:title=" ">
<polygon fill="white" stroke="#666666" points="436,-97 318,-97 318,-67 436,-67 436,-97"/>
<text text-anchor="start" x="326" y="-85" font-family="Helvetica,sans-Serif" font-size="10.00">AP_Mount_Siyi::send</text>
<text text-anchor="middle" x="377" y="-74" font-family="Helvetica,sans-Serif" font-size="10.00">_1byte_packet</text>
</a>
</g>
</g>
<!-- Node10&#45;&gt;Node11 -->
<g id="edge11_Node000010_Node000011" class="edge">
<title>Node10&#45;&gt;Node11</title>
<g id="a_edge11_Node000010_Node000011"><a xlink:title=" ">
<path fill="none" stroke="#63b8ff" d="M282.33,-82C290.61,-82 299.17,-82 307.62,-82"/>
<polygon fill="#63b8ff" stroke="#63b8ff" points="307.82,-85.5 317.82,-82 307.82,-78.5 307.82,-85.5"/>
</a>
</g>
</g>
<!-- Node12 -->
<g id="Node000012" class="node">
<title>Node12</title>
<g id="a_Node000012"><a xlink:href="classAP__Mount__Siyi.html#a31098417524860948308fe430ba7fdd0" target="_top" xlink:title=" ">
<polygon fill="white" stroke="#666666" points="590,-97 472,-97 472,-67 590,-67 590,-97"/>
<text text-anchor="start" x="480" y="-85" font-family="Helvetica,sans-Serif" font-size="10.00">AP_Mount_Siyi::send</text>
<text text-anchor="middle" x="531" y="-74" font-family="Helvetica,sans-Serif" font-size="10.00">_packet</text>
</a>
</g>
</g>
<!-- Node11&#45;&gt;Node12 -->
<g id="edge12_Node000011_Node000012" class="edge">
<title>Node11&#45;&gt;Node12</title>
<g id="a_edge12_Node000011_Node000012"><a xlink:title=" ">
<path fill="none" stroke="#63b8ff" d="M436.33,-82C444.61,-82 453.17,-82 461.62,-82"/>
<polygon fill="#63b8ff" stroke="#63b8ff" points="461.82,-85.5 471.82,-82 461.82,-78.5 461.82,-85.5"/>
</a>
</g>
</g>
<!-- Node13 -->
<g id="Node000013" class="node">
<title>Node13</title>
<g id="a_Node000013"><a xlink:href="crc_8cpp.html#a666dccd038ea3bdbae05549319f783d6" target="_top" xlink:title=" ">
<polygon fill="white" stroke="#666666" points="723,-115.5 654,-115.5 654,-96.5 723,-96.5 723,-115.5"/>
<text text-anchor="middle" x="688.5" y="-103.5" font-family="Helvetica,sans-Serif" font-size="10.00">crc16_ccitt</text>
</a>
</g>
</g>
<!-- Node12&#45;&gt;Node13 -->
<g id="edge13_Node000012_Node000013" class="edge">
<title>Node12&#45;&gt;Node13</title>
<g id="a_edge13_Node000012_Node000013"><a xlink:title=" ">
<path fill="none" stroke="#63b8ff" d="M590.34,-91C608.04,-93.74 627.18,-96.69 643.74,-99.25"/>
<polygon fill="#63b8ff" stroke="#63b8ff" points="643.28,-102.72 653.69,-100.78 644.34,-95.8 643.28,-102.72"/>
</a>
</g>
</g>
<!-- Node14 -->
<g id="Node000014" class="node">
<title>Node14</title>
<g id="a_Node000014"><a xlink:href="classAP__HAL_1_1BetterStream.html#ab0193c7791fd95eb2bfbfd6597bdf6d8" target="_top" xlink:title=" ">
<polygon fill="white" stroke="#666666" points="751,-78 626,-78 626,-48 751,-48 751,-78"/>
<text text-anchor="start" x="634" y="-66" font-family="Helvetica,sans-Serif" font-size="10.00">AP_HAL::BetterStream</text>
<text text-anchor="middle" x="688.5" y="-55" font-family="Helvetica,sans-Serif" font-size="10.00">::txspace</text>
</a>
</g>
</g>
<!-- Node12&#45;&gt;Node14 -->
<g id="edge14_Node000012_Node000014" class="edge">
<title>Node12&#45;&gt;Node14</title>
<g id="a_edge14_Node000012_Node000014"><a xlink:title=" ">
<path fill="none" stroke="#63b8ff" d="M590.34,-74.87C598.71,-73.85 607.39,-72.79 615.97,-71.74"/>
<polygon fill="#63b8ff" stroke="#63b8ff" points="616.47,-75.21 625.97,-70.52 615.62,-68.26 616.47,-75.21"/>
</a>
</g>
</g>
<!-- Node15 -->
<g id="Node000015" class="node">
<title>Node15</title>
<g id="a_Node000015"><a xlink:href="classAP__HAL_1_1UARTDriver.html#af9f67918783d70fbbce1db64228af9da" target="_top" xlink:title=" ">
<polygon fill="white" stroke="#666666" points="746.5,-30 630.5,-30 630.5,0 746.5,0 746.5,-30"/>
<text text-anchor="start" x="638.5" y="-18" font-family="Helvetica,sans-Serif" font-size="10.00">AP_HAL::UARTDriver</text>
<text text-anchor="middle" x="688.5" y="-7" font-family="Helvetica,sans-Serif" font-size="10.00">::write</text>
</a>
</g>
</g>
<!-- Node12&#45;&gt;Node15 -->
<g id="edge15_Node000012_Node000015" class="edge">
<title>Node12&#45;&gt;Node15</title>
<g id="a_edge15_Node000012_Node000015"><a xlink:title=" ">
<path fill="none" stroke="#63b8ff" d="M563.99,-66.82C582.08,-58.37 605.18,-47.82 626,-39 630.09,-37.27 634.35,-35.51 638.63,-33.78"/>
<polygon fill="#63b8ff" stroke="#63b8ff" points="640.01,-37 648,-30.03 637.41,-30.5 640.01,-37"/>
</a>
</g>
</g>
</g>
</svg>
