<?xml version="1.0" encoding="UTF-8" standalone="no"?>
<!DOCTYPE svg PUBLIC "-//W3C//DTD SVG 1.1//EN"
 "http://www.w3.org/Graphics/SVG/1.1/DTD/svg11.dtd">
<!-- Generated by graphviz version 2.43.0 (0)
 -->
<!-- Title: AC_AttitudeControl::max_rate_step_bf_pitch Pages: 1 -->
<!--zoomable 342 -->

<svg id="main" version="1.1" xmlns="http://www.w3.org/2000/svg" xmlns:xlink="http://www.w3.org/1999/xlink" xml:space="preserve" onload="init(evt)">
<style type="text/css"><![CDATA[
.node, .edge {opacity: 0.7;}
.node.selected, .edge.selected {opacity: 1;}
.edge:hover path { stroke: red; }
.edge:hover polygon { stroke: red; fill: red; }
]]></style>

<defs>
  <circle id="rim" cx="0" cy="0" r="7"/>
  <circle id="rim2" cx="0" cy="0" r="3.5"/>
  <g id="zoomPlus">
    <use xlink:href="#rim" fill="#404040"><set attributeName="fill" to="#808080" begin="zoomplus.mouseover" end="zoomplus.mouseout"/></use>
    <path d="M-4,0h8M0,-4v8" fill="none" stroke="white" stroke-width="1.5" pointer-events="none"/>
  </g>
  <g id="zoomMin">
    <use xlink:href="#rim" fill="#404040"><set attributeName="fill" to="#808080" begin="zoomminus.mouseover" end="zoomminus.mouseout"/></use>
    <path d="M-4,0h8" fill="none" stroke="white" stroke-width="1.5" pointer-events="none"/>
  </g>
  <g id="arrowUp" transform="translate(30 24)">
    <use xlink:href="#rim"/>
    <path pointer-events="none" fill="none" stroke="white" stroke-width="1.5" d="M0,-3.0v7 M-2.5,-0.5L0,-3.0L2.5,-0.5"/>
  </g>
  <g id="arrowRight" transform="rotate(90) translate(36 -43)">
    <use xlink:href="#rim"/>
    <path pointer-events="none" fill="none" stroke="white" stroke-width="1.5" d="M0,-3.0v7 M-2.5,-0.5L0,-3.0L2.5,-0.5"/>
  </g>
  <g id="arrowDown" transform="rotate(180) translate(-30 -48)">
    <use xlink:href="#rim"/>
    <path pointer-events="none" fill="none" stroke="white" stroke-width="1.5" d="M0,-3.0v7 M-2.5,-0.5L0,-3.0L2.5,-0.5"/>
  </g>
  <g id="arrowLeft" transform="rotate(270) translate(-36 17)">
    <use xlink:href="#rim"/>
    <path pointer-events="none" fill="none" stroke="white" stroke-width="1.5" d="M0,-3.0v7 M-2.5,-0.5L0,-3.0L2.5,-0.5"/>
  </g>
  <g id="resetDef">
    <use xlink:href="#rim2" fill="#404040"><set attributeName="fill" to="#808080" begin="reset.mouseover" end="reset.mouseout"/></use>
  </g>
</defs>
<script type="application/ecmascript">
var viewWidth = 527;
var viewHeight = 342;
var sectionId = 'dynsection-97';
</script>
<script type="application/ecmascript" xlink:href="svg.min.js"/>
<svg id="graph" class="graph">
<g id="viewport">
<title>AC_AttitudeControl::max_rate_step_bf_pitch</title>
<!-- Node1 -->
<g id="Node000001" class="node">
<title>Node1</title>
<g id="a_Node000001"><a xlink:title=" ">
<polygon fill="#999999" stroke="#666666" points="140,-156.5 0,-156.5 0,-126.5 140,-126.5 140,-156.5"/>
<text text-anchor="start" x="8" y="-144.5" font-family="Helvetica,sans-Serif" font-size="10.00">AC_AttitudeControl</text>
<text text-anchor="middle" x="70" y="-133.5" font-family="Helvetica,sans-Serif" font-size="10.00">::max_rate_step_bf_pitch</text>
</a>
</g>
</g>
<!-- Node2 -->
<g id="Node000002" class="node">
<title>Node2</title>
<g id="a_Node000002"><a xlink:href="classAC__AttitudeControl.html#af87478ddb59ed9578d8ed644c04420ab" target="_top" xlink:title=" ">
<polygon fill="white" stroke="#666666" points="303.5,-334 192.5,-334 192.5,-293 303.5,-293 303.5,-334"/>
<text text-anchor="start" x="200.5" y="-322" font-family="Helvetica,sans-Serif" font-size="10.00">AC_AttitudeControl</text>
<text text-anchor="start" x="200.5" y="-311" font-family="Helvetica,sans-Serif" font-size="10.00">::get_ang_vel_pitch</text>
<text text-anchor="middle" x="248" y="-300" font-family="Helvetica,sans-Serif" font-size="10.00">_max_rads</text>
</a>
</g>
</g>
<!-- Node1&#45;&gt;Node2 -->
<g id="edge1_Node000001_Node000002" class="edge">
<title>Node1&#45;&gt;Node2</title>
<g id="a_edge1_Node000001_Node000002"><a xlink:title=" ">
<path fill="none" stroke="#63b8ff" d="M78.73,-156.86C93.81,-185.42 129.75,-247.09 176,-283.5 178.39,-285.38 180.92,-287.17 183.55,-288.86"/>
<polygon fill="#63b8ff" stroke="#63b8ff" points="181.79,-291.89 192.18,-293.94 185.34,-285.86 181.79,-291.89"/>
</a>
</g>
</g>
<!-- Node4 -->
<g id="Node000004" class="node">
<title>Node4</title>
<g id="a_Node000004"><a xlink:href="classAP__Scheduler.html#a14d3d95a03b552ce1cfb9e2ffbc1508e" target="_top" xlink:title=" ">
<polygon fill="white" stroke="#666666" points="320,-274.5 176,-274.5 176,-244.5 320,-244.5 320,-274.5"/>
<text text-anchor="start" x="184" y="-262.5" font-family="Helvetica,sans-Serif" font-size="10.00">AP_Scheduler::get_filtered</text>
<text text-anchor="middle" x="248" y="-251.5" font-family="Helvetica,sans-Serif" font-size="10.00">_loop_time</text>
</a>
</g>
</g>
<!-- Node1&#45;&gt;Node4 -->
<g id="edge3_Node000001_Node000004" class="edge">
<title>Node1&#45;&gt;Node4</title>
<g id="a_edge3_Node000001_Node000004"><a xlink:title=" ">
<path fill="none" stroke="#63b8ff" d="M84.14,-156.6C102.72,-177.1 138.59,-213.68 176,-235.5 178.87,-237.17 181.87,-238.75 184.94,-240.23"/>
<polygon fill="#63b8ff" stroke="#63b8ff" points="183.8,-243.55 194.36,-244.41 186.64,-237.16 183.8,-243.55"/>
</a>
</g>
</g>
<!-- Node6 -->
<g id="Node000006" class="node">
<title>Node6</title>
<g id="a_Node000006"><a xlink:href="classAC__AttitudeControl.html#aecb340d46636b76dff086c5ae7af113c" target="_top" xlink:title=" ">
<polygon fill="white" stroke="#666666" points="304.5,-226.5 191.5,-226.5 191.5,-196.5 304.5,-196.5 304.5,-226.5"/>
<text text-anchor="start" x="199.5" y="-214.5" font-family="Helvetica,sans-Serif" font-size="10.00">AC_AttitudeControl</text>
<text text-anchor="middle" x="248" y="-203.5" font-family="Helvetica,sans-Serif" font-size="10.00">::get_rate_pitch_pid</text>
</a>
</g>
</g>
<!-- Node1&#45;&gt;Node6 -->
<g id="edge5_Node000001_Node000006" class="edge">
<title>Node1&#45;&gt;Node6</title>
<g id="a_edge5_Node000001_Node000006"><a xlink:title=" ">
<path fill="none" stroke="#63b8ff" d="M103.33,-156.53C123.94,-165.9 151.32,-177.94 176,-187.5 180.81,-189.36 185.82,-191.22 190.87,-193.03"/>
<polygon fill="#63b8ff" stroke="#63b8ff" points="189.98,-196.43 200.58,-196.46 192.31,-189.83 189.98,-196.43"/>
</a>
</g>
</g>
<!-- Node7 -->
<g id="Node000007" class="node">
<title>Node7</title>
<g id="a_Node000007"><a xlink:href="classAP__Motors.html#a6641c5398dea1388547dff3db5d95a86" target="_top" xlink:title=" ">
<polygon fill="white" stroke="#666666" points="313.5,-178.5 182.5,-178.5 182.5,-148.5 313.5,-148.5 313.5,-178.5"/>
<text text-anchor="start" x="190.5" y="-166.5" font-family="Helvetica,sans-Serif" font-size="10.00">AP_Motors::get_throttle</text>
<text text-anchor="middle" x="248" y="-155.5" font-family="Helvetica,sans-Serif" font-size="10.00">_hover</text>
</a>
</g>
</g>
<!-- Node1&#45;&gt;Node7 -->
<g id="edge6_Node000001_Node000007" class="edge">
<title>Node1&#45;&gt;Node7</title>
<g id="a_edge6_Node000001_Node000007"><a xlink:title=" ">
<path fill="none" stroke="#63b8ff" d="M140.05,-150.13C150.64,-151.45 161.6,-152.83 172.3,-154.16"/>
<polygon fill="#63b8ff" stroke="#63b8ff" points="172.1,-157.66 182.45,-155.43 172.96,-150.72 172.1,-157.66"/>
</a>
</g>
</g>
<!-- Node8 -->
<g id="Node000008" class="node">
<title>Node8</title>
<g id="a_Node000008"><a xlink:href="AP__Math_8h.html#a4e3ae698e8f99cec214348ad233e3c41" target="_top" xlink:title=" ">
<polygon fill="white" stroke="#666666" points="282.5,-130 213.5,-130 213.5,-111 282.5,-111 282.5,-130"/>
<text text-anchor="middle" x="248" y="-118" font-family="Helvetica,sans-Serif" font-size="10.00">is_positive</text>
</a>
</g>
</g>
<!-- Node1&#45;&gt;Node8 -->
<g id="edge7_Node000001_Node000008" class="edge">
<title>Node1&#45;&gt;Node8</title>
<g id="a_edge7_Node000001_Node000008"><a xlink:title=" ">
<path fill="none" stroke="#63b8ff" d="M140.05,-133.26C161.34,-130.72 184.19,-127.99 203.27,-125.72"/>
<polygon fill="#63b8ff" stroke="#63b8ff" points="203.94,-129.16 213.45,-124.5 203.11,-122.21 203.94,-129.16"/>
</a>
</g>
</g>
<!-- Node9 -->
<g id="Node000009" class="node">
<title>Node9</title>
<g id="a_Node000009"><a xlink:href="classAC__PID.html#abb7ce07d4ca159d065184f793abf8edb" target="_top" xlink:title=" ">
<polygon fill="white" stroke="#666666" points="283.5,-93 212.5,-93 212.5,-74 283.5,-74 283.5,-93"/>
<text text-anchor="middle" x="248" y="-81" font-family="Helvetica,sans-Serif" font-size="10.00">AC_PID::kD</text>
</a>
</g>
</g>
<!-- Node1&#45;&gt;Node9 -->
<g id="edge8_Node000001_Node000009" class="edge">
<title>Node1&#45;&gt;Node9</title>
<g id="a_edge8_Node000001_Node000009"><a xlink:title=" ">
<path fill="none" stroke="#63b8ff" d="M109.1,-126.36C128.9,-118.75 153.58,-109.65 176,-102.5 184.48,-99.8 193.61,-97.16 202.41,-94.75"/>
<polygon fill="#63b8ff" stroke="#63b8ff" points="203.39,-98.1 212.14,-92.13 201.58,-91.34 203.39,-98.1"/>
</a>
</g>
</g>
<!-- Node10 -->
<g id="Node000010" class="node">
<title>Node10</title>
<g id="a_Node000010"><a xlink:href="classAC__PID.html#a307aaed51e687c98cd7f5fc676303eb8" target="_top" xlink:title=" ">
<polygon fill="white" stroke="#666666" points="283,-56 213,-56 213,-37 283,-37 283,-56"/>
<text text-anchor="middle" x="248" y="-44" font-family="Helvetica,sans-Serif" font-size="10.00">AC_PID::kP</text>
</a>
</g>
</g>
<!-- Node1&#45;&gt;Node10 -->
<g id="edge9_Node000001_Node000010" class="edge">
<title>Node1&#45;&gt;Node10</title>
<g id="a_edge9_Node000001_Node000010"><a xlink:title=" ">
<path fill="none" stroke="#63b8ff" d="M87.59,-126.49C107.31,-109.4 141.86,-81.74 176,-65.5 184.46,-61.47 193.91,-58.2 203.09,-55.57"/>
<polygon fill="#63b8ff" stroke="#63b8ff" points="204.11,-58.91 212.87,-52.96 202.31,-52.15 204.11,-58.91"/>
</a>
</g>
</g>
<!-- Node11 -->
<g id="Node000011" class="node">
<title>Node11</title>
<g id="a_Node000011"><a xlink:href="namespaceAP.html#acdeafe5406efd2650ba54d24d3aecb7c" target="_top" xlink:title=" ">
<polygon fill="white" stroke="#666666" points="289.5,-19 206.5,-19 206.5,0 289.5,0 289.5,-19"/>
<text text-anchor="middle" x="248" y="-7" font-family="Helvetica,sans-Serif" font-size="10.00">AP::scheduler</text>
</a>
</g>
</g>
<!-- Node1&#45;&gt;Node11 -->
<g id="edge10_Node000001_Node000011" class="edge">
<title>Node1&#45;&gt;Node11</title>
<g id="a_edge10_Node000001_Node000011"><a xlink:title=" ">
<path fill="none" stroke="#63b8ff" d="M80.61,-126.34C97.06,-101.69 133.01,-53.12 176,-27.5 182.31,-23.74 189.38,-20.76 196.56,-18.4"/>
<polygon fill="#63b8ff" stroke="#63b8ff" points="197.72,-21.71 206.34,-15.55 195.76,-14.99 197.72,-21.71"/>
</a>
</g>
</g>
<!-- Node3 -->
<g id="Node000003" class="node">
<title>Node3</title>
<g id="a_Node000003"><a xlink:href="AP__Math_8h.html#a49ad7fa2fa2e3d8aa75e8e0ec3f83b99" target="_top" xlink:title=" ">
<polygon fill="white" stroke="#666666" points="464,-323 411,-323 411,-304 464,-304 464,-323"/>
<text text-anchor="middle" x="437.5" y="-311" font-family="Helvetica,sans-Serif" font-size="10.00">radians</text>
</a>
</g>
</g>
<!-- Node2&#45;&gt;Node3 -->
<g id="edge2_Node000002_Node000003" class="edge">
<title>Node2&#45;&gt;Node3</title>
<g id="a_edge2_Node000002_Node000003"><a xlink:title=" ">
<path fill="none" stroke="#63b8ff" d="M303.74,-313.5C334.94,-313.5 373.16,-313.5 400.57,-313.5"/>
<polygon fill="#63b8ff" stroke="#63b8ff" points="400.87,-317 410.87,-313.5 400.87,-310 400.87,-317"/>
</a>
</g>
</g>
<!-- Node5 -->
<g id="Node000005" class="node">
<title>Node5</title>
<g id="a_Node000005"><a xlink:href="classAP_1_1PerfInfo.html#a987dd359ee174e94880163b50a3eaf90" target="_top" xlink:title=" ">
<polygon fill="white" stroke="#666666" points="519,-269 356,-269 356,-250 519,-250 519,-269"/>
<text text-anchor="middle" x="437.5" y="-257" font-family="Helvetica,sans-Serif" font-size="10.00">AP::PerfInfo::get_filtered_time</text>
</a>
</g>
</g>
<!-- Node4&#45;&gt;Node5 -->
<g id="edge4_Node000004_Node000005" class="edge">
<title>Node4&#45;&gt;Node5</title>
<g id="a_edge4_Node000004_Node000005"><a xlink:title=" ">
<path fill="none" stroke="#63b8ff" d="M320.15,-259.5C328.57,-259.5 337.24,-259.5 345.88,-259.5"/>
<polygon fill="#63b8ff" stroke="#63b8ff" points="345.98,-263 355.98,-259.5 345.98,-256 345.98,-263"/>
</a>
</g>
</g>
<!-- Node12 -->
<g id="Node000012" class="node">
<title>Node12</title>
<g id="a_Node000012"><a xlink:href="classAP__Scheduler.html#a0826068d9555266bdda5efd19c4b891a" target="_top" xlink:title=" ">
<polygon fill="white" stroke="#666666" points="515,-19 360,-19 360,0 515,0 515,-19"/>
<text text-anchor="middle" x="437.5" y="-7" font-family="Helvetica,sans-Serif" font-size="10.00">AP_Scheduler::get_singleton</text>
</a>
</g>
</g>
<!-- Node11&#45;&gt;Node12 -->
<g id="edge11_Node000011_Node000012" class="edge">
<title>Node11&#45;&gt;Node12</title>
<g id="a_edge11_Node000011_Node000012"><a xlink:title=" ">
<path fill="none" stroke="#63b8ff" d="M289.68,-9.5C307.36,-9.5 328.8,-9.5 349.76,-9.5"/>
<polygon fill="#63b8ff" stroke="#63b8ff" points="349.99,-13 359.99,-9.5 349.99,-6 349.99,-13"/>
</a>
</g>
</g>
</g>
</svg>

<g id="navigator" transform="translate(0 0)" fill="#404254">
  <rect fill="#f2f5e9" fill-opacity="0.5" stroke="#606060" stroke-width=".5" x="0" y="0" width="60" height="60"/>
  <use id="zoomplus" xlink:href="#zoomPlus" x="17" y="9" onmousedown="handleZoom(evt,'in')"/>
  <use id="zoomminus" xlink:href="#zoomMin" x="42" y="9" onmousedown="handleZoom(evt,'out')"/>
  <use id="reset" xlink:href="#resetDef" x="30" y="36" onmousedown="handleReset()"/>
   <use id="arrowup" xlink:href="#arrowUp" x="0" y="0" onmousedown="handlePan(0,-1)"/>
  <use id="arrowright" xlink:href="#arrowRight" x="0" y="0" onmousedown="handlePan(1,0)"/>
  <use id="arrowdown" xlink:href="#arrowDown" x="0" y="0" onmousedown="handlePan(0,1)"/>
  <use id="arrowleft" xlink:href="#arrowLeft" x="0" y="0" onmousedown="handlePan(-1,0)"/>
</g>
<svg viewBox="0 0 15 15" width="100%" height="30px" preserveAspectRatio="xMaxYMin meet">
 <g id="arrow_out" transform="scale(0.3 0.3)">
  <a xlink:href="classAC__AttitudeControl_a874d7c2f98a3ad251d9f91cc936694e2_cgraph_org.svg" target="_base">
   <rect id="button" ry="5" rx="5" y="6" x="6" height="38" width="38"
        fill="#f2f5e9" fill-opacity="0.5" stroke="#606060" stroke-width="1.0"/>
   <path id="arrow"
     d="M 11.500037,31.436501 C 11.940474,20.09759 22.043105,11.32322 32.158766,21.979434 L 37.068811,17.246167 C 37.068811,17.246167 37.088388,32 37.088388,32 L 22.160133,31.978069 C 22.160133,31.978069 26.997745,27.140456 26.997745,27.140456 C 18.528582,18.264221 13.291696,25.230495 11.500037,31.436501 z"
     style="fill:#404040;"/>
  </a>
 </g>
</svg>

<style type='text/css'>
<![CDATA[
[data-mouse-over-selected='false'] { opacity: 0.7; }
[data-mouse-over-selected='true']  { opacity: 1.0; }
]]>
</style>
<script type="application/ecmascript"><![CDATA[
document.addEventListener('DOMContentLoaded', (event) => {
  highlightEdges();
  highlightAdjacentNodes();
});
]]></script>
</svg>
