<?xml version="1.0" encoding="UTF-8" standalone="no"?>
<!DOCTYPE svg PUBLIC "-//W3C//DTD SVG 1.1//EN"
 "http://www.w3.org/Graphics/SVG/1.1/DTD/svg11.dtd">
<!-- Generated by graphviz version 2.43.0 (0)
 -->
<!-- Title: AP_RCProtocol_Backend::decode_11bit_channels Pages: 1 -->
<!--zoomable 388 -->

<svg id="main" version="1.1" xmlns="http://www.w3.org/2000/svg" xmlns:xlink="http://www.w3.org/1999/xlink" xml:space="preserve" onload="init(evt)">
<style type="text/css"><![CDATA[
.node, .edge {opacity: 0.7;}
.node.selected, .edge.selected {opacity: 1;}
.edge:hover path { stroke: red; }
.edge:hover polygon { stroke: red; fill: red; }
]]></style>

<defs>
  <circle id="rim" cx="0" cy="0" r="7"/>
  <circle id="rim2" cx="0" cy="0" r="3.5"/>
  <g id="zoomPlus">
    <use xlink:href="#rim" fill="#404040"><set attributeName="fill" to="#808080" begin="zoomplus.mouseover" end="zoomplus.mouseout"/></use>
    <path d="M-4,0h8M0,-4v8" fill="none" stroke="white" stroke-width="1.5" pointer-events="none"/>
  </g>
  <g id="zoomMin">
    <use xlink:href="#rim" fill="#404040"><set attributeName="fill" to="#808080" begin="zoomminus.mouseover" end="zoomminus.mouseout"/></use>
    <path d="M-4,0h8" fill="none" stroke="white" stroke-width="1.5" pointer-events="none"/>
  </g>
  <g id="arrowUp" transform="translate(30 24)">
    <use xlink:href="#rim"/>
    <path pointer-events="none" fill="none" stroke="white" stroke-width="1.5" d="M0,-3.0v7 M-2.5,-0.5L0,-3.0L2.5,-0.5"/>
  </g>
  <g id="arrowRight" transform="rotate(90) translate(36 -43)">
    <use xlink:href="#rim"/>
    <path pointer-events="none" fill="none" stroke="white" stroke-width="1.5" d="M0,-3.0v7 M-2.5,-0.5L0,-3.0L2.5,-0.5"/>
  </g>
  <g id="arrowDown" transform="rotate(180) translate(-30 -48)">
    <use xlink:href="#rim"/>
    <path pointer-events="none" fill="none" stroke="white" stroke-width="1.5" d="M0,-3.0v7 M-2.5,-0.5L0,-3.0L2.5,-0.5"/>
  </g>
  <g id="arrowLeft" transform="rotate(270) translate(-36 17)">
    <use xlink:href="#rim"/>
    <path pointer-events="none" fill="none" stroke="white" stroke-width="1.5" d="M0,-3.0v7 M-2.5,-0.5L0,-3.0L2.5,-0.5"/>
  </g>
  <g id="resetDef">
    <use xlink:href="#rim2" fill="#404040"><set attributeName="fill" to="#808080" begin="reset.mouseover" end="reset.mouseout"/></use>
  </g>
</defs>
<script type="application/ecmascript">
var viewWidth = 1879;
var viewHeight = 388;
var sectionId = 'dynsection-4';
</script>
<script type="application/ecmascript" xlink:href="svg.min.js"/>
<svg id="graph" class="graph">
<g id="viewport">
<title>AP_RCProtocol_Backend::decode_11bit_channels</title>
<!-- Node1 -->
<g id="Node000001" class="node">
<title>Node1</title>
<g id="a_Node000001"><a xlink:title=" ">
<polygon fill="#999999" stroke="#666666" points="1871,-251 1734,-251 1734,-221 1871,-221 1871,-251"/>
<text text-anchor="start" x="1742" y="-239" font-family="Helvetica,sans-Serif" font-size="10.00">AP_RCProtocol_Backend</text>
<text text-anchor="middle" x="1802.5" y="-228" font-family="Helvetica,sans-Serif" font-size="10.00">::decode_11bit_channels</text>
</a>
</g>
</g>
<!-- Node2 -->
<g id="Node000002" class="node">
<title>Node2</title>
<g id="a_Node000002"><a xlink:href="classAP__RCProtocol__FPort.html#a958c0e26fe82486163868b809a55cc50" target="_top" xlink:title=" ">
<polygon fill="white" stroke="#666666" points="1698,-318 1579,-318 1579,-288 1698,-288 1698,-318"/>
<text text-anchor="start" x="1587" y="-306" font-family="Helvetica,sans-Serif" font-size="10.00">AP_RCProtocol_FPort</text>
<text text-anchor="middle" x="1638.5" y="-295" font-family="Helvetica,sans-Serif" font-size="10.00">::decode_control</text>
</a>
</g>
</g>
<!-- Node1&#45;&gt;Node2 -->
<g id="edge1_Node000001_Node000002" class="edge">
<title>Node1&#45;&gt;Node2</title>
<g id="a_edge1_Node000001_Node000002"><a xlink:title=" ">
<path fill="none" stroke="#63b8ff" d="M1755.78,-254.91C1730.54,-265.35 1699.62,-278.13 1676.01,-287.9"/>
<polygon fill="#63b8ff" stroke="#63b8ff" points="1757.24,-258.09 1765.14,-251.04 1754.57,-251.62 1757.24,-258.09"/>
</a>
</g>
</g>
<!-- Node6 -->
<g id="Node000006" class="node">
<title>Node6</title>
<g id="a_Node000006"><a xlink:href="classAP__RCProtocol__CRSF.html#a9a50602fd7358fdbfb2db6029b6eed54" target="_top" xlink:title=" ">
<polygon fill="white" stroke="#666666" points="1698,-251 1579,-251 1579,-221 1698,-221 1698,-251"/>
<text text-anchor="start" x="1587" y="-239" font-family="Helvetica,sans-Serif" font-size="10.00">AP_RCProtocol_CRSF</text>
<text text-anchor="middle" x="1638.5" y="-228" font-family="Helvetica,sans-Serif" font-size="10.00">::decode_crsf_packet</text>
</a>
</g>
</g>
<!-- Node1&#45;&gt;Node6 -->
<g id="edge5_Node000001_Node000006" class="edge">
<title>Node1&#45;&gt;Node6</title>
<g id="a_edge5_Node000001_Node000006"><a xlink:title=" ">
<path fill="none" stroke="#63b8ff" d="M1723.72,-236C1715.15,-236 1706.53,-236 1698.24,-236"/>
<polygon fill="#63b8ff" stroke="#63b8ff" points="1723.74,-239.5 1733.74,-236 1723.74,-232.5 1723.74,-239.5"/>
</a>
</g>
</g>
<!-- Node19 -->
<g id="Node000019" class="node">
<title>Node19</title>
<g id="a_Node000019"><a xlink:href="classAP__RCProtocol__SBUS.html#ab1e34e47d57d99c21db96df479d63853" target="_top" xlink:title=" ">
<polygon fill="white" stroke="#666666" points="1698,-146 1579,-146 1579,-116 1698,-116 1698,-146"/>
<text text-anchor="start" x="1587" y="-134" font-family="Helvetica,sans-Serif" font-size="10.00">AP_RCProtocol_SBUS</text>
<text text-anchor="middle" x="1638.5" y="-123" font-family="Helvetica,sans-Serif" font-size="10.00">::sbus_decode</text>
</a>
</g>
</g>
<!-- Node1&#45;&gt;Node19 -->
<g id="edge19_Node000001_Node000019" class="edge">
<title>Node1&#45;&gt;Node19</title>
<g id="a_edge19_Node000001_Node000019"><a xlink:title=" ">
<path fill="none" stroke="#63b8ff" d="M1769.86,-215.5C1738.38,-195.09 1690.8,-164.25 1662.67,-146.02"/>
<polygon fill="#63b8ff" stroke="#63b8ff" points="1767.99,-218.45 1778.29,-220.96 1771.8,-212.58 1767.99,-218.45"/>
</a>
</g>
</g>
<!-- Node3 -->
<g id="Node000003" class="node">
<title>Node3</title>
<g id="a_Node000003"><a xlink:href="classAP__RCProtocol__FPort.html#ade95490c6f1b780266ff5231527ac98a" target="_top" xlink:title=" ">
<polygon fill="white" stroke="#666666" points="1534.5,-332 1415.5,-332 1415.5,-302 1534.5,-302 1534.5,-332"/>
<text text-anchor="start" x="1423.5" y="-320" font-family="Helvetica,sans-Serif" font-size="10.00">AP_RCProtocol_FPort</text>
<text text-anchor="middle" x="1475" y="-309" font-family="Helvetica,sans-Serif" font-size="10.00">::_process_byte</text>
</a>
</g>
</g>
<!-- Node2&#45;&gt;Node3 -->
<g id="edge2_Node000002_Node000003" class="edge">
<title>Node2&#45;&gt;Node3</title>
<g id="a_edge2_Node000002_Node000003"><a xlink:title=" ">
<path fill="none" stroke="#63b8ff" d="M1568.52,-308.98C1557.26,-309.96 1545.7,-310.96 1534.72,-311.91"/>
<polygon fill="#63b8ff" stroke="#63b8ff" points="1569.08,-312.44 1578.74,-308.09 1568.47,-305.47 1569.08,-312.44"/>
</a>
</g>
</g>
<!-- Node4 -->
<g id="Node000004" class="node">
<title>Node4</title>
<g id="a_Node000004"><a xlink:href="classAP__RCProtocol__FPort.html#aa55aa9265bb4479e9f2eee9dd82b8361" target="_top" xlink:title=" ">
<polygon fill="white" stroke="#666666" points="1362.5,-380 1243.5,-380 1243.5,-350 1362.5,-350 1362.5,-380"/>
<text text-anchor="start" x="1251.5" y="-368" font-family="Helvetica,sans-Serif" font-size="10.00">AP_RCProtocol_FPort</text>
<text text-anchor="middle" x="1303" y="-357" font-family="Helvetica,sans-Serif" font-size="10.00">::process_byte</text>
</a>
</g>
</g>
<!-- Node3&#45;&gt;Node4 -->
<g id="edge3_Node000003_Node000004" class="edge">
<title>Node3&#45;&gt;Node4</title>
<g id="a_edge3_Node000003_Node000004"><a xlink:title=" ">
<path fill="none" stroke="#63b8ff" d="M1411,-334.79C1393.29,-339.79 1374.21,-345.18 1357.13,-350"/>
<polygon fill="#63b8ff" stroke="#63b8ff" points="1412,-338.14 1420.68,-332.06 1410.1,-331.4 1412,-338.14"/>
</a>
</g>
</g>
<!-- Node5 -->
<g id="Node000005" class="node">
<title>Node5</title>
<g id="a_Node000005"><a xlink:href="classAP__RCProtocol__FPort.html#a4d9e8ac9b4764a5335df55055dffe092" target="_top" xlink:title=" ">
<polygon fill="white" stroke="#666666" points="1362.5,-332 1243.5,-332 1243.5,-302 1362.5,-302 1362.5,-332"/>
<text text-anchor="start" x="1251.5" y="-320" font-family="Helvetica,sans-Serif" font-size="10.00">AP_RCProtocol_FPort</text>
<text text-anchor="middle" x="1303" y="-309" font-family="Helvetica,sans-Serif" font-size="10.00">::process_pulse</text>
</a>
</g>
</g>
<!-- Node3&#45;&gt;Node5 -->
<g id="edge4_Node000003_Node000005" class="edge">
<title>Node3&#45;&gt;Node5</title>
<g id="a_edge4_Node000003_Node000005"><a xlink:title=" ">
<path fill="none" stroke="#63b8ff" d="M1405.32,-317C1391.16,-317 1376.37,-317 1362.61,-317"/>
<polygon fill="#63b8ff" stroke="#63b8ff" points="1405.5,-320.5 1415.5,-317 1405.5,-313.5 1405.5,-320.5"/>
</a>
</g>
</g>
<!-- Node7 -->
<g id="Node000007" class="node">
<title>Node7</title>
<g id="a_Node000007"><a xlink:href="classAP__RCProtocol__CRSF.html#a39194624b0a0449f9a0b3991e5babfdc" target="_top" xlink:title=" ">
<polygon fill="white" stroke="#666666" points="1534.5,-251 1415.5,-251 1415.5,-221 1534.5,-221 1534.5,-251"/>
<text text-anchor="start" x="1423.5" y="-239" font-family="Helvetica,sans-Serif" font-size="10.00">AP_RCProtocol_CRSF</text>
<text text-anchor="middle" x="1475" y="-228" font-family="Helvetica,sans-Serif" font-size="10.00">::check_frame</text>
</a>
</g>
</g>
<!-- Node6&#45;&gt;Node7 -->
<g id="edge6_Node000006_Node000007" class="edge">
<title>Node6&#45;&gt;Node7</title>
<g id="a_edge6_Node000006_Node000007"><a xlink:title=" ">
<path fill="none" stroke="#63b8ff" d="M1568.52,-236C1557.26,-236 1545.7,-236 1534.72,-236"/>
<polygon fill="#63b8ff" stroke="#63b8ff" points="1568.74,-239.5 1578.74,-236 1568.74,-232.5 1568.74,-239.5"/>
</a>
</g>
</g>
<!-- Node8 -->
<g id="Node000008" class="node">
<title>Node8</title>
<g id="a_Node000008"><a xlink:href="classAP__RCProtocol__CRSF.html#ab1078f90c43ba5815517ffdb9a04dc47" target="_top" xlink:title=" ">
<polygon fill="white" stroke="#666666" points="1194.5,-268 1075.5,-268 1075.5,-238 1194.5,-238 1194.5,-268"/>
<text text-anchor="start" x="1083.5" y="-256" font-family="Helvetica,sans-Serif" font-size="10.00">AP_RCProtocol_CRSF</text>
<text text-anchor="middle" x="1135" y="-245" font-family="Helvetica,sans-Serif" font-size="10.00">::_process_byte</text>
</a>
</g>
</g>
<!-- Node7&#45;&gt;Node8 -->
<g id="edge7_Node000007_Node000008" class="edge">
<title>Node7&#45;&gt;Node8</title>
<g id="a_edge7_Node000007_Node000008"><a xlink:title=" ">
<path fill="none" stroke="#63b8ff" d="M1405.47,-250.44C1394.01,-252.34 1382.2,-253.98 1371,-255 1311.07,-260.48 1242.19,-258.98 1194.56,-256.73"/>
<polygon fill="#63b8ff" stroke="#63b8ff" points="1406.17,-253.87 1415.43,-248.71 1404.98,-246.97 1406.17,-253.87"/>
</a>
</g>
</g>
<!-- Node18 -->
<g id="Node000018" class="node">
<title>Node18</title>
<g id="a_Node000018"><a xlink:href="classAP__RCProtocol__CRSF.html#a45f119172d0bd5b7bf02ac13e6b3fe2c" target="_top" xlink:title=" ">
<polygon fill="white" stroke="#666666" points="1362.5,-246 1243.5,-246 1243.5,-216 1362.5,-216 1362.5,-246"/>
<text text-anchor="start" x="1251.5" y="-234" font-family="Helvetica,sans-Serif" font-size="10.00">AP_RCProtocol_CRSF</text>
<text text-anchor="middle" x="1303" y="-223" font-family="Helvetica,sans-Serif" font-size="10.00">::skip_to_next_frame</text>
</a>
</g>
</g>
<!-- Node7&#45;&gt;Node18 -->
<g id="edge17_Node000007_Node000018" class="edge">
<title>Node7&#45;&gt;Node18</title>
<g id="a_edge17_Node000007_Node000018"><a xlink:title=" ">
<path fill="none" stroke="#63b8ff" d="M1405.32,-233.98C1391.16,-233.56 1376.37,-233.13 1362.61,-232.72"/>
<polygon fill="#63b8ff" stroke="#63b8ff" points="1405.4,-237.48 1415.5,-234.28 1405.6,-230.49 1405.4,-237.48"/>
</a>
</g>
</g>
<!-- Node9 -->
<g id="Node000009" class="node">
<title>Node9</title>
<g id="a_Node000009"><a xlink:href="classAP__RCProtocol__CRSF.html#a2104da519433d99b7d48ba916dac368d" target="_top" xlink:title=" ">
<polygon fill="white" stroke="#666666" points="1035,-292 916,-292 916,-262 1035,-262 1035,-292"/>
<text text-anchor="start" x="924" y="-280" font-family="Helvetica,sans-Serif" font-size="10.00">AP_RCProtocol_CRSF</text>
<text text-anchor="middle" x="975.5" y="-269" font-family="Helvetica,sans-Serif" font-size="10.00">::process_byte</text>
</a>
</g>
</g>
<!-- Node8&#45;&gt;Node9 -->
<g id="edge8_Node000008_Node000009" class="edge">
<title>Node8&#45;&gt;Node9</title>
<g id="a_edge8_Node000008_Node000009"><a xlink:title=" ">
<path fill="none" stroke="#63b8ff" d="M1065.39,-263.46C1055.33,-264.99 1045.04,-266.56 1035.2,-268.06"/>
<polygon fill="#63b8ff" stroke="#63b8ff" points="1065.99,-266.9 1075.35,-261.94 1064.94,-259.98 1065.99,-266.9"/>
</a>
</g>
</g>
<!-- Node10 -->
<g id="Node000010" class="node">
<title>Node10</title>
<g id="a_Node000010"><a xlink:href="classAP__RCProtocol__CRSF.html#a52ed002beb58e3b17c3c9b7ed14bccf3" target="_top" xlink:title=" ">
<polygon fill="white" stroke="#666666" points="1035,-244 916,-244 916,-214 1035,-214 1035,-244"/>
<text text-anchor="start" x="924" y="-232" font-family="Helvetica,sans-Serif" font-size="10.00">AP_RCProtocol_CRSF</text>
<text text-anchor="middle" x="975.5" y="-221" font-family="Helvetica,sans-Serif" font-size="10.00">::update</text>
</a>
</g>
</g>
<!-- Node8&#45;&gt;Node10 -->
<g id="edge9_Node000008_Node000010" class="edge">
<title>Node8&#45;&gt;Node10</title>
<g id="a_edge9_Node000008_Node000010"><a xlink:title=" ">
<path fill="none" stroke="#63b8ff" d="M1065.39,-242.54C1055.33,-241.01 1045.04,-239.44 1035.2,-237.94"/>
<polygon fill="#63b8ff" stroke="#63b8ff" points="1064.94,-246.02 1075.35,-244.06 1065.99,-239.1 1064.94,-246.02"/>
</a>
</g>
</g>
<!-- Node11 -->
<g id="Node000011" class="node">
<title>Node11</title>
<g id="a_Node000011"><a xlink:href="classHALSITL_1_1SITL__State__Common.html#a203ad4f71c8f1cac590d11e0f98b23ea" target="_top" xlink:title=" ">
<polygon fill="white" stroke="#666666" points="880,-266 751,-266 751,-236 880,-236 880,-266"/>
<text text-anchor="start" x="759" y="-254" font-family="Helvetica,sans-Serif" font-size="10.00">HALSITL::SITL_State</text>
<text text-anchor="middle" x="815.5" y="-243" font-family="Helvetica,sans-Serif" font-size="10.00">_Common::sim_update</text>
</a>
</g>
</g>
<!-- Node10&#45;&gt;Node11 -->
<g id="edge10_Node000010_Node000011" class="edge">
<title>Node10&#45;&gt;Node11</title>
<g id="a_edge10_Node000010_Node000011"><a xlink:title=" ">
<path fill="none" stroke="#63b8ff" d="M905.49,-238.61C897.07,-239.78 888.49,-240.98 880.15,-242.14"/>
<polygon fill="#63b8ff" stroke="#63b8ff" points="906.24,-242.04 915.67,-237.19 905.28,-235.1 906.24,-242.04"/>
</a>
</g>
</g>
<!-- Node17 -->
<g id="Node000017" class="node">
<title>Node17</title>
<g id="a_Node000017"><a xlink:href="classAP__VideoTX.html#afa4cf772db054fd7a0d852b354a04e64" target="_top" xlink:title=" ">
<polygon fill="white" stroke="#666666" points="873,-217.5 758,-217.5 758,-198.5 873,-198.5 873,-217.5"/>
<text text-anchor="middle" x="815.5" y="-205.5" font-family="Helvetica,sans-Serif" font-size="10.00">AP_VideoTX::update</text>
</a>
</g>
</g>
<!-- Node10&#45;&gt;Node17 -->
<g id="edge16_Node000010_Node000017" class="edge">
<title>Node10&#45;&gt;Node17</title>
<g id="a_edge16_Node000010_Node000017"><a xlink:title=" ">
<path fill="none" stroke="#63b8ff" d="M905.73,-219.86C894.81,-218.41 883.62,-216.92 873.02,-215.51"/>
<polygon fill="#63b8ff" stroke="#63b8ff" points="905.29,-223.33 915.67,-221.18 906.21,-216.39 905.29,-223.33"/>
</a>
</g>
</g>
<!-- Node12 -->
<g id="Node000012" class="node">
<title>Node12</title>
<g id="a_Node000012"><a xlink:href="classHALSITL_1_1SITL__State.html#a141fe78b0702ab2f2ac4cafc221fdb97" target="_top" xlink:title=" ">
<polygon fill="white" stroke="#666666" points="715,-266 602,-266 602,-236 715,-236 715,-266"/>
<text text-anchor="start" x="610" y="-254" font-family="Helvetica,sans-Serif" font-size="10.00">HALSITL::SITL_State</text>
<text text-anchor="middle" x="658.5" y="-243" font-family="Helvetica,sans-Serif" font-size="10.00">::_fdm_input_local</text>
</a>
</g>
</g>
<!-- Node11&#45;&gt;Node12 -->
<g id="edge11_Node000011_Node000012" class="edge">
<title>Node11&#45;&gt;Node12</title>
<g id="a_edge11_Node000011_Node000012"><a xlink:title=" ">
<path fill="none" stroke="#63b8ff" d="M740.36,-251C731.95,-251 723.49,-251 715.37,-251"/>
<polygon fill="#63b8ff" stroke="#63b8ff" points="740.56,-254.5 750.56,-251 740.56,-247.5 740.56,-254.5"/>
</a>
</g>
</g>
<!-- Node13 -->
<g id="Node000013" class="node">
<title>Node13</title>
<g id="a_Node000013"><a xlink:href="classHALSITL_1_1SITL__State.html#ae31c93a26ca780bb508dded2498e2e93" target="_top" xlink:title=" ">
<polygon fill="white" stroke="#666666" points="566,-266 453,-266 453,-236 566,-236 566,-266"/>
<text text-anchor="start" x="461" y="-254" font-family="Helvetica,sans-Serif" font-size="10.00">HALSITL::SITL_State</text>
<text text-anchor="middle" x="509.5" y="-243" font-family="Helvetica,sans-Serif" font-size="10.00">::_fdm_input_step</text>
</a>
</g>
</g>
<!-- Node12&#45;&gt;Node13 -->
<g id="edge12_Node000012_Node000013" class="edge">
<title>Node12&#45;&gt;Node13</title>
<g id="a_edge12_Node000012_Node000013"><a xlink:title=" ">
<path fill="none" stroke="#63b8ff" d="M591.92,-251C583.32,-251 574.57,-251 566.15,-251"/>
<polygon fill="#63b8ff" stroke="#63b8ff" points="591.93,-254.5 601.93,-251 591.93,-247.5 591.93,-254.5"/>
</a>
</g>
</g>
<!-- Node14 -->
<g id="Node000014" class="node">
<title>Node14</title>
<g id="a_Node000014"><a xlink:href="classHALSITL_1_1SITL__State.html#a3eeaf330efded46259bbf64fc53e6b9f" target="_top" xlink:title=" ">
<polygon fill="white" stroke="#666666" points="417,-266 304,-266 304,-236 417,-236 417,-266"/>
<text text-anchor="start" x="312" y="-254" font-family="Helvetica,sans-Serif" font-size="10.00">HALSITL::SITL_State</text>
<text text-anchor="middle" x="360.5" y="-243" font-family="Helvetica,sans-Serif" font-size="10.00">::wait_clock</text>
</a>
</g>
</g>
<!-- Node13&#45;&gt;Node14 -->
<g id="edge13_Node000013_Node000014" class="edge">
<title>Node13&#45;&gt;Node14</title>
<g id="a_edge13_Node000013_Node000014"><a xlink:title=" ">
<path fill="none" stroke="#63b8ff" d="M442.92,-251C434.32,-251 425.57,-251 417.15,-251"/>
<polygon fill="#63b8ff" stroke="#63b8ff" points="442.93,-254.5 452.93,-251 442.93,-247.5 442.93,-254.5"/>
</a>
</g>
</g>
<!-- Node15 -->
<g id="Node000015" class="node">
<title>Node15</title>
<g id="a_Node000015"><a xlink:href="classHALSITL_1_1Scheduler.html#a332cd2e17889c12f84b469eaf9f24fc8" target="_top" xlink:title=" ">
<polygon fill="white" stroke="#666666" points="268,-266 146,-266 146,-236 268,-236 268,-266"/>
<text text-anchor="start" x="154" y="-254" font-family="Helvetica,sans-Serif" font-size="10.00">HALSITL::Scheduler</text>
<text text-anchor="middle" x="207" y="-243" font-family="Helvetica,sans-Serif" font-size="10.00">::delay_microseconds</text>
</a>
</g>
</g>
<!-- Node14&#45;&gt;Node15 -->
<g id="edge14_Node000014_Node000015" class="edge">
<title>Node14&#45;&gt;Node15</title>
<g id="a_edge14_Node000014_Node000015"><a xlink:title=" ">
<path fill="none" stroke="#63b8ff" d="M293.7,-251C285.2,-251 276.54,-251 268.14,-251"/>
<polygon fill="#63b8ff" stroke="#63b8ff" points="293.95,-254.5 303.95,-251 293.95,-247.5 293.95,-254.5"/>
</a>
</g>
</g>
<!-- Node16 -->
<g id="Node000016" class="node">
<title>Node16</title>
<g id="a_Node000016"><a xlink:href="classHALSITL_1_1Scheduler.html#a8b298eda68e2de4c5c082f02dda3abd9" target="_top" xlink:title=" ">
<polygon fill="white" stroke="#666666" points="110,-266 0,-266 0,-236 110,-236 110,-266"/>
<text text-anchor="start" x="8" y="-254" font-family="Helvetica,sans-Serif" font-size="10.00">HALSITL::Scheduler</text>
<text text-anchor="middle" x="55" y="-243" font-family="Helvetica,sans-Serif" font-size="10.00">::delay</text>
</a>
</g>
</g>
<!-- Node15&#45;&gt;Node16 -->
<g id="edge15_Node000015_Node000016" class="edge">
<title>Node15&#45;&gt;Node16</title>
<g id="a_edge15_Node000015_Node000016"><a xlink:title=" ">
<path fill="none" stroke="#63b8ff" d="M135.58,-251C127.1,-251 118.54,-251 110.34,-251"/>
<polygon fill="#63b8ff" stroke="#63b8ff" points="135.85,-254.5 145.85,-251 135.85,-247.5 135.85,-254.5"/>
</a>
</g>
</g>
<!-- Node18&#45;&gt;Node8 -->
<g id="edge18_Node000018_Node000008" class="edge">
<title>Node18&#45;&gt;Node8</title>
<g id="a_edge18_Node000018_Node000008"><a xlink:title=" ">
<path fill="none" stroke="#63b8ff" d="M1233.28,-240.11C1220.42,-241.81 1207.08,-243.58 1194.56,-245.24"/>
<polygon fill="#63b8ff" stroke="#63b8ff" points="1234.02,-243.54 1243.47,-238.76 1233.1,-236.6 1234.02,-243.54"/>
</a>
</g>
</g>
<!-- Node20 -->
<g id="Node000020" class="node">
<title>Node20</title>
<g id="a_Node000020"><a xlink:href="classAP__RCProtocol__SBUS.html#adacc694a5a198a66c1fed6479fd04262" target="_top" xlink:title=" ">
<polygon fill="white" stroke="#666666" points="1534.5,-194 1415.5,-194 1415.5,-164 1534.5,-164 1534.5,-194"/>
<text text-anchor="start" x="1423.5" y="-182" font-family="Helvetica,sans-Serif" font-size="10.00">AP_RCProtocol_SBUS</text>
<text text-anchor="middle" x="1475" y="-171" font-family="Helvetica,sans-Serif" font-size="10.00">::_process_byte</text>
</a>
</g>
</g>
<!-- Node19&#45;&gt;Node20 -->
<g id="edge20_Node000019_Node000020" class="edge">
<title>Node19&#45;&gt;Node20</title>
<g id="a_edge20_Node000019_Node000020"><a xlink:title=" ">
<path fill="none" stroke="#63b8ff" d="M1577.18,-148.93C1560.49,-153.89 1542.55,-159.22 1526.48,-164"/>
<polygon fill="#63b8ff" stroke="#63b8ff" points="1578.26,-152.26 1586.84,-146.06 1576.26,-145.55 1578.26,-152.26"/>
</a>
</g>
</g>
<!-- Node23 -->
<g id="Node000023" class="node">
<title>Node23</title>
<g id="a_Node000023"><a xlink:href="classLinux_1_1RCInput.html#a9a8cf6cfb7abc062fd23cb7a74221b06" target="_top" xlink:title=" ">
<polygon fill="white" stroke="#666666" points="1543,-146 1407,-146 1407,-116 1543,-116 1543,-146"/>
<text text-anchor="start" x="1415" y="-134" font-family="Helvetica,sans-Serif" font-size="10.00">Linux::RCInput::_process</text>
<text text-anchor="middle" x="1475" y="-123" font-family="Helvetica,sans-Serif" font-size="10.00">_sbus_pulse</text>
</a>
</g>
</g>
<!-- Node19&#45;&gt;Node23 -->
<g id="edge23_Node000019_Node000023" class="edge">
<title>Node19&#45;&gt;Node23</title>
<g id="a_edge23_Node000019_Node000023"><a xlink:title=" ">
<path fill="none" stroke="#63b8ff" d="M1568.59,-131C1560.18,-131 1551.59,-131 1543.2,-131"/>
<polygon fill="#63b8ff" stroke="#63b8ff" points="1568.74,-134.5 1578.74,-131 1568.74,-127.5 1568.74,-134.5"/>
</a>
</g>
</g>
<!-- Node29 -->
<g id="Node000029" class="node">
<title>Node29</title>
<g id="a_Node000029"><a xlink:href="classLinux_1_1RCInput.html#ad1b918e5e7487c376b3c7dfe116820e6" target="_top" xlink:title=" ">
<polygon fill="white" stroke="#666666" points="1530.5,-98 1419.5,-98 1419.5,-68 1530.5,-68 1530.5,-98"/>
<text text-anchor="start" x="1427.5" y="-86" font-family="Helvetica,sans-Serif" font-size="10.00">Linux::RCInput::add</text>
<text text-anchor="middle" x="1475" y="-75" font-family="Helvetica,sans-Serif" font-size="10.00">_sbus_input</text>
</a>
</g>
</g>
<!-- Node19&#45;&gt;Node29 -->
<g id="edge29_Node000019_Node000029" class="edge">
<title>Node19&#45;&gt;Node29</title>
<g id="a_edge29_Node000019_Node000029"><a xlink:title=" ">
<path fill="none" stroke="#63b8ff" d="M1577.18,-113.07C1560.49,-108.11 1542.55,-102.78 1526.48,-98"/>
<polygon fill="#63b8ff" stroke="#63b8ff" points="1576.26,-116.45 1586.84,-115.94 1578.26,-109.74 1576.26,-116.45"/>
</a>
</g>
</g>
<!-- Node30 -->
<g id="Node000030" class="node">
<title>Node30</title>
<g id="a_Node000030"><a xlink:href="test__sbus_8cpp.html#a449234be2f532ff23502871c3c8a2898" target="_top" xlink:title=" ">
<polygon fill="white" stroke="#666666" points="1495.5,-49.5 1454.5,-49.5 1454.5,-30.5 1495.5,-30.5 1495.5,-49.5"/>
<text text-anchor="middle" x="1475" y="-37.5" font-family="Helvetica,sans-Serif" font-size="10.00">TEST</text>
</a>
</g>
</g>
<!-- Node19&#45;&gt;Node30 -->
<g id="edge30_Node000019_Node000030" class="edge">
<title>Node19&#45;&gt;Node30</title>
<g id="a_edge30_Node000019_Node000030"><a xlink:title=" ">
<path fill="none" stroke="#63b8ff" d="M1613.97,-109.04C1595.81,-93.14 1569.4,-72.2 1543,-59 1527.97,-51.48 1509.51,-46.53 1495.77,-43.57"/>
<polygon fill="#63b8ff" stroke="#63b8ff" points="1611.91,-111.9 1621.71,-115.94 1616.58,-106.67 1611.91,-111.9"/>
</a>
</g>
</g>
<!-- Node21 -->
<g id="Node000021" class="node">
<title>Node21</title>
<g id="a_Node000021"><a xlink:href="classAP__RCProtocol__SBUS.html#ae2508e11e59e8af291c180970eeff5ec" target="_top" xlink:title=" ">
<polygon fill="white" stroke="#666666" points="1362.5,-198 1243.5,-198 1243.5,-168 1362.5,-168 1362.5,-198"/>
<text text-anchor="start" x="1251.5" y="-186" font-family="Helvetica,sans-Serif" font-size="10.00">AP_RCProtocol_SBUS</text>
<text text-anchor="middle" x="1303" y="-175" font-family="Helvetica,sans-Serif" font-size="10.00">::process_byte</text>
</a>
</g>
</g>
<!-- Node20&#45;&gt;Node21 -->
<g id="edge21_Node000020_Node000021" class="edge">
<title>Node20&#45;&gt;Node21</title>
<g id="a_edge21_Node000020_Node000021"><a xlink:title=" ">
<path fill="none" stroke="#63b8ff" d="M1405.32,-180.62C1391.16,-180.95 1376.37,-181.3 1362.61,-181.62"/>
<polygon fill="#63b8ff" stroke="#63b8ff" points="1405.58,-184.11 1415.5,-180.38 1405.42,-177.11 1405.58,-184.11"/>
</a>
</g>
</g>
<!-- Node22 -->
<g id="Node000022" class="node">
<title>Node22</title>
<g id="a_Node000022"><a xlink:href="classAP__RCProtocol__SBUS.html#a29e66e11b2fa30a04de13bdffc9ffc11" target="_top" xlink:title=" ">
<polygon fill="white" stroke="#666666" points="1362.5,-150 1243.5,-150 1243.5,-120 1362.5,-120 1362.5,-150"/>
<text text-anchor="start" x="1251.5" y="-138" font-family="Helvetica,sans-Serif" font-size="10.00">AP_RCProtocol_SBUS</text>
<text text-anchor="middle" x="1303" y="-127" font-family="Helvetica,sans-Serif" font-size="10.00">::process_pulse</text>
</a>
</g>
</g>
<!-- Node20&#45;&gt;Node22 -->
<g id="edge22_Node000020_Node000022" class="edge">
<title>Node20&#45;&gt;Node22</title>
<g id="a_edge22_Node000020_Node000022"><a xlink:title=" ">
<path fill="none" stroke="#63b8ff" d="M1406.02,-161.41C1391.46,-157.64 1376.2,-153.69 1362.06,-150.03"/>
<polygon fill="#63b8ff" stroke="#63b8ff" points="1405.41,-164.86 1415.97,-163.98 1407.17,-158.09 1405.41,-164.86"/>
</a>
</g>
</g>
<!-- Node24 -->
<g id="Node000024" class="node">
<title>Node24</title>
<g id="a_Node000024"><a xlink:href="classLinux_1_1RCInput.html#a9b269fac087807d362506805ebd18936" target="_top" xlink:title=" ">
<polygon fill="white" stroke="#666666" points="1371,-102 1235,-102 1235,-72 1371,-72 1371,-102"/>
<text text-anchor="start" x="1243" y="-90" font-family="Helvetica,sans-Serif" font-size="10.00">Linux::RCInput::_process</text>
<text text-anchor="middle" x="1303" y="-79" font-family="Helvetica,sans-Serif" font-size="10.00">_rc_pulse</text>
</a>
</g>
</g>
<!-- Node23&#45;&gt;Node24 -->
<g id="edge24_Node000023_Node000024" class="edge">
<title>Node23&#45;&gt;Node24</title>
<g id="a_edge24_Node000023_Node000024"><a xlink:title=" ">
<path fill="none" stroke="#63b8ff" d="M1406.02,-113.41C1391.46,-109.64 1376.2,-105.69 1362.06,-102.03"/>
<polygon fill="#63b8ff" stroke="#63b8ff" points="1405.41,-116.86 1415.97,-115.98 1407.17,-110.09 1405.41,-116.86"/>
</a>
</g>
</g>
<!-- Node25 -->
<g id="Node000025" class="node">
<title>Node25</title>
<g id="a_Node000025"><a xlink:href="classLinux_1_1RCInput__AioPRU.html#a7536fff77a72e2d35260d7e9f9f39442" target="_top" xlink:title=" ">
<polygon fill="white" stroke="#666666" points="1199,-174 1071,-174 1071,-144 1199,-144 1199,-174"/>
<text text-anchor="start" x="1079" y="-162" font-family="Helvetica,sans-Serif" font-size="10.00">Linux::RCInput_AioPRU</text>
<text text-anchor="middle" x="1135" y="-151" font-family="Helvetica,sans-Serif" font-size="10.00">::_timer_tick</text>
</a>
</g>
</g>
<!-- Node24&#45;&gt;Node25 -->
<g id="edge25_Node000024_Node000025" class="edge">
<title>Node24&#45;&gt;Node25</title>
<g id="a_edge25_Node000024_Node000025"><a xlink:title=" ">
<path fill="none" stroke="#63b8ff" d="M1245.89,-105.93C1242.16,-107.55 1238.5,-109.24 1235,-111 1217.82,-119.64 1216.09,-126.19 1199,-135 1192.76,-138.22 1185.98,-141.25 1179.26,-144"/>
<polygon fill="#63b8ff" stroke="#63b8ff" points="1247.33,-109.12 1255.25,-102.08 1244.67,-102.65 1247.33,-109.12"/>
</a>
</g>
</g>
<!-- Node26 -->
<g id="Node000026" class="node">
<title>Node26</title>
<g id="a_Node000026"><a xlink:href="classLinux_1_1RCInput__PRU.html#acb96af5e7b3c38cc8d24d74720f51f29" target="_top" xlink:title=" ">
<polygon fill="white" stroke="#666666" points="1191.5,-126 1078.5,-126 1078.5,-96 1191.5,-96 1191.5,-126"/>
<text text-anchor="start" x="1086.5" y="-114" font-family="Helvetica,sans-Serif" font-size="10.00">Linux::RCInput_PRU</text>
<text text-anchor="middle" x="1135" y="-103" font-family="Helvetica,sans-Serif" font-size="10.00">::_timer_tick</text>
</a>
</g>
</g>
<!-- Node24&#45;&gt;Node26 -->
<g id="edge26_Node000024_Node000026" class="edge">
<title>Node24&#45;&gt;Node26</title>
<g id="a_edge26_Node000024_Node000026"><a xlink:title=" ">
<path fill="none" stroke="#63b8ff" d="M1224.75,-98.17C1213.57,-99.79 1202.24,-101.42 1191.59,-102.96"/>
<polygon fill="#63b8ff" stroke="#63b8ff" points="1225.56,-101.59 1234.96,-96.69 1224.56,-94.66 1225.56,-101.59"/>
</a>
</g>
</g>
<!-- Node27 -->
<g id="Node000027" class="node">
<title>Node27</title>
<g id="a_Node000027"><a xlink:href="classLinux_1_1RCInput__RPI.html#abc24d48af12a9ff863822c406504d557" target="_top" xlink:title=" ">
<polygon fill="white" stroke="#666666" points="1189,-78 1081,-78 1081,-48 1189,-48 1189,-78"/>
<text text-anchor="start" x="1089" y="-66" font-family="Helvetica,sans-Serif" font-size="10.00">Linux::RCInput_RPI</text>
<text text-anchor="middle" x="1135" y="-55" font-family="Helvetica,sans-Serif" font-size="10.00">::_timer_tick</text>
</a>
</g>
</g>
<!-- Node24&#45;&gt;Node27 -->
<g id="edge27_Node000024_Node000027" class="edge">
<title>Node24&#45;&gt;Node27</title>
<g id="a_edge27_Node000024_Node000027"><a xlink:title=" ">
<path fill="none" stroke="#63b8ff" d="M1224.9,-75.85C1212.84,-74.11 1200.62,-72.34 1189.26,-70.7"/>
<polygon fill="#63b8ff" stroke="#63b8ff" points="1224.56,-79.34 1234.96,-77.31 1225.56,-72.41 1224.56,-79.34"/>
</a>
</g>
</g>
<!-- Node28 -->
<g id="Node000028" class="node">
<title>Node28</title>
<g id="a_Node000028"><a xlink:href="classLinux_1_1RCInput__ZYNQ.html#aed31a4bdaad76292a30df6ad73bf6cd3" target="_top" xlink:title=" ">
<polygon fill="white" stroke="#666666" points="1195,-30 1075,-30 1075,0 1195,0 1195,-30"/>
<text text-anchor="start" x="1083" y="-18" font-family="Helvetica,sans-Serif" font-size="10.00">Linux::RCInput_ZYNQ</text>
<text text-anchor="middle" x="1135" y="-7" font-family="Helvetica,sans-Serif" font-size="10.00">::_timer_tick</text>
</a>
</g>
</g>
<!-- Node24&#45;&gt;Node28 -->
<g id="edge28_Node000024_Node000028" class="edge">
<title>Node24&#45;&gt;Node28</title>
<g id="a_edge28_Node000024_Node000028"><a xlink:title=" ">
<path fill="none" stroke="#63b8ff" d="M1261.94,-67.51C1243,-58.51 1219.99,-47.87 1199,-39 1191.89,-35.99 1184.25,-32.94 1176.84,-30.07"/>
<polygon fill="#63b8ff" stroke="#63b8ff" points="1260.63,-70.76 1271.16,-71.92 1263.65,-64.45 1260.63,-70.76"/>
</a>
</g>
</g>
</g>
</svg>

<g id="navigator" transform="translate(0 0)" fill="#404254">
  <rect fill="#f2f5e9" fill-opacity="0.5" stroke="#606060" stroke-width=".5" x="0" y="0" width="60" height="60"/>
  <use id="zoomplus" xlink:href="#zoomPlus" x="17" y="9" onmousedown="handleZoom(evt,'in')"/>
  <use id="zoomminus" xlink:href="#zoomMin" x="42" y="9" onmousedown="handleZoom(evt,'out')"/>
  <use id="reset" xlink:href="#resetDef" x="30" y="36" onmousedown="handleReset()"/>
   <use id="arrowup" xlink:href="#arrowUp" x="0" y="0" onmousedown="handlePan(0,-1)"/>
  <use id="arrowright" xlink:href="#arrowRight" x="0" y="0" onmousedown="handlePan(1,0)"/>
  <use id="arrowdown" xlink:href="#arrowDown" x="0" y="0" onmousedown="handlePan(0,1)"/>
  <use id="arrowleft" xlink:href="#arrowLeft" x="0" y="0" onmousedown="handlePan(-1,0)"/>
</g>
<svg viewBox="0 0 15 15" width="100%" height="30px" preserveAspectRatio="xMaxYMin meet">
 <g id="arrow_out" transform="scale(0.3 0.3)">
  <a xlink:href="classAP__RCProtocol__Backend_a349c4415cf6e5ca866c50f25e1442bde_icgraph_org.svg" target="_base">
   <rect id="button" ry="5" rx="5" y="6" x="6" height="38" width="38"
        fill="#f2f5e9" fill-opacity="0.5" stroke="#606060" stroke-width="1.0"/>
   <path id="arrow"
     d="M 11.500037,31.436501 C 11.940474,20.09759 22.043105,11.32322 32.158766,21.979434 L 37.068811,17.246167 C 37.068811,17.246167 37.088388,32 37.088388,32 L 22.160133,31.978069 C 22.160133,31.978069 26.997745,27.140456 26.997745,27.140456 C 18.528582,18.264221 13.291696,25.230495 11.500037,31.436501 z"
     style="fill:#404040;"/>
  </a>
 </g>
</svg>

<style type='text/css'>
<![CDATA[
[data-mouse-over-selected='false'] { opacity: 0.7; }
[data-mouse-over-selected='true']  { opacity: 1.0; }
]]>
</style>
<script type="application/ecmascript"><![CDATA[
document.addEventListener('DOMContentLoaded', (event) => {
  highlightEdges();
  highlightAdjacentNodes();
});
]]></script>
</svg>
