<?xml version="1.0" encoding="UTF-8" standalone="no"?>
<!DOCTYPE svg PUBLIC "-//W3C//DTD SVG 1.1//EN"
 "http://www.w3.org/Graphics/SVG/1.1/DTD/svg11.dtd">
<!-- Generated by graphviz version 2.43.0 (0)
 -->
<!-- Title: NavEKF3_core::moveEKFOrigin Pages: 1 -->
<svg width="681pt" height="145pt"
 viewBox="0.00 0.00 681.00 145.00" xmlns="http://www.w3.org/2000/svg" xmlns:xlink="http://www.w3.org/1999/xlink">
<g id="graph0" class="graph" transform="scale(1 1) rotate(0) translate(4 141)">
<title>NavEKF3_core::moveEKFOrigin</title>
<!-- Node1 -->
<g id="Node000001" class="node">
<title>Node1</title>
<g id="a_Node000001"><a xlink:title=" ">
<polygon fill="#999999" stroke="#666666" points="169,-56 0,-56 0,-37 169,-37 169,-56"/>
<text text-anchor="middle" x="84.5" y="-44" font-family="Helvetica,sans-Serif" font-size="10.00">NavEKF3_core::moveEKFOrigin</text>
</a>
</g>
</g>
<!-- Node2 -->
<g id="Node000002" class="node">
<title>Node2</title>
<g id="a_Node000002"><a xlink:href="classLocation.html#a6ec18899c41751a9646533494db2eb2f" target="_top" xlink:title=" ">
<polygon fill="white" stroke="#666666" points="331,-104.5 205,-104.5 205,-74.5 331,-74.5 331,-104.5"/>
<text text-anchor="start" x="213" y="-92.5" font-family="Helvetica,sans-Serif" font-size="10.00">Location::get_distance</text>
<text text-anchor="middle" x="268" y="-81.5" font-family="Helvetica,sans-Serif" font-size="10.00">_NE_ftype</text>
</a>
</g>
</g>
<!-- Node1&#45;&gt;Node2 -->
<g id="edge1_Node000001_Node000002" class="edge">
<title>Node1&#45;&gt;Node2</title>
<g id="a_edge1_Node000001_Node000002"><a xlink:title=" ">
<path fill="none" stroke="#63b8ff" d="M125.78,-56.04C146.07,-60.85 171.29,-66.82 194.78,-72.39"/>
<polygon fill="#63b8ff" stroke="#63b8ff" points="194.18,-75.85 204.72,-74.75 195.8,-69.03 194.18,-75.85"/>
</a>
</g>
</g>
<!-- Node5 -->
<g id="Node000005" class="node">
<title>Node5</title>
<g id="a_Node000005"><a xlink:href="classLocation.html#a146775eb07ce9abcc8d05f1b730404b0" target="_top" xlink:title=" ">
<polygon fill="white" stroke="#666666" points="314,-56 222,-56 222,-37 314,-37 314,-56"/>
<text text-anchor="middle" x="268" y="-44" font-family="Helvetica,sans-Serif" font-size="10.00">Location::offset</text>
</a>
</g>
</g>
<!-- Node1&#45;&gt;Node5 -->
<g id="edge4_Node000001_Node000005" class="edge">
<title>Node1&#45;&gt;Node5</title>
<g id="a_edge4_Node000001_Node000005"><a xlink:title=" ">
<path fill="none" stroke="#63b8ff" d="M169.08,-46.5C183.61,-46.5 198.39,-46.5 211.91,-46.5"/>
<polygon fill="#63b8ff" stroke="#63b8ff" points="211.98,-50 221.98,-46.5 211.98,-43 211.98,-50"/>
</a>
</g>
</g>
<!-- Node9 -->
<g id="Node000009" class="node">
<title>Node9</title>
<g id="a_Node000009"><a xlink:href="classVector3.html#abcf8b89285b9966932d1aceeeadb21d3" target="_top" xlink:title=" ">
<polygon fill="white" stroke="#666666" points="303.5,-19 232.5,-19 232.5,0 303.5,0 303.5,-19"/>
<text text-anchor="middle" x="268" y="-7" font-family="Helvetica,sans-Serif" font-size="10.00">Vector3::xy</text>
</a>
</g>
</g>
<!-- Node1&#45;&gt;Node9 -->
<g id="edge9_Node000001_Node000009" class="edge">
<title>Node1&#45;&gt;Node9</title>
<g id="a_edge9_Node000001_Node000009"><a xlink:title=" ">
<path fill="none" stroke="#63b8ff" d="M132.24,-36.97C160,-31.31 195,-24.18 222.37,-18.6"/>
<polygon fill="#63b8ff" stroke="#63b8ff" points="223.36,-21.97 232.46,-16.54 221.96,-15.11 223.36,-21.97"/>
</a>
</g>
</g>
<!-- Node3 -->
<g id="Node000003" class="node">
<title>Node3</title>
<g id="a_Node000003"><a xlink:href="classLocation.html#a42744e951d248f823ca21bbfc2f5226e" target="_top" xlink:title=" ">
<polygon fill="white" stroke="#666666" points="498,-137 367,-137 367,-118 498,-118 498,-137"/>
<text text-anchor="middle" x="432.5" y="-125" font-family="Helvetica,sans-Serif" font-size="10.00">Location::diff_longitude</text>
</a>
</g>
</g>
<!-- Node2&#45;&gt;Node3 -->
<g id="edge2_Node000002_Node000003" class="edge">
<title>Node2&#45;&gt;Node3</title>
<g id="a_edge2_Node000002_Node000003"><a xlink:title=" ">
<path fill="none" stroke="#63b8ff" d="M331.36,-104.08C347.66,-107.89 365.03,-111.96 380.66,-115.61"/>
<polygon fill="#63b8ff" stroke="#63b8ff" points="380.1,-119.08 390.64,-117.94 381.7,-112.26 380.1,-119.08"/>
</a>
</g>
</g>
<!-- Node4 -->
<g id="Node000004" class="node">
<title>Node4</title>
<g id="a_Node000004"><a xlink:href="classLocation.html#ab8844915021178ffc5cb56b19e95ad2c" target="_top" xlink:title=" ">
<polygon fill="white" stroke="#666666" points="658.5,-104.5 548.5,-104.5 548.5,-74.5 658.5,-74.5 658.5,-104.5"/>
<text text-anchor="start" x="556.5" y="-92.5" font-family="Helvetica,sans-Serif" font-size="10.00">Location::longitude</text>
<text text-anchor="middle" x="603.5" y="-81.5" font-family="Helvetica,sans-Serif" font-size="10.00">_scale</text>
</a>
</g>
</g>
<!-- Node2&#45;&gt;Node4 -->
<g id="edge3_Node000002_Node000004" class="edge">
<title>Node2&#45;&gt;Node4</title>
<g id="a_edge3_Node000002_Node000004"><a xlink:title=" ">
<path fill="none" stroke="#63b8ff" d="M331.34,-89.5C390.42,-89.5 478.76,-89.5 538.41,-89.5"/>
<polygon fill="#63b8ff" stroke="#63b8ff" points="538.46,-93 548.46,-89.5 538.46,-86 538.46,-93"/>
</a>
</g>
</g>
<!-- Node6 -->
<g id="Node000006" class="node">
<title>Node6</title>
<g id="a_Node000006"><a xlink:href="classLocation.html#ad9b9772b9d84be174e25a3c35f84702e" target="_top" xlink:title=" ">
<polygon fill="white" stroke="#666666" points="495,-56 370,-56 370,-37 495,-37 495,-56"/>
<text text-anchor="middle" x="432.5" y="-44" font-family="Helvetica,sans-Serif" font-size="10.00">Location::offset_latlng</text>
</a>
</g>
</g>
<!-- Node5&#45;&gt;Node6 -->
<g id="edge5_Node000005_Node000006" class="edge">
<title>Node5&#45;&gt;Node6</title>
<g id="a_edge5_Node000005_Node000006"><a xlink:title=" ">
<path fill="none" stroke="#63b8ff" d="M314.27,-46.5C328.36,-46.5 344.27,-46.5 359.72,-46.5"/>
<polygon fill="#63b8ff" stroke="#63b8ff" points="359.78,-50 369.78,-46.5 359.78,-43 359.78,-50"/>
</a>
</g>
</g>
<!-- Node6&#45;&gt;Node4 -->
<g id="edge7_Node000006_Node000004" class="edge">
<title>Node6&#45;&gt;Node4</title>
<g id="a_edge7_Node000006_Node000004"><a xlink:title=" ">
<path fill="none" stroke="#63b8ff" d="M471.01,-56.04C490.83,-61.09 515.71,-67.42 538.48,-73.21"/>
<polygon fill="#63b8ff" stroke="#63b8ff" points="537.87,-76.67 548.42,-75.74 539.6,-69.88 537.87,-76.67"/>
</a>
</g>
</g>
<!-- Node7 -->
<g id="Node000007" class="node">
<title>Node7</title>
<g id="a_Node000007"><a xlink:href="classLocation.html#a526b1e4735fe7dfcdc3cc9af638d017c" target="_top" xlink:title=" ">
<polygon fill="white" stroke="#666666" points="670,-56 537,-56 537,-37 670,-37 670,-56"/>
<text text-anchor="middle" x="603.5" y="-44" font-family="Helvetica,sans-Serif" font-size="10.00">Location::limit_lattitude</text>
</a>
</g>
</g>
<!-- Node6&#45;&gt;Node7 -->
<g id="edge6_Node000006_Node000007" class="edge">
<title>Node6&#45;&gt;Node7</title>
<g id="a_edge6_Node000006_Node000007"><a xlink:title=" ">
<path fill="none" stroke="#63b8ff" d="M495.47,-46.5C505.57,-46.5 516.14,-46.5 526.53,-46.5"/>
<polygon fill="#63b8ff" stroke="#63b8ff" points="526.84,-50 536.84,-46.5 526.84,-43 526.84,-50"/>
</a>
</g>
</g>
<!-- Node8 -->
<g id="Node000008" class="node">
<title>Node8</title>
<g id="a_Node000008"><a xlink:href="classLocation.html#a785b0c592d17ce62f33ca9c8281335c6" target="_top" xlink:title=" ">
<polygon fill="white" stroke="#666666" points="673,-19 534,-19 534,0 673,0 673,-19"/>
<text text-anchor="middle" x="603.5" y="-7" font-family="Helvetica,sans-Serif" font-size="10.00">Location::wrap_longitude</text>
</a>
</g>
</g>
<!-- Node6&#45;&gt;Node8 -->
<g id="edge8_Node000006_Node000008" class="edge">
<title>Node6&#45;&gt;Node8</title>
<g id="a_edge8_Node000006_Node000008"><a xlink:title=" ">
<path fill="none" stroke="#63b8ff" d="M477.02,-36.97C498.92,-32.18 525.65,-26.32 548.81,-21.25"/>
<polygon fill="#63b8ff" stroke="#63b8ff" points="549.81,-24.62 558.83,-19.06 548.32,-17.78 549.81,-24.62"/>
</a>
</g>
</g>
</g>
</svg>
