<?xml version="1.0" encoding="UTF-8" standalone="no"?>
<!DOCTYPE svg PUBLIC "-//W3C//DTD SVG 1.1//EN"
 "http://www.w3.org/Graphics/SVG/1.1/DTD/svg11.dtd">
<!-- Generated by graphviz version 2.43.0 (0)
 -->
<!-- Title: AP_RangeFinder_Backend_Serial::initial_baudrate Pages: 1 -->
<svg width="701pt" height="134pt"
 viewBox="0.00 0.00 701.00 134.00" xmlns="http://www.w3.org/2000/svg" xmlns:xlink="http://www.w3.org/1999/xlink">
<g id="graph0" class="graph" transform="scale(1 1) rotate(0) translate(4 130)">
<title>AP_RangeFinder_Backend_Serial::initial_baudrate</title>
<!-- Node1 -->
<g id="Node000001" class="node">
<title>Node1</title>
<g id="a_Node000001"><a xlink:title=" ">
<polygon fill="#999999" stroke="#666666" points="142,-54 0,-54 0,-24 142,-24 142,-54"/>
<text text-anchor="start" x="8" y="-42" font-family="Helvetica,sans-Serif" font-size="10.00">AP_RangeFinder_Backend</text>
<text text-anchor="middle" x="71" y="-31" font-family="Helvetica,sans-Serif" font-size="10.00">_Serial::initial_baudrate</text>
</a>
</g>
</g>
<!-- Node2 -->
<g id="Node000002" class="node">
<title>Node2</title>
<g id="a_Node000002"><a xlink:href="classAP__SerialManager.html#a5e363f0274897cdcf5a427d5bbe3eb51" target="_top" xlink:title=" ">
<polygon fill="white" stroke="#666666" points="307,-78 178,-78 178,-48 307,-48 307,-78"/>
<text text-anchor="start" x="186" y="-66" font-family="Helvetica,sans-Serif" font-size="10.00">AP_SerialManager::find</text>
<text text-anchor="middle" x="242.5" y="-55" font-family="Helvetica,sans-Serif" font-size="10.00">_baudrate</text>
</a>
</g>
</g>
<!-- Node1&#45;&gt;Node2 -->
<g id="edge1_Node000001_Node000002" class="edge">
<title>Node1&#45;&gt;Node2</title>
<g id="a_edge1_Node000001_Node000002"><a xlink:title=" ">
<path fill="none" stroke="#63b8ff" d="M142.41,-48.97C150.75,-50.15 159.29,-51.36 167.67,-52.55"/>
<polygon fill="#63b8ff" stroke="#63b8ff" points="167.42,-56.05 177.81,-53.98 168.4,-49.11 167.42,-56.05"/>
</a>
</g>
</g>
<!-- Node7 -->
<g id="Node000007" class="node">
<title>Node7</title>
<g id="a_Node000007"><a xlink:href="namespaceAP.html#aa01135941499a6cbb5fc30403fc24c65" target="_top" xlink:title=" ">
<polygon fill="white" stroke="#666666" points="295.5,-27.5 189.5,-27.5 189.5,-8.5 295.5,-8.5 295.5,-27.5"/>
<text text-anchor="middle" x="242.5" y="-15.5" font-family="Helvetica,sans-Serif" font-size="10.00">AP::serialmanager</text>
</a>
</g>
</g>
<!-- Node1&#45;&gt;Node7 -->
<g id="edge6_Node000001_Node000007" class="edge">
<title>Node1&#45;&gt;Node7</title>
<g id="a_edge6_Node000001_Node000007"><a xlink:title=" ">
<path fill="none" stroke="#63b8ff" d="M142.41,-30.28C154.7,-28.75 167.41,-27.18 179.46,-25.69"/>
<polygon fill="#63b8ff" stroke="#63b8ff" points="179.91,-29.16 189.4,-24.45 179.05,-22.21 179.91,-29.16"/>
</a>
</g>
</g>
<!-- Node3 -->
<g id="Node000003" class="node">
<title>Node3</title>
<g id="a_Node000003"><a xlink:href="classAP__SerialManager_1_1UARTState.html#aee9750efebe4d1500f059b9858d455b2" target="_top" xlink:title=" ">
<polygon fill="white" stroke="#666666" points="506,-126 343,-126 343,-96 506,-96 506,-126"/>
<text text-anchor="start" x="351" y="-114" font-family="Helvetica,sans-Serif" font-size="10.00">AP_SerialManager::UARTState</text>
<text text-anchor="middle" x="424.5" y="-103" font-family="Helvetica,sans-Serif" font-size="10.00">::baudrate</text>
</a>
</g>
</g>
<!-- Node2&#45;&gt;Node3 -->
<g id="edge2_Node000002_Node000003" class="edge">
<title>Node2&#45;&gt;Node3</title>
<g id="a_edge2_Node000002_Node000003"><a xlink:title=" ">
<path fill="none" stroke="#63b8ff" d="M299.96,-78.06C318.22,-82.93 338.63,-88.37 357.52,-93.41"/>
<polygon fill="#63b8ff" stroke="#63b8ff" points="356.68,-96.8 367.24,-96 358.48,-90.04 356.68,-96.8"/>
</a>
</g>
</g>
<!-- Node5 -->
<g id="Node000005" class="node">
<title>Node5</title>
<g id="a_Node000005"><a xlink:href="classAP__SerialManager.html#a073cb2777b00ddb4695dea07acc786d9" target="_top" xlink:title=" ">
<polygon fill="white" stroke="#666666" points="489,-78 360,-78 360,-48 489,-48 489,-78"/>
<text text-anchor="start" x="368" y="-66" font-family="Helvetica,sans-Serif" font-size="10.00">AP_SerialManager::find</text>
<text text-anchor="middle" x="424.5" y="-55" font-family="Helvetica,sans-Serif" font-size="10.00">_protocol_instance</text>
</a>
</g>
</g>
<!-- Node2&#45;&gt;Node5 -->
<g id="edge4_Node000002_Node000005" class="edge">
<title>Node2&#45;&gt;Node5</title>
<g id="a_edge4_Node000002_Node000005"><a xlink:title=" ">
<path fill="none" stroke="#63b8ff" d="M307.21,-63C320.97,-63 335.62,-63 349.72,-63"/>
<polygon fill="#63b8ff" stroke="#63b8ff" points="349.87,-66.5 359.87,-63 349.87,-59.5 349.87,-66.5"/>
</a>
</g>
</g>
<!-- Node4 -->
<g id="Node000004" class="node">
<title>Node4</title>
<g id="a_Node000004"><a xlink:href="classAP__SerialManager.html#acde2d1b826b0cad7017ecb39f60ae6f5" target="_top" xlink:title=" ">
<polygon fill="white" stroke="#666666" points="684,-126 551,-126 551,-96 684,-96 684,-126"/>
<text text-anchor="start" x="559" y="-114" font-family="Helvetica,sans-Serif" font-size="10.00">AP_SerialManager::map</text>
<text text-anchor="middle" x="617.5" y="-103" font-family="Helvetica,sans-Serif" font-size="10.00">_baudrate</text>
</a>
</g>
</g>
<!-- Node3&#45;&gt;Node4 -->
<g id="edge3_Node000003_Node000004" class="edge">
<title>Node3&#45;&gt;Node4</title>
<g id="a_edge3_Node000003_Node000004"><a xlink:title=" ">
<path fill="none" stroke="#63b8ff" d="M506.22,-111C517.61,-111 529.27,-111 540.56,-111"/>
<polygon fill="#63b8ff" stroke="#63b8ff" points="540.8,-114.5 550.8,-111 540.8,-107.5 540.8,-114.5"/>
</a>
</g>
</g>
<!-- Node6 -->
<g id="Node000006" class="node">
<title>Node6</title>
<g id="a_Node000006"><a xlink:href="classAP__SerialManager.html#aeecba06b097b0443637b7cf5349fdf68" target="_top" xlink:title=" ">
<polygon fill="white" stroke="#666666" points="693,-78 542,-78 542,-48 693,-48 693,-78"/>
<text text-anchor="start" x="550" y="-66" font-family="Helvetica,sans-Serif" font-size="10.00">AP_SerialManager::protocol</text>
<text text-anchor="middle" x="617.5" y="-55" font-family="Helvetica,sans-Serif" font-size="10.00">_match</text>
</a>
</g>
</g>
<!-- Node5&#45;&gt;Node6 -->
<g id="edge5_Node000005_Node000006" class="edge">
<title>Node5&#45;&gt;Node6</title>
<g id="a_edge5_Node000005_Node000006"><a xlink:title=" ">
<path fill="none" stroke="#63b8ff" d="M489.1,-63C502.72,-63 517.32,-63 531.6,-63"/>
<polygon fill="#63b8ff" stroke="#63b8ff" points="531.93,-66.5 541.93,-63 531.93,-59.5 531.93,-66.5"/>
</a>
</g>
</g>
<!-- Node8 -->
<g id="Node000008" class="node">
<title>Node8</title>
<g id="a_Node000008"><a xlink:href="classAP__SerialManager.html#ac8e4d24e9ff1fd9c10fcb751e4454479" target="_top" xlink:title=" ">
<polygon fill="white" stroke="#666666" points="488,-30 361,-30 361,0 488,0 488,-30"/>
<text text-anchor="start" x="369" y="-18" font-family="Helvetica,sans-Serif" font-size="10.00">AP_SerialManager::get</text>
<text text-anchor="middle" x="424.5" y="-7" font-family="Helvetica,sans-Serif" font-size="10.00">_singleton</text>
</a>
</g>
</g>
<!-- Node7&#45;&gt;Node8 -->
<g id="edge7_Node000007_Node000008" class="edge">
<title>Node7&#45;&gt;Node8</title>
<g id="a_edge7_Node000007_Node000008"><a xlink:title=" ">
<path fill="none" stroke="#63b8ff" d="M295.56,-17.13C312.73,-16.85 332.16,-16.52 350.59,-16.22"/>
<polygon fill="#63b8ff" stroke="#63b8ff" points="350.77,-19.71 360.71,-16.05 350.65,-12.71 350.77,-19.71"/>
</a>
</g>
</g>
</g>
</svg>
