<?xml version="1.0" encoding="UTF-8" standalone="no"?>
<!DOCTYPE svg PUBLIC "-//W3C//DTD SVG 1.1//EN"
 "http://www.w3.org/Graphics/SVG/1.1/DTD/svg11.dtd">
<!-- Generated by graphviz version 2.43.0 (0)
 -->
<!-- Title: AP_Logger_W25N01GV::WaitReady Pages: 1 -->
<!--zoomable 268 -->

<svg id="main" version="1.1" xmlns="http://www.w3.org/2000/svg" xmlns:xlink="http://www.w3.org/1999/xlink" xml:space="preserve" onload="init(evt)">
<style type="text/css"><![CDATA[
.node, .edge {opacity: 0.7;}
.node.selected, .edge.selected {opacity: 1;}
.edge:hover path { stroke: red; }
.edge:hover polygon { stroke: red; fill: red; }
]]></style>

<defs>
  <circle id="rim" cx="0" cy="0" r="7"/>
  <circle id="rim2" cx="0" cy="0" r="3.5"/>
  <g id="zoomPlus">
    <use xlink:href="#rim" fill="#404040"><set attributeName="fill" to="#808080" begin="zoomplus.mouseover" end="zoomplus.mouseout"/></use>
    <path d="M-4,0h8M0,-4v8" fill="none" stroke="white" stroke-width="1.5" pointer-events="none"/>
  </g>
  <g id="zoomMin">
    <use xlink:href="#rim" fill="#404040"><set attributeName="fill" to="#808080" begin="zoomminus.mouseover" end="zoomminus.mouseout"/></use>
    <path d="M-4,0h8" fill="none" stroke="white" stroke-width="1.5" pointer-events="none"/>
  </g>
  <g id="arrowUp" transform="translate(30 24)">
    <use xlink:href="#rim"/>
    <path pointer-events="none" fill="none" stroke="white" stroke-width="1.5" d="M0,-3.0v7 M-2.5,-0.5L0,-3.0L2.5,-0.5"/>
  </g>
  <g id="arrowRight" transform="rotate(90) translate(36 -43)">
    <use xlink:href="#rim"/>
    <path pointer-events="none" fill="none" stroke="white" stroke-width="1.5" d="M0,-3.0v7 M-2.5,-0.5L0,-3.0L2.5,-0.5"/>
  </g>
  <g id="arrowDown" transform="rotate(180) translate(-30 -48)">
    <use xlink:href="#rim"/>
    <path pointer-events="none" fill="none" stroke="white" stroke-width="1.5" d="M0,-3.0v7 M-2.5,-0.5L0,-3.0L2.5,-0.5"/>
  </g>
  <g id="arrowLeft" transform="rotate(270) translate(-36 17)">
    <use xlink:href="#rim"/>
    <path pointer-events="none" fill="none" stroke="white" stroke-width="1.5" d="M0,-3.0v7 M-2.5,-0.5L0,-3.0L2.5,-0.5"/>
  </g>
  <g id="resetDef">
    <use xlink:href="#rim2" fill="#404040"><set attributeName="fill" to="#808080" begin="reset.mouseover" end="reset.mouseout"/></use>
  </g>
</defs>
<script type="application/ecmascript">
var viewWidth = 628;
var viewHeight = 268;
var sectionId = 'dynsection-21';
</script>
<script type="application/ecmascript" xlink:href="svg.min.js"/>
<svg id="graph" class="graph">
<g id="viewport">
<title>AP_Logger_W25N01GV::WaitReady</title>
<!-- Node1 -->
<g id="Node000001" class="node">
<title>Node1</title>
<g id="a_Node000001"><a xlink:title=" ">
<polygon fill="#999999" stroke="#666666" points="620,-174 492,-174 492,-144 620,-144 620,-174"/>
<text text-anchor="start" x="500" y="-162" font-family="Helvetica,sans-Serif" font-size="10.00">AP_Logger_W25N01GV</text>
<text text-anchor="middle" x="556" y="-151" font-family="Helvetica,sans-Serif" font-size="10.00">::WaitReady</text>
</a>
</g>
</g>
<!-- Node2 -->
<g id="Node000002" class="node">
<title>Node2</title>
<g id="a_Node000002"><a xlink:href="classAP__Logger__W25N01GV.html#aaaaa7340b6c113bcf9d3f436cbd4bc74" target="_top" xlink:title=" ">
<polygon fill="white" stroke="#666666" points="456,-260 328,-260 328,-230 456,-230 456,-260"/>
<text text-anchor="start" x="336" y="-248" font-family="Helvetica,sans-Serif" font-size="10.00">AP_Logger_W25N01GV</text>
<text text-anchor="middle" x="392" y="-237" font-family="Helvetica,sans-Serif" font-size="10.00">::getSectorCount</text>
</a>
</g>
</g>
<!-- Node1&#45;&gt;Node2 -->
<g id="edge1_Node000001_Node000002" class="edge">
<title>Node1&#45;&gt;Node2</title>
<g id="a_edge1_Node000001_Node000002"><a xlink:title=" ">
<path fill="none" stroke="#63b8ff" d="M521.27,-179.44C502.33,-190.66 478.11,-204.58 456,-216 446.8,-220.75 436.67,-225.59 427.28,-229.91"/>
<polygon fill="#63b8ff" stroke="#63b8ff" points="523.32,-182.29 530.12,-174.17 519.74,-176.28 523.32,-182.29"/>
</a>
</g>
</g>
<!-- Node3 -->
<g id="Node000003" class="node">
<title>Node3</title>
<g id="a_Node000003"><a xlink:href="classAP__Logger__W25N01GV.html#a055dfde9685848d3a6476877f23e6d86" target="_top" xlink:title=" ">
<polygon fill="white" stroke="#666666" points="292,-217 164,-217 164,-187 292,-187 292,-217"/>
<text text-anchor="start" x="172" y="-205" font-family="Helvetica,sans-Serif" font-size="10.00">AP_Logger_W25N01GV</text>
<text text-anchor="middle" x="228" y="-194" font-family="Helvetica,sans-Serif" font-size="10.00">::Init</text>
</a>
</g>
</g>
<!-- Node1&#45;&gt;Node3 -->
<g id="edge3_Node000001_Node000003" class="edge">
<title>Node1&#45;&gt;Node3</title>
<g id="a_edge3_Node000001_Node000003"><a xlink:title=" ">
<path fill="none" stroke="#63b8ff" d="M489.47,-176.39C478.36,-178.9 466.89,-181.23 456,-183 401.15,-191.89 338.13,-196.74 292.43,-199.32"/>
<polygon fill="#63b8ff" stroke="#63b8ff" points="490.6,-179.72 499.55,-174.04 489.01,-172.9 490.6,-179.72"/>
</a>
</g>
</g>
<!-- Node4 -->
<g id="Node000004" class="node">
<title>Node4</title>
<g id="a_Node000004"><a xlink:href="classAP__Logger__W25N01GV.html#a904b8b96ecc412ae8a721dcc6ebf66b5" target="_top" xlink:title=" ">
<polygon fill="white" stroke="#666666" points="456,-174 328,-174 328,-144 456,-144 456,-174"/>
<text text-anchor="start" x="336" y="-162" font-family="Helvetica,sans-Serif" font-size="10.00">AP_Logger_W25N01GV</text>
<text text-anchor="middle" x="392" y="-151" font-family="Helvetica,sans-Serif" font-size="10.00">::PageToBuffer</text>
</a>
</g>
</g>
<!-- Node1&#45;&gt;Node4 -->
<g id="edge4_Node000001_Node000004" class="edge">
<title>Node1&#45;&gt;Node4</title>
<g id="a_edge4_Node000001_Node000004"><a xlink:title=" ">
<path fill="none" stroke="#63b8ff" d="M481.63,-159C473.14,-159 464.53,-159 456.19,-159"/>
<polygon fill="#63b8ff" stroke="#63b8ff" points="481.9,-162.5 491.9,-159 481.9,-155.5 481.9,-162.5"/>
</a>
</g>
</g>
<!-- Node5 -->
<g id="Node000005" class="node">
<title>Node5</title>
<g id="a_Node000005"><a xlink:href="classAP__Logger__W25N01GV.html#a1e6127ae46e486f0c6172d2702e19503" target="_top" xlink:title=" ">
<polygon fill="white" stroke="#666666" points="456,-78 328,-78 328,-48 456,-48 456,-78"/>
<text text-anchor="start" x="336" y="-66" font-family="Helvetica,sans-Serif" font-size="10.00">AP_Logger_W25N01GV</text>
<text text-anchor="middle" x="392" y="-55" font-family="Helvetica,sans-Serif" font-size="10.00">::WriteEnable</text>
</a>
</g>
</g>
<!-- Node1&#45;&gt;Node5 -->
<g id="edge5_Node000001_Node000005" class="edge">
<title>Node1&#45;&gt;Node5</title>
<g id="a_edge5_Node000001_Node000005"><a xlink:title=" ">
<path fill="none" stroke="#63b8ff" d="M529.37,-137.43C510.09,-121.95 482.53,-101.37 456,-87 450.03,-83.77 443.53,-80.77 437.05,-78.06"/>
<polygon fill="#63b8ff" stroke="#63b8ff" points="527.39,-140.33 537.36,-143.93 531.81,-134.9 527.39,-140.33"/>
</a>
</g>
</g>
<!-- Node11 -->
<g id="Node000011" class="node">
<title>Node11</title>
<g id="a_Node000011"><a xlink:href="classAP__Logger__W25N01GV.html#ab986a9c816416b9ae6bbed8728a736d4" target="_top" xlink:title=" ">
<polygon fill="white" stroke="#666666" points="456,-126 328,-126 328,-96 456,-96 456,-126"/>
<text text-anchor="start" x="336" y="-114" font-family="Helvetica,sans-Serif" font-size="10.00">AP_Logger_W25N01GV</text>
<text text-anchor="middle" x="392" y="-103" font-family="Helvetica,sans-Serif" font-size="10.00">::WriteStatusReg</text>
</a>
</g>
</g>
<!-- Node1&#45;&gt;Node11 -->
<g id="edge11_Node000001_Node000011" class="edge">
<title>Node1&#45;&gt;Node11</title>
<g id="a_edge11_Node000001_Node000011"><a xlink:title=" ">
<path fill="none" stroke="#63b8ff" d="M494.5,-141.07C477.75,-136.11 459.75,-130.78 443.63,-126"/>
<polygon fill="#63b8ff" stroke="#63b8ff" points="493.6,-144.46 504.19,-143.94 495.59,-137.75 493.6,-144.46"/>
</a>
</g>
</g>
<!-- Node2&#45;&gt;Node3 -->
<g id="edge2_Node000002_Node000003" class="edge">
<title>Node2&#45;&gt;Node3</title>
<g id="a_edge2_Node000002_Node000003"><a xlink:title=" ">
<path fill="none" stroke="#63b8ff" d="M324.58,-227.37C311.65,-223.94 298.2,-220.37 285.63,-217.03"/>
<polygon fill="#63b8ff" stroke="#63b8ff" points="323.78,-230.78 334.34,-229.96 325.57,-224.01 323.78,-230.78"/>
</a>
</g>
</g>
<!-- Node6 -->
<g id="Node000006" class="node">
<title>Node6</title>
<g id="a_Node000006"><a xlink:href="classAP__Logger__W25N01GV.html#a6b311526d9e27369d2c2b7ec1d4235e1" target="_top" xlink:title=" ">
<polygon fill="white" stroke="#666666" points="292,-126 164,-126 164,-96 292,-96 292,-126"/>
<text text-anchor="start" x="172" y="-114" font-family="Helvetica,sans-Serif" font-size="10.00">AP_Logger_W25N01GV</text>
<text text-anchor="middle" x="228" y="-103" font-family="Helvetica,sans-Serif" font-size="10.00">::BufferToPage</text>
</a>
</g>
</g>
<!-- Node5&#45;&gt;Node6 -->
<g id="edge6_Node000005_Node000006" class="edge">
<title>Node5&#45;&gt;Node6</title>
<g id="a_edge6_Node000005_Node000006"><a xlink:title=" ">
<path fill="none" stroke="#63b8ff" d="M330.5,-80.93C313.75,-85.89 295.75,-91.22 279.63,-96"/>
<polygon fill="#63b8ff" stroke="#63b8ff" points="331.59,-84.25 340.19,-78.06 329.6,-77.54 331.59,-84.25"/>
</a>
</g>
</g>
<!-- Node7 -->
<g id="Node000007" class="node">
<title>Node7</title>
<g id="a_Node000007"><a xlink:href="classAP__Logger__W25N01GV.html#af94188793bb0758b976a0fe79f572e67" target="_top" xlink:title=" ">
<polygon fill="white" stroke="#666666" points="292,-78 164,-78 164,-48 292,-48 292,-78"/>
<text text-anchor="start" x="172" y="-66" font-family="Helvetica,sans-Serif" font-size="10.00">AP_Logger_W25N01GV</text>
<text text-anchor="middle" x="228" y="-55" font-family="Helvetica,sans-Serif" font-size="10.00">::SectorErase</text>
</a>
</g>
</g>
<!-- Node5&#45;&gt;Node7 -->
<g id="edge7_Node000005_Node000007" class="edge">
<title>Node5&#45;&gt;Node7</title>
<g id="a_edge7_Node000005_Node000007"><a xlink:title=" ">
<path fill="none" stroke="#63b8ff" d="M317.63,-63C309.14,-63 300.53,-63 292.19,-63"/>
<polygon fill="#63b8ff" stroke="#63b8ff" points="317.9,-66.5 327.9,-63 317.9,-59.5 317.9,-66.5"/>
</a>
</g>
</g>
<!-- Node10 -->
<g id="Node000010" class="node">
<title>Node10</title>
<g id="a_Node000010"><a xlink:href="classAP__Logger__W25N01GV.html#a743642b5006b0b879beebb5fc74a26ad" target="_top" xlink:title=" ">
<polygon fill="white" stroke="#666666" points="292,-30 164,-30 164,0 292,0 292,-30"/>
<text text-anchor="start" x="172" y="-18" font-family="Helvetica,sans-Serif" font-size="10.00">AP_Logger_W25N01GV</text>
<text text-anchor="middle" x="228" y="-7" font-family="Helvetica,sans-Serif" font-size="10.00">::StartErase</text>
</a>
</g>
</g>
<!-- Node5&#45;&gt;Node10 -->
<g id="edge10_Node000005_Node000010" class="edge">
<title>Node5&#45;&gt;Node10</title>
<g id="a_edge10_Node000005_Node000010"><a xlink:title=" ">
<path fill="none" stroke="#63b8ff" d="M330.5,-45.07C313.75,-40.11 295.75,-34.78 279.63,-30"/>
<polygon fill="#63b8ff" stroke="#63b8ff" points="329.6,-48.46 340.19,-47.94 331.59,-41.75 329.6,-48.46"/>
</a>
</g>
</g>
<!-- Node8 -->
<g id="Node000008" class="node">
<title>Node8</title>
<g id="a_Node000008"><a xlink:href="classAP__Logger__W25N01GV.html#a1d3a8965031410efd70944b74d9d0041" target="_top" xlink:title=" ">
<polygon fill="white" stroke="#666666" points="128,-102 0,-102 0,-72 128,-72 128,-102"/>
<text text-anchor="start" x="8" y="-90" font-family="Helvetica,sans-Serif" font-size="10.00">AP_Logger_W25N01GV</text>
<text text-anchor="middle" x="64" y="-79" font-family="Helvetica,sans-Serif" font-size="10.00">::InErase</text>
</a>
</g>
</g>
<!-- Node7&#45;&gt;Node8 -->
<g id="edge8_Node000007_Node000008" class="edge">
<title>Node7&#45;&gt;Node8</title>
<g id="a_edge8_Node000007_Node000008"><a xlink:title=" ">
<path fill="none" stroke="#63b8ff" d="M153.91,-73.83C145.32,-75.1 136.62,-76.39 128.19,-77.64"/>
<polygon fill="#63b8ff" stroke="#63b8ff" points="154.52,-77.28 163.9,-72.35 153.5,-70.35 154.52,-77.28"/>
</a>
</g>
</g>
<!-- Node9 -->
<g id="Node000009" class="node">
<title>Node9</title>
<g id="a_Node000009"><a xlink:href="classAP__Logger__W25N01GV.html#a3ea4b754c2eff0f1046973d6eaf6c210" target="_top" xlink:title=" ">
<polygon fill="white" stroke="#666666" points="128,-54 0,-54 0,-24 128,-24 128,-54"/>
<text text-anchor="start" x="8" y="-42" font-family="Helvetica,sans-Serif" font-size="10.00">AP_Logger_W25N01GV</text>
<text text-anchor="middle" x="64" y="-31" font-family="Helvetica,sans-Serif" font-size="10.00">::Sector4kErase</text>
</a>
</g>
</g>
<!-- Node7&#45;&gt;Node9 -->
<g id="edge9_Node000007_Node000009" class="edge">
<title>Node7&#45;&gt;Node9</title>
<g id="a_edge9_Node000007_Node000009"><a xlink:title=" ">
<path fill="none" stroke="#63b8ff" d="M153.91,-52.17C145.32,-50.9 136.62,-49.61 128.19,-48.36"/>
<polygon fill="#63b8ff" stroke="#63b8ff" points="153.5,-55.65 163.9,-53.65 154.52,-48.72 153.5,-55.65"/>
</a>
</g>
</g>
<!-- Node11&#45;&gt;Node3 -->
<g id="edge12_Node000011_Node000003" class="edge">
<title>Node11&#45;&gt;Node3</title>
<g id="a_edge12_Node000011_Node000003"><a xlink:title=" ">
<path fill="none" stroke="#63b8ff" d="M338.12,-130.1C334.66,-131.67 331.25,-133.31 328,-135 298.72,-150.22 267.62,-172.38 248.26,-186.99"/>
<polygon fill="#63b8ff" stroke="#63b8ff" points="339.59,-133.28 347.38,-126.1 336.81,-126.85 339.59,-133.28"/>
</a>
</g>
</g>
</g>
</svg>

<g id="navigator" transform="translate(0 0)" fill="#404254">
  <rect fill="#f2f5e9" fill-opacity="0.5" stroke="#606060" stroke-width=".5" x="0" y="0" width="60" height="60"/>
  <use id="zoomplus" xlink:href="#zoomPlus" x="17" y="9" onmousedown="handleZoom(evt,'in')"/>
  <use id="zoomminus" xlink:href="#zoomMin" x="42" y="9" onmousedown="handleZoom(evt,'out')"/>
  <use id="reset" xlink:href="#resetDef" x="30" y="36" onmousedown="handleReset()"/>
   <use id="arrowup" xlink:href="#arrowUp" x="0" y="0" onmousedown="handlePan(0,-1)"/>
  <use id="arrowright" xlink:href="#arrowRight" x="0" y="0" onmousedown="handlePan(1,0)"/>
  <use id="arrowdown" xlink:href="#arrowDown" x="0" y="0" onmousedown="handlePan(0,1)"/>
  <use id="arrowleft" xlink:href="#arrowLeft" x="0" y="0" onmousedown="handlePan(-1,0)"/>
</g>
<svg viewBox="0 0 15 15" width="100%" height="30px" preserveAspectRatio="xMaxYMin meet">
 <g id="arrow_out" transform="scale(0.3 0.3)">
  <a xlink:href="classAP__Logger__W25N01GV_a17fc380bde0597ee7c4680df01c023bc_icgraph_org.svg" target="_base">
   <rect id="button" ry="5" rx="5" y="6" x="6" height="38" width="38"
        fill="#f2f5e9" fill-opacity="0.5" stroke="#606060" stroke-width="1.0"/>
   <path id="arrow"
     d="M 11.500037,31.436501 C 11.940474,20.09759 22.043105,11.32322 32.158766,21.979434 L 37.068811,17.246167 C 37.068811,17.246167 37.088388,32 37.088388,32 L 22.160133,31.978069 C 22.160133,31.978069 26.997745,27.140456 26.997745,27.140456 C 18.528582,18.264221 13.291696,25.230495 11.500037,31.436501 z"
     style="fill:#404040;"/>
  </a>
 </g>
</svg>

<style type='text/css'>
<![CDATA[
[data-mouse-over-selected='false'] { opacity: 0.7; }
[data-mouse-over-selected='true']  { opacity: 1.0; }
]]>
</style>
<script type="application/ecmascript"><![CDATA[
document.addEventListener('DOMContentLoaded', (event) => {
  highlightEdges();
  highlightAdjacentNodes();
});
]]></script>
</svg>
