<?xml version="1.0" encoding="UTF-8" standalone="no"?>
<!DOCTYPE svg PUBLIC "-//W3C//DTD SVG 1.1//EN"
 "http://www.w3.org/Graphics/SVG/1.1/DTD/svg11.dtd">
<!-- Generated by graphviz version 2.43.0 (0)
 -->
<!-- Title: AP_Motors::add_motor_num Pages: 1 -->
<!--zoomable 294 -->

<svg id="main" version="1.1" xmlns="http://www.w3.org/2000/svg" xmlns:xlink="http://www.w3.org/1999/xlink" xml:space="preserve" onload="init(evt)">
<style type="text/css"><![CDATA[
.node, .edge {opacity: 0.7;}
.node.selected, .edge.selected {opacity: 1;}
.edge:hover path { stroke: red; }
.edge:hover polygon { stroke: red; fill: red; }
]]></style>

<defs>
  <circle id="rim" cx="0" cy="0" r="7"/>
  <circle id="rim2" cx="0" cy="0" r="3.5"/>
  <g id="zoomPlus">
    <use xlink:href="#rim" fill="#404040"><set attributeName="fill" to="#808080" begin="zoomplus.mouseover" end="zoomplus.mouseout"/></use>
    <path d="M-4,0h8M0,-4v8" fill="none" stroke="white" stroke-width="1.5" pointer-events="none"/>
  </g>
  <g id="zoomMin">
    <use xlink:href="#rim" fill="#404040"><set attributeName="fill" to="#808080" begin="zoomminus.mouseover" end="zoomminus.mouseout"/></use>
    <path d="M-4,0h8" fill="none" stroke="white" stroke-width="1.5" pointer-events="none"/>
  </g>
  <g id="arrowUp" transform="translate(30 24)">
    <use xlink:href="#rim"/>
    <path pointer-events="none" fill="none" stroke="white" stroke-width="1.5" d="M0,-3.0v7 M-2.5,-0.5L0,-3.0L2.5,-0.5"/>
  </g>
  <g id="arrowRight" transform="rotate(90) translate(36 -43)">
    <use xlink:href="#rim"/>
    <path pointer-events="none" fill="none" stroke="white" stroke-width="1.5" d="M0,-3.0v7 M-2.5,-0.5L0,-3.0L2.5,-0.5"/>
  </g>
  <g id="arrowDown" transform="rotate(180) translate(-30 -48)">
    <use xlink:href="#rim"/>
    <path pointer-events="none" fill="none" stroke="white" stroke-width="1.5" d="M0,-3.0v7 M-2.5,-0.5L0,-3.0L2.5,-0.5"/>
  </g>
  <g id="arrowLeft" transform="rotate(270) translate(-36 17)">
    <use xlink:href="#rim"/>
    <path pointer-events="none" fill="none" stroke="white" stroke-width="1.5" d="M0,-3.0v7 M-2.5,-0.5L0,-3.0L2.5,-0.5"/>
  </g>
  <g id="resetDef">
    <use xlink:href="#rim2" fill="#404040"><set attributeName="fill" to="#808080" begin="reset.mouseover" end="reset.mouseout"/></use>
  </g>
</defs>
<script type="application/ecmascript">
var viewWidth = 1225;
var viewHeight = 294;
var sectionId = 'dynsection-6';
</script>
<script type="application/ecmascript" xlink:href="svg.min.js"/>
<svg id="graph" class="graph">
<g id="viewport">
<title>AP_Motors::add_motor_num</title>
<!-- Node1 -->
<g id="Node000001" class="node">
<title>Node1</title>
<g id="a_Node000001"><a xlink:title=" ">
<polygon fill="#999999" stroke="#666666" points="1217,-133.5 1063,-133.5 1063,-114.5 1217,-114.5 1217,-133.5"/>
<text text-anchor="middle" x="1140" y="-121.5" font-family="Helvetica,sans-Serif" font-size="10.00">AP_Motors::add_motor_num</text>
</a>
</g>
</g>
<!-- Node2 -->
<g id="Node000002" class="node">
<title>Node2</title>
<g id="a_Node000002"><a xlink:href="classAP__MotorsMatrix.html#a81e02421fa8fe6e51d4dcac257ea6bb3" target="_top" xlink:title=" ">
<polygon fill="white" stroke="#666666" points="1027,-238 903,-238 903,-208 1027,-208 1027,-238"/>
<text text-anchor="start" x="911" y="-226" font-family="Helvetica,sans-Serif" font-size="10.00">AP_MotorsMatrix::add</text>
<text text-anchor="middle" x="965" y="-215" font-family="Helvetica,sans-Serif" font-size="10.00">_motor_raw</text>
</a>
</g>
</g>
<!-- Node1&#45;&gt;Node2 -->
<g id="edge1_Node000001_Node000002" class="edge">
<title>Node1&#45;&gt;Node2</title>
<g id="a_edge1_Node000001_Node000002"><a xlink:title=" ">
<path fill="none" stroke="#63b8ff" d="M1118.26,-139.88C1096.39,-156.14 1060.53,-181.44 1027,-199 1020.95,-202.17 1014.39,-205.17 1007.88,-207.91"/>
<polygon fill="#63b8ff" stroke="#63b8ff" points="1120.56,-142.53 1126.46,-133.72 1116.36,-136.93 1120.56,-142.53"/>
</a>
</g>
</g>
<!-- Node16 -->
<g id="Node000016" class="node">
<title>Node16</title>
<g id="a_Node000016"><a xlink:href="classAP__MotorsCoax.html#af766071641562a325694443bc58a84f9" target="_top" xlink:title=" ">
<polygon fill="white" stroke="#666666" points="1022.5,-189.5 907.5,-189.5 907.5,-170.5 1022.5,-170.5 1022.5,-189.5"/>
<text text-anchor="middle" x="965" y="-177.5" font-family="Helvetica,sans-Serif" font-size="10.00">AP_MotorsCoax::init</text>
</a>
</g>
</g>
<!-- Node1&#45;&gt;Node16 -->
<g id="edge18_Node000001_Node000016" class="edge">
<title>Node1&#45;&gt;Node16</title>
<g id="a_edge18_Node000001_Node000016"><a xlink:title=" ">
<path fill="none" stroke="#63b8ff" d="M1102.41,-136.83C1080.58,-144.38 1052.29,-153.98 1027,-162 1018.05,-164.84 1008.32,-167.77 999.32,-170.43"/>
<polygon fill="#63b8ff" stroke="#63b8ff" points="1103.64,-140.11 1111.94,-133.52 1101.35,-133.49 1103.64,-140.11"/>
</a>
</g>
</g>
<!-- Node17 -->
<g id="Node000017" class="node">
<title>Node17</title>
<g id="a_Node000017"><a xlink:href="classAP__MotorsSingle.html#a3bb4cd64c62c263562b6b6468e8c35d9" target="_top" xlink:title=" ">
<polygon fill="white" stroke="#666666" points="1025,-152.5 905,-152.5 905,-133.5 1025,-133.5 1025,-152.5"/>
<text text-anchor="middle" x="965" y="-140.5" font-family="Helvetica,sans-Serif" font-size="10.00">AP_MotorsSingle::init</text>
</a>
</g>
</g>
<!-- Node1&#45;&gt;Node17 -->
<g id="edge19_Node000001_Node000017" class="edge">
<title>Node1&#45;&gt;Node17</title>
<g id="a_edge19_Node000001_Node000017"><a xlink:title=" ">
<path fill="none" stroke="#63b8ff" d="M1052.71,-133.48C1043.33,-134.51 1033.95,-135.54 1025,-136.52"/>
<polygon fill="#63b8ff" stroke="#63b8ff" points="1053.31,-136.93 1062.87,-132.36 1052.55,-129.97 1053.31,-136.93"/>
</a>
</g>
</g>
<!-- Node18 -->
<g id="Node000018" class="node">
<title>Node18</title>
<g id="a_Node000018"><a xlink:href="classAP__MotorsTri.html#adacd9f3694be635672054ce1accf0f1c" target="_top" xlink:title=" ">
<polygon fill="white" stroke="#666666" points="1015.5,-115.5 914.5,-115.5 914.5,-96.5 1015.5,-96.5 1015.5,-115.5"/>
<text text-anchor="middle" x="965" y="-103.5" font-family="Helvetica,sans-Serif" font-size="10.00">AP_MotorsTri::init</text>
</a>
</g>
</g>
<!-- Node1&#45;&gt;Node18 -->
<g id="edge20_Node000001_Node000018" class="edge">
<title>Node1&#45;&gt;Node18</title>
<g id="a_edge20_Node000001_Node000018"><a xlink:title=" ">
<path fill="none" stroke="#63b8ff" d="M1052.73,-115.02C1040.06,-113.71 1027.38,-112.39 1015.78,-111.18"/>
<polygon fill="#63b8ff" stroke="#63b8ff" points="1052.56,-118.52 1062.87,-116.08 1053.28,-111.56 1052.56,-118.52"/>
</a>
</g>
</g>
<!-- Node19 -->
<g id="Node000019" class="node">
<title>Node19</title>
<g id="a_Node000019"><a xlink:href="classAP__MotorsHeli__Quad.html#ac9b61f96a5a031c67bf7ff0d36ebb709" target="_top" xlink:title=" ">
<polygon fill="white" stroke="#666666" points="1024.5,-78 905.5,-78 905.5,-48 1024.5,-48 1024.5,-78"/>
<text text-anchor="start" x="913.5" y="-66" font-family="Helvetica,sans-Serif" font-size="10.00">AP_MotorsHeli_Quad</text>
<text text-anchor="middle" x="965" y="-55" font-family="Helvetica,sans-Serif" font-size="10.00">::init_outputs</text>
</a>
</g>
</g>
<!-- Node1&#45;&gt;Node19 -->
<g id="edge21_Node000001_Node000019" class="edge">
<title>Node1&#45;&gt;Node19</title>
<g id="a_edge21_Node000001_Node000019"><a xlink:title=" ">
<path fill="none" stroke="#63b8ff" d="M1102.37,-111.08C1074.96,-101.42 1037.41,-88.18 1008.65,-78.04"/>
<polygon fill="#63b8ff" stroke="#63b8ff" points="1101.37,-114.44 1111.97,-114.47 1103.7,-107.84 1101.37,-114.44"/>
</a>
</g>
</g>
<!-- Node20 -->
<g id="Node000020" class="node">
<title>Node20</title>
<g id="a_Node000020"><a xlink:href="classAP__MotorsHeli__Single.html#a56c0ecfa4da1c04ba4d1a256bd56f193" target="_top" xlink:title=" ">
<polygon fill="white" stroke="#666666" points="1026.5,-30 903.5,-30 903.5,0 1026.5,0 1026.5,-30"/>
<text text-anchor="start" x="911.5" y="-18" font-family="Helvetica,sans-Serif" font-size="10.00">AP_MotorsHeli_Single</text>
<text text-anchor="middle" x="965" y="-7" font-family="Helvetica,sans-Serif" font-size="10.00">::init_outputs</text>
</a>
</g>
</g>
<!-- Node1&#45;&gt;Node20 -->
<g id="edge22_Node000001_Node000020" class="edge">
<title>Node1&#45;&gt;Node20</title>
<g id="a_edge22_Node000001_Node000020"><a xlink:title=" ">
<path fill="none" stroke="#63b8ff" d="M1120.97,-107.81C1099.7,-89.32 1062.69,-59.06 1027,-39 1021.25,-35.77 1014.97,-32.77 1008.7,-30.06"/>
<polygon fill="#63b8ff" stroke="#63b8ff" points="1118.75,-110.52 1128.57,-114.49 1123.37,-105.26 1118.75,-110.52"/>
</a>
</g>
</g>
<!-- Node3 -->
<g id="Node000003" class="node">
<title>Node3</title>
<g id="a_Node000003"><a xlink:href="classAP__MotorsMatrix.html#acee5f69304786deff28075ae14eb6a46" target="_top" xlink:title=" ">
<polygon fill="white" stroke="#666666" points="867,-286 743,-286 743,-256 867,-256 867,-286"/>
<text text-anchor="start" x="751" y="-274" font-family="Helvetica,sans-Serif" font-size="10.00">AP_MotorsMatrix::add</text>
<text text-anchor="middle" x="805" y="-263" font-family="Helvetica,sans-Serif" font-size="10.00">_motor</text>
</a>
</g>
</g>
<!-- Node2&#45;&gt;Node3 -->
<g id="edge2_Node000002_Node000003" class="edge">
<title>Node2&#45;&gt;Node3</title>
<g id="a_edge2_Node000002_Node000003"><a xlink:title=" ">
<path fill="none" stroke="#63b8ff" d="M904.53,-241.07C888.33,-245.99 870.96,-251.27 855.38,-256"/>
<polygon fill="#63b8ff" stroke="#63b8ff" points="905.89,-244.31 914.44,-238.06 903.86,-237.61 905.89,-244.31"/>
</a>
</g>
</g>
<!-- Node4 -->
<g id="Node000004" class="node">
<title>Node4</title>
<g id="a_Node000004"><a xlink:href="classAP__Motors6DOF.html#ac454275ad3ea3fc58279921e7fccd487" target="_top" xlink:title=" ">
<polygon fill="white" stroke="#666666" points="864.5,-238 745.5,-238 745.5,-208 864.5,-208 864.5,-238"/>
<text text-anchor="start" x="753.5" y="-226" font-family="Helvetica,sans-Serif" font-size="10.00">AP_Motors6DOF::add</text>
<text text-anchor="middle" x="805" y="-215" font-family="Helvetica,sans-Serif" font-size="10.00">_motor_raw_6dof</text>
</a>
</g>
</g>
<!-- Node2&#45;&gt;Node4 -->
<g id="edge3_Node000002_Node000004" class="edge">
<title>Node2&#45;&gt;Node4</title>
<g id="a_edge3_Node000002_Node000004"><a xlink:title=" ">
<path fill="none" stroke="#63b8ff" d="M892.77,-223C883.34,-223 873.77,-223 864.59,-223"/>
<polygon fill="#63b8ff" stroke="#63b8ff" points="892.91,-226.5 902.91,-223 892.91,-219.5 892.91,-226.5"/>
</a>
</g>
</g>
<!-- Node6 -->
<g id="Node000006" class="node">
<title>Node6</title>
<g id="a_Node000006"><a xlink:href="classAP__MotorsMatrix.html#a74e8c3d874843d2d7681d0f265642b81" target="_top" xlink:title=" ">
<polygon fill="white" stroke="#666666" points="867,-166 743,-166 743,-136 867,-136 867,-166"/>
<text text-anchor="start" x="751" y="-154" font-family="Helvetica,sans-Serif" font-size="10.00">AP_MotorsMatrix::add</text>
<text text-anchor="middle" x="805" y="-143" font-family="Helvetica,sans-Serif" font-size="10.00">_motors_raw</text>
</a>
</g>
</g>
<!-- Node2&#45;&gt;Node6 -->
<g id="edge5_Node000002_Node000006" class="edge">
<title>Node2&#45;&gt;Node6</title>
<g id="a_edge5_Node000002_Node000006"><a xlink:title=" ">
<path fill="none" stroke="#63b8ff" d="M914.95,-204.12C910.89,-202.43 906.86,-200.71 903,-199 879.81,-188.72 854.1,-175.94 834.98,-166.14"/>
<polygon fill="#63b8ff" stroke="#63b8ff" points="913.84,-207.45 924.42,-207.99 916.49,-200.97 913.84,-207.45"/>
</a>
</g>
</g>
<!-- Node5 -->
<g id="Node000005" class="node">
<title>Node5</title>
<g id="a_Node000005"><a xlink:href="classAP__Motors6DOF.html#af9f238b776db93043513ef422c80559d" target="_top" xlink:title=" ">
<polygon fill="white" stroke="#666666" points="704.5,-262 576.5,-262 576.5,-232 704.5,-232 704.5,-262"/>
<text text-anchor="start" x="584.5" y="-250" font-family="Helvetica,sans-Serif" font-size="10.00">AP_Motors6DOF::setup</text>
<text text-anchor="middle" x="640.5" y="-239" font-family="Helvetica,sans-Serif" font-size="10.00">_motors</text>
</a>
</g>
</g>
<!-- Node4&#45;&gt;Node5 -->
<g id="edge4_Node000004_Node000005" class="edge">
<title>Node4&#45;&gt;Node5</title>
<g id="a_edge4_Node000004_Node000005"><a xlink:title=" ">
<path fill="none" stroke="#63b8ff" d="M735.31,-233.15C725.17,-234.64 714.77,-236.18 704.75,-237.66"/>
<polygon fill="#63b8ff" stroke="#63b8ff" points="735.95,-236.59 745.33,-231.66 734.93,-229.66 735.95,-236.59"/>
</a>
</g>
</g>
<!-- Node7 -->
<g id="Node000007" class="node">
<title>Node7</title>
<g id="a_Node000007"><a xlink:href="classAP__MotorsMatrix.html#a43b1907e98c53cf9fe41e5a872d9216c" target="_top" xlink:title=" ">
<polygon fill="white" stroke="#666666" points="707,-214 574,-214 574,-184 707,-184 707,-214"/>
<text text-anchor="start" x="582" y="-202" font-family="Helvetica,sans-Serif" font-size="10.00">AP_MotorsMatrix::setup</text>
<text text-anchor="middle" x="640.5" y="-191" font-family="Helvetica,sans-Serif" font-size="10.00">_hexa_matrix</text>
</a>
</g>
</g>
<!-- Node6&#45;&gt;Node7 -->
<g id="edge6_Node000006_Node000007" class="edge">
<title>Node6&#45;&gt;Node7</title>
<g id="a_edge6_Node000006_Node000007"><a xlink:title=" ">
<path fill="none" stroke="#63b8ff" d="M743.31,-168.93C726.51,-173.89 708.46,-179.22 692.29,-184"/>
<polygon fill="#63b8ff" stroke="#63b8ff" points="744.43,-172.25 753.03,-166.06 742.45,-165.53 744.43,-172.25"/>
</a>
</g>
</g>
<!-- Node13 -->
<g id="Node000013" class="node">
<title>Node13</title>
<g id="a_Node000013"><a xlink:href="classAP__MotorsMatrix.html#a6a8f8cc794e37c4e3bfb1d2e4689de4a" target="_top" xlink:title=" ">
<polygon fill="white" stroke="#666666" points="707,-166 574,-166 574,-136 707,-136 707,-166"/>
<text text-anchor="start" x="582" y="-154" font-family="Helvetica,sans-Serif" font-size="10.00">AP_MotorsMatrix::setup</text>
<text text-anchor="middle" x="640.5" y="-143" font-family="Helvetica,sans-Serif" font-size="10.00">_octa_matrix</text>
</a>
</g>
</g>
<!-- Node6&#45;&gt;Node13 -->
<g id="edge12_Node000006_Node000013" class="edge">
<title>Node6&#45;&gt;Node13</title>
<g id="a_edge12_Node000006_Node000013"><a xlink:title=" ">
<path fill="none" stroke="#63b8ff" d="M732.39,-151C723.97,-151 715.42,-151 707.09,-151"/>
<polygon fill="#63b8ff" stroke="#63b8ff" points="732.57,-154.5 742.57,-151 732.57,-147.5 732.57,-154.5"/>
</a>
</g>
</g>
<!-- Node14 -->
<g id="Node000014" class="node">
<title>Node14</title>
<g id="a_Node000014"><a xlink:href="classAP__MotorsMatrix.html#ad1108354a3297a557ec26785eb85f70e" target="_top" xlink:title=" ">
<polygon fill="white" stroke="#666666" points="707,-118 574,-118 574,-88 707,-88 707,-118"/>
<text text-anchor="start" x="582" y="-106" font-family="Helvetica,sans-Serif" font-size="10.00">AP_MotorsMatrix::setup</text>
<text text-anchor="middle" x="640.5" y="-95" font-family="Helvetica,sans-Serif" font-size="10.00">_quad_matrix</text>
</a>
</g>
</g>
<!-- Node6&#45;&gt;Node14 -->
<g id="edge14_Node000006_Node000014" class="edge">
<title>Node6&#45;&gt;Node14</title>
<g id="a_edge14_Node000006_Node000014"><a xlink:title=" ">
<path fill="none" stroke="#63b8ff" d="M743.31,-133.07C726.51,-128.11 708.46,-122.78 692.29,-118"/>
<polygon fill="#63b8ff" stroke="#63b8ff" points="742.45,-136.47 753.03,-135.94 744.43,-129.75 742.45,-136.47"/>
</a>
</g>
</g>
<!-- Node15 -->
<g id="Node000015" class="node">
<title>Node15</title>
<g id="a_Node000015"><a xlink:href="classAP__MotorsMatrix.html#a94185ec619538a236bfc4303437f5465" target="_top" xlink:title=" ">
<polygon fill="white" stroke="#666666" points="707,-70 574,-70 574,-40 707,-40 707,-70"/>
<text text-anchor="start" x="582" y="-58" font-family="Helvetica,sans-Serif" font-size="10.00">AP_MotorsMatrix::setup</text>
<text text-anchor="middle" x="640.5" y="-47" font-family="Helvetica,sans-Serif" font-size="10.00">_y6_matrix</text>
</a>
</g>
</g>
<!-- Node6&#45;&gt;Node15 -->
<g id="edge16_Node000006_Node000015" class="edge">
<title>Node6&#45;&gt;Node15</title>
<g id="a_edge16_Node000006_Node000015"><a xlink:title=" ">
<path fill="none" stroke="#63b8ff" d="M779.01,-129.29C760.18,-113.75 733.21,-93.14 707,-79 700.93,-75.72 694.31,-72.71 687.69,-70.02"/>
<polygon fill="#63b8ff" stroke="#63b8ff" points="776.89,-132.09 786.81,-135.83 781.39,-126.72 776.89,-132.09"/>
</a>
</g>
</g>
<!-- Node8 -->
<g id="Node000008" class="node">
<title>Node8</title>
<g id="a_Node000008"><a xlink:href="classAP__MotorsMatrix.html#add4cc7528ad5a337f58ec38a64156bd4" target="_top" xlink:title=" ">
<polygon fill="white" stroke="#666666" points="538,-142 405,-142 405,-112 538,-112 538,-142"/>
<text text-anchor="start" x="413" y="-130" font-family="Helvetica,sans-Serif" font-size="10.00">AP_MotorsMatrix::setup</text>
<text text-anchor="middle" x="471.5" y="-119" font-family="Helvetica,sans-Serif" font-size="10.00">_motors</text>
</a>
</g>
</g>
<!-- Node7&#45;&gt;Node8 -->
<g id="edge7_Node000007_Node000008" class="edge">
<title>Node7&#45;&gt;Node8</title>
<g id="a_edge7_Node000007_Node000008"><a xlink:title=" ">
<path fill="none" stroke="#63b8ff" d="M586.99,-180.24C582.57,-178.52 578.2,-176.76 574,-175 549.55,-164.76 522.43,-151.86 502.38,-142"/>
<polygon fill="#63b8ff" stroke="#63b8ff" points="586.06,-183.63 596.65,-183.93 588.56,-177.09 586.06,-183.63"/>
</a>
</g>
</g>
<!-- Node9 -->
<g id="Node000009" class="node">
<title>Node9</title>
<g id="a_Node000009"><a xlink:href="classAP__MotorsMatrix.html#a74999b8c2bdb8a6c9a139e4d4a742679" target="_top" xlink:title=" ">
<polygon fill="white" stroke="#666666" points="369,-136.5 247,-136.5 247,-117.5 369,-117.5 369,-136.5"/>
<text text-anchor="middle" x="308" y="-124.5" font-family="Helvetica,sans-Serif" font-size="10.00">AP_MotorsMatrix::init</text>
</a>
</g>
</g>
<!-- Node8&#45;&gt;Node9 -->
<g id="edge8_Node000008_Node000009" class="edge">
<title>Node8&#45;&gt;Node9</title>
<g id="a_edge8_Node000008_Node000009"><a xlink:title=" ">
<path fill="none" stroke="#63b8ff" d="M394.78,-127C386.19,-127 377.52,-127 369.17,-127"/>
<polygon fill="#63b8ff" stroke="#63b8ff" points="394.81,-130.5 404.81,-127 394.81,-123.5 394.81,-130.5"/>
</a>
</g>
</g>
<!-- Node10 -->
<g id="Node000010" class="node">
<title>Node10</title>
<g id="a_Node000010"><a xlink:href="AP__Motors__test_8cpp.html#ae22722841fa406cadd51a97de949f1eb" target="_top" xlink:title=" ">
<polygon fill="white" stroke="#666666" points="209.5,-158.5 81.5,-158.5 81.5,-139.5 209.5,-139.5 209.5,-158.5"/>
<text text-anchor="middle" x="145.5" y="-146.5" font-family="Helvetica,sans-Serif" font-size="10.00">print_all_motor_matrix</text>
</a>
</g>
</g>
<!-- Node9&#45;&gt;Node10 -->
<g id="edge9_Node000009_Node000010" class="edge">
<title>Node9&#45;&gt;Node10</title>
<g id="a_edge9_Node000009_Node000010"><a xlink:title=" ">
<path fill="none" stroke="#63b8ff" d="M236.73,-136.63C227.75,-137.86 218.6,-139.12 209.74,-140.33"/>
<polygon fill="#63b8ff" stroke="#63b8ff" points="237.35,-140.08 246.78,-135.25 236.4,-133.15 237.35,-140.08"/>
</a>
</g>
</g>
<!-- Node12 -->
<g id="Node000012" class="node">
<title>Node12</title>
<g id="a_Node000012"><a xlink:href="classAP__MotorsMatrix.html#ad608ef0a8298cd204251d4374a2699c4" target="_top" xlink:title=" ">
<polygon fill="white" stroke="#666666" points="211,-121 80,-121 80,-91 211,-91 211,-121"/>
<text text-anchor="start" x="88" y="-109" font-family="Helvetica,sans-Serif" font-size="10.00">AP_MotorsMatrix::set</text>
<text text-anchor="middle" x="145.5" y="-98" font-family="Helvetica,sans-Serif" font-size="10.00">_frame_class_and_type</text>
</a>
</g>
</g>
<!-- Node9&#45;&gt;Node12 -->
<g id="edge11_Node000009_Node000012" class="edge">
<title>Node9&#45;&gt;Node12</title>
<g id="a_edge11_Node000009_Node000012"><a xlink:title=" ">
<path fill="none" stroke="#63b8ff" d="M236.83,-117.82C228.27,-116.7 219.56,-115.56 211.09,-114.45"/>
<polygon fill="#63b8ff" stroke="#63b8ff" points="236.41,-121.29 246.78,-119.12 237.32,-114.35 236.41,-121.29"/>
</a>
</g>
</g>
<!-- Node11 -->
<g id="Node000011" class="node">
<title>Node11</title>
<g id="a_Node000011"><a xlink:href="AP__Motors__test_8cpp.html#a4fc01d736fe50cf5b977f755b675f11d" target="_top" xlink:title=" ">
<polygon fill="white" stroke="#666666" points="44,-158.5 0,-158.5 0,-139.5 44,-139.5 44,-158.5"/>
<text text-anchor="middle" x="22" y="-146.5" font-family="Helvetica,sans-Serif" font-size="10.00">setup</text>
</a>
</g>
</g>
<!-- Node10&#45;&gt;Node11 -->
<g id="edge10_Node000010_Node000011" class="edge">
<title>Node10&#45;&gt;Node11</title>
<g id="a_edge10_Node000010_Node000011"><a xlink:title=" ">
<path fill="none" stroke="#63b8ff" d="M70.99,-149C61.25,-149 51.97,-149 44.21,-149"/>
<polygon fill="#63b8ff" stroke="#63b8ff" points="71.26,-152.5 81.26,-149 71.26,-145.5 71.26,-152.5"/>
</a>
</g>
</g>
<!-- Node13&#45;&gt;Node8 -->
<g id="edge13_Node000013_Node000008" class="edge">
<title>Node13&#45;&gt;Node8</title>
<g id="a_edge13_Node000013_Node000008"><a xlink:title=" ">
<path fill="none" stroke="#63b8ff" d="M563.93,-140.14C555.32,-138.9 546.58,-137.65 538.11,-136.43"/>
<polygon fill="#63b8ff" stroke="#63b8ff" points="563.58,-143.63 573.98,-141.58 564.58,-136.7 563.58,-143.63"/>
</a>
</g>
</g>
<!-- Node14&#45;&gt;Node8 -->
<g id="edge15_Node000014_Node000008" class="edge">
<title>Node14&#45;&gt;Node8</title>
<g id="a_edge15_Node000014_Node000008"><a xlink:title=" ">
<path fill="none" stroke="#63b8ff" d="M563.93,-113.86C555.32,-115.1 546.58,-116.35 538.11,-117.57"/>
<polygon fill="#63b8ff" stroke="#63b8ff" points="564.58,-117.3 573.98,-112.42 563.58,-110.37 564.58,-117.3"/>
</a>
</g>
</g>
<!-- Node15&#45;&gt;Node8 -->
<g id="edge17_Node000015_Node000008" class="edge">
<title>Node15&#45;&gt;Node8</title>
<g id="a_edge17_Node000015_Node000008"><a xlink:title=" ">
<path fill="none" stroke="#63b8ff" d="M586.99,-73.76C582.57,-75.48 578.2,-77.24 574,-79 549.55,-89.24 522.43,-102.14 502.38,-112"/>
<polygon fill="#63b8ff" stroke="#63b8ff" points="588.56,-76.91 596.65,-70.07 586.06,-70.37 588.56,-76.91"/>
</a>
</g>
</g>
</g>
</svg>

<g id="navigator" transform="translate(0 0)" fill="#404254">
  <rect fill="#f2f5e9" fill-opacity="0.5" stroke="#606060" stroke-width=".5" x="0" y="0" width="60" height="60"/>
  <use id="zoomplus" xlink:href="#zoomPlus" x="17" y="9" onmousedown="handleZoom(evt,'in')"/>
  <use id="zoomminus" xlink:href="#zoomMin" x="42" y="9" onmousedown="handleZoom(evt,'out')"/>
  <use id="reset" xlink:href="#resetDef" x="30" y="36" onmousedown="handleReset()"/>
   <use id="arrowup" xlink:href="#arrowUp" x="0" y="0" onmousedown="handlePan(0,-1)"/>
  <use id="arrowright" xlink:href="#arrowRight" x="0" y="0" onmousedown="handlePan(1,0)"/>
  <use id="arrowdown" xlink:href="#arrowDown" x="0" y="0" onmousedown="handlePan(0,1)"/>
  <use id="arrowleft" xlink:href="#arrowLeft" x="0" y="0" onmousedown="handlePan(-1,0)"/>
</g>
<svg viewBox="0 0 15 15" width="100%" height="30px" preserveAspectRatio="xMaxYMin meet">
 <g id="arrow_out" transform="scale(0.3 0.3)">
  <a xlink:href="classAP__Motors_ad0a73edfaa0d7b5c4f325a823c7781f4_icgraph_org.svg" target="_base">
   <rect id="button" ry="5" rx="5" y="6" x="6" height="38" width="38"
        fill="#f2f5e9" fill-opacity="0.5" stroke="#606060" stroke-width="1.0"/>
   <path id="arrow"
     d="M 11.500037,31.436501 C 11.940474,20.09759 22.043105,11.32322 32.158766,21.979434 L 37.068811,17.246167 C 37.068811,17.246167 37.088388,32 37.088388,32 L 22.160133,31.978069 C 22.160133,31.978069 26.997745,27.140456 26.997745,27.140456 C 18.528582,18.264221 13.291696,25.230495 11.500037,31.436501 z"
     style="fill:#404040;"/>
  </a>
 </g>
</svg>

<style type='text/css'>
<![CDATA[
[data-mouse-over-selected='false'] { opacity: 0.7; }
[data-mouse-over-selected='true']  { opacity: 1.0; }
]]>
</style>
<script type="application/ecmascript"><![CDATA[
document.addEventListener('DOMContentLoaded', (event) => {
  highlightEdges();
  highlightAdjacentNodes();
});
]]></script>
</svg>
