<?xml version="1.0" encoding="UTF-8" standalone="no"?>
<!DOCTYPE svg PUBLIC "-//W3C//DTD SVG 1.1//EN"
 "http://www.w3.org/Graphics/SVG/1.1/DTD/svg11.dtd">
<!-- Generated by graphviz version 2.43.0 (0)
 -->
<!-- Title: EKFGSF_yaw::gaussianDensity Pages: 1 -->
<svg width="996pt" height="86pt"
 viewBox="0.00 0.00 996.00 86.00" xmlns="http://www.w3.org/2000/svg" xmlns:xlink="http://www.w3.org/1999/xlink">
<g id="graph0" class="graph" transform="scale(1 1) rotate(0) translate(4 82)">
<title>EKFGSF_yaw::gaussianDensity</title>
<!-- Node1 -->
<g id="Node000001" class="node">
<title>Node1</title>
<g id="a_Node000001"><a xlink:title=" ">
<polygon fill="#999999" stroke="#666666" points="988,-48.5 821,-48.5 821,-29.5 988,-29.5 988,-48.5"/>
<text text-anchor="middle" x="904.5" y="-36.5" font-family="Helvetica,sans-Serif" font-size="10.00">EKFGSF_yaw::gaussianDensity</text>
</a>
</g>
</g>
<!-- Node2 -->
<g id="Node000002" class="node">
<title>Node2</title>
<g id="a_Node000002"><a xlink:href="classEKFGSF__yaw.html#a4e244df89841d4155ffd5ee782ce3fde" target="_top" xlink:title=" ">
<polygon fill="white" stroke="#666666" points="785,-48.5 640,-48.5 640,-29.5 785,-29.5 785,-48.5"/>
<text text-anchor="middle" x="712.5" y="-36.5" font-family="Helvetica,sans-Serif" font-size="10.00">EKFGSF_yaw::fuseVelData</text>
</a>
</g>
</g>
<!-- Node1&#45;&gt;Node2 -->
<g id="edge1_Node000001_Node000002" class="edge">
<title>Node1&#45;&gt;Node2</title>
<g id="a_edge1_Node000001_Node000002"><a xlink:title=" ">
<path fill="none" stroke="#63b8ff" d="M810.89,-39C802.26,-39 793.6,-39 785.21,-39"/>
<polygon fill="#63b8ff" stroke="#63b8ff" points="810.99,-42.5 820.99,-39 810.99,-35.5 810.99,-42.5"/>
</a>
</g>
</g>
<!-- Node3 -->
<g id="Node000003" class="node">
<title>Node3</title>
<g id="a_Node000003"><a xlink:href="classNavEKF2__core.html#a4d5a6d58a3111695088ae305c031afdf" target="_top" xlink:title=" ">
<polygon fill="white" stroke="#666666" points="604,-78 429,-78 429,-48 604,-48 604,-78"/>
<text text-anchor="start" x="437" y="-66" font-family="Helvetica,sans-Serif" font-size="10.00">NavEKF2_core::runYawEstimator</text>
<text text-anchor="middle" x="516.5" y="-55" font-family="Helvetica,sans-Serif" font-size="10.00">Correction</text>
</a>
</g>
</g>
<!-- Node2&#45;&gt;Node3 -->
<g id="edge2_Node000002_Node000003" class="edge">
<title>Node2&#45;&gt;Node3</title>
<g id="a_edge2_Node000002_Node000003"><a xlink:title=" ">
<path fill="none" stroke="#63b8ff" d="M629.87,-49.1C621.32,-50.16 612.61,-51.23 604.01,-52.3"/>
<polygon fill="#63b8ff" stroke="#63b8ff" points="630.32,-52.57 639.81,-47.87 629.46,-45.62 630.32,-52.57"/>
</a>
</g>
</g>
<!-- Node7 -->
<g id="Node000007" class="node">
<title>Node7</title>
<g id="a_Node000007"><a xlink:href="classNavEKF3__core.html#a1a0b388acd07c8b5c211b9d2d3fddecd" target="_top" xlink:title=" ">
<polygon fill="white" stroke="#666666" points="604,-30 429,-30 429,0 604,0 604,-30"/>
<text text-anchor="start" x="437" y="-18" font-family="Helvetica,sans-Serif" font-size="10.00">NavEKF3_core::runYawEstimator</text>
<text text-anchor="middle" x="516.5" y="-7" font-family="Helvetica,sans-Serif" font-size="10.00">Correction</text>
</a>
</g>
</g>
<!-- Node2&#45;&gt;Node7 -->
<g id="edge6_Node000002_Node000007" class="edge">
<title>Node2&#45;&gt;Node7</title>
<g id="a_edge6_Node000002_Node000007"><a xlink:title=" ">
<path fill="none" stroke="#63b8ff" d="M629.87,-28.9C621.32,-27.84 612.61,-26.77 604.01,-25.7"/>
<polygon fill="#63b8ff" stroke="#63b8ff" points="629.46,-32.38 639.81,-30.13 630.32,-25.43 629.46,-32.38"/>
</a>
</g>
</g>
<!-- Node4 -->
<g id="Node000004" class="node">
<title>Node4</title>
<g id="a_Node000004"><a xlink:href="classNavEKF2__core.html#a5f5c815cbd5ebba30d731f89f87726c3" target="_top" xlink:title=" ">
<polygon fill="white" stroke="#666666" points="393,-71.5 240,-71.5 240,-52.5 393,-52.5 393,-71.5"/>
<text text-anchor="middle" x="316.5" y="-59.5" font-family="Helvetica,sans-Serif" font-size="10.00">NavEKF2_core::UpdateFilter</text>
</a>
</g>
</g>
<!-- Node3&#45;&gt;Node4 -->
<g id="edge3_Node000003_Node000004" class="edge">
<title>Node3&#45;&gt;Node4</title>
<g id="a_edge3_Node000003_Node000004"><a xlink:title=" ">
<path fill="none" stroke="#63b8ff" d="M418.8,-62.51C410.14,-62.47 401.46,-62.42 393.02,-62.38"/>
<polygon fill="#63b8ff" stroke="#63b8ff" points="418.92,-66.01 428.94,-62.56 418.96,-59.01 418.92,-66.01"/>
</a>
</g>
</g>
<!-- Node5 -->
<g id="Node000005" class="node">
<title>Node5</title>
<g id="a_Node000005"><a xlink:href="classNavEKF2.html#a72815b1bbd9d7ceb0ff7ae52d14516df" target="_top" xlink:title=" ">
<polygon fill="white" stroke="#666666" points="204,-70.5 77,-70.5 77,-51.5 204,-51.5 204,-70.5"/>
<text text-anchor="middle" x="140.5" y="-58.5" font-family="Helvetica,sans-Serif" font-size="10.00">NavEKF2::UpdateFilter</text>
</a>
</g>
</g>
<!-- Node4&#45;&gt;Node5 -->
<g id="edge4_Node000004_Node000005" class="edge">
<title>Node4&#45;&gt;Node5</title>
<g id="a_edge4_Node000004_Node000005"><a xlink:title=" ">
<path fill="none" stroke="#63b8ff" d="M229.83,-61.51C221.2,-61.46 212.54,-61.41 204.21,-61.36"/>
<polygon fill="#63b8ff" stroke="#63b8ff" points="229.92,-65.01 239.94,-61.57 229.96,-58.01 229.92,-65.01"/>
</a>
</g>
</g>
<!-- Node6 -->
<g id="Node000006" class="node">
<title>Node6</title>
<g id="a_Node000006"><a xlink:href="main_8cpp.html#ac0f2228420376f4db7e1274f2b41667c" target="_top" xlink:title=" ">
<polygon fill="white" stroke="#666666" points="41,-50.5 0,-50.5 0,-31.5 41,-31.5 41,-50.5"/>
<text text-anchor="middle" x="20.5" y="-38.5" font-family="Helvetica,sans-Serif" font-size="10.00">main</text>
</a>
</g>
</g>
<!-- Node5&#45;&gt;Node6 -->
<g id="edge5_Node000005_Node000006" class="edge">
<title>Node5&#45;&gt;Node6</title>
<g id="a_edge5_Node000005_Node000006"><a xlink:title=" ">
<path fill="none" stroke="#63b8ff" d="M73.38,-49.79C61.66,-47.81 50.33,-45.89 41.26,-44.35"/>
<polygon fill="#63b8ff" stroke="#63b8ff" points="72.82,-53.25 83.26,-51.47 73.99,-46.35 72.82,-53.25"/>
</a>
</g>
</g>
<!-- Node8 -->
<g id="Node000008" class="node">
<title>Node8</title>
<g id="a_Node000008"><a xlink:href="classNavEKF3__core.html#a2a7fae9e0bf2ce6fc2f9b3918dc168d3" target="_top" xlink:title=" ">
<polygon fill="white" stroke="#666666" points="393,-29.5 240,-29.5 240,-10.5 393,-10.5 393,-29.5"/>
<text text-anchor="middle" x="316.5" y="-17.5" font-family="Helvetica,sans-Serif" font-size="10.00">NavEKF3_core::UpdateFilter</text>
</a>
</g>
</g>
<!-- Node7&#45;&gt;Node8 -->
<g id="edge7_Node000007_Node000008" class="edge">
<title>Node7&#45;&gt;Node8</title>
<g id="a_edge7_Node000007_Node000008"><a xlink:title=" ">
<path fill="none" stroke="#63b8ff" d="M418.8,-17.44C410.14,-17.66 401.46,-17.88 393.02,-18.09"/>
<polygon fill="#63b8ff" stroke="#63b8ff" points="419.03,-20.94 428.94,-17.19 418.86,-13.94 419.03,-20.94"/>
</a>
</g>
</g>
<!-- Node9 -->
<g id="Node000009" class="node">
<title>Node9</title>
<g id="a_Node000009"><a xlink:href="classNavEKF3.html#a477020fcf29376e0c2205dbf79728104" target="_top" xlink:title=" ">
<polygon fill="white" stroke="#666666" points="204,-32.5 77,-32.5 77,-13.5 204,-13.5 204,-32.5"/>
<text text-anchor="middle" x="140.5" y="-20.5" font-family="Helvetica,sans-Serif" font-size="10.00">NavEKF3::UpdateFilter</text>
</a>
</g>
</g>
<!-- Node8&#45;&gt;Node9 -->
<g id="edge8_Node000008_Node000009" class="edge">
<title>Node8&#45;&gt;Node9</title>
<g id="a_edge8_Node000008_Node000009"><a xlink:title=" ">
<path fill="none" stroke="#63b8ff" d="M229.83,-21.48C221.2,-21.63 212.54,-21.78 204.21,-21.92"/>
<polygon fill="#63b8ff" stroke="#63b8ff" points="230,-24.97 239.94,-21.3 229.88,-17.98 230,-24.97"/>
</a>
</g>
</g>
<!-- Node9&#45;&gt;Node6 -->
<g id="edge9_Node000009_Node000006" class="edge">
<title>Node9&#45;&gt;Node6</title>
<g id="a_edge9_Node000009_Node000006"><a xlink:title=" ">
<path fill="none" stroke="#63b8ff" d="M67.04,-34.05C57.57,-35.5 48.59,-36.87 41.15,-38"/>
<polygon fill="#63b8ff" stroke="#63b8ff" points="67.69,-37.5 77.04,-32.53 66.63,-30.58 67.69,-37.5"/>
</a>
</g>
</g>
</g>
</svg>
