<?xml version="1.0" encoding="UTF-8" standalone="no"?>
<!DOCTYPE svg PUBLIC "-//W3C//DTD SVG 1.1//EN"
 "http://www.w3.org/Graphics/SVG/1.1/DTD/svg11.dtd">
<!-- Generated by graphviz version 2.43.0 (0)
 -->
<!-- Title: AP_Logger_Block::PageToBuffer Pages: 1 -->
<svg width="1298pt" height="586pt"
 viewBox="0.00 0.00 1298.00 585.69" xmlns="http://www.w3.org/2000/svg" xmlns:xlink="http://www.w3.org/1999/xlink">
<g id="graph0" class="graph" transform="scale(1 1) rotate(0) translate(4 581.69)">
<title>AP_Logger_Block::PageToBuffer</title>
<!-- Node1 -->
<g id="Node000001" class="node">
<title>Node1</title>
<g id="a_Node000001"><a xlink:title=" ">
<polygon fill="#999999" stroke="#666666" points="1290,-499.19 1121,-499.19 1121,-480.19 1290,-480.19 1290,-499.19"/>
<text text-anchor="middle" x="1205.5" y="-487.19" font-family="Helvetica,sans-Serif" font-size="10.00">AP_Logger_Block::PageToBuffer</text>
</a>
</g>
</g>
<!-- Node2 -->
<g id="Node000002" class="node">
<title>Node2</title>
<g id="a_Node000002"><a xlink:href="classAP__Logger__Block.html#ada51b5f1f857957deb8a3de5ee5dff4f" target="_top" xlink:title=" ">
<polygon fill="white" stroke="#666666" points="1082.5,-555.19 929.5,-555.19 929.5,-536.19 1082.5,-536.19 1082.5,-555.19"/>
<text text-anchor="middle" x="1006" y="-543.19" font-family="Helvetica,sans-Serif" font-size="10.00">AP_Logger_Block::flash_test</text>
</a>
</g>
</g>
<!-- Node1&#45;&gt;Node2 -->
<g id="edge1_Node000001_Node000002" class="edge">
<title>Node1&#45;&gt;Node2</title>
<g id="a_edge1_Node000001_Node000002"><a xlink:title=" ">
<path fill="none" stroke="#63b8ff" d="M1167.12,-502.43C1143.68,-510.21 1112.74,-520.09 1085,-527.69 1074.14,-530.66 1062.35,-533.56 1051.29,-536.12"/>
<polygon fill="#63b8ff" stroke="#63b8ff" points="1168.31,-505.73 1176.68,-499.24 1166.09,-499.09 1168.31,-505.73"/>
</a>
</g>
</g>
<!-- Node3 -->
<g id="Node000003" class="node">
<title>Node3</title>
<g id="a_Node000003"><a xlink:href="classAP__Logger__Block.html#a5f50537a04338b67051c146c7946c9b1" target="_top" xlink:title=" ">
<polygon fill="white" stroke="#666666" points="889.5,-480.19 731.5,-480.19 731.5,-461.19 889.5,-461.19 889.5,-480.19"/>
<text text-anchor="middle" x="810.5" y="-468.19" font-family="Helvetica,sans-Serif" font-size="10.00">AP_Logger_Block::NeedErase</text>
</a>
</g>
</g>
<!-- Node1&#45;&gt;Node3 -->
<g id="edge2_Node000001_Node000003" class="edge">
<title>Node1&#45;&gt;Node3</title>
<g id="a_edge2_Node000001_Node000003"><a xlink:title=" ">
<path fill="none" stroke="#63b8ff" d="M1110.46,-485.14C1042.96,-481.88 953.05,-477.53 889.52,-474.46"/>
<polygon fill="#63b8ff" stroke="#63b8ff" points="1110.52,-488.65 1120.67,-485.64 1110.85,-481.66 1110.52,-488.65"/>
</a>
</g>
</g>
<!-- Node7 -->
<g id="Node000007" class="node">
<title>Node7</title>
<g id="a_Node000007"><a xlink:href="classAP__Logger__Block.html#a820867ba7535ff13db97437fb6179bd1" target="_top" xlink:title=" ">
<polygon fill="white" stroke="#666666" points="1085,-518.19 927,-518.19 927,-499.19 1085,-499.19 1085,-518.19"/>
<text text-anchor="middle" x="1006" y="-506.19" font-family="Helvetica,sans-Serif" font-size="10.00">AP_Logger_Block::ReadBlock</text>
</a>
</g>
</g>
<!-- Node1&#45;&gt;Node7 -->
<g id="edge6_Node000001_Node000007" class="edge">
<title>Node1&#45;&gt;Node7</title>
<g id="a_edge6_Node000001_Node000007"><a xlink:title=" ">
<path fill="none" stroke="#63b8ff" d="M1110.75,-498.71C1102.21,-499.53 1093.62,-500.36 1085.23,-501.16"/>
<polygon fill="#63b8ff" stroke="#63b8ff" points="1111.12,-502.19 1120.74,-497.75 1110.45,-495.22 1111.12,-502.19"/>
</a>
</g>
</g>
<!-- Node10 -->
<g id="Node000010" class="node">
<title>Node10</title>
<g id="a_Node000010"><a xlink:href="classAP__Logger__Block.html#a880150f6e65d4f55f05c58d342343081" target="_top" xlink:title=" ">
<polygon fill="white" stroke="#666666" points="1083,-324.19 929,-324.19 929,-305.19 1083,-305.19 1083,-324.19"/>
<text text-anchor="middle" x="1006" y="-312.19" font-family="Helvetica,sans-Serif" font-size="10.00">AP_Logger_Block::StartRead</text>
</a>
</g>
</g>
<!-- Node1&#45;&gt;Node10 -->
<g id="edge9_Node000001_Node000010" class="edge">
<title>Node1&#45;&gt;Node10</title>
<g id="a_edge9_Node000001_Node000010"><a xlink:title=" ">
<path fill="none" stroke="#63b8ff" d="M1186.08,-473.37C1145.75,-437.63 1050.61,-353.33 1018.11,-324.53"/>
<polygon fill="#63b8ff" stroke="#63b8ff" points="1183.79,-476.02 1193.6,-480.03 1188.44,-470.78 1183.79,-476.02"/>
</a>
</g>
</g>
<!-- Node4 -->
<g id="Node000004" class="node">
<title>Node4</title>
<g id="a_Node000004"><a xlink:href="classAP__Logger__Block.html#a9c268769f4ddf3cb114609d55ed00d4b" target="_top" xlink:title=" ">
<polygon fill="white" stroke="#666666" points="318.5,-262.19 196.5,-262.19 196.5,-243.19 318.5,-243.19 318.5,-262.19"/>
<text text-anchor="middle" x="257.5" y="-250.19" font-family="Helvetica,sans-Serif" font-size="10.00">AP_Logger_Block::Init</text>
</a>
</g>
</g>
<!-- Node3&#45;&gt;Node4 -->
<g id="edge3_Node000003_Node000004" class="edge">
<title>Node3&#45;&gt;Node4</title>
<g id="a_edge3_Node000003_Node000004"><a xlink:title=" ">
<path fill="none" stroke="#63b8ff" d="M757.48,-482.63C748.3,-484.88 738.85,-487.28 730,-489.69 713.86,-494.08 710.55,-498.22 694,-500.69 556.08,-521.29 483.19,-573.59 381,-478.69 320.26,-422.28 395.29,-361.59 345,-295.69 332.59,-279.43 312.36,-268.9 294.59,-262.33"/>
<polygon fill="#63b8ff" stroke="#63b8ff" points="758.39,-486.01 767.29,-480.26 756.75,-479.21 758.39,-486.01"/>
</a>
</g>
</g>
<!-- Node5 -->
<g id="Node000005" class="node">
<title>Node5</title>
<g id="a_Node000005"><a xlink:href="classAP__Logger__Flash__JEDEC.html#a7f88c68085840c7a312134f4dbd261c0" target="_top" xlink:title=" ">
<polygon fill="white" stroke="#666666" points="134,-291.69 0,-291.69 0,-261.69 134,-261.69 134,-291.69"/>
<text text-anchor="start" x="8" y="-279.69" font-family="Helvetica,sans-Serif" font-size="10.00">AP_Logger_Flash_JEDEC</text>
<text text-anchor="middle" x="67" y="-268.69" font-family="Helvetica,sans-Serif" font-size="10.00">::Init</text>
</a>
</g>
</g>
<!-- Node4&#45;&gt;Node5 -->
<g id="edge4_Node000004_Node000005" class="edge">
<title>Node4&#45;&gt;Node5</title>
<g id="a_edge4_Node000004_Node000005"><a xlink:title=" ">
<path fill="none" stroke="#63b8ff" d="M186.41,-261.61C169.3,-263.79 151.04,-266.12 134.12,-268.27"/>
<polygon fill="#63b8ff" stroke="#63b8ff" points="186.86,-265.09 196.34,-260.35 185.98,-258.14 186.86,-265.09"/>
</a>
</g>
</g>
<!-- Node6 -->
<g id="Node000006" class="node">
<title>Node6</title>
<g id="a_Node000006"><a xlink:href="classAP__Logger__W25N01GV.html#a055dfde9685848d3a6476877f23e6d86" target="_top" xlink:title=" ">
<polygon fill="white" stroke="#666666" points="131,-243.69 3,-243.69 3,-213.69 131,-213.69 131,-243.69"/>
<text text-anchor="start" x="11" y="-231.69" font-family="Helvetica,sans-Serif" font-size="10.00">AP_Logger_W25N01GV</text>
<text text-anchor="middle" x="67" y="-220.69" font-family="Helvetica,sans-Serif" font-size="10.00">::Init</text>
</a>
</g>
</g>
<!-- Node4&#45;&gt;Node6 -->
<g id="edge5_Node000004_Node000006" class="edge">
<title>Node4&#45;&gt;Node6</title>
<g id="a_edge5_Node000004_Node000006"><a xlink:title=" ">
<path fill="none" stroke="#63b8ff" d="M186.17,-243.74C168.12,-241.44 148.82,-238.98 131.16,-236.73"/>
<polygon fill="#63b8ff" stroke="#63b8ff" points="185.98,-247.24 196.34,-245.03 186.86,-240.3 185.98,-247.24"/>
</a>
</g>
</g>
<!-- Node8 -->
<g id="Node000008" class="node">
<title>Node8</title>
<g id="a_Node000008"><a xlink:href="classAP__Logger__Block.html#a4c03c0aac205aaab5684efcbb3afa197" target="_top" xlink:title=" ">
<polygon fill="white" stroke="#666666" points="871.5,-528.69 749.5,-528.69 749.5,-498.69 871.5,-498.69 871.5,-528.69"/>
<text text-anchor="start" x="757.5" y="-516.69" font-family="Helvetica,sans-Serif" font-size="10.00">AP_Logger_Block::get</text>
<text text-anchor="middle" x="810.5" y="-505.69" font-family="Helvetica,sans-Serif" font-size="10.00">_log_data_raw</text>
</a>
</g>
</g>
<!-- Node7&#45;&gt;Node8 -->
<g id="edge7_Node000007_Node000008" class="edge">
<title>Node7&#45;&gt;Node8</title>
<g id="a_edge7_Node000007_Node000008"><a xlink:title=" ">
<path fill="none" stroke="#63b8ff" d="M916.45,-510.98C901.33,-511.37 885.95,-511.77 871.78,-512.13"/>
<polygon fill="#63b8ff" stroke="#63b8ff" points="916.95,-514.47 926.85,-510.71 916.77,-507.47 916.95,-514.47"/>
</a>
</g>
</g>
<!-- Node9 -->
<g id="Node000009" class="node">
<title>Node9</title>
<g id="a_Node000009"><a xlink:href="classAP__Logger__Block.html#a93fd8a42b0cccff56aa6c397a996f761" target="_top" xlink:title=" ">
<polygon fill="white" stroke="#666666" points="689.5,-577.69 567.5,-577.69 567.5,-547.69 689.5,-547.69 689.5,-577.69"/>
<text text-anchor="start" x="575.5" y="-565.69" font-family="Helvetica,sans-Serif" font-size="10.00">AP_Logger_Block::get</text>
<text text-anchor="middle" x="628.5" y="-554.69" font-family="Helvetica,sans-Serif" font-size="10.00">_log_data</text>
</a>
</g>
</g>
<!-- Node8&#45;&gt;Node9 -->
<g id="edge8_Node000008_Node000009" class="edge">
<title>Node8&#45;&gt;Node9</title>
<g id="a_edge8_Node000008_Node000009"><a xlink:title=" ">
<path fill="none" stroke="#63b8ff" d="M744.3,-531.44C724.79,-536.75 703.6,-542.52 684.79,-547.64"/>
<polygon fill="#63b8ff" stroke="#63b8ff" points="745.3,-534.8 754.03,-528.79 743.46,-528.04 745.3,-534.8"/>
</a>
</g>
</g>
<!-- Node10&#45;&gt;Node3 -->
<g id="edge37_Node000010_Node000003" class="edge">
<title>Node10&#45;&gt;Node3</title>
<g id="a_edge37_Node000010_Node000003"><a xlink:title=" ">
<path fill="none" stroke="#63b8ff" d="M994.8,-333.45C977.54,-363.35 939.65,-421.48 891,-451.69 884.73,-455.58 877.73,-458.68 870.55,-461.14"/>
<polygon fill="#63b8ff" stroke="#63b8ff" points="998,-334.91 999.85,-324.48 991.9,-331.48 998,-334.91"/>
</a>
</g>
</g>
<!-- Node10&#45;&gt;Node8 -->
<g id="edge29_Node000010_Node000008" class="edge">
<title>Node10&#45;&gt;Node8</title>
<g id="a_edge29_Node000010_Node000008"><a xlink:title=" ">
<path fill="none" stroke="#63b8ff" d="M997.85,-333.67C983.34,-369.6 946.98,-447.72 891,-489.69 885.23,-494.01 878.68,-497.56 871.88,-500.48"/>
<polygon fill="#63b8ff" stroke="#63b8ff" points="1001.12,-334.92 1001.51,-324.34 994.6,-332.37 1001.12,-334.92"/>
</a>
</g>
</g>
<!-- Node11 -->
<g id="Node000011" class="node">
<title>Node11</title>
<g id="a_Node000011"><a xlink:href="classAP__Logger__Block.html#a1663b6b102f3c1147febee6cf56d00f6" target="_top" xlink:title=" ">
<polygon fill="white" stroke="#666666" points="690.5,-329.69 566.5,-329.69 566.5,-299.69 690.5,-299.69 690.5,-329.69"/>
<text text-anchor="start" x="574.5" y="-317.69" font-family="Helvetica,sans-Serif" font-size="10.00">AP_Logger_Block::find</text>
<text text-anchor="middle" x="628.5" y="-306.69" font-family="Helvetica,sans-Serif" font-size="10.00">_last_log</text>
</a>
</g>
</g>
<!-- Node10&#45;&gt;Node11 -->
<g id="edge10_Node000010_Node000011" class="edge">
<title>Node10&#45;&gt;Node11</title>
<g id="a_edge10_Node000010_Node000011"><a xlink:title=" ">
<path fill="none" stroke="#63b8ff" d="M918.48,-314.69C848.78,-314.69 752.54,-314.69 690.66,-314.69"/>
<polygon fill="#63b8ff" stroke="#63b8ff" points="918.56,-318.19 928.56,-314.69 918.56,-311.19 918.56,-318.19"/>
</a>
</g>
</g>
<!-- Node12 -->
<g id="Node000012" class="node">
<title>Node12</title>
<g id="a_Node000012"><a xlink:href="classAP__Logger__Block.html#af64ec659db03d49b3a81536c82a403e1" target="_top" xlink:title=" ">
<polygon fill="white" stroke="#666666" points="518,-329.69 390,-329.69 390,-299.69 518,-299.69 518,-329.69"/>
<text text-anchor="start" x="398" y="-317.69" font-family="Helvetica,sans-Serif" font-size="10.00">AP_Logger_Block::start</text>
<text text-anchor="middle" x="454" y="-306.69" font-family="Helvetica,sans-Serif" font-size="10.00">_new_log</text>
</a>
</g>
</g>
<!-- Node10&#45;&gt;Node12 -->
<g id="edge38_Node000010_Node000012" class="edge">
<title>Node10&#45;&gt;Node12</title>
<g id="a_edge38_Node000010_Node000012"><a xlink:title=" ">
<path fill="none" stroke="#63b8ff" d="M982.42,-329.96C960.25,-343.95 924.92,-363.68 891,-371.69 749.12,-405.18 704.5,-406.74 563,-371.69 530.48,-363.64 496.97,-343.81 476.07,-329.81"/>
<polygon fill="#63b8ff" stroke="#63b8ff" points="984.58,-332.73 991.07,-324.36 980.78,-326.85 984.58,-332.73"/>
</a>
</g>
</g>
<!-- Node14 -->
<g id="Node000014" class="node">
<title>Node14</title>
<g id="a_Node000014"><a xlink:href="classAP__Logger__Block.html#ac22ef210d1cf299a14dcc6f64a12dea1" target="_top" xlink:title=" ">
<polygon fill="white" stroke="#666666" points="872.5,-286.69 748.5,-286.69 748.5,-256.69 872.5,-256.69 872.5,-286.69"/>
<text text-anchor="start" x="756.5" y="-274.69" font-family="Helvetica,sans-Serif" font-size="10.00">AP_Logger_Block::find</text>
<text text-anchor="middle" x="810.5" y="-263.69" font-family="Helvetica,sans-Serif" font-size="10.00">_last_page</text>
</a>
</g>
</g>
<!-- Node10&#45;&gt;Node14 -->
<g id="edge13_Node000010_Node000014" class="edge">
<title>Node10&#45;&gt;Node14</title>
<g id="a_edge13_Node000010_Node000014"><a xlink:title=" ">
<path fill="none" stroke="#63b8ff" d="M952.19,-302.95C927.61,-297.49 898.22,-290.96 872.67,-285.28"/>
<polygon fill="#63b8ff" stroke="#63b8ff" points="951.53,-306.39 962.06,-305.15 953.05,-299.56 951.53,-306.39"/>
</a>
</g>
</g>
<!-- Node15 -->
<g id="Node000015" class="node">
<title>Node15</title>
<g id="a_Node000015"><a xlink:href="classAP__Logger__Block.html#a6291043451d6f8bff1328299b9db35ce" target="_top" xlink:title=" ">
<polygon fill="white" stroke="#666666" points="690.5,-243.69 566.5,-243.69 566.5,-213.69 690.5,-213.69 690.5,-243.69"/>
<text text-anchor="start" x="574.5" y="-231.69" font-family="Helvetica,sans-Serif" font-size="10.00">AP_Logger_Block::find</text>
<text text-anchor="middle" x="628.5" y="-220.69" font-family="Helvetica,sans-Serif" font-size="10.00">_last_page_of_log</text>
</a>
</g>
</g>
<!-- Node10&#45;&gt;Node15 -->
<g id="edge23_Node000010_Node000015" class="edge">
<title>Node10&#45;&gt;Node15</title>
<g id="a_edge23_Node000010_Node000015"><a xlink:title=" ">
<path fill="none" stroke="#63b8ff" d="M984.78,-298.87C962.99,-282.82 926.64,-258.79 891,-247.69 824.72,-227.05 744.61,-224.26 690.67,-225.37"/>
<polygon fill="#63b8ff" stroke="#63b8ff" points="982.82,-301.78 992.91,-305 987.03,-296.19 982.82,-301.78"/>
</a>
</g>
</g>
<!-- Node16 -->
<g id="Node000016" class="node">
<title>Node16</title>
<g id="a_Node000016"><a xlink:href="classAP__Logger__Block.html#afbb63d6c065a8e755dc4d382d0784162" target="_top" xlink:title=" ">
<polygon fill="white" stroke="#666666" points="515,-114.69 393,-114.69 393,-84.69 515,-84.69 515,-114.69"/>
<text text-anchor="start" x="401" y="-102.69" font-family="Helvetica,sans-Serif" font-size="10.00">AP_Logger_Block::get</text>
<text text-anchor="middle" x="454" y="-91.69" font-family="Helvetica,sans-Serif" font-size="10.00">_log_boundaries</text>
</a>
</g>
</g>
<!-- Node10&#45;&gt;Node16 -->
<g id="edge28_Node000010_Node000016" class="edge">
<title>Node10&#45;&gt;Node16</title>
<g id="a_edge28_Node000010_Node000016"><a xlink:title=" ">
<path fill="none" stroke="#63b8ff" d="M999.25,-295.34C986.63,-256.53 952.61,-169.36 891,-127.69 776.96,-50.57 605.47,-68.73 515.31,-85.83"/>
<polygon fill="#63b8ff" stroke="#63b8ff" points="995.92,-296.42 1002.24,-304.92 1002.6,-294.33 995.92,-296.42"/>
</a>
</g>
</g>
<!-- Node17 -->
<g id="Node000017" class="node">
<title>Node17</title>
<g id="a_Node000017"><a xlink:href="classAP__Logger__Block.html#a0fe9a2bf37c54803b00cd1dfd4b1f81f" target="_top" xlink:title=" ">
<polygon fill="white" stroke="#666666" points="318.5,-76.69 196.5,-76.69 196.5,-46.69 318.5,-46.69 318.5,-76.69"/>
<text text-anchor="start" x="204.5" y="-64.69" font-family="Helvetica,sans-Serif" font-size="10.00">AP_Logger_Block::get</text>
<text text-anchor="middle" x="257.5" y="-53.69" font-family="Helvetica,sans-Serif" font-size="10.00">_log_info</text>
</a>
</g>
</g>
<!-- Node10&#45;&gt;Node17 -->
<g id="edge30_Node000010_Node000017" class="edge">
<title>Node10&#45;&gt;Node17</title>
<g id="a_edge30_Node000010_Node000017"><a xlink:title=" ">
<path fill="none" stroke="#63b8ff" d="M1002.72,-295.09C995.95,-246.85 971.13,-122.56 891,-70.69 704.77,49.85 418.63,-14.23 306.2,-46.63"/>
<polygon fill="#63b8ff" stroke="#63b8ff" points="999.27,-295.68 1004.02,-305.15 1006.21,-294.78 999.27,-295.68"/>
</a>
</g>
</g>
<!-- Node18 -->
<g id="Node000018" class="node">
<title>Node18</title>
<g id="a_Node000018"><a xlink:href="classAP__Logger__Block.html#a75de702e0db9624125823310f09b6263" target="_top" xlink:title=" ">
<polygon fill="white" stroke="#666666" points="527,-262.69 381,-262.69 381,-232.69 527,-232.69 527,-262.69"/>
<text text-anchor="start" x="389" y="-250.69" font-family="Helvetica,sans-Serif" font-size="10.00">AP_Logger_Block::validate</text>
<text text-anchor="middle" x="454" y="-239.69" font-family="Helvetica,sans-Serif" font-size="10.00">_log_structure</text>
</a>
</g>
</g>
<!-- Node10&#45;&gt;Node18 -->
<g id="edge39_Node000010_Node000018" class="edge">
<title>Node10&#45;&gt;Node18</title>
<g id="a_edge39_Node000010_Node000018"><a xlink:title=" ">
<path fill="none" stroke="#63b8ff" d="M940.76,-325.86C834.49,-343.07 627.42,-370.9 563,-338.69 539.15,-326.76 546.82,-308.53 527,-290.69 514.88,-279.78 499.58,-270.19 486.21,-262.85"/>
<polygon fill="#63b8ff" stroke="#63b8ff" points="941.42,-329.3 950.72,-324.23 940.29,-322.39 941.42,-329.3"/>
</a>
</g>
</g>
<!-- Node19 -->
<g id="Node000019" class="node">
<title>Node19</title>
<g id="a_Node000019"><a xlink:href="classAP__Logger__Block.html#a25f50b4c776adc88849d7acf22b18f5b" target="_top" xlink:title=" ">
<polygon fill="white" stroke="#666666" points="689.5,-157.69 567.5,-157.69 567.5,-127.69 689.5,-127.69 689.5,-157.69"/>
<text text-anchor="start" x="575.5" y="-145.69" font-family="Helvetica,sans-Serif" font-size="10.00">AP_Logger_Block::get</text>
<text text-anchor="middle" x="628.5" y="-134.69" font-family="Helvetica,sans-Serif" font-size="10.00">_num_logs</text>
</a>
</g>
</g>
<!-- Node10&#45;&gt;Node19 -->
<g id="edge31_Node000010_Node000019" class="edge">
<title>Node10&#45;&gt;Node19</title>
<g id="a_edge31_Node000010_Node000019"><a xlink:title=" ">
<path fill="none" stroke="#63b8ff" d="M997.25,-295.63C982.37,-261.8 946.28,-192 891,-161.69 828.73,-127.55 745.25,-127.97 689.53,-133.5"/>
<polygon fill="#63b8ff" stroke="#63b8ff" points="994.06,-297.05 1001.19,-304.88 1000.5,-294.31 994.06,-297.05"/>
</a>
</g>
</g>
<!-- Node20 -->
<g id="Node000020" class="node">
<title>Node20</title>
<g id="a_Node000020"><a xlink:href="classAP__Logger__Block.html#ad2d425f6b5a8eb63e0346cdc37d9b2fd" target="_top" xlink:title=" ">
<polygon fill="white" stroke="#666666" points="891,-443.19 730,-443.19 730,-424.19 891,-424.19 891,-443.19"/>
<text text-anchor="middle" x="810.5" y="-431.19" font-family="Helvetica,sans-Serif" font-size="10.00">AP_Logger_Block::FinishWrite</text>
</a>
</g>
</g>
<!-- Node10&#45;&gt;Node20 -->
<g id="edge24_Node000010_Node000020" class="edge">
<title>Node10&#45;&gt;Node20</title>
<g id="a_edge24_Node000010_Node000020"><a xlink:title=" ">
<path fill="none" stroke="#63b8ff" d="M989.16,-331.54C968.47,-352.64 930.22,-388.57 891,-409.69 879.7,-415.77 866.65,-420.53 854.43,-424.14"/>
<polygon fill="#63b8ff" stroke="#63b8ff" points="991.78,-333.87 996.2,-324.24 986.74,-329.01 991.78,-333.87"/>
</a>
</g>
</g>
<!-- Node23 -->
<g id="Node000023" class="node">
<title>Node23</title>
<g id="a_Node000023"><a xlink:href="classAP__Logger__Block.html#ac14bbddf421ab51226813f9bed950a4e" target="_top" xlink:title=" ">
<polygon fill="white" stroke="#666666" points="867.5,-200.69 753.5,-200.69 753.5,-170.69 867.5,-170.69 867.5,-200.69"/>
<text text-anchor="start" x="761.5" y="-188.69" font-family="Helvetica,sans-Serif" font-size="10.00">AP_Logger_Block::is</text>
<text text-anchor="middle" x="810.5" y="-177.69" font-family="Helvetica,sans-Serif" font-size="10.00">_wrapped</text>
</a>
</g>
</g>
<!-- Node10&#45;&gt;Node23 -->
<g id="edge32_Node000010_Node000023" class="edge">
<title>Node10&#45;&gt;Node23</title>
<g id="a_edge32_Node000010_Node000023"><a xlink:title=" ">
<path fill="none" stroke="#63b8ff" d="M989.46,-297.59C968.82,-275.76 930.36,-238.02 891,-214.69 881.9,-209.3 871.63,-204.64 861.57,-200.74"/>
<polygon fill="#63b8ff" stroke="#63b8ff" points="987.09,-300.18 996.46,-305.12 992.22,-295.42 987.09,-300.18"/>
</a>
</g>
</g>
<!-- Node11&#45;&gt;Node12 -->
<g id="edge11_Node000011_Node000012" class="edge">
<title>Node11&#45;&gt;Node12</title>
<g id="a_edge11_Node000011_Node000012"><a xlink:title=" ">
<path fill="none" stroke="#63b8ff" d="M556.19,-314.69C543.58,-314.69 530.52,-314.69 518.14,-314.69"/>
<polygon fill="#63b8ff" stroke="#63b8ff" points="556.2,-318.19 566.2,-314.69 556.2,-311.19 556.2,-318.19"/>
</a>
</g>
</g>
<!-- Node13 -->
<g id="Node000013" class="node">
<title>Node13</title>
<g id="a_Node000013"><a xlink:href="classAP__Logger__Block.html#a1fa8f4bf4cc4c6bd3bbfc9fd94e08b48" target="_top" xlink:title=" ">
<polygon fill="white" stroke="#666666" points="345,-324.19 170,-324.19 170,-305.19 345,-305.19 345,-324.19"/>
<text text-anchor="middle" x="257.5" y="-312.19" font-family="Helvetica,sans-Serif" font-size="10.00">AP_Logger_Block::periodic_10Hz</text>
</a>
</g>
</g>
<!-- Node12&#45;&gt;Node13 -->
<g id="edge12_Node000012_Node000013" class="edge">
<title>Node12&#45;&gt;Node13</title>
<g id="a_edge12_Node000012_Node000013"><a xlink:title=" ">
<path fill="none" stroke="#63b8ff" d="M379.62,-314.69C368.33,-314.69 356.57,-314.69 345.02,-314.69"/>
<polygon fill="#63b8ff" stroke="#63b8ff" points="379.85,-318.19 389.85,-314.69 379.85,-311.19 379.85,-318.19"/>
</a>
</g>
</g>
<!-- Node14&#45;&gt;Node11 -->
<g id="edge14_Node000014_Node000011" class="edge">
<title>Node14&#45;&gt;Node11</title>
<g id="a_edge14_Node000014_Node000011"><a xlink:title=" ">
<path fill="none" stroke="#63b8ff" d="M738.55,-288.64C722.67,-292.43 705.96,-296.43 690.52,-300.11"/>
<polygon fill="#63b8ff" stroke="#63b8ff" points="739.4,-292.04 748.31,-286.31 737.77,-285.23 739.4,-292.04"/>
</a>
</g>
</g>
<!-- Node14&#45;&gt;Node12 -->
<g id="edge22_Node000014_Node000012" class="edge">
<title>Node14&#45;&gt;Node12</title>
<g id="a_edge22_Node000014_Node000012"><a xlink:title=" ">
<path fill="none" stroke="#63b8ff" d="M738.19,-274.51C688.81,-277.12 621.66,-281.96 563,-290.69 547.52,-293 530.95,-296.27 515.55,-299.65"/>
<polygon fill="#63b8ff" stroke="#63b8ff" points="738.64,-277.99 748.45,-273.99 738.28,-271 738.64,-277.99"/>
</a>
</g>
</g>
<!-- Node14&#45;&gt;Node15 -->
<g id="edge15_Node000014_Node000015" class="edge">
<title>Node14&#45;&gt;Node15</title>
<g id="a_edge15_Node000014_Node000015"><a xlink:title=" ">
<path fill="none" stroke="#63b8ff" d="M738.55,-254.74C722.67,-250.95 705.96,-246.96 690.52,-243.27"/>
<polygon fill="#63b8ff" stroke="#63b8ff" points="737.77,-258.15 748.31,-257.07 739.4,-251.34 737.77,-258.15"/>
</a>
</g>
</g>
<!-- Node14&#45;&gt;Node19 -->
<g id="edge20_Node000014_Node000019" class="edge">
<title>Node14&#45;&gt;Node19</title>
<g id="a_edge20_Node000014_Node000019"><a xlink:title=" ">
<path fill="none" stroke="#63b8ff" d="M780.26,-250.74C743.92,-224.69 682.76,-180.86 650.65,-157.84"/>
<polygon fill="#63b8ff" stroke="#63b8ff" points="778.33,-253.66 788.5,-256.64 782.41,-247.97 778.33,-253.66"/>
</a>
</g>
</g>
<!-- Node15&#45;&gt;Node16 -->
<g id="edge16_Node000015_Node000016" class="edge">
<title>Node15&#45;&gt;Node16</title>
<g id="a_edge16_Node000015_Node000016"><a xlink:title=" ">
<path fill="none" stroke="#63b8ff" d="M599.04,-207.41C564.15,-181.32 505.91,-137.76 475.26,-114.84"/>
<polygon fill="#63b8ff" stroke="#63b8ff" points="597.27,-210.45 607.37,-213.64 601.46,-204.85 597.27,-210.45"/>
</a>
</g>
</g>
<!-- Node15&#45;&gt;Node18 -->
<g id="edge18_Node000015_Node000018" class="edge">
<title>Node15&#45;&gt;Node18</title>
<g id="a_edge18_Node000015_Node000018"><a xlink:title=" ">
<path fill="none" stroke="#63b8ff" d="M556.25,-236.54C546.59,-237.6 536.68,-238.69 527.01,-239.76"/>
<polygon fill="#63b8ff" stroke="#63b8ff" points="556.64,-240.02 566.2,-235.44 555.87,-233.06 556.64,-240.02"/>
</a>
</g>
</g>
<!-- Node16&#45;&gt;Node17 -->
<g id="edge17_Node000016_Node000017" class="edge">
<title>Node16&#45;&gt;Node17</title>
<g id="a_edge17_Node000016_Node000017"><a xlink:title=" ">
<path fill="none" stroke="#63b8ff" d="M382.96,-86.01C361.95,-81.9 339.09,-77.43 318.76,-73.46"/>
<polygon fill="#63b8ff" stroke="#63b8ff" points="382.31,-89.44 392.79,-87.93 383.65,-82.57 382.31,-89.44"/>
</a>
</g>
</g>
<!-- Node18&#45;&gt;Node4 -->
<g id="edge19_Node000018_Node000004" class="edge">
<title>Node18&#45;&gt;Node4</title>
<g id="a_edge19_Node000018_Node000004"><a xlink:title=" ">
<path fill="none" stroke="#63b8ff" d="M370.68,-249.81C353.26,-250.25 335.17,-250.72 318.75,-251.14"/>
<polygon fill="#63b8ff" stroke="#63b8ff" points="370.95,-253.3 380.85,-249.54 370.77,-246.3 370.95,-253.3"/>
</a>
</g>
</g>
<!-- Node19&#45;&gt;Node16 -->
<g id="edge21_Node000019_Node000016" class="edge">
<title>Node19&#45;&gt;Node16</title>
<g id="a_edge21_Node000019_Node000016"><a xlink:title=" ">
<path fill="none" stroke="#63b8ff" d="M557.12,-125.15C543.14,-121.66 528.59,-118.04 515.01,-114.65"/>
<polygon fill="#63b8ff" stroke="#63b8ff" points="556.62,-128.63 567.17,-127.65 558.31,-121.84 556.62,-128.63"/>
</a>
</g>
</g>
<!-- Node21 -->
<g id="Node000021" class="node">
<title>Node21</title>
<g id="a_Node000021"><a xlink:href="classAP__Logger__Block.html#ad462fb0b2b771c5a2d7774e073126c0f" target="_top" xlink:title=" ">
<polygon fill="white" stroke="#666666" points="511.5,-469.69 396.5,-469.69 396.5,-439.69 511.5,-439.69 511.5,-469.69"/>
<text text-anchor="start" x="404.5" y="-457.69" font-family="Helvetica,sans-Serif" font-size="10.00">AP_Logger_Block::io</text>
<text text-anchor="middle" x="454" y="-446.69" font-family="Helvetica,sans-Serif" font-size="10.00">_timer</text>
</a>
</g>
</g>
<!-- Node20&#45;&gt;Node21 -->
<g id="edge25_Node000020_Node000021" class="edge">
<title>Node20&#45;&gt;Node21</title>
<g id="a_edge25_Node000020_Node000021"><a xlink:title=" ">
<path fill="none" stroke="#63b8ff" d="M719.64,-439.01C654.25,-442.89 567.7,-448.01 511.69,-451.33"/>
<polygon fill="#63b8ff" stroke="#63b8ff" points="720.17,-442.49 729.94,-438.4 719.75,-435.5 720.17,-442.49"/>
</a>
</g>
</g>
<!-- Node22 -->
<g id="Node000022" class="node">
<title>Node22</title>
<g id="a_Node000022"><a xlink:href="classAP__Logger__Block.html#ae6ee6c7f4a05209c51d8171ddf186eaf" target="_top" xlink:title=" ">
<polygon fill="white" stroke="#666666" points="694,-491.69 563,-491.69 563,-461.69 694,-461.69 694,-491.69"/>
<text text-anchor="start" x="571" y="-479.69" font-family="Helvetica,sans-Serif" font-size="10.00">AP_Logger_Block::write</text>
<text text-anchor="middle" x="628.5" y="-468.69" font-family="Helvetica,sans-Serif" font-size="10.00">_log_page</text>
</a>
</g>
</g>
<!-- Node20&#45;&gt;Node22 -->
<g id="edge26_Node000020_Node000022" class="edge">
<title>Node20&#45;&gt;Node22</title>
<g id="a_edge26_Node000020_Node000022"><a xlink:title=" ">
<path fill="none" stroke="#63b8ff" d="M756.64,-445.49C747.74,-447.53 738.6,-449.65 730,-451.69 716.71,-454.85 702.45,-458.33 688.97,-461.68"/>
<polygon fill="#63b8ff" stroke="#63b8ff" points="757.58,-448.87 766.55,-443.24 756.02,-442.04 757.58,-448.87"/>
</a>
</g>
</g>
<!-- Node22&#45;&gt;Node21 -->
<g id="edge27_Node000022_Node000021" class="edge">
<title>Node22&#45;&gt;Node21</title>
<g id="a_edge27_Node000022_Node000021"><a xlink:title=" ">
<path fill="none" stroke="#63b8ff" d="M552.8,-467.16C538.98,-465.4 524.76,-463.59 511.59,-461.91"/>
<polygon fill="#63b8ff" stroke="#63b8ff" points="552.41,-470.64 562.78,-468.44 553.3,-463.7 552.41,-470.64"/>
</a>
</g>
</g>
<!-- Node23&#45;&gt;Node15 -->
<g id="edge33_Node000023_Node000015" class="edge">
<title>Node23&#45;&gt;Node15</title>
<g id="a_edge33_Node000023_Node000015"><a xlink:title=" ">
<path fill="none" stroke="#63b8ff" d="M743.11,-201.55C725.98,-205.64 707.61,-210.03 690.75,-214.06"/>
<polygon fill="#63b8ff" stroke="#63b8ff" points="744.13,-204.91 753.04,-199.18 742.5,-198.1 744.13,-204.91"/>
</a>
</g>
</g>
<!-- Node23&#45;&gt;Node16 -->
<g id="edge34_Node000023_Node000016" class="edge">
<title>Node23&#45;&gt;Node16</title>
<g id="a_edge34_Node000023_Node000016"><a xlink:title=" ">
<path fill="none" stroke="#63b8ff" d="M781.59,-164.69C759.18,-149.05 726.23,-128.75 694,-118.69 635.19,-100.34 564.5,-96.86 515.32,-97.18"/>
<polygon fill="#63b8ff" stroke="#63b8ff" points="779.76,-167.68 789.93,-170.63 783.82,-161.98 779.76,-167.68"/>
</a>
</g>
</g>
<!-- Node23&#45;&gt;Node18 -->
<g id="edge36_Node000023_Node000018" class="edge">
<title>Node23&#45;&gt;Node18</title>
<g id="a_edge36_Node000023_Node000018"><a xlink:title=" ">
<path fill="none" stroke="#63b8ff" d="M743.4,-185.41C693.29,-186.48 623.04,-190.76 563,-204.69 536.07,-210.94 507.03,-222.81 485.85,-232.5"/>
<polygon fill="#63b8ff" stroke="#63b8ff" points="743.52,-188.91 753.46,-185.23 743.4,-181.91 743.52,-188.91"/>
</a>
</g>
</g>
<!-- Node23&#45;&gt;Node19 -->
<g id="edge35_Node000023_Node000019" class="edge">
<title>Node23&#45;&gt;Node19</title>
<g id="a_edge35_Node000023_Node000019"><a xlink:title=" ">
<path fill="none" stroke="#63b8ff" d="M742.96,-169.79C725.55,-165.63 706.88,-161.17 689.81,-157.1"/>
<polygon fill="#63b8ff" stroke="#63b8ff" points="742.5,-173.28 753.04,-172.2 744.13,-166.47 742.5,-173.28"/>
</a>
</g>
</g>
</g>
</svg>
