<?xml version="1.0" encoding="UTF-8" standalone="no"?>
<!DOCTYPE svg PUBLIC "-//W3C//DTD SVG 1.1//EN"
 "http://www.w3.org/Graphics/SVG/1.1/DTD/svg11.dtd">
<!-- Generated by graphviz version 2.43.0 (0)
 -->
<!-- Title: AP_Mount_Backend::set_rate_target Pages: 1 -->
<svg width="542pt" height="134pt"
 viewBox="0.00 0.00 542.00 134.00" xmlns="http://www.w3.org/2000/svg" xmlns:xlink="http://www.w3.org/1999/xlink">
<g id="graph0" class="graph" transform="scale(1 1) rotate(0) translate(4 130)">
<title>AP_Mount_Backend::set_rate_target</title>
<!-- Node1 -->
<g id="Node000001" class="node">
<title>Node1</title>
<g id="a_Node000001"><a xlink:title=" ">
<polygon fill="#999999" stroke="#666666" points="534,-78 401,-78 401,-48 534,-48 534,-78"/>
<text text-anchor="start" x="409" y="-66" font-family="Helvetica,sans-Serif" font-size="10.00">AP_Mount_Backend::set</text>
<text text-anchor="middle" x="467.5" y="-55" font-family="Helvetica,sans-Serif" font-size="10.00">_rate_target</text>
</a>
</g>
</g>
<!-- Node2 -->
<g id="Node000002" class="node">
<title>Node2</title>
<g id="a_Node000002"><a xlink:href="classAP__Mount.html#a382259e75d295bbeb0e73bdc0ae140b0" target="_top" xlink:title=" ">
<polygon fill="white" stroke="#666666" points="365,-126 194,-126 194,-96 365,-96 365,-126"/>
<text text-anchor="start" x="202" y="-114" font-family="Helvetica,sans-Serif" font-size="10.00">AP_Mount::handle_command</text>
<text text-anchor="middle" x="279.5" y="-103" font-family="Helvetica,sans-Serif" font-size="10.00">_do_gimbal_manager_pitchyaw</text>
</a>
</g>
</g>
<!-- Node1&#45;&gt;Node2 -->
<g id="edge1_Node000001_Node000002" class="edge">
<title>Node1&#45;&gt;Node2</title>
<g id="a_edge1_Node000001_Node000002"><a xlink:title=" ">
<path fill="none" stroke="#63b8ff" d="M398.38,-80.58C378.77,-85.64 357.58,-91.11 338.63,-96"/>
<polygon fill="#63b8ff" stroke="#63b8ff" points="399.35,-83.94 408.16,-78.06 397.6,-77.17 399.35,-83.94"/>
</a>
</g>
</g>
<!-- Node4 -->
<g id="Node000004" class="node">
<title>Node4</title>
<g id="a_Node000004"><a xlink:href="classAP__Mount.html#a3f02435b7ec528e763b2aa38dd5d73de" target="_top" xlink:title=" ">
<polygon fill="white" stroke="#666666" points="351,-78 208,-78 208,-48 351,-48 351,-78"/>
<text text-anchor="start" x="216" y="-66" font-family="Helvetica,sans-Serif" font-size="10.00">AP_Mount::handle_gimbal</text>
<text text-anchor="middle" x="279.5" y="-55" font-family="Helvetica,sans-Serif" font-size="10.00">_manager_set_attitude</text>
</a>
</g>
</g>
<!-- Node1&#45;&gt;Node4 -->
<g id="edge3_Node000001_Node000004" class="edge">
<title>Node1&#45;&gt;Node4</title>
<g id="a_edge3_Node000001_Node000004"><a xlink:title=" ">
<path fill="none" stroke="#63b8ff" d="M390.59,-63C377.56,-63 364.06,-63 351.17,-63"/>
<polygon fill="#63b8ff" stroke="#63b8ff" points="390.92,-66.5 400.92,-63 390.92,-59.5 390.92,-66.5"/>
</a>
</g>
</g>
<!-- Node6 -->
<g id="Node000006" class="node">
<title>Node6</title>
<g id="a_Node000006"><a xlink:href="classAP__Mount.html#a02b4b7f50f728829b9e8d2009591b2cd" target="_top" xlink:title=" ">
<polygon fill="white" stroke="#666666" points="351,-30 208,-30 208,0 351,0 351,-30"/>
<text text-anchor="start" x="216" y="-18" font-family="Helvetica,sans-Serif" font-size="10.00">AP_Mount::handle_gimbal</text>
<text text-anchor="middle" x="279.5" y="-7" font-family="Helvetica,sans-Serif" font-size="10.00">_manager_set_pitchyaw</text>
</a>
</g>
</g>
<!-- Node1&#45;&gt;Node6 -->
<g id="edge5_Node000001_Node000006" class="edge">
<title>Node1&#45;&gt;Node6</title>
<g id="a_edge5_Node000001_Node000006"><a xlink:title=" ">
<path fill="none" stroke="#63b8ff" d="M398.38,-45.42C378.77,-40.36 357.58,-34.89 338.63,-30"/>
<polygon fill="#63b8ff" stroke="#63b8ff" points="397.6,-48.83 408.16,-47.94 399.35,-42.06 397.6,-48.83"/>
</a>
</g>
</g>
<!-- Node3 -->
<g id="Node000003" class="node">
<title>Node3</title>
<g id="a_Node000003"><a xlink:href="classAP__Mount.html#aad4158b97d75702022b57a057933fa7f" target="_top" xlink:title=" ">
<polygon fill="white" stroke="#666666" points="158,-120.5 0,-120.5 0,-101.5 158,-101.5 158,-120.5"/>
<text text-anchor="middle" x="79" y="-108.5" font-family="Helvetica,sans-Serif" font-size="10.00">AP_Mount::handle_command</text>
</a>
</g>
</g>
<!-- Node2&#45;&gt;Node3 -->
<g id="edge2_Node000002_Node000003" class="edge">
<title>Node2&#45;&gt;Node3</title>
<g id="a_edge2_Node000002_Node000003"><a xlink:title=" ">
<path fill="none" stroke="#63b8ff" d="M183.73,-111C175.18,-111 166.58,-111 158.19,-111"/>
<polygon fill="#63b8ff" stroke="#63b8ff" points="183.74,-114.5 193.74,-111 183.74,-107.5 183.74,-114.5"/>
</a>
</g>
</g>
<!-- Node5 -->
<g id="Node000005" class="node">
<title>Node5</title>
<g id="a_Node000005"><a xlink:href="classAP__Mount.html#a8c213d8a477f1a10b1febe44187df20f" target="_top" xlink:title=" ">
<polygon fill="white" stroke="#666666" points="156,-48.5 2,-48.5 2,-29.5 156,-29.5 156,-48.5"/>
<text text-anchor="middle" x="79" y="-36.5" font-family="Helvetica,sans-Serif" font-size="10.00">AP_Mount::handle_message</text>
</a>
</g>
</g>
<!-- Node4&#45;&gt;Node5 -->
<g id="edge4_Node000004_Node000005" class="edge">
<title>Node4&#45;&gt;Node5</title>
<g id="a_edge4_Node000004_Node000005"><a xlink:title=" ">
<path fill="none" stroke="#63b8ff" d="M197.98,-53.26C184.12,-51.59 169.77,-49.85 156.04,-48.19"/>
<polygon fill="#63b8ff" stroke="#63b8ff" points="197.61,-56.75 207.96,-54.47 198.45,-49.8 197.61,-56.75"/>
</a>
</g>
</g>
<!-- Node6&#45;&gt;Node5 -->
<g id="edge6_Node000006_Node000005" class="edge">
<title>Node6&#45;&gt;Node5</title>
<g id="a_edge6_Node000006_Node000005"><a xlink:title=" ">
<path fill="none" stroke="#63b8ff" d="M197.98,-24.74C184.12,-26.41 169.77,-28.15 156.04,-29.81"/>
<polygon fill="#63b8ff" stroke="#63b8ff" points="198.45,-28.2 207.96,-23.53 197.61,-21.25 198.45,-28.2"/>
</a>
</g>
</g>
</g>
</svg>
