<?xml version="1.0" encoding="UTF-8" standalone="no"?>
<!DOCTYPE svg PUBLIC "-//W3C//DTD SVG 1.1//EN"
 "http://www.w3.org/Graphics/SVG/1.1/DTD/svg11.dtd">
<!-- Generated by graphviz version 2.43.0 (0)
 -->
<!-- Title: AP_RangeFinder_LightWareI2C::legacy_timer Pages: 1 -->
<svg width="520pt" height="190pt"
 viewBox="0.00 0.00 520.00 189.50" xmlns="http://www.w3.org/2000/svg" xmlns:xlink="http://www.w3.org/1999/xlink">
<g id="graph0" class="graph" transform="scale(1 1) rotate(0) translate(4 185.5)">
<title>AP_RangeFinder_LightWareI2C::legacy_timer</title>
<!-- Node1 -->
<g id="Node000001" class="node">
<title>Node1</title>
<g id="a_Node000001"><a xlink:title=" ">
<polygon fill="#999999" stroke="#666666" points="149,-96 0,-96 0,-66 149,-66 149,-96"/>
<text text-anchor="start" x="8" y="-84" font-family="Helvetica,sans-Serif" font-size="10.00">AP_RangeFinder_LightWare</text>
<text text-anchor="middle" x="74.5" y="-73" font-family="Helvetica,sans-Serif" font-size="10.00">I2C::legacy_timer</text>
</a>
</g>
</g>
<!-- Node2 -->
<g id="Node000002" class="node">
<title>Node2</title>
<g id="a_Node000002"><a xlink:href="classAP__RangeFinder__LightWareI2C.html#ab62262942197aa423925f50a46f24084" target="_top" xlink:title=" ">
<polygon fill="white" stroke="#666666" points="334,-144 185,-144 185,-114 334,-114 334,-144"/>
<text text-anchor="start" x="193" y="-132" font-family="Helvetica,sans-Serif" font-size="10.00">AP_RangeFinder_LightWare</text>
<text text-anchor="middle" x="259.5" y="-121" font-family="Helvetica,sans-Serif" font-size="10.00">I2C::legacy_get_reading</text>
</a>
</g>
</g>
<!-- Node1&#45;&gt;Node2 -->
<g id="edge1_Node000001_Node000002" class="edge">
<title>Node1&#45;&gt;Node2</title>
<g id="a_edge1_Node000001_Node000002"><a xlink:title=" ">
<path fill="none" stroke="#63b8ff" d="M132.9,-96.06C151.47,-100.93 172.22,-106.37 191.42,-111.41"/>
<polygon fill="#63b8ff" stroke="#63b8ff" points="190.74,-114.85 201.3,-114 192.52,-108.07 190.74,-114.85"/>
</a>
</g>
</g>
<!-- Node6 -->
<g id="Node000006" class="node">
<title>Node6</title>
<g id="a_Node000006"><a xlink:href="classAP__RangeFinder__Backend.html#af5a493f2f30ba01353f7ef57c3d08e04" target="_top" xlink:title=" ">
<polygon fill="white" stroke="#666666" points="330.5,-96 188.5,-96 188.5,-66 330.5,-66 330.5,-96"/>
<text text-anchor="start" x="196.5" y="-84" font-family="Helvetica,sans-Serif" font-size="10.00">AP_RangeFinder_Backend</text>
<text text-anchor="middle" x="259.5" y="-73" font-family="Helvetica,sans-Serif" font-size="10.00">::set_status</text>
</a>
</g>
</g>
<!-- Node1&#45;&gt;Node6 -->
<g id="edge5_Node000001_Node000006" class="edge">
<title>Node1&#45;&gt;Node6</title>
<g id="a_edge5_Node000001_Node000006"><a xlink:title=" ">
<path fill="none" stroke="#63b8ff" d="M149.14,-81C158.72,-81 168.58,-81 178.26,-81"/>
<polygon fill="#63b8ff" stroke="#63b8ff" points="178.27,-84.5 188.27,-81 178.27,-77.5 178.27,-84.5"/>
</a>
</g>
</g>
<!-- Node7 -->
<g id="Node000007" class="node">
<title>Node7</title>
<g id="a_Node000007"><a xlink:href="classAP__RangeFinder__Backend.html#a9e858f638e4c2d1138aa3f56d217a394" target="_top" xlink:title=" ">
<polygon fill="white" stroke="#666666" points="330.5,-30 188.5,-30 188.5,0 330.5,0 330.5,-30"/>
<text text-anchor="start" x="196.5" y="-18" font-family="Helvetica,sans-Serif" font-size="10.00">AP_RangeFinder_Backend</text>
<text text-anchor="middle" x="259.5" y="-7" font-family="Helvetica,sans-Serif" font-size="10.00">::update_status</text>
</a>
</g>
</g>
<!-- Node1&#45;&gt;Node7 -->
<g id="edge6_Node000001_Node000007" class="edge">
<title>Node1&#45;&gt;Node7</title>
<g id="a_edge6_Node000001_Node000007"><a xlink:title=" ">
<path fill="none" stroke="#63b8ff" d="M117.48,-65.86C144.1,-56.26 178.72,-43.77 207,-33.57"/>
<polygon fill="#63b8ff" stroke="#63b8ff" points="208.49,-36.76 216.71,-30.07 206.12,-30.17 208.49,-36.76"/>
</a>
</g>
</g>
<!-- Node3 -->
<g id="Node000003" class="node">
<title>Node3</title>
<g id="a_Node000003"><a xlink:href="sparse-endian_8h.html#a4460d76503583c1209bc0e78a5ccaefb" target="_top" xlink:title=" ">
<polygon fill="white" stroke="#666666" points="469,-181.5 413,-181.5 413,-162.5 469,-162.5 469,-181.5"/>
<text text-anchor="middle" x="441" y="-169.5" font-family="Helvetica,sans-Serif" font-size="10.00">be16toh</text>
</a>
</g>
</g>
<!-- Node2&#45;&gt;Node3 -->
<g id="edge2_Node000002_Node000003" class="edge">
<title>Node2&#45;&gt;Node3</title>
<g id="a_edge2_Node000002_Node000003"><a xlink:title=" ">
<path fill="none" stroke="#63b8ff" d="M323.28,-144.04C349.76,-150.38 379.69,-157.55 402.61,-163.04"/>
<polygon fill="#63b8ff" stroke="#63b8ff" points="402.07,-166.51 412.61,-165.44 403.7,-159.71 402.07,-166.51"/>
</a>
</g>
</g>
<!-- Node4 -->
<g id="Node000004" class="node">
<title>Node4</title>
<g id="a_Node000004"><a xlink:href="classAP__RangeFinder__Backend.html#a494624fffc4725c2560957d5f9afe991" target="_top" xlink:title=" ">
<polygon fill="white" stroke="#666666" points="512,-144 370,-144 370,-114 512,-114 512,-144"/>
<text text-anchor="start" x="378" y="-132" font-family="Helvetica,sans-Serif" font-size="10.00">AP_RangeFinder_Backend</text>
<text text-anchor="middle" x="441" y="-121" font-family="Helvetica,sans-Serif" font-size="10.00">::max_distance_cm</text>
</a>
</g>
</g>
<!-- Node2&#45;&gt;Node4 -->
<g id="edge3_Node000002_Node000004" class="edge">
<title>Node2&#45;&gt;Node4</title>
<g id="a_edge3_Node000002_Node000004"><a xlink:title=" ">
<path fill="none" stroke="#63b8ff" d="M334.03,-129C342.42,-129 351.02,-129 359.5,-129"/>
<polygon fill="#63b8ff" stroke="#63b8ff" points="359.77,-132.5 369.77,-129 359.77,-125.5 359.77,-132.5"/>
</a>
</g>
</g>
<!-- Node5 -->
<g id="Node000005" class="node">
<title>Node5</title>
<g id="a_Node000005"><a xlink:href="classAP__HAL_1_1I2CDevice.html#a2e581ddc9b02eb73ad2fdf488fe8dc86" target="_top" xlink:title=" ">
<polygon fill="white" stroke="#666666" points="499,-96 383,-96 383,-66 499,-66 499,-96"/>
<text text-anchor="start" x="391" y="-84" font-family="Helvetica,sans-Serif" font-size="10.00">AP_HAL::I2CDevice::</text>
<text text-anchor="middle" x="441" y="-73" font-family="Helvetica,sans-Serif" font-size="10.00">transfer</text>
</a>
</g>
</g>
<!-- Node2&#45;&gt;Node5 -->
<g id="edge4_Node000002_Node000005" class="edge">
<title>Node2&#45;&gt;Node5</title>
<g id="a_edge4_Node000002_Node000005"><a xlink:title=" ">
<path fill="none" stroke="#63b8ff" d="M316.8,-113.94C335.01,-109.07 355.37,-103.63 374.21,-98.59"/>
<polygon fill="#63b8ff" stroke="#63b8ff" points="375.14,-101.97 383.9,-96 373.33,-95.2 375.14,-101.97"/>
</a>
</g>
</g>
<!-- Node7&#45;&gt;Node7 -->
<g id="edge7_Node000007_Node000007" class="edge">
<title>Node7&#45;&gt;Node7</title>
<g id="a_edge7_Node000007_Node000007"><a xlink:title=" ">
<path fill="none" stroke="#63b8ff" d="M227.86,-30.28C220.83,-39.41 231.38,-48 259.5,-48 276.2,-48 286.7,-44.97 291.01,-40.6"/>
<polygon fill="#63b8ff" stroke="#63b8ff" points="294.51,-40.32 291.14,-30.28 287.51,-40.23 294.51,-40.32"/>
</a>
</g>
</g>
</g>
</svg>
