<?xml version="1.0" encoding="UTF-8" standalone="no"?>
<!DOCTYPE svg PUBLIC "-//W3C//DTD SVG 1.1//EN"
 "http://www.w3.org/Graphics/SVG/1.1/DTD/svg11.dtd">
<!-- Generated by graphviz version 2.43.0 (0)
 -->
<!-- Title: AP_FlashStorage::re_initialise Pages: 1 -->
<svg width="1027pt" height="140pt"
 viewBox="0.00 0.00 1027.00 140.00" xmlns="http://www.w3.org/2000/svg" xmlns:xlink="http://www.w3.org/1999/xlink">
<g id="graph0" class="graph" transform="scale(1 1) rotate(0) translate(4 136)">
<title>AP_FlashStorage::re_initialise</title>
<!-- Node1 -->
<g id="Node000001" class="node">
<title>Node1</title>
<g id="a_Node000001"><a xlink:title=" ">
<polygon fill="#999999" stroke="#666666" points="114,-99.5 0,-99.5 0,-69.5 114,-69.5 114,-99.5"/>
<text text-anchor="start" x="8" y="-87.5" font-family="Helvetica,sans-Serif" font-size="10.00">AP_FlashStorage::re</text>
<text text-anchor="middle" x="57" y="-76.5" font-family="Helvetica,sans-Serif" font-size="10.00">_initialise</text>
</a>
</g>
</g>
<!-- Node2 -->
<g id="Node000002" class="node">
<title>Node2</title>
<g id="a_Node000002"><a xlink:href="classAP__FlashStorage.html#ae91efa8e66dbd73e5b0e0d48473302d9" target="_top" xlink:title=" ">
<polygon fill="white" stroke="#666666" points="660,-132 511,-132 511,-113 660,-113 660,-132"/>
<text text-anchor="middle" x="585.5" y="-120" font-family="Helvetica,sans-Serif" font-size="10.00">AP_FlashStorage::erase_all</text>
</a>
</g>
</g>
<!-- Node1&#45;&gt;Node2 -->
<g id="edge1_Node000001_Node000002" class="edge">
<title>Node1&#45;&gt;Node2</title>
<g id="a_edge1_Node000001_Node000002"><a xlink:title=" ">
<path fill="none" stroke="#63b8ff" d="M114.34,-88.57C207.12,-95.26 392.51,-108.64 500.7,-116.45"/>
<polygon fill="#63b8ff" stroke="#63b8ff" points="500.7,-119.96 510.93,-117.19 501.21,-112.98 500.7,-119.96"/>
</a>
</g>
</g>
<!-- Node4 -->
<g id="Node000004" class="node">
<title>Node4</title>
<g id="a_Node000004"><a xlink:href="classAP__FlashStorage.html#a14738e7809b4eb36f7666a2402e4cf30" target="_top" xlink:title=" ">
<polygon fill="white" stroke="#666666" points="296,-75 150,-75 150,-56 296,-56 296,-75"/>
<text text-anchor="middle" x="223" y="-63" font-family="Helvetica,sans-Serif" font-size="10.00">AP_FlashStorage::write_all</text>
</a>
</g>
</g>
<!-- Node1&#45;&gt;Node4 -->
<g id="edge3_Node000001_Node000004" class="edge">
<title>Node1&#45;&gt;Node4</title>
<g id="a_edge3_Node000001_Node000004"><a xlink:title=" ">
<path fill="none" stroke="#63b8ff" d="M114.44,-77.96C122.63,-77.01 131.2,-76.02 139.77,-75.03"/>
<polygon fill="#63b8ff" stroke="#63b8ff" points="140.28,-78.49 149.82,-73.86 139.48,-71.54 140.28,-78.49"/>
</a>
</g>
</g>
<!-- Node3 -->
<g id="Node000003" class="node">
<title>Node3</title>
<g id="a_Node000003"><a xlink:href="classAP__FlashStorage.html#a59b99278be33c5d60b0f6d79cb6d069b" target="_top" xlink:title=" ">
<polygon fill="white" stroke="#666666" points="1016.5,-89.5 885.5,-89.5 885.5,-59.5 1016.5,-59.5 1016.5,-89.5"/>
<text text-anchor="start" x="893.5" y="-77.5" font-family="Helvetica,sans-Serif" font-size="10.00">AP_FlashStorage::erase</text>
<text text-anchor="middle" x="951" y="-66.5" font-family="Helvetica,sans-Serif" font-size="10.00">_sector</text>
</a>
</g>
</g>
<!-- Node2&#45;&gt;Node3 -->
<g id="edge2_Node000002_Node000003" class="edge">
<title>Node2&#45;&gt;Node3</title>
<g id="a_edge2_Node000002_Node000003"><a xlink:title=" ">
<path fill="none" stroke="#63b8ff" d="M658.75,-112.96C721.54,-104.67 812.13,-92.71 875.56,-84.33"/>
<polygon fill="#63b8ff" stroke="#63b8ff" points="876.04,-87.8 885.5,-83.02 875.13,-80.86 876.04,-87.8"/>
</a>
</g>
</g>
<!-- Node5 -->
<g id="Node000005" class="node">
<title>Node5</title>
<g id="a_Node000005"><a xlink:href="classAP__FlashStorage.html#a1c7255d47fd8dd57f5248130795b5dd6" target="_top" xlink:title=" ">
<polygon fill="white" stroke="#666666" points="475,-56 332,-56 332,-37 475,-37 475,-56"/>
<text text-anchor="middle" x="403.5" y="-44" font-family="Helvetica,sans-Serif" font-size="10.00">AP_FlashStorage::all_zero</text>
</a>
</g>
</g>
<!-- Node4&#45;&gt;Node5 -->
<g id="edge4_Node000004_Node000005" class="edge">
<title>Node4&#45;&gt;Node5</title>
<g id="a_edge4_Node000004_Node000005"><a xlink:title=" ">
<path fill="none" stroke="#63b8ff" d="M296.09,-57.83C304.57,-56.92 313.27,-56 321.86,-55.08"/>
<polygon fill="#63b8ff" stroke="#63b8ff" points="322.31,-58.56 331.88,-54.02 321.57,-51.59 322.31,-58.56"/>
</a>
</g>
</g>
<!-- Node6 -->
<g id="Node000006" class="node">
<title>Node6</title>
<g id="a_Node000006"><a xlink:href="classAP__FlashStorage.html#a7e7e3eded1b0236702d92e95c7051537" target="_top" xlink:title=" ">
<polygon fill="white" stroke="#666666" points="468,-19 339,-19 339,0 468,0 468,-19"/>
<text text-anchor="middle" x="403.5" y="-7" font-family="Helvetica,sans-Serif" font-size="10.00">AP_FlashStorage::write</text>
</a>
</g>
</g>
<!-- Node4&#45;&gt;Node6 -->
<g id="edge5_Node000004_Node000006" class="edge">
<title>Node4&#45;&gt;Node6</title>
<g id="a_edge5_Node000004_Node000006"><a xlink:title=" ">
<path fill="none" stroke="#63b8ff" d="M249.11,-55.96C270.86,-47.86 303.28,-36.2 332,-27.5 338.58,-25.51 345.55,-23.55 352.44,-21.7"/>
<polygon fill="#63b8ff" stroke="#63b8ff" points="353.65,-25 362.44,-19.08 351.87,-18.23 353.65,-25"/>
</a>
</g>
</g>
<!-- Node7 -->
<g id="Node000007" class="node">
<title>Node7</title>
<g id="a_Node000007"><a xlink:href="classAP__FlashStorage.html#a8863c3eabf550c4db0fcdb49a564640f" target="_top" xlink:title=" ">
<polygon fill="white" stroke="#666666" points="653.5,-56.5 517.5,-56.5 517.5,-26.5 653.5,-26.5 653.5,-56.5"/>
<text text-anchor="start" x="525.5" y="-44.5" font-family="Helvetica,sans-Serif" font-size="10.00">AP_FlashStorage::switch</text>
<text text-anchor="middle" x="585.5" y="-33.5" font-family="Helvetica,sans-Serif" font-size="10.00">_full_sector</text>
</a>
</g>
</g>
<!-- Node6&#45;&gt;Node7 -->
<g id="edge6_Node000006_Node000007" class="edge">
<title>Node6&#45;&gt;Node7</title>
<g id="a_edge6_Node000006_Node000007"><a xlink:title=" ">
<path fill="none" stroke="#63b8ff" d="M458.02,-19.01C473.47,-21.76 490.64,-24.81 507.22,-27.76"/>
<polygon fill="#63b8ff" stroke="#63b8ff" points="507,-31.28 517.45,-29.58 508.22,-24.38 507,-31.28"/>
</a>
</g>
</g>
<!-- Node9 -->
<g id="Node000009" class="node">
<title>Node9</title>
<g id="a_Node000009"><a xlink:href="classAP__FlashStorage.html#a72ae131c0d9936d92af8bce8e77b2137" target="_top" xlink:title=" ">
<polygon fill="white" stroke="#666666" points="1019,-32.5 883,-32.5 883,-2.5 1019,-2.5 1019,-32.5"/>
<text text-anchor="start" x="891" y="-20.5" font-family="Helvetica,sans-Serif" font-size="10.00">AP_FlashStorage::switch</text>
<text text-anchor="middle" x="951" y="-9.5" font-family="Helvetica,sans-Serif" font-size="10.00">_sectors</text>
</a>
</g>
</g>
<!-- Node6&#45;&gt;Node9 -->
<g id="edge11_Node000006_Node000009" class="edge">
<title>Node6&#45;&gt;Node9</title>
<g id="a_edge11_Node000006_Node000009"><a xlink:title=" ">
<path fill="none" stroke="#63b8ff" d="M468.14,-10.43C568.75,-11.91 764.2,-14.78 872.71,-16.37"/>
<polygon fill="#63b8ff" stroke="#63b8ff" points="872.88,-19.87 882.93,-16.52 872.99,-12.87 872.88,-19.87"/>
</a>
</g>
</g>
<!-- Node8 -->
<g id="Node000008" class="node">
<title>Node8</title>
<g id="a_Node000008"><a xlink:href="classAP__FlashStorage.html#a2d10a15c687dd312350a878c264c39b2" target="_top" xlink:title=" ">
<polygon fill="white" stroke="#666666" points="847,-72.5 696,-72.5 696,-42.5 847,-42.5 847,-72.5"/>
<text text-anchor="start" x="704" y="-60.5" font-family="Helvetica,sans-Serif" font-size="10.00">AP_FlashStorage::protected</text>
<text text-anchor="middle" x="771.5" y="-49.5" font-family="Helvetica,sans-Serif" font-size="10.00">_switch_full_sector</text>
</a>
</g>
</g>
<!-- Node7&#45;&gt;Node8 -->
<g id="edge7_Node000007_Node000008" class="edge">
<title>Node7&#45;&gt;Node8</title>
<g id="a_edge7_Node000007_Node000008"><a xlink:title=" ">
<path fill="none" stroke="#63b8ff" d="M653.71,-47.34C664.06,-48.24 674.86,-49.18 685.53,-50.11"/>
<polygon fill="#63b8ff" stroke="#63b8ff" points="685.44,-53.62 695.7,-51 686.04,-46.64 685.44,-53.62"/>
</a>
</g>
</g>
<!-- Node8&#45;&gt;Node3 -->
<g id="edge8_Node000008_Node000003" class="edge">
<title>Node8&#45;&gt;Node3</title>
<g id="a_edge8_Node000008_Node000003"><a xlink:title=" ">
<path fill="none" stroke="#63b8ff" d="M847,-64.64C856.34,-65.53 865.89,-66.44 875.23,-67.34"/>
<polygon fill="#63b8ff" stroke="#63b8ff" points="874.98,-70.83 885.26,-68.3 875.64,-63.86 874.98,-70.83"/>
</a>
</g>
</g>
<!-- Node8&#45;&gt;Node4 -->
<g id="edge10_Node000008_Node000004" class="edge">
<title>Node8&#45;&gt;Node4</title>
<g id="a_edge10_Node000008_Node000004"><a xlink:title=" ">
<path fill="none" stroke="#63b8ff" d="M695.94,-63.64C683.93,-64.41 671.63,-65.08 660,-65.5 536.85,-69.95 394,-68.74 306.31,-67.27"/>
<polygon fill="#63b8ff" stroke="#63b8ff" points="306.22,-63.77 296.16,-67.09 306.1,-70.77 306.22,-63.77"/>
</a>
</g>
</g>
<!-- Node8&#45;&gt;Node9 -->
<g id="edge9_Node000008_Node000009" class="edge">
<title>Node8&#45;&gt;Node9</title>
<g id="a_edge9_Node000008_Node000009"><a xlink:title=" ">
<path fill="none" stroke="#63b8ff" d="M839.1,-42.49C850.28,-39.97 861.97,-37.34 873.38,-34.77"/>
<polygon fill="#63b8ff" stroke="#63b8ff" points="874.34,-38.14 883.32,-32.53 872.8,-31.31 874.34,-38.14"/>
</a>
</g>
</g>
</g>
</svg>
