<?xml version="1.0" encoding="UTF-8" standalone="no"?>
<!DOCTYPE svg PUBLIC "-//W3C//DTD SVG 1.1//EN"
 "http://www.w3.org/Graphics/SVG/1.1/DTD/svg11.dtd">
<!-- Generated by graphviz version 2.43.0 (0)
 -->
<!-- Title: AP_WindVane_NMEA Pages: 1 -->
<!--zoomable 303 -->

<svg id="main" version="1.1" xmlns="http://www.w3.org/2000/svg" xmlns:xlink="http://www.w3.org/1999/xlink" xml:space="preserve" onload="init(evt)">
<style type="text/css"><![CDATA[
.node, .edge {opacity: 0.7;}
.node.selected, .edge.selected {opacity: 1;}
.edge:hover path { stroke: red; }
.edge:hover polygon { stroke: red; fill: red; }
]]></style>

<defs>
  <circle id="rim" cx="0" cy="0" r="7"/>
  <circle id="rim2" cx="0" cy="0" r="3.5"/>
  <g id="zoomPlus">
    <use xlink:href="#rim" fill="#404040"><set attributeName="fill" to="#808080" begin="zoomplus.mouseover" end="zoomplus.mouseout"/></use>
    <path d="M-4,0h8M0,-4v8" fill="none" stroke="white" stroke-width="1.5" pointer-events="none"/>
  </g>
  <g id="zoomMin">
    <use xlink:href="#rim" fill="#404040"><set attributeName="fill" to="#808080" begin="zoomminus.mouseover" end="zoomminus.mouseout"/></use>
    <path d="M-4,0h8" fill="none" stroke="white" stroke-width="1.5" pointer-events="none"/>
  </g>
  <g id="arrowUp" transform="translate(30 24)">
    <use xlink:href="#rim"/>
    <path pointer-events="none" fill="none" stroke="white" stroke-width="1.5" d="M0,-3.0v7 M-2.5,-0.5L0,-3.0L2.5,-0.5"/>
  </g>
  <g id="arrowRight" transform="rotate(90) translate(36 -43)">
    <use xlink:href="#rim"/>
    <path pointer-events="none" fill="none" stroke="white" stroke-width="1.5" d="M0,-3.0v7 M-2.5,-0.5L0,-3.0L2.5,-0.5"/>
  </g>
  <g id="arrowDown" transform="rotate(180) translate(-30 -48)">
    <use xlink:href="#rim"/>
    <path pointer-events="none" fill="none" stroke="white" stroke-width="1.5" d="M0,-3.0v7 M-2.5,-0.5L0,-3.0L2.5,-0.5"/>
  </g>
  <g id="arrowLeft" transform="rotate(270) translate(-36 17)">
    <use xlink:href="#rim"/>
    <path pointer-events="none" fill="none" stroke="white" stroke-width="1.5" d="M0,-3.0v7 M-2.5,-0.5L0,-3.0L2.5,-0.5"/>
  </g>
  <g id="resetDef">
    <use xlink:href="#rim2" fill="#404040"><set attributeName="fill" to="#808080" begin="reset.mouseover" end="reset.mouseout"/></use>
  </g>
</defs>
<script type="application/ecmascript">
var viewWidth = 679;
var viewHeight = 303;
var sectionId = 'dynsection-1';
</script>
<script type="application/ecmascript" xlink:href="svg.min.js"/>
<svg id="graph" class="graph">
<g id="viewport">
<title>AP_WindVane_NMEA</title>
<!-- Node1 -->
<g id="Node000001" class="node">
<title>Node1</title>
<g id="a_Node000001"><a xlink:title=" ">
<polygon fill="#999999" stroke="#666666" points="192.5,-28.23 74.5,-28.23 74.5,-9.23 192.5,-9.23 192.5,-28.23"/>
<text text-anchor="middle" x="133.5" y="-16.23" font-family="Helvetica,sans-Serif" font-size="10.00">AP_WindVane_NMEA</text>
</a>
</g>
</g>
<!-- Node2 -->
<g id="Node000002" class="node">
<title>Node2</title>
<g id="a_Node000002"><a xlink:href="classAP__WindVane__Backend.html" target="_top" xlink:title=" ">
<polygon fill="white" stroke="#666666" points="268.5,-227.73 138.5,-227.73 138.5,-208.73 268.5,-208.73 268.5,-227.73"/>
<text text-anchor="middle" x="203.5" y="-215.73" font-family="Helvetica,sans-Serif" font-size="10.00">AP_WindVane_Backend</text>
</a>
</g>
</g>
<!-- Node2&#45;&gt;Node1 -->
<g id="edge1_Node000001_Node000002" class="edge">
<title>Node2&#45;&gt;Node1</title>
<g id="a_edge1_Node000001_Node000002"><a xlink:title=" ">
<path fill="none" stroke="#63b8ff" d="M182.26,-202.07C178.18,-198.29 174.3,-193.95 171.5,-189.23 138.99,-134.53 134.26,-54.86 133.6,-28.53"/>
<polygon fill="#63b8ff" stroke="#63b8ff" points="180.22,-204.93 190.16,-208.61 184.69,-199.54 180.22,-204.93"/>
</a>
</g>
</g>
<!-- Node3 -->
<g id="Node000003" class="node">
<title>Node3</title>
<g id="a_Node000003"><a xlink:href="classAP__WindVane.html" target="_top" xlink:title=" ">
<polygon fill="white" stroke="#666666" points="379,-28.23 296,-28.23 296,-9.23 379,-9.23 379,-28.23"/>
<text text-anchor="middle" x="337.5" y="-16.23" font-family="Helvetica,sans-Serif" font-size="10.00">AP_WindVane</text>
</a>
</g>
</g>
<!-- Node2&#45;&gt;Node3 -->
<g id="edge5_Node000003_Node000002" class="edge">
<title>Node2&#45;&gt;Node3</title>
<g id="a_edge5_Node000003_Node000002"><a xlink:title=" ">
<path fill="none" stroke="#9a32cd" stroke-dasharray="5,2" d="M193.65,-198.96C192.35,-195.79 191.22,-192.48 190.5,-189.23 176.8,-127.17 149.74,-95 190.5,-46.23 203.72,-30.42 257.23,-24.02 295.87,-21.45"/>
<polygon fill="#9a32cd" stroke="#9a32cd" points="190.63,-200.75 198.11,-208.26 196.95,-197.73 190.63,-200.75"/>
</a>
</g>
<text text-anchor="middle" x="233" y="-120.73" font-family="Helvetica,sans-Serif" font-size="10.00" fill="grey"> _direction_driver</text>
<text text-anchor="middle" x="233" y="-109.73" font-family="Helvetica,sans-Serif" font-size="10.00" fill="grey">_speed_driver</text>
</g>
<!-- Node3&#45;&gt;Node2 -->
<g id="edge2_Node000002_Node000003" class="edge">
<title>Node3&#45;&gt;Node2</title>
<g id="a_edge2_Node000002_Node000003"><a xlink:title=" ">
<path fill="none" stroke="#9a32cd" stroke-dasharray="5,2" d="M310.17,-33.84C305.64,-37.32 301.46,-41.44 298.5,-46.23 264.82,-100.79 319.56,-139.18 279.5,-189.23 272.21,-198.35 261.65,-204.49 250.72,-208.64"/>
<polygon fill="#9a32cd" stroke="#9a32cd" points="312.14,-36.74 318.53,-28.28 308.26,-30.91 312.14,-36.74"/>
</a>
</g>
<text text-anchor="middle" x="323.5" y="-115.23" font-family="Helvetica,sans-Serif" font-size="10.00" fill="grey"> _frontend</text>
</g>
<!-- Node3&#45;&gt;Node3 -->
<g id="edge8_Node000003_Node000003" class="edge">
<title>Node3&#45;&gt;Node3</title>
<g id="a_edge8_Node000003_Node000003"><a xlink:title=" ">
<path fill="none" stroke="#9a32cd" stroke-dasharray="5,2" d="M356.86,-33.27C375.95,-41.43 397,-36.58 397,-18.73 397,1.94 368.76,5.17 348.02,-9.04"/>
<polygon fill="#9a32cd" stroke="#9a32cd" points="358.47,-30.17 348.02,-28.42 355.1,-36.3 358.47,-30.17"/>
</a>
</g>
<text text-anchor="middle" x="424" y="-16.23" font-family="Helvetica,sans-Serif" font-size="10.00" fill="grey"> _singleton</text>
</g>
<!-- Node4 -->
<g id="Node000004" class="node">
<title>Node4</title>
<g id="a_Node000004"><a xlink:href="structAP__Param_1_1GroupInfo.html" target="_top" xlink:title=" ">
<polygon fill="white" stroke="#666666" points="425,-227.73 306,-227.73 306,-208.73 425,-208.73 425,-227.73"/>
<text text-anchor="middle" x="365.5" y="-215.73" font-family="Helvetica,sans-Serif" font-size="10.00">AP_Param::GroupInfo</text>
</a>
</g>
</g>
<!-- Node4&#45;&gt;Node3 -->
<g id="edge3_Node000003_Node000004" class="edge">
<title>Node4&#45;&gt;Node3</title>
<g id="a_edge3_Node000003_Node000004"><a xlink:title=" ">
<path fill="none" stroke="#9a32cd" stroke-dasharray="5,2" d="M366.71,-198.29C368.18,-166.21 368.72,-99.51 352.5,-46.23 350.59,-39.96 347.01,-33.55 343.83,-28.6"/>
<polygon fill="#9a32cd" stroke="#9a32cd" points="363.2,-198.27 366.16,-208.45 370.19,-198.65 363.2,-198.27"/>
</a>
</g>
<text text-anchor="middle" x="388" y="-115.23" font-family="Helvetica,sans-Serif" font-size="10.00" fill="grey"> var_info</text>
</g>
<!-- Node4&#45;&gt;Node4 -->
<g id="edge4_Node000004_Node000004" class="edge">
<title>Node4&#45;&gt;Node4</title>
<g id="a_edge4_Node000004_Node000004"><a xlink:title=" ">
<path fill="none" stroke="#9a32cd" stroke-dasharray="5,2" d="M435.48,-222.81C440.16,-221.75 443,-220.23 443,-218.23 443,-215.05 435.73,-213.05 425.29,-212.26"/>
<polygon fill="#9a32cd" stroke="#9a32cd" points="434.72,-219.38 425.29,-224.21 435.67,-226.32 434.72,-219.38"/>
</a>
</g>
<text text-anchor="middle" x="478.5" y="-221.23" font-family="Helvetica,sans-Serif" font-size="10.00" fill="grey"> group_info</text>
<text text-anchor="middle" x="478.5" y="-210.23" font-family="Helvetica,sans-Serif" font-size="10.00" fill="grey">group_info_ptr</text>
</g>
<!-- Node5 -->
<g id="Node000005" class="node">
<title>Node5</title>
<g id="a_Node000005"><a xlink:href="classLowPassFilter.html" target="_top" xlink:title=" ">
<polygon fill="white" stroke="#666666" points="659,-227.73 532,-227.73 532,-208.73 659,-208.73 659,-227.73"/>
<text text-anchor="middle" x="595.5" y="-215.73" font-family="Helvetica,sans-Serif" font-size="10.00">LowPassFilter&lt; float &gt;</text>
</a>
</g>
</g>
<!-- Node5&#45;&gt;Node3 -->
<g id="edge6_Node000003_Node000005" class="edge">
<title>Node5&#45;&gt;Node3</title>
<g id="a_edge6_Node000003_Node000005"><a xlink:title=" ">
<path fill="none" stroke="#9a32cd" stroke-dasharray="5,2" d="M581.97,-200.47C553.92,-166.75 486,-90.17 413.5,-46.23 400.71,-38.48 385.34,-32.58 371.77,-28.34"/>
<polygon fill="#9a32cd" stroke="#9a32cd" points="579.45,-202.93 588.5,-208.43 584.86,-198.48 579.45,-202.93"/>
</a>
</g>
<text text-anchor="start" x="570.5" y="-181.23" font-family="Helvetica,sans-Serif" font-size="10.00" fill="grey"> _direction_apparent</text>
<text text-anchor="middle" x="620.5" y="-170.23" font-family="Helvetica,sans-Serif" font-size="10.00" fill="grey">_cos_filt</text>
<text text-anchor="start" x="570.5" y="-159.23" font-family="Helvetica,sans-Serif" font-size="10.00" fill="grey">_direction_apparent</text>
<text text-anchor="middle" x="620.5" y="-148.23" font-family="Helvetica,sans-Serif" font-size="10.00" fill="grey">_sin_filt</text>
<text text-anchor="start" x="570.5" y="-137.23" font-family="Helvetica,sans-Serif" font-size="10.00" fill="grey">_direction_true_cos</text>
<text text-anchor="middle" x="620.5" y="-126.23" font-family="Helvetica,sans-Serif" font-size="10.00" fill="grey">_filt</text>
<text text-anchor="start" x="570.5" y="-115.23" font-family="Helvetica,sans-Serif" font-size="10.00" fill="grey">_direction_true</text>
<text text-anchor="middle" x="620.5" y="-104.23" font-family="Helvetica,sans-Serif" font-size="10.00" fill="grey">_sin_filt</text>
<text text-anchor="start" x="570.5" y="-93.23" font-family="Helvetica,sans-Serif" font-size="10.00" fill="grey">_speed_apparent</text>
<text text-anchor="middle" x="620.5" y="-82.23" font-family="Helvetica,sans-Serif" font-size="10.00" fill="grey">_filt</text>
<text text-anchor="middle" x="620.5" y="-71.23" font-family="Helvetica,sans-Serif" font-size="10.00" fill="grey">_speed_true_filt</text>
<text text-anchor="middle" x="620.5" y="-60.23" font-family="Helvetica,sans-Serif" font-size="10.00" fill="grey">_tack_cos_filt</text>
<text text-anchor="middle" x="620.5" y="-49.23" font-family="Helvetica,sans-Serif" font-size="10.00" fill="grey">_tack_sin_filt</text>
</g>
<!-- Node6 -->
<g id="Node000006" class="node">
<title>Node6</title>
<g id="a_Node000006"><a xlink:href="classDigitalLPF.html" target="_top" xlink:title=" ">
<polygon fill="white" stroke="#666666" points="650.5,-295.23 540.5,-295.23 540.5,-276.23 650.5,-276.23 650.5,-295.23"/>
<text text-anchor="middle" x="595.5" y="-283.23" font-family="Helvetica,sans-Serif" font-size="10.00">DigitalLPF&lt; float &gt;</text>
</a>
</g>
</g>
<!-- Node6&#45;&gt;Node5 -->
<g id="edge7_Node000005_Node000006" class="edge">
<title>Node6&#45;&gt;Node5</title>
<g id="a_edge7_Node000005_Node000006"><a xlink:title=" ">
<path fill="none" stroke="#9a32cd" stroke-dasharray="5,2" d="M595.5,-265.92C595.5,-253.45 595.5,-237.66 595.5,-228.01"/>
<polygon fill="#9a32cd" stroke="#9a32cd" points="592,-266.17 595.5,-276.17 599,-266.17 592,-266.17"/>
</a>
</g>
<text text-anchor="middle" x="611" y="-250.23" font-family="Helvetica,sans-Serif" font-size="10.00" fill="grey"> _filter</text>
</g>
<!-- Node7 -->
<g id="Node000007" class="node">
<title>Node7</title>
<g id="a_Node000007"><a xlink:href="classAP__HAL_1_1UARTDriver.html" target="_top" xlink:title=" ">
<polygon fill="white" stroke="#666666" points="120.5,-227.73 4.5,-227.73 4.5,-208.73 120.5,-208.73 120.5,-227.73"/>
<text text-anchor="middle" x="62.5" y="-215.73" font-family="Helvetica,sans-Serif" font-size="10.00">AP_HAL::UARTDriver</text>
</a>
</g>
</g>
<!-- Node7&#45;&gt;Node1 -->
<g id="edge9_Node000001_Node000007" class="edge">
<title>Node7&#45;&gt;Node1</title>
<g id="a_edge9_Node000001_Node000007"><a xlink:title=" ">
<path fill="none" stroke="#9a32cd" stroke-dasharray="5,2" d="M64.03,-198.41C67.39,-165.52 77.59,-96.35 106.5,-46.23 110.44,-39.41 116.62,-33.16 122.07,-28.44"/>
<polygon fill="#9a32cd" stroke="#9a32cd" points="60.54,-198.15 63.1,-208.43 67.51,-198.8 60.54,-198.15"/>
</a>
</g>
<text text-anchor="middle" x="118" y="-115.23" font-family="Helvetica,sans-Serif" font-size="10.00" fill="grey"> uart</text>
</g>
<!-- Node8 -->
<g id="Node000008" class="node">
<title>Node8</title>
<g id="a_Node000008"><a xlink:href="classAP__HAL_1_1BetterStream.html" target="_top" xlink:title=" ">
<polygon fill="white" stroke="#666666" points="125,-295.23 0,-295.23 0,-276.23 125,-276.23 125,-295.23"/>
<text text-anchor="middle" x="62.5" y="-283.23" font-family="Helvetica,sans-Serif" font-size="10.00">AP_HAL::BetterStream</text>
</a>
</g>
</g>
<!-- Node8&#45;&gt;Node7 -->
<g id="edge10_Node000007_Node000008" class="edge">
<title>Node8&#45;&gt;Node7</title>
<g id="a_edge10_Node000007_Node000008"><a xlink:title=" ">
<path fill="none" stroke="#63b8ff" d="M62.5,-265.92C62.5,-253.45 62.5,-237.66 62.5,-228.01"/>
<polygon fill="#63b8ff" stroke="#63b8ff" points="59,-266.17 62.5,-276.17 66,-266.17 59,-266.17"/>
</a>
</g>
</g>
</g>
</svg>

<g id="navigator" transform="translate(0 0)" fill="#404254">
  <rect fill="#f2f5e9" fill-opacity="0.5" stroke="#606060" stroke-width=".5" x="0" y="0" width="60" height="60"/>
  <use id="zoomplus" xlink:href="#zoomPlus" x="17" y="9" onmousedown="handleZoom(evt,'in')"/>
  <use id="zoomminus" xlink:href="#zoomMin" x="42" y="9" onmousedown="handleZoom(evt,'out')"/>
  <use id="reset" xlink:href="#resetDef" x="30" y="36" onmousedown="handleReset()"/>
   <use id="arrowup" xlink:href="#arrowUp" x="0" y="0" onmousedown="handlePan(0,-1)"/>
  <use id="arrowright" xlink:href="#arrowRight" x="0" y="0" onmousedown="handlePan(1,0)"/>
  <use id="arrowdown" xlink:href="#arrowDown" x="0" y="0" onmousedown="handlePan(0,1)"/>
  <use id="arrowleft" xlink:href="#arrowLeft" x="0" y="0" onmousedown="handlePan(-1,0)"/>
</g>
<svg viewBox="0 0 15 15" width="100%" height="30px" preserveAspectRatio="xMaxYMin meet">
 <g id="arrow_out" transform="scale(0.3 0.3)">
  <a xlink:href="classAP__WindVane__NMEA__coll__graph_org.svg" target="_base">
   <rect id="button" ry="5" rx="5" y="6" x="6" height="38" width="38"
        fill="#f2f5e9" fill-opacity="0.5" stroke="#606060" stroke-width="1.0"/>
   <path id="arrow"
     d="M 11.500037,31.436501 C 11.940474,20.09759 22.043105,11.32322 32.158766,21.979434 L 37.068811,17.246167 C 37.068811,17.246167 37.088388,32 37.088388,32 L 22.160133,31.978069 C 22.160133,31.978069 26.997745,27.140456 26.997745,27.140456 C 18.528582,18.264221 13.291696,25.230495 11.500037,31.436501 z"
     style="fill:#404040;"/>
  </a>
 </g>
</svg>

<style type='text/css'>
<![CDATA[
[data-mouse-over-selected='false'] { opacity: 0.7; }
[data-mouse-over-selected='true']  { opacity: 1.0; }
]]>
</style>
<script type="application/ecmascript"><![CDATA[
document.addEventListener('DOMContentLoaded', (event) => {
  highlightEdges();
  highlightAdjacentNodes();
});
]]></script>
</svg>
