<?xml version="1.0" encoding="UTF-8" standalone="no"?>
<!DOCTYPE svg PUBLIC "-//W3C//DTD SVG 1.1//EN"
 "http://www.w3.org/Graphics/SVG/1.1/DTD/svg11.dtd">
<!-- Generated by graphviz version 2.43.0 (0)
 -->
<!-- Title: AP_MotorsMulticopter::get_current_limit_max_throttle Pages: 1 -->
<svg width="472pt" height="264pt"
 viewBox="0.00 0.00 472.00 264.00" xmlns="http://www.w3.org/2000/svg" xmlns:xlink="http://www.w3.org/1999/xlink">
<g id="graph0" class="graph" transform="scale(1 1) rotate(0) translate(4 260)">
<title>AP_MotorsMulticopter::get_current_limit_max_throttle</title>
<!-- Node1 -->
<g id="Node000001" class="node">
<title>Node1</title>
<g id="a_Node000001"><a xlink:title=" ">
<polygon fill="#999999" stroke="#666666" points="133,-163 0,-163 0,-122 133,-122 133,-163"/>
<text text-anchor="start" x="8" y="-151" font-family="Helvetica,sans-Serif" font-size="10.00">AP_MotorsMulticopter</text>
<text text-anchor="start" x="8" y="-140" font-family="Helvetica,sans-Serif" font-size="10.00">::get_current_limit_max</text>
<text text-anchor="middle" x="66.5" y="-129" font-family="Helvetica,sans-Serif" font-size="10.00">_throttle</text>
</a>
</g>
</g>
<!-- Node2 -->
<g id="Node000002" class="node">
<title>Node2</title>
<g id="a_Node000002"><a xlink:href="classAP__Motors.html#a67a133570ae075a874c6522b23c5261b" target="_top" xlink:title=" ">
<polygon fill="white" stroke="#666666" points="294.5,-256 188.5,-256 188.5,-237 294.5,-237 294.5,-256"/>
<text text-anchor="middle" x="241.5" y="-244" font-family="Helvetica,sans-Serif" font-size="10.00">AP_Motors::armed</text>
</a>
</g>
</g>
<!-- Node1&#45;&gt;Node2 -->
<g id="edge1_Node000001_Node000002" class="edge">
<title>Node1&#45;&gt;Node2</title>
<g id="a_edge1_Node000001_Node000002"><a xlink:title=" ">
<path fill="none" stroke="#63b8ff" d="M86.47,-163.33C105.49,-182.97 136.54,-211.82 169,-228.5 172.71,-230.41 176.64,-232.12 180.67,-233.66"/>
<polygon fill="#63b8ff" stroke="#63b8ff" points="179.6,-237 190.2,-236.94 181.88,-230.38 179.6,-237"/>
</a>
</g>
</g>
<!-- Node3 -->
<g id="Node000003" class="node">
<title>Node3</title>
<g id="a_Node000003"><a xlink:href="namespaceAP.html#aac3bcb68bcccad29cc493b878aef055e" target="_top" xlink:title=" ">
<polygon fill="white" stroke="#666666" points="277,-219 206,-219 206,-200 277,-200 277,-219"/>
<text text-anchor="middle" x="241.5" y="-207" font-family="Helvetica,sans-Serif" font-size="10.00">AP::battery</text>
</a>
</g>
</g>
<!-- Node1&#45;&gt;Node3 -->
<g id="edge2_Node000001_Node000003" class="edge">
<title>Node1&#45;&gt;Node3</title>
<g id="a_edge2_Node000001_Node000003"><a xlink:title=" ">
<path fill="none" stroke="#63b8ff" d="M106.8,-163.13C125.33,-172.33 147.95,-182.8 169,-190.5 177.68,-193.68 187.13,-196.57 196.23,-199.08"/>
<polygon fill="#63b8ff" stroke="#63b8ff" points="195.36,-202.47 205.92,-201.66 197.16,-195.71 195.36,-202.47"/>
</a>
</g>
</g>
<!-- Node5 -->
<g id="Node000005" class="node">
<title>Node5</title>
<g id="a_Node000005"><a xlink:href="classThrust__Linearization.html#ab36b77c29c559ee7c2e6131a8bd623ea" target="_top" xlink:title=" ">
<polygon fill="white" stroke="#666666" points="299.5,-181.5 183.5,-181.5 183.5,-151.5 299.5,-151.5 299.5,-181.5"/>
<text text-anchor="start" x="191.5" y="-169.5" font-family="Helvetica,sans-Serif" font-size="10.00">Thrust_Linearization</text>
<text text-anchor="middle" x="241.5" y="-158.5" font-family="Helvetica,sans-Serif" font-size="10.00">::get_battery_index</text>
</a>
</g>
</g>
<!-- Node1&#45;&gt;Node5 -->
<g id="edge4_Node000001_Node000005" class="edge">
<title>Node1&#45;&gt;Node5</title>
<g id="a_edge4_Node000001_Node000005"><a xlink:title=" ">
<path fill="none" stroke="#63b8ff" d="M133.4,-151.64C146.36,-153.44 159.97,-155.33 172.98,-157.13"/>
<polygon fill="#63b8ff" stroke="#63b8ff" points="172.88,-160.65 183.27,-158.56 173.84,-153.72 172.88,-160.65"/>
</a>
</g>
</g>
<!-- Node6 -->
<g id="Node000006" class="node">
<title>Node6</title>
<g id="a_Node000006"><a xlink:href="classThrust__Linearization.html#a64a33b64722efdd395cb1ddc2f59c42b" target="_top" xlink:title=" ">
<polygon fill="white" stroke="#666666" points="314,-133.5 169,-133.5 169,-103.5 314,-103.5 314,-133.5"/>
<text text-anchor="start" x="177" y="-121.5" font-family="Helvetica,sans-Serif" font-size="10.00">Thrust_Linearization</text>
<text text-anchor="middle" x="241.5" y="-110.5" font-family="Helvetica,sans-Serif" font-size="10.00">::get_battery_min_voltage</text>
</a>
</g>
</g>
<!-- Node1&#45;&gt;Node6 -->
<g id="edge5_Node000001_Node000006" class="edge">
<title>Node1&#45;&gt;Node6</title>
<g id="a_edge5_Node000001_Node000006"><a xlink:title=" ">
<path fill="none" stroke="#63b8ff" d="M133.4,-133.36C141.7,-132.21 150.28,-131.02 158.79,-129.84"/>
<polygon fill="#63b8ff" stroke="#63b8ff" points="159.31,-133.3 168.73,-128.46 158.34,-126.36 159.31,-133.3"/>
</a>
</g>
</g>
<!-- Node7 -->
<g id="Node000007" class="node">
<title>Node7</title>
<g id="a_Node000007"><a xlink:href="classAP__MotorsMulticopter.html#ae4566b45318c5e48ff5f2855cab35919" target="_top" xlink:title=" ">
<polygon fill="white" stroke="#666666" points="303.5,-85.5 179.5,-85.5 179.5,-55.5 303.5,-55.5 303.5,-85.5"/>
<text text-anchor="start" x="187.5" y="-73.5" font-family="Helvetica,sans-Serif" font-size="10.00">AP_MotorsMulticopter</text>
<text text-anchor="middle" x="241.5" y="-62.5" font-family="Helvetica,sans-Serif" font-size="10.00">::get_throttle_hover</text>
</a>
</g>
</g>
<!-- Node1&#45;&gt;Node7 -->
<g id="edge6_Node000001_Node000007" class="edge">
<title>Node1&#45;&gt;Node7</title>
<g id="a_edge6_Node000001_Node000007"><a xlink:title=" ">
<path fill="none" stroke="#63b8ff" d="M108.49,-121.76C126.79,-112.86 148.75,-102.65 169,-94.5 173.66,-92.62 178.54,-90.77 183.45,-88.97"/>
<polygon fill="#63b8ff" stroke="#63b8ff" points="184.66,-92.26 192.91,-85.6 182.31,-85.66 184.66,-92.26"/>
</a>
</g>
</g>
<!-- Node8 -->
<g id="Node000008" class="node">
<title>Node8</title>
<g id="a_Node000008"><a xlink:href="AP__Math_8h.html#a2a12cce483e9b870da70d30406d82c60" target="_top" xlink:title=" ">
<polygon fill="white" stroke="#666666" points="267,-19 216,-19 216,0 267,0 267,-19"/>
<text text-anchor="middle" x="241.5" y="-7" font-family="Helvetica,sans-Serif" font-size="10.00">is_zero</text>
</a>
</g>
</g>
<!-- Node1&#45;&gt;Node8 -->
<g id="edge7_Node000001_Node000008" class="edge">
<title>Node1&#45;&gt;Node8</title>
<g id="a_edge7_Node000001_Node000008"><a xlink:title=" ">
<path fill="none" stroke="#63b8ff" d="M85.91,-121.99C105.22,-101.25 137.16,-69.11 169,-46.5 181.35,-37.73 196.06,-29.75 208.91,-23.47"/>
<polygon fill="#63b8ff" stroke="#63b8ff" points="210.78,-26.46 218.31,-19.01 207.78,-20.14 210.78,-26.46"/>
</a>
</g>
</g>
<!-- Node4 -->
<g id="Node000004" class="node">
<title>Node4</title>
<g id="a_Node000004"><a xlink:href="classAP__BattMonitor.html#a4bc6854b79b0a2696c9582de347acc63" target="_top" xlink:title=" ">
<polygon fill="white" stroke="#666666" points="464,-224.5 350,-224.5 350,-194.5 464,-194.5 464,-224.5"/>
<text text-anchor="start" x="358" y="-212.5" font-family="Helvetica,sans-Serif" font-size="10.00">AP_BattMonitor::get</text>
<text text-anchor="middle" x="407" y="-201.5" font-family="Helvetica,sans-Serif" font-size="10.00">_singleton</text>
</a>
</g>
</g>
<!-- Node3&#45;&gt;Node4 -->
<g id="edge3_Node000003_Node000004" class="edge">
<title>Node3&#45;&gt;Node4</title>
<g id="a_edge3_Node000003_Node000004"><a xlink:title=" ">
<path fill="none" stroke="#63b8ff" d="M277.17,-209.5C295.38,-209.5 318.32,-209.5 339.77,-209.5"/>
<polygon fill="#63b8ff" stroke="#63b8ff" points="339.83,-213 349.83,-209.5 339.83,-206 339.83,-213"/>
</a>
</g>
</g>
<!-- Node8&#45;&gt;Node8 -->
<g id="edge8_Node000008_Node000008" class="edge">
<title>Node8&#45;&gt;Node8</title>
<g id="a_edge8_Node000008_Node000008"><a xlink:title=" ">
<path fill="none" stroke="#63b8ff" d="M216.22,-19.08C203.93,-27.73 212.35,-37 241.5,-37 260.63,-37 270.83,-33.01 272.11,-27.82"/>
<polygon fill="#63b8ff" stroke="#63b8ff" points="274.98,-25.79 266.78,-19.08 269,-29.44 274.98,-25.79"/>
</a>
</g>
</g>
</g>
</svg>
