<?xml version="1.0" encoding="UTF-8" standalone="no"?>
<!DOCTYPE svg PUBLIC "-//W3C//DTD SVG 1.1//EN"
 "http://www.w3.org/Graphics/SVG/1.1/DTD/svg11.dtd">
<!-- Generated by graphviz version 2.43.0 (0)
 -->
<!-- Title: NavEKF2_core::FuseMagnetometer Pages: 1 -->
<!--zoomable 390 -->

<svg id="main" version="1.1" xmlns="http://www.w3.org/2000/svg" xmlns:xlink="http://www.w3.org/1999/xlink" xml:space="preserve" onload="init(evt)">
<style type="text/css"><![CDATA[
.node, .edge {opacity: 0.7;}
.node.selected, .edge.selected {opacity: 1;}
.edge:hover path { stroke: red; }
.edge:hover polygon { stroke: red; fill: red; }
]]></style>

<defs>
  <circle id="rim" cx="0" cy="0" r="7"/>
  <circle id="rim2" cx="0" cy="0" r="3.5"/>
  <g id="zoomPlus">
    <use xlink:href="#rim" fill="#404040"><set attributeName="fill" to="#808080" begin="zoomplus.mouseover" end="zoomplus.mouseout"/></use>
    <path d="M-4,0h8M0,-4v8" fill="none" stroke="white" stroke-width="1.5" pointer-events="none"/>
  </g>
  <g id="zoomMin">
    <use xlink:href="#rim" fill="#404040"><set attributeName="fill" to="#808080" begin="zoomminus.mouseover" end="zoomminus.mouseout"/></use>
    <path d="M-4,0h8" fill="none" stroke="white" stroke-width="1.5" pointer-events="none"/>
  </g>
  <g id="arrowUp" transform="translate(30 24)">
    <use xlink:href="#rim"/>
    <path pointer-events="none" fill="none" stroke="white" stroke-width="1.5" d="M0,-3.0v7 M-2.5,-0.5L0,-3.0L2.5,-0.5"/>
  </g>
  <g id="arrowRight" transform="rotate(90) translate(36 -43)">
    <use xlink:href="#rim"/>
    <path pointer-events="none" fill="none" stroke="white" stroke-width="1.5" d="M0,-3.0v7 M-2.5,-0.5L0,-3.0L2.5,-0.5"/>
  </g>
  <g id="arrowDown" transform="rotate(180) translate(-30 -48)">
    <use xlink:href="#rim"/>
    <path pointer-events="none" fill="none" stroke="white" stroke-width="1.5" d="M0,-3.0v7 M-2.5,-0.5L0,-3.0L2.5,-0.5"/>
  </g>
  <g id="arrowLeft" transform="rotate(270) translate(-36 17)">
    <use xlink:href="#rim"/>
    <path pointer-events="none" fill="none" stroke="white" stroke-width="1.5" d="M0,-3.0v7 M-2.5,-0.5L0,-3.0L2.5,-0.5"/>
  </g>
  <g id="resetDef">
    <use xlink:href="#rim2" fill="#404040"><set attributeName="fill" to="#808080" begin="reset.mouseover" end="reset.mouseout"/></use>
  </g>
</defs>
<script type="application/ecmascript">
var viewWidth = 769;
var viewHeight = 390;
var sectionId = 'dynsection-62';
</script>
<script type="application/ecmascript" xlink:href="svg.min.js"/>
<svg id="graph" class="graph">
<g id="viewport">
<title>NavEKF2_core::FuseMagnetometer</title>
<!-- Node1 -->
<g id="Node000001" class="node">
<title>Node1</title>
<g id="a_Node000001"><a xlink:title=" ">
<polygon fill="#999999" stroke="#666666" points="188,-148 0,-148 0,-129 188,-129 188,-148"/>
<text text-anchor="middle" x="94" y="-136" font-family="Helvetica,sans-Serif" font-size="10.00">NavEKF2_core::FuseMagnetometer</text>
</a>
</g>
</g>
<!-- Node2 -->
<g id="Node000002" class="node">
<title>Node2</title>
<g id="a_Node000002"><a xlink:href="classNavEKF2__core.html#ab07397c04c028fd31358baeadc2f22e4" target="_top" xlink:title=" ">
<polygon fill="white" stroke="#666666" points="411,-326 224,-326 224,-307 411,-307 411,-326"/>
<text text-anchor="middle" x="317.5" y="-314" font-family="Helvetica,sans-Serif" font-size="10.00">NavEKF2_core::ConstrainVariances</text>
</a>
</g>
</g>
<!-- Node1&#45;&gt;Node2 -->
<g id="edge1_Node000001_Node000002" class="edge">
<title>Node1&#45;&gt;Node2</title>
<g id="a_edge1_Node000001_Node000002"><a xlink:title=" ">
<path fill="none" stroke="#63b8ff" d="M102.15,-148.18C120.24,-172.13 170.24,-234.99 224,-273.5 241.01,-285.68 262.01,-295.78 279.71,-303.12"/>
<polygon fill="#63b8ff" stroke="#63b8ff" points="278.57,-306.43 289.15,-306.91 281.17,-299.94 278.57,-306.43"/>
</a>
</g>
</g>
<!-- Node3 -->
<g id="Node000003" class="node">
<title>Node3</title>
<g id="a_Node000003"><a xlink:href="AP__Math_8h.html#a34f41fcf2bc527b1728ae04423dfba46" target="_top" xlink:title=" ">
<polygon fill="white" stroke="#666666" points="711,-250 682,-250 682,-231 711,-231 711,-250"/>
<text text-anchor="middle" x="696.5" y="-238" font-family="Helvetica,sans-Serif" font-size="10.00">sq</text>
</a>
</g>
</g>
<!-- Node1&#45;&gt;Node3 -->
<g id="edge18_Node000001_Node000003" class="edge">
<title>Node1&#45;&gt;Node3</title>
<g id="a_edge18_Node000001_Node000003"><a xlink:title=" ">
<path fill="none" stroke="#63b8ff" d="M107.29,-148.19C129.25,-164.9 177.31,-198.76 224,-213.5 388.76,-265.52 601.75,-250.19 671.94,-243.15"/>
<polygon fill="#63b8ff" stroke="#63b8ff" points="672.36,-246.62 681.94,-242.1 671.63,-239.66 672.36,-246.62"/>
</a>
</g>
</g>
<!-- Node7 -->
<g id="Node000007" class="node">
<title>Node7</title>
<g id="a_Node000007"><a xlink:href="classNavEKF2__core.html#a8004ddd04f79b39d10e7f2b5fae6630d" target="_top" xlink:title=" ">
<polygon fill="white" stroke="#666666" points="399.5,-204 235.5,-204 235.5,-185 399.5,-185 399.5,-204"/>
<text text-anchor="middle" x="317.5" y="-192" font-family="Helvetica,sans-Serif" font-size="10.00">NavEKF2_core::CovarianceInit</text>
</a>
</g>
</g>
<!-- Node1&#45;&gt;Node7 -->
<g id="edge7_Node000001_Node000007" class="edge">
<title>Node1&#45;&gt;Node7</title>
<g id="a_edge7_Node000001_Node000007"><a xlink:title=" ">
<path fill="none" stroke="#63b8ff" d="M124.5,-148.05C150.51,-156.27 189.52,-168.09 224,-176.5 233.32,-178.77 243.22,-180.95 252.95,-182.95"/>
<polygon fill="#63b8ff" stroke="#63b8ff" points="252.5,-186.43 263,-184.98 253.88,-179.57 252.5,-186.43"/>
</a>
</g>
</g>
<!-- Node10 -->
<g id="Node000010" class="node">
<title>Node10</title>
<g id="a_Node000010"><a xlink:href="classNavEKF2__core.html#a65015ca7df182aaa47f199d0cf9ec658" target="_top" xlink:title=" ">
<polygon fill="white" stroke="#666666" points="402.5,-167 232.5,-167 232.5,-148 402.5,-148 402.5,-167"/>
<text text-anchor="middle" x="317.5" y="-155" font-family="Helvetica,sans-Serif" font-size="10.00">NavEKF2_core::ForceSymmetry</text>
</a>
</g>
</g>
<!-- Node1&#45;&gt;Node10 -->
<g id="edge11_Node000001_Node000010" class="edge">
<title>Node1&#45;&gt;Node10</title>
<g id="a_edge11_Node000001_Node000010"><a xlink:title=" ">
<path fill="none" stroke="#63b8ff" d="M188.29,-146.5C199.52,-147.47 210.99,-148.45 222.23,-149.41"/>
<polygon fill="#63b8ff" stroke="#63b8ff" points="222.21,-152.92 232.47,-150.29 222.8,-145.95 222.21,-152.92"/>
</a>
</g>
</g>
<!-- Node11 -->
<g id="Node000011" class="node">
<title>Node11</title>
<g id="a_Node000011"><a xlink:href="classVector3.html#aaa6419ecd36a969d2eaecd9a1b1edd12" target="_top" xlink:title=" ">
<polygon fill="white" stroke="#666666" points="362.5,-130 272.5,-130 272.5,-111 362.5,-111 362.5,-130"/>
<text text-anchor="middle" x="317.5" y="-118" font-family="Helvetica,sans-Serif" font-size="10.00">Vector3::length</text>
</a>
</g>
</g>
<!-- Node1&#45;&gt;Node11 -->
<g id="edge12_Node000001_Node000011" class="edge">
<title>Node1&#45;&gt;Node11</title>
<g id="a_edge12_Node000001_Node000011"><a xlink:title=" ">
<path fill="none" stroke="#63b8ff" d="M188.29,-130.92C213.5,-128.87 239.95,-126.72 262.24,-124.91"/>
<polygon fill="#63b8ff" stroke="#63b8ff" points="262.8,-128.38 272.49,-124.08 262.24,-121.4 262.8,-128.38"/>
</a>
</g>
</g>
<!-- Node13 -->
<g id="Node000013" class="node">
<title>Node13</title>
<g id="a_Node000013"><a xlink:href="classNavEKF2__core.html#a6be3afb91e3c0593bf475abcab1a6224" target="_top" xlink:title=" ">
<polygon fill="white" stroke="#666666" points="410.5,-93 224.5,-93 224.5,-74 410.5,-74 410.5,-93"/>
<text text-anchor="middle" x="317.5" y="-81" font-family="Helvetica,sans-Serif" font-size="10.00">NavEKF2_core::MagTableConstrain</text>
</a>
</g>
</g>
<!-- Node1&#45;&gt;Node13 -->
<g id="edge15_Node000001_Node000013" class="edge">
<title>Node1&#45;&gt;Node13</title>
<g id="a_edge15_Node000001_Node000013"><a xlink:title=" ">
<path fill="none" stroke="#63b8ff" d="M125.56,-128.92C151.57,-120.96 190.02,-109.66 224,-101.5 233.33,-99.26 243.23,-97.1 252.97,-95.1"/>
<polygon fill="#63b8ff" stroke="#63b8ff" points="253.9,-98.49 263.01,-93.09 252.52,-91.62 253.9,-98.49"/>
</a>
</g>
</g>
<!-- Node14 -->
<g id="Node000014" class="node">
<title>Node14</title>
<g id="a_Node000014"><a xlink:href="classQuaternionT.html#a8b4b54f0e29a0f2ee476662c456fe948" target="_top" xlink:title=" ">
<polygon fill="white" stroke="#666666" points="373,-56 262,-56 262,-37 373,-37 373,-56"/>
<text text-anchor="middle" x="317.5" y="-44" font-family="Helvetica,sans-Serif" font-size="10.00">QuaternionT::rotate</text>
</a>
</g>
</g>
<!-- Node1&#45;&gt;Node14 -->
<g id="edge16_Node000001_Node000014" class="edge">
<title>Node1&#45;&gt;Node14</title>
<g id="a_edge16_Node000001_Node000014"><a xlink:title=" ">
<path fill="none" stroke="#63b8ff" d="M108.2,-128.94C130.78,-113.07 178.75,-81.35 224,-64.5 232.88,-61.19 242.47,-58.46 252,-56.22"/>
<polygon fill="#63b8ff" stroke="#63b8ff" points="252.86,-59.61 261.87,-54.05 251.36,-52.77 252.86,-59.61"/>
</a>
</g>
</g>
<!-- Node16 -->
<g id="Node000016" class="node">
<title>Node16</title>
<g id="a_Node000016"><a xlink:href="classVector3.html#adf1769d5ee5df2f8585df2f540fa5efe" target="_top" xlink:title=" ">
<polygon fill="white" stroke="#666666" points="357.5,-19 277.5,-19 277.5,0 357.5,0 357.5,-19"/>
<text text-anchor="middle" x="317.5" y="-7" font-family="Helvetica,sans-Serif" font-size="10.00">Vector3::zero</text>
</a>
</g>
</g>
<!-- Node1&#45;&gt;Node16 -->
<g id="edge19_Node000001_Node000016" class="edge">
<title>Node1&#45;&gt;Node16</title>
<g id="a_edge19_Node000001_Node000016"><a xlink:title=" ">
<path fill="none" stroke="#63b8ff" d="M102.9,-128.92C121.51,-107.06 170.56,-53.4 224,-27.5 237.27,-21.07 252.66,-16.93 267.03,-14.28"/>
<polygon fill="#63b8ff" stroke="#63b8ff" points="267.98,-17.67 277.27,-12.59 266.84,-10.76 267.98,-17.67"/>
</a>
</g>
</g>
<!-- Node2&#45;&gt;Node3 -->
<g id="edge2_Node000002_Node000003" class="edge">
<title>Node2&#45;&gt;Node3</title>
<g id="a_edge2_Node000002_Node000003"><a xlink:title=" ">
<path fill="none" stroke="#63b8ff" d="M403.93,-307C459.17,-299.94 532.38,-288.87 596,-273.5 622.66,-267.06 652.42,-256.76 672.39,-249.38"/>
<polygon fill="#63b8ff" stroke="#63b8ff" points="673.73,-252.62 681.87,-245.83 671.28,-246.06 673.73,-252.62"/>
</a>
</g>
</g>
<!-- Node4 -->
<g id="Node000004" class="node">
<title>Node4</title>
<g id="a_Node000004"><a xlink:href="classNavEKF2__core.html#a20dd1484149045a51fccc508f22dac6f" target="_top" xlink:title=" ">
<polygon fill="white" stroke="#666666" points="589,-382 454,-382 454,-363 589,-363 589,-382"/>
<text text-anchor="middle" x="521.5" y="-370" font-family="Helvetica,sans-Serif" font-size="10.00">NavEKF2_core::zeroCols</text>
</a>
</g>
</g>
<!-- Node2&#45;&gt;Node4 -->
<g id="edge3_Node000002_Node000004" class="edge">
<title>Node2&#45;&gt;Node4</title>
<g id="a_edge3_Node000002_Node000004"><a xlink:title=" ">
<path fill="none" stroke="#63b8ff" d="M349.28,-326.05C375.24,-333.99 413.42,-345.43 447,-354.5 454.49,-356.52 462.44,-358.57 470.23,-360.52"/>
<polygon fill="#63b8ff" stroke="#63b8ff" points="469.43,-363.93 479.97,-362.94 471.11,-357.14 469.43,-363.93"/>
</a>
</g>
</g>
<!-- Node6 -->
<g id="Node000006" class="node">
<title>Node6</title>
<g id="a_Node000006"><a xlink:href="classNavEKF2__core.html#a42ca3d8e52811f1a3460eb1963c78f05" target="_top" xlink:title=" ">
<polygon fill="white" stroke="#666666" points="591.5,-345 451.5,-345 451.5,-326 591.5,-326 591.5,-345"/>
<text text-anchor="middle" x="521.5" y="-333" font-family="Helvetica,sans-Serif" font-size="10.00">NavEKF2_core::zeroRows</text>
</a>
</g>
</g>
<!-- Node2&#45;&gt;Node6 -->
<g id="edge5_Node000002_Node000006" class="edge">
<title>Node2&#45;&gt;Node6</title>
<g id="a_edge5_Node000002_Node000006"><a xlink:title=" ">
<path fill="none" stroke="#63b8ff" d="M411.22,-325.22C421.23,-326.16 431.35,-327.11 441.17,-328.04"/>
<polygon fill="#63b8ff" stroke="#63b8ff" points="441.01,-331.54 451.3,-328.99 441.67,-324.57 441.01,-331.54"/>
</a>
</g>
</g>
<!-- Node5 -->
<g id="Node000005" class="node">
<title>Node5</title>
<g id="a_Node000005"><a xlink:href="classNavEKF__core__common.html#adba80c07beb405e254e631b9d54845fa" target="_top" xlink:title=" ">
<polygon fill="white" stroke="#666666" points="761,-368.5 632,-368.5 632,-338.5 761,-338.5 761,-368.5"/>
<text text-anchor="start" x="640" y="-356.5" font-family="Helvetica,sans-Serif" font-size="10.00">NavEKF_core_common</text>
<text text-anchor="middle" x="696.5" y="-345.5" font-family="Helvetica,sans-Serif" font-size="10.00">::zero_range</text>
</a>
</g>
</g>
<!-- Node4&#45;&gt;Node5 -->
<g id="edge4_Node000004_Node000005" class="edge">
<title>Node4&#45;&gt;Node5</title>
<g id="a_edge4_Node000004_Node000005"><a xlink:title=" ">
<path fill="none" stroke="#63b8ff" d="M589.39,-365.15C599.98,-363.99 610.98,-362.78 621.72,-361.6"/>
<polygon fill="#63b8ff" stroke="#63b8ff" points="622.36,-365.05 631.92,-360.48 621.59,-358.1 622.36,-365.05"/>
</a>
</g>
</g>
<!-- Node6&#45;&gt;Node5 -->
<g id="edge6_Node000006_Node000005" class="edge">
<title>Node6&#45;&gt;Node5</title>
<g id="a_edge6_Node000006_Node000005"><a xlink:title=" ">
<path fill="none" stroke="#63b8ff" d="M591.87,-342.72C601.71,-343.74 611.85,-344.8 621.77,-345.83"/>
<polygon fill="#63b8ff" stroke="#63b8ff" points="621.69,-349.34 632,-346.89 622.41,-342.38 621.69,-349.34"/>
</a>
</g>
</g>
<!-- Node7&#45;&gt;Node3 -->
<g id="edge10_Node000007_Node000003" class="edge">
<title>Node7&#45;&gt;Node3</title>
<g id="a_edge10_Node000007_Node000003"><a xlink:title=" ">
<path fill="none" stroke="#63b8ff" d="M396.61,-204.03C483.18,-214.59 617.69,-231.01 671.78,-237.61"/>
<polygon fill="#63b8ff" stroke="#63b8ff" points="671.43,-241.09 681.78,-238.83 672.28,-234.14 671.43,-241.09"/>
</a>
</g>
</g>
<!-- Node8 -->
<g id="Node000008" class="node">
<title>Node8</title>
<g id="a_Node000008"><a xlink:href="classNavEKF2__core.html#a8331d784e13f73a79bddd5e61d1169ce" target="_top" xlink:title=" ">
<polygon fill="white" stroke="#666666" points="593.5,-193.5 449.5,-193.5 449.5,-163.5 593.5,-163.5 593.5,-193.5"/>
<text text-anchor="start" x="457.5" y="-181.5" font-family="Helvetica,sans-Serif" font-size="10.00">NavEKF2_core::InitialGyro</text>
<text text-anchor="middle" x="521.5" y="-170.5" font-family="Helvetica,sans-Serif" font-size="10.00">BiasUncertainty</text>
</a>
</g>
</g>
<!-- Node7&#45;&gt;Node8 -->
<g id="edge8_Node000007_Node000008" class="edge">
<title>Node7&#45;&gt;Node8</title>
<g id="a_edge8_Node000007_Node000008"><a xlink:title=" ">
<path fill="none" stroke="#63b8ff" d="M399.79,-188.06C412.76,-187.03 426.19,-185.97 439.17,-184.94"/>
<polygon fill="#63b8ff" stroke="#63b8ff" points="439.77,-188.41 449.46,-184.13 439.22,-181.43 439.77,-188.41"/>
</a>
</g>
</g>
<!-- Node9 -->
<g id="Node000009" class="node">
<title>Node9</title>
<g id="a_Node000009"><a xlink:href="AP__Math_8h.html#a49ad7fa2fa2e3d8aa75e8e0ec3f83b99" target="_top" xlink:title=" ">
<polygon fill="white" stroke="#666666" points="548,-145 495,-145 495,-126 548,-126 548,-145"/>
<text text-anchor="middle" x="521.5" y="-133" font-family="Helvetica,sans-Serif" font-size="10.00">radians</text>
</a>
</g>
</g>
<!-- Node7&#45;&gt;Node9 -->
<g id="edge9_Node000007_Node000009" class="edge">
<title>Node7&#45;&gt;Node9</title>
<g id="a_edge9_Node000007_Node000009"><a xlink:title=" ">
<path fill="none" stroke="#63b8ff" d="M383.53,-184.9C392.9,-182.64 402.31,-179.88 411,-176.5 428.48,-169.71 429.73,-161.82 447,-154.5 458.95,-149.44 472.57,-145.46 484.82,-142.48"/>
<polygon fill="#63b8ff" stroke="#63b8ff" points="485.75,-145.86 494.72,-140.21 484.19,-139.03 485.75,-145.86"/>
</a>
</g>
</g>
<!-- Node12 -->
<g id="Node000012" class="node">
<title>Node12</title>
<g id="a_Node000012"><a xlink:href="AP__Math_8h.html#a3bc9391295c1f7aaa8fb95ee897f639a" target="_top" xlink:title=" ">
<polygon fill="white" stroke="#666666" points="542.5,-108 500.5,-108 500.5,-89 542.5,-89 542.5,-108"/>
<text text-anchor="middle" x="521.5" y="-96" font-family="Helvetica,sans-Serif" font-size="10.00">norm</text>
</a>
</g>
</g>
<!-- Node11&#45;&gt;Node12 -->
<g id="edge13_Node000011_Node000012" class="edge">
<title>Node11&#45;&gt;Node12</title>
<g id="a_edge13_Node000011_Node000012"><a xlink:title=" ">
<path fill="none" stroke="#63b8ff" d="M362.83,-115.67C401.39,-111.47 456.26,-105.5 490.06,-101.82"/>
<polygon fill="#63b8ff" stroke="#63b8ff" points="490.68,-105.27 500.24,-100.71 489.92,-98.31 490.68,-105.27"/>
</a>
</g>
</g>
<!-- Node12&#45;&gt;Node3 -->
<g id="edge14_Node000012_Node000003" class="edge">
<title>Node12&#45;&gt;Node3</title>
<g id="a_edge14_Node000012_Node000003"><a xlink:title=" ">
<path fill="none" stroke="#63b8ff" d="M542.59,-99.9C558.19,-101.79 579.82,-106.19 596,-116.5 638.29,-143.45 670.67,-194.61 685.91,-222.03"/>
<polygon fill="#63b8ff" stroke="#63b8ff" points="682.9,-223.84 690.73,-230.98 689.06,-220.51 682.9,-223.84"/>
</a>
</g>
</g>
<!-- Node15 -->
<g id="Node000015" class="node">
<title>Node15</title>
<g id="a_Node000015"><a xlink:href="classQuaternionT.html#a1645e80d9b2f142945b28354257c7857" target="_top" xlink:title=" ">
<polygon fill="white" stroke="#666666" points="596,-56 447,-56 447,-37 596,-37 596,-56"/>
<text text-anchor="middle" x="521.5" y="-44" font-family="Helvetica,sans-Serif" font-size="10.00">QuaternionT::from_rotation</text>
</a>
</g>
</g>
<!-- Node14&#45;&gt;Node15 -->
<g id="edge17_Node000014_Node000015" class="edge">
<title>Node14&#45;&gt;Node15</title>
<g id="a_edge17_Node000014_Node000015"><a xlink:title=" ">
<path fill="none" stroke="#63b8ff" d="M373.16,-46.5C392.73,-46.5 415.26,-46.5 436.73,-46.5"/>
<polygon fill="#63b8ff" stroke="#63b8ff" points="436.83,-50 446.83,-46.5 436.83,-43 436.83,-50"/>
</a>
</g>
</g>
</g>
</svg>

<g id="navigator" transform="translate(0 0)" fill="#404254">
  <rect fill="#f2f5e9" fill-opacity="0.5" stroke="#606060" stroke-width=".5" x="0" y="0" width="60" height="60"/>
  <use id="zoomplus" xlink:href="#zoomPlus" x="17" y="9" onmousedown="handleZoom(evt,'in')"/>
  <use id="zoomminus" xlink:href="#zoomMin" x="42" y="9" onmousedown="handleZoom(evt,'out')"/>
  <use id="reset" xlink:href="#resetDef" x="30" y="36" onmousedown="handleReset()"/>
   <use id="arrowup" xlink:href="#arrowUp" x="0" y="0" onmousedown="handlePan(0,-1)"/>
  <use id="arrowright" xlink:href="#arrowRight" x="0" y="0" onmousedown="handlePan(1,0)"/>
  <use id="arrowdown" xlink:href="#arrowDown" x="0" y="0" onmousedown="handlePan(0,1)"/>
  <use id="arrowleft" xlink:href="#arrowLeft" x="0" y="0" onmousedown="handlePan(-1,0)"/>
</g>
<svg viewBox="0 0 15 15" width="100%" height="30px" preserveAspectRatio="xMaxYMin meet">
 <g id="arrow_out" transform="scale(0.3 0.3)">
  <a xlink:href="classNavEKF2__core_ad60cf70acfb8e6fa4fb6fca254bf79f5_cgraph_org.svg" target="_base">
   <rect id="button" ry="5" rx="5" y="6" x="6" height="38" width="38"
        fill="#f2f5e9" fill-opacity="0.5" stroke="#606060" stroke-width="1.0"/>
   <path id="arrow"
     d="M 11.500037,31.436501 C 11.940474,20.09759 22.043105,11.32322 32.158766,21.979434 L 37.068811,17.246167 C 37.068811,17.246167 37.088388,32 37.088388,32 L 22.160133,31.978069 C 22.160133,31.978069 26.997745,27.140456 26.997745,27.140456 C 18.528582,18.264221 13.291696,25.230495 11.500037,31.436501 z"
     style="fill:#404040;"/>
  </a>
 </g>
</svg>

<style type='text/css'>
<![CDATA[
[data-mouse-over-selected='false'] { opacity: 0.7; }
[data-mouse-over-selected='true']  { opacity: 1.0; }
]]>
</style>
<script type="application/ecmascript"><![CDATA[
document.addEventListener('DOMContentLoaded', (event) => {
  highlightEdges();
  highlightAdjacentNodes();
});
]]></script>
</svg>
