<?xml version="1.0" encoding="UTF-8" standalone="no"?>
<!DOCTYPE svg PUBLIC "-//W3C//DTD SVG 1.1//EN"
 "http://www.w3.org/Graphics/SVG/1.1/DTD/svg11.dtd">
<!-- Generated by graphviz version 2.43.0 (0)
 -->
<!-- Title: NavEKF3_core::recordYawReset Pages: 1 -->
<svg width="1432pt" height="167pt"
 viewBox="0.00 0.00 1432.00 167.00" xmlns="http://www.w3.org/2000/svg" xmlns:xlink="http://www.w3.org/1999/xlink">
<g id="graph0" class="graph" transform="scale(1 1) rotate(0) translate(4 163)">
<title>NavEKF3_core::recordYawReset</title>
<!-- Node1 -->
<g id="Node000001" class="node">
<title>Node1</title>
<g id="a_Node000001"><a xlink:title=" ">
<polygon fill="#999999" stroke="#666666" points="1424,-126.5 1254,-126.5 1254,-107.5 1424,-107.5 1424,-126.5"/>
<text text-anchor="middle" x="1339" y="-114.5" font-family="Helvetica,sans-Serif" font-size="10.00">NavEKF3_core::recordYawReset</text>
</a>
</g>
</g>
<!-- Node2 -->
<g id="Node000002" class="node">
<title>Node2</title>
<g id="a_Node000002"><a xlink:href="classNavEKF3__core.html#a90c2235f674263559a8dbd9eb25d37c0" target="_top" xlink:title=" ">
<polygon fill="white" stroke="#666666" points="994,-154 863,-154 863,-124 994,-124 994,-154"/>
<text text-anchor="start" x="871" y="-142" font-family="Helvetica,sans-Serif" font-size="10.00">NavEKF3_core::EKFGSF</text>
<text text-anchor="middle" x="928.5" y="-131" font-family="Helvetica,sans-Serif" font-size="10.00">_resetMainFilterYaw</text>
</a>
</g>
</g>
<!-- Node1&#45;&gt;Node2 -->
<g id="edge1_Node000001_Node000002" class="edge">
<title>Node1&#45;&gt;Node2</title>
<g id="a_edge1_Node000001_Node000002"><a xlink:title=" ">
<path fill="none" stroke="#63b8ff" d="M1243.73,-122.08C1167.19,-126.2 1061.3,-131.9 994.1,-135.52"/>
<polygon fill="#63b8ff" stroke="#63b8ff" points="1244.06,-125.56 1253.85,-121.53 1243.68,-118.57 1244.06,-125.56"/>
</a>
</g>
</g>
<!-- Node10 -->
<g id="Node000010" class="node">
<title>Node10</title>
<g id="a_Node000010"><a xlink:href="classNavEKF3__core.html#a44cb9bd2d91ebfef5cda0260505badc7" target="_top" xlink:title=" ">
<polygon fill="white" stroke="#666666" points="1218,-111 1051,-111 1051,-81 1218,-81 1218,-111"/>
<text text-anchor="start" x="1059" y="-99" font-family="Helvetica,sans-Serif" font-size="10.00">NavEKF3_core::resetQuatState</text>
<text text-anchor="middle" x="1134.5" y="-88" font-family="Helvetica,sans-Serif" font-size="10.00">YawOnly</text>
</a>
</g>
</g>
<!-- Node1&#45;&gt;Node10 -->
<g id="edge11_Node000001_Node000010" class="edge">
<title>Node1&#45;&gt;Node10</title>
<g id="a_edge11_Node000001_Node000010"><a xlink:title=" ">
<path fill="none" stroke="#63b8ff" d="M1243.83,-107.23C1235.22,-106.34 1226.55,-105.44 1218.06,-104.56"/>
<polygon fill="#63b8ff" stroke="#63b8ff" points="1243.57,-110.73 1253.88,-108.28 1244.3,-103.76 1243.57,-110.73"/>
</a>
</g>
</g>
<!-- Node3 -->
<g id="Node000003" class="node">
<title>Node3</title>
<g id="a_Node000003"><a xlink:href="classNavEKF3__core.html#a9fe8919f6622a7970894fac654f72857" target="_top" xlink:title=" ">
<polygon fill="white" stroke="#666666" points="806,-105.5 641,-105.5 641,-86.5 806,-86.5 806,-105.5"/>
<text text-anchor="middle" x="723.5" y="-93.5" font-family="Helvetica,sans-Serif" font-size="10.00">NavEKF3_core::realignYawGPS</text>
</a>
</g>
</g>
<!-- Node2&#45;&gt;Node3 -->
<g id="edge2_Node000002_Node000003" class="edge">
<title>Node2&#45;&gt;Node3</title>
<g id="a_edge2_Node000002_Node000003"><a xlink:title=" ">
<path fill="none" stroke="#63b8ff" d="M852.84,-123.19C824.89,-117.27 794.02,-110.73 769.56,-105.54"/>
<polygon fill="#63b8ff" stroke="#63b8ff" points="852.48,-126.69 862.99,-125.34 853.93,-119.84 852.48,-126.69"/>
</a>
</g>
</g>
<!-- Node9 -->
<g id="Node000009" class="node">
<title>Node9</title>
<g id="a_Node000009"><a xlink:href="classNavEKF3__core.html#a1a0b388acd07c8b5c211b9d2d3fddecd" target="_top" xlink:title=" ">
<polygon fill="white" stroke="#666666" points="604.5,-159 429.5,-159 429.5,-129 604.5,-129 604.5,-159"/>
<text text-anchor="start" x="437.5" y="-147" font-family="Helvetica,sans-Serif" font-size="10.00">NavEKF3_core::runYawEstimator</text>
<text text-anchor="middle" x="517" y="-136" font-family="Helvetica,sans-Serif" font-size="10.00">Correction</text>
</a>
</g>
</g>
<!-- Node2&#45;&gt;Node9 -->
<g id="edge9_Node000002_Node000009" class="edge">
<title>Node2&#45;&gt;Node9</title>
<g id="a_edge9_Node000002_Node000009"><a xlink:title=" ">
<path fill="none" stroke="#63b8ff" d="M852.55,-139.92C782.59,-140.77 678.22,-142.04 604.7,-142.94"/>
<polygon fill="#63b8ff" stroke="#63b8ff" points="852.66,-143.41 862.61,-139.79 852.57,-136.41 852.66,-143.41"/>
</a>
</g>
</g>
<!-- Node4 -->
<g id="Node000004" class="node">
<title>Node4</title>
<g id="a_Node000004"><a xlink:href="classNavEKF3__core.html#a800d407d377e6532d563c68cc3c731d8" target="_top" xlink:title=" ">
<polygon fill="white" stroke="#666666" points="605,-62.5 429,-62.5 429,-43.5 605,-43.5 605,-62.5"/>
<text text-anchor="middle" x="517" y="-50.5" font-family="Helvetica,sans-Serif" font-size="10.00">NavEKF3_core::SelectMagFusion</text>
</a>
</g>
</g>
<!-- Node3&#45;&gt;Node4 -->
<g id="edge3_Node000003_Node000004" class="edge">
<title>Node3&#45;&gt;Node4</title>
<g id="a_edge3_Node000003_Node000004"><a xlink:title=" ">
<path fill="none" stroke="#63b8ff" d="M667.28,-84.39C634.69,-77.54 593.94,-68.97 563.26,-62.52"/>
<polygon fill="#63b8ff" stroke="#63b8ff" points="666.61,-87.82 677.11,-86.46 668.05,-80.97 666.61,-87.82"/>
</a>
</g>
</g>
<!-- Node8 -->
<g id="Node000008" class="node">
<title>Node8</title>
<g id="a_Node000008"><a xlink:href="classNavEKF3__core.html#a8f4723dabc873f7112948a18b290fb01" target="_top" xlink:title=" ">
<polygon fill="white" stroke="#666666" points="594.5,-111 439.5,-111 439.5,-81 594.5,-81 594.5,-111"/>
<text text-anchor="start" x="447.5" y="-99" font-family="Helvetica,sans-Serif" font-size="10.00">NavEKF3_core::SelectVelPos</text>
<text text-anchor="middle" x="517" y="-88" font-family="Helvetica,sans-Serif" font-size="10.00">Fusion</text>
</a>
</g>
</g>
<!-- Node3&#45;&gt;Node8 -->
<g id="edge7_Node000003_Node000008" class="edge">
<title>Node3&#45;&gt;Node8</title>
<g id="a_edge7_Node000003_Node000008"><a xlink:title=" ">
<path fill="none" stroke="#63b8ff" d="M630.72,-96C618.64,-96 606.38,-96 594.6,-96"/>
<polygon fill="#63b8ff" stroke="#63b8ff" points="630.79,-99.5 640.79,-96 630.79,-92.5 630.79,-99.5"/>
</a>
</g>
</g>
<!-- Node5 -->
<g id="Node000005" class="node">
<title>Node5</title>
<g id="a_Node000005"><a xlink:href="classNavEKF3__core.html#a2a7fae9e0bf2ce6fc2f9b3918dc168d3" target="_top" xlink:title=" ">
<polygon fill="white" stroke="#666666" points="393,-105.5 240,-105.5 240,-86.5 393,-86.5 393,-105.5"/>
<text text-anchor="middle" x="316.5" y="-93.5" font-family="Helvetica,sans-Serif" font-size="10.00">NavEKF3_core::UpdateFilter</text>
</a>
</g>
</g>
<!-- Node4&#45;&gt;Node5 -->
<g id="edge4_Node000004_Node000005" class="edge">
<title>Node4&#45;&gt;Node5</title>
<g id="a_edge4_Node000004_Node000005"><a xlink:title=" ">
<path fill="none" stroke="#63b8ff" d="M461.99,-64.7C430.42,-71.54 391.09,-80.06 361.43,-86.48"/>
<polygon fill="#63b8ff" stroke="#63b8ff" points="462.91,-68.08 471.95,-62.54 461.43,-61.24 462.91,-68.08"/>
</a>
</g>
</g>
<!-- Node6 -->
<g id="Node000006" class="node">
<title>Node6</title>
<g id="a_Node000006"><a xlink:href="classNavEKF3.html#a477020fcf29376e0c2205dbf79728104" target="_top" xlink:title=" ">
<polygon fill="white" stroke="#666666" points="204,-105.5 77,-105.5 77,-86.5 204,-86.5 204,-105.5"/>
<text text-anchor="middle" x="140.5" y="-93.5" font-family="Helvetica,sans-Serif" font-size="10.00">NavEKF3::UpdateFilter</text>
</a>
</g>
</g>
<!-- Node5&#45;&gt;Node6 -->
<g id="edge5_Node000005_Node000006" class="edge">
<title>Node5&#45;&gt;Node6</title>
<g id="a_edge5_Node000005_Node000006"><a xlink:title=" ">
<path fill="none" stroke="#63b8ff" d="M229.83,-96C221.2,-96 212.54,-96 204.21,-96"/>
<polygon fill="#63b8ff" stroke="#63b8ff" points="229.94,-99.5 239.94,-96 229.94,-92.5 229.94,-99.5"/>
</a>
</g>
</g>
<!-- Node7 -->
<g id="Node000007" class="node">
<title>Node7</title>
<g id="a_Node000007"><a xlink:href="main_8cpp.html#ac0f2228420376f4db7e1274f2b41667c" target="_top" xlink:title=" ">
<polygon fill="white" stroke="#666666" points="41,-105.5 0,-105.5 0,-86.5 41,-86.5 41,-105.5"/>
<text text-anchor="middle" x="20.5" y="-93.5" font-family="Helvetica,sans-Serif" font-size="10.00">main</text>
</a>
</g>
</g>
<!-- Node6&#45;&gt;Node7 -->
<g id="edge6_Node000006_Node000007" class="edge">
<title>Node6&#45;&gt;Node7</title>
<g id="a_edge6_Node000006_Node000007"><a xlink:title=" ">
<path fill="none" stroke="#63b8ff" d="M66.45,-96C57.14,-96 48.32,-96 41,-96"/>
<polygon fill="#63b8ff" stroke="#63b8ff" points="66.7,-99.5 76.7,-96 66.7,-92.5 66.7,-99.5"/>
</a>
</g>
</g>
<!-- Node8&#45;&gt;Node5 -->
<g id="edge8_Node000008_Node000005" class="edge">
<title>Node8&#45;&gt;Node5</title>
<g id="a_edge8_Node000008_Node000005"><a xlink:title=" ">
<path fill="none" stroke="#63b8ff" d="M429.21,-96C417.17,-96 404.88,-96 393.06,-96"/>
<polygon fill="#63b8ff" stroke="#63b8ff" points="429.25,-99.5 439.25,-96 429.25,-92.5 429.25,-99.5"/>
</a>
</g>
</g>
<!-- Node9&#45;&gt;Node5 -->
<g id="edge10_Node000009_Node000005" class="edge">
<title>Node9&#45;&gt;Node5</title>
<g id="a_edge10_Node000009_Node000005"><a xlink:title=" ">
<path fill="none" stroke="#63b8ff" d="M443.94,-126.58C414.62,-119.49 381.88,-111.57 357.05,-105.56"/>
<polygon fill="#63b8ff" stroke="#63b8ff" points="443.2,-130 453.74,-128.94 444.84,-123.19 443.2,-130"/>
</a>
</g>
</g>
<!-- Node10&#45;&gt;Node2 -->
<g id="edge14_Node000010_Node000002" class="edge">
<title>Node10&#45;&gt;Node2</title>
<g id="a_edge14_Node000010_Node000002"><a xlink:title=" ">
<path fill="none" stroke="#63b8ff" d="M1052.2,-113.14C1032.97,-117.19 1012.72,-121.46 994.33,-125.34"/>
<polygon fill="#63b8ff" stroke="#63b8ff" points="1053.09,-116.53 1062.15,-111.04 1051.64,-109.68 1053.09,-116.53"/>
</a>
</g>
</g>
<!-- Node10&#45;&gt;Node3 -->
<g id="edge15_Node000010_Node000003" class="edge">
<title>Node10&#45;&gt;Node3</title>
<g id="a_edge15_Node000010_Node000003"><a xlink:title=" ">
<path fill="none" stroke="#63b8ff" d="M1040.51,-96C969.9,-96 873.74,-96 806.1,-96"/>
<polygon fill="#63b8ff" stroke="#63b8ff" points="1040.73,-99.5 1050.73,-96 1040.73,-92.5 1040.73,-99.5"/>
</a>
</g>
</g>
<!-- Node11 -->
<g id="Node000011" class="node">
<title>Node11</title>
<g id="a_Node000011"><a xlink:href="classNavEKF3__core.html#aa950b330485fa35b67a09ad3972667aa" target="_top" xlink:title=" ">
<polygon fill="white" stroke="#666666" points="1010.5,-67.5 846.5,-67.5 846.5,-48.5 1010.5,-48.5 1010.5,-67.5"/>
<text text-anchor="middle" x="928.5" y="-55.5" font-family="Helvetica,sans-Serif" font-size="10.00">NavEKF3_core::alignYawAngle</text>
</a>
</g>
</g>
<!-- Node10&#45;&gt;Node11 -->
<g id="edge12_Node000010_Node000011" class="edge">
<title>Node10&#45;&gt;Node11</title>
<g id="a_edge12_Node000010_Node000011"><a xlink:title=" ">
<path fill="none" stroke="#63b8ff" d="M1042.79,-79.1C1021.43,-75.12 999.39,-71.02 980.5,-67.5"/>
<polygon fill="#63b8ff" stroke="#63b8ff" points="1042.4,-82.59 1052.87,-80.98 1043.68,-75.71 1042.4,-82.59"/>
</a>
</g>
</g>
<!-- Node12 -->
<g id="Node000012" class="node">
<title>Node12</title>
<g id="a_Node000012"><a xlink:href="classNavEKF3__core.html#a93a29ff87cd67ad5b8cde406688d9f02" target="_top" xlink:title=" ">
<polygon fill="white" stroke="#666666" points="1015,-27.5 842,-27.5 842,-8.5 1015,-8.5 1015,-27.5"/>
<text text-anchor="middle" x="928.5" y="-15.5" font-family="Helvetica,sans-Serif" font-size="10.00">NavEKF3_core::setYawFromMag</text>
</a>
</g>
</g>
<!-- Node10&#45;&gt;Node12 -->
<g id="edge16_Node000010_Node000012" class="edge">
<title>Node10&#45;&gt;Node12</title>
<g id="a_edge16_Node000010_Node000012"><a xlink:title=" ">
<path fill="none" stroke="#63b8ff" d="M1097.36,-76.2C1074.31,-64.18 1043.52,-49.24 1015,-39 1002.63,-34.56 988.92,-30.73 976.17,-27.61"/>
<polygon fill="#63b8ff" stroke="#63b8ff" points="1095.95,-79.4 1106.42,-80.98 1099.21,-73.21 1095.95,-79.4"/>
</a>
</g>
</g>
<!-- Node11&#45;&gt;Node4 -->
<g id="edge13_Node000011_Node000004" class="edge">
<title>Node11&#45;&gt;Node4</title>
<g id="a_edge13_Node000011_Node000004"><a xlink:title=" ">
<path fill="none" stroke="#63b8ff" d="M835.7,-56.88C766.79,-56.04 673.04,-54.89 605.26,-54.07"/>
<polygon fill="#63b8ff" stroke="#63b8ff" points="836.06,-60.38 846.11,-57.01 836.15,-53.38 836.06,-60.38"/>
</a>
</g>
</g>
<!-- Node13 -->
<g id="Node000013" class="node">
<title>Node13</title>
<g id="a_Node000013"><a xlink:href="classNavEKF3__core.html#ae050fc8e6c45d5134f8cba8dabc719e8" target="_top" xlink:title=" ">
<polygon fill="white" stroke="#666666" points="797.5,-30 649.5,-30 649.5,0 797.5,0 797.5,-30"/>
<text text-anchor="start" x="657.5" y="-18" font-family="Helvetica,sans-Serif" font-size="10.00">NavEKF3_core::controlMag</text>
<text text-anchor="middle" x="723.5" y="-7" font-family="Helvetica,sans-Serif" font-size="10.00">YawReset</text>
</a>
</g>
</g>
<!-- Node12&#45;&gt;Node13 -->
<g id="edge17_Node000012_Node000013" class="edge">
<title>Node12&#45;&gt;Node13</title>
<g id="a_edge17_Node000012_Node000013"><a xlink:title=" ">
<path fill="none" stroke="#63b8ff" d="M831.93,-16.59C820.42,-16.42 808.81,-16.25 797.69,-16.08"/>
<polygon fill="#63b8ff" stroke="#63b8ff" points="831.95,-20.09 842,-16.74 832.05,-13.09 831.95,-20.09"/>
</a>
</g>
</g>
<!-- Node13&#45;&gt;Node4 -->
<g id="edge18_Node000013_Node000004" class="edge">
<title>Node13&#45;&gt;Node4</title>
<g id="a_edge18_Node000013_Node000004"><a xlink:title=" ">
<path fill="none" stroke="#63b8ff" d="M639.2,-30.48C615.53,-34.88 590.45,-39.54 569.28,-43.47"/>
<polygon fill="#63b8ff" stroke="#63b8ff" points="640.06,-33.88 649.25,-28.61 638.78,-27 640.06,-33.88"/>
</a>
</g>
</g>
</g>
</svg>
