<?xml version="1.0" encoding="UTF-8" standalone="no"?>
<!DOCTYPE svg PUBLIC "-//W3C//DTD SVG 1.1//EN"
 "http://www.w3.org/Graphics/SVG/1.1/DTD/svg11.dtd">
<!-- Generated by graphviz version 2.43.0 (0)
 -->
<!-- Title: AP_Beacon_SITL Pages: 1 -->
<svg width="704pt" height="287pt"
 viewBox="0.00 0.00 704.00 287.00" xmlns="http://www.w3.org/2000/svg" xmlns:xlink="http://www.w3.org/1999/xlink">
<g id="graph0" class="graph" transform="scale(1 1) rotate(0) translate(4 283)">
<title>AP_Beacon_SITL</title>
<!-- Node1 -->
<g id="Node000001" class="node">
<title>Node1</title>
<g id="a_Node000001"><a xlink:title=" ">
<polygon fill="#999999" stroke="#666666" points="696,-19 600,-19 600,0 696,0 696,-19"/>
<text text-anchor="middle" x="648" y="-7" font-family="Helvetica,sans-Serif" font-size="10.00">AP_Beacon_SITL</text>
</a>
</g>
</g>
<!-- Node2 -->
<g id="Node000002" class="node">
<title>Node2</title>
<g id="a_Node000002"><a xlink:href="classAP__Beacon__Backend.html" target="_top" xlink:title=" ">
<polygon fill="white" stroke="#666666" points="484.5,-52 367.5,-52 367.5,-33 484.5,-33 484.5,-52"/>
<text text-anchor="middle" x="426" y="-40" font-family="Helvetica,sans-Serif" font-size="10.00">AP_Beacon_Backend</text>
</a>
</g>
</g>
<!-- Node2&#45;&gt;Node1 -->
<g id="edge1_Node000001_Node000002" class="edge">
<title>Node2&#45;&gt;Node1</title>
<g id="a_edge1_Node000001_Node000002"><a xlink:title=" ">
<path fill="none" stroke="#63b8ff" d="M475.72,-30.73C487.85,-28.08 500.85,-25.47 513,-23.5 541.63,-18.86 573.96,-15.43 599.7,-13.12"/>
<polygon fill="#63b8ff" stroke="#63b8ff" points="474.77,-27.35 465.78,-32.95 476.3,-34.19 474.77,-27.35"/>
</a>
</g>
</g>
<!-- Node3 -->
<g id="Node000003" class="node">
<title>Node3</title>
<g id="a_Node000003"><a xlink:href="classAP__Beacon.html" target="_top" xlink:title=" ">
<polygon fill="white" stroke="#666666" points="683.5,-137 612.5,-137 612.5,-118 683.5,-118 683.5,-137"/>
<text text-anchor="middle" x="648" y="-125" font-family="Helvetica,sans-Serif" font-size="10.00">AP_Beacon</text>
</a>
</g>
</g>
<!-- Node2&#45;&gt;Node3 -->
<g id="edge6_Node000003_Node000002" class="edge">
<title>Node2&#45;&gt;Node3</title>
<g id="a_edge6_Node000003_Node000002"><a xlink:title=" ">
<path fill="none" stroke="#9a32cd" stroke-dasharray="5,2" d="M467.42,-55.23C498.96,-65.49 543.71,-80.76 582,-96.5 597.96,-103.06 615.6,-111.56 628.47,-117.99"/>
<polygon fill="#9a32cd" stroke="#9a32cd" points="468.26,-51.82 457.66,-52.08 466.1,-58.49 468.26,-51.82"/>
</a>
</g>
<text text-anchor="middle" x="547.5" y="-99.5" font-family="Helvetica,sans-Serif" font-size="10.00" fill="grey"> _driver</text>
</g>
<!-- Node3&#45;&gt;Node2 -->
<g id="edge2_Node000002_Node000003" class="edge">
<title>Node3&#45;&gt;Node2</title>
<g id="a_edge2_Node000002_Node000003"><a xlink:title=" ">
<path fill="none" stroke="#9a32cd" stroke-dasharray="5,2" d="M638.71,-108.67C628.61,-88.35 609.43,-57.07 582,-43.5 547.39,-26.38 502.88,-28.14 470.44,-32.99"/>
<polygon fill="#9a32cd" stroke="#9a32cd" points="635.63,-110.34 643.05,-117.9 641.96,-107.36 635.63,-110.34"/>
</a>
</g>
<text text-anchor="middle" x="547.5" y="-46.5" font-family="Helvetica,sans-Serif" font-size="10.00" fill="grey"> _frontend</text>
</g>
<!-- Node3&#45;&gt;Node3 -->
<g id="edge5_Node000003_Node000003" class="edge">
<title>Node3&#45;&gt;Node3</title>
<g id="a_edge5_Node000003_Node000003"><a xlink:title=" ">
<path fill="none" stroke="#9a32cd" stroke-dasharray="5,2" d="M629.58,-146.91C631.03,-151.56 637.17,-155 648,-155 665.77,-155 670.91,-145.73 663.41,-137.08"/>
<polygon fill="#9a32cd" stroke="#9a32cd" points="633.01,-147.67 632.59,-137.08 626.32,-145.62 633.01,-147.67"/>
</a>
</g>
<text text-anchor="middle" x="648" y="-158" font-family="Helvetica,sans-Serif" font-size="10.00" fill="grey"> _singleton</text>
</g>
<!-- Node4 -->
<g id="Node000004" class="node">
<title>Node4</title>
<g id="a_Node000004"><a xlink:href="structAP__Param_1_1GroupInfo.html" target="_top" xlink:title=" ">
<polygon fill="white" stroke="#666666" points="485.5,-239 366.5,-239 366.5,-220 485.5,-220 485.5,-239"/>
<text text-anchor="middle" x="426" y="-227" font-family="Helvetica,sans-Serif" font-size="10.00">AP_Param::GroupInfo</text>
</a>
</g>
</g>
<!-- Node4&#45;&gt;Node3 -->
<g id="edge3_Node000003_Node000004" class="edge">
<title>Node4&#45;&gt;Node3</title>
<g id="a_edge3_Node000003_Node000004"><a xlink:title=" ">
<path fill="none" stroke="#9a32cd" stroke-dasharray="5,2" d="M495.97,-228.72C524.14,-225.84 556.12,-219.14 582,-204.5 610.78,-188.22 632.49,-154.01 641.89,-137.22"/>
<polygon fill="#9a32cd" stroke="#9a32cd" points="495.44,-225.25 485.78,-229.61 496.05,-232.22 495.44,-225.25"/>
</a>
</g>
<text text-anchor="middle" x="547.5" y="-228.5" font-family="Helvetica,sans-Serif" font-size="10.00" fill="grey"> var_info</text>
</g>
<!-- Node4&#45;&gt;Node4 -->
<g id="edge4_Node000004_Node000004" class="edge">
<title>Node4&#45;&gt;Node4</title>
<g id="a_edge4_Node000004_Node000004"><a xlink:title=" ">
<path fill="none" stroke="#9a32cd" stroke-dasharray="5,2" d="M406,-248.55C407.34,-253.38 414,-257 426,-257 445.2,-257 450.74,-247.73 442.65,-239.08"/>
<polygon fill="#9a32cd" stroke="#9a32cd" points="409.32,-249.68 409.35,-239.08 402.72,-247.34 409.32,-249.68"/>
</a>
</g>
<text text-anchor="middle" x="426" y="-271" font-family="Helvetica,sans-Serif" font-size="10.00" fill="grey"> group_info</text>
<text text-anchor="middle" x="426" y="-260" font-family="Helvetica,sans-Serif" font-size="10.00" fill="grey">group_info_ptr</text>
</g>
<!-- Node5 -->
<g id="Node000005" class="node">
<title>Node5</title>
<g id="a_Node000005"><a xlink:href="classVector3.html" target="_top" xlink:title=" ">
<polygon fill="white" stroke="#666666" points="269,-187 171,-187 171,-168 269,-168 269,-187"/>
<text text-anchor="middle" x="220" y="-175" font-family="Helvetica,sans-Serif" font-size="10.00">Vector3&lt; float &gt;</text>
</a>
</g>
</g>
<!-- Node5&#45;&gt;Node3 -->
<g id="edge7_Node000003_Node000005" class="edge">
<title>Node5&#45;&gt;Node3</title>
<g id="a_edge7_Node000003_Node000005"><a xlink:title=" ">
<path fill="none" stroke="#9a32cd" stroke-dasharray="5,2" d="M279.4,-179.73C351.62,-181.06 477.77,-178.72 582,-152.5 597.13,-148.69 613.51,-142.38 626.05,-137.04"/>
<polygon fill="#9a32cd" stroke="#9a32cd" points="279.22,-176.22 269.15,-179.51 279.07,-183.22 279.22,-176.22"/>
</a>
</g>
<text text-anchor="middle" x="426" y="-181.5" font-family="Helvetica,sans-Serif" font-size="10.00" fill="grey"> veh_pos_ned</text>
</g>
<!-- Node6 -->
<g id="Node000006" class="node">
<title>Node6</title>
<g id="a_Node000006"><a xlink:href="structAP__Beacon_1_1BeaconState.html" target="_top" xlink:title=" ">
<polygon fill="white" stroke="#666666" points="495,-154 357,-154 357,-135 495,-135 495,-154"/>
<text text-anchor="middle" x="426" y="-142" font-family="Helvetica,sans-Serif" font-size="10.00">AP_Beacon::BeaconState</text>
</a>
</g>
</g>
<!-- Node5&#45;&gt;Node6 -->
<g id="edge9_Node000006_Node000005" class="edge">
<title>Node5&#45;&gt;Node6</title>
<g id="a_edge9_Node000006_Node000005"><a xlink:title=" ">
<path fill="none" stroke="#9a32cd" stroke-dasharray="5,2" d="M279.23,-168.08C306.39,-163.69 338.67,-158.46 365.94,-154.05"/>
<polygon fill="#9a32cd" stroke="#9a32cd" points="278.4,-164.67 269.09,-169.72 279.52,-171.58 278.4,-164.67"/>
</a>
</g>
<text text-anchor="middle" x="317.5" y="-167.5" font-family="Helvetica,sans-Serif" font-size="10.00" fill="grey"> position</text>
</g>
<!-- Node6&#45;&gt;Node3 -->
<g id="edge8_Node000003_Node000006" class="edge">
<title>Node6&#45;&gt;Node3</title>
<g id="a_edge8_Node000003_Node000006"><a xlink:title=" ">
<path fill="none" stroke="#9a32cd" stroke-dasharray="5,2" d="M505.29,-138.45C541.95,-135.62 583.74,-132.39 612.38,-130.17"/>
<polygon fill="#9a32cd" stroke="#9a32cd" points="504.8,-134.98 495.1,-139.24 505.34,-141.96 504.8,-134.98"/>
</a>
</g>
<text text-anchor="middle" x="547.5" y="-140.5" font-family="Helvetica,sans-Serif" font-size="10.00" fill="grey"> beacon_state</text>
</g>
<!-- Node7 -->
<g id="Node000007" class="node">
<title>Node7</title>
<g id="a_Node000007"><a xlink:href="structVector2.html" target="_top" xlink:title=" ">
<polygon fill="white" stroke="#666666" points="475,-117 377,-117 377,-98 475,-98 475,-117"/>
<text text-anchor="middle" x="426" y="-105" font-family="Helvetica,sans-Serif" font-size="10.00">Vector2&lt; float &gt;</text>
</a>
</g>
</g>
<!-- Node7&#45;&gt;Node3 -->
<g id="edge10_Node000003_Node000007" class="edge">
<title>Node7&#45;&gt;Node3</title>
<g id="a_edge10_Node000003_Node000007"><a xlink:title=" ">
<path fill="none" stroke="#9a32cd" stroke-dasharray="5,2" d="M485.27,-110.04C514.38,-111.62 550.11,-114.02 582,-117.5 591.87,-118.58 602.54,-120.08 612.33,-121.59"/>
<polygon fill="#9a32cd" stroke="#9a32cd" points="485.44,-106.55 475.27,-109.52 485.07,-113.54 485.44,-106.55"/>
</a>
</g>
<text text-anchor="middle" x="547.5" y="-120.5" font-family="Helvetica,sans-Serif" font-size="10.00" fill="grey"> boundary</text>
</g>
<!-- Node8 -->
<g id="Node000008" class="node">
<title>Node8</title>
<g id="a_Node000008"><a xlink:href="classAP__HAL_1_1UARTDriver.html" target="_top" xlink:title=" ">
<polygon fill="white" stroke="#666666" points="278,-52 162,-52 162,-33 278,-33 278,-52"/>
<text text-anchor="middle" x="220" y="-40" font-family="Helvetica,sans-Serif" font-size="10.00">AP_HAL::UARTDriver</text>
</a>
</g>
</g>
<!-- Node8&#45;&gt;Node2 -->
<g id="edge11_Node000002_Node000008" class="edge">
<title>Node8&#45;&gt;Node2</title>
<g id="a_edge11_Node000002_Node000008"><a xlink:title=" ">
<path fill="none" stroke="#9a32cd" stroke-dasharray="5,2" d="M288.43,-42.5C313.92,-42.5 342.68,-42.5 367.21,-42.5"/>
<polygon fill="#9a32cd" stroke="#9a32cd" points="288.1,-39 278.1,-42.5 288.1,-46 288.1,-39"/>
</a>
</g>
<text text-anchor="middle" x="317.5" y="-45.5" font-family="Helvetica,sans-Serif" font-size="10.00" fill="grey"> uart</text>
</g>
<!-- Node9 -->
<g id="Node000009" class="node">
<title>Node9</title>
<g id="a_Node000009"><a xlink:href="classAP__HAL_1_1BetterStream.html" target="_top" xlink:title=" ">
<polygon fill="white" stroke="#666666" points="125,-52 0,-52 0,-33 125,-33 125,-52"/>
<text text-anchor="middle" x="62.5" y="-40" font-family="Helvetica,sans-Serif" font-size="10.00">AP_HAL::BetterStream</text>
</a>
</g>
</g>
<!-- Node9&#45;&gt;Node8 -->
<g id="edge12_Node000008_Node000009" class="edge">
<title>Node9&#45;&gt;Node8</title>
<g id="a_edge12_Node000008_Node000009"><a xlink:title=" ">
<path fill="none" stroke="#63b8ff" d="M135.65,-42.5C144.44,-42.5 153.32,-42.5 161.85,-42.5"/>
<polygon fill="#63b8ff" stroke="#63b8ff" points="135.4,-39 125.4,-42.5 135.4,-46 135.4,-39"/>
</a>
</g>
</g>
</g>
</svg>
