<?xml version="1.0" encoding="UTF-8" standalone="no"?>
<!DOCTYPE svg PUBLIC "-//W3C//DTD SVG 1.1//EN"
 "http://www.w3.org/Graphics/SVG/1.1/DTD/svg11.dtd">
<!-- Generated by graphviz version 2.43.0 (0)
 -->
<!-- Title: AP_SmartRTL::restart_pruning Pages: 1 -->
<svg width="885pt" height="131pt"
 viewBox="0.00 0.00 885.00 131.00" xmlns="http://www.w3.org/2000/svg" xmlns:xlink="http://www.w3.org/1999/xlink">
<g id="graph0" class="graph" transform="scale(1 1) rotate(0) translate(4 127)">
<title>AP_SmartRTL::restart_pruning</title>
<!-- Node1 -->
<g id="Node000001" class="node">
<title>Node1</title>
<g id="a_Node000001"><a xlink:title=" ">
<polygon fill="#999999" stroke="#666666" points="877,-99 758,-99 758,-69 877,-69 877,-99"/>
<text text-anchor="start" x="766" y="-87" font-family="Helvetica,sans-Serif" font-size="10.00">AP_SmartRTL::restart</text>
<text text-anchor="middle" x="817.5" y="-76" font-family="Helvetica,sans-Serif" font-size="10.00">_pruning</text>
</a>
</g>
</g>
<!-- Node2 -->
<g id="Node000002" class="node">
<title>Node2</title>
<g id="a_Node000002"><a xlink:href="classAP__SmartRTL.html#a513a39d28b9653b9f580347588b98172" target="_top" xlink:title=" ">
<polygon fill="white" stroke="#666666" points="712.5,-123 600.5,-123 600.5,-93 712.5,-93 712.5,-123"/>
<text text-anchor="start" x="608.5" y="-111" font-family="Helvetica,sans-Serif" font-size="10.00">AP_SmartRTL::reset</text>
<text text-anchor="middle" x="656.5" y="-100" font-family="Helvetica,sans-Serif" font-size="10.00">_pruning</text>
</a>
</g>
</g>
<!-- Node1&#45;&gt;Node2 -->
<g id="edge1_Node000001_Node000002" class="edge">
<title>Node1&#45;&gt;Node2</title>
<g id="a_edge1_Node000001_Node000002"><a xlink:title=" ">
<path fill="none" stroke="#63b8ff" d="M747.57,-94.4C735.88,-96.17 723.87,-97.98 712.59,-99.69"/>
<polygon fill="#63b8ff" stroke="#63b8ff" points="748.38,-97.82 757.75,-92.87 747.34,-90.9 748.38,-97.82"/>
</a>
</g>
</g>
<!-- Node4 -->
<g id="Node000004" class="node">
<title>Node4</title>
<g id="a_Node000004"><a xlink:href="classAP__SmartRTL.html#a84540969b87ef6487ddd602420856c18" target="_top" xlink:title=" ">
<polygon fill="white" stroke="#666666" points="722,-75 591,-75 591,-45 722,-45 722,-75"/>
<text text-anchor="start" x="599" y="-63" font-family="Helvetica,sans-Serif" font-size="10.00">AP_SmartRTL::restart</text>
<text text-anchor="middle" x="656.5" y="-52" font-family="Helvetica,sans-Serif" font-size="10.00">_pruning_if_new_points</text>
</a>
</g>
</g>
<!-- Node1&#45;&gt;Node4 -->
<g id="edge3_Node000001_Node000004" class="edge">
<title>Node1&#45;&gt;Node4</title>
<g id="a_edge3_Node000001_Node000004"><a xlink:title=" ">
<path fill="none" stroke="#63b8ff" d="M747.84,-73.64C739.32,-72.35 730.63,-71.04 722.17,-69.76"/>
<polygon fill="#63b8ff" stroke="#63b8ff" points="747.34,-77.1 757.75,-75.13 748.38,-70.18 747.34,-77.1"/>
</a>
</g>
</g>
<!-- Node3 -->
<g id="Node000003" class="node">
<title>Node3</title>
<g id="a_Node000003"><a xlink:href="classAP__SmartRTL.html#a4b7d4780f42e4cf608fe9af02022f31e" target="_top" xlink:title=" ">
<polygon fill="white" stroke="#666666" points="555,-117.5 420,-117.5 420,-98.5 555,-98.5 555,-117.5"/>
<text text-anchor="middle" x="487.5" y="-105.5" font-family="Helvetica,sans-Serif" font-size="10.00">AP_SmartRTL::set_home</text>
</a>
</g>
</g>
<!-- Node2&#45;&gt;Node3 -->
<g id="edge2_Node000002_Node000003" class="edge">
<title>Node2&#45;&gt;Node3</title>
<g id="a_edge2_Node000002_Node000003"><a xlink:title=" ">
<path fill="none" stroke="#63b8ff" d="M590.02,-108C578.58,-108 566.68,-108 555.22,-108"/>
<polygon fill="#63b8ff" stroke="#63b8ff" points="590.36,-111.5 600.36,-108 590.36,-104.5 590.36,-111.5"/>
</a>
</g>
</g>
<!-- Node5 -->
<g id="Node000005" class="node">
<title>Node5</title>
<g id="a_Node000005"><a xlink:href="classAP__SmartRTL.html#ab6404e81f2f4319387d9566d6d379cfb" target="_top" xlink:title=" ">
<polygon fill="white" stroke="#666666" points="548.5,-78 426.5,-78 426.5,-48 548.5,-48 548.5,-78"/>
<text text-anchor="start" x="434.5" y="-66" font-family="Helvetica,sans-Serif" font-size="10.00">AP_SmartRTL::routine</text>
<text text-anchor="middle" x="487.5" y="-55" font-family="Helvetica,sans-Serif" font-size="10.00">_cleanup</text>
</a>
</g>
</g>
<!-- Node4&#45;&gt;Node5 -->
<g id="edge4_Node000004_Node000005" class="edge">
<title>Node4&#45;&gt;Node5</title>
<g id="a_edge4_Node000004_Node000005"><a xlink:title=" ">
<path fill="none" stroke="#63b8ff" d="M580.69,-61.34C569.92,-61.54 558.95,-61.73 548.52,-61.92"/>
<polygon fill="#63b8ff" stroke="#63b8ff" points="581,-64.84 590.93,-61.16 580.87,-57.84 581,-64.84"/>
</a>
</g>
</g>
<!-- Node10 -->
<g id="Node000010" class="node">
<title>Node10</title>
<g id="a_Node000010"><a xlink:href="classAP__SmartRTL.html#a9bf12019b2e68d7dd4dd91d796065879" target="_top" xlink:title=" ">
<polygon fill="white" stroke="#666666" points="553,-30 422,-30 422,0 553,0 553,-30"/>
<text text-anchor="start" x="430" y="-18" font-family="Helvetica,sans-Serif" font-size="10.00">AP_SmartRTL::thorough</text>
<text text-anchor="middle" x="487.5" y="-7" font-family="Helvetica,sans-Serif" font-size="10.00">_cleanup</text>
</a>
</g>
</g>
<!-- Node4&#45;&gt;Node10 -->
<g id="edge9_Node000004_Node000010" class="edge">
<title>Node4&#45;&gt;Node10</title>
<g id="a_edge9_Node000004_Node000010"><a xlink:title=" ">
<path fill="none" stroke="#63b8ff" d="M589.72,-42.27C574.73,-38.24 558.95,-33.98 544.43,-30.07"/>
<polygon fill="#63b8ff" stroke="#63b8ff" points="588.86,-45.67 599.43,-44.89 590.68,-38.91 588.86,-45.67"/>
</a>
</g>
</g>
<!-- Node6 -->
<g id="Node000006" class="node">
<title>Node6</title>
<g id="a_Node000006"><a xlink:href="classAP__SmartRTL.html#a59993dfd6863e68ca3775537d8cff85a" target="_top" xlink:title=" ">
<polygon fill="white" stroke="#666666" points="384,-54 219,-54 219,-24 384,-24 384,-54"/>
<text text-anchor="start" x="227" y="-42" font-family="Helvetica,sans-Serif" font-size="10.00">AP_SmartRTL::run_background</text>
<text text-anchor="middle" x="301.5" y="-31" font-family="Helvetica,sans-Serif" font-size="10.00">_cleanup</text>
</a>
</g>
</g>
<!-- Node5&#45;&gt;Node6 -->
<g id="edge5_Node000005_Node000006" class="edge">
<title>Node5&#45;&gt;Node6</title>
<g id="a_edge5_Node000005_Node000006"><a xlink:title=" ">
<path fill="none" stroke="#63b8ff" d="M416.02,-53.81C405.64,-52.45 394.86,-51.05 384.28,-49.67"/>
<polygon fill="#63b8ff" stroke="#63b8ff" points="415.88,-57.32 426.25,-55.14 416.79,-50.38 415.88,-57.32"/>
</a>
</g>
</g>
<!-- Node7 -->
<g id="Node000007" class="node">
<title>Node7</title>
<g id="a_Node000007"><a xlink:href="classAP__SmartRTL.html#a15b1b58eee885789ec3b88def4363995" target="_top" xlink:title=" ">
<polygon fill="white" stroke="#666666" points="183,-67.5 80,-67.5 80,-48.5 183,-48.5 183,-67.5"/>
<text text-anchor="middle" x="131.5" y="-55.5" font-family="Helvetica,sans-Serif" font-size="10.00">AP_SmartRTL::init</text>
</a>
</g>
</g>
<!-- Node6&#45;&gt;Node7 -->
<g id="edge6_Node000006_Node000007" class="edge">
<title>Node6&#45;&gt;Node7</title>
<g id="a_edge6_Node000006_Node000007"><a xlink:title=" ">
<path fill="none" stroke="#63b8ff" d="M208.95,-49.35C200.11,-50.35 191.39,-51.34 183.17,-52.27"/>
<polygon fill="#63b8ff" stroke="#63b8ff" points="209.42,-52.82 218.96,-48.22 208.63,-45.87 209.42,-52.82"/>
</a>
</g>
</g>
<!-- Node9 -->
<g id="Node000009" class="node">
<title>Node9</title>
<g id="a_Node000009"><a xlink:href="SmartRTL__test_8cpp.html#afe461d27b9c48d5921c00d521181f12f" target="_top" xlink:title=" ">
<polygon fill="white" stroke="#666666" points="150.5,-30.5 112.5,-30.5 112.5,-11.5 150.5,-11.5 150.5,-30.5"/>
<text text-anchor="middle" x="131.5" y="-18.5" font-family="Helvetica,sans-Serif" font-size="10.00">loop</text>
</a>
</g>
</g>
<!-- Node6&#45;&gt;Node9 -->
<g id="edge8_Node000006_Node000009" class="edge">
<title>Node6&#45;&gt;Node9</title>
<g id="a_edge8_Node000006_Node000009"><a xlink:title=" ">
<path fill="none" stroke="#63b8ff" d="M208.77,-29.17C186.66,-26.8 165.28,-24.51 150.8,-22.96"/>
<polygon fill="#63b8ff" stroke="#63b8ff" points="208.64,-32.68 218.96,-30.26 209.39,-25.72 208.64,-32.68"/>
</a>
</g>
</g>
<!-- Node8 -->
<g id="Node000008" class="node">
<title>Node8</title>
<g id="a_Node000008"><a xlink:href="SmartRTL__test_8cpp.html#a4fc01d736fe50cf5b977f755b675f11d" target="_top" xlink:title=" ">
<polygon fill="white" stroke="#666666" points="44,-67.5 0,-67.5 0,-48.5 44,-48.5 44,-67.5"/>
<text text-anchor="middle" x="22" y="-55.5" font-family="Helvetica,sans-Serif" font-size="10.00">setup</text>
</a>
</g>
</g>
<!-- Node7&#45;&gt;Node8 -->
<g id="edge7_Node000007_Node000008" class="edge">
<title>Node7&#45;&gt;Node8</title>
<g id="a_edge7_Node000007_Node000008"><a xlink:title=" ">
<path fill="none" stroke="#63b8ff" d="M69.83,-58C60.61,-58 51.66,-58 44.1,-58"/>
<polygon fill="#63b8ff" stroke="#63b8ff" points="69.9,-61.5 79.9,-58 69.9,-54.5 69.9,-61.5"/>
</a>
</g>
</g>
<!-- Node10&#45;&gt;Node6 -->
<g id="edge10_Node000010_Node000006" class="edge">
<title>Node10&#45;&gt;Node6</title>
<g id="a_edge10_Node000010_Node000006"><a xlink:title=" ">
<path fill="none" stroke="#63b8ff" d="M411.72,-24.75C402.62,-25.94 393.28,-27.16 384.08,-28.36"/>
<polygon fill="#63b8ff" stroke="#63b8ff" points="412.42,-28.19 421.89,-23.43 411.52,-21.25 412.42,-28.19"/>
</a>
</g>
</g>
</g>
</svg>
