<?xml version="1.0" encoding="UTF-8" standalone="no"?>
<!DOCTYPE svg PUBLIC "-//W3C//DTD SVG 1.1//EN"
 "http://www.w3.org/Graphics/SVG/1.1/DTD/svg11.dtd">
<!-- Generated by graphviz version 2.43.0 (0)
 -->
<!-- Title: ChibiOS::UARTDriver::_rx_timer_tick Pages: 1 -->
<!--zoomable 325 -->

<svg id="main" version="1.1" xmlns="http://www.w3.org/2000/svg" xmlns:xlink="http://www.w3.org/1999/xlink" xml:space="preserve" onload="init(evt)">
<style type="text/css"><![CDATA[
.node, .edge {opacity: 0.7;}
.node.selected, .edge.selected {opacity: 1;}
.edge:hover path { stroke: red; }
.edge:hover polygon { stroke: red; fill: red; }
]]></style>

<defs>
  <circle id="rim" cx="0" cy="0" r="7"/>
  <circle id="rim2" cx="0" cy="0" r="3.5"/>
  <g id="zoomPlus">
    <use xlink:href="#rim" fill="#404040"><set attributeName="fill" to="#808080" begin="zoomplus.mouseover" end="zoomplus.mouseout"/></use>
    <path d="M-4,0h8M0,-4v8" fill="none" stroke="white" stroke-width="1.5" pointer-events="none"/>
  </g>
  <g id="zoomMin">
    <use xlink:href="#rim" fill="#404040"><set attributeName="fill" to="#808080" begin="zoomminus.mouseover" end="zoomminus.mouseout"/></use>
    <path d="M-4,0h8" fill="none" stroke="white" stroke-width="1.5" pointer-events="none"/>
  </g>
  <g id="arrowUp" transform="translate(30 24)">
    <use xlink:href="#rim"/>
    <path pointer-events="none" fill="none" stroke="white" stroke-width="1.5" d="M0,-3.0v7 M-2.5,-0.5L0,-3.0L2.5,-0.5"/>
  </g>
  <g id="arrowRight" transform="rotate(90) translate(36 -43)">
    <use xlink:href="#rim"/>
    <path pointer-events="none" fill="none" stroke="white" stroke-width="1.5" d="M0,-3.0v7 M-2.5,-0.5L0,-3.0L2.5,-0.5"/>
  </g>
  <g id="arrowDown" transform="rotate(180) translate(-30 -48)">
    <use xlink:href="#rim"/>
    <path pointer-events="none" fill="none" stroke="white" stroke-width="1.5" d="M0,-3.0v7 M-2.5,-0.5L0,-3.0L2.5,-0.5"/>
  </g>
  <g id="arrowLeft" transform="rotate(270) translate(-36 17)">
    <use xlink:href="#rim"/>
    <path pointer-events="none" fill="none" stroke="white" stroke-width="1.5" d="M0,-3.0v7 M-2.5,-0.5L0,-3.0L2.5,-0.5"/>
  </g>
  <g id="resetDef">
    <use xlink:href="#rim2" fill="#404040"><set attributeName="fill" to="#808080" begin="reset.mouseover" end="reset.mouseout"/></use>
  </g>
</defs>
<script type="application/ecmascript">
var viewWidth = 853;
var viewHeight = 325;
var sectionId = 'dynsection-7';
</script>
<script type="application/ecmascript" xlink:href="svg.min.js"/>
<svg id="graph" class="graph">
<g id="viewport">
<title>ChibiOS::UARTDriver::_rx_timer_tick</title>
<!-- Node1 -->
<g id="Node000001" class="node">
<title>Node1</title>
<g id="a_Node000001"><a xlink:title=" ">
<polygon fill="#999999" stroke="#666666" points="117,-188.5 0,-188.5 0,-158.5 117,-158.5 117,-188.5"/>
<text text-anchor="start" x="8" y="-176.5" font-family="Helvetica,sans-Serif" font-size="10.00">ChibiOS::UARTDriver</text>
<text text-anchor="middle" x="58.5" y="-165.5" font-family="Helvetica,sans-Serif" font-size="10.00">::_rx_timer_tick</text>
</a>
</g>
</g>
<!-- Node2 -->
<g id="Node000002" class="node">
<title>Node2</title>
<g id="a_Node000002"><a xlink:href="classByteBuffer.html#a340aabf4c3be89a8b3445d1da3648bce" target="_top" xlink:title=" ">
<polygon fill="white" stroke="#666666" points="273,-317 154,-317 154,-298 273,-298 273,-317"/>
<text text-anchor="middle" x="213.5" y="-305" font-family="Helvetica,sans-Serif" font-size="10.00">ByteBuffer::available</text>
</a>
</g>
</g>
<!-- Node1&#45;&gt;Node2 -->
<g id="edge1_Node000001_Node000002" class="edge">
<title>Node1&#45;&gt;Node2</title>
<g id="a_edge1_Node000001_Node000002"><a xlink:title=" ">
<path fill="none" stroke="#63b8ff" d="M67.78,-188.54C82.02,-213.04 113.46,-261.53 153,-288.5 155.91,-290.48 159.04,-292.27 162.29,-293.88"/>
<polygon fill="#63b8ff" stroke="#63b8ff" points="161.09,-297.18 171.66,-297.95 163.88,-290.76 161.09,-297.18"/>
</a>
</g>
</g>
<!-- Node3 -->
<g id="Node000003" class="node">
<title>Node3</title>
<g id="a_Node000003"><a xlink:href="classChibiOS_1_1UARTDriver.html#a1ac05507849fb329602fc640a1ac9a69" target="_top" xlink:title=" ">
<polygon fill="white" stroke="#666666" points="272,-279.5 155,-279.5 155,-249.5 272,-249.5 272,-279.5"/>
<text text-anchor="start" x="163" y="-267.5" font-family="Helvetica,sans-Serif" font-size="10.00">ChibiOS::UARTDriver</text>
<text text-anchor="middle" x="213.5" y="-256.5" font-family="Helvetica,sans-Serif" font-size="10.00">::dma_rx_enable</text>
</a>
</g>
</g>
<!-- Node1&#45;&gt;Node3 -->
<g id="edge2_Node000001_Node000003" class="edge">
<title>Node1&#45;&gt;Node3</title>
<g id="a_edge2_Node000001_Node000003"><a xlink:title=" ">
<path fill="none" stroke="#63b8ff" d="M77.96,-188.76C96.21,-203.34 125.35,-225.3 153,-240.5 156.02,-242.16 159.18,-243.77 162.4,-245.32"/>
<polygon fill="#63b8ff" stroke="#63b8ff" points="161.02,-248.53 171.57,-249.5 163.93,-242.16 161.02,-248.53"/>
</a>
</g>
</g>
<!-- Node5 -->
<g id="Node000005" class="node">
<title>Node5</title>
<g id="a_Node000005"><a xlink:href="structChibiOS_1_1UARTDriver_1_1SerialDef.html#ad1cc28787c74e4d30249f381165568a7" target="_top" xlink:title=" ">
<polygon fill="white" stroke="#666666" points="274,-231.5 153,-231.5 153,-201.5 274,-201.5 274,-231.5"/>
<text text-anchor="start" x="161" y="-219.5" font-family="Helvetica,sans-Serif" font-size="10.00">ChibiOS::UARTDriver</text>
<text text-anchor="middle" x="213.5" y="-208.5" font-family="Helvetica,sans-Serif" font-size="10.00">::SerialDef::get_index</text>
</a>
</g>
</g>
<!-- Node1&#45;&gt;Node5 -->
<g id="edge4_Node000001_Node000005" class="edge">
<title>Node1&#45;&gt;Node5</title>
<g id="a_edge4_Node000001_Node000005"><a xlink:title=" ">
<path fill="none" stroke="#63b8ff" d="M113.01,-188.54C124.66,-191.81 137.09,-195.31 149.08,-198.68"/>
<polygon fill="#63b8ff" stroke="#63b8ff" points="148.44,-202.13 159.02,-201.47 150.34,-195.39 148.44,-202.13"/>
</a>
</g>
</g>
<!-- Node6 -->
<g id="Node000006" class="node">
<title>Node6</title>
<g id="a_Node000006"><a xlink:href="classChibiOS_1_1UARTDriver.html#aed38b832e2af1de7fced4c10cce5b1ce" target="_top" xlink:title=" ">
<polygon fill="white" stroke="#666666" points="273.5,-107.5 153.5,-107.5 153.5,-77.5 273.5,-77.5 273.5,-107.5"/>
<text text-anchor="start" x="161.5" y="-95.5" font-family="Helvetica,sans-Serif" font-size="10.00">ChibiOS::UARTDriver</text>
<text text-anchor="middle" x="213.5" y="-84.5" font-family="Helvetica,sans-Serif" font-size="10.00">::read_bytes_NODMA</text>
</a>
</g>
</g>
<!-- Node1&#45;&gt;Node6 -->
<g id="edge5_Node000001_Node000006" class="edge">
<title>Node1&#45;&gt;Node6</title>
<g id="a_edge5_Node000001_Node000006"><a xlink:title=" ">
<path fill="none" stroke="#63b8ff" d="M81.96,-158.37C100.53,-146.21 127.86,-129.13 153,-116.5 156.28,-114.85 159.7,-113.23 163.17,-111.66"/>
<polygon fill="#63b8ff" stroke="#63b8ff" points="164.65,-114.83 172.41,-107.62 161.85,-108.42 164.65,-114.83"/>
</a>
</g>
</g>
<!-- Node9 -->
<g id="Node000009" class="node">
<title>Node9</title>
<g id="a_Node000009"><a xlink:href="classChibiOS_1_1UARTDriver.html#ab7145b4d9a319198cd8d2a4cb9a8d58c" target="_top" xlink:title=" ">
<polygon fill="white" stroke="#666666" points="448,-48 331,-48 331,-7 448,-7 448,-48"/>
<text text-anchor="start" x="339" y="-36" font-family="Helvetica,sans-Serif" font-size="10.00">ChibiOS::UARTDriver</text>
<text text-anchor="start" x="339" y="-25" font-family="Helvetica,sans-Serif" font-size="10.00">::receive_timestamp</text>
<text text-anchor="middle" x="389.5" y="-14" font-family="Helvetica,sans-Serif" font-size="10.00">_update</text>
</a>
</g>
</g>
<!-- Node1&#45;&gt;Node9 -->
<g id="edge16_Node000001_Node000009" class="edge">
<title>Node1&#45;&gt;Node9</title>
<g id="a_edge16_Node000001_Node000009"><a xlink:title=" ">
<path fill="none" stroke="#63b8ff" d="M68.21,-158.44C82.62,-135.03 113.76,-90.34 153,-68.5 204.46,-39.86 271.23,-30.38 320.53,-27.61"/>
<polygon fill="#63b8ff" stroke="#63b8ff" points="320.95,-31.09 330.77,-27.11 320.61,-24.1 320.95,-31.09"/>
</a>
</g>
</g>
<!-- Node15 -->
<g id="Node000015" class="node">
<title>Node15</title>
<g id="a_Node000015"><a xlink:href="classChibiOS_1_1UARTDriver.html#ad9b7c9474934997e0663f14a3185bd14" target="_top" xlink:title=" ">
<polygon fill="white" stroke="#666666" points="448,-209.5 331,-209.5 331,-179.5 448,-179.5 448,-209.5"/>
<text text-anchor="start" x="339" y="-197.5" font-family="Helvetica,sans-Serif" font-size="10.00">ChibiOS::UARTDriver</text>
<text text-anchor="middle" x="389.5" y="-186.5" font-family="Helvetica,sans-Serif" font-size="10.00">::update_rts_line</text>
</a>
</g>
</g>
<!-- Node1&#45;&gt;Node15 -->
<g id="edge17_Node000001_Node000015" class="edge">
<title>Node1&#45;&gt;Node15</title>
<g id="a_edge17_Node000001_Node000015"><a xlink:title=" ">
<path fill="none" stroke="#63b8ff" d="M117.18,-177.18C173.98,-180.81 260.7,-186.34 320.74,-190.17"/>
<polygon fill="#63b8ff" stroke="#63b8ff" points="320.68,-193.68 330.88,-190.82 321.13,-186.69 320.68,-193.68"/>
</a>
</g>
</g>
<!-- Node16 -->
<g id="Node000016" class="node">
<title>Node16</title>
<g id="a_Node000016"><a xlink:href="classByteBuffer.html#ac57883bb2bce8263d26221a250f452dc" target="_top" xlink:title=" ">
<polygon fill="white" stroke="#666666" points="263,-145 164,-145 164,-126 263,-126 263,-145"/>
<text text-anchor="middle" x="213.5" y="-133" font-family="Helvetica,sans-Serif" font-size="10.00">ByteBuffer::write</text>
</a>
</g>
</g>
<!-- Node1&#45;&gt;Node16 -->
<g id="edge19_Node000001_Node000016" class="edge">
<title>Node1&#45;&gt;Node16</title>
<g id="a_edge19_Node000001_Node000016"><a xlink:title=" ">
<path fill="none" stroke="#63b8ff" d="M117.34,-159.13C132.74,-155.31 149.22,-151.22 164.06,-147.53"/>
<polygon fill="#63b8ff" stroke="#63b8ff" points="165.18,-150.86 174.04,-145.05 163.49,-144.07 165.18,-150.86"/>
</a>
</g>
</g>
<!-- Node4 -->
<g id="Node000004" class="node">
<title>Node4</title>
<g id="a_Node000004"><a xlink:href="stm32__util_8c.html#a54e2eb1fc27c9f174c24fe6dece411c1" target="_top" xlink:title=" ">
<polygon fill="white" stroke="#666666" points="469,-274 310,-274 310,-255 469,-255 469,-274"/>
<text text-anchor="middle" x="389.5" y="-262" font-family="Helvetica,sans-Serif" font-size="10.00">stm32_cacheBufferInvalidate</text>
</a>
</g>
</g>
<!-- Node3&#45;&gt;Node4 -->
<g id="edge3_Node000003_Node000004" class="edge">
<title>Node3&#45;&gt;Node4</title>
<g id="a_edge3_Node000003_Node000004"><a xlink:title=" ">
<path fill="none" stroke="#63b8ff" d="M272.44,-264.5C281.22,-264.5 290.46,-264.5 299.71,-264.5"/>
<polygon fill="#63b8ff" stroke="#63b8ff" points="299.75,-268 309.75,-264.5 299.75,-261 299.75,-268"/>
</a>
</g>
</g>
<!-- Node7 -->
<g id="Node000007" class="node">
<title>Node7</title>
<g id="a_Node000007"><a xlink:href="classByteBuffer.html#a866914509694b8f71af1280ad2eba222" target="_top" xlink:title=" ">
<polygon fill="white" stroke="#666666" points="445.5,-124 333.5,-124 333.5,-105 445.5,-105 445.5,-124"/>
<text text-anchor="middle" x="389.5" y="-112" font-family="Helvetica,sans-Serif" font-size="10.00">ByteBuffer::commit</text>
</a>
</g>
</g>
<!-- Node6&#45;&gt;Node7 -->
<g id="edge6_Node000006_Node000007" class="edge">
<title>Node6&#45;&gt;Node7</title>
<g id="a_edge6_Node000006_Node000007"><a xlink:title=" ">
<path fill="none" stroke="#63b8ff" d="M273.89,-100.01C289.87,-102.03 307.24,-104.23 323.51,-106.28"/>
<polygon fill="#63b8ff" stroke="#63b8ff" points="323.11,-109.76 333.47,-107.54 323.99,-102.82 323.11,-109.76"/>
</a>
</g>
</g>
<!-- Node8 -->
<g id="Node000008" class="node">
<title>Node8</title>
<g id="a_Node000008"><a xlink:href="classByteBuffer.html#a44decf7619adddfa5833f9d337fe56f4" target="_top" xlink:title=" ">
<polygon fill="white" stroke="#666666" points="609,-142 506,-142 506,-123 609,-123 609,-142"/>
<text text-anchor="middle" x="557.5" y="-130" font-family="Helvetica,sans-Serif" font-size="10.00">ByteBuffer::space</text>
</a>
</g>
</g>
<!-- Node6&#45;&gt;Node8 -->
<g id="edge15_Node000006_Node000008" class="edge">
<title>Node6&#45;&gt;Node8</title>
<g id="a_edge15_Node000006_Node000008"><a xlink:title=" ">
<path fill="none" stroke="#63b8ff" d="M273.57,-86.8C325.61,-83.29 403.15,-81.74 469,-95.5 490.46,-99.98 513.22,-109.78 530.15,-118.17"/>
<polygon fill="#63b8ff" stroke="#63b8ff" points="528.89,-121.46 539.39,-122.9 532.08,-115.23 528.89,-121.46"/>
</a>
</g>
</g>
<!-- Node6&#45;&gt;Node9 -->
<g id="edge8_Node000006_Node000009" class="edge">
<title>Node6&#45;&gt;Node9</title>
<g id="a_edge8_Node000006_Node000009"><a xlink:title=" ">
<path fill="none" stroke="#63b8ff" d="M254.86,-77.42C275.42,-69.74 300.91,-60.22 324.1,-51.56"/>
<polygon fill="#63b8ff" stroke="#63b8ff" points="325.39,-54.81 333.53,-48.03 322.94,-48.25 325.39,-54.81"/>
</a>
</g>
</g>
<!-- Node14 -->
<g id="Node000014" class="node">
<title>Node14</title>
<g id="a_Node000014"><a xlink:href="classByteBuffer.html#ad5f9e7af638987efeadb7b4bb9c0ae28" target="_top" xlink:title=" ">
<polygon fill="white" stroke="#666666" points="445,-161 334,-161 334,-142 445,-142 445,-161"/>
<text text-anchor="middle" x="389.5" y="-149" font-family="Helvetica,sans-Serif" font-size="10.00">ByteBuffer::reserve</text>
</a>
</g>
</g>
<!-- Node6&#45;&gt;Node14 -->
<g id="edge13_Node000006_Node000014" class="edge">
<title>Node6&#45;&gt;Node14</title>
<g id="a_edge13_Node000006_Node000014"><a xlink:title=" ">
<path fill="none" stroke="#63b8ff" d="M252.35,-107.54C259.56,-110.47 267.03,-113.54 274,-116.5 290.12,-123.33 293.42,-126.86 310,-132.5 317.37,-135.01 325.24,-137.32 333.05,-139.41"/>
<polygon fill="#63b8ff" stroke="#63b8ff" points="332.3,-142.83 342.85,-141.93 334.04,-136.05 332.3,-142.83"/>
</a>
</g>
</g>
<!-- Node7&#45;&gt;Node8 -->
<g id="edge7_Node000007_Node000008" class="edge">
<title>Node7&#45;&gt;Node8</title>
<g id="a_edge7_Node000007_Node000008"><a xlink:title=" ">
<path fill="none" stroke="#63b8ff" d="M445.78,-120.49C461.87,-122.24 479.53,-124.15 495.92,-125.93"/>
<polygon fill="#63b8ff" stroke="#63b8ff" points="495.63,-129.42 505.94,-127.02 496.38,-122.46 495.63,-129.42"/>
</a>
</g>
</g>
<!-- Node10 -->
<g id="Node000010" class="node">
<title>Node10</title>
<g id="a_Node000010"><a xlink:href="namespaceAP__HAL.html#a7aa0ce7625c9680e30ff4a99940907a5" target="_top" xlink:title=" ">
<polygon fill="white" stroke="#666666" points="610,-37 505,-37 505,-18 610,-18 610,-37"/>
<text text-anchor="middle" x="557.5" y="-25" font-family="Helvetica,sans-Serif" font-size="10.00">AP_HAL::micros64</text>
</a>
</g>
</g>
<!-- Node9&#45;&gt;Node10 -->
<g id="edge9_Node000009_Node000010" class="edge">
<title>Node9&#45;&gt;Node10</title>
<g id="a_edge9_Node000009_Node000010"><a xlink:title=" ">
<path fill="none" stroke="#63b8ff" d="M448.09,-27.5C463.08,-27.5 479.29,-27.5 494.5,-27.5"/>
<polygon fill="#63b8ff" stroke="#63b8ff" points="494.84,-31 504.84,-27.5 494.84,-24 494.84,-31"/>
</a>
</g>
</g>
<!-- Node11 -->
<g id="Node000011" class="node">
<title>Node11</title>
<g id="a_Node000011"><a xlink:href="hrt_8c.html#a152c3348a8e83f2dfe35b44cc2e30362" target="_top" xlink:title=" ">
<polygon fill="white" stroke="#666666" points="726,-37 646,-37 646,-18 726,-18 726,-37"/>
<text text-anchor="middle" x="686" y="-25" font-family="Helvetica,sans-Serif" font-size="10.00">hrt_micros64</text>
</a>
</g>
</g>
<!-- Node10&#45;&gt;Node11 -->
<g id="edge10_Node000010_Node000011" class="edge">
<title>Node10&#45;&gt;Node11</title>
<g id="a_edge10_Node000010_Node000011"><a xlink:title=" ">
<path fill="none" stroke="#63b8ff" d="M610.32,-27.5C618.67,-27.5 627.29,-27.5 635.58,-27.5"/>
<polygon fill="#63b8ff" stroke="#63b8ff" points="635.85,-31 645.85,-27.5 635.85,-24 635.85,-31"/>
</a>
</g>
</g>
<!-- Node12 -->
<g id="Node000012" class="node">
<title>Node12</title>
<g id="a_Node000012"><a xlink:href="hrt_8c.html#a5b4ffc7ff86bd5b893c4a98834e80200" target="_top" xlink:title=" ">
<polygon fill="white" stroke="#666666" points="845,-56 762,-56 762,-37 845,-37 845,-56"/>
<text text-anchor="middle" x="803.5" y="-44" font-family="Helvetica,sans-Serif" font-size="10.00">hrt_micros64I</text>
</a>
</g>
</g>
<!-- Node11&#45;&gt;Node12 -->
<g id="edge11_Node000011_Node000012" class="edge">
<title>Node11&#45;&gt;Node12</title>
<g id="a_edge11_Node000011_Node000012"><a xlink:title=" ">
<path fill="none" stroke="#63b8ff" d="M726.1,-33.93C734.38,-35.29 743.23,-36.75 751.87,-38.17"/>
<polygon fill="#63b8ff" stroke="#63b8ff" points="751.42,-41.64 761.86,-39.81 752.56,-34.74 751.42,-41.64"/>
</a>
</g>
</g>
<!-- Node13 -->
<g id="Node000013" class="node">
<title>Node13</title>
<g id="a_Node000013"><a xlink:href="hrt_8c.html#a723fef85be7bacb834af35445a891c18" target="_top" xlink:title=" ">
<polygon fill="white" stroke="#666666" points="834.5,-19 772.5,-19 772.5,0 834.5,0 834.5,-19"/>
<text text-anchor="middle" x="803.5" y="-7" font-family="Helvetica,sans-Serif" font-size="10.00">is_locked</text>
</a>
</g>
</g>
<!-- Node11&#45;&gt;Node13 -->
<g id="edge12_Node000011_Node000013" class="edge">
<title>Node11&#45;&gt;Node13</title>
<g id="a_edge12_Node000011_Node000013"><a xlink:title=" ">
<path fill="none" stroke="#63b8ff" d="M726.1,-21.41C737.74,-19.59 750.52,-17.6 762.23,-15.78"/>
<polygon fill="#63b8ff" stroke="#63b8ff" points="762.86,-19.22 772.2,-14.22 761.78,-12.3 762.86,-19.22"/>
</a>
</g>
</g>
<!-- Node14&#45;&gt;Node8 -->
<g id="edge14_Node000014_Node000008" class="edge">
<title>Node14&#45;&gt;Node8</title>
<g id="a_edge14_Node000014_Node000008"><a xlink:title=" ">
<path fill="none" stroke="#63b8ff" d="M445.31,-145.23C461.5,-143.37 479.32,-141.33 495.85,-139.44"/>
<polygon fill="#63b8ff" stroke="#63b8ff" points="496.42,-142.9 505.95,-138.29 495.62,-135.95 496.42,-142.9"/>
</a>
</g>
</g>
<!-- Node15&#45;&gt;Node8 -->
<g id="edge18_Node000015_Node000008" class="edge">
<title>Node15&#45;&gt;Node8</title>
<g id="a_edge18_Node000015_Node000008"><a xlink:title=" ">
<path fill="none" stroke="#63b8ff" d="M442.71,-179.44C451.54,-176.64 460.58,-173.61 469,-170.5 488.61,-163.27 510.16,-153.93 526.96,-146.32"/>
<polygon fill="#63b8ff" stroke="#63b8ff" points="528.62,-149.41 536.26,-142.07 525.71,-143.05 528.62,-149.41"/>
</a>
</g>
</g>
<!-- Node16&#45;&gt;Node7 -->
<g id="edge20_Node000016_Node000007" class="edge">
<title>Node16&#45;&gt;Node7</title>
<g id="a_edge20_Node000016_Node000007"><a xlink:title=" ">
<path fill="none" stroke="#63b8ff" d="M263.43,-129.59C281.92,-127.36 303.27,-124.79 323.03,-122.4"/>
<polygon fill="#63b8ff" stroke="#63b8ff" points="323.69,-125.85 333.2,-121.17 322.85,-118.9 323.69,-125.85"/>
</a>
</g>
</g>
<!-- Node16&#45;&gt;Node14 -->
<g id="edge21_Node000016_Node000014" class="edge">
<title>Node16&#45;&gt;Node14</title>
<g id="a_edge21_Node000016_Node000014"><a xlink:title=" ">
<path fill="none" stroke="#63b8ff" d="M263.43,-140C282.18,-141.72 303.86,-143.72 323.85,-145.56"/>
<polygon fill="#63b8ff" stroke="#63b8ff" points="323.54,-149.04 333.82,-146.47 324.18,-142.07 323.54,-149.04"/>
</a>
</g>
</g>
</g>
</svg>

<g id="navigator" transform="translate(0 0)" fill="#404254">
  <rect fill="#f2f5e9" fill-opacity="0.5" stroke="#606060" stroke-width=".5" x="0" y="0" width="60" height="60"/>
  <use id="zoomplus" xlink:href="#zoomPlus" x="17" y="9" onmousedown="handleZoom(evt,'in')"/>
  <use id="zoomminus" xlink:href="#zoomMin" x="42" y="9" onmousedown="handleZoom(evt,'out')"/>
  <use id="reset" xlink:href="#resetDef" x="30" y="36" onmousedown="handleReset()"/>
   <use id="arrowup" xlink:href="#arrowUp" x="0" y="0" onmousedown="handlePan(0,-1)"/>
  <use id="arrowright" xlink:href="#arrowRight" x="0" y="0" onmousedown="handlePan(1,0)"/>
  <use id="arrowdown" xlink:href="#arrowDown" x="0" y="0" onmousedown="handlePan(0,1)"/>
  <use id="arrowleft" xlink:href="#arrowLeft" x="0" y="0" onmousedown="handlePan(-1,0)"/>
</g>
<svg viewBox="0 0 15 15" width="100%" height="30px" preserveAspectRatio="xMaxYMin meet">
 <g id="arrow_out" transform="scale(0.3 0.3)">
  <a xlink:href="classChibiOS_1_1UARTDriver_abadfd9176deb7ecd7d384bdcf4043da3_cgraph_org.svg" target="_base">
   <rect id="button" ry="5" rx="5" y="6" x="6" height="38" width="38"
        fill="#f2f5e9" fill-opacity="0.5" stroke="#606060" stroke-width="1.0"/>
   <path id="arrow"
     d="M 11.500037,31.436501 C 11.940474,20.09759 22.043105,11.32322 32.158766,21.979434 L 37.068811,17.246167 C 37.068811,17.246167 37.088388,32 37.088388,32 L 22.160133,31.978069 C 22.160133,31.978069 26.997745,27.140456 26.997745,27.140456 C 18.528582,18.264221 13.291696,25.230495 11.500037,31.436501 z"
     style="fill:#404040;"/>
  </a>
 </g>
</svg>

<style type='text/css'>
<![CDATA[
[data-mouse-over-selected='false'] { opacity: 0.7; }
[data-mouse-over-selected='true']  { opacity: 1.0; }
]]>
</style>
<script type="application/ecmascript"><![CDATA[
document.addEventListener('DOMContentLoaded', (event) => {
  highlightEdges();
  highlightAdjacentNodes();
});
]]></script>
</svg>
