<?xml version="1.0" encoding="UTF-8" standalone="no"?>
<!DOCTYPE svg PUBLIC "-//W3C//DTD SVG 1.1//EN"
 "http://www.w3.org/Graphics/SVG/1.1/DTD/svg11.dtd">
<!-- Generated by graphviz version 2.43.0 (0)
 -->
<!-- Title: AP_BoardConfig::allocation_error Pages: 1 -->
<!--zoomable 293 -->

<svg id="main" version="1.1" xmlns="http://www.w3.org/2000/svg" xmlns:xlink="http://www.w3.org/1999/xlink" xml:space="preserve" onload="init(evt)">
<style type="text/css"><![CDATA[
.node, .edge {opacity: 0.7;}
.node.selected, .edge.selected {opacity: 1;}
.edge:hover path { stroke: red; }
.edge:hover polygon { stroke: red; fill: red; }
]]></style>

<defs>
  <circle id="rim" cx="0" cy="0" r="7"/>
  <circle id="rim2" cx="0" cy="0" r="3.5"/>
  <g id="zoomPlus">
    <use xlink:href="#rim" fill="#404040"><set attributeName="fill" to="#808080" begin="zoomplus.mouseover" end="zoomplus.mouseout"/></use>
    <path d="M-4,0h8M0,-4v8" fill="none" stroke="white" stroke-width="1.5" pointer-events="none"/>
  </g>
  <g id="zoomMin">
    <use xlink:href="#rim" fill="#404040"><set attributeName="fill" to="#808080" begin="zoomminus.mouseover" end="zoomminus.mouseout"/></use>
    <path d="M-4,0h8" fill="none" stroke="white" stroke-width="1.5" pointer-events="none"/>
  </g>
  <g id="arrowUp" transform="translate(30 24)">
    <use xlink:href="#rim"/>
    <path pointer-events="none" fill="none" stroke="white" stroke-width="1.5" d="M0,-3.0v7 M-2.5,-0.5L0,-3.0L2.5,-0.5"/>
  </g>
  <g id="arrowRight" transform="rotate(90) translate(36 -43)">
    <use xlink:href="#rim"/>
    <path pointer-events="none" fill="none" stroke="white" stroke-width="1.5" d="M0,-3.0v7 M-2.5,-0.5L0,-3.0L2.5,-0.5"/>
  </g>
  <g id="arrowDown" transform="rotate(180) translate(-30 -48)">
    <use xlink:href="#rim"/>
    <path pointer-events="none" fill="none" stroke="white" stroke-width="1.5" d="M0,-3.0v7 M-2.5,-0.5L0,-3.0L2.5,-0.5"/>
  </g>
  <g id="arrowLeft" transform="rotate(270) translate(-36 17)">
    <use xlink:href="#rim"/>
    <path pointer-events="none" fill="none" stroke="white" stroke-width="1.5" d="M0,-3.0v7 M-2.5,-0.5L0,-3.0L2.5,-0.5"/>
  </g>
  <g id="resetDef">
    <use xlink:href="#rim2" fill="#404040"><set attributeName="fill" to="#808080" begin="reset.mouseover" end="reset.mouseout"/></use>
  </g>
</defs>
<script type="application/ecmascript">
var viewWidth = 734;
var viewHeight = 293;
var sectionId = 'dynsection-2';
</script>
<script type="application/ecmascript" xlink:href="svg.min.js"/>
<svg id="graph" class="graph">
<g id="viewport">
<title>AP_BoardConfig::allocation_error</title>
<!-- Node1 -->
<g id="Node000001" class="node">
<title>Node1</title>
<g id="a_Node000001"><a xlink:title=" ">
<polygon fill="#999999" stroke="#666666" points="726,-214.5 578,-214.5 578,-184.5 726,-184.5 726,-214.5"/>
<text text-anchor="start" x="586" y="-202.5" font-family="Helvetica,sans-Serif" font-size="10.00">AP_BoardConfig::allocation</text>
<text text-anchor="middle" x="652" y="-191.5" font-family="Helvetica,sans-Serif" font-size="10.00">_error</text>
</a>
</g>
</g>
<!-- Node2 -->
<g id="Node000002" class="node">
<title>Node2</title>
<g id="a_Node000002"><a xlink:href="classAP__DAL__RangeFinder.html#a389a45afc8f4689be4d0bf4336dae8d5" target="_top" xlink:title=" ">
<polygon fill="white" stroke="#666666" points="542,-284.5 416,-284.5 416,-254.5 542,-254.5 542,-284.5"/>
<text text-anchor="start" x="424" y="-272.5" font-family="Helvetica,sans-Serif" font-size="10.00">AP_DAL_RangeFinder</text>
<text text-anchor="middle" x="479" y="-261.5" font-family="Helvetica,sans-Serif" font-size="10.00">::AP_DAL_RangeFinder</text>
</a>
</g>
</g>
<!-- Node1&#45;&gt;Node2 -->
<g id="edge1_Node000001_Node000002" class="edge">
<title>Node1&#45;&gt;Node2</title>
<g id="a_edge1_Node000001_Node000002"><a xlink:title=" ">
<path fill="none" stroke="#63b8ff" d="M606.43,-218.67C586.74,-227.04 563.27,-236.9 542,-245.5 534.72,-248.44 526.94,-251.52 519.43,-254.44"/>
<polygon fill="#63b8ff" stroke="#63b8ff" points="607.94,-221.83 615.77,-214.69 605.2,-215.39 607.94,-221.83"/>
</a>
</g>
</g>
<!-- Node3 -->
<g id="Node000003" class="node">
<title>Node3</title>
<g id="a_Node000003"><a xlink:href="classAP__CustomRotations.html#a1bc66eb3d9b200243e2da9ec27868c2d" target="_top" xlink:title=" ">
<polygon fill="white" stroke="#666666" points="538.5,-236.5 419.5,-236.5 419.5,-206.5 538.5,-206.5 538.5,-236.5"/>
<text text-anchor="start" x="427.5" y="-224.5" font-family="Helvetica,sans-Serif" font-size="10.00">AP_CustomRotations</text>
<text text-anchor="middle" x="479" y="-213.5" font-family="Helvetica,sans-Serif" font-size="10.00">::init</text>
</a>
</g>
</g>
<!-- Node1&#45;&gt;Node3 -->
<g id="edge2_Node000001_Node000003" class="edge">
<title>Node1&#45;&gt;Node3</title>
<g id="a_edge2_Node000001_Node000003"><a xlink:title=" ">
<path fill="none" stroke="#63b8ff" d="M568.06,-210.17C558.09,-211.45 548.08,-212.74 538.57,-213.96"/>
<polygon fill="#63b8ff" stroke="#63b8ff" points="568.51,-213.64 577.98,-208.89 567.62,-206.7 568.51,-213.64"/>
</a>
</g>
</g>
<!-- Node5 -->
<g id="Node000005" class="node">
<title>Node5</title>
<g id="a_Node000005"><a xlink:href="classAP__Logger.html#a8646d7d928742565b7a9fd7366f485a1" target="_top" xlink:title=" ">
<polygon fill="white" stroke="#666666" points="523.5,-188 434.5,-188 434.5,-169 523.5,-169 523.5,-188"/>
<text text-anchor="middle" x="479" y="-176" font-family="Helvetica,sans-Serif" font-size="10.00">AP_Logger::init</text>
</a>
</g>
</g>
<!-- Node1&#45;&gt;Node5 -->
<g id="edge4_Node000001_Node000005" class="edge">
<title>Node1&#45;&gt;Node5</title>
<g id="a_edge4_Node000001_Node000005"><a xlink:title=" ">
<path fill="none" stroke="#63b8ff" d="M567.95,-189.3C552.61,-187.42 537.18,-185.52 523.61,-183.86"/>
<polygon fill="#63b8ff" stroke="#63b8ff" points="567.63,-192.79 577.98,-190.53 568.49,-185.84 567.63,-192.79"/>
</a>
</g>
</g>
<!-- Node10 -->
<g id="Node000010" class="node">
<title>Node10</title>
<g id="a_Node000010"><a xlink:href="classAP__DAL.html#aeb2aafb4af0f73fe8fec4a1e3fc4cda0" target="_top" xlink:title=" ">
<polygon fill="white" stroke="#666666" points="538.5,-127 419.5,-127 419.5,-108 538.5,-108 538.5,-127"/>
<text text-anchor="middle" x="479" y="-115" font-family="Helvetica,sans-Serif" font-size="10.00">AP_DAL::init_sensors</text>
</a>
</g>
</g>
<!-- Node1&#45;&gt;Node10 -->
<g id="edge10_Node000001_Node000010" class="edge">
<title>Node1&#45;&gt;Node10</title>
<g id="a_edge10_Node000001_Node000010"><a xlink:title=" ">
<path fill="none" stroke="#63b8ff" d="M610.21,-179.94C575.41,-163.25 526.85,-139.97 499.95,-127.06"/>
<polygon fill="#63b8ff" stroke="#63b8ff" points="609.11,-183.29 619.64,-184.46 612.13,-176.98 609.11,-183.29"/>
</a>
</g>
</g>
<!-- Node4 -->
<g id="Node000004" class="node">
<title>Node4</title>
<g id="a_Node000004"><a xlink:href="classAP__Vehicle.html#ac0f751deebdba5725b2b52862719a15d" target="_top" xlink:title=" ">
<polygon fill="white" stroke="#666666" points="365,-247 262,-247 262,-228 365,-228 365,-247"/>
<text text-anchor="middle" x="313.5" y="-235" font-family="Helvetica,sans-Serif" font-size="10.00">AP_Vehicle::setup</text>
</a>
</g>
</g>
<!-- Node3&#45;&gt;Node4 -->
<g id="edge3_Node000003_Node000004" class="edge">
<title>Node3&#45;&gt;Node4</title>
<g id="a_edge3_Node000003_Node000004"><a xlink:title=" ">
<path fill="none" stroke="#63b8ff" d="M409.29,-228.22C394.47,-229.67 379.06,-231.18 365.08,-232.55"/>
<polygon fill="#63b8ff" stroke="#63b8ff" points="409.82,-231.69 419.43,-227.23 409.14,-224.72 409.82,-231.69"/>
</a>
</g>
</g>
<!-- Node5&#45;&gt;Node4 -->
<g id="edge9_Node000005_Node000004" class="edge">
<title>Node5&#45;&gt;Node4</title>
<g id="a_edge9_Node000005_Node000004"><a xlink:title=" ">
<path fill="none" stroke="#63b8ff" d="M431.73,-191.27C426.35,-193.16 421,-195.25 416,-197.5 398.9,-205.2 397.21,-212.05 380,-219.5 372.42,-222.78 364.09,-225.61 355.99,-227.99"/>
<polygon fill="#63b8ff" stroke="#63b8ff" points="432.99,-194.53 441.37,-188.06 430.78,-187.89 432.99,-194.53"/>
</a>
</g>
</g>
<!-- Node6 -->
<g id="Node000006" class="node">
<title>Node6</title>
<g id="a_Node000006"><a xlink:href="ReplayGyroFFT_8cpp.html#a4fc01d736fe50cf5b977f755b675f11d" target="_top" xlink:title=" ">
<polygon fill="white" stroke="#666666" points="335.5,-210 291.5,-210 291.5,-191 335.5,-191 335.5,-210"/>
<text text-anchor="middle" x="313.5" y="-198" font-family="Helvetica,sans-Serif" font-size="10.00">setup</text>
</a>
</g>
</g>
<!-- Node5&#45;&gt;Node6 -->
<g id="edge5_Node000005_Node000006" class="edge">
<title>Node5&#45;&gt;Node6</title>
<g id="a_edge5_Node000005_Node000006"><a xlink:title=" ">
<path fill="none" stroke="#63b8ff" d="M424.22,-185.74C394.12,-189.79 358.27,-194.61 335.94,-197.62"/>
<polygon fill="#63b8ff" stroke="#63b8ff" points="424.74,-189.2 434.19,-184.4 423.81,-182.26 424.74,-189.2"/>
</a>
</g>
</g>
<!-- Node7 -->
<g id="Node000007" class="node">
<title>Node7</title>
<g id="a_Node000007"><a xlink:href="classAP__LoggerTest.html#aca46d87fae28f0ebe3257896fdbd5c40" target="_top" xlink:title=" ">
<polygon fill="white" stroke="#666666" points="373.5,-173 253.5,-173 253.5,-154 373.5,-154 373.5,-173"/>
<text text-anchor="middle" x="313.5" y="-161" font-family="Helvetica,sans-Serif" font-size="10.00">AP_LoggerTest::setup</text>
</a>
</g>
</g>
<!-- Node5&#45;&gt;Node7 -->
<g id="edge6_Node000005_Node000007" class="edge">
<title>Node5&#45;&gt;Node7</title>
<g id="a_edge6_Node000005_Node000007"><a xlink:title=" ">
<path fill="none" stroke="#63b8ff" d="M423.84,-173.53C407.7,-172.05 389.94,-170.42 373.5,-168.91"/>
<polygon fill="#63b8ff" stroke="#63b8ff" points="423.91,-177.05 434.19,-174.48 424.55,-170.08 423.91,-177.05"/>
</a>
</g>
</g>
<!-- Node9 -->
<g id="Node000009" class="node">
<title>Node9</title>
<g id="a_Node000009"><a xlink:href="classAP__LoggerTest__AllTypes.html#a70997aff93739d2abb17fd23adab3932" target="_top" xlink:title=" ">
<polygon fill="white" stroke="#666666" points="380,-135.5 247,-135.5 247,-105.5 380,-105.5 380,-135.5"/>
<text text-anchor="start" x="255" y="-123.5" font-family="Helvetica,sans-Serif" font-size="10.00">AP_LoggerTest_AllTypes</text>
<text text-anchor="middle" x="313.5" y="-112.5" font-family="Helvetica,sans-Serif" font-size="10.00">::setup</text>
</a>
</g>
</g>
<!-- Node5&#45;&gt;Node9 -->
<g id="edge8_Node000005_Node000009" class="edge">
<title>Node5&#45;&gt;Node9</title>
<g id="a_edge8_Node000005_Node000009"><a xlink:title=" ">
<path fill="none" stroke="#63b8ff" d="M441.5,-165.55C416.45,-156.67 383.13,-144.85 356.9,-135.54"/>
<polygon fill="#63b8ff" stroke="#63b8ff" points="440.41,-168.88 451,-168.92 442.75,-162.28 440.41,-168.88"/>
</a>
</g>
</g>
<!-- Node8 -->
<g id="Node000008" class="node">
<title>Node8</title>
<g id="a_Node000008"><a xlink:href="AP__Logger__test_8cpp.html#a7dfd9b79bc5a37d7df40207afbc5431f" target="_top" xlink:title=" ">
<polygon fill="white" stroke="#666666" points="166,-173 122,-173 122,-154 166,-154 166,-173"/>
<text text-anchor="middle" x="144" y="-161" font-family="Helvetica,sans-Serif" font-size="10.00">setup</text>
</a>
</g>
</g>
<!-- Node7&#45;&gt;Node8 -->
<g id="edge7_Node000007_Node000008" class="edge">
<title>Node7&#45;&gt;Node8</title>
<g id="a_edge7_Node000007_Node000008"><a xlink:title=" ">
<path fill="none" stroke="#63b8ff" d="M243.35,-163.5C215.6,-163.5 185.65,-163.5 166.19,-163.5"/>
<polygon fill="#63b8ff" stroke="#63b8ff" points="243.45,-167 253.45,-163.5 243.45,-160 243.45,-167"/>
</a>
</g>
</g>
<!-- Node11 -->
<g id="Node000011" class="node">
<title>Node11</title>
<g id="a_Node000011"><a xlink:href="classAP__DAL.html#aacd3492110784dce84ac67e3442cfee6" target="_top" xlink:title=" ">
<polygon fill="white" stroke="#666666" points="372,-87 255,-87 255,-68 372,-68 372,-87"/>
<text text-anchor="middle" x="313.5" y="-75" font-family="Helvetica,sans-Serif" font-size="10.00">AP_DAL::start_frame</text>
</a>
</g>
</g>
<!-- Node10&#45;&gt;Node11 -->
<g id="edge11_Node000010_Node000011" class="edge">
<title>Node10&#45;&gt;Node11</title>
<g id="a_edge11_Node000010_Node000011"><a xlink:title=" ">
<path fill="none" stroke="#63b8ff" d="M429.11,-105.54C404.89,-99.61 376.04,-92.55 353.34,-87"/>
<polygon fill="#63b8ff" stroke="#63b8ff" points="428.29,-108.94 438.84,-107.92 429.96,-102.14 428.29,-108.94"/>
</a>
</g>
</g>
<!-- Node12 -->
<g id="Node000012" class="node">
<title>Node12</title>
<g id="a_Node000012"><a xlink:href="classNavEKF2.html#a9c447b8d84abf2dfc845ddbbbad46a2b" target="_top" xlink:title=" ">
<polygon fill="white" stroke="#666666" points="211,-130 77,-130 77,-111 211,-111 211,-130"/>
<text text-anchor="middle" x="144" y="-118" font-family="Helvetica,sans-Serif" font-size="10.00">NavEKF2::InitialiseFilter</text>
</a>
</g>
</g>
<!-- Node11&#45;&gt;Node12 -->
<g id="edge12_Node000011_Node000012" class="edge">
<title>Node11&#45;&gt;Node12</title>
<g id="a_edge12_Node000011_Node000012"><a xlink:title=" ">
<path fill="none" stroke="#63b8ff" d="M265.54,-89.56C239.14,-96.33 206.66,-104.67 182.07,-110.98"/>
<polygon fill="#63b8ff" stroke="#63b8ff" points="266.51,-92.92 275.33,-87.04 264.77,-86.14 266.51,-92.92"/>
</a>
</g>
</g>
<!-- Node14 -->
<g id="Node000014" class="node">
<title>Node14</title>
<g id="a_Node000014"><a xlink:href="classNavEKF3.html#a07f064fa513fbb6e7188141904f3b5b5" target="_top" xlink:title=" ">
<polygon fill="white" stroke="#666666" points="211,-93 77,-93 77,-74 211,-74 211,-93"/>
<text text-anchor="middle" x="144" y="-81" font-family="Helvetica,sans-Serif" font-size="10.00">NavEKF3::InitialiseFilter</text>
</a>
</g>
</g>
<!-- Node11&#45;&gt;Node14 -->
<g id="edge14_Node000011_Node000014" class="edge">
<title>Node11&#45;&gt;Node14</title>
<g id="a_edge14_Node000011_Node000014"><a xlink:title=" ">
<path fill="none" stroke="#63b8ff" d="M244.78,-79.93C233.67,-80.32 222.17,-80.74 211.1,-81.13"/>
<polygon fill="#63b8ff" stroke="#63b8ff" points="244.99,-83.42 254.86,-79.56 244.74,-76.43 244.99,-83.42"/>
</a>
</g>
</g>
<!-- Node15 -->
<g id="Node000015" class="node">
<title>Node15</title>
<g id="a_Node000015"><a xlink:href="classNavEKF2.html#a72815b1bbd9d7ceb0ff7ae52d14516df" target="_top" xlink:title=" ">
<polygon fill="white" stroke="#666666" points="207.5,-56 80.5,-56 80.5,-37 207.5,-37 207.5,-56"/>
<text text-anchor="middle" x="144" y="-44" font-family="Helvetica,sans-Serif" font-size="10.00">NavEKF2::UpdateFilter</text>
</a>
</g>
</g>
<!-- Node11&#45;&gt;Node15 -->
<g id="edge16_Node000011_Node000015" class="edge">
<title>Node11&#45;&gt;Node15</title>
<g id="a_edge16_Node000011_Node000015"><a xlink:title=" ">
<path fill="none" stroke="#63b8ff" d="M250.58,-66.04C232.78,-62.75 213.55,-59.19 196.45,-56.02"/>
<polygon fill="#63b8ff" stroke="#63b8ff" points="250.41,-69.57 260.88,-67.95 251.68,-62.68 250.41,-69.57"/>
</a>
</g>
</g>
<!-- Node16 -->
<g id="Node000016" class="node">
<title>Node16</title>
<g id="a_Node000016"><a xlink:href="classNavEKF3.html#a477020fcf29376e0c2205dbf79728104" target="_top" xlink:title=" ">
<polygon fill="white" stroke="#666666" points="207.5,-19 80.5,-19 80.5,0 207.5,0 207.5,-19"/>
<text text-anchor="middle" x="144" y="-7" font-family="Helvetica,sans-Serif" font-size="10.00">NavEKF3::UpdateFilter</text>
</a>
</g>
</g>
<!-- Node11&#45;&gt;Node16 -->
<g id="edge18_Node000011_Node000016" class="edge">
<title>Node11&#45;&gt;Node16</title>
<g id="a_edge18_Node000011_Node000016"><a xlink:title=" ">
<path fill="none" stroke="#63b8ff" d="M286.84,-63.15C266.67,-52.29 237.64,-37.59 211,-27.5 202.67,-24.35 193.56,-21.49 184.83,-19.04"/>
<polygon fill="#63b8ff" stroke="#63b8ff" points="285.25,-66.27 295.71,-67.98 288.6,-60.12 285.25,-66.27"/>
</a>
</g>
</g>
<!-- Node13 -->
<g id="Node000013" class="node">
<title>Node13</title>
<g id="a_Node000013"><a xlink:href="main_8cpp.html#ac0f2228420376f4db7e1274f2b41667c" target="_top" xlink:title=" ">
<polygon fill="white" stroke="#666666" points="41,-74 0,-74 0,-55 41,-55 41,-74"/>
<text text-anchor="middle" x="20.5" y="-62" font-family="Helvetica,sans-Serif" font-size="10.00">main</text>
</a>
</g>
</g>
<!-- Node12&#45;&gt;Node13 -->
<g id="edge13_Node000012_Node000013" class="edge">
<title>Node12&#45;&gt;Node13</title>
<g id="a_edge13_Node000012_Node000013"><a xlink:title=" ">
<path fill="none" stroke="#63b8ff" d="M89.9,-107.71C85.47,-106.14 81.11,-104.4 77,-102.5 60.68,-94.95 43.91,-82.73 33.14,-74.19"/>
<polygon fill="#63b8ff" stroke="#63b8ff" points="89.06,-111.12 99.66,-110.91 91.24,-104.47 89.06,-111.12"/>
</a>
</g>
</g>
<!-- Node14&#45;&gt;Node13 -->
<g id="edge15_Node000014_Node000013" class="edge">
<title>Node14&#45;&gt;Node13</title>
<g id="a_edge15_Node000014_Node000013"><a xlink:title=" ">
<path fill="none" stroke="#63b8ff" d="M71.9,-72.38C60.62,-70.62 49.83,-68.93 41.15,-67.57"/>
<polygon fill="#63b8ff" stroke="#63b8ff" points="71.47,-75.86 81.89,-73.94 72.55,-68.94 71.47,-75.86"/>
</a>
</g>
</g>
<!-- Node15&#45;&gt;Node13 -->
<g id="edge17_Node000015_Node000013" class="edge">
<title>Node15&#45;&gt;Node13</title>
<g id="a_edge17_Node000015_Node000013"><a xlink:title=" ">
<path fill="none" stroke="#63b8ff" d="M70.48,-57.24C59.71,-58.84 49.45,-60.36 41.13,-61.59"/>
<polygon fill="#63b8ff" stroke="#63b8ff" points="71.09,-60.69 80.47,-55.76 70.07,-53.77 71.09,-60.69"/>
</a>
</g>
</g>
<!-- Node16&#45;&gt;Node13 -->
<g id="edge19_Node000016_Node000013" class="edge">
<title>Node16&#45;&gt;Node13</title>
<g id="a_edge19_Node000016_Node000013"><a xlink:title=" ">
<path fill="none" stroke="#63b8ff" d="M90.49,-22.14C85.86,-23.76 81.3,-25.54 77,-27.5 60.98,-34.79 44.42,-46.47 33.6,-54.75"/>
<polygon fill="#63b8ff" stroke="#63b8ff" points="91.6,-25.46 100.04,-19.06 89.45,-18.8 91.6,-25.46"/>
</a>
</g>
</g>
</g>
</svg>

<g id="navigator" transform="translate(0 0)" fill="#404254">
  <rect fill="#f2f5e9" fill-opacity="0.5" stroke="#606060" stroke-width=".5" x="0" y="0" width="60" height="60"/>
  <use id="zoomplus" xlink:href="#zoomPlus" x="17" y="9" onmousedown="handleZoom(evt,'in')"/>
  <use id="zoomminus" xlink:href="#zoomMin" x="42" y="9" onmousedown="handleZoom(evt,'out')"/>
  <use id="reset" xlink:href="#resetDef" x="30" y="36" onmousedown="handleReset()"/>
   <use id="arrowup" xlink:href="#arrowUp" x="0" y="0" onmousedown="handlePan(0,-1)"/>
  <use id="arrowright" xlink:href="#arrowRight" x="0" y="0" onmousedown="handlePan(1,0)"/>
  <use id="arrowdown" xlink:href="#arrowDown" x="0" y="0" onmousedown="handlePan(0,1)"/>
  <use id="arrowleft" xlink:href="#arrowLeft" x="0" y="0" onmousedown="handlePan(-1,0)"/>
</g>
<svg viewBox="0 0 15 15" width="100%" height="30px" preserveAspectRatio="xMaxYMin meet">
 <g id="arrow_out" transform="scale(0.3 0.3)">
  <a xlink:href="classAP__BoardConfig_a00a26cb4b47d5677d5da58385ed2112f_icgraph_org.svg" target="_base">
   <rect id="button" ry="5" rx="5" y="6" x="6" height="38" width="38"
        fill="#f2f5e9" fill-opacity="0.5" stroke="#606060" stroke-width="1.0"/>
   <path id="arrow"
     d="M 11.500037,31.436501 C 11.940474,20.09759 22.043105,11.32322 32.158766,21.979434 L 37.068811,17.246167 C 37.068811,17.246167 37.088388,32 37.088388,32 L 22.160133,31.978069 C 22.160133,31.978069 26.997745,27.140456 26.997745,27.140456 C 18.528582,18.264221 13.291696,25.230495 11.500037,31.436501 z"
     style="fill:#404040;"/>
  </a>
 </g>
</svg>

<style type='text/css'>
<![CDATA[
[data-mouse-over-selected='false'] { opacity: 0.7; }
[data-mouse-over-selected='true']  { opacity: 1.0; }
]]>
</style>
<script type="application/ecmascript"><![CDATA[
document.addEventListener('DOMContentLoaded', (event) => {
  highlightEdges();
  highlightAdjacentNodes();
});
]]></script>
</svg>
