<?xml version="1.0" encoding="UTF-8" standalone="no"?>
<!DOCTYPE svg PUBLIC "-//W3C//DTD SVG 1.1//EN"
 "http://www.w3.org/Graphics/SVG/1.1/DTD/svg11.dtd">
<!-- Generated by graphviz version 2.43.0 (0)
 -->
<!-- Title: tt__CapabilitiesExtension Pages: 1 -->
<!--zoomable 286 -->

<svg id="main" version="1.1" xmlns="http://www.w3.org/2000/svg" xmlns:xlink="http://www.w3.org/1999/xlink" xml:space="preserve" onload="init(evt)">
<style type="text/css"><![CDATA[
.node, .edge {opacity: 0.7;}
.node.selected, .edge.selected {opacity: 1;}
.edge:hover path { stroke: red; }
.edge:hover polygon { stroke: red; fill: red; }
]]></style>

<defs>
  <circle id="rim" cx="0" cy="0" r="7"/>
  <circle id="rim2" cx="0" cy="0" r="3.5"/>
  <g id="zoomPlus">
    <use xlink:href="#rim" fill="#404040"><set attributeName="fill" to="#808080" begin="zoomplus.mouseover" end="zoomplus.mouseout"/></use>
    <path d="M-4,0h8M0,-4v8" fill="none" stroke="white" stroke-width="1.5" pointer-events="none"/>
  </g>
  <g id="zoomMin">
    <use xlink:href="#rim" fill="#404040"><set attributeName="fill" to="#808080" begin="zoomminus.mouseover" end="zoomminus.mouseout"/></use>
    <path d="M-4,0h8" fill="none" stroke="white" stroke-width="1.5" pointer-events="none"/>
  </g>
  <g id="arrowUp" transform="translate(30 24)">
    <use xlink:href="#rim"/>
    <path pointer-events="none" fill="none" stroke="white" stroke-width="1.5" d="M0,-3.0v7 M-2.5,-0.5L0,-3.0L2.5,-0.5"/>
  </g>
  <g id="arrowRight" transform="rotate(90) translate(36 -43)">
    <use xlink:href="#rim"/>
    <path pointer-events="none" fill="none" stroke="white" stroke-width="1.5" d="M0,-3.0v7 M-2.5,-0.5L0,-3.0L2.5,-0.5"/>
  </g>
  <g id="arrowDown" transform="rotate(180) translate(-30 -48)">
    <use xlink:href="#rim"/>
    <path pointer-events="none" fill="none" stroke="white" stroke-width="1.5" d="M0,-3.0v7 M-2.5,-0.5L0,-3.0L2.5,-0.5"/>
  </g>
  <g id="arrowLeft" transform="rotate(270) translate(-36 17)">
    <use xlink:href="#rim"/>
    <path pointer-events="none" fill="none" stroke="white" stroke-width="1.5" d="M0,-3.0v7 M-2.5,-0.5L0,-3.0L2.5,-0.5"/>
  </g>
  <g id="resetDef">
    <use xlink:href="#rim2" fill="#404040"><set attributeName="fill" to="#808080" begin="reset.mouseover" end="reset.mouseout"/></use>
  </g>
</defs>
<script type="application/ecmascript">
var viewWidth = 686;
var viewHeight = 286;
var sectionId = 'dynsection-0';
</script>
<script type="application/ecmascript" xlink:href="svg.min.js"/>
<svg id="graph" class="graph">
<g id="viewport">
<title>tt__CapabilitiesExtension</title>
<!-- Node1 -->
<g id="Node000001" class="node">
<title>Node1</title>
<g id="a_Node000001"><a xlink:title="&quot;http://www.onvif.org/ver10/schema&quot;:CapabilitiesExtension is a complexType.">
<polygon fill="#999999" stroke="#666666" points="678,-148 538,-148 538,-129 678,-129 678,-148"/>
<text text-anchor="middle" x="608" y="-136" font-family="Helvetica,sans-Serif" font-size="10.00">tt__CapabilitiesExtension</text>
</a>
</g>
</g>
<!-- Node2 -->
<g id="Node000002" class="node">
<title>Node2</title>
<g id="a_Node000002"><a xlink:href="classtt____DeviceIOCapabilities.html" target="_top" xlink:title="&quot;http://www.onvif.org/ver10/schema&quot;:DeviceIOCapabilities is a complexType.">
<polygon fill="white" stroke="#666666" points="403,-278 266,-278 266,-259 403,-259 403,-278"/>
<text text-anchor="middle" x="334.5" y="-266" font-family="Helvetica,sans-Serif" font-size="10.00">tt__DeviceIOCapabilities</text>
</a>
</g>
</g>
<!-- Node2&#45;&gt;Node1 -->
<g id="edge1_Node000001_Node000002" class="edge">
<title>Node2&#45;&gt;Node1</title>
<g id="a_edge1_Node000001_Node000002"><a xlink:title=" ">
<path fill="none" stroke="#9a32cd" stroke-dasharray="5,2" d="M413.42,-263.62C447.8,-258.83 487.66,-249.52 520,-231.5 557.66,-210.52 588.43,-167.54 600.95,-148.25"/>
<polygon fill="#9a32cd" stroke="#9a32cd" points="412.88,-260.16 403.41,-264.91 413.77,-267.1 412.88,-260.16"/>
</a>
</g>
<text text-anchor="middle" x="479" y="-262.5" font-family="Helvetica,sans-Serif" font-size="10.00" fill="grey"> DeviceIO</text>
</g>
<!-- Node3 -->
<g id="Node000003" class="node">
<title>Node3</title>
<g id="a_Node000003"><a xlink:href="classtt____DisplayCapabilities.html" target="_top" xlink:title="&quot;http://www.onvif.org/ver10/schema&quot;:DisplayCapabilities is a complexType.">
<polygon fill="white" stroke="#666666" points="399,-241 270,-241 270,-222 399,-222 399,-241"/>
<text text-anchor="middle" x="334.5" y="-229" font-family="Helvetica,sans-Serif" font-size="10.00">tt__DisplayCapabilities</text>
</a>
</g>
</g>
<!-- Node3&#45;&gt;Node1 -->
<g id="edge2_Node000001_Node000003" class="edge">
<title>Node3&#45;&gt;Node1</title>
<g id="a_edge2_Node000001_Node000003"><a xlink:title=" ">
<path fill="none" stroke="#9a32cd" stroke-dasharray="5,2" d="M409.13,-223.18C443.67,-217.67 484.86,-208.73 520,-194.5 549.3,-182.63 579.43,-160.61 595.41,-148.01"/>
<polygon fill="#9a32cd" stroke="#9a32cd" points="408.47,-219.74 399.11,-224.71 409.52,-226.66 408.47,-219.74"/>
</a>
</g>
<text text-anchor="middle" x="479" y="-219.5" font-family="Helvetica,sans-Serif" font-size="10.00" fill="grey"> Display</text>
</g>
<!-- Node4 -->
<g id="Node000004" class="node">
<title>Node4</title>
<g id="a_Node000004"><a xlink:href="classtt____RecordingCapabilities.html" target="_top" xlink:title="&quot;http://www.onvif.org/ver10/schema&quot;:RecordingCapabilities is a complexType.">
<polygon fill="white" stroke="#666666" points="405,-204 264,-204 264,-185 405,-185 405,-204"/>
<text text-anchor="middle" x="334.5" y="-192" font-family="Helvetica,sans-Serif" font-size="10.00">tt__RecordingCapabilities</text>
</a>
</g>
</g>
<!-- Node4&#45;&gt;Node1 -->
<g id="edge3_Node000001_Node000004" class="edge">
<title>Node4&#45;&gt;Node1</title>
<g id="a_edge3_Node000001_Node000004"><a xlink:title=" ">
<path fill="none" stroke="#9a32cd" stroke-dasharray="5,2" d="M415.09,-183.86C447.78,-178.89 485.89,-172.34 520,-164.5 539.67,-159.98 561.42,-153.48 578.25,-148.11"/>
<polygon fill="#9a32cd" stroke="#9a32cd" points="414.5,-180.41 405.13,-185.35 415.53,-187.33 414.5,-180.41"/>
</a>
</g>
<text text-anchor="middle" x="479" y="-182.5" font-family="Helvetica,sans-Serif" font-size="10.00" fill="grey"> Recording</text>
</g>
<!-- Node5 -->
<g id="Node000005" class="node">
<title>Node5</title>
<g id="a_Node000005"><a xlink:href="classtt____SearchCapabilities.html" target="_top" xlink:title="&quot;http://www.onvif.org/ver10/schema&quot;:SearchCapabilities is a complexType.">
<polygon fill="white" stroke="#666666" points="397,-167 272,-167 272,-148 397,-148 397,-167"/>
<text text-anchor="middle" x="334.5" y="-155" font-family="Helvetica,sans-Serif" font-size="10.00">tt__SearchCapabilities</text>
</a>
</g>
</g>
<!-- Node5&#45;&gt;Node1 -->
<g id="edge4_Node000001_Node000005" class="edge">
<title>Node5&#45;&gt;Node1</title>
<g id="a_edge4_Node000001_Node000005"><a xlink:title=" ">
<path fill="none" stroke="#9a32cd" stroke-dasharray="5,2" d="M407.17,-152.48C447.64,-149.65 497.97,-146.13 538,-143.33"/>
<polygon fill="#9a32cd" stroke="#9a32cd" points="406.84,-149 397.11,-153.19 407.33,-155.98 406.84,-149"/>
</a>
</g>
<text text-anchor="middle" x="479" y="-152.5" font-family="Helvetica,sans-Serif" font-size="10.00" fill="grey"> Search</text>
</g>
<!-- Node6 -->
<g id="Node000006" class="node">
<title>Node6</title>
<g id="a_Node000006"><a xlink:href="classtt____ReplayCapabilities.html" target="_top" xlink:title="&quot;http://www.onvif.org/ver10/schema&quot;:ReplayCapabilities is a complexType.">
<polygon fill="white" stroke="#666666" points="397.5,-130 271.5,-130 271.5,-111 397.5,-111 397.5,-130"/>
<text text-anchor="middle" x="334.5" y="-118" font-family="Helvetica,sans-Serif" font-size="10.00">tt__ReplayCapabilities</text>
</a>
</g>
</g>
<!-- Node6&#45;&gt;Node1 -->
<g id="edge5_Node000001_Node000006" class="edge">
<title>Node6&#45;&gt;Node1</title>
<g id="a_edge5_Node000001_Node000006"><a xlink:title=" ">
<path fill="none" stroke="#9a32cd" stroke-dasharray="5,2" d="M407.88,-119.77C441.96,-120.01 483.13,-121.15 520,-124.5 531.43,-125.54 543.63,-127.17 555.16,-128.96"/>
<polygon fill="#9a32cd" stroke="#9a32cd" points="407.56,-116.26 397.54,-119.72 407.52,-123.26 407.56,-116.26"/>
</a>
</g>
<text text-anchor="middle" x="479" y="-127.5" font-family="Helvetica,sans-Serif" font-size="10.00" fill="grey"> Replay</text>
</g>
<!-- Node7 -->
<g id="Node000007" class="node">
<title>Node7</title>
<g id="a_Node000007"><a xlink:href="classtt____ReceiverCapabilities.html" target="_top" xlink:title="&quot;http://www.onvif.org/ver10/schema&quot;:ReceiverCapabilities is a complexType.">
<polygon fill="white" stroke="#666666" points="402,-93 267,-93 267,-74 402,-74 402,-93"/>
<text text-anchor="middle" x="334.5" y="-81" font-family="Helvetica,sans-Serif" font-size="10.00">tt__ReceiverCapabilities</text>
</a>
</g>
</g>
<!-- Node7&#45;&gt;Node1 -->
<g id="edge6_Node000001_Node000007" class="edge">
<title>Node7&#45;&gt;Node1</title>
<g id="a_edge6_Node000001_Node000007"><a xlink:title=" ">
<path fill="none" stroke="#9a32cd" stroke-dasharray="5,2" d="M412.58,-87.79C445.96,-90.8 485.26,-95.89 520,-104.5 543.61,-110.35 569.42,-121.02 586.75,-128.85"/>
<polygon fill="#9a32cd" stroke="#9a32cd" points="412.68,-84.29 402.42,-86.93 412.09,-91.26 412.68,-84.29"/>
</a>
</g>
<text text-anchor="middle" x="479" y="-107.5" font-family="Helvetica,sans-Serif" font-size="10.00" fill="grey"> Receiver</text>
</g>
<!-- Node8 -->
<g id="Node000008" class="node">
<title>Node8</title>
<g id="a_Node000008"><a xlink:href="classtt____AnalyticsDeviceCapabilities.html" target="_top" xlink:title="&quot;http://www.onvif.org/ver10/schema&quot;:AnalyticsDeviceCapabilities is a complexType.">
<polygon fill="white" stroke="#666666" points="420,-56 249,-56 249,-37 420,-37 420,-56"/>
<text text-anchor="middle" x="334.5" y="-44" font-family="Helvetica,sans-Serif" font-size="10.00">tt__AnalyticsDeviceCapabilities</text>
</a>
</g>
</g>
<!-- Node8&#45;&gt;Node1 -->
<g id="edge7_Node000001_Node000008" class="edge">
<title>Node8&#45;&gt;Node1</title>
<g id="a_edge7_Node000001_Node000008"><a xlink:title=" ">
<path fill="none" stroke="#9a32cd" stroke-dasharray="5,2" d="M430.71,-52.81C460.13,-57.02 492.12,-63.99 520,-75.5 551.37,-88.45 582.11,-114.83 597.26,-129"/>
<polygon fill="#9a32cd" stroke="#9a32cd" points="430.8,-49.29 420.42,-51.43 429.87,-56.22 430.8,-49.29"/>
</a>
</g>
<text text-anchor="middle" x="479" y="-78.5" font-family="Helvetica,sans-Serif" font-size="10.00" fill="grey"> AnalyticsDevice</text>
</g>
<!-- Node9 -->
<g id="Node000009" class="node">
<title>Node9</title>
<g id="a_Node000009"><a xlink:href="classtt____AnalyticsDeviceExtension.html" target="_top" xlink:title="&quot;http://www.onvif.org/ver10/schema&quot;:AnalyticsDeviceExtension is a complexType.">
<polygon fill="white" stroke="#666666" points="161,-56 0,-56 0,-37 161,-37 161,-56"/>
<text text-anchor="middle" x="80.5" y="-44" font-family="Helvetica,sans-Serif" font-size="10.00">tt__AnalyticsDeviceExtension</text>
</a>
</g>
</g>
<!-- Node9&#45;&gt;Node8 -->
<g id="edge8_Node000008_Node000009" class="edge">
<title>Node9&#45;&gt;Node8</title>
<g id="a_edge8_Node000008_Node000009"><a xlink:title=" ">
<path fill="none" stroke="#9a32cd" stroke-dasharray="5,2" d="M171.49,-46.5C196.61,-46.5 223.81,-46.5 248.62,-46.5"/>
<polygon fill="#9a32cd" stroke="#9a32cd" points="171.23,-43 161.23,-46.5 171.23,-50 171.23,-43"/>
</a>
</g>
<text text-anchor="middle" x="205" y="-49.5" font-family="Helvetica,sans-Serif" font-size="10.00" fill="grey"> Extension</text>
</g>
<!-- Node10 -->
<g id="Node000010" class="node">
<title>Node10</title>
<g id="a_Node000010"><a xlink:href="classtt____CapabilitiesExtension2.html" target="_top" xlink:title="&quot;http://www.onvif.org/ver10/schema&quot;:CapabilitiesExtension2 is a complexType.">
<polygon fill="white" stroke="#666666" points="407.5,-19 261.5,-19 261.5,0 407.5,0 407.5,-19"/>
<text text-anchor="middle" x="334.5" y="-7" font-family="Helvetica,sans-Serif" font-size="10.00">tt__CapabilitiesExtension2</text>
</a>
</g>
</g>
<!-- Node10&#45;&gt;Node1 -->
<g id="edge9_Node000001_Node000010" class="edge">
<title>Node10&#45;&gt;Node1</title>
<g id="a_edge9_Node000001_Node000010"><a xlink:title=" ">
<path fill="none" stroke="#9a32cd" stroke-dasharray="5,2" d="M417.78,-10.3C451.21,-13.63 489.15,-21.43 520,-38.5 559.87,-60.56 590.11,-108.32 601.77,-128.82"/>
<polygon fill="#9a32cd" stroke="#9a32cd" points="417.83,-6.79 407.56,-9.41 417.22,-13.77 417.83,-6.79"/>
</a>
</g>
<text text-anchor="middle" x="479" y="-41.5" font-family="Helvetica,sans-Serif" font-size="10.00" fill="grey"> Extensions</text>
</g>
</g>
</svg>

<g id="navigator" transform="translate(0 0)" fill="#404254">
  <rect fill="#f2f5e9" fill-opacity="0.5" stroke="#606060" stroke-width=".5" x="0" y="0" width="60" height="60"/>
  <use id="zoomplus" xlink:href="#zoomPlus" x="17" y="9" onmousedown="handleZoom(evt,'in')"/>
  <use id="zoomminus" xlink:href="#zoomMin" x="42" y="9" onmousedown="handleZoom(evt,'out')"/>
  <use id="reset" xlink:href="#resetDef" x="30" y="36" onmousedown="handleReset()"/>
   <use id="arrowup" xlink:href="#arrowUp" x="0" y="0" onmousedown="handlePan(0,-1)"/>
  <use id="arrowright" xlink:href="#arrowRight" x="0" y="0" onmousedown="handlePan(1,0)"/>
  <use id="arrowdown" xlink:href="#arrowDown" x="0" y="0" onmousedown="handlePan(0,1)"/>
  <use id="arrowleft" xlink:href="#arrowLeft" x="0" y="0" onmousedown="handlePan(-1,0)"/>
</g>
<svg viewBox="0 0 15 15" width="100%" height="30px" preserveAspectRatio="xMaxYMin meet">
 <g id="arrow_out" transform="scale(0.3 0.3)">
  <a xlink:href="classtt____CapabilitiesExtension__coll__graph_org.svg" target="_base">
   <rect id="button" ry="5" rx="5" y="6" x="6" height="38" width="38"
        fill="#f2f5e9" fill-opacity="0.5" stroke="#606060" stroke-width="1.0"/>
   <path id="arrow"
     d="M 11.500037,31.436501 C 11.940474,20.09759 22.043105,11.32322 32.158766,21.979434 L 37.068811,17.246167 C 37.068811,17.246167 37.088388,32 37.088388,32 L 22.160133,31.978069 C 22.160133,31.978069 26.997745,27.140456 26.997745,27.140456 C 18.528582,18.264221 13.291696,25.230495 11.500037,31.436501 z"
     style="fill:#404040;"/>
  </a>
 </g>
</svg>

<style type='text/css'>
<![CDATA[
[data-mouse-over-selected='false'] { opacity: 0.7; }
[data-mouse-over-selected='true']  { opacity: 1.0; }
]]>
</style>
<script type="application/ecmascript"><![CDATA[
document.addEventListener('DOMContentLoaded', (event) => {
  highlightEdges();
  highlightAdjacentNodes();
});
]]></script>
</svg>
