<?xml version="1.0" encoding="UTF-8" standalone="no"?>
<!DOCTYPE svg PUBLIC "-//W3C//DTD SVG 1.1//EN"
 "http://www.w3.org/Graphics/SVG/1.1/DTD/svg11.dtd">
<!-- Generated by graphviz version 2.43.0 (0)
 -->
<!-- Title: AP_OpticalFlow_CXOF::detect Pages: 1 -->
<svg width="650pt" height="172pt"
 viewBox="0.00 0.00 650.00 172.00" xmlns="http://www.w3.org/2000/svg" xmlns:xlink="http://www.w3.org/1999/xlink">
<g id="graph0" class="graph" transform="scale(1 1) rotate(0) translate(4 168)">
<title>AP_OpticalFlow_CXOF::detect</title>
<!-- Node1 -->
<g id="Node000001" class="node">
<title>Node1</title>
<g id="a_Node000001"><a xlink:title=" ">
<polygon fill="#999999" stroke="#666666" points="124,-89 0,-89 0,-59 124,-59 124,-89"/>
<text text-anchor="start" x="8" y="-77" font-family="Helvetica,sans-Serif" font-size="10.00">AP_OpticalFlow_CXOF</text>
<text text-anchor="middle" x="62" y="-66" font-family="Helvetica,sans-Serif" font-size="10.00">::detect</text>
</a>
</g>
</g>
<!-- Node2 -->
<g id="Node000002" class="node">
<title>Node2</title>
<g id="a_Node000002"><a xlink:href="classAP__OpticalFlow__CXOF.html#a80be9f01f7d585c08e425d903430a4a0" target="_top" xlink:title="constructor">
<polygon fill="white" stroke="#666666" points="290,-159 160,-159 160,-129 290,-129 290,-159"/>
<text text-anchor="start" x="168" y="-147" font-family="Helvetica,sans-Serif" font-size="10.00">AP_OpticalFlow_CXOF</text>
<text text-anchor="middle" x="225" y="-136" font-family="Helvetica,sans-Serif" font-size="10.00">::AP_OpticalFlow_CXOF</text>
</a>
</g>
</g>
<!-- Node1&#45;&gt;Node2 -->
<g id="edge1_Node000001_Node000002" class="edge">
<title>Node1&#45;&gt;Node2</title>
<g id="a_edge1_Node000001_Node000002"><a xlink:title=" ">
<path fill="none" stroke="#63b8ff" d="M93.28,-89.17C112.27,-98.47 137.35,-110.4 160,-120 164.11,-121.74 168.39,-123.49 172.7,-125.2"/>
<polygon fill="#63b8ff" stroke="#63b8ff" points="171.55,-128.51 182.14,-128.88 174.1,-121.99 171.55,-128.51"/>
</a>
</g>
</g>
<!-- Node3 -->
<g id="Node000003" class="node">
<title>Node3</title>
<g id="a_Node000003"><a xlink:href="classAP__SerialManager.html#a58cb32ebb77d9fc18e4756d0270d1970" target="_top" xlink:title=" ">
<polygon fill="white" stroke="#666666" points="289.5,-111 160.5,-111 160.5,-81 289.5,-81 289.5,-111"/>
<text text-anchor="start" x="168.5" y="-99" font-family="Helvetica,sans-Serif" font-size="10.00">AP_SerialManager::find</text>
<text text-anchor="middle" x="225" y="-88" font-family="Helvetica,sans-Serif" font-size="10.00">_serial</text>
</a>
</g>
</g>
<!-- Node1&#45;&gt;Node3 -->
<g id="edge2_Node000001_Node000003" class="edge">
<title>Node1&#45;&gt;Node3</title>
<g id="a_edge2_Node000001_Node000003"><a xlink:title=" ">
<path fill="none" stroke="#63b8ff" d="M124.33,-82.38C132.82,-83.54 141.62,-84.74 150.31,-85.93"/>
<polygon fill="#63b8ff" stroke="#63b8ff" points="150.06,-89.43 160.44,-87.31 151,-82.49 150.06,-89.43"/>
</a>
</g>
</g>
<!-- Node8 -->
<g id="Node000008" class="node">
<title>Node8</title>
<g id="a_Node000008"><a xlink:href="classAP__SerialManager.html#ac8e4d24e9ff1fd9c10fcb751e4454479" target="_top" xlink:title=" ">
<polygon fill="white" stroke="#666666" points="454,-30 327,-30 327,0 454,0 454,-30"/>
<text text-anchor="start" x="335" y="-18" font-family="Helvetica,sans-Serif" font-size="10.00">AP_SerialManager::get</text>
<text text-anchor="middle" x="390.5" y="-7" font-family="Helvetica,sans-Serif" font-size="10.00">_singleton</text>
</a>
</g>
</g>
<!-- Node1&#45;&gt;Node8 -->
<g id="edge7_Node000001_Node000008" class="edge">
<title>Node1&#45;&gt;Node8</title>
<g id="a_edge7_Node000001_Node000008"><a xlink:title=" ">
<path fill="none" stroke="#63b8ff" d="M124.18,-62.95C169.87,-54.7 233.84,-43.15 290,-33 298.66,-31.43 307.74,-29.79 316.75,-28.16"/>
<polygon fill="#63b8ff" stroke="#63b8ff" points="317.65,-31.56 326.87,-26.33 316.41,-24.67 317.65,-31.56"/>
</a>
</g>
</g>
<!-- Node9 -->
<g id="Node000009" class="node">
<title>Node9</title>
<g id="a_Node000009"><a xlink:href="namespaceAP.html#aa01135941499a6cbb5fc30403fc24c65" target="_top" xlink:title=" ">
<polygon fill="white" stroke="#666666" points="278,-24.5 172,-24.5 172,-5.5 278,-5.5 278,-24.5"/>
<text text-anchor="middle" x="225" y="-12.5" font-family="Helvetica,sans-Serif" font-size="10.00">AP::serialmanager</text>
</a>
</g>
</g>
<!-- Node1&#45;&gt;Node9 -->
<g id="edge8_Node000001_Node000009" class="edge">
<title>Node1&#45;&gt;Node9</title>
<g id="a_edge8_Node000001_Node000009"><a xlink:title=" ">
<path fill="none" stroke="#63b8ff" d="M104.04,-58.96C130.03,-49.43 163.31,-37.24 188.22,-28.11"/>
<polygon fill="#63b8ff" stroke="#63b8ff" points="189.48,-31.38 197.66,-24.65 187.07,-24.81 189.48,-31.38"/>
</a>
</g>
</g>
<!-- Node4 -->
<g id="Node000004" class="node">
<title>Node4</title>
<g id="a_Node000004"><a xlink:href="classAP__SerialManager.html#a073cb2777b00ddb4695dea07acc786d9" target="_top" xlink:title=" ">
<polygon fill="white" stroke="#666666" points="455,-164 326,-164 326,-134 455,-134 455,-164"/>
<text text-anchor="start" x="334" y="-152" font-family="Helvetica,sans-Serif" font-size="10.00">AP_SerialManager::find</text>
<text text-anchor="middle" x="390.5" y="-141" font-family="Helvetica,sans-Serif" font-size="10.00">_protocol_instance</text>
</a>
</g>
</g>
<!-- Node3&#45;&gt;Node4 -->
<g id="edge3_Node000003_Node000004" class="edge">
<title>Node3&#45;&gt;Node4</title>
<g id="a_edge3_Node000003_Node000004"><a xlink:title=" ">
<path fill="none" stroke="#63b8ff" d="M272.42,-111.05C291.4,-117.2 313.53,-124.37 333.41,-130.82"/>
<polygon fill="#63b8ff" stroke="#63b8ff" points="332.38,-134.16 342.97,-133.92 334.54,-127.5 332.38,-134.16"/>
</a>
</g>
</g>
<!-- Node6 -->
<g id="Node000006" class="node">
<title>Node6</title>
<g id="a_Node000006"><a xlink:href="classAP__HAL_1_1HAL.html#aa8bb0f38f4f9f9117f77cb356c68f04f" target="_top" xlink:title=" ">
<polygon fill="white" stroke="#666666" points="447,-115.5 334,-115.5 334,-96.5 447,-96.5 447,-115.5"/>
<text text-anchor="middle" x="390.5" y="-103.5" font-family="Helvetica,sans-Serif" font-size="10.00">AP_HAL::HAL::serial</text>
</a>
</g>
</g>
<!-- Node3&#45;&gt;Node6 -->
<g id="edge5_Node000003_Node000006" class="edge">
<title>Node3&#45;&gt;Node6</title>
<g id="a_edge5_Node000003_Node000006"><a xlink:title=" ">
<path fill="none" stroke="#63b8ff" d="M289.68,-99.89C300.87,-100.58 312.54,-101.29 323.78,-101.98"/>
<polygon fill="#63b8ff" stroke="#63b8ff" points="323.77,-105.49 333.96,-102.6 324.2,-98.5 323.77,-105.49"/>
</a>
</g>
</g>
<!-- Node7 -->
<g id="Node000007" class="node">
<title>Node7</title>
<g id="a_Node000007"><a xlink:href="classAP__HAL_1_1UARTDriver.html#ab198069f163bf69fcc82b0c653fa787f" target="_top" xlink:title=" ">
<polygon fill="white" stroke="#666666" points="448.5,-78 332.5,-78 332.5,-48 448.5,-48 448.5,-78"/>
<text text-anchor="start" x="340.5" y="-66" font-family="Helvetica,sans-Serif" font-size="10.00">AP_HAL::UARTDriver</text>
<text text-anchor="middle" x="390.5" y="-55" font-family="Helvetica,sans-Serif" font-size="10.00">::set_options</text>
</a>
</g>
</g>
<!-- Node3&#45;&gt;Node7 -->
<g id="edge6_Node000003_Node000007" class="edge">
<title>Node3&#45;&gt;Node7</title>
<g id="a_edge6_Node000003_Node000007"><a xlink:title=" ">
<path fill="none" stroke="#63b8ff" d="M289.68,-83.15C300.46,-80.97 311.68,-78.71 322.54,-76.52"/>
<polygon fill="#63b8ff" stroke="#63b8ff" points="323.28,-79.94 332.39,-74.53 321.89,-73.08 323.28,-79.94"/>
</a>
</g>
</g>
<!-- Node5 -->
<g id="Node000005" class="node">
<title>Node5</title>
<g id="a_Node000005"><a xlink:href="classAP__SerialManager.html#aeecba06b097b0443637b7cf5349fdf68" target="_top" xlink:title=" ">
<polygon fill="white" stroke="#666666" points="642,-164 491,-164 491,-134 642,-134 642,-164"/>
<text text-anchor="start" x="499" y="-152" font-family="Helvetica,sans-Serif" font-size="10.00">AP_SerialManager::protocol</text>
<text text-anchor="middle" x="566.5" y="-141" font-family="Helvetica,sans-Serif" font-size="10.00">_match</text>
</a>
</g>
</g>
<!-- Node4&#45;&gt;Node5 -->
<g id="edge4_Node000004_Node000005" class="edge">
<title>Node4&#45;&gt;Node5</title>
<g id="a_edge4_Node000004_Node000005"><a xlink:title=" ">
<path fill="none" stroke="#63b8ff" d="M455.3,-149C463.6,-149 472.2,-149 480.77,-149"/>
<polygon fill="#63b8ff" stroke="#63b8ff" points="480.8,-152.5 490.8,-149 480.8,-145.5 480.8,-152.5"/>
</a>
</g>
</g>
<!-- Node9&#45;&gt;Node8 -->
<g id="edge9_Node000009_Node000008" class="edge">
<title>Node9&#45;&gt;Node8</title>
<g id="a_edge9_Node000009_Node000008"><a xlink:title=" ">
<path fill="none" stroke="#63b8ff" d="M278.18,-15C290.42,-15 303.69,-15 316.65,-15"/>
<polygon fill="#63b8ff" stroke="#63b8ff" points="316.95,-18.5 326.95,-15 316.95,-11.5 316.95,-18.5"/>
</a>
</g>
</g>
</g>
</svg>
