<?xml version="1.0" encoding="UTF-8" standalone="no"?>
<!DOCTYPE svg PUBLIC "-//W3C//DTD SVG 1.1//EN"
 "http://www.w3.org/Graphics/SVG/1.1/DTD/svg11.dtd">
<!-- Generated by graphviz version 2.43.0 (0)
 -->
<!-- Title: ChibiOS::Scheduler::_io_thread Pages: 1 -->
<!--zoomable 343 -->

<svg id="main" version="1.1" xmlns="http://www.w3.org/2000/svg" xmlns:xlink="http://www.w3.org/1999/xlink" xml:space="preserve" onload="init(evt)">
<style type="text/css"><![CDATA[
.node, .edge {opacity: 0.7;}
.node.selected, .edge.selected {opacity: 1;}
.edge:hover path { stroke: red; }
.edge:hover polygon { stroke: red; fill: red; }
]]></style>

<defs>
  <circle id="rim" cx="0" cy="0" r="7"/>
  <circle id="rim2" cx="0" cy="0" r="3.5"/>
  <g id="zoomPlus">
    <use xlink:href="#rim" fill="#404040"><set attributeName="fill" to="#808080" begin="zoomplus.mouseover" end="zoomplus.mouseout"/></use>
    <path d="M-4,0h8M0,-4v8" fill="none" stroke="white" stroke-width="1.5" pointer-events="none"/>
  </g>
  <g id="zoomMin">
    <use xlink:href="#rim" fill="#404040"><set attributeName="fill" to="#808080" begin="zoomminus.mouseover" end="zoomminus.mouseout"/></use>
    <path d="M-4,0h8" fill="none" stroke="white" stroke-width="1.5" pointer-events="none"/>
  </g>
  <g id="arrowUp" transform="translate(30 24)">
    <use xlink:href="#rim"/>
    <path pointer-events="none" fill="none" stroke="white" stroke-width="1.5" d="M0,-3.0v7 M-2.5,-0.5L0,-3.0L2.5,-0.5"/>
  </g>
  <g id="arrowRight" transform="rotate(90) translate(36 -43)">
    <use xlink:href="#rim"/>
    <path pointer-events="none" fill="none" stroke="white" stroke-width="1.5" d="M0,-3.0v7 M-2.5,-0.5L0,-3.0L2.5,-0.5"/>
  </g>
  <g id="arrowDown" transform="rotate(180) translate(-30 -48)">
    <use xlink:href="#rim"/>
    <path pointer-events="none" fill="none" stroke="white" stroke-width="1.5" d="M0,-3.0v7 M-2.5,-0.5L0,-3.0L2.5,-0.5"/>
  </g>
  <g id="arrowLeft" transform="rotate(270) translate(-36 17)">
    <use xlink:href="#rim"/>
    <path pointer-events="none" fill="none" stroke="white" stroke-width="1.5" d="M0,-3.0v7 M-2.5,-0.5L0,-3.0L2.5,-0.5"/>
  </g>
  <g id="resetDef">
    <use xlink:href="#rim2" fill="#404040"><set attributeName="fill" to="#808080" begin="reset.mouseover" end="reset.mouseout"/></use>
  </g>
</defs>
<script type="application/ecmascript">
var viewWidth = 868;
var viewHeight = 343;
var sectionId = 'dynsection-4';
</script>
<script type="application/ecmascript" xlink:href="svg.min.js"/>
<svg id="graph" class="graph">
<g id="viewport">
<title>ChibiOS::Scheduler::_io_thread</title>
<!-- Node1 -->
<g id="Node000001" class="node">
<title>Node1</title>
<g id="a_Node000001"><a xlink:title=" ">
<polygon fill="#999999" stroke="#666666" points="109,-159 0,-159 0,-129 109,-129 109,-159"/>
<text text-anchor="start" x="8" y="-147" font-family="Helvetica,sans-Serif" font-size="10.00">ChibiOS::Scheduler</text>
<text text-anchor="middle" x="54.5" y="-136" font-family="Helvetica,sans-Serif" font-size="10.00">::_io_thread</text>
</a>
</g>
</g>
<!-- Node2 -->
<g id="Node000002" class="node">
<title>Node2</title>
<g id="a_Node000002"><a xlink:href="classChibiOS_1_1Scheduler.html#a524ba3c71858c062519762122f50d826" target="_top" xlink:title=" ">
<polygon fill="white" stroke="#666666" points="260.5,-298 151.5,-298 151.5,-268 260.5,-268 260.5,-298"/>
<text text-anchor="start" x="159.5" y="-286" font-family="Helvetica,sans-Serif" font-size="10.00">ChibiOS::Scheduler</text>
<text text-anchor="middle" x="206" y="-275" font-family="Helvetica,sans-Serif" font-size="10.00">::_run_io</text>
</a>
</g>
</g>
<!-- Node1&#45;&gt;Node2 -->
<g id="edge1_Node000001_Node000002" class="edge">
<title>Node1&#45;&gt;Node2</title>
<g id="a_edge1_Node000001_Node000002"><a xlink:title=" ">
<path fill="none" stroke="#63b8ff" d="M63.7,-159.14C77.51,-183.34 107.6,-230.86 145,-259 146.82,-260.37 148.73,-261.67 150.7,-262.91"/>
<polygon fill="#63b8ff" stroke="#63b8ff" points="149.25,-266.11 159.68,-267.94 152.67,-260 149.25,-266.11"/>
</a>
</g>
</g>
<!-- Node3 -->
<g id="Node000003" class="node">
<title>Node3</title>
<g id="a_Node000003"><a xlink:href="classChibiOS_1_1Scheduler.html#a77016b09a47bc6219db7de1f07a024e3" target="_top" xlink:title=" ">
<polygon fill="white" stroke="#666666" points="260.5,-250 151.5,-250 151.5,-220 260.5,-220 260.5,-250"/>
<text text-anchor="start" x="159.5" y="-238" font-family="Helvetica,sans-Serif" font-size="10.00">ChibiOS::Scheduler</text>
<text text-anchor="middle" x="206" y="-227" font-family="Helvetica,sans-Serif" font-size="10.00">::check_stack_free</text>
</a>
</g>
</g>
<!-- Node1&#45;&gt;Node3 -->
<g id="edge2_Node000001_Node000003" class="edge">
<title>Node1&#45;&gt;Node3</title>
<g id="a_edge2_Node000001_Node000003"><a xlink:title=" ">
<path fill="none" stroke="#63b8ff" d="M72.72,-159.06C90.08,-173.71 118.09,-195.89 145,-211 147.89,-212.62 150.9,-214.19 153.98,-215.69"/>
<polygon fill="#63b8ff" stroke="#63b8ff" points="152.8,-218.99 163.35,-219.99 155.72,-212.63 152.8,-218.99"/>
</a>
</g>
</g>
<!-- Node12 -->
<g id="Node000012" class="node">
<title>Node12</title>
<g id="a_Node000012"><a xlink:href="classChibiOS_1_1Scheduler.html#a332cd2e17889c12f84b469eaf9f24fc8" target="_top" xlink:title=" ">
<polygon fill="white" stroke="#666666" points="267,-202 145,-202 145,-172 267,-172 267,-202"/>
<text text-anchor="start" x="153" y="-190" font-family="Helvetica,sans-Serif" font-size="10.00">ChibiOS::Scheduler</text>
<text text-anchor="middle" x="206" y="-179" font-family="Helvetica,sans-Serif" font-size="10.00">::delay_microseconds</text>
</a>
</g>
</g>
<!-- Node1&#45;&gt;Node12 -->
<g id="edge12_Node000001_Node000012" class="edge">
<title>Node1&#45;&gt;Node12</title>
<g id="a_edge12_Node000001_Node000012"><a xlink:title=" ">
<path fill="none" stroke="#63b8ff" d="M107.79,-159.04C119.17,-162.31 131.31,-165.81 143.03,-169.18"/>
<polygon fill="#63b8ff" stroke="#63b8ff" points="142.16,-172.57 152.74,-171.97 144.1,-165.84 142.16,-172.57"/>
</a>
</g>
</g>
<!-- Node13 -->
<g id="Node000013" class="node">
<title>Node13</title>
<g id="a_Node000013"><a xlink:href="namespaceAP.html#abb3d1954cca601d4bda7c74f27be55b7" target="_top" xlink:title=" ">
<polygon fill="white" stroke="#666666" points="229.5,-153.5 182.5,-153.5 182.5,-134.5 229.5,-134.5 229.5,-153.5"/>
<text text-anchor="middle" x="206" y="-141.5" font-family="Helvetica,sans-Serif" font-size="10.00">AP::FS</text>
</a>
</g>
</g>
<!-- Node1&#45;&gt;Node13 -->
<g id="edge13_Node000001_Node000013" class="edge">
<title>Node1&#45;&gt;Node13</title>
<g id="a_edge13_Node000001_Node000013"><a xlink:title=" ">
<path fill="none" stroke="#63b8ff" d="M109.05,-144C130.06,-144 153.51,-144 171.97,-144"/>
<polygon fill="#63b8ff" stroke="#63b8ff" points="172.2,-147.5 182.2,-144 172.2,-140.5 172.2,-147.5"/>
</a>
</g>
</g>
<!-- Node14 -->
<g id="Node000014" class="node">
<title>Node14</title>
<g id="a_Node000014"><a xlink:href="classAP__HAL_1_1Util.html#a287a2b82fa30b92c8d52aad61d4d27b7" target="_top" xlink:title=" ">
<polygon fill="white" stroke="#666666" points="267,-116 145,-116 145,-86 267,-86 267,-116"/>
<text text-anchor="start" x="153" y="-104" font-family="Helvetica,sans-Serif" font-size="10.00">AP_HAL::Util::get_soft</text>
<text text-anchor="middle" x="206" y="-93" font-family="Helvetica,sans-Serif" font-size="10.00">_armed</text>
</a>
</g>
</g>
<!-- Node1&#45;&gt;Node14 -->
<g id="edge14_Node000001_Node000014" class="edge">
<title>Node1&#45;&gt;Node14</title>
<g id="a_edge14_Node000001_Node000014"><a xlink:title=" ">
<path fill="none" stroke="#63b8ff" d="M107.79,-128.96C119.17,-125.69 131.31,-122.19 143.03,-118.82"/>
<polygon fill="#63b8ff" stroke="#63b8ff" points="144.1,-122.16 152.74,-116.03 142.16,-115.43 144.1,-122.16"/>
</a>
</g>
</g>
<!-- Node15 -->
<g id="Node000015" class="node">
<title>Node15</title>
<g id="a_Node000015"><a xlink:href="namespaceAP__HAL.html#a77dffbb18891996280308e21316ec186" target="_top" xlink:title=" ">
<polygon fill="white" stroke="#666666" points="249.5,-67.5 162.5,-67.5 162.5,-48.5 249.5,-48.5 249.5,-67.5"/>
<text text-anchor="middle" x="206" y="-55.5" font-family="Helvetica,sans-Serif" font-size="10.00">AP_HAL::millis</text>
</a>
</g>
</g>
<!-- Node1&#45;&gt;Node15 -->
<g id="edge15_Node000001_Node000015" class="edge">
<title>Node1&#45;&gt;Node15</title>
<g id="a_edge15_Node000001_Node000015"><a xlink:title=" ">
<path fill="none" stroke="#63b8ff" d="M72.17,-128.79C89.32,-113.82 117.38,-91.19 145,-77 149.27,-74.81 153.84,-72.81 158.49,-71"/>
<polygon fill="#63b8ff" stroke="#63b8ff" points="159.83,-74.23 168.05,-67.55 157.45,-67.65 159.83,-74.23"/>
</a>
</g>
</g>
<!-- Node22 -->
<g id="Node000022" class="node">
<title>Node22</title>
<g id="a_Node000022"><a xlink:href="classAP__Filesystem.html#a0bf7da4a388b24fec55562d6904f14c3" target="_top" xlink:title=" ">
<polygon fill="white" stroke="#666666" points="264.5,-30 147.5,-30 147.5,0 264.5,0 264.5,-30"/>
<text text-anchor="start" x="155.5" y="-18" font-family="Helvetica,sans-Serif" font-size="10.00">AP_Filesystem::retry</text>
<text text-anchor="middle" x="206" y="-7" font-family="Helvetica,sans-Serif" font-size="10.00">_mount</text>
</a>
</g>
</g>
<!-- Node1&#45;&gt;Node22 -->
<g id="edge22_Node000001_Node000022" class="edge">
<title>Node1&#45;&gt;Node22</title>
<g id="a_edge22_Node000001_Node000022"><a xlink:title=" ">
<path fill="none" stroke="#63b8ff" d="M64.98,-128.75C79.62,-106.3 109.78,-64.29 145,-39 146.89,-37.64 148.86,-36.35 150.9,-35.12"/>
<polygon fill="#63b8ff" stroke="#63b8ff" points="153.02,-37.95 160.14,-30.1 149.68,-31.8 153.02,-37.95"/>
</a>
</g>
</g>
<!-- Node4 -->
<g id="Node000004" class="node">
<title>Node4</title>
<g id="a_Node000004"><a xlink:href="classAP__InternalError.html#af74a13b1c2e54bc945d331d419101444" target="_top" xlink:title=" ">
<polygon fill="white" stroke="#666666" points="428,-282.5 303,-282.5 303,-263.5 428,-263.5 428,-282.5"/>
<text text-anchor="middle" x="365.5" y="-270.5" font-family="Helvetica,sans-Serif" font-size="10.00">AP_InternalError::error</text>
</a>
</g>
</g>
<!-- Node3&#45;&gt;Node4 -->
<g id="edge3_Node000003_Node000004" class="edge">
<title>Node3&#45;&gt;Node4</title>
<g id="a_edge3_Node000003_Node000004"><a xlink:title=" ">
<path fill="none" stroke="#63b8ff" d="M260.76,-247.97C278.34,-252.21 297.78,-256.9 315.03,-261.06"/>
<polygon fill="#63b8ff" stroke="#63b8ff" points="314.36,-264.5 324.9,-263.45 316,-257.7 314.36,-264.5"/>
</a>
</g>
</g>
<!-- Node6 -->
<g id="Node000006" class="node">
<title>Node6</title>
<g id="a_Node000006"><a xlink:href="namespaceAP.html#afceb236ff617aaaa2b08afacd72532b0" target="_top" xlink:title=" ">
<polygon fill="white" stroke="#666666" points="574.5,-244.5 478.5,-244.5 478.5,-225.5 574.5,-225.5 574.5,-244.5"/>
<text text-anchor="middle" x="526.5" y="-232.5" font-family="Helvetica,sans-Serif" font-size="10.00">AP::internalerror</text>
</a>
</g>
</g>
<!-- Node3&#45;&gt;Node6 -->
<g id="edge10_Node000003_Node000006" class="edge">
<title>Node3&#45;&gt;Node6</title>
<g id="a_edge10_Node000003_Node000006"><a xlink:title=" ">
<path fill="none" stroke="#63b8ff" d="M260.67,-235C318.2,-235 409.19,-235 468.12,-235"/>
<polygon fill="#63b8ff" stroke="#63b8ff" points="468.37,-238.5 478.37,-235 468.37,-231.5 468.37,-238.5"/>
</a>
</g>
</g>
<!-- Node11 -->
<g id="Node000011" class="node">
<title>Node11</title>
<g id="a_Node000011"><a xlink:href="stm32__util_8c.html#a2ae04550c4bf4f711239f6f3c78b16a2" target="_top" xlink:title=" ">
<polygon fill="white" stroke="#666666" points="399.5,-206.5 331.5,-206.5 331.5,-187.5 399.5,-187.5 399.5,-206.5"/>
<text text-anchor="middle" x="365.5" y="-194.5" font-family="Helvetica,sans-Serif" font-size="10.00">stack_free</text>
</a>
</g>
</g>
<!-- Node3&#45;&gt;Node11 -->
<g id="edge11_Node000003_Node000011" class="edge">
<title>Node3&#45;&gt;Node11</title>
<g id="a_edge11_Node000003_Node000011"><a xlink:title=" ">
<path fill="none" stroke="#63b8ff" d="M260.76,-222.03C280.55,-217.25 302.69,-211.91 321.42,-207.39"/>
<polygon fill="#63b8ff" stroke="#63b8ff" points="322.25,-210.79 331.15,-205.05 320.61,-203.99 322.25,-210.79"/>
</a>
</g>
</g>
<!-- Node5 -->
<g id="Node000005" class="node">
<title>Node5</title>
<g id="a_Node000005"><a xlink:href="classAP__InternalError.html#af9a8c01459fe72810baf59f613b7d9b3" target="_top" xlink:title=" ">
<polygon fill="white" stroke="#666666" points="589,-330 464,-330 464,-300 589,-300 589,-330"/>
<text text-anchor="start" x="472" y="-318" font-family="Helvetica,sans-Serif" font-size="10.00">AP_InternalError::error</text>
<text text-anchor="middle" x="526.5" y="-307" font-family="Helvetica,sans-Serif" font-size="10.00">_to_string</text>
</a>
</g>
</g>
<!-- Node4&#45;&gt;Node5 -->
<g id="edge4_Node000004_Node000005" class="edge">
<title>Node4&#45;&gt;Node5</title>
<g id="a_edge4_Node000004_Node000005"><a xlink:title=" ">
<path fill="none" stroke="#63b8ff" d="M402.58,-282.53C419.27,-286.94 439.66,-292.32 458.98,-297.43"/>
<polygon fill="#63b8ff" stroke="#63b8ff" points="458.11,-300.82 468.67,-299.99 459.89,-294.05 458.11,-300.82"/>
</a>
</g>
</g>
<!-- Node4&#45;&gt;Node6 -->
<g id="edge5_Node000004_Node000006" class="edge">
<title>Node4&#45;&gt;Node6</title>
<g id="a_edge5_Node000004_Node000006"><a xlink:title=" ">
<path fill="none" stroke="#63b8ff" d="M406.62,-263.41C427.6,-258.4 453.48,-252.21 475.73,-246.89"/>
<polygon fill="#63b8ff" stroke="#63b8ff" points="476.75,-250.25 485.67,-244.52 475.13,-243.44 476.75,-250.25"/>
</a>
</g>
</g>
<!-- Node7 -->
<g id="Node000007" class="node">
<title>Node7</title>
<g id="a_Node000007"><a xlink:href="namespaceAP__HAL.html#a52edeef7d5ffaa365e1229b87c170307" target="_top" xlink:title=" ">
<polygon fill="white" stroke="#666666" points="569.5,-281.5 483.5,-281.5 483.5,-262.5 569.5,-262.5 569.5,-281.5"/>
<text text-anchor="middle" x="526.5" y="-269.5" font-family="Helvetica,sans-Serif" font-size="10.00">AP_HAL::panic</text>
</a>
</g>
</g>
<!-- Node4&#45;&gt;Node7 -->
<g id="edge6_Node000004_Node000007" class="edge">
<title>Node4&#45;&gt;Node7</title>
<g id="a_edge6_Node000004_Node000007"><a xlink:title=" ">
<path fill="none" stroke="#63b8ff" d="M428.43,-272.61C443.16,-272.52 458.75,-272.42 473.01,-272.33"/>
<polygon fill="#63b8ff" stroke="#63b8ff" points="473.16,-275.83 483.14,-272.27 473.11,-268.83 473.16,-275.83"/>
</a>
</g>
</g>
<!-- Node8 -->
<g id="Node000008" class="node">
<title>Node8</title>
<g id="a_Node000008"><a xlink:href="classAP__HAL_1_1Scheduler.html#ab3175e2e6223ccfe82f957e41cc12b26" target="_top" xlink:title=" ">
<polygon fill="white" stroke="#666666" points="740,-335 626,-335 626,-305 740,-305 740,-335"/>
<text text-anchor="start" x="634" y="-323" font-family="Helvetica,sans-Serif" font-size="10.00">AP_HAL::Scheduler::</text>
<text text-anchor="middle" x="683" y="-312" font-family="Helvetica,sans-Serif" font-size="10.00">delay</text>
</a>
</g>
</g>
<!-- Node7&#45;&gt;Node8 -->
<g id="edge7_Node000007_Node000008" class="edge">
<title>Node7&#45;&gt;Node8</title>
<g id="a_edge7_Node000007_Node000008"><a xlink:title=" ">
<path fill="none" stroke="#63b8ff" d="M558.48,-281.55C568.24,-284.57 579.07,-287.92 589,-291 600.36,-294.53 612.49,-298.3 624.12,-301.93"/>
<polygon fill="#63b8ff" stroke="#63b8ff" points="623.15,-305.29 633.74,-304.92 625.23,-298.61 623.15,-305.29"/>
</a>
</g>
</g>
<!-- Node9 -->
<g id="Node000009" class="node">
<title>Node9</title>
<g id="a_Node000009"><a xlink:href="classAP__HAL_1_1Scheduler.html#a78c4f1b1f192ac1c99544b6cc8f099b0" target="_top" xlink:title=" ">
<polygon fill="white" stroke="#666666" points="741,-287 625,-287 625,-257 741,-257 741,-287"/>
<text text-anchor="start" x="633" y="-275" font-family="Helvetica,sans-Serif" font-size="10.00">AP_HAL::Scheduler::</text>
<text text-anchor="middle" x="683" y="-264" font-family="Helvetica,sans-Serif" font-size="10.00">delay_microseconds</text>
</a>
</g>
</g>
<!-- Node7&#45;&gt;Node9 -->
<g id="edge8_Node000007_Node000009" class="edge">
<title>Node7&#45;&gt;Node9</title>
<g id="a_edge8_Node000007_Node000009"><a xlink:title=" ">
<path fill="none" stroke="#63b8ff" d="M569.72,-272C583.51,-272 599.19,-272 614.37,-272"/>
<polygon fill="#63b8ff" stroke="#63b8ff" points="614.77,-275.5 624.77,-272 614.77,-268.5 614.77,-275.5"/>
</a>
</g>
</g>
<!-- Node10 -->
<g id="Node000010" class="node">
<title>Node10</title>
<g id="a_Node000010"><a xlink:href="stdio_8h.html#aae132cc6af1eb6cf43bf011d8d63e854" target="_top" xlink:title=" ">
<polygon fill="white" stroke="#666666" points="707.5,-238.5 658.5,-238.5 658.5,-219.5 707.5,-219.5 707.5,-238.5"/>
<text text-anchor="middle" x="683" y="-226.5" font-family="Helvetica,sans-Serif" font-size="10.00">vprintf</text>
</a>
</g>
</g>
<!-- Node7&#45;&gt;Node10 -->
<g id="edge9_Node000007_Node000010" class="edge">
<title>Node7&#45;&gt;Node10</title>
<g id="a_edge9_Node000007_Node000010"><a xlink:title=" ">
<path fill="none" stroke="#63b8ff" d="M561.79,-262.46C587.69,-255.25 623.03,-245.41 648.69,-238.27"/>
<polygon fill="#63b8ff" stroke="#63b8ff" points="649.66,-241.64 658.35,-235.58 647.78,-234.89 649.66,-241.64"/>
</a>
</g>
</g>
<!-- Node16 -->
<g id="Node000016" class="node">
<title>Node16</title>
<g id="a_Node000016"><a xlink:href="hrt_8c.html#a1295f128f60d29874243b5733c4db025" target="_top" xlink:title=" ">
<polygon fill="white" stroke="#666666" points="402.5,-67.5 328.5,-67.5 328.5,-48.5 402.5,-48.5 402.5,-67.5"/>
<text text-anchor="middle" x="365.5" y="-55.5" font-family="Helvetica,sans-Serif" font-size="10.00">hrt_millis32</text>
</a>
</g>
</g>
<!-- Node15&#45;&gt;Node16 -->
<g id="edge16_Node000015_Node000016" class="edge">
<title>Node15&#45;&gt;Node16</title>
<g id="a_edge16_Node000015_Node000016"><a xlink:title=" ">
<path fill="none" stroke="#63b8ff" d="M249.62,-58C270.76,-58 296.33,-58 317.98,-58"/>
<polygon fill="#63b8ff" stroke="#63b8ff" points="318.25,-61.5 328.25,-58 318.25,-54.5 318.25,-61.5"/>
</a>
</g>
</g>
<!-- Node17 -->
<g id="Node000017" class="node">
<title>Node17</title>
<g id="a_Node000017"><a xlink:href="hrt_8c.html#a7dd7d90aadd8f76f26da7d5abfad6fe8" target="_top" xlink:title=" ">
<polygon fill="white" stroke="#666666" points="563.5,-67.5 489.5,-67.5 489.5,-48.5 563.5,-48.5 563.5,-67.5"/>
<text text-anchor="middle" x="526.5" y="-55.5" font-family="Helvetica,sans-Serif" font-size="10.00">hrt_millis64</text>
</a>
</g>
</g>
<!-- Node16&#45;&gt;Node17 -->
<g id="edge17_Node000016_Node000017" class="edge">
<title>Node16&#45;&gt;Node17</title>
<g id="a_edge17_Node000016_Node000017"><a xlink:title=" ">
<path fill="none" stroke="#63b8ff" d="M402.58,-58C425.27,-58 454.76,-58 479.17,-58"/>
<polygon fill="#63b8ff" stroke="#63b8ff" points="479.29,-61.5 489.29,-58 479.29,-54.5 479.29,-61.5"/>
</a>
</g>
</g>
<!-- Node18 -->
<g id="Node000018" class="node">
<title>Node18</title>
<g id="a_Node000018"><a xlink:href="hrt_8c.html#a152c3348a8e83f2dfe35b44cc2e30362" target="_top" xlink:title=" ">
<polygon fill="white" stroke="#666666" points="723,-86.5 643,-86.5 643,-67.5 723,-67.5 723,-86.5"/>
<text text-anchor="middle" x="683" y="-74.5" font-family="Helvetica,sans-Serif" font-size="10.00">hrt_micros64</text>
</a>
</g>
</g>
<!-- Node17&#45;&gt;Node18 -->
<g id="edge18_Node000017_Node000018" class="edge">
<title>Node17&#45;&gt;Node18</title>
<g id="a_edge18_Node000017_Node000018"><a xlink:title=" ">
<path fill="none" stroke="#63b8ff" d="M563.72,-62.45C584.3,-64.98 610.34,-68.19 632.75,-70.94"/>
<polygon fill="#63b8ff" stroke="#63b8ff" points="632.4,-74.43 642.76,-72.17 633.26,-67.48 632.4,-74.43"/>
</a>
</g>
</g>
<!-- Node21 -->
<g id="Node000021" class="node">
<title>Node21</title>
<g id="a_Node000021"><a xlink:href="div1000_8h.html#aece9e7f123414c41d0426fbadca097d8" target="_top" xlink:title=" ">
<polygon fill="white" stroke="#666666" points="729,-49.5 637,-49.5 637,-30.5 729,-30.5 729,-49.5"/>
<text text-anchor="middle" x="683" y="-37.5" font-family="Helvetica,sans-Serif" font-size="10.00">uint64_div1000</text>
</a>
</g>
</g>
<!-- Node17&#45;&gt;Node21 -->
<g id="edge21_Node000017_Node000021" class="edge">
<title>Node17&#45;&gt;Node21</title>
<g id="a_edge21_Node000017_Node000021"><a xlink:title=" ">
<path fill="none" stroke="#63b8ff" d="M563.72,-53.78C582.5,-51.59 605.84,-48.87 626.81,-46.43"/>
<polygon fill="#63b8ff" stroke="#63b8ff" points="627.35,-49.89 636.88,-45.26 626.54,-42.94 627.35,-49.89"/>
</a>
</g>
</g>
<!-- Node19 -->
<g id="Node000019" class="node">
<title>Node19</title>
<g id="a_Node000019"><a xlink:href="hrt_8c.html#a5b4ffc7ff86bd5b893c4a98834e80200" target="_top" xlink:title=" ">
<polygon fill="white" stroke="#666666" points="860,-105.5 777,-105.5 777,-86.5 860,-86.5 860,-105.5"/>
<text text-anchor="middle" x="818.5" y="-93.5" font-family="Helvetica,sans-Serif" font-size="10.00">hrt_micros64I</text>
</a>
</g>
</g>
<!-- Node18&#45;&gt;Node19 -->
<g id="edge19_Node000018_Node000019" class="edge">
<title>Node18&#45;&gt;Node19</title>
<g id="a_edge19_Node000018_Node000019"><a xlink:title=" ">
<path fill="none" stroke="#63b8ff" d="M723.33,-82.6C736.82,-84.52 752.13,-86.7 766.41,-88.73"/>
<polygon fill="#63b8ff" stroke="#63b8ff" points="766.2,-92.23 776.6,-90.18 767.19,-85.3 766.2,-92.23"/>
</a>
</g>
</g>
<!-- Node20 -->
<g id="Node000020" class="node">
<title>Node20</title>
<g id="a_Node000020"><a xlink:href="hrt_8c.html#a723fef85be7bacb834af35445a891c18" target="_top" xlink:title=" ">
<polygon fill="white" stroke="#666666" points="849.5,-68.5 787.5,-68.5 787.5,-49.5 849.5,-49.5 849.5,-68.5"/>
<text text-anchor="middle" x="818.5" y="-56.5" font-family="Helvetica,sans-Serif" font-size="10.00">is_locked</text>
</a>
</g>
</g>
<!-- Node18&#45;&gt;Node20 -->
<g id="edge20_Node000018_Node000020" class="edge">
<title>Node18&#45;&gt;Node20</title>
<g id="a_edge20_Node000018_Node000020"><a xlink:title=" ">
<path fill="none" stroke="#63b8ff" d="M723.33,-71.7C740.27,-69.41 760.07,-66.74 777.13,-64.44"/>
<polygon fill="#63b8ff" stroke="#63b8ff" points="777.9,-67.87 787.34,-63.07 776.96,-60.93 777.9,-67.87"/>
</a>
</g>
</g>
</g>
</svg>

<g id="navigator" transform="translate(0 0)" fill="#404254">
  <rect fill="#f2f5e9" fill-opacity="0.5" stroke="#606060" stroke-width=".5" x="0" y="0" width="60" height="60"/>
  <use id="zoomplus" xlink:href="#zoomPlus" x="17" y="9" onmousedown="handleZoom(evt,'in')"/>
  <use id="zoomminus" xlink:href="#zoomMin" x="42" y="9" onmousedown="handleZoom(evt,'out')"/>
  <use id="reset" xlink:href="#resetDef" x="30" y="36" onmousedown="handleReset()"/>
   <use id="arrowup" xlink:href="#arrowUp" x="0" y="0" onmousedown="handlePan(0,-1)"/>
  <use id="arrowright" xlink:href="#arrowRight" x="0" y="0" onmousedown="handlePan(1,0)"/>
  <use id="arrowdown" xlink:href="#arrowDown" x="0" y="0" onmousedown="handlePan(0,1)"/>
  <use id="arrowleft" xlink:href="#arrowLeft" x="0" y="0" onmousedown="handlePan(-1,0)"/>
</g>
<svg viewBox="0 0 15 15" width="100%" height="30px" preserveAspectRatio="xMaxYMin meet">
 <g id="arrow_out" transform="scale(0.3 0.3)">
  <a xlink:href="classChibiOS_1_1Scheduler_a647c96ea634818117072ecd1cc6b73b3_cgraph_org.svg" target="_base">
   <rect id="button" ry="5" rx="5" y="6" x="6" height="38" width="38"
        fill="#f2f5e9" fill-opacity="0.5" stroke="#606060" stroke-width="1.0"/>
   <path id="arrow"
     d="M 11.500037,31.436501 C 11.940474,20.09759 22.043105,11.32322 32.158766,21.979434 L 37.068811,17.246167 C 37.068811,17.246167 37.088388,32 37.088388,32 L 22.160133,31.978069 C 22.160133,31.978069 26.997745,27.140456 26.997745,27.140456 C 18.528582,18.264221 13.291696,25.230495 11.500037,31.436501 z"
     style="fill:#404040;"/>
  </a>
 </g>
</svg>

<style type='text/css'>
<![CDATA[
[data-mouse-over-selected='false'] { opacity: 0.7; }
[data-mouse-over-selected='true']  { opacity: 1.0; }
]]>
</style>
<script type="application/ecmascript"><![CDATA[
document.addEventListener('DOMContentLoaded', (event) => {
  highlightEdges();
  highlightAdjacentNodes();
});
]]></script>
</svg>
