<?xml version="1.0" encoding="UTF-8" standalone="no"?>
<!DOCTYPE svg PUBLIC "-//W3C//DTD SVG 1.1//EN"
 "http://www.w3.org/Graphics/SVG/1.1/DTD/svg11.dtd">
<!-- Generated by graphviz version 2.43.0 (0)
 -->
<!-- Title: MenuCommands::gpio_input_channel Pages: 1 -->
<!--zoomable 285 -->

<svg id="main" version="1.1" xmlns="http://www.w3.org/2000/svg" xmlns:xlink="http://www.w3.org/1999/xlink" xml:space="preserve" onload="init(evt)">
<style type="text/css"><![CDATA[
.node, .edge {opacity: 0.7;}
.node.selected, .edge.selected {opacity: 1;}
.edge:hover path { stroke: red; }
.edge:hover polygon { stroke: red; fill: red; }
]]></style>

<defs>
  <circle id="rim" cx="0" cy="0" r="7"/>
  <circle id="rim2" cx="0" cy="0" r="3.5"/>
  <g id="zoomPlus">
    <use xlink:href="#rim" fill="#404040"><set attributeName="fill" to="#808080" begin="zoomplus.mouseover" end="zoomplus.mouseout"/></use>
    <path d="M-4,0h8M0,-4v8" fill="none" stroke="white" stroke-width="1.5" pointer-events="none"/>
  </g>
  <g id="zoomMin">
    <use xlink:href="#rim" fill="#404040"><set attributeName="fill" to="#808080" begin="zoomminus.mouseover" end="zoomminus.mouseout"/></use>
    <path d="M-4,0h8" fill="none" stroke="white" stroke-width="1.5" pointer-events="none"/>
  </g>
  <g id="arrowUp" transform="translate(30 24)">
    <use xlink:href="#rim"/>
    <path pointer-events="none" fill="none" stroke="white" stroke-width="1.5" d="M0,-3.0v7 M-2.5,-0.5L0,-3.0L2.5,-0.5"/>
  </g>
  <g id="arrowRight" transform="rotate(90) translate(36 -43)">
    <use xlink:href="#rim"/>
    <path pointer-events="none" fill="none" stroke="white" stroke-width="1.5" d="M0,-3.0v7 M-2.5,-0.5L0,-3.0L2.5,-0.5"/>
  </g>
  <g id="arrowDown" transform="rotate(180) translate(-30 -48)">
    <use xlink:href="#rim"/>
    <path pointer-events="none" fill="none" stroke="white" stroke-width="1.5" d="M0,-3.0v7 M-2.5,-0.5L0,-3.0L2.5,-0.5"/>
  </g>
  <g id="arrowLeft" transform="rotate(270) translate(-36 17)">
    <use xlink:href="#rim"/>
    <path pointer-events="none" fill="none" stroke="white" stroke-width="1.5" d="M0,-3.0v7 M-2.5,-0.5L0,-3.0L2.5,-0.5"/>
  </g>
  <g id="resetDef">
    <use xlink:href="#rim2" fill="#404040"><set attributeName="fill" to="#808080" begin="reset.mouseover" end="reset.mouseout"/></use>
  </g>
</defs>
<script type="application/ecmascript">
var viewWidth = 705;
var viewHeight = 285;
var sectionId = 'dynsection-0';
</script>
<script type="application/ecmascript" xlink:href="svg.min.js"/>
<svg id="graph" class="graph">
<g id="viewport">
<title>MenuCommands::gpio_input_channel</title>
<!-- Node1 -->
<g id="Node000001" class="node">
<title>Node1</title>
<g id="a_Node000001"><a xlink:title=" ">
<polygon fill="#999999" stroke="#666666" points="126,-187.5 0,-187.5 0,-157.5 126,-157.5 126,-187.5"/>
<text text-anchor="start" x="8" y="-175.5" font-family="Helvetica,sans-Serif" font-size="10.00">MenuCommands::gpio</text>
<text text-anchor="middle" x="63" y="-164.5" font-family="Helvetica,sans-Serif" font-size="10.00">_input_channel</text>
</a>
</g>
</g>
<!-- Node2 -->
<g id="Node000002" class="node">
<title>Node2</title>
<g id="a_Node000002"><a xlink:href="classAP__HAL_1_1BetterStream.html#a8534aa004599bb81ad60f3e762791032" target="_top" xlink:title=" ">
<polygon fill="white" stroke="#666666" points="419,-276.5 294,-276.5 294,-246.5 419,-246.5 419,-276.5"/>
<text text-anchor="start" x="302" y="-264.5" font-family="Helvetica,sans-Serif" font-size="10.00">AP_HAL::BetterStream</text>
<text text-anchor="middle" x="356.5" y="-253.5" font-family="Helvetica,sans-Serif" font-size="10.00">::printf</text>
</a>
</g>
</g>
<!-- Node1&#45;&gt;Node2 -->
<g id="edge1_Node000001_Node000002" class="edge">
<title>Node1&#45;&gt;Node2</title>
<g id="a_edge1_Node000001_Node000002"><a xlink:title=" ">
<path fill="none" stroke="#63b8ff" d="M113.45,-187.6C164.06,-203.05 242.73,-227.07 296.55,-243.5"/>
<polygon fill="#63b8ff" stroke="#63b8ff" points="295.71,-246.9 306.3,-246.48 297.75,-240.21 295.71,-246.9"/>
</a>
</g>
</g>
<!-- Node5 -->
<g id="Node000005" class="node">
<title>Node5</title>
<g id="a_Node000005"><a xlink:href="GPIOTest_8cpp.html#aaaf9a61ce8f7b81f01a998d6690fa243" target="_top" xlink:title=" ">
<polygon fill="white" stroke="#666666" points="254,-163 162,-163 162,-144 254,-144 254,-163"/>
<text text-anchor="middle" x="208" y="-151" font-family="Helvetica,sans-Serif" font-size="10.00">test_gpio_input</text>
</a>
</g>
</g>
<!-- Node1&#45;&gt;Node5 -->
<g id="edge4_Node000001_Node000005" class="edge">
<title>Node1&#45;&gt;Node5</title>
<g id="a_edge4_Node000001_Node000005"><a xlink:title=" ">
<path fill="none" stroke="#63b8ff" d="M126.31,-164.22C134.76,-163.1 143.39,-161.95 151.71,-160.85"/>
<polygon fill="#63b8ff" stroke="#63b8ff" points="152.22,-164.31 161.67,-159.52 151.3,-157.37 152.22,-164.31"/>
</a>
</g>
</g>
<!-- Node3 -->
<g id="Node000003" class="node">
<title>Node3</title>
<g id="a_Node000003"><a xlink:href="classAP__HAL_1_1BetterStream.html#aa730be451d385d7ba03ee9677e6d91a2" target="_top" xlink:title=" ">
<polygon fill="white" stroke="#666666" points="584,-276.5 459,-276.5 459,-246.5 584,-246.5 584,-276.5"/>
<text text-anchor="start" x="467" y="-264.5" font-family="Helvetica,sans-Serif" font-size="10.00">AP_HAL::BetterStream</text>
<text text-anchor="middle" x="521.5" y="-253.5" font-family="Helvetica,sans-Serif" font-size="10.00">::vprintf</text>
</a>
</g>
</g>
<!-- Node2&#45;&gt;Node3 -->
<g id="edge2_Node000002_Node000003" class="edge">
<title>Node2&#45;&gt;Node3</title>
<g id="a_edge2_Node000002_Node000003"><a xlink:title=" ">
<path fill="none" stroke="#63b8ff" d="M419.12,-261.5C428.76,-261.5 438.79,-261.5 448.63,-261.5"/>
<polygon fill="#63b8ff" stroke="#63b8ff" points="448.79,-265 458.79,-261.5 448.79,-258 448.79,-265"/>
</a>
</g>
</g>
<!-- Node4 -->
<g id="Node000004" class="node">
<title>Node4</title>
<g id="a_Node000004"><a xlink:href="test__expandingstring__failure_8cpp.html#a98e0d5bb436a207f576379beaa786040" target="_top" xlink:title=" ">
<polygon fill="white" stroke="#666666" points="697,-271 620,-271 620,-252 697,-252 697,-271"/>
<text text-anchor="middle" x="658.5" y="-259" font-family="Helvetica,sans-Serif" font-size="10.00">print_vprintf</text>
</a>
</g>
</g>
<!-- Node3&#45;&gt;Node4 -->
<g id="edge3_Node000003_Node000004" class="edge">
<title>Node3&#45;&gt;Node4</title>
<g id="a_edge3_Node000003_Node000004"><a xlink:title=" ">
<path fill="none" stroke="#63b8ff" d="M584.07,-261.5C592.68,-261.5 601.41,-261.5 609.71,-261.5"/>
<polygon fill="#63b8ff" stroke="#63b8ff" points="609.95,-265 619.95,-261.5 609.95,-258 609.95,-265"/>
</a>
</g>
</g>
<!-- Node5&#45;&gt;Node2 -->
<g id="edge9_Node000005_Node000002" class="edge">
<title>Node5&#45;&gt;Node2</title>
<g id="a_edge9_Node000005_Node000002"><a xlink:title=" ">
<path fill="none" stroke="#63b8ff" d="M216,-163.02C228.89,-179.95 258.02,-215.5 290,-236.5 292.94,-238.43 296.05,-240.24 299.25,-241.94"/>
<polygon fill="#63b8ff" stroke="#63b8ff" points="297.94,-245.19 308.46,-246.42 301,-238.9 297.94,-245.19"/>
</a>
</g>
</g>
<!-- Node6 -->
<g id="Node000006" class="node">
<title>Node6</title>
<g id="a_Node000006"><a xlink:href="classAP__HAL_1_1GPIO.html#a300db0769404d070d920a1400b8acb2f" target="_top" xlink:title=" ">
<polygon fill="white" stroke="#666666" points="420.5,-228 292.5,-228 292.5,-209 420.5,-209 420.5,-228"/>
<text text-anchor="middle" x="356.5" y="-216" font-family="Helvetica,sans-Serif" font-size="10.00">AP_HAL::GPIO::channel</text>
</a>
</g>
</g>
<!-- Node5&#45;&gt;Node6 -->
<g id="edge5_Node000005_Node000006" class="edge">
<title>Node5&#45;&gt;Node6</title>
<g id="a_edge5_Node000005_Node000006"><a xlink:title=" ">
<path fill="none" stroke="#63b8ff" d="M223.4,-163.06C239.2,-173.21 265.57,-189.19 290,-199.5 295.45,-201.8 301.27,-203.93 307.1,-205.86"/>
<polygon fill="#63b8ff" stroke="#63b8ff" points="306.29,-209.27 316.88,-208.93 308.38,-202.59 306.29,-209.27"/>
</a>
</g>
</g>
<!-- Node7 -->
<g id="Node000007" class="node">
<title>Node7</title>
<g id="a_Node000007"><a xlink:href="classAP__HAL_1_1DigitalSource.html#af16b96dab1499f30659a1fd892df6c2d" target="_top" xlink:title=" ">
<polygon fill="white" stroke="#666666" points="419,-190.5 294,-190.5 294,-160.5 419,-160.5 419,-190.5"/>
<text text-anchor="start" x="302" y="-178.5" font-family="Helvetica,sans-Serif" font-size="10.00">AP_HAL::DigitalSource</text>
<text text-anchor="middle" x="356.5" y="-167.5" font-family="Helvetica,sans-Serif" font-size="10.00">::mode</text>
</a>
</g>
</g>
<!-- Node5&#45;&gt;Node7 -->
<g id="edge6_Node000005_Node000007" class="edge">
<title>Node5&#45;&gt;Node7</title>
<g id="a_edge6_Node000005_Node000007"><a xlink:title=" ">
<path fill="none" stroke="#63b8ff" d="M254.15,-160.28C263.55,-161.69 273.67,-163.21 283.75,-164.73"/>
<polygon fill="#63b8ff" stroke="#63b8ff" points="283.39,-168.21 293.79,-166.23 284.43,-161.29 283.39,-168.21"/>
</a>
</g>
</g>
<!-- Node8 -->
<g id="Node000008" class="node">
<title>Node8</title>
<g id="a_Node000008"><a xlink:href="GPIOTest_8cpp.html#a1b0f4354337c3e6a8081e95d64182bfa" target="_top" xlink:title=" ">
<polygon fill="white" stroke="#666666" points="423,-142 290,-142 290,-123 423,-123 423,-142"/>
<text text-anchor="middle" x="356.5" y="-130" font-family="Helvetica,sans-Serif" font-size="10.00">parse_gpio_pin_number</text>
</a>
</g>
</g>
<!-- Node5&#45;&gt;Node8 -->
<g id="edge7_Node000005_Node000008" class="edge">
<title>Node5&#45;&gt;Node8</title>
<g id="a_edge7_Node000005_Node000008"><a xlink:title=" ">
<path fill="none" stroke="#63b8ff" d="M254.15,-147.03C262.34,-145.85 271.07,-144.6 279.86,-143.34"/>
<polygon fill="#63b8ff" stroke="#63b8ff" points="280.36,-146.81 289.76,-141.92 279.37,-139.88 280.36,-146.81"/>
</a>
</g>
</g>
<!-- Node9 -->
<g id="Node000009" class="node">
<title>Node9</title>
<g id="a_Node000009"><a xlink:href="classAP__HAL_1_1GPIO.html#a3dfc60214bd1aa4936d51ca72c045b95" target="_top" xlink:title=" ">
<polygon fill="white" stroke="#666666" points="422.5,-105 290.5,-105 290.5,-86 422.5,-86 422.5,-105"/>
<text text-anchor="middle" x="356.5" y="-93" font-family="Helvetica,sans-Serif" font-size="10.00">AP_HAL::GPIO::pinMode</text>
</a>
</g>
</g>
<!-- Node5&#45;&gt;Node9 -->
<g id="edge8_Node000005_Node000009" class="edge">
<title>Node5&#45;&gt;Node9</title>
<g id="a_edge8_Node000005_Node000009"><a xlink:title=" ">
<path fill="none" stroke="#63b8ff" d="M225.95,-143.94C242.06,-135.15 267.13,-122.2 290,-113.5 295.17,-111.53 300.64,-109.69 306.13,-107.98"/>
<polygon fill="#63b8ff" stroke="#63b8ff" points="307.38,-111.26 315.97,-105.05 305.39,-104.55 307.38,-111.26"/>
</a>
</g>
</g>
<!-- Node10 -->
<g id="Node000010" class="node">
<title>Node10</title>
<g id="a_Node000010"><a xlink:href="classAP__HAL_1_1DigitalSource.html#a6d155c0e1088e7b045b075c34bc2a13e" target="_top" xlink:title=" ">
<polygon fill="white" stroke="#666666" points="419,-67.5 294,-67.5 294,-37.5 419,-37.5 419,-67.5"/>
<text text-anchor="start" x="302" y="-55.5" font-family="Helvetica,sans-Serif" font-size="10.00">AP_HAL::DigitalSource</text>
<text text-anchor="middle" x="356.5" y="-44.5" font-family="Helvetica,sans-Serif" font-size="10.00">::read</text>
</a>
</g>
</g>
<!-- Node5&#45;&gt;Node10 -->
<g id="edge10_Node000005_Node000010" class="edge">
<title>Node5&#45;&gt;Node10</title>
<g id="a_edge10_Node000005_Node000010"><a xlink:title=" ">
<path fill="none" stroke="#63b8ff" d="M216.76,-143.91C230.16,-127.9 259.18,-95.64 290,-76.5 292.59,-74.89 295.31,-73.37 298.1,-71.92"/>
<polygon fill="#63b8ff" stroke="#63b8ff" points="299.67,-75.05 307.2,-67.6 296.67,-68.73 299.67,-75.05"/>
</a>
</g>
</g>
<!-- Node11 -->
<g id="Node000011" class="node">
<title>Node11</title>
<g id="a_Node000011"><a xlink:href="classAP__HAL_1_1GPIO.html#a453e2829832c783a5337849218390efc" target="_top" xlink:title=" ">
<polygon fill="white" stroke="#666666" points="412.5,-19 300.5,-19 300.5,0 412.5,0 412.5,-19"/>
<text text-anchor="middle" x="356.5" y="-7" font-family="Helvetica,sans-Serif" font-size="10.00">AP_HAL::GPIO::read</text>
</a>
</g>
</g>
<!-- Node5&#45;&gt;Node11 -->
<g id="edge11_Node000005_Node000011" class="edge">
<title>Node5&#45;&gt;Node11</title>
<g id="a_edge11_Node000005_Node000011"><a xlink:title=" ">
<path fill="none" stroke="#63b8ff" d="M212.56,-143.67C221.62,-120.06 247.87,-59.81 290,-28.5 292.61,-26.56 295.42,-24.81 298.35,-23.25"/>
<polygon fill="#63b8ff" stroke="#63b8ff" points="299.82,-26.43 307.44,-19.06 296.89,-20.07 299.82,-26.43"/>
</a>
</g>
</g>
</g>
</svg>

<g id="navigator" transform="translate(0 0)" fill="#404254">
  <rect fill="#f2f5e9" fill-opacity="0.5" stroke="#606060" stroke-width=".5" x="0" y="0" width="60" height="60"/>
  <use id="zoomplus" xlink:href="#zoomPlus" x="17" y="9" onmousedown="handleZoom(evt,'in')"/>
  <use id="zoomminus" xlink:href="#zoomMin" x="42" y="9" onmousedown="handleZoom(evt,'out')"/>
  <use id="reset" xlink:href="#resetDef" x="30" y="36" onmousedown="handleReset()"/>
   <use id="arrowup" xlink:href="#arrowUp" x="0" y="0" onmousedown="handlePan(0,-1)"/>
  <use id="arrowright" xlink:href="#arrowRight" x="0" y="0" onmousedown="handlePan(1,0)"/>
  <use id="arrowdown" xlink:href="#arrowDown" x="0" y="0" onmousedown="handlePan(0,1)"/>
  <use id="arrowleft" xlink:href="#arrowLeft" x="0" y="0" onmousedown="handlePan(-1,0)"/>
</g>
<svg viewBox="0 0 15 15" width="100%" height="30px" preserveAspectRatio="xMaxYMin meet">
 <g id="arrow_out" transform="scale(0.3 0.3)">
  <a xlink:href="classMenuCommands_af2f117fe69798ce05ef750b9ab49ef41_cgraph_org.svg" target="_base">
   <rect id="button" ry="5" rx="5" y="6" x="6" height="38" width="38"
        fill="#f2f5e9" fill-opacity="0.5" stroke="#606060" stroke-width="1.0"/>
   <path id="arrow"
     d="M 11.500037,31.436501 C 11.940474,20.09759 22.043105,11.32322 32.158766,21.979434 L 37.068811,17.246167 C 37.068811,17.246167 37.088388,32 37.088388,32 L 22.160133,31.978069 C 22.160133,31.978069 26.997745,27.140456 26.997745,27.140456 C 18.528582,18.264221 13.291696,25.230495 11.500037,31.436501 z"
     style="fill:#404040;"/>
  </a>
 </g>
</svg>

<style type='text/css'>
<![CDATA[
[data-mouse-over-selected='false'] { opacity: 0.7; }
[data-mouse-over-selected='true']  { opacity: 1.0; }
]]>
</style>
<script type="application/ecmascript"><![CDATA[
document.addEventListener('DOMContentLoaded', (event) => {
  highlightEdges();
  highlightAdjacentNodes();
});
]]></script>
</svg>
