<?xml version="1.0" encoding="UTF-8" standalone="no"?>
<!DOCTYPE svg PUBLIC "-//W3C//DTD SVG 1.1//EN"
 "http://www.w3.org/Graphics/SVG/1.1/DTD/svg11.dtd">
<!-- Generated by graphviz version 2.43.0 (0)
 -->
<!-- Title: AP_Motors6DOF::setup_motors Pages: 1 -->
<svg width="1518pt" height="265pt"
 viewBox="0.00 0.00 1518.00 264.50" xmlns="http://www.w3.org/2000/svg" xmlns:xlink="http://www.w3.org/1999/xlink">
<g id="graph0" class="graph" transform="scale(1 1) rotate(0) translate(4 260.5)">
<title>AP_Motors6DOF::setup_motors</title>
<!-- Node1 -->
<g id="Node000001" class="node">
<title>Node1</title>
<g id="a_Node000001"><a xlink:title=" ">
<polygon fill="#999999" stroke="#666666" points="128,-120 0,-120 0,-90 128,-90 128,-120"/>
<text text-anchor="start" x="8" y="-108" font-family="Helvetica,sans-Serif" font-size="10.00">AP_Motors6DOF::setup</text>
<text text-anchor="middle" x="64" y="-97" font-family="Helvetica,sans-Serif" font-size="10.00">_motors</text>
</a>
</g>
</g>
<!-- Node2 -->
<g id="Node000002" class="node">
<title>Node2</title>
<g id="a_Node000002"><a xlink:href="classAP__Motors6DOF.html#ac454275ad3ea3fc58279921e7fccd487" target="_top" xlink:title=" ">
<polygon fill="white" stroke="#666666" points="295,-144 176,-144 176,-114 295,-114 295,-144"/>
<text text-anchor="start" x="184" y="-132" font-family="Helvetica,sans-Serif" font-size="10.00">AP_Motors6DOF::add</text>
<text text-anchor="middle" x="235.5" y="-121" font-family="Helvetica,sans-Serif" font-size="10.00">_motor_raw_6dof</text>
</a>
</g>
</g>
<!-- Node1&#45;&gt;Node2 -->
<g id="edge1_Node000001_Node000002" class="edge">
<title>Node1&#45;&gt;Node2</title>
<g id="a_edge1_Node000001_Node000002"><a xlink:title=" ">
<path fill="none" stroke="#63b8ff" d="M128.12,-113.94C140.32,-115.67 153.17,-117.48 165.55,-119.24"/>
<polygon fill="#63b8ff" stroke="#63b8ff" points="165.43,-122.75 175.82,-120.69 166.41,-115.82 165.43,-122.75"/>
</a>
</g>
</g>
<!-- Node20 -->
<g id="Node000020" class="node">
<title>Node20</title>
<g id="a_Node000020"><a xlink:href="classAP__MotorsMatrix.html#a586b776b1ea64bb0590a50997d17dcb1" target="_top" xlink:title=" ">
<polygon fill="white" stroke="#666666" points="307,-96 164,-96 164,-66 307,-66 307,-96"/>
<text text-anchor="start" x="172" y="-84" font-family="Helvetica,sans-Serif" font-size="10.00">AP_MotorsMatrix::remove</text>
<text text-anchor="middle" x="235.5" y="-73" font-family="Helvetica,sans-Serif" font-size="10.00">_motor</text>
</a>
</g>
</g>
<!-- Node1&#45;&gt;Node20 -->
<g id="edge22_Node000001_Node000020" class="edge">
<title>Node1&#45;&gt;Node20</title>
<g id="a_edge22_Node000001_Node000020"><a xlink:title=" ">
<path fill="none" stroke="#63b8ff" d="M128.12,-96.06C136.5,-94.88 145.2,-93.64 153.83,-92.42"/>
<polygon fill="#63b8ff" stroke="#63b8ff" points="154.51,-95.86 163.92,-90.99 153.53,-88.93 154.51,-95.86"/>
</a>
</g>
</g>
<!-- Node3 -->
<g id="Node000003" class="node">
<title>Node3</title>
<g id="a_Node000003"><a xlink:href="classAP__MotorsMatrix.html#a81e02421fa8fe6e51d4dcac257ea6bb3" target="_top" xlink:title=" ">
<polygon fill="white" stroke="#666666" points="467,-144 343,-144 343,-114 467,-114 467,-144"/>
<text text-anchor="start" x="351" y="-132" font-family="Helvetica,sans-Serif" font-size="10.00">AP_MotorsMatrix::add</text>
<text text-anchor="middle" x="405" y="-121" font-family="Helvetica,sans-Serif" font-size="10.00">_motor_raw</text>
</a>
</g>
</g>
<!-- Node2&#45;&gt;Node3 -->
<g id="edge2_Node000002_Node000003" class="edge">
<title>Node2&#45;&gt;Node3</title>
<g id="a_edge2_Node000002_Node000003"><a xlink:title=" ">
<path fill="none" stroke="#63b8ff" d="M295.08,-129C307.29,-129 320.29,-129 332.89,-129"/>
<polygon fill="#63b8ff" stroke="#63b8ff" points="332.89,-132.5 342.89,-129 332.89,-125.5 332.89,-132.5"/>
</a>
</g>
</g>
<!-- Node4 -->
<g id="Node000004" class="node">
<title>Node4</title>
<g id="a_Node000004"><a xlink:href="classAP__Motors.html#ad0a73edfaa0d7b5c4f325a823c7781f4" target="_top" xlink:title=" ">
<polygon fill="white" stroke="#666666" points="657,-157.5 503,-157.5 503,-138.5 657,-138.5 657,-157.5"/>
<text text-anchor="middle" x="580" y="-145.5" font-family="Helvetica,sans-Serif" font-size="10.00">AP_Motors::add_motor_num</text>
</a>
</g>
</g>
<!-- Node3&#45;&gt;Node4 -->
<g id="edge3_Node000003_Node000004" class="edge">
<title>Node3&#45;&gt;Node4</title>
<g id="a_edge3_Node000003_Node000004"><a xlink:title=" ">
<path fill="none" stroke="#63b8ff" d="M467.48,-135.75C475.72,-136.66 484.29,-137.6 492.85,-138.54"/>
<polygon fill="#63b8ff" stroke="#63b8ff" points="492.56,-142.03 502.88,-139.64 493.32,-135.07 492.56,-142.03"/>
</a>
</g>
</g>
<!-- Node19 -->
<g id="Node000019" class="node">
<title>Node19</title>
<g id="a_Node000019"><a xlink:href="classAP__Motors.html#a1d624c6828c0843a8475a122d47afaac" target="_top" xlink:title=" ">
<polygon fill="white" stroke="#666666" points="650,-120.5 510,-120.5 510,-101.5 650,-101.5 650,-120.5"/>
<text text-anchor="middle" x="580" y="-108.5" font-family="Helvetica,sans-Serif" font-size="10.00">AP_Motors::initialised_ok</text>
</a>
</g>
</g>
<!-- Node3&#45;&gt;Node19 -->
<g id="edge21_Node000003_Node000019" class="edge">
<title>Node3&#45;&gt;Node19</title>
<g id="a_edge21_Node000003_Node000019"><a xlink:title=" ">
<path fill="none" stroke="#63b8ff" d="M467.48,-122.6C477.86,-121.52 488.76,-120.39 499.52,-119.27"/>
<polygon fill="#63b8ff" stroke="#63b8ff" points="500.18,-122.72 509.77,-118.2 499.46,-115.76 500.18,-122.72"/>
</a>
</g>
</g>
<!-- Node5 -->
<g id="Node000005" class="node">
<title>Node5</title>
<g id="a_Node000005"><a xlink:href="classSRV__Channels.html#acab9e1aba9fcbde6e598169af5b3181f" target="_top" xlink:title=" ">
<polygon fill="white" stroke="#666666" points="836,-187 693,-187 693,-157 836,-157 836,-187"/>
<text text-anchor="start" x="701" y="-175" font-family="Helvetica,sans-Serif" font-size="10.00">SRV_Channels::get_motor</text>
<text text-anchor="middle" x="764.5" y="-164" font-family="Helvetica,sans-Serif" font-size="10.00">_function</text>
</a>
</g>
</g>
<!-- Node4&#45;&gt;Node5 -->
<g id="edge4_Node000004_Node000005" class="edge">
<title>Node4&#45;&gt;Node5</title>
<g id="a_edge4_Node000004_Node000005"><a xlink:title=" ">
<path fill="none" stroke="#63b8ff" d="M653.39,-157.52C663.07,-158.79 673.04,-160.1 682.84,-161.39"/>
<polygon fill="#63b8ff" stroke="#63b8ff" points="682.61,-164.89 692.98,-162.73 683.53,-157.95 682.61,-164.89"/>
</a>
</g>
</g>
<!-- Node6 -->
<g id="Node000006" class="node">
<title>Node6</title>
<g id="a_Node000006"><a xlink:href="classSRV__Channels.html#a97577ca02c12e3b851cd5d563d32b640" target="_top" xlink:title=" ">
<polygon fill="white" stroke="#666666" points="830,-139 699,-139 699,-109 830,-109 830,-139"/>
<text text-anchor="start" x="707" y="-127" font-family="Helvetica,sans-Serif" font-size="10.00">SRV_Channels::set_aux</text>
<text text-anchor="middle" x="764.5" y="-116" font-family="Helvetica,sans-Serif" font-size="10.00">_channel_default</text>
</a>
</g>
</g>
<!-- Node4&#45;&gt;Node6 -->
<g id="edge5_Node000004_Node000006" class="edge">
<title>Node4&#45;&gt;Node6</title>
<g id="a_edge5_Node000004_Node000006"><a xlink:title=" ">
<path fill="none" stroke="#63b8ff" d="M653.39,-138.48C665.01,-136.95 677.06,-135.37 688.74,-133.83"/>
<polygon fill="#63b8ff" stroke="#63b8ff" points="689.43,-137.27 698.88,-132.5 688.51,-130.33 689.43,-137.27"/>
</a>
</g>
</g>
<!-- Node7 -->
<g id="Node000007" class="node">
<title>Node7</title>
<g id="a_Node000007"><a xlink:href="classSRV__Channel.html#aadaab2dbeb62aa6f7b42eb39bf4f2430" target="_top" xlink:title=" ">
<polygon fill="white" stroke="#666666" points="1339,-244 1202,-244 1202,-214 1339,-214 1339,-244"/>
<text text-anchor="start" x="1210" y="-232" font-family="Helvetica,sans-Serif" font-size="10.00">SRV_Channel::aux_servo</text>
<text text-anchor="middle" x="1270.5" y="-221" font-family="Helvetica,sans-Serif" font-size="10.00">_function_setup</text>
</a>
</g>
</g>
<!-- Node6&#45;&gt;Node7 -->
<g id="edge6_Node000006_Node000007" class="edge">
<title>Node6&#45;&gt;Node7</title>
<g id="a_edge6_Node000006_Node000007"><a xlink:title=" ">
<path fill="none" stroke="#63b8ff" d="M820.09,-139.17C825.68,-141.71 831.09,-144.64 836,-148 856.56,-162.09 850.73,-178.01 872,-191 969.65,-250.62 1106.61,-249.16 1191.6,-240.6"/>
<polygon fill="#63b8ff" stroke="#63b8ff" points="1192.13,-244.06 1201.7,-239.52 1191.39,-237.1 1192.13,-244.06"/>
</a>
</g>
</g>
<!-- Node10 -->
<g id="Node000010" class="node">
<title>Node10</title>
<g id="a_Node000010"><a xlink:href="classSRV__Channels.html#a378e0022237c196e6107c9e79f340285" target="_top" xlink:title=" ">
<polygon fill="white" stroke="#666666" points="1004,-182 872,-182 872,-152 1004,-152 1004,-182"/>
<text text-anchor="start" x="880" y="-170" font-family="Helvetica,sans-Serif" font-size="10.00">SRV_Channels::function</text>
<text text-anchor="middle" x="938" y="-159" font-family="Helvetica,sans-Serif" font-size="10.00">_assigned</text>
</a>
</g>
</g>
<!-- Node6&#45;&gt;Node10 -->
<g id="edge9_Node000006_Node000010" class="edge">
<title>Node6&#45;&gt;Node10</title>
<g id="a_edge9_Node000006_Node000010"><a xlink:title=" ">
<path fill="none" stroke="#63b8ff" d="M825.48,-139.04C838.93,-142.41 853.31,-146.02 867.12,-149.48"/>
<polygon fill="#63b8ff" stroke="#63b8ff" points="866.5,-152.93 877.05,-151.97 868.2,-146.14 866.5,-152.93"/>
</a>
</g>
</g>
<!-- Node14 -->
<g id="Node000014" class="node">
<title>Node14</title>
<g id="a_Node000014"><a xlink:href="classBitmask.html#a6d942e61abc55c452b001b11dadf8a18" target="_top" xlink:title=" ">
<polygon fill="white" stroke="#666666" points="1309.5,-136.5 1231.5,-136.5 1231.5,-117.5 1309.5,-117.5 1309.5,-136.5"/>
<text text-anchor="middle" x="1270.5" y="-124.5" font-family="Helvetica,sans-Serif" font-size="10.00">Bitmask::set</text>
</a>
</g>
</g>
<!-- Node6&#45;&gt;Node14 -->
<g id="edge18_Node000006_Node000014" class="edge">
<title>Node6&#45;&gt;Node14</title>
<g id="a_edge18_Node000006_Node000014"><a xlink:title=" ">
<path fill="none" stroke="#63b8ff" d="M830.1,-124.38C932.53,-124.99 1129.94,-126.17 1221.14,-126.71"/>
<polygon fill="#63b8ff" stroke="#63b8ff" points="1221.18,-130.21 1231.2,-126.77 1221.22,-123.21 1221.18,-130.21"/>
</a>
</g>
</g>
<!-- Node15 -->
<g id="Node000015" class="node">
<title>Node15</title>
<g id="a_Node000015"><a xlink:href="classAP__HAL_1_1BetterStream.html#a8534aa004599bb81ad60f3e762791032" target="_top" xlink:title=" ">
<polygon fill="white" stroke="#666666" points="1000.5,-96 875.5,-96 875.5,-66 1000.5,-66 1000.5,-96"/>
<text text-anchor="start" x="883.5" y="-84" font-family="Helvetica,sans-Serif" font-size="10.00">AP_HAL::BetterStream</text>
<text text-anchor="middle" x="938" y="-73" font-family="Helvetica,sans-Serif" font-size="10.00">::printf</text>
</a>
</g>
</g>
<!-- Node6&#45;&gt;Node15 -->
<g id="edge15_Node000006_Node000015" class="edge">
<title>Node6&#45;&gt;Node15</title>
<g id="a_edge15_Node000006_Node000015"><a xlink:title=" ">
<path fill="none" stroke="#63b8ff" d="M825.48,-108.96C838.93,-105.59 853.31,-101.98 867.12,-98.52"/>
<polygon fill="#63b8ff" stroke="#63b8ff" points="868.2,-101.86 877.05,-96.03 866.5,-95.07 868.2,-101.86"/>
</a>
</g>
</g>
<!-- Node18 -->
<g id="Node000018" class="node">
<title>Node18</title>
<g id="a_Node000018"><a xlink:href="classSRV__Channel.html#a6513c5f2557abb57749eda85c632e213" target="_top" xlink:title=" ">
<polygon fill="white" stroke="#666666" points="993.5,-30 882.5,-30 882.5,0 993.5,0 993.5,-30"/>
<text text-anchor="start" x="890.5" y="-18" font-family="Helvetica,sans-Serif" font-size="10.00">SRV_Channel::valid</text>
<text text-anchor="middle" x="938" y="-7" font-family="Helvetica,sans-Serif" font-size="10.00">_function</text>
</a>
</g>
</g>
<!-- Node6&#45;&gt;Node18 -->
<g id="edge19_Node000006_Node000018" class="edge">
<title>Node6&#45;&gt;Node18</title>
<g id="a_edge19_Node000006_Node000018"><a xlink:title=" ">
<path fill="none" stroke="#63b8ff" d="M789.35,-108.84C819.42,-89.73 871.26,-56.78 904.82,-35.45"/>
<polygon fill="#63b8ff" stroke="#63b8ff" points="906.79,-38.35 913.36,-30.03 903.04,-32.44 906.79,-38.35"/>
</a>
</g>
</g>
<!-- Node8 -->
<g id="Node000008" class="node">
<title>Node8</title>
<g id="a_Node000008"><a xlink:href="classSRV__Channel.html#aaf3193d70a486747bfbc9c6398cff261" target="_top" xlink:title=" ">
<polygon fill="white" stroke="#666666" points="1509.5,-256.5 1375.5,-256.5 1375.5,-237.5 1509.5,-237.5 1509.5,-256.5"/>
<text text-anchor="middle" x="1442.5" y="-244.5" font-family="Helvetica,sans-Serif" font-size="10.00">SRV_Channel::set_angle</text>
</a>
</g>
</g>
<!-- Node7&#45;&gt;Node8 -->
<g id="edge7_Node000007_Node000008" class="edge">
<title>Node7&#45;&gt;Node8</title>
<g id="a_edge7_Node000007_Node000008"><a xlink:title=" ">
<path fill="none" stroke="#63b8ff" d="M1339.18,-236.17C1347.76,-237.07 1356.59,-238.01 1365.3,-238.93"/>
<polygon fill="#63b8ff" stroke="#63b8ff" points="1365.13,-242.43 1375.44,-240.01 1365.87,-235.47 1365.13,-242.43"/>
</a>
</g>
</g>
<!-- Node9 -->
<g id="Node000009" class="node">
<title>Node9</title>
<g id="a_Node000009"><a xlink:href="classSRV__Channel.html#a04f5baeec785c9f696798fa4a6c7d6ce" target="_top" xlink:title=" ">
<polygon fill="white" stroke="#666666" points="1510,-219.5 1375,-219.5 1375,-200.5 1510,-200.5 1510,-219.5"/>
<text text-anchor="middle" x="1442.5" y="-207.5" font-family="Helvetica,sans-Serif" font-size="10.00">SRV_Channel::set_range</text>
</a>
</g>
</g>
<!-- Node7&#45;&gt;Node9 -->
<g id="edge8_Node000007_Node000009" class="edge">
<title>Node7&#45;&gt;Node9</title>
<g id="a_edge8_Node000007_Node000009"><a xlink:title=" ">
<path fill="none" stroke="#63b8ff" d="M1339.18,-221.44C1347.63,-220.49 1356.32,-219.52 1364.9,-218.56"/>
<polygon fill="#63b8ff" stroke="#63b8ff" points="1365.34,-222.03 1374.89,-217.44 1364.56,-215.08 1365.34,-222.03"/>
</a>
</g>
</g>
<!-- Node11 -->
<g id="Node000011" class="node">
<title>Node11</title>
<g id="a_Node000011"><a xlink:href="classBitmask.html#a0be34bb49dbf06972c4a16c0b12cd846" target="_top" xlink:title=" ">
<polygon fill="white" stroke="#666666" points="1142.5,-219.5 1063.5,-219.5 1063.5,-200.5 1142.5,-200.5 1142.5,-219.5"/>
<text text-anchor="middle" x="1103" y="-207.5" font-family="Helvetica,sans-Serif" font-size="10.00">Bitmask::get</text>
</a>
</g>
</g>
<!-- Node10&#45;&gt;Node11 -->
<g id="edge10_Node000010_Node000011" class="edge">
<title>Node10&#45;&gt;Node11</title>
<g id="a_edge10_Node000010_Node000011"><a xlink:title=" ">
<path fill="none" stroke="#63b8ff" d="M996.01,-182.04C1015.62,-187.21 1037.32,-192.94 1055.94,-197.85"/>
<polygon fill="#63b8ff" stroke="#63b8ff" points="1055.1,-201.25 1065.66,-200.41 1056.88,-194.48 1055.1,-201.25"/>
</a>
</g>
</g>
<!-- Node12 -->
<g id="Node000012" class="node">
<title>Node12</title>
<g id="a_Node000012"><a xlink:href="classSRV__Channels.html#a2bce803f8a1de705be47d8cf7a46584c" target="_top" xlink:title="setup the output range types of all functions">
<polygon fill="white" stroke="#666666" points="1166,-182 1040,-182 1040,-152 1166,-152 1166,-182"/>
<text text-anchor="start" x="1048" y="-170" font-family="Helvetica,sans-Serif" font-size="10.00">SRV_Channels::update</text>
<text text-anchor="middle" x="1103" y="-159" font-family="Helvetica,sans-Serif" font-size="10.00">_aux_servo_function</text>
</a>
</g>
</g>
<!-- Node10&#45;&gt;Node12 -->
<g id="edge11_Node000010_Node000012" class="edge">
<title>Node10&#45;&gt;Node12</title>
<g id="a_edge11_Node000010_Node000012"><a xlink:title=" ">
<path fill="none" stroke="#63b8ff" d="M1004.36,-167C1012.67,-167 1021.22,-167 1029.63,-167"/>
<polygon fill="#63b8ff" stroke="#63b8ff" points="1029.8,-170.5 1039.8,-167 1029.8,-163.5 1029.8,-170.5"/>
</a>
</g>
</g>
<!-- Node12&#45;&gt;Node7 -->
<g id="edge12_Node000012_Node000007" class="edge">
<title>Node12&#45;&gt;Node7</title>
<g id="a_edge12_Node000012_Node000007"><a xlink:title=" ">
<path fill="none" stroke="#63b8ff" d="M1144.06,-182.01C1166.87,-190.55 1195.62,-201.32 1219.85,-210.4"/>
<polygon fill="#63b8ff" stroke="#63b8ff" points="1218.64,-213.68 1229.23,-213.91 1221.1,-207.13 1218.64,-213.68"/>
</a>
</g>
</g>
<!-- Node13 -->
<g id="Node000013" class="node">
<title>Node13</title>
<g id="a_Node000013"><a xlink:href="classBitmask.html#ab753bfb6058f8a60e523c949802f3823" target="_top" xlink:title=" ">
<polygon fill="white" stroke="#666666" points="1320,-176.5 1221,-176.5 1221,-157.5 1320,-157.5 1320,-176.5"/>
<text text-anchor="middle" x="1270.5" y="-164.5" font-family="Helvetica,sans-Serif" font-size="10.00">Bitmask::clearall</text>
</a>
</g>
</g>
<!-- Node12&#45;&gt;Node13 -->
<g id="edge13_Node000012_Node000013" class="edge">
<title>Node12&#45;&gt;Node13</title>
<g id="a_edge13_Node000012_Node000013"><a xlink:title=" ">
<path fill="none" stroke="#63b8ff" d="M1166.1,-167C1180.64,-167 1196.09,-167 1210.49,-167"/>
<polygon fill="#63b8ff" stroke="#63b8ff" points="1210.76,-170.5 1220.76,-167 1210.76,-163.5 1210.76,-170.5"/>
</a>
</g>
</g>
<!-- Node12&#45;&gt;Node14 -->
<g id="edge14_Node000012_Node000014" class="edge">
<title>Node12&#45;&gt;Node14</title>
<g id="a_edge14_Node000012_Node000014"><a xlink:title=" ">
<path fill="none" stroke="#63b8ff" d="M1166.1,-151.99C1184.35,-147.58 1204.02,-142.82 1221.27,-138.66"/>
<polygon fill="#63b8ff" stroke="#63b8ff" points="1222.21,-142.03 1231.11,-136.28 1220.57,-135.23 1222.21,-142.03"/>
</a>
</g>
</g>
<!-- Node16 -->
<g id="Node000016" class="node">
<title>Node16</title>
<g id="a_Node000016"><a xlink:href="classAP__HAL_1_1BetterStream.html#aa730be451d385d7ba03ee9677e6d91a2" target="_top" xlink:title=" ">
<polygon fill="white" stroke="#666666" points="1165.5,-96 1040.5,-96 1040.5,-66 1165.5,-66 1165.5,-96"/>
<text text-anchor="start" x="1048.5" y="-84" font-family="Helvetica,sans-Serif" font-size="10.00">AP_HAL::BetterStream</text>
<text text-anchor="middle" x="1103" y="-73" font-family="Helvetica,sans-Serif" font-size="10.00">::vprintf</text>
</a>
</g>
</g>
<!-- Node15&#45;&gt;Node16 -->
<g id="edge16_Node000015_Node000016" class="edge">
<title>Node15&#45;&gt;Node16</title>
<g id="a_edge16_Node000015_Node000016"><a xlink:title=" ">
<path fill="none" stroke="#63b8ff" d="M1000.62,-81C1010.26,-81 1020.29,-81 1030.13,-81"/>
<polygon fill="#63b8ff" stroke="#63b8ff" points="1030.29,-84.5 1040.29,-81 1030.29,-77.5 1030.29,-84.5"/>
</a>
</g>
</g>
<!-- Node17 -->
<g id="Node000017" class="node">
<title>Node17</title>
<g id="a_Node000017"><a xlink:href="test__expandingstring__failure_8cpp.html#a98e0d5bb436a207f576379beaa786040" target="_top" xlink:title=" ">
<polygon fill="white" stroke="#666666" points="1309,-90.5 1232,-90.5 1232,-71.5 1309,-71.5 1309,-90.5"/>
<text text-anchor="middle" x="1270.5" y="-78.5" font-family="Helvetica,sans-Serif" font-size="10.00">print_vprintf</text>
</a>
</g>
</g>
<!-- Node16&#45;&gt;Node17 -->
<g id="edge17_Node000016_Node000017" class="edge">
<title>Node16&#45;&gt;Node17</title>
<g id="a_edge17_Node000016_Node000017"><a xlink:title=" ">
<path fill="none" stroke="#63b8ff" d="M1165.63,-81C1184.04,-81 1203.96,-81 1221.38,-81"/>
<polygon fill="#63b8ff" stroke="#63b8ff" points="1221.86,-84.5 1231.86,-81 1221.86,-77.5 1221.86,-84.5"/>
</a>
</g>
</g>
<!-- Node18&#45;&gt;Node18 -->
<g id="edge20_Node000018_Node000018" class="edge">
<title>Node18&#45;&gt;Node18</title>
<g id="a_edge20_Node000018_Node000018"><a xlink:title=" ">
<path fill="none" stroke="#63b8ff" d="M909.17,-30.28C902.77,-39.41 912.38,-48 938,-48 953.21,-48 962.78,-44.97 966.71,-40.6"/>
<polygon fill="#63b8ff" stroke="#63b8ff" points="970.21,-40.32 966.83,-30.28 963.21,-40.23 970.21,-40.32"/>
</a>
</g>
</g>
</g>
</svg>
