<?xml version="1.0" encoding="UTF-8" standalone="no"?>
<!DOCTYPE svg PUBLIC "-//W3C//DTD SVG 1.1//EN"
 "http://www.w3.org/Graphics/SVG/1.1/DTD/svg11.dtd">
<!-- Generated by graphviz version 2.43.0 (0)
 -->
<!-- Title: AP_GPS_Backend Pages: 1 -->
<svg width="790pt" height="616pt"
 viewBox="0.00 0.00 790.00 615.86" xmlns="http://www.w3.org/2000/svg" xmlns:xlink="http://www.w3.org/1999/xlink">
<g id="graph0" class="graph" transform="scale(1 1) rotate(0) translate(4 611.86)">
<title>AP_GPS_Backend</title>
<!-- Node1 -->
<g id="Node000001" class="node">
<title>Node1</title>
<g id="a_Node000001"><a xlink:title=" ">
<polygon fill="#999999" stroke="#666666" points="607,-522.36 506,-522.36 506,-503.36 607,-503.36 607,-522.36"/>
<text text-anchor="middle" x="556.5" y="-510.36" font-family="Helvetica,sans-Serif" font-size="10.00">AP_GPS_Backend</text>
</a>
</g>
</g>
<!-- Node4 -->
<g id="Node000004" class="node">
<title>Node4</title>
<g id="a_Node000004"><a xlink:href="classAP__GPS.html" target="_top" xlink:title=" ">
<polygon fill="white" stroke="#666666" points="782,-362.36 728,-362.36 728,-343.36 782,-343.36 782,-362.36"/>
<text text-anchor="middle" x="755" y="-350.36" font-family="Helvetica,sans-Serif" font-size="10.00">AP_GPS</text>
</a>
</g>
</g>
<!-- Node1&#45;&gt;Node4 -->
<g id="edge15_Node000004_Node000001" class="edge">
<title>Node1&#45;&gt;Node4</title>
<g id="a_edge15_Node000004_Node000001"><a xlink:title=" ">
<path fill="none" stroke="#9a32cd" stroke-dasharray="5,2" d="M617.48,-518.43C648.39,-518.08 684.78,-512.21 710,-490.86 749.72,-457.21 753.97,-387.75 754.15,-362.39"/>
<polygon fill="#9a32cd" stroke="#9a32cd" points="617.26,-514.93 607.24,-518.36 617.21,-521.93 617.26,-514.93"/>
</a>
</g>
<text text-anchor="middle" x="678" y="-517.86" font-family="Helvetica,sans-Serif" font-size="10.00" fill="grey"> drivers</text>
</g>
<!-- Node2 -->
<g id="Node000002" class="node">
<title>Node2</title>
<g id="a_Node000002"><a xlink:href="classAP__HAL_1_1UARTDriver.html" target="_top" xlink:title=" ">
<polygon fill="white" stroke="#666666" points="321.5,-570.36 205.5,-570.36 205.5,-551.36 321.5,-551.36 321.5,-570.36"/>
<text text-anchor="middle" x="263.5" y="-558.36" font-family="Helvetica,sans-Serif" font-size="10.00">AP_HAL::UARTDriver</text>
</a>
</g>
</g>
<!-- Node2&#45;&gt;Node1 -->
<g id="edge1_Node000001_Node000002" class="edge">
<title>Node2&#45;&gt;Node1</title>
<g id="a_edge1_Node000001_Node000002"><a xlink:title=" ">
<path fill="none" stroke="#9a32cd" stroke-dasharray="5,2" d="M330.52,-549.61C334.06,-549.01 337.57,-548.43 341,-547.86 397.39,-538.46 462.16,-527.93 505.64,-520.9"/>
<polygon fill="#9a32cd" stroke="#9a32cd" points="329.76,-546.19 320.48,-551.3 330.92,-553.09 329.76,-546.19"/>
</a>
</g>
<text text-anchor="middle" x="404" y="-550.86" font-family="Helvetica,sans-Serif" font-size="10.00" fill="grey"> port</text>
</g>
<!-- Node2&#45;&gt;Node4 -->
<g id="edge16_Node000004_Node000002" class="edge">
<title>Node2&#45;&gt;Node4</title>
<g id="a_edge16_Node000004_Node000002"><a xlink:title=" ">
<path fill="none" stroke="#9a32cd" stroke-dasharray="5,2" d="M307.04,-572.95C394.48,-594.98 595.78,-630.64 710,-529.86 735.64,-507.23 749.34,-396.78 752.99,-362.81"/>
<polygon fill="#9a32cd" stroke="#9a32cd" points="307.76,-569.53 297.2,-570.41 306,-576.3 307.76,-569.53"/>
</a>
</g>
<text text-anchor="middle" x="556.5" y="-599.86" font-family="Helvetica,sans-Serif" font-size="10.00" fill="grey"> _port</text>
</g>
<!-- Node3 -->
<g id="Node000003" class="node">
<title>Node3</title>
<g id="a_Node000003"><a xlink:href="classAP__HAL_1_1BetterStream.html" target="_top" xlink:title=" ">
<polygon fill="white" stroke="#666666" points="125,-570.36 0,-570.36 0,-551.36 125,-551.36 125,-570.36"/>
<text text-anchor="middle" x="62.5" y="-558.36" font-family="Helvetica,sans-Serif" font-size="10.00">AP_HAL::BetterStream</text>
</a>
</g>
</g>
<!-- Node3&#45;&gt;Node2 -->
<g id="edge2_Node000002_Node000003" class="edge">
<title>Node3&#45;&gt;Node2</title>
<g id="a_edge2_Node000002_Node000003"><a xlink:title=" ">
<path fill="none" stroke="#63b8ff" d="M135.17,-560.86C158.2,-560.86 183.4,-560.86 205.26,-560.86"/>
<polygon fill="#63b8ff" stroke="#63b8ff" points="135.1,-557.36 125.1,-560.86 135.1,-564.36 135.1,-557.36"/>
</a>
</g>
</g>
<!-- Node4&#45;&gt;Node1 -->
<g id="edge3_Node000001_Node000004" class="edge">
<title>Node4&#45;&gt;Node1</title>
<g id="a_edge3_Node000001_Node000004"><a xlink:title=" ">
<path fill="none" stroke="#9a32cd" stroke-dasharray="5,2" d="M750.57,-372.71C745.57,-395.92 734.11,-434.04 710,-456.86 688.05,-477.63 674.38,-469.46 646,-479.86 624.75,-487.64 600.69,-496.62 583.03,-503.24"/>
<polygon fill="#9a32cd" stroke="#9a32cd" points="754.06,-373.14 752.54,-362.65 747.19,-371.8 754.06,-373.14"/>
</a>
</g>
<text text-anchor="middle" x="678" y="-482.86" font-family="Helvetica,sans-Serif" font-size="10.00" fill="grey"> gps</text>
</g>
<!-- Node4&#45;&gt;Node4 -->
<g id="edge10_Node000004_Node000004" class="edge">
<title>Node4&#45;&gt;Node4</title>
<g id="a_edge10_Node000004_Node000004"><a xlink:title=" ">
<path fill="none" stroke="#9a32cd" stroke-dasharray="5,2" d="M741,-372.27C742.1,-376.91 746.77,-380.36 755,-380.36 768.51,-380.36 772.41,-371.09 766.71,-362.44"/>
<polygon fill="#9a32cd" stroke="#9a32cd" points="744.43,-372.97 743.29,-362.44 737.62,-371.39 744.43,-372.97"/>
</a>
</g>
<text text-anchor="middle" x="755" y="-383.36" font-family="Helvetica,sans-Serif" font-size="10.00" fill="grey"> _singleton</text>
</g>
<!-- Node5 -->
<g id="Node000005" class="node">
<title>Node5</title>
<g id="a_Node000005"><a xlink:href="structAP__Param_1_1GroupInfo.html" target="_top" xlink:title=" ">
<polygon fill="white" stroke="#666666" points="323,-370.36 204,-370.36 204,-351.36 323,-351.36 323,-370.36"/>
<text text-anchor="middle" x="263.5" y="-358.36" font-family="Helvetica,sans-Serif" font-size="10.00">AP_Param::GroupInfo</text>
</a>
</g>
</g>
<!-- Node5&#45;&gt;Node4 -->
<g id="edge4_Node000004_Node000005" class="edge">
<title>Node5&#45;&gt;Node4</title>
<g id="a_edge4_Node000004_Node000005"><a xlink:title=" ">
<path fill="none" stroke="#9a32cd" stroke-dasharray="5,2" d="M323.29,-371.87C329.26,-372.68 335.24,-373.37 341,-373.86 468.11,-384.58 500.49,-374.38 628,-370.86 664.45,-369.85 674.14,-374.48 710,-367.86 716.67,-366.62 723.7,-364.59 730.13,-362.4"/>
<polygon fill="#9a32cd" stroke="#9a32cd" points="323.72,-368.4 313.32,-370.41 322.7,-375.32 323.72,-368.4"/>
</a>
</g>
<text text-anchor="middle" x="556.5" y="-380.86" font-family="Helvetica,sans-Serif" font-size="10.00" fill="grey"> var_info</text>
</g>
<!-- Node5&#45;&gt;Node5 -->
<g id="edge5_Node000005_Node000005" class="edge">
<title>Node5&#45;&gt;Node5</title>
<g id="a_edge5_Node000005_Node000005"><a xlink:title=" ">
<path fill="none" stroke="#9a32cd" stroke-dasharray="5,2" d="M245.45,-380.27C246.87,-384.91 252.89,-388.36 263.5,-388.36 280.92,-388.36 285.95,-379.09 278.6,-370.44"/>
<polygon fill="#9a32cd" stroke="#9a32cd" points="248.88,-381.02 248.4,-370.44 242.17,-379.01 248.88,-381.02"/>
</a>
</g>
<text text-anchor="middle" x="263.5" y="-402.36" font-family="Helvetica,sans-Serif" font-size="10.00" fill="grey"> group_info</text>
<text text-anchor="middle" x="263.5" y="-391.36" font-family="Helvetica,sans-Serif" font-size="10.00" fill="grey">group_info_ptr</text>
</g>
<!-- Node8 -->
<g id="Node000008" class="node">
<title>Node8</title>
<g id="a_Node000008"><a xlink:href="classMovingBase.html" target="_top" xlink:title=" ">
<polygon fill="white" stroke="#666666" points="595,-362.36 518,-362.36 518,-343.36 595,-343.36 595,-362.36"/>
<text text-anchor="middle" x="556.5" y="-350.36" font-family="Helvetica,sans-Serif" font-size="10.00">MovingBase</text>
</a>
</g>
</g>
<!-- Node5&#45;&gt;Node8 -->
<g id="edge9_Node000008_Node000005" class="edge">
<title>Node5&#45;&gt;Node8</title>
<g id="a_edge9_Node000008_Node000005"><a xlink:title=" ">
<path fill="none" stroke="#9a32cd" stroke-dasharray="5,2" d="M333.18,-358.97C390.9,-357.38 471.23,-355.17 517.86,-353.89"/>
<polygon fill="#9a32cd" stroke="#9a32cd" points="332.94,-355.47 323.04,-359.25 333.13,-362.47 332.94,-355.47"/>
</a>
</g>
<text text-anchor="middle" x="404" y="-361.86" font-family="Helvetica,sans-Serif" font-size="10.00" fill="grey"> var_info</text>
</g>
<!-- Node6 -->
<g id="Node000006" class="node">
<title>Node6</title>
<g id="a_Node000006"><a xlink:href="classAP__Enum.html" target="_top" xlink:title=" ">
<polygon fill="white" stroke="#666666" points="628,-288.36 485,-288.36 485,-269.36 628,-269.36 628,-288.36"/>
<text text-anchor="middle" x="556.5" y="-276.36" font-family="Helvetica,sans-Serif" font-size="10.00">AP_Enum&lt; SBAS_Mode &gt;</text>
</a>
</g>
</g>
<!-- Node6&#45;&gt;Node4 -->
<g id="edge6_Node000004_Node000006" class="edge">
<title>Node6&#45;&gt;Node4</title>
<g id="a_edge6_Node000004_Node000006"><a xlink:title=" ">
<path fill="none" stroke="#9a32cd" stroke-dasharray="5,2" d="M638,-287.94C662.09,-292.83 687.95,-300.33 710,-311.86 724.81,-319.59 738.29,-333.67 746.32,-343.15"/>
<polygon fill="#9a32cd" stroke="#9a32cd" points="638.63,-284.5 628.15,-286.07 637.32,-291.38 638.63,-284.5"/>
</a>
</g>
<text text-anchor="middle" x="678" y="-314.86" font-family="Helvetica,sans-Serif" font-size="10.00" fill="grey"> _sbas_mode</text>
</g>
<!-- Node7 -->
<g id="Node000007" class="node">
<title>Node7</title>
<g id="a_Node000007"><a xlink:title=" ">
<polygon fill="white" stroke="#666666" points="290,-288.36 237,-288.36 237,-269.36 290,-269.36 290,-288.36"/>
<text text-anchor="middle" x="263.5" y="-276.36" font-family="Helvetica,sans-Serif" font-size="10.00">AP_Int8</text>
</a>
</g>
</g>
<!-- Node7&#45;&gt;Node6 -->
<g id="edge7_Node000006_Node000007" class="edge">
<title>Node7&#45;&gt;Node6</title>
<g id="a_edge7_Node000006_Node000007"><a xlink:title=" ">
<path fill="none" stroke="#63b8ff" d="M300.11,-278.86C345.88,-278.86 426.42,-278.86 484.84,-278.86"/>
<polygon fill="#63b8ff" stroke="#63b8ff" points="300.07,-275.36 290.07,-278.86 300.07,-282.36 300.07,-275.36"/>
</a>
</g>
</g>
<!-- Node8&#45;&gt;Node4 -->
<g id="edge8_Node000004_Node000008" class="edge">
<title>Node8&#45;&gt;Node4</title>
<g id="a_edge8_Node000004_Node000008"><a xlink:title=" ">
<path fill="none" stroke="#9a32cd" stroke-dasharray="5,2" d="M605.85,-352.86C644.36,-352.86 696.79,-352.86 727.84,-352.86"/>
<polygon fill="#9a32cd" stroke="#9a32cd" points="605.39,-349.36 595.39,-352.86 605.39,-356.36 605.39,-349.36"/>
</a>
</g>
<text text-anchor="middle" x="678" y="-355.86" font-family="Helvetica,sans-Serif" font-size="10.00" fill="grey"> mb_params</text>
</g>
<!-- Node9 -->
<g id="Node000009" class="node">
<title>Node9</title>
<g id="a_Node000009"><a xlink:href="structAP__GPS_1_1GPS__timing.html" target="_top" xlink:title=" ">
<polygon fill="white" stroke="#666666" points="614.5,-325.36 498.5,-325.36 498.5,-306.36 614.5,-306.36 614.5,-325.36"/>
<text text-anchor="middle" x="556.5" y="-313.36" font-family="Helvetica,sans-Serif" font-size="10.00">AP_GPS::GPS_timing</text>
</a>
</g>
</g>
<!-- Node9&#45;&gt;Node4 -->
<g id="edge11_Node000004_Node000009" class="edge">
<title>Node9&#45;&gt;Node4</title>
<g id="a_edge11_Node000004_Node000009"><a xlink:title=" ">
<path fill="none" stroke="#9a32cd" stroke-dasharray="5,2" d="M624.85,-322.84C651.57,-326.32 682.44,-331.23 710,-337.86 716.12,-339.33 722.6,-341.29 728.64,-343.32"/>
<polygon fill="#9a32cd" stroke="#9a32cd" points="625.18,-319.36 614.82,-321.58 624.31,-326.3 625.18,-319.36"/>
</a>
</g>
<text text-anchor="middle" x="678" y="-340.86" font-family="Helvetica,sans-Serif" font-size="10.00" fill="grey"> timing</text>
</g>
<!-- Node10 -->
<g id="Node000010" class="node">
<title>Node10</title>
<g id="a_Node000010"><a xlink:href="structAP__GPS_1_1GPS__State.html" target="_top" xlink:title=" ">
<polygon fill="white" stroke="#666666" points="318.5,-455.36 208.5,-455.36 208.5,-436.36 318.5,-436.36 318.5,-455.36"/>
<text text-anchor="middle" x="263.5" y="-443.36" font-family="Helvetica,sans-Serif" font-size="10.00">AP_GPS::GPS_State</text>
</a>
</g>
</g>
<!-- Node10&#45;&gt;Node1 -->
<g id="edge26_Node000001_Node000010" class="edge">
<title>Node10&#45;&gt;Node1</title>
<g id="a_edge26_Node000001_Node000010"><a xlink:title=" ">
<path fill="none" stroke="#9a32cd" stroke-dasharray="5,2" d="M315.66,-457.63C372,-470.61 461.53,-491.22 513.79,-503.25"/>
<polygon fill="#9a32cd" stroke="#9a32cd" points="316.41,-454.22 305.88,-455.38 314.84,-461.04 316.41,-454.22"/>
</a>
</g>
<text text-anchor="middle" x="404" y="-493.86" font-family="Helvetica,sans-Serif" font-size="10.00" fill="grey"> state</text>
</g>
<!-- Node10&#45;&gt;Node4 -->
<g id="edge12_Node000004_Node000010" class="edge">
<title>Node10&#45;&gt;Node4</title>
<g id="a_edge12_Node000004_Node000010"><a xlink:title=" ">
<path fill="none" stroke="#9a32cd" stroke-dasharray="5,2" d="M328.87,-446.29C417.7,-444.82 581.44,-434.61 710,-383.86 722.52,-378.91 734.87,-369.72 743.29,-362.63"/>
<polygon fill="#9a32cd" stroke="#9a32cd" points="328.63,-442.79 318.68,-446.42 328.73,-449.79 328.63,-442.79"/>
</a>
</g>
<text text-anchor="middle" x="556.5" y="-439.86" font-family="Helvetica,sans-Serif" font-size="10.00" fill="grey"> state</text>
</g>
<!-- Node11 -->
<g id="Node000011" class="node">
<title>Node11</title>
<g id="a_Node000011"><a xlink:href="classLocation.html" target="_top" xlink:title=" ">
<polygon fill="white" stroke="#666666" points="91.5,-455.36 33.5,-455.36 33.5,-436.36 91.5,-436.36 91.5,-455.36"/>
<text text-anchor="middle" x="62.5" y="-443.36" font-family="Helvetica,sans-Serif" font-size="10.00">Location</text>
</a>
</g>
</g>
<!-- Node11&#45;&gt;Node10 -->
<g id="edge13_Node000010_Node000011" class="edge">
<title>Node11&#45;&gt;Node10</title>
<g id="a_edge13_Node000010_Node000011"><a xlink:title=" ">
<path fill="none" stroke="#9a32cd" stroke-dasharray="5,2" d="M101.73,-445.86C131.97,-445.86 174.56,-445.86 208.31,-445.86"/>
<polygon fill="#9a32cd" stroke="#9a32cd" points="101.59,-442.36 91.59,-445.86 101.59,-449.36 101.59,-442.36"/>
</a>
</g>
<text text-anchor="middle" x="164.5" y="-448.86" font-family="Helvetica,sans-Serif" font-size="10.00" fill="grey"> location</text>
</g>
<!-- Node12 -->
<g id="Node000012" class="node">
<title>Node12</title>
<g id="a_Node000012"><a xlink:href="classVector3.html" target="_top" xlink:title=" ">
<polygon fill="white" stroke="#666666" points="111.5,-334.36 13.5,-334.36 13.5,-315.36 111.5,-315.36 111.5,-334.36"/>
<text text-anchor="middle" x="62.5" y="-322.36" font-family="Helvetica,sans-Serif" font-size="10.00">Vector3&lt; float &gt;</text>
</a>
</g>
</g>
<!-- Node12&#45;&gt;Node4 -->
<g id="edge25_Node000004_Node000012" class="edge">
<title>Node12&#45;&gt;Node4</title>
<g id="a_edge25_Node000004_Node000012"><a xlink:title=" ">
<path fill="none" stroke="#9a32cd" stroke-dasharray="5,2" d="M87.04,-310.07C114.07,-294.04 160.33,-269.47 204,-259.86 388.04,-219.35 441.93,-230.01 628,-259.86 665.88,-265.93 679.47,-263.62 710,-286.86 729.95,-302.03 743.77,-328.99 750.1,-343.3"/>
<polygon fill="#9a32cd" stroke="#9a32cd" points="85.07,-307.18 78.32,-315.34 88.69,-313.17 85.07,-307.18"/>
</a>
</g>
<text text-anchor="middle" x="404" y="-239.86" font-family="Helvetica,sans-Serif" font-size="10.00" fill="grey"> _blended_antenna_offset</text>
</g>
<!-- Node12&#45;&gt;Node10 -->
<g id="edge14_Node000010_Node000012" class="edge">
<title>Node12&#45;&gt;Node10</title>
<g id="a_edge14_Node000010_Node000012"><a xlink:title=" ">
<path fill="none" stroke="#9a32cd" stroke-dasharray="5,2" d="M84.5,-340.43C111.4,-360.02 159.84,-394.1 204,-418.86 215.42,-425.26 228.62,-431.45 239.59,-436.28"/>
<polygon fill="#9a32cd" stroke="#9a32cd" points="86.37,-337.46 76.24,-334.38 82.23,-343.11 86.37,-337.46"/>
</a>
</g>
<text text-anchor="middle" x="164.5" y="-410.86" font-family="Helvetica,sans-Serif" font-size="10.00" fill="grey"> velocity</text>
</g>
<!-- Node13 -->
<g id="Node000013" class="node">
<title>Node13</title>
<g id="a_Node000013"><a xlink:href="structAP__GPS_1_1detect__state.html" target="_top" xlink:title=" ">
<polygon fill="white" stroke="#666666" points="617,-157.36 496,-157.36 496,-138.36 617,-138.36 617,-157.36"/>
<text text-anchor="middle" x="556.5" y="-145.36" font-family="Helvetica,sans-Serif" font-size="10.00">AP_GPS::detect_state</text>
</a>
</g>
</g>
<!-- Node13&#45;&gt;Node4 -->
<g id="edge17_Node000004_Node000013" class="edge">
<title>Node13&#45;&gt;Node4</title>
<g id="a_edge17_Node000004_Node000013"><a xlink:title=" ">
<path fill="none" stroke="#9a32cd" stroke-dasharray="5,2" d="M612.3,-160.24C644.79,-170.22 684.48,-187.4 710,-215.86 744.19,-253.98 751.84,-318.9 753.53,-343.25"/>
<polygon fill="#9a32cd" stroke="#9a32cd" points="613.05,-156.82 602.47,-157.38 611.09,-163.54 613.05,-156.82"/>
</a>
</g>
<text text-anchor="middle" x="678" y="-218.86" font-family="Helvetica,sans-Serif" font-size="10.00" fill="grey"> detect_state</text>
</g>
<!-- Node14 -->
<g id="Node000014" class="node">
<title>Node14</title>
<g id="a_Node000014"><a xlink:href="structUBLOX__detect__state.html" target="_top" xlink:title=" ">
<polygon fill="white" stroke="#666666" points="321.5,-101.36 205.5,-101.36 205.5,-82.36 321.5,-82.36 321.5,-101.36"/>
<text text-anchor="middle" x="263.5" y="-89.36" font-family="Helvetica,sans-Serif" font-size="10.00">UBLOX_detect_state</text>
</a>
</g>
</g>
<!-- Node14&#45;&gt;Node13 -->
<g id="edge18_Node000013_Node000014" class="edge">
<title>Node14&#45;&gt;Node13</title>
<g id="a_edge18_Node000013_Node000014"><a xlink:title=" ">
<path fill="none" stroke="#9a32cd" stroke-dasharray="5,2" d="M331.59,-92.39C371.93,-94.59 423.68,-100.78 467,-116.86 476.01,-120.2 476.24,-124.89 485,-128.86 493.2,-132.57 502.27,-135.69 511.1,-138.25"/>
<polygon fill="#9a32cd" stroke="#9a32cd" points="331.75,-88.9 321.59,-91.92 331.41,-95.89 331.75,-88.9"/>
</a>
</g>
<text text-anchor="middle" x="404" y="-119.86" font-family="Helvetica,sans-Serif" font-size="10.00" fill="grey"> ublox_detect_state</text>
</g>
<!-- Node15 -->
<g id="Node000015" class="node">
<title>Node15</title>
<g id="a_Node000015"><a xlink:href="structSIRF__detect__state.html" target="_top" xlink:title=" ">
<polygon fill="white" stroke="#666666" points="315.5,-64.36 211.5,-64.36 211.5,-45.36 315.5,-45.36 315.5,-64.36"/>
<text text-anchor="middle" x="263.5" y="-52.36" font-family="Helvetica,sans-Serif" font-size="10.00">SIRF_detect_state</text>
</a>
</g>
</g>
<!-- Node15&#45;&gt;Node13 -->
<g id="edge19_Node000013_Node000015" class="edge">
<title>Node15&#45;&gt;Node13</title>
<g id="a_edge19_Node000013_Node000015"><a xlink:title=" ">
<path fill="none" stroke="#9a32cd" stroke-dasharray="5,2" d="M325.85,-46.28C369.69,-43.61 427.66,-47.59 467,-78.86 485.49,-93.55 467.63,-112.86 485,-128.86 489.2,-132.72 494.1,-135.81 499.32,-138.29"/>
<polygon fill="#9a32cd" stroke="#9a32cd" points="325.59,-42.79 315.87,-47.02 326.1,-49.77 325.59,-42.79"/>
</a>
</g>
<text text-anchor="middle" x="404" y="-81.86" font-family="Helvetica,sans-Serif" font-size="10.00" fill="grey"> sirf_detect_state</text>
</g>
<!-- Node16 -->
<g id="Node000016" class="node">
<title>Node16</title>
<g id="a_Node000016"><a xlink:href="structNMEA__detect__state.html" target="_top" xlink:title=" ">
<polygon fill="white" stroke="#666666" points="319.5,-27.36 207.5,-27.36 207.5,-8.36 319.5,-8.36 319.5,-27.36"/>
<text text-anchor="middle" x="263.5" y="-15.36" font-family="Helvetica,sans-Serif" font-size="10.00">NMEA_detect_state</text>
</a>
</g>
</g>
<!-- Node16&#45;&gt;Node13 -->
<g id="edge20_Node000013_Node000016" class="edge">
<title>Node16&#45;&gt;Node13</title>
<g id="a_edge20_Node000013_Node000016"><a xlink:title=" ">
<path fill="none" stroke="#9a32cd" stroke-dasharray="5,2" d="M310.09,-6.3C355.58,2.26 424.65,6.79 467,-30.86 500.1,-60.28 454.99,-96.29 485,-128.86 488.52,-132.68 492.72,-135.76 497.3,-138.25"/>
<polygon fill="#9a32cd" stroke="#9a32cd" points="309.3,-2.89 300.19,-8.3 310.69,-9.75 309.3,-2.89"/>
</a>
</g>
<text text-anchor="middle" x="404" y="-33.86" font-family="Helvetica,sans-Serif" font-size="10.00" fill="grey"> nmea_detect_state</text>
</g>
<!-- Node17 -->
<g id="Node000017" class="node">
<title>Node17</title>
<g id="a_Node000017"><a xlink:href="structSBP__detect__state.html" target="_top" xlink:title=" ">
<polygon fill="white" stroke="#666666" points="314,-212.36 213,-212.36 213,-193.36 314,-193.36 314,-212.36"/>
<text text-anchor="middle" x="263.5" y="-200.36" font-family="Helvetica,sans-Serif" font-size="10.00">SBP_detect_state</text>
</a>
</g>
</g>
<!-- Node17&#45;&gt;Node13 -->
<g id="edge21_Node000013_Node000017" class="edge">
<title>Node17&#45;&gt;Node13</title>
<g id="a_edge21_Node000013_Node000017"><a xlink:title=" ">
<path fill="none" stroke="#9a32cd" stroke-dasharray="5,2" d="M324.07,-198.19C364.68,-194.28 419.51,-187.58 467,-176.86 488.92,-171.9 513.13,-163.78 530.68,-157.39"/>
<polygon fill="#9a32cd" stroke="#9a32cd" points="323.69,-194.71 314.06,-199.13 324.34,-201.68 323.69,-194.71"/>
</a>
</g>
<text text-anchor="middle" x="404" y="-199.86" font-family="Helvetica,sans-Serif" font-size="10.00" fill="grey"> sbp_detect_state</text>
</g>
<!-- Node18 -->
<g id="Node000018" class="node">
<title>Node18</title>
<g id="a_Node000018"><a xlink:href="structSBP2__detect__state.html" target="_top" xlink:title=" ">
<polygon fill="white" stroke="#666666" points="317,-175.36 210,-175.36 210,-156.36 317,-156.36 317,-175.36"/>
<text text-anchor="middle" x="263.5" y="-163.36" font-family="Helvetica,sans-Serif" font-size="10.00">SBP2_detect_state</text>
</a>
</g>
</g>
<!-- Node18&#45;&gt;Node13 -->
<g id="edge22_Node000013_Node000018" class="edge">
<title>Node18&#45;&gt;Node13</title>
<g id="a_edge22_Node000013_Node000018"><a xlink:title=" ">
<path fill="none" stroke="#9a32cd" stroke-dasharray="5,2" d="M327.24,-161.97C377.24,-158.88 446.77,-154.58 495.92,-151.54"/>
<polygon fill="#9a32cd" stroke="#9a32cd" points="326.96,-158.49 317.2,-162.6 327.39,-165.47 326.96,-158.49"/>
</a>
</g>
<text text-anchor="middle" x="404" y="-164.86" font-family="Helvetica,sans-Serif" font-size="10.00" fill="grey"> sbp2_detect_state</text>
</g>
<!-- Node19 -->
<g id="Node000019" class="node">
<title>Node19</title>
<g id="a_Node000019"><a xlink:href="structERB__detect__state.html" target="_top" xlink:title=" ">
<polygon fill="white" stroke="#666666" points="314.5,-138.36 212.5,-138.36 212.5,-119.36 314.5,-119.36 314.5,-138.36"/>
<text text-anchor="middle" x="263.5" y="-126.36" font-family="Helvetica,sans-Serif" font-size="10.00">ERB_detect_state</text>
</a>
</g>
</g>
<!-- Node19&#45;&gt;Node13 -->
<g id="edge23_Node000013_Node000019" class="edge">
<title>Node19&#45;&gt;Node13</title>
<g id="a_edge23_Node000013_Node000019"><a xlink:title=" ">
<path fill="none" stroke="#9a32cd" stroke-dasharray="5,2" d="M325.08,-131.02C365.35,-132.67 419.37,-135.26 467,-138.86 476.24,-139.55 486.01,-140.42 495.55,-141.33"/>
<polygon fill="#9a32cd" stroke="#9a32cd" points="325.02,-127.52 314.89,-130.62 324.74,-134.51 325.02,-127.52"/>
</a>
</g>
<text text-anchor="middle" x="404" y="-141.86" font-family="Helvetica,sans-Serif" font-size="10.00" fill="grey"> erb_detect_state</text>
</g>
<!-- Node20 -->
<g id="Node000020" class="node">
<title>Node20</title>
<g id="a_Node000020"><a xlink:href="structAP__GPS_1_1rtcm__buffer.html" target="_top" xlink:title=" ">
<polygon fill="white" stroke="#666666" points="614.5,-120.36 498.5,-120.36 498.5,-101.36 614.5,-101.36 614.5,-120.36"/>
<text text-anchor="middle" x="556.5" y="-108.36" font-family="Helvetica,sans-Serif" font-size="10.00">AP_GPS::rtcm_buffer</text>
</a>
</g>
</g>
<!-- Node20&#45;&gt;Node4 -->
<g id="edge24_Node000004_Node000020" class="edge">
<title>Node20&#45;&gt;Node4</title>
<g id="a_edge24_Node000004_Node000020"><a xlink:title=" ">
<path fill="none" stroke="#9a32cd" stroke-dasharray="5,2" d="M624.74,-116.41C654.97,-122.39 688.59,-134.52 710,-158.86 734.87,-187.12 749.29,-307.93 753.02,-343.17"/>
<polygon fill="#9a32cd" stroke="#9a32cd" points="625.1,-112.92 614.64,-114.61 623.87,-119.81 625.1,-112.92"/>
</a>
</g>
<text text-anchor="middle" x="678" y="-161.86" font-family="Helvetica,sans-Serif" font-size="10.00" fill="grey"> rtcm_buffer</text>
</g>
<!-- Node21 -->
<g id="Node000021" class="node">
<title>Node21</title>
<g id="a_Node000021"><a xlink:href="classJitterCorrection.html" target="_top" xlink:title=" ">
<polygon fill="white" stroke="#666666" points="308.5,-522.36 218.5,-522.36 218.5,-503.36 308.5,-503.36 308.5,-522.36"/>
<text text-anchor="middle" x="263.5" y="-510.36" font-family="Helvetica,sans-Serif" font-size="10.00">JitterCorrection</text>
</a>
</g>
</g>
<!-- Node21&#45;&gt;Node1 -->
<g id="edge27_Node000001_Node000021" class="edge">
<title>Node21&#45;&gt;Node1</title>
<g id="a_edge27_Node000001_Node000021"><a xlink:title=" ">
<path fill="none" stroke="#9a32cd" stroke-dasharray="5,2" d="M319.02,-512.86C372.57,-512.86 453.58,-512.86 505.51,-512.86"/>
<polygon fill="#9a32cd" stroke="#9a32cd" points="318.7,-509.36 308.7,-512.86 318.7,-516.36 318.7,-509.36"/>
</a>
</g>
<text text-anchor="middle" x="404" y="-515.86" font-family="Helvetica,sans-Serif" font-size="10.00" fill="grey"> jitter_correction</text>
</g>
</g>
</svg>
