<?xml version="1.0" encoding="UTF-8" standalone="no"?>
<!DOCTYPE svg PUBLIC "-//W3C//DTD SVG 1.1//EN"
 "http://www.w3.org/Graphics/SVG/1.1/DTD/svg11.dtd">
<!-- Generated by graphviz version 2.43.0 (0)
 -->
<!-- Title: AP_MotorsHeli::move_actuators Pages: 1 -->
<svg width="476pt" height="124pt"
 viewBox="0.00 0.00 476.00 123.50" xmlns="http://www.w3.org/2000/svg" xmlns:xlink="http://www.w3.org/1999/xlink">
<g id="graph0" class="graph" transform="scale(1 1) rotate(0) translate(4 119.5)">
<title>AP_MotorsHeli::move_actuators</title>
<!-- Node1 -->
<g id="Node000001" class="node">
<title>Node1</title>
<g id="a_Node000001"><a xlink:title=" ">
<polygon fill="#999999" stroke="#666666" points="468,-67.5 346,-67.5 346,-37.5 468,-37.5 468,-67.5"/>
<text text-anchor="start" x="354" y="-55.5" font-family="Helvetica,sans-Serif" font-size="10.00">AP_MotorsHeli::move</text>
<text text-anchor="middle" x="407" y="-44.5" font-family="Helvetica,sans-Serif" font-size="10.00">_actuators</text>
</a>
</g>
</g>
<!-- Node2 -->
<g id="Node000002" class="node">
<title>Node2</title>
<g id="a_Node000002"><a xlink:href="classAP__MotorsHeli.html#af9a8373c52a44382d0286efc792f52d5" target="_top" xlink:title=" ">
<polygon fill="white" stroke="#666666" points="298,-115.5 173,-115.5 173,-85.5 298,-85.5 298,-115.5"/>
<text text-anchor="start" x="181" y="-103.5" font-family="Helvetica,sans-Serif" font-size="10.00">AP_MotorsHeli::output</text>
<text text-anchor="middle" x="235.5" y="-92.5" font-family="Helvetica,sans-Serif" font-size="10.00">_armed_stabilizing</text>
</a>
</g>
</g>
<!-- Node1&#45;&gt;Node2 -->
<g id="edge1_Node000001_Node000002" class="edge">
<title>Node1&#45;&gt;Node2</title>
<g id="a_edge1_Node000001_Node000002"><a xlink:title=" ">
<path fill="none" stroke="#63b8ff" d="M343.19,-70.29C325.53,-75.29 306.5,-80.68 289.48,-85.5"/>
<polygon fill="#63b8ff" stroke="#63b8ff" points="344.17,-73.65 352.83,-67.56 342.26,-66.91 344.17,-73.65"/>
</a>
</g>
</g>
<!-- Node4 -->
<g id="Node000004" class="node">
<title>Node4</title>
<g id="a_Node000004"><a xlink:href="classAP__MotorsHeli.html#a82bbdd9f88cb6a1e2ab13fafddafe639" target="_top" xlink:title=" ">
<polygon fill="white" stroke="#666666" points="298,-67.5 173,-67.5 173,-37.5 298,-37.5 298,-67.5"/>
<text text-anchor="start" x="181" y="-55.5" font-family="Helvetica,sans-Serif" font-size="10.00">AP_MotorsHeli::output</text>
<text text-anchor="middle" x="235.5" y="-44.5" font-family="Helvetica,sans-Serif" font-size="10.00">_disarmed</text>
</a>
</g>
</g>
<!-- Node1&#45;&gt;Node4 -->
<g id="edge3_Node000001_Node000004" class="edge">
<title>Node1&#45;&gt;Node4</title>
<g id="a_edge3_Node000001_Node000004"><a xlink:title=" ">
<path fill="none" stroke="#63b8ff" d="M335.5,-52.5C323.14,-52.5 310.36,-52.5 298.26,-52.5"/>
<polygon fill="#63b8ff" stroke="#63b8ff" points="335.76,-56 345.76,-52.5 335.76,-49 335.76,-56"/>
</a>
</g>
</g>
<!-- Node5 -->
<g id="Node000005" class="node">
<title>Node5</title>
<g id="a_Node000005"><a xlink:href="classAP__MotorsHeli.html#a5a05a6fdf12a55183dce4a46784b5255" target="_top" xlink:title=" ">
<polygon fill="white" stroke="#666666" points="310,-19 161,-19 161,0 310,0 310,-19"/>
<text text-anchor="middle" x="235.5" y="-7" font-family="Helvetica,sans-Serif" font-size="10.00">AP_MotorsHeli::output_min</text>
</a>
</g>
</g>
<!-- Node1&#45;&gt;Node5 -->
<g id="edge5_Node000001_Node000005" class="edge">
<title>Node1&#45;&gt;Node5</title>
<g id="a_edge5_Node000001_Node000005"><a xlink:title=" ">
<path fill="none" stroke="#63b8ff" d="M336.95,-34.98C315.44,-29.53 292.54,-23.72 274.04,-19.02"/>
<polygon fill="#63b8ff" stroke="#63b8ff" points="336.16,-38.39 346.72,-37.46 337.88,-31.61 336.16,-38.39"/>
</a>
</g>
</g>
<!-- Node3 -->
<g id="Node000003" class="node">
<title>Node3</title>
<g id="a_Node000003"><a xlink:href="classAP__MotorsHeli.html#ab9f72dd9a10890cdd5b284c339b5a043" target="_top" xlink:title=" ">
<polygon fill="white" stroke="#666666" points="125,-86 0,-86 0,-67 125,-67 125,-86"/>
<text text-anchor="middle" x="62.5" y="-74" font-family="Helvetica,sans-Serif" font-size="10.00">AP_MotorsHeli::output</text>
</a>
</g>
</g>
<!-- Node2&#45;&gt;Node3 -->
<g id="edge2_Node000002_Node000003" class="edge">
<title>Node2&#45;&gt;Node3</title>
<g id="a_edge2_Node000002_Node000003"><a xlink:title=" ">
<path fill="none" stroke="#63b8ff" d="M162.83,-90.44C150.3,-88.68 137.37,-86.87 125.14,-85.15"/>
<polygon fill="#63b8ff" stroke="#63b8ff" points="162.38,-93.91 172.77,-91.84 163.35,-86.98 162.38,-93.91"/>
</a>
</g>
</g>
<!-- Node4&#45;&gt;Node3 -->
<g id="edge4_Node000004_Node000003" class="edge">
<title>Node4&#45;&gt;Node3</title>
<g id="a_edge4_Node000004_Node000003"><a xlink:title=" ">
<path fill="none" stroke="#63b8ff" d="M162.83,-62.56C150.3,-64.32 137.37,-66.13 125.14,-67.85"/>
<polygon fill="#63b8ff" stroke="#63b8ff" points="163.35,-66.02 172.77,-61.16 162.38,-59.09 163.35,-66.02"/>
</a>
</g>
</g>
</g>
</svg>
