<?xml version="1.0" encoding="UTF-8" standalone="no"?>
<!DOCTYPE svg PUBLIC "-//W3C//DTD SVG 1.1//EN"
 "http://www.w3.org/Graphics/SVG/1.1/DTD/svg11.dtd">
<!-- Generated by graphviz version 2.43.0 (0)
 -->
<!-- Title: AP_FlashIface_JEDEC::verify_sector_erase Pages: 1 -->
<!--zoomable 127 -->

<svg id="main" version="1.1" xmlns="http://www.w3.org/2000/svg" xmlns:xlink="http://www.w3.org/1999/xlink" xml:space="preserve" onload="init(evt)">
<style type="text/css"><![CDATA[
.node, .edge {opacity: 0.7;}
.node.selected, .edge.selected {opacity: 1;}
.edge:hover path { stroke: red; }
.edge:hover polygon { stroke: red; fill: red; }
]]></style>

<defs>
  <circle id="rim" cx="0" cy="0" r="7"/>
  <circle id="rim2" cx="0" cy="0" r="3.5"/>
  <g id="zoomPlus">
    <use xlink:href="#rim" fill="#404040"><set attributeName="fill" to="#808080" begin="zoomplus.mouseover" end="zoomplus.mouseout"/></use>
    <path d="M-4,0h8M0,-4v8" fill="none" stroke="white" stroke-width="1.5" pointer-events="none"/>
  </g>
  <g id="zoomMin">
    <use xlink:href="#rim" fill="#404040"><set attributeName="fill" to="#808080" begin="zoomminus.mouseover" end="zoomminus.mouseout"/></use>
    <path d="M-4,0h8" fill="none" stroke="white" stroke-width="1.5" pointer-events="none"/>
  </g>
  <g id="arrowUp" transform="translate(30 24)">
    <use xlink:href="#rim"/>
    <path pointer-events="none" fill="none" stroke="white" stroke-width="1.5" d="M0,-3.0v7 M-2.5,-0.5L0,-3.0L2.5,-0.5"/>
  </g>
  <g id="arrowRight" transform="rotate(90) translate(36 -43)">
    <use xlink:href="#rim"/>
    <path pointer-events="none" fill="none" stroke="white" stroke-width="1.5" d="M0,-3.0v7 M-2.5,-0.5L0,-3.0L2.5,-0.5"/>
  </g>
  <g id="arrowDown" transform="rotate(180) translate(-30 -48)">
    <use xlink:href="#rim"/>
    <path pointer-events="none" fill="none" stroke="white" stroke-width="1.5" d="M0,-3.0v7 M-2.5,-0.5L0,-3.0L2.5,-0.5"/>
  </g>
  <g id="arrowLeft" transform="rotate(270) translate(-36 17)">
    <use xlink:href="#rim"/>
    <path pointer-events="none" fill="none" stroke="white" stroke-width="1.5" d="M0,-3.0v7 M-2.5,-0.5L0,-3.0L2.5,-0.5"/>
  </g>
  <g id="resetDef">
    <use xlink:href="#rim2" fill="#404040"><set attributeName="fill" to="#808080" begin="reset.mouseover" end="reset.mouseout"/></use>
  </g>
</defs>
<script type="application/ecmascript">
var viewWidth = 902;
var viewHeight = 127;
var sectionId = 'dynsection-35';
</script>
<script type="application/ecmascript" xlink:href="svg.min.js"/>
<svg id="graph" class="graph">
<g id="viewport">
<title>AP_FlashIface_JEDEC::verify_sector_erase</title>
<!-- Node1 -->
<g id="Node000001" class="node">
<title>Node1</title>
<g id="a_Node000001"><a xlink:title=" ">
<polygon fill="#999999" stroke="#666666" points="119,-74.35 0,-74.35 0,-44.35 119,-44.35 119,-74.35"/>
<text text-anchor="start" x="8" y="-62.35" font-family="Helvetica,sans-Serif" font-size="10.00">AP_FlashIface_JEDEC</text>
<text text-anchor="middle" x="59.5" y="-51.35" font-family="Helvetica,sans-Serif" font-size="10.00">::verify_sector_erase</text>
</a>
</g>
</g>
<!-- Node2 -->
<g id="Node000002" class="node">
<title>Node2</title>
<g id="a_Node000002"><a xlink:href="classAP__FlashIface__JEDEC.html#ad955beea13370fee8cab26c518261920" target="_top" xlink:title=" ">
<polygon fill="white" stroke="#666666" points="274,-74.35 155,-74.35 155,-44.35 274,-44.35 274,-74.35"/>
<text text-anchor="start" x="163" y="-62.35" font-family="Helvetica,sans-Serif" font-size="10.00">AP_FlashIface_JEDEC</text>
<text text-anchor="middle" x="214.5" y="-51.35" font-family="Helvetica,sans-Serif" font-size="10.00">::read</text>
</a>
</g>
</g>
<!-- Node1&#45;&gt;Node2 -->
<g id="edge1_Node000001_Node000002" class="edge">
<title>Node1&#45;&gt;Node2</title>
<g id="a_edge1_Node000001_Node000002"><a xlink:title=" ">
<path fill="none" stroke="#63b8ff" d="M119.22,-59.35C127.54,-59.35 136.17,-59.35 144.67,-59.35"/>
<polygon fill="#63b8ff" stroke="#63b8ff" points="144.94,-62.85 154.94,-59.35 144.94,-55.85 144.94,-62.85"/>
</a>
</g>
</g>
<!-- Node3 -->
<g id="Node000003" class="node">
<title>Node3</title>
<g id="a_Node000003"><a xlink:href="classAP__HAL_1_1WSPIDevice.html#ad47c9324d3f43dde71b0265acfd67802" target="_top" xlink:title=" ">
<polygon fill="white" stroke="#666666" points="894,-119.35 775,-119.35 775,-89.35 894,-89.35 894,-119.35"/>
<text text-anchor="start" x="783" y="-107.35" font-family="Helvetica,sans-Serif" font-size="10.00">AP_HAL::WSPIDevice</text>
<text text-anchor="middle" x="834.5" y="-96.35" font-family="Helvetica,sans-Serif" font-size="10.00">::set_cmd_header</text>
</a>
</g>
</g>
<!-- Node2&#45;&gt;Node3 -->
<g id="edge2_Node000002_Node000003" class="edge">
<title>Node2&#45;&gt;Node3</title>
<g id="a_edge2_Node000002_Node000003"><a xlink:title=" ">
<path fill="none" stroke="#63b8ff" d="M268.14,-74.42C281.69,-77.83 296.3,-81.1 310,-83.35 471.4,-109.89 664.36,-109.51 764.9,-106.93"/>
<polygon fill="#63b8ff" stroke="#63b8ff" points="765.03,-110.43 774.93,-106.66 764.84,-103.43 765.03,-110.43"/>
</a>
</g>
</g>
<!-- Node4 -->
<g id="Node000004" class="node">
<title>Node4</title>
<g id="a_Node000004"><a xlink:href="classAP__HAL_1_1WSPIDevice.html#a5cdc3bac15ee60fbf9a29379aca5174d" target="_top" xlink:title=" ">
<polygon fill="white" stroke="#666666" points="894,-50.35 775,-50.35 775,-20.35 894,-20.35 894,-50.35"/>
<text text-anchor="start" x="783" y="-38.35" font-family="Helvetica,sans-Serif" font-size="10.00">AP_HAL::WSPIDevice</text>
<text text-anchor="middle" x="834.5" y="-27.35" font-family="Helvetica,sans-Serif" font-size="10.00">::transfer</text>
</a>
</g>
</g>
<!-- Node2&#45;&gt;Node4 -->
<g id="edge3_Node000002_Node000004" class="edge">
<title>Node2&#45;&gt;Node4</title>
<g id="a_edge3_Node000002_Node000004"><a xlink:title=" ">
<path fill="none" stroke="#63b8ff" d="M268.14,-44.28C281.69,-40.88 296.3,-37.6 310,-35.35 498.43,-4.37 549.51,12.33 739,-11.35 750.43,-12.78 762.47,-15.15 773.97,-17.85"/>
<polygon fill="#63b8ff" stroke="#63b8ff" points="773.37,-21.31 783.92,-20.3 775.04,-14.51 773.37,-21.31"/>
</a>
</g>
</g>
<!-- Node5 -->
<g id="Node000005" class="node">
<title>Node5</title>
<g id="a_Node000005"><a xlink:href="classAP__FlashIface__JEDEC.html#a9d09c8d22dd53f52c7a86c3597e53b19" target="_top" xlink:title=" ">
<polygon fill="white" stroke="#666666" points="429,-74.35 310,-74.35 310,-44.35 429,-44.35 429,-74.35"/>
<text text-anchor="start" x="318" y="-62.35" font-family="Helvetica,sans-Serif" font-size="10.00">AP_FlashIface_JEDEC</text>
<text text-anchor="middle" x="369.5" y="-51.35" font-family="Helvetica,sans-Serif" font-size="10.00">::wait_ready</text>
</a>
</g>
</g>
<!-- Node2&#45;&gt;Node5 -->
<g id="edge4_Node000002_Node000005" class="edge">
<title>Node2&#45;&gt;Node5</title>
<g id="a_edge4_Node000002_Node000005"><a xlink:title=" ">
<path fill="none" stroke="#63b8ff" d="M274.22,-59.35C282.54,-59.35 291.17,-59.35 299.67,-59.35"/>
<polygon fill="#63b8ff" stroke="#63b8ff" points="299.94,-62.85 309.94,-59.35 299.94,-55.85 299.94,-62.85"/>
</a>
</g>
</g>
<!-- Node6 -->
<g id="Node000006" class="node">
<title>Node6</title>
<g id="a_Node000006"><a xlink:href="classAP__FlashIface__JEDEC.html#a6ede60e59e9a4f12c3d750a18b932e80" target="_top" xlink:title=" ">
<polygon fill="white" stroke="#666666" points="584,-74.35 465,-74.35 465,-44.35 584,-44.35 584,-74.35"/>
<text text-anchor="start" x="473" y="-62.35" font-family="Helvetica,sans-Serif" font-size="10.00">AP_FlashIface_JEDEC</text>
<text text-anchor="middle" x="524.5" y="-51.35" font-family="Helvetica,sans-Serif" font-size="10.00">::is_device_busy</text>
</a>
</g>
</g>
<!-- Node5&#45;&gt;Node6 -->
<g id="edge5_Node000005_Node000006" class="edge">
<title>Node5&#45;&gt;Node6</title>
<g id="a_edge5_Node000005_Node000006"><a xlink:title=" ">
<path fill="none" stroke="#63b8ff" d="M429.22,-59.35C437.54,-59.35 446.17,-59.35 454.67,-59.35"/>
<polygon fill="#63b8ff" stroke="#63b8ff" points="454.94,-62.85 464.94,-59.35 454.94,-55.85 454.94,-62.85"/>
</a>
</g>
</g>
<!-- Node7 -->
<g id="Node000007" class="node">
<title>Node7</title>
<g id="a_Node000007"><a xlink:href="classAP__HAL_1_1WSPIDevice.html#a87f1ae9ca97f719e4b27209cb78b66ee" target="_top" xlink:title=" ">
<polygon fill="white" stroke="#666666" points="739,-50.35 620,-50.35 620,-20.35 739,-20.35 739,-50.35"/>
<text text-anchor="start" x="628" y="-38.35" font-family="Helvetica,sans-Serif" font-size="10.00">AP_HAL::WSPIDevice</text>
<text text-anchor="middle" x="679.5" y="-27.35" font-family="Helvetica,sans-Serif" font-size="10.00">::is_busy</text>
</a>
</g>
</g>
<!-- Node6&#45;&gt;Node7 -->
<g id="edge6_Node000006_Node000007" class="edge">
<title>Node6&#45;&gt;Node7</title>
<g id="a_edge6_Node000006_Node000007"><a xlink:title=" ">
<path fill="none" stroke="#63b8ff" d="M584.22,-50.14C592.64,-48.82 601.36,-47.45 609.95,-46.11"/>
<polygon fill="#63b8ff" stroke="#63b8ff" points="610.6,-49.55 619.94,-44.54 609.52,-42.63 610.6,-49.55"/>
</a>
</g>
</g>
<!-- Node8 -->
<g id="Node000008" class="node">
<title>Node8</title>
<g id="a_Node000008"><a xlink:href="classAP__FlashIface__JEDEC.html#a4fa92f1729c50b93f6f1d02a3fb0f697" target="_top" xlink:title=" ">
<polygon fill="white" stroke="#666666" points="739,-98.35 620,-98.35 620,-68.35 739,-68.35 739,-98.35"/>
<text text-anchor="start" x="628" y="-86.35" font-family="Helvetica,sans-Serif" font-size="10.00">AP_FlashIface_JEDEC</text>
<text text-anchor="middle" x="679.5" y="-75.35" font-family="Helvetica,sans-Serif" font-size="10.00">::read_reg</text>
</a>
</g>
</g>
<!-- Node6&#45;&gt;Node8 -->
<g id="edge7_Node000006_Node000008" class="edge">
<title>Node6&#45;&gt;Node8</title>
<g id="a_edge7_Node000006_Node000008"><a xlink:title=" ">
<path fill="none" stroke="#63b8ff" d="M584.22,-68.56C592.64,-69.88 601.36,-71.25 609.95,-72.6"/>
<polygon fill="#63b8ff" stroke="#63b8ff" points="609.52,-76.07 619.94,-74.17 610.6,-69.16 609.52,-76.07"/>
</a>
</g>
</g>
<!-- Node8&#45;&gt;Node3 -->
<g id="edge8_Node000008_Node000003" class="edge">
<title>Node8&#45;&gt;Node3</title>
<g id="a_edge8_Node000008_Node000003"><a xlink:title=" ">
<path fill="none" stroke="#63b8ff" d="M739.22,-91.41C747.64,-92.57 756.36,-93.76 764.95,-94.94"/>
<polygon fill="#63b8ff" stroke="#63b8ff" points="764.56,-98.42 774.94,-96.31 765.51,-91.49 764.56,-98.42"/>
</a>
</g>
</g>
<!-- Node8&#45;&gt;Node4 -->
<g id="edge9_Node000008_Node000004" class="edge">
<title>Node8&#45;&gt;Node4</title>
<g id="a_edge9_Node000008_Node000004"><a xlink:title=" ">
<path fill="none" stroke="#63b8ff" d="M728.49,-68.3C743.59,-63.56 760.41,-58.28 776.09,-53.36"/>
<polygon fill="#63b8ff" stroke="#63b8ff" points="777.19,-56.69 785.68,-50.35 775.09,-50.01 777.19,-56.69"/>
</a>
</g>
</g>
</g>
</svg>

<g id="navigator" transform="translate(0 0)" fill="#404254">
  <rect fill="#f2f5e9" fill-opacity="0.5" stroke="#606060" stroke-width=".5" x="0" y="0" width="60" height="60"/>
  <use id="zoomplus" xlink:href="#zoomPlus" x="17" y="9" onmousedown="handleZoom(evt,'in')"/>
  <use id="zoomminus" xlink:href="#zoomMin" x="42" y="9" onmousedown="handleZoom(evt,'out')"/>
  <use id="reset" xlink:href="#resetDef" x="30" y="36" onmousedown="handleReset()"/>
   <use id="arrowup" xlink:href="#arrowUp" x="0" y="0" onmousedown="handlePan(0,-1)"/>
  <use id="arrowright" xlink:href="#arrowRight" x="0" y="0" onmousedown="handlePan(1,0)"/>
  <use id="arrowdown" xlink:href="#arrowDown" x="0" y="0" onmousedown="handlePan(0,1)"/>
  <use id="arrowleft" xlink:href="#arrowLeft" x="0" y="0" onmousedown="handlePan(-1,0)"/>
</g>
<svg viewBox="0 0 15 15" width="100%" height="30px" preserveAspectRatio="xMaxYMin meet">
 <g id="arrow_out" transform="scale(0.3 0.3)">
  <a xlink:href="classAP__FlashIface__JEDEC_aa43b40a907127c4929ec96f950b34b7b_cgraph_org.svg" target="_base">
   <rect id="button" ry="5" rx="5" y="6" x="6" height="38" width="38"
        fill="#f2f5e9" fill-opacity="0.5" stroke="#606060" stroke-width="1.0"/>
   <path id="arrow"
     d="M 11.500037,31.436501 C 11.940474,20.09759 22.043105,11.32322 32.158766,21.979434 L 37.068811,17.246167 C 37.068811,17.246167 37.088388,32 37.088388,32 L 22.160133,31.978069 C 22.160133,31.978069 26.997745,27.140456 26.997745,27.140456 C 18.528582,18.264221 13.291696,25.230495 11.500037,31.436501 z"
     style="fill:#404040;"/>
  </a>
 </g>
</svg>

<style type='text/css'>
<![CDATA[
[data-mouse-over-selected='false'] { opacity: 0.7; }
[data-mouse-over-selected='true']  { opacity: 1.0; }
]]>
</style>
<script type="application/ecmascript"><![CDATA[
document.addEventListener('DOMContentLoaded', (event) => {
  highlightEdges();
  highlightAdjacentNodes();
});
]]></script>
</svg>
