<?xml version="1.0" encoding="UTF-8" standalone="no"?>
<!DOCTYPE svg PUBLIC "-//W3C//DTD SVG 1.1//EN"
 "http://www.w3.org/Graphics/SVG/1.1/DTD/svg11.dtd">
<!-- Generated by graphviz version 2.43.0 (0)
 -->
<!-- Title: AC_PrecLand::get_target_location Pages: 1 -->
<svg width="997pt" height="168pt"
 viewBox="0.00 0.00 997.00 168.00" xmlns="http://www.w3.org/2000/svg" xmlns:xlink="http://www.w3.org/1999/xlink">
<g id="graph0" class="graph" transform="scale(1 1) rotate(0) translate(4 164)">
<title>AC_PrecLand::get_target_location</title>
<!-- Node1 -->
<g id="Node000001" class="node">
<title>Node1</title>
<g id="a_Node000001"><a xlink:title=" ">
<polygon fill="#999999" stroke="#666666" points="136,-117.5 0,-117.5 0,-87.5 136,-87.5 136,-117.5"/>
<text text-anchor="start" x="8" y="-105.5" font-family="Helvetica,sans-Serif" font-size="10.00">AC_PrecLand::get_target</text>
<text text-anchor="middle" x="68" y="-94.5" font-family="Helvetica,sans-Serif" font-size="10.00">_location</text>
</a>
</g>
</g>
<!-- Node2 -->
<g id="Node000002" class="node">
<title>Node2</title>
<g id="a_Node000002"><a xlink:href="namespaceAP.html#a99432cfdb696952c9b7146f155a815aa" target="_top" xlink:title=" ">
<polygon fill="white" stroke="#666666" points="257.5,-149 201.5,-149 201.5,-130 257.5,-130 257.5,-149"/>
<text text-anchor="middle" x="229.5" y="-137" font-family="Helvetica,sans-Serif" font-size="10.00">AP::ahrs</text>
</a>
</g>
</g>
<!-- Node1&#45;&gt;Node2 -->
<g id="edge1_Node000001_Node000002" class="edge">
<title>Node1&#45;&gt;Node2</title>
<g id="a_edge1_Node000001_Node000002"><a xlink:title=" ">
<path fill="none" stroke="#63b8ff" d="M133.87,-117.55C153.44,-122.09 174.25,-126.92 191.36,-130.88"/>
<polygon fill="#63b8ff" stroke="#63b8ff" points="190.96,-134.38 201.49,-133.23 192.54,-127.56 190.96,-134.38"/>
</a>
</g>
</g>
<!-- Node4 -->
<g id="Node000004" class="node">
<title>Node4</title>
<g id="a_Node000004"><a xlink:href="classLocation.html#a146775eb07ce9abcc8d05f1b730404b0" target="_top" xlink:title=" ">
<polygon fill="white" stroke="#666666" points="275.5,-112 183.5,-112 183.5,-93 275.5,-93 275.5,-112"/>
<text text-anchor="middle" x="229.5" y="-100" font-family="Helvetica,sans-Serif" font-size="10.00">Location::offset</text>
</a>
</g>
</g>
<!-- Node1&#45;&gt;Node4 -->
<g id="edge3_Node000001_Node000004" class="edge">
<title>Node1&#45;&gt;Node4</title>
<g id="a_edge3_Node000001_Node000004"><a xlink:title=" ">
<path fill="none" stroke="#63b8ff" d="M136.18,-102.5C148.43,-102.5 161.08,-102.5 172.95,-102.5"/>
<polygon fill="#63b8ff" stroke="#63b8ff" points="173.14,-106 183.14,-102.5 173.14,-99 173.14,-106"/>
</a>
</g>
</g>
<!-- Node9 -->
<g id="Node000009" class="node">
<title>Node9</title>
<g id="a_Node000009"><a xlink:href="classAC__PrecLand.html#ab74395f2f665f296b59563d398f13a60" target="_top" xlink:title=" ">
<polygon fill="white" stroke="#666666" points="287,-69.5 172,-69.5 172,-39.5 287,-39.5 287,-69.5"/>
<text text-anchor="start" x="180" y="-57.5" font-family="Helvetica,sans-Serif" font-size="10.00">AC_PrecLand::target</text>
<text text-anchor="middle" x="229.5" y="-46.5" font-family="Helvetica,sans-Serif" font-size="10.00">_acquired</text>
</a>
</g>
</g>
<!-- Node1&#45;&gt;Node9 -->
<g id="edge8_Node000001_Node000009" class="edge">
<title>Node1&#45;&gt;Node9</title>
<g id="a_edge8_Node000001_Node000009"><a xlink:title=" ">
<path fill="none" stroke="#63b8ff" d="M119.03,-87.44C134.77,-82.71 152.3,-77.43 168.65,-72.51"/>
<polygon fill="#63b8ff" stroke="#63b8ff" points="170.08,-75.74 178.65,-69.5 168.06,-69.03 170.08,-75.74"/>
</a>
</g>
</g>
<!-- Node3 -->
<g id="Node000003" class="node">
<title>Node3</title>
<g id="a_Node000003"><a xlink:href="classAP__AHRS.html#af481888f56602f793fc8d9895d14a8c9" target="_top" xlink:title=" ">
<polygon fill="white" stroke="#666666" points="457,-149 323,-149 323,-130 457,-130 457,-149"/>
<text text-anchor="middle" x="390" y="-137" font-family="Helvetica,sans-Serif" font-size="10.00">AP_AHRS::get_singleton</text>
</a>
</g>
</g>
<!-- Node2&#45;&gt;Node3 -->
<g id="edge2_Node000002_Node000003" class="edge">
<title>Node2&#45;&gt;Node3</title>
<g id="a_edge2_Node000002_Node000003"><a xlink:title=" ">
<path fill="none" stroke="#63b8ff" d="M257.75,-139.5C273.05,-139.5 292.98,-139.5 312.67,-139.5"/>
<polygon fill="#63b8ff" stroke="#63b8ff" points="312.92,-143 322.92,-139.5 312.92,-136 312.92,-143"/>
</a>
</g>
</g>
<!-- Node5 -->
<g id="Node000005" class="node">
<title>Node5</title>
<g id="a_Node000005"><a xlink:href="classLocation.html#ad9b9772b9d84be174e25a3c35f84702e" target="_top" xlink:title=" ">
<polygon fill="white" stroke="#666666" points="452.5,-112 327.5,-112 327.5,-93 452.5,-93 452.5,-112"/>
<text text-anchor="middle" x="390" y="-100" font-family="Helvetica,sans-Serif" font-size="10.00">Location::offset_latlng</text>
</a>
</g>
</g>
<!-- Node4&#45;&gt;Node5 -->
<g id="edge4_Node000004_Node000005" class="edge">
<title>Node4&#45;&gt;Node5</title>
<g id="a_edge4_Node000004_Node000005"><a xlink:title=" ">
<path fill="none" stroke="#63b8ff" d="M275.92,-102.5C288.8,-102.5 303.15,-102.5 317.19,-102.5"/>
<polygon fill="#63b8ff" stroke="#63b8ff" points="317.33,-106 327.33,-102.5 317.33,-99 317.33,-106"/>
</a>
</g>
</g>
<!-- Node6 -->
<g id="Node000006" class="node">
<title>Node6</title>
<g id="a_Node000006"><a xlink:href="classLocation.html#a526b1e4735fe7dfcdc3cc9af638d017c" target="_top" xlink:title=" ">
<polygon fill="white" stroke="#666666" points="629,-160 496,-160 496,-141 629,-141 629,-160"/>
<text text-anchor="middle" x="562.5" y="-148" font-family="Helvetica,sans-Serif" font-size="10.00">Location::limit_lattitude</text>
</a>
</g>
</g>
<!-- Node5&#45;&gt;Node6 -->
<g id="edge5_Node000005_Node000006" class="edge">
<title>Node5&#45;&gt;Node6</title>
<g id="a_edge5_Node000005_Node000006"><a xlink:title=" ">
<path fill="none" stroke="#63b8ff" d="M424.52,-112.09C444.41,-117.77 470.14,-125.08 493,-131.5 500.86,-133.71 509.22,-136.04 517.31,-138.29"/>
<polygon fill="#63b8ff" stroke="#63b8ff" points="516.42,-141.67 526.99,-140.97 518.29,-134.93 516.42,-141.67"/>
</a>
</g>
</g>
<!-- Node7 -->
<g id="Node000007" class="node">
<title>Node7</title>
<g id="a_Node000007"><a xlink:href="classLocation.html#ab8844915021178ffc5cb56b19e95ad2c" target="_top" xlink:title=" ">
<polygon fill="white" stroke="#666666" points="617.5,-122.5 507.5,-122.5 507.5,-92.5 617.5,-92.5 617.5,-122.5"/>
<text text-anchor="start" x="515.5" y="-110.5" font-family="Helvetica,sans-Serif" font-size="10.00">Location::longitude</text>
<text text-anchor="middle" x="562.5" y="-99.5" font-family="Helvetica,sans-Serif" font-size="10.00">_scale</text>
</a>
</g>
</g>
<!-- Node5&#45;&gt;Node7 -->
<g id="edge6_Node000005_Node000007" class="edge">
<title>Node5&#45;&gt;Node7</title>
<g id="a_edge6_Node000005_Node000007"><a xlink:title=" ">
<path fill="none" stroke="#63b8ff" d="M452.55,-104.31C467.12,-104.73 482.7,-105.19 497.38,-105.62"/>
<polygon fill="#63b8ff" stroke="#63b8ff" points="497.28,-109.12 507.38,-105.91 497.48,-102.12 497.28,-109.12"/>
</a>
</g>
</g>
<!-- Node8 -->
<g id="Node000008" class="node">
<title>Node8</title>
<g id="a_Node000008"><a xlink:href="classLocation.html#a785b0c592d17ce62f33ca9c8281335c6" target="_top" xlink:title=" ">
<polygon fill="white" stroke="#666666" points="632,-74 493,-74 493,-55 632,-55 632,-74"/>
<text text-anchor="middle" x="562.5" y="-62" font-family="Helvetica,sans-Serif" font-size="10.00">Location::wrap_longitude</text>
</a>
</g>
</g>
<!-- Node5&#45;&gt;Node8 -->
<g id="edge7_Node000005_Node000008" class="edge">
<title>Node5&#45;&gt;Node8</title>
<g id="a_edge7_Node000005_Node000008"><a xlink:title=" ">
<path fill="none" stroke="#63b8ff" d="M434.02,-92.91C456.73,-87.85 484.77,-81.6 508.77,-76.25"/>
<polygon fill="#63b8ff" stroke="#63b8ff" points="509.79,-79.61 518.79,-74.02 508.26,-72.78 509.79,-79.61"/>
</a>
</g>
</g>
<!-- Node10 -->
<g id="Node000010" class="node">
<title>Node10</title>
<g id="a_Node000010"><a xlink:href="namespaceAP__HAL.html#a77dffbb18891996280308e21316ec186" target="_top" xlink:title=" ">
<polygon fill="white" stroke="#666666" points="433.5,-55 346.5,-55 346.5,-36 433.5,-36 433.5,-55"/>
<text text-anchor="middle" x="390" y="-43" font-family="Helvetica,sans-Serif" font-size="10.00">AP_HAL::millis</text>
</a>
</g>
</g>
<!-- Node9&#45;&gt;Node10 -->
<g id="edge9_Node000009_Node000010" class="edge">
<title>Node9&#45;&gt;Node10</title>
<g id="a_edge9_Node000009_Node000010"><a xlink:title=" ">
<path fill="none" stroke="#63b8ff" d="M287.27,-51.28C303.16,-50.37 320.36,-49.4 336.01,-48.51"/>
<polygon fill="#63b8ff" stroke="#63b8ff" points="336.27,-52 346.05,-47.94 335.87,-45.01 336.27,-52"/>
</a>
</g>
</g>
<!-- Node11 -->
<g id="Node000011" class="node">
<title>Node11</title>
<g id="a_Node000011"><a xlink:href="hrt_8c.html#a1295f128f60d29874243b5733c4db025" target="_top" xlink:title=" ">
<polygon fill="white" stroke="#666666" points="599.5,-37 525.5,-37 525.5,-18 599.5,-18 599.5,-37"/>
<text text-anchor="middle" x="562.5" y="-25" font-family="Helvetica,sans-Serif" font-size="10.00">hrt_millis32</text>
</a>
</g>
</g>
<!-- Node10&#45;&gt;Node11 -->
<g id="edge10_Node000010_Node000011" class="edge">
<title>Node10&#45;&gt;Node11</title>
<g id="a_edge10_Node000010_Node000011"><a xlink:title=" ">
<path fill="none" stroke="#63b8ff" d="M433.58,-41C458.38,-38.39 489.66,-35.08 515.08,-32.4"/>
<polygon fill="#63b8ff" stroke="#63b8ff" points="515.65,-35.86 525.22,-31.33 514.91,-28.9 515.65,-35.86"/>
</a>
</g>
</g>
<!-- Node12 -->
<g id="Node000012" class="node">
<title>Node12</title>
<g id="a_Node000012"><a xlink:href="hrt_8c.html#a7dd7d90aadd8f76f26da7d5abfad6fe8" target="_top" xlink:title=" ">
<polygon fill="white" stroke="#666666" points="742,-37 668,-37 668,-18 742,-18 742,-37"/>
<text text-anchor="middle" x="705" y="-25" font-family="Helvetica,sans-Serif" font-size="10.00">hrt_millis64</text>
</a>
</g>
</g>
<!-- Node11&#45;&gt;Node12 -->
<g id="edge11_Node000011_Node000012" class="edge">
<title>Node11&#45;&gt;Node12</title>
<g id="a_edge11_Node000011_Node000012"><a xlink:title=" ">
<path fill="none" stroke="#63b8ff" d="M599.68,-27.5C617.38,-27.5 638.89,-27.5 657.76,-27.5"/>
<polygon fill="#63b8ff" stroke="#63b8ff" points="657.94,-31 667.94,-27.5 657.94,-24 657.94,-31"/>
</a>
</g>
</g>
<!-- Node13 -->
<g id="Node000013" class="node">
<title>Node13</title>
<g id="a_Node000013"><a xlink:href="hrt_8c.html#a152c3348a8e83f2dfe35b44cc2e30362" target="_top" xlink:title=" ">
<polygon fill="white" stroke="#666666" points="864,-56 784,-56 784,-37 864,-37 864,-56"/>
<text text-anchor="middle" x="824" y="-44" font-family="Helvetica,sans-Serif" font-size="10.00">hrt_micros64</text>
</a>
</g>
</g>
<!-- Node12&#45;&gt;Node13 -->
<g id="edge12_Node000012_Node000013" class="edge">
<title>Node12&#45;&gt;Node13</title>
<g id="a_edge12_Node000012_Node000013"><a xlink:title=" ">
<path fill="none" stroke="#63b8ff" d="M742.06,-33.36C752.03,-34.98 763.03,-36.76 773.62,-38.48"/>
<polygon fill="#63b8ff" stroke="#63b8ff" points="773.17,-41.95 783.6,-40.1 774.29,-35.04 773.17,-41.95"/>
</a>
</g>
</g>
<!-- Node16 -->
<g id="Node000016" class="node">
<title>Node16</title>
<g id="a_Node000016"><a xlink:href="div1000_8h.html#aece9e7f123414c41d0426fbadca097d8" target="_top" xlink:title=" ">
<polygon fill="white" stroke="#666666" points="870,-19 778,-19 778,0 870,0 870,-19"/>
<text text-anchor="middle" x="824" y="-7" font-family="Helvetica,sans-Serif" font-size="10.00">uint64_div1000</text>
</a>
</g>
</g>
<!-- Node12&#45;&gt;Node16 -->
<g id="edge15_Node000012_Node000016" class="edge">
<title>Node12&#45;&gt;Node16</title>
<g id="a_edge15_Node000012_Node000016"><a xlink:title=" ">
<path fill="none" stroke="#63b8ff" d="M742.06,-21.95C750.17,-20.71 758.95,-19.35 767.64,-18.02"/>
<polygon fill="#63b8ff" stroke="#63b8ff" points="768.41,-21.44 777.76,-16.46 767.34,-14.52 768.41,-21.44"/>
</a>
</g>
</g>
<!-- Node14 -->
<g id="Node000014" class="node">
<title>Node14</title>
<g id="a_Node000014"><a xlink:href="hrt_8c.html#a5b4ffc7ff86bd5b893c4a98834e80200" target="_top" xlink:title=" ">
<polygon fill="white" stroke="#666666" points="989,-75 906,-75 906,-56 989,-56 989,-75"/>
<text text-anchor="middle" x="947.5" y="-63" font-family="Helvetica,sans-Serif" font-size="10.00">hrt_micros64I</text>
</a>
</g>
</g>
<!-- Node13&#45;&gt;Node14 -->
<g id="edge13_Node000013_Node000014" class="edge">
<title>Node13&#45;&gt;Node14</title>
<g id="a_edge13_Node000013_Node000014"><a xlink:title=" ">
<path fill="none" stroke="#63b8ff" d="M864.11,-52.62C874.21,-54.19 885.22,-55.92 895.81,-57.57"/>
<polygon fill="#63b8ff" stroke="#63b8ff" points="895.37,-61.05 905.79,-59.13 896.45,-54.13 895.37,-61.05"/>
</a>
</g>
</g>
<!-- Node15 -->
<g id="Node000015" class="node">
<title>Node15</title>
<g id="a_Node000015"><a xlink:href="hrt_8c.html#a723fef85be7bacb834af35445a891c18" target="_top" xlink:title=" ">
<polygon fill="white" stroke="#666666" points="978.5,-38 916.5,-38 916.5,-19 978.5,-19 978.5,-38"/>
<text text-anchor="middle" x="947.5" y="-26" font-family="Helvetica,sans-Serif" font-size="10.00">is_locked</text>
</a>
</g>
</g>
<!-- Node13&#45;&gt;Node15 -->
<g id="edge14_Node000013_Node000015" class="edge">
<title>Node13&#45;&gt;Node15</title>
<g id="a_edge14_Node000013_Node000015"><a xlink:title=" ">
<path fill="none" stroke="#63b8ff" d="M864.11,-40.71C877.6,-38.71 892.73,-36.47 906.3,-34.46"/>
<polygon fill="#63b8ff" stroke="#63b8ff" points="906.95,-37.9 916.32,-32.97 905.92,-30.97 906.95,-37.9"/>
</a>
</g>
</g>
</g>
</svg>
