<?xml version="1.0" encoding="UTF-8" standalone="no"?>
<!DOCTYPE svg PUBLIC "-//W3C//DTD SVG 1.1//EN"
 "http://www.w3.org/Graphics/SVG/1.1/DTD/svg11.dtd">
<!-- Generated by graphviz version 2.43.0 (0)
 -->
<!-- Title: AP_Airspeed_MS5525::timer Pages: 1 -->
<svg width="944pt" height="235pt"
 viewBox="0.00 0.00 944.00 234.50" xmlns="http://www.w3.org/2000/svg" xmlns:xlink="http://www.w3.org/1999/xlink">
<g id="graph0" class="graph" transform="scale(1 1) rotate(0) translate(4 230.5)">
<title>AP_Airspeed_MS5525::timer</title>
<!-- Node1 -->
<g id="Node000001" class="node">
<title>Node1</title>
<g id="a_Node000001"><a xlink:title=" ">
<polygon fill="#999999" stroke="#666666" points="122,-99 0,-99 0,-69 122,-69 122,-99"/>
<text text-anchor="start" x="8" y="-87" font-family="Helvetica,sans-Serif" font-size="10.00">AP_Airspeed_MS5525</text>
<text text-anchor="middle" x="61" y="-76" font-family="Helvetica,sans-Serif" font-size="10.00">::timer</text>
</a>
</g>
</g>
<!-- Node2 -->
<g id="Node000002" class="node">
<title>Node2</title>
<g id="a_Node000002"><a xlink:href="classAP__Airspeed__MS5525.html#a9f3b8fc0b48b02836aa13f6ea76606c4" target="_top" xlink:title=" ">
<polygon fill="white" stroke="#666666" points="280,-164 158,-164 158,-134 280,-134 280,-164"/>
<text text-anchor="start" x="166" y="-152" font-family="Helvetica,sans-Serif" font-size="10.00">AP_Airspeed_MS5525</text>
<text text-anchor="middle" x="219" y="-141" font-family="Helvetica,sans-Serif" font-size="10.00">::calculate</text>
</a>
</g>
</g>
<!-- Node1&#45;&gt;Node2 -->
<g id="edge1_Node000001_Node000002" class="edge">
<title>Node1&#45;&gt;Node2</title>
<g id="a_edge1_Node000001_Node000002"><a xlink:title=" ">
<path fill="none" stroke="#63b8ff" d="M97.03,-99.19C115.18,-107 137.74,-116.62 158,-125 162.08,-126.69 166.31,-128.42 170.57,-130.15"/>
<polygon fill="#63b8ff" stroke="#63b8ff" points="169.27,-133.4 179.86,-133.9 171.9,-126.91 169.27,-133.4"/>
</a>
</g>
</g>
<!-- Node11 -->
<g id="Node000011" class="node">
<title>Node11</title>
<g id="a_Node000011"><a xlink:href="namespaceAP__HAL.html#a8293355e35887733b1fd151aef08a787" target="_top" xlink:title=" ">
<polygon fill="white" stroke="#666666" points="265.5,-115.5 172.5,-115.5 172.5,-96.5 265.5,-96.5 265.5,-115.5"/>
<text text-anchor="middle" x="219" y="-103.5" font-family="Helvetica,sans-Serif" font-size="10.00">AP_HAL::micros</text>
</a>
</g>
</g>
<!-- Node1&#45;&gt;Node11 -->
<g id="edge10_Node000001_Node000011" class="edge">
<title>Node1&#45;&gt;Node11</title>
<g id="a_edge10_Node000001_Node000011"><a xlink:title=" ">
<path fill="none" stroke="#63b8ff" d="M122.31,-92.51C135.44,-94.36 149.27,-96.31 162.21,-98.13"/>
<polygon fill="#63b8ff" stroke="#63b8ff" points="161.97,-101.63 172.37,-99.56 162.95,-94.7 161.97,-101.63"/>
</a>
</g>
</g>
<!-- Node14 -->
<g id="Node000014" class="node">
<title>Node14</title>
<g id="a_Node000014"><a xlink:href="classAP__Airspeed__MS5525.html#a5a89614be1fb1678d12d01333d466b4a" target="_top" xlink:title=" ">
<polygon fill="white" stroke="#666666" points="280,-78 158,-78 158,-48 280,-48 280,-78"/>
<text text-anchor="start" x="166" y="-66" font-family="Helvetica,sans-Serif" font-size="10.00">AP_Airspeed_MS5525</text>
<text text-anchor="middle" x="219" y="-55" font-family="Helvetica,sans-Serif" font-size="10.00">::read_adc</text>
</a>
</g>
</g>
<!-- Node1&#45;&gt;Node14 -->
<g id="edge14_Node000001_Node000014" class="edge">
<title>Node1&#45;&gt;Node14</title>
<g id="a_edge14_Node000001_Node000014"><a xlink:title=" ">
<path fill="none" stroke="#63b8ff" d="M122.31,-75.88C130.69,-74.75 139.36,-73.59 147.9,-72.44"/>
<polygon fill="#63b8ff" stroke="#63b8ff" points="148.4,-75.9 157.85,-71.1 147.47,-68.96 148.4,-75.9"/>
</a>
</g>
</g>
<!-- Node16 -->
<g id="Node000016" class="node">
<title>Node16</title>
<g id="a_Node000016"><a xlink:href="classAP__HAL_1_1I2CDevice.html#a2e581ddc9b02eb73ad2fdf488fe8dc86" target="_top" xlink:title=" ">
<polygon fill="white" stroke="#666666" points="277,-30 161,-30 161,0 277,0 277,-30"/>
<text text-anchor="start" x="169" y="-18" font-family="Helvetica,sans-Serif" font-size="10.00">AP_HAL::I2CDevice::</text>
<text text-anchor="middle" x="219" y="-7" font-family="Helvetica,sans-Serif" font-size="10.00">transfer</text>
</a>
</g>
</g>
<!-- Node1&#45;&gt;Node16 -->
<g id="edge16_Node000001_Node000016" class="edge">
<title>Node1&#45;&gt;Node16</title>
<g id="a_edge16_Node000001_Node000016"><a xlink:title=" ">
<path fill="none" stroke="#63b8ff" d="M92.92,-68.95C111.64,-59.98 136.05,-48.53 158,-39 161.88,-37.32 165.92,-35.61 169.98,-33.92"/>
<polygon fill="#63b8ff" stroke="#63b8ff" points="171.53,-37.07 179.45,-30.04 168.87,-30.59 171.53,-37.07"/>
</a>
</g>
</g>
<!-- Node3 -->
<g id="Node000003" class="node">
<title>Node3</title>
<g id="a_Node000003"><a xlink:href="namespaceAP__HAL.html#a77dffbb18891996280308e21316ec186" target="_top" xlink:title=" ">
<polygon fill="white" stroke="#666666" points="420.5,-191.5 333.5,-191.5 333.5,-172.5 420.5,-172.5 420.5,-191.5"/>
<text text-anchor="middle" x="377" y="-179.5" font-family="Helvetica,sans-Serif" font-size="10.00">AP_HAL::millis</text>
</a>
</g>
</g>
<!-- Node2&#45;&gt;Node3 -->
<g id="edge2_Node000002_Node000003" class="edge">
<title>Node2&#45;&gt;Node3</title>
<g id="a_edge2_Node000002_Node000003"><a xlink:title=" ">
<path fill="none" stroke="#63b8ff" d="M280.31,-161.76C294.53,-164.77 309.57,-167.95 323.41,-170.87"/>
<polygon fill="#63b8ff" stroke="#63b8ff" points="322.74,-174.31 333.24,-172.96 324.19,-167.46 322.74,-174.31"/>
</a>
</g>
</g>
<!-- Node10 -->
<g id="Node000010" class="node">
<title>Node10</title>
<g id="a_Node000010"><a xlink:href="stdio_8h.html#a55f3d956bb2ba20b5059e9e25484a47f" target="_top" xlink:title=" ">
<polygon fill="white" stroke="#666666" points="398.5,-154.5 355.5,-154.5 355.5,-135.5 398.5,-135.5 398.5,-154.5"/>
<text text-anchor="middle" x="377" y="-142.5" font-family="Helvetica,sans-Serif" font-size="10.00">printf</text>
</a>
</g>
</g>
<!-- Node2&#45;&gt;Node10 -->
<g id="edge9_Node000002_Node000010" class="edge">
<title>Node2&#45;&gt;Node10</title>
<g id="a_edge9_Node000002_Node000010"><a xlink:title=" ">
<path fill="none" stroke="#63b8ff" d="M280.31,-147.45C302.53,-146.88 326.77,-146.26 345.29,-145.79"/>
<polygon fill="#63b8ff" stroke="#63b8ff" points="345.57,-149.28 355.48,-145.53 345.4,-142.28 345.57,-149.28"/>
</a>
</g>
</g>
<!-- Node4 -->
<g id="Node000004" class="node">
<title>Node4</title>
<g id="a_Node000004"><a xlink:href="hrt_8c.html#a1295f128f60d29874243b5733c4db025" target="_top" xlink:title=" ">
<polygon fill="white" stroke="#666666" points="563.5,-191.5 489.5,-191.5 489.5,-172.5 563.5,-172.5 563.5,-191.5"/>
<text text-anchor="middle" x="526.5" y="-179.5" font-family="Helvetica,sans-Serif" font-size="10.00">hrt_millis32</text>
</a>
</g>
</g>
<!-- Node3&#45;&gt;Node4 -->
<g id="edge3_Node000003_Node000004" class="edge">
<title>Node3&#45;&gt;Node4</title>
<g id="a_edge3_Node000003_Node000004"><a xlink:title=" ">
<path fill="none" stroke="#63b8ff" d="M420.66,-182C439.04,-182 460.57,-182 479.32,-182"/>
<polygon fill="#63b8ff" stroke="#63b8ff" points="479.42,-185.5 489.42,-182 479.42,-178.5 479.42,-185.5"/>
</a>
</g>
</g>
<!-- Node5 -->
<g id="Node000005" class="node">
<title>Node5</title>
<g id="a_Node000005"><a xlink:href="hrt_8c.html#a7dd7d90aadd8f76f26da7d5abfad6fe8" target="_top" xlink:title=" ">
<polygon fill="white" stroke="#666666" points="689,-191.5 615,-191.5 615,-172.5 689,-172.5 689,-191.5"/>
<text text-anchor="middle" x="652" y="-179.5" font-family="Helvetica,sans-Serif" font-size="10.00">hrt_millis64</text>
</a>
</g>
</g>
<!-- Node4&#45;&gt;Node5 -->
<g id="edge4_Node000004_Node000005" class="edge">
<title>Node4&#45;&gt;Node5</title>
<g id="a_edge4_Node000004_Node000005"><a xlink:title=" ">
<path fill="none" stroke="#63b8ff" d="M563.55,-182C576.38,-182 591,-182 604.56,-182"/>
<polygon fill="#63b8ff" stroke="#63b8ff" points="604.69,-185.5 614.69,-182 604.69,-178.5 604.69,-185.5"/>
</a>
</g>
</g>
<!-- Node6 -->
<g id="Node000006" class="node">
<title>Node6</title>
<g id="a_Node000006"><a xlink:href="hrt_8c.html#a152c3348a8e83f2dfe35b44cc2e30362" target="_top" xlink:title=" ">
<polygon fill="white" stroke="#666666" points="811,-226.5 731,-226.5 731,-207.5 811,-207.5 811,-226.5"/>
<text text-anchor="middle" x="771" y="-214.5" font-family="Helvetica,sans-Serif" font-size="10.00">hrt_micros64</text>
</a>
</g>
</g>
<!-- Node5&#45;&gt;Node6 -->
<g id="edge5_Node000005_Node000006" class="edge">
<title>Node5&#45;&gt;Node6</title>
<g id="a_edge5_Node000005_Node000006"><a xlink:title=" ">
<path fill="none" stroke="#63b8ff" d="M684.97,-191.56C698.38,-195.58 714.16,-200.3 728.45,-204.57"/>
<polygon fill="#63b8ff" stroke="#63b8ff" points="727.48,-207.93 738.07,-207.45 729.49,-201.23 727.48,-207.93"/>
</a>
</g>
</g>
<!-- Node9 -->
<g id="Node000009" class="node">
<title>Node9</title>
<g id="a_Node000009"><a xlink:href="div1000_8h.html#aece9e7f123414c41d0426fbadca097d8" target="_top" xlink:title=" ">
<polygon fill="white" stroke="#666666" points="817,-189.5 725,-189.5 725,-170.5 817,-170.5 817,-189.5"/>
<text text-anchor="middle" x="771" y="-177.5" font-family="Helvetica,sans-Serif" font-size="10.00">uint64_div1000</text>
</a>
</g>
</g>
<!-- Node5&#45;&gt;Node9 -->
<g id="edge8_Node000005_Node000009" class="edge">
<title>Node5&#45;&gt;Node9</title>
<g id="a_edge8_Node000005_Node000009"><a xlink:title=" ">
<path fill="none" stroke="#63b8ff" d="M689.06,-181.38C697.17,-181.25 705.95,-181.09 714.64,-180.95"/>
<polygon fill="#63b8ff" stroke="#63b8ff" points="714.82,-184.44 724.76,-180.77 714.7,-177.44 714.82,-184.44"/>
</a>
</g>
</g>
<!-- Node7 -->
<g id="Node000007" class="node">
<title>Node7</title>
<g id="a_Node000007"><a xlink:href="hrt_8c.html#a5b4ffc7ff86bd5b893c4a98834e80200" target="_top" xlink:title=" ">
<polygon fill="white" stroke="#666666" points="936,-226.5 853,-226.5 853,-207.5 936,-207.5 936,-226.5"/>
<text text-anchor="middle" x="894.5" y="-214.5" font-family="Helvetica,sans-Serif" font-size="10.00">hrt_micros64I</text>
</a>
</g>
</g>
<!-- Node6&#45;&gt;Node7 -->
<g id="edge6_Node000006_Node000007" class="edge">
<title>Node6&#45;&gt;Node7</title>
<g id="a_edge6_Node000006_Node000007"><a xlink:title=" ">
<path fill="none" stroke="#63b8ff" d="M811.11,-217C821.1,-217 831.99,-217 842.48,-217"/>
<polygon fill="#63b8ff" stroke="#63b8ff" points="842.79,-220.5 852.79,-217 842.79,-213.5 842.79,-220.5"/>
</a>
</g>
</g>
<!-- Node8 -->
<g id="Node000008" class="node">
<title>Node8</title>
<g id="a_Node000008"><a xlink:href="hrt_8c.html#a723fef85be7bacb834af35445a891c18" target="_top" xlink:title=" ">
<polygon fill="white" stroke="#666666" points="925.5,-170.5 863.5,-170.5 863.5,-151.5 925.5,-151.5 925.5,-170.5"/>
<text text-anchor="middle" x="894.5" y="-158.5" font-family="Helvetica,sans-Serif" font-size="10.00">is_locked</text>
</a>
</g>
</g>
<!-- Node6&#45;&gt;Node8 -->
<g id="edge7_Node000006_Node000008" class="edge">
<title>Node6&#45;&gt;Node8</title>
<g id="a_edge7_Node000006_Node000008"><a xlink:title=" ">
<path fill="none" stroke="#63b8ff" d="M796.91,-207.45C803.49,-204.82 810.55,-201.89 817,-199 833.54,-191.6 851.73,-182.6 866.22,-175.22"/>
<polygon fill="#63b8ff" stroke="#63b8ff" points="867.85,-178.32 875.15,-170.64 864.65,-172.09 867.85,-178.32"/>
</a>
</g>
</g>
<!-- Node12 -->
<g id="Node000012" class="node">
<title>Node12</title>
<g id="a_Node000012"><a xlink:href="hrt_8c.html#aaec580bcdf1351b82110305f0f6dd437" target="_top" xlink:title=" ">
<polygon fill="white" stroke="#666666" points="417,-115.5 337,-115.5 337,-96.5 417,-96.5 417,-115.5"/>
<text text-anchor="middle" x="377" y="-103.5" font-family="Helvetica,sans-Serif" font-size="10.00">hrt_micros32</text>
</a>
</g>
</g>
<!-- Node11&#45;&gt;Node12 -->
<g id="edge11_Node000011_Node000012" class="edge">
<title>Node11&#45;&gt;Node12</title>
<g id="a_edge11_Node000011_Node000012"><a xlink:title=" ">
<path fill="none" stroke="#63b8ff" d="M265.54,-106C284.68,-106 306.98,-106 326.52,-106"/>
<polygon fill="#63b8ff" stroke="#63b8ff" points="326.75,-109.5 336.75,-106 326.75,-102.5 326.75,-109.5"/>
</a>
</g>
</g>
<!-- Node12&#45;&gt;Node8 -->
<g id="edge13_Node000012_Node000008" class="edge">
<title>Node12&#45;&gt;Node8</title>
<g id="a_edge13_Node000012_Node000008"><a xlink:title=" ">
<path fill="none" stroke="#63b8ff" d="M417.12,-113.7C434.49,-116.92 455.21,-120.49 474,-123 612.52,-141.5 778,-153.56 853,-158.48"/>
<polygon fill="#63b8ff" stroke="#63b8ff" points="853.18,-162 863.39,-159.15 853.64,-155.01 853.18,-162"/>
</a>
</g>
</g>
<!-- Node13 -->
<g id="Node000013" class="node">
<title>Node13</title>
<g id="a_Node000013"><a xlink:href="hrt_8c.html#a8e056f016b4bb5d52754d890a539c433" target="_top" xlink:title=" ">
<polygon fill="white" stroke="#666666" points="579,-113.5 474,-113.5 474,-94.5 579,-94.5 579,-113.5"/>
<text text-anchor="middle" x="526.5" y="-101.5" font-family="Helvetica,sans-Serif" font-size="10.00">get_systime_us32</text>
</a>
</g>
</g>
<!-- Node12&#45;&gt;Node13 -->
<g id="edge12_Node000012_Node000013" class="edge">
<title>Node12&#45;&gt;Node13</title>
<g id="a_edge12_Node000012_Node000013"><a xlink:title=" ">
<path fill="none" stroke="#63b8ff" d="M417.14,-105.47C431.42,-105.28 447.94,-105.05 463.72,-104.84"/>
<polygon fill="#63b8ff" stroke="#63b8ff" points="463.99,-108.33 473.94,-104.7 463.89,-101.34 463.99,-108.33"/>
</a>
</g>
</g>
<!-- Node15 -->
<g id="Node000015" class="node">
<title>Node15</title>
<g id="a_Node000015"><a xlink:href="classAP__HAL_1_1Device.html#a66215f964cfb5c7421effdb88a749550" target="_top" xlink:title=" ">
<polygon fill="white" stroke="#666666" points="438,-78 316,-78 316,-48 438,-48 438,-78"/>
<text text-anchor="start" x="324" y="-66" font-family="Helvetica,sans-Serif" font-size="10.00">AP_HAL::Device::read</text>
<text text-anchor="middle" x="377" y="-55" font-family="Helvetica,sans-Serif" font-size="10.00">_registers</text>
</a>
</g>
</g>
<!-- Node14&#45;&gt;Node15 -->
<g id="edge15_Node000014_Node000015" class="edge">
<title>Node14&#45;&gt;Node15</title>
<g id="a_edge15_Node000014_Node000015"><a xlink:title=" ">
<path fill="none" stroke="#63b8ff" d="M280.31,-63C288.6,-63 297.17,-63 305.63,-63"/>
<polygon fill="#63b8ff" stroke="#63b8ff" points="305.85,-66.5 315.85,-63 305.85,-59.5 305.85,-66.5"/>
</a>
</g>
</g>
</g>
</svg>
