<?xml version="1.0" encoding="UTF-8" standalone="no"?>
<!DOCTYPE svg PUBLIC "-//W3C//DTD SVG 1.1//EN"
 "http://www.w3.org/Graphics/SVG/1.1/DTD/svg11.dtd">
<!-- Generated by graphviz version 2.43.0 (0)
 -->
<!-- Title: MissionItemProtocol::transfer_is_complete Pages: 1 -->
<svg width="302pt" height="152pt"
 viewBox="0.00 0.00 302.00 152.00" xmlns="http://www.w3.org/2000/svg" xmlns:xlink="http://www.w3.org/1999/xlink">
<g id="graph0" class="graph" transform="scale(1 1) rotate(0) translate(4 148)">
<title>MissionItemProtocol::transfer_is_complete</title>
<!-- Node1 -->
<g id="Node000001" class="node">
<title>Node1</title>
<g id="a_Node000001"><a xlink:title=" ">
<polygon fill="#999999" stroke="#666666" points="125,-96 0,-96 0,-66 125,-66 125,-96"/>
<text text-anchor="start" x="8" y="-84" font-family="Helvetica,sans-Serif" font-size="10.00">MissionItemProtocol</text>
<text text-anchor="middle" x="62.5" y="-73" font-family="Helvetica,sans-Serif" font-size="10.00">::transfer_is_complete</text>
</a>
</g>
</g>
<!-- Node2 -->
<g id="Node000002" class="node">
<title>Node2</title>
<g id="a_Node000002"><a xlink:href="classMissionItemProtocol.html#a941a3c4c6843ec327ad0db087eca5ba5" target="_top" xlink:title=" ">
<polygon fill="white" stroke="#666666" points="285.5,-144 169.5,-144 169.5,-114 285.5,-114 285.5,-144"/>
<text text-anchor="start" x="177.5" y="-132" font-family="Helvetica,sans-Serif" font-size="10.00">MissionItemProtocol</text>
<text text-anchor="middle" x="227.5" y="-121" font-family="Helvetica,sans-Serif" font-size="10.00">::complete</text>
</a>
</g>
</g>
<!-- Node1&#45;&gt;Node2 -->
<g id="edge1_Node000001_Node000002" class="edge">
<title>Node1&#45;&gt;Node2</title>
<g id="a_edge1_Node000001_Node000002"><a xlink:title=" ">
<path fill="none" stroke="#63b8ff" d="M114.63,-96.06C130.86,-100.84 148.97,-106.17 165.81,-111.13"/>
<polygon fill="#63b8ff" stroke="#63b8ff" points="164.97,-114.53 175.55,-114 166.95,-107.82 164.97,-114.53"/>
</a>
</g>
</g>
<!-- Node3 -->
<g id="Node000003" class="node">
<title>Node3</title>
<g id="a_Node000003"><a xlink:href="classMissionItemProtocol.html#ae1eff1177fbb207ff074ae071285994d" target="_top" xlink:title=" ">
<polygon fill="white" stroke="#666666" points="294,-96 161,-96 161,-66 294,-66 294,-96"/>
<text text-anchor="start" x="169" y="-84" font-family="Helvetica,sans-Serif" font-size="10.00">MissionItemProtocol</text>
<text text-anchor="middle" x="227.5" y="-73" font-family="Helvetica,sans-Serif" font-size="10.00">::free_upload_resources</text>
</a>
</g>
</g>
<!-- Node1&#45;&gt;Node3 -->
<g id="edge2_Node000001_Node000003" class="edge">
<title>Node1&#45;&gt;Node3</title>
<g id="a_edge2_Node000001_Node000003"><a xlink:title=" ">
<path fill="none" stroke="#63b8ff" d="M125.12,-81C133.55,-81 142.27,-81 150.91,-81"/>
<polygon fill="#63b8ff" stroke="#63b8ff" points="150.98,-84.5 160.98,-81 150.98,-77.5 150.98,-84.5"/>
</a>
</g>
</g>
<!-- Node4 -->
<g id="Node000004" class="node">
<title>Node4</title>
<g id="a_Node000004"><a xlink:href="classMissionItemProtocol.html#a0f57a2ceddc8d639f51e138c266179b8" target="_top" xlink:title=" ">
<polygon fill="white" stroke="#666666" points="285.5,-30 169.5,-30 169.5,0 285.5,0 285.5,-30"/>
<text text-anchor="start" x="177.5" y="-18" font-family="Helvetica,sans-Serif" font-size="10.00">MissionItemProtocol</text>
<text text-anchor="middle" x="227.5" y="-7" font-family="Helvetica,sans-Serif" font-size="10.00">::send_mission_ack</text>
</a>
</g>
</g>
<!-- Node1&#45;&gt;Node4 -->
<g id="edge3_Node000001_Node000004" class="edge">
<title>Node1&#45;&gt;Node4</title>
<g id="a_edge3_Node000001_Node000004"><a xlink:title=" ">
<path fill="none" stroke="#63b8ff" d="M100.9,-65.86C124.4,-56.34 154.9,-43.99 179.97,-33.84"/>
<polygon fill="#63b8ff" stroke="#63b8ff" points="181.32,-37.07 189.28,-30.07 178.7,-30.58 181.32,-37.07"/>
</a>
</g>
</g>
<!-- Node4&#45;&gt;Node4 -->
<g id="edge4_Node000004_Node000004" class="edge">
<title>Node4&#45;&gt;Node4</title>
<g id="a_edge4_Node000004_Node000004"><a xlink:title=" ">
<path fill="none" stroke="#63b8ff" d="M198.67,-30.28C192.27,-39.41 201.88,-48 227.5,-48 242.71,-48 252.28,-44.97 256.21,-40.6"/>
<polygon fill="#63b8ff" stroke="#63b8ff" points="259.71,-40.32 256.33,-30.28 252.71,-40.23 259.71,-40.32"/>
</a>
</g>
</g>
</g>
</svg>
