<?xml version="1.0" encoding="UTF-8" standalone="no"?>
<!DOCTYPE svg PUBLIC "-//W3C//DTD SVG 1.1//EN"
 "http://www.w3.org/Graphics/SVG/1.1/DTD/svg11.dtd">
<!-- Generated by graphviz version 2.43.0 (0)
 -->
<!-- Title: AP_HAL::UARTDriver::set_unbuffered_writes Pages: 1 -->
<!--zoomable 280 -->

<svg id="main" version="1.1" xmlns="http://www.w3.org/2000/svg" xmlns:xlink="http://www.w3.org/1999/xlink" xml:space="preserve" onload="init(evt)">
<style type="text/css"><![CDATA[
.node, .edge {opacity: 0.7;}
.node.selected, .edge.selected {opacity: 1;}
.edge:hover path { stroke: red; }
.edge:hover polygon { stroke: red; fill: red; }
]]></style>

<defs>
  <circle id="rim" cx="0" cy="0" r="7"/>
  <circle id="rim2" cx="0" cy="0" r="3.5"/>
  <g id="zoomPlus">
    <use xlink:href="#rim" fill="#404040"><set attributeName="fill" to="#808080" begin="zoomplus.mouseover" end="zoomplus.mouseout"/></use>
    <path d="M-4,0h8M0,-4v8" fill="none" stroke="white" stroke-width="1.5" pointer-events="none"/>
  </g>
  <g id="zoomMin">
    <use xlink:href="#rim" fill="#404040"><set attributeName="fill" to="#808080" begin="zoomminus.mouseover" end="zoomminus.mouseout"/></use>
    <path d="M-4,0h8" fill="none" stroke="white" stroke-width="1.5" pointer-events="none"/>
  </g>
  <g id="arrowUp" transform="translate(30 24)">
    <use xlink:href="#rim"/>
    <path pointer-events="none" fill="none" stroke="white" stroke-width="1.5" d="M0,-3.0v7 M-2.5,-0.5L0,-3.0L2.5,-0.5"/>
  </g>
  <g id="arrowRight" transform="rotate(90) translate(36 -43)">
    <use xlink:href="#rim"/>
    <path pointer-events="none" fill="none" stroke="white" stroke-width="1.5" d="M0,-3.0v7 M-2.5,-0.5L0,-3.0L2.5,-0.5"/>
  </g>
  <g id="arrowDown" transform="rotate(180) translate(-30 -48)">
    <use xlink:href="#rim"/>
    <path pointer-events="none" fill="none" stroke="white" stroke-width="1.5" d="M0,-3.0v7 M-2.5,-0.5L0,-3.0L2.5,-0.5"/>
  </g>
  <g id="arrowLeft" transform="rotate(270) translate(-36 17)">
    <use xlink:href="#rim"/>
    <path pointer-events="none" fill="none" stroke="white" stroke-width="1.5" d="M0,-3.0v7 M-2.5,-0.5L0,-3.0L2.5,-0.5"/>
  </g>
  <g id="resetDef">
    <use xlink:href="#rim2" fill="#404040"><set attributeName="fill" to="#808080" begin="reset.mouseover" end="reset.mouseout"/></use>
  </g>
</defs>
<script type="application/ecmascript">
var viewWidth = 1076;
var viewHeight = 280;
var sectionId = 'dynsection-24';
</script>
<script type="application/ecmascript" xlink:href="svg.min.js"/>
<svg id="graph" class="graph">
<g id="viewport">
<title>AP_HAL::UARTDriver::set_unbuffered_writes</title>
<!-- Node1 -->
<g id="Node000001" class="node">
<title>Node1</title>
<g id="a_Node000001"><a xlink:title=" ">
<polygon fill="#999999" stroke="#666666" points="1068,-79.5 937,-79.5 937,-49.5 1068,-49.5 1068,-79.5"/>
<text text-anchor="start" x="945" y="-67.5" font-family="Helvetica,sans-Serif" font-size="10.00">AP_HAL::UARTDriver</text>
<text text-anchor="middle" x="1002.5" y="-56.5" font-family="Helvetica,sans-Serif" font-size="10.00">::set_unbuffered_writes</text>
</a>
</g>
</g>
<!-- Node2 -->
<g id="Node000002" class="node">
<title>Node2</title>
<g id="a_Node000002"><a xlink:href="classAP__RCProtocol__SRXL2.html#a80843a0bd25ac1a20d5e3415a3e4799d" target="_top" xlink:title=" ">
<polygon fill="white" stroke="#666666" points="899.5,-158.5 775.5,-158.5 775.5,-128.5 899.5,-128.5 899.5,-158.5"/>
<text text-anchor="start" x="783.5" y="-146.5" font-family="Helvetica,sans-Serif" font-size="10.00">AP_RCProtocol_SRXL2</text>
<text text-anchor="middle" x="837.5" y="-135.5" font-family="Helvetica,sans-Serif" font-size="10.00">::change_baud_rate</text>
</a>
</g>
</g>
<!-- Node1&#45;&gt;Node2 -->
<g id="edge1_Node000001_Node000002" class="edge">
<title>Node1&#45;&gt;Node2</title>
<g id="a_edge1_Node000001_Node000002"><a xlink:title=" ">
<path fill="none" stroke="#63b8ff" d="M961.25,-84.01C932.98,-97.71 895.73,-115.76 869.7,-128.38"/>
<polygon fill="#63b8ff" stroke="#63b8ff" points="962.98,-87.06 970.46,-79.55 959.93,-80.76 962.98,-87.06"/>
</a>
</g>
</g>
<!-- Node11 -->
<g id="Node000011" class="node">
<title>Node11</title>
<g id="a_Node000011"><a xlink:href="classAP__SerialManager.html#a4f6d491b1538d6d2513af7375825f35e" target="_top" xlink:title=" ">
<polygon fill="white" stroke="#666666" points="901,-93 774,-93 774,-74 901,-74 901,-93"/>
<text text-anchor="middle" x="837.5" y="-81" font-family="Helvetica,sans-Serif" font-size="10.00">AP_SerialManager::init</text>
</a>
</g>
</g>
<!-- Node1&#45;&gt;Node11 -->
<g id="edge12_Node000001_Node000011" class="edge">
<title>Node1&#45;&gt;Node11</title>
<g id="a_edge12_Node000001_Node000011"><a xlink:title=" ">
<path fill="none" stroke="#63b8ff" d="M926.63,-73.23C918.07,-74.22 909.42,-75.23 901.04,-76.21"/>
<polygon fill="#63b8ff" stroke="#63b8ff" points="927.08,-76.7 936.61,-72.06 926.27,-69.75 927.08,-76.7"/>
</a>
</g>
</g>
<!-- Node14 -->
<g id="Node000014" class="node">
<title>Node14</title>
<g id="a_Node000014"><a xlink:href="classAP__Hott__Telem.html#a5afb837ff331d290aa058c62c2e18628" target="_top" xlink:title=" ">
<polygon fill="white" stroke="#666666" points="896,-56 779,-56 779,-37 896,-37 896,-56"/>
<text text-anchor="middle" x="837.5" y="-44" font-family="Helvetica,sans-Serif" font-size="10.00">AP_Hott_Telem::loop</text>
</a>
</g>
</g>
<!-- Node1&#45;&gt;Node14 -->
<g id="edge15_Node000001_Node000014" class="edge">
<title>Node1&#45;&gt;Node14</title>
<g id="a_edge15_Node000001_Node000014"><a xlink:title=" ">
<path fill="none" stroke="#63b8ff" d="M926.46,-56.21C916.24,-55.09 905.89,-53.94 896.05,-52.86"/>
<polygon fill="#63b8ff" stroke="#63b8ff" points="926.29,-59.72 936.61,-57.33 927.05,-52.76 926.29,-59.72"/>
</a>
</g>
</g>
<!-- Node16 -->
<g id="Node000016" class="node">
<title>Node16</title>
<g id="a_Node000016"><a xlink:href="UART__chargen_8cpp.html#a4fc01d736fe50cf5b977f755b675f11d" target="_top" xlink:title=" ">
<polygon fill="white" stroke="#666666" points="859.5,-19 815.5,-19 815.5,0 859.5,0 859.5,-19"/>
<text text-anchor="middle" x="837.5" y="-7" font-family="Helvetica,sans-Serif" font-size="10.00">setup</text>
</a>
</g>
</g>
<!-- Node1&#45;&gt;Node16 -->
<g id="edge18_Node000001_Node000016" class="edge">
<title>Node1&#45;&gt;Node16</title>
<g id="a_edge18_Node000001_Node000016"><a xlink:title=" ">
<path fill="none" stroke="#63b8ff" d="M953.17,-45.9C936.71,-39.78 918.13,-33.11 901,-27.5 887.37,-23.04 871.88,-18.57 859.74,-15.2"/>
<polygon fill="#63b8ff" stroke="#63b8ff" points="952,-49.2 962.59,-49.43 954.46,-42.65 952,-49.2"/>
</a>
</g>
</g>
<!-- Node3 -->
<g id="Node000003" class="node">
<title>Node3</title>
<g id="a_Node000003"><a xlink:href="classAP__RCProtocol__SRXL2.html#ac4e228fc50fb8c8f094805df76eeb118" target="_top" xlink:title=" ">
<polygon fill="white" stroke="#666666" points="444,-169.5 320,-169.5 320,-139.5 444,-139.5 444,-169.5"/>
<text text-anchor="start" x="328" y="-157.5" font-family="Helvetica,sans-Serif" font-size="10.00">AP_RCProtocol_SRXL2</text>
<text text-anchor="middle" x="382" y="-146.5" font-family="Helvetica,sans-Serif" font-size="10.00">::process_handshake</text>
</a>
</g>
</g>
<!-- Node2&#45;&gt;Node3 -->
<g id="edge2_Node000002_Node000003" class="edge">
<title>Node2&#45;&gt;Node3</title>
<g id="a_edge2_Node000002_Node000003"><a xlink:title=" ">
<path fill="none" stroke="#63b8ff" d="M765.13,-145.23C676.76,-147.37 527.71,-150.99 444.28,-153.01"/>
<polygon fill="#63b8ff" stroke="#63b8ff" points="765.43,-148.73 775.34,-144.98 765.26,-141.73 765.43,-148.73"/>
</a>
</g>
</g>
<!-- Node4 -->
<g id="Node000004" class="node">
<title>Node4</title>
<g id="a_Node000004"><a xlink:href="AP__RCProtocol__SRXL2_8cpp.html#abf716069851120fe6ccf65993ed0025f" target="_top" xlink:title=" ">
<polygon fill="white" stroke="#666666" points="738,-210 619,-210 619,-191 738,-191 738,-210"/>
<text text-anchor="middle" x="678.5" y="-198" font-family="Helvetica,sans-Serif" font-size="10.00">srxlChangeBaudRate</text>
</a>
</g>
</g>
<!-- Node2&#45;&gt;Node4 -->
<g id="edge3_Node000002_Node000004" class="edge">
<title>Node2&#45;&gt;Node4</title>
<g id="a_edge3_Node000002_Node000004"><a xlink:title=" ">
<path fill="none" stroke="#63b8ff" d="M785.33,-162.08C758.87,-171.68 727.68,-183.01 706.04,-190.86"/>
<polygon fill="#63b8ff" stroke="#63b8ff" points="786.63,-165.33 794.84,-158.63 784.24,-158.75 786.63,-165.33"/>
</a>
</g>
</g>
<!-- Node5 -->
<g id="Node000005" class="node">
<title>Node5</title>
<g id="a_Node000005"><a xlink:href="spm__srxl_8cpp.html#abb6c29519ebab7275100d4f8f586a407" target="_top" xlink:title="Public function to call from the user UART code when a UART frame error occurs.">
<polygon fill="white" stroke="#666666" points="582.5,-191 480.5,-191 480.5,-172 582.5,-172 582.5,-191"/>
<text text-anchor="middle" x="531.5" y="-179" font-family="Helvetica,sans-Serif" font-size="10.00">srxlOnFrameError</text>
</a>
</g>
</g>
<!-- Node4&#45;&gt;Node5 -->
<g id="edge4_Node000004_Node000005" class="edge">
<title>Node4&#45;&gt;Node5</title>
<g id="a_edge4_Node000004_Node000005"><a xlink:title=" ">
<path fill="none" stroke="#63b8ff" d="M608.77,-191.49C600.04,-190.35 591.25,-189.2 582.89,-188.1"/>
<polygon fill="#63b8ff" stroke="#63b8ff" points="608.57,-195 618.94,-192.83 609.48,-188.06 608.57,-195"/>
</a>
</g>
</g>
<!-- Node6 -->
<g id="Node000006" class="node">
<title>Node6</title>
<g id="a_Node000006"><a xlink:href="spm__srxl_8cpp.html#a391c56270595716dd87af954f43e945f" target="_top" xlink:title="Parse an SRXL packet received on the given SRXL bus UART.">
<polygon fill="white" stroke="#666666" points="428,-266 336,-266 336,-247 428,-247 428,-266"/>
<text text-anchor="middle" x="382" y="-254" font-family="Helvetica,sans-Serif" font-size="10.00">srxlParsePacket</text>
</a>
</g>
</g>
<!-- Node4&#45;&gt;Node6 -->
<g id="edge5_Node000004_Node000006" class="edge">
<title>Node4&#45;&gt;Node6</title>
<g id="a_edge5_Node000004_Node000006"><a xlink:title=" ">
<path fill="none" stroke="#63b8ff" d="M648.49,-214.3C630.13,-222.41 605.66,-232.1 583,-237.5 530.75,-249.95 468.99,-254.3 428.07,-255.79"/>
<polygon fill="#63b8ff" stroke="#63b8ff" points="650.07,-217.42 657.75,-210.11 647.19,-211.04 650.07,-217.42"/>
</a>
</g>
</g>
<!-- Node9 -->
<g id="Node000009" class="node">
<title>Node9</title>
<g id="a_Node000009"><a xlink:href="spm__srxl_8cpp.html#a2b25619fd13f4e1eae9c975023d40d5f" target="_top" xlink:title="Run the SRXL state machine after each receive or rx timeout.">
<polygon fill="white" stroke="#666666" points="558,-228 505,-228 505,-209 558,-209 558,-228"/>
<text text-anchor="middle" x="531.5" y="-216" font-family="Helvetica,sans-Serif" font-size="10.00">srxlRun</text>
</a>
</g>
</g>
<!-- Node4&#45;&gt;Node9 -->
<g id="edge8_Node000004_Node000009" class="edge">
<title>Node4&#45;&gt;Node9</title>
<g id="a_edge8_Node000004_Node000009"><a xlink:title=" ">
<path fill="none" stroke="#63b8ff" d="M608.98,-209.01C590.93,-211.25 572.55,-213.53 558.33,-215.29"/>
<polygon fill="#63b8ff" stroke="#63b8ff" points="609.45,-212.47 618.94,-207.77 608.59,-205.53 609.45,-212.47"/>
</a>
</g>
</g>
<!-- Node7 -->
<g id="Node000007" class="node">
<title>Node7</title>
<g id="a_Node000007"><a xlink:href="classAP__RCProtocol__SRXL2.html#a3a2e216f11a29c9363c189309b7c915b" target="_top" xlink:title=" ">
<polygon fill="white" stroke="#666666" points="284,-271.5 160,-271.5 160,-241.5 284,-241.5 284,-271.5"/>
<text text-anchor="start" x="168" y="-259.5" font-family="Helvetica,sans-Serif" font-size="10.00">AP_RCProtocol_SRXL2</text>
<text text-anchor="middle" x="222" y="-248.5" font-family="Helvetica,sans-Serif" font-size="10.00">::_process_byte</text>
</a>
</g>
</g>
<!-- Node6&#45;&gt;Node7 -->
<g id="edge6_Node000006_Node000007" class="edge">
<title>Node6&#45;&gt;Node7</title>
<g id="a_edge6_Node000006_Node000007"><a xlink:title=" ">
<path fill="none" stroke="#63b8ff" d="M325.69,-256.5C312.27,-256.5 297.85,-256.5 284.19,-256.5"/>
<polygon fill="#63b8ff" stroke="#63b8ff" points="325.72,-260 335.72,-256.5 325.72,-253 325.72,-260"/>
</a>
</g>
</g>
<!-- Node8 -->
<g id="Node000008" class="node">
<title>Node8</title>
<g id="a_Node000008"><a xlink:href="classAP__RCProtocol__SRXL2.html#ae5d7618d7136d64ec6589b77b040c8d0" target="_top" xlink:title=" ">
<polygon fill="white" stroke="#666666" points="124,-271.5 0,-271.5 0,-241.5 124,-241.5 124,-271.5"/>
<text text-anchor="start" x="8" y="-259.5" font-family="Helvetica,sans-Serif" font-size="10.00">AP_RCProtocol_SRXL2</text>
<text text-anchor="middle" x="62" y="-248.5" font-family="Helvetica,sans-Serif" font-size="10.00">::process_byte</text>
</a>
</g>
</g>
<!-- Node7&#45;&gt;Node8 -->
<g id="edge7_Node000007_Node000008" class="edge">
<title>Node7&#45;&gt;Node8</title>
<g id="a_edge7_Node000007_Node000008"><a xlink:title=" ">
<path fill="none" stroke="#63b8ff" d="M149.63,-256.5C141.14,-256.5 132.52,-256.5 124.18,-256.5"/>
<polygon fill="#63b8ff" stroke="#63b8ff" points="149.91,-260 159.91,-256.5 149.91,-253 149.91,-260"/>
</a>
</g>
</g>
<!-- Node9&#45;&gt;Node3 -->
<g id="edge9_Node000009_Node000003" class="edge">
<title>Node9&#45;&gt;Node3</title>
<g id="a_edge9_Node000009_Node000003"><a xlink:title=" ">
<path fill="none" stroke="#63b8ff" d="M495.19,-206.43C490.06,-204.52 484.87,-202.52 480,-200.5 457.1,-191.02 431.81,-178.97 412.8,-169.58"/>
<polygon fill="#63b8ff" stroke="#63b8ff" points="494.28,-209.82 504.88,-209.93 496.66,-203.24 494.28,-209.82"/>
</a>
</g>
</g>
<!-- Node9&#45;&gt;Node6 -->
<g id="edge10_Node000009_Node000006" class="edge">
<title>Node9&#45;&gt;Node6</title>
<g id="a_edge10_Node000009_Node000006"><a xlink:title=" ">
<path fill="none" stroke="#63b8ff" d="M494.91,-227.67C472.24,-233.51 442.94,-241.06 420.01,-246.97"/>
<polygon fill="#63b8ff" stroke="#63b8ff" points="496,-231 504.81,-225.12 494.25,-224.22 496,-231"/>
</a>
</g>
</g>
<!-- Node10 -->
<g id="Node000010" class="node">
<title>Node10</title>
<g id="a_Node000010"><a xlink:href="classAP__RCProtocol__SRXL2.html#a4de4a71395b98710d2d69f3423fc4f62" target="_top" xlink:title=" ">
<polygon fill="white" stroke="#666666" points="444,-228.5 320,-228.5 320,-198.5 444,-198.5 444,-228.5"/>
<text text-anchor="start" x="328" y="-216.5" font-family="Helvetica,sans-Serif" font-size="10.00">AP_RCProtocol_SRXL2</text>
<text text-anchor="middle" x="382" y="-205.5" font-family="Helvetica,sans-Serif" font-size="10.00">::update</text>
</a>
</g>
</g>
<!-- Node9&#45;&gt;Node10 -->
<g id="edge11_Node000009_Node000010" class="edge">
<title>Node9&#45;&gt;Node10</title>
<g id="a_edge11_Node000009_Node000010"><a xlink:title=" ">
<path fill="none" stroke="#63b8ff" d="M494.81,-217.29C479.62,-216.78 461.46,-216.16 444.24,-215.58"/>
<polygon fill="#63b8ff" stroke="#63b8ff" points="494.69,-220.79 504.81,-217.63 494.93,-213.79 494.69,-220.79"/>
</a>
</g>
</g>
<!-- Node12 -->
<g id="Node000012" class="node">
<title>Node12</title>
<g id="a_Node000012"><a xlink:href="AHRS__Test_8cpp.html#a4fc01d736fe50cf5b977f755b675f11d" target="_top" xlink:title=" ">
<polygon fill="white" stroke="#666666" points="700.5,-77 656.5,-77 656.5,-58 700.5,-58 700.5,-77"/>
<text text-anchor="middle" x="678.5" y="-65" font-family="Helvetica,sans-Serif" font-size="10.00">setup</text>
</a>
</g>
</g>
<!-- Node11&#45;&gt;Node12 -->
<g id="edge13_Node000011_Node000012" class="edge">
<title>Node11&#45;&gt;Node12</title>
<g id="a_edge13_Node000011_Node000012"><a xlink:title=" ">
<path fill="none" stroke="#63b8ff" d="M763.85,-76.1C740.83,-73.75 717.14,-71.34 700.75,-69.67"/>
<polygon fill="#63b8ff" stroke="#63b8ff" points="763.69,-79.6 774,-77.13 764.4,-72.63 763.69,-79.6"/>
</a>
</g>
</g>
<!-- Node13 -->
<g id="Node000013" class="node">
<title>Node13</title>
<g id="a_Node000013"><a xlink:href="classAP__Vehicle.html#ac0f751deebdba5725b2b52862719a15d" target="_top" xlink:title=" ">
<polygon fill="white" stroke="#666666" points="583,-78 480,-78 480,-59 583,-59 583,-78"/>
<text text-anchor="middle" x="531.5" y="-66" font-family="Helvetica,sans-Serif" font-size="10.00">AP_Vehicle::setup</text>
</a>
</g>
</g>
<!-- Node11&#45;&gt;Node13 -->
<g id="edge14_Node000011_Node000013" class="edge">
<title>Node11&#45;&gt;Node13</title>
<g id="a_edge14_Node000011_Node000013"><a xlink:title=" ">
<path fill="none" stroke="#63b8ff" d="M763.76,-88.71C721.42,-90.7 667.07,-91.45 619,-86.5 602.83,-84.83 585.22,-81.46 570.13,-78.08"/>
<polygon fill="#63b8ff" stroke="#63b8ff" points="764.17,-92.2 773.98,-88.2 763.82,-85.21 764.17,-92.2"/>
</a>
</g>
</g>
<!-- Node15 -->
<g id="Node000015" class="node">
<title>Node15</title>
<g id="a_Node000015"><a xlink:href="classAP__Hott__Telem.html#a6ad2badf6c27c14858b99d94918874cc" target="_top" xlink:title=" ">
<polygon fill="white" stroke="#666666" points="734.5,-40 622.5,-40 622.5,-21 734.5,-21 734.5,-40"/>
<text text-anchor="middle" x="678.5" y="-28" font-family="Helvetica,sans-Serif" font-size="10.00">AP_Hott_Telem::init</text>
</a>
</g>
</g>
<!-- Node14&#45;&gt;Node15 -->
<g id="edge16_Node000014_Node000015" class="edge">
<title>Node14&#45;&gt;Node15</title>
<g id="a_edge16_Node000014_Node000015"><a xlink:title=" ">
<path fill="none" stroke="#63b8ff" d="M768.64,-39.58C757.31,-38.43 745.67,-37.24 734.71,-36.13"/>
<polygon fill="#63b8ff" stroke="#63b8ff" points="768.63,-43.1 778.93,-40.63 769.34,-36.14 768.63,-43.1"/>
</a>
</g>
</g>
<!-- Node15&#45;&gt;Node13 -->
<g id="edge17_Node000015_Node000013" class="edge">
<title>Node15&#45;&gt;Node13</title>
<g id="a_edge17_Node000015_Node000013"><a xlink:title=" ">
<path fill="none" stroke="#63b8ff" d="M631.01,-42.68C610.88,-47.96 587.66,-54.04 568.83,-58.98"/>
<polygon fill="#63b8ff" stroke="#63b8ff" points="632.12,-46.01 640.91,-40.09 630.35,-39.24 632.12,-46.01"/>
</a>
</g>
</g>
</g>
</svg>

<g id="navigator" transform="translate(0 0)" fill="#404254">
  <rect fill="#f2f5e9" fill-opacity="0.5" stroke="#606060" stroke-width=".5" x="0" y="0" width="60" height="60"/>
  <use id="zoomplus" xlink:href="#zoomPlus" x="17" y="9" onmousedown="handleZoom(evt,'in')"/>
  <use id="zoomminus" xlink:href="#zoomMin" x="42" y="9" onmousedown="handleZoom(evt,'out')"/>
  <use id="reset" xlink:href="#resetDef" x="30" y="36" onmousedown="handleReset()"/>
   <use id="arrowup" xlink:href="#arrowUp" x="0" y="0" onmousedown="handlePan(0,-1)"/>
  <use id="arrowright" xlink:href="#arrowRight" x="0" y="0" onmousedown="handlePan(1,0)"/>
  <use id="arrowdown" xlink:href="#arrowDown" x="0" y="0" onmousedown="handlePan(0,1)"/>
  <use id="arrowleft" xlink:href="#arrowLeft" x="0" y="0" onmousedown="handlePan(-1,0)"/>
</g>
<svg viewBox="0 0 15 15" width="100%" height="30px" preserveAspectRatio="xMaxYMin meet">
 <g id="arrow_out" transform="scale(0.3 0.3)">
  <a xlink:href="classAP__HAL_1_1UARTDriver_af2233a3eaef96b31d18f84f1c37fcb01_icgraph_org.svg" target="_base">
   <rect id="button" ry="5" rx="5" y="6" x="6" height="38" width="38"
        fill="#f2f5e9" fill-opacity="0.5" stroke="#606060" stroke-width="1.0"/>
   <path id="arrow"
     d="M 11.500037,31.436501 C 11.940474,20.09759 22.043105,11.32322 32.158766,21.979434 L 37.068811,17.246167 C 37.068811,17.246167 37.088388,32 37.088388,32 L 22.160133,31.978069 C 22.160133,31.978069 26.997745,27.140456 26.997745,27.140456 C 18.528582,18.264221 13.291696,25.230495 11.500037,31.436501 z"
     style="fill:#404040;"/>
  </a>
 </g>
</svg>

<style type='text/css'>
<![CDATA[
[data-mouse-over-selected='false'] { opacity: 0.7; }
[data-mouse-over-selected='true']  { opacity: 1.0; }
]]>
</style>
<script type="application/ecmascript"><![CDATA[
document.addEventListener('DOMContentLoaded', (event) => {
  highlightEdges();
  highlightAdjacentNodes();
});
]]></script>
</svg>
