<?xml version="1.0" encoding="UTF-8" standalone="no"?>
<!DOCTYPE svg PUBLIC "-//W3C//DTD SVG 1.1//EN"
 "http://www.w3.org/Graphics/SVG/1.1/DTD/svg11.dtd">
<!-- Generated by graphviz version 2.43.0 (0)
 -->
<!-- Title: AP_VideoTX::set_defaults Pages: 1 -->
<svg width="936pt" height="38pt"
 viewBox="0.00 0.00 936.00 38.00" xmlns="http://www.w3.org/2000/svg" xmlns:xlink="http://www.w3.org/1999/xlink">
<g id="graph0" class="graph" transform="scale(1 1) rotate(0) translate(4 34)">
<title>AP_VideoTX::set_defaults</title>
<!-- Node1 -->
<g id="Node000001" class="node">
<title>Node1</title>
<g id="a_Node000001"><a xlink:title=" ">
<polygon fill="#999999" stroke="#666666" points="928,-24.5 787,-24.5 787,-5.5 928,-5.5 928,-24.5"/>
<text text-anchor="middle" x="857.5" y="-12.5" font-family="Helvetica,sans-Serif" font-size="10.00">AP_VideoTX::set_defaults</text>
</a>
</g>
</g>
<!-- Node2 -->
<g id="Node000002" class="node">
<title>Node2</title>
<g id="a_Node000002"><a xlink:href="classAP__SmartAudio.html#a9a693e6bce4142eca2a5b4cb678f0114" target="_top" xlink:title=" ">
<polygon fill="white" stroke="#666666" points="751,-30 620,-30 620,0 751,0 751,-30"/>
<text text-anchor="start" x="628" y="-18" font-family="Helvetica,sans-Serif" font-size="10.00">AP_SmartAudio::update</text>
<text text-anchor="middle" x="685.5" y="-7" font-family="Helvetica,sans-Serif" font-size="10.00">_vtx_settings</text>
</a>
</g>
</g>
<!-- Node1&#45;&gt;Node2 -->
<g id="edge1_Node000001_Node000002" class="edge">
<title>Node1&#45;&gt;Node2</title>
<g id="a_edge1_Node000001_Node000002"><a xlink:title=" ">
<path fill="none" stroke="#63b8ff" d="M776.81,-15C768.19,-15 759.51,-15 751.1,-15"/>
<polygon fill="#63b8ff" stroke="#63b8ff" points="776.86,-18.5 786.86,-15 776.86,-11.5 776.86,-18.5"/>
</a>
</g>
</g>
<!-- Node3 -->
<g id="Node000003" class="node">
<title>Node3</title>
<g id="a_Node000003"><a xlink:href="classAP__SmartAudio.html#a12a8ba2945ab9b4067bf4431fd69f104" target="_top" xlink:title=" ">
<polygon fill="white" stroke="#666666" points="584,-30 459,-30 459,0 584,0 584,-30"/>
<text text-anchor="start" x="467" y="-18" font-family="Helvetica,sans-Serif" font-size="10.00">AP_SmartAudio::parse</text>
<text text-anchor="middle" x="521.5" y="-7" font-family="Helvetica,sans-Serif" font-size="10.00">_response_buffer</text>
</a>
</g>
</g>
<!-- Node2&#45;&gt;Node3 -->
<g id="edge2_Node000002_Node000003" class="edge">
<title>Node2&#45;&gt;Node3</title>
<g id="a_edge2_Node000002_Node000003"><a xlink:title=" ">
<path fill="none" stroke="#63b8ff" d="M609.3,-15C600.84,-15 592.31,-15 584.05,-15"/>
<polygon fill="#63b8ff" stroke="#63b8ff" points="609.54,-18.5 619.54,-15 609.54,-11.5 609.54,-18.5"/>
</a>
</g>
</g>
<!-- Node4 -->
<g id="Node000004" class="node">
<title>Node4</title>
<g id="a_Node000004"><a xlink:href="classAP__SmartAudio.html#a250ad94798b3dc3f98912fc5598e18f9" target="_top" xlink:title=" ">
<polygon fill="white" stroke="#666666" points="423,-30 304,-30 304,0 423,0 423,-30"/>
<text text-anchor="start" x="312" y="-18" font-family="Helvetica,sans-Serif" font-size="10.00">AP_SmartAudio::read</text>
<text text-anchor="middle" x="363.5" y="-7" font-family="Helvetica,sans-Serif" font-size="10.00">_response</text>
</a>
</g>
</g>
<!-- Node3&#45;&gt;Node4 -->
<g id="edge3_Node000003_Node000004" class="edge">
<title>Node3&#45;&gt;Node4</title>
<g id="a_edge3_Node000003_Node000004"><a xlink:title=" ">
<path fill="none" stroke="#63b8ff" d="M448.83,-15C440.24,-15 431.54,-15 423.16,-15"/>
<polygon fill="#63b8ff" stroke="#63b8ff" points="448.84,-18.5 458.84,-15 448.84,-11.5 448.84,-18.5"/>
</a>
</g>
</g>
<!-- Node5 -->
<g id="Node000005" class="node">
<title>Node5</title>
<g id="a_Node000005"><a xlink:href="classAP__SmartAudio.html#a3c26da98be5798a53f02643037e83340" target="_top" xlink:title=" ">
<polygon fill="white" stroke="#666666" points="268,-24.5 149,-24.5 149,-5.5 268,-5.5 268,-24.5"/>
<text text-anchor="middle" x="208.5" y="-12.5" font-family="Helvetica,sans-Serif" font-size="10.00">AP_SmartAudio::loop</text>
</a>
</g>
</g>
<!-- Node4&#45;&gt;Node5 -->
<g id="edge4_Node000004_Node000005" class="edge">
<title>Node4&#45;&gt;Node5</title>
<g id="a_edge4_Node000004_Node000005"><a xlink:title=" ">
<path fill="none" stroke="#63b8ff" d="M293.51,-15C285.01,-15 276.38,-15 268.06,-15"/>
<polygon fill="#63b8ff" stroke="#63b8ff" points="293.78,-18.5 303.78,-15 293.78,-11.5 293.78,-18.5"/>
</a>
</g>
</g>
<!-- Node6 -->
<g id="Node000006" class="node">
<title>Node6</title>
<g id="a_Node000006"><a xlink:href="classAP__SmartAudio.html#a95cb2dee45d7407dba11f9cd7a4ca860" target="_top" xlink:title=" ">
<polygon fill="white" stroke="#666666" points="113,-24.5 0,-24.5 0,-5.5 113,-5.5 113,-24.5"/>
<text text-anchor="middle" x="56.5" y="-12.5" font-family="Helvetica,sans-Serif" font-size="10.00">AP_SmartAudio::init</text>
</a>
</g>
</g>
<!-- Node5&#45;&gt;Node6 -->
<g id="edge5_Node000005_Node000006" class="edge">
<title>Node5&#45;&gt;Node6</title>
<g id="a_edge5_Node000005_Node000006"><a xlink:title=" ">
<path fill="none" stroke="#63b8ff" d="M138.43,-15C129.99,-15 121.45,-15 113.24,-15"/>
<polygon fill="#63b8ff" stroke="#63b8ff" points="138.65,-18.5 148.65,-15 138.65,-11.5 138.65,-18.5"/>
</a>
</g>
</g>
</g>
</svg>
