<?xml version="1.0" encoding="UTF-8" standalone="no"?>
<!DOCTYPE svg PUBLIC "-//W3C//DTD SVG 1.1//EN"
 "http://www.w3.org/Graphics/SVG/1.1/DTD/svg11.dtd">
<!-- Generated by graphviz version 2.43.0 (0)
 -->
<!-- Title: AP_Airspeed_DLVR::timer Pages: 1 -->
<svg width="837pt" height="101pt"
 viewBox="0.00 0.00 837.00 101.00" xmlns="http://www.w3.org/2000/svg" xmlns:xlink="http://www.w3.org/1999/xlink">
<g id="graph0" class="graph" transform="scale(1 1) rotate(0) translate(4 97)">
<title>AP_Airspeed_DLVR::timer</title>
<!-- Node1 -->
<g id="Node000001" class="node">
<title>Node1</title>
<g id="a_Node000001"><a xlink:title=" ">
<polygon fill="#999999" stroke="#666666" points="140,-37 0,-37 0,-18 140,-18 140,-37"/>
<text text-anchor="middle" x="70" y="-25" font-family="Helvetica,sans-Serif" font-size="10.00">AP_Airspeed_DLVR::timer</text>
</a>
</g>
</g>
<!-- Node2 -->
<g id="Node000002" class="node">
<title>Node2</title>
<g id="a_Node000002"><a xlink:href="namespaceAP__HAL.html#a77dffbb18891996280308e21316ec186" target="_top" xlink:title=" ">
<polygon fill="white" stroke="#666666" points="280.5,-56 193.5,-56 193.5,-37 280.5,-37 280.5,-56"/>
<text text-anchor="middle" x="237" y="-44" font-family="Helvetica,sans-Serif" font-size="10.00">AP_HAL::millis</text>
</a>
</g>
</g>
<!-- Node1&#45;&gt;Node2 -->
<g id="edge1_Node000001_Node000002" class="edge">
<title>Node1&#45;&gt;Node2</title>
<g id="a_edge1_Node000001_Node000002"><a xlink:title=" ">
<path fill="none" stroke="#63b8ff" d="M140.02,-35.45C154.37,-37.1 169.29,-38.82 182.96,-40.39"/>
<polygon fill="#63b8ff" stroke="#63b8ff" points="182.81,-43.9 193.15,-41.57 183.61,-36.94 182.81,-43.9"/>
</a>
</g>
</g>
<!-- Node9 -->
<g id="Node000009" class="node">
<title>Node9</title>
<g id="a_Node000009"><a xlink:href="classAP__HAL_1_1Device.html#add629993ccfd5242c5921a38a3969dba" target="_top" xlink:title=" ">
<polygon fill="white" stroke="#666666" points="298,-19 176,-19 176,0 298,0 298,-19"/>
<text text-anchor="middle" x="237" y="-7" font-family="Helvetica,sans-Serif" font-size="10.00">AP_HAL::Device::read</text>
</a>
</g>
</g>
<!-- Node1&#45;&gt;Node9 -->
<g id="edge8_Node000001_Node000009" class="edge">
<title>Node1&#45;&gt;Node9</title>
<g id="a_edge8_Node000001_Node000009"><a xlink:title=" ">
<path fill="none" stroke="#63b8ff" d="M140.02,-19.97C148.59,-19.04 157.36,-18.08 165.94,-17.14"/>
<polygon fill="#63b8ff" stroke="#63b8ff" points="166.35,-20.62 175.91,-16.06 165.59,-13.66 166.35,-20.62"/>
</a>
</g>
</g>
<!-- Node3 -->
<g id="Node000003" class="node">
<title>Node3</title>
<g id="a_Node000003"><a xlink:href="hrt_8c.html#a1295f128f60d29874243b5733c4db025" target="_top" xlink:title=" ">
<polygon fill="white" stroke="#666666" points="440,-56 366,-56 366,-37 440,-37 440,-56"/>
<text text-anchor="middle" x="403" y="-44" font-family="Helvetica,sans-Serif" font-size="10.00">hrt_millis32</text>
</a>
</g>
</g>
<!-- Node2&#45;&gt;Node3 -->
<g id="edge2_Node000002_Node000003" class="edge">
<title>Node2&#45;&gt;Node3</title>
<g id="a_edge2_Node000002_Node000003"><a xlink:title=" ">
<path fill="none" stroke="#63b8ff" d="M280.66,-46.5C303.73,-46.5 332.23,-46.5 355.82,-46.5"/>
<polygon fill="#63b8ff" stroke="#63b8ff" points="355.94,-50 365.94,-46.5 355.94,-43 355.94,-50"/>
</a>
</g>
</g>
<!-- Node4 -->
<g id="Node000004" class="node">
<title>Node4</title>
<g id="a_Node000004"><a xlink:href="hrt_8c.html#a7dd7d90aadd8f76f26da7d5abfad6fe8" target="_top" xlink:title=" ">
<polygon fill="white" stroke="#666666" points="582,-56 508,-56 508,-37 582,-37 582,-56"/>
<text text-anchor="middle" x="545" y="-44" font-family="Helvetica,sans-Serif" font-size="10.00">hrt_millis64</text>
</a>
</g>
</g>
<!-- Node3&#45;&gt;Node4 -->
<g id="edge3_Node000003_Node000004" class="edge">
<title>Node3&#45;&gt;Node4</title>
<g id="a_edge3_Node000003_Node000004"><a xlink:title=" ">
<path fill="none" stroke="#63b8ff" d="M440.05,-46.5C457.55,-46.5 478.79,-46.5 497.49,-46.5"/>
<polygon fill="#63b8ff" stroke="#63b8ff" points="497.58,-50 507.58,-46.5 497.58,-43 497.58,-50"/>
</a>
</g>
</g>
<!-- Node5 -->
<g id="Node000005" class="node">
<title>Node5</title>
<g id="a_Node000005"><a xlink:href="hrt_8c.html#a152c3348a8e83f2dfe35b44cc2e30362" target="_top" xlink:title=" ">
<polygon fill="white" stroke="#666666" points="704,-75 624,-75 624,-56 704,-56 704,-75"/>
<text text-anchor="middle" x="664" y="-63" font-family="Helvetica,sans-Serif" font-size="10.00">hrt_micros64</text>
</a>
</g>
</g>
<!-- Node4&#45;&gt;Node5 -->
<g id="edge4_Node000004_Node000005" class="edge">
<title>Node4&#45;&gt;Node5</title>
<g id="a_edge4_Node000004_Node000005"><a xlink:title=" ">
<path fill="none" stroke="#63b8ff" d="M582.06,-52.36C592.03,-53.98 603.03,-55.76 613.62,-57.48"/>
<polygon fill="#63b8ff" stroke="#63b8ff" points="613.17,-60.95 623.6,-59.1 614.29,-54.04 613.17,-60.95"/>
</a>
</g>
</g>
<!-- Node8 -->
<g id="Node000008" class="node">
<title>Node8</title>
<g id="a_Node000008"><a xlink:href="div1000_8h.html#aece9e7f123414c41d0426fbadca097d8" target="_top" xlink:title=" ">
<polygon fill="white" stroke="#666666" points="710,-38 618,-38 618,-19 710,-19 710,-38"/>
<text text-anchor="middle" x="664" y="-26" font-family="Helvetica,sans-Serif" font-size="10.00">uint64_div1000</text>
</a>
</g>
</g>
<!-- Node4&#45;&gt;Node8 -->
<g id="edge7_Node000004_Node000008" class="edge">
<title>Node4&#45;&gt;Node8</title>
<g id="a_edge7_Node000004_Node000008"><a xlink:title=" ">
<path fill="none" stroke="#63b8ff" d="M582.06,-40.95C590.17,-39.71 598.95,-38.35 607.64,-37.02"/>
<polygon fill="#63b8ff" stroke="#63b8ff" points="608.41,-40.44 617.76,-35.46 607.34,-33.52 608.41,-40.44"/>
</a>
</g>
</g>
<!-- Node6 -->
<g id="Node000006" class="node">
<title>Node6</title>
<g id="a_Node000006"><a xlink:href="hrt_8c.html#a5b4ffc7ff86bd5b893c4a98834e80200" target="_top" xlink:title=" ">
<polygon fill="white" stroke="#666666" points="829,-93 746,-93 746,-74 829,-74 829,-93"/>
<text text-anchor="middle" x="787.5" y="-81" font-family="Helvetica,sans-Serif" font-size="10.00">hrt_micros64I</text>
</a>
</g>
</g>
<!-- Node5&#45;&gt;Node6 -->
<g id="edge5_Node000005_Node000006" class="edge">
<title>Node5&#45;&gt;Node6</title>
<g id="a_edge5_Node000005_Node000006"><a xlink:title=" ">
<path fill="none" stroke="#63b8ff" d="M704.11,-71.29C714.21,-72.79 725.22,-74.42 735.81,-75.99"/>
<polygon fill="#63b8ff" stroke="#63b8ff" points="735.38,-79.47 745.79,-77.47 736.41,-72.54 735.38,-79.47"/>
</a>
</g>
</g>
<!-- Node7 -->
<g id="Node000007" class="node">
<title>Node7</title>
<g id="a_Node000007"><a xlink:href="hrt_8c.html#a723fef85be7bacb834af35445a891c18" target="_top" xlink:title=" ">
<polygon fill="white" stroke="#666666" points="818.5,-56 756.5,-56 756.5,-37 818.5,-37 818.5,-56"/>
<text text-anchor="middle" x="787.5" y="-44" font-family="Helvetica,sans-Serif" font-size="10.00">is_locked</text>
</a>
</g>
</g>
<!-- Node5&#45;&gt;Node7 -->
<g id="edge6_Node000005_Node000007" class="edge">
<title>Node5&#45;&gt;Node7</title>
<g id="a_edge6_Node000005_Node000007"><a xlink:title=" ">
<path fill="none" stroke="#63b8ff" d="M704.11,-59.38C717.6,-57.27 732.73,-54.91 746.3,-52.79"/>
<polygon fill="#63b8ff" stroke="#63b8ff" points="746.99,-56.22 756.32,-51.22 745.9,-49.31 746.99,-56.22"/>
</a>
</g>
</g>
<!-- Node10 -->
<g id="Node000010" class="node">
<title>Node10</title>
<g id="a_Node000010"><a xlink:href="classAP__HAL_1_1Device.html#a2af24b5f93b678af718b65a606e538b0" target="_top" xlink:title=" ">
<polygon fill="white" stroke="#666666" points="472,-19 334,-19 334,0 472,0 472,-19"/>
<text text-anchor="middle" x="403" y="-7" font-family="Helvetica,sans-Serif" font-size="10.00">AP_HAL::Device::transfer</text>
</a>
</g>
</g>
<!-- Node9&#45;&gt;Node10 -->
<g id="edge9_Node000009_Node000010" class="edge">
<title>Node9&#45;&gt;Node10</title>
<g id="a_edge9_Node000009_Node000010"><a xlink:title=" ">
<path fill="none" stroke="#63b8ff" d="M298.14,-9.5C306.48,-9.5 315.15,-9.5 323.77,-9.5"/>
<polygon fill="#63b8ff" stroke="#63b8ff" points="323.83,-13 333.83,-9.5 323.83,-6 323.83,-13"/>
</a>
</g>
</g>
</g>
</svg>
