<?xml version="1.0" encoding="UTF-8" standalone="no"?>
<!DOCTYPE svg PUBLIC "-//W3C//DTD SVG 1.1//EN"
 "http://www.w3.org/Graphics/SVG/1.1/DTD/svg11.dtd">
<!-- Generated by graphviz version 2.43.0 (0)
 -->
<!-- Title: SITL::ShipSim::update Pages: 1 -->
<!--zoomable 298 -->

<svg id="main" version="1.1" xmlns="http://www.w3.org/2000/svg" xmlns:xlink="http://www.w3.org/1999/xlink" xml:space="preserve" onload="init(evt)">
<style type="text/css"><![CDATA[
.node, .edge {opacity: 0.7;}
.node.selected, .edge.selected {opacity: 1;}
.edge:hover path { stroke: red; }
.edge:hover polygon { stroke: red; fill: red; }
]]></style>

<defs>
  <circle id="rim" cx="0" cy="0" r="7"/>
  <circle id="rim2" cx="0" cy="0" r="3.5"/>
  <g id="zoomPlus">
    <use xlink:href="#rim" fill="#404040"><set attributeName="fill" to="#808080" begin="zoomplus.mouseover" end="zoomplus.mouseout"/></use>
    <path d="M-4,0h8M0,-4v8" fill="none" stroke="white" stroke-width="1.5" pointer-events="none"/>
  </g>
  <g id="zoomMin">
    <use xlink:href="#rim" fill="#404040"><set attributeName="fill" to="#808080" begin="zoomminus.mouseover" end="zoomminus.mouseout"/></use>
    <path d="M-4,0h8" fill="none" stroke="white" stroke-width="1.5" pointer-events="none"/>
  </g>
  <g id="arrowUp" transform="translate(30 24)">
    <use xlink:href="#rim"/>
    <path pointer-events="none" fill="none" stroke="white" stroke-width="1.5" d="M0,-3.0v7 M-2.5,-0.5L0,-3.0L2.5,-0.5"/>
  </g>
  <g id="arrowRight" transform="rotate(90) translate(36 -43)">
    <use xlink:href="#rim"/>
    <path pointer-events="none" fill="none" stroke="white" stroke-width="1.5" d="M0,-3.0v7 M-2.5,-0.5L0,-3.0L2.5,-0.5"/>
  </g>
  <g id="arrowDown" transform="rotate(180) translate(-30 -48)">
    <use xlink:href="#rim"/>
    <path pointer-events="none" fill="none" stroke="white" stroke-width="1.5" d="M0,-3.0v7 M-2.5,-0.5L0,-3.0L2.5,-0.5"/>
  </g>
  <g id="arrowLeft" transform="rotate(270) translate(-36 17)">
    <use xlink:href="#rim"/>
    <path pointer-events="none" fill="none" stroke="white" stroke-width="1.5" d="M0,-3.0v7 M-2.5,-0.5L0,-3.0L2.5,-0.5"/>
  </g>
  <g id="resetDef">
    <use xlink:href="#rim2" fill="#404040"><set attributeName="fill" to="#808080" begin="reset.mouseover" end="reset.mouseout"/></use>
  </g>
</defs>
<script type="application/ecmascript">
var viewWidth = 989;
var viewHeight = 298;
var sectionId = 'dynsection-5';
</script>
<script type="application/ecmascript" xlink:href="svg.min.js"/>
<svg id="graph" class="graph">
<g id="viewport">
<title>SITL::ShipSim::update</title>
<!-- Node1 -->
<g id="Node000001" class="node">
<title>Node1</title>
<g id="a_Node000001"><a xlink:title=" ">
<polygon fill="#999999" stroke="#666666" points="122,-154 0,-154 0,-135 122,-135 122,-154"/>
<text text-anchor="middle" x="61" y="-142" font-family="Helvetica,sans-Serif" font-size="10.00">SITL::ShipSim::update</text>
</a>
</g>
</g>
<!-- Node2 -->
<g id="Node000002" class="node">
<title>Node2</title>
<g id="a_Node000002"><a xlink:href="namespaceAP__HAL.html#a8293355e35887733b1fd151aef08a787" target="_top" xlink:title=" ">
<polygon fill="white" stroke="#666666" points="260.5,-252 167.5,-252 167.5,-233 260.5,-233 260.5,-252"/>
<text text-anchor="middle" x="214" y="-240" font-family="Helvetica,sans-Serif" font-size="10.00">AP_HAL::micros</text>
</a>
</g>
</g>
<!-- Node1&#45;&gt;Node2 -->
<g id="edge1_Node000001_Node000002" class="edge">
<title>Node1&#45;&gt;Node2</title>
<g id="a_edge1_Node000001_Node000002"><a xlink:title=" ">
<path fill="none" stroke="#63b8ff" d="M72.6,-154.09C89.66,-169.18 124.67,-198.79 158,-218.5 164.41,-222.29 171.53,-225.84 178.47,-228.98"/>
<polygon fill="#63b8ff" stroke="#63b8ff" points="177.15,-232.23 187.72,-233 179.94,-225.8 177.15,-232.23"/>
</a>
</g>
</g>
<!-- Node6 -->
<g id="Node000006" class="node">
<title>Node6</title>
<g id="a_Node000006"><a xlink:href="namespaceAP__HAL.html#a77dffbb18891996280308e21316ec186" target="_top" xlink:title=" ">
<polygon fill="white" stroke="#666666" points="395.5,-214 308.5,-214 308.5,-195 395.5,-195 395.5,-214"/>
<text text-anchor="middle" x="352" y="-202" font-family="Helvetica,sans-Serif" font-size="10.00">AP_HAL::millis</text>
</a>
</g>
</g>
<!-- Node1&#45;&gt;Node6 -->
<g id="edge5_Node000001_Node000006" class="edge">
<title>Node1&#45;&gt;Node6</title>
<g id="a_edge5_Node000001_Node000006"><a xlink:title=" ">
<path fill="none" stroke="#63b8ff" d="M107.9,-154.07C123.77,-157.38 141.66,-161.11 158,-164.5 205.52,-174.37 259.62,-185.58 298.43,-193.62"/>
<polygon fill="#63b8ff" stroke="#63b8ff" points="297.95,-197.09 308.45,-195.69 299.37,-190.24 297.95,-197.09"/>
</a>
</g>
</g>
<!-- Node12 -->
<g id="Node000012" class="node">
<title>Node12</title>
<g id="a_Node000012"><a xlink:href="classLocation.html#a146775eb07ce9abcc8d05f1b730404b0" target="_top" xlink:title=" ">
<polygon fill="white" stroke="#666666" points="398,-167 306,-167 306,-148 398,-148 398,-167"/>
<text text-anchor="middle" x="352" y="-155" font-family="Helvetica,sans-Serif" font-size="10.00">Location::offset</text>
</a>
</g>
</g>
<!-- Node1&#45;&gt;Node12 -->
<g id="edge12_Node000001_Node000012" class="edge">
<title>Node1&#45;&gt;Node12</title>
<g id="a_edge12_Node000001_Node000012"><a xlink:title=" ">
<path fill="none" stroke="#63b8ff" d="M122.23,-147.21C173.35,-149.51 246.1,-152.78 295.75,-155.01"/>
<polygon fill="#63b8ff" stroke="#63b8ff" points="295.83,-158.52 305.97,-155.47 296.14,-151.53 295.83,-158.52"/>
</a>
</g>
</g>
<!-- Node17 -->
<g id="Node000017" class="node">
<title>Node17</title>
<g id="a_Node000017"><a xlink:href="stdio_8h.html#a55f3d956bb2ba20b5059e9e25484a47f" target="_top" xlink:title=" ">
<polygon fill="white" stroke="#666666" points="373.5,-130 330.5,-130 330.5,-111 373.5,-111 373.5,-130"/>
<text text-anchor="middle" x="352" y="-118" font-family="Helvetica,sans-Serif" font-size="10.00">printf</text>
</a>
</g>
</g>
<!-- Node1&#45;&gt;Node17 -->
<g id="edge17_Node000001_Node000017" class="edge">
<title>Node1&#45;&gt;Node17</title>
<g id="a_edge17_Node000001_Node000017"><a xlink:title=" ">
<path fill="none" stroke="#63b8ff" d="M76.88,-134.98C95.14,-123.92 127.46,-106.3 158,-99.5 206.59,-88.68 220.62,-93.2 270,-99.5 286.98,-101.67 305.48,-106.28 320.52,-110.64"/>
<polygon fill="#63b8ff" stroke="#63b8ff" points="319.72,-114.06 330.31,-113.58 321.74,-107.35 319.72,-114.06"/>
</a>
</g>
</g>
<!-- Node18 -->
<g id="Node000018" class="node">
<title>Node18</title>
<g id="a_Node000018"><a xlink:href="classSITL_1_1ShipSim.html#ac9a8c8258bb7b3e1c7358ffcea9de3e3" target="_top" xlink:title=" ">
<polygon fill="white" stroke="#666666" points="270,-138.5 158,-138.5 158,-108.5 270,-108.5 270,-138.5"/>
<text text-anchor="start" x="166" y="-126.5" font-family="Helvetica,sans-Serif" font-size="10.00">SITL::ShipSim::send</text>
<text text-anchor="middle" x="214" y="-115.5" font-family="Helvetica,sans-Serif" font-size="10.00">_report</text>
</a>
</g>
</g>
<!-- Node1&#45;&gt;Node18 -->
<g id="edge18_Node000001_Node000018" class="edge">
<title>Node1&#45;&gt;Node18</title>
<g id="a_edge18_Node000001_Node000018"><a xlink:title=" ">
<path fill="none" stroke="#63b8ff" d="M122.11,-136.14C130.63,-134.96 139.41,-133.73 148.01,-132.54"/>
<polygon fill="#63b8ff" stroke="#63b8ff" points="148.57,-135.99 157.99,-131.15 147.6,-129.06 148.57,-135.99"/>
</a>
</g>
</g>
<!-- Node21 -->
<g id="Node000021" class="node">
<title>Node21</title>
<g id="a_Node000021"><a xlink:href="classSITL_1_1Ship.html#a96c055d679f386eb8078316af0aa7671" target="_top" xlink:title=" ">
<polygon fill="white" stroke="#666666" points="266,-52 162,-52 162,-33 266,-33 266,-52"/>
<text text-anchor="middle" x="214" y="-40" font-family="Helvetica,sans-Serif" font-size="10.00">SITL::Ship::update</text>
</a>
</g>
</g>
<!-- Node1&#45;&gt;Node21 -->
<g id="edge24_Node000001_Node000021" class="edge">
<title>Node1&#45;&gt;Node21</title>
<g id="a_edge24_Node000001_Node000021"><a xlink:title=" ">
<path fill="none" stroke="#63b8ff" d="M71.96,-134.85C88.66,-119.03 123.88,-87.27 158,-66.5 164.1,-62.79 170.87,-59.34 177.53,-56.29"/>
<polygon fill="#63b8ff" stroke="#63b8ff" points="179.33,-59.32 187.09,-52.11 176.53,-52.91 179.33,-59.32"/>
</a>
</g>
</g>
<!-- Node3 -->
<g id="Node000003" class="node">
<title>Node3</title>
<g id="a_Node000003"><a xlink:href="hrt_8c.html#aaec580bcdf1351b82110305f0f6dd437" target="_top" xlink:title=" ">
<polygon fill="white" stroke="#666666" points="392,-252 312,-252 312,-233 392,-233 392,-252"/>
<text text-anchor="middle" x="352" y="-240" font-family="Helvetica,sans-Serif" font-size="10.00">hrt_micros32</text>
</a>
</g>
</g>
<!-- Node2&#45;&gt;Node3 -->
<g id="edge2_Node000002_Node000003" class="edge">
<title>Node2&#45;&gt;Node3</title>
<g id="a_edge2_Node000002_Node000003"><a xlink:title=" ">
<path fill="none" stroke="#63b8ff" d="M260.66,-242.5C273.69,-242.5 287.96,-242.5 301.22,-242.5"/>
<polygon fill="#63b8ff" stroke="#63b8ff" points="301.6,-246 311.6,-242.5 301.6,-239 301.6,-246"/>
</a>
</g>
</g>
<!-- Node4 -->
<g id="Node000004" class="node">
<title>Node4</title>
<g id="a_Node000004"><a xlink:href="hrt_8c.html#a8e056f016b4bb5d52754d890a539c433" target="_top" xlink:title=" ">
<polygon fill="white" stroke="#666666" points="549,-290 444,-290 444,-271 549,-271 549,-290"/>
<text text-anchor="middle" x="496.5" y="-278" font-family="Helvetica,sans-Serif" font-size="10.00">get_systime_us32</text>
</a>
</g>
</g>
<!-- Node3&#45;&gt;Node4 -->
<g id="edge3_Node000003_Node000004" class="edge">
<title>Node3&#45;&gt;Node4</title>
<g id="a_edge3_Node000003_Node000004"><a xlink:title=" ">
<path fill="none" stroke="#63b8ff" d="M388.96,-252.09C407.44,-257.02 430.16,-263.07 449.86,-268.33"/>
<polygon fill="#63b8ff" stroke="#63b8ff" points="448.99,-271.72 459.55,-270.91 450.79,-264.96 448.99,-271.72"/>
</a>
</g>
</g>
<!-- Node5 -->
<g id="Node000005" class="node">
<title>Node5</title>
<g id="a_Node000005"><a xlink:href="hrt_8c.html#a723fef85be7bacb834af35445a891c18" target="_top" xlink:title=" ">
<polygon fill="white" stroke="#666666" points="970.5,-233 908.5,-233 908.5,-214 970.5,-214 970.5,-233"/>
<text text-anchor="middle" x="939.5" y="-221" font-family="Helvetica,sans-Serif" font-size="10.00">is_locked</text>
</a>
</g>
</g>
<!-- Node3&#45;&gt;Node5 -->
<g id="edge4_Node000003_Node000005" class="edge">
<title>Node3&#45;&gt;Node5</title>
<g id="a_edge4_Node000003_Node000005"><a xlink:title=" ">
<path fill="none" stroke="#63b8ff" d="M392.33,-241.22C498.65,-237.77 791.04,-228.29 898.34,-224.8"/>
<polygon fill="#63b8ff" stroke="#63b8ff" points="898.54,-228.3 908.42,-224.48 898.32,-221.3 898.54,-228.3"/>
</a>
</g>
</g>
<!-- Node7 -->
<g id="Node000007" class="node">
<title>Node7</title>
<g id="a_Node000007"><a xlink:href="hrt_8c.html#a1295f128f60d29874243b5733c4db025" target="_top" xlink:title=" ">
<polygon fill="white" stroke="#666666" points="533.5,-214 459.5,-214 459.5,-195 533.5,-195 533.5,-214"/>
<text text-anchor="middle" x="496.5" y="-202" font-family="Helvetica,sans-Serif" font-size="10.00">hrt_millis32</text>
</a>
</g>
</g>
<!-- Node6&#45;&gt;Node7 -->
<g id="edge6_Node000006_Node000007" class="edge">
<title>Node6&#45;&gt;Node7</title>
<g id="a_edge6_Node000006_Node000007"><a xlink:title=" ">
<path fill="none" stroke="#63b8ff" d="M395.75,-204.5C412.46,-204.5 431.66,-204.5 448.73,-204.5"/>
<polygon fill="#63b8ff" stroke="#63b8ff" points="449.04,-208 459.04,-204.5 449.04,-201 449.04,-208"/>
</a>
</g>
</g>
<!-- Node8 -->
<g id="Node000008" class="node">
<title>Node8</title>
<g id="a_Node000008"><a xlink:href="hrt_8c.html#a7dd7d90aadd8f76f26da7d5abfad6fe8" target="_top" xlink:title=" ">
<polygon fill="white" stroke="#666666" points="701.5,-214 627.5,-214 627.5,-195 701.5,-195 701.5,-214"/>
<text text-anchor="middle" x="664.5" y="-202" font-family="Helvetica,sans-Serif" font-size="10.00">hrt_millis64</text>
</a>
</g>
</g>
<!-- Node7&#45;&gt;Node8 -->
<g id="edge7_Node000007_Node000008" class="edge">
<title>Node7&#45;&gt;Node8</title>
<g id="a_edge7_Node000007_Node000008"><a xlink:title=" ">
<path fill="none" stroke="#63b8ff" d="M533.52,-204.5C558.02,-204.5 590.65,-204.5 617.1,-204.5"/>
<polygon fill="#63b8ff" stroke="#63b8ff" points="617.26,-208 627.26,-204.5 617.26,-201 617.26,-208"/>
</a>
</g>
</g>
<!-- Node9 -->
<g id="Node000009" class="node">
<title>Node9</title>
<g id="a_Node000009"><a xlink:href="hrt_8c.html#a152c3348a8e83f2dfe35b44cc2e30362" target="_top" xlink:title=" ">
<polygon fill="white" stroke="#666666" points="856,-177 776,-177 776,-158 856,-158 856,-177"/>
<text text-anchor="middle" x="816" y="-165" font-family="Helvetica,sans-Serif" font-size="10.00">hrt_micros64</text>
</a>
</g>
</g>
<!-- Node8&#45;&gt;Node9 -->
<g id="edge8_Node000008_Node000009" class="edge">
<title>Node8&#45;&gt;Node9</title>
<g id="a_edge8_Node000008_Node000009"><a xlink:title=" ">
<path fill="none" stroke="#63b8ff" d="M701.69,-195.54C721.24,-190.71 745.62,-184.67 766.76,-179.44"/>
<polygon fill="#63b8ff" stroke="#63b8ff" points="767.66,-182.82 776.53,-177.02 765.98,-176.03 767.66,-182.82"/>
</a>
</g>
</g>
<!-- Node11 -->
<g id="Node000011" class="node">
<title>Node11</title>
<g id="a_Node000011"><a xlink:href="div1000_8h.html#aece9e7f123414c41d0426fbadca097d8" target="_top" xlink:title=" ">
<polygon fill="white" stroke="#666666" points="862,-214 770,-214 770,-195 862,-195 862,-214"/>
<text text-anchor="middle" x="816" y="-202" font-family="Helvetica,sans-Serif" font-size="10.00">uint64_div1000</text>
</a>
</g>
</g>
<!-- Node8&#45;&gt;Node11 -->
<g id="edge11_Node000008_Node000011" class="edge">
<title>Node8&#45;&gt;Node11</title>
<g id="a_edge11_Node000008_Node000011"><a xlink:title=" ">
<path fill="none" stroke="#63b8ff" d="M701.69,-204.5C719.05,-204.5 740.23,-204.5 759.56,-204.5"/>
<polygon fill="#63b8ff" stroke="#63b8ff" points="759.77,-208 769.77,-204.5 759.77,-201 759.77,-208"/>
</a>
</g>
</g>
<!-- Node9&#45;&gt;Node5 -->
<g id="edge10_Node000009_Node000005" class="edge">
<title>Node9&#45;&gt;Node5</title>
<g id="a_edge10_Node000009_Node000005"><a xlink:title=" ">
<path fill="none" stroke="#63b8ff" d="M840.45,-177.14C847.42,-180.07 855.05,-183.35 862,-186.5 878.05,-193.77 895.78,-202.31 910.12,-209.35"/>
<polygon fill="#63b8ff" stroke="#63b8ff" points="908.93,-212.67 919.45,-213.95 912.03,-206.39 908.93,-212.67"/>
</a>
</g>
</g>
<!-- Node10 -->
<g id="Node000010" class="node">
<title>Node10</title>
<g id="a_Node000010"><a xlink:href="hrt_8c.html#a5b4ffc7ff86bd5b893c4a98834e80200" target="_top" xlink:title=" ">
<polygon fill="white" stroke="#666666" points="981,-177 898,-177 898,-158 981,-158 981,-177"/>
<text text-anchor="middle" x="939.5" y="-165" font-family="Helvetica,sans-Serif" font-size="10.00">hrt_micros64I</text>
</a>
</g>
</g>
<!-- Node9&#45;&gt;Node10 -->
<g id="edge9_Node000009_Node000010" class="edge">
<title>Node9&#45;&gt;Node10</title>
<g id="a_edge9_Node000009_Node000010"><a xlink:title=" ">
<path fill="none" stroke="#63b8ff" d="M856.11,-167.5C866.1,-167.5 876.99,-167.5 887.48,-167.5"/>
<polygon fill="#63b8ff" stroke="#63b8ff" points="887.79,-171 897.79,-167.5 887.79,-164 887.79,-171"/>
</a>
</g>
</g>
<!-- Node13 -->
<g id="Node000013" class="node">
<title>Node13</title>
<g id="a_Node000013"><a xlink:href="classLocation.html#ad9b9772b9d84be174e25a3c35f84702e" target="_top" xlink:title=" ">
<polygon fill="white" stroke="#666666" points="559,-149 434,-149 434,-130 559,-130 559,-149"/>
<text text-anchor="middle" x="496.5" y="-137" font-family="Helvetica,sans-Serif" font-size="10.00">Location::offset_latlng</text>
</a>
</g>
</g>
<!-- Node12&#45;&gt;Node13 -->
<g id="edge13_Node000012_Node000013" class="edge">
<title>Node12&#45;&gt;Node13</title>
<g id="a_edge13_Node000012_Node000013"><a xlink:title=" ">
<path fill="none" stroke="#63b8ff" d="M398.09,-151.8C406.23,-150.78 414.91,-149.68 423.6,-148.58"/>
<polygon fill="#63b8ff" stroke="#63b8ff" points="424.29,-152.02 433.77,-147.3 423.41,-145.08 424.29,-152.02"/>
</a>
</g>
</g>
<!-- Node14 -->
<g id="Node000014" class="node">
<title>Node14</title>
<g id="a_Node000014"><a xlink:href="classLocation.html#a526b1e4735fe7dfcdc3cc9af638d017c" target="_top" xlink:title=" ">
<polygon fill="white" stroke="#666666" points="731,-177 598,-177 598,-158 731,-158 731,-177"/>
<text text-anchor="middle" x="664.5" y="-165" font-family="Helvetica,sans-Serif" font-size="10.00">Location::limit_lattitude</text>
</a>
</g>
</g>
<!-- Node13&#45;&gt;Node14 -->
<g id="edge14_Node000013_Node000014" class="edge">
<title>Node13&#45;&gt;Node14</title>
<g id="a_edge14_Node000013_Node000014"><a xlink:title=" ">
<path fill="none" stroke="#63b8ff" d="M554.16,-149.06C567.92,-151.38 582.75,-153.88 596.92,-156.27"/>
<polygon fill="#63b8ff" stroke="#63b8ff" points="596.65,-159.77 607.09,-157.99 597.81,-152.87 596.65,-159.77"/>
</a>
</g>
</g>
<!-- Node15 -->
<g id="Node000015" class="node">
<title>Node15</title>
<g id="a_Node000015"><a xlink:href="classLocation.html#ab8844915021178ffc5cb56b19e95ad2c" target="_top" xlink:title=" ">
<polygon fill="white" stroke="#666666" points="719.5,-139.5 609.5,-139.5 609.5,-109.5 719.5,-109.5 719.5,-139.5"/>
<text text-anchor="start" x="617.5" y="-127.5" font-family="Helvetica,sans-Serif" font-size="10.00">Location::longitude</text>
<text text-anchor="middle" x="664.5" y="-116.5" font-family="Helvetica,sans-Serif" font-size="10.00">_scale</text>
</a>
</g>
</g>
<!-- Node13&#45;&gt;Node15 -->
<g id="edge15_Node000013_Node000015" class="edge">
<title>Node13&#45;&gt;Node15</title>
<g id="a_edge15_Node000013_Node000015"><a xlink:title=" ">
<path fill="none" stroke="#63b8ff" d="M559.31,-133.91C572.26,-132.74 585.94,-131.51 598.99,-130.33"/>
<polygon fill="#63b8ff" stroke="#63b8ff" points="599.64,-133.79 609.28,-129.4 599.01,-126.81 599.64,-133.79"/>
</a>
</g>
</g>
<!-- Node16 -->
<g id="Node000016" class="node">
<title>Node16</title>
<g id="a_Node000016"><a xlink:href="classLocation.html#a785b0c592d17ce62f33ca9c8281335c6" target="_top" xlink:title=" ">
<polygon fill="white" stroke="#666666" points="734,-91 595,-91 595,-72 734,-72 734,-91"/>
<text text-anchor="middle" x="664.5" y="-79" font-family="Helvetica,sans-Serif" font-size="10.00">Location::wrap_longitude</text>
</a>
</g>
</g>
<!-- Node13&#45;&gt;Node16 -->
<g id="edge16_Node000013_Node000016" class="edge">
<title>Node13&#45;&gt;Node16</title>
<g id="a_edge16_Node000013_Node000016"><a xlink:title=" ">
<path fill="none" stroke="#63b8ff" d="M519.31,-129.97C538.91,-121.61 568.57,-109.42 595,-100.5 601.91,-98.17 609.29,-95.9 616.54,-93.79"/>
<polygon fill="#63b8ff" stroke="#63b8ff" points="617.64,-97.11 626.3,-91.02 615.73,-90.38 617.64,-97.11"/>
</a>
</g>
</g>
<!-- Node18&#45;&gt;Node6 -->
<g id="edge19_Node000018_Node000006" class="edge">
<title>Node18&#45;&gt;Node6</title>
<g id="a_edge19_Node000018_Node000006"><a xlink:title=" ">
<path fill="none" stroke="#63b8ff" d="M240.26,-138.55C264.78,-153.15 301.77,-175.18 326.15,-189.7"/>
<polygon fill="#63b8ff" stroke="#63b8ff" points="324.44,-192.76 334.83,-194.87 328.03,-186.74 324.44,-192.76"/>
</a>
</g>
</g>
<!-- Node18&#45;&gt;Node12 -->
<g id="edge20_Node000018_Node000012" class="edge">
<title>Node18&#45;&gt;Node12</title>
<g id="a_edge20_Node000018_Node000012"><a xlink:title=" ">
<path fill="none" stroke="#63b8ff" d="M270.32,-137.33C281.13,-140.03 292.38,-142.85 302.94,-145.48"/>
<polygon fill="#63b8ff" stroke="#63b8ff" points="302.25,-148.92 312.8,-147.95 303.95,-142.13 302.25,-148.92"/>
</a>
</g>
</g>
<!-- Node18&#45;&gt;Node17 -->
<g id="edge21_Node000018_Node000017" class="edge">
<title>Node18&#45;&gt;Node17</title>
<g id="a_edge21_Node000018_Node000017"><a xlink:title=" ">
<path fill="none" stroke="#63b8ff" d="M270.32,-122.28C287.36,-121.9 305.5,-121.5 320.26,-121.18"/>
<polygon fill="#63b8ff" stroke="#63b8ff" points="320.42,-124.68 330.34,-120.96 320.27,-117.68 320.42,-124.68"/>
</a>
</g>
</g>
<!-- Node19 -->
<g id="Node000019" class="node">
<title>Node19</title>
<g id="a_Node000019"><a xlink:href="AP__Math_8h.html#a49ad7fa2fa2e3d8aa75e8e0ec3f83b99" target="_top" xlink:title=" ">
<polygon fill="white" stroke="#666666" points="378.5,-56 325.5,-56 325.5,-37 378.5,-37 378.5,-56"/>
<text text-anchor="middle" x="352" y="-44" font-family="Helvetica,sans-Serif" font-size="10.00">radians</text>
</a>
</g>
</g>
<!-- Node18&#45;&gt;Node19 -->
<g id="edge22_Node000018_Node000019" class="edge">
<title>Node18&#45;&gt;Node19</title>
<g id="a_edge22_Node000018_Node000019"><a xlink:title=" ">
<path fill="none" stroke="#63b8ff" d="M236.45,-108.37C254.51,-96 281.28,-78.48 306,-65.5 309.53,-63.65 313.28,-61.83 317.06,-60.11"/>
<polygon fill="#63b8ff" stroke="#63b8ff" points="318.61,-63.24 326.37,-56.02 315.8,-56.83 318.61,-63.24"/>
</a>
</g>
</g>
<!-- Node20 -->
<g id="Node000020" class="node">
<title>Node20</title>
<g id="a_Node000020"><a xlink:href="structVector2.html#a90cc8186b17bdcb76aad6a61a0da9f0d" target="_top" xlink:title=" ">
<polygon fill="white" stroke="#666666" points="396.5,-93 307.5,-93 307.5,-74 396.5,-74 396.5,-93"/>
<text text-anchor="middle" x="352" y="-81" font-family="Helvetica,sans-Serif" font-size="10.00">Vector2::rotate</text>
</a>
</g>
</g>
<!-- Node18&#45;&gt;Node20 -->
<g id="edge23_Node000018_Node000020" class="edge">
<title>Node18&#45;&gt;Node20</title>
<g id="a_edge23_Node000018_Node000020"><a xlink:title=" ">
<path fill="none" stroke="#63b8ff" d="M266.03,-108.49C280.08,-104.36 295.17,-99.92 308.68,-95.95"/>
<polygon fill="#63b8ff" stroke="#63b8ff" points="310.04,-99.19 318.65,-93.01 308.07,-92.48 310.04,-99.19"/>
</a>
</g>
</g>
<!-- Node21&#45;&gt;Node19 -->
<g id="edge25_Node000021_Node000019" class="edge">
<title>Node21&#45;&gt;Node19</title>
<g id="a_edge25_Node000021_Node000019"><a xlink:title=" ">
<path fill="none" stroke="#63b8ff" d="M266.03,-44C282.28,-44.48 299.92,-45 314.89,-45.44"/>
<polygon fill="#63b8ff" stroke="#63b8ff" points="315.16,-48.95 325.26,-45.74 315.37,-41.95 315.16,-48.95"/>
</a>
</g>
</g>
<!-- Node21&#45;&gt;Node20 -->
<g id="edge26_Node000021_Node000020" class="edge">
<title>Node21&#45;&gt;Node20</title>
<g id="a_edge26_Node000021_Node000020"><a xlink:title=" ">
<path fill="none" stroke="#63b8ff" d="M246.54,-52.01C265.29,-57.66 289.28,-64.89 309.55,-71"/>
<polygon fill="#63b8ff" stroke="#63b8ff" points="308.57,-74.36 319.16,-73.9 310.59,-67.66 308.57,-74.36"/>
</a>
</g>
</g>
<!-- Node22 -->
<g id="Node000022" class="node">
<title>Node22</title>
<g id="a_Node000022"><a xlink:href="AP__Math_8cpp.html#ad2245faee11bdecf357553e7807dc068" target="_top" xlink:title=" ">
<polygon fill="white" stroke="#666666" points="384,-19 320,-19 320,0 384,0 384,-19"/>
<text text-anchor="middle" x="352" y="-7" font-family="Helvetica,sans-Serif" font-size="10.00">wrap_360</text>
</a>
</g>
</g>
<!-- Node21&#45;&gt;Node22 -->
<g id="edge27_Node000021_Node000022" class="edge">
<title>Node21&#45;&gt;Node22</title>
<g id="a_edge27_Node000021_Node000022"><a xlink:title=" ">
<path fill="none" stroke="#63b8ff" d="M254.34,-32.96C271.78,-28.72 292.3,-23.74 309.94,-19.46"/>
<polygon fill="#63b8ff" stroke="#63b8ff" points="311.06,-22.79 319.95,-17.03 309.41,-15.99 311.06,-22.79"/>
</a>
</g>
</g>
</g>
</svg>

<g id="navigator" transform="translate(0 0)" fill="#404254">
  <rect fill="#f2f5e9" fill-opacity="0.5" stroke="#606060" stroke-width=".5" x="0" y="0" width="60" height="60"/>
  <use id="zoomplus" xlink:href="#zoomPlus" x="17" y="9" onmousedown="handleZoom(evt,'in')"/>
  <use id="zoomminus" xlink:href="#zoomMin" x="42" y="9" onmousedown="handleZoom(evt,'out')"/>
  <use id="reset" xlink:href="#resetDef" x="30" y="36" onmousedown="handleReset()"/>
   <use id="arrowup" xlink:href="#arrowUp" x="0" y="0" onmousedown="handlePan(0,-1)"/>
  <use id="arrowright" xlink:href="#arrowRight" x="0" y="0" onmousedown="handlePan(1,0)"/>
  <use id="arrowdown" xlink:href="#arrowDown" x="0" y="0" onmousedown="handlePan(0,1)"/>
  <use id="arrowleft" xlink:href="#arrowLeft" x="0" y="0" onmousedown="handlePan(-1,0)"/>
</g>
<svg viewBox="0 0 15 15" width="100%" height="30px" preserveAspectRatio="xMaxYMin meet">
 <g id="arrow_out" transform="scale(0.3 0.3)">
  <a xlink:href="classSITL_1_1ShipSim_a4e0124445bb6b1213cd1b3ff54e0f96d_cgraph_org.svg" target="_base">
   <rect id="button" ry="5" rx="5" y="6" x="6" height="38" width="38"
        fill="#f2f5e9" fill-opacity="0.5" stroke="#606060" stroke-width="1.0"/>
   <path id="arrow"
     d="M 11.500037,31.436501 C 11.940474,20.09759 22.043105,11.32322 32.158766,21.979434 L 37.068811,17.246167 C 37.068811,17.246167 37.088388,32 37.088388,32 L 22.160133,31.978069 C 22.160133,31.978069 26.997745,27.140456 26.997745,27.140456 C 18.528582,18.264221 13.291696,25.230495 11.500037,31.436501 z"
     style="fill:#404040;"/>
  </a>
 </g>
</svg>

<style type='text/css'>
<![CDATA[
[data-mouse-over-selected='false'] { opacity: 0.7; }
[data-mouse-over-selected='true']  { opacity: 1.0; }
]]>
</style>
<script type="application/ecmascript"><![CDATA[
document.addEventListener('DOMContentLoaded', (event) => {
  highlightEdges();
  highlightAdjacentNodes();
});
]]></script>
</svg>
