<?xml version="1.0" encoding="UTF-8" standalone="no"?>
<!DOCTYPE svg PUBLIC "-//W3C//DTD SVG 1.1//EN"
 "http://www.w3.org/Graphics/SVG/1.1/DTD/svg11.dtd">
<!-- Generated by graphviz version 2.43.0 (0)
 -->
<!-- Title: AP_Winch Pages: 1 -->
<svg width="383pt" height="96pt"
 viewBox="0.00 0.00 382.50 96.00" xmlns="http://www.w3.org/2000/svg" xmlns:xlink="http://www.w3.org/1999/xlink">
<g id="graph0" class="graph" transform="scale(1 1) rotate(0) translate(4 92)">
<title>AP_Winch</title>
<!-- Node1 -->
<g id="Node000001" class="node">
<title>Node1</title>
<g id="a_Node000001"><a xlink:title=" ">
<polygon fill="#999999" stroke="#666666" points="213,-19 148,-19 148,0 213,0 213,-19"/>
<text text-anchor="middle" x="180.5" y="-7" font-family="Helvetica,sans-Serif" font-size="10.00">AP_Winch</text>
</a>
</g>
</g>
<!-- Node1&#45;&gt;Node1 -->
<g id="edge4_Node000001_Node000001" class="edge">
<title>Node1&#45;&gt;Node1</title>
<g id="a_edge4_Node000001_Node000001"><a xlink:title=" ">
<path fill="none" stroke="#9a32cd" stroke-dasharray="5,2" d="M223.14,-14.57C227.91,-13.61 231,-11.92 231,-9.5 231,-5.62 223.1,-3.63 213.04,-3.51"/>
<polygon fill="#9a32cd" stroke="#9a32cd" points="222.68,-11.09 213.04,-15.49 223.32,-18.06 222.68,-11.09"/>
</a>
</g>
<text text-anchor="middle" x="258" y="-7" font-family="Helvetica,sans-Serif" font-size="10.00" fill="grey"> _singleton</text>
</g>
<!-- Node2 -->
<g id="Node000002" class="node">
<title>Node2</title>
<g id="a_Node000002"><a xlink:href="structAP__Param_1_1GroupInfo.html" target="_top" xlink:title=" ">
<polygon fill="white" stroke="#666666" points="119,-86.5 0,-86.5 0,-67.5 119,-67.5 119,-86.5"/>
<text text-anchor="middle" x="59.5" y="-74.5" font-family="Helvetica,sans-Serif" font-size="10.00">AP_Param::GroupInfo</text>
</a>
</g>
</g>
<!-- Node2&#45;&gt;Node1 -->
<g id="edge1_Node000001_Node000002" class="edge">
<title>Node2&#45;&gt;Node1</title>
<g id="a_edge1_Node000001_Node000002"><a xlink:title=" ">
<path fill="none" stroke="#9a32cd" stroke-dasharray="5,2" d="M84.22,-62.62C108.31,-49.58 144.2,-30.15 164.68,-19.07"/>
<polygon fill="#9a32cd" stroke="#9a32cd" points="82.45,-59.6 75.32,-67.44 85.78,-65.75 82.45,-59.6"/>
</a>
</g>
<text text-anchor="middle" x="153" y="-40" font-family="Helvetica,sans-Serif" font-size="10.00" fill="grey"> var_info</text>
</g>
<!-- Node2&#45;&gt;Node2 -->
<g id="edge2_Node000002_Node000002" class="edge">
<title>Node2&#45;&gt;Node2</title>
<g id="a_edge2_Node000002_Node000002"><a xlink:title=" ">
<path fill="none" stroke="#9a32cd" stroke-dasharray="5,2" d="M129.48,-81.58C134.16,-80.52 137,-78.99 137,-77 137,-73.81 129.73,-71.82 119.29,-71.02"/>
<polygon fill="#9a32cd" stroke="#9a32cd" points="128.72,-78.15 119.29,-82.98 129.67,-85.08 128.72,-78.15"/>
</a>
</g>
<text text-anchor="middle" x="172.5" y="-80" font-family="Helvetica,sans-Serif" font-size="10.00" fill="grey"> group_info</text>
<text text-anchor="middle" x="172.5" y="-69" font-family="Helvetica,sans-Serif" font-size="10.00" fill="grey">group_info_ptr</text>
</g>
<!-- Node3 -->
<g id="Node000003" class="node">
<title>Node3</title>
<g id="a_Node000003"><a xlink:href="structAP__Winch_1_1Backend__Config.html" target="_top" xlink:title=" ">
<polygon fill="white" stroke="#666666" points="374.5,-86.5 226.5,-86.5 226.5,-67.5 374.5,-67.5 374.5,-86.5"/>
<text text-anchor="middle" x="300.5" y="-74.5" font-family="Helvetica,sans-Serif" font-size="10.00">AP_Winch::Backend_Config</text>
</a>
</g>
</g>
<!-- Node3&#45;&gt;Node1 -->
<g id="edge3_Node000001_Node000003" class="edge">
<title>Node3&#45;&gt;Node1</title>
<g id="a_edge3_Node000001_Node000003"><a xlink:title=" ">
<path fill="none" stroke="#9a32cd" stroke-dasharray="5,2" d="M275.98,-62.62C252.09,-49.58 216.5,-30.15 196.19,-19.07"/>
<polygon fill="#9a32cd" stroke="#9a32cd" points="274.36,-65.72 284.81,-67.44 277.71,-59.57 274.36,-65.72"/>
</a>
</g>
<text text-anchor="middle" x="264" y="-40" font-family="Helvetica,sans-Serif" font-size="10.00" fill="grey"> config</text>
</g>
</g>
</svg>
