<?xml version="1.0" encoding="UTF-8" standalone="no"?>
<!DOCTYPE svg PUBLIC "-//W3C//DTD SVG 1.1//EN"
 "http://www.w3.org/Graphics/SVG/1.1/DTD/svg11.dtd">
<!-- Generated by graphviz version 2.43.0 (0)
 -->
<!-- Title: AC_P_2D::set_limits Pages: 1 -->
<svg width="374pt" height="156pt"
 viewBox="0.00 0.00 374.00 156.00" xmlns="http://www.w3.org/2000/svg" xmlns:xlink="http://www.w3.org/1999/xlink">

<svg id="main" version="1.1" xmlns="http://www.w3.org/2000/svg" xmlns:xlink="http://www.w3.org/1999/xlink" xml:space="preserve" onload="init(evt)">
<style type="text/css"><![CDATA[
.node, .edge {opacity: 0.7;}
.node.selected, .edge.selected {opacity: 1;}
.edge:hover path { stroke: red; }
.edge:hover polygon { stroke: red; fill: red; }
]]></style>
<script type="application/ecmascript" xlink:href="svg.min.js"/>
<svg id="graph" class="graph">
<g id="graph0" class="graph" transform="scale(1 1) rotate(0) translate(4 152)">
<title>AC_P_2D::set_limits</title>
<!-- Node1 -->
<g id="Node000001" class="node">
<title>Node1</title>
<g id="a_Node000001"><a xlink:title=" ">
<polygon fill="#999999" stroke="#666666" points="114,-129 0,-129 0,-110 114,-110 114,-129"/>
<text text-anchor="middle" x="57" y="-117" font-family="Helvetica,sans-Serif" font-size="10.00">AC_P_2D::set_limits</text>
</a>
</g>
</g>
<!-- Node2 -->
<g id="Node000002" class="node">
<title>Node2</title>
<g id="a_Node000002"><a xlink:href="control_8cpp.html#a2fe745ee070bd250d31bf8c6a8532156" target="_top" xlink:title=" ">
<polygon fill="white" stroke="#666666" points="257,-110 150,-110 150,-91 257,-91 257,-110"/>
<text text-anchor="middle" x="203.5" y="-98" font-family="Helvetica,sans-Serif" font-size="10.00">inv_sqrt_controller</text>
</a>
</g>
</g>
<!-- Node1&#45;&gt;Node2 -->
<g id="edge1_Node000001_Node000002" class="edge">
<title>Node1&#45;&gt;Node2</title>
<g id="a_edge1_Node000001_Node000002"><a xlink:title=" ">
<path fill="none" stroke="#63b8ff" d="M114.28,-112.1C122.71,-110.99 131.45,-109.84 140,-108.72"/>
<polygon fill="#63b8ff" stroke="#63b8ff" points="140.46,-112.19 149.92,-107.41 139.55,-105.25 140.46,-112.19"/>
</a>
</g>
</g>
<!-- Node4 -->
<g id="Node000004" class="node">
<title>Node4</title>
<g id="a_Node000004"><a xlink:href="AP__Math_8h.html#a4e3ae698e8f99cec214348ad233e3c41" target="_top" xlink:title=" ">
<polygon fill="white" stroke="#666666" points="364,-148 295,-148 295,-129 364,-129 364,-148"/>
<text text-anchor="middle" x="329.5" y="-136" font-family="Helvetica,sans-Serif" font-size="10.00">is_positive</text>
</a>
</g>
</g>
<!-- Node1&#45;&gt;Node4 -->
<g id="edge7_Node000001_Node000004" class="edge">
<title>Node1&#45;&gt;Node4</title>
<g id="a_edge7_Node000001_Node000004"><a xlink:title=" ">
<path fill="none" stroke="#63b8ff" d="M114.05,-123.44C164.69,-126.99 238.2,-132.16 284.66,-135.42"/>
<polygon fill="#63b8ff" stroke="#63b8ff" points="284.5,-138.92 294.72,-136.13 284.99,-131.94 284.5,-138.92"/>
</a>
</g>
</g>
<!-- Node3 -->
<g id="Node000003" class="node">
<title>Node3</title>
<g id="a_Node000003"><a xlink:href="AP__Math_8h.html#a8b6f71a42818d74fd8bfe348108942fa" target="_top" xlink:title=" ">
<polygon fill="white" stroke="#666666" points="366,-111 293,-111 293,-92 366,-92 366,-111"/>
<text text-anchor="middle" x="329.5" y="-99" font-family="Helvetica,sans-Serif" font-size="10.00">is_negative</text>
</a>
</g>
</g>
<!-- Node2&#45;&gt;Node3 -->
<g id="edge2_Node000002_Node000003" class="edge">
<title>Node2&#45;&gt;Node3</title>
<g id="a_edge2_Node000002_Node000003"><a xlink:title=" ">
<path fill="none" stroke="#63b8ff" d="M257.09,-100.92C265.53,-100.99 274.22,-101.06 282.5,-101.13"/>
<polygon fill="#63b8ff" stroke="#63b8ff" points="282.69,-104.63 292.71,-101.21 282.74,-97.63 282.69,-104.63"/>
</a>
</g>
</g>
<!-- Node2&#45;&gt;Node4 -->
<g id="edge3_Node000002_Node000004" class="edge">
<title>Node2&#45;&gt;Node4</title>
<g id="a_edge3_Node000002_Node000004"><a xlink:title=" ">
<path fill="none" stroke="#63b8ff" d="M235.79,-110.09C251.5,-114.9 270.74,-120.8 287.61,-125.97"/>
<polygon fill="#63b8ff" stroke="#63b8ff" points="286.63,-129.33 297.22,-128.91 288.68,-122.64 286.63,-129.33"/>
</a>
</g>
</g>
<!-- Node5 -->
<g id="Node000005" class="node">
<title>Node5</title>
<g id="a_Node000005"><a xlink:href="AP__Math_8h.html#a2a12cce483e9b870da70d30406d82c60" target="_top" xlink:title=" ">
<polygon fill="white" stroke="#666666" points="355,-56 304,-56 304,-37 355,-37 355,-56"/>
<text text-anchor="middle" x="329.5" y="-44" font-family="Helvetica,sans-Serif" font-size="10.00">is_zero</text>
</a>
</g>
</g>
<!-- Node2&#45;&gt;Node5 -->
<g id="edge4_Node000002_Node000005" class="edge">
<title>Node2&#45;&gt;Node5</title>
<g id="a_edge4_Node000002_Node000005"><a xlink:title=" ">
<path fill="none" stroke="#63b8ff" d="M226.38,-90.97C246.01,-82.42 275.02,-69.79 297.12,-60.17"/>
<polygon fill="#63b8ff" stroke="#63b8ff" points="298.65,-63.32 306.42,-56.12 295.85,-56.9 298.65,-63.32"/>
</a>
</g>
</g>
<!-- Node6 -->
<g id="Node000006" class="node">
<title>Node6</title>
<g id="a_Node000006"><a xlink:href="AP__Math_8h.html#a34f41fcf2bc527b1728ae04423dfba46" target="_top" xlink:title=" ">
<polygon fill="white" stroke="#666666" points="344,-19 315,-19 315,0 344,0 344,-19"/>
<text text-anchor="middle" x="329.5" y="-7" font-family="Helvetica,sans-Serif" font-size="10.00">sq</text>
</a>
</g>
</g>
<!-- Node2&#45;&gt;Node6 -->
<g id="edge6_Node000002_Node000006" class="edge">
<title>Node2&#45;&gt;Node6</title>
<g id="a_edge6_Node000002_Node000006"><a xlink:title=" ">
<path fill="none" stroke="#63b8ff" d="M214.55,-90.95C230.38,-76.19 262.5,-47.46 293,-27.5 297.01,-24.87 301.46,-22.35 305.8,-20.07"/>
<polygon fill="#63b8ff" stroke="#63b8ff" points="307.58,-23.09 314.96,-15.5 304.45,-16.83 307.58,-23.09"/>
</a>
</g>
</g>
<!-- Node5&#45;&gt;Node5 -->
<g id="edge5_Node000005_Node000005" class="edge">
<title>Node5&#45;&gt;Node5</title>
<g id="a_edge5_Node000005_Node000005"><a xlink:title=" ">
<path fill="none" stroke="#63b8ff" d="M310.08,-56.08C300.63,-64.73 307.11,-74 329.5,-74 343.5,-74 351.27,-70.38 352.83,-65.55"/>
<polygon fill="#63b8ff" stroke="#63b8ff" points="355.97,-63.99 348.92,-56.08 349.5,-66.66 355.97,-63.99"/>
</a>
</g>
</g>
</g>
</svg>
</svg>

<style type='text/css'>
<![CDATA[
[data-mouse-over-selected='false'] { opacity: 0.7; }
[data-mouse-over-selected='true']  { opacity: 1.0; }
]]>
</style>
<script type="application/ecmascript"><![CDATA[
document.addEventListener('DOMContentLoaded', (event) => {
  highlightEdges();
  highlightAdjacentNodes();
});
]]></script>
</svg>
