<?xml version="1.0" encoding="UTF-8" standalone="no"?>
<!DOCTYPE svg PUBLIC "-//W3C//DTD SVG 1.1//EN"
 "http://www.w3.org/Graphics/SVG/1.1/DTD/svg11.dtd">
<!-- Generated by graphviz version 2.43.0 (0)
 -->
<!-- Title: AP_MSP_Telem_DJI::get_osd_flight_mode_bitmask Pages: 1 -->
<svg width="499pt" height="123pt"
 viewBox="0.00 0.00 499.00 123.00" xmlns="http://www.w3.org/2000/svg" xmlns:xlink="http://www.w3.org/1999/xlink">
<g id="graph0" class="graph" transform="scale(1 1) rotate(0) translate(4 119)">
<title>AP_MSP_Telem_DJI::get_osd_flight_mode_bitmask</title>
<!-- Node1 -->
<g id="Node000001" class="node">
<title>Node1</title>
<g id="a_Node000001"><a xlink:title=" ">
<polygon fill="#999999" stroke="#666666" points="147,-72.5 0,-72.5 0,-42.5 147,-42.5 147,-72.5"/>
<text text-anchor="start" x="8" y="-60.5" font-family="Helvetica,sans-Serif" font-size="10.00">AP_MSP_Telem_DJI::get</text>
<text text-anchor="middle" x="73.5" y="-49.5" font-family="Helvetica,sans-Serif" font-size="10.00">_osd_flight_mode_bitmask</text>
</a>
</g>
</g>
<!-- Node2 -->
<g id="Node000002" class="node">
<title>Node2</title>
<g id="a_Node000002"><a xlink:href="AP__Common_8h.html#aa6a4f0e0e1856af251639d9a40be1d41" target="_top" xlink:title=" ">
<polygon fill="white" stroke="#666666" points="279.5,-115 223.5,-115 223.5,-96 279.5,-96 279.5,-115"/>
<text text-anchor="middle" x="251.5" y="-103" font-family="Helvetica,sans-Serif" font-size="10.00">BIT_SET</text>
</a>
</g>
</g>
<!-- Node1&#45;&gt;Node2 -->
<g id="edge1_Node000001_Node000002" class="edge">
<title>Node1&#45;&gt;Node2</title>
<g id="a_edge1_Node000001_Node000002"><a xlink:title=" ">
<path fill="none" stroke="#63b8ff" d="M128.56,-72.55C145.93,-77.36 165.27,-82.69 183,-87.5 192.82,-90.17 203.45,-93.02 213.3,-95.65"/>
<polygon fill="#63b8ff" stroke="#63b8ff" points="212.66,-99.1 223.23,-98.29 214.46,-92.33 212.66,-99.1"/>
</a>
</g>
</g>
<!-- Node3 -->
<g id="Node000003" class="node">
<title>Node3</title>
<g id="a_Node000003"><a xlink:href="classAP__MSP__Telem__Backend.html#a9a017e8b8d930d6266d92240f190f626" target="_top" xlink:title=" ">
<polygon fill="white" stroke="#666666" points="320,-78 183,-78 183,-37 320,-37 320,-78"/>
<text text-anchor="start" x="191" y="-66" font-family="Helvetica,sans-Serif" font-size="10.00">AP_MSP_Telem_Backend</text>
<text text-anchor="start" x="191" y="-55" font-family="Helvetica,sans-Serif" font-size="10.00">::get_osd_flight_mode</text>
<text text-anchor="middle" x="251.5" y="-44" font-family="Helvetica,sans-Serif" font-size="10.00">_bitmask</text>
</a>
</g>
</g>
<!-- Node1&#45;&gt;Node3 -->
<g id="edge2_Node000001_Node000003" class="edge">
<title>Node1&#45;&gt;Node3</title>
<g id="a_edge2_Node000001_Node000003"><a xlink:title=" ">
<path fill="none" stroke="#63b8ff" d="M147.1,-57.5C155.52,-57.5 164.13,-57.5 172.61,-57.5"/>
<polygon fill="#63b8ff" stroke="#63b8ff" points="172.87,-61 182.87,-57.5 172.87,-54 172.87,-61"/>
</a>
</g>
</g>
<!-- Node5 -->
<g id="Node000005" class="node">
<title>Node5</title>
<g id="a_Node000005"><a xlink:href="namespaceAP.html#a936c64b8a1543d489587eddbf2bf0eef" target="_top" xlink:title=" ">
<polygon fill="white" stroke="#666666" points="283,-19 220,-19 220,0 283,0 283,-19"/>
<text text-anchor="middle" x="251.5" y="-7" font-family="Helvetica,sans-Serif" font-size="10.00">AP::notify</text>
</a>
</g>
</g>
<!-- Node1&#45;&gt;Node5 -->
<g id="edge4_Node000001_Node000005" class="edge">
<title>Node1&#45;&gt;Node5</title>
<g id="a_edge4_Node000001_Node000005"><a xlink:title=" ">
<path fill="none" stroke="#63b8ff" d="M128.56,-42.45C145.93,-37.64 165.27,-32.31 183,-27.5 191.76,-25.12 201.17,-22.6 210.09,-20.21"/>
<polygon fill="#63b8ff" stroke="#63b8ff" points="211.15,-23.55 219.91,-17.59 209.34,-16.79 211.15,-23.55"/>
</a>
</g>
</g>
<!-- Node4 -->
<g id="Node000004" class="node">
<title>Node4</title>
<g id="a_Node000004"><a xlink:href="classAP__HAL_1_1Util.html#a287a2b82fa30b92c8d52aad61d4d27b7" target="_top" xlink:title=" ">
<polygon fill="white" stroke="#666666" points="484.5,-72.5 362.5,-72.5 362.5,-42.5 484.5,-42.5 484.5,-72.5"/>
<text text-anchor="start" x="370.5" y="-60.5" font-family="Helvetica,sans-Serif" font-size="10.00">AP_HAL::Util::get_soft</text>
<text text-anchor="middle" x="423.5" y="-49.5" font-family="Helvetica,sans-Serif" font-size="10.00">_armed</text>
</a>
</g>
</g>
<!-- Node3&#45;&gt;Node4 -->
<g id="edge3_Node000003_Node000004" class="edge">
<title>Node3&#45;&gt;Node4</title>
<g id="a_edge3_Node000003_Node000004"><a xlink:title=" ">
<path fill="none" stroke="#63b8ff" d="M320.18,-57.5C330.77,-57.5 341.74,-57.5 352.39,-57.5"/>
<polygon fill="#63b8ff" stroke="#63b8ff" points="352.48,-61 362.48,-57.5 352.48,-54 352.48,-61"/>
</a>
</g>
</g>
<!-- Node6 -->
<g id="Node000006" class="node">
<title>Node6</title>
<g id="a_Node000006"><a xlink:href="classAP__Notify.html#a31e4c54afd5677d79668d4e757e7af2c" target="_top" xlink:title=" ">
<polygon fill="white" stroke="#666666" points="491,-19 356,-19 356,0 491,0 491,-19"/>
<text text-anchor="middle" x="423.5" y="-7" font-family="Helvetica,sans-Serif" font-size="10.00">AP_Notify::get_singleton</text>
</a>
</g>
</g>
<!-- Node5&#45;&gt;Node6 -->
<g id="edge5_Node000005_Node000006" class="edge">
<title>Node5&#45;&gt;Node6</title>
<g id="a_edge5_Node000005_Node000006"><a xlink:title=" ">
<path fill="none" stroke="#63b8ff" d="M283.29,-9.5C300.79,-9.5 323.57,-9.5 345.61,-9.5"/>
<polygon fill="#63b8ff" stroke="#63b8ff" points="345.66,-13 355.66,-9.5 345.66,-6 345.66,-13"/>
</a>
</g>
</g>
</g>
</svg>
