<?xml version="1.0" encoding="UTF-8" standalone="no"?>
<!DOCTYPE svg PUBLIC "-//W3C//DTD SVG 1.1//EN"
 "http://www.w3.org/Graphics/SVG/1.1/DTD/svg11.dtd">
<!-- Generated by graphviz version 2.43.0 (0)
 -->
<!-- Title: AP_Param::is_read_only Pages: 1 -->
<svg width="947pt" height="227pt"
 viewBox="0.00 0.00 947.00 226.50" xmlns="http://www.w3.org/2000/svg" xmlns:xlink="http://www.w3.org/1999/xlink">
<g id="graph0" class="graph" transform="scale(1 1) rotate(0) translate(4 222.5)">
<title>AP_Param::is_read_only</title>
<!-- Node1 -->
<g id="Node000001" class="node">
<title>Node1</title>
<g id="a_Node000001"><a xlink:title=" ">
<polygon fill="#999999" stroke="#666666" points="133,-76 0,-76 0,-57 133,-57 133,-76"/>
<text text-anchor="middle" x="66.5" y="-64" font-family="Helvetica,sans-Serif" font-size="10.00">AP_Param::is_read_only</text>
</a>
</g>
</g>
<!-- Node2 -->
<g id="Node000002" class="node">
<title>Node2</title>
<g id="a_Node000002"><a xlink:href="classAP__Param.html#a791fd4e92df2597815723f0a291bef02" target="_top" xlink:title=" ">
<polygon fill="white" stroke="#666666" points="291,-81.5 169,-81.5 169,-51.5 291,-51.5 291,-81.5"/>
<text text-anchor="start" x="177" y="-69.5" font-family="Helvetica,sans-Serif" font-size="10.00">AP_Param::configured</text>
<text text-anchor="middle" x="230" y="-58.5" font-family="Helvetica,sans-Serif" font-size="10.00">_in_defaults_file</text>
</a>
</g>
</g>
<!-- Node1&#45;&gt;Node2 -->
<g id="edge1_Node000001_Node000002" class="edge">
<title>Node1&#45;&gt;Node2</title>
<g id="a_edge1_Node000001_Node000002"><a xlink:title=" ">
<path fill="none" stroke="#63b8ff" d="M133.19,-66.5C141.57,-66.5 150.18,-66.5 158.63,-66.5"/>
<polygon fill="#63b8ff" stroke="#63b8ff" points="158.83,-70 168.83,-66.5 158.83,-63 158.83,-70"/>
</a>
</g>
</g>
<!-- Node3 -->
<g id="Node000003" class="node">
<title>Node3</title>
<g id="a_Node000003"><a xlink:href="classAP__Param.html#a262ff617d4da618000056ee0766297a9" target="_top" xlink:title=" ">
<polygon fill="white" stroke="#666666" points="461,-76 327,-76 327,-57 461,-57 461,-76"/>
<text text-anchor="middle" x="394" y="-64" font-family="Helvetica,sans-Serif" font-size="10.00">AP_Param::find_var_info</text>
</a>
</g>
</g>
<!-- Node2&#45;&gt;Node3 -->
<g id="edge2_Node000002_Node000003" class="edge">
<title>Node2&#45;&gt;Node3</title>
<g id="a_edge2_Node000002_Node000003"><a xlink:title=" ">
<path fill="none" stroke="#63b8ff" d="M291.32,-66.5C299.66,-66.5 308.32,-66.5 316.9,-66.5"/>
<polygon fill="#63b8ff" stroke="#63b8ff" points="316.91,-70 326.91,-66.5 316.91,-63 316.91,-70"/>
</a>
</g>
</g>
<!-- Node4 -->
<g id="Node000004" class="node">
<title>Node4</title>
<g id="a_Node000004"><a xlink:href="classAP__Param.html#a6236c6d05bc7342b57cf69a21d9afd48" target="_top" xlink:title=" ">
<polygon fill="white" stroke="#666666" points="607,-143.5 497,-143.5 497,-113.5 607,-113.5 607,-143.5"/>
<text text-anchor="start" x="505" y="-131.5" font-family="Helvetica,sans-Serif" font-size="10.00">AP_Param::find_var</text>
<text text-anchor="middle" x="552" y="-120.5" font-family="Helvetica,sans-Serif" font-size="10.00">_info_group</text>
</a>
</g>
</g>
<!-- Node3&#45;&gt;Node4 -->
<g id="edge3_Node000003_Node000004" class="edge">
<title>Node3&#45;&gt;Node4</title>
<g id="a_edge3_Node000003_Node000004"><a xlink:title=" ">
<path fill="none" stroke="#63b8ff" d="M419.03,-76.05C441.43,-84.95 475.48,-98.49 503.38,-109.58"/>
<polygon fill="#63b8ff" stroke="#63b8ff" points="502.38,-112.94 512.97,-113.38 504.97,-106.44 502.38,-112.94"/>
</a>
</g>
</g>
<!-- Node6 -->
<g id="Node000006" class="node">
<title>Node6</title>
<g id="a_Node000006"><a xlink:href="classAP__Param.html#a1dcc7820ea51e29cfb762387a9212818" target="_top" xlink:title=" ">
<polygon fill="white" stroke="#666666" points="939,-170 823,-170 823,-151 939,-151 939,-170"/>
<text text-anchor="middle" x="881" y="-158" font-family="Helvetica,sans-Serif" font-size="10.00">AP_Param::get_base</text>
</a>
</g>
</g>
<!-- Node3&#45;&gt;Node6 -->
<g id="edge10_Node000003_Node000006" class="edge">
<title>Node3&#45;&gt;Node6</title>
<g id="a_edge10_Node000003_Node000006"><a xlink:title=" ">
<path fill="none" stroke="#63b8ff" d="M435.05,-56.95C508.26,-41.54 667.13,-17.67 787,-67.5 823.51,-82.68 853.17,-119.87 868.55,-142.35"/>
<polygon fill="#63b8ff" stroke="#63b8ff" points="865.64,-144.3 874.08,-150.71 871.48,-140.44 865.64,-144.3"/>
</a>
</g>
</g>
<!-- Node7 -->
<g id="Node000007" class="node">
<title>Node7</title>
<g id="a_Node000007"><a xlink:href="classAP__Param.html#a69baa95e011c7a8c4a29625c558c5501" target="_top" xlink:title="get group_info pointer based on flags">
<polygon fill="white" stroke="#666666" points="787,-95 643,-95 643,-76 787,-76 787,-95"/>
<text text-anchor="middle" x="715" y="-83" font-family="Helvetica,sans-Serif" font-size="10.00">AP_Param::get_group_info</text>
</a>
</g>
</g>
<!-- Node3&#45;&gt;Node7 -->
<g id="edge11_Node000003_Node000007" class="edge">
<title>Node3&#45;&gt;Node7</title>
<g id="a_edge11_Node000003_Node000007"><a xlink:title=" ">
<path fill="none" stroke="#63b8ff" d="M461.1,-70.44C510.9,-73.4 579.47,-77.49 632.64,-80.65"/>
<polygon fill="#63b8ff" stroke="#63b8ff" points="632.53,-84.15 642.72,-81.25 632.95,-77.17 632.53,-84.15"/>
</a>
</g>
</g>
<!-- Node9 -->
<g id="Node000009" class="node">
<title>Node9</title>
<g id="a_Node000009"><a xlink:href="structtype.html#a9bc6db84bdab9cb1893658114058ad41" target="_top" xlink:title=" ">
<polygon fill="white" stroke="#666666" points="585,-19 519,-19 519,0 585,0 585,-19"/>
<text text-anchor="middle" x="552" y="-7" font-family="Helvetica,sans-Serif" font-size="10.00">type::type</text>
</a>
</g>
</g>
<!-- Node3&#45;&gt;Node9 -->
<g id="edge12_Node000003_Node000009" class="edge">
<title>Node3&#45;&gt;Node9</title>
<g id="a_edge12_Node000003_Node000009"><a xlink:title=" ">
<path fill="none" stroke="#63b8ff" d="M421.11,-56.96C446.87,-47.55 486.45,-33.09 515.15,-22.6"/>
<polygon fill="#63b8ff" stroke="#63b8ff" points="516.61,-25.79 524.8,-19.07 514.21,-19.22 516.61,-25.79"/>
</a>
</g>
</g>
<!-- Node4&#45;&gt;Node4 -->
<g id="edge6_Node000004_Node000004" class="edge">
<title>Node4&#45;&gt;Node4</title>
<g id="a_edge6_Node000004_Node000004"><a xlink:title=" ">
<path fill="none" stroke="#63b8ff" d="M524.23,-143.78C518.05,-152.91 527.31,-161.5 552,-161.5 566.66,-161.5 575.88,-158.47 579.66,-154.1"/>
<polygon fill="#63b8ff" stroke="#63b8ff" points="583.16,-153.81 579.77,-143.78 576.16,-153.73 583.16,-153.81"/>
</a>
</g>
</g>
<!-- Node5 -->
<g id="Node000005" class="node">
<title>Node5</title>
<g id="a_Node000005"><a xlink:href="classAP__Param.html#aa8b43d95bca6adbf5497e8102cf73857" target="_top" xlink:title=" ">
<polygon fill="white" stroke="#666666" points="782,-218.5 648,-218.5 648,-188.5 782,-188.5 782,-218.5"/>
<text text-anchor="start" x="656" y="-206.5" font-family="Helvetica,sans-Serif" font-size="10.00">AP_Param::adjust_group</text>
<text text-anchor="middle" x="715" y="-195.5" font-family="Helvetica,sans-Serif" font-size="10.00">_offset</text>
</a>
</g>
</g>
<!-- Node4&#45;&gt;Node5 -->
<g id="edge4_Node000004_Node000005" class="edge">
<title>Node4&#45;&gt;Node5</title>
<g id="a_edge4_Node000004_Node000005"><a xlink:title=" ">
<path fill="none" stroke="#63b8ff" d="M581.07,-143.62C598.68,-152.91 621.95,-164.84 643,-174.5 650.4,-177.89 658.31,-181.32 666.08,-184.57"/>
<polygon fill="#63b8ff" stroke="#63b8ff" points="664.84,-187.85 675.42,-188.44 667.52,-181.38 664.84,-187.85"/>
</a>
</g>
</g>
<!-- Node4&#45;&gt;Node6 -->
<g id="edge7_Node000004_Node000006" class="edge">
<title>Node4&#45;&gt;Node6</title>
<g id="a_edge7_Node000004_Node000006"><a xlink:title=" ">
<path fill="none" stroke="#63b8ff" d="M607.18,-136.89C618.97,-138.56 631.39,-140.2 643,-141.5 700.13,-147.91 765.25,-152.97 812.75,-156.25"/>
<polygon fill="#63b8ff" stroke="#63b8ff" points="812.7,-159.75 822.92,-156.94 813.18,-152.77 812.7,-159.75"/>
</a>
</g>
</g>
<!-- Node4&#45;&gt;Node7 -->
<g id="edge8_Node000004_Node000007" class="edge">
<title>Node4&#45;&gt;Node7</title>
<g id="a_edge8_Node000004_Node000007"><a xlink:title=" ">
<path fill="none" stroke="#63b8ff" d="M607.06,-114.06C626.88,-108.77 649.11,-102.83 668.15,-97.75"/>
<polygon fill="#63b8ff" stroke="#63b8ff" points="669.31,-101.06 678.07,-95.1 667.5,-94.3 669.31,-101.06"/>
</a>
</g>
</g>
<!-- Node8 -->
<g id="Node000008" class="node">
<title>Node8</title>
<g id="a_Node000008"><a xlink:href="classAP__Param.html#a90f6be43b427d44475380211164f8292" target="_top" xlink:title=" ">
<polygon fill="white" stroke="#666666" points="771.5,-132 658.5,-132 658.5,-113 771.5,-113 771.5,-132"/>
<text text-anchor="middle" x="715" y="-120" font-family="Helvetica,sans-Serif" font-size="10.00">AP_Param::group_id</text>
</a>
</g>
</g>
<!-- Node4&#45;&gt;Node8 -->
<g id="edge9_Node000004_Node000008" class="edge">
<title>Node4&#45;&gt;Node8</title>
<g id="a_edge9_Node000004_Node000008"><a xlink:title=" ">
<path fill="none" stroke="#63b8ff" d="M607.06,-126.49C620.23,-125.99 634.47,-125.46 648.13,-124.95"/>
<polygon fill="#63b8ff" stroke="#63b8ff" points="648.57,-128.44 658.44,-124.57 648.31,-121.45 648.57,-128.44"/>
</a>
</g>
</g>
<!-- Node5&#45;&gt;Node6 -->
<g id="edge5_Node000005_Node000006" class="edge">
<title>Node5&#45;&gt;Node6</title>
<g id="a_edge5_Node000005_Node000006"><a xlink:title=" ">
<path fill="none" stroke="#63b8ff" d="M773.36,-188.46C793.09,-183.29 814.92,-177.56 833.66,-172.65"/>
<polygon fill="#63b8ff" stroke="#63b8ff" points="834.65,-176.01 843.44,-170.09 832.88,-169.24 834.65,-176.01"/>
</a>
</g>
</g>
</g>
</svg>
