<?xml version="1.0" encoding="UTF-8" standalone="no"?>
<!DOCTYPE svg PUBLIC "-//W3C//DTD SVG 1.1//EN"
 "http://www.w3.org/Graphics/SVG/1.1/DTD/svg11.dtd">
<!-- Generated by graphviz version 2.43.0 (0)
 -->
<!-- Title: ChibiOS::RCOutput::setup_group_DMA Pages: 1 -->
<svg width="708pt" height="199pt"
 viewBox="0.00 0.00 708.00 199.00" xmlns="http://www.w3.org/2000/svg" xmlns:xlink="http://www.w3.org/1999/xlink">
<g id="graph0" class="graph" transform="scale(1 1) rotate(0) translate(4 195)">
<title>ChibiOS::RCOutput::setup_group_DMA</title>
<!-- Node1 -->
<g id="Node000001" class="node">
<title>Node1</title>
<g id="a_Node000001"><a xlink:title=" ">
<polygon fill="#999999" stroke="#666666" points="113,-110.5 0,-110.5 0,-80.5 113,-80.5 113,-110.5"/>
<text text-anchor="start" x="8" y="-98.5" font-family="Helvetica,sans-Serif" font-size="10.00">ChibiOS::RCOutput::</text>
<text text-anchor="middle" x="56.5" y="-87.5" font-family="Helvetica,sans-Serif" font-size="10.00">setup_group_DMA</text>
</a>
</g>
</g>
<!-- Node2 -->
<g id="Node000002" class="node">
<title>Node2</title>
<g id="a_Node000002"><a xlink:href="classAP__HAL_1_1Util.html#aaa2ddf52056f9501534a39a48ed6d341" target="_top" xlink:title=" ">
<polygon fill="white" stroke="#666666" points="294.5,-191 164.5,-191 164.5,-172 294.5,-172 294.5,-191"/>
<text text-anchor="middle" x="229.5" y="-179" font-family="Helvetica,sans-Serif" font-size="10.00">AP_HAL::Util::free_type</text>
</a>
</g>
</g>
<!-- Node1&#45;&gt;Node2 -->
<g id="edge1_Node000001_Node000002" class="edge">
<title>Node1&#45;&gt;Node2</title>
<g id="a_edge1_Node000001_Node000002"><a xlink:title=" ">
<path fill="none" stroke="#63b8ff" d="M73.74,-110.55C91.1,-125.83 120.05,-149.11 149,-162.5 154.28,-164.94 159.91,-167.09 165.64,-168.98"/>
<polygon fill="#63b8ff" stroke="#63b8ff" points="164.75,-172.36 175.33,-171.9 166.77,-165.66 164.75,-172.36"/>
</a>
</g>
</g>
<!-- Node4 -->
<g id="Node000004" class="node">
<title>Node4</title>
<g id="a_Node000004"><a xlink:href="structChibiOS_1_1RCOutput_1_1pwm__group.html#ae58bba123d00ef5ec02aca36ec5f40e5" target="_top" xlink:title=" ">
<polygon fill="white" stroke="#666666" points="310,-153.5 149,-153.5 149,-123.5 310,-123.5 310,-153.5"/>
<text text-anchor="start" x="157" y="-141.5" font-family="Helvetica,sans-Serif" font-size="10.00">ChibiOS::RCOutput::</text>
<text text-anchor="middle" x="229.5" y="-130.5" font-family="Helvetica,sans-Serif" font-size="10.00">pwm_group::is_chan_enabled</text>
</a>
</g>
</g>
<!-- Node1&#45;&gt;Node4 -->
<g id="edge3_Node000001_Node000004" class="edge">
<title>Node1&#45;&gt;Node4</title>
<g id="a_edge3_Node000001_Node000004"><a xlink:title=" ">
<path fill="none" stroke="#63b8ff" d="M113.02,-109.46C127.66,-113.14 143.64,-117.16 158.92,-121"/>
<polygon fill="#63b8ff" stroke="#63b8ff" points="158.29,-124.45 168.84,-123.5 159.99,-117.66 158.29,-124.45"/>
</a>
</g>
</g>
<!-- Node5 -->
<g id="Node000005" class="node">
<title>Node5</title>
<g id="a_Node000005"><a xlink:href="classAP__HAL_1_1Util.html#ada9a9483db83d0cf1532f3e21c464602" target="_top" xlink:title=" ">
<polygon fill="white" stroke="#666666" points="301,-105 158,-105 158,-86 301,-86 301,-105"/>
<text text-anchor="middle" x="229.5" y="-93" font-family="Helvetica,sans-Serif" font-size="10.00">AP_HAL::Util::malloc_type</text>
</a>
</g>
</g>
<!-- Node1&#45;&gt;Node5 -->
<g id="edge4_Node000001_Node000005" class="edge">
<title>Node1&#45;&gt;Node5</title>
<g id="a_edge4_Node000001_Node000005"><a xlink:title=" ">
<path fill="none" stroke="#63b8ff" d="M113.02,-95.5C124.11,-95.5 135.96,-95.5 147.7,-95.5"/>
<polygon fill="#63b8ff" stroke="#63b8ff" points="147.97,-99 157.97,-95.5 147.97,-92 147.97,-99"/>
</a>
</g>
</g>
<!-- Node9 -->
<g id="Node000009" class="node">
<title>Node9</title>
<g id="a_Node000009"><a xlink:href="classAP__HAL_1_1BetterStream.html#a8534aa004599bb81ad60f3e762791032" target="_top" xlink:title=" ">
<polygon fill="white" stroke="#666666" points="292,-67.5 167,-67.5 167,-37.5 292,-37.5 292,-67.5"/>
<text text-anchor="start" x="175" y="-55.5" font-family="Helvetica,sans-Serif" font-size="10.00">AP_HAL::BetterStream</text>
<text text-anchor="middle" x="229.5" y="-44.5" font-family="Helvetica,sans-Serif" font-size="10.00">::printf</text>
</a>
</g>
</g>
<!-- Node1&#45;&gt;Node9 -->
<g id="edge8_Node000001_Node000009" class="edge">
<title>Node1&#45;&gt;Node9</title>
<g id="a_edge8_Node000001_Node000009"><a xlink:title=" ">
<path fill="none" stroke="#63b8ff" d="M113.02,-81.54C127.66,-77.86 143.64,-73.84 158.92,-70"/>
<polygon fill="#63b8ff" stroke="#63b8ff" points="159.99,-73.34 168.84,-67.5 158.29,-66.55 159.99,-73.34"/>
</a>
</g>
</g>
<!-- Node12 -->
<g id="Node000012" class="node">
<title>Node12</title>
<g id="a_Node000012"><a xlink:href="classAP__HAL_1_1Util.html#afaedff8102d9ae2fbc398d2099e30cf6" target="_top" xlink:title=" ">
<polygon fill="white" stroke="#666666" points="290,-19 169,-19 169,0 290,0 290,-19"/>
<text text-anchor="middle" x="229.5" y="-7" font-family="Helvetica,sans-Serif" font-size="10.00">AP_HAL::Util::snprintf</text>
</a>
</g>
</g>
<!-- Node1&#45;&gt;Node12 -->
<g id="edge11_Node000001_Node000012" class="edge">
<title>Node1&#45;&gt;Node12</title>
<g id="a_edge11_Node000001_Node000012"><a xlink:title=" ">
<path fill="none" stroke="#63b8ff" d="M73.74,-80.45C91.1,-65.17 120.05,-41.89 149,-28.5 154.28,-26.06 159.91,-23.91 165.64,-22.02"/>
<polygon fill="#63b8ff" stroke="#63b8ff" points="166.77,-25.34 175.33,-19.1 164.75,-18.64 166.77,-25.34"/>
</a>
</g>
</g>
<!-- Node3 -->
<g id="Node000003" class="node">
<title>Node3</title>
<g id="a_Node000003"><a xlink:href="malloc_8c.html#afbedc913aa4651b3c3b4b3aecd9b4711" target="_top" xlink:title=" ">
<polygon fill="white" stroke="#666666" points="427.5,-191 391.5,-191 391.5,-172 427.5,-172 427.5,-191"/>
<text text-anchor="middle" x="409.5" y="-179" font-family="Helvetica,sans-Serif" font-size="10.00">free</text>
</a>
</g>
</g>
<!-- Node2&#45;&gt;Node3 -->
<g id="edge2_Node000002_Node000003" class="edge">
<title>Node2&#45;&gt;Node3</title>
<g id="a_edge2_Node000002_Node000003"><a xlink:title=" ">
<path fill="none" stroke="#63b8ff" d="M294.51,-181.5C324.28,-181.5 358.11,-181.5 381.13,-181.5"/>
<polygon fill="#63b8ff" stroke="#63b8ff" points="381.2,-185 391.2,-181.5 381.2,-178 381.2,-185"/>
</a>
</g>
</g>
<!-- Node6 -->
<g id="Node000006" class="node">
<title>Node6</title>
<g id="a_Node000006"><a xlink:href="malloc_8c.html#a2807e26a012717736641384f91ab2563" target="_top" xlink:title=" ">
<polygon fill="white" stroke="#666666" points="432,-105 387,-105 387,-86 432,-86 432,-105"/>
<text text-anchor="middle" x="409.5" y="-93" font-family="Helvetica,sans-Serif" font-size="10.00">calloc</text>
</a>
</g>
</g>
<!-- Node5&#45;&gt;Node6 -->
<g id="edge5_Node000005_Node000006" class="edge">
<title>Node5&#45;&gt;Node6</title>
<g id="a_edge5_Node000005_Node000006"><a xlink:title=" ">
<path fill="none" stroke="#63b8ff" d="M301.11,-95.5C327.23,-95.5 355.55,-95.5 376.56,-95.5"/>
<polygon fill="#63b8ff" stroke="#63b8ff" points="376.82,-99 386.82,-95.5 376.82,-92 376.82,-99"/>
</a>
</g>
</g>
<!-- Node7 -->
<g id="Node000007" class="node">
<title>Node7</title>
<g id="a_Node000007"><a xlink:href="malloc_8c.html#a9c36d0fe3ec4675cbffdc9b52f5fb399" target="_top" xlink:title=" ">
<polygon fill="white" stroke="#666666" points="572.5,-105 522.5,-105 522.5,-86 572.5,-86 572.5,-105"/>
<text text-anchor="middle" x="547.5" y="-93" font-family="Helvetica,sans-Serif" font-size="10.00">malloc</text>
</a>
</g>
</g>
<!-- Node6&#45;&gt;Node7 -->
<g id="edge6_Node000006_Node000007" class="edge">
<title>Node6&#45;&gt;Node7</title>
<g id="a_edge6_Node000006_Node000007"><a xlink:title=" ">
<path fill="none" stroke="#63b8ff" d="M432.05,-95.5C453.55,-95.5 486.9,-95.5 512.07,-95.5"/>
<polygon fill="#63b8ff" stroke="#63b8ff" points="512.3,-99 522.3,-95.5 512.3,-92 512.3,-99"/>
</a>
</g>
</g>
<!-- Node8 -->
<g id="Node000008" class="node">
<title>Node8</title>
<g id="a_Node000008"><a xlink:href="malloc_8c.html#ad8aac7aa28f6dea23cb5bc9c3268e330" target="_top" xlink:title=" ">
<polygon fill="white" stroke="#666666" points="700,-105 622,-105 622,-86 700,-86 700,-105"/>
<text text-anchor="middle" x="661" y="-93" font-family="Helvetica,sans-Serif" font-size="10.00">malloc_flags</text>
</a>
</g>
</g>
<!-- Node7&#45;&gt;Node8 -->
<g id="edge7_Node000007_Node000008" class="edge">
<title>Node7&#45;&gt;Node8</title>
<g id="a_edge7_Node000007_Node000008"><a xlink:title=" ">
<path fill="none" stroke="#63b8ff" d="M572.69,-95.5C584.13,-95.5 598.2,-95.5 611.68,-95.5"/>
<polygon fill="#63b8ff" stroke="#63b8ff" points="611.82,-99 621.82,-95.5 611.82,-92 611.82,-99"/>
</a>
</g>
</g>
<!-- Node10 -->
<g id="Node000010" class="node">
<title>Node10</title>
<g id="a_Node000010"><a xlink:href="classAP__HAL_1_1BetterStream.html#aa730be451d385d7ba03ee9677e6d91a2" target="_top" xlink:title=" ">
<polygon fill="white" stroke="#666666" points="472,-67.5 347,-67.5 347,-37.5 472,-37.5 472,-67.5"/>
<text text-anchor="start" x="355" y="-55.5" font-family="Helvetica,sans-Serif" font-size="10.00">AP_HAL::BetterStream</text>
<text text-anchor="middle" x="409.5" y="-44.5" font-family="Helvetica,sans-Serif" font-size="10.00">::vprintf</text>
</a>
</g>
</g>
<!-- Node9&#45;&gt;Node10 -->
<g id="edge9_Node000009_Node000010" class="edge">
<title>Node9&#45;&gt;Node10</title>
<g id="a_edge9_Node000009_Node000010"><a xlink:title=" ">
<path fill="none" stroke="#63b8ff" d="M292.26,-52.5C306.62,-52.5 322.02,-52.5 336.77,-52.5"/>
<polygon fill="#63b8ff" stroke="#63b8ff" points="336.85,-56 346.85,-52.5 336.85,-49 336.85,-56"/>
</a>
</g>
</g>
<!-- Node11 -->
<g id="Node000011" class="node">
<title>Node11</title>
<g id="a_Node000011"><a xlink:href="test__expandingstring__failure_8cpp.html#a98e0d5bb436a207f576379beaa786040" target="_top" xlink:title=" ">
<polygon fill="white" stroke="#666666" points="586,-62 509,-62 509,-43 586,-43 586,-62"/>
<text text-anchor="middle" x="547.5" y="-50" font-family="Helvetica,sans-Serif" font-size="10.00">print_vprintf</text>
</a>
</g>
</g>
<!-- Node10&#45;&gt;Node11 -->
<g id="edge10_Node000010_Node000011" class="edge">
<title>Node10&#45;&gt;Node11</title>
<g id="a_edge10_Node000010_Node000011"><a xlink:title=" ">
<path fill="none" stroke="#63b8ff" d="M472.13,-52.5C481.03,-52.5 490.07,-52.5 498.64,-52.5"/>
<polygon fill="#63b8ff" stroke="#63b8ff" points="498.82,-56 508.82,-52.5 498.82,-49 498.82,-56"/>
</a>
</g>
</g>
<!-- Node13 -->
<g id="Node000013" class="node">
<title>Node13</title>
<g id="a_Node000013"><a xlink:href="classAP__HAL_1_1Util.html#ae161746d300c291b0f1536f05a9f0462" target="_top" xlink:title=" ">
<polygon fill="white" stroke="#666666" points="473,-19 346,-19 346,0 473,0 473,-19"/>
<text text-anchor="middle" x="409.5" y="-7" font-family="Helvetica,sans-Serif" font-size="10.00">AP_HAL::Util::vsnprintf</text>
</a>
</g>
</g>
<!-- Node12&#45;&gt;Node13 -->
<g id="edge12_Node000012_Node000013" class="edge">
<title>Node12&#45;&gt;Node13</title>
<g id="a_edge12_Node000012_Node000013"><a xlink:title=" ">
<path fill="none" stroke="#63b8ff" d="M290.27,-9.5C304.79,-9.5 320.48,-9.5 335.54,-9.5"/>
<polygon fill="#63b8ff" stroke="#63b8ff" points="335.85,-13 345.85,-9.5 335.85,-6 335.85,-13"/>
</a>
</g>
</g>
</g>
</svg>
