<?xml version="1.0" encoding="UTF-8" standalone="no"?>
<!DOCTYPE svg PUBLIC "-//W3C//DTD SVG 1.1//EN"
 "http://www.w3.org/Graphics/SVG/1.1/DTD/svg11.dtd">
<!-- Generated by graphviz version 2.43.0 (0)
 -->
<!-- Title: SITL::I2CRegisters_8Bit::rdwr Pages: 1 -->
<svg width="275pt" height="187pt"
 viewBox="0.00 0.00 275.00 186.50" xmlns="http://www.w3.org/2000/svg" xmlns:xlink="http://www.w3.org/1999/xlink">
<g id="graph0" class="graph" transform="scale(1 1) rotate(0) translate(4 182.5)">
<title>SITL::I2CRegisters_8Bit::rdwr</title>
<!-- Node1 -->
<g id="Node000001" class="node">
<title>Node1</title>
<g id="a_Node000001"><a xlink:title=" ">
<polygon fill="#999999" stroke="#666666" points="267,-98.5 163,-98.5 163,-68.5 267,-68.5 267,-98.5"/>
<text text-anchor="start" x="171" y="-86.5" font-family="Helvetica,sans-Serif" font-size="10.00">SITL::I2CRegisters</text>
<text text-anchor="middle" x="215" y="-75.5" font-family="Helvetica,sans-Serif" font-size="10.00">_8Bit::rdwr</text>
</a>
</g>
</g>
<!-- Node2 -->
<g id="Node000002" class="node">
<title>Node2</title>
<g id="a_Node000002"><a xlink:href="classSITL_1_1InvensenseV3.html#af311fc6b68bda6c0184a8c06cf5afa72" target="_top" xlink:title=" ">
<polygon fill="white" stroke="#666666" points="119,-178.5 8,-178.5 8,-148.5 119,-148.5 119,-178.5"/>
<text text-anchor="start" x="16" y="-166.5" font-family="Helvetica,sans-Serif" font-size="10.00">SITL::InvensenseV3</text>
<text text-anchor="middle" x="63.5" y="-155.5" font-family="Helvetica,sans-Serif" font-size="10.00">::rdwr</text>
</a>
</g>
</g>
<!-- Node1&#45;&gt;Node2 -->
<g id="edge1_Node000001_Node000002" class="edge">
<title>Node1&#45;&gt;Node2</title>
<g id="a_edge1_Node000001_Node000002"><a xlink:title=" ">
<path fill="none" stroke="#63b8ff" d="M184.65,-104.54C168.2,-115.78 147.01,-129.36 127,-139.5 120.78,-142.65 114.04,-145.65 107.37,-148.38"/>
<polygon fill="#63b8ff" stroke="#63b8ff" points="187.04,-107.14 193.27,-98.57 183.06,-101.39 187.04,-107.14"/>
</a>
</g>
</g>
<!-- Node3 -->
<g id="Node000003" class="node">
<title>Node3</title>
<g id="a_Node000003"><a xlink:href="classSITL_1_1IS31FL3195.html#a6ca43abba88b73457dc531f8ea514713" target="_top" xlink:title=" ">
<polygon fill="white" stroke="#666666" points="127,-130 0,-130 0,-111 127,-111 127,-130"/>
<text text-anchor="middle" x="63.5" y="-118" font-family="Helvetica,sans-Serif" font-size="10.00">SITL::IS31FL3195::rdwr</text>
</a>
</g>
</g>
<!-- Node1&#45;&gt;Node3 -->
<g id="edge2_Node000001_Node000003" class="edge">
<title>Node1&#45;&gt;Node3</title>
<g id="a_edge2_Node000001_Node000003"><a xlink:title=" ">
<path fill="none" stroke="#63b8ff" d="M153.14,-98.56C136.21,-102.75 118.29,-107.19 103.03,-110.96"/>
<polygon fill="#63b8ff" stroke="#63b8ff" points="154.1,-101.93 162.97,-96.13 152.42,-95.13 154.1,-101.93"/>
</a>
</g>
</g>
<!-- Node4 -->
<g id="Node000004" class="node">
<title>Node4</title>
<g id="a_Node000004"><a xlink:href="classSITL_1_1LM2755.html#a45b445287fec3a4552588e09f5443f05" target="_top" xlink:title=" ">
<polygon fill="white" stroke="#666666" points="118,-93 9,-93 9,-74 118,-74 118,-93"/>
<text text-anchor="middle" x="63.5" y="-81" font-family="Helvetica,sans-Serif" font-size="10.00">SITL::LM2755::rdwr</text>
</a>
</g>
</g>
<!-- Node1&#45;&gt;Node4 -->
<g id="edge3_Node000001_Node000004" class="edge">
<title>Node1&#45;&gt;Node4</title>
<g id="a_edge3_Node000001_Node000004"><a xlink:title=" ">
<path fill="none" stroke="#63b8ff" d="M152.96,-83.5C141.41,-83.5 129.41,-83.5 118.11,-83.5"/>
<polygon fill="#63b8ff" stroke="#63b8ff" points="152.97,-87 162.97,-83.5 152.97,-80 152.97,-87"/>
</a>
</g>
</g>
<!-- Node5 -->
<g id="Node000005" class="node">
<title>Node5</title>
<g id="a_Node000005"><a xlink:href="classSITL_1_1LP5562.html#a368498d152ad01638945cc54b763f7e5" target="_top" xlink:title=" ">
<polygon fill="white" stroke="#666666" points="116.5,-56 10.5,-56 10.5,-37 116.5,-37 116.5,-56"/>
<text text-anchor="middle" x="63.5" y="-44" font-family="Helvetica,sans-Serif" font-size="10.00">SITL::LP5562::rdwr</text>
</a>
</g>
</g>
<!-- Node1&#45;&gt;Node5 -->
<g id="edge4_Node000001_Node000005" class="edge">
<title>Node1&#45;&gt;Node5</title>
<g id="a_edge4_Node000001_Node000005"><a xlink:title=" ">
<path fill="none" stroke="#63b8ff" d="M153.14,-68.44C136.21,-64.25 118.29,-59.81 103.03,-56.04"/>
<polygon fill="#63b8ff" stroke="#63b8ff" points="152.42,-71.87 162.97,-70.87 154.1,-65.07 152.42,-71.87"/>
</a>
</g>
</g>
<!-- Node6 -->
<g id="Node000006" class="node">
<title>Node6</title>
<g id="a_Node000006"><a xlink:href="classSITL_1_1ToshibaLED.html#a674ec72acb565cb199617253b6a112b2" target="_top" xlink:title=" ">
<polygon fill="white" stroke="#666666" points="126.5,-19 0.5,-19 0.5,0 126.5,0 126.5,-19"/>
<text text-anchor="middle" x="63.5" y="-7" font-family="Helvetica,sans-Serif" font-size="10.00">SITL::ToshibaLED::rdwr</text>
</a>
</g>
</g>
<!-- Node1&#45;&gt;Node6 -->
<g id="edge5_Node000001_Node000006" class="edge">
<title>Node1&#45;&gt;Node6</title>
<g id="a_edge5_Node000001_Node000006"><a xlink:title=" ">
<path fill="none" stroke="#63b8ff" d="M184.88,-62.31C168.48,-51.1 147.29,-37.79 127,-28.5 119.06,-24.86 110.24,-21.7 101.79,-19.04"/>
<polygon fill="#63b8ff" stroke="#63b8ff" points="183.24,-65.43 193.45,-68.27 187.24,-59.69 183.24,-65.43"/>
</a>
</g>
</g>
</g>
</svg>
