<?xml version="1.0" encoding="UTF-8" standalone="no"?>
<!DOCTYPE svg PUBLIC "-//W3C//DTD SVG 1.1//EN"
 "http://www.w3.org/Graphics/SVG/1.1/DTD/svg11.dtd">
<!-- Generated by graphviz version 2.43.0 (0)
 -->
<!-- Title: NavEKF2_core::recordYawReset Pages: 1 -->
<svg width="1224pt" height="167pt"
 viewBox="0.00 0.00 1224.00 167.00" xmlns="http://www.w3.org/2000/svg" xmlns:xlink="http://www.w3.org/1999/xlink">
<g id="graph0" class="graph" transform="scale(1 1) rotate(0) translate(4 163)">
<title>NavEKF2_core::recordYawReset</title>
<!-- Node1 -->
<g id="Node000001" class="node">
<title>Node1</title>
<g id="a_Node000001"><a xlink:title=" ">
<polygon fill="#999999" stroke="#666666" points="1216,-110.5 1046,-110.5 1046,-91.5 1216,-91.5 1216,-110.5"/>
<text text-anchor="middle" x="1131" y="-98.5" font-family="Helvetica,sans-Serif" font-size="10.00">NavEKF2_core::recordYawReset</text>
</a>
</g>
</g>
<!-- Node2 -->
<g id="Node000002" class="node">
<title>Node2</title>
<g id="a_Node000002"><a xlink:href="classNavEKF2__core.html#a3989e564224adfa26b0e32a5a03aca10" target="_top" xlink:title=" ">
<polygon fill="white" stroke="#666666" points="1000.5,-116 852.5,-116 852.5,-86 1000.5,-86 1000.5,-116"/>
<text text-anchor="start" x="860.5" y="-104" font-family="Helvetica,sans-Serif" font-size="10.00">NavEKF2_core::controlMag</text>
<text text-anchor="middle" x="926.5" y="-93" font-family="Helvetica,sans-Serif" font-size="10.00">YawReset</text>
</a>
</g>
</g>
<!-- Node1&#45;&gt;Node2 -->
<g id="edge1_Node000001_Node000002" class="edge">
<title>Node1&#45;&gt;Node2</title>
<g id="a_edge1_Node000001_Node000002"><a xlink:title=" ">
<path fill="none" stroke="#63b8ff" d="M1035.62,-101C1023.9,-101 1012.05,-101 1000.71,-101"/>
<polygon fill="#63b8ff" stroke="#63b8ff" points="1035.88,-104.5 1045.88,-101 1035.88,-97.5 1035.88,-104.5"/>
</a>
</g>
</g>
<!-- Node10 -->
<g id="Node000010" class="node">
<title>Node10</title>
<g id="a_Node000010"><a xlink:href="classNavEKF2__core.html#aed15cb967c48ddec08676da95e7af668" target="_top" xlink:title=" ">
<polygon fill="white" stroke="#666666" points="1009,-153.5 844,-153.5 844,-134.5 1009,-134.5 1009,-153.5"/>
<text text-anchor="middle" x="926.5" y="-141.5" font-family="Helvetica,sans-Serif" font-size="10.00">NavEKF2_core::realignYawGPS</text>
</a>
</g>
</g>
<!-- Node1&#45;&gt;Node10 -->
<g id="edge11_Node000001_Node000010" class="edge">
<title>Node1&#45;&gt;Node10</title>
<g id="a_edge11_Node000001_Node000010"><a xlink:title=" ">
<path fill="none" stroke="#63b8ff" d="M1074.9,-112.7C1042.7,-119.54 1002.57,-128.06 972.32,-134.48"/>
<polygon fill="#63b8ff" stroke="#63b8ff" points="1076,-116.04 1085.06,-110.54 1074.55,-109.2 1076,-116.04"/>
</a>
</g>
</g>
<!-- Node11 -->
<g id="Node000011" class="node">
<title>Node11</title>
<g id="a_Node000011"><a xlink:href="classNavEKF2__core.html#a717a6b89e4b5e1e75ad838b5ec72a880" target="_top" xlink:title=" ">
<polygon fill="white" stroke="#666666" points="1010,-52 843,-52 843,-22 1010,-22 1010,-52"/>
<text text-anchor="start" x="851" y="-40" font-family="Helvetica,sans-Serif" font-size="10.00">NavEKF2_core::resetQuatState</text>
<text text-anchor="middle" x="926.5" y="-29" font-family="Helvetica,sans-Serif" font-size="10.00">YawOnly</text>
</a>
</g>
</g>
<!-- Node1&#45;&gt;Node11 -->
<g id="edge13_Node000001_Node000011" class="edge">
<title>Node1&#45;&gt;Node11</title>
<g id="a_edge13_Node000001_Node000011"><a xlink:title=" ">
<path fill="none" stroke="#63b8ff" d="M1089.9,-88.33C1056.85,-77.88 1009.9,-63.04 974.98,-52"/>
<polygon fill="#63b8ff" stroke="#63b8ff" points="1089.09,-91.74 1099.68,-91.42 1091.2,-85.07 1089.09,-91.74"/>
</a>
</g>
</g>
<!-- Node3 -->
<g id="Node000003" class="node">
<title>Node3</title>
<g id="a_Node000003"><a xlink:href="classNavEKF2__core.html#aa0f6cd840e93e0233f056c88ce45ef85" target="_top" xlink:title=" ">
<polygon fill="white" stroke="#666666" points="605,-67.5 429,-67.5 429,-48.5 605,-48.5 605,-67.5"/>
<text text-anchor="middle" x="517" y="-55.5" font-family="Helvetica,sans-Serif" font-size="10.00">NavEKF2_core::SelectMagFusion</text>
</a>
</g>
</g>
<!-- Node2&#45;&gt;Node3 -->
<g id="edge2_Node000002_Node000003" class="edge">
<title>Node2&#45;&gt;Node3</title>
<g id="a_edge2_Node000002_Node000003"><a xlink:title=" ">
<path fill="none" stroke="#63b8ff" d="M842.4,-86.86C830.54,-85.08 818.47,-83.39 807,-82 739.4,-73.79 662.57,-67.55 605.12,-63.5"/>
<polygon fill="#63b8ff" stroke="#63b8ff" points="841.88,-90.32 852.3,-88.37 842.94,-83.4 841.88,-90.32"/>
</a>
</g>
</g>
<!-- Node7 -->
<g id="Node000007" class="node">
<title>Node7</title>
<g id="a_Node000007"><a xlink:href="classNavEKF2__core.html#aff31047fa71772bca7ce574617ede0f6" target="_top" xlink:title=" ">
<polygon fill="white" stroke="#666666" points="801.5,-159 646.5,-159 646.5,-129 801.5,-129 801.5,-159"/>
<text text-anchor="start" x="654.5" y="-147" font-family="Helvetica,sans-Serif" font-size="10.00">NavEKF2_core::SelectVelPos</text>
<text text-anchor="middle" x="724" y="-136" font-family="Helvetica,sans-Serif" font-size="10.00">Fusion</text>
</a>
</g>
</g>
<!-- Node2&#45;&gt;Node7 -->
<g id="edge6_Node000002_Node000007" class="edge">
<title>Node2&#45;&gt;Node7</title>
<g id="a_edge6_Node000002_Node000007"><a xlink:title=" ">
<path fill="none" stroke="#63b8ff" d="M845.17,-118.23C828.59,-121.78 811.26,-125.5 795.09,-128.97"/>
<polygon fill="#63b8ff" stroke="#63b8ff" points="846.33,-121.56 855.37,-116.04 844.86,-114.71 846.33,-121.56"/>
</a>
</g>
</g>
<!-- Node8 -->
<g id="Node000008" class="node">
<title>Node8</title>
<g id="a_Node000008"><a xlink:href="classNavEKF2__core.html#a9bd042974d65cfc6b789959c980281e9" target="_top" xlink:title=" ">
<polygon fill="white" stroke="#666666" points="807,-110.5 641,-110.5 641,-91.5 807,-91.5 807,-110.5"/>
<text text-anchor="middle" x="724" y="-98.5" font-family="Helvetica,sans-Serif" font-size="10.00">NavEKF2_core::setAidingMode</text>
</a>
</g>
</g>
<!-- Node2&#45;&gt;Node8 -->
<g id="edge8_Node000002_Node000008" class="edge">
<title>Node2&#45;&gt;Node8</title>
<g id="a_edge8_Node000002_Node000008"><a xlink:title=" ">
<path fill="none" stroke="#63b8ff" d="M842.19,-101C830.62,-101 818.74,-101 807.19,-101"/>
<polygon fill="#63b8ff" stroke="#63b8ff" points="842.26,-104.5 852.26,-101 842.26,-97.5 842.26,-104.5"/>
</a>
</g>
</g>
<!-- Node4 -->
<g id="Node000004" class="node">
<title>Node4</title>
<g id="a_Node000004"><a xlink:href="classNavEKF2__core.html#a5f5c815cbd5ebba30d731f89f87726c3" target="_top" xlink:title=" ">
<polygon fill="white" stroke="#666666" points="393,-88.5 240,-88.5 240,-69.5 393,-69.5 393,-88.5"/>
<text text-anchor="middle" x="316.5" y="-76.5" font-family="Helvetica,sans-Serif" font-size="10.00">NavEKF2_core::UpdateFilter</text>
</a>
</g>
</g>
<!-- Node3&#45;&gt;Node4 -->
<g id="edge3_Node000003_Node000004" class="edge">
<title>Node3&#45;&gt;Node4</title>
<g id="a_edge3_Node000003_Node000004"><a xlink:title=" ">
<path fill="none" stroke="#63b8ff" d="M418.87,-68.28C410.28,-69.18 401.67,-70.1 393.29,-70.98"/>
<polygon fill="#63b8ff" stroke="#63b8ff" points="419.36,-71.74 428.94,-67.21 418.62,-64.78 419.36,-71.74"/>
</a>
</g>
</g>
<!-- Node5 -->
<g id="Node000005" class="node">
<title>Node5</title>
<g id="a_Node000005"><a xlink:href="classNavEKF2.html#a72815b1bbd9d7ceb0ff7ae52d14516df" target="_top" xlink:title=" ">
<polygon fill="white" stroke="#666666" points="204,-88.5 77,-88.5 77,-69.5 204,-69.5 204,-88.5"/>
<text text-anchor="middle" x="140.5" y="-76.5" font-family="Helvetica,sans-Serif" font-size="10.00">NavEKF2::UpdateFilter</text>
</a>
</g>
</g>
<!-- Node4&#45;&gt;Node5 -->
<g id="edge4_Node000004_Node000005" class="edge">
<title>Node4&#45;&gt;Node5</title>
<g id="a_edge4_Node000004_Node000005"><a xlink:title=" ">
<path fill="none" stroke="#63b8ff" d="M229.83,-79C221.2,-79 212.54,-79 204.21,-79"/>
<polygon fill="#63b8ff" stroke="#63b8ff" points="229.94,-82.5 239.94,-79 229.94,-75.5 229.94,-82.5"/>
</a>
</g>
</g>
<!-- Node6 -->
<g id="Node000006" class="node">
<title>Node6</title>
<g id="a_Node000006"><a xlink:href="main_8cpp.html#ac0f2228420376f4db7e1274f2b41667c" target="_top" xlink:title=" ">
<polygon fill="white" stroke="#666666" points="41,-88.5 0,-88.5 0,-69.5 41,-69.5 41,-88.5"/>
<text text-anchor="middle" x="20.5" y="-76.5" font-family="Helvetica,sans-Serif" font-size="10.00">main</text>
</a>
</g>
</g>
<!-- Node5&#45;&gt;Node6 -->
<g id="edge5_Node000005_Node000006" class="edge">
<title>Node5&#45;&gt;Node6</title>
<g id="a_edge5_Node000005_Node000006"><a xlink:title=" ">
<path fill="none" stroke="#63b8ff" d="M66.45,-79C57.14,-79 48.32,-79 41,-79"/>
<polygon fill="#63b8ff" stroke="#63b8ff" points="66.7,-82.5 76.7,-79 66.7,-75.5 66.7,-82.5"/>
</a>
</g>
</g>
<!-- Node7&#45;&gt;Node4 -->
<g id="edge7_Node000007_Node000004" class="edge">
<title>Node7&#45;&gt;Node4</title>
<g id="a_edge7_Node000007_Node000004"><a xlink:title=" ">
<path fill="none" stroke="#63b8ff" d="M636.43,-145.77C577.29,-145.19 497.53,-140.9 429,-125 394.53,-117 356.98,-99.52 335.44,-88.56"/>
<polygon fill="#63b8ff" stroke="#63b8ff" points="636.46,-149.27 646.48,-145.83 636.5,-142.27 636.46,-149.27"/>
</a>
</g>
</g>
<!-- Node9 -->
<g id="Node000009" class="node">
<title>Node9</title>
<g id="a_Node000009"><a xlink:href="classNavEKF2__core.html#a9c41b138c335540f4cc51c4b3fff9b9f" target="_top" xlink:title=" ">
<polygon fill="white" stroke="#666666" points="593,-116 441,-116 441,-86 593,-86 593,-116"/>
<text text-anchor="start" x="449" y="-104" font-family="Helvetica,sans-Serif" font-size="10.00">NavEKF2_core::controlFilter</text>
<text text-anchor="middle" x="517" y="-93" font-family="Helvetica,sans-Serif" font-size="10.00">Modes</text>
</a>
</g>
</g>
<!-- Node8&#45;&gt;Node9 -->
<g id="edge9_Node000008_Node000009" class="edge">
<title>Node8&#45;&gt;Node9</title>
<g id="a_edge9_Node000008_Node000009"><a xlink:title=" ">
<path fill="none" stroke="#63b8ff" d="M630.79,-101C618.23,-101 605.46,-101 593.25,-101"/>
<polygon fill="#63b8ff" stroke="#63b8ff" points="630.8,-104.5 640.8,-101 630.8,-97.5 630.8,-104.5"/>
</a>
</g>
</g>
<!-- Node9&#45;&gt;Node4 -->
<g id="edge10_Node000009_Node000004" class="edge">
<title>Node9&#45;&gt;Node4</title>
<g id="a_edge10_Node000009_Node000004"><a xlink:title=" ">
<path fill="none" stroke="#63b8ff" d="M430.99,-91.58C418.47,-90.19 405.63,-88.77 393.31,-87.4"/>
<polygon fill="#63b8ff" stroke="#63b8ff" points="430.63,-95.06 440.96,-92.68 431.4,-88.1 430.63,-95.06"/>
</a>
</g>
</g>
<!-- Node10&#45;&gt;Node7 -->
<g id="edge12_Node000010_Node000007" class="edge">
<title>Node10&#45;&gt;Node7</title>
<g id="a_edge12_Node000010_Node000007"><a xlink:title=" ">
<path fill="none" stroke="#63b8ff" d="M833.72,-144C822.98,-144 812.12,-144 801.62,-144"/>
<polygon fill="#63b8ff" stroke="#63b8ff" points="833.95,-147.5 843.95,-144 833.95,-140.5 833.95,-147.5"/>
</a>
</g>
</g>
<!-- Node12 -->
<g id="Node000012" class="node">
<title>Node12</title>
<g id="a_Node000012"><a xlink:href="classNavEKF2__core.html#a8d51448ed97c086d7f3ab68fbec3fa6e" target="_top" xlink:title=" ">
<polygon fill="white" stroke="#666666" points="789.5,-35 658.5,-35 658.5,-5 789.5,-5 789.5,-35"/>
<text text-anchor="start" x="666.5" y="-23" font-family="Helvetica,sans-Serif" font-size="10.00">NavEKF2_core::EKFGSF</text>
<text text-anchor="middle" x="724" y="-12" font-family="Helvetica,sans-Serif" font-size="10.00">_resetMainFilterYaw</text>
</a>
</g>
</g>
<!-- Node11&#45;&gt;Node12 -->
<g id="edge14_Node000011_Node000012" class="edge">
<title>Node11&#45;&gt;Node12</title>
<g id="a_edge14_Node000011_Node000012"><a xlink:title=" ">
<path fill="none" stroke="#63b8ff" d="M832.78,-29.14C818.24,-27.91 803.49,-26.65 789.76,-25.49"/>
<polygon fill="#63b8ff" stroke="#63b8ff" points="832.53,-32.63 842.79,-29.99 833.12,-25.65 832.53,-32.63"/>
</a>
</g>
</g>
<!-- Node12&#45;&gt;Node3 -->
<g id="edge17_Node000012_Node000003" class="edge">
<title>Node12&#45;&gt;Node3</title>
<g id="a_edge17_Node000012_Node000003"><a xlink:title=" ">
<path fill="none" stroke="#63b8ff" d="M648.48,-33.81C622.18,-38.69 593.22,-44.06 569.27,-48.5"/>
<polygon fill="#63b8ff" stroke="#63b8ff" points="649.22,-37.24 658.42,-31.97 647.95,-30.35 649.22,-37.24"/>
</a>
</g>
</g>
<!-- Node13 -->
<g id="Node000013" class="node">
<title>Node13</title>
<g id="a_Node000013"><a xlink:href="classNavEKF2__core.html#a4d5a6d58a3111695088ae305c031afdf" target="_top" xlink:title=" ">
<polygon fill="white" stroke="#666666" points="604.5,-30 429.5,-30 429.5,0 604.5,0 604.5,-30"/>
<text text-anchor="start" x="437.5" y="-18" font-family="Helvetica,sans-Serif" font-size="10.00">NavEKF2_core::runYawEstimator</text>
<text text-anchor="middle" x="517" y="-7" font-family="Helvetica,sans-Serif" font-size="10.00">Correction</text>
</a>
</g>
</g>
<!-- Node12&#45;&gt;Node13 -->
<g id="edge15_Node000012_Node000013" class="edge">
<title>Node12&#45;&gt;Node13</title>
<g id="a_edge15_Node000012_Node000013"><a xlink:title=" ">
<path fill="none" stroke="#63b8ff" d="M648.28,-18.18C634.14,-17.83 619.25,-17.47 604.78,-17.12"/>
<polygon fill="#63b8ff" stroke="#63b8ff" points="648.34,-21.68 658.42,-18.42 648.51,-14.68 648.34,-21.68"/>
</a>
</g>
</g>
<!-- Node13&#45;&gt;Node4 -->
<g id="edge16_Node000013_Node000004" class="edge">
<title>Node13&#45;&gt;Node4</title>
<g id="a_edge16_Node000013_Node000004"><a xlink:title=" ">
<path fill="none" stroke="#63b8ff" d="M449.19,-32.88C442.35,-34.87 435.52,-36.93 429,-39 399,-48.5 365.04,-60.93 342.56,-69.4"/>
<polygon fill="#63b8ff" stroke="#63b8ff" points="450.55,-36.13 459.19,-30.01 448.61,-29.4 450.55,-36.13"/>
</a>
</g>
</g>
</g>
</svg>
