<?xml version="1.0" encoding="UTF-8" standalone="no"?>
<!DOCTYPE svg PUBLIC "-//W3C//DTD SVG 1.1//EN"
 "http://www.w3.org/Graphics/SVG/1.1/DTD/svg11.dtd">
<!-- Generated by graphviz version 2.43.0 (0)
 -->
<!-- Title: NavEKF3_core::resetGyroBias Pages: 1 -->
<svg width="511pt" height="175pt"
 viewBox="0.00 0.00 511.00 175.00" xmlns="http://www.w3.org/2000/svg" xmlns:xlink="http://www.w3.org/1999/xlink">
<g id="graph0" class="graph" transform="scale(1 1) rotate(0) translate(4 171)">
<title>NavEKF3_core::resetGyroBias</title>
<!-- Node1 -->
<g id="Node000001" class="node">
<title>Node1</title>
<g id="a_Node000001"><a xlink:title=" ">
<polygon fill="#999999" stroke="#666666" points="162,-93 0,-93 0,-74 162,-74 162,-93"/>
<text text-anchor="middle" x="81" y="-81" font-family="Helvetica,sans-Serif" font-size="10.00">NavEKF3_core::resetGyroBias</text>
</a>
</g>
</g>
<!-- Node2 -->
<g id="Node000002" class="node">
<title>Node2</title>
<g id="a_Node000002"><a xlink:href="AP__Math_8h.html#a49ad7fa2fa2e3d8aa75e8e0ec3f83b99" target="_top" xlink:title=" ">
<polygon fill="white" stroke="#666666" points="294.5,-167 241.5,-167 241.5,-148 294.5,-148 294.5,-167"/>
<text text-anchor="middle" x="268" y="-155" font-family="Helvetica,sans-Serif" font-size="10.00">radians</text>
</a>
</g>
</g>
<!-- Node1&#45;&gt;Node2 -->
<g id="edge1_Node000001_Node000002" class="edge">
<title>Node1&#45;&gt;Node2</title>
<g id="a_edge1_Node000001_Node000002"><a xlink:title=" ">
<path fill="none" stroke="#63b8ff" d="M99.22,-93.13C121.48,-105.27 161.69,-126.14 198,-139.5 208.65,-143.42 220.53,-146.84 231.38,-149.62"/>
<polygon fill="#63b8ff" stroke="#63b8ff" points="230.86,-153.09 241.4,-152.08 232.52,-146.29 230.86,-153.09"/>
</a>
</g>
</g>
<!-- Node3 -->
<g id="Node000003" class="node">
<title>Node3</title>
<g id="a_Node000003"><a xlink:href="AP__Math_8h.html#a34f41fcf2bc527b1728ae04423dfba46" target="_top" xlink:title=" ">
<polygon fill="white" stroke="#666666" points="282.5,-130 253.5,-130 253.5,-111 282.5,-111 282.5,-130"/>
<text text-anchor="middle" x="268" y="-118" font-family="Helvetica,sans-Serif" font-size="10.00">sq</text>
</a>
</g>
</g>
<!-- Node1&#45;&gt;Node3 -->
<g id="edge2_Node000001_Node000003" class="edge">
<title>Node1&#45;&gt;Node3</title>
<g id="a_edge2_Node000001_Node000003"><a xlink:title=" ">
<path fill="none" stroke="#63b8ff" d="M129.64,-93.03C166.1,-100.32 214.81,-110.06 243.36,-115.77"/>
<polygon fill="#63b8ff" stroke="#63b8ff" points="242.75,-119.22 253.25,-117.75 244.13,-112.36 242.75,-119.22"/>
</a>
</g>
</g>
<!-- Node4 -->
<g id="Node000004" class="node">
<title>Node4</title>
<g id="a_Node000004"><a xlink:href="classVector3.html#adf1769d5ee5df2f8585df2f540fa5efe" target="_top" xlink:title=" ">
<polygon fill="white" stroke="#666666" points="308,-93 228,-93 228,-74 308,-74 308,-93"/>
<text text-anchor="middle" x="268" y="-81" font-family="Helvetica,sans-Serif" font-size="10.00">Vector3::zero</text>
</a>
</g>
</g>
<!-- Node1&#45;&gt;Node4 -->
<g id="edge3_Node000001_Node000004" class="edge">
<title>Node1&#45;&gt;Node4</title>
<g id="a_edge3_Node000001_Node000004"><a xlink:title=" ">
<path fill="none" stroke="#63b8ff" d="M162.07,-83.5C180.99,-83.5 200.62,-83.5 217.71,-83.5"/>
<polygon fill="#63b8ff" stroke="#63b8ff" points="218,-87 228,-83.5 218,-80 218,-87"/>
</a>
</g>
</g>
<!-- Node5 -->
<g id="Node000005" class="node">
<title>Node5</title>
<g id="a_Node000005"><a xlink:href="classNavEKF3__core.html#a668056e5b2efae63163fc41aa7b7b1fd" target="_top" xlink:title=" ">
<polygon fill="white" stroke="#666666" points="335.5,-56 200.5,-56 200.5,-37 335.5,-37 335.5,-56"/>
<text text-anchor="middle" x="268" y="-44" font-family="Helvetica,sans-Serif" font-size="10.00">NavEKF3_core::zeroCols</text>
</a>
</g>
</g>
<!-- Node1&#45;&gt;Node5 -->
<g id="edge4_Node000001_Node000005" class="edge">
<title>Node1&#45;&gt;Node5</title>
<g id="a_edge4_Node000001_Node000005"><a xlink:title=" ">
<path fill="none" stroke="#63b8ff" d="M129.64,-73.97C153.93,-69.11 183.67,-63.17 209.25,-58.05"/>
<polygon fill="#63b8ff" stroke="#63b8ff" points="210.08,-61.45 219.2,-56.06 208.71,-54.59 210.08,-61.45"/>
</a>
</g>
</g>
<!-- Node7 -->
<g id="Node000007" class="node">
<title>Node7</title>
<g id="a_Node000007"><a xlink:href="classNavEKF3__core.html#a60c1c2314069524260554d324819058a" target="_top" xlink:title=" ">
<polygon fill="white" stroke="#666666" points="338,-19 198,-19 198,0 338,0 338,-19"/>
<text text-anchor="middle" x="268" y="-7" font-family="Helvetica,sans-Serif" font-size="10.00">NavEKF3_core::zeroRows</text>
</a>
</g>
</g>
<!-- Node1&#45;&gt;Node7 -->
<g id="edge6_Node000001_Node000007" class="edge">
<title>Node1&#45;&gt;Node7</title>
<g id="a_edge6_Node000001_Node000007"><a xlink:title=" ">
<path fill="none" stroke="#63b8ff" d="M99.66,-73.93C122.05,-62.09 162.06,-41.85 198,-28.5 204.34,-26.15 211.1,-23.93 217.82,-21.91"/>
<polygon fill="#63b8ff" stroke="#63b8ff" points="218.95,-25.23 227.58,-19.08 217,-18.5 218.95,-25.23"/>
</a>
</g>
</g>
<!-- Node6 -->
<g id="Node000006" class="node">
<title>Node6</title>
<g id="a_Node000006"><a xlink:href="classNavEKF__core__common.html#adba80c07beb405e254e631b9d54845fa" target="_top" xlink:title=" ">
<polygon fill="white" stroke="#666666" points="503,-42.5 374,-42.5 374,-12.5 503,-12.5 503,-42.5"/>
<text text-anchor="start" x="382" y="-30.5" font-family="Helvetica,sans-Serif" font-size="10.00">NavEKF_core_common</text>
<text text-anchor="middle" x="438.5" y="-19.5" font-family="Helvetica,sans-Serif" font-size="10.00">::zero_range</text>
</a>
</g>
</g>
<!-- Node5&#45;&gt;Node6 -->
<g id="edge5_Node000005_Node000006" class="edge">
<title>Node5&#45;&gt;Node6</title>
<g id="a_edge5_Node000005_Node000006"><a xlink:title=" ">
<path fill="none" stroke="#63b8ff" d="M335.6,-38.99C344.85,-37.95 354.4,-36.87 363.78,-35.81"/>
<polygon fill="#63b8ff" stroke="#63b8ff" points="364.32,-39.27 373.86,-34.68 363.53,-32.32 364.32,-39.27"/>
</a>
</g>
</g>
<!-- Node7&#45;&gt;Node6 -->
<g id="edge7_Node000007_Node000006" class="edge">
<title>Node7&#45;&gt;Node6</title>
<g id="a_edge7_Node000007_Node000006"><a xlink:title=" ">
<path fill="none" stroke="#63b8ff" d="M338.02,-16.87C346.51,-17.78 355.22,-18.71 363.78,-19.62"/>
<polygon fill="#63b8ff" stroke="#63b8ff" points="363.42,-23.11 373.74,-20.69 364.16,-16.15 363.42,-23.11"/>
</a>
</g>
</g>
</g>
</svg>
