<?xml version="1.0" encoding="UTF-8" standalone="no"?>
<!DOCTYPE svg PUBLIC "-//W3C//DTD SVG 1.1//EN"
 "http://www.w3.org/Graphics/SVG/1.1/DTD/svg11.dtd">
<!-- Generated by graphviz version 2.43.0 (0)
 -->
<!-- Title: AP_InertialSensor::get_loop_delta_t Pages: 1 -->
<svg width="917pt" height="224pt"
 viewBox="0.00 0.00 917.00 224.12" xmlns="http://www.w3.org/2000/svg" xmlns:xlink="http://www.w3.org/1999/xlink">
<g id="graph0" class="graph" transform="scale(1 1) rotate(0) translate(4 220.12)">
<title>AP_InertialSensor::get_loop_delta_t</title>
<!-- Node1 -->
<g id="Node000001" class="node">
<title>Node1</title>
<g id="a_Node000001"><a xlink:title=" ">
<polygon fill="#999999" stroke="#666666" points="909,-129.5 801,-129.5 801,-99.5 909,-99.5 909,-129.5"/>
<text text-anchor="start" x="809" y="-117.5" font-family="Helvetica,sans-Serif" font-size="10.00">AP_InertialSensor::</text>
<text text-anchor="middle" x="855" y="-106.5" font-family="Helvetica,sans-Serif" font-size="10.00">get_loop_delta_t</text>
</a>
</g>
</g>
<!-- Node2 -->
<g id="Node000002" class="node">
<title>Node2</title>
<g id="a_Node000002"><a xlink:href="classNavEKF2__core.html#a4a06ae47c3edebdecd2b179a0567f00b" target="_top" xlink:title=" ">
<polygon fill="white" stroke="#666666" points="571,-194.5 436,-194.5 436,-164.5 571,-164.5 571,-194.5"/>
<text text-anchor="start" x="444" y="-182.5" font-family="Helvetica,sans-Serif" font-size="10.00">NavEKF2_core::Initialise</text>
<text text-anchor="middle" x="503.5" y="-171.5" font-family="Helvetica,sans-Serif" font-size="10.00">FilterBootstrap</text>
</a>
</g>
</g>
<!-- Node1&#45;&gt;Node2 -->
<g id="edge1_Node000001_Node000002" class="edge">
<title>Node1&#45;&gt;Node2</title>
<g id="a_edge1_Node000001_Node000002"><a xlink:title=" ">
<path fill="none" stroke="#63b8ff" d="M838.23,-137.69C822.48,-158.58 796.16,-187.9 765,-200.5 693.07,-229.58 601,-210.44 547.79,-194.52"/>
<polygon fill="#63b8ff" stroke="#63b8ff" points="841.06,-139.74 844.12,-129.59 835.41,-135.62 841.06,-139.74"/>
</a>
</g>
</g>
<!-- Node7 -->
<g id="Node000007" class="node">
<title>Node7</title>
<g id="a_Node000007"><a xlink:href="classNavEKF2__core.html#a1558cddf403660156210ac9d7dcf29db" target="_top" xlink:title=" ">
<polygon fill="white" stroke="#666666" points="753.5,-191.5 618.5,-191.5 618.5,-161.5 753.5,-161.5 753.5,-191.5"/>
<text text-anchor="start" x="626.5" y="-179.5" font-family="Helvetica,sans-Serif" font-size="10.00">NavEKF2_core::Initialise</text>
<text text-anchor="middle" x="686" y="-168.5" font-family="Helvetica,sans-Serif" font-size="10.00">Variables</text>
</a>
</g>
</g>
<!-- Node1&#45;&gt;Node7 -->
<g id="edge7_Node000001_Node000007" class="edge">
<title>Node1&#45;&gt;Node7</title>
<g id="a_edge7_Node000001_Node000007"><a xlink:title=" ">
<path fill="none" stroke="#63b8ff" d="M811.64,-133.66C797,-140 780.4,-146.86 765,-152.5 756.62,-155.57 747.64,-158.58 738.86,-161.38"/>
<polygon fill="#63b8ff" stroke="#63b8ff" points="813.18,-136.81 820.94,-129.59 810.38,-130.39 813.18,-136.81"/>
</a>
</g>
</g>
<!-- Node8 -->
<g id="Node000008" class="node">
<title>Node8</title>
<g id="a_Node000008"><a xlink:href="classNavEKF3__core.html#af46b5f9dd9ee1659316230ea81a9a778" target="_top" xlink:title=" ">
<polygon fill="white" stroke="#666666" points="753.5,-67.5 618.5,-67.5 618.5,-37.5 753.5,-37.5 753.5,-67.5"/>
<text text-anchor="start" x="626.5" y="-55.5" font-family="Helvetica,sans-Serif" font-size="10.00">NavEKF3_core::Initialise</text>
<text text-anchor="middle" x="686" y="-44.5" font-family="Helvetica,sans-Serif" font-size="10.00">Variables</text>
</a>
</g>
</g>
<!-- Node1&#45;&gt;Node8 -->
<g id="edge9_Node000001_Node000008" class="edge">
<title>Node1&#45;&gt;Node8</title>
<g id="a_edge9_Node000001_Node000008"><a xlink:title=" ">
<path fill="none" stroke="#63b8ff" d="M804.12,-95.98C779.7,-86.92 750.68,-76.14 727.63,-67.59"/>
<polygon fill="#63b8ff" stroke="#63b8ff" points="802.98,-99.29 813.57,-99.49 805.42,-92.73 802.98,-99.29"/>
</a>
</g>
</g>
<!-- Node13 -->
<g id="Node000013" class="node">
<title>Node13</title>
<g id="a_Node000013"><a xlink:href="classNavEKF2__core.html#a1f2a0ba92a52069437a3d0a192a6e88c" target="_top" xlink:title=" ">
<polygon fill="white" stroke="#666666" points="765,-143 607,-143 607,-124 765,-124 765,-143"/>
<text text-anchor="middle" x="686" y="-131" font-family="Helvetica,sans-Serif" font-size="10.00">NavEKF2_core::readIMUData</text>
</a>
</g>
</g>
<!-- Node1&#45;&gt;Node13 -->
<g id="edge16_Node000001_Node000013" class="edge">
<title>Node1&#45;&gt;Node13</title>
<g id="a_edge16_Node000001_Node000013"><a xlink:title=" ">
<path fill="none" stroke="#63b8ff" d="M790.66,-121.71C782.29,-122.66 773.63,-123.64 765.05,-124.62"/>
<polygon fill="#63b8ff" stroke="#63b8ff" points="791.16,-125.17 800.7,-120.56 790.37,-118.22 791.16,-125.17"/>
</a>
</g>
</g>
<!-- Node14 -->
<g id="Node000014" class="node">
<title>Node14</title>
<g id="a_Node000014"><a xlink:href="classNavEKF3__core.html#aece73c326fbd95e59a3fa171ac5988a3" target="_top" xlink:title=" ">
<polygon fill="white" stroke="#666666" points="765,-19 607,-19 607,0 765,0 765,-19"/>
<text text-anchor="middle" x="686" y="-7" font-family="Helvetica,sans-Serif" font-size="10.00">NavEKF3_core::readIMUData</text>
</a>
</g>
</g>
<!-- Node1&#45;&gt;Node14 -->
<g id="edge19_Node000001_Node000014" class="edge">
<title>Node1&#45;&gt;Node14</title>
<g id="a_edge19_Node000001_Node000014"><a xlink:title=" ">
<path fill="none" stroke="#63b8ff" d="M836.11,-91.35C819.7,-71.71 793.65,-44.29 765,-28.5 757.92,-24.6 750.04,-21.49 742.1,-19.02"/>
<polygon fill="#63b8ff" stroke="#63b8ff" points="833.5,-93.69 842.53,-99.24 838.93,-89.27 833.5,-93.69"/>
</a>
</g>
</g>
<!-- Node15 -->
<g id="Node000015" class="node">
<title>Node15</title>
<g id="a_Node000015"><a xlink:href="classAP__DAL__InertialSensor.html#a08f297234d170e86fc9d8605c2882420" target="_top" xlink:title=" ">
<polygon fill="white" stroke="#666666" points="567,-108.5 440,-108.5 440,-78.5 567,-78.5 567,-108.5"/>
<text text-anchor="start" x="448" y="-96.5" font-family="Helvetica,sans-Serif" font-size="10.00">AP_DAL_InertialSensor</text>
<text text-anchor="middle" x="503.5" y="-85.5" font-family="Helvetica,sans-Serif" font-size="10.00">::start_frame</text>
</a>
</g>
</g>
<!-- Node1&#45;&gt;Node15 -->
<g id="edge22_Node000001_Node000015" class="edge">
<title>Node1&#45;&gt;Node15</title>
<g id="a_edge22_Node000001_Node000015"><a xlink:title=" ">
<path fill="none" stroke="#63b8ff" d="M790.66,-110.69C727.3,-106.89 630.42,-101.07 567.26,-97.27"/>
<polygon fill="#63b8ff" stroke="#63b8ff" points="790.73,-114.2 800.92,-111.31 791.15,-107.22 790.73,-114.2"/>
</a>
</g>
</g>
<!-- Node3 -->
<g id="Node000003" class="node">
<title>Node3</title>
<g id="a_Node000003"><a xlink:href="classNavEKF2.html#a9c447b8d84abf2dfc845ddbbbad46a2b" target="_top" xlink:title=" ">
<polygon fill="white" stroke="#666666" points="211,-161 77,-161 77,-142 211,-142 211,-161"/>
<text text-anchor="middle" x="144" y="-149" font-family="Helvetica,sans-Serif" font-size="10.00">NavEKF2::InitialiseFilter</text>
</a>
</g>
</g>
<!-- Node2&#45;&gt;Node3 -->
<g id="edge2_Node000002_Node000003" class="edge">
<title>Node2&#45;&gt;Node3</title>
<g id="a_edge2_Node000002_Node000003"><a xlink:title=" ">
<path fill="none" stroke="#63b8ff" d="M425.66,-173.48C361.81,-168.48 271.9,-161.44 211.19,-156.68"/>
<polygon fill="#63b8ff" stroke="#63b8ff" points="425.43,-176.97 435.68,-174.27 425.98,-170 425.43,-176.97"/>
</a>
</g>
</g>
<!-- Node5 -->
<g id="Node000005" class="node">
<title>Node5</title>
<g id="a_Node000005"><a xlink:href="classNavEKF2__core.html#a5f5c815cbd5ebba30d731f89f87726c3" target="_top" xlink:title=" ">
<polygon fill="white" stroke="#666666" points="400,-146 247,-146 247,-127 400,-127 400,-146"/>
<text text-anchor="middle" x="323.5" y="-134" font-family="Helvetica,sans-Serif" font-size="10.00">NavEKF2_core::UpdateFilter</text>
</a>
</g>
</g>
<!-- Node2&#45;&gt;Node5 -->
<g id="edge4_Node000002_Node000005" class="edge">
<title>Node2&#45;&gt;Node5</title>
<g id="a_edge4_Node000002_Node000005"><a xlink:title=" ">
<path fill="none" stroke="#63b8ff" d="M430.3,-162.06C407.62,-156.58 383.43,-150.74 363.92,-146.02"/>
<polygon fill="#63b8ff" stroke="#63b8ff" points="429.7,-165.51 440.24,-164.46 431.35,-158.71 429.7,-165.51"/>
</a>
</g>
</g>
<!-- Node4 -->
<g id="Node000004" class="node">
<title>Node4</title>
<g id="a_Node000004"><a xlink:href="main_8cpp.html#ac0f2228420376f4db7e1274f2b41667c" target="_top" xlink:title=" ">
<polygon fill="white" stroke="#666666" points="41,-105 0,-105 0,-86 41,-86 41,-105"/>
<text text-anchor="middle" x="20.5" y="-93" font-family="Helvetica,sans-Serif" font-size="10.00">main</text>
</a>
</g>
</g>
<!-- Node3&#45;&gt;Node4 -->
<g id="edge3_Node000003_Node000004" class="edge">
<title>Node3&#45;&gt;Node4</title>
<g id="a_edge3_Node000003_Node000004"><a xlink:title=" ">
<path fill="none" stroke="#63b8ff" d="M89.9,-138.71C85.47,-137.14 81.11,-135.4 77,-133.5 60.68,-125.95 43.91,-113.73 33.14,-105.19"/>
<polygon fill="#63b8ff" stroke="#63b8ff" points="89.06,-142.12 99.66,-141.91 91.24,-135.47 89.06,-142.12"/>
</a>
</g>
</g>
<!-- Node6 -->
<g id="Node000006" class="node">
<title>Node6</title>
<g id="a_Node000006"><a xlink:href="classNavEKF2.html#a72815b1bbd9d7ceb0ff7ae52d14516df" target="_top" xlink:title=" ">
<polygon fill="white" stroke="#666666" points="207.5,-124 80.5,-124 80.5,-105 207.5,-105 207.5,-124"/>
<text text-anchor="middle" x="144" y="-112" font-family="Helvetica,sans-Serif" font-size="10.00">NavEKF2::UpdateFilter</text>
</a>
</g>
</g>
<!-- Node5&#45;&gt;Node6 -->
<g id="edge5_Node000005_Node000006" class="edge">
<title>Node5&#45;&gt;Node6</title>
<g id="a_edge5_Node000005_Node000006"><a xlink:title=" ">
<path fill="none" stroke="#63b8ff" d="M236.76,-125.87C226.94,-124.66 217.06,-123.43 207.62,-122.26"/>
<polygon fill="#63b8ff" stroke="#63b8ff" points="236.61,-129.38 246.97,-127.14 237.47,-122.43 236.61,-129.38"/>
</a>
</g>
</g>
<!-- Node6&#45;&gt;Node4 -->
<g id="edge6_Node000006_Node000004" class="edge">
<title>Node6&#45;&gt;Node4</title>
<g id="a_edge6_Node000006_Node000004"><a xlink:title=" ">
<path fill="none" stroke="#63b8ff" d="M71.9,-103.38C60.62,-101.62 49.83,-99.93 41.15,-98.57"/>
<polygon fill="#63b8ff" stroke="#63b8ff" points="71.47,-106.86 81.89,-104.94 72.55,-99.94 71.47,-106.86"/>
</a>
</g>
</g>
<!-- Node7&#45;&gt;Node2 -->
<g id="edge8_Node000007_Node000002" class="edge">
<title>Node7&#45;&gt;Node2</title>
<g id="a_edge8_Node000007_Node000002"><a xlink:title=" ">
<path fill="none" stroke="#63b8ff" d="M608.1,-177.78C595.83,-177.98 583.23,-178.19 571.23,-178.39"/>
<polygon fill="#63b8ff" stroke="#63b8ff" points="608.36,-181.27 618.3,-177.61 608.24,-174.28 608.36,-181.27"/>
</a>
</g>
</g>
<!-- Node9 -->
<g id="Node000009" class="node">
<title>Node9</title>
<g id="a_Node000009"><a xlink:href="classNavEKF3__core.html#aae18ada44b1b7be0d45af03391ef961a" target="_top" xlink:title=" ">
<polygon fill="white" stroke="#666666" points="571,-60.5 436,-60.5 436,-30.5 571,-30.5 571,-60.5"/>
<text text-anchor="start" x="444" y="-48.5" font-family="Helvetica,sans-Serif" font-size="10.00">NavEKF3_core::Initialise</text>
<text text-anchor="middle" x="503.5" y="-37.5" font-family="Helvetica,sans-Serif" font-size="10.00">FilterBootstrap</text>
</a>
</g>
</g>
<!-- Node8&#45;&gt;Node9 -->
<g id="edge10_Node000008_Node000009" class="edge">
<title>Node8&#45;&gt;Node9</title>
<g id="a_edge10_Node000008_Node000009"><a xlink:title=" ">
<path fill="none" stroke="#63b8ff" d="M608.1,-49.52C595.83,-49.04 583.23,-48.55 571.23,-48.09"/>
<polygon fill="#63b8ff" stroke="#63b8ff" points="608.17,-53.02 618.3,-49.91 608.44,-46.03 608.17,-53.02"/>
</a>
</g>
</g>
<!-- Node10 -->
<g id="Node000010" class="node">
<title>Node10</title>
<g id="a_Node000010"><a xlink:href="classNavEKF3.html#a07f064fa513fbb6e7188141904f3b5b5" target="_top" xlink:title=" ">
<polygon fill="white" stroke="#666666" points="211,-87 77,-87 77,-68 211,-68 211,-87"/>
<text text-anchor="middle" x="144" y="-75" font-family="Helvetica,sans-Serif" font-size="10.00">NavEKF3::InitialiseFilter</text>
</a>
</g>
</g>
<!-- Node9&#45;&gt;Node10 -->
<g id="edge11_Node000009_Node000010" class="edge">
<title>Node9&#45;&gt;Node10</title>
<g id="a_edge11_Node000009_Node000010"><a xlink:title=" ">
<path fill="none" stroke="#63b8ff" d="M425.66,-52.38C361.81,-58.09 271.9,-66.14 211.19,-71.57"/>
<polygon fill="#63b8ff" stroke="#63b8ff" points="426.03,-55.86 435.68,-51.48 425.4,-48.89 426.03,-55.86"/>
</a>
</g>
</g>
<!-- Node11 -->
<g id="Node000011" class="node">
<title>Node11</title>
<g id="a_Node000011"><a xlink:href="classNavEKF3__core.html#a2a7fae9e0bf2ce6fc2f9b3918dc168d3" target="_top" xlink:title=" ">
<polygon fill="white" stroke="#666666" points="400,-30 247,-30 247,-11 400,-11 400,-30"/>
<text text-anchor="middle" x="323.5" y="-18" font-family="Helvetica,sans-Serif" font-size="10.00">NavEKF3_core::UpdateFilter</text>
</a>
</g>
</g>
<!-- Node9&#45;&gt;Node11 -->
<g id="edge13_Node000009_Node000011" class="edge">
<title>Node9&#45;&gt;Node11</title>
<g id="a_edge13_Node000009_Node000011"><a xlink:title=" ">
<path fill="none" stroke="#63b8ff" d="M425.85,-34.74C414.74,-33.17 403.36,-31.58 392.44,-30.04"/>
<polygon fill="#63b8ff" stroke="#63b8ff" points="425.58,-38.23 435.97,-36.16 426.55,-31.3 425.58,-38.23"/>
</a>
</g>
</g>
<!-- Node10&#45;&gt;Node4 -->
<g id="edge12_Node000010_Node000004" class="edge">
<title>Node10&#45;&gt;Node4</title>
<g id="a_edge12_Node000010_Node000004"><a xlink:title=" ">
<path fill="none" stroke="#63b8ff" d="M68.53,-88.53C58.51,-90.02 49.01,-91.42 41.21,-92.58"/>
<polygon fill="#63b8ff" stroke="#63b8ff" points="69.31,-91.95 78.69,-87.03 68.29,-85.03 69.31,-91.95"/>
</a>
</g>
</g>
<!-- Node12 -->
<g id="Node000012" class="node">
<title>Node12</title>
<g id="a_Node000012"><a xlink:href="classNavEKF3.html#a477020fcf29376e0c2205dbf79728104" target="_top" xlink:title=" ">
<polygon fill="white" stroke="#666666" points="207.5,-50 80.5,-50 80.5,-31 207.5,-31 207.5,-50"/>
<text text-anchor="middle" x="144" y="-38" font-family="Helvetica,sans-Serif" font-size="10.00">NavEKF3::UpdateFilter</text>
</a>
</g>
</g>
<!-- Node11&#45;&gt;Node12 -->
<g id="edge14_Node000011_Node000012" class="edge">
<title>Node11&#45;&gt;Node12</title>
<g id="a_edge14_Node000011_Node000012"><a xlink:title=" ">
<path fill="none" stroke="#63b8ff" d="M236.76,-30.16C226.94,-31.27 217.06,-32.38 207.62,-33.44"/>
<polygon fill="#63b8ff" stroke="#63b8ff" points="237.42,-33.61 246.97,-29.01 236.64,-26.65 237.42,-33.61"/>
</a>
</g>
</g>
<!-- Node12&#45;&gt;Node4 -->
<g id="edge15_Node000012_Node000004" class="edge">
<title>Node12&#45;&gt;Node4</title>
<g id="a_edge15_Node000012_Node000004"><a xlink:title=" ">
<path fill="none" stroke="#63b8ff" d="M90.49,-53.14C85.86,-54.76 81.3,-56.54 77,-58.5 60.98,-65.79 44.42,-77.47 33.6,-85.75"/>
<polygon fill="#63b8ff" stroke="#63b8ff" points="91.6,-56.46 100.04,-50.06 89.45,-49.8 91.6,-56.46"/>
</a>
</g>
</g>
<!-- Node13&#45;&gt;Node2 -->
<g id="edge17_Node000013_Node000002" class="edge">
<title>Node13&#45;&gt;Node2</title>
<g id="a_edge17_Node000013_Node000002"><a xlink:title=" ">
<path fill="none" stroke="#63b8ff" d="M635.57,-145.39C626.08,-147.72 616.23,-150.16 607,-152.5 592.02,-156.3 575.83,-160.51 560.84,-164.46"/>
<polygon fill="#63b8ff" stroke="#63b8ff" points="636.4,-148.79 645.28,-143.02 634.74,-141.99 636.4,-148.79"/>
</a>
</g>
</g>
<!-- Node13&#45;&gt;Node5 -->
<g id="edge18_Node000013_Node000005" class="edge">
<title>Node13&#45;&gt;Node5</title>
<g id="a_edge18_Node000013_Node000005"><a xlink:title=" ">
<path fill="none" stroke="#63b8ff" d="M596.52,-134.24C536.28,-134.74 457.4,-135.39 400.1,-135.87"/>
<polygon fill="#63b8ff" stroke="#63b8ff" points="596.81,-137.73 606.78,-134.15 596.75,-130.73 596.81,-137.73"/>
</a>
</g>
</g>
<!-- Node14&#45;&gt;Node9 -->
<g id="edge20_Node000014_Node000009" class="edge">
<title>Node14&#45;&gt;Node9</title>
<g id="a_edge20_Node000014_Node000009"><a xlink:title=" ">
<path fill="none" stroke="#63b8ff" d="M626.91,-21.09C609.19,-24.62 589.56,-28.53 571.31,-32.18"/>
<polygon fill="#63b8ff" stroke="#63b8ff" points="627.98,-24.44 637.1,-19.05 626.61,-17.58 627.98,-24.44"/>
</a>
</g>
</g>
<!-- Node14&#45;&gt;Node11 -->
<g id="edge21_Node000014_Node000011" class="edge">
<title>Node14&#45;&gt;Node11</title>
<g id="a_edge21_Node000014_Node000011"><a xlink:title=" ">
<path fill="none" stroke="#63b8ff" d="M596.52,-12.2C536.28,-14.04 457.4,-16.44 400.1,-18.19"/>
<polygon fill="#63b8ff" stroke="#63b8ff" points="596.89,-15.69 606.78,-11.89 596.67,-8.69 596.89,-15.69"/>
</a>
</g>
</g>
<!-- Node16 -->
<g id="Node000016" class="node">
<title>Node16</title>
<g id="a_Node000016"><a xlink:href="classAP__DAL.html#aacd3492110784dce84ac67e3442cfee6" target="_top" xlink:title=" ">
<polygon fill="white" stroke="#666666" points="382,-106 265,-106 265,-87 382,-87 382,-106"/>
<text text-anchor="middle" x="323.5" y="-94" font-family="Helvetica,sans-Serif" font-size="10.00">AP_DAL::start_frame</text>
</a>
</g>
</g>
<!-- Node15&#45;&gt;Node16 -->
<g id="edge23_Node000015_Node000016" class="edge">
<title>Node15&#45;&gt;Node16</title>
<g id="a_edge23_Node000015_Node000016"><a xlink:title=" ">
<path fill="none" stroke="#63b8ff" d="M429.7,-94.73C413.83,-94.99 397.26,-95.27 382.09,-95.53"/>
<polygon fill="#63b8ff" stroke="#63b8ff" points="430.05,-98.22 439.99,-94.55 429.94,-91.22 430.05,-98.22"/>
</a>
</g>
</g>
<!-- Node16&#45;&gt;Node3 -->
<g id="edge24_Node000016_Node000003" class="edge">
<title>Node16&#45;&gt;Node3</title>
<g id="a_edge24_Node000016_Node000003"><a xlink:title=" ">
<path fill="none" stroke="#63b8ff" d="M276.83,-108.92C266.93,-111.86 256.56,-115.13 247,-118.5 230.65,-124.27 227.4,-127.87 211,-133.5 202.13,-136.55 192.44,-139.42 183.3,-141.95"/>
<polygon fill="#63b8ff" stroke="#63b8ff" points="277.9,-112.25 286.52,-106.1 275.94,-105.53 277.9,-112.25"/>
</a>
</g>
</g>
<!-- Node16&#45;&gt;Node6 -->
<g id="edge26_Node000016_Node000006" class="edge">
<title>Node16&#45;&gt;Node6</title>
<g id="a_edge26_Node000016_Node000006"><a xlink:title=" ">
<path fill="none" stroke="#63b8ff" d="M254.82,-103.36C239.29,-104.94 222.85,-106.61 207.55,-108.16"/>
<polygon fill="#63b8ff" stroke="#63b8ff" points="255.28,-106.84 264.87,-102.34 254.57,-99.87 255.28,-106.84"/>
</a>
</g>
</g>
<!-- Node16&#45;&gt;Node10 -->
<g id="edge25_Node000016_Node000010" class="edge">
<title>Node16&#45;&gt;Node10</title>
<g id="a_edge25_Node000016_Node000010"><a xlink:title=" ">
<path fill="none" stroke="#63b8ff" d="M254.67,-89.24C240.44,-87.72 225.45,-86.11 211.28,-84.59"/>
<polygon fill="#63b8ff" stroke="#63b8ff" points="254.56,-92.75 264.87,-90.33 255.3,-85.79 254.56,-92.75"/>
</a>
</g>
</g>
<!-- Node16&#45;&gt;Node12 -->
<g id="edge27_Node000016_Node000012" class="edge">
<title>Node16&#45;&gt;Node12</title>
<g id="a_edge27_Node000016_Node000012"><a xlink:title=" ">
<path fill="none" stroke="#63b8ff" d="M286.57,-83.62C264.81,-75.98 236.43,-66.29 211,-58.5 201.57,-55.61 191.32,-52.7 181.77,-50.09"/>
<polygon fill="#63b8ff" stroke="#63b8ff" points="285.47,-86.94 296.07,-86.97 287.8,-80.34 285.47,-86.94"/>
</a>
</g>
</g>
</g>
</svg>
