<?xml version="1.0" encoding="UTF-8" standalone="no"?>
<!DOCTYPE svg PUBLIC "-//W3C//DTD SVG 1.1//EN"
 "http://www.w3.org/Graphics/SVG/1.1/DTD/svg11.dtd">
<!-- Generated by graphviz version 2.43.0 (0)
 -->
<!-- Title: Linux::Poller::register_pollable Pages: 1 -->
<svg width="452pt" height="100pt"
 viewBox="0.00 0.00 452.00 99.50" xmlns="http://www.w3.org/2000/svg" xmlns:xlink="http://www.w3.org/1999/xlink">

<svg id="main" version="1.1" xmlns="http://www.w3.org/2000/svg" xmlns:xlink="http://www.w3.org/1999/xlink" xml:space="preserve" onload="init(evt)">
<style type="text/css"><![CDATA[
.node, .edge {opacity: 0.7;}
.node.selected, .edge.selected {opacity: 1;}
.edge:hover path { stroke: red; }
.edge:hover polygon { stroke: red; fill: red; }
]]></style>
<script type="application/ecmascript" xlink:href="svg.min.js"/>
<svg id="graph" class="graph">
<g id="graph0" class="graph" transform="scale(1 1) rotate(0) translate(4 95.5)">
<title>Linux::Poller::register_pollable</title>
<!-- Node1 -->
<g id="Node000001" class="node">
<title>Node1</title>
<g id="a_Node000001"><a xlink:title=" ">
<polygon fill="#999999" stroke="#666666" points="444,-45.5 324,-45.5 324,-15.5 444,-15.5 444,-45.5"/>
<text text-anchor="start" x="332" y="-33.5" font-family="Helvetica,sans-Serif" font-size="10.00">Linux::Poller::register</text>
<text text-anchor="middle" x="384" y="-22.5" font-family="Helvetica,sans-Serif" font-size="10.00">_pollable</text>
</a>
</g>
</g>
<!-- Node2 -->
<g id="Node000002" class="node">
<title>Node2</title>
<g id="a_Node000002"><a xlink:href="classLinux_1_1PollerThread.html#acf9896662e9de3a070bf0c56ee33ac9b" target="_top" xlink:title=" ">
<polygon fill="white" stroke="#666666" points="288,-67.5 178,-67.5 178,-37.5 288,-37.5 288,-67.5"/>
<text text-anchor="start" x="186" y="-55.5" font-family="Helvetica,sans-Serif" font-size="10.00">Linux::PollerThread</text>
<text text-anchor="middle" x="233" y="-44.5" font-family="Helvetica,sans-Serif" font-size="10.00">::add_timer</text>
</a>
</g>
</g>
<!-- Node1&#45;&gt;Node2 -->
<g id="edge1_Node000001_Node000002" class="edge">
<title>Node1&#45;&gt;Node2</title>
<g id="a_edge1_Node000001_Node000002"><a xlink:title=" ">
<path fill="none" stroke="#63b8ff" d="M313.73,-40.73C305.19,-41.99 296.55,-43.26 288.28,-44.49"/>
<polygon fill="#63b8ff" stroke="#63b8ff" points="314.3,-44.18 323.68,-39.26 313.28,-37.26 314.3,-44.18"/>
</a>
</g>
</g>
<!-- Node5 -->
<g id="Node000005" class="node">
<title>Node5</title>
<g id="a_Node000005"><a xlink:href="classLinux_1_1Poller.html#a35bd6b62d1e6953850fb67cb3d9ca6db" target="_top" xlink:title=" ">
<polygon fill="white" stroke="#666666" points="288,-19 178,-19 178,0 288,0 288,-19"/>
<text text-anchor="middle" x="233" y="-7" font-family="Helvetica,sans-Serif" font-size="10.00">Linux::Poller::Poller</text>
</a>
</g>
</g>
<!-- Node1&#45;&gt;Node5 -->
<g id="edge4_Node000001_Node000005" class="edge">
<title>Node1&#45;&gt;Node5</title>
<g id="a_edge4_Node000001_Node000005"><a xlink:title=" ">
<path fill="none" stroke="#63b8ff" d="M313.73,-20.74C305.19,-19.53 296.55,-18.32 288.28,-17.15"/>
<polygon fill="#63b8ff" stroke="#63b8ff" points="313.29,-24.21 323.68,-22.14 314.27,-17.28 313.29,-24.21"/>
</a>
</g>
</g>
<!-- Node3 -->
<g id="Node000003" class="node">
<title>Node3</title>
<g id="a_Node000003"><a xlink:href="classLinux_1_1I2CDevice.html#a8d25b8e9f1c692835534aa65cdc74f9b" target="_top" xlink:title=" ">
<polygon fill="white" stroke="#666666" points="142,-91.5 0,-91.5 0,-61.5 142,-61.5 142,-91.5"/>
<text text-anchor="start" x="8" y="-79.5" font-family="Helvetica,sans-Serif" font-size="10.00">Linux::I2CDevice::register</text>
<text text-anchor="middle" x="71" y="-68.5" font-family="Helvetica,sans-Serif" font-size="10.00">_periodic_callback</text>
</a>
</g>
</g>
<!-- Node2&#45;&gt;Node3 -->
<g id="edge2_Node000002_Node000003" class="edge">
<title>Node2&#45;&gt;Node3</title>
<g id="a_edge2_Node000002_Node000003"><a xlink:title=" ">
<path fill="none" stroke="#63b8ff" d="M167.75,-62.14C159.37,-63.39 150.75,-64.69 142.28,-65.96"/>
<polygon fill="#63b8ff" stroke="#63b8ff" points="168.46,-65.57 177.83,-60.63 167.42,-58.65 168.46,-65.57"/>
</a>
</g>
</g>
<!-- Node4 -->
<g id="Node000004" class="node">
<title>Node4</title>
<g id="a_Node000004"><a xlink:href="classLinux_1_1SPIDevice.html#a65121a0ffda2db4189b759d6914fe513" target="_top" xlink:title=" ">
<polygon fill="white" stroke="#666666" points="141.5,-43.5 0.5,-43.5 0.5,-13.5 141.5,-13.5 141.5,-43.5"/>
<text text-anchor="start" x="8.5" y="-31.5" font-family="Helvetica,sans-Serif" font-size="10.00">Linux::SPIDevice::register</text>
<text text-anchor="middle" x="71" y="-20.5" font-family="Helvetica,sans-Serif" font-size="10.00">_periodic_callback</text>
</a>
</g>
</g>
<!-- Node2&#45;&gt;Node4 -->
<g id="edge3_Node000002_Node000004" class="edge">
<title>Node2&#45;&gt;Node4</title>
<g id="a_edge3_Node000002_Node000004"><a xlink:title=" ">
<path fill="none" stroke="#63b8ff" d="M167.87,-42.88C159.27,-41.59 150.41,-40.26 141.71,-38.96"/>
<polygon fill="#63b8ff" stroke="#63b8ff" points="167.42,-46.35 177.83,-44.37 168.46,-39.43 167.42,-46.35"/>
</a>
</g>
</g>
</g>
</svg>
</svg>

<style type='text/css'>
<![CDATA[
[data-mouse-over-selected='false'] { opacity: 0.7; }
[data-mouse-over-selected='true']  { opacity: 1.0; }
]]>
</style>
<script type="application/ecmascript"><![CDATA[
document.addEventListener('DOMContentLoaded', (event) => {
  highlightEdges();
  highlightAdjacentNodes();
});
]]></script>
</svg>
