<?xml version="1.0" encoding="UTF-8" standalone="no"?>
<!DOCTYPE svg PUBLIC "-//W3C//DTD SVG 1.1//EN"
 "http://www.w3.org/Graphics/SVG/1.1/DTD/svg11.dtd">
<!-- Generated by graphviz version 2.43.0 (0)
 -->
<!-- Title: AP_OSD_MSP::init Pages: 1 -->
<svg width="536pt" height="27pt"
 viewBox="0.00 0.00 536.00 27.00" xmlns="http://www.w3.org/2000/svg" xmlns:xlink="http://www.w3.org/1999/xlink">
<g id="graph0" class="graph" transform="scale(1 1) rotate(0) translate(4 23)">
<title>AP_OSD_MSP::init</title>
<!-- Node1 -->
<g id="Node000001" class="node">
<title>Node1</title>
<g id="a_Node000001"><a xlink:title=" ">
<polygon fill="#999999" stroke="#666666" points="528,-19 424,-19 424,0 528,0 528,-19"/>
<text text-anchor="middle" x="476" y="-7" font-family="Helvetica,sans-Serif" font-size="10.00">AP_OSD_MSP::init</text>
</a>
</g>
</g>
<!-- Node2 -->
<g id="Node000002" class="node">
<title>Node2</title>
<g id="a_Node000002"><a xlink:href="classAP__OSD__MSP.html#a46c7813ff31c23b11be5ad5a8585a0cb" target="_top" xlink:title=" ">
<polygon fill="white" stroke="#666666" points="388,-19 272,-19 272,0 388,0 388,-19"/>
<text text-anchor="middle" x="330" y="-7" font-family="Helvetica,sans-Serif" font-size="10.00">AP_OSD_MSP::probe</text>
</a>
</g>
</g>
<!-- Node1&#45;&gt;Node2 -->
<g id="edge1_Node000001_Node000002" class="edge">
<title>Node1&#45;&gt;Node2</title>
<g id="a_edge1_Node000001_Node000002"><a xlink:title=" ">
<path fill="none" stroke="#63b8ff" d="M413.71,-9.5C405.31,-9.5 396.71,-9.5 388.38,-9.5"/>
<polygon fill="#63b8ff" stroke="#63b8ff" points="413.83,-13 423.83,-9.5 413.83,-6 413.83,-13"/>
</a>
</g>
</g>
<!-- Node3 -->
<g id="Node000003" class="node">
<title>Node3</title>
<g id="a_Node000003"><a xlink:href="classAP__OSD.html#a384a860826b83fbeace869ea157424c8" target="_top" xlink:title=" ">
<polygon fill="white" stroke="#666666" points="236,-19 113,-19 113,0 236,0 236,-19"/>
<text text-anchor="middle" x="174.5" y="-7" font-family="Helvetica,sans-Serif" font-size="10.00">AP_OSD::init_backend</text>
</a>
</g>
</g>
<!-- Node2&#45;&gt;Node3 -->
<g id="edge2_Node000002_Node000003" class="edge">
<title>Node2&#45;&gt;Node3</title>
<g id="a_edge2_Node000002_Node000003"><a xlink:title=" ">
<path fill="none" stroke="#63b8ff" d="M261.58,-9.5C253.08,-9.5 244.43,-9.5 236.05,-9.5"/>
<polygon fill="#63b8ff" stroke="#63b8ff" points="261.84,-13 271.84,-9.5 261.84,-6 261.84,-13"/>
</a>
</g>
</g>
<!-- Node4 -->
<g id="Node000004" class="node">
<title>Node4</title>
<g id="a_Node000004"><a xlink:href="classAP__OSD.html#a09e7d40118a2fe4de6ecbbb168ebd8b7" target="_top" xlink:title=" ">
<polygon fill="white" stroke="#666666" points="77,-19 0,-19 0,0 77,0 77,-19"/>
<text text-anchor="middle" x="38.5" y="-7" font-family="Helvetica,sans-Serif" font-size="10.00">AP_OSD::init</text>
</a>
</g>
</g>
<!-- Node3&#45;&gt;Node4 -->
<g id="edge3_Node000003_Node000004" class="edge">
<title>Node3&#45;&gt;Node4</title>
<g id="a_edge3_Node000003_Node000004"><a xlink:title=" ">
<path fill="none" stroke="#63b8ff" d="M102.75,-9.5C93.87,-9.5 85.08,-9.5 77,-9.5"/>
<polygon fill="#63b8ff" stroke="#63b8ff" points="102.77,-13 112.77,-9.5 102.77,-6 102.77,-13"/>
</a>
</g>
</g>
</g>
</svg>
