<?xml version="1.0" encoding="UTF-8" standalone="no"?>
<!DOCTYPE svg PUBLIC "-//W3C//DTD SVG 1.1//EN"
 "http://www.w3.org/Graphics/SVG/1.1/DTD/svg11.dtd">
<!-- Generated by graphviz version 2.43.0 (0)
 -->
<!-- Title: AP_Beacon_Pozyx::healthy Pages: 1 -->
<svg width="746pt" height="82pt"
 viewBox="0.00 0.00 746.00 82.00" xmlns="http://www.w3.org/2000/svg" xmlns:xlink="http://www.w3.org/1999/xlink">
<g id="graph0" class="graph" transform="scale(1 1) rotate(0) translate(4 78)">
<title>AP_Beacon_Pozyx::healthy</title>
<!-- Node1 -->
<g id="Node000001" class="node">
<title>Node1</title>
<g id="a_Node000001"><a xlink:title=" ">
<polygon fill="#999999" stroke="#666666" points="148,-37 0,-37 0,-18 148,-18 148,-37"/>
<text text-anchor="middle" x="74" y="-25" font-family="Helvetica,sans-Serif" font-size="10.00">AP_Beacon_Pozyx::healthy</text>
</a>
</g>
</g>
<!-- Node2 -->
<g id="Node000002" class="node">
<title>Node2</title>
<g id="a_Node000002"><a xlink:href="namespaceAP__HAL.html#a77dffbb18891996280308e21316ec186" target="_top" xlink:title=" ">
<polygon fill="white" stroke="#666666" points="271,-37 184,-37 184,-18 271,-18 271,-37"/>
<text text-anchor="middle" x="227.5" y="-25" font-family="Helvetica,sans-Serif" font-size="10.00">AP_HAL::millis</text>
</a>
</g>
</g>
<!-- Node1&#45;&gt;Node2 -->
<g id="edge1_Node000001_Node000002" class="edge">
<title>Node1&#45;&gt;Node2</title>
<g id="a_edge1_Node000001_Node000002"><a xlink:title=" ">
<path fill="none" stroke="#63b8ff" d="M148.09,-27.5C156.71,-27.5 165.37,-27.5 173.64,-27.5"/>
<polygon fill="#63b8ff" stroke="#63b8ff" points="173.85,-31 183.85,-27.5 173.85,-24 173.85,-31"/>
</a>
</g>
</g>
<!-- Node3 -->
<g id="Node000003" class="node">
<title>Node3</title>
<g id="a_Node000003"><a xlink:href="hrt_8c.html#a1295f128f60d29874243b5733c4db025" target="_top" xlink:title=" ">
<polygon fill="white" stroke="#666666" points="381,-37 307,-37 307,-18 381,-18 381,-37"/>
<text text-anchor="middle" x="344" y="-25" font-family="Helvetica,sans-Serif" font-size="10.00">hrt_millis32</text>
</a>
</g>
</g>
<!-- Node2&#45;&gt;Node3 -->
<g id="edge2_Node000002_Node000003" class="edge">
<title>Node2&#45;&gt;Node3</title>
<g id="a_edge2_Node000002_Node000003"><a xlink:title=" ">
<path fill="none" stroke="#63b8ff" d="M271.14,-27.5C279.45,-27.5 288.21,-27.5 296.64,-27.5"/>
<polygon fill="#63b8ff" stroke="#63b8ff" points="296.71,-31 306.71,-27.5 296.71,-24 296.71,-31"/>
</a>
</g>
</g>
<!-- Node4 -->
<g id="Node000004" class="node">
<title>Node4</title>
<g id="a_Node000004"><a xlink:href="hrt_8c.html#a7dd7d90aadd8f76f26da7d5abfad6fe8" target="_top" xlink:title=" ">
<polygon fill="white" stroke="#666666" points="491,-37 417,-37 417,-18 491,-18 491,-37"/>
<text text-anchor="middle" x="454" y="-25" font-family="Helvetica,sans-Serif" font-size="10.00">hrt_millis64</text>
</a>
</g>
</g>
<!-- Node3&#45;&gt;Node4 -->
<g id="edge3_Node000003_Node000004" class="edge">
<title>Node3&#45;&gt;Node4</title>
<g id="a_edge3_Node000003_Node000004"><a xlink:title=" ">
<path fill="none" stroke="#63b8ff" d="M381.26,-27.5C389.37,-27.5 398.07,-27.5 406.52,-27.5"/>
<polygon fill="#63b8ff" stroke="#63b8ff" points="406.65,-31 416.65,-27.5 406.65,-24 406.65,-31"/>
</a>
</g>
</g>
<!-- Node5 -->
<g id="Node000005" class="node">
<title>Node5</title>
<g id="a_Node000005"><a xlink:href="hrt_8c.html#a152c3348a8e83f2dfe35b44cc2e30362" target="_top" xlink:title=" ">
<polygon fill="white" stroke="#666666" points="613,-56 533,-56 533,-37 613,-37 613,-56"/>
<text text-anchor="middle" x="573" y="-44" font-family="Helvetica,sans-Serif" font-size="10.00">hrt_micros64</text>
</a>
</g>
</g>
<!-- Node4&#45;&gt;Node5 -->
<g id="edge4_Node000004_Node000005" class="edge">
<title>Node4&#45;&gt;Node5</title>
<g id="a_edge4_Node000004_Node000005"><a xlink:title=" ">
<path fill="none" stroke="#63b8ff" d="M491.06,-33.36C501.03,-34.98 512.03,-36.76 522.62,-38.48"/>
<polygon fill="#63b8ff" stroke="#63b8ff" points="522.17,-41.95 532.6,-40.1 523.29,-35.04 522.17,-41.95"/>
</a>
</g>
</g>
<!-- Node8 -->
<g id="Node000008" class="node">
<title>Node8</title>
<g id="a_Node000008"><a xlink:href="div1000_8h.html#aece9e7f123414c41d0426fbadca097d8" target="_top" xlink:title=" ">
<polygon fill="white" stroke="#666666" points="619,-19 527,-19 527,0 619,0 619,-19"/>
<text text-anchor="middle" x="573" y="-7" font-family="Helvetica,sans-Serif" font-size="10.00">uint64_div1000</text>
</a>
</g>
</g>
<!-- Node4&#45;&gt;Node8 -->
<g id="edge7_Node000004_Node000008" class="edge">
<title>Node4&#45;&gt;Node8</title>
<g id="a_edge7_Node000004_Node000008"><a xlink:title=" ">
<path fill="none" stroke="#63b8ff" d="M491.06,-21.95C499.17,-20.71 507.95,-19.35 516.64,-18.02"/>
<polygon fill="#63b8ff" stroke="#63b8ff" points="517.41,-21.44 526.76,-16.46 516.34,-14.52 517.41,-21.44"/>
</a>
</g>
</g>
<!-- Node6 -->
<g id="Node000006" class="node">
<title>Node6</title>
<g id="a_Node000006"><a xlink:href="hrt_8c.html#a5b4ffc7ff86bd5b893c4a98834e80200" target="_top" xlink:title=" ">
<polygon fill="white" stroke="#666666" points="738,-74 655,-74 655,-55 738,-55 738,-74"/>
<text text-anchor="middle" x="696.5" y="-62" font-family="Helvetica,sans-Serif" font-size="10.00">hrt_micros64I</text>
</a>
</g>
</g>
<!-- Node5&#45;&gt;Node6 -->
<g id="edge5_Node000005_Node000006" class="edge">
<title>Node5&#45;&gt;Node6</title>
<g id="a_edge5_Node000005_Node000006"><a xlink:title=" ">
<path fill="none" stroke="#63b8ff" d="M613.11,-52.29C623.21,-53.79 634.22,-55.42 644.81,-56.99"/>
<polygon fill="#63b8ff" stroke="#63b8ff" points="644.38,-60.47 654.79,-58.47 645.41,-53.54 644.38,-60.47"/>
</a>
</g>
</g>
<!-- Node7 -->
<g id="Node000007" class="node">
<title>Node7</title>
<g id="a_Node000007"><a xlink:href="hrt_8c.html#a723fef85be7bacb834af35445a891c18" target="_top" xlink:title=" ">
<polygon fill="white" stroke="#666666" points="727.5,-37 665.5,-37 665.5,-18 727.5,-18 727.5,-37"/>
<text text-anchor="middle" x="696.5" y="-25" font-family="Helvetica,sans-Serif" font-size="10.00">is_locked</text>
</a>
</g>
</g>
<!-- Node5&#45;&gt;Node7 -->
<g id="edge6_Node000005_Node000007" class="edge">
<title>Node5&#45;&gt;Node7</title>
<g id="a_edge6_Node000005_Node000007"><a xlink:title=" ">
<path fill="none" stroke="#63b8ff" d="M613.11,-40.38C626.6,-38.27 641.73,-35.91 655.3,-33.79"/>
<polygon fill="#63b8ff" stroke="#63b8ff" points="655.99,-37.22 665.32,-32.22 654.9,-30.31 655.99,-37.22"/>
</a>
</g>
</g>
</g>
</svg>
