<?xml version="1.0" encoding="UTF-8" standalone="no"?>
<!DOCTYPE svg PUBLIC "-//W3C//DTD SVG 1.1//EN"
 "http://www.w3.org/Graphics/SVG/1.1/DTD/svg11.dtd">
<!-- Generated by graphviz version 2.43.0 (0)
 -->
<!-- Title: AP_Baro_ICP101XX Pages: 1 -->
<!--zoomable 301 -->

<svg id="main" version="1.1" xmlns="http://www.w3.org/2000/svg" xmlns:xlink="http://www.w3.org/1999/xlink" xml:space="preserve" onload="init(evt)">
<style type="text/css"><![CDATA[
.node, .edge {opacity: 0.7;}
.node.selected, .edge.selected {opacity: 1;}
.edge:hover path { stroke: red; }
.edge:hover polygon { stroke: red; fill: red; }
]]></style>

<defs>
  <circle id="rim" cx="0" cy="0" r="7"/>
  <circle id="rim2" cx="0" cy="0" r="3.5"/>
  <g id="zoomPlus">
    <use xlink:href="#rim" fill="#404040"><set attributeName="fill" to="#808080" begin="zoomplus.mouseover" end="zoomplus.mouseout"/></use>
    <path d="M-4,0h8M0,-4v8" fill="none" stroke="white" stroke-width="1.5" pointer-events="none"/>
  </g>
  <g id="zoomMin">
    <use xlink:href="#rim" fill="#404040"><set attributeName="fill" to="#808080" begin="zoomminus.mouseover" end="zoomminus.mouseout"/></use>
    <path d="M-4,0h8" fill="none" stroke="white" stroke-width="1.5" pointer-events="none"/>
  </g>
  <g id="arrowUp" transform="translate(30 24)">
    <use xlink:href="#rim"/>
    <path pointer-events="none" fill="none" stroke="white" stroke-width="1.5" d="M0,-3.0v7 M-2.5,-0.5L0,-3.0L2.5,-0.5"/>
  </g>
  <g id="arrowRight" transform="rotate(90) translate(36 -43)">
    <use xlink:href="#rim"/>
    <path pointer-events="none" fill="none" stroke="white" stroke-width="1.5" d="M0,-3.0v7 M-2.5,-0.5L0,-3.0L2.5,-0.5"/>
  </g>
  <g id="arrowDown" transform="rotate(180) translate(-30 -48)">
    <use xlink:href="#rim"/>
    <path pointer-events="none" fill="none" stroke="white" stroke-width="1.5" d="M0,-3.0v7 M-2.5,-0.5L0,-3.0L2.5,-0.5"/>
  </g>
  <g id="arrowLeft" transform="rotate(270) translate(-36 17)">
    <use xlink:href="#rim"/>
    <path pointer-events="none" fill="none" stroke="white" stroke-width="1.5" d="M0,-3.0v7 M-2.5,-0.5L0,-3.0L2.5,-0.5"/>
  </g>
  <g id="resetDef">
    <use xlink:href="#rim2" fill="#404040"><set attributeName="fill" to="#808080" begin="reset.mouseover" end="reset.mouseout"/></use>
  </g>
</defs>
<script type="application/ecmascript">
var viewWidth = 1330;
var viewHeight = 301;
var sectionId = 'dynsection-1';
</script>
<script type="application/ecmascript" xlink:href="svg.min.js"/>
<svg id="graph" class="graph">
<g id="viewport">
<title>AP_Baro_ICP101XX</title>
<!-- Node1 -->
<g id="Node000001" class="node">
<title>Node1</title>
<g id="a_Node000001"><a xlink:title=" ">
<polygon fill="#999999" stroke="#666666" points="1322,-251.5 1212,-251.5 1212,-232.5 1322,-232.5 1322,-251.5"/>
<text text-anchor="middle" x="1267" y="-239.5" font-family="Helvetica,sans-Serif" font-size="10.00">AP_Baro_ICP101XX</text>
</a>
</g>
</g>
<!-- Node2 -->
<g id="Node000002" class="node">
<title>Node2</title>
<g id="a_Node000002"><a xlink:href="classAP__Baro__Backend.html" target="_top" xlink:title=" ">
<polygon fill="white" stroke="#666666" points="1065.5,-209.5 961.5,-209.5 961.5,-190.5 1065.5,-190.5 1065.5,-209.5"/>
<text text-anchor="middle" x="1013.5" y="-197.5" font-family="Helvetica,sans-Serif" font-size="10.00">AP_Baro_Backend</text>
</a>
</g>
</g>
<!-- Node2&#45;&gt;Node1 -->
<g id="edge1_Node000001_Node000002" class="edge">
<title>Node2&#45;&gt;Node1</title>
<g id="a_edge1_Node000001_Node000002"><a xlink:title=" ">
<path fill="none" stroke="#63b8ff" d="M1075.71,-210.22C1117.3,-217.17 1171.81,-226.27 1211.83,-232.95"/>
<polygon fill="#63b8ff" stroke="#63b8ff" points="1076.14,-206.75 1065.7,-208.55 1074.98,-213.65 1076.14,-206.75"/>
</a>
</g>
</g>
<!-- Node3 -->
<g id="Node000003" class="node">
<title>Node3</title>
<g id="a_Node000003"><a xlink:href="classAP__Baro.html" target="_top" xlink:title=" ">
<polygon fill="white" stroke="#666666" points="1295.5,-142.5 1238.5,-142.5 1238.5,-123.5 1295.5,-123.5 1295.5,-142.5"/>
<text text-anchor="middle" x="1267" y="-130.5" font-family="Helvetica,sans-Serif" font-size="10.00">AP_Baro</text>
</a>
</g>
</g>
<!-- Node2&#45;&gt;Node3 -->
<g id="edge6_Node000003_Node000002" class="edge">
<title>Node2&#45;&gt;Node3</title>
<g id="a_edge6_Node000003_Node000002"><a xlink:title=" ">
<path fill="none" stroke="#9a32cd" stroke-dasharray="5,2" d="M1075.94,-199.05C1111.33,-196.9 1156.15,-191.4 1194,-178 1217.07,-169.83 1240.49,-153.34 1254.11,-142.75"/>
<polygon fill="#9a32cd" stroke="#9a32cd" points="1075.55,-195.57 1065.75,-199.6 1075.92,-202.56 1075.55,-195.57"/>
</a>
</g>
<text text-anchor="middle" x="1150" y="-200" font-family="Helvetica,sans-Serif" font-size="10.00" fill="grey"> drivers</text>
</g>
<!-- Node3&#45;&gt;Node2 -->
<g id="edge2_Node000002_Node000003" class="edge">
<title>Node3&#45;&gt;Node2</title>
<g id="a_edge2_Node000002_Node000003"><a xlink:title=" ">
<path fill="none" stroke="#9a32cd" stroke-dasharray="5,2" d="M1228.23,-139.52C1195.59,-145.51 1147.28,-155.23 1106,-167 1082.61,-173.67 1056.59,-183.28 1038.29,-190.41"/>
<polygon fill="#9a32cd" stroke="#9a32cd" points="1229.04,-142.93 1238.26,-137.7 1227.79,-136.04 1229.04,-142.93"/>
</a>
</g>
<text text-anchor="middle" x="1150" y="-170" font-family="Helvetica,sans-Serif" font-size="10.00" fill="grey"> _frontend</text>
</g>
<!-- Node3&#45;&gt;Node3 -->
<g id="edge5_Node000003_Node000003" class="edge">
<title>Node3&#45;&gt;Node3</title>
<g id="a_edge5_Node000003_Node000003"><a xlink:title=" ">
<path fill="none" stroke="#9a32cd" stroke-dasharray="5,2" d="M1245.52,-152.05C1246.95,-156.88 1254.11,-160.5 1267,-160.5 1287.62,-160.5 1293.58,-151.23 1284.88,-142.58"/>
<polygon fill="#9a32cd" stroke="#9a32cd" points="1248.84,-153.17 1249.12,-142.58 1242.3,-150.69 1248.84,-153.17"/>
</a>
</g>
<text text-anchor="middle" x="1267" y="-163.5" font-family="Helvetica,sans-Serif" font-size="10.00" fill="grey"> _singleton</text>
</g>
<!-- Node4 -->
<g id="Node000004" class="node">
<title>Node4</title>
<g id="a_Node000004"><a xlink:href="structAP__Param_1_1GroupInfo.html" target="_top" xlink:title=" ">
<polygon fill="white" stroke="#666666" points="618,-129.5 499,-129.5 499,-110.5 618,-110.5 618,-129.5"/>
<text text-anchor="middle" x="558.5" y="-117.5" font-family="Helvetica,sans-Serif" font-size="10.00">AP_Param::GroupInfo</text>
</a>
</g>
</g>
<!-- Node4&#45;&gt;Node3 -->
<g id="edge3_Node000003_Node000004" class="edge">
<title>Node4&#45;&gt;Node3</title>
<g id="a_edge3_Node000003_Node000004"><a xlink:title=" ">
<path fill="none" stroke="#9a32cd" stroke-dasharray="5,2" d="M628.33,-121.27C779.78,-124.05 1136.55,-130.62 1238.41,-132.49"/>
<polygon fill="#9a32cd" stroke="#9a32cd" points="628.28,-117.77 618.22,-121.08 628.15,-124.76 628.28,-117.77"/>
</a>
</g>
<text text-anchor="middle" x="874.5" y="-130" font-family="Helvetica,sans-Serif" font-size="10.00" fill="grey"> var_info</text>
</g>
<!-- Node4&#45;&gt;Node4 -->
<g id="edge4_Node000004_Node000004" class="edge">
<title>Node4&#45;&gt;Node4</title>
<g id="a_edge4_Node000004_Node000004"><a xlink:title=" ">
<path fill="none" stroke="#9a32cd" stroke-dasharray="5,2" d="M540.45,-139.41C541.87,-144.06 547.89,-147.5 558.5,-147.5 575.92,-147.5 580.95,-138.23 573.6,-129.58"/>
<polygon fill="#9a32cd" stroke="#9a32cd" points="543.88,-140.17 543.4,-129.58 537.17,-138.16 543.88,-140.17"/>
</a>
</g>
<text text-anchor="middle" x="558.5" y="-161.5" font-family="Helvetica,sans-Serif" font-size="10.00" fill="grey"> group_info</text>
<text text-anchor="middle" x="558.5" y="-150.5" font-family="Helvetica,sans-Serif" font-size="10.00" fill="grey">group_info_ptr</text>
</g>
<!-- Node6 -->
<g id="Node000006" class="node">
<title>Node6</title>
<g id="a_Node000006"><a xlink:href="classAP__Baro_1_1WindCoeff.html" target="_top" xlink:title=" ">
<polygon fill="white" stroke="#666666" points="810,-104.5 697,-104.5 697,-85.5 810,-85.5 810,-104.5"/>
<text text-anchor="middle" x="753.5" y="-92.5" font-family="Helvetica,sans-Serif" font-size="10.00">AP_Baro::WindCoeff</text>
</a>
</g>
</g>
<!-- Node4&#45;&gt;Node6 -->
<g id="edge9_Node000006_Node000004" class="edge">
<title>Node4&#45;&gt;Node6</title>
<g id="a_edge9_Node000006_Node000004"><a xlink:title=" ">
<path fill="none" stroke="#9a32cd" stroke-dasharray="5,2" d="M628.37,-109.05C630.94,-108.69 633.49,-108.34 636,-108 655.77,-105.35 677.47,-102.82 696.74,-100.71"/>
<polygon fill="#9a32cd" stroke="#9a32cd" points="627.75,-105.6 618.35,-110.5 628.75,-112.53 627.75,-105.6"/>
</a>
</g>
<text text-anchor="middle" x="657.5" y="-111" font-family="Helvetica,sans-Serif" font-size="10.00" fill="grey"> var_info</text>
</g>
<!-- Node5 -->
<g id="Node000005" class="node">
<title>Node5</title>
<g id="a_Node000005"><a xlink:href="structAP__Baro_1_1sensor.html" target="_top" xlink:title=" ">
<polygon fill="white" stroke="#666666" points="1061,-104.5 966,-104.5 966,-85.5 1061,-85.5 1061,-104.5"/>
<text text-anchor="middle" x="1013.5" y="-92.5" font-family="Helvetica,sans-Serif" font-size="10.00">AP_Baro::sensor</text>
</a>
</g>
</g>
<!-- Node5&#45;&gt;Node3 -->
<g id="edge7_Node000003_Node000005" class="edge">
<title>Node5&#45;&gt;Node3</title>
<g id="a_edge7_Node000003_Node000005"><a xlink:title=" ">
<path fill="none" stroke="#9a32cd" stroke-dasharray="5,2" d="M1071.27,-95.32C1106.84,-96.46 1153.47,-99.65 1194,-108 1210.98,-111.5 1229.43,-117.96 1243.41,-123.44"/>
<polygon fill="#9a32cd" stroke="#9a32cd" points="1071.16,-91.82 1061.07,-95.05 1070.97,-98.82 1071.16,-91.82"/>
</a>
</g>
<text text-anchor="middle" x="1150" y="-111" font-family="Helvetica,sans-Serif" font-size="10.00" fill="grey"> sensors</text>
</g>
<!-- Node6&#45;&gt;Node5 -->
<g id="edge8_Node000005_Node000006" class="edge">
<title>Node6&#45;&gt;Node5</title>
<g id="a_edge8_Node000005_Node000006"><a xlink:title=" ">
<path fill="none" stroke="#9a32cd" stroke-dasharray="5,2" d="M820.24,-95C865.79,-95 925.32,-95 965.99,-95"/>
<polygon fill="#9a32cd" stroke="#9a32cd" points="820.16,-91.5 810.16,-95 820.16,-98.5 820.16,-91.5"/>
</a>
</g>
<text text-anchor="middle" x="874.5" y="-98" font-family="Helvetica,sans-Serif" font-size="10.00" fill="grey"> wind_coeff</text>
</g>
<!-- Node7 -->
<g id="Node000007" class="node">
<title>Node7</title>
<g id="a_Node000007"><a xlink:href="classVector3.html" target="_top" xlink:title=" ">
<polygon fill="white" stroke="#666666" points="802.5,-67.5 704.5,-67.5 704.5,-48.5 802.5,-48.5 802.5,-67.5"/>
<text text-anchor="middle" x="753.5" y="-55.5" font-family="Helvetica,sans-Serif" font-size="10.00">Vector3&lt; float &gt;</text>
</a>
</g>
</g>
<!-- Node7&#45;&gt;Node5 -->
<g id="edge10_Node000005_Node000007" class="edge">
<title>Node7&#45;&gt;Node5</title>
<g id="a_edge10_Node000005_Node000007"><a xlink:title=" ">
<path fill="none" stroke="#9a32cd" stroke-dasharray="5,2" d="M812.72,-65.24C844.71,-69.33 885.08,-74.68 921,-80 935.65,-82.17 951.59,-84.72 966,-87.09"/>
<polygon fill="#9a32cd" stroke="#9a32cd" points="813.01,-61.75 802.64,-63.96 812.12,-68.69 813.01,-61.75"/>
</a>
</g>
<text text-anchor="middle" x="874.5" y="-83" font-family="Helvetica,sans-Serif" font-size="10.00" fill="grey"> dynamic_pressure</text>
</g>
<!-- Node8 -->
<g id="Node000008" class="node">
<title>Node8</title>
<g id="a_Node000008"><a xlink:href="classDerivativeFilter.html" target="_top" xlink:title=" ">
<polygon fill="white" stroke="#666666" points="1088,-51.5 939,-51.5 939,-32.5 1088,-32.5 1088,-51.5"/>
<text text-anchor="middle" x="1013.5" y="-39.5" font-family="Helvetica,sans-Serif" font-size="10.00">DerivativeFilter&lt; float, 7 &gt;</text>
</a>
</g>
</g>
<!-- Node8&#45;&gt;Node3 -->
<g id="edge11_Node000003_Node000008" class="edge">
<title>Node8&#45;&gt;Node3</title>
<g id="a_edge11_Node000003_Node000008"><a xlink:title=" ">
<path fill="none" stroke="#9a32cd" stroke-dasharray="5,2" d="M1094.4,-53.47C1126.27,-59.77 1162.73,-69.19 1194,-83 1217.67,-93.45 1241.65,-112.07 1255.1,-123.4"/>
<polygon fill="#9a32cd" stroke="#9a32cd" points="1094.71,-49.97 1084.23,-51.54 1093.4,-56.85 1094.71,-49.97"/>
</a>
</g>
<text text-anchor="middle" x="1150" y="-86" font-family="Helvetica,sans-Serif" font-size="10.00" fill="grey"> _climb_rate_filter</text>
</g>
<!-- Node9 -->
<g id="Node000009" class="node">
<title>Node9</title>
<g id="a_Node000009"><a xlink:href="classFilterWithBuffer.html" target="_top" xlink:title=" ">
<polygon fill="white" stroke="#666666" points="810,-30 697,-30 697,0 810,0 810,-30"/>
<text text-anchor="start" x="705" y="-18" font-family="Helvetica,sans-Serif" font-size="10.00">FilterWithBuffer&lt; T,</text>
<text text-anchor="middle" x="753.5" y="-7" font-family="Helvetica,sans-Serif" font-size="10.00"> FILTER_SIZE &gt;</text>
</a>
</g>
</g>
<!-- Node9&#45;&gt;Node8 -->
<g id="edge12_Node000008_Node000009" class="edge">
<title>Node9&#45;&gt;Node8</title>
<g id="a_edge12_Node000008_Node000009"><a xlink:title=" ">
<path fill="none" stroke="#63b8ff" d="M820.13,-21.87C856.33,-25.66 901.4,-30.37 938.81,-34.29"/>
<polygon fill="#63b8ff" stroke="#63b8ff" points="820.47,-18.39 810.16,-20.83 819.75,-25.35 820.47,-18.39"/>
</a>
</g>
</g>
<!-- Node10 -->
<g id="Node000010" class="node">
<title>Node10</title>
<g id="a_Node000010"><a xlink:href="classFilter.html" target="_top" xlink:title=" ">
<polygon fill="white" stroke="#666666" points="593.5,-24.5 523.5,-24.5 523.5,-5.5 593.5,-5.5 593.5,-24.5"/>
<text text-anchor="middle" x="558.5" y="-12.5" font-family="Helvetica,sans-Serif" font-size="10.00">Filter&lt; T &gt;</text>
</a>
</g>
</g>
<!-- Node10&#45;&gt;Node9 -->
<g id="edge13_Node000009_Node000010" class="edge">
<title>Node10&#45;&gt;Node9</title>
<g id="a_edge13_Node000009_Node000010"><a xlink:title=" ">
<path fill="none" stroke="#63b8ff" d="M603.73,-15C631.4,-15 667.27,-15 696.86,-15"/>
<polygon fill="#63b8ff" stroke="#63b8ff" points="603.56,-11.5 593.56,-15 603.56,-18.5 603.56,-11.5"/>
</a>
</g>
</g>
<!-- Node11 -->
<g id="Node000011" class="node">
<title>Node11</title>
<g id="a_Node000011"><a xlink:href="classAP__HAL_1_1OwnPtr.html" target="_top" xlink:title=" ">
<polygon fill="white" stroke="#666666" points="1073,-274 954,-274 954,-244 1073,-244 1073,-274"/>
<text text-anchor="start" x="962" y="-262" font-family="Helvetica,sans-Serif" font-size="10.00">AP_HAL::OwnPtr&lt; AP</text>
<text text-anchor="middle" x="1013.5" y="-251" font-family="Helvetica,sans-Serif" font-size="10.00">_HAL::I2CDevice &gt;</text>
</a>
</g>
</g>
<!-- Node11&#45;&gt;Node1 -->
<g id="edge14_Node000001_Node000011" class="edge">
<title>Node11&#45;&gt;Node1</title>
<g id="a_edge14_Node000001_Node000011"><a xlink:title=" ">
<path fill="none" stroke="#9a32cd" stroke-dasharray="5,2" d="M1083.22,-254.35C1123.76,-251.61 1174.32,-248.2 1211.99,-245.65"/>
<polygon fill="#9a32cd" stroke="#9a32cd" points="1082.89,-250.87 1073.15,-255.04 1083.36,-257.85 1082.89,-250.87"/>
</a>
</g>
<text text-anchor="middle" x="1150" y="-256" font-family="Helvetica,sans-Serif" font-size="10.00" fill="grey"> dev</text>
</g>
<!-- Node12 -->
<g id="Node000012" class="node">
<title>Node12</title>
<g id="a_Node000012"><a xlink:href="classAP__HAL_1_1I2CDevice.html" target="_top" xlink:title=" ">
<polygon fill="white" stroke="#666666" points="808.5,-268.5 698.5,-268.5 698.5,-249.5 808.5,-249.5 808.5,-268.5"/>
<text text-anchor="middle" x="753.5" y="-256.5" font-family="Helvetica,sans-Serif" font-size="10.00">AP_HAL::I2CDevice</text>
</a>
</g>
</g>
<!-- Node12&#45;&gt;Node11 -->
<g id="edge15_Node000011_Node000012" class="edge">
<title>Node12&#45;&gt;Node11</title>
<g id="a_edge15_Node000011_Node000012"><a xlink:title=" ">
<path fill="none" stroke="#9a32cd" stroke-dasharray="5,2" d="M818.59,-259C860.07,-259 913.67,-259 954,-259"/>
<polygon fill="#9a32cd" stroke="#9a32cd" points="818.59,-255.5 808.59,-259 818.59,-262.5 818.59,-255.5"/>
</a>
</g>
<text text-anchor="middle" x="874.5" y="-262" font-family="Helvetica,sans-Serif" font-size="10.00" fill="grey"> _ptr</text>
</g>
<!-- Node13 -->
<g id="Node000013" class="node">
<title>Node13</title>
<g id="a_Node000013"><a xlink:href="classAP__HAL_1_1Device.html" target="_top" xlink:title=" ">
<polygon fill="white" stroke="#666666" points="605.5,-268.5 511.5,-268.5 511.5,-249.5 605.5,-249.5 605.5,-268.5"/>
<text text-anchor="middle" x="558.5" y="-256.5" font-family="Helvetica,sans-Serif" font-size="10.00">AP_HAL::Device</text>
</a>
</g>
</g>
<!-- Node13&#45;&gt;Node12 -->
<g id="edge16_Node000012_Node000013" class="edge">
<title>Node13&#45;&gt;Node12</title>
<g id="a_edge16_Node000012_Node000013"><a xlink:title=" ">
<path fill="none" stroke="#63b8ff" d="M615.83,-259C641.87,-259 672.67,-259 698.44,-259"/>
<polygon fill="#63b8ff" stroke="#63b8ff" points="615.73,-255.5 605.73,-259 615.73,-262.5 615.73,-255.5"/>
</a>
</g>
</g>
<!-- Node14 -->
<g id="Node000014" class="node">
<title>Node14</title>
<g id="a_Node000014"><a xlink:href="unionAP__HAL_1_1Device_1_1DeviceId.html" target="_top" xlink:title=" ">
<polygon fill="white" stroke="#666666" points="398.5,-291.5 255.5,-291.5 255.5,-272.5 398.5,-272.5 398.5,-291.5"/>
<text text-anchor="middle" x="327" y="-279.5" font-family="Helvetica,sans-Serif" font-size="10.00">AP_HAL::Device::DeviceId</text>
</a>
</g>
</g>
<!-- Node14&#45;&gt;Node13 -->
<g id="edge17_Node000013_Node000014" class="edge">
<title>Node14&#45;&gt;Node13</title>
<g id="a_edge17_Node000013_Node000014"><a xlink:title=" ">
<path fill="none" stroke="#9a32cd" stroke-dasharray="5,2" d="M408.76,-273.91C443.1,-270.47 481.9,-266.58 511.27,-263.63"/>
<polygon fill="#9a32cd" stroke="#9a32cd" points="408.33,-270.43 398.73,-274.91 409.03,-277.4 408.33,-270.43"/>
</a>
</g>
<text text-anchor="middle" x="449" y="-276" font-family="Helvetica,sans-Serif" font-size="10.00" fill="grey"> _bus_id</text>
</g>
<!-- Node15 -->
<g id="Node000015" class="node">
<title>Node15</title>
<g id="a_Node000015"><a xlink:href="structAP__HAL_1_1Device_1_1DeviceStructure.html" target="_top" xlink:title=" ">
<polygon fill="white" stroke="#666666" points="178,-291.5 0,-291.5 0,-272.5 178,-272.5 178,-291.5"/>
<text text-anchor="middle" x="89" y="-279.5" font-family="Helvetica,sans-Serif" font-size="10.00">AP_HAL::Device::DeviceStructure</text>
</a>
</g>
</g>
<!-- Node15&#45;&gt;Node14 -->
<g id="edge18_Node000014_Node000015" class="edge">
<title>Node15&#45;&gt;Node14</title>
<g id="a_edge18_Node000014_Node000015"><a xlink:title=" ">
<path fill="none" stroke="#9a32cd" stroke-dasharray="5,2" d="M188.43,-282C210.83,-282 234.2,-282 255.18,-282"/>
<polygon fill="#9a32cd" stroke="#9a32cd" points="188.21,-278.5 178.21,-282 188.21,-285.5 188.21,-278.5"/>
</a>
</g>
<text text-anchor="middle" x="216.5" y="-285" font-family="Helvetica,sans-Serif" font-size="10.00" fill="grey"> devid_s</text>
</g>
<!-- Node16 -->
<g id="Node000016" class="node">
<title>Node16</title>
<g id="a_Node000016"><a xlink:href="structAP__HAL_1_1Device_1_1checkreg.html" target="_top" xlink:title=" ">
<polygon fill="white" stroke="#666666" points="399,-246.5 255,-246.5 255,-227.5 399,-227.5 399,-246.5"/>
<text text-anchor="middle" x="327" y="-234.5" font-family="Helvetica,sans-Serif" font-size="10.00">AP_HAL::Device::checkreg</text>
</a>
</g>
</g>
<!-- Node16&#45;&gt;Node13 -->
<g id="edge19_Node000013_Node000016" class="edge">
<title>Node16&#45;&gt;Node13</title>
<g id="a_edge19_Node000013_Node000016"><a xlink:title=" ">
<path fill="none" stroke="#9a32cd" stroke-dasharray="5,2" d="M409.29,-233.6C432.54,-233.69 457.85,-234.8 481,-238 497.37,-240.26 515.2,-245.02 529.53,-249.43"/>
<polygon fill="#9a32cd" stroke="#9a32cd" points="409.11,-230.1 399.12,-233.62 409.13,-237.1 409.11,-230.1"/>
</a>
</g>
<text text-anchor="middle" x="449" y="-252" font-family="Helvetica,sans-Serif" font-size="10.00" fill="grey"> last_reg_fail</text>
<text text-anchor="middle" x="449" y="-241" font-family="Helvetica,sans-Serif" font-size="10.00" fill="grey">regs</text>
</g>
</g>
</svg>

<g id="navigator" transform="translate(0 0)" fill="#404254">
  <rect fill="#f2f5e9" fill-opacity="0.5" stroke="#606060" stroke-width=".5" x="0" y="0" width="60" height="60"/>
  <use id="zoomplus" xlink:href="#zoomPlus" x="17" y="9" onmousedown="handleZoom(evt,'in')"/>
  <use id="zoomminus" xlink:href="#zoomMin" x="42" y="9" onmousedown="handleZoom(evt,'out')"/>
  <use id="reset" xlink:href="#resetDef" x="30" y="36" onmousedown="handleReset()"/>
   <use id="arrowup" xlink:href="#arrowUp" x="0" y="0" onmousedown="handlePan(0,-1)"/>
  <use id="arrowright" xlink:href="#arrowRight" x="0" y="0" onmousedown="handlePan(1,0)"/>
  <use id="arrowdown" xlink:href="#arrowDown" x="0" y="0" onmousedown="handlePan(0,1)"/>
  <use id="arrowleft" xlink:href="#arrowLeft" x="0" y="0" onmousedown="handlePan(-1,0)"/>
</g>
<svg viewBox="0 0 15 15" width="100%" height="30px" preserveAspectRatio="xMaxYMin meet">
 <g id="arrow_out" transform="scale(0.3 0.3)">
  <a xlink:href="classAP__Baro__ICP101XX__coll__graph_org.svg" target="_base">
   <rect id="button" ry="5" rx="5" y="6" x="6" height="38" width="38"
        fill="#f2f5e9" fill-opacity="0.5" stroke="#606060" stroke-width="1.0"/>
   <path id="arrow"
     d="M 11.500037,31.436501 C 11.940474,20.09759 22.043105,11.32322 32.158766,21.979434 L 37.068811,17.246167 C 37.068811,17.246167 37.088388,32 37.088388,32 L 22.160133,31.978069 C 22.160133,31.978069 26.997745,27.140456 26.997745,27.140456 C 18.528582,18.264221 13.291696,25.230495 11.500037,31.436501 z"
     style="fill:#404040;"/>
  </a>
 </g>
</svg>

<style type='text/css'>
<![CDATA[
[data-mouse-over-selected='false'] { opacity: 0.7; }
[data-mouse-over-selected='true']  { opacity: 1.0; }
]]>
</style>
<script type="application/ecmascript"><![CDATA[
document.addEventListener('DOMContentLoaded', (event) => {
  highlightEdges();
  highlightAdjacentNodes();
});
]]></script>
</svg>
