<?xml version="1.0" encoding="UTF-8" standalone="no"?>
<!DOCTYPE svg PUBLIC "-//W3C//DTD SVG 1.1//EN"
 "http://www.w3.org/Graphics/SVG/1.1/DTD/svg11.dtd">
<!-- Generated by graphviz version 2.43.0 (0)
 -->
<!-- Title: SITL::Sailboat::update Pages: 1 -->
<svg width="608pt" height="549pt"
 viewBox="0.00 0.00 608.00 548.85" xmlns="http://www.w3.org/2000/svg" xmlns:xlink="http://www.w3.org/1999/xlink">
<g id="graph0" class="graph" transform="scale(1 1) rotate(0) translate(4 544.85)">
<title>SITL::Sailboat::update</title>
<!-- Node1 -->
<g id="Node000001" class="node">
<title>Node1</title>
<g id="a_Node000001"><a xlink:title=" ">
<polygon fill="#999999" stroke="#666666" points="122,-269.88 0,-269.88 0,-250.88 122,-250.88 122,-269.88"/>
<text text-anchor="middle" x="61" y="-257.88" font-family="Helvetica,sans-Serif" font-size="10.00">SITL::Sailboat::update</text>
</a>
</g>
</g>
<!-- Node2 -->
<g id="Node000002" class="node">
<title>Node2</title>
<g id="a_Node000002"><a xlink:href="classSITL_1_1Sailboat.html#a04a436f7d1988f84734f0393310a940a" target="_top" xlink:title=" ">
<polygon fill="white" stroke="#666666" points="289,-497.38 181,-497.38 181,-467.38 289,-467.38 289,-497.38"/>
<text text-anchor="start" x="189" y="-485.38" font-family="Helvetica,sans-Serif" font-size="10.00">SITL::Sailboat::calc</text>
<text text-anchor="middle" x="235" y="-474.38" font-family="Helvetica,sans-Serif" font-size="10.00">_lift_and_drag</text>
</a>
</g>
</g>
<!-- Node1&#45;&gt;Node2 -->
<g id="edge1_Node000001_Node000002" class="edge">
<title>Node1&#45;&gt;Node2</title>
<g id="a_edge1_Node000001_Node000002"><a xlink:title=" ">
<path fill="none" stroke="#63b8ff" d="M64.11,-269.92C71.46,-300.86 98.69,-399.57 158,-453.38 162.12,-457.12 166.77,-460.39 171.69,-463.26"/>
<polygon fill="#63b8ff" stroke="#63b8ff" points="170.29,-466.48 180.78,-467.98 173.52,-460.27 170.29,-466.48"/>
</a>
</g>
</g>
<!-- Node3 -->
<g id="Node000003" class="node">
<title>Node3</title>
<g id="a_Node000003"><a xlink:href="AP__Math_8h.html#a68558c4f79a8582543daefde13c64abc" target="_top" xlink:title=" ">
<polygon fill="white" stroke="#666666" points="455,-531.88 363,-531.88 363,-512.88 455,-512.88 455,-531.88"/>
<text text-anchor="middle" x="409" y="-519.88" font-family="Helvetica,sans-Serif" font-size="10.00">constrain_int16</text>
</a>
</g>
</g>
<!-- Node1&#45;&gt;Node3 -->
<g id="edge9_Node000001_Node000003" class="edge">
<title>Node1&#45;&gt;Node3</title>
<g id="a_edge9_Node000001_Node000003"><a xlink:title=" ">
<path fill="none" stroke="#63b8ff" d="M62.33,-270.08C64.2,-307.96 76.58,-446.86 158,-506.38 216.05,-548.83 303.4,-543.12 357.99,-533.75"/>
<polygon fill="#63b8ff" stroke="#63b8ff" points="358.91,-537.14 368.12,-531.91 357.65,-530.26 358.91,-537.14"/>
</a>
</g>
</g>
<!-- Node5 -->
<g id="Node000005" class="node">
<title>Node5</title>
<g id="a_Node000005"><a xlink:href="AP__Math_8h.html#a8b6f71a42818d74fd8bfe348108942fa" target="_top" xlink:title=" ">
<polygon fill="white" stroke="#666666" points="445.5,-451.88 372.5,-451.88 372.5,-432.88 445.5,-432.88 445.5,-451.88"/>
<text text-anchor="middle" x="409" y="-439.88" font-family="Helvetica,sans-Serif" font-size="10.00">is_negative</text>
</a>
</g>
</g>
<!-- Node1&#45;&gt;Node5 -->
<g id="edge18_Node000001_Node000005" class="edge">
<title>Node1&#45;&gt;Node5</title>
<g id="a_edge18_Node000001_Node000005"><a xlink:title=" ">
<path fill="none" stroke="#63b8ff" d="M64.97,-270.28C73.87,-298 103.13,-376.68 158,-411.38 220.2,-450.72 308.65,-451.74 361.97,-447.82"/>
<polygon fill="#63b8ff" stroke="#63b8ff" points="362.47,-451.29 372.14,-446.98 361.89,-444.31 362.47,-451.29"/>
</a>
</g>
</g>
<!-- Node8 -->
<g id="Node000008" class="node">
<title>Node8</title>
<g id="a_Node000008"><a xlink:href="AP__Math_8cpp.html#ad1c00c8e553ea9274633257f6b12727e" target="_top" xlink:title=" ">
<polygon fill="white" stroke="#666666" points="441,-414.88 377,-414.88 377,-395.88 441,-395.88 441,-414.88"/>
<text text-anchor="middle" x="409" y="-402.88" font-family="Helvetica,sans-Serif" font-size="10.00">wrap_180</text>
</a>
</g>
</g>
<!-- Node1&#45;&gt;Node8 -->
<g id="edge30_Node000001_Node000008" class="edge">
<title>Node1&#45;&gt;Node8</title>
<g id="a_edge30_Node000001_Node000008"><a xlink:title=" ">
<path fill="none" stroke="#63b8ff" d="M66.29,-270.19C77.41,-294.25 109.69,-356.13 158,-382.38 224.1,-418.32 314.72,-416.25 366.74,-411.09"/>
<polygon fill="#63b8ff" stroke="#63b8ff" points="367.36,-414.54 376.92,-409.99 366.6,-407.59 367.36,-414.54"/>
</a>
</g>
</g>
<!-- Node10 -->
<g id="Node000010" class="node">
<title>Node10</title>
<g id="a_Node000010"><a xlink:href="classMatrix3.html#ace756290a0d39528992ead334c038de2" target="_top" xlink:title=" ">
<polygon fill="white" stroke="#666666" points="291.5,-372.88 178.5,-372.88 178.5,-353.88 291.5,-353.88 291.5,-372.88"/>
<text text-anchor="middle" x="235" y="-360.88" font-family="Helvetica,sans-Serif" font-size="10.00">Matrix3::from_euler</text>
</a>
</g>
</g>
<!-- Node1&#45;&gt;Node10 -->
<g id="edge10_Node000001_Node000010" class="edge">
<title>Node1&#45;&gt;Node10</title>
<g id="a_edge10_Node000001_Node000010"><a xlink:title=" ">
<path fill="none" stroke="#63b8ff" d="M71.17,-270.05C87.28,-286.5 122.33,-320.03 158,-339.38 166.13,-343.79 175.19,-347.54 184.15,-350.66"/>
<polygon fill="#63b8ff" stroke="#63b8ff" points="183.18,-354.03 193.77,-353.81 185.36,-347.38 183.18,-354.03"/>
</a>
</g>
</g>
<!-- Node11 -->
<g id="Node000011" class="node">
<title>Node11</title>
<g id="a_Node000011"><a xlink:href="classAP__HAL_1_1Util.html#a287a2b82fa30b92c8d52aad61d4d27b7" target="_top" xlink:title=" ">
<polygon fill="white" stroke="#666666" points="470,-213.38 348,-213.38 348,-183.38 470,-183.38 470,-213.38"/>
<text text-anchor="start" x="356" y="-201.38" font-family="Helvetica,sans-Serif" font-size="10.00">AP_HAL::Util::get_soft</text>
<text text-anchor="middle" x="409" y="-190.38" font-family="Helvetica,sans-Serif" font-size="10.00">_armed</text>
</a>
</g>
</g>
<!-- Node1&#45;&gt;Node11 -->
<g id="edge11_Node000001_Node000011" class="edge">
<title>Node1&#45;&gt;Node11</title>
<g id="a_edge11_Node000001_Node000011"><a xlink:title=" ">
<path fill="none" stroke="#63b8ff" d="M122.06,-251.92C172.82,-244.5 247.39,-232.94 312,-220.38 320.48,-218.74 329.34,-216.88 338.12,-214.97"/>
<polygon fill="#63b8ff" stroke="#63b8ff" points="338.95,-218.37 347.96,-212.79 337.44,-211.54 338.95,-218.37"/>
</a>
</g>
</g>
<!-- Node12 -->
<g id="Node000012" class="node">
<title>Node12</title>
<g id="a_Node000012"><a xlink:href="classSITL_1_1Sailboat.html#a8b64d8d72b8f1cb8a65e39d38cb56219" target="_top" xlink:title=" ">
<polygon fill="white" stroke="#666666" points="287,-297.38 183,-297.38 183,-267.38 287,-267.38 287,-297.38"/>
<text text-anchor="start" x="191" y="-285.38" font-family="Helvetica,sans-Serif" font-size="10.00">SITL::Sailboat::get</text>
<text text-anchor="middle" x="235" y="-274.38" font-family="Helvetica,sans-Serif" font-size="10.00">_yaw_rate</text>
</a>
</g>
</g>
<!-- Node1&#45;&gt;Node12 -->
<g id="edge12_Node000001_Node000012" class="edge">
<title>Node1&#45;&gt;Node12</title>
<g id="a_edge12_Node000001_Node000012"><a xlink:title=" ">
<path fill="none" stroke="#63b8ff" d="M122.16,-268.08C138.52,-270.17 156.27,-272.44 172.69,-274.54"/>
<polygon fill="#63b8ff" stroke="#63b8ff" points="172.37,-278.03 182.73,-275.83 173.25,-271.09 172.37,-278.03"/>
</a>
</g>
</g>
<!-- Node14 -->
<g id="Node000014" class="node">
<title>Node14</title>
<g id="a_Node000014"><a xlink:href="AP__Math_8h.html#a2a12cce483e9b870da70d30406d82c60" target="_top" xlink:title=" ">
<polygon fill="white" stroke="#666666" points="578.5,-276.88 527.5,-276.88 527.5,-257.88 578.5,-257.88 578.5,-276.88"/>
<text text-anchor="middle" x="553" y="-264.88" font-family="Helvetica,sans-Serif" font-size="10.00">is_zero</text>
</a>
</g>
</g>
<!-- Node1&#45;&gt;Node14 -->
<g id="edge20_Node000001_Node000014" class="edge">
<title>Node1&#45;&gt;Node14</title>
<g id="a_edge20_Node000001_Node000014"><a xlink:title=" ">
<path fill="none" stroke="#63b8ff" d="M76.53,-269.91C94.7,-281.21 127.18,-299.38 158,-306.38 288.38,-336.01 448.1,-298.1 517.3,-278.18"/>
<polygon fill="#63b8ff" stroke="#63b8ff" points="518.61,-281.44 527.22,-275.27 516.64,-274.72 518.61,-281.44"/>
</a>
</g>
</g>
<!-- Node15 -->
<g id="Node000015" class="node">
<title>Node15</title>
<g id="a_Node000015"><a xlink:href="AP__Math_8h.html#a49ad7fa2fa2e3d8aa75e8e0ec3f83b99" target="_top" xlink:title=" ">
<polygon fill="white" stroke="#666666" points="579.5,-88.88 526.5,-88.88 526.5,-69.88 579.5,-69.88 579.5,-88.88"/>
<text text-anchor="middle" x="553" y="-76.88" font-family="Helvetica,sans-Serif" font-size="10.00">radians</text>
</a>
</g>
</g>
<!-- Node1&#45;&gt;Node15 -->
<g id="edge21_Node000001_Node000015" class="edge">
<title>Node1&#45;&gt;Node15</title>
<g id="a_edge21_Node000001_Node000015"><a xlink:title=" ">
<path fill="none" stroke="#63b8ff" d="M62.56,-250.81C65.24,-214.67 80.14,-85.9 158,-34.38 275.38,43.29 456.57,-31.8 524.78,-65.19"/>
<polygon fill="#63b8ff" stroke="#63b8ff" points="523.49,-68.46 534,-69.8 526.62,-62.2 523.49,-68.46"/>
</a>
</g>
</g>
<!-- Node16 -->
<g id="Node000016" class="node">
<title>Node16</title>
<g id="a_Node000016"><a xlink:href="AP__Math_8h.html#a4e3ae698e8f99cec214348ad233e3c41" target="_top" xlink:title=" ">
<polygon fill="white" stroke="#666666" points="269.5,-173.88 200.5,-173.88 200.5,-154.88 269.5,-154.88 269.5,-173.88"/>
<text text-anchor="middle" x="235" y="-161.88" font-family="Helvetica,sans-Serif" font-size="10.00">is_positive</text>
</a>
</g>
</g>
<!-- Node1&#45;&gt;Node16 -->
<g id="edge19_Node000001_Node000016" class="edge">
<title>Node1&#45;&gt;Node16</title>
<g id="a_edge19_Node000001_Node000016"><a xlink:title=" ">
<path fill="none" stroke="#63b8ff" d="M71.11,-250.75C87.11,-234.39 122.02,-201.23 158,-183.38 168.07,-178.39 179.57,-174.64 190.52,-171.85"/>
<polygon fill="#63b8ff" stroke="#63b8ff" points="191.42,-175.23 200.36,-169.55 189.83,-168.41 191.42,-175.23"/>
</a>
</g>
</g>
<!-- Node17 -->
<g id="Node000017" class="node">
<title>Node17</title>
<g id="a_Node000017"><a xlink:href="classVector3.html#aa89a62959f071f001dfe23dd58599d78" target="_top" xlink:title=" ">
<polygon fill="white" stroke="#666666" points="279.5,-136.88 190.5,-136.88 190.5,-117.88 279.5,-117.88 279.5,-136.88"/>
<text text-anchor="middle" x="235" y="-124.88" font-family="Helvetica,sans-Serif" font-size="10.00">Vector3::rotate</text>
</a>
</g>
</g>
<!-- Node1&#45;&gt;Node17 -->
<g id="edge22_Node000001_Node000017" class="edge">
<title>Node1&#45;&gt;Node17</title>
<g id="a_edge22_Node000001_Node000017"><a xlink:title=" ">
<path fill="none" stroke="#63b8ff" d="M67.28,-250.67C79.86,-228.49 113.88,-173.92 158,-146.38 164.89,-142.08 172.7,-138.76 180.63,-136.18"/>
<polygon fill="#63b8ff" stroke="#63b8ff" points="181.66,-139.53 190.3,-133.4 179.73,-132.8 181.66,-139.53"/>
</a>
</g>
</g>
<!-- Node18 -->
<g id="Node000018" class="node">
<title>Node18</title>
<g id="a_Node000018"><a xlink:href="AP__Math_8cpp.html#ac89eb1832d8e4d67fcf1ac07e3c25184" target="_top" xlink:title=" ">
<polygon fill="white" stroke="#666666" points="266,-99.88 204,-99.88 204,-80.88 266,-80.88 266,-99.88"/>
<text text-anchor="middle" x="235" y="-87.88" font-family="Helvetica,sans-Serif" font-size="10.00">safe_sqrt</text>
</a>
</g>
</g>
<!-- Node1&#45;&gt;Node18 -->
<g id="edge23_Node000001_Node000018" class="edge">
<title>Node1&#45;&gt;Node18</title>
<g id="a_edge23_Node000001_Node000018"><a xlink:title=" ">
<path fill="none" stroke="#63b8ff" d="M65.15,-250.73C74.52,-223.61 104.91,-146.29 158,-108.38 168.35,-101 181.31,-96.61 193.58,-94.01"/>
<polygon fill="#63b8ff" stroke="#63b8ff" points="194.42,-97.42 203.65,-92.22 193.2,-90.52 194.42,-97.42"/>
</a>
</g>
</g>
<!-- Node19 -->
<g id="Node000019" class="node">
<title>Node19</title>
<g id="a_Node000019"><a xlink:href="AP__Math_8h.html#a34f41fcf2bc527b1728ae04423dfba46" target="_top" xlink:title=" ">
<polygon fill="white" stroke="#666666" points="249.5,-62.88 220.5,-62.88 220.5,-43.88 249.5,-43.88 249.5,-62.88"/>
<text text-anchor="middle" x="235" y="-50.88" font-family="Helvetica,sans-Serif" font-size="10.00">sq</text>
</a>
</g>
</g>
<!-- Node1&#45;&gt;Node19 -->
<g id="edge24_Node000001_Node000019" class="edge">
<title>Node1&#45;&gt;Node19</title>
<g id="a_edge24_Node000001_Node000019"><a xlink:title=" ">
<path fill="none" stroke="#63b8ff" d="M63.91,-250.72C70.61,-219.44 96.11,-120.09 158,-71.38 172.81,-59.73 193.93,-55.43 210.15,-53.93"/>
<polygon fill="#63b8ff" stroke="#63b8ff" points="210.69,-57.4 220.45,-53.28 210.25,-50.41 210.69,-57.4"/>
</a>
</g>
</g>
<!-- Node20 -->
<g id="Node000020" class="node">
<title>Node20</title>
<g id="a_Node000020"><a xlink:href="classSITL_1_1Sailboat.html#a79d8e59525def2b6426035a1e4ebf691" target="_top" xlink:title=" ">
<polygon fill="white" stroke="#666666" points="312,-210.88 158,-210.88 158,-191.88 312,-191.88 312,-210.88"/>
<text text-anchor="middle" x="235" y="-198.88" font-family="Helvetica,sans-Serif" font-size="10.00">SITL::Sailboat::update_wave</text>
</a>
</g>
</g>
<!-- Node1&#45;&gt;Node20 -->
<g id="edge25_Node000001_Node000020" class="edge">
<title>Node1&#45;&gt;Node20</title>
<g id="a_edge25_Node000001_Node000020"><a xlink:title=" ">
<path fill="none" stroke="#63b8ff" d="M87.16,-250.87C106.46,-243.65 133.81,-233.61 158,-225.38 169.35,-221.53 181.72,-217.53 193.12,-213.93"/>
<polygon fill="#63b8ff" stroke="#63b8ff" points="194.34,-217.22 202.84,-210.89 192.25,-210.54 194.34,-217.22"/>
</a>
</g>
</g>
<!-- Node2&#45;&gt;Node3 -->
<g id="edge2_Node000002_Node000003" class="edge">
<title>Node2&#45;&gt;Node3</title>
<g id="a_edge2_Node000002_Node000003"><a xlink:title=" ">
<path fill="none" stroke="#63b8ff" d="M289.01,-494.71C310.65,-499.75 335.58,-505.54 357.01,-510.53"/>
<polygon fill="#63b8ff" stroke="#63b8ff" points="356.37,-513.97 366.91,-512.83 357.96,-507.15 356.37,-513.97"/>
</a>
</g>
</g>
<!-- Node2&#45;&gt;Node5 -->
<g id="edge4_Node000002_Node000005" class="edge">
<title>Node2&#45;&gt;Node5</title>
<g id="a_edge4_Node000002_Node000005"><a xlink:title=" ">
<path fill="none" stroke="#63b8ff" d="M289.01,-470.06C312.46,-464.6 339.77,-458.25 362.31,-453.01"/>
<polygon fill="#63b8ff" stroke="#63b8ff" points="363.35,-456.36 372.3,-450.69 361.77,-449.54 363.35,-456.36"/>
</a>
</g>
</g>
<!-- Node6 -->
<g id="Node000006" class="node">
<title>Node6</title>
<g id="a_Node000006"><a xlink:href="AP__Math_8cpp.html#ae2d4d03c107c3e6a127fb167e3908aa2" target="_top" xlink:title=" ">
<polygon fill="white" stroke="#666666" points="460.5,-491.88 357.5,-491.88 357.5,-472.88 460.5,-472.88 460.5,-491.88"/>
<text text-anchor="middle" x="409" y="-479.88" font-family="Helvetica,sans-Serif" font-size="10.00">linear_interpolate</text>
</a>
</g>
</g>
<!-- Node2&#45;&gt;Node6 -->
<g id="edge5_Node000002_Node000006" class="edge">
<title>Node2&#45;&gt;Node6</title>
<g id="a_edge5_Node000002_Node000006"><a xlink:title=" ">
<path fill="none" stroke="#63b8ff" d="M289.01,-482.38C307.42,-482.38 328.2,-482.38 347.19,-482.38"/>
<polygon fill="#63b8ff" stroke="#63b8ff" points="347.23,-485.88 357.23,-482.38 347.23,-478.88 347.23,-485.88"/>
</a>
</g>
</g>
<!-- Node2&#45;&gt;Node8 -->
<g id="edge7_Node000002_Node000008" class="edge">
<title>Node2&#45;&gt;Node8</title>
<g id="a_edge7_Node000002_Node000008"><a xlink:title=" ">
<path fill="none" stroke="#63b8ff" d="M262.09,-467.25C284.41,-454.69 317.65,-436.94 348,-424.38 354.03,-421.89 360.51,-419.53 366.91,-417.37"/>
<polygon fill="#63b8ff" stroke="#63b8ff" points="368.37,-420.57 376.81,-414.15 366.21,-413.91 368.37,-420.57"/>
</a>
</g>
</g>
<!-- Node4 -->
<g id="Node000004" class="node">
<title>Node4</title>
<g id="a_Node000004"><a xlink:href="AP__Math_8cpp.html#a20e8f8671c282c69c1954652b6d61585" target="_top" xlink:title=" ">
<polygon fill="white" stroke="#666666" points="600,-531.88 506,-531.88 506,-512.88 600,-512.88 600,-531.88"/>
<text text-anchor="middle" x="553" y="-519.88" font-family="Helvetica,sans-Serif" font-size="10.00">constrain_value</text>
</a>
</g>
</g>
<!-- Node3&#45;&gt;Node4 -->
<g id="edge3_Node000003_Node000004" class="edge">
<title>Node3&#45;&gt;Node4</title>
<g id="a_edge3_Node000003_Node000004"><a xlink:title=" ">
<path fill="none" stroke="#63b8ff" d="M455.32,-522.38C468.13,-522.38 482.22,-522.38 495.59,-522.38"/>
<polygon fill="#63b8ff" stroke="#63b8ff" points="495.65,-525.88 505.65,-522.38 495.65,-518.88 495.65,-525.88"/>
</a>
</g>
</g>
<!-- Node7 -->
<g id="Node000007" class="node">
<title>Node7</title>
<g id="a_Node000007"><a xlink:href="AP__Math_8cpp.html#a61943c08873529b6aeb6e9cc14dd9152" target="_top" xlink:title=" ">
<polygon fill="white" stroke="#666666" points="587.5,-491.88 518.5,-491.88 518.5,-472.88 587.5,-472.88 587.5,-491.88"/>
<text text-anchor="middle" x="553" y="-479.88" font-family="Helvetica,sans-Serif" font-size="10.00">swap_float</text>
</a>
</g>
</g>
<!-- Node6&#45;&gt;Node7 -->
<g id="edge6_Node000006_Node000007" class="edge">
<title>Node6&#45;&gt;Node7</title>
<g id="a_edge6_Node000006_Node000007"><a xlink:title=" ">
<path fill="none" stroke="#63b8ff" d="M460.86,-482.38C476.38,-482.38 493.3,-482.38 508.3,-482.38"/>
<polygon fill="#63b8ff" stroke="#63b8ff" points="508.34,-485.88 518.34,-482.38 508.34,-478.88 508.34,-485.88"/>
</a>
</g>
</g>
<!-- Node9 -->
<g id="Node000009" class="node">
<title>Node9</title>
<g id="a_Node000009"><a xlink:href="AP__Math_8cpp.html#ad2245faee11bdecf357553e7807dc068" target="_top" xlink:title=" ">
<polygon fill="white" stroke="#666666" points="585,-414.88 521,-414.88 521,-395.88 585,-395.88 585,-414.88"/>
<text text-anchor="middle" x="553" y="-402.88" font-family="Helvetica,sans-Serif" font-size="10.00">wrap_360</text>
</a>
</g>
</g>
<!-- Node8&#45;&gt;Node9 -->
<g id="edge8_Node000008_Node000009" class="edge">
<title>Node8&#45;&gt;Node9</title>
<g id="a_edge8_Node000008_Node000009"><a xlink:title=" ">
<path fill="none" stroke="#63b8ff" d="M441.16,-405.38C461.6,-405.38 488.55,-405.38 510.76,-405.38"/>
<polygon fill="#63b8ff" stroke="#63b8ff" points="510.91,-408.88 520.91,-405.38 510.91,-401.88 510.91,-408.88"/>
</a>
</g>
</g>
<!-- Node13 -->
<g id="Node000013" class="node">
<title>Node13</title>
<g id="a_Node000013"><a xlink:href="classSITL_1_1Sailboat.html#abebb619e756195ee296ac2666b626a58" target="_top" xlink:title=" ">
<polygon fill="white" stroke="#666666" points="461,-261.38 357,-261.38 357,-231.38 461,-231.38 461,-261.38"/>
<text text-anchor="start" x="365" y="-249.38" font-family="Helvetica,sans-Serif" font-size="10.00">SITL::Sailboat::get</text>
<text text-anchor="middle" x="409" y="-238.38" font-family="Helvetica,sans-Serif" font-size="10.00">_turn_circle</text>
</a>
</g>
</g>
<!-- Node12&#45;&gt;Node13 -->
<g id="edge13_Node000012_Node000013" class="edge">
<title>Node12&#45;&gt;Node13</title>
<g id="a_edge13_Node000012_Node000013"><a xlink:title=" ">
<path fill="none" stroke="#63b8ff" d="M287.14,-271.68C305.86,-267.76 327.23,-263.29 346.75,-259.2"/>
<polygon fill="#63b8ff" stroke="#63b8ff" points="347.69,-262.58 356.76,-257.11 346.26,-255.73 347.69,-262.58"/>
</a>
</g>
</g>
<!-- Node12&#45;&gt;Node14 -->
<g id="edge17_Node000012_Node000014" class="edge">
<title>Node12&#45;&gt;Node14</title>
<g id="a_edge17_Node000012_Node000014"><a xlink:title=" ">
<path fill="none" stroke="#63b8ff" d="M287.12,-279.96C351.78,-276.89 461.39,-271.69 517.16,-269.04"/>
<polygon fill="#63b8ff" stroke="#63b8ff" points="517.42,-272.53 527.24,-268.56 517.09,-265.54 517.42,-272.53"/>
</a>
</g>
</g>
<!-- Node13&#45;&gt;Node14 -->
<g id="edge14_Node000013_Node000014" class="edge">
<title>Node13&#45;&gt;Node14</title>
<g id="a_edge14_Node000013_Node000014"><a xlink:title=" ">
<path fill="none" stroke="#63b8ff" d="M461.27,-253.97C479.95,-256.73 500.61,-259.78 517.5,-262.28"/>
<polygon fill="#63b8ff" stroke="#63b8ff" points="517.06,-265.76 527.47,-263.76 518.09,-258.83 517.06,-265.76"/>
</a>
</g>
</g>
<!-- Node13&#45;&gt;Node15 -->
<g id="edge16_Node000013_Node000015" class="edge">
<title>Node13&#45;&gt;Node15</title>
<g id="a_edge16_Node000013_Node000015"><a xlink:title=" ">
<path fill="none" stroke="#63b8ff" d="M457.02,-231.26C461.67,-228.71 466.1,-225.77 470,-222.38 509.64,-187.95 534.58,-129.42 545.53,-99.02"/>
<polygon fill="#63b8ff" stroke="#63b8ff" points="548.97,-99.79 548.93,-89.19 542.35,-97.5 548.97,-99.79"/>
</a>
</g>
</g>
<!-- Node14&#45;&gt;Node14 -->
<g id="edge15_Node000014_Node000014" class="edge">
<title>Node14&#45;&gt;Node14</title>
<g id="a_edge15_Node000014_Node000014"><a xlink:title=" ">
<path fill="none" stroke="#63b8ff" d="M530.81,-276.97C520.01,-285.62 527.41,-294.88 553,-294.88 569.4,-294.88 578.32,-291.08 579.79,-286.07"/>
<polygon fill="#63b8ff" stroke="#63b8ff" points="582.82,-284.32 575.19,-276.97 576.57,-287.47 582.82,-284.32"/>
</a>
</g>
</g>
<!-- Node20&#45;&gt;Node11 -->
<g id="edge26_Node000020_Node000011" class="edge">
<title>Node20&#45;&gt;Node11</title>
<g id="a_edge26_Node000020_Node000011"><a xlink:title=" ">
<path fill="none" stroke="#63b8ff" d="M312.19,-200.06C320.69,-199.91 329.32,-199.76 337.73,-199.61"/>
<polygon fill="#63b8ff" stroke="#63b8ff" points="337.94,-203.11 347.87,-199.43 337.81,-196.11 337.94,-203.11"/>
</a>
</g>
</g>
<!-- Node20&#45;&gt;Node14 -->
<g id="edge27_Node000020_Node000014" class="edge">
<title>Node20&#45;&gt;Node14</title>
<g id="a_edge27_Node000020_Node000014"><a xlink:title=" ">
<path fill="none" stroke="#63b8ff" d="M276.65,-191.86C288.09,-189.15 300.54,-186.17 312,-183.38 380.34,-166.75 405.89,-145.44 470,-174.38 503.67,-189.58 529.04,-226.2 542.12,-248.68"/>
<polygon fill="#63b8ff" stroke="#63b8ff" points="539.17,-250.59 547.1,-257.62 545.29,-247.18 539.17,-250.59"/>
</a>
</g>
</g>
<!-- Node20&#45;&gt;Node15 -->
<g id="edge28_Node000020_Node000015" class="edge">
<title>Node20&#45;&gt;Node15</title>
<g id="a_edge28_Node000020_Node000015"><a xlink:title=" ">
<path fill="none" stroke="#63b8ff" d="M298.54,-191.87C303.39,-189.59 307.96,-186.8 312,-183.38 343.34,-156.91 314.89,-122.61 348,-98.38 397.3,-62.32 472.26,-66.09 516.27,-72.48"/>
<polygon fill="#63b8ff" stroke="#63b8ff" points="515.8,-75.95 526.22,-74.05 516.89,-69.04 515.8,-75.95"/>
</a>
</g>
</g>
<!-- Node21 -->
<g id="Node000021" class="node">
<title>Node21</title>
<g id="a_Node000021"><a xlink:href="AP__Math_8cpp.html#a353dfb5c2fca0a8a40ccab3b811cfe64" target="_top" xlink:title=" ">
<polygon fill="white" stroke="#666666" points="439.5,-126.88 378.5,-126.88 378.5,-107.88 439.5,-107.88 439.5,-126.88"/>
<text text-anchor="middle" x="409" y="-114.88" font-family="Helvetica,sans-Serif" font-size="10.00">wrap_2PI</text>
</a>
</g>
</g>
<!-- Node20&#45;&gt;Node21 -->
<g id="edge29_Node000020_Node000021" class="edge">
<title>Node20&#45;&gt;Node21</title>
<g id="a_edge29_Node000020_Node000021"><a xlink:title=" ">
<path fill="none" stroke="#63b8ff" d="M293.98,-191.75C300.3,-189.52 306.44,-186.77 312,-183.38 332.99,-170.59 328.01,-155.7 348,-141.38 354.27,-136.89 361.5,-133.09 368.72,-129.91"/>
<polygon fill="#63b8ff" stroke="#63b8ff" points="370.51,-132.97 378.48,-125.98 367.89,-126.48 370.51,-132.97"/>
</a>
</g>
</g>
</g>
</svg>
