<?xml version="1.0" encoding="UTF-8" standalone="no"?>
<!DOCTYPE svg PUBLIC "-//W3C//DTD SVG 1.1//EN"
 "http://www.w3.org/Graphics/SVG/1.1/DTD/svg11.dtd">
<!-- Generated by graphviz version 2.43.0 (0)
 -->
<!-- Title: AP_Logger_W25N01GV::WriteEnable Pages: 1 -->
<svg width="1026pt" height="198pt"
 viewBox="0.00 0.00 1026.00 197.84" xmlns="http://www.w3.org/2000/svg" xmlns:xlink="http://www.w3.org/1999/xlink">
<g id="graph0" class="graph" transform="scale(1 1) rotate(0) translate(4 193.84)">
<title>AP_Logger_W25N01GV::WriteEnable</title>
<!-- Node1 -->
<g id="Node000001" class="node">
<title>Node1</title>
<g id="a_Node000001"><a xlink:title=" ">
<polygon fill="#999999" stroke="#666666" points="128,-173.5 0,-173.5 0,-143.5 128,-143.5 128,-173.5"/>
<text text-anchor="start" x="8" y="-161.5" font-family="Helvetica,sans-Serif" font-size="10.00">AP_Logger_W25N01GV</text>
<text text-anchor="middle" x="64" y="-150.5" font-family="Helvetica,sans-Serif" font-size="10.00">::WriteEnable</text>
</a>
</g>
</g>
<!-- Node2 -->
<g id="Node000002" class="node">
<title>Node2</title>
<g id="a_Node000002"><a xlink:href="classAP__HAL_1_1SPIDevice.html#a57f3011db8365847b675246cbd0ccc7f" target="_top" xlink:title=" ">
<polygon fill="white" stroke="#666666" points="771,-173.5 656,-173.5 656,-143.5 771,-143.5 771,-173.5"/>
<text text-anchor="start" x="664" y="-161.5" font-family="Helvetica,sans-Serif" font-size="10.00">AP_HAL::SPIDevice::</text>
<text text-anchor="middle" x="713.5" y="-150.5" font-family="Helvetica,sans-Serif" font-size="10.00">transfer</text>
</a>
</g>
</g>
<!-- Node1&#45;&gt;Node2 -->
<g id="edge1_Node000001_Node000002" class="edge">
<title>Node1&#45;&gt;Node2</title>
<g id="a_edge1_Node000001_Node000002"><a xlink:title=" ">
<path fill="none" stroke="#63b8ff" d="M128.09,-167.38C231.31,-180.48 442.58,-201.31 620,-180.5 629.37,-179.4 639.17,-177.7 648.73,-175.71"/>
<polygon fill="#63b8ff" stroke="#63b8ff" points="649.57,-179.11 658.59,-173.55 648.07,-172.27 649.57,-179.11"/>
</a>
</g>
</g>
<!-- Node3 -->
<g id="Node000003" class="node">
<title>Node3</title>
<g id="a_Node000003"><a xlink:href="classAP__Logger__W25N01GV.html#a17fc380bde0597ee7c4680df01c023bc" target="_top" xlink:title=" ">
<polygon fill="white" stroke="#666666" points="292,-133.5 164,-133.5 164,-103.5 292,-103.5 292,-133.5"/>
<text text-anchor="start" x="172" y="-121.5" font-family="Helvetica,sans-Serif" font-size="10.00">AP_Logger_W25N01GV</text>
<text text-anchor="middle" x="228" y="-110.5" font-family="Helvetica,sans-Serif" font-size="10.00">::WaitReady</text>
</a>
</g>
</g>
<!-- Node1&#45;&gt;Node3 -->
<g id="edge2_Node000001_Node000003" class="edge">
<title>Node1&#45;&gt;Node3</title>
<g id="a_edge2_Node000001_Node000003"><a xlink:title=" ">
<path fill="none" stroke="#63b8ff" d="M125.78,-143.49C135.68,-141.05 146.01,-138.5 156.13,-136"/>
<polygon fill="#63b8ff" stroke="#63b8ff" points="157.28,-139.32 166.15,-133.53 155.6,-132.53 157.28,-139.32"/>
</a>
</g>
</g>
<!-- Node4 -->
<g id="Node000004" class="node">
<title>Node4</title>
<g id="a_Node000004"><a xlink:href="classAP__Logger__W25N01GV.html#a031ff0a4eacffc84b86dd382454daa2a" target="_top" xlink:title=" ">
<polygon fill="white" stroke="#666666" points="456,-133.5 328,-133.5 328,-103.5 456,-103.5 456,-133.5"/>
<text text-anchor="start" x="336" y="-121.5" font-family="Helvetica,sans-Serif" font-size="10.00">AP_Logger_W25N01GV</text>
<text text-anchor="middle" x="392" y="-110.5" font-family="Helvetica,sans-Serif" font-size="10.00">::Busy</text>
</a>
</g>
</g>
<!-- Node3&#45;&gt;Node4 -->
<g id="edge3_Node000003_Node000004" class="edge">
<title>Node3&#45;&gt;Node4</title>
<g id="a_edge3_Node000003_Node000004"><a xlink:title=" ">
<path fill="none" stroke="#63b8ff" d="M292.1,-118.5C300.43,-118.5 309.04,-118.5 317.53,-118.5"/>
<polygon fill="#63b8ff" stroke="#63b8ff" points="317.81,-122 327.81,-118.5 317.81,-115 317.81,-122"/>
</a>
</g>
</g>
<!-- Node5 -->
<g id="Node000005" class="node">
<title>Node5</title>
<g id="a_Node000005"><a xlink:href="stdio_8h.html#a55f3d956bb2ba20b5059e9e25484a47f" target="_top" xlink:title=" ">
<polygon fill="white" stroke="#666666" points="577.5,-171 534.5,-171 534.5,-152 577.5,-152 577.5,-171"/>
<text text-anchor="middle" x="556" y="-159" font-family="Helvetica,sans-Serif" font-size="10.00">printf</text>
</a>
</g>
</g>
<!-- Node3&#45;&gt;Node5 -->
<g id="edge15_Node000003_Node000005" class="edge">
<title>Node3&#45;&gt;Node5</title>
<g id="a_edge15_Node000003_Node000005"><a xlink:title=" ">
<path fill="none" stroke="#63b8ff" d="M284.45,-133.54C298.57,-136.92 313.77,-140.19 328,-142.5 397.6,-153.78 480.37,-158.56 524.19,-160.43"/>
<polygon fill="#63b8ff" stroke="#63b8ff" points="524.08,-163.93 534.21,-160.83 524.36,-156.93 524.08,-163.93"/>
</a>
</g>
</g>
<!-- Node7 -->
<g id="Node000007" class="node">
<title>Node7</title>
<g id="a_Node000007"><a xlink:href="classAP__HAL_1_1Scheduler.html#a78c4f1b1f192ac1c99544b6cc8f099b0" target="_top" xlink:title=" ">
<polygon fill="white" stroke="#666666" points="450,-85.5 334,-85.5 334,-55.5 450,-55.5 450,-85.5"/>
<text text-anchor="start" x="342" y="-73.5" font-family="Helvetica,sans-Serif" font-size="10.00">AP_HAL::Scheduler::</text>
<text text-anchor="middle" x="392" y="-62.5" font-family="Helvetica,sans-Serif" font-size="10.00">delay_microseconds</text>
</a>
</g>
</g>
<!-- Node3&#45;&gt;Node7 -->
<g id="edge7_Node000003_Node000007" class="edge">
<title>Node3&#45;&gt;Node7</title>
<g id="a_edge7_Node000003_Node000007"><a xlink:title=" ">
<path fill="none" stroke="#63b8ff" d="M279.81,-103.44C295.95,-98.66 313.95,-93.33 330.68,-88.37"/>
<polygon fill="#63b8ff" stroke="#63b8ff" points="331.77,-91.7 340.37,-85.5 329.78,-84.99 331.77,-91.7"/>
</a>
</g>
</g>
<!-- Node8 -->
<g id="Node000008" class="node">
<title>Node8</title>
<g id="a_Node000008"><a xlink:href="namespaceAP__HAL.html#a77dffbb18891996280308e21316ec186" target="_top" xlink:title=" ">
<polygon fill="white" stroke="#666666" points="435.5,-37 348.5,-37 348.5,-18 435.5,-18 435.5,-37"/>
<text text-anchor="middle" x="392" y="-25" font-family="Helvetica,sans-Serif" font-size="10.00">AP_HAL::millis</text>
</a>
</g>
</g>
<!-- Node3&#45;&gt;Node8 -->
<g id="edge8_Node000003_Node000008" class="edge">
<title>Node3&#45;&gt;Node8</title>
<g id="a_edge8_Node000003_Node000008"><a xlink:title=" ">
<path fill="none" stroke="#63b8ff" d="M246.07,-103.29C264.93,-87.19 296.78,-62 328,-46.5 332.55,-44.24 337.42,-42.19 342.37,-40.35"/>
<polygon fill="#63b8ff" stroke="#63b8ff" points="343.59,-43.63 351.9,-37.06 341.3,-37.01 343.59,-43.63"/>
</a>
</g>
</g>
<!-- Node4&#45;&gt;Node5 -->
<g id="edge4_Node000004_Node000005" class="edge">
<title>Node4&#45;&gt;Node5</title>
<g id="a_edge4_Node000004_Node000005"><a xlink:title=" ">
<path fill="none" stroke="#63b8ff" d="M449.66,-133.54C474.91,-140.24 503.64,-147.87 524.71,-153.46"/>
<polygon fill="#63b8ff" stroke="#63b8ff" points="523.82,-156.85 534.38,-156.03 525.62,-150.08 523.82,-156.85"/>
</a>
</g>
</g>
<!-- Node6 -->
<g id="Node000006" class="node">
<title>Node6</title>
<g id="a_Node000006"><a xlink:href="classAP__Logger__W25N01GV.html#add5cdc3a71b1a0dd83e95e50eab861a4" target="_top" xlink:title=" ">
<polygon fill="white" stroke="#666666" points="620,-133.5 492,-133.5 492,-103.5 620,-103.5 620,-133.5"/>
<text text-anchor="start" x="500" y="-121.5" font-family="Helvetica,sans-Serif" font-size="10.00">AP_Logger_W25N01GV</text>
<text text-anchor="middle" x="556" y="-110.5" font-family="Helvetica,sans-Serif" font-size="10.00">::ReadStatusRegBits</text>
</a>
</g>
</g>
<!-- Node4&#45;&gt;Node6 -->
<g id="edge5_Node000004_Node000006" class="edge">
<title>Node4&#45;&gt;Node6</title>
<g id="a_edge5_Node000004_Node000006"><a xlink:title=" ">
<path fill="none" stroke="#63b8ff" d="M456.1,-118.5C464.43,-118.5 473.04,-118.5 481.53,-118.5"/>
<polygon fill="#63b8ff" stroke="#63b8ff" points="481.81,-122 491.81,-118.5 481.81,-115 481.81,-122"/>
</a>
</g>
</g>
<!-- Node6&#45;&gt;Node2 -->
<g id="edge6_Node000006_Node000002" class="edge">
<title>Node6&#45;&gt;Node2</title>
<g id="a_edge6_Node000006_Node000002"><a xlink:title=" ">
<path fill="none" stroke="#63b8ff" d="M615.34,-133.51C625.4,-136.1 635.92,-138.8 646.17,-141.44"/>
<polygon fill="#63b8ff" stroke="#63b8ff" points="645.34,-144.84 655.89,-143.94 647.08,-138.06 645.34,-144.84"/>
</a>
</g>
</g>
<!-- Node9 -->
<g id="Node000009" class="node">
<title>Node9</title>
<g id="a_Node000009"><a xlink:href="hrt_8c.html#a1295f128f60d29874243b5733c4db025" target="_top" xlink:title=" ">
<polygon fill="white" stroke="#666666" points="593,-37 519,-37 519,-18 593,-18 593,-37"/>
<text text-anchor="middle" x="556" y="-25" font-family="Helvetica,sans-Serif" font-size="10.00">hrt_millis32</text>
</a>
</g>
</g>
<!-- Node8&#45;&gt;Node9 -->
<g id="edge9_Node000008_Node000009" class="edge">
<title>Node8&#45;&gt;Node9</title>
<g id="a_edge9_Node000008_Node000009"><a xlink:title=" ">
<path fill="none" stroke="#63b8ff" d="M435.56,-27.5C458,-27.5 485.56,-27.5 508.55,-27.5"/>
<polygon fill="#63b8ff" stroke="#63b8ff" points="508.76,-31 518.76,-27.5 508.76,-24 508.76,-31"/>
</a>
</g>
</g>
<!-- Node10 -->
<g id="Node000010" class="node">
<title>Node10</title>
<g id="a_Node000010"><a xlink:href="hrt_8c.html#a7dd7d90aadd8f76f26da7d5abfad6fe8" target="_top" xlink:title=" ">
<polygon fill="white" stroke="#666666" points="750.5,-37 676.5,-37 676.5,-18 750.5,-18 750.5,-37"/>
<text text-anchor="middle" x="713.5" y="-25" font-family="Helvetica,sans-Serif" font-size="10.00">hrt_millis64</text>
</a>
</g>
</g>
<!-- Node9&#45;&gt;Node10 -->
<g id="edge10_Node000009_Node000010" class="edge">
<title>Node9&#45;&gt;Node10</title>
<g id="a_edge10_Node000009_Node000010"><a xlink:title=" ">
<path fill="none" stroke="#63b8ff" d="M593.07,-27.5C614.87,-27.5 642.89,-27.5 666.3,-27.5"/>
<polygon fill="#63b8ff" stroke="#63b8ff" points="666.36,-31 676.36,-27.5 666.36,-24 666.36,-31"/>
</a>
</g>
</g>
<!-- Node11 -->
<g id="Node000011" class="node">
<title>Node11</title>
<g id="a_Node000011"><a xlink:href="hrt_8c.html#a152c3348a8e83f2dfe35b44cc2e30362" target="_top" xlink:title=" ">
<polygon fill="white" stroke="#666666" points="893,-56 813,-56 813,-37 893,-37 893,-56"/>
<text text-anchor="middle" x="853" y="-44" font-family="Helvetica,sans-Serif" font-size="10.00">hrt_micros64</text>
</a>
</g>
</g>
<!-- Node10&#45;&gt;Node11 -->
<g id="edge11_Node000010_Node000011" class="edge">
<title>Node10&#45;&gt;Node11</title>
<g id="a_edge11_Node000010_Node000011"><a xlink:title=" ">
<path fill="none" stroke="#63b8ff" d="M750.63,-32.49C766.44,-34.68 785.25,-37.28 802.35,-39.64"/>
<polygon fill="#63b8ff" stroke="#63b8ff" points="802.35,-43.17 812.74,-41.07 803.31,-36.24 802.35,-43.17"/>
</a>
</g>
</g>
<!-- Node14 -->
<g id="Node000014" class="node">
<title>Node14</title>
<g id="a_Node000014"><a xlink:href="div1000_8h.html#aece9e7f123414c41d0426fbadca097d8" target="_top" xlink:title=" ">
<polygon fill="white" stroke="#666666" points="899,-19 807,-19 807,0 899,0 899,-19"/>
<text text-anchor="middle" x="853" y="-7" font-family="Helvetica,sans-Serif" font-size="10.00">uint64_div1000</text>
</a>
</g>
</g>
<!-- Node10&#45;&gt;Node14 -->
<g id="edge14_Node000010_Node000014" class="edge">
<title>Node10&#45;&gt;Node14</title>
<g id="a_edge14_Node000010_Node000014"><a xlink:title=" ">
<path fill="none" stroke="#63b8ff" d="M750.63,-22.77C764.72,-20.93 781.21,-18.77 796.73,-16.74"/>
<polygon fill="#63b8ff" stroke="#63b8ff" points="797.3,-20.19 806.76,-15.42 796.39,-13.25 797.3,-20.19"/>
</a>
</g>
</g>
<!-- Node12 -->
<g id="Node000012" class="node">
<title>Node12</title>
<g id="a_Node000012"><a xlink:href="hrt_8c.html#a5b4ffc7ff86bd5b893c4a98834e80200" target="_top" xlink:title=" ">
<polygon fill="white" stroke="#666666" points="1018,-75 935,-75 935,-56 1018,-56 1018,-75"/>
<text text-anchor="middle" x="976.5" y="-63" font-family="Helvetica,sans-Serif" font-size="10.00">hrt_micros64I</text>
</a>
</g>
</g>
<!-- Node11&#45;&gt;Node12 -->
<g id="edge12_Node000011_Node000012" class="edge">
<title>Node11&#45;&gt;Node12</title>
<g id="a_edge12_Node000011_Node000012"><a xlink:title=" ">
<path fill="none" stroke="#63b8ff" d="M893.11,-52.62C903.21,-54.19 914.22,-55.92 924.81,-57.57"/>
<polygon fill="#63b8ff" stroke="#63b8ff" points="924.37,-61.05 934.79,-59.13 925.45,-54.13 924.37,-61.05"/>
</a>
</g>
</g>
<!-- Node13 -->
<g id="Node000013" class="node">
<title>Node13</title>
<g id="a_Node000013"><a xlink:href="hrt_8c.html#a723fef85be7bacb834af35445a891c18" target="_top" xlink:title=" ">
<polygon fill="white" stroke="#666666" points="1007.5,-38 945.5,-38 945.5,-19 1007.5,-19 1007.5,-38"/>
<text text-anchor="middle" x="976.5" y="-26" font-family="Helvetica,sans-Serif" font-size="10.00">is_locked</text>
</a>
</g>
</g>
<!-- Node11&#45;&gt;Node13 -->
<g id="edge13_Node000011_Node000013" class="edge">
<title>Node11&#45;&gt;Node13</title>
<g id="a_edge13_Node000011_Node000013"><a xlink:title=" ">
<path fill="none" stroke="#63b8ff" d="M893.11,-40.71C906.6,-38.71 921.73,-36.47 935.3,-34.46"/>
<polygon fill="#63b8ff" stroke="#63b8ff" points="935.95,-37.9 945.32,-32.97 934.92,-30.97 935.95,-37.9"/>
</a>
</g>
</g>
</g>
</svg>
