<?xml version="1.0" encoding="UTF-8" standalone="no"?>
<!DOCTYPE svg PUBLIC "-//W3C//DTD SVG 1.1//EN"
 "http://www.w3.org/Graphics/SVG/1.1/DTD/svg11.dtd">
<!-- Generated by graphviz version 2.43.0 (0)
 -->
<!-- Title: AP_MotorsMatrix::add_motor_raw Pages: 1 -->
<svg width="1035pt" height="254pt"
 viewBox="0.00 0.00 1035.00 254.00" xmlns="http://www.w3.org/2000/svg" xmlns:xlink="http://www.w3.org/1999/xlink">
<g id="graph0" class="graph" transform="scale(1 1) rotate(0) translate(4 250)">
<title>AP_MotorsMatrix::add_motor_raw</title>
<!-- Node1 -->
<g id="Node000001" class="node">
<title>Node1</title>
<g id="a_Node000001"><a xlink:title=" ">
<polygon fill="#999999" stroke="#666666" points="1027,-198 903,-198 903,-168 1027,-168 1027,-198"/>
<text text-anchor="start" x="911" y="-186" font-family="Helvetica,sans-Serif" font-size="10.00">AP_MotorsMatrix::add</text>
<text text-anchor="middle" x="965" y="-175" font-family="Helvetica,sans-Serif" font-size="10.00">_motor_raw</text>
</a>
</g>
</g>
<!-- Node2 -->
<g id="Node000002" class="node">
<title>Node2</title>
<g id="a_Node000002"><a xlink:href="classAP__MotorsMatrix.html#acee5f69304786deff28075ae14eb6a46" target="_top" xlink:title=" ">
<polygon fill="white" stroke="#666666" points="867,-246 743,-246 743,-216 867,-216 867,-246"/>
<text text-anchor="start" x="751" y="-234" font-family="Helvetica,sans-Serif" font-size="10.00">AP_MotorsMatrix::add</text>
<text text-anchor="middle" x="805" y="-223" font-family="Helvetica,sans-Serif" font-size="10.00">_motor</text>
</a>
</g>
</g>
<!-- Node1&#45;&gt;Node2 -->
<g id="edge1_Node000001_Node000002" class="edge">
<title>Node1&#45;&gt;Node2</title>
<g id="a_edge1_Node000001_Node000002"><a xlink:title=" ">
<path fill="none" stroke="#63b8ff" d="M904.53,-201.07C888.33,-205.99 870.96,-211.27 855.38,-216"/>
<polygon fill="#63b8ff" stroke="#63b8ff" points="905.89,-204.31 914.44,-198.06 903.86,-197.61 905.89,-204.31"/>
</a>
</g>
</g>
<!-- Node3 -->
<g id="Node000003" class="node">
<title>Node3</title>
<g id="a_Node000003"><a xlink:href="classAP__Motors6DOF.html#ac454275ad3ea3fc58279921e7fccd487" target="_top" xlink:title=" ">
<polygon fill="white" stroke="#666666" points="864.5,-198 745.5,-198 745.5,-168 864.5,-168 864.5,-198"/>
<text text-anchor="start" x="753.5" y="-186" font-family="Helvetica,sans-Serif" font-size="10.00">AP_Motors6DOF::add</text>
<text text-anchor="middle" x="805" y="-175" font-family="Helvetica,sans-Serif" font-size="10.00">_motor_raw_6dof</text>
</a>
</g>
</g>
<!-- Node1&#45;&gt;Node3 -->
<g id="edge2_Node000001_Node000003" class="edge">
<title>Node1&#45;&gt;Node3</title>
<g id="a_edge2_Node000001_Node000003"><a xlink:title=" ">
<path fill="none" stroke="#63b8ff" d="M892.77,-183C883.34,-183 873.77,-183 864.59,-183"/>
<polygon fill="#63b8ff" stroke="#63b8ff" points="892.91,-186.5 902.91,-183 892.91,-179.5 892.91,-186.5"/>
</a>
</g>
</g>
<!-- Node5 -->
<g id="Node000005" class="node">
<title>Node5</title>
<g id="a_Node000005"><a xlink:href="classAP__MotorsMatrix.html#a74e8c3d874843d2d7681d0f265642b81" target="_top" xlink:title=" ">
<polygon fill="white" stroke="#666666" points="867,-126 743,-126 743,-96 867,-96 867,-126"/>
<text text-anchor="start" x="751" y="-114" font-family="Helvetica,sans-Serif" font-size="10.00">AP_MotorsMatrix::add</text>
<text text-anchor="middle" x="805" y="-103" font-family="Helvetica,sans-Serif" font-size="10.00">_motors_raw</text>
</a>
</g>
</g>
<!-- Node1&#45;&gt;Node5 -->
<g id="edge4_Node000001_Node000005" class="edge">
<title>Node1&#45;&gt;Node5</title>
<g id="a_edge4_Node000001_Node000005"><a xlink:title=" ">
<path fill="none" stroke="#63b8ff" d="M921.67,-163.71C895.76,-151.9 863.08,-137.01 839.08,-126.07"/>
<polygon fill="#63b8ff" stroke="#63b8ff" points="920.33,-166.94 930.88,-167.91 923.23,-160.57 920.33,-166.94"/>
</a>
</g>
</g>
<!-- Node4 -->
<g id="Node000004" class="node">
<title>Node4</title>
<g id="a_Node000004"><a xlink:href="classAP__Motors6DOF.html#af9f238b776db93043513ef422c80559d" target="_top" xlink:title=" ">
<polygon fill="white" stroke="#666666" points="704.5,-222 576.5,-222 576.5,-192 704.5,-192 704.5,-222"/>
<text text-anchor="start" x="584.5" y="-210" font-family="Helvetica,sans-Serif" font-size="10.00">AP_Motors6DOF::setup</text>
<text text-anchor="middle" x="640.5" y="-199" font-family="Helvetica,sans-Serif" font-size="10.00">_motors</text>
</a>
</g>
</g>
<!-- Node3&#45;&gt;Node4 -->
<g id="edge3_Node000003_Node000004" class="edge">
<title>Node3&#45;&gt;Node4</title>
<g id="a_edge3_Node000003_Node000004"><a xlink:title=" ">
<path fill="none" stroke="#63b8ff" d="M735.31,-193.15C725.17,-194.64 714.77,-196.18 704.75,-197.66"/>
<polygon fill="#63b8ff" stroke="#63b8ff" points="735.95,-196.59 745.33,-191.66 734.93,-189.66 735.95,-196.59"/>
</a>
</g>
</g>
<!-- Node6 -->
<g id="Node000006" class="node">
<title>Node6</title>
<g id="a_Node000006"><a xlink:href="classAP__MotorsMatrix.html#a43b1907e98c53cf9fe41e5a872d9216c" target="_top" xlink:title=" ">
<polygon fill="white" stroke="#666666" points="707,-174 574,-174 574,-144 707,-144 707,-174"/>
<text text-anchor="start" x="582" y="-162" font-family="Helvetica,sans-Serif" font-size="10.00">AP_MotorsMatrix::setup</text>
<text text-anchor="middle" x="640.5" y="-151" font-family="Helvetica,sans-Serif" font-size="10.00">_hexa_matrix</text>
</a>
</g>
</g>
<!-- Node5&#45;&gt;Node6 -->
<g id="edge5_Node000005_Node000006" class="edge">
<title>Node5&#45;&gt;Node6</title>
<g id="a_edge5_Node000005_Node000006"><a xlink:title=" ">
<path fill="none" stroke="#63b8ff" d="M743.31,-128.93C726.51,-133.89 708.46,-139.22 692.29,-144"/>
<polygon fill="#63b8ff" stroke="#63b8ff" points="744.43,-132.25 753.03,-126.06 742.45,-125.53 744.43,-132.25"/>
</a>
</g>
</g>
<!-- Node12 -->
<g id="Node000012" class="node">
<title>Node12</title>
<g id="a_Node000012"><a xlink:href="classAP__MotorsMatrix.html#a6a8f8cc794e37c4e3bfb1d2e4689de4a" target="_top" xlink:title=" ">
<polygon fill="white" stroke="#666666" points="707,-126 574,-126 574,-96 707,-96 707,-126"/>
<text text-anchor="start" x="582" y="-114" font-family="Helvetica,sans-Serif" font-size="10.00">AP_MotorsMatrix::setup</text>
<text text-anchor="middle" x="640.5" y="-103" font-family="Helvetica,sans-Serif" font-size="10.00">_octa_matrix</text>
</a>
</g>
</g>
<!-- Node5&#45;&gt;Node12 -->
<g id="edge11_Node000005_Node000012" class="edge">
<title>Node5&#45;&gt;Node12</title>
<g id="a_edge11_Node000005_Node000012"><a xlink:title=" ">
<path fill="none" stroke="#63b8ff" d="M732.39,-111C723.97,-111 715.42,-111 707.09,-111"/>
<polygon fill="#63b8ff" stroke="#63b8ff" points="732.57,-114.5 742.57,-111 732.57,-107.5 732.57,-114.5"/>
</a>
</g>
</g>
<!-- Node13 -->
<g id="Node000013" class="node">
<title>Node13</title>
<g id="a_Node000013"><a xlink:href="classAP__MotorsMatrix.html#ad1108354a3297a557ec26785eb85f70e" target="_top" xlink:title=" ">
<polygon fill="white" stroke="#666666" points="707,-78 574,-78 574,-48 707,-48 707,-78"/>
<text text-anchor="start" x="582" y="-66" font-family="Helvetica,sans-Serif" font-size="10.00">AP_MotorsMatrix::setup</text>
<text text-anchor="middle" x="640.5" y="-55" font-family="Helvetica,sans-Serif" font-size="10.00">_quad_matrix</text>
</a>
</g>
</g>
<!-- Node5&#45;&gt;Node13 -->
<g id="edge13_Node000005_Node000013" class="edge">
<title>Node5&#45;&gt;Node13</title>
<g id="a_edge13_Node000005_Node000013"><a xlink:title=" ">
<path fill="none" stroke="#63b8ff" d="M743.31,-93.07C726.51,-88.11 708.46,-82.78 692.29,-78"/>
<polygon fill="#63b8ff" stroke="#63b8ff" points="742.45,-96.47 753.03,-95.94 744.43,-89.75 742.45,-96.47"/>
</a>
</g>
</g>
<!-- Node14 -->
<g id="Node000014" class="node">
<title>Node14</title>
<g id="a_Node000014"><a xlink:href="classAP__MotorsMatrix.html#a94185ec619538a236bfc4303437f5465" target="_top" xlink:title=" ">
<polygon fill="white" stroke="#666666" points="707,-30 574,-30 574,0 707,0 707,-30"/>
<text text-anchor="start" x="582" y="-18" font-family="Helvetica,sans-Serif" font-size="10.00">AP_MotorsMatrix::setup</text>
<text text-anchor="middle" x="640.5" y="-7" font-family="Helvetica,sans-Serif" font-size="10.00">_y6_matrix</text>
</a>
</g>
</g>
<!-- Node5&#45;&gt;Node14 -->
<g id="edge15_Node000005_Node000014" class="edge">
<title>Node5&#45;&gt;Node14</title>
<g id="a_edge15_Node000005_Node000014"><a xlink:title=" ">
<path fill="none" stroke="#63b8ff" d="M779.01,-89.29C760.18,-73.75 733.21,-53.14 707,-39 700.93,-35.72 694.31,-32.71 687.69,-30.02"/>
<polygon fill="#63b8ff" stroke="#63b8ff" points="776.89,-92.09 786.81,-95.83 781.39,-86.72 776.89,-92.09"/>
</a>
</g>
</g>
<!-- Node7 -->
<g id="Node000007" class="node">
<title>Node7</title>
<g id="a_Node000007"><a xlink:href="classAP__MotorsMatrix.html#add4cc7528ad5a337f58ec38a64156bd4" target="_top" xlink:title=" ">
<polygon fill="white" stroke="#666666" points="538,-102 405,-102 405,-72 538,-72 538,-102"/>
<text text-anchor="start" x="413" y="-90" font-family="Helvetica,sans-Serif" font-size="10.00">AP_MotorsMatrix::setup</text>
<text text-anchor="middle" x="471.5" y="-79" font-family="Helvetica,sans-Serif" font-size="10.00">_motors</text>
</a>
</g>
</g>
<!-- Node6&#45;&gt;Node7 -->
<g id="edge6_Node000006_Node000007" class="edge">
<title>Node6&#45;&gt;Node7</title>
<g id="a_edge6_Node000006_Node000007"><a xlink:title=" ">
<path fill="none" stroke="#63b8ff" d="M586.99,-140.24C582.57,-138.52 578.2,-136.76 574,-135 549.55,-124.76 522.43,-111.86 502.38,-102"/>
<polygon fill="#63b8ff" stroke="#63b8ff" points="586.06,-143.63 596.65,-143.93 588.56,-137.09 586.06,-143.63"/>
</a>
</g>
</g>
<!-- Node8 -->
<g id="Node000008" class="node">
<title>Node8</title>
<g id="a_Node000008"><a xlink:href="classAP__MotorsMatrix.html#a74999b8c2bdb8a6c9a139e4d4a742679" target="_top" xlink:title=" ">
<polygon fill="white" stroke="#666666" points="369,-96.5 247,-96.5 247,-77.5 369,-77.5 369,-96.5"/>
<text text-anchor="middle" x="308" y="-84.5" font-family="Helvetica,sans-Serif" font-size="10.00">AP_MotorsMatrix::init</text>
</a>
</g>
</g>
<!-- Node7&#45;&gt;Node8 -->
<g id="edge7_Node000007_Node000008" class="edge">
<title>Node7&#45;&gt;Node8</title>
<g id="a_edge7_Node000007_Node000008"><a xlink:title=" ">
<path fill="none" stroke="#63b8ff" d="M394.78,-87C386.19,-87 377.52,-87 369.17,-87"/>
<polygon fill="#63b8ff" stroke="#63b8ff" points="394.81,-90.5 404.81,-87 394.81,-83.5 394.81,-90.5"/>
</a>
</g>
</g>
<!-- Node9 -->
<g id="Node000009" class="node">
<title>Node9</title>
<g id="a_Node000009"><a xlink:href="AP__Motors__test_8cpp.html#ae22722841fa406cadd51a97de949f1eb" target="_top" xlink:title=" ">
<polygon fill="white" stroke="#666666" points="209.5,-118.5 81.5,-118.5 81.5,-99.5 209.5,-99.5 209.5,-118.5"/>
<text text-anchor="middle" x="145.5" y="-106.5" font-family="Helvetica,sans-Serif" font-size="10.00">print_all_motor_matrix</text>
</a>
</g>
</g>
<!-- Node8&#45;&gt;Node9 -->
<g id="edge8_Node000008_Node000009" class="edge">
<title>Node8&#45;&gt;Node9</title>
<g id="a_edge8_Node000008_Node000009"><a xlink:title=" ">
<path fill="none" stroke="#63b8ff" d="M236.73,-96.63C227.75,-97.86 218.6,-99.12 209.74,-100.33"/>
<polygon fill="#63b8ff" stroke="#63b8ff" points="237.35,-100.08 246.78,-95.25 236.4,-93.15 237.35,-100.08"/>
</a>
</g>
</g>
<!-- Node11 -->
<g id="Node000011" class="node">
<title>Node11</title>
<g id="a_Node000011"><a xlink:href="classAP__MotorsMatrix.html#ad608ef0a8298cd204251d4374a2699c4" target="_top" xlink:title=" ">
<polygon fill="white" stroke="#666666" points="211,-81 80,-81 80,-51 211,-51 211,-81"/>
<text text-anchor="start" x="88" y="-69" font-family="Helvetica,sans-Serif" font-size="10.00">AP_MotorsMatrix::set</text>
<text text-anchor="middle" x="145.5" y="-58" font-family="Helvetica,sans-Serif" font-size="10.00">_frame_class_and_type</text>
</a>
</g>
</g>
<!-- Node8&#45;&gt;Node11 -->
<g id="edge10_Node000008_Node000011" class="edge">
<title>Node8&#45;&gt;Node11</title>
<g id="a_edge10_Node000008_Node000011"><a xlink:title=" ">
<path fill="none" stroke="#63b8ff" d="M236.83,-77.82C228.27,-76.7 219.56,-75.56 211.09,-74.45"/>
<polygon fill="#63b8ff" stroke="#63b8ff" points="236.41,-81.29 246.78,-79.12 237.32,-74.35 236.41,-81.29"/>
</a>
</g>
</g>
<!-- Node10 -->
<g id="Node000010" class="node">
<title>Node10</title>
<g id="a_Node000010"><a xlink:href="AP__Motors__test_8cpp.html#a4fc01d736fe50cf5b977f755b675f11d" target="_top" xlink:title=" ">
<polygon fill="white" stroke="#666666" points="44,-118.5 0,-118.5 0,-99.5 44,-99.5 44,-118.5"/>
<text text-anchor="middle" x="22" y="-106.5" font-family="Helvetica,sans-Serif" font-size="10.00">setup</text>
</a>
</g>
</g>
<!-- Node9&#45;&gt;Node10 -->
<g id="edge9_Node000009_Node000010" class="edge">
<title>Node9&#45;&gt;Node10</title>
<g id="a_edge9_Node000009_Node000010"><a xlink:title=" ">
<path fill="none" stroke="#63b8ff" d="M70.99,-109C61.25,-109 51.97,-109 44.21,-109"/>
<polygon fill="#63b8ff" stroke="#63b8ff" points="71.26,-112.5 81.26,-109 71.26,-105.5 71.26,-112.5"/>
</a>
</g>
</g>
<!-- Node12&#45;&gt;Node7 -->
<g id="edge12_Node000012_Node000007" class="edge">
<title>Node12&#45;&gt;Node7</title>
<g id="a_edge12_Node000012_Node000007"><a xlink:title=" ">
<path fill="none" stroke="#63b8ff" d="M563.93,-100.14C555.32,-98.9 546.58,-97.65 538.11,-96.43"/>
<polygon fill="#63b8ff" stroke="#63b8ff" points="563.58,-103.63 573.98,-101.58 564.58,-96.7 563.58,-103.63"/>
</a>
</g>
</g>
<!-- Node13&#45;&gt;Node7 -->
<g id="edge14_Node000013_Node000007" class="edge">
<title>Node13&#45;&gt;Node7</title>
<g id="a_edge14_Node000013_Node000007"><a xlink:title=" ">
<path fill="none" stroke="#63b8ff" d="M563.93,-73.86C555.32,-75.1 546.58,-76.35 538.11,-77.57"/>
<polygon fill="#63b8ff" stroke="#63b8ff" points="564.58,-77.3 573.98,-72.42 563.58,-70.37 564.58,-77.3"/>
</a>
</g>
</g>
<!-- Node14&#45;&gt;Node7 -->
<g id="edge16_Node000014_Node000007" class="edge">
<title>Node14&#45;&gt;Node7</title>
<g id="a_edge16_Node000014_Node000007"><a xlink:title=" ">
<path fill="none" stroke="#63b8ff" d="M586.99,-33.76C582.57,-35.48 578.2,-37.24 574,-39 549.55,-49.24 522.43,-62.14 502.38,-72"/>
<polygon fill="#63b8ff" stroke="#63b8ff" points="588.56,-36.91 596.65,-30.07 586.06,-30.37 588.56,-36.91"/>
</a>
</g>
</g>
</g>
</svg>
