<?xml version="1.0" encoding="UTF-8" standalone="no"?>
<!DOCTYPE svg PUBLIC "-//W3C//DTD SVG 1.1//EN"
 "http://www.w3.org/Graphics/SVG/1.1/DTD/svg11.dtd">
<!-- Generated by graphviz version 2.43.0 (0)
 -->
<!-- Title: AC_AutoTune_Multi::load_test_gains Pages: 1 -->
<!--zoomable 575 -->

<svg id="main" version="1.1" xmlns="http://www.w3.org/2000/svg" xmlns:xlink="http://www.w3.org/1999/xlink" xml:space="preserve" onload="init(evt)">
<style type="text/css"><![CDATA[
.node, .edge {opacity: 0.7;}
.node.selected, .edge.selected {opacity: 1;}
.edge:hover path { stroke: red; }
.edge:hover polygon { stroke: red; fill: red; }
]]></style>

<defs>
  <circle id="rim" cx="0" cy="0" r="7"/>
  <circle id="rim2" cx="0" cy="0" r="3.5"/>
  <g id="zoomPlus">
    <use xlink:href="#rim" fill="#404040"><set attributeName="fill" to="#808080" begin="zoomplus.mouseover" end="zoomplus.mouseout"/></use>
    <path d="M-4,0h8M0,-4v8" fill="none" stroke="white" stroke-width="1.5" pointer-events="none"/>
  </g>
  <g id="zoomMin">
    <use xlink:href="#rim" fill="#404040"><set attributeName="fill" to="#808080" begin="zoomminus.mouseover" end="zoomminus.mouseout"/></use>
    <path d="M-4,0h8" fill="none" stroke="white" stroke-width="1.5" pointer-events="none"/>
  </g>
  <g id="arrowUp" transform="translate(30 24)">
    <use xlink:href="#rim"/>
    <path pointer-events="none" fill="none" stroke="white" stroke-width="1.5" d="M0,-3.0v7 M-2.5,-0.5L0,-3.0L2.5,-0.5"/>
  </g>
  <g id="arrowRight" transform="rotate(90) translate(36 -43)">
    <use xlink:href="#rim"/>
    <path pointer-events="none" fill="none" stroke="white" stroke-width="1.5" d="M0,-3.0v7 M-2.5,-0.5L0,-3.0L2.5,-0.5"/>
  </g>
  <g id="arrowDown" transform="rotate(180) translate(-30 -48)">
    <use xlink:href="#rim"/>
    <path pointer-events="none" fill="none" stroke="white" stroke-width="1.5" d="M0,-3.0v7 M-2.5,-0.5L0,-3.0L2.5,-0.5"/>
  </g>
  <g id="arrowLeft" transform="rotate(270) translate(-36 17)">
    <use xlink:href="#rim"/>
    <path pointer-events="none" fill="none" stroke="white" stroke-width="1.5" d="M0,-3.0v7 M-2.5,-0.5L0,-3.0L2.5,-0.5"/>
  </g>
  <g id="resetDef">
    <use xlink:href="#rim2" fill="#404040"><set attributeName="fill" to="#808080" begin="reset.mouseover" end="reset.mouseout"/></use>
  </g>
</defs>
<script type="application/ecmascript">
var viewWidth = 273;
var viewHeight = 575;
var sectionId = 'dynsection-7';
</script>
<script type="application/ecmascript" xlink:href="svg.min.js"/>
<svg id="graph" class="graph">
<g id="viewport">
<title>AC_AutoTune_Multi::load_test_gains</title>
<!-- Node1 -->
<g id="Node000001" class="node">
<title>Node1</title>
<g id="a_Node000001"><a xlink:title=" ">
<polygon fill="#999999" stroke="#666666" points="116,-287.5 0,-287.5 0,-257.5 116,-257.5 116,-287.5"/>
<text text-anchor="start" x="8" y="-275.5" font-family="Helvetica,sans-Serif" font-size="10.00">AC_AutoTune_Multi::</text>
<text text-anchor="middle" x="58" y="-264.5" font-family="Helvetica,sans-Serif" font-size="10.00">load_test_gains</text>
</a>
</g>
</g>
<!-- Node2 -->
<g id="Node000002" class="node">
<title>Node2</title>
<g id="a_Node000002"><a xlink:href="classAC__PID.html#a8cb8a136be5506f38d92fd39c0936451" target="_top" xlink:title=" ">
<polygon fill="white" stroke="#666666" points="241,-567 176,-567 176,-548 241,-548 241,-567"/>
<text text-anchor="middle" x="208.5" y="-555" font-family="Helvetica,sans-Serif" font-size="10.00">AC_PID::ff</text>
</a>
</g>
</g>
<!-- Node1&#45;&gt;Node2 -->
<g id="edge1_Node000001_Node000002" class="edge">
<title>Node1&#45;&gt;Node2</title>
<g id="a_edge1_Node000001_Node000002"><a xlink:title=" ">
<path fill="none" stroke="#63b8ff" d="M59.75,-287.63C62.8,-332.65 77.98,-467.06 152,-539.5 156.07,-543.49 161.03,-546.59 166.3,-549"/>
<polygon fill="#63b8ff" stroke="#63b8ff" points="165.38,-552.4 175.97,-552.65 167.85,-545.85 165.38,-552.4"/>
</a>
</g>
</g>
<!-- Node3 -->
<g id="Node000003" class="node">
<title>Node3</title>
<g id="a_Node000003"><a xlink:href="classAC__PID.html#aac6ff2f362aa6ab5c41343019342dc6f" target="_top" xlink:title=" ">
<polygon fill="white" stroke="#666666" points="257.5,-530 159.5,-530 159.5,-511 257.5,-511 257.5,-530"/>
<text text-anchor="middle" x="208.5" y="-518" font-family="Helvetica,sans-Serif" font-size="10.00">AC_PID::filt_E_hz</text>
</a>
</g>
</g>
<!-- Node1&#45;&gt;Node3 -->
<g id="edge2_Node000001_Node000003" class="edge">
<title>Node1&#45;&gt;Node3</title>
<g id="a_edge2_Node000001_Node000003"><a xlink:title=" ">
<path fill="none" stroke="#63b8ff" d="M60.71,-287.58C66.12,-328.31 86.61,-441.57 152,-502.5 153.27,-503.69 154.63,-504.8 156.04,-505.83"/>
<polygon fill="#63b8ff" stroke="#63b8ff" points="154.34,-508.89 164.72,-511 157.92,-502.88 154.34,-508.89"/>
</a>
</g>
</g>
<!-- Node4 -->
<g id="Node000004" class="node">
<title>Node4</title>
<g id="a_Node000004"><a xlink:href="classAC__PID.html#ae228ddd019e84a38ee580b1304d22783" target="_top" xlink:title=" ">
<polygon fill="white" stroke="#666666" points="257.5,-493 159.5,-493 159.5,-474 257.5,-474 257.5,-493"/>
<text text-anchor="middle" x="208.5" y="-481" font-family="Helvetica,sans-Serif" font-size="10.00">AC_PID::filt_T_hz</text>
</a>
</g>
</g>
<!-- Node1&#45;&gt;Node4 -->
<g id="edge3_Node000001_Node000004" class="edge">
<title>Node1&#45;&gt;Node4</title>
<g id="a_edge3_Node000001_Node000004"><a xlink:title=" ">
<path fill="none" stroke="#63b8ff" d="M62.13,-287.64C70.34,-323.58 95.85,-414.78 152,-464.5 153.77,-466.06 155.67,-467.5 157.66,-468.82"/>
<polygon fill="#63b8ff" stroke="#63b8ff" points="156.46,-472.15 166.91,-473.88 159.82,-466.01 156.46,-472.15"/>
</a>
</g>
</g>
<!-- Node5 -->
<g id="Node000005" class="node">
<title>Node5</title>
<g id="a_Node000005"><a xlink:href="classAC__AttitudeControl.html#a7e72972f6ade41178a7bf8591d4423ed" target="_top" xlink:title=" ">
<polygon fill="white" stroke="#666666" points="264,-455.5 153,-455.5 153,-425.5 264,-425.5 264,-455.5"/>
<text text-anchor="start" x="161" y="-443.5" font-family="Helvetica,sans-Serif" font-size="10.00">AC_AttitudeControl</text>
<text text-anchor="middle" x="208.5" y="-432.5" font-family="Helvetica,sans-Serif" font-size="10.00">::get_angle_pitch_p</text>
</a>
</g>
</g>
<!-- Node1&#45;&gt;Node5 -->
<g id="edge4_Node000001_Node000005" class="edge">
<title>Node1&#45;&gt;Node5</title>
<g id="a_edge4_Node000001_Node000005"><a xlink:title=" ">
<path fill="none" stroke="#63b8ff" d="M65.16,-287.63C77.57,-316.38 108.17,-379.38 152,-416.5 153.5,-417.77 155.08,-418.99 156.72,-420.15"/>
<polygon fill="#63b8ff" stroke="#63b8ff" points="154.96,-423.17 165.3,-425.48 158.66,-417.23 154.96,-423.17"/>
</a>
</g>
</g>
<!-- Node6 -->
<g id="Node000006" class="node">
<title>Node6</title>
<g id="a_Node000006"><a xlink:href="classAC__AttitudeControl.html#adef3aadae796b01e71e77139426fcce9" target="_top" xlink:title=" ">
<polygon fill="white" stroke="#666666" points="263.5,-407.5 153.5,-407.5 153.5,-377.5 263.5,-377.5 263.5,-407.5"/>
<text text-anchor="start" x="161.5" y="-395.5" font-family="Helvetica,sans-Serif" font-size="10.00">AC_AttitudeControl</text>
<text text-anchor="middle" x="208.5" y="-384.5" font-family="Helvetica,sans-Serif" font-size="10.00">::get_angle_roll_p</text>
</a>
</g>
</g>
<!-- Node1&#45;&gt;Node6 -->
<g id="edge5_Node000001_Node000006" class="edge">
<title>Node1&#45;&gt;Node6</title>
<g id="a_edge5_Node000001_Node000006"><a xlink:title=" ">
<path fill="none" stroke="#63b8ff" d="M70.45,-287.61C86.69,-308.2 118.21,-345.15 152,-368.5 154.08,-369.94 156.26,-371.31 158.5,-372.63"/>
<polygon fill="#63b8ff" stroke="#63b8ff" points="156.91,-375.75 167.37,-377.42 160.23,-369.59 156.91,-375.75"/>
</a>
</g>
</g>
<!-- Node7 -->
<g id="Node000007" class="node">
<title>Node7</title>
<g id="a_Node000007"><a xlink:href="classAC__AttitudeControl.html#ae6c2a863159c129651c40640fa46edfe" target="_top" xlink:title=" ">
<polygon fill="white" stroke="#666666" points="263.5,-359.5 153.5,-359.5 153.5,-329.5 263.5,-329.5 263.5,-359.5"/>
<text text-anchor="start" x="161.5" y="-347.5" font-family="Helvetica,sans-Serif" font-size="10.00">AC_AttitudeControl</text>
<text text-anchor="middle" x="208.5" y="-336.5" font-family="Helvetica,sans-Serif" font-size="10.00">::get_angle_yaw_p</text>
</a>
</g>
</g>
<!-- Node1&#45;&gt;Node7 -->
<g id="edge6_Node000001_Node000007" class="edge">
<title>Node1&#45;&gt;Node7</title>
<g id="a_edge6_Node000001_Node000007"><a xlink:title=" ">
<path fill="none" stroke="#63b8ff" d="M87.24,-287.71C105.55,-297.42 130,-310.08 152,-320.5 155.38,-322.1 158.89,-323.72 162.43,-325.32"/>
<polygon fill="#63b8ff" stroke="#63b8ff" points="161.25,-328.63 171.81,-329.49 164.1,-322.23 161.25,-328.63"/>
</a>
</g>
</g>
<!-- Node8 -->
<g id="Node000008" class="node">
<title>Node8</title>
<g id="a_Node000008"><a xlink:href="classAC__AttitudeControl.html#aecb340d46636b76dff086c5ae7af113c" target="_top" xlink:title=" ">
<polygon fill="white" stroke="#666666" points="265,-311.5 152,-311.5 152,-281.5 265,-281.5 265,-311.5"/>
<text text-anchor="start" x="160" y="-299.5" font-family="Helvetica,sans-Serif" font-size="10.00">AC_AttitudeControl</text>
<text text-anchor="middle" x="208.5" y="-288.5" font-family="Helvetica,sans-Serif" font-size="10.00">::get_rate_pitch_pid</text>
</a>
</g>
</g>
<!-- Node1&#45;&gt;Node8 -->
<g id="edge7_Node000001_Node000008" class="edge">
<title>Node1&#45;&gt;Node8</title>
<g id="a_edge7_Node000001_Node000008"><a xlink:title=" ">
<path fill="none" stroke="#63b8ff" d="M116.41,-281.78C124.65,-283.11 133.18,-284.49 141.57,-285.85"/>
<polygon fill="#63b8ff" stroke="#63b8ff" points="141.27,-289.34 151.7,-287.48 142.39,-282.43 141.27,-289.34"/>
</a>
</g>
</g>
<!-- Node9 -->
<g id="Node000009" class="node">
<title>Node9</title>
<g id="a_Node000009"><a xlink:href="classAC__AttitudeControl.html#a054a91d8ef862a20a9c1fced2def685b" target="_top" xlink:title=" ">
<polygon fill="white" stroke="#666666" points="263.5,-263.5 153.5,-263.5 153.5,-233.5 263.5,-233.5 263.5,-263.5"/>
<text text-anchor="start" x="161.5" y="-251.5" font-family="Helvetica,sans-Serif" font-size="10.00">AC_AttitudeControl</text>
<text text-anchor="middle" x="208.5" y="-240.5" font-family="Helvetica,sans-Serif" font-size="10.00">::get_rate_roll_pid</text>
</a>
</g>
</g>
<!-- Node1&#45;&gt;Node9 -->
<g id="edge8_Node000001_Node000009" class="edge">
<title>Node1&#45;&gt;Node9</title>
<g id="a_edge8_Node000001_Node000009"><a xlink:title=" ">
<path fill="none" stroke="#63b8ff" d="M116.41,-263.22C125.19,-261.8 134.3,-260.33 143.21,-258.89"/>
<polygon fill="#63b8ff" stroke="#63b8ff" points="143.85,-262.33 153.16,-257.28 142.73,-255.42 143.85,-262.33"/>
</a>
</g>
</g>
<!-- Node10 -->
<g id="Node000010" class="node">
<title>Node10</title>
<g id="a_Node000010"><a xlink:href="classAC__AttitudeControl.html#afca955109401c92d59b067062cb4430b" target="_top" xlink:title=" ">
<polygon fill="white" stroke="#666666" points="263.5,-215.5 153.5,-215.5 153.5,-185.5 263.5,-185.5 263.5,-215.5"/>
<text text-anchor="start" x="161.5" y="-203.5" font-family="Helvetica,sans-Serif" font-size="10.00">AC_AttitudeControl</text>
<text text-anchor="middle" x="208.5" y="-192.5" font-family="Helvetica,sans-Serif" font-size="10.00">::get_rate_yaw_pid</text>
</a>
</g>
</g>
<!-- Node1&#45;&gt;Node10 -->
<g id="edge9_Node000001_Node000010" class="edge">
<title>Node1&#45;&gt;Node10</title>
<g id="a_edge9_Node000001_Node000010"><a xlink:title=" ">
<path fill="none" stroke="#63b8ff" d="M87.24,-257.29C105.55,-247.58 130,-234.92 152,-224.5 155.38,-222.9 158.89,-221.28 162.43,-219.68"/>
<polygon fill="#63b8ff" stroke="#63b8ff" points="164.1,-222.77 171.81,-215.51 161.25,-216.37 164.1,-222.77"/>
</a>
</g>
</g>
<!-- Node11 -->
<g id="Node000011" class="node">
<title>Node11</title>
<g id="a_Node000011"><a xlink:href="classAC__PID.html#abb7ce07d4ca159d065184f793abf8edb" target="_top" xlink:title=" ">
<polygon fill="white" stroke="#666666" points="244,-167 173,-167 173,-148 244,-148 244,-167"/>
<text text-anchor="middle" x="208.5" y="-155" font-family="Helvetica,sans-Serif" font-size="10.00">AC_PID::kD</text>
</a>
</g>
</g>
<!-- Node1&#45;&gt;Node11 -->
<g id="edge10_Node000001_Node000011" class="edge">
<title>Node1&#45;&gt;Node11</title>
<g id="a_edge10_Node000001_Node000011"><a xlink:title=" ">
<path fill="none" stroke="#63b8ff" d="M69.93,-257.36C85.79,-236.4 117.13,-198.63 152,-176.5 155.58,-174.23 159.46,-172.19 163.45,-170.38"/>
<polygon fill="#63b8ff" stroke="#63b8ff" points="164.94,-173.55 172.88,-166.53 162.3,-167.07 164.94,-173.55"/>
</a>
</g>
</g>
<!-- Node12 -->
<g id="Node000012" class="node">
<title>Node12</title>
<g id="a_Node000012"><a xlink:href="classAC__PID.html#ad4c7d433c035e9488908a6e50c3576ae" target="_top" xlink:title=" ">
<polygon fill="white" stroke="#666666" points="242,-130 175,-130 175,-111 242,-111 242,-130"/>
<text text-anchor="middle" x="208.5" y="-118" font-family="Helvetica,sans-Serif" font-size="10.00">AC_PID::kI</text>
</a>
</g>
</g>
<!-- Node1&#45;&gt;Node12 -->
<g id="edge11_Node000001_Node000012" class="edge">
<title>Node1&#45;&gt;Node12</title>
<g id="a_edge11_Node000001_Node000012"><a xlink:title=" ">
<path fill="none" stroke="#63b8ff" d="M65.63,-257.39C78.4,-229.97 109,-171.86 152,-139.5 156.12,-136.4 160.77,-133.79 165.59,-131.58"/>
<polygon fill="#63b8ff" stroke="#63b8ff" points="166.98,-134.8 174.97,-127.84 164.39,-128.3 166.98,-134.8"/>
</a>
</g>
</g>
<!-- Node13 -->
<g id="Node000013" class="node">
<title>Node13</title>
<g id="a_Node000013"><a xlink:href="classAC__P.html#a42d133adda51940f14079d1dfff7bafe" target="_top" xlink:title=" ">
<polygon fill="white" stroke="#666666" points="238,-93 179,-93 179,-74 238,-74 238,-93"/>
<text text-anchor="middle" x="208.5" y="-81" font-family="Helvetica,sans-Serif" font-size="10.00">AC_P::kP</text>
</a>
</g>
</g>
<!-- Node1&#45;&gt;Node13 -->
<g id="edge12_Node000001_Node000013" class="edge">
<title>Node1&#45;&gt;Node13</title>
<g id="a_edge12_Node000001_Node000013"><a xlink:title=" ">
<path fill="none" stroke="#63b8ff" d="M63.16,-257.38C73,-224.43 100.8,-145.63 152,-102.5 157.01,-98.28 163,-94.98 169.17,-92.41"/>
<polygon fill="#63b8ff" stroke="#63b8ff" points="170.66,-95.59 178.9,-88.93 168.3,-89 170.66,-95.59"/>
</a>
</g>
</g>
<!-- Node14 -->
<g id="Node000014" class="node">
<title>Node14</title>
<g id="a_Node000014"><a xlink:href="classAC__PID.html#a307aaed51e687c98cd7f5fc676303eb8" target="_top" xlink:title=" ">
<polygon fill="white" stroke="#666666" points="243.5,-56 173.5,-56 173.5,-37 243.5,-37 243.5,-56"/>
<text text-anchor="middle" x="208.5" y="-44" font-family="Helvetica,sans-Serif" font-size="10.00">AC_PID::kP</text>
</a>
</g>
</g>
<!-- Node1&#45;&gt;Node14 -->
<g id="edge13_Node000001_Node000014" class="edge">
<title>Node1&#45;&gt;Node14</title>
<g id="a_edge13_Node000001_Node000014"><a xlink:title=" ">
<path fill="none" stroke="#63b8ff" d="M61.55,-257.33C68.7,-219.43 92.46,-119.78 152,-65.5 155.58,-62.24 159.73,-59.54 164.14,-57.29"/>
<polygon fill="#63b8ff" stroke="#63b8ff" points="165.6,-60.47 173.41,-53.31 162.84,-54.04 165.6,-60.47"/>
</a>
</g>
</g>
<!-- Node15 -->
<g id="Node000015" class="node">
<title>Node15</title>
<g id="a_Node000015"><a xlink:href="classAC__PID.html#a7b0d5e0bdffdaac1937cdcd651703035" target="_top" xlink:title=" ">
<polygon fill="white" stroke="#666666" points="262.5,-19 154.5,-19 154.5,0 262.5,0 262.5,-19"/>
<text text-anchor="middle" x="208.5" y="-7" font-family="Helvetica,sans-Serif" font-size="10.00">AC_PID::slew_limit</text>
</a>
</g>
</g>
<!-- Node1&#45;&gt;Node15 -->
<g id="edge14_Node000001_Node000015" class="edge">
<title>Node1&#45;&gt;Node15</title>
<g id="a_edge14_Node000001_Node000015"><a xlink:title=" ">
<path fill="none" stroke="#63b8ff" d="M60.4,-257.2C65.09,-214.73 84.03,-94.18 152,-28.5 153.64,-26.92 155.41,-25.47 157.28,-24.14"/>
<polygon fill="#63b8ff" stroke="#63b8ff" points="159.15,-27.1 166.03,-19.05 155.63,-21.05 159.15,-27.1"/>
</a>
</g>
</g>
</g>
</svg>

<g id="navigator" transform="translate(0 0)" fill="#404254">
  <rect fill="#f2f5e9" fill-opacity="0.5" stroke="#606060" stroke-width=".5" x="0" y="0" width="60" height="60"/>
  <use id="zoomplus" xlink:href="#zoomPlus" x="17" y="9" onmousedown="handleZoom(evt,'in')"/>
  <use id="zoomminus" xlink:href="#zoomMin" x="42" y="9" onmousedown="handleZoom(evt,'out')"/>
  <use id="reset" xlink:href="#resetDef" x="30" y="36" onmousedown="handleReset()"/>
   <use id="arrowup" xlink:href="#arrowUp" x="0" y="0" onmousedown="handlePan(0,-1)"/>
  <use id="arrowright" xlink:href="#arrowRight" x="0" y="0" onmousedown="handlePan(1,0)"/>
  <use id="arrowdown" xlink:href="#arrowDown" x="0" y="0" onmousedown="handlePan(0,1)"/>
  <use id="arrowleft" xlink:href="#arrowLeft" x="0" y="0" onmousedown="handlePan(-1,0)"/>
</g>
<svg viewBox="0 0 15 15" width="100%" height="30px" preserveAspectRatio="xMaxYMin meet">
 <g id="arrow_out" transform="scale(0.3 0.3)">
  <a xlink:href="classAC__AutoTune__Multi_a79639bd9549757709811a1b208d93261_cgraph_org.svg" target="_base">
   <rect id="button" ry="5" rx="5" y="6" x="6" height="38" width="38"
        fill="#f2f5e9" fill-opacity="0.5" stroke="#606060" stroke-width="1.0"/>
   <path id="arrow"
     d="M 11.500037,31.436501 C 11.940474,20.09759 22.043105,11.32322 32.158766,21.979434 L 37.068811,17.246167 C 37.068811,17.246167 37.088388,32 37.088388,32 L 22.160133,31.978069 C 22.160133,31.978069 26.997745,27.140456 26.997745,27.140456 C 18.528582,18.264221 13.291696,25.230495 11.500037,31.436501 z"
     style="fill:#404040;"/>
  </a>
 </g>
</svg>

<style type='text/css'>
<![CDATA[
[data-mouse-over-selected='false'] { opacity: 0.7; }
[data-mouse-over-selected='true']  { opacity: 1.0; }
]]>
</style>
<script type="application/ecmascript"><![CDATA[
document.addEventListener('DOMContentLoaded', (event) => {
  highlightEdges();
  highlightAdjacentNodes();
});
]]></script>
</svg>
