<?xml version="1.0" encoding="UTF-8" standalone="no"?>
<!DOCTYPE svg PUBLIC "-//W3C//DTD SVG 1.1//EN"
 "http://www.w3.org/Graphics/SVG/1.1/DTD/svg11.dtd">
<!-- Generated by graphviz version 2.43.0 (0)
 -->
<!-- Title: AP_GPS_UBLOX::_update_checksum Pages: 1 -->
<!--zoomable 545 -->

<svg id="main" version="1.1" xmlns="http://www.w3.org/2000/svg" xmlns:xlink="http://www.w3.org/1999/xlink" xml:space="preserve" onload="init(evt)">
<style type="text/css"><![CDATA[
.node, .edge {opacity: 0.7;}
.node.selected, .edge.selected {opacity: 1;}
.edge:hover path { stroke: red; }
.edge:hover polygon { stroke: red; fill: red; }
]]></style>

<defs>
  <circle id="rim" cx="0" cy="0" r="7"/>
  <circle id="rim2" cx="0" cy="0" r="3.5"/>
  <g id="zoomPlus">
    <use xlink:href="#rim" fill="#404040"><set attributeName="fill" to="#808080" begin="zoomplus.mouseover" end="zoomplus.mouseout"/></use>
    <path d="M-4,0h8M0,-4v8" fill="none" stroke="white" stroke-width="1.5" pointer-events="none"/>
  </g>
  <g id="zoomMin">
    <use xlink:href="#rim" fill="#404040"><set attributeName="fill" to="#808080" begin="zoomminus.mouseover" end="zoomminus.mouseout"/></use>
    <path d="M-4,0h8" fill="none" stroke="white" stroke-width="1.5" pointer-events="none"/>
  </g>
  <g id="arrowUp" transform="translate(30 24)">
    <use xlink:href="#rim"/>
    <path pointer-events="none" fill="none" stroke="white" stroke-width="1.5" d="M0,-3.0v7 M-2.5,-0.5L0,-3.0L2.5,-0.5"/>
  </g>
  <g id="arrowRight" transform="rotate(90) translate(36 -43)">
    <use xlink:href="#rim"/>
    <path pointer-events="none" fill="none" stroke="white" stroke-width="1.5" d="M0,-3.0v7 M-2.5,-0.5L0,-3.0L2.5,-0.5"/>
  </g>
  <g id="arrowDown" transform="rotate(180) translate(-30 -48)">
    <use xlink:href="#rim"/>
    <path pointer-events="none" fill="none" stroke="white" stroke-width="1.5" d="M0,-3.0v7 M-2.5,-0.5L0,-3.0L2.5,-0.5"/>
  </g>
  <g id="arrowLeft" transform="rotate(270) translate(-36 17)">
    <use xlink:href="#rim"/>
    <path pointer-events="none" fill="none" stroke="white" stroke-width="1.5" d="M0,-3.0v7 M-2.5,-0.5L0,-3.0L2.5,-0.5"/>
  </g>
  <g id="resetDef">
    <use xlink:href="#rim2" fill="#404040"><set attributeName="fill" to="#808080" begin="reset.mouseover" end="reset.mouseout"/></use>
  </g>
</defs>
<script type="application/ecmascript">
var viewWidth = 1085;
var viewHeight = 545;
var sectionId = 'dynsection-31';
</script>
<script type="application/ecmascript" xlink:href="svg.min.js"/>
<svg id="graph" class="graph">
<g id="viewport">
<title>AP_GPS_UBLOX::_update_checksum</title>
<!-- Node1 -->
<g id="Node000001" class="node">
<title>Node1</title>
<g id="a_Node000001"><a xlink:title=" ">
<polygon fill="#999999" stroke="#666666" points="1077,-285.84 939,-285.84 939,-255.84 1077,-255.84 1077,-285.84"/>
<text text-anchor="start" x="947" y="-273.84" font-family="Helvetica,sans-Serif" font-size="10.00">AP_GPS_UBLOX::_update</text>
<text text-anchor="middle" x="1008" y="-262.84" font-family="Helvetica,sans-Serif" font-size="10.00">_checksum</text>
</a>
</g>
</g>
<!-- Node2 -->
<g id="Node000002" class="node">
<title>Node2</title>
<g id="a_Node000002"><a xlink:href="classAP__GPS__UBLOX.html#a36964ce60340e990a3e7775913172518" target="_top" xlink:title=" ">
<polygon fill="white" stroke="#666666" points="903,-285.84 775,-285.84 775,-255.84 903,-255.84 903,-285.84"/>
<text text-anchor="start" x="783" y="-273.84" font-family="Helvetica,sans-Serif" font-size="10.00">AP_GPS_UBLOX::_send</text>
<text text-anchor="middle" x="839" y="-262.84" font-family="Helvetica,sans-Serif" font-size="10.00">_message</text>
</a>
</g>
</g>
<!-- Node1&#45;&gt;Node2 -->
<g id="edge1_Node000001_Node000002" class="edge">
<title>Node1&#45;&gt;Node2</title>
<g id="a_edge1_Node000001_Node000002"><a xlink:title=" ">
<path fill="none" stroke="#63b8ff" d="M928.36,-270.84C919.92,-270.84 911.42,-270.84 903.2,-270.84"/>
<polygon fill="#63b8ff" stroke="#63b8ff" points="928.59,-274.34 938.59,-270.84 928.59,-267.34 928.59,-274.34"/>
</a>
</g>
</g>
<!-- Node3 -->
<g id="Node000003" class="node">
<title>Node3</title>
<g id="a_Node000003"><a xlink:href="classAP__GPS__UBLOX.html#a5062feb28203b36eb3bf8d13f195e161" target="_top" xlink:title=" ">
<polygon fill="white" stroke="#666666" points="524.5,-495.84 375.5,-495.84 375.5,-465.84 524.5,-465.84 524.5,-495.84"/>
<text text-anchor="start" x="383.5" y="-483.84" font-family="Helvetica,sans-Serif" font-size="10.00">AP_GPS_UBLOX::_configure</text>
<text text-anchor="middle" x="450" y="-472.84" font-family="Helvetica,sans-Serif" font-size="10.00">_config_set</text>
</a>
</g>
</g>
<!-- Node2&#45;&gt;Node3 -->
<g id="edge2_Node000002_Node000003" class="edge">
<title>Node2&#45;&gt;Node3</title>
<g id="a_edge2_Node000002_Node000003"><a xlink:title=" ">
<path fill="none" stroke="#63b8ff" d="M832.28,-295.86C821.6,-336.26 794.5,-415.06 739,-451.84 675.75,-493.76 586.92,-496.32 524.68,-491.36"/>
<polygon fill="#63b8ff" stroke="#63b8ff" points="835.71,-296.55 834.76,-286 828.92,-294.85 835.71,-296.55"/>
</a>
</g>
</g>
<!-- Node4 -->
<g id="Node000004" class="node">
<title>Node4</title>
<g id="a_Node000004"><a xlink:href="classAP__GPS__UBLOX.html#af664a91503c354001a990f310dfbc634" target="_top" xlink:title=" ">
<polygon fill="white" stroke="#666666" points="320.5,-409.84 179.5,-409.84 179.5,-379.84 320.5,-379.84 320.5,-409.84"/>
<text text-anchor="start" x="187.5" y="-397.84" font-family="Helvetica,sans-Serif" font-size="10.00">AP_GPS_UBLOX::_request</text>
<text text-anchor="middle" x="250" y="-386.84" font-family="Helvetica,sans-Serif" font-size="10.00">_next_config</text>
</a>
</g>
</g>
<!-- Node2&#45;&gt;Node4 -->
<g id="edge23_Node000002_Node000004" class="edge">
<title>Node2&#45;&gt;Node4</title>
<g id="a_edge23_Node000002_Node000004"><a xlink:title=" ">
<path fill="none" stroke="#63b8ff" d="M822.81,-294.54C805.59,-319.36 775.15,-357.51 739,-377.84 592.47,-460.23 530.17,-436.55 363,-418.84 345.6,-417 326.93,-413.58 309.91,-409.9"/>
<polygon fill="#63b8ff" stroke="#63b8ff" points="825.84,-296.3 828.54,-286.06 820.04,-292.38 825.84,-296.3"/>
</a>
</g>
</g>
<!-- Node7 -->
<g id="Node000007" class="node">
<title>Node7</title>
<g id="a_Node000007"><a xlink:href="classAP__GPS__UBLOX.html#a8e41510690d6244e39bba36def050204" target="_top" xlink:title=" ">
<polygon fill="white" stroke="#666666" points="730.5,-99.84 581.5,-99.84 581.5,-69.84 730.5,-69.84 730.5,-99.84"/>
<text text-anchor="start" x="589.5" y="-87.84" font-family="Helvetica,sans-Serif" font-size="10.00">AP_GPS_UBLOX::_configure</text>
<text text-anchor="middle" x="656" y="-76.84" font-family="Helvetica,sans-Serif" font-size="10.00">_message_rate</text>
</a>
</g>
</g>
<!-- Node2&#45;&gt;Node7 -->
<g id="edge6_Node000002_Node000007" class="edge">
<title>Node2&#45;&gt;Node7</title>
<g id="a_edge6_Node000002_Node000007"><a xlink:title=" ">
<path fill="none" stroke="#63b8ff" d="M826.86,-246.28C811.24,-214.19 780.09,-157.99 739,-122.84 727.91,-113.36 714.06,-105.75 700.91,-99.9"/>
<polygon fill="#63b8ff" stroke="#63b8ff" points="823.75,-247.88 831.2,-255.41 830.07,-244.87 823.75,-247.88"/>
</a>
</g>
</g>
<!-- Node8 -->
<g id="Node000008" class="node">
<title>Node8</title>
<g id="a_Node000008"><a xlink:href="classAP__GPS__UBLOX.html#a16ae8ab4b0babfbc2245beb0a438ec33" target="_top" xlink:title=" ">
<polygon fill="white" stroke="#666666" points="327,-180.34 173,-180.34 173,-161.34 327,-161.34 327,-180.34"/>
<text text-anchor="middle" x="250" y="-168.34" font-family="Helvetica,sans-Serif" font-size="10.00">AP_GPS_UBLOX::_parse_gps</text>
</a>
</g>
</g>
<!-- Node2&#45;&gt;Node8 -->
<g id="edge20_Node000002_Node000008" class="edge">
<title>Node2&#45;&gt;Node8</title>
<g id="a_edge20_Node000002_Node000008"><a xlink:title=" ">
<path fill="none" stroke="#63b8ff" d="M764.69,-265.78C670.69,-258.27 503.1,-241.41 363,-208.84 331.8,-201.59 297.04,-189.06 274.64,-180.39"/>
<polygon fill="#63b8ff" stroke="#63b8ff" points="764.43,-269.27 774.67,-266.57 764.97,-262.29 764.43,-269.27"/>
</a>
</g>
</g>
<!-- Node11 -->
<g id="Node000011" class="node">
<title>Node11</title>
<g id="a_Node000011"><a xlink:href="classAP__GPS__UBLOX.html#a0fdbefebc115c41409b552b53b583324" target="_top" xlink:title=" ">
<polygon fill="white" stroke="#666666" points="537,-199.34 363,-199.34 363,-180.34 537,-180.34 537,-199.34"/>
<text text-anchor="middle" x="450" y="-187.34" font-family="Helvetica,sans-Serif" font-size="10.00">AP_GPS_UBLOX::_configure_rate</text>
</a>
</g>
</g>
<!-- Node2&#45;&gt;Node11 -->
<g id="edge13_Node000002_Node000011" class="edge">
<title>Node2&#45;&gt;Node11</title>
<g id="a_edge13_Node000002_Node000011"><a xlink:title=" ">
<path fill="none" stroke="#63b8ff" d="M809.55,-249.93C790.56,-237.16 764.49,-221.8 739,-213.84 673.39,-193.35 595.52,-187.91 537.31,-187.29"/>
<polygon fill="#63b8ff" stroke="#63b8ff" points="807.78,-252.97 818,-255.77 811.76,-247.21 807.78,-252.97"/>
</a>
</g>
</g>
<!-- Node12 -->
<g id="Node000012" class="node">
<title>Node12</title>
<g id="a_Node000012"><a xlink:href="classAP__GPS__UBLOX.html#aff0ccae526ed3c77f0dc10fe26799573" target="_top" xlink:title=" ">
<polygon fill="white" stroke="#666666" points="524.5,-285.84 375.5,-285.84 375.5,-255.84 524.5,-255.84 524.5,-285.84"/>
<text text-anchor="start" x="383.5" y="-273.84" font-family="Helvetica,sans-Serif" font-size="10.00">AP_GPS_UBLOX::_configure</text>
<text text-anchor="middle" x="450" y="-262.84" font-family="Helvetica,sans-Serif" font-size="10.00">_valget</text>
</a>
</g>
</g>
<!-- Node2&#45;&gt;Node12 -->
<g id="edge15_Node000002_Node000012" class="edge">
<title>Node2&#45;&gt;Node12</title>
<g id="a_edge15_Node000002_Node000012"><a xlink:title=" ">
<path fill="none" stroke="#63b8ff" d="M764.64,-270.84C695.83,-270.84 593.47,-270.84 524.59,-270.84"/>
<polygon fill="#63b8ff" stroke="#63b8ff" points="764.96,-274.34 774.96,-270.84 764.96,-267.34 764.96,-274.34"/>
</a>
</g>
</g>
<!-- Node13 -->
<g id="Node000013" class="node">
<title>Node13</title>
<g id="a_Node000013"><a xlink:href="classAP__GPS__UBLOX.html#ab1c21a564a4a9710ad7853d9482b4de7" target="_top" xlink:title=" ">
<polygon fill="white" stroke="#666666" points="730.5,-161.84 581.5,-161.84 581.5,-131.84 730.5,-131.84 730.5,-161.84"/>
<text text-anchor="start" x="589.5" y="-149.84" font-family="Helvetica,sans-Serif" font-size="10.00">AP_GPS_UBLOX::_configure</text>
<text text-anchor="middle" x="656" y="-138.84" font-family="Helvetica,sans-Serif" font-size="10.00">_valset</text>
</a>
</g>
</g>
<!-- Node2&#45;&gt;Node13 -->
<g id="edge18_Node000002_Node000013" class="edge">
<title>Node2&#45;&gt;Node13</title>
<g id="a_edge18_Node000002_Node000013"><a xlink:title=" ">
<path fill="none" stroke="#63b8ff" d="M819.3,-247.99C800.84,-226.73 770.83,-195.46 739,-175.84 730.13,-170.37 720.08,-165.75 710.14,-161.9"/>
<polygon fill="#63b8ff" stroke="#63b8ff" points="816.64,-250.26 825.79,-255.6 821.97,-245.72 816.64,-250.26"/>
</a>
</g>
</g>
<!-- Node14 -->
<g id="Node000014" class="node">
<title>Node14</title>
<g id="a_Node000014"><a xlink:href="classAP__GPS__UBLOX.html#a225cfc86bda85491de00a09c034e77e5" target="_top" xlink:title=" ">
<polygon fill="white" stroke="#666666" points="520.5,-409.84 379.5,-409.84 379.5,-379.84 520.5,-379.84 520.5,-409.84"/>
<text text-anchor="start" x="387.5" y="-397.84" font-family="Helvetica,sans-Serif" font-size="10.00">AP_GPS_UBLOX::_request</text>
<text text-anchor="middle" x="450" y="-386.84" font-family="Helvetica,sans-Serif" font-size="10.00">_message_rate</text>
</a>
</g>
</g>
<!-- Node2&#45;&gt;Node14 -->
<g id="edge21_Node000002_Node000014" class="edge">
<title>Node2&#45;&gt;Node14</title>
<g id="a_edge21_Node000002_Node000014"><a xlink:title=" ">
<path fill="none" stroke="#63b8ff" d="M814.79,-292.84C795.87,-309.49 767.68,-331.54 739,-343.84 668.42,-374.12 580.71,-386.43 520.75,-391.42"/>
<polygon fill="#63b8ff" stroke="#63b8ff" points="817.21,-295.37 822.31,-286.08 812.53,-290.16 817.21,-295.37"/>
</a>
</g>
</g>
<!-- Node15 -->
<g id="Node000015" class="node">
<title>Node15</title>
<g id="a_Node000015"><a xlink:href="classAP__GPS__UBLOX.html#acb03687d74891749c3f63246ae324cf5" target="_top" xlink:title=" ">
<polygon fill="white" stroke="#666666" points="739,-334.34 573,-334.34 573,-315.34 739,-315.34 739,-334.34"/>
<text text-anchor="middle" x="656" y="-322.34" font-family="Helvetica,sans-Serif" font-size="10.00">AP_GPS_UBLOX::_request_port</text>
</a>
</g>
</g>
<!-- Node2&#45;&gt;Node15 -->
<g id="edge24_Node000002_Node000015" class="edge">
<title>Node2&#45;&gt;Node15</title>
<g id="a_edge24_Node000002_Node000015"><a xlink:title=" ">
<path fill="none" stroke="#63b8ff" d="M777.73,-288.82C748.04,-297.68 713.46,-307.99 688.94,-315.31"/>
<polygon fill="#63b8ff" stroke="#63b8ff" points="779,-292.1 787.58,-285.88 777,-285.39 779,-292.1"/>
</a>
</g>
</g>
<!-- Node16 -->
<g id="Node000016" class="node">
<title>Node16</title>
<g id="a_Node000016"><a xlink:href="classAP__GPS__UBLOX.html#ae1da492ab0f9b2b2871799848f2120f8" target="_top" xlink:title=" ">
<polygon fill="white" stroke="#666666" points="726.5,-536.84 585.5,-536.84 585.5,-506.84 726.5,-506.84 726.5,-536.84"/>
<text text-anchor="start" x="593.5" y="-524.84" font-family="Helvetica,sans-Serif" font-size="10.00">AP_GPS_UBLOX::_request</text>
<text text-anchor="middle" x="656" y="-513.84" font-family="Helvetica,sans-Serif" font-size="10.00">_version</text>
</a>
</g>
</g>
<!-- Node2&#45;&gt;Node16 -->
<g id="edge28_Node000002_Node000016" class="edge">
<title>Node2&#45;&gt;Node16</title>
<g id="a_edge28_Node000002_Node000016"><a xlink:title=" ">
<path fill="none" stroke="#63b8ff" d="M833.41,-295.97C823.86,-341.31 797.66,-437.18 739,-491.84 732.46,-497.94 724.57,-502.82 716.32,-506.72"/>
<polygon fill="#63b8ff" stroke="#63b8ff" points="836.86,-296.57 835.4,-286.08 830,-295.2 836.86,-296.57"/>
</a>
</g>
</g>
<!-- Node17 -->
<g id="Node000017" class="node">
<title>Node17</title>
<g id="a_Node000017"><a xlink:href="classAP__GPS__UBLOX.html#a735f714c51ff36ab8e5fa4cf266627ab" target="_top" xlink:title=" ">
<polygon fill="white" stroke="#666666" points="324,-62.34 176,-62.34 176,-43.34 324,-43.34 324,-62.34"/>
<text text-anchor="middle" x="250" y="-50.34" font-family="Helvetica,sans-Serif" font-size="10.00">AP_GPS_UBLOX::_save_cfg</text>
</a>
</g>
</g>
<!-- Node2&#45;&gt;Node17 -->
<g id="edge30_Node000002_Node000017" class="edge">
<title>Node2&#45;&gt;Node17</title>
<g id="a_edge30_Node000002_Node000017"><a xlink:title=" ">
<path fill="none" stroke="#63b8ff" d="M833.87,-245.61C825.09,-200.67 800.13,-107.17 739,-60.84 596.85,46.89 358.52,-17.14 278.3,-43.3"/>
<polygon fill="#63b8ff" stroke="#63b8ff" points="830.47,-246.48 835.72,-255.68 837.35,-245.21 830.47,-246.48"/>
</a>
</g>
</g>
<!-- Node3&#45;&gt;Node4 -->
<g id="edge3_Node000003_Node000004" class="edge">
<title>Node3&#45;&gt;Node4</title>
<g id="a_edge3_Node000003_Node000004"><a xlink:title=" ">
<path fill="none" stroke="#63b8ff" d="M390.68,-462.46C381.34,-459.15 371.84,-455.56 363,-451.84 333.23,-439.33 300.45,-422.23 278.09,-410.03"/>
<polygon fill="#63b8ff" stroke="#63b8ff" points="389.73,-465.83 400.33,-465.8 392.02,-459.22 389.73,-465.83"/>
</a>
</g>
</g>
<!-- Node5 -->
<g id="Node000005" class="node">
<title>Node5</title>
<g id="a_Node000005"><a xlink:href="classAP__GPS__UBLOX.html#a884201b43e99569bba792df15e9b3d06" target="_top" xlink:title=" ">
<polygon fill="white" stroke="#666666" points="137,-409.84 0,-409.84 0,-379.84 137,-379.84 137,-409.84"/>
<text text-anchor="start" x="8" y="-397.84" font-family="Helvetica,sans-Serif" font-size="10.00">AP_GPS_UBLOX::AP_GPS</text>
<text text-anchor="middle" x="68.5" y="-386.84" font-family="Helvetica,sans-Serif" font-size="10.00">_UBLOX</text>
</a>
</g>
</g>
<!-- Node4&#45;&gt;Node5 -->
<g id="edge4_Node000004_Node000005" class="edge">
<title>Node4&#45;&gt;Node5</title>
<g id="a_edge4_Node000004_Node000005"><a xlink:title=" ">
<path fill="none" stroke="#63b8ff" d="M169.15,-394.84C158.43,-394.84 147.53,-394.84 137.05,-394.84"/>
<polygon fill="#63b8ff" stroke="#63b8ff" points="169.34,-398.34 179.34,-394.84 169.34,-391.34 169.34,-398.34"/>
</a>
</g>
</g>
<!-- Node6 -->
<g id="Node000006" class="node">
<title>Node6</title>
<g id="a_Node000006"><a xlink:href="classAP__GPS__UBLOX.html#a64d0773944721dc3cfdd0c81b31c3cf6" target="_top" xlink:title=" ">
<polygon fill="white" stroke="#666666" points="129,-180.34 8,-180.34 8,-161.34 129,-161.34 129,-180.34"/>
<text text-anchor="middle" x="68.5" y="-168.34" font-family="Helvetica,sans-Serif" font-size="10.00">AP_GPS_UBLOX::read</text>
</a>
</g>
</g>
<!-- Node4&#45;&gt;Node6 -->
<g id="edge5_Node000004_Node000006" class="edge">
<title>Node4&#45;&gt;Node6</title>
<g id="a_edge5_Node000004_Node000006"><a xlink:title=" ">
<path fill="none" stroke="#63b8ff" d="M230.54,-371.8C191.87,-323.55 103.75,-213.58 77.21,-180.46"/>
<polygon fill="#63b8ff" stroke="#63b8ff" points="227.96,-374.18 236.94,-379.8 233.42,-369.8 227.96,-374.18"/>
</a>
</g>
</g>
<!-- Node7&#45;&gt;Node8 -->
<g id="edge7_Node000007_Node000008" class="edge">
<title>Node7&#45;&gt;Node8</title>
<g id="a_edge7_Node000007_Node000008"><a xlink:title=" ">
<path fill="none" stroke="#63b8ff" d="M612.97,-65.96C554.37,-42.55 445.98,-9.97 363,-46.84 335.3,-59.15 278.18,-134.01 258.14,-161.08"/>
<polygon fill="#63b8ff" stroke="#63b8ff" points="611.7,-69.23 622.28,-69.77 614.35,-62.75 611.7,-69.23"/>
</a>
</g>
</g>
<!-- Node9 -->
<g id="Node000009" class="node">
<title>Node9</title>
<g id="a_Node000009"><a xlink:href="classAP__GPS__UBLOX.html#a061392aae2946bc69bc7ba814ca55efb" target="_top" xlink:title=" ">
<polygon fill="white" stroke="#666666" points="528.5,-123.34 371.5,-123.34 371.5,-104.34 528.5,-104.34 528.5,-123.34"/>
<text text-anchor="middle" x="450" y="-111.34" font-family="Helvetica,sans-Serif" font-size="10.00">AP_GPS_UBLOX::_verify_rate</text>
</a>
</g>
</g>
<!-- Node7&#45;&gt;Node9 -->
<g id="edge9_Node000007_Node000009" class="edge">
<title>Node7&#45;&gt;Node9</title>
<g id="a_edge9_Node000007_Node000009"><a xlink:title=" ">
<path fill="none" stroke="#63b8ff" d="M571.06,-96.77C553.42,-99.28 535.03,-101.9 518.1,-104.3"/>
<polygon fill="#63b8ff" stroke="#63b8ff" points="571.94,-100.18 581.35,-95.31 570.96,-93.25 571.94,-100.18"/>
</a>
</g>
</g>
<!-- Node10 -->
<g id="Node000010" class="node">
<title>Node10</title>
<g id="a_Node000010"><a xlink:href="classAP__GPS__UBLOX.html#a3b8dd4fbac9d7136cbd335c0b51d3257" target="_top" xlink:title=" ">
<polygon fill="white" stroke="#666666" points="528,-85.84 372,-85.84 372,-55.84 528,-55.84 528,-85.84"/>
<text text-anchor="start" x="380" y="-73.84" font-family="Helvetica,sans-Serif" font-size="10.00">AP_GPS_UBLOX::unexpected</text>
<text text-anchor="middle" x="450" y="-62.84" font-family="Helvetica,sans-Serif" font-size="10.00">_message</text>
</a>
</g>
</g>
<!-- Node7&#45;&gt;Node10 -->
<g id="edge11_Node000007_Node000010" class="edge">
<title>Node7&#45;&gt;Node10</title>
<g id="a_edge11_Node000007_Node000010"><a xlink:title=" ">
<path fill="none" stroke="#63b8ff" d="M571.14,-79.09C556.97,-78.11 542.32,-77.11 528.32,-76.15"/>
<polygon fill="#63b8ff" stroke="#63b8ff" points="571.14,-82.59 581.35,-79.79 571.61,-75.61 571.14,-82.59"/>
</a>
</g>
</g>
<!-- Node8&#45;&gt;Node6 -->
<g id="edge8_Node000008_Node000006" class="edge">
<title>Node8&#45;&gt;Node6</title>
<g id="a_edge8_Node000008_Node000006"><a xlink:title=" ">
<path fill="none" stroke="#63b8ff" d="M162.54,-170.84C151.23,-170.84 139.86,-170.84 129.14,-170.84"/>
<polygon fill="#63b8ff" stroke="#63b8ff" points="162.88,-174.34 172.88,-170.84 162.88,-167.34 162.88,-174.34"/>
</a>
</g>
</g>
<!-- Node9&#45;&gt;Node8 -->
<g id="edge10_Node000009_Node000008" class="edge">
<title>Node9&#45;&gt;Node8</title>
<g id="a_edge10_Node000009_Node000008"><a xlink:title=" ">
<path fill="none" stroke="#63b8ff" d="M404.35,-126.17C391.04,-129.88 376.42,-133.99 363,-137.84 335.92,-145.61 305.22,-154.67 282.83,-161.33"/>
<polygon fill="#63b8ff" stroke="#63b8ff" points="405.54,-129.47 414.24,-123.42 403.66,-122.73 405.54,-129.47"/>
</a>
</g>
</g>
<!-- Node10&#45;&gt;Node8 -->
<g id="edge12_Node000010_Node000008" class="edge">
<title>Node10&#45;&gt;Node8</title>
<g id="a_edge12_Node000010_Node000008"><a xlink:title=" ">
<path fill="none" stroke="#63b8ff" d="M375.9,-89.44C371.48,-91.12 367.15,-92.92 363,-94.84 323.13,-113.33 281.75,-145.36 262.34,-161.28"/>
<polygon fill="#63b8ff" stroke="#63b8ff" points="377.43,-92.61 385.68,-85.97 375.08,-86.02 377.43,-92.61"/>
</a>
</g>
</g>
<!-- Node11&#45;&gt;Node8 -->
<g id="edge14_Node000011_Node000008" class="edge">
<title>Node11&#45;&gt;Node8</title>
<g id="a_edge14_Node000011_Node000008"><a xlink:title=" ">
<path fill="none" stroke="#63b8ff" d="M352.66,-180.6C344.06,-179.77 335.44,-178.94 327.04,-178.14"/>
<polygon fill="#63b8ff" stroke="#63b8ff" points="352.44,-184.09 362.73,-181.56 353.11,-177.12 352.44,-184.09"/>
</a>
</g>
</g>
<!-- Node12&#45;&gt;Node4 -->
<g id="edge17_Node000012_Node000004" class="edge">
<title>Node12&#45;&gt;Node4</title>
<g id="a_edge17_Node000012_Node000004"><a xlink:title=" ">
<path fill="none" stroke="#63b8ff" d="M416.18,-291.39C376.47,-316.26 310.53,-357.56 275.17,-379.71"/>
<polygon fill="#63b8ff" stroke="#63b8ff" points="418.1,-294.32 424.72,-286.05 414.39,-288.39 418.1,-294.32"/>
</a>
</g>
</g>
<!-- Node12&#45;&gt;Node8 -->
<g id="edge16_Node000012_Node000008" class="edge">
<title>Node12&#45;&gt;Node8</title>
<g id="a_edge16_Node000012_Node000008"><a xlink:title=" ">
<path fill="none" stroke="#63b8ff" d="M388.1,-252.34C379.54,-249.16 370.96,-245.64 363,-241.84 324.97,-223.7 284.08,-195.21 263.85,-180.44"/>
<polygon fill="#63b8ff" stroke="#63b8ff" points="387.13,-255.71 397.72,-255.8 389.49,-249.12 387.13,-255.71"/>
</a>
</g>
</g>
<!-- Node13&#45;&gt;Node8 -->
<g id="edge19_Node000013_Node000008" class="edge">
<title>Node13&#45;&gt;Node8</title>
<g id="a_edge19_Node000013_Node000008"><a xlink:title=" ">
<path fill="none" stroke="#63b8ff" d="M571,-151.83C499.18,-156.1 396.7,-162.19 327.21,-166.31"/>
<polygon fill="#63b8ff" stroke="#63b8ff" points="571.6,-155.3 581.37,-151.21 571.18,-148.31 571.6,-155.3"/>
</a>
</g>
</g>
<!-- Node14&#45;&gt;Node4 -->
<g id="edge22_Node000014_Node000004" class="edge">
<title>Node14&#45;&gt;Node4</title>
<g id="a_edge22_Node000014_Node000004"><a xlink:title=" ">
<path fill="none" stroke="#63b8ff" d="M369.06,-394.84C353.04,-394.84 336.33,-394.84 320.7,-394.84"/>
<polygon fill="#63b8ff" stroke="#63b8ff" points="369.47,-398.34 379.47,-394.84 369.47,-391.34 369.47,-398.34"/>
</a>
</g>
</g>
<!-- Node15&#45;&gt;Node4 -->
<g id="edge27_Node000015_Node000004" class="edge">
<title>Node15&#45;&gt;Node4</title>
<g id="a_edge27_Node000015_Node000004"><a xlink:title=" ">
<path fill="none" stroke="#63b8ff" d="M577.86,-335.81C518.88,-344.49 435.62,-357.35 363,-370.84 348.43,-373.55 332.86,-376.71 318.1,-379.84"/>
<polygon fill="#63b8ff" stroke="#63b8ff" points="578.46,-339.26 587.85,-334.35 577.44,-332.34 578.46,-339.26"/>
</a>
</g>
</g>
<!-- Node15&#45;&gt;Node8 -->
<g id="edge25_Node000015_Node000008" class="edge">
<title>Node15&#45;&gt;Node8</title>
<g id="a_edge25_Node000015_Node000008"><a xlink:title=" ">
<path fill="none" stroke="#63b8ff" d="M562.64,-331.92C502.69,-332.64 424.55,-326.05 363,-294.84 309.96,-267.95 270.05,-204.61 256.25,-180.44"/>
<polygon fill="#63b8ff" stroke="#63b8ff" points="562.93,-335.41 572.86,-331.72 562.79,-328.41 562.93,-335.41"/>
</a>
</g>
</g>
<!-- Node15&#45;&gt;Node14 -->
<g id="edge26_Node000015_Node000014" class="edge">
<title>Node15&#45;&gt;Node14</title>
<g id="a_edge26_Node000015_Node000014"><a xlink:title=" ">
<path fill="none" stroke="#63b8ff" d="M618.35,-337.67C595.07,-345.8 564.29,-356.5 537,-365.84 523.73,-370.38 509.3,-375.27 496.11,-379.72"/>
<polygon fill="#63b8ff" stroke="#63b8ff" points="619.55,-340.96 627.84,-334.36 617.25,-334.35 619.55,-340.96"/>
</a>
</g>
</g>
<!-- Node16&#45;&gt;Node4 -->
<g id="edge29_Node000016_Node000004" class="edge">
<title>Node16&#45;&gt;Node4</title>
<g id="a_edge29_Node000016_Node000004"><a xlink:title=" ">
<path fill="none" stroke="#63b8ff" d="M575.12,-531.91C514.35,-536.16 430.03,-534.56 363,-504.84 316.41,-484.19 278.12,-435.01 260.87,-410"/>
<polygon fill="#63b8ff" stroke="#63b8ff" points="575.72,-535.37 585.42,-531.12 575.18,-528.39 575.72,-535.37"/>
</a>
</g>
</g>
<!-- Node17&#45;&gt;Node6 -->
<g id="edge31_Node000017_Node000006" class="edge">
<title>Node17&#45;&gt;Node6</title>
<g id="a_edge31_Node000017_Node000006"><a xlink:title=" ">
<path fill="none" stroke="#63b8ff" d="M225.55,-68.25C187.94,-92.98 115.2,-140.8 84.14,-161.22"/>
<polygon fill="#63b8ff" stroke="#63b8ff" points="227.88,-70.91 234.31,-62.5 224.03,-65.07 227.88,-70.91"/>
</a>
</g>
</g>
</g>
</svg>

<g id="navigator" transform="translate(0 0)" fill="#404254">
  <rect fill="#f2f5e9" fill-opacity="0.5" stroke="#606060" stroke-width=".5" x="0" y="0" width="60" height="60"/>
  <use id="zoomplus" xlink:href="#zoomPlus" x="17" y="9" onmousedown="handleZoom(evt,'in')"/>
  <use id="zoomminus" xlink:href="#zoomMin" x="42" y="9" onmousedown="handleZoom(evt,'out')"/>
  <use id="reset" xlink:href="#resetDef" x="30" y="36" onmousedown="handleReset()"/>
   <use id="arrowup" xlink:href="#arrowUp" x="0" y="0" onmousedown="handlePan(0,-1)"/>
  <use id="arrowright" xlink:href="#arrowRight" x="0" y="0" onmousedown="handlePan(1,0)"/>
  <use id="arrowdown" xlink:href="#arrowDown" x="0" y="0" onmousedown="handlePan(0,1)"/>
  <use id="arrowleft" xlink:href="#arrowLeft" x="0" y="0" onmousedown="handlePan(-1,0)"/>
</g>
<svg viewBox="0 0 15 15" width="100%" height="30px" preserveAspectRatio="xMaxYMin meet">
 <g id="arrow_out" transform="scale(0.3 0.3)">
  <a xlink:href="classAP__GPS__UBLOX_aa9e7578f241ffd59f632d9b5104bed75_icgraph_org.svg" target="_base">
   <rect id="button" ry="5" rx="5" y="6" x="6" height="38" width="38"
        fill="#f2f5e9" fill-opacity="0.5" stroke="#606060" stroke-width="1.0"/>
   <path id="arrow"
     d="M 11.500037,31.436501 C 11.940474,20.09759 22.043105,11.32322 32.158766,21.979434 L 37.068811,17.246167 C 37.068811,17.246167 37.088388,32 37.088388,32 L 22.160133,31.978069 C 22.160133,31.978069 26.997745,27.140456 26.997745,27.140456 C 18.528582,18.264221 13.291696,25.230495 11.500037,31.436501 z"
     style="fill:#404040;"/>
  </a>
 </g>
</svg>

<style type='text/css'>
<![CDATA[
[data-mouse-over-selected='false'] { opacity: 0.7; }
[data-mouse-over-selected='true']  { opacity: 1.0; }
]]>
</style>
<script type="application/ecmascript"><![CDATA[
document.addEventListener('DOMContentLoaded', (event) => {
  highlightEdges();
  highlightAdjacentNodes();
});
]]></script>
</svg>
