<?xml version="1.0" encoding="UTF-8" standalone="no"?>
<!DOCTYPE svg PUBLIC "-//W3C//DTD SVG 1.1//EN"
 "http://www.w3.org/Graphics/SVG/1.1/DTD/svg11.dtd">
<!-- Generated by graphviz version 2.43.0 (0)
 -->
<!-- Title: AP_OSD::get_screen Pages: 1 -->
<svg width="716pt" height="103pt"
 viewBox="0.00 0.00 716.00 103.00" xmlns="http://www.w3.org/2000/svg" xmlns:xlink="http://www.w3.org/1999/xlink">
<g id="graph0" class="graph" transform="scale(1 1) rotate(0) translate(4 99)">
<title>AP_OSD::get_screen</title>
<!-- Node1 -->
<g id="Node000001" class="node">
<title>Node1</title>
<g id="a_Node000001"><a xlink:title=" ">
<polygon fill="#999999" stroke="#666666" points="708,-57 593,-57 593,-38 708,-38 708,-57"/>
<text text-anchor="middle" x="650.5" y="-45" font-family="Helvetica,sans-Serif" font-size="10.00">AP_OSD::get_screen</text>
</a>
</g>
</g>
<!-- Node2 -->
<g id="Node000002" class="node">
<title>Node2</title>
<g id="a_Node000002"><a xlink:href="classAP__OSD.html#ab4c50f93c3e74ba1eeeeeccb0b88aa31" target="_top" xlink:title=" ">
<polygon fill="white" stroke="#666666" points="557,-95 436,-95 436,-76 557,-76 557,-95"/>
<text text-anchor="middle" x="496.5" y="-83" font-family="Helvetica,sans-Serif" font-size="10.00">AP_OSD::next_screen</text>
</a>
</g>
</g>
<!-- Node1&#45;&gt;Node2 -->
<g id="edge1_Node000001_Node000002" class="edge">
<title>Node1&#45;&gt;Node2</title>
<g id="a_edge1_Node000001_Node000002"><a xlink:title=" ">
<path fill="none" stroke="#63b8ff" d="M601.34,-59.54C580.1,-64.85 555.5,-71 535.58,-75.98"/>
<polygon fill="#63b8ff" stroke="#63b8ff" points="602.29,-62.91 611.14,-57.09 600.59,-56.12 602.29,-62.91"/>
</a>
</g>
</g>
<!-- Node3 -->
<g id="Node000003" class="node">
<title>Node3</title>
<g id="a_Node000003"><a xlink:href="classAP__OSD.html#ae8af84a246bade4c4a55d6e0b1d046cf" target="_top" xlink:title=" ">
<polygon fill="white" stroke="#666666" points="400,-67.5 265,-67.5 265,-37.5 400,-37.5 400,-67.5"/>
<text text-anchor="start" x="273" y="-55.5" font-family="Helvetica,sans-Serif" font-size="10.00">AP_OSD::update_current</text>
<text text-anchor="middle" x="332.5" y="-44.5" font-family="Helvetica,sans-Serif" font-size="10.00">_screen</text>
</a>
</g>
</g>
<!-- Node1&#45;&gt;Node3 -->
<g id="edge5_Node000001_Node000003" class="edge">
<title>Node1&#45;&gt;Node3</title>
<g id="a_edge5_Node000001_Node000003"><a xlink:title=" ">
<path fill="none" stroke="#63b8ff" d="M582.52,-48.56C528.76,-49.41 453.67,-50.6 400.03,-51.45"/>
<polygon fill="#63b8ff" stroke="#63b8ff" points="582.7,-52.06 592.64,-48.4 582.59,-45.06 582.7,-52.06"/>
</a>
</g>
</g>
<!-- Node6 -->
<g id="Node000006" class="node">
<title>Node6</title>
<g id="a_Node000006"><a xlink:href="classAP__OSD.html#a12697704a6b32392563a6515c3adf3fb" target="_top" xlink:title=" ">
<polygon fill="white" stroke="#666666" points="391.5,-19 273.5,-19 273.5,0 391.5,0 391.5,-19"/>
<text text-anchor="middle" x="332.5" y="-7" font-family="Helvetica,sans-Serif" font-size="10.00">AP_OSD::update_osd</text>
</a>
</g>
</g>
<!-- Node1&#45;&gt;Node6 -->
<g id="edge6_Node000001_Node000006" class="edge">
<title>Node1&#45;&gt;Node6</title>
<g id="a_edge6_Node000001_Node000006"><a xlink:title=" ">
<path fill="none" stroke="#63b8ff" d="M582.7,-39.47C526.02,-32.65 445.52,-22.97 391.51,-16.48"/>
<polygon fill="#63b8ff" stroke="#63b8ff" points="582.29,-42.94 592.64,-40.66 583.13,-35.99 582.29,-42.94"/>
</a>
</g>
</g>
<!-- Node2&#45;&gt;Node3 -->
<g id="edge2_Node000002_Node000003" class="edge">
<title>Node2&#45;&gt;Node3</title>
<g id="a_edge2_Node000002_Node000003"><a xlink:title=" ">
<path fill="none" stroke="#63b8ff" d="M438.83,-73.96C426.33,-71.41 412.98,-68.69 400.13,-66.07"/>
<polygon fill="#63b8ff" stroke="#63b8ff" points="438.15,-77.39 448.64,-75.96 439.54,-70.53 438.15,-77.39"/>
</a>
</g>
</g>
<!-- Node4 -->
<g id="Node000004" class="node">
<title>Node4</title>
<g id="a_Node000004"><a xlink:href="classAP__OSD.html#a508ef8c63d701dbe12cfd8c78e95ec43" target="_top" xlink:title=" ">
<polygon fill="white" stroke="#666666" points="229,-40 113,-40 113,-21 229,-21 229,-40"/>
<text text-anchor="middle" x="171" y="-28" font-family="Helvetica,sans-Serif" font-size="10.00">AP_OSD::osd_thread</text>
</a>
</g>
</g>
<!-- Node3&#45;&gt;Node4 -->
<g id="edge3_Node000003_Node000004" class="edge">
<title>Node3&#45;&gt;Node4</title>
<g id="a_edge3_Node000003_Node000004"><a xlink:title=" ">
<path fill="none" stroke="#63b8ff" d="M254.77,-41.92C246.21,-40.74 237.6,-39.55 229.34,-38.41"/>
<polygon fill="#63b8ff" stroke="#63b8ff" points="254.4,-45.4 264.78,-43.3 255.35,-38.46 254.4,-45.4"/>
</a>
</g>
</g>
<!-- Node5 -->
<g id="Node000005" class="node">
<title>Node5</title>
<g id="a_Node000005"><a xlink:href="classAP__OSD.html#a09e7d40118a2fe4de6ecbbb168ebd8b7" target="_top" xlink:title=" ">
<polygon fill="white" stroke="#666666" points="77,-40 0,-40 0,-21 77,-21 77,-40"/>
<text text-anchor="middle" x="38.5" y="-28" font-family="Helvetica,sans-Serif" font-size="10.00">AP_OSD::init</text>
</a>
</g>
</g>
<!-- Node4&#45;&gt;Node5 -->
<g id="edge4_Node000004_Node000005" class="edge">
<title>Node4&#45;&gt;Node5</title>
<g id="a_edge4_Node000004_Node000005"><a xlink:title=" ">
<path fill="none" stroke="#63b8ff" d="M102.54,-30.5C93.82,-30.5 85.16,-30.5 77.17,-30.5"/>
<polygon fill="#63b8ff" stroke="#63b8ff" points="102.76,-34 112.76,-30.5 102.76,-27 102.76,-34"/>
</a>
</g>
</g>
<!-- Node6&#45;&gt;Node4 -->
<g id="edge7_Node000006_Node000004" class="edge">
<title>Node6&#45;&gt;Node4</title>
<g id="a_edge7_Node000006_Node000004"><a xlink:title=" ">
<path fill="none" stroke="#63b8ff" d="M263.52,-18.45C252.09,-19.96 240.32,-21.5 229.19,-22.97"/>
<polygon fill="#63b8ff" stroke="#63b8ff" points="264.01,-21.92 273.47,-17.14 263.09,-14.98 264.01,-21.92"/>
</a>
</g>
</g>
</g>
</svg>
