<?xml version="1.0" encoding="UTF-8" standalone="no"?>
<!DOCTYPE svg PUBLIC "-//W3C//DTD SVG 1.1//EN"
 "http://www.w3.org/Graphics/SVG/1.1/DTD/svg11.dtd">
<!-- Generated by graphviz version 2.43.0 (0)
 -->
<!-- Title: AP_SmartAudio::unpack_frequency Pages: 1 -->
<svg width="938pt" height="86pt"
 viewBox="0.00 0.00 938.00 86.00" xmlns="http://www.w3.org/2000/svg" xmlns:xlink="http://www.w3.org/1999/xlink">
<g id="graph0" class="graph" transform="scale(1 1) rotate(0) translate(4 82)">
<title>AP_SmartAudio::unpack_frequency</title>
<!-- Node1 -->
<g id="Node000001" class="node">
<title>Node1</title>
<g id="a_Node000001"><a xlink:title=" ">
<polygon fill="#999999" stroke="#666666" points="930,-56 797,-56 797,-26 930,-26 930,-56"/>
<text text-anchor="start" x="805" y="-44" font-family="Helvetica,sans-Serif" font-size="10.00">AP_SmartAudio::unpack</text>
<text text-anchor="middle" x="863.5" y="-33" font-family="Helvetica,sans-Serif" font-size="10.00">_frequency</text>
</a>
</g>
</g>
<!-- Node2 -->
<g id="Node000002" class="node">
<title>Node2</title>
<g id="a_Node000002"><a xlink:href="classAP__SmartAudio.html#a12a8ba2945ab9b4067bf4431fd69f104" target="_top" xlink:title=" ">
<polygon fill="white" stroke="#666666" points="588,-78 463,-78 463,-48 588,-48 588,-78"/>
<text text-anchor="start" x="471" y="-66" font-family="Helvetica,sans-Serif" font-size="10.00">AP_SmartAudio::parse</text>
<text text-anchor="middle" x="525.5" y="-55" font-family="Helvetica,sans-Serif" font-size="10.00">_response_buffer</text>
</a>
</g>
</g>
<!-- Node1&#45;&gt;Node2 -->
<g id="edge1_Node000001_Node000002" class="edge">
<title>Node1&#45;&gt;Node2</title>
<g id="a_edge1_Node000001_Node000002"><a xlink:title=" ">
<path fill="none" stroke="#63b8ff" d="M786.75,-45.96C726.82,-49.88 644.19,-55.29 588.23,-58.96"/>
<polygon fill="#63b8ff" stroke="#63b8ff" points="787.17,-49.44 796.92,-45.29 786.71,-42.45 787.17,-49.44"/>
</a>
</g>
</g>
<!-- Node6 -->
<g id="Node000006" class="node">
<title>Node6</title>
<g id="a_Node000006"><a xlink:href="classAP__SmartAudio.html#a5d05e732532aaa9cf6cf05c186f2805b" target="_top" xlink:title=" ">
<polygon fill="white" stroke="#666666" points="761,-35 628,-35 628,-5 761,-5 761,-35"/>
<text text-anchor="start" x="636" y="-23" font-family="Helvetica,sans-Serif" font-size="10.00">AP_SmartAudio::unpack</text>
<text text-anchor="middle" x="694.5" y="-12" font-family="Helvetica,sans-Serif" font-size="10.00">_settings</text>
</a>
</g>
</g>
<!-- Node1&#45;&gt;Node6 -->
<g id="edge5_Node000001_Node000006" class="edge">
<title>Node1&#45;&gt;Node6</title>
<g id="a_edge5_Node000001_Node000006"><a xlink:title=" ">
<path fill="none" stroke="#63b8ff" d="M786.93,-31.5C778.32,-30.41 769.58,-29.32 761.11,-28.25"/>
<polygon fill="#63b8ff" stroke="#63b8ff" points="786.62,-34.99 796.98,-32.76 787.49,-28.04 786.62,-34.99"/>
</a>
</g>
</g>
<!-- Node3 -->
<g id="Node000003" class="node">
<title>Node3</title>
<g id="a_Node000003"><a xlink:href="classAP__SmartAudio.html#a250ad94798b3dc3f98912fc5598e18f9" target="_top" xlink:title=" ">
<polygon fill="white" stroke="#666666" points="423,-78 304,-78 304,-48 423,-48 423,-78"/>
<text text-anchor="start" x="312" y="-66" font-family="Helvetica,sans-Serif" font-size="10.00">AP_SmartAudio::read</text>
<text text-anchor="middle" x="363.5" y="-55" font-family="Helvetica,sans-Serif" font-size="10.00">_response</text>
</a>
</g>
</g>
<!-- Node2&#45;&gt;Node3 -->
<g id="edge2_Node000002_Node000003" class="edge">
<title>Node2&#45;&gt;Node3</title>
<g id="a_edge2_Node000002_Node000003"><a xlink:title=" ">
<path fill="none" stroke="#63b8ff" d="M452.46,-63C442.62,-63 432.61,-63 423.05,-63"/>
<polygon fill="#63b8ff" stroke="#63b8ff" points="452.64,-66.5 462.64,-63 452.64,-59.5 452.64,-66.5"/>
</a>
</g>
</g>
<!-- Node4 -->
<g id="Node000004" class="node">
<title>Node4</title>
<g id="a_Node000004"><a xlink:href="classAP__SmartAudio.html#a3c26da98be5798a53f02643037e83340" target="_top" xlink:title=" ">
<polygon fill="white" stroke="#666666" points="268,-72.5 149,-72.5 149,-53.5 268,-53.5 268,-72.5"/>
<text text-anchor="middle" x="208.5" y="-60.5" font-family="Helvetica,sans-Serif" font-size="10.00">AP_SmartAudio::loop</text>
</a>
</g>
</g>
<!-- Node3&#45;&gt;Node4 -->
<g id="edge3_Node000003_Node000004" class="edge">
<title>Node3&#45;&gt;Node4</title>
<g id="a_edge3_Node000003_Node000004"><a xlink:title=" ">
<path fill="none" stroke="#63b8ff" d="M293.51,-63C285.01,-63 276.38,-63 268.06,-63"/>
<polygon fill="#63b8ff" stroke="#63b8ff" points="293.78,-66.5 303.78,-63 293.78,-59.5 293.78,-66.5"/>
</a>
</g>
</g>
<!-- Node5 -->
<g id="Node000005" class="node">
<title>Node5</title>
<g id="a_Node000005"><a xlink:href="classAP__SmartAudio.html#a95cb2dee45d7407dba11f9cd7a4ca860" target="_top" xlink:title=" ">
<polygon fill="white" stroke="#666666" points="113,-72.5 0,-72.5 0,-53.5 113,-53.5 113,-72.5"/>
<text text-anchor="middle" x="56.5" y="-60.5" font-family="Helvetica,sans-Serif" font-size="10.00">AP_SmartAudio::init</text>
</a>
</g>
</g>
<!-- Node4&#45;&gt;Node5 -->
<g id="edge4_Node000004_Node000005" class="edge">
<title>Node4&#45;&gt;Node5</title>
<g id="a_edge4_Node000004_Node000005"><a xlink:title=" ">
<path fill="none" stroke="#63b8ff" d="M138.43,-63C129.99,-63 121.45,-63 113.24,-63"/>
<polygon fill="#63b8ff" stroke="#63b8ff" points="138.65,-66.5 148.65,-63 138.65,-59.5 138.65,-66.5"/>
</a>
</g>
</g>
<!-- Node6&#45;&gt;Node2 -->
<g id="edge6_Node000006_Node000002" class="edge">
<title>Node6&#45;&gt;Node2</title>
<g id="a_edge6_Node000006_Node000002"><a xlink:title=" ">
<path fill="none" stroke="#63b8ff" d="M625.03,-37.63C611.7,-41.06 597.84,-44.63 584.88,-47.97"/>
<polygon fill="#63b8ff" stroke="#63b8ff" points="626.28,-40.92 635.09,-35.04 624.53,-34.14 626.28,-40.92"/>
</a>
</g>
</g>
<!-- Node7 -->
<g id="Node000007" class="node">
<title>Node7</title>
<g id="a_Node000007"><a xlink:href="classAP__SmartAudio.html#aeaadd965a27389b5fb8c47cb116e8a38" target="_top" xlink:title=" ">
<polygon fill="white" stroke="#666666" points="592,-30 459,-30 459,0 592,0 592,-30"/>
<text text-anchor="start" x="467" y="-18" font-family="Helvetica,sans-Serif" font-size="10.00">AP_SmartAudio::unpack</text>
<text text-anchor="middle" x="525.5" y="-7" font-family="Helvetica,sans-Serif" font-size="10.00">_settings</text>
</a>
</g>
</g>
<!-- Node6&#45;&gt;Node7 -->
<g id="edge7_Node000006_Node000007" class="edge">
<title>Node6&#45;&gt;Node7</title>
<g id="a_edge7_Node000006_Node000007"><a xlink:title=" ">
<path fill="none" stroke="#63b8ff" d="M617.93,-17.74C609.32,-17.48 600.58,-17.22 592.11,-16.96"/>
<polygon fill="#63b8ff" stroke="#63b8ff" points="617.88,-21.24 627.98,-18.04 618.09,-14.24 617.88,-21.24"/>
</a>
</g>
</g>
</g>
</svg>
