<?xml version="1.0" encoding="UTF-8" standalone="no"?>
<!DOCTYPE svg PUBLIC "-//W3C//DTD SVG 1.1//EN"
 "http://www.w3.org/Graphics/SVG/1.1/DTD/svg11.dtd">
<!-- Generated by graphviz version 2.43.0 (0)
 -->
<!-- Title: LoggerMessageWriter_DFLogStart::out_of_time_for_writing_messages_df Pages: 1 -->
<svg width="950pt" height="93pt"
 viewBox="0.00 0.00 950.00 92.53" xmlns="http://www.w3.org/2000/svg" xmlns:xlink="http://www.w3.org/1999/xlink">
<g id="graph0" class="graph" transform="scale(1 1) rotate(0) translate(4 88.53)">
<title>LoggerMessageWriter_DFLogStart::out_of_time_for_writing_messages_df</title>
<!-- Node1 -->
<g id="Node000001" class="node">
<title>Node1</title>
<g id="a_Node000001"><a xlink:title=" ">
<polygon fill="#999999" stroke="#666666" points="172,-71 0,-71 0,-30 172,-30 172,-71"/>
<text text-anchor="start" x="8" y="-59" font-family="Helvetica,sans-Serif" font-size="10.00">LoggerMessageWriter</text>
<text text-anchor="start" x="8" y="-48" font-family="Helvetica,sans-Serif" font-size="10.00">_DFLogStart::out_of</text>
<text text-anchor="middle" x="86" y="-37" font-family="Helvetica,sans-Serif" font-size="10.00">_time_for_writing_messages_df</text>
</a>
</g>
</g>
<!-- Node2 -->
<g id="Node000002" class="node">
<title>Node2</title>
<g id="a_Node000002"><a xlink:href="classLoggerMessageWriter.html#a3799369e697b49b4015e3ca97efd0f0b" target="_top" xlink:title=" ">
<polygon fill="white" stroke="#666666" points="347,-71 208,-71 208,-30 347,-30 347,-71"/>
<text text-anchor="start" x="216" y="-59" font-family="Helvetica,sans-Serif" font-size="10.00">LoggerMessageWriter</text>
<text text-anchor="start" x="216" y="-48" font-family="Helvetica,sans-Serif" font-size="10.00">::out_of_time_for_writing</text>
<text text-anchor="middle" x="277.5" y="-37" font-family="Helvetica,sans-Serif" font-size="10.00">_messages</text>
</a>
</g>
</g>
<!-- Node1&#45;&gt;Node2 -->
<g id="edge1_Node000001_Node000002" class="edge">
<title>Node1&#45;&gt;Node2</title>
<g id="a_edge1_Node000001_Node000002"><a xlink:title=" ">
<path fill="none" stroke="#63b8ff" d="M172.05,-50.5C180.58,-50.5 189.22,-50.5 197.69,-50.5"/>
<polygon fill="#63b8ff" stroke="#63b8ff" points="197.91,-54 207.91,-50.5 197.91,-47 197.91,-54"/>
</a>
</g>
</g>
<!-- Node3 -->
<g id="Node000003" class="node">
<title>Node3</title>
<g id="a_Node000003"><a xlink:href="namespaceAP.html#acdeafe5406efd2650ba54d24d3aecb7c" target="_top" xlink:title=" ">
<polygon fill="white" stroke="#666666" points="480,-83 397,-83 397,-64 480,-64 480,-83"/>
<text text-anchor="middle" x="438.5" y="-71" font-family="Helvetica,sans-Serif" font-size="10.00">AP::scheduler</text>
</a>
</g>
</g>
<!-- Node1&#45;&gt;Node3 -->
<g id="edge9_Node000001_Node000003" class="edge">
<title>Node1&#45;&gt;Node3</title>
<g id="a_edge9_Node000001_Node000003"><a xlink:title=" ">
<path fill="none" stroke="#63b8ff" d="M157.48,-71.03C173.92,-74.96 191.46,-78.48 208,-80.5 269.32,-87.99 285.27,-82.88 347,-80.5 359.92,-80 373.86,-79.1 386.83,-78.11"/>
<polygon fill="#63b8ff" stroke="#63b8ff" points="387.3,-81.59 396.99,-77.3 386.75,-74.61 387.3,-81.59"/>
</a>
</g>
</g>
<!-- Node5 -->
<g id="Node000005" class="node">
<title>Node5</title>
<g id="a_Node000005"><a xlink:href="classAP__Scheduler.html#aa01fa1d1430811f5301590d3c31f2184" target="_top" xlink:title=" ">
<polygon fill="white" stroke="#666666" points="494,-42.5 383,-42.5 383,-12.5 494,-12.5 494,-42.5"/>
<text text-anchor="start" x="391" y="-30.5" font-family="Helvetica,sans-Serif" font-size="10.00">AP_Scheduler::time</text>
<text text-anchor="middle" x="438.5" y="-19.5" font-family="Helvetica,sans-Serif" font-size="10.00">_available_usec</text>
</a>
</g>
</g>
<!-- Node1&#45;&gt;Node5 -->
<g id="edge10_Node000001_Node000005" class="edge">
<title>Node1&#45;&gt;Node5</title>
<g id="a_edge10_Node000001_Node000005"><a xlink:title=" ">
<path fill="none" stroke="#63b8ff" d="M157.48,-29.97C173.92,-26.04 191.46,-22.52 208,-20.5 269.32,-13.01 285.27,-18.12 347,-20.5 355.38,-20.82 364.18,-21.31 372.87,-21.89"/>
<polygon fill="#63b8ff" stroke="#63b8ff" points="372.76,-25.39 382.98,-22.6 373.25,-18.41 372.76,-25.39"/>
</a>
</g>
</g>
<!-- Node2&#45;&gt;Node3 -->
<g id="edge2_Node000002_Node000003" class="edge">
<title>Node2&#45;&gt;Node3</title>
<g id="a_edge2_Node000002_Node000003"><a xlink:title=" ">
<path fill="none" stroke="#63b8ff" d="M347.31,-60.45C360.56,-62.37 374.21,-64.34 386.75,-66.16"/>
<polygon fill="#63b8ff" stroke="#63b8ff" points="386.6,-69.67 397,-67.64 387.6,-62.75 386.6,-69.67"/>
</a>
</g>
</g>
<!-- Node2&#45;&gt;Node5 -->
<g id="edge4_Node000002_Node000005" class="edge">
<title>Node2&#45;&gt;Node5</title>
<g id="a_edge4_Node000002_Node000005"><a xlink:title=" ">
<path fill="none" stroke="#63b8ff" d="M347.31,-40.55C355.79,-39.32 364.43,-38.07 372.83,-36.85"/>
<polygon fill="#63b8ff" stroke="#63b8ff" points="373.55,-40.29 382.95,-35.39 372.55,-33.36 373.55,-40.29"/>
</a>
</g>
</g>
<!-- Node4 -->
<g id="Node000004" class="node">
<title>Node4</title>
<g id="a_Node000004"><a xlink:href="classAP__Scheduler.html#a0826068d9555266bdda5efd19c4b891a" target="_top" xlink:title=" ">
<polygon fill="white" stroke="#666666" points="685,-83 530,-83 530,-64 685,-64 685,-83"/>
<text text-anchor="middle" x="607.5" y="-71" font-family="Helvetica,sans-Serif" font-size="10.00">AP_Scheduler::get_singleton</text>
</a>
</g>
</g>
<!-- Node3&#45;&gt;Node4 -->
<g id="edge3_Node000003_Node000004" class="edge">
<title>Node3&#45;&gt;Node4</title>
<g id="a_edge3_Node000003_Node000004"><a xlink:title=" ">
<path fill="none" stroke="#63b8ff" d="M480.35,-73.5C492.4,-73.5 506.06,-73.5 519.84,-73.5"/>
<polygon fill="#63b8ff" stroke="#63b8ff" points="519.87,-77 529.87,-73.5 519.87,-70 519.87,-77"/>
</a>
</g>
</g>
<!-- Node6 -->
<g id="Node000006" class="node">
<title>Node6</title>
<g id="a_Node000006"><a xlink:href="namespaceAP__HAL.html#a8293355e35887733b1fd151aef08a787" target="_top" xlink:title=" ">
<polygon fill="white" stroke="#666666" points="654,-37 561,-37 561,-18 654,-18 654,-37"/>
<text text-anchor="middle" x="607.5" y="-25" font-family="Helvetica,sans-Serif" font-size="10.00">AP_HAL::micros</text>
</a>
</g>
</g>
<!-- Node5&#45;&gt;Node6 -->
<g id="edge5_Node000005_Node000006" class="edge">
<title>Node5&#45;&gt;Node6</title>
<g id="a_edge5_Node000005_Node000006"><a xlink:title=" ">
<path fill="none" stroke="#63b8ff" d="M494.18,-27.5C512.32,-27.5 532.52,-27.5 550.74,-27.5"/>
<polygon fill="#63b8ff" stroke="#63b8ff" points="550.91,-31 560.91,-27.5 550.91,-24 550.91,-31"/>
</a>
</g>
</g>
<!-- Node7 -->
<g id="Node000007" class="node">
<title>Node7</title>
<g id="a_Node000007"><a xlink:href="hrt_8c.html#aaec580bcdf1351b82110305f0f6dd437" target="_top" xlink:title=" ">
<polygon fill="white" stroke="#666666" points="801,-37 721,-37 721,-18 801,-18 801,-37"/>
<text text-anchor="middle" x="761" y="-25" font-family="Helvetica,sans-Serif" font-size="10.00">hrt_micros32</text>
</a>
</g>
</g>
<!-- Node6&#45;&gt;Node7 -->
<g id="edge6_Node000006_Node000007" class="edge">
<title>Node6&#45;&gt;Node7</title>
<g id="a_edge6_Node000006_Node000007"><a xlink:title=" ">
<path fill="none" stroke="#63b8ff" d="M654.37,-27.5C672.21,-27.5 692.7,-27.5 710.84,-27.5"/>
<polygon fill="#63b8ff" stroke="#63b8ff" points="710.94,-31 720.94,-27.5 710.94,-24 710.94,-31"/>
</a>
</g>
</g>
<!-- Node8 -->
<g id="Node000008" class="node">
<title>Node8</title>
<g id="a_Node000008"><a xlink:href="hrt_8c.html#a8e056f016b4bb5d52754d890a539c433" target="_top" xlink:title=" ">
<polygon fill="white" stroke="#666666" points="942,-56 837,-56 837,-37 942,-37 942,-56"/>
<text text-anchor="middle" x="889.5" y="-44" font-family="Helvetica,sans-Serif" font-size="10.00">get_systime_us32</text>
</a>
</g>
</g>
<!-- Node7&#45;&gt;Node8 -->
<g id="edge7_Node000007_Node000008" class="edge">
<title>Node7&#45;&gt;Node8</title>
<g id="a_edge7_Node000007_Node000008"><a xlink:title=" ">
<path fill="none" stroke="#63b8ff" d="M801.33,-33.41C809.36,-34.61 817.99,-35.91 826.59,-37.2"/>
<polygon fill="#63b8ff" stroke="#63b8ff" points="826.22,-40.68 836.63,-38.71 827.26,-33.76 826.22,-40.68"/>
</a>
</g>
</g>
<!-- Node9 -->
<g id="Node000009" class="node">
<title>Node9</title>
<g id="a_Node000009"><a xlink:href="hrt_8c.html#a723fef85be7bacb834af35445a891c18" target="_top" xlink:title=" ">
<polygon fill="white" stroke="#666666" points="920.5,-19 858.5,-19 858.5,0 920.5,0 920.5,-19"/>
<text text-anchor="middle" x="889.5" y="-7" font-family="Helvetica,sans-Serif" font-size="10.00">is_locked</text>
</a>
</g>
</g>
<!-- Node7&#45;&gt;Node9 -->
<g id="edge8_Node000007_Node000009" class="edge">
<title>Node7&#45;&gt;Node9</title>
<g id="a_edge8_Node000007_Node000009"><a xlink:title=" ">
<path fill="none" stroke="#63b8ff" d="M801.33,-21.9C816.3,-19.77 833.36,-17.35 848.4,-15.21"/>
<polygon fill="#63b8ff" stroke="#63b8ff" points="849.03,-18.65 858.44,-13.78 848.05,-11.72 849.03,-18.65"/>
</a>
</g>
</g>
</g>
</svg>
