<?xml version="1.0" encoding="UTF-8" standalone="no"?>
<!DOCTYPE svg PUBLIC "-//W3C//DTD SVG 1.1//EN"
 "http://www.w3.org/Graphics/SVG/1.1/DTD/svg11.dtd">
<!-- Generated by graphviz version 2.43.0 (0)
 -->
<!-- Title: AP_RangeFinder_PWM::check_pins Pages: 1 -->
<svg width="780pt" height="151pt"
 viewBox="0.00 0.00 780.00 150.80" xmlns="http://www.w3.org/2000/svg" xmlns:xlink="http://www.w3.org/1999/xlink">
<g id="graph0" class="graph" transform="scale(1 1) rotate(0) translate(4 146.8)">
<title>AP_RangeFinder_PWM::check_pins</title>
<!-- Node1 -->
<g id="Node000001" class="node">
<title>Node1</title>
<g id="a_Node000001"><a xlink:title=" ">
<polygon fill="#999999" stroke="#666666" points="125,-53 0,-53 0,-23 125,-23 125,-53"/>
<text text-anchor="start" x="8" y="-41" font-family="Helvetica,sans-Serif" font-size="10.00">AP_RangeFinder_PWM</text>
<text text-anchor="middle" x="62.5" y="-30" font-family="Helvetica,sans-Serif" font-size="10.00">::check_pins</text>
</a>
</g>
</g>
<!-- Node2 -->
<g id="Node000002" class="node">
<title>Node2</title>
<g id="a_Node000002"><a xlink:href="classAP__RangeFinder__PWM.html#ae335073c766973cb2bdb726e9483e321" target="_top" xlink:title=" ">
<polygon fill="white" stroke="#666666" points="286,-76 161,-76 161,-46 286,-46 286,-76"/>
<text text-anchor="start" x="169" y="-64" font-family="Helvetica,sans-Serif" font-size="10.00">AP_RangeFinder_PWM</text>
<text text-anchor="middle" x="223.5" y="-53" font-family="Helvetica,sans-Serif" font-size="10.00">::check_pin</text>
</a>
</g>
</g>
<!-- Node1&#45;&gt;Node2 -->
<g id="edge1_Node000001_Node000002" class="edge">
<title>Node1&#45;&gt;Node2</title>
<g id="a_edge1_Node000001_Node000002"><a xlink:title=" ">
<path fill="none" stroke="#63b8ff" d="M125.43,-46.96C133.67,-48.15 142.18,-49.38 150.58,-50.6"/>
<polygon fill="#63b8ff" stroke="#63b8ff" points="150.34,-54.1 160.74,-52.07 151.34,-47.17 150.34,-54.1"/>
</a>
</g>
</g>
<!-- Node8 -->
<g id="Node000008" class="node">
<title>Node8</title>
<g id="a_Node000008"><a xlink:href="classAP__RangeFinder__PWM.html#a3d077f015ff50b7bfbad0e0948c2a9a9" target="_top" xlink:title=" ">
<polygon fill="white" stroke="#666666" points="447,-30 322,-30 322,0 447,0 447,-30"/>
<text text-anchor="start" x="330" y="-18" font-family="Helvetica,sans-Serif" font-size="10.00">AP_RangeFinder_PWM</text>
<text text-anchor="middle" x="384.5" y="-7" font-family="Helvetica,sans-Serif" font-size="10.00">::check_stop_pin</text>
</a>
</g>
</g>
<!-- Node1&#45;&gt;Node8 -->
<g id="edge8_Node000001_Node000008" class="edge">
<title>Node1&#45;&gt;Node8</title>
<g id="a_edge8_Node000001_Node000008"><a xlink:title=" ">
<path fill="none" stroke="#63b8ff" d="M125.2,-33.57C178.54,-29.73 255.69,-24.19 311.77,-20.16"/>
<polygon fill="#63b8ff" stroke="#63b8ff" points="312.27,-23.63 321.99,-19.42 311.76,-16.65 312.27,-23.63"/>
</a>
</g>
</g>
<!-- Node3 -->
<g id="Node000003" class="node">
<title>Node3</title>
<g id="a_Node000003"><a xlink:href="classAP__HAL_1_1PWMSource.html#a405caac59c18d0c7223535d07dd0108a" target="_top" xlink:title=" ">
<polygon fill="white" stroke="#666666" points="446.5,-78 322.5,-78 322.5,-48 446.5,-48 446.5,-78"/>
<text text-anchor="start" x="330.5" y="-66" font-family="Helvetica,sans-Serif" font-size="10.00">AP_HAL::PWMSource::</text>
<text text-anchor="middle" x="384.5" y="-55" font-family="Helvetica,sans-Serif" font-size="10.00">set_pin</text>
</a>
</g>
</g>
<!-- Node2&#45;&gt;Node3 -->
<g id="edge2_Node000002_Node000003" class="edge">
<title>Node2&#45;&gt;Node3</title>
<g id="a_edge2_Node000002_Node000003"><a xlink:title=" ">
<path fill="none" stroke="#63b8ff" d="M286.43,-61.78C294.89,-61.89 303.63,-62 312.24,-62.1"/>
<polygon fill="#63b8ff" stroke="#63b8ff" points="312.22,-65.6 322.26,-62.23 312.31,-58.6 312.22,-65.6"/>
</a>
</g>
</g>
<!-- Node4 -->
<g id="Node000004" class="node">
<title>Node4</title>
<g id="a_Node000004"><a xlink:href="classAP__HAL_1_1GPIO.html#a25cb1ed83deec0e01b8468919f43bf21" target="_top" xlink:title=" ">
<polygon fill="white" stroke="#666666" points="772,-142 651,-142 651,-112 772,-112 772,-142"/>
<text text-anchor="start" x="659" y="-130" font-family="Helvetica,sans-Serif" font-size="10.00">AP_HAL::GPIO::attach</text>
<text text-anchor="middle" x="711.5" y="-119" font-family="Helvetica,sans-Serif" font-size="10.00">_interrupt</text>
</a>
</g>
</g>
<!-- Node3&#45;&gt;Node4 -->
<g id="edge3_Node000003_Node000004" class="edge">
<title>Node3&#45;&gt;Node4</title>
<g id="a_edge3_Node000003_Node000004"><a xlink:title=" ">
<path fill="none" stroke="#63b8ff" d="M401.11,-78.27C419.11,-94.72 450.44,-119.89 483,-130 534.03,-145.84 594.65,-144.11 640.48,-138.94"/>
<polygon fill="#63b8ff" stroke="#63b8ff" points="641.1,-142.39 650.61,-137.72 640.26,-135.44 641.1,-142.39"/>
</a>
</g>
</g>
<!-- Node5 -->
<g id="Node000005" class="node">
<title>Node5</title>
<g id="a_Node000005"><a xlink:href="classAP__HAL_1_1GPIO.html#a39916d5b533687c4ba351e40e27a65d1" target="_top" xlink:title=" ">
<polygon fill="white" stroke="#666666" points="610.5,-121 487.5,-121 487.5,-91 610.5,-91 610.5,-121"/>
<text text-anchor="start" x="495.5" y="-109" font-family="Helvetica,sans-Serif" font-size="10.00">AP_HAL::GPIO::detach</text>
<text text-anchor="middle" x="549" y="-98" font-family="Helvetica,sans-Serif" font-size="10.00">_interrupt</text>
</a>
</g>
</g>
<!-- Node3&#45;&gt;Node5 -->
<g id="edge4_Node000003_Node000005" class="edge">
<title>Node3&#45;&gt;Node5</title>
<g id="a_edge4_Node000003_Node000005"><a xlink:title=" ">
<path fill="none" stroke="#63b8ff" d="M442.33,-78.04C454.95,-81.38 468.44,-84.95 481.4,-88.38"/>
<polygon fill="#63b8ff" stroke="#63b8ff" points="480.63,-91.79 491.2,-90.97 482.43,-85.03 480.63,-91.79"/>
</a>
</g>
</g>
<!-- Node6 -->
<g id="Node000006" class="node">
<title>Node6</title>
<g id="a_Node000006"><a xlink:href="classAP__HAL_1_1PWMSource.html#a75ed9d4d32bbeca7869c445a093acca2" target="_top" xlink:title=" ">
<polygon fill="white" stroke="#666666" points="611,-73 487,-73 487,-43 611,-43 611,-73"/>
<text text-anchor="start" x="495" y="-61" font-family="Helvetica,sans-Serif" font-size="10.00">AP_HAL::PWMSource::</text>
<text text-anchor="middle" x="549" y="-50" font-family="Helvetica,sans-Serif" font-size="10.00">irq_handler</text>
</a>
</g>
</g>
<!-- Node3&#45;&gt;Node6 -->
<g id="edge6_Node000003_Node000006" class="edge">
<title>Node3&#45;&gt;Node6</title>
<g id="a_edge6_Node000003_Node000006"><a xlink:title=" ">
<path fill="none" stroke="#63b8ff" d="M446.93,-61.11C456.61,-60.81 466.68,-60.5 476.55,-60.2"/>
<polygon fill="#63b8ff" stroke="#63b8ff" points="476.86,-63.69 486.75,-59.88 476.65,-56.69 476.86,-63.69"/>
</a>
</g>
</g>
<!-- Node7 -->
<g id="Node000007" class="node">
<title>Node7</title>
<g id="a_Node000007"><a xlink:href="classAP__HAL_1_1GPIO.html#a3dfc60214bd1aa4936d51ca72c045b95" target="_top" xlink:title=" ">
<polygon fill="white" stroke="#666666" points="615,-24.5 483,-24.5 483,-5.5 615,-5.5 615,-24.5"/>
<text text-anchor="middle" x="549" y="-12.5" font-family="Helvetica,sans-Serif" font-size="10.00">AP_HAL::GPIO::pinMode</text>
</a>
</g>
</g>
<!-- Node3&#45;&gt;Node7 -->
<g id="edge7_Node000003_Node000007" class="edge">
<title>Node3&#45;&gt;Node7</title>
<g id="a_edge7_Node000003_Node000007"><a xlink:title=" ">
<path fill="none" stroke="#63b8ff" d="M435.84,-47.98C450.99,-43.47 467.67,-38.52 483,-34 490.29,-31.85 498.05,-29.57 505.57,-27.37"/>
<polygon fill="#63b8ff" stroke="#63b8ff" points="506.64,-30.7 515.26,-24.54 504.68,-23.99 506.64,-30.7"/>
</a>
</g>
</g>
<!-- Node5&#45;&gt;Node4 -->
<g id="edge5_Node000005_Node000004" class="edge">
<title>Node5&#45;&gt;Node4</title>
<g id="a_edge5_Node000005_Node000004"><a xlink:title=" ">
<path fill="none" stroke="#63b8ff" d="M610.68,-113.94C620.53,-115.23 630.8,-116.57 640.85,-117.89"/>
<polygon fill="#63b8ff" stroke="#63b8ff" points="640.43,-121.36 650.8,-119.19 641.34,-114.42 640.43,-121.36"/>
</a>
</g>
</g>
<!-- Node8&#45;&gt;Node7 -->
<g id="edge9_Node000008_Node000007" class="edge">
<title>Node8&#45;&gt;Node7</title>
<g id="a_edge9_Node000008_Node000007"><a xlink:title=" ">
<path fill="none" stroke="#63b8ff" d="M447.4,-15C455.62,-15 464.13,-15 472.55,-15"/>
<polygon fill="#63b8ff" stroke="#63b8ff" points="472.76,-18.5 482.76,-15 472.76,-11.5 472.76,-18.5"/>
</a>
</g>
</g>
</g>
</svg>
