<?xml version="1.0" encoding="UTF-8" standalone="no"?>
<!DOCTYPE svg PUBLIC "-//W3C//DTD SVG 1.1//EN"
 "http://www.w3.org/Graphics/SVG/1.1/DTD/svg11.dtd">
<!-- Generated by graphviz version 2.43.0 (0)
 -->
<!-- Title: GCS_MAVLINK::send_scaled_pressure_instance Pages: 1 -->
<svg width="894pt" height="371pt"
 viewBox="0.00 0.00 894.00 371.00" xmlns="http://www.w3.org/2000/svg" xmlns:xlink="http://www.w3.org/1999/xlink">
<g id="graph0" class="graph" transform="scale(1 1) rotate(0) translate(4 367)">
<title>GCS_MAVLINK::send_scaled_pressure_instance</title>
<!-- Node1 -->
<g id="Node000001" class="node">
<title>Node1</title>
<g id="a_Node000001"><a xlink:title=" ">
<polygon fill="#999999" stroke="#666666" points="152,-190.5 0,-190.5 0,-160.5 152,-160.5 152,-190.5"/>
<text text-anchor="start" x="8" y="-178.5" font-family="Helvetica,sans-Serif" font-size="10.00">GCS_MAVLINK::send_scaled</text>
<text text-anchor="middle" x="76" y="-167.5" font-family="Helvetica,sans-Serif" font-size="10.00">_pressure_instance</text>
</a>
</g>
</g>
<!-- Node2 -->
<g id="Node000002" class="node">
<title>Node2</title>
<g id="a_Node000002"><a xlink:href="namespaceAP.html#a8aec57eb0b7a79044cbc1f0ca4b75bcf" target="_top" xlink:title=" ">
<polygon fill="white" stroke="#666666" points="299,-363 242,-363 242,-344 299,-344 299,-363"/>
<text text-anchor="middle" x="270.5" y="-351" font-family="Helvetica,sans-Serif" font-size="10.00">AP::baro</text>
</a>
</g>
</g>
<!-- Node1&#45;&gt;Node2 -->
<g id="edge1_Node000001_Node000002" class="edge">
<title>Node1&#45;&gt;Node2</title>
<g id="a_edge1_Node000001_Node000002"><a xlink:title=" ">
<path fill="none" stroke="#63b8ff" d="M82.95,-190.68C96.41,-222.89 132.41,-298.21 188,-335.5 200.78,-344.07 216.99,-348.63 231.58,-351.03"/>
<polygon fill="#63b8ff" stroke="#63b8ff" points="231.46,-354.55 241.84,-352.42 232.4,-347.61 231.46,-354.55"/>
</a>
</g>
</g>
<!-- Node4 -->
<g id="Node000004" class="node">
<title>Node4</title>
<g id="a_Node000004"><a xlink:href="classAP__Airspeed.html#aa17de10e34d65c132353ddc6373f0e99" target="_top" xlink:title=" ">
<polygon fill="white" stroke="#666666" points="331.5,-326 209.5,-326 209.5,-307 331.5,-307 331.5,-326"/>
<text text-anchor="middle" x="270.5" y="-314" font-family="Helvetica,sans-Serif" font-size="10.00">AP_Airspeed::enabled</text>
</a>
</g>
</g>
<!-- Node1&#45;&gt;Node4 -->
<g id="edge3_Node000001_Node000004" class="edge">
<title>Node1&#45;&gt;Node4</title>
<g id="a_edge3_Node000001_Node000004"><a xlink:title=" ">
<path fill="none" stroke="#63b8ff" d="M86.24,-190.57C103.07,-216.66 141.33,-270.1 188,-297.5 191.84,-299.75 195.93,-301.74 200.15,-303.49"/>
<polygon fill="#63b8ff" stroke="#63b8ff" points="198.97,-306.79 209.56,-306.96 201.39,-300.22 198.97,-306.79"/>
</a>
</g>
</g>
<!-- Node6 -->
<g id="Node000006" class="node">
<title>Node6</title>
<g id="a_Node000006"><a xlink:href="classAP__Airspeed.html#ae49f4cf8da709c27d7a713eaa7f1eefa" target="_top" xlink:title=" ">
<polygon fill="white" stroke="#666666" points="349.5,-288.5 191.5,-288.5 191.5,-258.5 349.5,-258.5 349.5,-288.5"/>
<text text-anchor="start" x="199.5" y="-276.5" font-family="Helvetica,sans-Serif" font-size="10.00">AP_Airspeed::get_differential</text>
<text text-anchor="middle" x="270.5" y="-265.5" font-family="Helvetica,sans-Serif" font-size="10.00">_pressure</text>
</a>
</g>
</g>
<!-- Node1&#45;&gt;Node6 -->
<g id="edge5_Node000001_Node000006" class="edge">
<title>Node1&#45;&gt;Node6</title>
<g id="a_edge5_Node000001_Node000006"><a xlink:title=" ">
<path fill="none" stroke="#63b8ff" d="M95.98,-190.77C117.28,-207.26 153.38,-233.32 188,-249.5 192.09,-251.41 196.38,-253.21 200.74,-254.9"/>
<polygon fill="#63b8ff" stroke="#63b8ff" points="199.8,-258.28 210.39,-258.4 202.19,-251.7 199.8,-258.28"/>
</a>
</g>
</g>
<!-- Node8 -->
<g id="Node000008" class="node">
<title>Node8</title>
<g id="a_Node000008"><a xlink:href="classAP__Baro.html#a41b3c00624c78b883413b53fc5a81a32" target="_top" xlink:title=" ">
<polygon fill="white" stroke="#666666" points="333.5,-222 207.5,-222 207.5,-203 333.5,-203 333.5,-222"/>
<text text-anchor="middle" x="270.5" y="-210" font-family="Helvetica,sans-Serif" font-size="10.00">AP_Baro::get_pressure</text>
</a>
</g>
</g>
<!-- Node1&#45;&gt;Node8 -->
<g id="edge8_Node000001_Node000008" class="edge">
<title>Node1&#45;&gt;Node8</title>
<g id="a_edge8_Node000001_Node000008"><a xlink:title=" ">
<path fill="none" stroke="#63b8ff" d="M152.25,-189.96C171.38,-193.64 191.67,-197.54 209.9,-201.05"/>
<polygon fill="#63b8ff" stroke="#63b8ff" points="209.32,-204.5 219.8,-202.95 210.64,-197.62 209.32,-204.5"/>
</a>
</g>
</g>
<!-- Node9 -->
<g id="Node000009" class="node">
<title>Node9</title>
<g id="a_Node000009"><a xlink:href="classAP__Airspeed.html#af8fe29e897226fc9e3f797c67e4c31fa" target="_top" xlink:title=" ">
<polygon fill="white" stroke="#666666" points="345,-185 196,-185 196,-166 345,-166 345,-185"/>
<text text-anchor="middle" x="270.5" y="-173" font-family="Helvetica,sans-Serif" font-size="10.00">AP_Airspeed::get_singleton</text>
</a>
</g>
</g>
<!-- Node1&#45;&gt;Node9 -->
<g id="edge10_Node000001_Node000009" class="edge">
<title>Node1&#45;&gt;Node9</title>
<g id="a_edge10_Node000001_Node000009"><a xlink:title=" ">
<path fill="none" stroke="#63b8ff" d="M152.25,-175.5C163.23,-175.5 174.6,-175.5 185.73,-175.5"/>
<polygon fill="#63b8ff" stroke="#63b8ff" points="185.88,-179 195.88,-175.5 185.88,-172 185.88,-179"/>
</a>
</g>
</g>
<!-- Node10 -->
<g id="Node000010" class="node">
<title>Node10</title>
<g id="a_Node000010"><a xlink:href="classAP__Airspeed.html#ab4d2d1dadc9036ad57cfadb93d3b4c2a" target="_top" xlink:title=" ">
<polygon fill="white" stroke="#666666" points="353,-148 188,-148 188,-129 353,-129 353,-148"/>
<text text-anchor="middle" x="270.5" y="-136" font-family="Helvetica,sans-Serif" font-size="10.00">AP_Airspeed::get_temperature</text>
</a>
</g>
</g>
<!-- Node1&#45;&gt;Node10 -->
<g id="edge11_Node000001_Node000010" class="edge">
<title>Node1&#45;&gt;Node10</title>
<g id="a_edge11_Node000001_Node000010"><a xlink:title=" ">
<path fill="none" stroke="#63b8ff" d="M152.25,-161.04C171.38,-157.36 191.67,-153.46 209.9,-149.95"/>
<polygon fill="#63b8ff" stroke="#63b8ff" points="210.64,-153.38 219.8,-148.05 209.32,-146.5 210.64,-153.38"/>
</a>
</g>
</g>
<!-- Node12 -->
<g id="Node000012" class="node">
<title>Node12</title>
<g id="a_Node000012"><a xlink:href="classAP__Baro.html#ae7be7aff322792daa05c01e4f326cc42" target="_top" xlink:title=" ">
<polygon fill="white" stroke="#666666" points="343,-93 198,-93 198,-74 343,-74 343,-93"/>
<text text-anchor="middle" x="270.5" y="-81" font-family="Helvetica,sans-Serif" font-size="10.00">AP_Baro::get_temperature</text>
</a>
</g>
</g>
<!-- Node1&#45;&gt;Node12 -->
<g id="edge14_Node000001_Node000012" class="edge">
<title>Node1&#45;&gt;Node12</title>
<g id="a_edge14_Node000001_Node000012"><a xlink:title=" ">
<path fill="none" stroke="#63b8ff" d="M107.02,-160.28C129.28,-149.08 160.41,-133.59 188,-120.5 204.58,-112.63 223.21,-104.15 238.47,-97.29"/>
<polygon fill="#63b8ff" stroke="#63b8ff" points="240.26,-100.32 247.96,-93.04 237.4,-93.93 240.26,-100.32"/>
</a>
</g>
</g>
<!-- Node13 -->
<g id="Node000013" class="node">
<title>Node13</title>
<g id="a_Node000013"><a xlink:href="namespaceAP__HAL.html#a77dffbb18891996280308e21316ec186" target="_top" xlink:title=" ">
<polygon fill="white" stroke="#666666" points="314,-56 227,-56 227,-37 314,-37 314,-56"/>
<text text-anchor="middle" x="270.5" y="-44" font-family="Helvetica,sans-Serif" font-size="10.00">AP_HAL::millis</text>
</a>
</g>
</g>
<!-- Node1&#45;&gt;Node13 -->
<g id="edge16_Node000001_Node000013" class="edge">
<title>Node1&#45;&gt;Node13</title>
<g id="a_edge16_Node000001_Node000013"><a xlink:title=" ">
<path fill="none" stroke="#63b8ff" d="M87.74,-160.41C105.67,-136.41 144.07,-89.78 188,-65.5 196.87,-60.6 206.96,-56.96 216.94,-54.25"/>
<polygon fill="#63b8ff" stroke="#63b8ff" points="217.94,-57.61 226.84,-51.85 216.29,-50.81 217.94,-57.61"/>
</a>
</g>
</g>
<!-- Node20 -->
<g id="Node000020" class="node">
<title>Node20</title>
<g id="a_Node000020"><a xlink:href="classAP__Baro.html#ad56b4323cfc37bb7510e6cf319ecd7ad" target="_top" xlink:title=" ">
<polygon fill="white" stroke="#666666" points="339,-19 202,-19 202,0 339,0 339,-19"/>
<text text-anchor="middle" x="270.5" y="-7" font-family="Helvetica,sans-Serif" font-size="10.00">AP_Baro::num_instances</text>
</a>
</g>
</g>
<!-- Node1&#45;&gt;Node20 -->
<g id="edge23_Node000001_Node000020" class="edge">
<title>Node1&#45;&gt;Node20</title>
<g id="a_edge23_Node000001_Node000020"><a xlink:title=" ">
<path fill="none" stroke="#63b8ff" d="M83.94,-160.07C98.51,-129.54 135.35,-61.42 188,-27.5 190.46,-25.92 193.03,-24.47 195.69,-23.16"/>
<polygon fill="#63b8ff" stroke="#63b8ff" points="197.21,-26.31 205,-19.14 194.44,-19.88 197.21,-26.31"/>
</a>
</g>
</g>
<!-- Node3 -->
<g id="Node000003" class="node">
<title>Node3</title>
<g id="a_Node000003"><a xlink:href="classAP__Baro.html#af6c560031f4ddc5c21bfad92c8dd5a8a" target="_top" xlink:title=" ">
<polygon fill="white" stroke="#666666" points="523.5,-363 394.5,-363 394.5,-344 523.5,-344 523.5,-363"/>
<text text-anchor="middle" x="459" y="-351" font-family="Helvetica,sans-Serif" font-size="10.00">AP_Baro::get_singleton</text>
</a>
</g>
</g>
<!-- Node2&#45;&gt;Node3 -->
<g id="edge2_Node000002_Node000003" class="edge">
<title>Node2&#45;&gt;Node3</title>
<g id="a_edge2_Node000002_Node000003"><a xlink:title=" ">
<path fill="none" stroke="#63b8ff" d="M299.02,-353.5C321.5,-353.5 354.36,-353.5 384.38,-353.5"/>
<polygon fill="#63b8ff" stroke="#63b8ff" points="384.43,-357 394.43,-353.5 384.43,-350 384.43,-357"/>
</a>
</g>
</g>
<!-- Node5 -->
<g id="Node000005" class="node">
<title>Node5</title>
<g id="a_Node000005"><a xlink:href="classAP__Airspeed.html#ab77effd1e8538594b0d10180d027ba2f" target="_top" xlink:title=" ">
<polygon fill="white" stroke="#666666" points="529,-326 389,-326 389,-307 529,-307 529,-326"/>
<text text-anchor="middle" x="459" y="-314" font-family="Helvetica,sans-Serif" font-size="10.00">AP_Airspeed::lib_enabled</text>
</a>
</g>
</g>
<!-- Node4&#45;&gt;Node5 -->
<g id="edge4_Node000004_Node000005" class="edge">
<title>Node4&#45;&gt;Node5</title>
<g id="a_edge4_Node000004_Node000005"><a xlink:title=" ">
<path fill="none" stroke="#63b8ff" d="M331.54,-316.5C346.56,-316.5 362.91,-316.5 378.71,-316.5"/>
<polygon fill="#63b8ff" stroke="#63b8ff" points="378.99,-320 388.99,-316.5 378.99,-313 378.99,-320"/>
</a>
</g>
</g>
<!-- Node7 -->
<g id="Node000007" class="node">
<title>Node7</title>
<g id="a_Node000007"><a xlink:href="classAP__Airspeed.html#a86b49520d90ba23d15fb79614605e522" target="_top" xlink:title=" ">
<polygon fill="white" stroke="#666666" points="520,-231 398,-231 398,-212 520,-212 520,-231"/>
<text text-anchor="middle" x="459" y="-219" font-family="Helvetica,sans-Serif" font-size="10.00">AP_Airspeed::enabled</text>
</a>
</g>
</g>
<!-- Node6&#45;&gt;Node7 -->
<g id="edge6_Node000006_Node000007" class="edge">
<title>Node6&#45;&gt;Node7</title>
<g id="a_edge6_Node000006_Node000007"><a xlink:title=" ">
<path fill="none" stroke="#63b8ff" d="M325.44,-258.46C353.58,-250.61 387.57,-241.14 414.08,-233.74"/>
<polygon fill="#63b8ff" stroke="#63b8ff" points="415.16,-237.08 423.85,-231.02 413.28,-230.34 415.16,-237.08"/>
</a>
</g>
</g>
<!-- Node7&#45;&gt;Node7 -->
<g id="edge7_Node000007_Node000007" class="edge">
<title>Node7&#45;&gt;Node7</title>
<g id="a_edge7_Node000007_Node000007"><a xlink:title=" ">
<path fill="none" stroke="#63b8ff" d="M437.11,-231.08C426.47,-239.73 433.76,-249 459,-249 475.17,-249 483.97,-245.2 485.41,-240.19"/>
<polygon fill="#63b8ff" stroke="#63b8ff" points="488.47,-238.48 480.89,-231.08 482.2,-241.6 488.47,-238.48"/>
</a>
</g>
</g>
<!-- Node8&#45;&gt;Node8 -->
<g id="edge9_Node000008_Node000008" class="edge">
<title>Node8&#45;&gt;Node8</title>
<g id="a_edge9_Node000008_Node000008"><a xlink:title=" ">
<path fill="none" stroke="#63b8ff" d="M241.52,-222.08C227.43,-230.73 237.09,-240 270.5,-240 293.47,-240 305.22,-235.62 305.73,-230.07"/>
<polygon fill="#63b8ff" stroke="#63b8ff" points="308.4,-227.8 299.48,-222.08 302.89,-232.11 308.4,-227.8"/>
</a>
</g>
</g>
<!-- Node10&#45;&gt;Node7 -->
<g id="edge12_Node000010_Node000007" class="edge">
<title>Node10&#45;&gt;Node7</title>
<g id="a_edge12_Node000010_Node000007"><a xlink:title=" ">
<path fill="none" stroke="#63b8ff" d="M323.58,-148.03C333.52,-150.58 343.72,-153.71 353,-157.5 383.98,-170.17 416.4,-191.33 436.88,-205.82"/>
<polygon fill="#63b8ff" stroke="#63b8ff" points="434.98,-208.77 445.14,-211.77 439.07,-203.09 434.98,-208.77"/>
</a>
</g>
</g>
<!-- Node11 -->
<g id="Node000011" class="node">
<title>Node11</title>
<g id="a_Node000011"><a xlink:href="classAP__Airspeed__Backend.html#ab0e4ed6819fefd4da1c7a8e30a595186" target="_top" xlink:title=" ">
<polygon fill="white" stroke="#666666" points="521,-153.5 397,-153.5 397,-123.5 521,-123.5 521,-153.5"/>
<text text-anchor="start" x="405" y="-141.5" font-family="Helvetica,sans-Serif" font-size="10.00">AP_Airspeed_Backend</text>
<text text-anchor="middle" x="459" y="-130.5" font-family="Helvetica,sans-Serif" font-size="10.00">::get_temperature</text>
</a>
</g>
</g>
<!-- Node10&#45;&gt;Node11 -->
<g id="edge13_Node000010_Node000011" class="edge">
<title>Node10&#45;&gt;Node11</title>
<g id="a_edge13_Node000010_Node000011"><a xlink:title=" ">
<path fill="none" stroke="#63b8ff" d="M353.03,-138.5C364.29,-138.5 375.77,-138.5 386.82,-138.5"/>
<polygon fill="#63b8ff" stroke="#63b8ff" points="386.83,-142 396.83,-138.5 386.83,-135 386.83,-142"/>
</a>
</g>
</g>
<!-- Node12&#45;&gt;Node12 -->
<g id="edge15_Node000012_Node000012" class="edge">
<title>Node12&#45;&gt;Node12</title>
<g id="a_edge15_Node000012_Node000012"><a xlink:title=" ">
<path fill="none" stroke="#63b8ff" d="M241.52,-93.08C227.43,-101.73 237.09,-111 270.5,-111 293.47,-111 305.22,-106.62 305.73,-101.07"/>
<polygon fill="#63b8ff" stroke="#63b8ff" points="308.4,-98.8 299.48,-93.08 302.89,-103.11 308.4,-98.8"/>
</a>
</g>
</g>
<!-- Node14 -->
<g id="Node000014" class="node">
<title>Node14</title>
<g id="a_Node000014"><a xlink:href="hrt_8c.html#a1295f128f60d29874243b5733c4db025" target="_top" xlink:title=" ">
<polygon fill="white" stroke="#666666" points="496,-56 422,-56 422,-37 496,-37 496,-56"/>
<text text-anchor="middle" x="459" y="-44" font-family="Helvetica,sans-Serif" font-size="10.00">hrt_millis32</text>
</a>
</g>
</g>
<!-- Node13&#45;&gt;Node14 -->
<g id="edge17_Node000013_Node000014" class="edge">
<title>Node13&#45;&gt;Node14</title>
<g id="a_edge17_Node000013_Node000014"><a xlink:title=" ">
<path fill="none" stroke="#63b8ff" d="M314.29,-46.5C343.44,-46.5 382,-46.5 411.84,-46.5"/>
<polygon fill="#63b8ff" stroke="#63b8ff" points="412,-50 422,-46.5 412,-43 412,-50"/>
</a>
</g>
</g>
<!-- Node15 -->
<g id="Node000015" class="node">
<title>Node15</title>
<g id="a_Node000015"><a xlink:href="hrt_8c.html#a7dd7d90aadd8f76f26da7d5abfad6fe8" target="_top" xlink:title=" ">
<polygon fill="white" stroke="#666666" points="639,-56 565,-56 565,-37 639,-37 639,-56"/>
<text text-anchor="middle" x="602" y="-44" font-family="Helvetica,sans-Serif" font-size="10.00">hrt_millis64</text>
</a>
</g>
</g>
<!-- Node14&#45;&gt;Node15 -->
<g id="edge18_Node000014_Node000015" class="edge">
<title>Node14&#45;&gt;Node15</title>
<g id="a_edge18_Node000014_Node000015"><a xlink:title=" ">
<path fill="none" stroke="#63b8ff" d="M496.31,-46.5C514.07,-46.5 535.66,-46.5 554.6,-46.5"/>
<polygon fill="#63b8ff" stroke="#63b8ff" points="554.81,-50 564.81,-46.5 554.81,-43 554.81,-50"/>
</a>
</g>
</g>
<!-- Node16 -->
<g id="Node000016" class="node">
<title>Node16</title>
<g id="a_Node000016"><a xlink:href="hrt_8c.html#a152c3348a8e83f2dfe35b44cc2e30362" target="_top" xlink:title=" ">
<polygon fill="white" stroke="#666666" points="761,-75 681,-75 681,-56 761,-56 761,-75"/>
<text text-anchor="middle" x="721" y="-63" font-family="Helvetica,sans-Serif" font-size="10.00">hrt_micros64</text>
</a>
</g>
</g>
<!-- Node15&#45;&gt;Node16 -->
<g id="edge19_Node000015_Node000016" class="edge">
<title>Node15&#45;&gt;Node16</title>
<g id="a_edge19_Node000015_Node000016"><a xlink:title=" ">
<path fill="none" stroke="#63b8ff" d="M639.06,-52.36C649.03,-53.98 660.03,-55.76 670.62,-57.48"/>
<polygon fill="#63b8ff" stroke="#63b8ff" points="670.17,-60.95 680.6,-59.1 671.29,-54.04 670.17,-60.95"/>
</a>
</g>
</g>
<!-- Node19 -->
<g id="Node000019" class="node">
<title>Node19</title>
<g id="a_Node000019"><a xlink:href="div1000_8h.html#aece9e7f123414c41d0426fbadca097d8" target="_top" xlink:title=" ">
<polygon fill="white" stroke="#666666" points="767,-38 675,-38 675,-19 767,-19 767,-38"/>
<text text-anchor="middle" x="721" y="-26" font-family="Helvetica,sans-Serif" font-size="10.00">uint64_div1000</text>
</a>
</g>
</g>
<!-- Node15&#45;&gt;Node19 -->
<g id="edge22_Node000015_Node000019" class="edge">
<title>Node15&#45;&gt;Node19</title>
<g id="a_edge22_Node000015_Node000019"><a xlink:title=" ">
<path fill="none" stroke="#63b8ff" d="M639.06,-40.95C647.17,-39.71 655.95,-38.35 664.64,-37.02"/>
<polygon fill="#63b8ff" stroke="#63b8ff" points="665.41,-40.44 674.76,-35.46 664.34,-33.52 665.41,-40.44"/>
</a>
</g>
</g>
<!-- Node17 -->
<g id="Node000017" class="node">
<title>Node17</title>
<g id="a_Node000017"><a xlink:href="hrt_8c.html#a5b4ffc7ff86bd5b893c4a98834e80200" target="_top" xlink:title=" ">
<polygon fill="white" stroke="#666666" points="886,-94 803,-94 803,-75 886,-75 886,-94"/>
<text text-anchor="middle" x="844.5" y="-82" font-family="Helvetica,sans-Serif" font-size="10.00">hrt_micros64I</text>
</a>
</g>
</g>
<!-- Node16&#45;&gt;Node17 -->
<g id="edge20_Node000016_Node000017" class="edge">
<title>Node16&#45;&gt;Node17</title>
<g id="a_edge20_Node000016_Node000017"><a xlink:title=" ">
<path fill="none" stroke="#63b8ff" d="M761.11,-71.62C771.21,-73.19 782.22,-74.92 792.81,-76.57"/>
<polygon fill="#63b8ff" stroke="#63b8ff" points="792.37,-80.05 802.79,-78.13 793.45,-73.13 792.37,-80.05"/>
</a>
</g>
</g>
<!-- Node18 -->
<g id="Node000018" class="node">
<title>Node18</title>
<g id="a_Node000018"><a xlink:href="hrt_8c.html#a723fef85be7bacb834af35445a891c18" target="_top" xlink:title=" ">
<polygon fill="white" stroke="#666666" points="875.5,-57 813.5,-57 813.5,-38 875.5,-38 875.5,-57"/>
<text text-anchor="middle" x="844.5" y="-45" font-family="Helvetica,sans-Serif" font-size="10.00">is_locked</text>
</a>
</g>
</g>
<!-- Node16&#45;&gt;Node18 -->
<g id="edge21_Node000016_Node000018" class="edge">
<title>Node16&#45;&gt;Node18</title>
<g id="a_edge21_Node000016_Node000018"><a xlink:title=" ">
<path fill="none" stroke="#63b8ff" d="M761.11,-59.71C774.6,-57.71 789.73,-55.47 803.3,-53.46"/>
<polygon fill="#63b8ff" stroke="#63b8ff" points="803.95,-56.9 813.32,-51.97 802.92,-49.97 803.95,-56.9"/>
</a>
</g>
</g>
</g>
</svg>
