<?xml version="1.0" encoding="UTF-8" standalone="no"?>
<!DOCTYPE svg PUBLIC "-//W3C//DTD SVG 1.1//EN"
 "http://www.w3.org/Graphics/SVG/1.1/DTD/svg11.dtd">
<!-- Generated by graphviz version 2.43.0 (0)
 -->
<!-- Title: AP_AHRS::wind_alignment Pages: 1 -->
<svg width="651pt" height="38pt"
 viewBox="0.00 0.00 651.00 38.00" xmlns="http://www.w3.org/2000/svg" xmlns:xlink="http://www.w3.org/1999/xlink">
<g id="graph0" class="graph" transform="scale(1 1) rotate(0) translate(4 34)">
<title>AP_AHRS::wind_alignment</title>
<!-- Node1 -->
<g id="Node000001" class="node">
<title>Node1</title>
<g id="a_Node000001"><a xlink:title=" ">
<polygon fill="#999999" stroke="#666666" points="643,-24.5 497,-24.5 497,-5.5 643,-5.5 643,-24.5"/>
<text text-anchor="middle" x="570" y="-12.5" font-family="Helvetica,sans-Serif" font-size="10.00">AP_AHRS::wind_alignment</text>
</a>
</g>
</g>
<!-- Node2 -->
<g id="Node000002" class="node">
<title>Node2</title>
<g id="a_Node000002"><a xlink:href="classAP__AHRS.html#a71b7d8dd78fe4331472534a4d5b6b95d" target="_top" xlink:title=" ">
<polygon fill="white" stroke="#666666" points="461,-24.5 341,-24.5 341,-5.5 461,-5.5 461,-24.5"/>
<text text-anchor="middle" x="401" y="-12.5" font-family="Helvetica,sans-Serif" font-size="10.00">AP_AHRS::head_wind</text>
</a>
</g>
</g>
<!-- Node1&#45;&gt;Node2 -->
<g id="edge1_Node000001_Node000002" class="edge">
<title>Node1&#45;&gt;Node2</title>
<g id="a_edge1_Node000001_Node000002"><a xlink:title=" ">
<path fill="none" stroke="#63b8ff" d="M486.63,-15C478.01,-15 469.37,-15 461.08,-15"/>
<polygon fill="#63b8ff" stroke="#63b8ff" points="486.72,-18.5 496.72,-15 486.72,-11.5 486.72,-18.5"/>
</a>
</g>
</g>
<!-- Node3 -->
<g id="Node000003" class="node">
<title>Node3</title>
<g id="a_Node000003"><a xlink:href="classAP__Landing.html#a7daff6be77c2fc2412ef3a276f80e059" target="_top" xlink:title=" ">
<polygon fill="white" stroke="#666666" points="305,-30 165,-30 165,0 305,0 305,-30"/>
<text text-anchor="start" x="173" y="-18" font-family="Helvetica,sans-Serif" font-size="10.00">AP_Landing::type_slope</text>
<text text-anchor="middle" x="235" y="-7" font-family="Helvetica,sans-Serif" font-size="10.00">_get_target_airspeed_cm</text>
</a>
</g>
</g>
<!-- Node2&#45;&gt;Node3 -->
<g id="edge2_Node000002_Node000003" class="edge">
<title>Node2&#45;&gt;Node3</title>
<g id="a_edge2_Node000002_Node000003"><a xlink:title=" ">
<path fill="none" stroke="#63b8ff" d="M330.63,-15C322.2,-15 313.59,-15 305.16,-15"/>
<polygon fill="#63b8ff" stroke="#63b8ff" points="330.79,-18.5 340.79,-15 330.79,-11.5 330.79,-18.5"/>
</a>
</g>
</g>
<!-- Node4 -->
<g id="Node000004" class="node">
<title>Node4</title>
<g id="a_Node000004"><a xlink:href="classAP__Landing.html#a58a0f972e28c198e3c7feff512d8c896" target="_top" xlink:title=" ">
<polygon fill="white" stroke="#666666" points="129,-30 0,-30 0,0 129,0 129,-30"/>
<text text-anchor="start" x="8" y="-18" font-family="Helvetica,sans-Serif" font-size="10.00">AP_Landing::get_target</text>
<text text-anchor="middle" x="64.5" y="-7" font-family="Helvetica,sans-Serif" font-size="10.00">_airspeed_cm</text>
</a>
</g>
</g>
<!-- Node3&#45;&gt;Node4 -->
<g id="edge3_Node000003_Node000004" class="edge">
<title>Node3&#45;&gt;Node4</title>
<g id="a_edge3_Node000003_Node000004"><a xlink:title=" ">
<path fill="none" stroke="#63b8ff" d="M154.93,-15C146.33,-15 137.65,-15 129.26,-15"/>
<polygon fill="#63b8ff" stroke="#63b8ff" points="154.98,-18.5 164.98,-15 154.98,-11.5 154.98,-18.5"/>
</a>
</g>
</g>
</g>
</svg>
