<?xml version="1.0" encoding="UTF-8" standalone="no"?>
<!DOCTYPE svg PUBLIC "-//W3C//DTD SVG 1.1//EN"
 "http://www.w3.org/Graphics/SVG/1.1/DTD/svg11.dtd">
<!-- Generated by graphviz version 2.43.0 (0)
 -->
<!-- Title: AP_GPS::send_blob_update Pages: 1 -->
<svg width="889pt" height="46pt"
 viewBox="0.00 0.00 889.00 46.00" xmlns="http://www.w3.org/2000/svg" xmlns:xlink="http://www.w3.org/1999/xlink">
<g id="graph0" class="graph" transform="scale(1 1) rotate(0) translate(4 42)">
<title>AP_GPS::send_blob_update</title>
<!-- Node1 -->
<g id="Node000001" class="node">
<title>Node1</title>
<g id="a_Node000001"><a xlink:title=" ">
<polygon fill="#999999" stroke="#666666" points="881,-19 732,-19 732,0 881,0 881,-19"/>
<text text-anchor="middle" x="806.5" y="-7" font-family="Helvetica,sans-Serif" font-size="10.00">AP_GPS::send_blob_update</text>
</a>
</g>
</g>
<!-- Node2 -->
<g id="Node000002" class="node">
<title>Node2</title>
<g id="a_Node000002"><a xlink:href="classAP__GPS.html#aaf84a5f2a3629a01d2e00c8a07f91865" target="_top" xlink:title=" ">
<polygon fill="white" stroke="#666666" points="696,-38 553,-38 553,-19 696,-19 696,-38"/>
<text text-anchor="middle" x="624.5" y="-26" font-family="Helvetica,sans-Serif" font-size="10.00">AP_GPS::_detect_instance</text>
</a>
</g>
</g>
<!-- Node1&#45;&gt;Node2 -->
<g id="edge1_Node000001_Node000002" class="edge">
<title>Node1&#45;&gt;Node2</title>
<g id="a_edge1_Node000001_Node000002"><a xlink:title=" ">
<path fill="none" stroke="#63b8ff" d="M721.78,-18.34C713.23,-19.24 704.61,-20.15 696.21,-21.04"/>
<polygon fill="#63b8ff" stroke="#63b8ff" points="722.19,-21.81 731.77,-17.28 721.46,-14.85 722.19,-21.81"/>
</a>
</g>
</g>
<!-- Node4 -->
<g id="Node000004" class="node">
<title>Node4</title>
<g id="a_Node000004"><a xlink:href="classAP__GPS.html#a83302e8b52e5d01ae67375b3542eb460" target="_top" xlink:title=" ">
<polygon fill="white" stroke="#666666" points="344,-19 204,-19 204,0 344,0 344,-19"/>
<text text-anchor="middle" x="274" y="-7" font-family="Helvetica,sans-Serif" font-size="10.00">AP_GPS::update_instance</text>
</a>
</g>
</g>
<!-- Node1&#45;&gt;Node4 -->
<g id="edge6_Node000001_Node000004" class="edge">
<title>Node1&#45;&gt;Node4</title>
<g id="a_edge6_Node000001_Node000004"><a xlink:title=" ">
<path fill="none" stroke="#63b8ff" d="M721.56,-9.5C617.3,-9.5 441.34,-9.5 344.35,-9.5"/>
<polygon fill="#63b8ff" stroke="#63b8ff" points="721.74,-13 731.74,-9.5 721.74,-6 721.74,-13"/>
</a>
</g>
</g>
<!-- Node3 -->
<g id="Node000003" class="node">
<title>Node3</title>
<g id="a_Node000003"><a xlink:href="classAP__GPS.html#a4bdd5c70ed358b4147a58c7d09f040dd" target="_top" xlink:title=" ">
<polygon fill="white" stroke="#666666" points="517,-38 380,-38 380,-19 517,-19 517,-38"/>
<text text-anchor="middle" x="448.5" y="-26" font-family="Helvetica,sans-Serif" font-size="10.00">AP_GPS::detect_instance</text>
</a>
</g>
</g>
<!-- Node2&#45;&gt;Node3 -->
<g id="edge2_Node000002_Node000003" class="edge">
<title>Node2&#45;&gt;Node3</title>
<g id="a_edge2_Node000002_Node000003"><a xlink:title=" ">
<path fill="none" stroke="#63b8ff" d="M542.88,-28.5C534.23,-28.5 525.5,-28.5 517.02,-28.5"/>
<polygon fill="#63b8ff" stroke="#63b8ff" points="542.98,-32 552.98,-28.5 542.98,-25 542.98,-32"/>
</a>
</g>
</g>
<!-- Node3&#45;&gt;Node4 -->
<g id="edge3_Node000003_Node000004" class="edge">
<title>Node3&#45;&gt;Node4</title>
<g id="a_edge3_Node000003_Node000004"><a xlink:title=" ">
<path fill="none" stroke="#63b8ff" d="M369.85,-19.95C361.3,-19.01 352.63,-18.05 344.19,-17.12"/>
<polygon fill="#63b8ff" stroke="#63b8ff" points="369.5,-23.43 379.82,-21.05 370.26,-16.47 369.5,-23.43"/>
</a>
</g>
</g>
<!-- Node5 -->
<g id="Node000005" class="node">
<title>Node5</title>
<g id="a_Node000005"><a xlink:href="classAP__GPS.html#afe04427a47ab5e630cb979815abd911e" target="_top" xlink:title=" ">
<polygon fill="white" stroke="#666666" points="168,-19 74,-19 74,0 168,0 168,-19"/>
<text text-anchor="middle" x="121" y="-7" font-family="Helvetica,sans-Serif" font-size="10.00">AP_GPS::update</text>
</a>
</g>
</g>
<!-- Node4&#45;&gt;Node5 -->
<g id="edge4_Node000004_Node000005" class="edge">
<title>Node4&#45;&gt;Node5</title>
<g id="a_edge4_Node000004_Node000005"><a xlink:title=" ">
<path fill="none" stroke="#63b8ff" d="M193.46,-9.5C184.75,-9.5 176.12,-9.5 168.02,-9.5"/>
<polygon fill="#63b8ff" stroke="#63b8ff" points="193.69,-13 203.69,-9.5 193.69,-6 193.69,-13"/>
</a>
</g>
</g>
<!-- Node6 -->
<g id="Node000006" class="node">
<title>Node6</title>
<g id="a_Node000006"><a xlink:href="GPS__AUTO__test_8cpp.html#afe461d27b9c48d5921c00d521181f12f" target="_top" xlink:title=" ">
<polygon fill="white" stroke="#666666" points="38,-19 0,-19 0,0 38,0 38,-19"/>
<text text-anchor="middle" x="19" y="-7" font-family="Helvetica,sans-Serif" font-size="10.00">loop</text>
</a>
</g>
</g>
<!-- Node5&#45;&gt;Node6 -->
<g id="edge5_Node000005_Node000006" class="edge">
<title>Node5&#45;&gt;Node6</title>
<g id="a_edge5_Node000005_Node000006"><a xlink:title=" ">
<path fill="none" stroke="#63b8ff" d="M63.68,-9.5C54.41,-9.5 45.42,-9.5 38.04,-9.5"/>
<polygon fill="#63b8ff" stroke="#63b8ff" points="63.81,-13 73.81,-9.5 63.81,-6 63.81,-13"/>
</a>
</g>
</g>
</g>
</svg>
