<?xml version="1.0" encoding="UTF-8" standalone="no"?>
<!DOCTYPE svg PUBLIC "-//W3C//DTD SVG 1.1//EN"
 "http://www.w3.org/Graphics/SVG/1.1/DTD/svg11.dtd">
<!-- Generated by graphviz version 2.43.0 (0)
 -->
<!-- Title: SITL::MCP9600::rdwr Pages: 1 -->
<svg width="578pt" height="124pt"
 viewBox="0.00 0.00 578.00 123.50" xmlns="http://www.w3.org/2000/svg" xmlns:xlink="http://www.w3.org/1999/xlink">
<g id="graph0" class="graph" transform="scale(1 1) rotate(0) translate(4 119.5)">
<title>SITL::MCP9600::rdwr</title>
<!-- Node1 -->
<g id="Node000001" class="node">
<title>Node1</title>
<g id="a_Node000001"><a xlink:title=" ">
<polygon fill="#999999" stroke="#666666" points="116,-80 0,-80 0,-61 116,-61 116,-80"/>
<text text-anchor="middle" x="58" y="-68" font-family="Helvetica,sans-Serif" font-size="10.00">SITL::MCP9600::rdwr</text>
</a>
</g>
</g>
<!-- Node2 -->
<g id="Node000002" class="node">
<title>Node2</title>
<g id="a_Node000002"><a xlink:href="classSITL_1_1I2CRegisters__ConfigurableLength.html#ab054782a8633302166ae44c5d4abbb3e" target="_top" xlink:title=" ">
<polygon fill="white" stroke="#666666" points="296,-85.5 152,-85.5 152,-55.5 296,-55.5 296,-85.5"/>
<text text-anchor="start" x="160" y="-73.5" font-family="Helvetica,sans-Serif" font-size="10.00">SITL::I2CRegisters</text>
<text text-anchor="middle" x="224" y="-62.5" font-family="Helvetica,sans-Serif" font-size="10.00">_ConfigurableLength::rdwr</text>
</a>
</g>
</g>
<!-- Node1&#45;&gt;Node2 -->
<g id="edge1_Node000001_Node000002" class="edge">
<title>Node1&#45;&gt;Node2</title>
<g id="a_edge1_Node000001_Node000002"><a xlink:title=" ">
<path fill="none" stroke="#63b8ff" d="M116.36,-70.5C124.59,-70.5 133.19,-70.5 141.78,-70.5"/>
<polygon fill="#63b8ff" stroke="#63b8ff" points="141.83,-74 151.83,-70.5 141.83,-67 141.83,-74"/>
</a>
</g>
</g>
<!-- Node3 -->
<g id="Node000003" class="node">
<title>Node3</title>
<g id="a_Node000003"><a xlink:href="sparse-endian_8h.html#afeadfffc79afb9d2c017f0921b187204" target="_top" xlink:title=" ">
<polygon fill="white" stroke="#666666" points="403,-99 347,-99 347,-80 403,-80 403,-99"/>
<text text-anchor="middle" x="375" y="-87" font-family="Helvetica,sans-Serif" font-size="10.00">htobe16</text>
</a>
</g>
</g>
<!-- Node2&#45;&gt;Node3 -->
<g id="edge2_Node000002_Node000003" class="edge">
<title>Node2&#45;&gt;Node3</title>
<g id="a_edge2_Node000002_Node000003"><a xlink:title=" ">
<path fill="none" stroke="#63b8ff" d="M296.01,-79.55C310.18,-81.36 324.52,-83.19 336.97,-84.78"/>
<polygon fill="#63b8ff" stroke="#63b8ff" points="336.58,-88.26 346.94,-86.05 337.46,-81.31 336.58,-88.26"/>
</a>
</g>
</g>
<!-- Node4 -->
<g id="Node000004" class="node">
<title>Node4</title>
<g id="a_Node000004"><a xlink:href="namespaceAP__HAL.html#a52edeef7d5ffaa365e1229b87c170307" target="_top" xlink:title=" ">
<polygon fill="white" stroke="#666666" points="418,-62 332,-62 332,-43 418,-43 418,-62"/>
<text text-anchor="middle" x="375" y="-50" font-family="Helvetica,sans-Serif" font-size="10.00">AP_HAL::panic</text>
</a>
</g>
</g>
<!-- Node2&#45;&gt;Node4 -->
<g id="edge3_Node000002_Node000004" class="edge">
<title>Node2&#45;&gt;Node4</title>
<g id="a_edge3_Node000002_Node000004"><a xlink:title=" ">
<path fill="none" stroke="#63b8ff" d="M296.01,-61.92C304.75,-60.87 313.55,-59.8 321.94,-58.79"/>
<polygon fill="#63b8ff" stroke="#63b8ff" points="322.42,-62.26 331.92,-57.58 321.58,-55.31 322.42,-62.26"/>
</a>
</g>
</g>
<!-- Node5 -->
<g id="Node000005" class="node">
<title>Node5</title>
<g id="a_Node000005"><a xlink:href="classAP__HAL_1_1Scheduler.html#ab3175e2e6223ccfe82f957e41cc12b26" target="_top" xlink:title=" ">
<polygon fill="white" stroke="#666666" points="569,-115.5 455,-115.5 455,-85.5 569,-85.5 569,-115.5"/>
<text text-anchor="start" x="463" y="-103.5" font-family="Helvetica,sans-Serif" font-size="10.00">AP_HAL::Scheduler::</text>
<text text-anchor="middle" x="512" y="-92.5" font-family="Helvetica,sans-Serif" font-size="10.00">delay</text>
</a>
</g>
</g>
<!-- Node4&#45;&gt;Node5 -->
<g id="edge4_Node000004_Node000005" class="edge">
<title>Node4&#45;&gt;Node5</title>
<g id="a_edge4_Node000004_Node000005"><a xlink:title=" ">
<path fill="none" stroke="#63b8ff" d="M402.99,-62.1C419.06,-67.81 439.97,-75.25 459.12,-82.05"/>
<polygon fill="#63b8ff" stroke="#63b8ff" points="458.04,-85.38 468.64,-85.44 460.39,-78.79 458.04,-85.38"/>
</a>
</g>
</g>
<!-- Node6 -->
<g id="Node000006" class="node">
<title>Node6</title>
<g id="a_Node000006"><a xlink:href="classAP__HAL_1_1Scheduler.html#a78c4f1b1f192ac1c99544b6cc8f099b0" target="_top" xlink:title=" ">
<polygon fill="white" stroke="#666666" points="570,-67.5 454,-67.5 454,-37.5 570,-37.5 570,-67.5"/>
<text text-anchor="start" x="462" y="-55.5" font-family="Helvetica,sans-Serif" font-size="10.00">AP_HAL::Scheduler::</text>
<text text-anchor="middle" x="512" y="-44.5" font-family="Helvetica,sans-Serif" font-size="10.00">delay_microseconds</text>
</a>
</g>
</g>
<!-- Node4&#45;&gt;Node6 -->
<g id="edge5_Node000004_Node000006" class="edge">
<title>Node4&#45;&gt;Node6</title>
<g id="a_edge5_Node000004_Node000006"><a xlink:title=" ">
<path fill="none" stroke="#63b8ff" d="M418.34,-52.5C426.46,-52.5 435.14,-52.5 443.81,-52.5"/>
<polygon fill="#63b8ff" stroke="#63b8ff" points="443.96,-56 453.96,-52.5 443.96,-49 443.96,-56"/>
</a>
</g>
</g>
<!-- Node7 -->
<g id="Node000007" class="node">
<title>Node7</title>
<g id="a_Node000007"><a xlink:href="stdio_8h.html#aae132cc6af1eb6cf43bf011d8d63e854" target="_top" xlink:title=" ">
<polygon fill="white" stroke="#666666" points="536.5,-19 487.5,-19 487.5,0 536.5,0 536.5,-19"/>
<text text-anchor="middle" x="512" y="-7" font-family="Helvetica,sans-Serif" font-size="10.00">vprintf</text>
</a>
</g>
</g>
<!-- Node4&#45;&gt;Node7 -->
<g id="edge6_Node000004_Node000007" class="edge">
<title>Node4&#45;&gt;Node7</title>
<g id="a_edge6_Node000004_Node000007"><a xlink:title=" ">
<path fill="none" stroke="#63b8ff" d="M405.96,-42.96C427.25,-36.18 455.84,-27.07 477.82,-20.07"/>
<polygon fill="#63b8ff" stroke="#63b8ff" points="478.93,-23.39 487.4,-17.02 476.81,-16.72 478.93,-23.39"/>
</a>
</g>
</g>
</g>
</svg>
