<?xml version="1.0" encoding="UTF-8" standalone="no"?>
<!DOCTYPE svg PUBLIC "-//W3C//DTD SVG 1.1//EN"
 "http://www.w3.org/Graphics/SVG/1.1/DTD/svg11.dtd">
<!-- Generated by graphviz version 2.43.0 (0)
 -->
<!-- Title: StorageAccess::write_byte Pages: 1 -->
<svg width="309pt" height="76pt"
 viewBox="0.00 0.00 309.00 75.50" xmlns="http://www.w3.org/2000/svg" xmlns:xlink="http://www.w3.org/1999/xlink">
<g id="graph0" class="graph" transform="scale(1 1) rotate(0) translate(4 71.5)">
<title>StorageAccess::write_byte</title>
<!-- Node1 -->
<g id="Node000001" class="node">
<title>Node1</title>
<g id="a_Node000001"><a xlink:title=" ">
<polygon fill="#999999" stroke="#666666" points="301,-45.5 155,-45.5 155,-26.5 301,-26.5 301,-45.5"/>
<text text-anchor="middle" x="228" y="-33.5" font-family="Helvetica,sans-Serif" font-size="10.00">StorageAccess::write_byte</text>
</a>
</g>
</g>
<!-- Node2 -->
<g id="Node000002" class="node">
<title>Node2</title>
<g id="a_Node000002"><a xlink:href="StorageTest_8cpp.html#a4fc01d736fe50cf5b977f755b675f11d" target="_top" xlink:title=" ">
<polygon fill="white" stroke="#666666" points="81.5,-67.5 37.5,-67.5 37.5,-48.5 81.5,-48.5 81.5,-67.5"/>
<text text-anchor="middle" x="59.5" y="-55.5" font-family="Helvetica,sans-Serif" font-size="10.00">setup</text>
</a>
</g>
</g>
<!-- Node1&#45;&gt;Node2 -->
<g id="edge1_Node000001_Node000002" class="edge">
<title>Node1&#45;&gt;Node2</title>
<g id="a_edge1_Node000001_Node000002"><a xlink:title=" ">
<path fill="none" stroke="#63b8ff" d="M144.93,-46.84C121.52,-49.94 97.99,-53.05 81.73,-55.19"/>
<polygon fill="#63b8ff" stroke="#63b8ff" points="145.48,-50.3 154.94,-45.52 144.57,-43.36 145.48,-50.3"/>
</a>
</g>
</g>
<!-- Node3 -->
<g id="Node000003" class="node">
<title>Node3</title>
<g id="a_Node000003"><a xlink:href="classStorageAccess.html#a3eaa954d62729414e9db2cf4698be4e4" target="_top" xlink:title=" ">
<polygon fill="white" stroke="#666666" points="119,-30 0,-30 0,0 119,0 119,-30"/>
<text text-anchor="start" x="8" y="-18" font-family="Helvetica,sans-Serif" font-size="10.00">StorageAccess::write</text>
<text text-anchor="middle" x="59.5" y="-7" font-family="Helvetica,sans-Serif" font-size="10.00">_uint8</text>
</a>
</g>
</g>
<!-- Node1&#45;&gt;Node3 -->
<g id="edge2_Node000001_Node000003" class="edge">
<title>Node1&#45;&gt;Node3</title>
<g id="a_edge2_Node000001_Node000003"><a xlink:title=" ">
<path fill="none" stroke="#63b8ff" d="M144.8,-25.63C136.14,-24.54 127.47,-23.45 119.15,-22.4"/>
<polygon fill="#63b8ff" stroke="#63b8ff" points="144.58,-29.13 154.94,-26.91 145.46,-22.19 144.58,-29.13"/>
</a>
</g>
</g>
</g>
</svg>
