<?xml version="1.0" encoding="UTF-8" standalone="no"?>
<!DOCTYPE svg PUBLIC "-//W3C//DTD SVG 1.1//EN"
 "http://www.w3.org/Graphics/SVG/1.1/DTD/svg11.dtd">
<!-- Generated by graphviz version 2.43.0 (0)
 -->
<!-- Title: ChibiOS::UARTDriver::read_bytes_NODMA Pages: 1 -->
<svg width="740pt" height="86pt"
 viewBox="0.00 0.00 740.00 86.00" xmlns="http://www.w3.org/2000/svg" xmlns:xlink="http://www.w3.org/1999/xlink">
<g id="graph0" class="graph" transform="scale(1 1) rotate(0) translate(4 82)">
<title>ChibiOS::UARTDriver::read_bytes_NODMA</title>
<!-- Node1 -->
<g id="Node000001" class="node">
<title>Node1</title>
<g id="a_Node000001"><a xlink:title=" ">
<polygon fill="#999999" stroke="#666666" points="732,-54 612,-54 612,-24 732,-24 732,-54"/>
<text text-anchor="start" x="620" y="-42" font-family="Helvetica,sans-Serif" font-size="10.00">ChibiOS::UARTDriver</text>
<text text-anchor="middle" x="672" y="-31" font-family="Helvetica,sans-Serif" font-size="10.00">::read_bytes_NODMA</text>
</a>
</g>
</g>
<!-- Node2 -->
<g id="Node000002" class="node">
<title>Node2</title>
<g id="a_Node000002"><a xlink:href="classChibiOS_1_1UARTDriver.html#abadfd9176deb7ecd7d384bdcf4043da3" target="_top" xlink:title=" ">
<polygon fill="white" stroke="#666666" points="576,-78 459,-78 459,-48 576,-48 576,-78"/>
<text text-anchor="start" x="467" y="-66" font-family="Helvetica,sans-Serif" font-size="10.00">ChibiOS::UARTDriver</text>
<text text-anchor="middle" x="517.5" y="-55" font-family="Helvetica,sans-Serif" font-size="10.00">::_rx_timer_tick</text>
</a>
</g>
</g>
<!-- Node1&#45;&gt;Node2 -->
<g id="edge1_Node000001_Node000002" class="edge">
<title>Node1&#45;&gt;Node2</title>
<g id="a_edge1_Node000001_Node000002"><a xlink:title=" ">
<path fill="none" stroke="#63b8ff" d="M601.49,-49.94C593.13,-51.26 584.66,-52.59 576.48,-53.87"/>
<polygon fill="#63b8ff" stroke="#63b8ff" points="602.27,-53.36 611.6,-48.35 601.18,-46.45 602.27,-53.36"/>
</a>
</g>
</g>
<!-- Node6 -->
<g id="Node000006" class="node">
<title>Node6</title>
<g id="a_Node000006"><a xlink:href="classChibiOS_1_1UARTDriver.html#a90ebae85545e57c1aea480902b737c61" target="_top" xlink:title=" ">
<polygon fill="white" stroke="#666666" points="576,-30 459,-30 459,0 576,0 576,-30"/>
<text text-anchor="start" x="467" y="-18" font-family="Helvetica,sans-Serif" font-size="10.00">ChibiOS::UARTDriver</text>
<text text-anchor="middle" x="517.5" y="-7" font-family="Helvetica,sans-Serif" font-size="10.00">::_tx_timer_tick</text>
</a>
</g>
</g>
<!-- Node1&#45;&gt;Node6 -->
<g id="edge5_Node000001_Node000006" class="edge">
<title>Node1&#45;&gt;Node6</title>
<g id="a_edge5_Node000001_Node000006"><a xlink:title=" ">
<path fill="none" stroke="#63b8ff" d="M601.49,-28.06C593.13,-26.74 584.66,-25.41 576.48,-24.13"/>
<polygon fill="#63b8ff" stroke="#63b8ff" points="601.18,-31.55 611.6,-29.65 602.27,-24.64 601.18,-31.55"/>
</a>
</g>
</g>
<!-- Node3 -->
<g id="Node000003" class="node">
<title>Node3</title>
<g id="a_Node000003"><a xlink:href="classChibiOS_1_1UARTDriver.html#af52c3eef43add040af608ef2b699abd6" target="_top" xlink:title=" ">
<polygon fill="white" stroke="#666666" points="423,-78 306,-78 306,-48 423,-48 423,-78"/>
<text text-anchor="start" x="314" y="-66" font-family="Helvetica,sans-Serif" font-size="10.00">ChibiOS::UARTDriver</text>
<text text-anchor="middle" x="364.5" y="-55" font-family="Helvetica,sans-Serif" font-size="10.00">::uart_rx_thread</text>
</a>
</g>
</g>
<!-- Node2&#45;&gt;Node3 -->
<g id="edge2_Node000002_Node000003" class="edge">
<title>Node2&#45;&gt;Node3</title>
<g id="a_edge2_Node000002_Node000003"><a xlink:title=" ">
<path fill="none" stroke="#63b8ff" d="M448.95,-63C440.32,-63 431.56,-63 423.11,-63"/>
<polygon fill="#63b8ff" stroke="#63b8ff" points="448.98,-66.5 458.98,-63 448.98,-59.5 448.98,-66.5"/>
</a>
</g>
</g>
<!-- Node4 -->
<g id="Node000004" class="node">
<title>Node4</title>
<g id="a_Node000004"><a xlink:href="classChibiOS_1_1UARTDriver.html#ab7265ce2b99f50fbfeb1f2da11386f8d" target="_top" xlink:title=" ">
<polygon fill="white" stroke="#666666" points="270,-78 153,-78 153,-48 270,-48 270,-78"/>
<text text-anchor="start" x="161" y="-66" font-family="Helvetica,sans-Serif" font-size="10.00">ChibiOS::UARTDriver</text>
<text text-anchor="middle" x="211.5" y="-55" font-family="Helvetica,sans-Serif" font-size="10.00">::thread_rx_init</text>
</a>
</g>
</g>
<!-- Node3&#45;&gt;Node4 -->
<g id="edge3_Node000003_Node000004" class="edge">
<title>Node3&#45;&gt;Node4</title>
<g id="a_edge3_Node000003_Node000004"><a xlink:title=" ">
<path fill="none" stroke="#63b8ff" d="M295.95,-63C287.32,-63 278.56,-63 270.11,-63"/>
<polygon fill="#63b8ff" stroke="#63b8ff" points="295.98,-66.5 305.98,-63 295.98,-59.5 295.98,-66.5"/>
</a>
</g>
</g>
<!-- Node5 -->
<g id="Node000005" class="node">
<title>Node5</title>
<g id="a_Node000005"><a xlink:href="classChibiOS_1_1UARTDriver.html#a41bc3dc1653b20b8bcd2bd14cdc5ba8b" target="_top" xlink:title=" ">
<polygon fill="white" stroke="#666666" points="117,-78 0,-78 0,-48 117,-48 117,-78"/>
<text text-anchor="start" x="8" y="-66" font-family="Helvetica,sans-Serif" font-size="10.00">ChibiOS::UARTDriver</text>
<text text-anchor="middle" x="58.5" y="-55" font-family="Helvetica,sans-Serif" font-size="10.00">::_begin</text>
</a>
</g>
</g>
<!-- Node4&#45;&gt;Node5 -->
<g id="edge4_Node000004_Node000005" class="edge">
<title>Node4&#45;&gt;Node5</title>
<g id="a_edge4_Node000004_Node000005"><a xlink:title=" ">
<path fill="none" stroke="#63b8ff" d="M142.95,-63C134.32,-63 125.56,-63 117.11,-63"/>
<polygon fill="#63b8ff" stroke="#63b8ff" points="142.98,-66.5 152.98,-63 142.98,-59.5 142.98,-66.5"/>
</a>
</g>
</g>
<!-- Node7 -->
<g id="Node000007" class="node">
<title>Node7</title>
<g id="a_Node000007"><a xlink:href="classChibiOS_1_1UARTDriver.html#a303bee65e39f5aef1aaff12d7f231c43" target="_top" xlink:title=" ">
<polygon fill="white" stroke="#666666" points="423,-30 306,-30 306,0 423,0 423,-30"/>
<text text-anchor="start" x="314" y="-18" font-family="Helvetica,sans-Serif" font-size="10.00">ChibiOS::UARTDriver</text>
<text text-anchor="middle" x="364.5" y="-7" font-family="Helvetica,sans-Serif" font-size="10.00">::uart_thread</text>
</a>
</g>
</g>
<!-- Node6&#45;&gt;Node7 -->
<g id="edge6_Node000006_Node000007" class="edge">
<title>Node6&#45;&gt;Node7</title>
<g id="a_edge6_Node000006_Node000007"><a xlink:title=" ">
<path fill="none" stroke="#63b8ff" d="M448.95,-15C440.32,-15 431.56,-15 423.11,-15"/>
<polygon fill="#63b8ff" stroke="#63b8ff" points="448.98,-18.5 458.98,-15 448.98,-11.5 448.98,-18.5"/>
</a>
</g>
</g>
</g>
</svg>
