<?xml version="1.0" encoding="UTF-8" standalone="no"?>
<!DOCTYPE svg PUBLIC "-//W3C//DTD SVG 1.1//EN"
 "http://www.w3.org/Graphics/SVG/1.1/DTD/svg11.dtd">
<!-- Generated by graphviz version 2.43.0 (0)
 -->
<!-- Title: AP_RangeFinder_MaxsonarI2CXL::get_reading Pages: 1 -->
<svg width="512pt" height="98pt"
 viewBox="0.00 0.00 512.00 97.50" xmlns="http://www.w3.org/2000/svg" xmlns:xlink="http://www.w3.org/1999/xlink">
<g id="graph0" class="graph" transform="scale(1 1) rotate(0) translate(4 93.5)">
<title>AP_RangeFinder_MaxsonarI2CXL::get_reading</title>
<!-- Node1 -->
<g id="Node000001" class="node">
<title>Node1</title>
<g id="a_Node000001"><a xlink:title=" ">
<polygon fill="#999999" stroke="#666666" points="158,-52 0,-52 0,-22 158,-22 158,-52"/>
<text text-anchor="start" x="8" y="-40" font-family="Helvetica,sans-Serif" font-size="10.00">AP_RangeFinder_MaxsonarI2</text>
<text text-anchor="middle" x="79" y="-29" font-family="Helvetica,sans-Serif" font-size="10.00">CXL::get_reading</text>
</a>
</g>
</g>
<!-- Node2 -->
<g id="Node000002" class="node">
<title>Node2</title>
<g id="a_Node000002"><a xlink:href="sparse-endian_8h.html#a4460d76503583c1209bc0e78a5ccaefb" target="_top" xlink:title=" ">
<polygon fill="white" stroke="#666666" points="301,-89.5 245,-89.5 245,-70.5 301,-70.5 301,-89.5"/>
<text text-anchor="middle" x="273" y="-77.5" font-family="Helvetica,sans-Serif" font-size="10.00">be16toh</text>
</a>
</g>
</g>
<!-- Node1&#45;&gt;Node2 -->
<g id="edge1_Node000001_Node000002" class="edge">
<title>Node1&#45;&gt;Node2</title>
<g id="a_edge1_Node000001_Node000002"><a xlink:title=" ">
<path fill="none" stroke="#63b8ff" d="M147.15,-52.04C176.49,-58.61 209.78,-66.07 234.6,-71.62"/>
<polygon fill="#63b8ff" stroke="#63b8ff" points="234.17,-75.11 244.69,-73.88 235.7,-68.28 234.17,-75.11"/>
</a>
</g>
</g>
<!-- Node3 -->
<g id="Node000003" class="node">
<title>Node3</title>
<g id="a_Node000003"><a xlink:href="classAP__RangeFinder__MaxsonarI2CXL.html#a51188886a94d87fc3ebb795c0b40f0e4" target="_top" xlink:title=" ">
<polygon fill="white" stroke="#666666" points="352,-52 194,-52 194,-22 352,-22 352,-52"/>
<text text-anchor="start" x="202" y="-40" font-family="Helvetica,sans-Serif" font-size="10.00">AP_RangeFinder_MaxsonarI2</text>
<text text-anchor="middle" x="273" y="-29" font-family="Helvetica,sans-Serif" font-size="10.00">CXL::start_reading</text>
</a>
</g>
</g>
<!-- Node1&#45;&gt;Node3 -->
<g id="edge2_Node000001_Node000003" class="edge">
<title>Node1&#45;&gt;Node3</title>
<g id="a_edge2_Node000001_Node000003"><a xlink:title=" ">
<path fill="none" stroke="#63b8ff" d="M158.09,-37C166.6,-37 175.3,-37 183.92,-37"/>
<polygon fill="#63b8ff" stroke="#63b8ff" points="183.98,-40.5 193.98,-37 183.98,-33.5 183.98,-40.5"/>
</a>
</g>
</g>
<!-- Node4 -->
<g id="Node000004" class="node">
<title>Node4</title>
<g id="a_Node000004"><a xlink:href="classAP__HAL_1_1I2CDevice.html#a2e581ddc9b02eb73ad2fdf488fe8dc86" target="_top" xlink:title=" ">
<polygon fill="white" stroke="#666666" points="504,-30 388,-30 388,0 504,0 504,-30"/>
<text text-anchor="start" x="396" y="-18" font-family="Helvetica,sans-Serif" font-size="10.00">AP_HAL::I2CDevice::</text>
<text text-anchor="middle" x="446" y="-7" font-family="Helvetica,sans-Serif" font-size="10.00">transfer</text>
</a>
</g>
</g>
<!-- Node1&#45;&gt;Node4 -->
<g id="edge4_Node000001_Node000004" class="edge">
<title>Node1&#45;&gt;Node4</title>
<g id="a_edge4_Node000001_Node000004"><a xlink:title=" ">
<path fill="none" stroke="#63b8ff" d="M139.98,-21.94C157.29,-18.26 176.3,-14.84 194,-13 263.84,-5.73 281.78,-12.25 352,-13 360.36,-13.09 369.14,-13.23 377.82,-13.38"/>
<polygon fill="#63b8ff" stroke="#63b8ff" points="377.89,-16.89 387.95,-13.58 378.02,-9.89 377.89,-16.89"/>
</a>
</g>
</g>
<!-- Node3&#45;&gt;Node4 -->
<g id="edge3_Node000003_Node000004" class="edge">
<title>Node3&#45;&gt;Node4</title>
<g id="a_edge3_Node000003_Node000004"><a xlink:title=" ">
<path fill="none" stroke="#63b8ff" d="M352.49,-26.9C360.98,-25.81 369.56,-24.71 377.9,-23.63"/>
<polygon fill="#63b8ff" stroke="#63b8ff" points="378.45,-27.09 387.93,-22.34 377.56,-20.15 378.45,-27.09"/>
</a>
</g>
</g>
</g>
</svg>
