<?xml version="1.0" encoding="UTF-8" standalone="no"?>
<!DOCTYPE svg PUBLIC "-//W3C//DTD SVG 1.1//EN"
 "http://www.w3.org/Graphics/SVG/1.1/DTD/svg11.dtd">
<!-- Generated by graphviz version 2.43.0 (0)
 -->
<!-- Title: AP_RTC::get_local_time Pages: 1 -->
<svg width="673pt" height="94pt"
 viewBox="0.00 0.00 673.00 93.50" xmlns="http://www.w3.org/2000/svg" xmlns:xlink="http://www.w3.org/1999/xlink">
<g id="graph0" class="graph" transform="scale(1 1) rotate(0) translate(4 89.5)">
<title>AP_RTC::get_local_time</title>
<!-- Node1 -->
<g id="Node000001" class="node">
<title>Node1</title>
<g id="a_Node000001"><a xlink:title=" ">
<polygon fill="#999999" stroke="#666666" points="131,-58 0,-58 0,-39 131,-39 131,-58"/>
<text text-anchor="middle" x="65.5" y="-46" font-family="Helvetica,sans-Serif" font-size="10.00">AP_RTC::get_local_time</text>
</a>
</g>
</g>
<!-- Node2 -->
<g id="Node000002" class="node">
<title>Node2</title>
<g id="a_Node000002"><a xlink:href="classAP__RTC.html#a5d10ca38198dc3acd5ac31ba896f4fc2" target="_top" xlink:title=" ">
<polygon fill="white" stroke="#666666" points="287.5,-85.5 168.5,-85.5 168.5,-55.5 287.5,-55.5 287.5,-85.5"/>
<text text-anchor="start" x="176.5" y="-73.5" font-family="Helvetica,sans-Serif" font-size="10.00">AP_RTC::clock_ms_to</text>
<text text-anchor="middle" x="228" y="-62.5" font-family="Helvetica,sans-Serif" font-size="10.00">_hms_fields</text>
</a>
</g>
</g>
<!-- Node1&#45;&gt;Node2 -->
<g id="edge1_Node000001_Node000002" class="edge">
<title>Node1&#45;&gt;Node2</title>
<g id="a_edge1_Node000001_Node000002"><a xlink:title=" ">
<path fill="none" stroke="#63b8ff" d="M131.32,-57.38C140.23,-58.61 149.41,-59.86 158.39,-61.1"/>
<polygon fill="#63b8ff" stroke="#63b8ff" points="158.03,-64.58 168.41,-62.47 158.98,-57.64 158.03,-64.58"/>
</a>
</g>
</g>
<!-- Node3 -->
<g id="Node000003" class="node">
<title>Node3</title>
<g id="a_Node000003"><a xlink:href="classAP__RTC.html#ae0d5b4d97863ac93a71ea325cd632d90" target="_top" xlink:title=" ">
<polygon fill="white" stroke="#666666" points="289,-37 167,-37 167,-18 289,-18 289,-37"/>
<text text-anchor="middle" x="228" y="-25" font-family="Helvetica,sans-Serif" font-size="10.00">AP_RTC::get_utc_usec</text>
</a>
</g>
</g>
<!-- Node1&#45;&gt;Node3 -->
<g id="edge2_Node000001_Node000003" class="edge">
<title>Node1&#45;&gt;Node3</title>
<g id="a_edge2_Node000001_Node000003"><a xlink:title=" ">
<path fill="none" stroke="#63b8ff" d="M131.32,-40.02C139.67,-38.93 148.25,-37.8 156.68,-36.7"/>
<polygon fill="#63b8ff" stroke="#63b8ff" points="157.41,-40.14 166.87,-35.37 156.5,-33.19 157.41,-40.14"/>
</a>
</g>
</g>
<!-- Node4 -->
<g id="Node000004" class="node">
<title>Node4</title>
<g id="a_Node000004"><a xlink:href="namespaceAP__HAL.html#a7aa0ce7625c9680e30ff4a99940907a5" target="_top" xlink:title=" ">
<polygon fill="white" stroke="#666666" points="430,-37 325,-37 325,-18 430,-18 430,-37"/>
<text text-anchor="middle" x="377.5" y="-25" font-family="Helvetica,sans-Serif" font-size="10.00">AP_HAL::micros64</text>
</a>
</g>
</g>
<!-- Node3&#45;&gt;Node4 -->
<g id="edge3_Node000003_Node000004" class="edge">
<title>Node3&#45;&gt;Node4</title>
<g id="a_edge3_Node000003_Node000004"><a xlink:title=" ">
<path fill="none" stroke="#63b8ff" d="M289.42,-27.5C297.79,-27.5 306.4,-27.5 314.79,-27.5"/>
<polygon fill="#63b8ff" stroke="#63b8ff" points="314.9,-31 324.9,-27.5 314.9,-24 314.9,-31"/>
</a>
</g>
</g>
<!-- Node5 -->
<g id="Node000005" class="node">
<title>Node5</title>
<g id="a_Node000005"><a xlink:href="hrt_8c.html#a152c3348a8e83f2dfe35b44cc2e30362" target="_top" xlink:title=" ">
<polygon fill="white" stroke="#666666" points="546,-37 466,-37 466,-18 546,-18 546,-37"/>
<text text-anchor="middle" x="506" y="-25" font-family="Helvetica,sans-Serif" font-size="10.00">hrt_micros64</text>
</a>
</g>
</g>
<!-- Node4&#45;&gt;Node5 -->
<g id="edge4_Node000004_Node000005" class="edge">
<title>Node4&#45;&gt;Node5</title>
<g id="a_edge4_Node000004_Node000005"><a xlink:title=" ">
<path fill="none" stroke="#63b8ff" d="M430.32,-27.5C438.67,-27.5 447.29,-27.5 455.58,-27.5"/>
<polygon fill="#63b8ff" stroke="#63b8ff" points="455.85,-31 465.85,-27.5 455.85,-24 455.85,-31"/>
</a>
</g>
</g>
<!-- Node6 -->
<g id="Node000006" class="node">
<title>Node6</title>
<g id="a_Node000006"><a xlink:href="hrt_8c.html#a5b4ffc7ff86bd5b893c4a98834e80200" target="_top" xlink:title=" ">
<polygon fill="white" stroke="#666666" points="665,-56 582,-56 582,-37 665,-37 665,-56"/>
<text text-anchor="middle" x="623.5" y="-44" font-family="Helvetica,sans-Serif" font-size="10.00">hrt_micros64I</text>
</a>
</g>
</g>
<!-- Node5&#45;&gt;Node6 -->
<g id="edge5_Node000005_Node000006" class="edge">
<title>Node5&#45;&gt;Node6</title>
<g id="a_edge5_Node000005_Node000006"><a xlink:title=" ">
<path fill="none" stroke="#63b8ff" d="M546.1,-33.93C554.38,-35.29 563.23,-36.75 571.87,-38.17"/>
<polygon fill="#63b8ff" stroke="#63b8ff" points="571.42,-41.64 581.86,-39.81 572.56,-34.74 571.42,-41.64"/>
</a>
</g>
</g>
<!-- Node7 -->
<g id="Node000007" class="node">
<title>Node7</title>
<g id="a_Node000007"><a xlink:href="hrt_8c.html#a723fef85be7bacb834af35445a891c18" target="_top" xlink:title=" ">
<polygon fill="white" stroke="#666666" points="654.5,-19 592.5,-19 592.5,0 654.5,0 654.5,-19"/>
<text text-anchor="middle" x="623.5" y="-7" font-family="Helvetica,sans-Serif" font-size="10.00">is_locked</text>
</a>
</g>
</g>
<!-- Node5&#45;&gt;Node7 -->
<g id="edge6_Node000005_Node000007" class="edge">
<title>Node5&#45;&gt;Node7</title>
<g id="a_edge6_Node000005_Node000007"><a xlink:title=" ">
<path fill="none" stroke="#63b8ff" d="M546.1,-21.41C557.74,-19.59 570.52,-17.6 582.23,-15.78"/>
<polygon fill="#63b8ff" stroke="#63b8ff" points="582.86,-19.22 592.2,-14.22 581.78,-12.3 582.86,-19.22"/>
</a>
</g>
</g>
</g>
</svg>
