<?xml version="1.0" encoding="UTF-8" standalone="no"?>
<!DOCTYPE svg PUBLIC "-//W3C//DTD SVG 1.1//EN"
 "http://www.w3.org/Graphics/SVG/1.1/DTD/svg11.dtd">
<!-- Generated by graphviz version 2.43.0 (0)
 -->
<!-- Title: RC_Channel::do_aux_function_runcam_osd_control Pages: 1 -->
<svg width="484pt" height="101pt"
 viewBox="0.00 0.00 484.00 101.00" xmlns="http://www.w3.org/2000/svg" xmlns:xlink="http://www.w3.org/1999/xlink">

<svg id="main" version="1.1" xmlns="http://www.w3.org/2000/svg" xmlns:xlink="http://www.w3.org/1999/xlink" xml:space="preserve" onload="init(evt)">
<style type="text/css"><![CDATA[
.node, .edge {opacity: 0.7;}
.node.selected, .edge.selected {opacity: 1;}
.edge:hover path { stroke: red; }
.edge:hover polygon { stroke: red; fill: red; }
]]></style>
<script type="application/ecmascript" xlink:href="svg.min.js"/>
<svg id="graph" class="graph">
<g id="graph0" class="graph" transform="scale(1 1) rotate(0) translate(4 97)">
<title>RC_Channel::do_aux_function_runcam_osd_control</title>
<!-- Node1 -->
<g id="Node000001" class="node">
<title>Node1</title>
<g id="a_Node000001"><a xlink:title=" ">
<polygon fill="#999999" stroke="#666666" points="126,-67 0,-67 0,-26 126,-26 126,-67"/>
<text text-anchor="start" x="8" y="-55" font-family="Helvetica,sans-Serif" font-size="10.00">RC_Channel::do_aux</text>
<text text-anchor="start" x="8" y="-44" font-family="Helvetica,sans-Serif" font-size="10.00">_function_runcam_osd</text>
<text text-anchor="middle" x="63" y="-33" font-family="Helvetica,sans-Serif" font-size="10.00">_control</text>
</a>
</g>
</g>
<!-- Node2 -->
<g id="Node000002" class="node">
<title>Node2</title>
<g id="a_Node000002"><a xlink:href="classAP__RunCam.html#a55229d9293580ffaf2c5a669353c6364" target="_top" xlink:title=" ">
<polygon fill="white" stroke="#666666" points="292,-93 162,-93 162,-74 292,-74 292,-93"/>
<text text-anchor="middle" x="227" y="-81" font-family="Helvetica,sans-Serif" font-size="10.00">AP_RunCam::enter_osd</text>
</a>
</g>
</g>
<!-- Node1&#45;&gt;Node2 -->
<g id="edge1_Node000001_Node000002" class="edge">
<title>Node1&#45;&gt;Node2</title>
<g id="a_edge1_Node000001_Node000002"><a xlink:title=" ">
<path fill="none" stroke="#63b8ff" d="M126.17,-60.7C142.13,-64.34 159.12,-68.22 174.47,-71.73"/>
<polygon fill="#63b8ff" stroke="#63b8ff" points="173.77,-75.16 184.29,-73.97 175.32,-68.34 173.77,-75.16"/>
</a>
</g>
</g>
<!-- Node3 -->
<g id="Node000003" class="node">
<title>Node3</title>
<g id="a_Node000003"><a xlink:href="classAP__RunCam.html#ae431f1f039f3eeb67433491e88aa0141" target="_top" xlink:title=" ">
<polygon fill="white" stroke="#666666" points="288.5,-56 165.5,-56 165.5,-37 288.5,-37 288.5,-56"/>
<text text-anchor="middle" x="227" y="-44" font-family="Helvetica,sans-Serif" font-size="10.00">AP_RunCam::exit_osd</text>
</a>
</g>
</g>
<!-- Node1&#45;&gt;Node3 -->
<g id="edge2_Node000001_Node000003" class="edge">
<title>Node1&#45;&gt;Node3</title>
<g id="a_edge2_Node000001_Node000003"><a xlink:title=" ">
<path fill="none" stroke="#63b8ff" d="M126.17,-46.5C135.71,-46.5 145.61,-46.5 155.32,-46.5"/>
<polygon fill="#63b8ff" stroke="#63b8ff" points="155.33,-50 165.33,-46.5 155.33,-43 155.33,-50"/>
</a>
</g>
</g>
<!-- Node4 -->
<g id="Node000004" class="node">
<title>Node4</title>
<g id="a_Node000004"><a xlink:href="namespaceAP.html#a1250540cc675995b27423db93869b3b9" target="_top" xlink:title=" ">
<polygon fill="white" stroke="#666666" points="263,-19 191,-19 191,0 263,0 263,-19"/>
<text text-anchor="middle" x="227" y="-7" font-family="Helvetica,sans-Serif" font-size="10.00">AP::runcam</text>
</a>
</g>
</g>
<!-- Node1&#45;&gt;Node4 -->
<g id="edge3_Node000001_Node000004" class="edge">
<title>Node1&#45;&gt;Node4</title>
<g id="a_edge3_Node000001_Node000004"><a xlink:title=" ">
<path fill="none" stroke="#63b8ff" d="M126.17,-32.3C144.35,-28.15 163.86,-23.69 180.78,-19.83"/>
<polygon fill="#63b8ff" stroke="#63b8ff" points="181.97,-23.15 190.94,-17.51 180.41,-16.32 181.97,-23.15"/>
</a>
</g>
</g>
<!-- Node5 -->
<g id="Node000005" class="node">
<title>Node5</title>
<g id="a_Node000005"><a xlink:href="classAP__RunCam.html#a52ea807dd272d147cc94f83799cccd15" target="_top" xlink:title=" ">
<polygon fill="white" stroke="#666666" points="476,-19 328,-19 328,0 476,0 476,-19"/>
<text text-anchor="middle" x="402" y="-7" font-family="Helvetica,sans-Serif" font-size="10.00">AP_RunCam::get_singleton</text>
</a>
</g>
</g>
<!-- Node4&#45;&gt;Node5 -->
<g id="edge4_Node000004_Node000005" class="edge">
<title>Node4&#45;&gt;Node5</title>
<g id="a_edge4_Node000004_Node000005"><a xlink:title=" ">
<path fill="none" stroke="#63b8ff" d="M263.01,-9.5C278.9,-9.5 298.44,-9.5 317.75,-9.5"/>
<polygon fill="#63b8ff" stroke="#63b8ff" points="317.82,-13 327.82,-9.5 317.82,-6 317.82,-13"/>
</a>
</g>
</g>
</g>
</svg>
</svg>

<style type='text/css'>
<![CDATA[
[data-mouse-over-selected='false'] { opacity: 0.7; }
[data-mouse-over-selected='true']  { opacity: 1.0; }
]]>
</style>
<script type="application/ecmascript"><![CDATA[
document.addEventListener('DOMContentLoaded', (event) => {
  highlightEdges();
  highlightAdjacentNodes();
});
]]></script>
</svg>
