<?xml version="1.0" encoding="UTF-8" standalone="no"?>
<!DOCTYPE svg PUBLIC "-//W3C//DTD SVG 1.1//EN"
 "http://www.w3.org/Graphics/SVG/1.1/DTD/svg11.dtd">
<!-- Generated by graphviz version 2.43.0 (0)
 -->
<!-- Title: input::getc Pages: 1 -->
<!--zoomable 189 -->

<svg id="main" version="1.1" xmlns="http://www.w3.org/2000/svg" xmlns:xlink="http://www.w3.org/1999/xlink" xml:space="preserve" onload="init(evt)">
<style type="text/css"><![CDATA[
.node, .edge {opacity: 0.7;}
.node.selected, .edge.selected {opacity: 1;}
.edge:hover path { stroke: red; }
.edge:hover polygon { stroke: red; fill: red; }
]]></style>

<defs>
  <circle id="rim" cx="0" cy="0" r="7"/>
  <circle id="rim2" cx="0" cy="0" r="3.5"/>
  <g id="zoomPlus">
    <use xlink:href="#rim" fill="#404040"><set attributeName="fill" to="#808080" begin="zoomplus.mouseover" end="zoomplus.mouseout"/></use>
    <path d="M-4,0h8M0,-4v8" fill="none" stroke="white" stroke-width="1.5" pointer-events="none"/>
  </g>
  <g id="zoomMin">
    <use xlink:href="#rim" fill="#404040"><set attributeName="fill" to="#808080" begin="zoomminus.mouseover" end="zoomminus.mouseout"/></use>
    <path d="M-4,0h8" fill="none" stroke="white" stroke-width="1.5" pointer-events="none"/>
  </g>
  <g id="arrowUp" transform="translate(30 24)">
    <use xlink:href="#rim"/>
    <path pointer-events="none" fill="none" stroke="white" stroke-width="1.5" d="M0,-3.0v7 M-2.5,-0.5L0,-3.0L2.5,-0.5"/>
  </g>
  <g id="arrowRight" transform="rotate(90) translate(36 -43)">
    <use xlink:href="#rim"/>
    <path pointer-events="none" fill="none" stroke="white" stroke-width="1.5" d="M0,-3.0v7 M-2.5,-0.5L0,-3.0L2.5,-0.5"/>
  </g>
  <g id="arrowDown" transform="rotate(180) translate(-30 -48)">
    <use xlink:href="#rim"/>
    <path pointer-events="none" fill="none" stroke="white" stroke-width="1.5" d="M0,-3.0v7 M-2.5,-0.5L0,-3.0L2.5,-0.5"/>
  </g>
  <g id="arrowLeft" transform="rotate(270) translate(-36 17)">
    <use xlink:href="#rim"/>
    <path pointer-events="none" fill="none" stroke="white" stroke-width="1.5" d="M0,-3.0v7 M-2.5,-0.5L0,-3.0L2.5,-0.5"/>
  </g>
  <g id="resetDef">
    <use xlink:href="#rim2" fill="#404040"><set attributeName="fill" to="#808080" begin="reset.mouseover" end="reset.mouseout"/></use>
  </g>
</defs>
<script type="application/ecmascript">
var viewWidth = 615;
var viewHeight = 189;
var sectionId = 'dynsection-2';
</script>
<script type="application/ecmascript" xlink:href="svg.min.js"/>
<svg id="graph" class="graph">
<g id="viewport">
<title>input::getc</title>
<!-- Node1 -->
<g id="Node000001" class="node">
<title>Node1</title>
<g id="a_Node000001"><a xlink:title=" ">
<polygon fill="#999999" stroke="#666666" points="607,-104.5 539,-104.5 539,-85.5 607,-85.5 607,-104.5"/>
<text text-anchor="middle" x="573" y="-92.5" font-family="Helvetica,sans-Serif" font-size="10.00">input::getc</text>
</a>
</g>
</g>
<!-- Node2 -->
<g id="Node000002" class="node">
<title>Node2</title>
<g id="a_Node000002"><a xlink:href="AP__JSON_8cpp.html#a853b49ed56ac27a821f45f500892799b" target="_top" xlink:title=" ">
<polygon fill="white" stroke="#666666" points="87,-180.5 38,-180.5 38,-161.5 87,-161.5 87,-180.5"/>
<text text-anchor="middle" x="62.5" y="-168.5" font-family="Helvetica,sans-Serif" font-size="10.00">_parse</text>
</a>
</g>
</g>
<!-- Node1&#45;&gt;Node2 -->
<g id="edge1_Node000001_Node000002" class="edge">
<title>Node1&#45;&gt;Node2</title>
<g id="a_edge1_Node000001_Node000002"><a xlink:title=" ">
<path fill="none" stroke="#63b8ff" d="M547.12,-109.5C534.34,-116.26 518.29,-123.74 503,-128 349.02,-170.92 154.32,-172.45 87.37,-171.54"/>
<polygon fill="#63b8ff" stroke="#63b8ff" points="549.09,-112.41 556.18,-104.54 545.72,-106.27 549.09,-112.41"/>
</a>
</g>
</g>
<!-- Node3 -->
<g id="Node000003" class="node">
<title>Node3</title>
<g id="a_Node000003"><a xlink:href="AP__JSON_8cpp.html#adc3484d282398b858ccffcbaf065a640" target="_top" xlink:title=" ">
<polygon fill="white" stroke="#666666" points="210,-104.5 161,-104.5 161,-85.5 210,-85.5 210,-104.5"/>
<text text-anchor="middle" x="185.5" y="-92.5" font-family="Helvetica,sans-Serif" font-size="10.00">_parse</text>
</a>
</g>
</g>
<!-- Node1&#45;&gt;Node3 -->
<g id="edge2_Node000001_Node000003" class="edge">
<title>Node1&#45;&gt;Node3</title>
<g id="a_edge2_Node000001_Node000003"><a xlink:title=" ">
<path fill="none" stroke="#63b8ff" d="M529.01,-104.84C520.43,-106.49 511.46,-107.99 503,-109 389.56,-122.57 358.88,-131.59 246,-114 233.89,-112.11 220.88,-108.19 210.12,-104.4"/>
<polygon fill="#63b8ff" stroke="#63b8ff" points="529.72,-108.27 538.84,-102.86 528.34,-101.41 529.72,-108.27"/>
</a>
</g>
</g>
<!-- Node7 -->
<g id="Node000007" class="node">
<title>Node7</title>
<g id="a_Node000007"><a xlink:href="AP__JSON_8cpp.html#a19828e3ee491b8af5fb5ab9223dca659" target="_top" xlink:title=" ">
<polygon fill="white" stroke="#666666" points="354.5,-104.5 262.5,-104.5 262.5,-85.5 354.5,-85.5 354.5,-104.5"/>
<text text-anchor="middle" x="308.5" y="-92.5" font-family="Helvetica,sans-Serif" font-size="10.00">_parse_number</text>
</a>
</g>
</g>
<!-- Node1&#45;&gt;Node7 -->
<g id="edge7_Node000001_Node000007" class="edge">
<title>Node1&#45;&gt;Node7</title>
<g id="a_edge7_Node000001_Node000007"><a xlink:title=" ">
<path fill="none" stroke="#63b8ff" d="M528.68,-95C480.66,-95 403.57,-95 354.78,-95"/>
<polygon fill="#63b8ff" stroke="#63b8ff" points="528.75,-98.5 538.75,-95 528.75,-91.5 528.75,-98.5"/>
</a>
</g>
</g>
<!-- Node8 -->
<g id="Node000008" class="node">
<title>Node8</title>
<g id="a_Node000008"><a xlink:href="AP__JSON_8cpp.html#a534ef34cf1c2503efc89bf4b427663e7" target="_top" xlink:title=" ">
<polygon fill="white" stroke="#666666" points="503,-66.5 407,-66.5 407,-47.5 503,-47.5 503,-66.5"/>
<text text-anchor="middle" x="455" y="-54.5" font-family="Helvetica,sans-Serif" font-size="10.00">_parse_quadhex</text>
</a>
</g>
</g>
<!-- Node1&#45;&gt;Node8 -->
<g id="edge9_Node000001_Node000008" class="edge">
<title>Node1&#45;&gt;Node8</title>
<g id="a_edge9_Node000001_Node000008"><a xlink:title=" ">
<path fill="none" stroke="#63b8ff" d="M532.85,-82.17C517.28,-77.08 499.69,-71.31 485.26,-66.59"/>
<polygon fill="#63b8ff" stroke="#63b8ff" points="532.14,-85.62 542.73,-85.41 534.31,-78.97 532.14,-85.62"/>
</a>
</g>
</g>
<!-- Node9 -->
<g id="Node000009" class="node">
<title>Node9</title>
<g id="a_Node000009"><a xlink:href="AP__JSON_8cpp.html#ad29530a5aa243c219ca940fc71f82b6e" target="_top" xlink:title=" ">
<polygon fill="white" stroke="#666666" points="496,-29.5 414,-29.5 414,-10.5 496,-10.5 496,-29.5"/>
<text text-anchor="middle" x="455" y="-17.5" font-family="Helvetica,sans-Serif" font-size="10.00">_parse_string</text>
</a>
</g>
</g>
<!-- Node1&#45;&gt;Node9 -->
<g id="edge10_Node000001_Node000009" class="edge">
<title>Node1&#45;&gt;Node9</title>
<g id="a_edge10_Node000001_Node000009"><a xlink:title=" ">
<path fill="none" stroke="#63b8ff" d="M555.06,-78.31C541.77,-65.92 522.34,-49.28 503,-38 497.57,-34.83 491.47,-32.02 485.52,-29.62"/>
<polygon fill="#63b8ff" stroke="#63b8ff" points="552.83,-81.03 562.49,-85.4 557.66,-75.96 552.83,-81.03"/>
</a>
</g>
</g>
<!-- Node3&#45;&gt;Node2 -->
<g id="edge3_Node000003_Node000002" class="edge">
<title>Node3&#45;&gt;Node2</title>
<g id="a_edge3_Node000003_Node000002"><a xlink:title=" ">
<path fill="none" stroke="#63b8ff" d="M170.69,-112.47C159.61,-125.39 142.98,-142.49 125,-153 113.38,-159.79 99,-164.18 87.07,-166.93"/>
<polygon fill="#63b8ff" stroke="#63b8ff" points="173.44,-114.63 177.12,-104.7 168.05,-110.17 173.44,-114.63"/>
</a>
</g>
</g>
<!-- Node4 -->
<g id="Node000004" class="node">
<title>Node4</title>
<g id="a_Node000004"><a xlink:href="AP__JSON_8cpp.html#a2e981856b08f824182f52855cc788fec" target="_top" xlink:title=" ">
<polygon fill="white" stroke="#666666" points="84.5,-143.5 40.5,-143.5 40.5,-124.5 84.5,-124.5 84.5,-143.5"/>
<text text-anchor="middle" x="62.5" y="-131.5" font-family="Helvetica,sans-Serif" font-size="10.00">parse</text>
</a>
</g>
</g>
<!-- Node3&#45;&gt;Node4 -->
<g id="edge4_Node000003_Node000004" class="edge">
<title>Node3&#45;&gt;Node4</title>
<g id="a_edge4_Node000003_Node000004"><a xlink:title=" ">
<path fill="none" stroke="#63b8ff" d="M151.17,-106.36C142.65,-109.22 133.5,-112.26 125,-115 111.6,-119.32 96.49,-123.99 84.6,-127.62"/>
<polygon fill="#63b8ff" stroke="#63b8ff" points="152.45,-109.63 160.8,-103.11 150.21,-102.99 152.45,-109.63"/>
</a>
</g>
</g>
<!-- Node5 -->
<g id="Node000005" class="node">
<title>Node5</title>
<g id="a_Node000005"><a xlink:href="classdefault__parse__context.html#af273a2b869a9ab8b2933469dd7b97a8b" target="_top" xlink:title=" ">
<polygon fill="white" stroke="#666666" points="125,-106 0,-106 0,-76 125,-76 125,-106"/>
<text text-anchor="start" x="8" y="-94" font-family="Helvetica,sans-Serif" font-size="10.00">default_parse_context</text>
<text text-anchor="middle" x="62.5" y="-83" font-family="Helvetica,sans-Serif" font-size="10.00">::parse_array_item</text>
</a>
</g>
</g>
<!-- Node3&#45;&gt;Node5 -->
<g id="edge5_Node000003_Node000005" class="edge">
<title>Node3&#45;&gt;Node5</title>
<g id="a_edge5_Node000003_Node000005"><a xlink:title=" ">
<path fill="none" stroke="#63b8ff" d="M150.87,-93.89C142.86,-93.62 134.07,-93.33 125.23,-93.04"/>
<polygon fill="#63b8ff" stroke="#63b8ff" points="150.77,-97.39 160.88,-94.22 151,-90.39 150.77,-97.39"/>
</a>
</g>
</g>
<!-- Node6 -->
<g id="Node000006" class="node">
<title>Node6</title>
<g id="a_Node000006"><a xlink:href="classdefault__parse__context.html#a6f030306af3e2fd4f0785c2673802b92" target="_top" xlink:title=" ">
<polygon fill="white" stroke="#666666" points="125,-58 0,-58 0,-28 125,-28 125,-58"/>
<text text-anchor="start" x="8" y="-46" font-family="Helvetica,sans-Serif" font-size="10.00">default_parse_context</text>
<text text-anchor="middle" x="62.5" y="-35" font-family="Helvetica,sans-Serif" font-size="10.00">::parse_object_item</text>
</a>
</g>
</g>
<!-- Node3&#45;&gt;Node6 -->
<g id="edge6_Node000003_Node000006" class="edge">
<title>Node3&#45;&gt;Node6</title>
<g id="a_edge6_Node000003_Node000006"><a xlink:title=" ">
<path fill="none" stroke="#63b8ff" d="M155.85,-81.04C146.12,-76.43 135.15,-71.36 125,-67 118.05,-64.01 110.6,-60.97 103.36,-58.1"/>
<polygon fill="#63b8ff" stroke="#63b8ff" points="154.56,-84.3 165.09,-85.46 157.58,-77.98 154.56,-84.3"/>
</a>
</g>
</g>
<!-- Node7&#45;&gt;Node3 -->
<g id="edge8_Node000007_Node000003" class="edge">
<title>Node7&#45;&gt;Node3</title>
<g id="a_edge8_Node000007_Node000003"><a xlink:title=" ">
<path fill="none" stroke="#63b8ff" d="M252.31,-95C237.51,-95 222.28,-95 210.21,-95"/>
<polygon fill="#63b8ff" stroke="#63b8ff" points="252.44,-98.5 262.44,-95 252.44,-91.5 252.44,-98.5"/>
</a>
</g>
</g>
<!-- Node10 -->
<g id="Node000010" class="node">
<title>Node10</title>
<g id="a_Node000010"><a xlink:href="AP__JSON_8cpp.html#a7b7a56c7ebf8908548a136ad32de0839" target="_top" xlink:title=" ">
<polygon fill="white" stroke="#666666" points="350.5,-67.5 266.5,-67.5 266.5,-48.5 350.5,-48.5 350.5,-67.5"/>
<text text-anchor="middle" x="308.5" y="-55.5" font-family="Helvetica,sans-Serif" font-size="10.00">_parse_object</text>
</a>
</g>
</g>
<!-- Node9&#45;&gt;Node10 -->
<g id="edge11_Node000009_Node000010" class="edge">
<title>Node9&#45;&gt;Node10</title>
<g id="a_edge11_Node000009_Node000010"><a xlink:title=" ">
<path fill="none" stroke="#63b8ff" d="M407.67,-32.18C387.61,-37.46 364.47,-43.54 345.7,-48.48"/>
<polygon fill="#63b8ff" stroke="#63b8ff" points="408.76,-35.52 417.54,-29.59 406.98,-28.75 408.76,-35.52"/>
</a>
</g>
</g>
<!-- Node11 -->
<g id="Node000011" class="node">
<title>Node11</title>
<g id="a_Node000011"><a xlink:href="classdefault__parse__context.html#ae4f953df5327a29db6e723aa9f57a960" target="_top" xlink:title=" ">
<polygon fill="white" stroke="#666666" points="371,-30 246,-30 246,0 371,0 371,-30"/>
<text text-anchor="start" x="254" y="-18" font-family="Helvetica,sans-Serif" font-size="10.00">default_parse_context</text>
<text text-anchor="middle" x="308.5" y="-7" font-family="Helvetica,sans-Serif" font-size="10.00">::parse_string</text>
</a>
</g>
</g>
<!-- Node9&#45;&gt;Node11 -->
<g id="edge13_Node000009_Node000011" class="edge">
<title>Node9&#45;&gt;Node11</title>
<g id="a_edge13_Node000009_Node000011"><a xlink:title=" ">
<path fill="none" stroke="#63b8ff" d="M403.56,-18.25C393.1,-17.89 381.97,-17.51 371.17,-17.13"/>
<polygon fill="#63b8ff" stroke="#63b8ff" points="403.63,-21.76 413.75,-18.61 403.88,-14.76 403.63,-21.76"/>
</a>
</g>
</g>
<!-- Node10&#45;&gt;Node3 -->
<g id="edge12_Node000010_Node000003" class="edge">
<title>Node10&#45;&gt;Node3</title>
<g id="a_edge12_Node000010_Node000003"><a xlink:title=" ">
<path fill="none" stroke="#63b8ff" d="M266.56,-70.52C247.84,-76.24 226.31,-82.83 210.3,-87.72"/>
<polygon fill="#63b8ff" stroke="#63b8ff" points="267.8,-73.8 276.34,-67.53 265.75,-67.11 267.8,-73.8"/>
</a>
</g>
</g>
</g>
</svg>

<g id="navigator" transform="translate(0 0)" fill="#404254">
  <rect fill="#f2f5e9" fill-opacity="0.5" stroke="#606060" stroke-width=".5" x="0" y="0" width="60" height="60"/>
  <use id="zoomplus" xlink:href="#zoomPlus" x="17" y="9" onmousedown="handleZoom(evt,'in')"/>
  <use id="zoomminus" xlink:href="#zoomMin" x="42" y="9" onmousedown="handleZoom(evt,'out')"/>
  <use id="reset" xlink:href="#resetDef" x="30" y="36" onmousedown="handleReset()"/>
   <use id="arrowup" xlink:href="#arrowUp" x="0" y="0" onmousedown="handlePan(0,-1)"/>
  <use id="arrowright" xlink:href="#arrowRight" x="0" y="0" onmousedown="handlePan(1,0)"/>
  <use id="arrowdown" xlink:href="#arrowDown" x="0" y="0" onmousedown="handlePan(0,1)"/>
  <use id="arrowleft" xlink:href="#arrowLeft" x="0" y="0" onmousedown="handlePan(-1,0)"/>
</g>
<svg viewBox="0 0 15 15" width="100%" height="30px" preserveAspectRatio="xMaxYMin meet">
 <g id="arrow_out" transform="scale(0.3 0.3)">
  <a xlink:href="classinput_a0342a452c1e898acb447e52cefe9b05f_icgraph_org.svg" target="_base">
   <rect id="button" ry="5" rx="5" y="6" x="6" height="38" width="38"
        fill="#f2f5e9" fill-opacity="0.5" stroke="#606060" stroke-width="1.0"/>
   <path id="arrow"
     d="M 11.500037,31.436501 C 11.940474,20.09759 22.043105,11.32322 32.158766,21.979434 L 37.068811,17.246167 C 37.068811,17.246167 37.088388,32 37.088388,32 L 22.160133,31.978069 C 22.160133,31.978069 26.997745,27.140456 26.997745,27.140456 C 18.528582,18.264221 13.291696,25.230495 11.500037,31.436501 z"
     style="fill:#404040;"/>
  </a>
 </g>
</svg>

<style type='text/css'>
<![CDATA[
[data-mouse-over-selected='false'] { opacity: 0.7; }
[data-mouse-over-selected='true']  { opacity: 1.0; }
]]>
</style>
<script type="application/ecmascript"><![CDATA[
document.addEventListener('DOMContentLoaded', (event) => {
  highlightEdges();
  highlightAdjacentNodes();
});
]]></script>
</svg>
