<?xml version="1.0" encoding="UTF-8" standalone="no"?>
<!DOCTYPE svg PUBLIC "-//W3C//DTD SVG 1.1//EN"
 "http://www.w3.org/Graphics/SVG/1.1/DTD/svg11.dtd">
<!-- Generated by graphviz version 2.43.0 (0)
 -->
<!-- Title: AP_NavEKF_Source::usingGPS Pages: 1 -->
<!--zoomable 230 -->

<svg id="main" version="1.1" xmlns="http://www.w3.org/2000/svg" xmlns:xlink="http://www.w3.org/1999/xlink" xml:space="preserve" onload="init(evt)">
<style type="text/css"><![CDATA[
.node, .edge {opacity: 0.7;}
.node.selected, .edge.selected {opacity: 1;}
.edge:hover path { stroke: red; }
.edge:hover polygon { stroke: red; fill: red; }
]]></style>

<defs>
  <circle id="rim" cx="0" cy="0" r="7"/>
  <circle id="rim2" cx="0" cy="0" r="3.5"/>
  <g id="zoomPlus">
    <use xlink:href="#rim" fill="#404040"><set attributeName="fill" to="#808080" begin="zoomplus.mouseover" end="zoomplus.mouseout"/></use>
    <path d="M-4,0h8M0,-4v8" fill="none" stroke="white" stroke-width="1.5" pointer-events="none"/>
  </g>
  <g id="zoomMin">
    <use xlink:href="#rim" fill="#404040"><set attributeName="fill" to="#808080" begin="zoomminus.mouseover" end="zoomminus.mouseout"/></use>
    <path d="M-4,0h8" fill="none" stroke="white" stroke-width="1.5" pointer-events="none"/>
  </g>
  <g id="arrowUp" transform="translate(30 24)">
    <use xlink:href="#rim"/>
    <path pointer-events="none" fill="none" stroke="white" stroke-width="1.5" d="M0,-3.0v7 M-2.5,-0.5L0,-3.0L2.5,-0.5"/>
  </g>
  <g id="arrowRight" transform="rotate(90) translate(36 -43)">
    <use xlink:href="#rim"/>
    <path pointer-events="none" fill="none" stroke="white" stroke-width="1.5" d="M0,-3.0v7 M-2.5,-0.5L0,-3.0L2.5,-0.5"/>
  </g>
  <g id="arrowDown" transform="rotate(180) translate(-30 -48)">
    <use xlink:href="#rim"/>
    <path pointer-events="none" fill="none" stroke="white" stroke-width="1.5" d="M0,-3.0v7 M-2.5,-0.5L0,-3.0L2.5,-0.5"/>
  </g>
  <g id="arrowLeft" transform="rotate(270) translate(-36 17)">
    <use xlink:href="#rim"/>
    <path pointer-events="none" fill="none" stroke="white" stroke-width="1.5" d="M0,-3.0v7 M-2.5,-0.5L0,-3.0L2.5,-0.5"/>
  </g>
  <g id="resetDef">
    <use xlink:href="#rim2" fill="#404040"><set attributeName="fill" to="#808080" begin="reset.mouseover" end="reset.mouseout"/></use>
  </g>
</defs>
<script type="application/ecmascript">
var viewWidth = 741;
var viewHeight = 230;
var sectionId = 'dynsection-23';
</script>
<script type="application/ecmascript" xlink:href="svg.min.js"/>
<svg id="graph" class="graph">
<g id="viewport">
<title>AP_NavEKF_Source::usingGPS</title>
<!-- Node1 -->
<g id="Node000001" class="node">
<title>Node1</title>
<g id="a_Node000001"><a xlink:title=" ">
<polygon fill="#999999" stroke="#666666" points="163,-120.5 0,-120.5 0,-101.5 163,-101.5 163,-120.5"/>
<text text-anchor="middle" x="81.5" y="-108.5" font-family="Helvetica,sans-Serif" font-size="10.00">AP_NavEKF_Source::usingGPS</text>
</a>
</g>
</g>
<!-- Node2 -->
<g id="Node000002" class="node">
<title>Node2</title>
<g id="a_Node000002"><a xlink:href="classAP__NavEKF__Source.html#a9978923579ec2a26a23436d6e25a1a17" target="_top" xlink:title=" ">
<polygon fill="white" stroke="#666666" points="350,-222 200,-222 200,-192 350,-192 350,-222"/>
<text text-anchor="start" x="208" y="-210" font-family="Helvetica,sans-Serif" font-size="10.00">AP_NavEKF_Source::getPos</text>
<text text-anchor="middle" x="275" y="-199" font-family="Helvetica,sans-Serif" font-size="10.00">XYSource</text>
</a>
</g>
</g>
<!-- Node1&#45;&gt;Node2 -->
<g id="edge1_Node000001_Node000002" class="edge">
<title>Node1&#45;&gt;Node2</title>
<g id="a_edge1_Node000001_Node000002"><a xlink:title=" ">
<path fill="none" stroke="#63b8ff" d="M95.53,-120.54C116.46,-135.51 159.26,-164.7 199,-183 203.09,-184.88 207.37,-186.68 211.73,-188.38"/>
<polygon fill="#63b8ff" stroke="#63b8ff" points="210.74,-191.75 221.33,-191.95 213.17,-185.19 210.74,-191.75"/>
</a>
</g>
</g>
<!-- Node3 -->
<g id="Node000003" class="node">
<title>Node3</title>
<g id="a_Node000003"><a xlink:href="classAP__NavEKF__Source.html#a81cdc2a9a18adaa7e9136309e0e347d4" target="_top" xlink:title=" ">
<polygon fill="white" stroke="#666666" points="350,-174 200,-174 200,-144 350,-144 350,-174"/>
<text text-anchor="start" x="208" y="-162" font-family="Helvetica,sans-Serif" font-size="10.00">AP_NavEKF_Source::getPos</text>
<text text-anchor="middle" x="275" y="-151" font-family="Helvetica,sans-Serif" font-size="10.00">ZSource</text>
</a>
</g>
</g>
<!-- Node1&#45;&gt;Node3 -->
<g id="edge2_Node000001_Node000003" class="edge">
<title>Node1&#45;&gt;Node3</title>
<g id="a_edge2_Node000001_Node000003"><a xlink:title=" ">
<path fill="none" stroke="#63b8ff" d="M120.79,-120.6C144.62,-126.57 175.97,-134.43 204.11,-141.48"/>
<polygon fill="#63b8ff" stroke="#63b8ff" points="203.35,-144.9 213.9,-143.94 205.06,-138.11 203.35,-144.9"/>
</a>
</g>
</g>
<!-- Node7 -->
<g id="Node000007" class="node">
<title>Node7</title>
<g id="a_Node000007"><a xlink:href="classAP__NavEKF__Source.html#a237b5fe2442d86b11298ca3fce502d69" target="_top" xlink:title=" ">
<polygon fill="white" stroke="#666666" points="349,-126 201,-126 201,-96 349,-96 349,-126"/>
<text text-anchor="start" x="209" y="-114" font-family="Helvetica,sans-Serif" font-size="10.00">AP_NavEKF_Source::getVel</text>
<text text-anchor="middle" x="275" y="-103" font-family="Helvetica,sans-Serif" font-size="10.00">XYSource</text>
</a>
</g>
</g>
<!-- Node1&#45;&gt;Node7 -->
<g id="edge6_Node000001_Node000007" class="edge">
<title>Node1&#45;&gt;Node7</title>
<g id="a_edge6_Node000001_Node000007"><a xlink:title=" ">
<path fill="none" stroke="#63b8ff" d="M163.16,-111C172.22,-111 181.46,-111 190.56,-111"/>
<polygon fill="#63b8ff" stroke="#63b8ff" points="190.75,-114.5 200.75,-111 190.75,-107.5 190.75,-114.5"/>
</a>
</g>
</g>
<!-- Node8 -->
<g id="Node000008" class="node">
<title>Node8</title>
<g id="a_Node000008"><a xlink:href="classAP__NavEKF__Source.html#a59b2a2fc91bc245322aeee15dd27f697" target="_top" xlink:title=" ">
<polygon fill="white" stroke="#666666" points="349,-78 201,-78 201,-48 349,-48 349,-78"/>
<text text-anchor="start" x="209" y="-66" font-family="Helvetica,sans-Serif" font-size="10.00">AP_NavEKF_Source::getVel</text>
<text text-anchor="middle" x="275" y="-55" font-family="Helvetica,sans-Serif" font-size="10.00">ZSource</text>
</a>
</g>
</g>
<!-- Node1&#45;&gt;Node8 -->
<g id="edge7_Node000001_Node000008" class="edge">
<title>Node1&#45;&gt;Node8</title>
<g id="a_edge7_Node000001_Node000008"><a xlink:title=" ">
<path fill="none" stroke="#63b8ff" d="M120.79,-101.4C144.62,-95.43 175.97,-87.57 204.11,-80.52"/>
<polygon fill="#63b8ff" stroke="#63b8ff" points="205.06,-83.89 213.9,-78.06 203.35,-77.1 205.06,-83.89"/>
</a>
</g>
</g>
<!-- Node9 -->
<g id="Node000009" class="node">
<title>Node9</title>
<g id="a_Node000009"><a xlink:href="classAP__NavEKF__Source.html#a8effcb0802778fc240f30d949ae2a4a1" target="_top" xlink:title=" ">
<polygon fill="white" stroke="#666666" points="351,-30 199,-30 199,0 351,0 351,-30"/>
<text text-anchor="start" x="207" y="-18" font-family="Helvetica,sans-Serif" font-size="10.00">AP_NavEKF_Source::getYaw</text>
<text text-anchor="middle" x="275" y="-7" font-family="Helvetica,sans-Serif" font-size="10.00">Source</text>
</a>
</g>
</g>
<!-- Node1&#45;&gt;Node9 -->
<g id="edge8_Node000001_Node000009" class="edge">
<title>Node1&#45;&gt;Node9</title>
<g id="a_edge8_Node000001_Node000009"><a xlink:title=" ">
<path fill="none" stroke="#63b8ff" d="M95.53,-101.46C116.46,-86.49 159.26,-57.3 199,-39 203.09,-37.12 207.37,-35.32 211.73,-33.62"/>
<polygon fill="#63b8ff" stroke="#63b8ff" points="213.17,-36.81 221.33,-30.05 210.74,-30.25 213.17,-36.81"/>
</a>
</g>
</g>
<!-- Node4 -->
<g id="Node000004" class="node">
<title>Node4</title>
<g id="a_Node000004"><a xlink:href="namespaceAP.html#a72bac6dee7ddc414f93cbf7cad325f55" target="_top" xlink:title=" ">
<polygon fill="white" stroke="#666666" points="437,-96.5 387,-96.5 387,-77.5 437,-77.5 437,-96.5"/>
<text text-anchor="middle" x="412" y="-84.5" font-family="Helvetica,sans-Serif" font-size="10.00">AP::dal</text>
</a>
</g>
</g>
<!-- Node3&#45;&gt;Node4 -->
<g id="edge3_Node000003_Node000004" class="edge">
<title>Node3&#45;&gt;Node4</title>
<g id="a_edge3_Node000003_Node000004"><a xlink:title=" ">
<path fill="none" stroke="#63b8ff" d="M331.04,-143.97C337.92,-141.34 344.73,-138.36 351,-135 366.7,-126.58 382.36,-113.88 393.73,-103.65"/>
<polygon fill="#63b8ff" stroke="#63b8ff" points="396.24,-106.11 401.2,-96.75 391.49,-100.97 396.24,-106.11"/>
</a>
</g>
</g>
<!-- Node5 -->
<g id="Node000005" class="node">
<title>Node5</title>
<g id="a_Node000005"><a xlink:href="classAP__DAL.html#acd91e7fa4911059c7ea56e4dc96ded2b" target="_top" xlink:title=" ">
<polygon fill="white" stroke="#666666" points="599,-96.5 473,-96.5 473,-77.5 599,-77.5 599,-96.5"/>
<text text-anchor="middle" x="536" y="-84.5" font-family="Helvetica,sans-Serif" font-size="10.00">AP_DAL::get_singleton</text>
</a>
</g>
</g>
<!-- Node4&#45;&gt;Node5 -->
<g id="edge4_Node000004_Node000005" class="edge">
<title>Node4&#45;&gt;Node5</title>
<g id="a_edge4_Node000004_Node000005"><a xlink:title=" ">
<path fill="none" stroke="#63b8ff" d="M437.1,-87C444.7,-87 453.52,-87 462.7,-87"/>
<polygon fill="#63b8ff" stroke="#63b8ff" points="462.75,-90.5 472.75,-87 462.75,-83.5 462.75,-90.5"/>
</a>
</g>
</g>
<!-- Node6 -->
<g id="Node000006" class="node">
<title>Node6</title>
<g id="a_Node000006"><a xlink:href="classAP__DAL.html#a26972f837da1c3206aae5b90ef82d202" target="_top" xlink:title=" ">
<polygon fill="white" stroke="#666666" points="733,-96.5 635,-96.5 635,-77.5 733,-77.5 733,-96.5"/>
<text text-anchor="middle" x="684" y="-84.5" font-family="Helvetica,sans-Serif" font-size="10.00">AP_DAL::AP_DAL</text>
</a>
</g>
</g>
<!-- Node5&#45;&gt;Node6 -->
<g id="edge5_Node000005_Node000006" class="edge">
<title>Node5&#45;&gt;Node6</title>
<g id="a_edge5_Node000005_Node000006"><a xlink:title=" ">
<path fill="none" stroke="#63b8ff" d="M599.34,-87C607.83,-87 616.51,-87 624.91,-87"/>
<polygon fill="#63b8ff" stroke="#63b8ff" points="625,-90.5 635,-87 625,-83.5 625,-90.5"/>
</a>
</g>
</g>
<!-- Node9&#45;&gt;Node4 -->
<g id="edge9_Node000009_Node000004" class="edge">
<title>Node9&#45;&gt;Node4</title>
<g id="a_edge9_Node000009_Node000004"><a xlink:title=" ">
<path fill="none" stroke="#63b8ff" d="M331.04,-30.03C337.92,-32.66 344.73,-35.64 351,-39 366.7,-47.42 382.36,-60.12 393.73,-70.35"/>
<polygon fill="#63b8ff" stroke="#63b8ff" points="391.49,-73.03 401.2,-77.25 396.24,-67.89 391.49,-73.03"/>
</a>
</g>
</g>
</g>
</svg>

<g id="navigator" transform="translate(0 0)" fill="#404254">
  <rect fill="#f2f5e9" fill-opacity="0.5" stroke="#606060" stroke-width=".5" x="0" y="0" width="60" height="60"/>
  <use id="zoomplus" xlink:href="#zoomPlus" x="17" y="9" onmousedown="handleZoom(evt,'in')"/>
  <use id="zoomminus" xlink:href="#zoomMin" x="42" y="9" onmousedown="handleZoom(evt,'out')"/>
  <use id="reset" xlink:href="#resetDef" x="30" y="36" onmousedown="handleReset()"/>
   <use id="arrowup" xlink:href="#arrowUp" x="0" y="0" onmousedown="handlePan(0,-1)"/>
  <use id="arrowright" xlink:href="#arrowRight" x="0" y="0" onmousedown="handlePan(1,0)"/>
  <use id="arrowdown" xlink:href="#arrowDown" x="0" y="0" onmousedown="handlePan(0,1)"/>
  <use id="arrowleft" xlink:href="#arrowLeft" x="0" y="0" onmousedown="handlePan(-1,0)"/>
</g>
<svg viewBox="0 0 15 15" width="100%" height="30px" preserveAspectRatio="xMaxYMin meet">
 <g id="arrow_out" transform="scale(0.3 0.3)">
  <a xlink:href="classAP__NavEKF__Source_a05652474c40aba0a7127a8227d3bcbad_cgraph_org.svg" target="_base">
   <rect id="button" ry="5" rx="5" y="6" x="6" height="38" width="38"
        fill="#f2f5e9" fill-opacity="0.5" stroke="#606060" stroke-width="1.0"/>
   <path id="arrow"
     d="M 11.500037,31.436501 C 11.940474,20.09759 22.043105,11.32322 32.158766,21.979434 L 37.068811,17.246167 C 37.068811,17.246167 37.088388,32 37.088388,32 L 22.160133,31.978069 C 22.160133,31.978069 26.997745,27.140456 26.997745,27.140456 C 18.528582,18.264221 13.291696,25.230495 11.500037,31.436501 z"
     style="fill:#404040;"/>
  </a>
 </g>
</svg>

<style type='text/css'>
<![CDATA[
[data-mouse-over-selected='false'] { opacity: 0.7; }
[data-mouse-over-selected='true']  { opacity: 1.0; }
]]>
</style>
<script type="application/ecmascript"><![CDATA[
document.addEventListener('DOMContentLoaded', (event) => {
  highlightEdges();
  highlightAdjacentNodes();
});
]]></script>
</svg>
