<?xml version="1.0" encoding="UTF-8" standalone="no"?>
<!DOCTYPE svg PUBLIC "-//W3C//DTD SVG 1.1//EN"
 "http://www.w3.org/Graphics/SVG/1.1/DTD/svg11.dtd">
<!-- Generated by graphviz version 2.43.0 (0)
 -->
<!-- Title: AC_AutoTune_FreqResp Pages: 1 -->
<svg width="581pt" height="86pt"
 viewBox="0.00 0.00 581.00 86.00" xmlns="http://www.w3.org/2000/svg" xmlns:xlink="http://www.w3.org/1999/xlink">
<g id="graph0" class="graph" transform="scale(1 1) rotate(0) translate(4 82)">
<title>AC_AutoTune_FreqResp</title>
<!-- Node1 -->
<g id="Node000001" class="node">
<title>Node1</title>
<g id="a_Node000001"><a xlink:title=" ">
<polygon fill="#999999" stroke="#666666" points="573,-48.5 442,-48.5 442,-29.5 573,-29.5 573,-48.5"/>
<text text-anchor="middle" x="507.5" y="-36.5" font-family="Helvetica,sans-Serif" font-size="10.00">AC_AutoTune_FreqResp</text>
</a>
</g>
</g>
<!-- Node2 -->
<g id="Node000002" class="node">
<title>Node2</title>
<g id="a_Node000002"><a xlink:href="structAC__AutoTune__FreqResp_1_1sweep__peak__finding__data.html" target="_top" xlink:title=" ">
<polygon fill="white" stroke="#666666" points="286.5,-78 137.5,-78 137.5,-48 286.5,-48 286.5,-78"/>
<text text-anchor="start" x="145.5" y="-66" font-family="Helvetica,sans-Serif" font-size="10.00">AC_AutoTune_FreqResp</text>
<text text-anchor="middle" x="212" y="-55" font-family="Helvetica,sans-Serif" font-size="10.00">::sweep_peak_finding_data</text>
</a>
</g>
</g>
<!-- Node2&#45;&gt;Node1 -->
<g id="edge1_Node000001_Node000002" class="edge">
<title>Node2&#45;&gt;Node1</title>
<g id="a_edge1_Node000001_Node000002"><a xlink:title=" ">
<path fill="none" stroke="#9a32cd" stroke-dasharray="5,2" d="M296.65,-56.16C342.74,-52.39 399.08,-47.78 441.78,-44.29"/>
<polygon fill="#9a32cd" stroke="#9a32cd" points="296.37,-52.67 286.68,-56.97 296.94,-59.65 296.37,-52.67"/>
</a>
</g>
<text text-anchor="middle" x="365" y="-69" font-family="Helvetica,sans-Serif" font-size="10.00" fill="grey"> sweep_meas</text>
<text text-anchor="middle" x="365" y="-58" font-family="Helvetica,sans-Serif" font-size="10.00" fill="grey">sweep_tgt</text>
</g>
<!-- Node3 -->
<g id="Node000003" class="node">
<title>Node3</title>
<g id="a_Node000003"><a xlink:href="classObjectBuffer.html" target="_top" xlink:title=" ">
<polygon fill="white" stroke="#666666" points="288,-30 136,-30 136,0 288,0 288,-30"/>
<text text-anchor="start" x="144" y="-18" font-family="Helvetica,sans-Serif" font-size="10.00">ObjectBuffer&lt; AC_AutoTune</text>
<text text-anchor="middle" x="212" y="-7" font-family="Helvetica,sans-Serif" font-size="10.00">_FreqResp::peak_info &gt;</text>
</a>
</g>
</g>
<!-- Node3&#45;&gt;Node1 -->
<g id="edge2_Node000001_Node000003" class="edge">
<title>Node3&#45;&gt;Node1</title>
<g id="a_edge2_Node000001_Node000003"><a xlink:title=" ">
<path fill="none" stroke="#9a32cd" stroke-dasharray="5,2" d="M298.6,-13.1C337.07,-13.26 382.95,-14.84 424,-20 440.04,-22.02 457.53,-25.81 472.26,-29.48"/>
<polygon fill="#9a32cd" stroke="#9a32cd" points="298.47,-9.6 288.47,-13.1 298.47,-16.6 298.47,-9.6"/>
</a>
</g>
<text text-anchor="middle" x="365" y="-34" font-family="Helvetica,sans-Serif" font-size="10.00" fill="grey"> meas_peak_info_buffer</text>
<text text-anchor="middle" x="365" y="-23" font-family="Helvetica,sans-Serif" font-size="10.00" fill="grey">tgt_peak_info_buffer</text>
</g>
<!-- Node4 -->
<g id="Node000004" class="node">
<title>Node4</title>
<g id="a_Node000004"><a xlink:href="classByteBuffer.html" target="_top" xlink:title=" ">
<polygon fill="white" stroke="#666666" points="68,-24.5 0,-24.5 0,-5.5 68,-5.5 68,-24.5"/>
<text text-anchor="middle" x="34" y="-12.5" font-family="Helvetica,sans-Serif" font-size="10.00">ByteBuffer</text>
</a>
</g>
</g>
<!-- Node4&#45;&gt;Node3 -->
<g id="edge3_Node000003_Node000004" class="edge">
<title>Node4&#45;&gt;Node3</title>
<g id="a_edge3_Node000003_Node000004"><a xlink:title=" ">
<path fill="none" stroke="#9a32cd" stroke-dasharray="5,2" d="M78.44,-15C95.74,-15 116.16,-15 135.72,-15"/>
<polygon fill="#9a32cd" stroke="#9a32cd" points="78.1,-11.5 68.1,-15 78.1,-18.5 78.1,-11.5"/>
</a>
</g>
<text text-anchor="middle" x="102" y="-18" font-family="Helvetica,sans-Serif" font-size="10.00" fill="grey"> buffer</text>
</g>
</g>
</svg>
