<?xml version="1.0" encoding="UTF-8" standalone="no"?>
<!DOCTYPE svg PUBLIC "-//W3C//DTD SVG 1.1//EN"
 "http://www.w3.org/Graphics/SVG/1.1/DTD/svg11.dtd">
<!-- Generated by graphviz version 2.43.0 (0)
 -->
<!-- Title: AP_RSSI Pages: 1 -->
<svg width="501pt" height="162pt"
 viewBox="0.00 0.00 500.50 162.00" xmlns="http://www.w3.org/2000/svg" xmlns:xlink="http://www.w3.org/1999/xlink">
<g id="graph0" class="graph" transform="scale(1 1) rotate(0) translate(4 158)">
<title>AP_RSSI</title>
<!-- Node1 -->
<g id="Node000001" class="node">
<title>Node1</title>
<g id="a_Node000001"><a xlink:title=" ">
<polygon fill="#999999" stroke="#666666" points="317.5,-19 261.5,-19 261.5,0 317.5,0 317.5,-19"/>
<text text-anchor="middle" x="289.5" y="-7" font-family="Helvetica,sans-Serif" font-size="10.00">AP_RSSI</text>
</a>
</g>
</g>
<!-- Node1&#45;&gt;Node1 -->
<g id="edge3_Node000001_Node000001" class="edge">
<title>Node1&#45;&gt;Node1</title>
<g id="a_edge3_Node000001_Node000001"><a xlink:title=" ">
<path fill="none" stroke="#9a32cd" stroke-dasharray="5,2" d="M328.05,-14.63C332.56,-13.69 335.5,-11.98 335.5,-9.5 335.5,-5.44 327.59,-3.44 317.8,-3.5"/>
<polygon fill="#9a32cd" stroke="#9a32cd" points="327.47,-11.17 317.8,-15.5 328.06,-18.14 327.47,-11.17"/>
</a>
</g>
<text text-anchor="middle" x="362.5" y="-7" font-family="Helvetica,sans-Serif" font-size="10.00" fill="grey"> _singleton</text>
</g>
<!-- Node2 -->
<g id="Node000002" class="node">
<title>Node2</title>
<g id="a_Node000002"><a xlink:href="structAP__Param_1_1GroupInfo.html" target="_top" xlink:title=" ">
<polygon fill="white" stroke="#666666" points="119,-86.5 0,-86.5 0,-67.5 119,-67.5 119,-86.5"/>
<text text-anchor="middle" x="59.5" y="-74.5" font-family="Helvetica,sans-Serif" font-size="10.00">AP_Param::GroupInfo</text>
</a>
</g>
</g>
<!-- Node2&#45;&gt;Node1 -->
<g id="edge1_Node000001_Node000002" class="edge">
<title>Node2&#45;&gt;Node1</title>
<g id="a_edge1_Node000001_Node000002"><a xlink:title=" ">
<path fill="none" stroke="#9a32cd" stroke-dasharray="5,2" d="M99.25,-64.68C145.47,-51.52 220.59,-30.13 261.23,-18.55"/>
<polygon fill="#9a32cd" stroke="#9a32cd" points="98.23,-61.33 89.57,-67.44 100.14,-68.06 98.23,-61.33"/>
</a>
</g>
<text text-anchor="middle" x="216" y="-40" font-family="Helvetica,sans-Serif" font-size="10.00" fill="grey"> var_info</text>
</g>
<!-- Node2&#45;&gt;Node2 -->
<g id="edge2_Node000002_Node000002" class="edge">
<title>Node2&#45;&gt;Node2</title>
<g id="a_edge2_Node000002_Node000002"><a xlink:title=" ">
<path fill="none" stroke="#9a32cd" stroke-dasharray="5,2" d="M129.48,-81.58C134.16,-80.52 137,-78.99 137,-77 137,-73.81 129.73,-71.82 119.29,-71.02"/>
<polygon fill="#9a32cd" stroke="#9a32cd" points="128.72,-78.15 119.29,-82.98 129.67,-85.08 128.72,-78.15"/>
</a>
</g>
<text text-anchor="middle" x="172.5" y="-80" font-family="Helvetica,sans-Serif" font-size="10.00" fill="grey"> group_info</text>
<text text-anchor="middle" x="172.5" y="-69" font-family="Helvetica,sans-Serif" font-size="10.00" fill="grey">group_info_ptr</text>
</g>
<!-- Node3 -->
<g id="Node000003" class="node">
<title>Node3</title>
<g id="a_Node000003"><a xlink:href="classAP__HAL_1_1AnalogSource.html" target="_top" xlink:title=" ">
<polygon fill="white" stroke="#666666" points="353,-86.5 226,-86.5 226,-67.5 353,-67.5 353,-86.5"/>
<text text-anchor="middle" x="289.5" y="-74.5" font-family="Helvetica,sans-Serif" font-size="10.00">AP_HAL::AnalogSource</text>
</a>
</g>
</g>
<!-- Node3&#45;&gt;Node1 -->
<g id="edge4_Node000001_Node000003" class="edge">
<title>Node3&#45;&gt;Node1</title>
<g id="a_edge4_Node000001_Node000003"><a xlink:title=" ">
<path fill="none" stroke="#9a32cd" stroke-dasharray="5,2" d="M289.5,-57.18C289.5,-44.71 289.5,-28.92 289.5,-19.27"/>
<polygon fill="#9a32cd" stroke="#9a32cd" points="286,-57.44 289.5,-67.44 293,-57.44 286,-57.44"/>
</a>
</g>
<text text-anchor="middle" x="338" y="-40" font-family="Helvetica,sans-Serif" font-size="10.00" fill="grey"> rssi_analog_source</text>
</g>
<!-- Node4 -->
<g id="Node000004" class="node">
<title>Node4</title>
<g id="a_Node000004"><a xlink:href="structAP__RSSI_1_1PWMState.html" target="_top" xlink:title=" ">
<polygon fill="white" stroke="#666666" points="484,-86.5 371,-86.5 371,-67.5 484,-67.5 484,-86.5"/>
<text text-anchor="middle" x="427.5" y="-74.5" font-family="Helvetica,sans-Serif" font-size="10.00">AP_RSSI::PWMState</text>
</a>
</g>
</g>
<!-- Node4&#45;&gt;Node1 -->
<g id="edge5_Node000001_Node000004" class="edge">
<title>Node4&#45;&gt;Node1</title>
<g id="a_edge5_Node000001_Node000004"><a xlink:title=" ">
<path fill="none" stroke="#9a32cd" stroke-dasharray="5,2" d="M415.26,-59.3C408.72,-51.47 400.06,-42.65 390.5,-37 368.03,-23.71 338.88,-16.99 317.68,-13.65"/>
<polygon fill="#9a32cd" stroke="#9a32cd" points="412.53,-61.49 421.46,-67.2 418.04,-57.17 412.53,-61.49"/>
</a>
</g>
<text text-anchor="middle" x="432.5" y="-40" font-family="Helvetica,sans-Serif" font-size="10.00" fill="grey"> pwm_state</text>
</g>
<!-- Node5 -->
<g id="Node000005" class="node">
<title>Node5</title>
<g id="a_Node000005"><a xlink:href="classAP__HAL_1_1PWMSource.html" target="_top" xlink:title=" ">
<polygon fill="white" stroke="#666666" points="486.5,-154 368.5,-154 368.5,-135 486.5,-135 486.5,-154"/>
<text text-anchor="middle" x="427.5" y="-142" font-family="Helvetica,sans-Serif" font-size="10.00">AP_HAL::PWMSource</text>
</a>
</g>
</g>
<!-- Node5&#45;&gt;Node4 -->
<g id="edge6_Node000004_Node000005" class="edge">
<title>Node5&#45;&gt;Node4</title>
<g id="a_edge6_Node000004_Node000005"><a xlink:title=" ">
<path fill="none" stroke="#9a32cd" stroke-dasharray="5,2" d="M427.5,-124.68C427.5,-112.21 427.5,-96.42 427.5,-86.77"/>
<polygon fill="#9a32cd" stroke="#9a32cd" points="424,-124.94 427.5,-134.94 431,-124.94 424,-124.94"/>
</a>
</g>
<text text-anchor="middle" x="460" y="-109" font-family="Helvetica,sans-Serif" font-size="10.00" fill="grey"> pwm_source</text>
</g>
</g>
</svg>
