<?xml version="1.0" encoding="UTF-8" standalone="no"?>
<!DOCTYPE svg PUBLIC "-//W3C//DTD SVG 1.1//EN"
 "http://www.w3.org/Graphics/SVG/1.1/DTD/svg11.dtd">
<!-- Generated by graphviz version 2.43.0 (0)
 -->
<!-- Title: AP_CustomRotation Pages: 1 -->
<svg width="490pt" height="184pt"
 viewBox="0.00 0.00 490.00 184.00" xmlns="http://www.w3.org/2000/svg" xmlns:xlink="http://www.w3.org/1999/xlink">

<svg id="main" version="1.1" xmlns="http://www.w3.org/2000/svg" xmlns:xlink="http://www.w3.org/1999/xlink" xml:space="preserve" onload="init(evt)">
<style type="text/css"><![CDATA[
.node, .edge {opacity: 0.7;}
.node.selected, .edge.selected {opacity: 1;}
.edge:hover path { stroke: red; }
.edge:hover polygon { stroke: red; fill: red; }
]]></style>
<script type="application/ecmascript" xlink:href="svg.min.js"/>
<svg id="graph" class="graph">
<g id="graph0" class="graph" transform="scale(1 1) rotate(0) translate(4 180)">
<title>AP_CustomRotation</title>
<!-- Node1 -->
<g id="Node000001" class="node">
<title>Node1</title>
<g id="a_Node000001"><a xlink:title=" ">
<polygon fill="#999999" stroke="#666666" points="245,-19 132,-19 132,0 245,0 245,-19"/>
<text text-anchor="middle" x="188.5" y="-7" font-family="Helvetica,sans-Serif" font-size="10.00">AP_CustomRotation</text>
</a>
</g>
</g>
<!-- Node2 -->
<g id="Node000002" class="node">
<title>Node2</title>
<g id="a_Node000002"><a xlink:href="classQuaternionT.html" target="_top" xlink:title=" ">
<polygon fill="white" stroke="#666666" points="121,-85 0,-85 0,-66 121,-66 121,-85"/>
<text text-anchor="middle" x="60.5" y="-73" font-family="Helvetica,sans-Serif" font-size="10.00">QuaternionT&lt; float &gt;</text>
</a>
</g>
</g>
<!-- Node2&#45;&gt;Node1 -->
<g id="edge1_Node000001_Node000002" class="edge">
<title>Node2&#45;&gt;Node1</title>
<g id="a_edge1_Node000001_Node000002"><a xlink:title=" ">
<path fill="none" stroke="#9a32cd" stroke-dasharray="5,2" d="M86.78,-61.36C112,-48.75 149.37,-30.06 171.1,-19.2"/>
<polygon fill="#9a32cd" stroke="#9a32cd" points="85.14,-58.27 77.76,-65.87 88.27,-64.53 85.14,-58.27"/>
</a>
</g>
<text text-anchor="middle" x="137.5" y="-40" font-family="Helvetica,sans-Serif" font-size="10.00" fill="grey"> q</text>
</g>
<!-- Node3 -->
<g id="Node000003" class="node">
<title>Node3</title>
<g id="a_Node000003"><a xlink:href="classMatrix3.html" target="_top" xlink:title=" ">
<polygon fill="white" stroke="#666666" points="237.5,-85 139.5,-85 139.5,-66 237.5,-66 237.5,-85"/>
<text text-anchor="middle" x="188.5" y="-73" font-family="Helvetica,sans-Serif" font-size="10.00">Matrix3&lt; float &gt;</text>
</a>
</g>
</g>
<!-- Node3&#45;&gt;Node1 -->
<g id="edge2_Node000001_Node000003" class="edge">
<title>Node3&#45;&gt;Node1</title>
<g id="a_edge2_Node000001_Node000003"><a xlink:title=" ">
<path fill="none" stroke="#9a32cd" stroke-dasharray="5,2" d="M188.5,-55.58C188.5,-43.63 188.5,-28.72 188.5,-19.41"/>
<polygon fill="#9a32cd" stroke="#9a32cd" points="185,-55.87 188.5,-65.87 192,-55.87 185,-55.87"/>
</a>
</g>
<text text-anchor="middle" x="195" y="-40" font-family="Helvetica,sans-Serif" font-size="10.00" fill="grey"> m</text>
</g>
<!-- Node4 -->
<g id="Node000004" class="node">
<title>Node4</title>
<g id="a_Node000004"><a xlink:href="classVector3.html" target="_top" xlink:title=" ">
<polygon fill="white" stroke="#666666" points="237.5,-174.5 139.5,-174.5 139.5,-155.5 237.5,-155.5 237.5,-174.5"/>
<text text-anchor="middle" x="188.5" y="-162.5" font-family="Helvetica,sans-Serif" font-size="10.00">Vector3&lt; float &gt;</text>
</a>
</g>
</g>
<!-- Node4&#45;&gt;Node3 -->
<g id="edge3_Node000003_Node000004" class="edge">
<title>Node4&#45;&gt;Node3</title>
<g id="a_edge3_Node000003_Node000004"><a xlink:title=" ">
<path fill="none" stroke="#9a32cd" stroke-dasharray="5,2" d="M188.5,-145.09C188.5,-126.52 188.5,-99.04 188.5,-85.17"/>
<polygon fill="#9a32cd" stroke="#9a32cd" points="185,-145.29 188.5,-155.29 192,-145.29 185,-145.29"/>
</a>
</g>
<text text-anchor="middle" x="193.5" y="-128" font-family="Helvetica,sans-Serif" font-size="10.00" fill="grey"> a</text>
<text text-anchor="middle" x="193.5" y="-117" font-family="Helvetica,sans-Serif" font-size="10.00" fill="grey">b</text>
<text text-anchor="middle" x="193.5" y="-106" font-family="Helvetica,sans-Serif" font-size="10.00" fill="grey">c</text>
</g>
<!-- Node5 -->
<g id="Node000005" class="node">
<title>Node5</title>
<g id="a_Node000005"><a xlink:href="structAP__CustomRotation__params.html" target="_top" xlink:title=" ">
<polygon fill="white" stroke="#666666" points="411,-85 256,-85 256,-66 411,-66 411,-85"/>
<text text-anchor="middle" x="333.5" y="-73" font-family="Helvetica,sans-Serif" font-size="10.00">AP_CustomRotation_params</text>
</a>
</g>
</g>
<!-- Node5&#45;&gt;Node1 -->
<g id="edge4_Node000001_Node000005" class="edge">
<title>Node5&#45;&gt;Node1</title>
<g id="a_edge4_Node000001_Node000005"><a xlink:title=" ">
<path fill="none" stroke="#9a32cd" stroke-dasharray="5,2" d="M304.49,-61.69C275.91,-49.08 233.04,-30.16 208.21,-19.2"/>
<polygon fill="#9a32cd" stroke="#9a32cd" points="303.38,-65.03 313.94,-65.87 306.21,-58.63 303.38,-65.03"/>
</a>
</g>
<text text-anchor="middle" x="290.5" y="-40" font-family="Helvetica,sans-Serif" font-size="10.00" fill="grey"> params</text>
</g>
<!-- Node6 -->
<g id="Node000006" class="node">
<title>Node6</title>
<g id="a_Node000006"><a xlink:href="structAP__Param_1_1GroupInfo.html" target="_top" xlink:title=" ">
<polygon fill="white" stroke="#666666" points="393,-174.5 274,-174.5 274,-155.5 393,-155.5 393,-174.5"/>
<text text-anchor="middle" x="333.5" y="-162.5" font-family="Helvetica,sans-Serif" font-size="10.00">AP_Param::GroupInfo</text>
</a>
</g>
</g>
<!-- Node6&#45;&gt;Node5 -->
<g id="edge5_Node000005_Node000006" class="edge">
<title>Node6&#45;&gt;Node5</title>
<g id="a_edge5_Node000005_Node000006"><a xlink:title=" ">
<path fill="none" stroke="#9a32cd" stroke-dasharray="5,2" d="M333.5,-145.09C333.5,-126.52 333.5,-99.04 333.5,-85.17"/>
<polygon fill="#9a32cd" stroke="#9a32cd" points="330,-145.29 333.5,-155.29 337,-145.29 330,-145.29"/>
</a>
</g>
<text text-anchor="middle" x="355" y="-117" font-family="Helvetica,sans-Serif" font-size="10.00" fill="grey"> var_info</text>
</g>
<!-- Node6&#45;&gt;Node6 -->
<g id="edge6_Node000006_Node000006" class="edge">
<title>Node6&#45;&gt;Node6</title>
<g id="a_edge6_Node000006_Node000006"><a xlink:title=" ">
<path fill="none" stroke="#9a32cd" stroke-dasharray="5,2" d="M403.48,-170.92C408.16,-169.55 411,-167.58 411,-165 411,-160.88 403.73,-158.3 393.29,-157.27"/>
<polygon fill="#9a32cd" stroke="#9a32cd" points="402.52,-167.54 393.29,-172.73 403.75,-174.43 402.52,-167.54"/>
</a>
</g>
<text text-anchor="middle" x="446.5" y="-168" font-family="Helvetica,sans-Serif" font-size="10.00" fill="grey"> group_info</text>
<text text-anchor="middle" x="446.5" y="-157" font-family="Helvetica,sans-Serif" font-size="10.00" fill="grey">group_info_ptr</text>
</g>
</g>
</svg>
</svg>

<style type='text/css'>
<![CDATA[
[data-mouse-over-selected='false'] { opacity: 0.7; }
[data-mouse-over-selected='true']  { opacity: 1.0; }
]]>
</style>
<script type="application/ecmascript"><![CDATA[
document.addEventListener('DOMContentLoaded', (event) => {
  highlightEdges();
  highlightAdjacentNodes();
});
]]></script>
</svg>
