<?xml version="1.0" encoding="UTF-8" standalone="no"?>
<!DOCTYPE svg PUBLIC "-//W3C//DTD SVG 1.1//EN"
 "http://www.w3.org/Graphics/SVG/1.1/DTD/svg11.dtd">
<!-- Generated by graphviz version 2.43.0 (0)
 -->
<!-- Title: AP_Mission::clear Pages: 1 -->
<svg width="711pt" height="316pt"
 viewBox="0.00 0.00 711.00 315.50" xmlns="http://www.w3.org/2000/svg" xmlns:xlink="http://www.w3.org/1999/xlink">
<g id="graph0" class="graph" transform="scale(1 1) rotate(0) translate(4 311.5)">
<title>AP_Mission::clear</title>
<!-- Node1 -->
<g id="Node000001" class="node">
<title>Node1</title>
<g id="a_Node000001"><a xlink:title="clear &#45; clears out mission">
<polygon fill="#999999" stroke="#666666" points="703,-168.5 601,-168.5 601,-149.5 703,-149.5 703,-168.5"/>
<text text-anchor="middle" x="652" y="-156.5" font-family="Helvetica,sans-Serif" font-size="10.00">AP_Mission::clear</text>
</a>
</g>
</g>
<!-- Node2 -->
<g id="Node000002" class="node">
<title>Node2</title>
<g id="a_Node000002"><a xlink:href="classMissionTest.html#a7ca0e5d432a02e97dbcef60c633a5e4d" target="_top" xlink:title=" ">
<polygon fill="white" stroke="#666666" points="557,-307.5 418,-307.5 418,-288.5 557,-288.5 557,-307.5"/>
<text text-anchor="middle" x="487.5" y="-295.5" font-family="Helvetica,sans-Serif" font-size="10.00">MissionTest::init_mission</text>
</a>
</g>
</g>
<!-- Node1&#45;&gt;Node2 -->
<g id="edge1_Node000001_Node000002" class="edge">
<title>Node1&#45;&gt;Node2</title>
<g id="a_edge1_Node000001_Node000002"><a xlink:title=" ">
<path fill="none" stroke="#63b8ff" d="M642.69,-177.95C629.95,-204.72 603.01,-253.21 565,-279 559.34,-282.84 552.97,-285.91 546.39,-288.35"/>
<polygon fill="#63b8ff" stroke="#63b8ff" points="646.02,-179.09 647,-168.54 639.65,-176.17 646.02,-179.09"/>
</a>
</g>
</g>
<!-- Node6 -->
<g id="Node000006" class="node">
<title>Node6</title>
<g id="a_Node000006"><a xlink:href="classMissionTest.html#a6b146fdb2cae5e245fe3808dc105dc29" target="_top" xlink:title=" ">
<polygon fill="white" stroke="#666666" points="557,-270 418,-270 418,-240 557,-240 557,-270"/>
<text text-anchor="start" x="426" y="-258" font-family="Helvetica,sans-Serif" font-size="10.00">MissionTest::init_mission</text>
<text text-anchor="middle" x="487.5" y="-247" font-family="Helvetica,sans-Serif" font-size="10.00">_endless_loop</text>
</a>
</g>
</g>
<!-- Node1&#45;&gt;Node6 -->
<g id="edge5_Node000001_Node000006" class="edge">
<title>Node1&#45;&gt;Node6</title>
<g id="a_edge5_Node000001_Node000006"><a xlink:title=" ">
<path fill="none" stroke="#63b8ff" d="M634.75,-176.05C618.47,-192.23 592.01,-216.22 565,-231 558.89,-234.34 552.25,-237.29 545.52,-239.88"/>
<polygon fill="#63b8ff" stroke="#63b8ff" points="637.36,-178.38 641.88,-168.8 632.37,-173.47 637.36,-178.38"/>
</a>
</g>
</g>
<!-- Node7 -->
<g id="Node000007" class="node">
<title>Node7</title>
<g id="a_Node000007"><a xlink:href="classMissionTest.html#a7e2eedf038693bf48fdf89a95cc6ea79" target="_top" xlink:title=" ">
<polygon fill="white" stroke="#666666" points="561.5,-222 413.5,-222 413.5,-192 561.5,-192 561.5,-222"/>
<text text-anchor="start" x="421.5" y="-210" font-family="Helvetica,sans-Serif" font-size="10.00">MissionTest::init_mission</text>
<text text-anchor="middle" x="487.5" y="-199" font-family="Helvetica,sans-Serif" font-size="10.00">_ends_with_do_commands</text>
</a>
</g>
</g>
<!-- Node1&#45;&gt;Node7 -->
<g id="edge6_Node000001_Node000007" class="edge">
<title>Node1&#45;&gt;Node7</title>
<g id="a_edge6_Node000001_Node000007"><a xlink:title=" ">
<path fill="none" stroke="#63b8ff" d="M608.82,-171.46C587.63,-177.72 561.79,-185.35 539.49,-191.94"/>
<polygon fill="#63b8ff" stroke="#63b8ff" points="609.91,-174.79 618.51,-168.6 607.92,-168.07 609.91,-174.79"/>
</a>
</g>
</g>
<!-- Node8 -->
<g id="Node000008" class="node">
<title>Node8</title>
<g id="a_Node000008"><a xlink:href="classMissionTest.html#afed49d80b7fadb3302603502bbc4c37c" target="_top" xlink:title=" ">
<polygon fill="white" stroke="#666666" points="565,-174 410,-174 410,-144 565,-144 565,-174"/>
<text text-anchor="start" x="418" y="-162" font-family="Helvetica,sans-Serif" font-size="10.00">MissionTest::init_mission</text>
<text text-anchor="middle" x="487.5" y="-151" font-family="Helvetica,sans-Serif" font-size="10.00">_ends_with_jump_command</text>
</a>
</g>
</g>
<!-- Node1&#45;&gt;Node8 -->
<g id="edge7_Node000001_Node000008" class="edge">
<title>Node1&#45;&gt;Node8</title>
<g id="a_edge7_Node000001_Node000008"><a xlink:title=" ">
<path fill="none" stroke="#63b8ff" d="M590.84,-159C582.42,-159 573.68,-159 565.01,-159"/>
<polygon fill="#63b8ff" stroke="#63b8ff" points="590.92,-162.5 600.92,-159 590.92,-155.5 590.92,-162.5"/>
</a>
</g>
</g>
<!-- Node9 -->
<g id="Node000009" class="node">
<title>Node9</title>
<g id="a_Node000009"><a xlink:href="classMissionTest.html#a672f7a7656e9f3bb6c0de5515a06ca42" target="_top" xlink:title=" ">
<polygon fill="white" stroke="#666666" points="557,-126 418,-126 418,-96 557,-96 557,-126"/>
<text text-anchor="start" x="426" y="-114" font-family="Helvetica,sans-Serif" font-size="10.00">MissionTest::init_mission</text>
<text text-anchor="middle" x="487.5" y="-103" font-family="Helvetica,sans-Serif" font-size="10.00">_jump_to_nonnav</text>
</a>
</g>
</g>
<!-- Node1&#45;&gt;Node9 -->
<g id="edge8_Node000001_Node000009" class="edge">
<title>Node1&#45;&gt;Node9</title>
<g id="a_edge8_Node000001_Node000009"><a xlink:title=" ">
<path fill="none" stroke="#63b8ff" d="M608.82,-146.54C587.63,-140.28 561.79,-132.65 539.49,-126.06"/>
<polygon fill="#63b8ff" stroke="#63b8ff" points="607.92,-149.93 618.51,-149.4 609.91,-143.21 607.92,-149.93"/>
</a>
</g>
</g>
<!-- Node10 -->
<g id="Node000010" class="node">
<title>Node10</title>
<g id="a_Node000010"><a xlink:href="classMissionTest.html#acbcce9d917e5f61b8a6c60a4ba798a12" target="_top" xlink:title=" ">
<polygon fill="white" stroke="#666666" points="557,-78 418,-78 418,-48 557,-48 557,-78"/>
<text text-anchor="start" x="426" y="-66" font-family="Helvetica,sans-Serif" font-size="10.00">MissionTest::init_mission</text>
<text text-anchor="middle" x="487.5" y="-55" font-family="Helvetica,sans-Serif" font-size="10.00">_no_nav_commands</text>
</a>
</g>
</g>
<!-- Node1&#45;&gt;Node10 -->
<g id="edge9_Node000001_Node000010" class="edge">
<title>Node1&#45;&gt;Node10</title>
<g id="a_edge9_Node000001_Node000010"><a xlink:title=" ">
<path fill="none" stroke="#63b8ff" d="M634.75,-141.95C618.47,-125.77 592.01,-101.78 565,-87 558.89,-83.66 552.25,-80.71 545.52,-78.12"/>
<polygon fill="#63b8ff" stroke="#63b8ff" points="632.37,-144.53 641.88,-149.2 637.36,-139.62 632.37,-144.53"/>
</a>
</g>
</g>
<!-- Node11 -->
<g id="Node000011" class="node">
<title>Node11</title>
<g id="a_Node000011"><a xlink:href="classMissionTest.html#a0c632081f8a501a55701c67391ae0e98" target="_top" xlink:title=" ">
<polygon fill="white" stroke="#666666" points="563.5,-30 411.5,-30 411.5,0 563.5,0 563.5,-30"/>
<text text-anchor="start" x="419.5" y="-18" font-family="Helvetica,sans-Serif" font-size="10.00">MissionTest::init_mission</text>
<text text-anchor="middle" x="487.5" y="-7" font-family="Helvetica,sans-Serif" font-size="10.00">_starts_with_do_commands</text>
</a>
</g>
</g>
<!-- Node1&#45;&gt;Node11 -->
<g id="edge10_Node000001_Node000011" class="edge">
<title>Node1&#45;&gt;Node11</title>
<g id="a_edge10_Node000001_Node000011"><a xlink:title=" ">
<path fill="none" stroke="#63b8ff" d="M642.28,-139.96C629.2,-113.49 602.03,-65.8 565,-39 560.26,-35.57 555.02,-32.62 549.57,-30.09"/>
<polygon fill="#63b8ff" stroke="#63b8ff" points="639.26,-141.77 646.73,-149.29 645.58,-138.75 639.26,-141.77"/>
</a>
</g>
</g>
<!-- Node3 -->
<g id="Node000003" class="node">
<title>Node3</title>
<g id="a_Node000003"><a xlink:href="classMissionTest.html#a2161685b1b75329ff76bc4243518212d" target="_top" xlink:title=" ">
<polygon fill="white" stroke="#666666" points="374,-307.5 211,-307.5 211,-288.5 374,-288.5 374,-307.5"/>
<text text-anchor="middle" x="292.5" y="-295.5" font-family="Helvetica,sans-Serif" font-size="10.00">MissionTest::run_mission_test</text>
</a>
</g>
</g>
<!-- Node2&#45;&gt;Node3 -->
<g id="edge2_Node000002_Node000003" class="edge">
<title>Node2&#45;&gt;Node3</title>
<g id="a_edge2_Node000002_Node000003"><a xlink:title=" ">
<path fill="none" stroke="#63b8ff" d="M407.8,-298C396.68,-298 385.23,-298 374.07,-298"/>
<polygon fill="#63b8ff" stroke="#63b8ff" points="407.91,-301.5 417.91,-298 407.91,-294.5 407.91,-301.5"/>
</a>
</g>
</g>
<!-- Node4 -->
<g id="Node000004" class="node">
<title>Node4</title>
<g id="a_Node000004"><a xlink:href="classMissionTest.html#ab2537e6e678a9468a69cd09f0296aeca" target="_top" xlink:title=" ">
<polygon fill="white" stroke="#666666" points="175,-307.5 74,-307.5 74,-288.5 175,-288.5 175,-307.5"/>
<text text-anchor="middle" x="124.5" y="-295.5" font-family="Helvetica,sans-Serif" font-size="10.00">MissionTest::loop</text>
</a>
</g>
</g>
<!-- Node3&#45;&gt;Node4 -->
<g id="edge3_Node000003_Node000004" class="edge">
<title>Node3&#45;&gt;Node4</title>
<g id="a_edge3_Node000003_Node000004"><a xlink:title=" ">
<path fill="none" stroke="#63b8ff" d="M200.91,-298C192.06,-298 183.32,-298 175.11,-298"/>
<polygon fill="#63b8ff" stroke="#63b8ff" points="200.93,-301.5 210.93,-298 200.93,-294.5 200.93,-301.5"/>
</a>
</g>
</g>
<!-- Node5 -->
<g id="Node000005" class="node">
<title>Node5</title>
<g id="a_Node000005"><a xlink:href="AP__Mission__test_8cpp.html#a0b33edabd7f1c4e4a0bf32c67269be2f" target="_top" xlink:title=" ">
<polygon fill="white" stroke="#666666" points="38,-307.5 0,-307.5 0,-288.5 38,-288.5 38,-307.5"/>
<text text-anchor="middle" x="19" y="-295.5" font-family="Helvetica,sans-Serif" font-size="10.00">loop</text>
</a>
</g>
</g>
<!-- Node4&#45;&gt;Node5 -->
<g id="edge4_Node000004_Node000005" class="edge">
<title>Node4&#45;&gt;Node5</title>
<g id="a_edge4_Node000004_Node000005"><a xlink:title=" ">
<path fill="none" stroke="#63b8ff" d="M63.81,-298C54.6,-298 45.74,-298 38.42,-298"/>
<polygon fill="#63b8ff" stroke="#63b8ff" points="63.87,-301.5 73.87,-298 63.87,-294.5 63.87,-301.5"/>
</a>
</g>
</g>
</g>
</svg>
