<?xml version="1.0" encoding="UTF-8" standalone="no"?>
<!DOCTYPE svg PUBLIC "-//W3C//DTD SVG 1.1//EN"
 "http://www.w3.org/Graphics/SVG/1.1/DTD/svg11.dtd">
<!-- Generated by graphviz version 2.43.0 (0)
 -->
<!-- Title: SITL::Blimp Pages: 1 -->
<svg width="275pt" height="104pt"
 viewBox="0.00 0.00 275.00 104.00" xmlns="http://www.w3.org/2000/svg" xmlns:xlink="http://www.w3.org/1999/xlink">
<g id="graph0" class="graph" transform="scale(1 1) rotate(0) translate(4 100)">
<title>SITL::Blimp</title>
<!-- Node1 -->
<g id="Node000001" class="node">
<title>Node1</title>
<g id="a_Node000001"><a xlink:title=" ">
<polygon fill="#999999" stroke="#666666" points="154.5,-19 83.5,-19 83.5,0 154.5,0 154.5,-19"/>
<text text-anchor="middle" x="119" y="-7" font-family="Helvetica,sans-Serif" font-size="10.00">SITL::Blimp</text>
</a>
</g>
</g>
<!-- Node2 -->
<g id="Node000002" class="node">
<title>Node2</title>
<g id="a_Node000002"><a xlink:title=" ">
<polygon fill="white" stroke="#666666" points="52,-96 0,-96 0,-77 52,-77 52,-96"/>
<text text-anchor="middle" x="26" y="-84" font-family="Helvetica,sans-Serif" font-size="10.00">Aircraft</text>
</a>
</g>
</g>
<!-- Node2&#45;&gt;Node1 -->
<g id="edge1_Node000001_Node000002" class="edge">
<title>Node2&#45;&gt;Node1</title>
<g id="a_edge1_Node000001_Node000002"><a xlink:title=" ">
<path fill="none" stroke="#63b8ff" d="M44.69,-70.43C63.85,-54.98 92.97,-31.49 108.46,-19"/>
<polygon fill="#63b8ff" stroke="#63b8ff" points="42.26,-67.89 36.67,-76.9 46.65,-73.34 42.26,-67.89"/>
</a>
</g>
</g>
<!-- Node3 -->
<g id="Node000003" class="node">
<title>Node3</title>
<g id="a_Node000003"><a xlink:href="classVector3.html" target="_top" xlink:title=" ">
<polygon fill="white" stroke="#666666" points="168,-96 70,-96 70,-77 168,-77 168,-96"/>
<text text-anchor="middle" x="119" y="-84" font-family="Helvetica,sans-Serif" font-size="10.00">Vector3&lt; float &gt;</text>
</a>
</g>
</g>
<!-- Node3&#45;&gt;Node1 -->
<g id="edge2_Node000001_Node000003" class="edge">
<title>Node3&#45;&gt;Node1</title>
<g id="a_edge2_Node000001_Node000003"><a xlink:title=" ">
<path fill="none" stroke="#9a32cd" stroke-dasharray="5,2" d="M119,-66.52C119,-51.24 119,-30.48 119,-19"/>
<polygon fill="#9a32cd" stroke="#9a32cd" points="115.5,-66.9 119,-76.9 122.5,-66.9 115.5,-66.9"/>
</a>
</g>
<text text-anchor="middle" x="166" y="-51" font-family="Helvetica,sans-Serif" font-size="10.00" fill="grey"> cog</text>
<text text-anchor="middle" x="166" y="-40" font-family="Helvetica,sans-Serif" font-size="10.00" fill="grey">moment_of_inertia</text>
</g>
<!-- Node4 -->
<g id="Node000004" class="node">
<title>Node4</title>
<g id="a_Node000004"><a xlink:href="structSITL_1_1Fins.html" target="_top" xlink:title=" ">
<polygon fill="white" stroke="#666666" points="267,-96 205,-96 205,-77 267,-77 267,-96"/>
<text text-anchor="middle" x="236" y="-84" font-family="Helvetica,sans-Serif" font-size="10.00">SITL::Fins</text>
</a>
</g>
</g>
<!-- Node4&#45;&gt;Node1 -->
<g id="edge3_Node000001_Node000004" class="edge">
<title>Node4&#45;&gt;Node1</title>
<g id="a_edge3_Node000001_Node000004"><a xlink:title=" ">
<path fill="none" stroke="#9a32cd" stroke-dasharray="5,2" d="M231.83,-67.3C228.58,-57.04 223.07,-44.77 214,-37 197.62,-22.96 174.35,-16.32 154.94,-13.2"/>
<polygon fill="#9a32cd" stroke="#9a32cd" points="228.45,-68.24 234.43,-76.98 235.21,-66.42 228.45,-68.24"/>
</a>
</g>
<text text-anchor="middle" x="236" y="-45.5" font-family="Helvetica,sans-Serif" font-size="10.00" fill="grey"> fin</text>
</g>
</g>
</svg>
