<?xml version="1.0" encoding="UTF-8" standalone="no"?>
<!DOCTYPE svg PUBLIC "-//W3C//DTD SVG 1.1//EN"
 "http://www.w3.org/Graphics/SVG/1.1/DTD/svg11.dtd">
<!-- Generated by graphviz version 2.43.0 (0)
 -->
<!-- Title: RC_Channel::set_override Pages: 1 -->
<svg width="883pt" height="151pt"
 viewBox="0.00 0.00 883.00 151.00" xmlns="http://www.w3.org/2000/svg" xmlns:xlink="http://www.w3.org/1999/xlink">
<g id="graph0" class="graph" transform="scale(1 1) rotate(0) translate(4 147)">
<title>RC_Channel::set_override</title>
<!-- Node1 -->
<g id="Node000001" class="node">
<title>Node1</title>
<g id="a_Node000001"><a xlink:title=" ">
<polygon fill="#999999" stroke="#666666" points="142,-62 0,-62 0,-43 142,-43 142,-62"/>
<text text-anchor="middle" x="71" y="-50" font-family="Helvetica,sans-Serif" font-size="10.00">RC_Channel::set_override</text>
</a>
</g>
</g>
<!-- Node2 -->
<g id="Node000002" class="node">
<title>Node2</title>
<g id="a_Node000002"><a xlink:href="namespaceAP__HAL.html#a77dffbb18891996280308e21316ec186" target="_top" xlink:title=" ">
<polygon fill="white" stroke="#666666" points="297.5,-105 210.5,-105 210.5,-86 297.5,-86 297.5,-105"/>
<text text-anchor="middle" x="254" y="-93" font-family="Helvetica,sans-Serif" font-size="10.00">AP_HAL::millis</text>
</a>
</g>
</g>
<!-- Node1&#45;&gt;Node2 -->
<g id="edge1_Node000001_Node000002" class="edge">
<title>Node1&#45;&gt;Node2</title>
<g id="a_edge1_Node000001_Node000002"><a xlink:title=" ">
<path fill="none" stroke="#63b8ff" d="M112.17,-62.04C139,-68.42 174.49,-76.85 203.12,-83.65"/>
<polygon fill="#63b8ff" stroke="#63b8ff" points="202.4,-87.08 212.94,-85.98 204.02,-80.27 202.4,-87.08"/>
</a>
</g>
</g>
<!-- Node9 -->
<g id="Node000009" class="node">
<title>Node9</title>
<g id="a_Node000009"><a xlink:href="classRC__Channels.html#a6f57c6d1e532bdddba50001cd4e13337" target="_top" xlink:title=" ">
<polygon fill="white" stroke="#666666" points="330,-67.5 178,-67.5 178,-37.5 330,-37.5 330,-67.5"/>
<text text-anchor="start" x="186" y="-55.5" font-family="Helvetica,sans-Serif" font-size="10.00">RC_Channels::new_override</text>
<text text-anchor="middle" x="254" y="-44.5" font-family="Helvetica,sans-Serif" font-size="10.00">_received</text>
</a>
</g>
</g>
<!-- Node1&#45;&gt;Node9 -->
<g id="edge8_Node000001_Node000009" class="edge">
<title>Node1&#45;&gt;Node9</title>
<g id="a_edge8_Node000001_Node000009"><a xlink:title=" ">
<path fill="none" stroke="#63b8ff" d="M142.24,-52.5C150.5,-52.5 159.01,-52.5 167.45,-52.5"/>
<polygon fill="#63b8ff" stroke="#63b8ff" points="167.71,-56 177.71,-52.5 167.71,-49 167.71,-56"/>
</a>
</g>
</g>
<!-- Node10 -->
<g id="Node000010" class="node">
<title>Node10</title>
<g id="a_Node000010"><a xlink:href="RC__Channels_8cpp.html#abe35aea6177a1cdf87a22af5c263bb89" target="_top" xlink:title=" ">
<polygon fill="white" stroke="#666666" points="268.5,-19 239.5,-19 239.5,0 268.5,0 268.5,-19"/>
<text text-anchor="middle" x="254" y="-7" font-family="Helvetica,sans-Serif" font-size="10.00">rc</text>
</a>
</g>
</g>
<!-- Node1&#45;&gt;Node10 -->
<g id="edge9_Node000001_Node000010" class="edge">
<title>Node1&#45;&gt;Node10</title>
<g id="a_edge9_Node000001_Node000010"><a xlink:title=" ">
<path fill="none" stroke="#63b8ff" d="M112.17,-42.96C148.16,-34.41 199.72,-22.16 229.44,-15.1"/>
<polygon fill="#63b8ff" stroke="#63b8ff" points="230.41,-18.46 239.33,-12.75 228.79,-11.65 230.41,-18.46"/>
</a>
</g>
</g>
<!-- Node3 -->
<g id="Node000003" class="node">
<title>Node3</title>
<g id="a_Node000003"><a xlink:href="hrt_8c.html#a1295f128f60d29874243b5733c4db025" target="_top" xlink:title=" ">
<polygon fill="white" stroke="#666666" points="479,-105 405,-105 405,-86 479,-86 479,-105"/>
<text text-anchor="middle" x="442" y="-93" font-family="Helvetica,sans-Serif" font-size="10.00">hrt_millis32</text>
</a>
</g>
</g>
<!-- Node2&#45;&gt;Node3 -->
<g id="edge2_Node000002_Node000003" class="edge">
<title>Node2&#45;&gt;Node3</title>
<g id="a_edge2_Node000002_Node000003"><a xlink:title=" ">
<path fill="none" stroke="#63b8ff" d="M297.67,-95.5C326.65,-95.5 364.95,-95.5 394.67,-95.5"/>
<polygon fill="#63b8ff" stroke="#63b8ff" points="394.79,-99 404.79,-95.5 394.79,-92 394.79,-99"/>
</a>
</g>
</g>
<!-- Node4 -->
<g id="Node000004" class="node">
<title>Node4</title>
<g id="a_Node000004"><a xlink:href="hrt_8c.html#a7dd7d90aadd8f76f26da7d5abfad6fe8" target="_top" xlink:title=" ">
<polygon fill="white" stroke="#666666" points="628,-105 554,-105 554,-86 628,-86 628,-105"/>
<text text-anchor="middle" x="591" y="-93" font-family="Helvetica,sans-Serif" font-size="10.00">hrt_millis64</text>
</a>
</g>
</g>
<!-- Node3&#45;&gt;Node4 -->
<g id="edge3_Node000003_Node000004" class="edge">
<title>Node3&#45;&gt;Node4</title>
<g id="a_edge3_Node000003_Node000004"><a xlink:title=" ">
<path fill="none" stroke="#63b8ff" d="M479.34,-95.5C498.76,-95.5 522.87,-95.5 543.63,-95.5"/>
<polygon fill="#63b8ff" stroke="#63b8ff" points="543.83,-99 553.83,-95.5 543.83,-92 543.83,-99"/>
</a>
</g>
</g>
<!-- Node5 -->
<g id="Node000005" class="node">
<title>Node5</title>
<g id="a_Node000005"><a xlink:href="hrt_8c.html#a152c3348a8e83f2dfe35b44cc2e30362" target="_top" xlink:title=" ">
<polygon fill="white" stroke="#666666" points="750,-124 670,-124 670,-105 750,-105 750,-124"/>
<text text-anchor="middle" x="710" y="-112" font-family="Helvetica,sans-Serif" font-size="10.00">hrt_micros64</text>
</a>
</g>
</g>
<!-- Node4&#45;&gt;Node5 -->
<g id="edge4_Node000004_Node000005" class="edge">
<title>Node4&#45;&gt;Node5</title>
<g id="a_edge4_Node000004_Node000005"><a xlink:title=" ">
<path fill="none" stroke="#63b8ff" d="M628.06,-101.36C638.03,-102.98 649.03,-104.76 659.62,-106.48"/>
<polygon fill="#63b8ff" stroke="#63b8ff" points="659.17,-109.95 669.6,-108.1 660.29,-103.04 659.17,-109.95"/>
</a>
</g>
</g>
<!-- Node8 -->
<g id="Node000008" class="node">
<title>Node8</title>
<g id="a_Node000008"><a xlink:href="div1000_8h.html#aece9e7f123414c41d0426fbadca097d8" target="_top" xlink:title=" ">
<polygon fill="white" stroke="#666666" points="756,-87 664,-87 664,-68 756,-68 756,-87"/>
<text text-anchor="middle" x="710" y="-75" font-family="Helvetica,sans-Serif" font-size="10.00">uint64_div1000</text>
</a>
</g>
</g>
<!-- Node4&#45;&gt;Node8 -->
<g id="edge7_Node000004_Node000008" class="edge">
<title>Node4&#45;&gt;Node8</title>
<g id="a_edge7_Node000004_Node000008"><a xlink:title=" ">
<path fill="none" stroke="#63b8ff" d="M628.06,-89.95C636.17,-88.71 644.95,-87.35 653.64,-86.02"/>
<polygon fill="#63b8ff" stroke="#63b8ff" points="654.41,-89.44 663.76,-84.46 653.34,-82.52 654.41,-89.44"/>
</a>
</g>
</g>
<!-- Node6 -->
<g id="Node000006" class="node">
<title>Node6</title>
<g id="a_Node000006"><a xlink:href="hrt_8c.html#a5b4ffc7ff86bd5b893c4a98834e80200" target="_top" xlink:title=" ">
<polygon fill="white" stroke="#666666" points="875,-143 792,-143 792,-124 875,-124 875,-143"/>
<text text-anchor="middle" x="833.5" y="-131" font-family="Helvetica,sans-Serif" font-size="10.00">hrt_micros64I</text>
</a>
</g>
</g>
<!-- Node5&#45;&gt;Node6 -->
<g id="edge5_Node000005_Node000006" class="edge">
<title>Node5&#45;&gt;Node6</title>
<g id="a_edge5_Node000005_Node000006"><a xlink:title=" ">
<path fill="none" stroke="#63b8ff" d="M750.11,-120.62C760.21,-122.19 771.22,-123.92 781.81,-125.57"/>
<polygon fill="#63b8ff" stroke="#63b8ff" points="781.37,-129.05 791.79,-127.13 782.45,-122.13 781.37,-129.05"/>
</a>
</g>
</g>
<!-- Node7 -->
<g id="Node000007" class="node">
<title>Node7</title>
<g id="a_Node000007"><a xlink:href="hrt_8c.html#a723fef85be7bacb834af35445a891c18" target="_top" xlink:title=" ">
<polygon fill="white" stroke="#666666" points="864.5,-106 802.5,-106 802.5,-87 864.5,-87 864.5,-106"/>
<text text-anchor="middle" x="833.5" y="-94" font-family="Helvetica,sans-Serif" font-size="10.00">is_locked</text>
</a>
</g>
</g>
<!-- Node5&#45;&gt;Node7 -->
<g id="edge6_Node000005_Node000007" class="edge">
<title>Node5&#45;&gt;Node7</title>
<g id="a_edge6_Node000005_Node000007"><a xlink:title=" ">
<path fill="none" stroke="#63b8ff" d="M750.11,-108.71C763.6,-106.71 778.73,-104.47 792.3,-102.46"/>
<polygon fill="#63b8ff" stroke="#63b8ff" points="792.95,-105.9 802.32,-100.97 791.92,-98.97 792.95,-105.9"/>
</a>
</g>
</g>
<!-- Node11 -->
<g id="Node000011" class="node">
<title>Node11</title>
<g id="a_Node000011"><a xlink:href="classRC__Channels.html#ae4e66c56cdd1eb498d22b52dffc687d6" target="_top" xlink:title=" ">
<polygon fill="white" stroke="#666666" points="518,-19 366,-19 366,0 518,0 518,-19"/>
<text text-anchor="middle" x="442" y="-7" font-family="Helvetica,sans-Serif" font-size="10.00">RC_Channels::get_singleton</text>
</a>
</g>
</g>
<!-- Node10&#45;&gt;Node11 -->
<g id="edge10_Node000010_Node000011" class="edge">
<title>Node10&#45;&gt;Node11</title>
<g id="a_edge10_Node000010_Node000011"><a xlink:title=" ">
<path fill="none" stroke="#63b8ff" d="M268.68,-9.5C287.23,-9.5 321.9,-9.5 355.3,-9.5"/>
<polygon fill="#63b8ff" stroke="#63b8ff" points="355.61,-13 365.61,-9.5 355.61,-6 355.61,-13"/>
</a>
</g>
</g>
</g>
</svg>
