<?xml version="1.0" encoding="UTF-8" standalone="no"?>
<!DOCTYPE svg PUBLIC "-//W3C//DTD SVG 1.1//EN"
 "http://www.w3.org/Graphics/SVG/1.1/DTD/svg11.dtd">
<!-- Generated by graphviz version 2.43.0 (0)
 -->
<!-- Title: AP_Logger_Block::find_last_page_of_log Pages: 1 -->
<svg width="883pt" height="145pt"
 viewBox="0.00 0.00 883.00 145.00" xmlns="http://www.w3.org/2000/svg" xmlns:xlink="http://www.w3.org/1999/xlink">
<g id="graph0" class="graph" transform="scale(1 1) rotate(0) translate(4 141)">
<title>AP_Logger_Block::find_last_page_of_log</title>
<!-- Node1 -->
<g id="Node000001" class="node">
<title>Node1</title>
<g id="a_Node000001"><a xlink:title=" ">
<polygon fill="#999999" stroke="#666666" points="124,-94 0,-94 0,-64 124,-64 124,-94"/>
<text text-anchor="start" x="8" y="-82" font-family="Helvetica,sans-Serif" font-size="10.00">AP_Logger_Block::find</text>
<text text-anchor="middle" x="62" y="-71" font-family="Helvetica,sans-Serif" font-size="10.00">_last_page_of_log</text>
</a>
</g>
</g>
<!-- Node2 -->
<g id="Node000002" class="node">
<title>Node2</title>
<g id="a_Node000002"><a xlink:href="classAP__Logger__Block.html#ac22ef210d1cf299a14dcc6f64a12dea1" target="_top" xlink:title=" ">
<polygon fill="white" stroke="#666666" points="284,-116 160,-116 160,-86 284,-86 284,-116"/>
<text text-anchor="start" x="168" y="-104" font-family="Helvetica,sans-Serif" font-size="10.00">AP_Logger_Block::find</text>
<text text-anchor="middle" x="222" y="-93" font-family="Helvetica,sans-Serif" font-size="10.00">_last_page</text>
</a>
</g>
</g>
<!-- Node1&#45;&gt;Node2 -->
<g id="edge1_Node000001_Node000002" class="edge">
<title>Node1&#45;&gt;Node2</title>
<g id="a_edge1_Node000001_Node000002"><a xlink:title=" ">
<path fill="none" stroke="#63b8ff" d="M124.09,-87.51C132.51,-88.68 141.23,-89.89 149.81,-91.09"/>
<polygon fill="#63b8ff" stroke="#63b8ff" points="149.43,-94.57 159.82,-92.48 150.39,-87.63 149.43,-94.57"/>
</a>
</g>
</g>
<!-- Node3 -->
<g id="Node000003" class="node">
<title>Node3</title>
<g id="a_Node000003"><a xlink:href="classAP__Logger__Block.html#ae33949fa1d9be341fdb7a492ead8185f" target="_top" xlink:title=" ">
<polygon fill="white" stroke="#666666" points="467,-137 327,-137 327,-107 467,-107 467,-137"/>
<text text-anchor="start" x="335" y="-125" font-family="Helvetica,sans-Serif" font-size="10.00">AP_Logger_Block::GetFile</text>
<text text-anchor="middle" x="397" y="-114" font-family="Helvetica,sans-Serif" font-size="10.00">Number</text>
</a>
</g>
</g>
<!-- Node1&#45;&gt;Node3 -->
<g id="edge8_Node000001_Node000003" class="edge">
<title>Node1&#45;&gt;Node3</title>
<g id="a_edge8_Node000001_Node000003"><a xlink:title=" ">
<path fill="none" stroke="#63b8ff" d="M87.02,-94.1C106.02,-105.1 133.63,-119.07 160,-125 211.39,-136.57 270.69,-135.76 316.99,-132.09"/>
<polygon fill="#63b8ff" stroke="#63b8ff" points="317.3,-135.58 326.96,-131.24 316.7,-128.6 317.3,-135.58"/>
</a>
</g>
</g>
<!-- Node4 -->
<g id="Node000004" class="node">
<title>Node4</title>
<g id="a_Node000004"><a xlink:href="classAP__Logger__Block.html#a880150f6e65d4f55f05c58d342343081" target="_top" xlink:title=" ">
<polygon fill="white" stroke="#666666" points="474,-67.5 320,-67.5 320,-48.5 474,-48.5 474,-67.5"/>
<text text-anchor="middle" x="397" y="-55.5" font-family="Helvetica,sans-Serif" font-size="10.00">AP_Logger_Block::StartRead</text>
</a>
</g>
</g>
<!-- Node1&#45;&gt;Node4 -->
<g id="edge11_Node000001_Node000004" class="edge">
<title>Node1&#45;&gt;Node4</title>
<g id="a_edge11_Node000001_Node000004"><a xlink:title=" ">
<path fill="none" stroke="#63b8ff" d="M124.08,-75.15C176.06,-71.87 251.34,-67.12 309.52,-63.45"/>
<polygon fill="#63b8ff" stroke="#63b8ff" points="310.05,-66.93 319.81,-62.8 309.61,-59.94 310.05,-66.93"/>
</a>
</g>
</g>
<!-- Node9 -->
<g id="Node000009" class="node">
<title>Node9</title>
<g id="a_Node000009"><a xlink:href="classAP__Logger__Block.html#ac14bbddf421ab51226813f9bed950a4e" target="_top" xlink:title=" ">
<polygon fill="white" stroke="#666666" points="279,-30 165,-30 165,0 279,0 279,-30"/>
<text text-anchor="start" x="173" y="-18" font-family="Helvetica,sans-Serif" font-size="10.00">AP_Logger_Block::is</text>
<text text-anchor="middle" x="222" y="-7" font-family="Helvetica,sans-Serif" font-size="10.00">_wrapped</text>
</a>
</g>
</g>
<!-- Node1&#45;&gt;Node9 -->
<g id="edge9_Node000001_Node000009" class="edge">
<title>Node1&#45;&gt;Node9</title>
<g id="a_edge9_Node000001_Node000009"><a xlink:title=" ">
<path fill="none" stroke="#63b8ff" d="M100.04,-63.99C122.25,-55 150.69,-43.48 174.41,-33.87"/>
<polygon fill="#63b8ff" stroke="#63b8ff" points="175.96,-37.02 183.91,-30.02 173.33,-30.53 175.96,-37.02"/>
</a>
</g>
</g>
<!-- Node2&#45;&gt;Node3 -->
<g id="edge2_Node000002_Node000003" class="edge">
<title>Node2&#45;&gt;Node3</title>
<g id="a_edge2_Node000002_Node000003"><a xlink:title=" ">
<path fill="none" stroke="#63b8ff" d="M284.48,-108.46C294.86,-109.72 305.76,-111.05 316.52,-112.35"/>
<polygon fill="#63b8ff" stroke="#63b8ff" points="316.42,-115.87 326.77,-113.6 317.26,-108.92 316.42,-115.87"/>
</a>
</g>
</g>
<!-- Node2&#45;&gt;Node4 -->
<g id="edge3_Node000002_Node000004" class="edge">
<title>Node2&#45;&gt;Node4</title>
<g id="a_edge3_Node000002_Node000004"><a xlink:title=" ">
<path fill="none" stroke="#63b8ff" d="M283.51,-85.96C304.6,-80.72 327.96,-74.91 347.9,-69.96"/>
<polygon fill="#63b8ff" stroke="#63b8ff" points="348.83,-73.33 357.69,-67.52 347.14,-66.54 348.83,-73.33"/>
</a>
</g>
</g>
<!-- Node5 -->
<g id="Node000005" class="node">
<title>Node5</title>
<g id="a_Node000005"><a xlink:href="classAP__Logger__Block.html#a999f1938fad3669361c93d4bee15ea73" target="_top" xlink:title=" ">
<polygon fill="white" stroke="#666666" points="680,-86.5 511,-86.5 511,-67.5 680,-67.5 680,-86.5"/>
<text text-anchor="middle" x="595.5" y="-74.5" font-family="Helvetica,sans-Serif" font-size="10.00">AP_Logger_Block::PageToBuffer</text>
</a>
</g>
</g>
<!-- Node4&#45;&gt;Node5 -->
<g id="edge4_Node000004_Node000005" class="edge">
<title>Node4&#45;&gt;Node5</title>
<g id="a_edge4_Node000004_Node000005"><a xlink:title=" ">
<path fill="none" stroke="#63b8ff" d="M474.25,-65.37C482.95,-66.21 491.9,-67.08 500.79,-67.94"/>
<polygon fill="#63b8ff" stroke="#63b8ff" points="500.5,-71.43 510.79,-68.91 501.18,-64.46 500.5,-71.43"/>
</a>
</g>
</g>
<!-- Node6 -->
<g id="Node000006" class="node">
<title>Node6</title>
<g id="a_Node000006"><a xlink:href="classAP__Logger__Block.html#ae1f311759423ec26401536062fea9d96" target="_top" xlink:title=" ">
<polygon fill="white" stroke="#666666" points="681,-49.5 510,-49.5 510,-30.5 681,-30.5 681,-49.5"/>
<text text-anchor="middle" x="595.5" y="-37.5" font-family="Helvetica,sans-Serif" font-size="10.00">AP_Logger_Block::ReadHeaders</text>
</a>
</g>
</g>
<!-- Node4&#45;&gt;Node6 -->
<g id="edge5_Node000004_Node000006" class="edge">
<title>Node4&#45;&gt;Node6</title>
<g id="a_edge5_Node000004_Node000006"><a xlink:title=" ">
<path fill="none" stroke="#63b8ff" d="M474.25,-51.01C482.63,-50.25 491.23,-49.46 499.79,-48.68"/>
<polygon fill="#63b8ff" stroke="#63b8ff" points="500.17,-52.16 509.81,-47.76 499.53,-45.18 500.17,-52.16"/>
</a>
</g>
</g>
<!-- Node7 -->
<g id="Node000007" class="node">
<title>Node7</title>
<g id="a_Node000007"><a xlink:href="classAP__Logger__Block.html#ab82c08236dab6da0edc2dddac6e657e3" target="_top" xlink:title=" ">
<polygon fill="white" stroke="#666666" points="875,-68.5 717,-68.5 717,-49.5 875,-49.5 875,-68.5"/>
<text text-anchor="middle" x="796" y="-56.5" font-family="Helvetica,sans-Serif" font-size="10.00">AP_Logger_Block::BlockRead</text>
</a>
</g>
</g>
<!-- Node6&#45;&gt;Node7 -->
<g id="edge6_Node000006_Node000007" class="edge">
<title>Node6&#45;&gt;Node7</title>
<g id="a_edge6_Node000006_Node000007"><a xlink:title=" ">
<path fill="none" stroke="#63b8ff" d="M681.26,-48.11C689.65,-48.92 698.18,-49.73 706.61,-50.54"/>
<polygon fill="#63b8ff" stroke="#63b8ff" points="706.53,-54.05 716.81,-51.52 707.19,-47.08 706.53,-54.05"/>
</a>
</g>
</g>
<!-- Node8 -->
<g id="Node000008" class="node">
<title>Node8</title>
<g id="a_Node000008"><a xlink:href="stdio_8h.html#a55f3d956bb2ba20b5059e9e25484a47f" target="_top" xlink:title=" ">
<polygon fill="white" stroke="#666666" points="817.5,-31.5 774.5,-31.5 774.5,-12.5 817.5,-12.5 817.5,-31.5"/>
<text text-anchor="middle" x="796" y="-19.5" font-family="Helvetica,sans-Serif" font-size="10.00">printf</text>
</a>
</g>
</g>
<!-- Node6&#45;&gt;Node8 -->
<g id="edge7_Node000006_Node000008" class="edge">
<title>Node6&#45;&gt;Node8</title>
<g id="a_edge7_Node000006_Node000008"><a xlink:title=" ">
<path fill="none" stroke="#63b8ff" d="M681.26,-32.31C710.78,-29.64 742.05,-26.8 764.31,-24.78"/>
<polygon fill="#63b8ff" stroke="#63b8ff" points="764.83,-28.25 774.47,-23.86 764.2,-21.28 764.83,-28.25"/>
</a>
</g>
</g>
<!-- Node9&#45;&gt;Node4 -->
<g id="edge10_Node000009_Node000004" class="edge">
<title>Node9&#45;&gt;Node4</title>
<g id="a_edge10_Node000009_Node000004"><a xlink:title=" ">
<path fill="none" stroke="#63b8ff" d="M279.17,-28.96C301.31,-34.47 326.49,-40.72 347.8,-46.02"/>
<polygon fill="#63b8ff" stroke="#63b8ff" points="347.05,-49.44 357.6,-48.45 348.74,-42.65 347.05,-49.44"/>
</a>
</g>
</g>
</g>
</svg>
