<?xml version="1.0" encoding="UTF-8" standalone="no"?>
<!DOCTYPE svg PUBLIC "-//W3C//DTD SVG 1.1//EN"
 "http://www.w3.org/Graphics/SVG/1.1/DTD/svg11.dtd">
<!-- Generated by graphviz version 2.43.0 (0)
 -->
<!-- Title: AP_Stats::update_flighttime Pages: 1 -->
<svg width="934pt" height="156pt"
 viewBox="0.00 0.00 934.00 155.50" xmlns="http://www.w3.org/2000/svg" xmlns:xlink="http://www.w3.org/1999/xlink">
<g id="graph0" class="graph" transform="scale(1 1) rotate(0) translate(4 151.5)">
<title>AP_Stats::update_flighttime</title>
<!-- Node1 -->
<g id="Node000001" class="node">
<title>Node1</title>
<g id="a_Node000001"><a xlink:title=" ">
<polygon fill="#999999" stroke="#666666" points="926,-56 774,-56 774,-37 926,-37 926,-56"/>
<text text-anchor="middle" x="850" y="-44" font-family="Helvetica,sans-Serif" font-size="10.00">AP_Stats::update_flighttime</text>
</a>
</g>
</g>
<!-- Node2 -->
<g id="Node000002" class="node">
<title>Node2</title>
<g id="a_Node000002"><a xlink:href="classAP__Stats.html#abc89db0f4e54c009624f196307224e7b" target="_top" xlink:title=" ">
<polygon fill="white" stroke="#666666" points="737,-104.5 626,-104.5 626,-74.5 737,-74.5 737,-104.5"/>
<text text-anchor="start" x="634" y="-92.5" font-family="Helvetica,sans-Serif" font-size="10.00">AP_Stats::get_flight</text>
<text text-anchor="middle" x="681.5" y="-81.5" font-family="Helvetica,sans-Serif" font-size="10.00">_time_s</text>
</a>
</g>
</g>
<!-- Node1&#45;&gt;Node2 -->
<g id="edge1_Node000001_Node000002" class="edge">
<title>Node1&#45;&gt;Node2</title>
<g id="a_edge1_Node000001_Node000002"><a xlink:title=" ">
<path fill="none" stroke="#63b8ff" d="M802.13,-58.61C781.89,-63.83 758.08,-69.98 737.05,-75.41"/>
<polygon fill="#63b8ff" stroke="#63b8ff" points="803.24,-61.93 812.05,-56.04 801.49,-55.15 803.24,-61.93"/>
</a>
</g>
</g>
<!-- Node9 -->
<g id="Node000009" class="node">
<title>Node9</title>
<g id="a_Node000009"><a xlink:href="classAP__Stats.html#a3d296657293455e0be2810517afa42b0" target="_top" xlink:title=" ">
<polygon fill="white" stroke="#666666" points="738,-56 625,-56 625,-37 738,-37 738,-56"/>
<text text-anchor="middle" x="681.5" y="-44" font-family="Helvetica,sans-Serif" font-size="10.00">AP_Stats::set_flying</text>
</a>
</g>
</g>
<!-- Node1&#45;&gt;Node9 -->
<g id="edge8_Node000001_Node000009" class="edge">
<title>Node1&#45;&gt;Node9</title>
<g id="a_edge8_Node000001_Node000009"><a xlink:title=" ">
<path fill="none" stroke="#63b8ff" d="M763.5,-46.5C754.93,-46.5 746.4,-46.5 738.26,-46.5"/>
<polygon fill="#63b8ff" stroke="#63b8ff" points="763.54,-50 773.54,-46.5 763.54,-43 763.54,-50"/>
</a>
</g>
</g>
<!-- Node10 -->
<g id="Node000010" class="node">
<title>Node10</title>
<g id="a_Node000010"><a xlink:href="classAP__Stats.html#a10f2e48b57e00d1b7c8bb9729a1d6e00" target="_top" xlink:title=" ">
<polygon fill="white" stroke="#666666" points="731,-19 632,-19 632,0 731,0 731,-19"/>
<text text-anchor="middle" x="681.5" y="-7" font-family="Helvetica,sans-Serif" font-size="10.00">AP_Stats::update</text>
</a>
</g>
</g>
<!-- Node1&#45;&gt;Node10 -->
<g id="edge9_Node000001_Node000010" class="edge">
<title>Node1&#45;&gt;Node10</title>
<g id="a_edge9_Node000001_Node000010"><a xlink:title=" ">
<path fill="none" stroke="#63b8ff" d="M796.26,-34.78C773.46,-29.71 747.11,-23.86 725.52,-19.06"/>
<polygon fill="#63b8ff" stroke="#63b8ff" points="795.6,-38.22 806.12,-36.97 797.12,-31.39 795.6,-38.22"/>
</a>
</g>
</g>
<!-- Node3 -->
<g id="Node000003" class="node">
<title>Node3</title>
<g id="a_Node000003"><a xlink:href="classAP__OSD__Screen.html#a5f2fba81027811fe436b91b08c2907a0" target="_top" xlink:title=" ">
<polygon fill="white" stroke="#666666" points="576.5,-147.5 452.5,-147.5 452.5,-117.5 576.5,-117.5 576.5,-147.5"/>
<text text-anchor="start" x="460.5" y="-135.5" font-family="Helvetica,sans-Serif" font-size="10.00">AP_OSD_Screen::draw</text>
<text text-anchor="middle" x="514.5" y="-124.5" font-family="Helvetica,sans-Serif" font-size="10.00">_flightime</text>
</a>
</g>
</g>
<!-- Node2&#45;&gt;Node3 -->
<g id="edge2_Node000002_Node000003" class="edge">
<title>Node2&#45;&gt;Node3</title>
<g id="a_edge2_Node000002_Node000003"><a xlink:title=" ">
<path fill="none" stroke="#63b8ff" d="M615.55,-106.43C601.61,-110.06 586.96,-113.88 573.31,-117.43"/>
<polygon fill="#63b8ff" stroke="#63b8ff" points="616.76,-109.73 625.56,-103.82 615,-102.95 616.76,-109.73"/>
</a>
</g>
</g>
<!-- Node4 -->
<g id="Node000004" class="node">
<title>Node4</title>
<g id="a_Node000004"><a xlink:href="classAP__Hott__Telem.html#a4c79df471a5cd590f93bca2b3d93ce9d" target="_top" xlink:title=" ">
<polygon fill="white" stroke="#666666" points="587.5,-99 441.5,-99 441.5,-80 587.5,-80 587.5,-99"/>
<text text-anchor="middle" x="514.5" y="-87" font-family="Helvetica,sans-Serif" font-size="10.00">AP_Hott_Telem::send_EAM</text>
</a>
</g>
</g>
<!-- Node2&#45;&gt;Node4 -->
<g id="edge3_Node000002_Node000004" class="edge">
<title>Node2&#45;&gt;Node4</title>
<g id="a_edge3_Node000002_Node000004"><a xlink:title=" ">
<path fill="none" stroke="#63b8ff" d="M615.38,-89.5C606.24,-89.5 596.79,-89.5 587.52,-89.5"/>
<polygon fill="#63b8ff" stroke="#63b8ff" points="615.56,-93 625.56,-89.5 615.56,-86 615.56,-93"/>
</a>
</g>
</g>
<!-- Node8 -->
<g id="Node000008" class="node">
<title>Node8</title>
<g id="a_Node000008"><a xlink:href="classAP__MSP__Telem__DJI.html#a8ee22edcf904df3d632d17d422196492" target="_top" xlink:title=" ">
<polygon fill="white" stroke="#666666" points="589,-61.5 440,-61.5 440,-31.5 589,-31.5 589,-61.5"/>
<text text-anchor="start" x="448" y="-49.5" font-family="Helvetica,sans-Serif" font-size="10.00">AP_MSP_Telem_DJI::update</text>
<text text-anchor="middle" x="514.5" y="-38.5" font-family="Helvetica,sans-Serif" font-size="10.00">_flight_mode_str</text>
</a>
</g>
</g>
<!-- Node2&#45;&gt;Node8 -->
<g id="edge7_Node000002_Node000008" class="edge">
<title>Node2&#45;&gt;Node8</title>
<g id="a_edge7_Node000002_Node000008"><a xlink:title=" ">
<path fill="none" stroke="#63b8ff" d="M615.55,-72.57C601.61,-68.94 586.96,-65.12 573.31,-61.57"/>
<polygon fill="#63b8ff" stroke="#63b8ff" points="615,-76.05 625.56,-75.18 616.76,-69.27 615,-76.05"/>
</a>
</g>
</g>
<!-- Node5 -->
<g id="Node000005" class="node">
<title>Node5</title>
<g id="a_Node000005"><a xlink:href="classAP__Hott__Telem.html#a5afb837ff331d290aa058c62c2e18628" target="_top" xlink:title=" ">
<polygon fill="white" stroke="#666666" points="404,-99 287,-99 287,-80 404,-80 404,-99"/>
<text text-anchor="middle" x="345.5" y="-87" font-family="Helvetica,sans-Serif" font-size="10.00">AP_Hott_Telem::loop</text>
</a>
</g>
</g>
<!-- Node4&#45;&gt;Node5 -->
<g id="edge4_Node000004_Node000005" class="edge">
<title>Node4&#45;&gt;Node5</title>
<g id="a_edge4_Node000004_Node000005"><a xlink:title=" ">
<path fill="none" stroke="#63b8ff" d="M430.97,-89.5C421.87,-89.5 412.75,-89.5 404.05,-89.5"/>
<polygon fill="#63b8ff" stroke="#63b8ff" points="431.22,-93 441.22,-89.5 431.22,-86 431.22,-93"/>
</a>
</g>
</g>
<!-- Node6 -->
<g id="Node000006" class="node">
<title>Node6</title>
<g id="a_Node000006"><a xlink:href="classAP__Hott__Telem.html#a6ad2badf6c27c14858b99d94918874cc" target="_top" xlink:title=" ">
<polygon fill="white" stroke="#666666" points="251,-99 139,-99 139,-80 251,-80 251,-99"/>
<text text-anchor="middle" x="195" y="-87" font-family="Helvetica,sans-Serif" font-size="10.00">AP_Hott_Telem::init</text>
</a>
</g>
</g>
<!-- Node5&#45;&gt;Node6 -->
<g id="edge5_Node000005_Node000006" class="edge">
<title>Node5&#45;&gt;Node6</title>
<g id="a_edge5_Node000005_Node000006"><a xlink:title=" ">
<path fill="none" stroke="#63b8ff" d="M276.66,-89.5C268.07,-89.5 259.36,-89.5 251.01,-89.5"/>
<polygon fill="#63b8ff" stroke="#63b8ff" points="276.66,-93 286.66,-89.5 276.66,-86 276.66,-93"/>
</a>
</g>
</g>
<!-- Node7 -->
<g id="Node000007" class="node">
<title>Node7</title>
<g id="a_Node000007"><a xlink:href="classAP__Vehicle.html#ac0f751deebdba5725b2b52862719a15d" target="_top" xlink:title=" ">
<polygon fill="white" stroke="#666666" points="103,-99 0,-99 0,-80 103,-80 103,-99"/>
<text text-anchor="middle" x="51.5" y="-87" font-family="Helvetica,sans-Serif" font-size="10.00">AP_Vehicle::setup</text>
</a>
</g>
</g>
<!-- Node6&#45;&gt;Node7 -->
<g id="edge6_Node000006_Node000007" class="edge">
<title>Node6&#45;&gt;Node7</title>
<g id="a_edge6_Node000006_Node000007"><a xlink:title=" ">
<path fill="none" stroke="#63b8ff" d="M128.82,-89.5C120.18,-89.5 111.42,-89.5 103.07,-89.5"/>
<polygon fill="#63b8ff" stroke="#63b8ff" points="128.89,-93 138.89,-89.5 128.89,-86 128.89,-93"/>
</a>
</g>
</g>
</g>
</svg>
