<?xml version="1.0" encoding="UTF-8" standalone="no"?>
<!DOCTYPE svg PUBLIC "-//W3C//DTD SVG 1.1//EN"
 "http://www.w3.org/Graphics/SVG/1.1/DTD/svg11.dtd">
<!-- Generated by graphviz version 2.43.0 (0)
 -->
<!-- Title: SITL::I2C::init Pages: 1 -->
<svg width="390pt" height="124pt"
 viewBox="0.00 0.00 390.00 123.50" xmlns="http://www.w3.org/2000/svg" xmlns:xlink="http://www.w3.org/1999/xlink">
<g id="graph0" class="graph" transform="scale(1 1) rotate(0) translate(4 119.5)">
<title>SITL::I2C::init</title>
<!-- Node1 -->
<g id="Node000001" class="node">
<title>Node1</title>
<g id="a_Node000001"><a xlink:title=" ">
<polygon fill="#999999" stroke="#666666" points="80,-80 0,-80 0,-61 80,-61 80,-80"/>
<text text-anchor="middle" x="40" y="-68" font-family="Helvetica,sans-Serif" font-size="10.00">SITL::I2C::init</text>
</a>
</g>
</g>
<!-- Node2 -->
<g id="Node000002" class="node">
<title>Node2</title>
<g id="a_Node000002"><a xlink:href="classSITL_1_1I2CDevice.html#af256fb78a31d8f7f212dd1a5f600c0b0" target="_top" xlink:title=" ">
<polygon fill="white" stroke="#666666" points="230,-99 116,-99 116,-80 230,-80 230,-99"/>
<text text-anchor="middle" x="173" y="-87" font-family="Helvetica,sans-Serif" font-size="10.00">SITL::I2CDevice::init</text>
</a>
</g>
</g>
<!-- Node1&#45;&gt;Node2 -->
<g id="edge1_Node000001_Node000002" class="edge">
<title>Node1&#45;&gt;Node2</title>
<g id="a_edge1_Node000001_Node000002"><a xlink:title=" ">
<path fill="none" stroke="#63b8ff" d="M80.3,-76.2C88.32,-77.36 96.97,-78.62 105.63,-79.87"/>
<polygon fill="#63b8ff" stroke="#63b8ff" points="105.37,-83.37 115.77,-81.34 106.38,-76.45 105.37,-83.37"/>
</a>
</g>
</g>
<!-- Node3 -->
<g id="Node000003" class="node">
<title>Node3</title>
<g id="a_Node000003"><a xlink:href="namespaceAP__HAL.html#a52edeef7d5ffaa365e1229b87c170307" target="_top" xlink:title=" ">
<polygon fill="white" stroke="#666666" points="216,-62 130,-62 130,-43 216,-43 216,-62"/>
<text text-anchor="middle" x="173" y="-50" font-family="Helvetica,sans-Serif" font-size="10.00">AP_HAL::panic</text>
</a>
</g>
</g>
<!-- Node1&#45;&gt;Node3 -->
<g id="edge2_Node000001_Node000003" class="edge">
<title>Node1&#45;&gt;Node3</title>
<g id="a_edge2_Node000001_Node000003"><a xlink:title=" ">
<path fill="none" stroke="#63b8ff" d="M80.3,-65.1C92.8,-63.38 106.81,-61.46 120.05,-59.64"/>
<polygon fill="#63b8ff" stroke="#63b8ff" points="120.56,-63.1 129.99,-58.27 119.6,-56.17 120.56,-63.1"/>
</a>
</g>
</g>
<!-- Node4 -->
<g id="Node000004" class="node">
<title>Node4</title>
<g id="a_Node000004"><a xlink:href="classAP__HAL_1_1Scheduler.html#ab3175e2e6223ccfe82f957e41cc12b26" target="_top" xlink:title=" ">
<polygon fill="white" stroke="#666666" points="381,-115.5 267,-115.5 267,-85.5 381,-85.5 381,-115.5"/>
<text text-anchor="start" x="275" y="-103.5" font-family="Helvetica,sans-Serif" font-size="10.00">AP_HAL::Scheduler::</text>
<text text-anchor="middle" x="324" y="-92.5" font-family="Helvetica,sans-Serif" font-size="10.00">delay</text>
</a>
</g>
</g>
<!-- Node3&#45;&gt;Node4 -->
<g id="edge3_Node000003_Node000004" class="edge">
<title>Node3&#45;&gt;Node4</title>
<g id="a_edge3_Node000003_Node000004"><a xlink:title=" ">
<path fill="none" stroke="#63b8ff" d="M203.79,-62.1C221.76,-67.89 245.24,-75.45 266.6,-82.33"/>
<polygon fill="#63b8ff" stroke="#63b8ff" points="265.65,-85.7 276.24,-85.44 267.8,-79.04 265.65,-85.7"/>
</a>
</g>
</g>
<!-- Node5 -->
<g id="Node000005" class="node">
<title>Node5</title>
<g id="a_Node000005"><a xlink:href="classAP__HAL_1_1Scheduler.html#a78c4f1b1f192ac1c99544b6cc8f099b0" target="_top" xlink:title=" ">
<polygon fill="white" stroke="#666666" points="382,-67.5 266,-67.5 266,-37.5 382,-37.5 382,-67.5"/>
<text text-anchor="start" x="274" y="-55.5" font-family="Helvetica,sans-Serif" font-size="10.00">AP_HAL::Scheduler::</text>
<text text-anchor="middle" x="324" y="-44.5" font-family="Helvetica,sans-Serif" font-size="10.00">delay_microseconds</text>
</a>
</g>
</g>
<!-- Node3&#45;&gt;Node5 -->
<g id="edge4_Node000003_Node000005" class="edge">
<title>Node3&#45;&gt;Node5</title>
<g id="a_edge4_Node000003_Node000005"><a xlink:title=" ">
<path fill="none" stroke="#63b8ff" d="M216.3,-52.5C228.57,-52.5 242.29,-52.5 255.69,-52.5"/>
<polygon fill="#63b8ff" stroke="#63b8ff" points="255.85,-56 265.85,-52.5 255.85,-49 255.85,-56"/>
</a>
</g>
</g>
<!-- Node6 -->
<g id="Node000006" class="node">
<title>Node6</title>
<g id="a_Node000006"><a xlink:href="stdio_8h.html#aae132cc6af1eb6cf43bf011d8d63e854" target="_top" xlink:title=" ">
<polygon fill="white" stroke="#666666" points="348.5,-19 299.5,-19 299.5,0 348.5,0 348.5,-19"/>
<text text-anchor="middle" x="324" y="-7" font-family="Helvetica,sans-Serif" font-size="10.00">vprintf</text>
</a>
</g>
</g>
<!-- Node3&#45;&gt;Node6 -->
<g id="edge5_Node000003_Node000006" class="edge">
<title>Node3&#45;&gt;Node6</title>
<g id="a_edge5_Node000003_Node000006"><a xlink:title=" ">
<path fill="none" stroke="#63b8ff" d="M207.07,-42.96C231.63,-35.87 265.01,-26.24 289.64,-19.13"/>
<polygon fill="#63b8ff" stroke="#63b8ff" points="290.65,-22.48 299.28,-16.34 288.7,-15.75 290.65,-22.48"/>
</a>
</g>
</g>
</g>
</svg>
