<?xml version="1.0" encoding="UTF-8" standalone="no"?>
<!DOCTYPE svg PUBLIC "-//W3C//DTD SVG 1.1//EN"
 "http://www.w3.org/Graphics/SVG/1.1/DTD/svg11.dtd">
<!-- Generated by graphviz version 2.43.0 (0)
 -->
<!-- Title: AC_AttitudeControl::pre_arm_checks Pages: 1 -->
<!--zoomable 538 -->

<svg id="main" version="1.1" xmlns="http://www.w3.org/2000/svg" xmlns:xlink="http://www.w3.org/1999/xlink" xml:space="preserve" onload="init(evt)">
<style type="text/css"><![CDATA[
.node, .edge {opacity: 0.7;}
.node.selected, .edge.selected {opacity: 1;}
.edge:hover path { stroke: red; }
.edge:hover polygon { stroke: red; fill: red; }
]]></style>

<defs>
  <circle id="rim" cx="0" cy="0" r="7"/>
  <circle id="rim2" cx="0" cy="0" r="3.5"/>
  <g id="zoomPlus">
    <use xlink:href="#rim" fill="#404040"><set attributeName="fill" to="#808080" begin="zoomplus.mouseover" end="zoomplus.mouseout"/></use>
    <path d="M-4,0h8M0,-4v8" fill="none" stroke="white" stroke-width="1.5" pointer-events="none"/>
  </g>
  <g id="zoomMin">
    <use xlink:href="#rim" fill="#404040"><set attributeName="fill" to="#808080" begin="zoomminus.mouseover" end="zoomminus.mouseout"/></use>
    <path d="M-4,0h8" fill="none" stroke="white" stroke-width="1.5" pointer-events="none"/>
  </g>
  <g id="arrowUp" transform="translate(30 24)">
    <use xlink:href="#rim"/>
    <path pointer-events="none" fill="none" stroke="white" stroke-width="1.5" d="M0,-3.0v7 M-2.5,-0.5L0,-3.0L2.5,-0.5"/>
  </g>
  <g id="arrowRight" transform="rotate(90) translate(36 -43)">
    <use xlink:href="#rim"/>
    <path pointer-events="none" fill="none" stroke="white" stroke-width="1.5" d="M0,-3.0v7 M-2.5,-0.5L0,-3.0L2.5,-0.5"/>
  </g>
  <g id="arrowDown" transform="rotate(180) translate(-30 -48)">
    <use xlink:href="#rim"/>
    <path pointer-events="none" fill="none" stroke="white" stroke-width="1.5" d="M0,-3.0v7 M-2.5,-0.5L0,-3.0L2.5,-0.5"/>
  </g>
  <g id="arrowLeft" transform="rotate(270) translate(-36 17)">
    <use xlink:href="#rim"/>
    <path pointer-events="none" fill="none" stroke="white" stroke-width="1.5" d="M0,-3.0v7 M-2.5,-0.5L0,-3.0L2.5,-0.5"/>
  </g>
  <g id="resetDef">
    <use xlink:href="#rim2" fill="#404040"><set attributeName="fill" to="#808080" begin="reset.mouseover" end="reset.mouseout"/></use>
  </g>
</defs>
<script type="application/ecmascript">
var viewWidth = 438;
var viewHeight = 538;
var sectionId = 'dynsection-103';
</script>
<script type="application/ecmascript" xlink:href="svg.min.js"/>
<svg id="graph" class="graph">
<g id="viewport">
<title>AC_AttitudeControl::pre_arm_checks</title>
<!-- Node1 -->
<g id="Node000001" class="node">
<title>Node1</title>
<g id="a_Node000001"><a xlink:title=" ">
<polygon fill="#999999" stroke="#666666" points="110,-252.5 0,-252.5 0,-222.5 110,-222.5 110,-252.5"/>
<text text-anchor="start" x="8" y="-240.5" font-family="Helvetica,sans-Serif" font-size="10.00">AC_AttitudeControl</text>
<text text-anchor="middle" x="55" y="-229.5" font-family="Helvetica,sans-Serif" font-size="10.00">::pre_arm_checks</text>
</a>
</g>
</g>
<!-- Node2 -->
<g id="Node000002" class="node">
<title>Node2</title>
<g id="a_Node000002"><a xlink:href="classAC__PID.html#a8cb8a136be5506f38d92fd39c0936451" target="_top" xlink:title=" ">
<polygon fill="white" stroke="#666666" points="239,-530 174,-530 174,-511 239,-511 239,-530"/>
<text text-anchor="middle" x="206.5" y="-518" font-family="Helvetica,sans-Serif" font-size="10.00">AC_PID::ff</text>
</a>
</g>
</g>
<!-- Node1&#45;&gt;Node2 -->
<g id="edge1_Node000001_Node000002" class="edge">
<title>Node1&#45;&gt;Node2</title>
<g id="a_edge1_Node000001_Node000002"><a xlink:title=" ">
<path fill="none" stroke="#63b8ff" d="M56.62,-252.79C59.28,-297.63 73.23,-430.13 146,-501.5 151.05,-506.45 157.38,-510.11 164.02,-512.82"/>
<polygon fill="#63b8ff" stroke="#63b8ff" points="163.25,-516.25 173.84,-516.14 165.49,-509.62 163.25,-516.25"/>
</a>
</g>
</g>
<!-- Node3 -->
<g id="Node000003" class="node">
<title>Node3</title>
<g id="a_Node000003"><a xlink:href="classAC__AttitudeControl.html#a7e72972f6ade41178a7bf8591d4423ed" target="_top" xlink:title=" ">
<polygon fill="white" stroke="#666666" points="262,-492.5 151,-492.5 151,-462.5 262,-462.5 262,-492.5"/>
<text text-anchor="start" x="159" y="-480.5" font-family="Helvetica,sans-Serif" font-size="10.00">AC_AttitudeControl</text>
<text text-anchor="middle" x="206.5" y="-469.5" font-family="Helvetica,sans-Serif" font-size="10.00">::get_angle_pitch_p</text>
</a>
</g>
</g>
<!-- Node1&#45;&gt;Node3 -->
<g id="edge2_Node000001_Node000003" class="edge">
<title>Node1&#45;&gt;Node3</title>
<g id="a_edge2_Node000001_Node000003"><a xlink:title=" ">
<path fill="none" stroke="#63b8ff" d="M58.19,-252.55C64.58,-291.16 86.63,-394.8 146,-453.5 147.09,-454.58 148.23,-455.61 149.42,-456.59"/>
<polygon fill="#63b8ff" stroke="#63b8ff" points="147.64,-459.62 157.84,-462.47 151.65,-453.88 147.64,-459.62"/>
</a>
</g>
</g>
<!-- Node4 -->
<g id="Node000004" class="node">
<title>Node4</title>
<g id="a_Node000004"><a xlink:href="classAC__AttitudeControl.html#adef3aadae796b01e71e77139426fcce9" target="_top" xlink:title=" ">
<polygon fill="white" stroke="#666666" points="261.5,-444.5 151.5,-444.5 151.5,-414.5 261.5,-414.5 261.5,-444.5"/>
<text text-anchor="start" x="159.5" y="-432.5" font-family="Helvetica,sans-Serif" font-size="10.00">AC_AttitudeControl</text>
<text text-anchor="middle" x="206.5" y="-421.5" font-family="Helvetica,sans-Serif" font-size="10.00">::get_angle_roll_p</text>
</a>
</g>
</g>
<!-- Node1&#45;&gt;Node4 -->
<g id="edge3_Node000001_Node000004" class="edge">
<title>Node1&#45;&gt;Node4</title>
<g id="a_edge3_Node000001_Node000004"><a xlink:title=" ">
<path fill="none" stroke="#63b8ff" d="M60.26,-252.73C70.06,-285.18 97.23,-361.75 146,-405.5 147.31,-406.68 148.69,-407.8 150.12,-408.87"/>
<polygon fill="#63b8ff" stroke="#63b8ff" points="148.47,-411.97 158.77,-414.45 152.27,-406.09 148.47,-411.97"/>
</a>
</g>
</g>
<!-- Node5 -->
<g id="Node000005" class="node">
<title>Node5</title>
<g id="a_Node000005"><a xlink:href="classAC__AttitudeControl.html#ae6c2a863159c129651c40640fa46edfe" target="_top" xlink:title=" ">
<polygon fill="white" stroke="#666666" points="261.5,-396.5 151.5,-396.5 151.5,-366.5 261.5,-366.5 261.5,-396.5"/>
<text text-anchor="start" x="159.5" y="-384.5" font-family="Helvetica,sans-Serif" font-size="10.00">AC_AttitudeControl</text>
<text text-anchor="middle" x="206.5" y="-373.5" font-family="Helvetica,sans-Serif" font-size="10.00">::get_angle_yaw_p</text>
</a>
</g>
</g>
<!-- Node1&#45;&gt;Node5 -->
<g id="edge4_Node000001_Node000005" class="edge">
<title>Node1&#45;&gt;Node5</title>
<g id="a_edge4_Node000001_Node000005"><a xlink:title=" ">
<path fill="none" stroke="#63b8ff" d="M63.89,-252.89C77.49,-278.01 107.6,-327.98 146,-357.5 147.79,-358.88 149.68,-360.19 151.63,-361.44"/>
<polygon fill="#63b8ff" stroke="#63b8ff" points="150.08,-364.58 160.5,-366.48 153.54,-358.5 150.08,-364.58"/>
</a>
</g>
</g>
<!-- Node6 -->
<g id="Node000006" class="node">
<title>Node6</title>
<g id="a_Node000006"><a xlink:href="classAC__AttitudeControl.html#aecb340d46636b76dff086c5ae7af113c" target="_top" xlink:title=" ">
<polygon fill="white" stroke="#666666" points="263,-348.5 150,-348.5 150,-318.5 263,-318.5 263,-348.5"/>
<text text-anchor="start" x="158" y="-336.5" font-family="Helvetica,sans-Serif" font-size="10.00">AC_AttitudeControl</text>
<text text-anchor="middle" x="206.5" y="-325.5" font-family="Helvetica,sans-Serif" font-size="10.00">::get_rate_pitch_pid</text>
</a>
</g>
</g>
<!-- Node1&#45;&gt;Node6 -->
<g id="edge5_Node000001_Node000006" class="edge">
<title>Node1&#45;&gt;Node6</title>
<g id="a_edge5_Node000001_Node000006"><a xlink:title=" ">
<path fill="none" stroke="#63b8ff" d="M71.86,-252.58C89.06,-268.35 117.84,-293.04 146,-309.5 148.79,-311.13 151.71,-312.7 154.7,-314.2"/>
<polygon fill="#63b8ff" stroke="#63b8ff" points="153.25,-317.39 163.79,-318.49 156.24,-311.06 153.25,-317.39"/>
</a>
</g>
</g>
<!-- Node7 -->
<g id="Node000007" class="node">
<title>Node7</title>
<g id="a_Node000007"><a xlink:href="classAC__AttitudeControl.html#a054a91d8ef862a20a9c1fced2def685b" target="_top" xlink:title=" ">
<polygon fill="white" stroke="#666666" points="261.5,-300.5 151.5,-300.5 151.5,-270.5 261.5,-270.5 261.5,-300.5"/>
<text text-anchor="start" x="159.5" y="-288.5" font-family="Helvetica,sans-Serif" font-size="10.00">AC_AttitudeControl</text>
<text text-anchor="middle" x="206.5" y="-277.5" font-family="Helvetica,sans-Serif" font-size="10.00">::get_rate_roll_pid</text>
</a>
</g>
</g>
<!-- Node1&#45;&gt;Node7 -->
<g id="edge6_Node000001_Node000007" class="edge">
<title>Node1&#45;&gt;Node7</title>
<g id="a_edge6_Node000001_Node000007"><a xlink:title=" ">
<path fill="none" stroke="#63b8ff" d="M102.89,-252.56C117.5,-257.25 133.77,-262.47 148.97,-267.35"/>
<polygon fill="#63b8ff" stroke="#63b8ff" points="148.18,-270.77 158.77,-270.5 150.32,-264.11 148.18,-270.77"/>
</a>
</g>
</g>
<!-- Node8 -->
<g id="Node000008" class="node">
<title>Node8</title>
<g id="a_Node000008"><a xlink:href="classAC__AttitudeControl.html#afca955109401c92d59b067062cb4430b" target="_top" xlink:title=" ">
<polygon fill="white" stroke="#666666" points="261.5,-252.5 151.5,-252.5 151.5,-222.5 261.5,-222.5 261.5,-252.5"/>
<text text-anchor="start" x="159.5" y="-240.5" font-family="Helvetica,sans-Serif" font-size="10.00">AC_AttitudeControl</text>
<text text-anchor="middle" x="206.5" y="-229.5" font-family="Helvetica,sans-Serif" font-size="10.00">::get_rate_yaw_pid</text>
</a>
</g>
</g>
<!-- Node1&#45;&gt;Node8 -->
<g id="edge7_Node000001_Node000008" class="edge">
<title>Node1&#45;&gt;Node8</title>
<g id="a_edge7_Node000001_Node000008"><a xlink:title=" ">
<path fill="none" stroke="#63b8ff" d="M110.4,-237.5C120.41,-237.5 130.96,-237.5 141.24,-237.5"/>
<polygon fill="#63b8ff" stroke="#63b8ff" points="141.4,-241 151.39,-237.5 141.39,-234 141.4,-241"/>
</a>
</g>
</g>
<!-- Node9 -->
<g id="Node000009" class="node">
<title>Node9</title>
<g id="a_Node000009"><a xlink:href="AP__Math_8h.html#a8b6f71a42818d74fd8bfe348108942fa" target="_top" xlink:title=" ">
<polygon fill="white" stroke="#666666" points="243,-204 170,-204 170,-185 243,-185 243,-204"/>
<text text-anchor="middle" x="206.5" y="-192" font-family="Helvetica,sans-Serif" font-size="10.00">is_negative</text>
</a>
</g>
</g>
<!-- Node1&#45;&gt;Node9 -->
<g id="edge8_Node000001_Node000009" class="edge">
<title>Node1&#45;&gt;Node9</title>
<g id="a_edge8_Node000001_Node000009"><a xlink:title=" ">
<path fill="none" stroke="#63b8ff" d="M108.29,-222.46C126.03,-217.36 145.62,-211.72 162.55,-206.85"/>
<polygon fill="#63b8ff" stroke="#63b8ff" points="163.53,-210.21 172.17,-204.09 161.59,-203.49 163.53,-210.21"/>
</a>
</g>
</g>
<!-- Node10 -->
<g id="Node000010" class="node">
<title>Node10</title>
<g id="a_Node000010"><a xlink:href="AP__Math_8h.html#a4e3ae698e8f99cec214348ad233e3c41" target="_top" xlink:title=" ">
<polygon fill="white" stroke="#666666" points="241,-167 172,-167 172,-148 241,-148 241,-167"/>
<text text-anchor="middle" x="206.5" y="-155" font-family="Helvetica,sans-Serif" font-size="10.00">is_positive</text>
</a>
</g>
</g>
<!-- Node1&#45;&gt;Node10 -->
<g id="edge9_Node000001_Node000010" class="edge">
<title>Node1&#45;&gt;Node10</title>
<g id="a_edge9_Node000001_Node000010"><a xlink:title=" ">
<path fill="none" stroke="#63b8ff" d="M74.68,-222.48C92.24,-208.95 119.69,-189.29 146,-176.5 151.06,-174.04 156.51,-171.8 161.99,-169.79"/>
<polygon fill="#63b8ff" stroke="#63b8ff" points="163.48,-172.97 171.8,-166.41 161.2,-166.35 163.48,-172.97"/>
</a>
</g>
</g>
<!-- Node11 -->
<g id="Node000011" class="node">
<title>Node11</title>
<g id="a_Node000011"><a xlink:href="classAC__PID.html#abb7ce07d4ca159d065184f793abf8edb" target="_top" xlink:title=" ">
<polygon fill="white" stroke="#666666" points="242,-130 171,-130 171,-111 242,-111 242,-130"/>
<text text-anchor="middle" x="206.5" y="-118" font-family="Helvetica,sans-Serif" font-size="10.00">AC_PID::kD</text>
</a>
</g>
</g>
<!-- Node1&#45;&gt;Node11 -->
<g id="edge10_Node000001_Node000011" class="edge">
<title>Node1&#45;&gt;Node11</title>
<g id="a_edge10_Node000001_Node000011"><a xlink:title=" ">
<path fill="none" stroke="#63b8ff" d="M66.07,-222.28C81.04,-200.8 111.15,-161.76 146,-139.5 150.68,-136.51 155.88,-133.95 161.19,-131.78"/>
<polygon fill="#63b8ff" stroke="#63b8ff" points="162.6,-134.99 170.79,-128.27 160.19,-128.41 162.6,-134.99"/>
</a>
</g>
</g>
<!-- Node12 -->
<g id="Node000012" class="node">
<title>Node12</title>
<g id="a_Node000012"><a xlink:href="classAC__PID.html#ad4c7d433c035e9488908a6e50c3576ae" target="_top" xlink:title=" ">
<polygon fill="white" stroke="#666666" points="240,-93 173,-93 173,-74 240,-74 240,-93"/>
<text text-anchor="middle" x="206.5" y="-81" font-family="Helvetica,sans-Serif" font-size="10.00">AC_PID::kI</text>
</a>
</g>
</g>
<!-- Node1&#45;&gt;Node12 -->
<g id="edge11_Node000001_Node000012" class="edge">
<title>Node1&#45;&gt;Node12</title>
<g id="a_edge11_Node000001_Node000012"><a xlink:title=" ">
<path fill="none" stroke="#63b8ff" d="M62.15,-222.07C74.08,-194.09 103.04,-134.89 146,-102.5 151.11,-98.64 157.04,-95.56 163.12,-93.09"/>
<polygon fill="#63b8ff" stroke="#63b8ff" points="164.46,-96.33 172.72,-89.7 162.13,-89.73 164.46,-96.33"/>
</a>
</g>
</g>
<!-- Node13 -->
<g id="Node000013" class="node">
<title>Node13</title>
<g id="a_Node000013"><a xlink:href="classAC__PID.html#a307aaed51e687c98cd7f5fc676303eb8" target="_top" xlink:title=" ">
<polygon fill="white" stroke="#666666" points="241.5,-56 171.5,-56 171.5,-37 241.5,-37 241.5,-56"/>
<text text-anchor="middle" x="206.5" y="-44" font-family="Helvetica,sans-Serif" font-size="10.00">AC_PID::kP</text>
</a>
</g>
</g>
<!-- Node1&#45;&gt;Node13 -->
<g id="edge12_Node000001_Node000013" class="edge">
<title>Node1&#45;&gt;Node13</title>
<g id="a_edge12_Node000001_Node000013"><a xlink:title=" ">
<path fill="none" stroke="#63b8ff" d="M59.7,-222.39C68.62,-189.05 94.53,-108.76 146,-65.5 150.63,-61.61 156.06,-58.52 161.73,-56.05"/>
<polygon fill="#63b8ff" stroke="#63b8ff" points="163.23,-59.23 171.39,-52.47 160.79,-52.66 163.23,-59.23"/>
</a>
</g>
</g>
<!-- Node14 -->
<g id="Node000014" class="node">
<title>Node14</title>
<g id="a_Node000014"><a xlink:href="classAP__HAL_1_1Util.html#afaedff8102d9ae2fbc398d2099e30cf6" target="_top" xlink:title=" ">
<polygon fill="white" stroke="#666666" points="267,-19 146,-19 146,0 267,0 267,-19"/>
<text text-anchor="middle" x="206.5" y="-7" font-family="Helvetica,sans-Serif" font-size="10.00">AP_HAL::Util::snprintf</text>
</a>
</g>
</g>
<!-- Node1&#45;&gt;Node14 -->
<g id="edge13_Node000001_Node000014" class="edge">
<title>Node1&#45;&gt;Node14</title>
<g id="a_edge13_Node000001_Node000014"><a xlink:title=" ">
<path fill="none" stroke="#63b8ff" d="M58.15,-222.4C64.39,-184.2 86.01,-82.91 146,-28.5 147.73,-26.93 149.59,-25.49 151.54,-24.17"/>
<polygon fill="#63b8ff" stroke="#63b8ff" points="153.59,-27.04 160.63,-19.11 150.19,-20.92 153.59,-27.04"/>
</a>
</g>
</g>
<!-- Node15 -->
<g id="Node000015" class="node">
<title>Node15</title>
<g id="a_Node000015"><a xlink:href="classAP__HAL_1_1Util.html#ae161746d300c291b0f1536f05a9f0462" target="_top" xlink:title=" ">
<polygon fill="white" stroke="#666666" points="430,-19 303,-19 303,0 430,0 430,-19"/>
<text text-anchor="middle" x="366.5" y="-7" font-family="Helvetica,sans-Serif" font-size="10.00">AP_HAL::Util::vsnprintf</text>
</a>
</g>
</g>
<!-- Node14&#45;&gt;Node15 -->
<g id="edge14_Node000014_Node000015" class="edge">
<title>Node14&#45;&gt;Node15</title>
<g id="a_edge14_Node000014_Node000015"><a xlink:title=" ">
<path fill="none" stroke="#63b8ff" d="M267.23,-9.5C275.5,-9.5 284.06,-9.5 292.53,-9.5"/>
<polygon fill="#63b8ff" stroke="#63b8ff" points="292.79,-13 302.79,-9.5 292.79,-6 292.79,-13"/>
</a>
</g>
</g>
</g>
</svg>

<g id="navigator" transform="translate(0 0)" fill="#404254">
  <rect fill="#f2f5e9" fill-opacity="0.5" stroke="#606060" stroke-width=".5" x="0" y="0" width="60" height="60"/>
  <use id="zoomplus" xlink:href="#zoomPlus" x="17" y="9" onmousedown="handleZoom(evt,'in')"/>
  <use id="zoomminus" xlink:href="#zoomMin" x="42" y="9" onmousedown="handleZoom(evt,'out')"/>
  <use id="reset" xlink:href="#resetDef" x="30" y="36" onmousedown="handleReset()"/>
   <use id="arrowup" xlink:href="#arrowUp" x="0" y="0" onmousedown="handlePan(0,-1)"/>
  <use id="arrowright" xlink:href="#arrowRight" x="0" y="0" onmousedown="handlePan(1,0)"/>
  <use id="arrowdown" xlink:href="#arrowDown" x="0" y="0" onmousedown="handlePan(0,1)"/>
  <use id="arrowleft" xlink:href="#arrowLeft" x="0" y="0" onmousedown="handlePan(-1,0)"/>
</g>
<svg viewBox="0 0 15 15" width="100%" height="30px" preserveAspectRatio="xMaxYMin meet">
 <g id="arrow_out" transform="scale(0.3 0.3)">
  <a xlink:href="classAC__AttitudeControl_ac6d9372593dc21ea2987ed487f4ddc23_cgraph_org.svg" target="_base">
   <rect id="button" ry="5" rx="5" y="6" x="6" height="38" width="38"
        fill="#f2f5e9" fill-opacity="0.5" stroke="#606060" stroke-width="1.0"/>
   <path id="arrow"
     d="M 11.500037,31.436501 C 11.940474,20.09759 22.043105,11.32322 32.158766,21.979434 L 37.068811,17.246167 C 37.068811,17.246167 37.088388,32 37.088388,32 L 22.160133,31.978069 C 22.160133,31.978069 26.997745,27.140456 26.997745,27.140456 C 18.528582,18.264221 13.291696,25.230495 11.500037,31.436501 z"
     style="fill:#404040;"/>
  </a>
 </g>
</svg>

<style type='text/css'>
<![CDATA[
[data-mouse-over-selected='false'] { opacity: 0.7; }
[data-mouse-over-selected='true']  { opacity: 1.0; }
]]>
</style>
<script type="application/ecmascript"><![CDATA[
document.addEventListener('DOMContentLoaded', (event) => {
  highlightEdges();
  highlightAdjacentNodes();
});
]]></script>
</svg>
