<?xml version="1.0" encoding="UTF-8" standalone="no"?>
<!DOCTYPE svg PUBLIC "-//W3C//DTD SVG 1.1//EN"
 "http://www.w3.org/Graphics/SVG/1.1/DTD/svg11.dtd">
<!-- Generated by graphviz version 2.43.0 (0)
 -->
<!-- Title: SITL::ShipSim::send_report Pages: 1 -->
<svg width="831pt" height="232pt"
 viewBox="0.00 0.00 831.00 232.00" xmlns="http://www.w3.org/2000/svg" xmlns:xlink="http://www.w3.org/1999/xlink">
<g id="graph0" class="graph" transform="scale(1 1) rotate(0) translate(4 228)">
<title>SITL::ShipSim::send_report</title>
<!-- Node1 -->
<g id="Node000001" class="node">
<title>Node1</title>
<g id="a_Node000001"><a xlink:title=" ">
<polygon fill="#999999" stroke="#666666" points="112,-98.5 0,-98.5 0,-68.5 112,-68.5 112,-98.5"/>
<text text-anchor="start" x="8" y="-86.5" font-family="Helvetica,sans-Serif" font-size="10.00">SITL::ShipSim::send</text>
<text text-anchor="middle" x="56" y="-75.5" font-family="Helvetica,sans-Serif" font-size="10.00">_report</text>
</a>
</g>
</g>
<!-- Node2 -->
<g id="Node000002" class="node">
<title>Node2</title>
<g id="a_Node000002"><a xlink:href="namespaceAP__HAL.html#a77dffbb18891996280308e21316ec186" target="_top" xlink:title=" ">
<polygon fill="white" stroke="#666666" points="237.5,-172 150.5,-172 150.5,-153 237.5,-153 237.5,-172"/>
<text text-anchor="middle" x="194" y="-160" font-family="Helvetica,sans-Serif" font-size="10.00">AP_HAL::millis</text>
</a>
</g>
</g>
<!-- Node1&#45;&gt;Node2 -->
<g id="edge1_Node000001_Node000002" class="edge">
<title>Node1&#45;&gt;Node2</title>
<g id="a_edge1_Node000001_Node000002"><a xlink:title=" ">
<path fill="none" stroke="#63b8ff" d="M81.12,-98.56C99.34,-109.82 125.05,-125.46 148,-138.5 153.66,-141.72 159.78,-145.06 165.62,-148.2"/>
<polygon fill="#63b8ff" stroke="#63b8ff" points="164.01,-151.31 174.49,-152.91 167.3,-145.13 164.01,-151.31"/>
</a>
</g>
</g>
<!-- Node9 -->
<g id="Node000009" class="node">
<title>Node9</title>
<g id="a_Node000009"><a xlink:href="classLocation.html#a146775eb07ce9abcc8d05f1b730404b0" target="_top" xlink:title=" ">
<polygon fill="white" stroke="#666666" points="240,-130 148,-130 148,-111 240,-111 240,-130"/>
<text text-anchor="middle" x="194" y="-118" font-family="Helvetica,sans-Serif" font-size="10.00">Location::offset</text>
</a>
</g>
</g>
<!-- Node1&#45;&gt;Node9 -->
<g id="edge8_Node000001_Node000009" class="edge">
<title>Node1&#45;&gt;Node9</title>
<g id="a_edge8_Node000001_Node000009"><a xlink:title=" ">
<path fill="none" stroke="#63b8ff" d="M112.32,-98.55C124.26,-101.8 136.75,-105.2 148.23,-108.32"/>
<polygon fill="#63b8ff" stroke="#63b8ff" points="147.45,-111.74 158.02,-110.98 149.29,-104.98 147.45,-111.74"/>
</a>
</g>
</g>
<!-- Node14 -->
<g id="Node000014" class="node">
<title>Node14</title>
<g id="a_Node000014"><a xlink:href="stdio_8h.html#a55f3d956bb2ba20b5059e9e25484a47f" target="_top" xlink:title=" ">
<polygon fill="white" stroke="#666666" points="215.5,-93 172.5,-93 172.5,-74 215.5,-74 215.5,-93"/>
<text text-anchor="middle" x="194" y="-81" font-family="Helvetica,sans-Serif" font-size="10.00">printf</text>
</a>
</g>
</g>
<!-- Node1&#45;&gt;Node14 -->
<g id="edge13_Node000001_Node000014" class="edge">
<title>Node1&#45;&gt;Node14</title>
<g id="a_edge13_Node000001_Node000014"><a xlink:title=" ">
<path fill="none" stroke="#63b8ff" d="M112.32,-83.5C129.36,-83.5 147.5,-83.5 162.26,-83.5"/>
<polygon fill="#63b8ff" stroke="#63b8ff" points="162.34,-87 172.34,-83.5 162.34,-80 162.34,-87"/>
</a>
</g>
</g>
<!-- Node15 -->
<g id="Node000015" class="node">
<title>Node15</title>
<g id="a_Node000015"><a xlink:href="AP__Math_8h.html#a49ad7fa2fa2e3d8aa75e8e0ec3f83b99" target="_top" xlink:title=" ">
<polygon fill="white" stroke="#666666" points="220.5,-56 167.5,-56 167.5,-37 220.5,-37 220.5,-56"/>
<text text-anchor="middle" x="194" y="-44" font-family="Helvetica,sans-Serif" font-size="10.00">radians</text>
</a>
</g>
</g>
<!-- Node1&#45;&gt;Node15 -->
<g id="edge14_Node000001_Node000015" class="edge">
<title>Node1&#45;&gt;Node15</title>
<g id="a_edge14_Node000001_Node000015"><a xlink:title=" ">
<path fill="none" stroke="#63b8ff" d="M112.32,-68.45C127.55,-64.31 143.67,-59.92 157.46,-56.17"/>
<polygon fill="#63b8ff" stroke="#63b8ff" points="158.77,-59.44 167.5,-53.44 156.93,-52.69 158.77,-59.44"/>
</a>
</g>
</g>
<!-- Node16 -->
<g id="Node000016" class="node">
<title>Node16</title>
<g id="a_Node000016"><a xlink:href="structVector2.html#a90cc8186b17bdcb76aad6a61a0da9f0d" target="_top" xlink:title=" ">
<polygon fill="white" stroke="#666666" points="238.5,-19 149.5,-19 149.5,0 238.5,0 238.5,-19"/>
<text text-anchor="middle" x="194" y="-7" font-family="Helvetica,sans-Serif" font-size="10.00">Vector2::rotate</text>
</a>
</g>
</g>
<!-- Node1&#45;&gt;Node16 -->
<g id="edge15_Node000001_Node000016" class="edge">
<title>Node1&#45;&gt;Node16</title>
<g id="a_edge15_Node000001_Node000016"><a xlink:title=" ">
<path fill="none" stroke="#63b8ff" d="M79.19,-68.35C97.25,-56.4 123.64,-39.75 148,-27.5 151.1,-25.94 154.37,-24.42 157.67,-22.96"/>
<polygon fill="#63b8ff" stroke="#63b8ff" points="159.11,-26.15 166.96,-19.04 156.39,-19.7 159.11,-26.15"/>
</a>
</g>
</g>
<!-- Node3 -->
<g id="Node000003" class="node">
<title>Node3</title>
<g id="a_Node000003"><a xlink:href="hrt_8c.html#a1295f128f60d29874243b5733c4db025" target="_top" xlink:title=" ">
<polygon fill="white" stroke="#666666" points="375.5,-175 301.5,-175 301.5,-156 375.5,-156 375.5,-175"/>
<text text-anchor="middle" x="338.5" y="-163" font-family="Helvetica,sans-Serif" font-size="10.00">hrt_millis32</text>
</a>
</g>
</g>
<!-- Node2&#45;&gt;Node3 -->
<g id="edge2_Node000002_Node000003" class="edge">
<title>Node2&#45;&gt;Node3</title>
<g id="a_edge2_Node000002_Node000003"><a xlink:title=" ">
<path fill="none" stroke="#63b8ff" d="M237.75,-163.4C254.46,-163.75 273.66,-164.16 290.73,-164.52"/>
<polygon fill="#63b8ff" stroke="#63b8ff" points="290.97,-168.02 301.04,-164.73 291.11,-161.02 290.97,-168.02"/>
</a>
</g>
</g>
<!-- Node4 -->
<g id="Node000004" class="node">
<title>Node4</title>
<g id="a_Node000004"><a xlink:href="hrt_8c.html#a7dd7d90aadd8f76f26da7d5abfad6fe8" target="_top" xlink:title=" ">
<polygon fill="white" stroke="#666666" points="543.5,-186 469.5,-186 469.5,-167 543.5,-167 543.5,-186"/>
<text text-anchor="middle" x="506.5" y="-174" font-family="Helvetica,sans-Serif" font-size="10.00">hrt_millis64</text>
</a>
</g>
</g>
<!-- Node3&#45;&gt;Node4 -->
<g id="edge3_Node000003_Node000004" class="edge">
<title>Node3&#45;&gt;Node4</title>
<g id="a_edge3_Node000003_Node000004"><a xlink:title=" ">
<path fill="none" stroke="#63b8ff" d="M375.52,-167.89C400.02,-169.51 432.65,-171.67 459.1,-173.43"/>
<polygon fill="#63b8ff" stroke="#63b8ff" points="459.05,-176.93 469.26,-174.1 459.52,-169.95 459.05,-176.93"/>
</a>
</g>
</g>
<!-- Node5 -->
<g id="Node000005" class="node">
<title>Node5</title>
<g id="a_Node000005"><a xlink:href="hrt_8c.html#a152c3348a8e83f2dfe35b44cc2e30362" target="_top" xlink:title=" ">
<polygon fill="white" stroke="#666666" points="698,-205 618,-205 618,-186 698,-186 698,-205"/>
<text text-anchor="middle" x="658" y="-193" font-family="Helvetica,sans-Serif" font-size="10.00">hrt_micros64</text>
</a>
</g>
</g>
<!-- Node4&#45;&gt;Node5 -->
<g id="edge4_Node000004_Node000005" class="edge">
<title>Node4&#45;&gt;Node5</title>
<g id="a_edge4_Node000004_Node000005"><a xlink:title=" ">
<path fill="none" stroke="#63b8ff" d="M543.69,-181.1C562.92,-183.54 586.85,-186.58 607.75,-189.24"/>
<polygon fill="#63b8ff" stroke="#63b8ff" points="607.37,-192.72 617.74,-190.51 608.26,-185.78 607.37,-192.72"/>
</a>
</g>
</g>
<!-- Node8 -->
<g id="Node000008" class="node">
<title>Node8</title>
<g id="a_Node000008"><a xlink:href="div1000_8h.html#aece9e7f123414c41d0426fbadca097d8" target="_top" xlink:title=" ">
<polygon fill="white" stroke="#666666" points="704,-168 612,-168 612,-149 704,-149 704,-168"/>
<text text-anchor="middle" x="658" y="-156" font-family="Helvetica,sans-Serif" font-size="10.00">uint64_div1000</text>
</a>
</g>
</g>
<!-- Node4&#45;&gt;Node8 -->
<g id="edge7_Node000004_Node000008" class="edge">
<title>Node4&#45;&gt;Node8</title>
<g id="a_edge7_Node000004_Node000008"><a xlink:title=" ">
<path fill="none" stroke="#63b8ff" d="M543.69,-172.14C561.13,-170.04 582.43,-167.48 601.83,-165.14"/>
<polygon fill="#63b8ff" stroke="#63b8ff" points="602.26,-168.62 611.77,-163.95 601.43,-161.67 602.26,-168.62"/>
</a>
</g>
</g>
<!-- Node6 -->
<g id="Node000006" class="node">
<title>Node6</title>
<g id="a_Node000006"><a xlink:href="hrt_8c.html#a5b4ffc7ff86bd5b893c4a98834e80200" target="_top" xlink:title=" ">
<polygon fill="white" stroke="#666666" points="823,-224 740,-224 740,-205 823,-205 823,-224"/>
<text text-anchor="middle" x="781.5" y="-212" font-family="Helvetica,sans-Serif" font-size="10.00">hrt_micros64I</text>
</a>
</g>
</g>
<!-- Node5&#45;&gt;Node6 -->
<g id="edge5_Node000005_Node000006" class="edge">
<title>Node5&#45;&gt;Node6</title>
<g id="a_edge5_Node000005_Node000006"><a xlink:title=" ">
<path fill="none" stroke="#63b8ff" d="M698.11,-201.62C708.21,-203.19 719.22,-204.92 729.81,-206.57"/>
<polygon fill="#63b8ff" stroke="#63b8ff" points="729.37,-210.05 739.79,-208.13 730.45,-203.13 729.37,-210.05"/>
</a>
</g>
</g>
<!-- Node7 -->
<g id="Node000007" class="node">
<title>Node7</title>
<g id="a_Node000007"><a xlink:href="hrt_8c.html#a723fef85be7bacb834af35445a891c18" target="_top" xlink:title=" ">
<polygon fill="white" stroke="#666666" points="812.5,-187 750.5,-187 750.5,-168 812.5,-168 812.5,-187"/>
<text text-anchor="middle" x="781.5" y="-175" font-family="Helvetica,sans-Serif" font-size="10.00">is_locked</text>
</a>
</g>
</g>
<!-- Node5&#45;&gt;Node7 -->
<g id="edge6_Node000005_Node000007" class="edge">
<title>Node5&#45;&gt;Node7</title>
<g id="a_edge6_Node000005_Node000007"><a xlink:title=" ">
<path fill="none" stroke="#63b8ff" d="M698.11,-189.71C711.6,-187.71 726.73,-185.47 740.3,-183.46"/>
<polygon fill="#63b8ff" stroke="#63b8ff" points="740.95,-186.9 750.32,-181.97 739.92,-179.97 740.95,-186.9"/>
</a>
</g>
</g>
<!-- Node10 -->
<g id="Node000010" class="node">
<title>Node10</title>
<g id="a_Node000010"><a xlink:href="classLocation.html#ad9b9772b9d84be174e25a3c35f84702e" target="_top" xlink:title=" ">
<polygon fill="white" stroke="#666666" points="401,-127 276,-127 276,-108 401,-108 401,-127"/>
<text text-anchor="middle" x="338.5" y="-115" font-family="Helvetica,sans-Serif" font-size="10.00">Location::offset_latlng</text>
</a>
</g>
</g>
<!-- Node9&#45;&gt;Node10 -->
<g id="edge9_Node000009_Node000010" class="edge">
<title>Node9&#45;&gt;Node10</title>
<g id="a_edge9_Node000009_Node000010"><a xlink:title=" ">
<path fill="none" stroke="#63b8ff" d="M240.09,-119.55C248.23,-119.38 256.91,-119.2 265.6,-119.01"/>
<polygon fill="#63b8ff" stroke="#63b8ff" points="265.85,-122.51 275.77,-118.8 265.7,-115.51 265.85,-122.51"/>
</a>
</g>
</g>
<!-- Node11 -->
<g id="Node000011" class="node">
<title>Node11</title>
<g id="a_Node000011"><a xlink:href="classLocation.html#a526b1e4735fe7dfcdc3cc9af638d017c" target="_top" xlink:title=" ">
<polygon fill="white" stroke="#666666" points="573,-149 440,-149 440,-130 573,-130 573,-149"/>
<text text-anchor="middle" x="506.5" y="-137" font-family="Helvetica,sans-Serif" font-size="10.00">Location::limit_lattitude</text>
</a>
</g>
</g>
<!-- Node10&#45;&gt;Node11 -->
<g id="edge10_Node000010_Node000011" class="edge">
<title>Node10&#45;&gt;Node11</title>
<g id="a_edge10_Node000010_Node000011"><a xlink:title=" ">
<path fill="none" stroke="#63b8ff" d="M401.31,-125.69C410.52,-126.91 420.1,-128.18 429.55,-129.43"/>
<polygon fill="#63b8ff" stroke="#63b8ff" points="429.37,-132.94 439.74,-130.79 430.29,-126 429.37,-132.94"/>
</a>
</g>
</g>
<!-- Node12 -->
<g id="Node000012" class="node">
<title>Node12</title>
<g id="a_Node000012"><a xlink:href="classLocation.html#ab8844915021178ffc5cb56b19e95ad2c" target="_top" xlink:title=" ">
<polygon fill="white" stroke="#666666" points="561.5,-111.5 451.5,-111.5 451.5,-81.5 561.5,-81.5 561.5,-111.5"/>
<text text-anchor="start" x="459.5" y="-99.5" font-family="Helvetica,sans-Serif" font-size="10.00">Location::longitude</text>
<text text-anchor="middle" x="506.5" y="-88.5" font-family="Helvetica,sans-Serif" font-size="10.00">_scale</text>
</a>
</g>
</g>
<!-- Node10&#45;&gt;Node12 -->
<g id="edge11_Node000010_Node000012" class="edge">
<title>Node10&#45;&gt;Node12</title>
<g id="a_edge11_Node000010_Node000012"><a xlink:title=" ">
<path fill="none" stroke="#63b8ff" d="M401.31,-109.68C414.26,-108.04 427.94,-106.31 440.99,-104.66"/>
<polygon fill="#63b8ff" stroke="#63b8ff" points="441.8,-108.09 451.28,-103.36 440.92,-101.14 441.8,-108.09"/>
</a>
</g>
</g>
<!-- Node13 -->
<g id="Node000013" class="node">
<title>Node13</title>
<g id="a_Node000013"><a xlink:href="classLocation.html#a785b0c592d17ce62f33ca9c8281335c6" target="_top" xlink:title=" ">
<polygon fill="white" stroke="#666666" points="576,-63 437,-63 437,-44 576,-44 576,-63"/>
<text text-anchor="middle" x="506.5" y="-51" font-family="Helvetica,sans-Serif" font-size="10.00">Location::wrap_longitude</text>
</a>
</g>
</g>
<!-- Node10&#45;&gt;Node13 -->
<g id="edge12_Node000010_Node000013" class="edge">
<title>Node10&#45;&gt;Node13</title>
<g id="a_edge12_Node000010_Node000013"><a xlink:title=" ">
<path fill="none" stroke="#63b8ff" d="M357.81,-107.96C377.13,-98.16 408.64,-82.9 437,-72.5 443.38,-70.16 450.19,-67.95 456.95,-65.91"/>
<polygon fill="#63b8ff" stroke="#63b8ff" points="458.12,-69.22 466.75,-63.07 456.17,-62.49 458.12,-69.22"/>
</a>
</g>
</g>
</g>
</svg>
