<?xml version="1.0" encoding="UTF-8" standalone="no"?>
<!DOCTYPE svg PUBLIC "-//W3C//DTD SVG 1.1//EN"
 "http://www.w3.org/Graphics/SVG/1.1/DTD/svg11.dtd">
<!-- Generated by graphviz version 2.43.0 (0)
 -->
<!-- Title: CompassLearn Pages: 1 -->
<svg width="1031pt" height="393pt"
 viewBox="0.00 0.00 1031.00 392.50" xmlns="http://www.w3.org/2000/svg" xmlns:xlink="http://www.w3.org/1999/xlink">
<g id="graph0" class="graph" transform="scale(1 1) rotate(0) translate(4 388.5)">
<title>CompassLearn</title>
<!-- Node1 -->
<g id="Node000001" class="node">
<title>Node1</title>
<g id="a_Node000001"><a xlink:title=" ">
<polygon fill="#999999" stroke="#666666" points="549,-266.5 460,-266.5 460,-247.5 549,-247.5 549,-266.5"/>
<text text-anchor="middle" x="504.5" y="-254.5" font-family="Helvetica,sans-Serif" font-size="10.00">CompassLearn</text>
</a>
</g>
</g>
<!-- Node2 -->
<g id="Node000002" class="node">
<title>Node2</title>
<g id="a_Node000002"><a xlink:href="classCompass.html" target="_top" xlink:title=" ">
<polygon fill="white" stroke="#666666" points="802,-198.5 740,-198.5 740,-179.5 802,-179.5 802,-198.5"/>
<text text-anchor="middle" x="771" y="-186.5" font-family="Helvetica,sans-Serif" font-size="10.00">Compass</text>
</a>
</g>
</g>
<!-- Node1&#45;&gt;Node2 -->
<g id="edge17_Node000002_Node000001" class="edge">
<title>Node1&#45;&gt;Node2</title>
<g id="a_edge17_Node000002_Node000001"><a xlink:title=" ">
<path fill="none" stroke="#9a32cd" stroke-dasharray="5,2" d="M558.83,-247.57C567.18,-245.07 575.51,-241.93 583,-238 592.48,-233.02 591.36,-226.65 601,-222 650.17,-198.3 668.6,-212.29 722,-201 727.8,-199.77 733.96,-198.34 739.86,-196.89"/>
<polygon fill="#9a32cd" stroke="#9a32cd" points="557.82,-244.22 549.09,-250.22 559.65,-250.98 557.82,-244.22"/>
</a>
</g>
<text text-anchor="middle" x="661.5" y="-225" font-family="Helvetica,sans-Serif" font-size="10.00" fill="grey"> learn</text>
</g>
<!-- Node2&#45;&gt;Node1 -->
<g id="edge1_Node000001_Node000002" class="edge">
<title>Node2&#45;&gt;Node1</title>
<g id="a_edge1_Node000001_Node000002"><a xlink:title=" ">
<path fill="none" stroke="#9a32cd" stroke-dasharray="5,2" d="M756.71,-206.6C748.02,-216.72 735.75,-228.65 722,-235 666.44,-260.66 594.5,-262.66 549.16,-260.66"/>
<polygon fill="#9a32cd" stroke="#9a32cd" points="759.55,-208.66 763.12,-198.69 754.11,-204.25 759.55,-208.66"/>
</a>
</g>
<text text-anchor="middle" x="661.5" y="-263" font-family="Helvetica,sans-Serif" font-size="10.00" fill="grey"> compass</text>
</g>
<!-- Node2&#45;&gt;Node2 -->
<g id="edge4_Node000002_Node000002" class="edge">
<title>Node2&#45;&gt;Node2</title>
<g id="a_edge4_Node000002_Node000002"><a xlink:title=" ">
<path fill="none" stroke="#9a32cd" stroke-dasharray="5,2" d="M756.64,-208.41C757.76,-213.06 762.55,-216.5 771,-216.5 784.86,-216.5 788.87,-207.23 783.02,-198.58"/>
<polygon fill="#9a32cd" stroke="#9a32cd" points="760.06,-209.12 758.98,-198.58 753.26,-207.5 760.06,-209.12"/>
</a>
</g>
<text text-anchor="middle" x="771" y="-219.5" font-family="Helvetica,sans-Serif" font-size="10.00" fill="grey"> _singleton</text>
</g>
<!-- Node4 -->
<g id="Node000004" class="node">
<title>Node4</title>
<g id="a_Node000004"><a xlink:href="classAP__Compass__Backend.html" target="_top" xlink:title=" ">
<polygon fill="white" stroke="#666666" points="1023,-211.5 897,-211.5 897,-192.5 1023,-192.5 1023,-211.5"/>
<text text-anchor="middle" x="960" y="-199.5" font-family="Helvetica,sans-Serif" font-size="10.00">AP_Compass_Backend</text>
</a>
</g>
</g>
<!-- Node2&#45;&gt;Node4 -->
<g id="edge6_Node000004_Node000002" class="edge">
<title>Node2&#45;&gt;Node4</title>
<g id="a_edge6_Node000004_Node000002"><a xlink:title=" ">
<path fill="none" stroke="#9a32cd" stroke-dasharray="5,2" d="M812.23,-196.09C814.86,-196.44 817.46,-196.74 820,-197 845.11,-199.53 872.88,-200.83 896.95,-201.48"/>
<polygon fill="#9a32cd" stroke="#9a32cd" points="812.53,-192.6 802.13,-194.63 811.53,-199.53 812.53,-192.6"/>
</a>
</g>
<text text-anchor="middle" x="849.5" y="-203" font-family="Helvetica,sans-Serif" font-size="10.00" fill="grey"> _compass</text>
</g>
<!-- Node11 -->
<g id="Node000011" class="node">
<title>Node11</title>
<g id="a_Node000011"><a xlink:href="classCompass__PerMotor.html" target="_top" xlink:title=" ">
<polygon fill="white" stroke="#666666" points="1015.5,-64.5 904.5,-64.5 904.5,-45.5 1015.5,-45.5 1015.5,-64.5"/>
<text text-anchor="middle" x="960" y="-52.5" font-family="Helvetica,sans-Serif" font-size="10.00">Compass_PerMotor</text>
</a>
</g>
</g>
<!-- Node2&#45;&gt;Node11 -->
<g id="edge15_Node000011_Node000002" class="edge">
<title>Node2&#45;&gt;Node11</title>
<g id="a_edge15_Node000011_Node000002"><a xlink:title=" ">
<path fill="none" stroke="#9a32cd" stroke-dasharray="5,2" d="M796.68,-174.16C818.7,-160.66 851.6,-139.87 879,-120 904.5,-101.51 932.75,-77.72 947.91,-64.66"/>
<polygon fill="#9a32cd" stroke="#9a32cd" points="794.67,-171.28 787.95,-179.47 798.31,-177.26 794.67,-171.28"/>
</a>
</g>
<text text-anchor="middle" x="849.5" y="-162" font-family="Helvetica,sans-Serif" font-size="10.00" fill="grey"> compass</text>
</g>
<!-- Node3 -->
<g id="Node000003" class="node">
<title>Node3</title>
<g id="a_Node000003"><a xlink:href="structAP__Param_1_1GroupInfo.html" target="_top" xlink:title=" ">
<polygon fill="white" stroke="#666666" points="564,-59.5 445,-59.5 445,-40.5 564,-40.5 564,-59.5"/>
<text text-anchor="middle" x="504.5" y="-47.5" font-family="Helvetica,sans-Serif" font-size="10.00">AP_Param::GroupInfo</text>
</a>
</g>
</g>
<!-- Node3&#45;&gt;Node2 -->
<g id="edge2_Node000002_Node000003" class="edge">
<title>Node3&#45;&gt;Node2</title>
<g id="a_edge2_Node000002_Node000003"><a xlink:title=" ">
<path fill="none" stroke="#9a32cd" stroke-dasharray="5,2" d="M555.1,-62.27C601.2,-75.26 670.32,-98.95 722,-135 739.69,-147.34 755.28,-167.48 763.6,-179.36"/>
<polygon fill="#9a32cd" stroke="#9a32cd" points="555.91,-58.86 545.34,-59.58 554.06,-65.61 555.91,-58.86"/>
</a>
</g>
<text text-anchor="middle" x="661.5" y="-138" font-family="Helvetica,sans-Serif" font-size="10.00" fill="grey"> var_info</text>
</g>
<!-- Node3&#45;&gt;Node3 -->
<g id="edge3_Node000003_Node000003" class="edge">
<title>Node3&#45;&gt;Node3</title>
<g id="a_edge3_Node000003_Node000003"><a xlink:title=" ">
<path fill="none" stroke="#9a32cd" stroke-dasharray="5,2" d="M479.95,-68.69C481.29,-73.7 489.47,-77.5 504.5,-77.5 527.96,-77.5 534.74,-68.23 524.85,-59.58"/>
<polygon fill="#9a32cd" stroke="#9a32cd" points="483.14,-70.13 484.15,-59.58 476.78,-67.19 483.14,-70.13"/>
</a>
</g>
<text text-anchor="middle" x="504.5" y="-91.5" font-family="Helvetica,sans-Serif" font-size="10.00" fill="grey"> group_info</text>
<text text-anchor="middle" x="504.5" y="-80.5" font-family="Helvetica,sans-Serif" font-size="10.00" fill="grey">group_info_ptr</text>
</g>
<!-- Node3&#45;&gt;Node11 -->
<g id="edge14_Node000011_Node000003" class="edge">
<title>Node3&#45;&gt;Node11</title>
<g id="a_edge14_Node000011_Node000003"><a xlink:title=" ">
<path fill="none" stroke="#9a32cd" stroke-dasharray="5,2" d="M574.47,-50.76C664.82,-51.76 821.46,-53.48 904.18,-54.4"/>
<polygon fill="#9a32cd" stroke="#9a32cd" points="574.36,-47.26 564.32,-50.65 574.28,-54.26 574.36,-47.26"/>
</a>
</g>
<text text-anchor="middle" x="771" y="-57" font-family="Helvetica,sans-Serif" font-size="10.00" fill="grey"> var_info</text>
</g>
<!-- Node4&#45;&gt;Node2 -->
<g id="edge5_Node000002_Node000004" class="edge">
<title>Node4&#45;&gt;Node2</title>
<g id="a_edge5_Node000002_Node000004"><a xlink:title=" ">
<path fill="none" stroke="#9a32cd" stroke-dasharray="5,2" d="M909.51,-190.52C899.47,-188.64 888.94,-186.98 879,-186 852.91,-183.42 846.21,-185.18 820,-186 814.24,-186.18 808.1,-186.48 802.2,-186.82"/>
<polygon fill="#9a32cd" stroke="#9a32cd" points="908.87,-193.96 919.35,-192.46 910.22,-187.09 908.87,-193.96"/>
</a>
</g>
<text text-anchor="middle" x="849.5" y="-189" font-family="Helvetica,sans-Serif" font-size="10.00" fill="grey"> _backends</text>
</g>
<!-- Node5 -->
<g id="Node000005" class="node">
<title>Node5</title>
<g id="a_Node000005"><a xlink:href="classRestrictIDTypeArray.html" target="_top" xlink:title=" ">
<polygon fill="white" stroke="#666666" points="582,-229 427,-229 427,-177 582,-177 582,-229"/>
<text text-anchor="start" x="435" y="-217" font-family="Helvetica,sans-Serif" font-size="10.00">RestrictIDTypeArray</text>
<text text-anchor="start" x="435" y="-206" font-family="Helvetica,sans-Serif" font-size="10.00">&lt; Compass::mag_state,</text>
<text text-anchor="start" x="435" y="-195" font-family="Helvetica,sans-Serif" font-size="10.00"> COMPASS_MAX_INSTANCES</text>
<text text-anchor="middle" x="504.5" y="-184" font-family="Helvetica,sans-Serif" font-size="10.00">+1, StateIndex &gt;</text>
</a>
</g>
</g>
<!-- Node5&#45;&gt;Node2 -->
<g id="edge7_Node000002_Node000005" class="edge">
<title>Node5&#45;&gt;Node2</title>
<g id="a_edge7_Node000002_Node000005"><a xlink:title=" ">
<path fill="none" stroke="#9a32cd" stroke-dasharray="5,2" d="M592.2,-190.7C595.16,-190.44 598.11,-190.2 601,-190 649.44,-186.57 705.88,-187.16 739.73,-188"/>
<polygon fill="#9a32cd" stroke="#9a32cd" points="591.65,-187.24 582.03,-191.7 592.33,-194.21 591.65,-187.24"/>
</a>
</g>
<text text-anchor="middle" x="661.5" y="-193" font-family="Helvetica,sans-Serif" font-size="10.00" fill="grey"> _state</text>
</g>
<!-- Node6 -->
<g id="Node000006" class="node">
<title>Node6</title>
<g id="a_Node000006"><a xlink:href="structCompass_1_1mag__state.html" target="_top" xlink:title=" ">
<polygon fill="white" stroke="#666666" points="316,-129.5 197,-129.5 197,-110.5 316,-110.5 316,-129.5"/>
<text text-anchor="middle" x="256.5" y="-117.5" font-family="Helvetica,sans-Serif" font-size="10.00">Compass::mag_state</text>
</a>
</g>
</g>
<!-- Node6&#45;&gt;Node5 -->
<g id="edge8_Node000005_Node000006" class="edge">
<title>Node6&#45;&gt;Node5</title>
<g id="a_edge8_Node000005_Node000006"><a xlink:title=" ">
<path fill="none" stroke="#9a32cd" stroke-dasharray="5,2" d="M295.51,-132.83C330.43,-144.61 383.24,-162.42 426.9,-177.16"/>
<polygon fill="#9a32cd" stroke="#9a32cd" points="296.31,-129.4 285.72,-129.52 294.08,-136.03 296.31,-129.4"/>
</a>
</g>
<text text-anchor="middle" x="371" y="-171" font-family="Helvetica,sans-Serif" font-size="10.00" fill="grey"> _priv_instance</text>
</g>
<!-- Node7 -->
<g id="Node000007" class="node">
<title>Node7</title>
<g id="a_Node000007"><a xlink:href="classVector3.html" target="_top" xlink:title=" ">
<polygon fill="white" stroke="#666666" points="98,-25.5 0,-25.5 0,-6.5 98,-6.5 98,-25.5"/>
<text text-anchor="middle" x="49" y="-13.5" font-family="Helvetica,sans-Serif" font-size="10.00">Vector3&lt; float &gt;</text>
</a>
</g>
</g>
<!-- Node7&#45;&gt;Node6 -->
<g id="edge9_Node000006_Node000007" class="edge">
<title>Node7&#45;&gt;Node6</title>
<g id="a_edge9_Node000006_Node000007"><a xlink:title=" ">
<path fill="none" stroke="#9a32cd" stroke-dasharray="5,2" d="M77.93,-30.14C120.43,-51.64 200.22,-92.02 236.58,-110.43"/>
<polygon fill="#9a32cd" stroke="#9a32cd" points="79.47,-26.99 68.96,-25.6 76.31,-33.24 79.47,-26.99"/>
</a>
</g>
<text text-anchor="middle" x="147.5" y="-106" font-family="Helvetica,sans-Serif" font-size="10.00" fill="grey"> accum</text>
<text text-anchor="middle" x="147.5" y="-95" font-family="Helvetica,sans-Serif" font-size="10.00" fill="grey">field</text>
<text text-anchor="middle" x="147.5" y="-84" font-family="Helvetica,sans-Serif" font-size="10.00" fill="grey">motor_offset</text>
</g>
<!-- Node7&#45;&gt;Node11 -->
<g id="edge16_Node000011_Node000007" class="edge">
<title>Node7&#45;&gt;Node11</title>
<g id="a_edge16_Node000011_Node000007"><a xlink:title=" ">
<path fill="none" stroke="#9a32cd" stroke-dasharray="5,2" d="M108.19,-9.05C149.28,-4.73 205.69,0 255.5,0 255.5,0 255.5,0 772,0 835.62,0 906.65,-29.66 939.89,-45.42"/>
<polygon fill="#9a32cd" stroke="#9a32cd" points="107.65,-5.58 98.08,-10.13 108.4,-12.54 107.65,-5.58"/>
</a>
</g>
<text text-anchor="middle" x="504.5" y="-14" font-family="Helvetica,sans-Serif" font-size="10.00" fill="grey"> base_field</text>
<text text-anchor="middle" x="504.5" y="-3" font-family="Helvetica,sans-Serif" font-size="10.00" fill="grey">field_sum</text>
</g>
<!-- Node8 -->
<g id="Node000008" class="node">
<title>Node8</title>
<g id="a_Node000008"><a xlink:href="classRestrictIDTypeArray.html" target="_top" xlink:title=" ">
<polygon fill="white" stroke="#666666" points="577.5,-158.5 431.5,-158.5 431.5,-117.5 577.5,-117.5 577.5,-158.5"/>
<text text-anchor="start" x="439.5" y="-146.5" font-family="Helvetica,sans-Serif" font-size="10.00">RestrictIDTypeArray</text>
<text text-anchor="start" x="439.5" y="-135.5" font-family="Helvetica,sans-Serif" font-size="10.00">&lt; AP_Int8, COMPASS_MAX</text>
<text text-anchor="middle" x="504.5" y="-124.5" font-family="Helvetica,sans-Serif" font-size="10.00">_INSTANCES, Priority &gt;</text>
</a>
</g>
</g>
<!-- Node8&#45;&gt;Node2 -->
<g id="edge10_Node000002_Node000008" class="edge">
<title>Node8&#45;&gt;Node2</title>
<g id="a_edge10_Node000002_Node000008"><a xlink:title=" ">
<path fill="none" stroke="#9a32cd" stroke-dasharray="5,2" d="M587.99,-147.31C628.69,-152.83 678.31,-160.93 722,-172 729.88,-174 738.3,-176.75 745.85,-179.47"/>
<polygon fill="#9a32cd" stroke="#9a32cd" points="588.22,-143.81 577.85,-145.97 587.3,-150.75 588.22,-143.81"/>
</a>
</g>
<text text-anchor="middle" x="661.5" y="-175" font-family="Helvetica,sans-Serif" font-size="10.00" fill="grey"> _use_for_yaw</text>
</g>
<!-- Node9 -->
<g id="Node000009" class="node">
<title>Node9</title>
<g id="a_Node000009"><a xlink:href="classRestrictIDTypeArray.html" target="_top" xlink:title=" ">
<polygon fill="white" stroke="#666666" points="583,-384.5 426,-384.5 426,-343.5 583,-343.5 583,-384.5"/>
<text text-anchor="start" x="434" y="-372.5" font-family="Helvetica,sans-Serif" font-size="10.00">RestrictIDTypeArray</text>
<text text-anchor="start" x="434" y="-361.5" font-family="Helvetica,sans-Serif" font-size="10.00">&lt; AP_Int32, COMPASS</text>
<text text-anchor="middle" x="504.5" y="-350.5" font-family="Helvetica,sans-Serif" font-size="10.00">_MAX_INSTANCES, Priority &gt;</text>
</a>
</g>
</g>
<!-- Node9&#45;&gt;Node2 -->
<g id="edge11_Node000002_Node000009" class="edge">
<title>Node9&#45;&gt;Node2</title>
<g id="a_edge11_Node000002_Node000009"><a xlink:title=" ">
<path fill="none" stroke="#9a32cd" stroke-dasharray="5,2" d="M593.46,-367.38C636.67,-364.55 686.86,-353.96 722,-324 761,-290.76 768.31,-223.6 769.68,-198.63"/>
<polygon fill="#9a32cd" stroke="#9a32cd" points="593.01,-363.9 583.21,-367.92 593.38,-370.89 593.01,-363.9"/>
</a>
</g>
<text text-anchor="middle" x="661.5" y="-369" font-family="Helvetica,sans-Serif" font-size="10.00" fill="grey"> _priority_did_stored_list</text>
</g>
<!-- Node10 -->
<g id="Node000010" class="node">
<title>Node10</title>
<g id="a_Node000010"><a xlink:href="classRestrictIDTypeArray.html" target="_top" xlink:title=" ">
<polygon fill="white" stroke="#666666" points="576,-325.5 433,-325.5 433,-284.5 576,-284.5 576,-325.5"/>
<text text-anchor="start" x="441" y="-313.5" font-family="Helvetica,sans-Serif" font-size="10.00">RestrictIDTypeArray</text>
<text text-anchor="start" x="441" y="-302.5" font-family="Helvetica,sans-Serif" font-size="10.00">&lt; int32_t, COMPASS_MAX</text>
<text text-anchor="middle" x="504.5" y="-291.5" font-family="Helvetica,sans-Serif" font-size="10.00">_INSTANCES, Priority &gt;</text>
</a>
</g>
</g>
<!-- Node10&#45;&gt;Node2 -->
<g id="edge12_Node000002_Node000010" class="edge">
<title>Node10&#45;&gt;Node2</title>
<g id="a_edge12_Node000002_Node000010"><a xlink:title=" ">
<path fill="none" stroke="#9a32cd" stroke-dasharray="5,2" d="M586.06,-310.52C629.71,-309.64 682.62,-301.92 722,-275 749.24,-256.37 762.69,-216.95 767.66,-198.68"/>
<polygon fill="#9a32cd" stroke="#9a32cd" points="586,-307.02 576.03,-310.61 586.06,-314.02 586,-307.02"/>
</a>
</g>
<text text-anchor="middle" x="661.5" y="-312" font-family="Helvetica,sans-Serif" font-size="10.00" fill="grey"> _priority_did_list</text>
</g>
<!-- Node11&#45;&gt;Node2 -->
<g id="edge13_Node000002_Node000011" class="edge">
<title>Node11&#45;&gt;Node2</title>
<g id="a_edge13_Node000002_Node000011"><a xlink:title=" ">
<path fill="none" stroke="#9a32cd" stroke-dasharray="5,2" d="M903.87,-67.34C876.38,-75.61 843.97,-88.79 820,-109 796.6,-128.73 781.59,-162.93 775.33,-179.48"/>
<polygon fill="#9a32cd" stroke="#9a32cd" points="905.1,-70.63 913.75,-64.51 903.17,-63.9 905.1,-70.63"/>
</a>
</g>
<text text-anchor="middle" x="849.5" y="-112" font-family="Helvetica,sans-Serif" font-size="10.00" fill="grey"> _per_motor</text>
</g>
</g>
</svg>
