<?xml version="1.0" encoding="UTF-8" standalone="no"?>
<!DOCTYPE svg PUBLIC "-//W3C//DTD SVG 1.1//EN"
 "http://www.w3.org/Graphics/SVG/1.1/DTD/svg11.dtd">
<!-- Generated by graphviz version 2.43.0 (0)
 -->
<!-- Title: SoaringController::get_target Pages: 1 -->
<svg width="612pt" height="181pt"
 viewBox="0.00 0.00 612.00 181.00" xmlns="http://www.w3.org/2000/svg" xmlns:xlink="http://www.w3.org/1999/xlink">
<g id="graph0" class="graph" transform="scale(1 1) rotate(0) translate(4 177)">
<title>SoaringController::get_target</title>
<!-- Node1 -->
<g id="Node000001" class="node">
<title>Node1</title>
<g id="a_Node000001"><a xlink:title=" ">
<polygon fill="#999999" stroke="#666666" points="107,-122.5 0,-122.5 0,-92.5 107,-92.5 107,-122.5"/>
<text text-anchor="start" x="8" y="-110.5" font-family="Helvetica,sans-Serif" font-size="10.00">SoaringController::</text>
<text text-anchor="middle" x="53.5" y="-99.5" font-family="Helvetica,sans-Serif" font-size="10.00">get_target</text>
</a>
</g>
</g>
<!-- Node2 -->
<g id="Node000002" class="node">
<title>Node2</title>
<g id="a_Node000002"><a xlink:href="namespaceAP.html#a99432cfdb696952c9b7146f155a815aa" target="_top" xlink:title=" ">
<polygon fill="white" stroke="#666666" points="229,-173 173,-173 173,-154 229,-154 229,-173"/>
<text text-anchor="middle" x="201" y="-161" font-family="Helvetica,sans-Serif" font-size="10.00">AP::ahrs</text>
</a>
</g>
</g>
<!-- Node1&#45;&gt;Node2 -->
<g id="edge1_Node000001_Node000002" class="edge">
<title>Node1&#45;&gt;Node2</title>
<g id="a_edge1_Node000001_Node000002"><a xlink:title=" ">
<path fill="none" stroke="#63b8ff" d="M87.38,-122.55C103.91,-129.87 124.35,-138.57 143,-145.5 149.47,-147.9 156.43,-150.27 163.18,-152.47"/>
<polygon fill="#63b8ff" stroke="#63b8ff" points="162.26,-155.84 172.85,-155.53 164.37,-149.17 162.26,-155.84"/>
</a>
</g>
</g>
<!-- Node4 -->
<g id="Node000004" class="node">
<title>Node4</title>
<g id="a_Node000004"><a xlink:href="classLowPassFilter.html#a34bc75aa770bc6cc0facee3b43a05bec" target="_top" xlink:title=" ">
<polygon fill="white" stroke="#666666" points="253,-136 149,-136 149,-117 253,-117 253,-136"/>
<text text-anchor="middle" x="201" y="-124" font-family="Helvetica,sans-Serif" font-size="10.00">LowPassFilter::get</text>
</a>
</g>
</g>
<!-- Node1&#45;&gt;Node4 -->
<g id="edge3_Node000001_Node000004" class="edge">
<title>Node1&#45;&gt;Node4</title>
<g id="a_edge3_Node000001_Node000004"><a xlink:title=" ">
<path fill="none" stroke="#63b8ff" d="M107.03,-114.36C117.27,-115.7 128.09,-117.11 138.59,-118.48"/>
<polygon fill="#63b8ff" stroke="#63b8ff" points="138.15,-121.95 148.52,-119.78 139.06,-115.01 138.15,-121.95"/>
</a>
</g>
</g>
<!-- Node5 -->
<g id="Node000005" class="node">
<title>Node5</title>
<g id="a_Node000005"><a xlink:href="classAP__AHRS.html#a8c6d86329f149416dd092d873345bc7f" target="_top" xlink:title=" ">
<polygon fill="white" stroke="#666666" points="259,-99 143,-99 143,-80 259,-80 259,-99"/>
<text text-anchor="middle" x="201" y="-87" font-family="Helvetica,sans-Serif" font-size="10.00">AP_AHRS::get_home</text>
</a>
</g>
</g>
<!-- Node1&#45;&gt;Node5 -->
<g id="edge4_Node000001_Node000005" class="edge">
<title>Node1&#45;&gt;Node5</title>
<g id="a_edge4_Node000001_Node000005"><a xlink:title=" ">
<path fill="none" stroke="#63b8ff" d="M107.03,-101C115.34,-99.97 124.03,-98.9 132.62,-97.84"/>
<polygon fill="#63b8ff" stroke="#63b8ff" points="133.13,-101.3 142.63,-96.6 132.27,-94.35 133.13,-101.3"/>
</a>
</g>
</g>
<!-- Node6 -->
<g id="Node000006" class="node">
<title>Node6</title>
<g id="a_Node000006"><a xlink:href="classLocation.html#a146775eb07ce9abcc8d05f1b730404b0" target="_top" xlink:title=" ">
<polygon fill="white" stroke="#666666" points="247,-62 155,-62 155,-43 247,-43 247,-62"/>
<text text-anchor="middle" x="201" y="-50" font-family="Helvetica,sans-Serif" font-size="10.00">Location::offset</text>
</a>
</g>
</g>
<!-- Node1&#45;&gt;Node6 -->
<g id="edge5_Node000001_Node000006" class="edge">
<title>Node1&#45;&gt;Node6</title>
<g id="a_edge5_Node000001_Node000006"><a xlink:title=" ">
<path fill="none" stroke="#63b8ff" d="M90.04,-92.43C106.12,-85.77 125.42,-78 143,-71.5 148.64,-69.41 154.63,-67.31 160.53,-65.29"/>
<polygon fill="#63b8ff" stroke="#63b8ff" points="161.93,-68.51 170.29,-62 159.7,-61.88 161.93,-68.51"/>
</a>
</g>
</g>
<!-- Node3 -->
<g id="Node000003" class="node">
<title>Node3</title>
<g id="a_Node000003"><a xlink:href="classAP__AHRS.html#af481888f56602f793fc8d9895d14a8c9" target="_top" xlink:title=" ">
<polygon fill="white" stroke="#666666" points="429,-173 295,-173 295,-154 429,-154 429,-173"/>
<text text-anchor="middle" x="362" y="-161" font-family="Helvetica,sans-Serif" font-size="10.00">AP_AHRS::get_singleton</text>
</a>
</g>
</g>
<!-- Node2&#45;&gt;Node3 -->
<g id="edge2_Node000002_Node000003" class="edge">
<title>Node2&#45;&gt;Node3</title>
<g id="a_edge2_Node000002_Node000003"><a xlink:title=" ">
<path fill="none" stroke="#63b8ff" d="M229.33,-163.5C244.75,-163.5 264.86,-163.5 284.7,-163.5"/>
<polygon fill="#63b8ff" stroke="#63b8ff" points="284.71,-167 294.71,-163.5 284.71,-160 284.71,-167"/>
</a>
</g>
</g>
<!-- Node7 -->
<g id="Node000007" class="node">
<title>Node7</title>
<g id="a_Node000007"><a xlink:href="classLocation.html#ad9b9772b9d84be174e25a3c35f84702e" target="_top" xlink:title=" ">
<polygon fill="white" stroke="#666666" points="424.5,-62 299.5,-62 299.5,-43 424.5,-43 424.5,-62"/>
<text text-anchor="middle" x="362" y="-50" font-family="Helvetica,sans-Serif" font-size="10.00">Location::offset_latlng</text>
</a>
</g>
</g>
<!-- Node6&#45;&gt;Node7 -->
<g id="edge6_Node000006_Node000007" class="edge">
<title>Node6&#45;&gt;Node7</title>
<g id="a_edge6_Node000006_Node000007"><a xlink:title=" ">
<path fill="none" stroke="#63b8ff" d="M247.14,-52.5C260.21,-52.5 274.83,-52.5 289.11,-52.5"/>
<polygon fill="#63b8ff" stroke="#63b8ff" points="289.42,-56 299.42,-52.5 289.42,-49 289.42,-56"/>
</a>
</g>
</g>
<!-- Node8 -->
<g id="Node000008" class="node">
<title>Node8</title>
<g id="a_Node000008"><a xlink:href="classLocation.html#a526b1e4735fe7dfcdc3cc9af638d017c" target="_top" xlink:title=" ">
<polygon fill="white" stroke="#666666" points="601,-105 468,-105 468,-86 601,-86 601,-105"/>
<text text-anchor="middle" x="534.5" y="-93" font-family="Helvetica,sans-Serif" font-size="10.00">Location::limit_lattitude</text>
</a>
</g>
</g>
<!-- Node7&#45;&gt;Node8 -->
<g id="edge7_Node000007_Node000008" class="edge">
<title>Node7&#45;&gt;Node8</title>
<g id="a_edge7_Node000007_Node000008"><a xlink:title=" ">
<path fill="none" stroke="#63b8ff" d="M400.84,-62.04C425.89,-68.36 458.96,-76.7 485.81,-83.47"/>
<polygon fill="#63b8ff" stroke="#63b8ff" points="485.21,-86.93 495.77,-85.98 486.93,-80.14 485.21,-86.93"/>
</a>
</g>
</g>
<!-- Node9 -->
<g id="Node000009" class="node">
<title>Node9</title>
<g id="a_Node000009"><a xlink:href="classLocation.html#ab8844915021178ffc5cb56b19e95ad2c" target="_top" xlink:title=" ">
<polygon fill="white" stroke="#666666" points="589.5,-67.5 479.5,-67.5 479.5,-37.5 589.5,-37.5 589.5,-67.5"/>
<text text-anchor="start" x="487.5" y="-55.5" font-family="Helvetica,sans-Serif" font-size="10.00">Location::longitude</text>
<text text-anchor="middle" x="534.5" y="-44.5" font-family="Helvetica,sans-Serif" font-size="10.00">_scale</text>
</a>
</g>
</g>
<!-- Node7&#45;&gt;Node9 -->
<g id="edge8_Node000007_Node000009" class="edge">
<title>Node7&#45;&gt;Node9</title>
<g id="a_edge8_Node000007_Node000009"><a xlink:title=" ">
<path fill="none" stroke="#63b8ff" d="M424.55,-52.5C438.98,-52.5 454.4,-52.5 468.96,-52.5"/>
<polygon fill="#63b8ff" stroke="#63b8ff" points="469.38,-56 479.38,-52.5 469.38,-49 469.38,-56"/>
</a>
</g>
</g>
<!-- Node10 -->
<g id="Node000010" class="node">
<title>Node10</title>
<g id="a_Node000010"><a xlink:href="classLocation.html#a785b0c592d17ce62f33ca9c8281335c6" target="_top" xlink:title=" ">
<polygon fill="white" stroke="#666666" points="604,-19 465,-19 465,0 604,0 604,-19"/>
<text text-anchor="middle" x="534.5" y="-7" font-family="Helvetica,sans-Serif" font-size="10.00">Location::wrap_longitude</text>
</a>
</g>
</g>
<!-- Node7&#45;&gt;Node10 -->
<g id="edge9_Node000007_Node000010" class="edge">
<title>Node7&#45;&gt;Node10</title>
<g id="a_edge9_Node000007_Node000010"><a xlink:title=" ">
<path fill="none" stroke="#63b8ff" d="M400.84,-42.96C425.89,-36.64 458.96,-28.3 485.81,-21.53"/>
<polygon fill="#63b8ff" stroke="#63b8ff" points="486.93,-24.86 495.77,-19.02 485.21,-18.07 486.93,-24.86"/>
</a>
</g>
</g>
</g>
</svg>
