<?xml version="1.0" encoding="UTF-8" standalone="no"?>
<!DOCTYPE svg PUBLIC "-//W3C//DTD SVG 1.1//EN"
 "http://www.w3.org/Graphics/SVG/1.1/DTD/svg11.dtd">
<!-- Generated by graphviz version 2.43.0 (0)
 -->
<!-- Title: AP_Button::setup_pins Pages: 1 -->
<svg width="634pt" height="200pt"
 viewBox="0.00 0.00 634.00 199.50" xmlns="http://www.w3.org/2000/svg" xmlns:xlink="http://www.w3.org/1999/xlink">
<g id="graph0" class="graph" transform="scale(1 1) rotate(0) translate(4 195.5)">
<title>AP_Button::setup_pins</title>
<!-- Node1 -->
<g id="Node000001" class="node">
<title>Node1</title>
<g id="a_Node000001"><a xlink:title=" ">
<polygon fill="#999999" stroke="#666666" points="125,-131.5 0,-131.5 0,-112.5 125,-112.5 125,-131.5"/>
<text text-anchor="middle" x="62.5" y="-119.5" font-family="Helvetica,sans-Serif" font-size="10.00">AP_Button::setup_pins</text>
</a>
</g>
</g>
<!-- Node2 -->
<g id="Node000002" class="node">
<title>Node2</title>
<g id="a_Node000002"><a xlink:href="classAP__Button.html#a09d1c93bd87f5d2fbfc99023e607c848" target="_top" xlink:title=" ">
<polygon fill="white" stroke="#666666" points="301,-191.5 161,-191.5 161,-172.5 301,-172.5 301,-191.5"/>
<text text-anchor="middle" x="231" y="-179.5" font-family="Helvetica,sans-Serif" font-size="10.00">AP_Button::is_pwm_input</text>
</a>
</g>
</g>
<!-- Node1&#45;&gt;Node2 -->
<g id="edge1_Node000001_Node000002" class="edge">
<title>Node1&#45;&gt;Node2</title>
<g id="a_edge1_Node000001_Node000002"><a xlink:title=" ">
<path fill="none" stroke="#63b8ff" d="M89.11,-131.61C108.75,-138.94 136.54,-149.23 161,-158 171.22,-161.67 182.33,-165.56 192.58,-169.13"/>
<polygon fill="#63b8ff" stroke="#63b8ff" points="191.5,-172.46 202.09,-172.43 193.79,-165.84 191.5,-172.46"/>
</a>
</g>
</g>
<!-- Node3 -->
<g id="Node000003" class="node">
<title>Node3</title>
<g id="a_Node000003"><a xlink:href="classAP__HAL_1_1GPIO.html#a3dfc60214bd1aa4936d51ca72c045b95" target="_top" xlink:title=" ">
<polygon fill="white" stroke="#666666" points="469,-153.5 337,-153.5 337,-134.5 469,-134.5 469,-153.5"/>
<text text-anchor="middle" x="403" y="-141.5" font-family="Helvetica,sans-Serif" font-size="10.00">AP_HAL::GPIO::pinMode</text>
</a>
</g>
</g>
<!-- Node1&#45;&gt;Node3 -->
<g id="edge2_Node000001_Node000003" class="edge">
<title>Node1&#45;&gt;Node3</title>
<g id="a_edge2_Node000001_Node000003"><a xlink:title=" ">
<path fill="none" stroke="#63b8ff" d="M125.19,-126.01C181.89,-129.69 266.07,-135.17 326.71,-139.11"/>
<polygon fill="#63b8ff" stroke="#63b8ff" points="326.78,-142.62 336.98,-139.77 327.23,-135.63 326.78,-142.62"/>
</a>
</g>
</g>
<!-- Node4 -->
<g id="Node000004" class="node">
<title>Node4</title>
<g id="a_Node000004"><a xlink:href="classAP__HAL_1_1PWMSource.html#a405caac59c18d0c7223535d07dd0108a" target="_top" xlink:title=" ">
<polygon fill="white" stroke="#666666" points="293,-116 169,-116 169,-86 293,-86 293,-116"/>
<text text-anchor="start" x="177" y="-104" font-family="Helvetica,sans-Serif" font-size="10.00">AP_HAL::PWMSource::</text>
<text text-anchor="middle" x="231" y="-93" font-family="Helvetica,sans-Serif" font-size="10.00">set_pin</text>
</a>
</g>
</g>
<!-- Node1&#45;&gt;Node4 -->
<g id="edge3_Node000001_Node000004" class="edge">
<title>Node1&#45;&gt;Node4</title>
<g id="a_edge3_Node000001_Node000004"><a xlink:title=" ">
<path fill="none" stroke="#63b8ff" d="M125.03,-114.24C135.95,-112.86 147.41,-111.42 158.58,-110.01"/>
<polygon fill="#63b8ff" stroke="#63b8ff" points="159.24,-113.45 168.73,-108.73 158.37,-106.51 159.24,-113.45"/>
</a>
</g>
</g>
<!-- Node8 -->
<g id="Node000008" class="node">
<title>Node8</title>
<g id="a_Node000008"><a xlink:href="classAP__HAL_1_1GPIO.html#a2b0664bdab1876e3b0bbcd9064eec88e" target="_top" xlink:title=" ">
<polygon fill="white" stroke="#666666" points="288.5,-67.5 173.5,-67.5 173.5,-48.5 288.5,-48.5 288.5,-67.5"/>
<text text-anchor="middle" x="231" y="-55.5" font-family="Helvetica,sans-Serif" font-size="10.00">AP_HAL::GPIO::write</text>
</a>
</g>
</g>
<!-- Node1&#45;&gt;Node8 -->
<g id="edge9_Node000001_Node000008" class="edge">
<title>Node1&#45;&gt;Node8</title>
<g id="a_edge9_Node000001_Node000008"><a xlink:title=" ">
<path fill="none" stroke="#63b8ff" d="M81.81,-112.45C101.13,-102.64 132.64,-87.37 161,-77 167.43,-74.65 174.29,-72.43 181.09,-70.4"/>
<polygon fill="#63b8ff" stroke="#63b8ff" points="182.32,-73.68 190.96,-67.55 180.39,-66.96 182.32,-73.68"/>
</a>
</g>
</g>
<!-- Node4&#45;&gt;Node3 -->
<g id="edge8_Node000004_Node000003" class="edge">
<title>Node4&#45;&gt;Node3</title>
<g id="a_edge8_Node000004_Node000003"><a xlink:title=" ">
<path fill="none" stroke="#63b8ff" d="M291.46,-116.04C312.09,-121.26 334.93,-127.03 354.47,-131.98"/>
<polygon fill="#63b8ff" stroke="#63b8ff" points="353.8,-135.42 364.35,-134.48 355.52,-128.63 353.8,-135.42"/>
</a>
</g>
</g>
<!-- Node5 -->
<g id="Node000005" class="node">
<title>Node5</title>
<g id="a_Node000005"><a xlink:href="classAP__HAL_1_1GPIO.html#a25cb1ed83deec0e01b8468919f43bf21" target="_top" xlink:title=" ">
<polygon fill="white" stroke="#666666" points="626,-99 505,-99 505,-69 626,-69 626,-99"/>
<text text-anchor="start" x="513" y="-87" font-family="Helvetica,sans-Serif" font-size="10.00">AP_HAL::GPIO::attach</text>
<text text-anchor="middle" x="565.5" y="-76" font-family="Helvetica,sans-Serif" font-size="10.00">_interrupt</text>
</a>
</g>
</g>
<!-- Node4&#45;&gt;Node5 -->
<g id="edge4_Node000004_Node000005" class="edge">
<title>Node4&#45;&gt;Node5</title>
<g id="a_edge4_Node000004_Node000005"><a xlink:title=" ">
<path fill="none" stroke="#63b8ff" d="M293.37,-97.86C350.4,-94.95 435.26,-90.61 494.81,-87.56"/>
<polygon fill="#63b8ff" stroke="#63b8ff" points="495.08,-91.05 504.88,-87.05 494.72,-84.06 495.08,-91.05"/>
</a>
</g>
</g>
<!-- Node6 -->
<g id="Node000006" class="node">
<title>Node6</title>
<g id="a_Node000006"><a xlink:href="classAP__HAL_1_1GPIO.html#a39916d5b533687c4ba351e40e27a65d1" target="_top" xlink:title=" ">
<polygon fill="white" stroke="#666666" points="464.5,-78 341.5,-78 341.5,-48 464.5,-48 464.5,-78"/>
<text text-anchor="start" x="349.5" y="-66" font-family="Helvetica,sans-Serif" font-size="10.00">AP_HAL::GPIO::detach</text>
<text text-anchor="middle" x="403" y="-55" font-family="Helvetica,sans-Serif" font-size="10.00">_interrupt</text>
</a>
</g>
</g>
<!-- Node4&#45;&gt;Node6 -->
<g id="edge5_Node000004_Node000006" class="edge">
<title>Node4&#45;&gt;Node6</title>
<g id="a_edge5_Node000004_Node000006"><a xlink:title=" ">
<path fill="none" stroke="#63b8ff" d="M293.37,-87.28C305.68,-84.53 318.71,-81.62 331.3,-78.8"/>
<polygon fill="#63b8ff" stroke="#63b8ff" points="332.29,-82.17 341.29,-76.57 330.76,-75.34 332.29,-82.17"/>
</a>
</g>
</g>
<!-- Node7 -->
<g id="Node000007" class="node">
<title>Node7</title>
<g id="a_Node000007"><a xlink:href="classAP__HAL_1_1PWMSource.html#a75ed9d4d32bbeca7869c445a093acca2" target="_top" xlink:title=" ">
<polygon fill="white" stroke="#666666" points="465,-30 341,-30 341,0 465,0 465,-30"/>
<text text-anchor="start" x="349" y="-18" font-family="Helvetica,sans-Serif" font-size="10.00">AP_HAL::PWMSource::</text>
<text text-anchor="middle" x="403" y="-7" font-family="Helvetica,sans-Serif" font-size="10.00">irq_handler</text>
</a>
</g>
</g>
<!-- Node4&#45;&gt;Node7 -->
<g id="edge7_Node000004_Node000007" class="edge">
<title>Node4&#45;&gt;Node7</title>
<g id="a_edge7_Node000004_Node000007"><a xlink:title=" ">
<path fill="none" stroke="#63b8ff" d="M284.14,-85.92C290.03,-83.33 295.78,-80.37 301,-77 320.54,-64.38 317.58,-51.81 337,-39 339.4,-37.42 341.92,-35.92 344.51,-34.51"/>
<polygon fill="#63b8ff" stroke="#63b8ff" points="346.16,-37.6 353.56,-30.02 343.05,-31.33 346.16,-37.6"/>
</a>
</g>
</g>
<!-- Node6&#45;&gt;Node5 -->
<g id="edge6_Node000006_Node000005" class="edge">
<title>Node6&#45;&gt;Node5</title>
<g id="a_edge6_Node000006_Node000005"><a xlink:title=" ">
<path fill="none" stroke="#63b8ff" d="M464.68,-70.94C474.53,-72.23 484.8,-73.57 494.85,-74.89"/>
<polygon fill="#63b8ff" stroke="#63b8ff" points="494.43,-78.36 504.8,-76.19 495.34,-71.42 494.43,-78.36"/>
</a>
</g>
</g>
</g>
</svg>
