<?xml version="1.0" encoding="UTF-8" standalone="no"?>
<!DOCTYPE svg PUBLIC "-//W3C//DTD SVG 1.1//EN"
 "http://www.w3.org/Graphics/SVG/1.1/DTD/svg11.dtd">
<!-- Generated by graphviz version 2.43.0 (0)
 -->
<!-- Title: AP_Mount::get_mount_type Pages: 1 -->
<svg width="706pt" height="113pt"
 viewBox="0.00 0.00 706.00 112.50" xmlns="http://www.w3.org/2000/svg" xmlns:xlink="http://www.w3.org/1999/xlink">
<g id="graph0" class="graph" transform="scale(1 1) rotate(0) translate(4 108.5)">
<title>AP_Mount::get_mount_type</title>
<!-- Node1 -->
<g id="Node000001" class="node">
<title>Node1</title>
<g id="a_Node000001"><a xlink:title=" ">
<polygon fill="#999999" stroke="#666666" points="698,-56 547,-56 547,-37 698,-37 698,-56"/>
<text text-anchor="middle" x="622.5" y="-44" font-family="Helvetica,sans-Serif" font-size="10.00">AP_Mount::get_mount_type</text>
</a>
</g>
</g>
<!-- Node1&#45;&gt;Node1 -->
<g id="edge4_Node000001_Node000001" class="edge">
<title>Node1&#45;&gt;Node1</title>
<g id="a_edge4_Node000001_Node000001"><a xlink:title=" ">
<path fill="none" stroke="#63b8ff" d="M657.36,-64.07C656.85,-69.62 645.23,-74 622.5,-74 589.44,-74 579.89,-64.73 593.83,-56.08"/>
<polygon fill="#63b8ff" stroke="#63b8ff" points="660.06,-61.84 651.17,-56.08 654.53,-66.13 660.06,-61.84"/>
</a>
</g>
</g>
<!-- Node2 -->
<g id="Node000002" class="node">
<title>Node2</title>
<g id="a_Node000002"><a xlink:href="classAP__Camera__Backend.html#a09824a259e824de60e3b5c48a10ff851" target="_top" xlink:title=" ">
<polygon fill="white" stroke="#666666" points="498,-104.5 373,-104.5 373,-74.5 498,-74.5 498,-104.5"/>
<text text-anchor="start" x="381" y="-92.5" font-family="Helvetica,sans-Serif" font-size="10.00">AP_Camera_Backend::</text>
<text text-anchor="middle" x="435.5" y="-81.5" font-family="Helvetica,sans-Serif" font-size="10.00">get_gimbal_device_id</text>
</a>
</g>
</g>
<!-- Node1&#45;&gt;Node2 -->
<g id="edge1_Node000001_Node000002" class="edge">
<title>Node1&#45;&gt;Node2</title>
<g id="a_edge1_Node000001_Node000002"><a xlink:title=" ">
<path fill="none" stroke="#63b8ff" d="M570.48,-58.36C548.11,-63.56 521.65,-69.71 498.19,-75.16"/>
<polygon fill="#63b8ff" stroke="#63b8ff" points="571.49,-61.72 580.44,-56.04 569.91,-54.9 571.49,-61.72"/>
</a>
</g>
</g>
<!-- Node5 -->
<g id="Node000005" class="node">
<title>Node5</title>
<g id="a_Node000005"><a xlink:href="classAP__Mount.html#a2d430542699396b13925aea7d273a264" target="_top" xlink:title=" ">
<polygon fill="white" stroke="#666666" points="479,-56 392,-56 392,-37 479,-37 479,-56"/>
<text text-anchor="middle" x="435.5" y="-44" font-family="Helvetica,sans-Serif" font-size="10.00">AP_Mount::init</text>
</a>
</g>
</g>
<!-- Node1&#45;&gt;Node5 -->
<g id="edge5_Node000001_Node000005" class="edge">
<title>Node1&#45;&gt;Node5</title>
<g id="a_edge5_Node000001_Node000005"><a xlink:title=" ">
<path fill="none" stroke="#63b8ff" d="M536.71,-46.5C516.71,-46.5 496.22,-46.5 479.02,-46.5"/>
<polygon fill="#63b8ff" stroke="#63b8ff" points="536.79,-50 546.79,-46.5 536.79,-43 536.79,-50"/>
</a>
</g>
</g>
<!-- Node6 -->
<g id="Node000006" class="node">
<title>Node6</title>
<g id="a_Node000006"><a xlink:href="classAP__Mount.html#a059169bcbd67379c687b457e2ab72a0d" target="_top" xlink:title=" ">
<polygon fill="white" stroke="#666666" points="511,-19 360,-19 360,0 511,0 511,-19"/>
<text text-anchor="middle" x="435.5" y="-7" font-family="Helvetica,sans-Serif" font-size="10.00">AP_Mount::pre_arm_checks</text>
</a>
</g>
</g>
<!-- Node1&#45;&gt;Node6 -->
<g id="edge6_Node000001_Node000006" class="edge">
<title>Node1&#45;&gt;Node6</title>
<g id="a_edge6_Node000001_Node000006"><a xlink:title=" ">
<path fill="none" stroke="#63b8ff" d="M563.92,-34.98C538.35,-29.87 508.62,-23.92 484.3,-19.06"/>
<polygon fill="#63b8ff" stroke="#63b8ff" points="563.37,-38.44 573.86,-36.97 564.74,-31.58 563.37,-38.44"/>
</a>
</g>
</g>
<!-- Node3 -->
<g id="Node000003" class="node">
<title>Node3</title>
<g id="a_Node000003"><a xlink:href="classAP__Camera__Backend.html#a8e555b52773ece40596b5ff1aa549831" target="_top" xlink:title=" ">
<polygon fill="white" stroke="#666666" points="324,-104.5 180,-104.5 180,-74.5 324,-74.5 324,-104.5"/>
<text text-anchor="start" x="188" y="-92.5" font-family="Helvetica,sans-Serif" font-size="10.00">AP_Camera_Backend::</text>
<text text-anchor="middle" x="252" y="-81.5" font-family="Helvetica,sans-Serif" font-size="10.00">send_camera_information</text>
</a>
</g>
</g>
<!-- Node2&#45;&gt;Node3 -->
<g id="edge2_Node000002_Node000003" class="edge">
<title>Node2&#45;&gt;Node3</title>
<g id="a_edge2_Node000002_Node000003"><a xlink:title=" ">
<path fill="none" stroke="#63b8ff" d="M362.76,-89.5C350.08,-89.5 336.89,-89.5 324.22,-89.5"/>
<polygon fill="#63b8ff" stroke="#63b8ff" points="362.8,-93 372.8,-89.5 362.8,-86 362.8,-93"/>
</a>
</g>
</g>
<!-- Node4 -->
<g id="Node000004" class="node">
<title>Node4</title>
<g id="a_Node000004"><a xlink:href="classAP__Camera.html#a7a9dde61531c786e2c4b2d4b40745ff0" target="_top" xlink:title=" ">
<polygon fill="white" stroke="#666666" points="144,-104.5 0,-104.5 0,-74.5 144,-74.5 144,-104.5"/>
<text text-anchor="start" x="8" y="-92.5" font-family="Helvetica,sans-Serif" font-size="10.00">AP_Camera::send_camera</text>
<text text-anchor="middle" x="72" y="-81.5" font-family="Helvetica,sans-Serif" font-size="10.00">_information</text>
</a>
</g>
</g>
<!-- Node3&#45;&gt;Node4 -->
<g id="edge3_Node000003_Node000004" class="edge">
<title>Node3&#45;&gt;Node4</title>
<g id="a_edge3_Node000003_Node000004"><a xlink:title=" ">
<path fill="none" stroke="#63b8ff" d="M169.83,-89.5C161.21,-89.5 152.49,-89.5 144,-89.5"/>
<polygon fill="#63b8ff" stroke="#63b8ff" points="169.88,-93 179.88,-89.5 169.88,-86 169.88,-93"/>
</a>
</g>
</g>
</g>
</svg>
