<?xml version="1.0" encoding="UTF-8" standalone="no"?>
<!DOCTYPE svg PUBLIC "-//W3C//DTD SVG 1.1//EN"
 "http://www.w3.org/Graphics/SVG/1.1/DTD/svg11.dtd">
<!-- Generated by graphviz version 2.43.0 (0)
 -->
<!-- Title: SITL::Calibration::_calibration_poses Pages: 1 -->
<svg width="732pt" height="150pt"
 viewBox="0.00 0.00 732.00 149.50" xmlns="http://www.w3.org/2000/svg" xmlns:xlink="http://www.w3.org/1999/xlink">
<g id="graph0" class="graph" transform="scale(1 1) rotate(0) translate(4 145.5)">
<title>SITL::Calibration::_calibration_poses</title>
<!-- Node1 -->
<g id="Node000001" class="node">
<title>Node1</title>
<g id="a_Node000001"><a xlink:title=" ">
<polygon fill="#999999" stroke="#666666" points="107,-79.5 0,-79.5 0,-49.5 107,-49.5 107,-79.5"/>
<text text-anchor="start" x="8" y="-67.5" font-family="Helvetica,sans-Serif" font-size="10.00">SITL::Calibration::</text>
<text text-anchor="middle" x="53.5" y="-56.5" font-family="Helvetica,sans-Serif" font-size="10.00">_calibration_poses</text>
</a>
</g>
</g>
<!-- Node2 -->
<g id="Node000002" class="node">
<title>Node2</title>
<g id="a_Node000002"><a xlink:href="classMatrix3.html#adc512b18d84f2cc5c99d5a38edac1319" target="_top" xlink:title=" ">
<polygon fill="white" stroke="#666666" points="254.5,-141.5 145.5,-141.5 145.5,-111.5 254.5,-111.5 254.5,-141.5"/>
<text text-anchor="start" x="153.5" y="-129.5" font-family="Helvetica,sans-Serif" font-size="10.00">Matrix3::from_axis</text>
<text text-anchor="middle" x="200" y="-118.5" font-family="Helvetica,sans-Serif" font-size="10.00">_angle</text>
</a>
</g>
</g>
<!-- Node1&#45;&gt;Node2 -->
<g id="edge1_Node000001_Node000002" class="edge">
<title>Node1&#45;&gt;Node2</title>
<g id="a_edge1_Node000001_Node000002"><a xlink:title=" ">
<path fill="none" stroke="#63b8ff" d="M89.81,-79.67C106.02,-86.63 125.48,-94.99 143,-102.5 146.67,-104.07 150.47,-105.7 154.29,-107.34"/>
<polygon fill="#63b8ff" stroke="#63b8ff" points="153.18,-110.67 163.75,-111.4 155.94,-104.24 153.18,-110.67"/>
</a>
</g>
</g>
<!-- Node3 -->
<g id="Node000003" class="node">
<title>Node3</title>
<g id="a_Node000003"><a xlink:href="namespaceAP__HAL.html#a77dffbb18891996280308e21316ec186" target="_top" xlink:title=" ">
<polygon fill="white" stroke="#666666" points="243.5,-93 156.5,-93 156.5,-74 243.5,-74 243.5,-93"/>
<text text-anchor="middle" x="200" y="-81" font-family="Helvetica,sans-Serif" font-size="10.00">AP_HAL::millis</text>
</a>
</g>
</g>
<!-- Node1&#45;&gt;Node3 -->
<g id="edge2_Node000001_Node000003" class="edge">
<title>Node1&#45;&gt;Node3</title>
<g id="a_edge2_Node000001_Node000003"><a xlink:title=" ">
<path fill="none" stroke="#63b8ff" d="M107.08,-71.41C119.81,-73.09 133.43,-74.88 146.17,-76.55"/>
<polygon fill="#63b8ff" stroke="#63b8ff" points="145.81,-80.04 156.18,-77.87 146.72,-73.1 145.81,-80.04"/>
</a>
</g>
</g>
<!-- Node10 -->
<g id="Node000010" class="node">
<title>Node10</title>
<g id="a_Node000010"><a xlink:href="AP__Math_8h.html#a49ad7fa2fa2e3d8aa75e8e0ec3f83b99" target="_top" xlink:title=" ">
<polygon fill="white" stroke="#666666" points="226.5,-56 173.5,-56 173.5,-37 226.5,-37 226.5,-56"/>
<text text-anchor="middle" x="200" y="-44" font-family="Helvetica,sans-Serif" font-size="10.00">radians</text>
</a>
</g>
</g>
<!-- Node1&#45;&gt;Node10 -->
<g id="edge9_Node000001_Node000010" class="edge">
<title>Node1&#45;&gt;Node10</title>
<g id="a_edge9_Node000001_Node000010"><a xlink:title=" ">
<path fill="none" stroke="#63b8ff" d="M107.08,-57.95C125.79,-55.62 146.4,-53.05 163.36,-50.94"/>
<polygon fill="#63b8ff" stroke="#63b8ff" points="163.91,-54.4 173.4,-49.69 163.04,-47.45 163.91,-54.4"/>
</a>
</g>
</g>
<!-- Node11 -->
<g id="Node000011" class="node">
<title>Node11</title>
<g id="a_Node000011"><a xlink:href="classMatrix3.html#a5a186dbb48d5cb5ecd40924578478b2e" target="_top" xlink:title=" ">
<polygon fill="white" stroke="#666666" points="257,-19 143,-19 143,0 257,0 257,-19"/>
<text text-anchor="middle" x="200" y="-7" font-family="Helvetica,sans-Serif" font-size="10.00">Matrix3::transposed</text>
</a>
</g>
</g>
<!-- Node1&#45;&gt;Node11 -->
<g id="edge10_Node000001_Node000011" class="edge">
<title>Node1&#45;&gt;Node11</title>
<g id="a_edge10_Node000001_Node000011"><a xlink:title=" ">
<path fill="none" stroke="#63b8ff" d="M88.69,-49.41C105.01,-42.41 124.88,-34.19 143,-27.5 147.85,-25.71 152.96,-23.93 158.05,-22.22"/>
<polygon fill="#63b8ff" stroke="#63b8ff" points="159.33,-25.48 167.74,-19.03 157.14,-18.83 159.33,-25.48"/>
</a>
</g>
</g>
<!-- Node4 -->
<g id="Node000004" class="node">
<title>Node4</title>
<g id="a_Node000004"><a xlink:href="hrt_8c.html#a1295f128f60d29874243b5733c4db025" target="_top" xlink:title=" ">
<polygon fill="white" stroke="#666666" points="367,-93 293,-93 293,-74 367,-74 367,-93"/>
<text text-anchor="middle" x="330" y="-81" font-family="Helvetica,sans-Serif" font-size="10.00">hrt_millis32</text>
</a>
</g>
</g>
<!-- Node3&#45;&gt;Node4 -->
<g id="edge3_Node000003_Node000004" class="edge">
<title>Node3&#45;&gt;Node4</title>
<g id="a_edge3_Node000003_Node000004"><a xlink:title=" ">
<path fill="none" stroke="#63b8ff" d="M243.62,-83.5C256.25,-83.5 270.13,-83.5 282.96,-83.5"/>
<polygon fill="#63b8ff" stroke="#63b8ff" points="282.98,-87 292.98,-83.5 282.98,-80 282.98,-87"/>
</a>
</g>
</g>
<!-- Node5 -->
<g id="Node000005" class="node">
<title>Node5</title>
<g id="a_Node000005"><a xlink:href="hrt_8c.html#a7dd7d90aadd8f76f26da7d5abfad6fe8" target="_top" xlink:title=" ">
<polygon fill="white" stroke="#666666" points="477,-93 403,-93 403,-74 477,-74 477,-93"/>
<text text-anchor="middle" x="440" y="-81" font-family="Helvetica,sans-Serif" font-size="10.00">hrt_millis64</text>
</a>
</g>
</g>
<!-- Node4&#45;&gt;Node5 -->
<g id="edge4_Node000004_Node000005" class="edge">
<title>Node4&#45;&gt;Node5</title>
<g id="a_edge4_Node000004_Node000005"><a xlink:title=" ">
<path fill="none" stroke="#63b8ff" d="M367.26,-83.5C375.37,-83.5 384.07,-83.5 392.52,-83.5"/>
<polygon fill="#63b8ff" stroke="#63b8ff" points="392.65,-87 402.65,-83.5 392.65,-80 392.65,-87"/>
</a>
</g>
</g>
<!-- Node6 -->
<g id="Node000006" class="node">
<title>Node6</title>
<g id="a_Node000006"><a xlink:href="hrt_8c.html#a152c3348a8e83f2dfe35b44cc2e30362" target="_top" xlink:title=" ">
<polygon fill="white" stroke="#666666" points="599,-112 519,-112 519,-93 599,-93 599,-112"/>
<text text-anchor="middle" x="559" y="-100" font-family="Helvetica,sans-Serif" font-size="10.00">hrt_micros64</text>
</a>
</g>
</g>
<!-- Node5&#45;&gt;Node6 -->
<g id="edge5_Node000005_Node000006" class="edge">
<title>Node5&#45;&gt;Node6</title>
<g id="a_edge5_Node000005_Node000006"><a xlink:title=" ">
<path fill="none" stroke="#63b8ff" d="M477.06,-89.36C487.03,-90.98 498.03,-92.76 508.62,-94.48"/>
<polygon fill="#63b8ff" stroke="#63b8ff" points="508.17,-97.95 518.6,-96.1 509.29,-91.04 508.17,-97.95"/>
</a>
</g>
</g>
<!-- Node9 -->
<g id="Node000009" class="node">
<title>Node9</title>
<g id="a_Node000009"><a xlink:href="div1000_8h.html#aece9e7f123414c41d0426fbadca097d8" target="_top" xlink:title=" ">
<polygon fill="white" stroke="#666666" points="605,-75 513,-75 513,-56 605,-56 605,-75"/>
<text text-anchor="middle" x="559" y="-63" font-family="Helvetica,sans-Serif" font-size="10.00">uint64_div1000</text>
</a>
</g>
</g>
<!-- Node5&#45;&gt;Node9 -->
<g id="edge8_Node000005_Node000009" class="edge">
<title>Node5&#45;&gt;Node9</title>
<g id="a_edge8_Node000005_Node000009"><a xlink:title=" ">
<path fill="none" stroke="#63b8ff" d="M477.06,-77.95C485.17,-76.71 493.95,-75.35 502.64,-74.02"/>
<polygon fill="#63b8ff" stroke="#63b8ff" points="503.41,-77.44 512.76,-72.46 502.34,-70.52 503.41,-77.44"/>
</a>
</g>
</g>
<!-- Node7 -->
<g id="Node000007" class="node">
<title>Node7</title>
<g id="a_Node000007"><a xlink:href="hrt_8c.html#a5b4ffc7ff86bd5b893c4a98834e80200" target="_top" xlink:title=" ">
<polygon fill="white" stroke="#666666" points="724,-131 641,-131 641,-112 724,-112 724,-131"/>
<text text-anchor="middle" x="682.5" y="-119" font-family="Helvetica,sans-Serif" font-size="10.00">hrt_micros64I</text>
</a>
</g>
</g>
<!-- Node6&#45;&gt;Node7 -->
<g id="edge6_Node000006_Node000007" class="edge">
<title>Node6&#45;&gt;Node7</title>
<g id="a_edge6_Node000006_Node000007"><a xlink:title=" ">
<path fill="none" stroke="#63b8ff" d="M599.11,-108.62C609.21,-110.19 620.22,-111.92 630.81,-113.57"/>
<polygon fill="#63b8ff" stroke="#63b8ff" points="630.37,-117.05 640.79,-115.13 631.45,-110.13 630.37,-117.05"/>
</a>
</g>
</g>
<!-- Node8 -->
<g id="Node000008" class="node">
<title>Node8</title>
<g id="a_Node000008"><a xlink:href="hrt_8c.html#a723fef85be7bacb834af35445a891c18" target="_top" xlink:title=" ">
<polygon fill="white" stroke="#666666" points="713.5,-94 651.5,-94 651.5,-75 713.5,-75 713.5,-94"/>
<text text-anchor="middle" x="682.5" y="-82" font-family="Helvetica,sans-Serif" font-size="10.00">is_locked</text>
</a>
</g>
</g>
<!-- Node6&#45;&gt;Node8 -->
<g id="edge7_Node000006_Node000008" class="edge">
<title>Node6&#45;&gt;Node8</title>
<g id="a_edge7_Node000006_Node000008"><a xlink:title=" ">
<path fill="none" stroke="#63b8ff" d="M599.11,-96.71C612.6,-94.71 627.73,-92.47 641.3,-90.46"/>
<polygon fill="#63b8ff" stroke="#63b8ff" points="641.95,-93.9 651.32,-88.97 640.92,-86.97 641.95,-93.9"/>
</a>
</g>
</g>
</g>
</svg>
