<?xml version="1.0" encoding="UTF-8" standalone="no"?>
<!DOCTYPE svg PUBLIC "-//W3C//DTD SVG 1.1//EN"
 "http://www.w3.org/Graphics/SVG/1.1/DTD/svg11.dtd">
<!-- Generated by graphviz version 2.43.0 (0)
 -->
<!-- Title: AR_WPNav::set_origin_and_destination_to_stopping_point Pages: 1 -->
<svg width="556pt" height="231pt"
 viewBox="0.00 0.00 556.00 230.50" xmlns="http://www.w3.org/2000/svg" xmlns:xlink="http://www.w3.org/1999/xlink">
<g id="graph0" class="graph" transform="scale(1 1) rotate(0) translate(4 226.5)">
<title>AR_WPNav::set_origin_and_destination_to_stopping_point</title>
<!-- Node1 -->
<g id="Node000001" class="node">
<title>Node1</title>
<g id="a_Node000001"><a xlink:title=" ">
<polygon fill="#999999" stroke="#666666" points="548,-114.5 356,-114.5 356,-84.5 548,-84.5 548,-114.5"/>
<text text-anchor="start" x="364" y="-102.5" font-family="Helvetica,sans-Serif" font-size="10.00">AR_WPNav::set_origin</text>
<text text-anchor="middle" x="452" y="-91.5" font-family="Helvetica,sans-Serif" font-size="10.00">_and_destination_to_stopping_point</text>
</a>
</g>
</g>
<!-- Node2 -->
<g id="Node000002" class="node">
<title>Node2</title>
<g id="a_Node000002"><a xlink:href="classAR__WPNav.html#ac636cd58c83fe1ed622b663ffbe185e2" target="_top" xlink:title=" ">
<polygon fill="white" stroke="#666666" points="300,-152 208,-152 208,-133 300,-133 300,-152"/>
<text text-anchor="middle" x="254" y="-140" font-family="Helvetica,sans-Serif" font-size="10.00">AR_WPNav::init</text>
</a>
</g>
</g>
<!-- Node1&#45;&gt;Node2 -->
<g id="edge1_Node000001_Node000002" class="edge">
<title>Node1&#45;&gt;Node2</title>
<g id="a_edge1_Node000001_Node000002"><a xlink:title=" ">
<path fill="none" stroke="#63b8ff" d="M372.5,-116.72C347.24,-122.26 320.18,-128.2 298.4,-132.98"/>
<polygon fill="#63b8ff" stroke="#63b8ff" points="373.43,-120.1 382.45,-114.54 371.93,-113.26 373.43,-120.1"/>
</a>
</g>
</g>
<!-- Node3 -->
<g id="Node000003" class="node">
<title>Node3</title>
<g id="a_Node000003"><a xlink:href="classAR__WPNav.html#a0169dcecb6bd61bfcf542e8ed5c5e030" target="_top" xlink:title=" ">
<polygon fill="white" stroke="#666666" points="320,-114.5 188,-114.5 188,-84.5 320,-84.5 320,-114.5"/>
<text text-anchor="start" x="196" y="-102.5" font-family="Helvetica,sans-Serif" font-size="10.00">AR_WPNav::set_desired</text>
<text text-anchor="middle" x="254" y="-91.5" font-family="Helvetica,sans-Serif" font-size="10.00">_location</text>
</a>
</g>
</g>
<!-- Node1&#45;&gt;Node3 -->
<g id="edge2_Node000001_Node000003" class="edge">
<title>Node1&#45;&gt;Node3</title>
<g id="a_edge2_Node000001_Node000003"><a xlink:title=" ">
<path fill="none" stroke="#63b8ff" d="M345.67,-99.5C336.99,-99.5 328.4,-99.5 320.15,-99.5"/>
<polygon fill="#63b8ff" stroke="#63b8ff" points="345.87,-103 355.87,-99.5 345.87,-96 345.87,-103"/>
</a>
</g>
</g>
<!-- Node9 -->
<g id="Node000009" class="node">
<title>Node9</title>
<g id="a_Node000009"><a xlink:href="classAR__WPNav.html#a8e21ae3ad4db62b87acf83cde8f11ad6" target="_top" xlink:title=" ">
<polygon fill="white" stroke="#666666" points="320,-54 188,-54 188,-13 320,-13 320,-54"/>
<text text-anchor="start" x="196" y="-42" font-family="Helvetica,sans-Serif" font-size="10.00">AR_WPNav::set_desired</text>
<text text-anchor="start" x="196" y="-31" font-family="Helvetica,sans-Serif" font-size="10.00">_location_expect_fast</text>
<text text-anchor="middle" x="254" y="-20" font-family="Helvetica,sans-Serif" font-size="10.00">_update</text>
</a>
</g>
</g>
<!-- Node1&#45;&gt;Node9 -->
<g id="edge8_Node000001_Node000009" class="edge">
<title>Node1&#45;&gt;Node9</title>
<g id="a_edge8_Node000001_Node000009"><a xlink:title=" ">
<path fill="none" stroke="#63b8ff" d="M396.37,-81.1C371.42,-72.7 341.78,-62.72 316.1,-54.07"/>
<polygon fill="#63b8ff" stroke="#63b8ff" points="395.44,-84.48 406.03,-84.36 397.67,-77.85 395.44,-84.48"/>
</a>
</g>
</g>
<!-- Node4 -->
<g id="Node000004" class="node">
<title>Node4</title>
<g id="a_Node000004"><a xlink:href="classAR__WPNav__OA.html#a83ba576c13e557e9ed887fc90a87ab3d" target="_top" xlink:title=" ">
<polygon fill="white" stroke="#666666" points="152,-222.5 0,-222.5 0,-192.5 152,-192.5 152,-222.5"/>
<text text-anchor="start" x="8" y="-210.5" font-family="Helvetica,sans-Serif" font-size="10.00">AR_WPNav_OA::set_desired</text>
<text text-anchor="middle" x="76" y="-199.5" font-family="Helvetica,sans-Serif" font-size="10.00">_location</text>
</a>
</g>
</g>
<!-- Node3&#45;&gt;Node4 -->
<g id="edge3_Node000003_Node000004" class="edge">
<title>Node3&#45;&gt;Node4</title>
<g id="a_edge3_Node000003_Node000004"><a xlink:title=" ">
<path fill="none" stroke="#63b8ff" d="M194.3,-119.82C192.1,-121.28 189.99,-122.84 188,-124.5 164.41,-144.17 176.15,-164.51 152,-183.5 147.59,-186.96 142.68,-189.93 137.52,-192.48"/>
<polygon fill="#63b8ff" stroke="#63b8ff" points="196.28,-122.72 203.16,-114.66 192.76,-116.67 196.28,-122.72"/>
</a>
</g>
</g>
<!-- Node5 -->
<g id="Node000005" class="node">
<title>Node5</title>
<g id="a_Node000005"><a xlink:href="classAR__WPNav.html#ac5f7cd3f1d31005fb3d5599cff29e8d6" target="_top" xlink:title=" ">
<polygon fill="white" stroke="#666666" points="142,-174.5 10,-174.5 10,-144.5 142,-144.5 142,-174.5"/>
<text text-anchor="start" x="18" y="-162.5" font-family="Helvetica,sans-Serif" font-size="10.00">AR_WPNav::set_desired</text>
<text text-anchor="middle" x="76" y="-151.5" font-family="Helvetica,sans-Serif" font-size="10.00">_location_NED</text>
</a>
</g>
</g>
<!-- Node3&#45;&gt;Node5 -->
<g id="edge4_Node000003_Node000005" class="edge">
<title>Node3&#45;&gt;Node5</title>
<g id="a_edge4_Node000003_Node000005"><a xlink:title=" ">
<path fill="none" stroke="#63b8ff" d="M202.12,-118C186.12,-123.72 168.36,-129.97 152,-135.5 143.19,-138.48 133.77,-141.57 124.69,-144.5"/>
<polygon fill="#63b8ff" stroke="#63b8ff" points="203.6,-121.19 211.83,-114.52 201.23,-114.6 203.6,-121.19"/>
</a>
</g>
</g>
<!-- Node6 -->
<g id="Node000006" class="node">
<title>Node6</title>
<g id="a_Node000006"><a xlink:href="classAR__WPNav.html#a0e0a7570fb6a1dc3ce1fdb5e0a074a04" target="_top" xlink:title=" ">
<polygon fill="white" stroke="#666666" points="142,-126.5 10,-126.5 10,-96.5 142,-96.5 142,-126.5"/>
<text text-anchor="start" x="18" y="-114.5" font-family="Helvetica,sans-Serif" font-size="10.00">AR_WPNav::set_desired</text>
<text text-anchor="middle" x="76" y="-103.5" font-family="Helvetica,sans-Serif" font-size="10.00">_location_NED</text>
</a>
</g>
</g>
<!-- Node3&#45;&gt;Node6 -->
<g id="edge5_Node000003_Node000006" class="edge">
<title>Node3&#45;&gt;Node6</title>
<g id="a_edge5_Node000003_Node000006"><a xlink:title=" ">
<path fill="none" stroke="#63b8ff" d="M177.66,-104.64C165.81,-105.44 153.65,-106.27 142.06,-107.06"/>
<polygon fill="#63b8ff" stroke="#63b8ff" points="178.23,-108.11 187.96,-103.93 177.75,-101.12 178.23,-108.11"/>
</a>
</g>
</g>
<!-- Node7 -->
<g id="Node000007" class="node">
<title>Node7</title>
<g id="a_Node000007"><a xlink:href="classAR__WPNav.html#aa9261cd7e0f4266ede3a4556de4a529c" target="_top" xlink:title=" ">
<polygon fill="white" stroke="#666666" points="142,-78 10,-78 10,-37 142,-37 142,-78"/>
<text text-anchor="start" x="18" y="-66" font-family="Helvetica,sans-Serif" font-size="10.00">AR_WPNav::set_desired</text>
<text text-anchor="start" x="18" y="-55" font-family="Helvetica,sans-Serif" font-size="10.00">_location_to_stopping</text>
<text text-anchor="middle" x="76" y="-44" font-family="Helvetica,sans-Serif" font-size="10.00">_location</text>
</a>
</g>
</g>
<!-- Node3&#45;&gt;Node7 -->
<g id="edge6_Node000003_Node000007" class="edge">
<title>Node3&#45;&gt;Node7</title>
<g id="a_edge6_Node000003_Node000007"><a xlink:title=" ">
<path fill="none" stroke="#63b8ff" d="M180.03,-82.09C167.51,-79.1 154.57,-76.01 142.27,-73.08"/>
<polygon fill="#63b8ff" stroke="#63b8ff" points="179.42,-85.54 189.96,-84.46 181.04,-78.73 179.42,-85.54"/>
</a>
</g>
</g>
<!-- Node8 -->
<g id="Node000008" class="node">
<title>Node8</title>
<g id="a_Node000008"><a xlink:href="classAR__WPNav__OA.html#aacfc598570918972c86c1de6e50bf565" target="_top" xlink:title=" ">
<polygon fill="white" stroke="#666666" points="141,-19 11,-19 11,0 141,0 141,-19"/>
<text text-anchor="middle" x="76" y="-7" font-family="Helvetica,sans-Serif" font-size="10.00">AR_WPNav_OA::update</text>
</a>
</g>
</g>
<!-- Node3&#45;&gt;Node8 -->
<g id="edge7_Node000003_Node000008" class="edge">
<title>Node3&#45;&gt;Node8</title>
<g id="a_edge7_Node000003_Node000008"><a xlink:title=" ">
<path fill="none" stroke="#63b8ff" d="M212.52,-79.38C204.14,-74.59 195.57,-69.2 188,-63.5 169.93,-49.89 171.74,-38.56 152,-27.5 145.92,-24.1 139.22,-21.34 132.4,-19.09"/>
<polygon fill="#63b8ff" stroke="#63b8ff" points="211.04,-82.56 221.48,-84.33 214.42,-76.44 211.04,-82.56"/>
</a>
</g>
</g>
<!-- Node9&#45;&gt;Node8 -->
<g id="edge9_Node000009_Node000008" class="edge">
<title>Node9&#45;&gt;Node8</title>
<g id="a_edge9_Node000009_Node000008"><a xlink:title=" ">
<path fill="none" stroke="#63b8ff" d="M177.82,-23.25C165.62,-21.58 153.09,-19.88 141.18,-18.25"/>
<polygon fill="#63b8ff" stroke="#63b8ff" points="177.58,-26.75 187.96,-24.63 178.53,-19.81 177.58,-26.75"/>
</a>
</g>
</g>
</g>
</svg>
