<?xml version="1.0" encoding="UTF-8" standalone="no"?>
<!DOCTYPE svg PUBLIC "-//W3C//DTD SVG 1.1//EN"
 "http://www.w3.org/Graphics/SVG/1.1/DTD/svg11.dtd">
<!-- Generated by graphviz version 2.43.0 (0)
 -->
<!-- Title: SITL::MaxSonarI2CXL::rdwr Pages: 1 -->
<!--zoomable 199 -->

<svg id="main" version="1.1" xmlns="http://www.w3.org/2000/svg" xmlns:xlink="http://www.w3.org/1999/xlink" xml:space="preserve" onload="init(evt)">
<style type="text/css"><![CDATA[
.node, .edge {opacity: 0.7;}
.node.selected, .edge.selected {opacity: 1;}
.edge:hover path { stroke: red; }
.edge:hover polygon { stroke: red; fill: red; }
]]></style>

<defs>
  <circle id="rim" cx="0" cy="0" r="7"/>
  <circle id="rim2" cx="0" cy="0" r="3.5"/>
  <g id="zoomPlus">
    <use xlink:href="#rim" fill="#404040"><set attributeName="fill" to="#808080" begin="zoomplus.mouseover" end="zoomplus.mouseout"/></use>
    <path d="M-4,0h8M0,-4v8" fill="none" stroke="white" stroke-width="1.5" pointer-events="none"/>
  </g>
  <g id="zoomMin">
    <use xlink:href="#rim" fill="#404040"><set attributeName="fill" to="#808080" begin="zoomminus.mouseover" end="zoomminus.mouseout"/></use>
    <path d="M-4,0h8" fill="none" stroke="white" stroke-width="1.5" pointer-events="none"/>
  </g>
  <g id="arrowUp" transform="translate(30 24)">
    <use xlink:href="#rim"/>
    <path pointer-events="none" fill="none" stroke="white" stroke-width="1.5" d="M0,-3.0v7 M-2.5,-0.5L0,-3.0L2.5,-0.5"/>
  </g>
  <g id="arrowRight" transform="rotate(90) translate(36 -43)">
    <use xlink:href="#rim"/>
    <path pointer-events="none" fill="none" stroke="white" stroke-width="1.5" d="M0,-3.0v7 M-2.5,-0.5L0,-3.0L2.5,-0.5"/>
  </g>
  <g id="arrowDown" transform="rotate(180) translate(-30 -48)">
    <use xlink:href="#rim"/>
    <path pointer-events="none" fill="none" stroke="white" stroke-width="1.5" d="M0,-3.0v7 M-2.5,-0.5L0,-3.0L2.5,-0.5"/>
  </g>
  <g id="arrowLeft" transform="rotate(270) translate(-36 17)">
    <use xlink:href="#rim"/>
    <path pointer-events="none" fill="none" stroke="white" stroke-width="1.5" d="M0,-3.0v7 M-2.5,-0.5L0,-3.0L2.5,-0.5"/>
  </g>
  <g id="resetDef">
    <use xlink:href="#rim2" fill="#404040"><set attributeName="fill" to="#808080" begin="reset.mouseover" end="reset.mouseout"/></use>
  </g>
</defs>
<script type="application/ecmascript">
var viewWidth = 951;
var viewHeight = 199;
var sectionId = 'dynsection-2';
</script>
<script type="application/ecmascript" xlink:href="svg.min.js"/>
<svg id="graph" class="graph">
<g id="viewport">
<title>SITL::MaxSonarI2CXL::rdwr</title>
<!-- Node1 -->
<g id="Node000001" class="node">
<title>Node1</title>
<g id="a_Node000001"><a xlink:title=" ">
<polygon fill="#999999" stroke="#666666" points="119,-109.5 0,-109.5 0,-79.5 119,-79.5 119,-109.5"/>
<text text-anchor="start" x="8" y="-97.5" font-family="Helvetica,sans-Serif" font-size="10.00">SITL::MaxSonarI2CXL</text>
<text text-anchor="middle" x="59.5" y="-86.5" font-family="Helvetica,sans-Serif" font-size="10.00">::rdwr</text>
</a>
</g>
</g>
<!-- Node2 -->
<g id="Node000002" class="node">
<title>Node2</title>
<g id="a_Node000002"><a xlink:href="classSITL_1_1I2CCommandResponseDevice.html#a099d44fddf284a249dc6999e1f9d789c" target="_top" xlink:title=" ">
<polygon fill="white" stroke="#666666" points="311,-109.5 155,-109.5 155,-79.5 311,-79.5 311,-109.5"/>
<text text-anchor="start" x="163" y="-97.5" font-family="Helvetica,sans-Serif" font-size="10.00">SITL::I2CCommandResponse</text>
<text text-anchor="middle" x="233" y="-86.5" font-family="Helvetica,sans-Serif" font-size="10.00">Device::rdwr</text>
</a>
</g>
</g>
<!-- Node1&#45;&gt;Node2 -->
<g id="edge1_Node000001_Node000002" class="edge">
<title>Node1&#45;&gt;Node2</title>
<g id="a_edge1_Node000001_Node000002"><a xlink:title=" ">
<path fill="none" stroke="#63b8ff" d="M119.04,-94.5C127.34,-94.5 136.02,-94.5 144.72,-94.5"/>
<polygon fill="#63b8ff" stroke="#63b8ff" points="144.92,-98 154.92,-94.5 144.92,-91 144.92,-98"/>
</a>
</g>
</g>
<!-- Node3 -->
<g id="Node000003" class="node">
<title>Node3</title>
<g id="a_Node000003"><a xlink:href="namespaceAP__HAL.html#a77dffbb18891996280308e21316ec186" target="_top" xlink:title=" ">
<polygon fill="white" stroke="#666666" points="434,-138 347,-138 347,-119 434,-119 434,-138"/>
<text text-anchor="middle" x="390.5" y="-126" font-family="Helvetica,sans-Serif" font-size="10.00">AP_HAL::millis</text>
</a>
</g>
</g>
<!-- Node2&#45;&gt;Node3 -->
<g id="edge2_Node000002_Node000003" class="edge">
<title>Node2&#45;&gt;Node3</title>
<g id="a_edge2_Node000002_Node000003"><a xlink:title=" ">
<path fill="none" stroke="#63b8ff" d="M302.66,-109.51C314.12,-112.02 325.85,-114.58 336.83,-116.98"/>
<polygon fill="#63b8ff" stroke="#63b8ff" points="336.16,-120.42 346.67,-119.14 337.65,-113.58 336.16,-120.42"/>
</a>
</g>
</g>
<!-- Node10 -->
<g id="Node000010" class="node">
<title>Node10</title>
<g id="a_Node000010"><a xlink:href="namespaceAP__HAL.html#a52edeef7d5ffaa365e1229b87c170307" target="_top" xlink:title=" ">
<polygon fill="white" stroke="#666666" points="433.5,-86 347.5,-86 347.5,-67 433.5,-67 433.5,-86"/>
<text text-anchor="middle" x="390.5" y="-74" font-family="Helvetica,sans-Serif" font-size="10.00">AP_HAL::panic</text>
</a>
</g>
</g>
<!-- Node2&#45;&gt;Node10 -->
<g id="edge9_Node000002_Node000010" class="edge">
<title>Node2&#45;&gt;Node10</title>
<g id="a_edge9_Node000002_Node000010"><a xlink:title=" ">
<path fill="none" stroke="#63b8ff" d="M311.29,-85.55C319.98,-84.55 328.67,-83.54 336.93,-82.59"/>
<polygon fill="#63b8ff" stroke="#63b8ff" points="337.61,-86.03 347.14,-81.4 336.8,-79.08 337.61,-86.03"/>
</a>
</g>
</g>
<!-- Node4 -->
<g id="Node000004" class="node">
<title>Node4</title>
<g id="a_Node000004"><a xlink:href="hrt_8c.html#a1295f128f60d29874243b5733c4db025" target="_top" xlink:title=" ">
<polygon fill="white" stroke="#666666" points="565,-153 491,-153 491,-134 565,-134 565,-153"/>
<text text-anchor="middle" x="528" y="-141" font-family="Helvetica,sans-Serif" font-size="10.00">hrt_millis32</text>
</a>
</g>
</g>
<!-- Node3&#45;&gt;Node4 -->
<g id="edge3_Node000003_Node000004" class="edge">
<title>Node3&#45;&gt;Node4</title>
<g id="a_edge3_Node000003_Node000004"><a xlink:title=" ">
<path fill="none" stroke="#63b8ff" d="M434,-133.2C448.76,-134.84 465.38,-136.68 480.44,-138.35"/>
<polygon fill="#63b8ff" stroke="#63b8ff" points="480.26,-141.85 490.58,-139.47 481.03,-134.89 480.26,-141.85"/>
</a>
</g>
</g>
<!-- Node5 -->
<g id="Node000005" class="node">
<title>Node5</title>
<g id="a_Node000005"><a xlink:href="hrt_8c.html#a7dd7d90aadd8f76f26da7d5abfad6fe8" target="_top" xlink:title=" ">
<polygon fill="white" stroke="#666666" points="696,-153 622,-153 622,-134 696,-134 696,-153"/>
<text text-anchor="middle" x="659" y="-141" font-family="Helvetica,sans-Serif" font-size="10.00">hrt_millis64</text>
</a>
</g>
</g>
<!-- Node4&#45;&gt;Node5 -->
<g id="edge4_Node000004_Node000005" class="edge">
<title>Node4&#45;&gt;Node5</title>
<g id="a_edge4_Node000004_Node000005"><a xlink:title=" ">
<path fill="none" stroke="#63b8ff" d="M565.28,-143.5C579.69,-143.5 596.44,-143.5 611.71,-143.5"/>
<polygon fill="#63b8ff" stroke="#63b8ff" points="612,-147 622,-143.5 612,-140 612,-147"/>
</a>
</g>
</g>
<!-- Node6 -->
<g id="Node000006" class="node">
<title>Node6</title>
<g id="a_Node000006"><a xlink:href="hrt_8c.html#a152c3348a8e83f2dfe35b44cc2e30362" target="_top" xlink:title=" ">
<polygon fill="white" stroke="#666666" points="818,-172 738,-172 738,-153 818,-153 818,-172"/>
<text text-anchor="middle" x="778" y="-160" font-family="Helvetica,sans-Serif" font-size="10.00">hrt_micros64</text>
</a>
</g>
</g>
<!-- Node5&#45;&gt;Node6 -->
<g id="edge5_Node000005_Node000006" class="edge">
<title>Node5&#45;&gt;Node6</title>
<g id="a_edge5_Node000005_Node000006"><a xlink:title=" ">
<path fill="none" stroke="#63b8ff" d="M696.06,-149.36C706.03,-150.98 717.03,-152.76 727.62,-154.48"/>
<polygon fill="#63b8ff" stroke="#63b8ff" points="727.17,-157.95 737.6,-156.1 728.29,-151.04 727.17,-157.95"/>
</a>
</g>
</g>
<!-- Node9 -->
<g id="Node000009" class="node">
<title>Node9</title>
<g id="a_Node000009"><a xlink:href="div1000_8h.html#aece9e7f123414c41d0426fbadca097d8" target="_top" xlink:title=" ">
<polygon fill="white" stroke="#666666" points="824,-135 732,-135 732,-116 824,-116 824,-135"/>
<text text-anchor="middle" x="778" y="-123" font-family="Helvetica,sans-Serif" font-size="10.00">uint64_div1000</text>
</a>
</g>
</g>
<!-- Node5&#45;&gt;Node9 -->
<g id="edge8_Node000005_Node000009" class="edge">
<title>Node5&#45;&gt;Node9</title>
<g id="a_edge8_Node000005_Node000009"><a xlink:title=" ">
<path fill="none" stroke="#63b8ff" d="M696.06,-137.95C704.17,-136.71 712.95,-135.35 721.64,-134.02"/>
<polygon fill="#63b8ff" stroke="#63b8ff" points="722.41,-137.44 731.76,-132.46 721.34,-130.52 722.41,-137.44"/>
</a>
</g>
</g>
<!-- Node7 -->
<g id="Node000007" class="node">
<title>Node7</title>
<g id="a_Node000007"><a xlink:href="hrt_8c.html#a5b4ffc7ff86bd5b893c4a98834e80200" target="_top" xlink:title=" ">
<polygon fill="white" stroke="#666666" points="943,-191 860,-191 860,-172 943,-172 943,-191"/>
<text text-anchor="middle" x="901.5" y="-179" font-family="Helvetica,sans-Serif" font-size="10.00">hrt_micros64I</text>
</a>
</g>
</g>
<!-- Node6&#45;&gt;Node7 -->
<g id="edge6_Node000006_Node000007" class="edge">
<title>Node6&#45;&gt;Node7</title>
<g id="a_edge6_Node000006_Node000007"><a xlink:title=" ">
<path fill="none" stroke="#63b8ff" d="M818.11,-168.62C828.21,-170.19 839.22,-171.92 849.81,-173.57"/>
<polygon fill="#63b8ff" stroke="#63b8ff" points="849.37,-177.05 859.79,-175.13 850.45,-170.13 849.37,-177.05"/>
</a>
</g>
</g>
<!-- Node8 -->
<g id="Node000008" class="node">
<title>Node8</title>
<g id="a_Node000008"><a xlink:href="hrt_8c.html#a723fef85be7bacb834af35445a891c18" target="_top" xlink:title=" ">
<polygon fill="white" stroke="#666666" points="932.5,-154 870.5,-154 870.5,-135 932.5,-135 932.5,-154"/>
<text text-anchor="middle" x="901.5" y="-142" font-family="Helvetica,sans-Serif" font-size="10.00">is_locked</text>
</a>
</g>
</g>
<!-- Node6&#45;&gt;Node8 -->
<g id="edge7_Node000006_Node000008" class="edge">
<title>Node6&#45;&gt;Node8</title>
<g id="a_edge7_Node000006_Node000008"><a xlink:title=" ">
<path fill="none" stroke="#63b8ff" d="M818.11,-156.71C831.6,-154.71 846.73,-152.47 860.3,-150.46"/>
<polygon fill="#63b8ff" stroke="#63b8ff" points="860.95,-153.9 870.32,-148.97 859.92,-146.97 860.95,-153.9"/>
</a>
</g>
</g>
<!-- Node11 -->
<g id="Node000011" class="node">
<title>Node11</title>
<g id="a_Node000011"><a xlink:href="classAP__HAL_1_1Scheduler.html#ab3175e2e6223ccfe82f957e41cc12b26" target="_top" xlink:title=" ">
<polygon fill="white" stroke="#666666" points="585,-115.5 471,-115.5 471,-85.5 585,-85.5 585,-115.5"/>
<text text-anchor="start" x="479" y="-103.5" font-family="Helvetica,sans-Serif" font-size="10.00">AP_HAL::Scheduler::</text>
<text text-anchor="middle" x="528" y="-92.5" font-family="Helvetica,sans-Serif" font-size="10.00">delay</text>
</a>
</g>
</g>
<!-- Node10&#45;&gt;Node11 -->
<g id="edge10_Node000010_Node000011" class="edge">
<title>Node10&#45;&gt;Node11</title>
<g id="a_edge10_Node000010_Node000011"><a xlink:title=" ">
<path fill="none" stroke="#63b8ff" d="M433.63,-83.96C442.3,-85.5 451.63,-87.15 460.92,-88.8"/>
<polygon fill="#63b8ff" stroke="#63b8ff" points="460.49,-92.27 470.95,-90.57 461.71,-85.38 460.49,-92.27"/>
</a>
</g>
</g>
<!-- Node12 -->
<g id="Node000012" class="node">
<title>Node12</title>
<g id="a_Node000012"><a xlink:href="classAP__HAL_1_1Scheduler.html#a78c4f1b1f192ac1c99544b6cc8f099b0" target="_top" xlink:title=" ">
<polygon fill="white" stroke="#666666" points="586,-67.5 470,-67.5 470,-37.5 586,-37.5 586,-67.5"/>
<text text-anchor="start" x="478" y="-55.5" font-family="Helvetica,sans-Serif" font-size="10.00">AP_HAL::Scheduler::</text>
<text text-anchor="middle" x="528" y="-44.5" font-family="Helvetica,sans-Serif" font-size="10.00">delay_microseconds</text>
</a>
</g>
</g>
<!-- Node10&#45;&gt;Node12 -->
<g id="edge11_Node000010_Node000012" class="edge">
<title>Node10&#45;&gt;Node12</title>
<g id="a_edge11_Node000010_Node000012"><a xlink:title=" ">
<path fill="none" stroke="#63b8ff" d="M433.63,-69.04C441.98,-67.56 450.95,-65.97 459.9,-64.39"/>
<polygon fill="#63b8ff" stroke="#63b8ff" points="460.72,-67.79 469.96,-62.6 459.5,-60.9 460.72,-67.79"/>
</a>
</g>
</g>
<!-- Node13 -->
<g id="Node000013" class="node">
<title>Node13</title>
<g id="a_Node000013"><a xlink:href="stdio_8h.html#aae132cc6af1eb6cf43bf011d8d63e854" target="_top" xlink:title=" ">
<polygon fill="white" stroke="#666666" points="552.5,-19 503.5,-19 503.5,0 552.5,0 552.5,-19"/>
<text text-anchor="middle" x="528" y="-7" font-family="Helvetica,sans-Serif" font-size="10.00">vprintf</text>
</a>
</g>
</g>
<!-- Node10&#45;&gt;Node13 -->
<g id="edge12_Node000010_Node000013" class="edge">
<title>Node10&#45;&gt;Node13</title>
<g id="a_edge12_Node000010_Node000013"><a xlink:title=" ">
<path fill="none" stroke="#63b8ff" d="M405.15,-66.83C420.4,-56.34 446.1,-39.61 470,-28.5 477.45,-25.04 485.71,-21.91 493.58,-19.23"/>
<polygon fill="#63b8ff" stroke="#63b8ff" points="494.81,-22.51 503.24,-16.1 492.65,-15.85 494.81,-22.51"/>
</a>
</g>
</g>
</g>
</svg>

<g id="navigator" transform="translate(0 0)" fill="#404254">
  <rect fill="#f2f5e9" fill-opacity="0.5" stroke="#606060" stroke-width=".5" x="0" y="0" width="60" height="60"/>
  <use id="zoomplus" xlink:href="#zoomPlus" x="17" y="9" onmousedown="handleZoom(evt,'in')"/>
  <use id="zoomminus" xlink:href="#zoomMin" x="42" y="9" onmousedown="handleZoom(evt,'out')"/>
  <use id="reset" xlink:href="#resetDef" x="30" y="36" onmousedown="handleReset()"/>
   <use id="arrowup" xlink:href="#arrowUp" x="0" y="0" onmousedown="handlePan(0,-1)"/>
  <use id="arrowright" xlink:href="#arrowRight" x="0" y="0" onmousedown="handlePan(1,0)"/>
  <use id="arrowdown" xlink:href="#arrowDown" x="0" y="0" onmousedown="handlePan(0,1)"/>
  <use id="arrowleft" xlink:href="#arrowLeft" x="0" y="0" onmousedown="handlePan(-1,0)"/>
</g>
<svg viewBox="0 0 15 15" width="100%" height="30px" preserveAspectRatio="xMaxYMin meet">
 <g id="arrow_out" transform="scale(0.3 0.3)">
  <a xlink:href="classSITL_1_1MaxSonarI2CXL_ad5235fa8165a20aeb41f11d3d4a07315_cgraph_org.svg" target="_base">
   <rect id="button" ry="5" rx="5" y="6" x="6" height="38" width="38"
        fill="#f2f5e9" fill-opacity="0.5" stroke="#606060" stroke-width="1.0"/>
   <path id="arrow"
     d="M 11.500037,31.436501 C 11.940474,20.09759 22.043105,11.32322 32.158766,21.979434 L 37.068811,17.246167 C 37.068811,17.246167 37.088388,32 37.088388,32 L 22.160133,31.978069 C 22.160133,31.978069 26.997745,27.140456 26.997745,27.140456 C 18.528582,18.264221 13.291696,25.230495 11.500037,31.436501 z"
     style="fill:#404040;"/>
  </a>
 </g>
</svg>

<style type='text/css'>
<![CDATA[
[data-mouse-over-selected='false'] { opacity: 0.7; }
[data-mouse-over-selected='true']  { opacity: 1.0; }
]]>
</style>
<script type="application/ecmascript"><![CDATA[
document.addEventListener('DOMContentLoaded', (event) => {
  highlightEdges();
  highlightAdjacentNodes();
});
]]></script>
</svg>
