<?xml version="1.0" encoding="UTF-8" standalone="no"?>
<!DOCTYPE svg PUBLIC "-//W3C//DTD SVG 1.1//EN"
 "http://www.w3.org/Graphics/SVG/1.1/DTD/svg11.dtd">
<!-- Generated by graphviz version 2.43.0 (0)
 -->
<!-- Title: AP_Logger_Block::CardInserted Pages: 1 -->
<svg width="745pt" height="182pt"
 viewBox="0.00 0.00 745.00 182.00" xmlns="http://www.w3.org/2000/svg" xmlns:xlink="http://www.w3.org/1999/xlink">
<g id="graph0" class="graph" transform="scale(1 1) rotate(0) translate(4 178)">
<title>AP_Logger_Block::CardInserted</title>
<!-- Node1 -->
<g id="Node000001" class="node">
<title>Node1</title>
<g id="a_Node000001"><a xlink:title=" ">
<polygon fill="#999999" stroke="#666666" points="737,-95.5 569,-95.5 569,-76.5 737,-76.5 737,-95.5"/>
<text text-anchor="middle" x="653" y="-83.5" font-family="Helvetica,sans-Serif" font-size="10.00">AP_Logger_Block::CardInserted</text>
</a>
</g>
</g>
<!-- Node2 -->
<g id="Node000002" class="node">
<title>Node2</title>
<g id="a_Node000002"><a xlink:href="classAP__Logger__Block.html#a25f50b4c776adc88849d7acf22b18f5b" target="_top" xlink:title=" ">
<polygon fill="white" stroke="#666666" points="518,-170 396,-170 396,-140 518,-140 518,-170"/>
<text text-anchor="start" x="404" y="-158" font-family="Helvetica,sans-Serif" font-size="10.00">AP_Logger_Block::get</text>
<text text-anchor="middle" x="457" y="-147" font-family="Helvetica,sans-Serif" font-size="10.00">_num_logs</text>
</a>
</g>
</g>
<!-- Node1&#45;&gt;Node2 -->
<g id="edge1_Node000001_Node000002" class="edge">
<title>Node1&#45;&gt;Node2</title>
<g id="a_edge1_Node000001_Node000002"><a xlink:title=" ">
<path fill="none" stroke="#63b8ff" d="M615.4,-99.02C582.69,-110.65 534.77,-127.69 500.41,-139.92"/>
<polygon fill="#63b8ff" stroke="#63b8ff" points="616.78,-102.24 625.03,-95.59 614.43,-95.65 616.78,-102.24"/>
</a>
</g>
</g>
<!-- Node5 -->
<g id="Node000005" class="node">
<title>Node5</title>
<g id="a_Node000005"><a xlink:href="classAP__Logger__Block.html#a9c268769f4ddf3cb114609d55ed00d4b" target="_top" xlink:title=" ">
<polygon fill="white" stroke="#666666" points="518,-117.5 396,-117.5 396,-98.5 518,-98.5 518,-117.5"/>
<text text-anchor="middle" x="457" y="-105.5" font-family="Helvetica,sans-Serif" font-size="10.00">AP_Logger_Block::Init</text>
</a>
</g>
</g>
<!-- Node1&#45;&gt;Node5 -->
<g id="edge4_Node000001_Node000005" class="edge">
<title>Node1&#45;&gt;Node5</title>
<g id="a_edge4_Node000001_Node000005"><a xlink:title=" ">
<path fill="none" stroke="#63b8ff" d="M558.83,-96.57C544.97,-98.14 531.01,-99.72 518.08,-101.19"/>
<polygon fill="#63b8ff" stroke="#63b8ff" points="559.34,-100.03 568.88,-95.43 558.55,-93.07 559.34,-100.03"/>
</a>
</g>
</g>
<!-- Node8 -->
<g id="Node000008" class="node">
<title>Node8</title>
<g id="a_Node000008"><a xlink:href="classAP__Logger__Block.html#ad462fb0b2b771c5a2d7774e073126c0f" target="_top" xlink:title=" ">
<polygon fill="white" stroke="#666666" points="514.5,-80 399.5,-80 399.5,-50 514.5,-50 514.5,-80"/>
<text text-anchor="start" x="407.5" y="-68" font-family="Helvetica,sans-Serif" font-size="10.00">AP_Logger_Block::io</text>
<text text-anchor="middle" x="457" y="-57" font-family="Helvetica,sans-Serif" font-size="10.00">_timer</text>
</a>
</g>
</g>
<!-- Node1&#45;&gt;Node8 -->
<g id="edge7_Node000001_Node000008" class="edge">
<title>Node1&#45;&gt;Node8</title>
<g id="a_edge7_Node000001_Node000008"><a xlink:title=" ">
<path fill="none" stroke="#63b8ff" d="M558.53,-75.88C543.53,-74.26 528.41,-72.62 514.63,-71.13"/>
<polygon fill="#63b8ff" stroke="#63b8ff" points="558.56,-79.41 568.88,-77 559.32,-72.45 558.56,-79.41"/>
</a>
</g>
</g>
<!-- Node9 -->
<g id="Node000009" class="node">
<title>Node9</title>
<g id="a_Node000009"><a xlink:href="classAP__Logger__Block.html#a264be25a9bf5768c25d512b337017e6d" target="_top" xlink:title=" ">
<polygon fill="white" stroke="#666666" points="533,-29.5 381,-29.5 381,-10.5 533,-10.5 533,-29.5"/>
<text text-anchor="middle" x="457" y="-17.5" font-family="Helvetica,sans-Serif" font-size="10.00">AP_Logger_Block::WritesOK</text>
</a>
</g>
</g>
<!-- Node1&#45;&gt;Node9 -->
<g id="edge8_Node000001_Node000009" class="edge">
<title>Node1&#45;&gt;Node9</title>
<g id="a_edge8_Node000001_Node000009"><a xlink:title=" ">
<path fill="none" stroke="#63b8ff" d="M618.94,-72.6C595.21,-63.2 562.38,-50.65 533,-41 520.54,-36.91 506.75,-32.9 494.44,-29.5"/>
<polygon fill="#63b8ff" stroke="#63b8ff" points="617.93,-75.96 628.51,-76.41 620.52,-69.46 617.93,-75.96"/>
</a>
</g>
</g>
<!-- Node3 -->
<g id="Node000003" class="node">
<title>Node3</title>
<g id="a_Node000003"><a xlink:href="classAP__Logger__Block.html#afbb63d6c065a8e755dc4d382d0784162" target="_top" xlink:title=" ">
<polygon fill="white" stroke="#666666" points="312.5,-174 190.5,-174 190.5,-144 312.5,-144 312.5,-174"/>
<text text-anchor="start" x="198.5" y="-162" font-family="Helvetica,sans-Serif" font-size="10.00">AP_Logger_Block::get</text>
<text text-anchor="middle" x="251.5" y="-151" font-family="Helvetica,sans-Serif" font-size="10.00">_log_boundaries</text>
</a>
</g>
</g>
<!-- Node2&#45;&gt;Node3 -->
<g id="edge2_Node000002_Node000003" class="edge">
<title>Node2&#45;&gt;Node3</title>
<g id="a_edge2_Node000002_Node000003"><a xlink:title=" ">
<path fill="none" stroke="#63b8ff" d="M385.73,-156.38C361.91,-156.85 335.53,-157.37 312.58,-157.82"/>
<polygon fill="#63b8ff" stroke="#63b8ff" points="385.84,-159.88 395.77,-156.18 385.7,-152.88 385.84,-159.88"/>
</a>
</g>
</g>
<!-- Node4 -->
<g id="Node000004" class="node">
<title>Node4</title>
<g id="a_Node000004"><a xlink:href="classAP__Logger__Block.html#a0fe9a2bf37c54803b00cd1dfd4b1f81f" target="_top" xlink:title=" ">
<polygon fill="white" stroke="#666666" points="122,-174 0,-174 0,-144 122,-144 122,-174"/>
<text text-anchor="start" x="8" y="-162" font-family="Helvetica,sans-Serif" font-size="10.00">AP_Logger_Block::get</text>
<text text-anchor="middle" x="61" y="-151" font-family="Helvetica,sans-Serif" font-size="10.00">_log_info</text>
</a>
</g>
</g>
<!-- Node3&#45;&gt;Node4 -->
<g id="edge3_Node000003_Node000004" class="edge">
<title>Node3&#45;&gt;Node4</title>
<g id="a_edge3_Node000003_Node000004"><a xlink:title=" ">
<path fill="none" stroke="#63b8ff" d="M180.22,-159C161.15,-159 140.69,-159 122.24,-159"/>
<polygon fill="#63b8ff" stroke="#63b8ff" points="180.34,-162.5 190.34,-159 180.34,-155.5 180.34,-162.5"/>
</a>
</g>
</g>
<!-- Node6 -->
<g id="Node000006" class="node">
<title>Node6</title>
<g id="a_Node000006"><a xlink:href="classAP__Logger__Flash__JEDEC.html#a7f88c68085840c7a312134f4dbd261c0" target="_top" xlink:title=" ">
<polygon fill="white" stroke="#666666" points="318.5,-126 184.5,-126 184.5,-96 318.5,-96 318.5,-126"/>
<text text-anchor="start" x="192.5" y="-114" font-family="Helvetica,sans-Serif" font-size="10.00">AP_Logger_Flash_JEDEC</text>
<text text-anchor="middle" x="251.5" y="-103" font-family="Helvetica,sans-Serif" font-size="10.00">::Init</text>
</a>
</g>
</g>
<!-- Node5&#45;&gt;Node6 -->
<g id="edge5_Node000005_Node000006" class="edge">
<title>Node5&#45;&gt;Node6</title>
<g id="a_edge5_Node000005_Node000006"><a xlink:title=" ">
<path fill="none" stroke="#63b8ff" d="M385.62,-109.04C363.9,-109.36 340.05,-109.71 318.62,-110.03"/>
<polygon fill="#63b8ff" stroke="#63b8ff" points="385.82,-112.54 395.77,-108.89 385.72,-105.54 385.82,-112.54"/>
</a>
</g>
</g>
<!-- Node7 -->
<g id="Node000007" class="node">
<title>Node7</title>
<g id="a_Node000007"><a xlink:href="classAP__Logger__W25N01GV.html#a055dfde9685848d3a6476877f23e6d86" target="_top" xlink:title=" ">
<polygon fill="white" stroke="#666666" points="315.5,-78 187.5,-78 187.5,-48 315.5,-48 315.5,-78"/>
<text text-anchor="start" x="195.5" y="-66" font-family="Helvetica,sans-Serif" font-size="10.00">AP_Logger_W25N01GV</text>
<text text-anchor="middle" x="251.5" y="-55" font-family="Helvetica,sans-Serif" font-size="10.00">::Init</text>
</a>
</g>
</g>
<!-- Node5&#45;&gt;Node7 -->
<g id="edge6_Node000005_Node000007" class="edge">
<title>Node5&#45;&gt;Node7</title>
<g id="a_edge6_Node000005_Node000007"><a xlink:title=" ">
<path fill="none" stroke="#63b8ff" d="M402.92,-96.26C376.22,-90.36 343.67,-83.16 315.69,-76.97"/>
<polygon fill="#63b8ff" stroke="#63b8ff" points="402.32,-99.71 412.84,-98.46 403.83,-92.88 402.32,-99.71"/>
</a>
</g>
</g>
<!-- Node10 -->
<g id="Node000010" class="node">
<title>Node10</title>
<g id="a_Node000010"><a xlink:href="classAP__Logger__Block.html#aca670ce37c20dcdad7c4b9cf40a37005" target="_top" xlink:title=" ">
<polygon fill="white" stroke="#666666" points="345,-30 158,-30 158,0 345,0 345,-30"/>
<text text-anchor="start" x="166" y="-18" font-family="Helvetica,sans-Serif" font-size="10.00">AP_Logger_Block::_WritePrioritised</text>
<text text-anchor="middle" x="251.5" y="-7" font-family="Helvetica,sans-Serif" font-size="10.00">Block</text>
</a>
</g>
</g>
<!-- Node9&#45;&gt;Node10 -->
<g id="edge9_Node000009_Node000010" class="edge">
<title>Node9&#45;&gt;Node10</title>
<g id="a_edge9_Node000009_Node000010"><a xlink:title=" ">
<path fill="none" stroke="#63b8ff" d="M370.68,-17.9C362.31,-17.7 353.78,-17.49 345.34,-17.28"/>
<polygon fill="#63b8ff" stroke="#63b8ff" points="370.72,-21.41 380.8,-18.15 370.89,-14.41 370.72,-21.41"/>
</a>
</g>
</g>
</g>
</svg>
