<?xml version="1.0" encoding="UTF-8" standalone="no"?>
<!DOCTYPE svg PUBLIC "-//W3C//DTD SVG 1.1//EN"
 "http://www.w3.org/Graphics/SVG/1.1/DTD/svg11.dtd">
<!-- Generated by graphviz version 2.43.0 (0)
 -->
<!-- Title: AP_HAL::HAL Pages: 1 -->
<svg width="593pt" height="82pt"
 viewBox="0.00 0.00 592.50 82.00" xmlns="http://www.w3.org/2000/svg" xmlns:xlink="http://www.w3.org/1999/xlink">
<g id="graph0" class="graph" transform="scale(1 1) rotate(0) translate(4 78)">
<title>AP_HAL::HAL</title>
<!-- Node1 -->
<g id="Node000001" class="node">
<title>Node1</title>
<g id="a_Node000001"><a xlink:title=" ">
<polygon fill="#999999" stroke="#666666" points="376.5,-74 296.5,-74 296.5,-55 376.5,-55 376.5,-74"/>
<text text-anchor="middle" x="336.5" y="-62" font-family="Helvetica,sans-Serif" font-size="10.00">AP_HAL::HAL</text>
</a>
</g>
</g>
<!-- Node2 -->
<g id="Node000002" class="node">
<title>Node2</title>
<g id="a_Node000002"><a xlink:href="classAP__HAL__DAL__Standalone.html" target="_top" xlink:title=" ">
<polygon fill="white" stroke="#666666" points="139,-19 0,-19 0,0 139,0 139,-19"/>
<text text-anchor="middle" x="69.5" y="-7" font-family="Helvetica,sans-Serif" font-size="10.00">AP_HAL_DAL_Standalone</text>
</a>
</g>
</g>
<!-- Node1&#45;&gt;Node2 -->
<g id="edge1_Node000001_Node000002" class="edge">
<title>Node1&#45;&gt;Node2</title>
<g id="a_edge1_Node000001_Node000002"><a xlink:title=" ">
<path fill="none" stroke="#63b8ff" d="M286.28,-53.53C236.24,-43.6 160.2,-28.5 112.75,-19.09"/>
<polygon fill="#63b8ff" stroke="#63b8ff" points="285.75,-56.99 296.24,-55.51 287.11,-50.13 285.75,-56.99"/>
</a>
</g>
</g>
<!-- Node3 -->
<g id="Node000003" class="node">
<title>Node3</title>
<g id="a_Node000003"><a xlink:href="classHAL__ChibiOS.html" target="_top" xlink:title=" ">
<polygon fill="white" stroke="#666666" points="237.5,-19 157.5,-19 157.5,0 237.5,0 237.5,-19"/>
<text text-anchor="middle" x="197.5" y="-7" font-family="Helvetica,sans-Serif" font-size="10.00">HAL_ChibiOS</text>
</a>
</g>
</g>
<!-- Node1&#45;&gt;Node3 -->
<g id="edge2_Node000001_Node000003" class="edge">
<title>Node1&#45;&gt;Node3</title>
<g id="a_edge2_Node000001_Node000003"><a xlink:title=" ">
<path fill="none" stroke="#63b8ff" d="M304.82,-51.42C279.03,-41.59 243.26,-27.95 220.24,-19.17"/>
<polygon fill="#63b8ff" stroke="#63b8ff" points="303.58,-54.69 314.17,-54.98 306.07,-48.15 303.58,-54.69"/>
</a>
</g>
</g>
<!-- Node4 -->
<g id="Node000004" class="node">
<title>Node4</title>
<g id="a_Node000004"><a xlink:href="classHAL__ESP32.html" target="_top" xlink:title=" ">
<polygon fill="white" stroke="#666666" points="327,-19 256,-19 256,0 327,0 327,-19"/>
<text text-anchor="middle" x="291.5" y="-7" font-family="Helvetica,sans-Serif" font-size="10.00">HAL_ESP32</text>
</a>
</g>
</g>
<!-- Node1&#45;&gt;Node4 -->
<g id="edge3_Node000001_Node000004" class="edge">
<title>Node1&#45;&gt;Node4</title>
<g id="a_edge3_Node000001_Node000004"><a xlink:title=" ">
<path fill="none" stroke="#63b8ff" d="M322.45,-46.96C314.61,-37.72 305.17,-26.6 298.79,-19.09"/>
<polygon fill="#63b8ff" stroke="#63b8ff" points="319.93,-49.39 329.07,-54.75 325.26,-44.86 319.93,-49.39"/>
</a>
</g>
</g>
<!-- Node5 -->
<g id="Node000005" class="node">
<title>Node5</title>
<g id="a_Node000005"><a xlink:href="classHAL__Empty.html" target="_top" xlink:title=" ">
<polygon fill="white" stroke="#666666" points="418,-19 345,-19 345,0 418,0 418,-19"/>
<text text-anchor="middle" x="381.5" y="-7" font-family="Helvetica,sans-Serif" font-size="10.00">HAL_Empty</text>
</a>
</g>
</g>
<!-- Node1&#45;&gt;Node5 -->
<g id="edge4_Node000001_Node000005" class="edge">
<title>Node1&#45;&gt;Node5</title>
<g id="a_edge4_Node000001_Node000005"><a xlink:title=" ">
<path fill="none" stroke="#63b8ff" d="M350.55,-46.96C358.39,-37.72 367.83,-26.6 374.21,-19.09"/>
<polygon fill="#63b8ff" stroke="#63b8ff" points="347.74,-44.86 343.93,-54.75 353.07,-49.39 347.74,-44.86"/>
</a>
</g>
</g>
<!-- Node6 -->
<g id="Node000006" class="node">
<title>Node6</title>
<g id="a_Node000006"><a xlink:href="classHAL__Linux.html" target="_top" xlink:title=" ">
<polygon fill="white" stroke="#666666" points="504.5,-19 436.5,-19 436.5,0 504.5,0 504.5,-19"/>
<text text-anchor="middle" x="470.5" y="-7" font-family="Helvetica,sans-Serif" font-size="10.00">HAL_Linux</text>
</a>
</g>
</g>
<!-- Node1&#45;&gt;Node6 -->
<g id="edge5_Node000001_Node000006" class="edge">
<title>Node1&#45;&gt;Node6</title>
<g id="a_edge5_Node000001_Node000006"><a xlink:title=" ">
<path fill="none" stroke="#63b8ff" d="M367.37,-51.29C392.2,-41.47 426.49,-27.91 448.58,-19.17"/>
<polygon fill="#63b8ff" stroke="#63b8ff" points="366.04,-48.05 358.03,-54.98 368.62,-54.56 366.04,-48.05"/>
</a>
</g>
</g>
<!-- Node7 -->
<g id="Node000007" class="node">
<title>Node7</title>
<g id="a_Node000007"><a xlink:href="classHAL__SITL.html" target="_top" xlink:title=" ">
<polygon fill="white" stroke="#666666" points="584.5,-19 522.5,-19 522.5,0 584.5,0 584.5,-19"/>
<text text-anchor="middle" x="553.5" y="-7" font-family="Helvetica,sans-Serif" font-size="10.00">HAL_SITL</text>
</a>
</g>
</g>
<!-- Node1&#45;&gt;Node7 -->
<g id="edge6_Node000001_Node000007" class="edge">
<title>Node1&#45;&gt;Node7</title>
<g id="a_edge6_Node000001_Node000007"><a xlink:title=" ">
<path fill="none" stroke="#63b8ff" d="M381.35,-52.55C423.42,-42.27 485.27,-27.17 522.24,-18.13"/>
<polygon fill="#63b8ff" stroke="#63b8ff" points="380.25,-49.21 371.36,-54.98 381.91,-56.01 380.25,-49.21"/>
</a>
</g>
</g>
</g>
</svg>
