<?xml version="1.0" encoding="UTF-8" standalone="no"?>
<!DOCTYPE svg PUBLIC "-//W3C//DTD SVG 1.1//EN"
 "http://www.w3.org/Graphics/SVG/1.1/DTD/svg11.dtd">
<!-- Generated by graphviz version 2.43.0 (0)
 -->
<!-- Title: AP_Filesystem::crc32 Pages: 1 -->
<svg width="453pt" height="230pt"
 viewBox="0.00 0.00 453.00 230.00" xmlns="http://www.w3.org/2000/svg" xmlns:xlink="http://www.w3.org/1999/xlink">

<svg id="main" version="1.1" xmlns="http://www.w3.org/2000/svg" xmlns:xlink="http://www.w3.org/1999/xlink" xml:space="preserve" onload="init(evt)">
<style type="text/css"><![CDATA[
.node, .edge {opacity: 0.7;}
.node.selected, .edge.selected {opacity: 1;}
.edge:hover path { stroke: red; }
.edge:hover polygon { stroke: red; fill: red; }
]]></style>
<script type="application/ecmascript" xlink:href="svg.min.js"/>
<svg id="graph" class="graph">
<g id="graph0" class="graph" transform="scale(1 1) rotate(0) translate(4 226)">
<title>AP_Filesystem::crc32</title>
<!-- Node1 -->
<g id="Node000001" class="node">
<title>Node1</title>
<g id="a_Node000001"><a xlink:title=" ">
<polygon fill="#999999" stroke="#666666" points="120,-107.5 0,-107.5 0,-88.5 120,-88.5 120,-107.5"/>
<text text-anchor="middle" x="60" y="-95.5" font-family="Helvetica,sans-Serif" font-size="10.00">AP_Filesystem::crc32</text>
</a>
</g>
</g>
<!-- Node2 -->
<g id="Node000002" class="node">
<title>Node2</title>
<g id="a_Node000002"><a xlink:href="classAP__Filesystem.html#afaae8b39b75584a4a51886ff1c44b414" target="_top" xlink:title=" ">
<polygon fill="white" stroke="#666666" points="275,-126.5 156,-126.5 156,-107.5 275,-107.5 275,-126.5"/>
<text text-anchor="middle" x="215.5" y="-114.5" font-family="Helvetica,sans-Serif" font-size="10.00">AP_Filesystem::close</text>
</a>
</g>
</g>
<!-- Node1&#45;&gt;Node2 -->
<g id="edge1_Node000001_Node000002" class="edge">
<title>Node1&#45;&gt;Node2</title>
<g id="a_edge1_Node000001_Node000002"><a xlink:title=" ">
<path fill="none" stroke="#63b8ff" d="M120.35,-105.35C128.62,-106.37 137.19,-107.43 145.62,-108.47"/>
<polygon fill="#63b8ff" stroke="#63b8ff" points="145.46,-111.98 155.82,-109.74 146.32,-105.03 145.46,-111.98"/>
</a>
</g>
</g>
<!-- Node5 -->
<g id="Node000005" class="node">
<title>Node5</title>
<g id="a_Node000005"><a xlink:href="crc_8cpp.html#a6883728567d1a4e1d28ca0f725fe79cc" target="_top" xlink:title=" ">
<polygon fill="white" stroke="#666666" points="246.5,-52.5 184.5,-52.5 184.5,-33.5 246.5,-33.5 246.5,-52.5"/>
<text text-anchor="middle" x="215.5" y="-40.5" font-family="Helvetica,sans-Serif" font-size="10.00">crc_crc32</text>
</a>
</g>
</g>
<!-- Node1&#45;&gt;Node5 -->
<g id="edge4_Node000001_Node000005" class="edge">
<title>Node1&#45;&gt;Node5</title>
<g id="a_edge4_Node000001_Node000005"><a xlink:title=" ">
<path fill="none" stroke="#63b8ff" d="M85.49,-88.35C104.6,-80.91 131.87,-70.48 156,-62 162.02,-59.88 168.41,-57.72 174.67,-55.65"/>
<polygon fill="#63b8ff" stroke="#63b8ff" points="175.93,-58.92 184.35,-52.49 173.75,-52.27 175.93,-58.92"/>
</a>
</g>
</g>
<!-- Node6 -->
<g id="Node000006" class="node">
<title>Node6</title>
<g id="a_Node000006"><a xlink:href="classAP__Filesystem.html#a0ca70241ac482c4349fe1340a2b7f173" target="_top" xlink:title=" ">
<polygon fill="white" stroke="#666666" points="274.5,-89.5 156.5,-89.5 156.5,-70.5 274.5,-70.5 274.5,-89.5"/>
<text text-anchor="middle" x="215.5" y="-77.5" font-family="Helvetica,sans-Serif" font-size="10.00">AP_Filesystem::open</text>
</a>
</g>
</g>
<!-- Node1&#45;&gt;Node6 -->
<g id="edge5_Node000001_Node000006" class="edge">
<title>Node1&#45;&gt;Node6</title>
<g id="a_edge5_Node000001_Node000006"><a xlink:title=" ">
<path fill="none" stroke="#63b8ff" d="M120.35,-91.04C128.84,-90.05 137.63,-89.01 146.27,-88"/>
<polygon fill="#63b8ff" stroke="#63b8ff" points="146.8,-91.46 156.32,-86.82 145.98,-84.51 146.8,-91.46"/>
</a>
</g>
</g>
<!-- Node9 -->
<g id="Node000009" class="node">
<title>Node9</title>
<g id="a_Node000009"><a xlink:href="classAP__Filesystem.html#ab24f7b02a3521b81037f580911c612dc" target="_top" xlink:title=" ">
<polygon fill="white" stroke="#666666" points="273.5,-168.5 157.5,-168.5 157.5,-149.5 273.5,-149.5 273.5,-168.5"/>
<text text-anchor="middle" x="215.5" y="-156.5" font-family="Helvetica,sans-Serif" font-size="10.00">AP_Filesystem::read</text>
</a>
</g>
</g>
<!-- Node1&#45;&gt;Node9 -->
<g id="edge9_Node000001_Node000009" class="edge">
<title>Node1&#45;&gt;Node9</title>
<g id="a_edge9_Node000001_Node000009"><a xlink:title=" ">
<path fill="none" stroke="#63b8ff" d="M84.8,-107.57C104.01,-115.27 131.73,-126.37 156,-136 163.93,-139.15 172.48,-142.52 180.52,-145.68"/>
<polygon fill="#63b8ff" stroke="#63b8ff" points="179.42,-149.01 190.01,-149.41 181.98,-142.49 179.42,-149.01"/>
</a>
</g>
</g>
<!-- Node3 -->
<g id="Node000003" class="node">
<title>Node3</title>
<g id="a_Node000003"><a xlink:href="classAP__Filesystem.html#a5682ad982f41d40f6e9894441e27a710" target="_top" xlink:title=" ">
<polygon fill="white" stroke="#666666" points="445,-174 311,-174 311,-144 445,-144 445,-174"/>
<text text-anchor="start" x="319" y="-162" font-family="Helvetica,sans-Serif" font-size="10.00">AP_Filesystem::backend</text>
<text text-anchor="middle" x="378" y="-151" font-family="Helvetica,sans-Serif" font-size="10.00">_by_fd</text>
</a>
</g>
</g>
<!-- Node2&#45;&gt;Node3 -->
<g id="edge2_Node000002_Node000003" class="edge">
<title>Node2&#45;&gt;Node3</title>
<g id="a_edge2_Node000002_Node000003"><a xlink:title=" ">
<path fill="none" stroke="#63b8ff" d="M252.92,-126.53C269.77,-130.94 290.35,-136.32 309.86,-141.43"/>
<polygon fill="#63b8ff" stroke="#63b8ff" points="309.07,-144.84 319.63,-143.99 310.84,-138.07 309.07,-144.84"/>
</a>
</g>
</g>
<!-- Node4 -->
<g id="Node000004" class="node">
<title>Node4</title>
<g id="a_Node000004"><a xlink:href="classAP__Filesystem__Backend.html#a88375cae2f2ffc27fd1dd7b6d3c7d920" target="_top" xlink:title=" ">
<polygon fill="white" stroke="#666666" points="445,-126 311,-126 311,-96 445,-96 445,-126"/>
<text text-anchor="start" x="319" y="-114" font-family="Helvetica,sans-Serif" font-size="10.00">AP_Filesystem_Backend</text>
<text text-anchor="middle" x="378" y="-103" font-family="Helvetica,sans-Serif" font-size="10.00">::close</text>
</a>
</g>
</g>
<!-- Node2&#45;&gt;Node4 -->
<g id="edge3_Node000002_Node000004" class="edge">
<title>Node2&#45;&gt;Node4</title>
<g id="a_edge3_Node000002_Node000004"><a xlink:title=" ">
<path fill="none" stroke="#63b8ff" d="M275.35,-114.8C283.65,-114.49 292.27,-114.17 300.83,-113.85"/>
<polygon fill="#63b8ff" stroke="#63b8ff" points="300.97,-117.34 310.83,-113.47 300.71,-110.35 300.97,-117.34"/>
</a>
</g>
</g>
<!-- Node6&#45;&gt;Node4 -->
<g id="edge7_Node000006_Node000004" class="edge">
<title>Node6&#45;&gt;Node4</title>
<g id="a_edge7_Node000006_Node000004"><a xlink:title=" ">
<path fill="none" stroke="#63b8ff" d="M265.96,-89.55C277.05,-91.69 289.05,-94.01 300.93,-96.31"/>
<polygon fill="#63b8ff" stroke="#63b8ff" points="300.38,-99.77 310.86,-98.23 301.71,-92.89 300.38,-99.77"/>
</a>
</g>
</g>
<!-- Node7 -->
<g id="Node000007" class="node">
<title>Node7</title>
<g id="a_Node000007"><a xlink:href="classAP__Filesystem.html#ae03b772863a63c09f62d69bfc0a79554" target="_top" xlink:title=" ">
<polygon fill="white" stroke="#666666" points="445,-78 311,-78 311,-48 445,-48 445,-78"/>
<text text-anchor="start" x="319" y="-66" font-family="Helvetica,sans-Serif" font-size="10.00">AP_Filesystem::backend</text>
<text text-anchor="middle" x="378" y="-55" font-family="Helvetica,sans-Serif" font-size="10.00">_by_path</text>
</a>
</g>
</g>
<!-- Node6&#45;&gt;Node7 -->
<g id="edge6_Node000006_Node000007" class="edge">
<title>Node6&#45;&gt;Node7</title>
<g id="a_edge6_Node000006_Node000007"><a xlink:title=" ">
<path fill="none" stroke="#63b8ff" d="M274.9,-73.81C283.27,-72.93 291.99,-72 300.65,-71.09"/>
<polygon fill="#63b8ff" stroke="#63b8ff" points="301.19,-74.55 310.76,-70.02 300.45,-67.59 301.19,-74.55"/>
</a>
</g>
</g>
<!-- Node8 -->
<g id="Node000008" class="node">
<title>Node8</title>
<g id="a_Node000008"><a xlink:href="classAP__Filesystem__Backend.html#a934054e6eeeb105d07a365b7c532707a" target="_top" xlink:title=" ">
<polygon fill="white" stroke="#666666" points="445,-30 311,-30 311,0 445,0 445,-30"/>
<text text-anchor="start" x="319" y="-18" font-family="Helvetica,sans-Serif" font-size="10.00">AP_Filesystem_Backend</text>
<text text-anchor="middle" x="378" y="-7" font-family="Helvetica,sans-Serif" font-size="10.00">::open</text>
</a>
</g>
</g>
<!-- Node6&#45;&gt;Node8 -->
<g id="edge8_Node000006_Node000008" class="edge">
<title>Node6&#45;&gt;Node8</title>
<g id="a_edge8_Node000006_Node000008"><a xlink:title=" ">
<path fill="none" stroke="#63b8ff" d="M252.96,-70.45C260.39,-68.04 268.06,-65.21 275,-62 292.23,-54.02 293.98,-47.41 311,-39 314.53,-37.26 318.21,-35.57 321.96,-33.96"/>
<polygon fill="#63b8ff" stroke="#63b8ff" points="323.44,-37.14 331.36,-30.11 320.78,-30.66 323.44,-37.14"/>
</a>
</g>
</g>
<!-- Node9&#45;&gt;Node3 -->
<g id="edge10_Node000009_Node000003" class="edge">
<title>Node9&#45;&gt;Node3</title>
<g id="a_edge10_Node000009_Node000003"><a xlink:title=" ">
<path fill="none" stroke="#63b8ff" d="M273.54,-159C282.31,-159 291.49,-159 300.6,-159"/>
<polygon fill="#63b8ff" stroke="#63b8ff" points="300.83,-162.5 310.83,-159 300.83,-155.5 300.83,-162.5"/>
</a>
</g>
</g>
<!-- Node10 -->
<g id="Node000010" class="node">
<title>Node10</title>
<g id="a_Node000010"><a xlink:href="classAP__Filesystem__Backend.html#a620b25a9ec01dd296cb22c0e02d5d9df" target="_top" xlink:title=" ">
<polygon fill="white" stroke="#666666" points="445,-222 311,-222 311,-192 445,-192 445,-222"/>
<text text-anchor="start" x="319" y="-210" font-family="Helvetica,sans-Serif" font-size="10.00">AP_Filesystem_Backend</text>
<text text-anchor="middle" x="378" y="-199" font-family="Helvetica,sans-Serif" font-size="10.00">::read</text>
</a>
</g>
</g>
<!-- Node9&#45;&gt;Node10 -->
<g id="edge11_Node000009_Node000010" class="edge">
<title>Node9&#45;&gt;Node10</title>
<g id="a_edge11_Node000009_Node000010"><a xlink:title=" ">
<path fill="none" stroke="#63b8ff" d="M248.59,-168.6C268.12,-174.44 293.69,-182.09 316.87,-189.02"/>
<polygon fill="#63b8ff" stroke="#63b8ff" points="316.05,-192.42 326.63,-191.94 318.06,-185.72 316.05,-192.42"/>
</a>
</g>
</g>
</g>
</svg>
</svg>

<style type='text/css'>
<![CDATA[
[data-mouse-over-selected='false'] { opacity: 0.7; }
[data-mouse-over-selected='true']  { opacity: 1.0; }
]]>
</style>
<script type="application/ecmascript"><![CDATA[
document.addEventListener('DOMContentLoaded', (event) => {
  highlightEdges();
  highlightAdjacentNodes();
});
]]></script>
</svg>
