<?xml version="1.0" encoding="UTF-8" standalone="no"?>
<!DOCTYPE svg PUBLIC "-//W3C//DTD SVG 1.1//EN"
 "http://www.w3.org/Graphics/SVG/1.1/DTD/svg11.dtd">
<!-- Generated by graphviz version 2.43.0 (0)
 -->
<!-- Title: MissionTest::loop Pages: 1 -->
<!--zoomable 236 -->

<svg id="main" version="1.1" xmlns="http://www.w3.org/2000/svg" xmlns:xlink="http://www.w3.org/1999/xlink" xml:space="preserve" onload="init(evt)">
<style type="text/css"><![CDATA[
.node, .edge {opacity: 0.7;}
.node.selected, .edge.selected {opacity: 1;}
.edge:hover path { stroke: red; }
.edge:hover polygon { stroke: red; fill: red; }
]]></style>

<defs>
  <circle id="rim" cx="0" cy="0" r="7"/>
  <circle id="rim2" cx="0" cy="0" r="3.5"/>
  <g id="zoomPlus">
    <use xlink:href="#rim" fill="#404040"><set attributeName="fill" to="#808080" begin="zoomplus.mouseover" end="zoomplus.mouseout"/></use>
    <path d="M-4,0h8M0,-4v8" fill="none" stroke="white" stroke-width="1.5" pointer-events="none"/>
  </g>
  <g id="zoomMin">
    <use xlink:href="#rim" fill="#404040"><set attributeName="fill" to="#808080" begin="zoomminus.mouseover" end="zoomminus.mouseout"/></use>
    <path d="M-4,0h8" fill="none" stroke="white" stroke-width="1.5" pointer-events="none"/>
  </g>
  <g id="arrowUp" transform="translate(30 24)">
    <use xlink:href="#rim"/>
    <path pointer-events="none" fill="none" stroke="white" stroke-width="1.5" d="M0,-3.0v7 M-2.5,-0.5L0,-3.0L2.5,-0.5"/>
  </g>
  <g id="arrowRight" transform="rotate(90) translate(36 -43)">
    <use xlink:href="#rim"/>
    <path pointer-events="none" fill="none" stroke="white" stroke-width="1.5" d="M0,-3.0v7 M-2.5,-0.5L0,-3.0L2.5,-0.5"/>
  </g>
  <g id="arrowDown" transform="rotate(180) translate(-30 -48)">
    <use xlink:href="#rim"/>
    <path pointer-events="none" fill="none" stroke="white" stroke-width="1.5" d="M0,-3.0v7 M-2.5,-0.5L0,-3.0L2.5,-0.5"/>
  </g>
  <g id="arrowLeft" transform="rotate(270) translate(-36 17)">
    <use xlink:href="#rim"/>
    <path pointer-events="none" fill="none" stroke="white" stroke-width="1.5" d="M0,-3.0v7 M-2.5,-0.5L0,-3.0L2.5,-0.5"/>
  </g>
  <g id="resetDef">
    <use xlink:href="#rim2" fill="#404040"><set attributeName="fill" to="#808080" begin="reset.mouseover" end="reset.mouseout"/></use>
  </g>
</defs>
<script type="application/ecmascript">
var viewWidth = 952;
var viewHeight = 236;
var sectionId = 'dynsection-9';
</script>
<script type="application/ecmascript" xlink:href="svg.min.js"/>
<svg id="graph" class="graph">
<g id="viewport">
<title>MissionTest::loop</title>
<!-- Node1 -->
<g id="Node000001" class="node">
<title>Node1</title>
<g id="a_Node000001"><a xlink:title=" ">
<polygon fill="#999999" stroke="#666666" points="101,-125.5 0,-125.5 0,-106.5 101,-106.5 101,-125.5"/>
<text text-anchor="middle" x="50.5" y="-113.5" font-family="Helvetica,sans-Serif" font-size="10.00">MissionTest::loop</text>
</a>
</g>
</g>
<!-- Node2 -->
<g id="Node000002" class="node">
<title>Node2</title>
<g id="a_Node000002"><a xlink:href="classAP__HAL_1_1Scheduler.html#ab3175e2e6223ccfe82f957e41cc12b26" target="_top" xlink:title=" ">
<polygon fill="white" stroke="#666666" points="275.5,-153 161.5,-153 161.5,-123 275.5,-123 275.5,-153"/>
<text text-anchor="start" x="169.5" y="-141" font-family="Helvetica,sans-Serif" font-size="10.00">AP_HAL::Scheduler::</text>
<text text-anchor="middle" x="218.5" y="-130" font-family="Helvetica,sans-Serif" font-size="10.00">delay</text>
</a>
</g>
</g>
<!-- Node1&#45;&gt;Node2 -->
<g id="edge1_Node000001_Node000002" class="edge">
<title>Node1&#45;&gt;Node2</title>
<g id="a_edge1_Node000001_Node000002"><a xlink:title=" ">
<path fill="none" stroke="#63b8ff" d="M101.31,-122.6C116.96,-124.68 134.51,-127 151.13,-129.2"/>
<polygon fill="#63b8ff" stroke="#63b8ff" points="150.96,-132.71 161.33,-130.56 151.88,-125.77 150.96,-132.71"/>
</a>
</g>
</g>
<!-- Node3 -->
<g id="Node000003" class="node">
<title>Node3</title>
<g id="a_Node000003"><a xlink:href="classMissionTest.html#a2161685b1b75329ff76bc4243518212d" target="_top" xlink:title=" ">
<polygon fill="white" stroke="#666666" points="300,-104.5 137,-104.5 137,-85.5 300,-85.5 300,-104.5"/>
<text text-anchor="middle" x="218.5" y="-92.5" font-family="Helvetica,sans-Serif" font-size="10.00">MissionTest::run_mission_test</text>
</a>
</g>
</g>
<!-- Node1&#45;&gt;Node3 -->
<g id="edge2_Node000001_Node000003" class="edge">
<title>Node1&#45;&gt;Node3</title>
<g id="a_edge2_Node000001_Node000003"><a xlink:title=" ">
<path fill="none" stroke="#63b8ff" d="M101.31,-109.7C111.08,-108.46 121.58,-107.13 132.14,-105.8"/>
<polygon fill="#63b8ff" stroke="#63b8ff" points="132.77,-109.25 142.25,-104.52 131.89,-102.3 132.77,-109.25"/>
</a>
</g>
</g>
<!-- Node4 -->
<g id="Node000004" class="node">
<title>Node4</title>
<g id="a_Node000004"><a xlink:href="classMissionTest.html#a7ca0e5d432a02e97dbcef60c633a5e4d" target="_top" xlink:title=" ">
<polygon fill="white" stroke="#666666" points="475,-187.5 336,-187.5 336,-168.5 475,-168.5 475,-187.5"/>
<text text-anchor="middle" x="405.5" y="-175.5" font-family="Helvetica,sans-Serif" font-size="10.00">MissionTest::init_mission</text>
</a>
</g>
</g>
<!-- Node3&#45;&gt;Node4 -->
<g id="edge3_Node000003_Node000004" class="edge">
<title>Node3&#45;&gt;Node4</title>
<g id="a_edge3_Node000003_Node000004"><a xlink:title=" ">
<path fill="none" stroke="#63b8ff" d="M278.21,-104.6C285.81,-107.05 293.28,-110.13 300,-114 320.17,-125.6 316.64,-139.1 336,-152 343.54,-157.02 352.18,-161.26 360.73,-164.76"/>
<polygon fill="#63b8ff" stroke="#63b8ff" points="359.69,-168.11 370.29,-168.41 362.19,-161.57 359.69,-168.11"/>
</a>
</g>
</g>
<!-- Node7 -->
<g id="Node000007" class="node">
<title>Node7</title>
<g id="a_Node000007"><a xlink:href="classAP__HAL_1_1BetterStream.html#a8534aa004599bb81ad60f3e762791032" target="_top" xlink:title=" ">
<polygon fill="white" stroke="#666666" points="653,-153 528,-153 528,-123 653,-123 653,-153"/>
<text text-anchor="start" x="536" y="-141" font-family="Helvetica,sans-Serif" font-size="10.00">AP_HAL::BetterStream</text>
<text text-anchor="middle" x="590.5" y="-130" font-family="Helvetica,sans-Serif" font-size="10.00">::printf</text>
</a>
</g>
</g>
<!-- Node3&#45;&gt;Node7 -->
<g id="edge14_Node000003_Node000007" class="edge">
<title>Node3&#45;&gt;Node7</title>
<g id="a_edge14_Node000003_Node000007"><a xlink:title=" ">
<path fill="none" stroke="#63b8ff" d="M259.45,-104.55C281.83,-109.57 310.33,-115.41 336,-119 396.93,-127.52 466.67,-132.4 517.55,-135.07"/>
<polygon fill="#63b8ff" stroke="#63b8ff" points="517.63,-138.58 527.79,-135.59 517.99,-131.59 517.63,-138.58"/>
</a>
</g>
</g>
<!-- Node10 -->
<g id="Node000010" class="node">
<title>Node10</title>
<g id="a_Node000010"><a xlink:href="classMissionTest.html#ab12c92170021b44ceb82f6808b92d8c7" target="_top" xlink:title=" ">
<polygon fill="white" stroke="#666666" points="456.5,-110 354.5,-110 354.5,-80 456.5,-80 456.5,-110"/>
<text text-anchor="start" x="362.5" y="-98" font-family="Helvetica,sans-Serif" font-size="10.00">MissionTest::print</text>
<text text-anchor="middle" x="405.5" y="-87" font-family="Helvetica,sans-Serif" font-size="10.00">_mission</text>
</a>
</g>
</g>
<!-- Node3&#45;&gt;Node10 -->
<g id="edge9_Node000003_Node000010" class="edge">
<title>Node3&#45;&gt;Node10</title>
<g id="a_edge9_Node000003_Node000010"><a xlink:title=" ">
<path fill="none" stroke="#63b8ff" d="M300.11,-95C314.91,-95 330.14,-95 344.22,-95"/>
<polygon fill="#63b8ff" stroke="#63b8ff" points="344.25,-98.5 354.25,-95 344.25,-91.5 344.25,-98.5"/>
</a>
</g>
</g>
<!-- Node14 -->
<g id="Node000014" class="node">
<title>Node14</title>
<g id="a_Node000014"><a xlink:href="classAP__Mission.html#a3b4234e58e34ed5c83d8c6b9ce2718c9" target="_top" xlink:title=" ">
<polygon fill="white" stroke="#666666" points="456,-61.5 355,-61.5 355,-42.5 456,-42.5 456,-61.5"/>
<text text-anchor="middle" x="405.5" y="-49.5" font-family="Helvetica,sans-Serif" font-size="10.00">AP_Mission::start</text>
</a>
</g>
</g>
<!-- Node3&#45;&gt;Node14 -->
<g id="edge15_Node000003_Node000014" class="edge">
<title>Node3&#45;&gt;Node14</title>
<g id="a_edge15_Node000003_Node000014"><a xlink:title=" ">
<path fill="none" stroke="#63b8ff" d="M260.56,-85.46C287.98,-79.08 324.25,-70.65 353.52,-63.85"/>
<polygon fill="#63b8ff" stroke="#63b8ff" points="354.61,-67.19 363.56,-61.52 353.02,-60.37 354.61,-67.19"/>
</a>
</g>
</g>
<!-- Node15 -->
<g id="Node000015" class="node">
<title>Node15</title>
<g id="a_Node000015"><a xlink:href="classAP__Mission.html#ad27b4531fa652b277bd9300b60ca4493" target="_top" xlink:title=" ">
<polygon fill="white" stroke="#666666" points="461.5,-24.5 349.5,-24.5 349.5,-5.5 461.5,-5.5 461.5,-24.5"/>
<text text-anchor="middle" x="405.5" y="-12.5" font-family="Helvetica,sans-Serif" font-size="10.00">AP_Mission::update</text>
</a>
</g>
</g>
<!-- Node3&#45;&gt;Node15 -->
<g id="edge16_Node000003_Node000015" class="edge">
<title>Node3&#45;&gt;Node15</title>
<g id="a_edge16_Node000003_Node000015"><a xlink:title=" ">
<path fill="none" stroke="#63b8ff" d="M234.78,-85.38C256.53,-72.03 298.02,-47.86 336,-33 341.15,-30.98 346.61,-29.12 352.11,-27.42"/>
<polygon fill="#63b8ff" stroke="#63b8ff" points="353.37,-30.7 361.98,-24.53 351.4,-23.98 353.37,-30.7"/>
</a>
</g>
</g>
<!-- Node5 -->
<g id="Node000005" class="node">
<title>Node5</title>
<g id="a_Node000005"><a xlink:href="classAP__Mission.html#ac4c73bdc284bb26ca56cd8253d6c3cdd" target="_top" xlink:title=" ">
<polygon fill="white" stroke="#666666" points="651.5,-227.5 529.5,-227.5 529.5,-208.5 651.5,-208.5 651.5,-227.5"/>
<text text-anchor="middle" x="590.5" y="-215.5" font-family="Helvetica,sans-Serif" font-size="10.00">AP_Mission::add_cmd</text>
</a>
</g>
</g>
<!-- Node4&#45;&gt;Node5 -->
<g id="edge4_Node000004_Node000005" class="edge">
<title>Node4&#45;&gt;Node5</title>
<g id="a_edge4_Node000004_Node000005"><a xlink:title=" ">
<path fill="none" stroke="#63b8ff" d="M450.33,-187.58C476.14,-193.22 508.96,-200.4 536.25,-206.36"/>
<polygon fill="#63b8ff" stroke="#63b8ff" points="535.51,-209.78 546.02,-208.5 537,-202.94 535.51,-209.78"/>
</a>
</g>
</g>
<!-- Node6 -->
<g id="Node000006" class="node">
<title>Node6</title>
<g id="a_Node000006"><a xlink:href="classAP__Mission.html#acfd61ebf8361f71fa75c9088dd8b7e3b" target="_top" xlink:title="clear &#45; clears out mission">
<polygon fill="white" stroke="#666666" points="641.5,-190.5 539.5,-190.5 539.5,-171.5 641.5,-171.5 641.5,-190.5"/>
<text text-anchor="middle" x="590.5" y="-178.5" font-family="Helvetica,sans-Serif" font-size="10.00">AP_Mission::clear</text>
</a>
</g>
</g>
<!-- Node4&#45;&gt;Node6 -->
<g id="edge5_Node000004_Node000006" class="edge">
<title>Node4&#45;&gt;Node6</title>
<g id="a_edge5_Node000004_Node000006"><a xlink:title=" ">
<path fill="none" stroke="#63b8ff" d="M475.16,-179.13C492.8,-179.41 511.65,-179.72 528.85,-180.01"/>
<polygon fill="#63b8ff" stroke="#63b8ff" points="529.26,-183.51 539.32,-180.18 529.38,-176.51 529.26,-183.51"/>
</a>
</g>
</g>
<!-- Node4&#45;&gt;Node7 -->
<g id="edge6_Node000004_Node000007" class="edge">
<title>Node4&#45;&gt;Node7</title>
<g id="a_edge6_Node000004_Node000007"><a xlink:title=" ">
<path fill="none" stroke="#63b8ff" d="M450.33,-168.42C470.51,-164.01 494.97,-158.66 517.72,-153.69"/>
<polygon fill="#63b8ff" stroke="#63b8ff" points="518.67,-157.07 527.69,-151.51 517.17,-150.23 518.67,-157.07"/>
</a>
</g>
</g>
<!-- Node8 -->
<g id="Node000008" class="node">
<title>Node8</title>
<g id="a_Node000008"><a xlink:href="classAP__HAL_1_1BetterStream.html#aa730be451d385d7ba03ee9677e6d91a2" target="_top" xlink:title=" ">
<polygon fill="white" stroke="#666666" points="831,-153 706,-153 706,-123 831,-123 831,-153"/>
<text text-anchor="start" x="714" y="-141" font-family="Helvetica,sans-Serif" font-size="10.00">AP_HAL::BetterStream</text>
<text text-anchor="middle" x="768.5" y="-130" font-family="Helvetica,sans-Serif" font-size="10.00">::vprintf</text>
</a>
</g>
</g>
<!-- Node7&#45;&gt;Node8 -->
<g id="edge7_Node000007_Node000008" class="edge">
<title>Node7&#45;&gt;Node8</title>
<g id="a_edge7_Node000007_Node000008"><a xlink:title=" ">
<path fill="none" stroke="#63b8ff" d="M653.06,-138C666.86,-138 681.61,-138 695.78,-138"/>
<polygon fill="#63b8ff" stroke="#63b8ff" points="695.98,-141.5 705.98,-138 695.98,-134.5 695.98,-141.5"/>
</a>
</g>
</g>
<!-- Node9 -->
<g id="Node000009" class="node">
<title>Node9</title>
<g id="a_Node000009"><a xlink:href="test__expandingstring__failure_8cpp.html#a98e0d5bb436a207f576379beaa786040" target="_top" xlink:title=" ">
<polygon fill="white" stroke="#666666" points="944,-147.5 867,-147.5 867,-128.5 944,-128.5 944,-147.5"/>
<text text-anchor="middle" x="905.5" y="-135.5" font-family="Helvetica,sans-Serif" font-size="10.00">print_vprintf</text>
</a>
</g>
</g>
<!-- Node8&#45;&gt;Node9 -->
<g id="edge8_Node000008_Node000009" class="edge">
<title>Node8&#45;&gt;Node9</title>
<g id="a_edge8_Node000008_Node000009"><a xlink:title=" ">
<path fill="none" stroke="#63b8ff" d="M831.07,-138C839.68,-138 848.41,-138 856.71,-138"/>
<polygon fill="#63b8ff" stroke="#63b8ff" points="856.95,-141.5 866.95,-138 856.95,-134.5 856.95,-141.5"/>
</a>
</g>
</g>
<!-- Node10&#45;&gt;Node7 -->
<g id="edge12_Node000010_Node000007" class="edge">
<title>Node10&#45;&gt;Node7</title>
<g id="a_edge12_Node000010_Node000007"><a xlink:title=" ">
<path fill="none" stroke="#63b8ff" d="M456.51,-106.75C475.42,-111.19 497.34,-116.34 517.86,-121.17"/>
<polygon fill="#63b8ff" stroke="#63b8ff" points="517.26,-124.62 527.8,-123.5 518.87,-117.81 517.26,-124.62"/>
</a>
</g>
</g>
<!-- Node11 -->
<g id="Node000011" class="node">
<title>Node11</title>
<g id="a_Node000011"><a xlink:href="classAP__Mission.html#a13287c51ef925f52060edfa0cff4f982" target="_top" xlink:title="is_nav_cmd &#45; returns true if the command&#39;s id is a &quot;navigation&quot; command, false if &quot;do&quot; or &quot;conditiona...">
<polygon fill="white" stroke="#666666" points="658.5,-104.5 522.5,-104.5 522.5,-85.5 658.5,-85.5 658.5,-104.5"/>
<text text-anchor="middle" x="590.5" y="-92.5" font-family="Helvetica,sans-Serif" font-size="10.00">AP_Mission::is_nav_cmd</text>
</a>
</g>
</g>
<!-- Node10&#45;&gt;Node11 -->
<g id="edge10_Node000010_Node000011" class="edge">
<title>Node10&#45;&gt;Node11</title>
<g id="a_edge10_Node000010_Node000011"><a xlink:title=" ">
<path fill="none" stroke="#63b8ff" d="M456.51,-95C473.73,-95 493.44,-95 512.32,-95"/>
<polygon fill="#63b8ff" stroke="#63b8ff" points="512.4,-98.5 522.4,-95 512.4,-91.5 512.4,-98.5"/>
</a>
</g>
</g>
<!-- Node12 -->
<g id="Node000012" class="node">
<title>Node12</title>
<g id="a_Node000012"><a xlink:href="classAP__Mission.html#af26b7935304c34d8c03881b02beb3f48" target="_top" xlink:title=" ">
<polygon fill="white" stroke="#666666" points="670,-67.5 511,-67.5 511,-48.5 670,-48.5 670,-67.5"/>
<text text-anchor="middle" x="590.5" y="-55.5" font-family="Helvetica,sans-Serif" font-size="10.00">AP_Mission::num_commands</text>
</a>
</g>
</g>
<!-- Node10&#45;&gt;Node12 -->
<g id="edge11_Node000010_Node000012" class="edge">
<title>Node10&#45;&gt;Node12</title>
<g id="a_edge11_Node000010_Node000012"><a xlink:title=" ">
<path fill="none" stroke="#63b8ff" d="M456.51,-84.89C480.04,-80.13 508.21,-74.43 532.56,-69.51"/>
<polygon fill="#63b8ff" stroke="#63b8ff" points="533.28,-72.94 542.39,-67.53 531.89,-66.08 533.28,-72.94"/>
</a>
</g>
</g>
<!-- Node13 -->
<g id="Node000013" class="node">
<title>Node13</title>
<g id="a_Node000013"><a xlink:href="classAP__Mission.html#aac82471fe961e31cd0fba02ba7783aba" target="_top" xlink:title=" ">
<polygon fill="white" stroke="#666666" points="653.5,-30 527.5,-30 527.5,0 653.5,0 653.5,-30"/>
<text text-anchor="start" x="535.5" y="-18" font-family="Helvetica,sans-Serif" font-size="10.00">AP_Mission::read_cmd</text>
<text text-anchor="middle" x="590.5" y="-7" font-family="Helvetica,sans-Serif" font-size="10.00">_from_storage</text>
</a>
</g>
</g>
<!-- Node10&#45;&gt;Node13 -->
<g id="edge13_Node000010_Node000013" class="edge">
<title>Node10&#45;&gt;Node13</title>
<g id="a_edge13_Node000010_Node000013"><a xlink:title=" ">
<path fill="none" stroke="#63b8ff" d="M454.68,-79.93C461.69,-77.03 468.67,-73.71 475,-70 493.21,-59.32 492.51,-49.19 511,-39 514.25,-37.21 517.65,-35.53 521.14,-33.97"/>
<polygon fill="#63b8ff" stroke="#63b8ff" points="522.62,-37.14 530.52,-30.09 519.94,-30.68 522.62,-37.14"/>
</a>
</g>
</g>
</g>
</svg>

<g id="navigator" transform="translate(0 0)" fill="#404254">
  <rect fill="#f2f5e9" fill-opacity="0.5" stroke="#606060" stroke-width=".5" x="0" y="0" width="60" height="60"/>
  <use id="zoomplus" xlink:href="#zoomPlus" x="17" y="9" onmousedown="handleZoom(evt,'in')"/>
  <use id="zoomminus" xlink:href="#zoomMin" x="42" y="9" onmousedown="handleZoom(evt,'out')"/>
  <use id="reset" xlink:href="#resetDef" x="30" y="36" onmousedown="handleReset()"/>
   <use id="arrowup" xlink:href="#arrowUp" x="0" y="0" onmousedown="handlePan(0,-1)"/>
  <use id="arrowright" xlink:href="#arrowRight" x="0" y="0" onmousedown="handlePan(1,0)"/>
  <use id="arrowdown" xlink:href="#arrowDown" x="0" y="0" onmousedown="handlePan(0,1)"/>
  <use id="arrowleft" xlink:href="#arrowLeft" x="0" y="0" onmousedown="handlePan(-1,0)"/>
</g>
<svg viewBox="0 0 15 15" width="100%" height="30px" preserveAspectRatio="xMaxYMin meet">
 <g id="arrow_out" transform="scale(0.3 0.3)">
  <a xlink:href="classMissionTest_ab2537e6e678a9468a69cd09f0296aeca_cgraph_org.svg" target="_base">
   <rect id="button" ry="5" rx="5" y="6" x="6" height="38" width="38"
        fill="#f2f5e9" fill-opacity="0.5" stroke="#606060" stroke-width="1.0"/>
   <path id="arrow"
     d="M 11.500037,31.436501 C 11.940474,20.09759 22.043105,11.32322 32.158766,21.979434 L 37.068811,17.246167 C 37.068811,17.246167 37.088388,32 37.088388,32 L 22.160133,31.978069 C 22.160133,31.978069 26.997745,27.140456 26.997745,27.140456 C 18.528582,18.264221 13.291696,25.230495 11.500037,31.436501 z"
     style="fill:#404040;"/>
  </a>
 </g>
</svg>

<style type='text/css'>
<![CDATA[
[data-mouse-over-selected='false'] { opacity: 0.7; }
[data-mouse-over-selected='true']  { opacity: 1.0; }
]]>
</style>
<script type="application/ecmascript"><![CDATA[
document.addEventListener('DOMContentLoaded', (event) => {
  highlightEdges();
  highlightAdjacentNodes();
});
]]></script>
</svg>
