<?xml version="1.0" encoding="UTF-8" standalone="no"?>
<!DOCTYPE svg PUBLIC "-//W3C//DTD SVG 1.1//EN"
 "http://www.w3.org/Graphics/SVG/1.1/DTD/svg11.dtd">
<!-- Generated by graphviz version 2.43.0 (0)
 -->
<!-- Title: AP_InertialSensor_LSM9DS1::_fifo_reset Pages: 1 -->
<svg width="508pt" height="278pt"
 viewBox="0.00 0.00 508.00 278.00" xmlns="http://www.w3.org/2000/svg" xmlns:xlink="http://www.w3.org/1999/xlink">
<g id="graph0" class="graph" transform="scale(1 1) rotate(0) translate(4 274)">
<title>AP_InertialSensor_LSM9DS1::_fifo_reset</title>
<!-- Node1 -->
<g id="Node000001" class="node">
<title>Node1</title>
<g id="a_Node000001"><a xlink:title=" ">
<polygon fill="#999999" stroke="#666666" points="153,-150 0,-150 0,-120 153,-120 153,-150"/>
<text text-anchor="start" x="8" y="-138" font-family="Helvetica,sans-Serif" font-size="10.00">AP_InertialSensor_LSM9DS1</text>
<text text-anchor="middle" x="76.5" y="-127" font-family="Helvetica,sans-Serif" font-size="10.00">::_fifo_reset</text>
</a>
</g>
</g>
<!-- Node2 -->
<g id="Node000002" class="node">
<title>Node2</title>
<g id="a_Node000002"><a xlink:href="classAP__InertialSensor__LSM9DS1.html#a7e61bb7689a3e4e4eb78ae3e6f2b0f0d" target="_top" xlink:title=" ">
<polygon fill="white" stroke="#666666" points="342,-270 189,-270 189,-240 342,-240 342,-270"/>
<text text-anchor="start" x="197" y="-258" font-family="Helvetica,sans-Serif" font-size="10.00">AP_InertialSensor_LSM9DS1</text>
<text text-anchor="middle" x="265.5" y="-247" font-family="Helvetica,sans-Serif" font-size="10.00">::_register_read</text>
</a>
</g>
</g>
<!-- Node1&#45;&gt;Node2 -->
<g id="edge1_Node000001_Node000002" class="edge">
<title>Node1&#45;&gt;Node2</title>
<g id="a_edge1_Node000001_Node000002"><a xlink:title=" ">
<path fill="none" stroke="#63b8ff" d="M91.19,-150.13C110.9,-171.08 149.3,-208.83 189,-231 192.19,-232.78 195.53,-234.45 198.96,-236.01"/>
<polygon fill="#63b8ff" stroke="#63b8ff" points="197.6,-239.24 208.18,-239.9 200.32,-232.79 197.6,-239.24"/>
</a>
</g>
</g>
<!-- Node4 -->
<g id="Node000004" class="node">
<title>Node4</title>
<g id="a_Node000004"><a xlink:href="classAP__HAL_1_1Scheduler.html#a78c4f1b1f192ac1c99544b6cc8f099b0" target="_top" xlink:title=" ">
<polygon fill="white" stroke="#666666" points="323.5,-222 207.5,-222 207.5,-192 323.5,-192 323.5,-222"/>
<text text-anchor="start" x="215.5" y="-210" font-family="Helvetica,sans-Serif" font-size="10.00">AP_HAL::Scheduler::</text>
<text text-anchor="middle" x="265.5" y="-199" font-family="Helvetica,sans-Serif" font-size="10.00">delay_microseconds</text>
</a>
</g>
</g>
<!-- Node1&#45;&gt;Node4 -->
<g id="edge3_Node000001_Node000004" class="edge">
<title>Node1&#45;&gt;Node4</title>
<g id="a_edge3_Node000001_Node000004"><a xlink:title=" ">
<path fill="none" stroke="#63b8ff" d="M110.33,-150.15C132.36,-160.06 162.15,-172.98 189,-183 194.15,-184.92 199.54,-186.83 204.96,-188.68"/>
<polygon fill="#63b8ff" stroke="#63b8ff" points="204.12,-192.09 214.71,-191.94 206.34,-185.45 204.12,-192.09"/>
</a>
</g>
</g>
<!-- Node5 -->
<g id="Node000005" class="node">
<title>Node5</title>
<g id="a_Node000005"><a xlink:href="classAP__InertialSensor__Backend.html#a4af5bc2acd28204ebbb97b7f35606e30" target="_top" xlink:title=" ">
<polygon fill="white" stroke="#666666" points="340,-174 191,-174 191,-144 340,-144 340,-174"/>
<text text-anchor="start" x="199" y="-162" font-family="Helvetica,sans-Serif" font-size="10.00">AP_InertialSensor_Backend</text>
<text text-anchor="middle" x="265.5" y="-151" font-family="Helvetica,sans-Serif" font-size="10.00">::notify_accel_fifo_reset</text>
</a>
</g>
</g>
<!-- Node1&#45;&gt;Node5 -->
<g id="edge4_Node000001_Node000005" class="edge">
<title>Node1&#45;&gt;Node5</title>
<g id="a_edge4_Node000001_Node000005"><a xlink:title=" ">
<path fill="none" stroke="#63b8ff" d="M153.02,-144.69C162.18,-145.87 171.57,-147.07 180.84,-148.26"/>
<polygon fill="#63b8ff" stroke="#63b8ff" points="180.46,-151.74 190.82,-149.54 181.35,-144.8 180.46,-151.74"/>
</a>
</g>
</g>
<!-- Node6 -->
<g id="Node000006" class="node">
<title>Node6</title>
<g id="a_Node000006"><a xlink:href="classAP__InertialSensor__Backend.html#a51744e09946b6dfcafa3fe954737a68e" target="_top" xlink:title=" ">
<polygon fill="white" stroke="#666666" points="340,-126 191,-126 191,-96 340,-96 340,-126"/>
<text text-anchor="start" x="199" y="-114" font-family="Helvetica,sans-Serif" font-size="10.00">AP_InertialSensor_Backend</text>
<text text-anchor="middle" x="265.5" y="-103" font-family="Helvetica,sans-Serif" font-size="10.00">::notify_gyro_fifo_reset</text>
</a>
</g>
</g>
<!-- Node1&#45;&gt;Node6 -->
<g id="edge5_Node000001_Node000006" class="edge">
<title>Node1&#45;&gt;Node6</title>
<g id="a_edge5_Node000001_Node000006"><a xlink:title=" ">
<path fill="none" stroke="#63b8ff" d="M153.02,-125.31C162.18,-124.13 171.57,-122.93 180.84,-121.74"/>
<polygon fill="#63b8ff" stroke="#63b8ff" points="181.35,-125.2 190.82,-120.46 180.46,-118.26 181.35,-125.2"/>
</a>
</g>
</g>
<!-- Node7 -->
<g id="Node000007" class="node">
<title>Node7</title>
<g id="a_Node000007"><a xlink:href="classAP__HAL_1_1SPIDevice.html#ac9e6496ba15d047117d7e9dbf980d0f9" target="_top" xlink:title=" ">
<polygon fill="white" stroke="#666666" points="323,-78 208,-78 208,-48 323,-48 323,-78"/>
<text text-anchor="start" x="216" y="-66" font-family="Helvetica,sans-Serif" font-size="10.00">AP_HAL::SPIDevice::</text>
<text text-anchor="middle" x="265.5" y="-55" font-family="Helvetica,sans-Serif" font-size="10.00">set_speed</text>
</a>
</g>
</g>
<!-- Node1&#45;&gt;Node7 -->
<g id="edge6_Node000001_Node000007" class="edge">
<title>Node1&#45;&gt;Node7</title>
<g id="a_edge6_Node000001_Node000007"><a xlink:title=" ">
<path fill="none" stroke="#63b8ff" d="M110.33,-119.85C132.36,-109.94 162.15,-97.02 189,-87 194.15,-85.08 199.54,-83.17 204.96,-81.32"/>
<polygon fill="#63b8ff" stroke="#63b8ff" points="206.34,-84.55 214.71,-78.06 204.12,-77.91 206.34,-84.55"/>
</a>
</g>
</g>
<!-- Node8 -->
<g id="Node000008" class="node">
<title>Node8</title>
<g id="a_Node000008"><a xlink:href="classAP__HAL_1_1Device.html#a450d2427d58c09d75c8268f8b808c37b" target="_top" xlink:title=" ">
<polygon fill="white" stroke="#666666" points="328,-30 203,-30 203,0 328,0 328,-30"/>
<text text-anchor="start" x="211" y="-18" font-family="Helvetica,sans-Serif" font-size="10.00">AP_HAL::Device::write</text>
<text text-anchor="middle" x="265.5" y="-7" font-family="Helvetica,sans-Serif" font-size="10.00">_register</text>
</a>
</g>
</g>
<!-- Node1&#45;&gt;Node8 -->
<g id="edge7_Node000001_Node000008" class="edge">
<title>Node1&#45;&gt;Node8</title>
<g id="a_edge7_Node000001_Node000008"><a xlink:title=" ">
<path fill="none" stroke="#63b8ff" d="M91.19,-119.87C110.9,-98.92 149.3,-61.17 189,-39 192.19,-37.22 195.53,-35.55 198.96,-33.99"/>
<polygon fill="#63b8ff" stroke="#63b8ff" points="200.32,-37.21 208.18,-30.1 197.6,-30.76 200.32,-37.21"/>
</a>
</g>
</g>
<!-- Node3 -->
<g id="Node000003" class="node">
<title>Node3</title>
<g id="a_Node000003"><a xlink:href="classAP__HAL_1_1Device.html#a66215f964cfb5c7421effdb88a749550" target="_top" xlink:title=" ">
<polygon fill="white" stroke="#666666" points="500,-270 378,-270 378,-240 500,-240 500,-270"/>
<text text-anchor="start" x="386" y="-258" font-family="Helvetica,sans-Serif" font-size="10.00">AP_HAL::Device::read</text>
<text text-anchor="middle" x="439" y="-247" font-family="Helvetica,sans-Serif" font-size="10.00">_registers</text>
</a>
</g>
</g>
<!-- Node2&#45;&gt;Node3 -->
<g id="edge2_Node000002_Node000003" class="edge">
<title>Node2&#45;&gt;Node3</title>
<g id="a_edge2_Node000002_Node000003"><a xlink:title=" ">
<path fill="none" stroke="#63b8ff" d="M342.22,-255C350.71,-255 359.32,-255 367.74,-255"/>
<polygon fill="#63b8ff" stroke="#63b8ff" points="367.87,-258.5 377.87,-255 367.87,-251.5 367.87,-258.5"/>
</a>
</g>
</g>
</g>
</svg>
