<?xml version="1.0" encoding="UTF-8" standalone="no"?>
<!DOCTYPE svg PUBLIC "-//W3C//DTD SVG 1.1//EN"
 "http://www.w3.org/Graphics/SVG/1.1/DTD/svg11.dtd">
<!-- Generated by graphviz version 2.43.0 (0)
 -->
<!-- Title: SITL::ShipSim::get_ground_speed_adjustment Pages: 1 -->
<svg width="832pt" height="230pt"
 viewBox="0.00 0.00 832.00 229.91" xmlns="http://www.w3.org/2000/svg" xmlns:xlink="http://www.w3.org/1999/xlink">
<g id="graph0" class="graph" transform="scale(1 1) rotate(0) translate(4 225.91)">
<title>SITL::ShipSim::get_ground_speed_adjustment</title>
<!-- Node1 -->
<g id="Node000001" class="node">
<title>Node1</title>
<g id="a_Node000001"><a xlink:title=" ">
<polygon fill="#999999" stroke="#666666" points="151,-119.5 0,-119.5 0,-89.5 151,-89.5 151,-119.5"/>
<text text-anchor="start" x="8" y="-107.5" font-family="Helvetica,sans-Serif" font-size="10.00">SITL::ShipSim::get</text>
<text text-anchor="middle" x="75.5" y="-96.5" font-family="Helvetica,sans-Serif" font-size="10.00">_ground_speed_adjustment</text>
</a>
</g>
</g>
<!-- Node2 -->
<g id="Node000002" class="node">
<title>Node2</title>
<g id="a_Node000002"><a xlink:href="classLocation.html#a0dc5bfd1a7fdebe5250aeeac54bea400" target="_top" xlink:title=" ">
<polygon fill="white" stroke="#666666" points="315,-208 193,-208 193,-189 315,-189 315,-208"/>
<text text-anchor="middle" x="254" y="-196" font-family="Helvetica,sans-Serif" font-size="10.00">Location::get_bearing</text>
</a>
</g>
</g>
<!-- Node1&#45;&gt;Node2 -->
<g id="edge1_Node000001_Node000002" class="edge">
<title>Node1&#45;&gt;Node2</title>
<g id="a_edge1_Node000001_Node000002"><a xlink:title=" ">
<path fill="none" stroke="#63b8ff" d="M94.49,-119.74C115.45,-136.78 151.73,-164.14 187,-180.5 191.11,-182.41 195.46,-184.15 199.89,-185.72"/>
<polygon fill="#63b8ff" stroke="#63b8ff" points="199.06,-189.13 209.65,-188.92 201.24,-182.48 199.06,-189.13"/>
</a>
</g>
</g>
<!-- Node5 -->
<g id="Node000005" class="node">
<title>Node5</title>
<g id="a_Node000005"><a xlink:href="classLocation.html#a4365e0555609b7ad249a9cd6f1f828c2" target="_top" xlink:title=" ">
<polygon fill="white" stroke="#666666" points="317,-171 191,-171 191,-152 317,-152 317,-171"/>
<text text-anchor="middle" x="254" y="-159" font-family="Helvetica,sans-Serif" font-size="10.00">Location::get_distance</text>
</a>
</g>
</g>
<!-- Node1&#45;&gt;Node5 -->
<g id="edge4_Node000001_Node000005" class="edge">
<title>Node1&#45;&gt;Node5</title>
<g id="a_edge4_Node000001_Node000005"><a xlink:title=" ">
<path fill="none" stroke="#63b8ff" d="M123.34,-119.63C151.5,-128.72 186.94,-140.17 213.65,-148.79"/>
<polygon fill="#63b8ff" stroke="#63b8ff" points="212.83,-152.21 223.42,-151.95 214.98,-145.54 212.83,-152.21"/>
</a>
</g>
</g>
<!-- Node8 -->
<g id="Node000008" class="node">
<title>Node8</title>
<g id="a_Node000008"><a xlink:href="classLocation.html#a146775eb07ce9abcc8d05f1b730404b0" target="_top" xlink:title=" ">
<polygon fill="white" stroke="#666666" points="468.5,-95 376.5,-95 376.5,-76 468.5,-76 468.5,-95"/>
<text text-anchor="middle" x="422.5" y="-83" font-family="Helvetica,sans-Serif" font-size="10.00">Location::offset</text>
</a>
</g>
</g>
<!-- Node1&#45;&gt;Node8 -->
<g id="edge9_Node000001_Node000008" class="edge">
<title>Node1&#45;&gt;Node8</title>
<g id="a_edge9_Node000001_Node000008"><a xlink:title=" ">
<path fill="none" stroke="#63b8ff" d="M151.03,-108.1C199.55,-109.56 264.16,-109.83 321,-104.5 337.24,-102.98 354.77,-100.1 370.57,-97.04"/>
<polygon fill="#63b8ff" stroke="#63b8ff" points="371.56,-100.41 380.67,-95.01 370.18,-93.55 371.56,-100.41"/>
</a>
</g>
</g>
<!-- Node12 -->
<g id="Node000012" class="node">
<title>Node12</title>
<g id="a_Node000012"><a xlink:href="classLocation.html#a841a7b844930b0c188aa37380d798e80" target="_top" xlink:title=" ">
<polygon fill="white" stroke="#666666" points="321,-95 187,-95 187,-76 321,-76 321,-95"/>
<text text-anchor="middle" x="254" y="-83" font-family="Helvetica,sans-Serif" font-size="10.00">Location::offset_bearing</text>
</a>
</g>
</g>
<!-- Node1&#45;&gt;Node12 -->
<g id="edge14_Node000001_Node000012" class="edge">
<title>Node1&#45;&gt;Node12</title>
<g id="a_edge14_Node000001_Node000012"><a xlink:title=" ">
<path fill="none" stroke="#63b8ff" d="M151.1,-96.47C159.52,-95.56 168.12,-94.64 176.57,-93.73"/>
<polygon fill="#63b8ff" stroke="#63b8ff" points="177.22,-97.18 186.79,-92.63 176.47,-90.22 177.22,-97.18"/>
</a>
</g>
</g>
<!-- Node13 -->
<g id="Node000013" class="node">
<title>Node13</title>
<g id="a_Node000013"><a xlink:href="AP__Math_8h.html#a49ad7fa2fa2e3d8aa75e8e0ec3f83b99" target="_top" xlink:title=" ">
<polygon fill="white" stroke="#666666" points="449,-58 396,-58 396,-39 449,-39 449,-58"/>
<text text-anchor="middle" x="422.5" y="-46" font-family="Helvetica,sans-Serif" font-size="10.00">radians</text>
</a>
</g>
</g>
<!-- Node1&#45;&gt;Node13 -->
<g id="edge17_Node000001_Node000013" class="edge">
<title>Node1&#45;&gt;Node13</title>
<g id="a_edge17_Node000001_Node000013"><a xlink:title=" ">
<path fill="none" stroke="#63b8ff" d="M113.98,-89.43C135.08,-81.59 162.13,-72.59 187,-67.5 256.42,-53.28 339.45,-49.61 385.75,-48.72"/>
<polygon fill="#63b8ff" stroke="#63b8ff" points="385.94,-52.22 395.88,-48.56 385.83,-45.22 385.94,-52.22"/>
</a>
</g>
</g>
<!-- Node14 -->
<g id="Node000014" class="node">
<title>Node14</title>
<g id="a_Node000014"><a xlink:href="structVector2.html#a90cc8186b17bdcb76aad6a61a0da9f0d" target="_top" xlink:title=" ">
<polygon fill="white" stroke="#666666" points="298.5,-19 209.5,-19 209.5,0 298.5,0 298.5,-19"/>
<text text-anchor="middle" x="254" y="-7" font-family="Helvetica,sans-Serif" font-size="10.00">Vector2::rotate</text>
</a>
</g>
</g>
<!-- Node1&#45;&gt;Node14 -->
<g id="edge18_Node000001_Node000014" class="edge">
<title>Node1&#45;&gt;Node14</title>
<g id="a_edge18_Node000001_Node000014"><a xlink:title=" ">
<path fill="none" stroke="#63b8ff" d="M96.87,-89.44C118.44,-73.97 153.9,-49.9 187,-33.5 195.1,-29.49 204.04,-25.79 212.65,-22.56"/>
<polygon fill="#63b8ff" stroke="#63b8ff" points="213.97,-25.8 222.18,-19.11 211.59,-19.22 213.97,-25.8"/>
</a>
</g>
</g>
<!-- Node3 -->
<g id="Node000003" class="node">
<title>Node3</title>
<g id="a_Node000003"><a xlink:href="classLocation.html#a42744e951d248f823ca21bbfc2f5226e" target="_top" xlink:title=" ">
<polygon fill="white" stroke="#666666" points="488,-208 357,-208 357,-189 488,-189 488,-208"/>
<text text-anchor="middle" x="422.5" y="-196" font-family="Helvetica,sans-Serif" font-size="10.00">Location::diff_longitude</text>
</a>
</g>
</g>
<!-- Node2&#45;&gt;Node3 -->
<g id="edge2_Node000002_Node000003" class="edge">
<title>Node2&#45;&gt;Node3</title>
<g id="a_edge2_Node000002_Node000003"><a xlink:title=" ">
<path fill="none" stroke="#63b8ff" d="M315.11,-198.5C325.42,-198.5 336.24,-198.5 346.87,-198.5"/>
<polygon fill="#63b8ff" stroke="#63b8ff" points="346.98,-202 356.98,-198.5 346.98,-195 346.98,-202"/>
</a>
</g>
</g>
<!-- Node4 -->
<g id="Node000004" class="node">
<title>Node4</title>
<g id="a_Node000004"><a xlink:href="classLocation.html#ab8844915021178ffc5cb56b19e95ad2c" target="_top" xlink:title=" ">
<polygon fill="white" stroke="#666666" points="809.5,-175.5 699.5,-175.5 699.5,-145.5 809.5,-145.5 809.5,-175.5"/>
<text text-anchor="start" x="707.5" y="-163.5" font-family="Helvetica,sans-Serif" font-size="10.00">Location::longitude</text>
<text text-anchor="middle" x="754.5" y="-152.5" font-family="Helvetica,sans-Serif" font-size="10.00">_scale</text>
</a>
</g>
</g>
<!-- Node2&#45;&gt;Node4 -->
<g id="edge3_Node000002_Node000004" class="edge">
<title>Node2&#45;&gt;Node4</title>
<g id="a_edge3_Node000002_Node000004"><a xlink:title=" ">
<path fill="none" stroke="#63b8ff" d="M296.44,-208.01C314.88,-211.78 336.91,-215.64 357,-217.5 414.98,-222.85 430.1,-223.64 488,-217.5 557.92,-210.08 636.48,-191.96 689.88,-178.13"/>
<polygon fill="#63b8ff" stroke="#63b8ff" points="691.1,-181.43 699.89,-175.51 689.33,-174.65 691.1,-181.43"/>
</a>
</g>
</g>
<!-- Node5&#45;&gt;Node3 -->
<g id="edge5_Node000005_Node000003" class="edge">
<title>Node5&#45;&gt;Node3</title>
<g id="a_edge5_Node000005_Node000003"><a xlink:title=" ">
<path fill="none" stroke="#63b8ff" d="M297.88,-171.03C319.45,-175.82 345.79,-181.68 368.61,-186.75"/>
<polygon fill="#63b8ff" stroke="#63b8ff" points="367.96,-190.19 378.48,-188.94 369.48,-183.35 367.96,-190.19"/>
</a>
</g>
</g>
<!-- Node5&#45;&gt;Node4 -->
<g id="edge6_Node000005_Node000004" class="edge">
<title>Node5&#45;&gt;Node4</title>
<g id="a_edge6_Node000005_Node000004"><a xlink:title=" ">
<path fill="none" stroke="#63b8ff" d="M317.13,-161.38C412.19,-161.18 592.83,-160.82 689.19,-160.63"/>
<polygon fill="#63b8ff" stroke="#63b8ff" points="689.39,-164.13 699.38,-160.61 689.37,-157.13 689.39,-164.13"/>
</a>
</g>
</g>
<!-- Node6 -->
<g id="Node000006" class="node">
<title>Node6</title>
<g id="a_Node000006"><a xlink:href="AP__Math_8h.html#a3bc9391295c1f7aaa8fb95ee897f639a" target="_top" xlink:title=" ">
<polygon fill="white" stroke="#666666" points="443.5,-132 401.5,-132 401.5,-113 443.5,-113 443.5,-132"/>
<text text-anchor="middle" x="422.5" y="-120" font-family="Helvetica,sans-Serif" font-size="10.00">norm</text>
</a>
</g>
</g>
<!-- Node5&#45;&gt;Node6 -->
<g id="edge7_Node000005_Node000006" class="edge">
<title>Node5&#45;&gt;Node6</title>
<g id="a_edge7_Node000005_Node000006"><a xlink:title=" ">
<path fill="none" stroke="#63b8ff" d="M295.73,-151.96C325.31,-145.03 364.67,-135.81 391.43,-129.54"/>
<polygon fill="#63b8ff" stroke="#63b8ff" points="392.43,-132.9 401.37,-127.22 390.83,-126.09 392.43,-132.9"/>
</a>
</g>
</g>
<!-- Node7 -->
<g id="Node000007" class="node">
<title>Node7</title>
<g id="a_Node000007"><a xlink:href="AP__Math_8h.html#a34f41fcf2bc527b1728ae04423dfba46" target="_top" xlink:title=" ">
<polygon fill="white" stroke="#666666" points="601,-132 572,-132 572,-113 601,-113 601,-132"/>
<text text-anchor="middle" x="586.5" y="-120" font-family="Helvetica,sans-Serif" font-size="10.00">sq</text>
</a>
</g>
</g>
<!-- Node6&#45;&gt;Node7 -->
<g id="edge8_Node000006_Node000007" class="edge">
<title>Node6&#45;&gt;Node7</title>
<g id="a_edge8_Node000006_Node000007"><a xlink:title=" ">
<path fill="none" stroke="#63b8ff" d="M443.69,-122.5C473.58,-122.5 529.52,-122.5 561.48,-122.5"/>
<polygon fill="#63b8ff" stroke="#63b8ff" points="561.7,-126 571.7,-122.5 561.7,-119 561.7,-126"/>
</a>
</g>
</g>
<!-- Node9 -->
<g id="Node000009" class="node">
<title>Node9</title>
<g id="a_Node000009"><a xlink:href="classLocation.html#ad9b9772b9d84be174e25a3c35f84702e" target="_top" xlink:title=" ">
<polygon fill="white" stroke="#666666" points="649,-95 524,-95 524,-76 649,-76 649,-95"/>
<text text-anchor="middle" x="586.5" y="-83" font-family="Helvetica,sans-Serif" font-size="10.00">Location::offset_latlng</text>
</a>
</g>
</g>
<!-- Node8&#45;&gt;Node9 -->
<g id="edge10_Node000008_Node000009" class="edge">
<title>Node8&#45;&gt;Node9</title>
<g id="a_edge10_Node000008_Node000009"><a xlink:title=" ">
<path fill="none" stroke="#63b8ff" d="M468.63,-85.5C482.68,-85.5 498.54,-85.5 513.94,-85.5"/>
<polygon fill="#63b8ff" stroke="#63b8ff" points="513.97,-89 523.97,-85.5 513.97,-82 513.97,-89"/>
</a>
</g>
</g>
<!-- Node9&#45;&gt;Node4 -->
<g id="edge12_Node000009_Node000004" class="edge">
<title>Node9&#45;&gt;Node4</title>
<g id="a_edge12_Node000009_Node000004"><a xlink:title=" ">
<path fill="none" stroke="#63b8ff" d="M622.39,-95C631.2,-97.75 640.54,-100.97 649,-104.5 673.37,-114.68 699.57,-128.73 719.64,-140.21"/>
<polygon fill="#63b8ff" stroke="#63b8ff" points="718,-143.3 728.4,-145.28 721.5,-137.24 718,-143.3"/>
</a>
</g>
</g>
<!-- Node10 -->
<g id="Node000010" class="node">
<title>Node10</title>
<g id="a_Node000010"><a xlink:href="classLocation.html#a526b1e4735fe7dfcdc3cc9af638d017c" target="_top" xlink:title=" ">
<polygon fill="white" stroke="#666666" points="821,-111 688,-111 688,-92 821,-92 821,-111"/>
<text text-anchor="middle" x="754.5" y="-99" font-family="Helvetica,sans-Serif" font-size="10.00">Location::limit_lattitude</text>
</a>
</g>
</g>
<!-- Node9&#45;&gt;Node10 -->
<g id="edge11_Node000009_Node000010" class="edge">
<title>Node9&#45;&gt;Node10</title>
<g id="a_edge11_Node000009_Node000010"><a xlink:title=" ">
<path fill="none" stroke="#63b8ff" d="M649.31,-91.46C658.52,-92.35 668.1,-93.27 677.55,-94.18"/>
<polygon fill="#63b8ff" stroke="#63b8ff" points="677.45,-97.69 687.74,-95.16 678.13,-90.72 677.45,-97.69"/>
</a>
</g>
</g>
<!-- Node11 -->
<g id="Node000011" class="node">
<title>Node11</title>
<g id="a_Node000011"><a xlink:href="classLocation.html#a785b0c592d17ce62f33ca9c8281335c6" target="_top" xlink:title=" ">
<polygon fill="white" stroke="#666666" points="824,-74 685,-74 685,-55 824,-55 824,-74"/>
<text text-anchor="middle" x="754.5" y="-62" font-family="Helvetica,sans-Serif" font-size="10.00">Location::wrap_longitude</text>
</a>
</g>
</g>
<!-- Node9&#45;&gt;Node11 -->
<g id="edge13_Node000009_Node000011" class="edge">
<title>Node9&#45;&gt;Node11</title>
<g id="a_edge13_Node000009_Node000011"><a xlink:title=" ">
<path fill="none" stroke="#63b8ff" d="M649.31,-77.68C657.66,-76.62 666.31,-75.53 674.91,-74.44"/>
<polygon fill="#63b8ff" stroke="#63b8ff" points="675.46,-77.9 684.94,-73.17 674.58,-70.96 675.46,-77.9"/>
</a>
</g>
</g>
<!-- Node12&#45;&gt;Node8 -->
<g id="edge15_Node000012_Node000008" class="edge">
<title>Node12&#45;&gt;Node8</title>
<g id="a_edge15_Node000012_Node000008"><a xlink:title=" ">
<path fill="none" stroke="#63b8ff" d="M321.28,-85.5C336.17,-85.5 351.81,-85.5 366.2,-85.5"/>
<polygon fill="#63b8ff" stroke="#63b8ff" points="366.42,-89 376.42,-85.5 366.42,-82 366.42,-89"/>
</a>
</g>
</g>
<!-- Node12&#45;&gt;Node13 -->
<g id="edge16_Node000012_Node000013" class="edge">
<title>Node12&#45;&gt;Node13</title>
<g id="a_edge16_Node000012_Node000013"><a xlink:title=" ">
<path fill="none" stroke="#63b8ff" d="M297.88,-75.97C325.15,-69.91 360.04,-62.16 385.8,-56.43"/>
<polygon fill="#63b8ff" stroke="#63b8ff" points="386.88,-59.78 395.88,-54.19 385.36,-52.95 386.88,-59.78"/>
</a>
</g>
</g>
</g>
</svg>
