<?xml version="1.0" encoding="UTF-8" standalone="no"?>
<!DOCTYPE svg PUBLIC "-//W3C//DTD SVG 1.1//EN"
 "http://www.w3.org/Graphics/SVG/1.1/DTD/svg11.dtd">
<!-- Generated by graphviz version 2.43.0 (0)
 -->
<!-- Title: AP_FlashStorage::write_all Pages: 1 -->
<!--zoomable 98 -->

<svg id="main" version="1.1" xmlns="http://www.w3.org/2000/svg" xmlns:xlink="http://www.w3.org/1999/xlink" xml:space="preserve" onload="init(evt)">
<style type="text/css"><![CDATA[
.node, .edge {opacity: 0.7;}
.node.selected, .edge.selected {opacity: 1;}
.edge:hover path { stroke: red; }
.edge:hover polygon { stroke: red; fill: red; }
]]></style>

<defs>
  <circle id="rim" cx="0" cy="0" r="7"/>
  <circle id="rim2" cx="0" cy="0" r="3.5"/>
  <g id="zoomPlus">
    <use xlink:href="#rim" fill="#404040"><set attributeName="fill" to="#808080" begin="zoomplus.mouseover" end="zoomplus.mouseout"/></use>
    <path d="M-4,0h8M0,-4v8" fill="none" stroke="white" stroke-width="1.5" pointer-events="none"/>
  </g>
  <g id="zoomMin">
    <use xlink:href="#rim" fill="#404040"><set attributeName="fill" to="#808080" begin="zoomminus.mouseover" end="zoomminus.mouseout"/></use>
    <path d="M-4,0h8" fill="none" stroke="white" stroke-width="1.5" pointer-events="none"/>
  </g>
  <g id="arrowUp" transform="translate(30 24)">
    <use xlink:href="#rim"/>
    <path pointer-events="none" fill="none" stroke="white" stroke-width="1.5" d="M0,-3.0v7 M-2.5,-0.5L0,-3.0L2.5,-0.5"/>
  </g>
  <g id="arrowRight" transform="rotate(90) translate(36 -43)">
    <use xlink:href="#rim"/>
    <path pointer-events="none" fill="none" stroke="white" stroke-width="1.5" d="M0,-3.0v7 M-2.5,-0.5L0,-3.0L2.5,-0.5"/>
  </g>
  <g id="arrowDown" transform="rotate(180) translate(-30 -48)">
    <use xlink:href="#rim"/>
    <path pointer-events="none" fill="none" stroke="white" stroke-width="1.5" d="M0,-3.0v7 M-2.5,-0.5L0,-3.0L2.5,-0.5"/>
  </g>
  <g id="arrowLeft" transform="rotate(270) translate(-36 17)">
    <use xlink:href="#rim"/>
    <path pointer-events="none" fill="none" stroke="white" stroke-width="1.5" d="M0,-3.0v7 M-2.5,-0.5L0,-3.0L2.5,-0.5"/>
  </g>
  <g id="resetDef">
    <use xlink:href="#rim2" fill="#404040"><set attributeName="fill" to="#808080" begin="reset.mouseover" end="reset.mouseout"/></use>
  </g>
</defs>
<script type="application/ecmascript">
var viewWidth = 864;
var viewHeight = 98;
var sectionId = 'dynsection-17';
</script>
<script type="application/ecmascript" xlink:href="svg.min.js"/>
<svg id="graph" class="graph">
<g id="viewport">
<title>AP_FlashStorage::write_all</title>
<!-- Node1 -->
<g id="Node000001" class="node">
<title>Node1</title>
<g id="a_Node000001"><a xlink:title=" ">
<polygon fill="#999999" stroke="#666666" points="146,-41.78 0,-41.78 0,-22.78 146,-22.78 146,-41.78"/>
<text text-anchor="middle" x="73" y="-29.78" font-family="Helvetica,sans-Serif" font-size="10.00">AP_FlashStorage::write_all</text>
</a>
</g>
</g>
<!-- Node2 -->
<g id="Node000002" class="node">
<title>Node2</title>
<g id="a_Node000002"><a xlink:href="classAP__FlashStorage.html#a1c7255d47fd8dd57f5248130795b5dd6" target="_top" xlink:title=" ">
<polygon fill="white" stroke="#666666" points="325,-78.78 182,-78.78 182,-59.78 325,-59.78 325,-78.78"/>
<text text-anchor="middle" x="253.5" y="-66.78" font-family="Helvetica,sans-Serif" font-size="10.00">AP_FlashStorage::all_zero</text>
</a>
</g>
</g>
<!-- Node1&#45;&gt;Node2 -->
<g id="edge1_Node000001_Node000002" class="edge">
<title>Node1&#45;&gt;Node2</title>
<g id="a_edge1_Node000001_Node000002"><a xlink:title=" ">
<path fill="none" stroke="#63b8ff" d="M119.97,-41.81C143.3,-46.65 171.84,-52.56 196.45,-57.66"/>
<polygon fill="#63b8ff" stroke="#63b8ff" points="195.88,-61.12 206.38,-59.72 197.3,-54.26 195.88,-61.12"/>
</a>
</g>
</g>
<!-- Node3 -->
<g id="Node000003" class="node">
<title>Node3</title>
<g id="a_Node000003"><a xlink:href="classAP__FlashStorage.html#a7e7e3eded1b0236702d92e95c7051537" target="_top" xlink:title=" ">
<polygon fill="white" stroke="#666666" points="318,-41.78 189,-41.78 189,-22.78 318,-22.78 318,-41.78"/>
<text text-anchor="middle" x="253.5" y="-29.78" font-family="Helvetica,sans-Serif" font-size="10.00">AP_FlashStorage::write</text>
</a>
</g>
</g>
<!-- Node1&#45;&gt;Node3 -->
<g id="edge2_Node000001_Node000003" class="edge">
<title>Node1&#45;&gt;Node3</title>
<g id="a_edge2_Node000001_Node000003"><a xlink:title=" ">
<path fill="none" stroke="#63b8ff" d="M146.09,-32.28C156.79,-32.28 167.84,-32.28 178.58,-32.28"/>
<polygon fill="#63b8ff" stroke="#63b8ff" points="178.77,-35.78 188.77,-32.28 178.77,-28.78 178.77,-35.78"/>
</a>
</g>
</g>
<!-- Node4 -->
<g id="Node000004" class="node">
<title>Node4</title>
<g id="a_Node000004"><a xlink:href="classAP__FlashStorage.html#a8863c3eabf550c4db0fcdb49a564640f" target="_top" xlink:title=" ">
<polygon fill="white" stroke="#666666" points="497,-47.28 361,-47.28 361,-17.28 497,-17.28 497,-47.28"/>
<text text-anchor="start" x="369" y="-35.28" font-family="Helvetica,sans-Serif" font-size="10.00">AP_FlashStorage::switch</text>
<text text-anchor="middle" x="429" y="-24.28" font-family="Helvetica,sans-Serif" font-size="10.00">_full_sector</text>
</a>
</g>
</g>
<!-- Node3&#45;&gt;Node4 -->
<g id="edge3_Node000003_Node000004" class="edge">
<title>Node3&#45;&gt;Node4</title>
<g id="a_edge3_Node000003_Node000004"><a xlink:title=" ">
<path fill="none" stroke="#63b8ff" d="M318.12,-32.28C328.67,-32.28 339.72,-32.28 350.57,-32.28"/>
<polygon fill="#63b8ff" stroke="#63b8ff" points="350.89,-35.78 360.89,-32.28 350.89,-28.78 350.89,-35.78"/>
</a>
</g>
</g>
<!-- Node7 -->
<g id="Node000007" class="node">
<title>Node7</title>
<g id="a_Node000007"><a xlink:href="classAP__FlashStorage.html#a72ae131c0d9936d92af8bce8e77b2137" target="_top" xlink:title=" ">
<polygon fill="white" stroke="#666666" points="856,-90.28 720,-90.28 720,-60.28 856,-60.28 856,-90.28"/>
<text text-anchor="start" x="728" y="-78.28" font-family="Helvetica,sans-Serif" font-size="10.00">AP_FlashStorage::switch</text>
<text text-anchor="middle" x="788" y="-67.28" font-family="Helvetica,sans-Serif" font-size="10.00">_sectors</text>
</a>
</g>
</g>
<!-- Node3&#45;&gt;Node7 -->
<g id="edge8_Node000003_Node000007" class="edge">
<title>Node3&#45;&gt;Node7</title>
<g id="a_edge8_Node000003_Node000007"><a xlink:title=" ">
<path fill="none" stroke="#63b8ff" d="M289.72,-41.87C310.33,-47.06 336.95,-53.06 361,-56.28 482.1,-72.5 624.11,-75.7 709.74,-75.93"/>
<polygon fill="#63b8ff" stroke="#63b8ff" points="709.9,-79.43 719.9,-75.95 709.9,-72.43 709.9,-79.43"/>
</a>
</g>
</g>
<!-- Node5 -->
<g id="Node000005" class="node">
<title>Node5</title>
<g id="a_Node000005"><a xlink:href="classAP__FlashStorage.html#a2d10a15c687dd312350a878c264c39b2" target="_top" xlink:title=" ">
<polygon fill="white" stroke="#666666" points="684,-44.28 533,-44.28 533,-14.28 684,-14.28 684,-44.28"/>
<text text-anchor="start" x="541" y="-32.28" font-family="Helvetica,sans-Serif" font-size="10.00">AP_FlashStorage::protected</text>
<text text-anchor="middle" x="608.5" y="-21.28" font-family="Helvetica,sans-Serif" font-size="10.00">_switch_full_sector</text>
</a>
</g>
</g>
<!-- Node4&#45;&gt;Node5 -->
<g id="edge4_Node000004_Node000005" class="edge">
<title>Node4&#45;&gt;Node5</title>
<g id="a_edge4_Node000004_Node000005"><a xlink:title=" ">
<path fill="none" stroke="#63b8ff" d="M497.11,-31.15C505.5,-31.01 514.17,-30.86 522.8,-30.71"/>
<polygon fill="#63b8ff" stroke="#63b8ff" points="522.93,-34.21 532.87,-30.54 522.82,-27.21 522.93,-34.21"/>
</a>
</g>
</g>
<!-- Node5&#45;&gt;Node1 -->
<g id="edge7_Node000005_Node000001" class="edge">
<title>Node5&#45;&gt;Node1</title>
<g id="a_edge7_Node000005_Node000001"><a xlink:title=" ">
<path fill="none" stroke="#63b8ff" d="M539.41,-14.27C525.45,-11.78 510.8,-9.58 497,-8.28 357.6,4.85 321.3,0.84 182,-13.28 164.9,-15.02 146.44,-17.89 129.69,-20.88"/>
<polygon fill="#63b8ff" stroke="#63b8ff" points="128.72,-17.5 119.51,-22.75 129.98,-24.39 128.72,-17.5"/>
</a>
</g>
</g>
<!-- Node6 -->
<g id="Node000006" class="node">
<title>Node6</title>
<g id="a_Node000006"><a xlink:href="classAP__FlashStorage.html#a59b99278be33c5d60b0f6d79cb6d069b" target="_top" xlink:title=" ">
<polygon fill="white" stroke="#666666" points="853.5,-42.28 722.5,-42.28 722.5,-12.28 853.5,-12.28 853.5,-42.28"/>
<text text-anchor="start" x="730.5" y="-30.28" font-family="Helvetica,sans-Serif" font-size="10.00">AP_FlashStorage::erase</text>
<text text-anchor="middle" x="788" y="-19.28" font-family="Helvetica,sans-Serif" font-size="10.00">_sector</text>
</a>
</g>
</g>
<!-- Node5&#45;&gt;Node6 -->
<g id="edge5_Node000005_Node000006" class="edge">
<title>Node5&#45;&gt;Node6</title>
<g id="a_edge5_Node000005_Node000006"><a xlink:title=" ">
<path fill="none" stroke="#63b8ff" d="M684,-28.44C693.34,-28.34 702.89,-28.23 712.23,-28.12"/>
<polygon fill="#63b8ff" stroke="#63b8ff" points="712.3,-31.62 722.26,-28.01 712.23,-24.62 712.3,-31.62"/>
</a>
</g>
</g>
<!-- Node5&#45;&gt;Node7 -->
<g id="edge6_Node000005_Node000007" class="edge">
<title>Node5&#45;&gt;Node7</title>
<g id="a_edge6_Node000005_Node000007"><a xlink:title=" ">
<path fill="none" stroke="#63b8ff" d="M667.62,-44.34C684.1,-48.62 702.19,-53.3 719.19,-57.71"/>
<polygon fill="#63b8ff" stroke="#63b8ff" points="718.49,-61.14 729.05,-60.26 720.25,-54.37 718.49,-61.14"/>
</a>
</g>
</g>
</g>
</svg>

<g id="navigator" transform="translate(0 0)" fill="#404254">
  <rect fill="#f2f5e9" fill-opacity="0.5" stroke="#606060" stroke-width=".5" x="0" y="0" width="60" height="60"/>
  <use id="zoomplus" xlink:href="#zoomPlus" x="17" y="9" onmousedown="handleZoom(evt,'in')"/>
  <use id="zoomminus" xlink:href="#zoomMin" x="42" y="9" onmousedown="handleZoom(evt,'out')"/>
  <use id="reset" xlink:href="#resetDef" x="30" y="36" onmousedown="handleReset()"/>
   <use id="arrowup" xlink:href="#arrowUp" x="0" y="0" onmousedown="handlePan(0,-1)"/>
  <use id="arrowright" xlink:href="#arrowRight" x="0" y="0" onmousedown="handlePan(1,0)"/>
  <use id="arrowdown" xlink:href="#arrowDown" x="0" y="0" onmousedown="handlePan(0,1)"/>
  <use id="arrowleft" xlink:href="#arrowLeft" x="0" y="0" onmousedown="handlePan(-1,0)"/>
</g>
<svg viewBox="0 0 15 15" width="100%" height="30px" preserveAspectRatio="xMaxYMin meet">
 <g id="arrow_out" transform="scale(0.3 0.3)">
  <a xlink:href="classAP__FlashStorage_a14738e7809b4eb36f7666a2402e4cf30_cgraph_org.svg" target="_base">
   <rect id="button" ry="5" rx="5" y="6" x="6" height="38" width="38"
        fill="#f2f5e9" fill-opacity="0.5" stroke="#606060" stroke-width="1.0"/>
   <path id="arrow"
     d="M 11.500037,31.436501 C 11.940474,20.09759 22.043105,11.32322 32.158766,21.979434 L 37.068811,17.246167 C 37.068811,17.246167 37.088388,32 37.088388,32 L 22.160133,31.978069 C 22.160133,31.978069 26.997745,27.140456 26.997745,27.140456 C 18.528582,18.264221 13.291696,25.230495 11.500037,31.436501 z"
     style="fill:#404040;"/>
  </a>
 </g>
</svg>

<style type='text/css'>
<![CDATA[
[data-mouse-over-selected='false'] { opacity: 0.7; }
[data-mouse-over-selected='true']  { opacity: 1.0; }
]]>
</style>
<script type="application/ecmascript"><![CDATA[
document.addEventListener('DOMContentLoaded', (event) => {
  highlightEdges();
  highlightAdjacentNodes();
});
]]></script>
</svg>
