<?xml version="1.0" encoding="UTF-8" standalone="no"?>
<!DOCTYPE svg PUBLIC "-//W3C//DTD SVG 1.1//EN"
 "http://www.w3.org/Graphics/SVG/1.1/DTD/svg11.dtd">
<!-- Generated by graphviz version 2.43.0 (0)
 -->
<!-- Title: RangeFinder::signal_quality_pct_orient Pages: 1 -->
<svg width="664pt" height="124pt"
 viewBox="0.00 0.00 664.00 123.50" xmlns="http://www.w3.org/2000/svg" xmlns:xlink="http://www.w3.org/1999/xlink">
<g id="graph0" class="graph" transform="scale(1 1) rotate(0) translate(4 119.5)">
<title>RangeFinder::signal_quality_pct_orient</title>
<!-- Node1 -->
<g id="Node000001" class="node">
<title>Node1</title>
<g id="a_Node000001"><a xlink:title=" ">
<polygon fill="#999999" stroke="#666666" points="113,-56 0,-56 0,-26 113,-26 113,-56"/>
<text text-anchor="start" x="8" y="-44" font-family="Helvetica,sans-Serif" font-size="10.00">RangeFinder::signal</text>
<text text-anchor="middle" x="56.5" y="-33" font-family="Helvetica,sans-Serif" font-size="10.00">_quality_pct_orient</text>
</a>
</g>
</g>
<!-- Node2 -->
<g id="Node000002" class="node">
<title>Node2</title>
<g id="a_Node000002"><a xlink:href="classRangeFinder.html#a1491b0acf5a52d28ad96980bf494fab0" target="_top" xlink:title=" ">
<polygon fill="white" stroke="#666666" points="297,-72.5 149,-72.5 149,-53.5 297,-53.5 297,-72.5"/>
<text text-anchor="middle" x="223" y="-60.5" font-family="Helvetica,sans-Serif" font-size="10.00">RangeFinder::find_instance</text>
</a>
</g>
</g>
<!-- Node1&#45;&gt;Node2 -->
<g id="edge1_Node000001_Node000002" class="edge">
<title>Node1&#45;&gt;Node2</title>
<g id="a_edge1_Node000001_Node000002"><a xlink:title=" ">
<path fill="none" stroke="#63b8ff" d="M113.19,-48.45C122.09,-49.64 131.45,-50.89 140.8,-52.14"/>
<polygon fill="#63b8ff" stroke="#63b8ff" points="140.53,-55.64 150.91,-53.49 141.46,-48.7 140.53,-55.64"/>
</a>
</g>
</g>
<!-- Node7 -->
<g id="Node000007" class="node">
<title>Node7</title>
<g id="a_Node000007"><a xlink:href="classAP__RangeFinder__Backend.html#a9f9027e2ca02c17d702eb875b6c76876" target="_top" xlink:title=" ">
<polygon fill="white" stroke="#666666" points="294,-35 152,-35 152,-5 294,-5 294,-35"/>
<text text-anchor="start" x="160" y="-23" font-family="Helvetica,sans-Serif" font-size="10.00">AP_RangeFinder_Backend</text>
<text text-anchor="middle" x="223" y="-12" font-family="Helvetica,sans-Serif" font-size="10.00">::signal_quality_pct</text>
</a>
</g>
</g>
<!-- Node1&#45;&gt;Node7 -->
<g id="edge6_Node000001_Node000007" class="edge">
<title>Node1&#45;&gt;Node7</title>
<g id="a_edge6_Node000001_Node000007"><a xlink:title=" ">
<path fill="none" stroke="#63b8ff" d="M113.19,-33.89C122.39,-32.72 132.09,-31.48 141.75,-30.24"/>
<polygon fill="#63b8ff" stroke="#63b8ff" points="142.31,-33.7 151.78,-28.96 141.42,-26.76 142.31,-33.7"/>
</a>
</g>
</g>
<!-- Node3 -->
<g id="Node000003" class="node">
<title>Node3</title>
<g id="a_Node000003"><a xlink:href="classRangeFinder.html#aa7b45987158dbccaea5ea52ed4dd1954" target="_top" xlink:title=" ">
<polygon fill="white" stroke="#666666" points="478,-115.5 333,-115.5 333,-96.5 478,-96.5 478,-115.5"/>
<text text-anchor="middle" x="405.5" y="-103.5" font-family="Helvetica,sans-Serif" font-size="10.00">RangeFinder::get_backend</text>
</a>
</g>
</g>
<!-- Node2&#45;&gt;Node3 -->
<g id="edge2_Node000002_Node000003" class="edge">
<title>Node2&#45;&gt;Node3</title>
<g id="a_edge2_Node000002_Node000003"><a xlink:title=" ">
<path fill="none" stroke="#63b8ff" d="M264.06,-72.54C290.82,-78.92 326.2,-87.35 354.76,-94.15"/>
<polygon fill="#63b8ff" stroke="#63b8ff" points="354.01,-97.57 364.55,-96.48 355.64,-90.76 354.01,-97.57"/>
</a>
</g>
</g>
<!-- Node4 -->
<g id="Node000004" class="node">
<title>Node4</title>
<g id="a_Node000004"><a xlink:href="classAP__RangeFinder__Backend.html#ab18f1f3fb5439ebc82721c6937ee3bc6" target="_top" xlink:title=" ">
<polygon fill="white" stroke="#666666" points="476.5,-78 334.5,-78 334.5,-48 476.5,-48 476.5,-78"/>
<text text-anchor="start" x="342.5" y="-66" font-family="Helvetica,sans-Serif" font-size="10.00">AP_RangeFinder_Backend</text>
<text text-anchor="middle" x="405.5" y="-55" font-family="Helvetica,sans-Serif" font-size="10.00">::orientation</text>
</a>
</g>
</g>
<!-- Node2&#45;&gt;Node4 -->
<g id="edge3_Node000002_Node000004" class="edge">
<title>Node2&#45;&gt;Node4</title>
<g id="a_edge3_Node000002_Node000004"><a xlink:title=" ">
<path fill="none" stroke="#63b8ff" d="M297.16,-63C306.1,-63 315.28,-63 324.32,-63"/>
<polygon fill="#63b8ff" stroke="#63b8ff" points="324.45,-66.5 334.45,-63 324.45,-59.5 324.45,-66.5"/>
</a>
</g>
</g>
<!-- Node5 -->
<g id="Node000005" class="node">
<title>Node5</title>
<g id="a_Node000005"><a xlink:href="classAP__RangeFinder__Backend.html#aed76f84a79e749bb871b9022b48aafcc" target="_top" xlink:title=" ">
<polygon fill="white" stroke="#666666" points="476.5,-30 334.5,-30 334.5,0 476.5,0 476.5,-30"/>
<text text-anchor="start" x="342.5" y="-18" font-family="Helvetica,sans-Serif" font-size="10.00">AP_RangeFinder_Backend</text>
<text text-anchor="middle" x="405.5" y="-7" font-family="Helvetica,sans-Serif" font-size="10.00">::status</text>
</a>
</g>
</g>
<!-- Node2&#45;&gt;Node5 -->
<g id="edge4_Node000002_Node000005" class="edge">
<title>Node2&#45;&gt;Node5</title>
<g id="a_edge4_Node000002_Node000005"><a xlink:title=" ">
<path fill="none" stroke="#63b8ff" d="M260.78,-53.5C272.37,-50.48 285.23,-47.12 297,-44 310.61,-40.39 325.17,-36.49 339.05,-32.76"/>
<polygon fill="#63b8ff" stroke="#63b8ff" points="340.26,-36.05 349.01,-30.07 338.44,-29.29 340.26,-36.05"/>
</a>
</g>
</g>
<!-- Node6 -->
<g id="Node000006" class="node">
<title>Node6</title>
<g id="a_Node000006"><a xlink:href="classAP__RangeFinder__Backend.html#aca492be94498767328c54fbca99dc5b0" target="_top" xlink:title=" ">
<polygon fill="white" stroke="#666666" points="656,-30 514,-30 514,0 656,0 656,-30"/>
<text text-anchor="start" x="522" y="-18" font-family="Helvetica,sans-Serif" font-size="10.00">AP_RangeFinder_Backend</text>
<text text-anchor="middle" x="585" y="-7" font-family="Helvetica,sans-Serif" font-size="10.00">::type</text>
</a>
</g>
</g>
<!-- Node5&#45;&gt;Node6 -->
<g id="edge5_Node000005_Node000006" class="edge">
<title>Node5&#45;&gt;Node6</title>
<g id="a_edge5_Node000005_Node000006"><a xlink:title=" ">
<path fill="none" stroke="#63b8ff" d="M476.65,-15C485.52,-15 494.65,-15 503.67,-15"/>
<polygon fill="#63b8ff" stroke="#63b8ff" points="503.78,-18.5 513.78,-15 503.78,-11.5 503.78,-18.5"/>
</a>
</g>
</g>
</g>
</svg>
