<?xml version="1.0" encoding="UTF-8" standalone="no"?>
<!DOCTYPE svg PUBLIC "-//W3C//DTD SVG 1.1//EN"
 "http://www.w3.org/Graphics/SVG/1.1/DTD/svg11.dtd">
<!-- Generated by graphviz version 2.43.0 (0)
 -->
<!-- Title: CrashCatcher_DumpMemoryFlash Pages: 1 -->
<svg width="566pt" height="101pt"
 viewBox="0.00 0.00 566.00 101.00" xmlns="http://www.w3.org/2000/svg" xmlns:xlink="http://www.w3.org/1999/xlink">
<g id="graph0" class="graph" transform="scale(1 1) rotate(0) translate(4 97)">
<title>CrashCatcher_DumpMemoryFlash</title>
<!-- Node1 -->
<g id="Node000001" class="node">
<title>Node1</title>
<g id="a_Node000001"><a xlink:title=" ">
<polygon fill="#999999" stroke="#666666" points="183,-37 0,-37 0,-18 183,-18 183,-37"/>
<text text-anchor="middle" x="91.5" y="-25" font-family="Helvetica,sans-Serif" font-size="10.00">CrashCatcher_DumpMemoryFlash</text>
</a>
</g>
</g>
<!-- Node2 -->
<g id="Node000002" class="node">
<title>Node2</title>
<g id="a_Node000002"><a xlink:href="crashdump_8c.html#a46baed56155831a8480f3a3ba9f312af" target="_top" xlink:title=" ">
<polygon fill="white" stroke="#666666" points="354.5,-56 247.5,-56 247.5,-37 354.5,-37 354.5,-56"/>
<text text-anchor="middle" x="301" y="-44" font-family="Helvetica,sans-Serif" font-size="10.00">flush_dump_buffer</text>
</a>
</g>
</g>
<!-- Node1&#45;&gt;Node2 -->
<g id="edge1_Node000001_Node000002" class="edge">
<title>Node1&#45;&gt;Node2</title>
<g id="a_edge1_Node000001_Node000002"><a xlink:title=" ">
<path fill="none" stroke="#63b8ff" d="M183.21,-35.81C201.36,-37.47 220.06,-39.18 237.02,-40.73"/>
<polygon fill="#63b8ff" stroke="#63b8ff" points="237.06,-44.25 247.34,-41.68 237.7,-37.28 237.06,-44.25"/>
</a>
</g>
</g>
<!-- Node6 -->
<g id="Node000006" class="node">
<title>Node6</title>
<g id="a_Node000006"><a xlink:href="crashdump_8c.html#a4ab5896ca9c38a9bfa87771be98e0068" target="_top" xlink:title=" ">
<polygon fill="white" stroke="#666666" points="383,-19 219,-19 219,0 383,0 383,-19"/>
<text text-anchor="middle" x="301" y="-7" font-family="Helvetica,sans-Serif" font-size="10.00">stm32_crash_dump_max_size</text>
</a>
</g>
</g>
<!-- Node1&#45;&gt;Node6 -->
<g id="edge5_Node000001_Node000006" class="edge">
<title>Node1&#45;&gt;Node6</title>
<g id="a_edge5_Node000001_Node000006"><a xlink:title=" ">
<path fill="none" stroke="#63b8ff" d="M183.21,-19.63C191.75,-18.89 200.42,-18.14 208.96,-17.4"/>
<polygon fill="#63b8ff" stroke="#63b8ff" points="209.27,-20.88 218.93,-16.53 208.66,-13.91 209.27,-20.88"/>
</a>
</g>
</g>
<!-- Node3 -->
<g id="Node000003" class="node">
<title>Node3</title>
<g id="a_Node000003"><a xlink:href="crashdump_8c.html#a13dc5aeced34e30a9b939a61be4f1de3" target="_top" xlink:title=" ">
<polygon fill="white" stroke="#666666" points="558,-93 419,-93 419,-74 558,-74 558,-93"/>
<text text-anchor="middle" x="488.5" y="-81" font-family="Helvetica,sans-Serif" font-size="10.00">stm32_crash_dump_addr</text>
</a>
</g>
</g>
<!-- Node2&#45;&gt;Node3 -->
<g id="edge2_Node000002_Node000003" class="edge">
<title>Node2&#45;&gt;Node3</title>
<g id="a_edge2_Node000002_Node000003"><a xlink:title=" ">
<path fill="none" stroke="#63b8ff" d="M349.77,-56.03C374.13,-60.89 403.94,-66.83 429.6,-71.95"/>
<polygon fill="#63b8ff" stroke="#63b8ff" points="429.08,-75.42 439.57,-73.94 430.45,-68.55 429.08,-75.42"/>
</a>
</g>
</g>
<!-- Node4 -->
<g id="Node000004" class="node">
<title>Node4</title>
<g id="a_Node000004"><a xlink:href="flash_8c.html#ac90bdf62ee7fb7d8bc651ff52e71d7ff" target="_top" xlink:title=" ">
<polygon fill="white" stroke="#666666" points="541.5,-56 435.5,-56 435.5,-37 541.5,-37 541.5,-56"/>
<text text-anchor="middle" x="488.5" y="-44" font-family="Helvetica,sans-Serif" font-size="10.00">stm32_flash_write</text>
</a>
</g>
</g>
<!-- Node2&#45;&gt;Node4 -->
<g id="edge3_Node000002_Node000004" class="edge">
<title>Node2&#45;&gt;Node4</title>
<g id="a_edge3_Node000002_Node000004"><a xlink:title=" ">
<path fill="none" stroke="#63b8ff" d="M354.66,-46.5C376.58,-46.5 402.2,-46.5 425.06,-46.5"/>
<polygon fill="#63b8ff" stroke="#63b8ff" points="425.35,-50 435.35,-46.5 425.35,-43 425.35,-50"/>
</a>
</g>
</g>
<!-- Node5 -->
<g id="Node000005" class="node">
<title>Node5</title>
<g id="a_Node000005"><a xlink:href="watchdog_8c.html#ab80f904c18b5f435b7663d379d8f3997" target="_top" xlink:title=" ">
<polygon fill="white" stroke="#666666" points="549,-19 428,-19 428,0 549,0 549,-19"/>
<text text-anchor="middle" x="488.5" y="-7" font-family="Helvetica,sans-Serif" font-size="10.00">stm32_watchdog_pat</text>
</a>
</g>
</g>
<!-- Node2&#45;&gt;Node5 -->
<g id="edge4_Node000002_Node000005" class="edge">
<title>Node2&#45;&gt;Node5</title>
<g id="a_edge4_Node000002_Node000005"><a xlink:title=" ">
<path fill="none" stroke="#63b8ff" d="M349.77,-36.97C374.13,-32.11 403.94,-26.17 429.6,-21.05"/>
<polygon fill="#63b8ff" stroke="#63b8ff" points="430.45,-24.45 439.57,-19.06 429.08,-17.58 430.45,-24.45"/>
</a>
</g>
</g>
</g>
</svg>
