<?xml version="1.0" encoding="UTF-8" standalone="no"?>
<!DOCTYPE svg PUBLIC "-//W3C//DTD SVG 1.1//EN"
 "http://www.w3.org/Graphics/SVG/1.1/DTD/svg11.dtd">
<!-- Generated by graphviz version 2.43.0 (0)
 -->
<!-- Title: CrashCatcher_DumpStartFlash Pages: 1 -->
<!--zoomable 247 -->

<svg id="main" version="1.1" xmlns="http://www.w3.org/2000/svg" xmlns:xlink="http://www.w3.org/1999/xlink" xml:space="preserve" onload="init(evt)">
<style type="text/css"><![CDATA[
.node, .edge {opacity: 0.7;}
.node.selected, .edge.selected {opacity: 1;}
.edge:hover path { stroke: red; }
.edge:hover polygon { stroke: red; fill: red; }
]]></style>

<defs>
  <circle id="rim" cx="0" cy="0" r="7"/>
  <circle id="rim2" cx="0" cy="0" r="3.5"/>
  <g id="zoomPlus">
    <use xlink:href="#rim" fill="#404040"><set attributeName="fill" to="#808080" begin="zoomplus.mouseover" end="zoomplus.mouseout"/></use>
    <path d="M-4,0h8M0,-4v8" fill="none" stroke="white" stroke-width="1.5" pointer-events="none"/>
  </g>
  <g id="zoomMin">
    <use xlink:href="#rim" fill="#404040"><set attributeName="fill" to="#808080" begin="zoomminus.mouseover" end="zoomminus.mouseout"/></use>
    <path d="M-4,0h8" fill="none" stroke="white" stroke-width="1.5" pointer-events="none"/>
  </g>
  <g id="arrowUp" transform="translate(30 24)">
    <use xlink:href="#rim"/>
    <path pointer-events="none" fill="none" stroke="white" stroke-width="1.5" d="M0,-3.0v7 M-2.5,-0.5L0,-3.0L2.5,-0.5"/>
  </g>
  <g id="arrowRight" transform="rotate(90) translate(36 -43)">
    <use xlink:href="#rim"/>
    <path pointer-events="none" fill="none" stroke="white" stroke-width="1.5" d="M0,-3.0v7 M-2.5,-0.5L0,-3.0L2.5,-0.5"/>
  </g>
  <g id="arrowDown" transform="rotate(180) translate(-30 -48)">
    <use xlink:href="#rim"/>
    <path pointer-events="none" fill="none" stroke="white" stroke-width="1.5" d="M0,-3.0v7 M-2.5,-0.5L0,-3.0L2.5,-0.5"/>
  </g>
  <g id="arrowLeft" transform="rotate(270) translate(-36 17)">
    <use xlink:href="#rim"/>
    <path pointer-events="none" fill="none" stroke="white" stroke-width="1.5" d="M0,-3.0v7 M-2.5,-0.5L0,-3.0L2.5,-0.5"/>
  </g>
  <g id="resetDef">
    <use xlink:href="#rim2" fill="#404040"><set attributeName="fill" to="#808080" begin="reset.mouseover" end="reset.mouseout"/></use>
  </g>
</defs>
<script type="application/ecmascript">
var viewWidth = 724;
var viewHeight = 247;
var sectionId = 'dynsection-8';
</script>
<script type="application/ecmascript" xlink:href="svg.min.js"/>
<svg id="graph" class="graph">
<g id="viewport">
<title>CrashCatcher_DumpStartFlash</title>
<!-- Node1 -->
<g id="Node000001" class="node">
<title>Node1</title>
<g id="a_Node000001"><a xlink:title=" ">
<polygon fill="#999999" stroke="#666666" points="166,-120 0,-120 0,-101 166,-101 166,-120"/>
<text text-anchor="middle" x="83" y="-108" font-family="Helvetica,sans-Serif" font-size="10.00">CrashCatcher_DumpStartFlash</text>
</a>
</g>
</g>
<!-- Node2 -->
<g id="Node000002" class="node">
<title>Node2</title>
<g id="a_Node000002"><a xlink:href="malloc_8c.html#a7890d818b3995a9836bc415933ed1212" target="_top" xlink:title=" ">
<polygon fill="white" stroke="#666666" points="341.5,-238.5 215.5,-238.5 215.5,-208.5 341.5,-208.5 341.5,-238.5"/>
<text text-anchor="start" x="223.5" y="-226.5" font-family="Helvetica,sans-Serif" font-size="10.00">get_addr_mem_region</text>
<text text-anchor="middle" x="278.5" y="-215.5" font-family="Helvetica,sans-Serif" font-size="10.00">_end_addr</text>
</a>
</g>
</g>
<!-- Node1&#45;&gt;Node2 -->
<g id="edge1_Node000001_Node000002" class="edge">
<title>Node1&#45;&gt;Node2</title>
<g id="a_edge1_Node000001_Node000002"><a xlink:title=" ">
<path fill="none" stroke="#63b8ff" d="M94.23,-120.17C113.74,-138.13 158.23,-176.88 202,-199.5 205.54,-201.33 209.25,-203.05 213.04,-204.67"/>
<polygon fill="#63b8ff" stroke="#63b8ff" points="212,-208.02 222.58,-208.47 214.59,-201.52 212,-208.02"/>
</a>
</g>
</g>
<!-- Node3 -->
<g id="Node000003" class="node">
<title>Node3</title>
<g id="a_Node000003"><a xlink:href="malloc_8c.html#ad9be00027888a4caeeda06a6306d29ca" target="_top" xlink:title=" ">
<polygon fill="white" stroke="#666666" points="341.5,-190.5 215.5,-190.5 215.5,-160.5 341.5,-160.5 341.5,-190.5"/>
<text text-anchor="start" x="223.5" y="-178.5" font-family="Helvetica,sans-Serif" font-size="10.00">get_addr_mem_region</text>
<text text-anchor="middle" x="278.5" y="-167.5" font-family="Helvetica,sans-Serif" font-size="10.00">_start_addr</text>
</a>
</g>
</g>
<!-- Node1&#45;&gt;Node3 -->
<g id="edge2_Node000001_Node000003" class="edge">
<title>Node1&#45;&gt;Node3</title>
<g id="a_edge2_Node000001_Node000003"><a xlink:title=" ">
<path fill="none" stroke="#63b8ff" d="M111.11,-120.15C134.99,-128.59 170.72,-141.1 202,-151.5 207.69,-153.39 213.62,-155.33 219.56,-157.25"/>
<polygon fill="#63b8ff" stroke="#63b8ff" points="218.92,-160.73 229.51,-160.46 221.06,-154.06 218.92,-160.73"/>
</a>
</g>
</g>
<!-- Node4 -->
<g id="Node000004" class="node">
<title>Node4</title>
<g id="a_Node000004"><a xlink:href="malloc_8c.html#adc36a8e7c21fe5216e10ba1a530eaa56" target="_top" xlink:title=" ">
<polygon fill="white" stroke="#666666" points="343,-142 214,-142 214,-123 343,-123 343,-142"/>
<text text-anchor="middle" x="278.5" y="-130" font-family="Helvetica,sans-Serif" font-size="10.00">is_address_in_memory</text>
</a>
</g>
</g>
<!-- Node1&#45;&gt;Node4 -->
<g id="edge3_Node000001_Node000004" class="edge">
<title>Node1&#45;&gt;Node4</title>
<g id="a_edge3_Node000001_Node000004"><a xlink:title=" ">
<path fill="none" stroke="#63b8ff" d="M166.06,-119.83C178.53,-121.25 191.34,-122.7 203.63,-124.1"/>
<polygon fill="#63b8ff" stroke="#63b8ff" points="203.47,-127.61 213.8,-125.26 204.26,-120.65 203.47,-127.61"/>
</a>
</g>
</g>
<!-- Node5 -->
<g id="Node000005" class="node">
<title>Node5</title>
<g id="a_Node000005"><a xlink:href="crashdump_8c.html#a7c89073037aa86ffe396c22c4f458be2" target="_top" xlink:title=" ">
<polygon fill="white" stroke="#666666" points="352.5,-104.5 204.5,-104.5 204.5,-74.5 352.5,-74.5 352.5,-104.5"/>
<text text-anchor="start" x="212.5" y="-92.5" font-family="Helvetica,sans-Serif" font-size="10.00">stm32_crash_dump_region</text>
<text text-anchor="middle" x="278.5" y="-81.5" font-family="Helvetica,sans-Serif" font-size="10.00">_erased</text>
</a>
</g>
</g>
<!-- Node1&#45;&gt;Node5 -->
<g id="edge4_Node000001_Node000005" class="edge">
<title>Node1&#45;&gt;Node5</title>
<g id="a_edge4_Node000001_Node000005"><a xlink:title=" ">
<path fill="none" stroke="#63b8ff" d="M166.06,-101.59C175.37,-100.58 184.86,-99.55 194.18,-98.54"/>
<polygon fill="#63b8ff" stroke="#63b8ff" points="194.64,-102.01 204.21,-97.45 193.89,-95.05 194.64,-102.01"/>
</a>
</g>
</g>
<!-- Node8 -->
<g id="Node000008" class="node">
<title>Node8</title>
<g id="a_Node000008"><a xlink:href="flash_8c.html#a532eaef3254bd928f2416562213b827f" target="_top" xlink:title=" ">
<polygon fill="white" stroke="#666666" points="355,-56 202,-56 202,-37 355,-37 355,-56"/>
<text text-anchor="middle" x="278.5" y="-44" font-family="Helvetica,sans-Serif" font-size="10.00">stm32_flash_keep_unlocked</text>
</a>
</g>
</g>
<!-- Node1&#45;&gt;Node8 -->
<g id="edge7_Node000001_Node000008" class="edge">
<title>Node1&#45;&gt;Node8</title>
<g id="a_edge7_Node000001_Node000008"><a xlink:title=" ">
<path fill="none" stroke="#63b8ff" d="M106.78,-100.89C130.34,-91.18 168.33,-76.11 202,-65.5 209.7,-63.07 217.91,-60.74 225.99,-58.6"/>
<polygon fill="#63b8ff" stroke="#63b8ff" points="226.91,-61.98 235.72,-56.08 225.16,-55.2 226.91,-61.98"/>
</a>
</g>
</g>
<!-- Node12 -->
<g id="Node000012" class="node">
<title>Node12</title>
<g id="a_Node000012"><a xlink:href="watchdog_8c.html#ab80f904c18b5f435b7663d379d8f3997" target="_top" xlink:title=" ">
<polygon fill="white" stroke="#666666" points="339,-19 218,-19 218,0 339,0 339,-19"/>
<text text-anchor="middle" x="278.5" y="-7" font-family="Helvetica,sans-Serif" font-size="10.00">stm32_watchdog_pat</text>
</a>
</g>
</g>
<!-- Node1&#45;&gt;Node12 -->
<g id="edge12_Node000001_Node000012" class="edge">
<title>Node1&#45;&gt;Node12</title>
<g id="a_edge12_Node000001_Node000012"><a xlink:title=" ">
<path fill="none" stroke="#63b8ff" d="M94.52,-100.97C114.17,-83.69 158.39,-47.16 202,-27.5 206.45,-25.49 211.15,-23.7 215.94,-22.09"/>
<polygon fill="#63b8ff" stroke="#63b8ff" points="217.33,-25.32 225.86,-19.04 215.27,-18.63 217.33,-25.32"/>
</a>
</g>
</g>
<!-- Node6 -->
<g id="Node000006" class="node">
<title>Node6</title>
<g id="a_Node000006"><a xlink:href="crashdump_8c.html#a13dc5aeced34e30a9b939a61be4f1de3" target="_top" xlink:title=" ">
<polygon fill="white" stroke="#666666" points="542.5,-134 403.5,-134 403.5,-115 542.5,-115 542.5,-134"/>
<text text-anchor="middle" x="473" y="-122" font-family="Helvetica,sans-Serif" font-size="10.00">stm32_crash_dump_addr</text>
</a>
</g>
</g>
<!-- Node5&#45;&gt;Node6 -->
<g id="edge5_Node000005_Node000006" class="edge">
<title>Node5&#45;&gt;Node6</title>
<g id="a_edge5_Node000005_Node000006"><a xlink:title=" ">
<path fill="none" stroke="#63b8ff" d="M352.55,-102.78C371.4,-106.21 391.5,-109.86 409.74,-113.18"/>
<polygon fill="#63b8ff" stroke="#63b8ff" points="409.2,-116.64 419.66,-114.98 410.45,-109.75 409.2,-116.64"/>
</a>
</g>
</g>
<!-- Node7 -->
<g id="Node000007" class="node">
<title>Node7</title>
<g id="a_Node000007"><a xlink:href="crashdump_8c.html#a4ab5896ca9c38a9bfa87771be98e0068" target="_top" xlink:title=" ">
<polygon fill="white" stroke="#666666" points="555,-97 391,-97 391,-78 555,-78 555,-97"/>
<text text-anchor="middle" x="473" y="-85" font-family="Helvetica,sans-Serif" font-size="10.00">stm32_crash_dump_max_size</text>
</a>
</g>
</g>
<!-- Node5&#45;&gt;Node7 -->
<g id="edge6_Node000005_Node000007" class="edge">
<title>Node5&#45;&gt;Node7</title>
<g id="a_edge6_Node000005_Node000007"><a xlink:title=" ">
<path fill="none" stroke="#63b8ff" d="M352.55,-88.74C361.77,-88.65 371.29,-88.55 380.74,-88.45"/>
<polygon fill="#63b8ff" stroke="#63b8ff" points="380.99,-91.95 390.96,-88.34 380.92,-84.95 380.99,-91.95"/>
</a>
</g>
</g>
<!-- Node9 -->
<g id="Node000009" class="node">
<title>Node9</title>
<g id="a_Node000009"><a xlink:href="flash_8c.html#a6c942f6859eb9d04b0eb4579f98cf087" target="_top" xlink:title=" ">
<polygon fill="white" stroke="#666666" points="523.5,-57 422.5,-57 422.5,-38 523.5,-38 523.5,-57"/>
<text text-anchor="middle" x="473" y="-45" font-family="Helvetica,sans-Serif" font-size="10.00">stm32_flash_lock</text>
</a>
</g>
</g>
<!-- Node8&#45;&gt;Node9 -->
<g id="edge8_Node000008_Node000009" class="edge">
<title>Node8&#45;&gt;Node9</title>
<g id="a_edge8_Node000008_Node000009"><a xlink:title=" ">
<path fill="none" stroke="#63b8ff" d="M355.03,-46.89C374.05,-46.99 394.2,-47.1 412.32,-47.19"/>
<polygon fill="#63b8ff" stroke="#63b8ff" points="412.43,-50.69 422.45,-47.24 412.46,-43.69 412.43,-50.69"/>
</a>
</g>
</g>
<!-- Node11 -->
<g id="Node000011" class="node">
<title>Node11</title>
<g id="a_Node000011"><a xlink:href="flash_8c.html#a4bfb4543b2c0fc525518a8f5e6d75a84" target="_top" xlink:title=" ">
<polygon fill="white" stroke="#666666" points="529.5,-20 416.5,-20 416.5,-1 529.5,-1 529.5,-20"/>
<text text-anchor="middle" x="473" y="-8" font-family="Helvetica,sans-Serif" font-size="10.00">stm32_flash_unlock</text>
</a>
</g>
</g>
<!-- Node8&#45;&gt;Node11 -->
<g id="edge10_Node000008_Node000011" class="edge">
<title>Node8&#45;&gt;Node11</title>
<g id="a_edge10_Node000008_Node000011"><a xlink:title=" ">
<path fill="none" stroke="#63b8ff" d="M330.33,-36.99C355.01,-32.38 384.87,-26.8 410.79,-21.95"/>
<polygon fill="#63b8ff" stroke="#63b8ff" points="411.7,-25.34 420.89,-20.06 410.41,-18.46 411.7,-25.34"/>
</a>
</g>
</g>
<!-- Node10 -->
<g id="Node000010" class="node">
<title>Node10</title>
<g id="a_Node000010"><a xlink:href="flash_8c.html#ad3d52057896632802f23b785517123bd" target="_top" xlink:title=" ">
<polygon fill="white" stroke="#666666" points="716,-38 591,-38 591,-19 716,-19 716,-38"/>
<text text-anchor="middle" x="653.5" y="-26" font-family="Helvetica,sans-Serif" font-size="10.00">stm32_flash_wait_idle</text>
</a>
</g>
</g>
<!-- Node9&#45;&gt;Node10 -->
<g id="edge9_Node000009_Node000010" class="edge">
<title>Node9&#45;&gt;Node10</title>
<g id="a_edge9_Node000009_Node000010"><a xlink:title=" ">
<path fill="none" stroke="#63b8ff" d="M523.72,-42.21C541.39,-40.33 561.64,-38.17 580.77,-36.14"/>
<polygon fill="#63b8ff" stroke="#63b8ff" points="581.38,-39.59 590.96,-35.05 580.64,-32.63 581.38,-39.59"/>
</a>
</g>
</g>
<!-- Node11&#45;&gt;Node10 -->
<g id="edge11_Node000011_Node000010" class="edge">
<title>Node11&#45;&gt;Node10</title>
<g id="a_edge11_Node000011_Node000010"><a xlink:title=" ">
<path fill="none" stroke="#63b8ff" d="M529.5,-16.1C545.6,-17.72 563.42,-19.52 580.39,-21.23"/>
<polygon fill="#63b8ff" stroke="#63b8ff" points="580.52,-24.76 590.82,-22.28 581.22,-17.79 580.52,-24.76"/>
</a>
</g>
</g>
</g>
</svg>

<g id="navigator" transform="translate(0 0)" fill="#404254">
  <rect fill="#f2f5e9" fill-opacity="0.5" stroke="#606060" stroke-width=".5" x="0" y="0" width="60" height="60"/>
  <use id="zoomplus" xlink:href="#zoomPlus" x="17" y="9" onmousedown="handleZoom(evt,'in')"/>
  <use id="zoomminus" xlink:href="#zoomMin" x="42" y="9" onmousedown="handleZoom(evt,'out')"/>
  <use id="reset" xlink:href="#resetDef" x="30" y="36" onmousedown="handleReset()"/>
   <use id="arrowup" xlink:href="#arrowUp" x="0" y="0" onmousedown="handlePan(0,-1)"/>
  <use id="arrowright" xlink:href="#arrowRight" x="0" y="0" onmousedown="handlePan(1,0)"/>
  <use id="arrowdown" xlink:href="#arrowDown" x="0" y="0" onmousedown="handlePan(0,1)"/>
  <use id="arrowleft" xlink:href="#arrowLeft" x="0" y="0" onmousedown="handlePan(-1,0)"/>
</g>
<svg viewBox="0 0 15 15" width="100%" height="30px" preserveAspectRatio="xMaxYMin meet">
 <g id="arrow_out" transform="scale(0.3 0.3)">
  <a xlink:href="crashdump_8c_a074b0cb98ce414ce8b0f3c249b765f1b_cgraph_org.svg" target="_base">
   <rect id="button" ry="5" rx="5" y="6" x="6" height="38" width="38"
        fill="#f2f5e9" fill-opacity="0.5" stroke="#606060" stroke-width="1.0"/>
   <path id="arrow"
     d="M 11.500037,31.436501 C 11.940474,20.09759 22.043105,11.32322 32.158766,21.979434 L 37.068811,17.246167 C 37.068811,17.246167 37.088388,32 37.088388,32 L 22.160133,31.978069 C 22.160133,31.978069 26.997745,27.140456 26.997745,27.140456 C 18.528582,18.264221 13.291696,25.230495 11.500037,31.436501 z"
     style="fill:#404040;"/>
  </a>
 </g>
</svg>

<style type='text/css'>
<![CDATA[
[data-mouse-over-selected='false'] { opacity: 0.7; }
[data-mouse-over-selected='true']  { opacity: 1.0; }
]]>
</style>
<script type="application/ecmascript"><![CDATA[
document.addEventListener('DOMContentLoaded', (event) => {
  highlightEdges();
  highlightAdjacentNodes();
});
]]></script>
</svg>
