<?xml version="1.0" encoding="UTF-8" standalone="no"?>
<!DOCTYPE svg PUBLIC "-//W3C//DTD SVG 1.1//EN"
 "http://www.w3.org/Graphics/SVG/1.1/DTD/svg11.dtd">
<!-- Generated by graphviz version 2.43.0 (0)
 -->
<!-- Title: libraries/SITL/examples Pages: 1 -->
<svg width="532pt" height="125pt"
 viewBox="0.00 0.00 532.00 125.00" xmlns="http://www.w3.org/2000/svg" xmlns:xlink="http://www.w3.org/1999/xlink">
<g id="graph0" class="graph" transform="scale(1 1) rotate(0) translate(4 121)">
<title>libraries/SITL/examples</title>
<g id="clust1" class="cluster">
<title>clusterdir_13eab70ce57f7c32b503e967c08f6d3d</title>
<g id="a_clust1"><a xlink:href="dir_13eab70ce57f7c32b503e967c08f6d3d.html" target="_top" xlink:title="SITL">
<polygon fill="#edf0f7" stroke="#7f7f7f" stroke-dasharray="5,2" points="8,-39 8,-109 516,-109 516,-39 8,-39"/>
<text text-anchor="middle" x="262" y="-97" font-family="Helvetica,sans-Serif" font-size="10.00">SITL</text>
</a>
</g>
</g>
<g id="clust2" class="cluster">
<title>clusterdir_835ef693b7e33affd7c50b6073809573</title>
<g id="a_clust2"><a xlink:href="dir_835ef693b7e33affd7c50b6073809573.html" target="_top">
<polygon fill="#edf0f7" stroke="#404040" stroke-width="2" points="16,-47 16,-82 508,-82 508,-47 16,-47"/>
</a>
</g>
</g>
<!-- dir_835ef693b7e33affd7c50b6073809573 -->
<g id="node1" class="node">
<title>dir_835ef693b7e33affd7c50b6073809573</title>
<text text-anchor="middle" x="467" y="-62" font-family="Helvetica,sans-Serif" font-size="10.00">examples</text>
</g>
<!-- dir_c5326b93869b9a54d6ab517115568d9c -->
<g id="node2" class="node">
<title>dir_c5326b93869b9a54d6ab517115568d9c</title>
<g id="a_node2"><a xlink:href="dir_c5326b93869b9a54d6ab517115568d9c.html" target="_top" xlink:title="EvaluateBatteryModel">
<polygon fill="#a2b4d6" stroke="#404040" points="149.5,-74 24.5,-74 24.5,-55 149.5,-55 149.5,-74"/>
<text text-anchor="middle" x="87" y="-62" font-family="Helvetica,sans-Serif" font-size="10.00">EvaluateBatteryModel</text>
</a>
</g>
</g>
<!-- dir_1cbc10423b2512b31103883361e0123b -->
<g id="node6" class="node">
<title>dir_1cbc10423b2512b31103883361e0123b</title>
<g id="a_node6"><a xlink:href="dir_1cbc10423b2512b31103883361e0123b.html" target="_top" xlink:title="AP_HAL">
<polygon fill="#edf0f7" stroke="red" stroke-dasharray="5,2" points="151,-19 97,-19 97,0 151,0 151,-19"/>
<text text-anchor="middle" x="124" y="-7" font-family="Helvetica,sans-Serif" font-size="10.00">AP_HAL</text>
</a>
</g>
</g>
<!-- dir_c5326b93869b9a54d6ab517115568d9c&#45;&gt;dir_1cbc10423b2512b31103883361e0123b -->
<g id="edge1" class="edge">
<title>dir_c5326b93869b9a54d6ab517115568d9c&#45;&gt;dir_1cbc10423b2512b31103883361e0123b</title>
<g id="a_edge1"><a xlink:href="dir_000180_000060.html" target="_top">
<path fill="none" stroke="#63b8ff" d="M93.11,-54.75C98.28,-47.34 105.85,-36.5 112.19,-27.41"/>
<polygon fill="#63b8ff" stroke="#63b8ff" points="115.15,-29.29 118,-19.09 109.41,-25.29 115.15,-29.29"/>
</a>
</g>
<g id="a_edge1&#45;headlabel"><a xlink:href="dir_000180_000060.html" target="_top" xlink:title="1">
<text text-anchor="middle" x="115.42" y="-31.36" font-family="Helvetica,sans-Serif" font-size="10.00" fill="#63b8ff">1</text>
</a>
</g>
</g>
<!-- dir_498c8457c5f0ddd4ec603971505dced8 -->
<g id="node7" class="node">
<title>dir_498c8457c5f0ddd4ec603971505dced8</title>
<g id="a_node7"><a xlink:href="dir_498c8457c5f0ddd4ec603971505dced8.html" target="_top" xlink:title="AP_HAL_ChibiOS">
<polygon fill="#edf0f7" stroke="red" stroke-dasharray="5,2" points="290,-19 192,-19 192,0 290,0 290,-19"/>
<text text-anchor="middle" x="241" y="-7" font-family="Helvetica,sans-Serif" font-size="10.00">AP_HAL_ChibiOS</text>
</a>
</g>
</g>
<!-- dir_c5326b93869b9a54d6ab517115568d9c&#45;&gt;dir_498c8457c5f0ddd4ec603971505dced8 -->
<g id="edge2" class="edge">
<title>dir_c5326b93869b9a54d6ab517115568d9c&#45;&gt;dir_498c8457c5f0ddd4ec603971505dced8</title>
<g id="a_edge2"><a xlink:href="dir_000180_000061.html" target="_top">
<path fill="none" stroke="#63b8ff" d="M111.74,-54.98C137.37,-46.16 177.63,-32.31 206.41,-22.41"/>
<polygon fill="#63b8ff" stroke="#63b8ff" points="207.75,-25.65 216.06,-19.08 205.47,-19.03 207.75,-25.65"/>
</a>
</g>
<g id="a_edge2&#45;headlabel"><a xlink:href="dir_000180_000061.html" target="_top" xlink:title="1">
<text text-anchor="middle" x="205.27" y="-27" font-family="Helvetica,sans-Serif" font-size="10.00" fill="#63b8ff">1</text>
</a>
</g>
</g>
<!-- dir_c68adde5a957a292fc6cdfb3e6330787 -->
<g id="node3" class="node">
<title>dir_c68adde5a957a292fc6cdfb3e6330787</title>
<g id="a_node3"><a xlink:href="dir_c68adde5a957a292fc6cdfb3e6330787.html" target="_top" xlink:title="EvaluateMotorModel">
<polygon fill="#a2b4d6" stroke="#404040" points="286,-74 168,-74 168,-55 286,-55 286,-74"/>
<text text-anchor="middle" x="227" y="-62" font-family="Helvetica,sans-Serif" font-size="10.00">EvaluateMotorModel</text>
</a>
</g>
</g>
<!-- dir_c68adde5a957a292fc6cdfb3e6330787&#45;&gt;dir_1cbc10423b2512b31103883361e0123b -->
<g id="edge3" class="edge">
<title>dir_c68adde5a957a292fc6cdfb3e6330787&#45;&gt;dir_1cbc10423b2512b31103883361e0123b</title>
<g id="a_edge3"><a xlink:href="dir_000181_000060.html" target="_top">
<path fill="none" stroke="#63b8ff" d="M210.45,-54.98C194.11,-46.57 168.87,-33.59 149.87,-23.81"/>
<polygon fill="#63b8ff" stroke="#63b8ff" points="151.34,-20.63 140.85,-19.17 148.14,-26.86 151.34,-20.63"/>
</a>
</g>
<g id="a_edge3&#45;headlabel"><a xlink:href="dir_000181_000060.html" target="_top" xlink:title="1">
<text text-anchor="middle" x="155.84" y="-17.25" font-family="Helvetica,sans-Serif" font-size="10.00" fill="#63b8ff">1</text>
</a>
</g>
</g>
<!-- dir_c68adde5a957a292fc6cdfb3e6330787&#45;&gt;dir_498c8457c5f0ddd4ec603971505dced8 -->
<g id="edge4" class="edge">
<title>dir_c68adde5a957a292fc6cdfb3e6330787&#45;&gt;dir_498c8457c5f0ddd4ec603971505dced8</title>
<g id="a_edge4"><a xlink:href="dir_000181_000061.html" target="_top">
<path fill="none" stroke="#63b8ff" d="M229.31,-54.75C231.17,-47.72 233.84,-37.62 236.15,-28.84"/>
<polygon fill="#63b8ff" stroke="#63b8ff" points="239.56,-29.65 238.73,-19.09 232.79,-27.86 239.56,-29.65"/>
</a>
</g>
<g id="a_edge4&#45;headlabel"><a xlink:href="dir_000181_000061.html" target="_top" xlink:title="1">
<text text-anchor="middle" x="241.39" y="-31.35" font-family="Helvetica,sans-Serif" font-size="10.00" fill="#63b8ff">1</text>
</a>
</g>
</g>
<!-- dir_247d0fc43fda9e1cf752fa85eed52b8d -->
<g id="node4" class="node">
<title>dir_247d0fc43fda9e1cf752fa85eed52b8d</title>
<g id="a_node4"><a xlink:href="dir_247d0fc43fda9e1cf752fa85eed52b8d.html" target="_top" xlink:title="JSON">
<polygon fill="#a2b4d6" stroke="#404040" points="345.5,-74 304.5,-74 304.5,-55 345.5,-55 345.5,-74"/>
<text text-anchor="middle" x="325" y="-62" font-family="Helvetica,sans-Serif" font-size="10.00">JSON</text>
</a>
</g>
</g>
<!-- dir_247d0fc43fda9e1cf752fa85eed52b8d&#45;&gt;dir_498c8457c5f0ddd4ec603971505dced8 -->
<g id="edge6" class="edge">
<title>dir_247d0fc43fda9e1cf752fa85eed52b8d&#45;&gt;dir_498c8457c5f0ddd4ec603971505dced8</title>
<g id="a_edge6"><a xlink:href="dir_000243_000061.html" target="_top">
<path fill="none" stroke="#63b8ff" d="M315.38,-54.82C309.67,-49.88 302.17,-43.75 295,-39 286.69,-33.5 277.21,-28.19 268.53,-23.68"/>
<polygon fill="#63b8ff" stroke="#63b8ff" points="270.02,-20.52 259.52,-19.13 266.86,-26.76 270.02,-20.52"/>
</a>
</g>
<g id="a_edge6&#45;headlabel"><a xlink:href="dir_000243_000061.html" target="_top" xlink:title="1">
<text text-anchor="middle" x="274.51" y="-17.1" font-family="Helvetica,sans-Serif" font-size="10.00" fill="#63b8ff">1</text>
</a>
</g>
</g>
<!-- dir_df3f4256615fd4197927a84a019a8bd8 -->
<g id="node8" class="node">
<title>dir_df3f4256615fd4197927a84a019a8bd8</title>
<g id="a_node8"><a xlink:href="dir_df3f4256615fd4197927a84a019a8bd8.html" target="_top" xlink:title="AP_Common">
<polygon fill="#edf0f7" stroke="red" stroke-dasharray="5,2" points="415.5,-19 336.5,-19 336.5,0 415.5,0 415.5,-19"/>
<text text-anchor="middle" x="376" y="-7" font-family="Helvetica,sans-Serif" font-size="10.00">AP_Common</text>
</a>
</g>
</g>
<!-- dir_247d0fc43fda9e1cf752fa85eed52b8d&#45;&gt;dir_df3f4256615fd4197927a84a019a8bd8 -->
<g id="edge5" class="edge">
<title>dir_247d0fc43fda9e1cf752fa85eed52b8d&#45;&gt;dir_df3f4256615fd4197927a84a019a8bd8</title>
<g id="a_edge5"><a xlink:href="dir_000243_000033.html" target="_top">
<path fill="none" stroke="#63b8ff" d="M333.42,-54.75C340.77,-47.11 351.63,-35.82 360.54,-26.56"/>
<polygon fill="#63b8ff" stroke="#63b8ff" points="363.32,-28.72 367.74,-19.09 358.28,-23.87 363.32,-28.72"/>
</a>
</g>
<g id="a_edge5&#45;headlabel"><a xlink:href="dir_000243_000033.html" target="_top" xlink:title="3">
<text text-anchor="middle" x="362.88" y="-30.78" font-family="Helvetica,sans-Serif" font-size="10.00" fill="#63b8ff">3</text>
</a>
</g>
</g>
<!-- dir_058cdadf9115bf32e56d214961a1e304 -->
<g id="node5" class="node">
<title>dir_058cdadf9115bf32e56d214961a1e304</title>
<g id="a_node5"><a xlink:href="dir_058cdadf9115bf32e56d214961a1e304.html" target="_top" xlink:title="Webots">
<polygon fill="#a2b4d6" stroke="#404040" points="416.5,-74 363.5,-74 363.5,-55 416.5,-55 416.5,-74"/>
<text text-anchor="middle" x="390" y="-62" font-family="Helvetica,sans-Serif" font-size="10.00">Webots</text>
</a>
</g>
</g>
<!-- dir_058cdadf9115bf32e56d214961a1e304&#45;&gt;dir_498c8457c5f0ddd4ec603971505dced8 -->
<g id="edge7" class="edge">
<title>dir_058cdadf9115bf32e56d214961a1e304&#45;&gt;dir_498c8457c5f0ddd4ec603971505dced8</title>
<g id="a_edge7"><a xlink:href="dir_000323_000061.html" target="_top">
<path fill="none" stroke="#63b8ff" d="M379.89,-54.92C373.21,-49.64 364.04,-43.12 355,-39 337.77,-31.14 318.05,-25.24 299.91,-20.9"/>
<polygon fill="#63b8ff" stroke="#63b8ff" points="300.55,-17.46 290.02,-18.65 299,-24.28 300.55,-17.46"/>
</a>
</g>
<g id="a_edge7&#45;headlabel"><a xlink:href="dir_000323_000061.html" target="_top" xlink:title="9">
<text text-anchor="middle" x="304.68" y="-12.99" font-family="Helvetica,sans-Serif" font-size="10.00" fill="#63b8ff">9</text>
</a>
</g>
</g>
<!-- dir_058cdadf9115bf32e56d214961a1e304&#45;&gt;dir_df3f4256615fd4197927a84a019a8bd8 -->
<g id="edge8" class="edge">
<title>dir_058cdadf9115bf32e56d214961a1e304&#45;&gt;dir_df3f4256615fd4197927a84a019a8bd8</title>
<g id="a_edge8"><a xlink:href="dir_000323_000033.html" target="_top">
<path fill="none" stroke="#63b8ff" d="M387.69,-54.75C385.83,-47.72 383.16,-37.62 380.85,-28.84"/>
<polygon fill="#63b8ff" stroke="#63b8ff" points="384.21,-27.86 378.27,-19.09 377.44,-29.65 384.21,-27.86"/>
</a>
</g>
<g id="a_edge8&#45;headlabel"><a xlink:href="dir_000323_000033.html" target="_top" xlink:title="6">
<text text-anchor="middle" x="387.87" y="-28.11" font-family="Helvetica,sans-Serif" font-size="10.00" fill="#63b8ff">6</text>
</a>
</g>
</g>
</g>
</svg>
