<?xml version="1.0" encoding="UTF-8" standalone="no"?>
<!DOCTYPE svg PUBLIC "-//W3C//DTD SVG 1.1//EN"
 "http://www.w3.org/Graphics/SVG/1.1/DTD/svg11.dtd">
<!-- Generated by graphviz version 2.43.0 (0)
 -->
<!-- Title: libraries/AC_Autorotation Pages: 1 -->
<!--zoomable 133 -->

<svg id="main" version="1.1" xmlns="http://www.w3.org/2000/svg" xmlns:xlink="http://www.w3.org/1999/xlink" xml:space="preserve" onload="init(evt)">
<style type="text/css"><![CDATA[
.node, .edge {opacity: 0.7;}
.node.selected, .edge.selected {opacity: 1;}
.edge:hover path { stroke: red; }
.edge:hover polygon { stroke: red; fill: red; }
]]></style>

<defs>
  <circle id="rim" cx="0" cy="0" r="7"/>
  <circle id="rim2" cx="0" cy="0" r="3.5"/>
  <g id="zoomPlus">
    <use xlink:href="#rim" fill="#404040"><set attributeName="fill" to="#808080" begin="zoomplus.mouseover" end="zoomplus.mouseout"/></use>
    <path d="M-4,0h8M0,-4v8" fill="none" stroke="white" stroke-width="1.5" pointer-events="none"/>
  </g>
  <g id="zoomMin">
    <use xlink:href="#rim" fill="#404040"><set attributeName="fill" to="#808080" begin="zoomminus.mouseover" end="zoomminus.mouseout"/></use>
    <path d="M-4,0h8" fill="none" stroke="white" stroke-width="1.5" pointer-events="none"/>
  </g>
  <g id="arrowUp" transform="translate(30 24)">
    <use xlink:href="#rim"/>
    <path pointer-events="none" fill="none" stroke="white" stroke-width="1.5" d="M0,-3.0v7 M-2.5,-0.5L0,-3.0L2.5,-0.5"/>
  </g>
  <g id="arrowRight" transform="rotate(90) translate(36 -43)">
    <use xlink:href="#rim"/>
    <path pointer-events="none" fill="none" stroke="white" stroke-width="1.5" d="M0,-3.0v7 M-2.5,-0.5L0,-3.0L2.5,-0.5"/>
  </g>
  <g id="arrowDown" transform="rotate(180) translate(-30 -48)">
    <use xlink:href="#rim"/>
    <path pointer-events="none" fill="none" stroke="white" stroke-width="1.5" d="M0,-3.0v7 M-2.5,-0.5L0,-3.0L2.5,-0.5"/>
  </g>
  <g id="arrowLeft" transform="rotate(270) translate(-36 17)">
    <use xlink:href="#rim"/>
    <path pointer-events="none" fill="none" stroke="white" stroke-width="1.5" d="M0,-3.0v7 M-2.5,-0.5L0,-3.0L2.5,-0.5"/>
  </g>
  <g id="resetDef">
    <use xlink:href="#rim2" fill="#404040"><set attributeName="fill" to="#808080" begin="reset.mouseover" end="reset.mouseout"/></use>
  </g>
</defs>
<script type="application/ecmascript">
var viewWidth = 736;
var viewHeight = 133;
var sectionId = 'dynsection-0';
</script>
<script type="application/ecmascript" xlink:href="svg.min.js"/>
<svg id="graph" class="graph">
<g id="viewport">
<title>libraries/AC_Autorotation</title>
<g id="clust1" class="cluster">
<title>clusterdir_bc0718b08fb2015b8e59c47b2805f60c</title>
<g id="a_clust1"><a xlink:href="dir_bc0718b08fb2015b8e59c47b2805f60c.html" target="_top" xlink:title="libraries">
<polygon fill="#edf0f7" stroke="#404040" stroke-dasharray="5,2" points="8,-8 8,-117 720,-117 720,-8 8,-8"/>
<text text-anchor="middle" x="364" y="-105" font-family="Helvetica,sans-Serif" font-size="10.00">libraries</text>
</a>
</g>
</g>
<!-- dir_200d929b8d5577e7f19dc05ce443c612 -->
<g id="node1" class="node">
<title>dir_200d929b8d5577e7f19dc05ce443c612</title>
<g id="a_node1"><a xlink:href="dir_200d929b8d5577e7f19dc05ce443c612.html" target="_top" xlink:title="AP_Param">
<polygon fill="#a2b4d6" stroke="red" points="81.5,-35 16.5,-35 16.5,-16 81.5,-16 81.5,-35"/>
<text text-anchor="middle" x="49" y="-23" font-family="Helvetica,sans-Serif" font-size="10.00">AP_Param</text>
</a>
</g>
</g>
<!-- dir_85ad937bf7c11de5c2907a482c9c56bd -->
<g id="node2" class="node">
<title>dir_85ad937bf7c11de5c2907a482c9c56bd</title>
<g id="a_node2"><a xlink:href="dir_85ad937bf7c11de5c2907a482c9c56bd.html" target="_top" xlink:title="AP_AHRS">
<polygon fill="#a2b4d6" stroke="red" points="162,-35 100,-35 100,-16 162,-16 162,-35"/>
<text text-anchor="middle" x="131" y="-23" font-family="Helvetica,sans-Serif" font-size="10.00">AP_AHRS</text>
</a>
</g>
</g>
<!-- dir_93fb9127672489656ce87df72f6e986d -->
<g id="node3" class="node">
<title>dir_93fb9127672489656ce87df72f6e986d</title>
<g id="a_node3"><a xlink:href="dir_93fb9127672489656ce87df72f6e986d.html" target="_top" xlink:title="AP_Math">
<polygon fill="#a2b4d6" stroke="red" points="239.5,-35 180.5,-35 180.5,-16 239.5,-16 239.5,-35"/>
<text text-anchor="middle" x="210" y="-23" font-family="Helvetica,sans-Serif" font-size="10.00">AP_Math</text>
</a>
</g>
</g>
<!-- dir_a7fc19be35497a7ff9f517e98edaea32 -->
<g id="node4" class="node">
<title>dir_a7fc19be35497a7ff9f517e98edaea32</title>
<g id="a_node4"><a xlink:href="dir_a7fc19be35497a7ff9f517e98edaea32.html" target="_top" xlink:title="Filter">
<polygon fill="#a2b4d6" stroke="red" points="298.5,-35 257.5,-35 257.5,-16 298.5,-16 298.5,-35"/>
<text text-anchor="middle" x="278" y="-23" font-family="Helvetica,sans-Serif" font-size="10.00">Filter</text>
</a>
</g>
</g>
<!-- dir_df3f4256615fd4197927a84a019a8bd8 -->
<g id="node5" class="node">
<title>dir_df3f4256615fd4197927a84a019a8bd8</title>
<g id="a_node5"><a xlink:href="dir_df3f4256615fd4197927a84a019a8bd8.html" target="_top" xlink:title="AP_Common">
<polygon fill="#a2b4d6" stroke="red" points="395.5,-35 316.5,-35 316.5,-16 395.5,-16 395.5,-35"/>
<text text-anchor="middle" x="356" y="-23" font-family="Helvetica,sans-Serif" font-size="10.00">AP_Common</text>
</a>
</g>
</g>
<!-- dir_e2208a4dfd218f697a2a26cf1e819f73 -->
<g id="node6" class="node">
<title>dir_e2208a4dfd218f697a2a26cf1e819f73</title>
<g id="a_node6"><a xlink:href="dir_e2208a4dfd218f697a2a26cf1e819f73.html" target="_top" xlink:title="AP_Motors">
<polygon fill="#a2b4d6" stroke="red" points="482,-35 414,-35 414,-16 482,-16 482,-35"/>
<text text-anchor="middle" x="448" y="-23" font-family="Helvetica,sans-Serif" font-size="10.00">AP_Motors</text>
</a>
</g>
</g>
<!-- dir_e43f775edb5dd0ea21f8ab5f36fd690f -->
<g id="node7" class="node">
<title>dir_e43f775edb5dd0ea21f8ab5f36fd690f</title>
<g id="a_node7"><a xlink:href="dir_e43f775edb5dd0ea21f8ab5f36fd690f.html" target="_top" xlink:title="AP_RPM">
<polygon fill="#a2b4d6" stroke="red" points="556,-35 500,-35 500,-16 556,-16 556,-35"/>
<text text-anchor="middle" x="528" y="-23" font-family="Helvetica,sans-Serif" font-size="10.00">AP_RPM</text>
</a>
</g>
</g>
<!-- dir_e45b4740ca2377c64753601f0047bb45 -->
<g id="node8" class="node">
<title>dir_e45b4740ca2377c64753601f0047bb45</title>
<g id="a_node8"><a xlink:href="dir_e45b4740ca2377c64753601f0047bb45.html" target="_top" xlink:title="AC_PID">
<polygon fill="#a2b4d6" stroke="red" points="626,-35 574,-35 574,-16 626,-16 626,-35"/>
<text text-anchor="middle" x="600" y="-23" font-family="Helvetica,sans-Serif" font-size="10.00">AC_PID</text>
</a>
</g>
</g>
<!-- dir_efbdc876066079de180b18b112df9507 -->
<g id="node9" class="node">
<title>dir_efbdc876066079de180b18b112df9507</title>
<g id="a_node9"><a xlink:href="dir_efbdc876066079de180b18b112df9507.html" target="_top" xlink:title="AP_Logger">
<polygon fill="#a2b4d6" stroke="red" points="712,-35 644,-35 644,-16 712,-16 712,-35"/>
<text text-anchor="middle" x="678" y="-23" font-family="Helvetica,sans-Serif" font-size="10.00">AP_Logger</text>
</a>
</g>
</g>
<!-- dir_3bc2e5902df3e836ed2057aed5170242 -->
<g id="node10" class="node">
<title>dir_3bc2e5902df3e836ed2057aed5170242</title>
<g id="a_node10"><a xlink:href="dir_3bc2e5902df3e836ed2057aed5170242.html" target="_top" xlink:title="AC_Autorotation">
<polygon fill="#edf0f7" stroke="#404040" stroke-width="2" points="404,-90 308,-90 308,-71 404,-71 404,-90"/>
<text text-anchor="middle" x="356" y="-78" font-family="Helvetica,sans-Serif" font-size="10.00">AC_Autorotation</text>
</a>
</g>
</g>
<!-- dir_3bc2e5902df3e836ed2057aed5170242&#45;&gt;dir_200d929b8d5577e7f19dc05ce443c612 -->
<g id="edge1" class="edge">
<title>dir_3bc2e5902df3e836ed2057aed5170242&#45;&gt;dir_200d929b8d5577e7f19dc05ce443c612</title>
<g id="a_edge1"><a xlink:href="dir_000001_000110.html" target="_top">
<path fill="none" stroke="#63b8ff" d="M307.56,-71.86C256.44,-63.69 173.27,-50.08 91.5,-35.04"/>
<polygon fill="#63b8ff" stroke="#63b8ff" points="92.01,-31.57 81.54,-33.2 90.74,-38.46 92.01,-31.57"/>
</a>
</g>
<g id="a_edge1&#45;headlabel"><a xlink:href="dir_000001_000110.html" target="_top" xlink:title="1">
<text text-anchor="middle" x="96.06" y="-26.93" font-family="Helvetica,sans-Serif" font-size="10.00" fill="#63b8ff">1</text>
</a>
</g>
</g>
<!-- dir_3bc2e5902df3e836ed2057aed5170242&#45;&gt;dir_85ad937bf7c11de5c2907a482c9c56bd -->
<g id="edge2" class="edge">
<title>dir_3bc2e5902df3e836ed2057aed5170242&#45;&gt;dir_85ad937bf7c11de5c2907a482c9c56bd</title>
<g id="a_edge2"><a xlink:href="dir_000001_000019.html" target="_top">
<path fill="none" stroke="#63b8ff" d="M319.85,-70.98C279.57,-61.5 214.56,-46.18 172.3,-36.23"/>
<polygon fill="#63b8ff" stroke="#63b8ff" points="172.88,-32.77 162.34,-33.88 171.27,-39.58 172.88,-32.77"/>
</a>
</g>
<g id="a_edge2&#45;headlabel"><a xlink:href="dir_000001_000019.html" target="_top" xlink:title="1">
<text text-anchor="middle" x="177.03" y="-28.33" font-family="Helvetica,sans-Serif" font-size="10.00" fill="#63b8ff">1</text>
</a>
</g>
</g>
<!-- dir_3bc2e5902df3e836ed2057aed5170242&#45;&gt;dir_93fb9127672489656ce87df72f6e986d -->
<g id="edge3" class="edge">
<title>dir_3bc2e5902df3e836ed2057aed5170242&#45;&gt;dir_93fb9127672489656ce87df72f6e986d</title>
<g id="a_edge3"><a xlink:href="dir_000001_000085.html" target="_top">
<path fill="none" stroke="#63b8ff" d="M332.54,-70.98C308.42,-62.23 270.63,-48.51 243.4,-38.62"/>
<polygon fill="#63b8ff" stroke="#63b8ff" points="244.48,-35.29 233.88,-35.17 242.09,-41.87 244.48,-35.29"/>
</a>
</g>
<g id="a_edge3&#45;headlabel"><a xlink:href="dir_000001_000085.html" target="_top" xlink:title="1">
<text text-anchor="middle" x="248.83" y="-31.35" font-family="Helvetica,sans-Serif" font-size="10.00" fill="#63b8ff">1</text>
</a>
</g>
</g>
<!-- dir_3bc2e5902df3e836ed2057aed5170242&#45;&gt;dir_a7fc19be35497a7ff9f517e98edaea32 -->
<g id="edge4" class="edge">
<title>dir_3bc2e5902df3e836ed2057aed5170242&#45;&gt;dir_a7fc19be35497a7ff9f517e98edaea32</title>
<g id="a_edge4"><a xlink:href="dir_000001_000224.html" target="_top">
<path fill="none" stroke="#63b8ff" d="M343.47,-70.98C331.6,-62.92 313.54,-50.65 299.39,-41.03"/>
<polygon fill="#63b8ff" stroke="#63b8ff" points="301,-37.9 290.76,-35.17 297.06,-43.69 301,-37.9"/>
</a>
</g>
<g id="a_edge4&#45;headlabel"><a xlink:href="dir_000001_000224.html" target="_top" xlink:title="2">
<text text-anchor="middle" x="305.57" y="-35.07" font-family="Helvetica,sans-Serif" font-size="10.00" fill="#63b8ff">2</text>
</a>
</g>
</g>
<!-- dir_3bc2e5902df3e836ed2057aed5170242&#45;&gt;dir_df3f4256615fd4197927a84a019a8bd8 -->
<g id="edge5" class="edge">
<title>dir_3bc2e5902df3e836ed2057aed5170242&#45;&gt;dir_df3f4256615fd4197927a84a019a8bd8</title>
<g id="a_edge5"><a xlink:href="dir_000001_000033.html" target="_top">
<path fill="none" stroke="#63b8ff" d="M356,-70.75C356,-63.8 356,-53.85 356,-45.13"/>
<polygon fill="#63b8ff" stroke="#63b8ff" points="359.5,-45.09 356,-35.09 352.5,-45.09 359.5,-45.09"/>
</a>
</g>
<g id="a_edge5&#45;headlabel"><a xlink:href="dir_000001_000033.html" target="_top" xlink:title="1">
<text text-anchor="middle" x="362.34" y="-46.18" font-family="Helvetica,sans-Serif" font-size="10.00" fill="#63b8ff">1</text>
</a>
</g>
</g>
<!-- dir_3bc2e5902df3e836ed2057aed5170242&#45;&gt;dir_e2208a4dfd218f697a2a26cf1e819f73 -->
<g id="edge6" class="edge">
<title>dir_3bc2e5902df3e836ed2057aed5170242&#45;&gt;dir_e2208a4dfd218f697a2a26cf1e819f73</title>
<g id="a_edge6"><a xlink:href="dir_000001_000090.html" target="_top">
<path fill="none" stroke="#63b8ff" d="M370.78,-70.98C385.18,-62.69 407.31,-49.94 424.19,-40.22"/>
<polygon fill="#63b8ff" stroke="#63b8ff" points="426.03,-43.19 432.95,-35.17 422.54,-37.13 426.03,-43.19"/>
</a>
</g>
<g id="a_edge6&#45;headlabel"><a xlink:href="dir_000001_000090.html" target="_top" xlink:title="2">
<text text-anchor="middle" x="424.33" y="-44.95" font-family="Helvetica,sans-Serif" font-size="10.00" fill="#63b8ff">2</text>
</a>
</g>
</g>
<!-- dir_3bc2e5902df3e836ed2057aed5170242&#45;&gt;dir_e43f775edb5dd0ea21f8ab5f36fd690f -->
<g id="edge7" class="edge">
<title>dir_3bc2e5902df3e836ed2057aed5170242&#45;&gt;dir_e43f775edb5dd0ea21f8ab5f36fd690f</title>
<g id="a_edge7"><a xlink:href="dir_000001_000123.html" target="_top">
<path fill="none" stroke="#63b8ff" d="M383.63,-70.98C412.51,-62.09 458.01,-48.07 490.2,-38.15"/>
<polygon fill="#63b8ff" stroke="#63b8ff" points="491.62,-41.37 500.15,-35.08 489.56,-34.68 491.62,-41.37"/>
</a>
</g>
<g id="a_edge7&#45;headlabel"><a xlink:href="dir_000001_000123.html" target="_top" xlink:title="1">
<text text-anchor="middle" x="489.02" y="-42.64" font-family="Helvetica,sans-Serif" font-size="10.00" fill="#63b8ff">1</text>
</a>
</g>
</g>
<!-- dir_3bc2e5902df3e836ed2057aed5170242&#45;&gt;dir_e45b4740ca2377c64753601f0047bb45 -->
<g id="edge8" class="edge">
<title>dir_3bc2e5902df3e836ed2057aed5170242&#45;&gt;dir_e45b4740ca2377c64753601f0047bb45</title>
<g id="a_edge8"><a xlink:href="dir_000001_000007.html" target="_top">
<path fill="none" stroke="#63b8ff" d="M397.71,-70.98C437.81,-62.71 500.37,-49.6 563.51,-35.29"/>
<polygon fill="#63b8ff" stroke="#63b8ff" points="564.67,-38.62 573.65,-32.99 563.12,-31.79 564.67,-38.62"/>
</a>
</g>
<g id="a_edge8&#45;headlabel"><a xlink:href="dir_000001_000007.html" target="_top" xlink:title="1">
<text text-anchor="middle" x="561.8" y="-39.68" font-family="Helvetica,sans-Serif" font-size="10.00" fill="#63b8ff">1</text>
</a>
</g>
</g>
<!-- dir_3bc2e5902df3e836ed2057aed5170242&#45;&gt;dir_efbdc876066079de180b18b112df9507 -->
<g id="edge9" class="edge">
<title>dir_3bc2e5902df3e836ed2057aed5170242&#45;&gt;dir_efbdc876066079de180b18b112df9507</title>
<g id="a_edge9"><a xlink:href="dir_000001_000080.html" target="_top">
<path fill="none" stroke="#63b8ff" d="M404.48,-72.32C458.13,-64.26 547.43,-50.47 633.78,-35.16"/>
<polygon fill="#63b8ff" stroke="#63b8ff" points="634.52,-38.59 643.75,-33.39 633.3,-31.7 634.52,-38.59"/>
</a>
</g>
<g id="a_edge9&#45;headlabel"><a xlink:href="dir_000001_000080.html" target="_top" xlink:title="1">
<text text-anchor="middle" x="631.48" y="-39.51" font-family="Helvetica,sans-Serif" font-size="10.00" fill="#63b8ff">1</text>
</a>
</g>
</g>
</g>
</svg>

<g id="navigator" transform="translate(0 0)" fill="#404254">
  <rect fill="#f2f5e9" fill-opacity="0.5" stroke="#606060" stroke-width=".5" x="0" y="0" width="60" height="60"/>
  <use id="zoomplus" xlink:href="#zoomPlus" x="17" y="9" onmousedown="handleZoom(evt,'in')"/>
  <use id="zoomminus" xlink:href="#zoomMin" x="42" y="9" onmousedown="handleZoom(evt,'out')"/>
  <use id="reset" xlink:href="#resetDef" x="30" y="36" onmousedown="handleReset()"/>
   <use id="arrowup" xlink:href="#arrowUp" x="0" y="0" onmousedown="handlePan(0,-1)"/>
  <use id="arrowright" xlink:href="#arrowRight" x="0" y="0" onmousedown="handlePan(1,0)"/>
  <use id="arrowdown" xlink:href="#arrowDown" x="0" y="0" onmousedown="handlePan(0,1)"/>
  <use id="arrowleft" xlink:href="#arrowLeft" x="0" y="0" onmousedown="handlePan(-1,0)"/>
</g>
<svg viewBox="0 0 15 15" width="100%" height="30px" preserveAspectRatio="xMaxYMin meet">
 <g id="arrow_out" transform="scale(0.3 0.3)">
  <a xlink:href="dir_3bc2e5902df3e836ed2057aed5170242_dep_org.svg" target="_base">
   <rect id="button" ry="5" rx="5" y="6" x="6" height="38" width="38"
        fill="#f2f5e9" fill-opacity="0.5" stroke="#606060" stroke-width="1.0"/>
   <path id="arrow"
     d="M 11.500037,31.436501 C 11.940474,20.09759 22.043105,11.32322 32.158766,21.979434 L 37.068811,17.246167 C 37.068811,17.246167 37.088388,32 37.088388,32 L 22.160133,31.978069 C 22.160133,31.978069 26.997745,27.140456 26.997745,27.140456 C 18.528582,18.264221 13.291696,25.230495 11.500037,31.436501 z"
     style="fill:#404040;"/>
  </a>
 </g>
</svg>

<style type='text/css'>
<![CDATA[
[data-mouse-over-selected='false'] { opacity: 0.7; }
[data-mouse-over-selected='true']  { opacity: 1.0; }
]]>
</style>
<script type="application/ecmascript"><![CDATA[
document.addEventListener('DOMContentLoaded', (event) => {
  highlightEdges();
  highlightAdjacentNodes();
});
]]></script>
</svg>
