<?xml version="1.0" encoding="UTF-8" standalone="no"?>
<!DOCTYPE svg PUBLIC "-//W3C//DTD SVG 1.1//EN"
 "http://www.w3.org/Graphics/SVG/1.1/DTD/svg11.dtd">
<!-- Generated by graphviz version 2.43.0 (0)
 -->
<!-- Title: libraries/AP_SmartRTL Pages: 1 -->
<!--zoomable 141 -->

<svg id="main" version="1.1" xmlns="http://www.w3.org/2000/svg" xmlns:xlink="http://www.w3.org/1999/xlink" xml:space="preserve" onload="init(evt)">
<style type="text/css"><![CDATA[
.node, .edge {opacity: 0.7;}
.node.selected, .edge.selected {opacity: 1;}
.edge:hover path { stroke: red; }
.edge:hover polygon { stroke: red; fill: red; }
]]></style>

<defs>
  <circle id="rim" cx="0" cy="0" r="7"/>
  <circle id="rim2" cx="0" cy="0" r="3.5"/>
  <g id="zoomPlus">
    <use xlink:href="#rim" fill="#404040"><set attributeName="fill" to="#808080" begin="zoomplus.mouseover" end="zoomplus.mouseout"/></use>
    <path d="M-4,0h8M0,-4v8" fill="none" stroke="white" stroke-width="1.5" pointer-events="none"/>
  </g>
  <g id="zoomMin">
    <use xlink:href="#rim" fill="#404040"><set attributeName="fill" to="#808080" begin="zoomminus.mouseover" end="zoomminus.mouseout"/></use>
    <path d="M-4,0h8" fill="none" stroke="white" stroke-width="1.5" pointer-events="none"/>
  </g>
  <g id="arrowUp" transform="translate(30 24)">
    <use xlink:href="#rim"/>
    <path pointer-events="none" fill="none" stroke="white" stroke-width="1.5" d="M0,-3.0v7 M-2.5,-0.5L0,-3.0L2.5,-0.5"/>
  </g>
  <g id="arrowRight" transform="rotate(90) translate(36 -43)">
    <use xlink:href="#rim"/>
    <path pointer-events="none" fill="none" stroke="white" stroke-width="1.5" d="M0,-3.0v7 M-2.5,-0.5L0,-3.0L2.5,-0.5"/>
  </g>
  <g id="arrowDown" transform="rotate(180) translate(-30 -48)">
    <use xlink:href="#rim"/>
    <path pointer-events="none" fill="none" stroke="white" stroke-width="1.5" d="M0,-3.0v7 M-2.5,-0.5L0,-3.0L2.5,-0.5"/>
  </g>
  <g id="arrowLeft" transform="rotate(270) translate(-36 17)">
    <use xlink:href="#rim"/>
    <path pointer-events="none" fill="none" stroke="white" stroke-width="1.5" d="M0,-3.0v7 M-2.5,-0.5L0,-3.0L2.5,-0.5"/>
  </g>
  <g id="resetDef">
    <use xlink:href="#rim2" fill="#404040"><set attributeName="fill" to="#808080" begin="reset.mouseover" end="reset.mouseout"/></use>
  </g>
</defs>
<script type="application/ecmascript">
var viewWidth = 1446;
var viewHeight = 141;
var sectionId = 'dynsection-0';
</script>
<script type="application/ecmascript" xlink:href="svg.min.js"/>
<svg id="graph" class="graph">
<g id="viewport">
<title>libraries/AP_SmartRTL</title>
<g id="clust1" class="cluster">
<title>clusterdir_bc0718b08fb2015b8e59c47b2805f60c</title>
<g id="a_clust1"><a xlink:href="dir_bc0718b08fb2015b8e59c47b2805f60c.html" target="_top" xlink:title="libraries">
<polygon fill="#edf0f7" stroke="#404040" stroke-dasharray="5,2" points="8,-8 8,-125 1430,-125 1430,-8 8,-8"/>
<text text-anchor="middle" x="719" y="-113" font-family="Helvetica,sans-Serif" font-size="10.00">libraries</text>
</a>
</g>
</g>
<g id="clust2" class="cluster">
<title>clusterdir_a7ea8c62630e47a183cd84623ef39ebd</title>
<g id="a_clust2"><a xlink:href="dir_a7ea8c62630e47a183cd84623ef39ebd.html" target="_top">
<polygon fill="#edf0f7" stroke="#404040" stroke-width="2" points="428,-63 428,-98 609,-98 609,-63 428,-63"/>
</a>
</g>
</g>
<!-- dir_1cbc10423b2512b31103883361e0123b -->
<g id="node1" class="node">
<title>dir_1cbc10423b2512b31103883361e0123b</title>
<g id="a_node1"><a xlink:href="dir_1cbc10423b2512b31103883361e0123b.html" target="_top" xlink:title="AP_HAL">
<polygon fill="#a2b4d6" stroke="red" points="513,-35 459,-35 459,-16 513,-16 513,-35"/>
<text text-anchor="middle" x="486" y="-23" font-family="Helvetica,sans-Serif" font-size="10.00">AP_HAL</text>
</a>
</g>
</g>
<!-- dir_85ad937bf7c11de5c2907a482c9c56bd -->
<g id="node2" class="node">
<title>dir_85ad937bf7c11de5c2907a482c9c56bd</title>
<g id="a_node2"><a xlink:href="dir_85ad937bf7c11de5c2907a482c9c56bd.html" target="_top" xlink:title="AP_AHRS">
<polygon fill="#a2b4d6" stroke="red" points="363,-35 301,-35 301,-16 363,-16 363,-35"/>
<text text-anchor="middle" x="332" y="-23" font-family="Helvetica,sans-Serif" font-size="10.00">AP_AHRS</text>
</a>
</g>
</g>
<!-- dir_93fb9127672489656ce87df72f6e986d -->
<g id="node3" class="node">
<title>dir_93fb9127672489656ce87df72f6e986d</title>
<g id="a_node3"><a xlink:href="dir_93fb9127672489656ce87df72f6e986d.html" target="_top" xlink:title="AP_Math">
<polygon fill="#a2b4d6" stroke="red" points="440.5,-35 381.5,-35 381.5,-16 440.5,-16 440.5,-35"/>
<text text-anchor="middle" x="411" y="-23" font-family="Helvetica,sans-Serif" font-size="10.00">AP_Math</text>
</a>
</g>
</g>
<!-- dir_be870cb78c6e1bc08f9e4388e1828b4d -->
<g id="node4" class="node">
<title>dir_be870cb78c6e1bc08f9e4388e1828b4d</title>
<g id="a_node4"><a xlink:href="dir_be870cb78c6e1bc08f9e4388e1828b4d.html" target="_top" xlink:title="GCS_MAVLink">
<polygon fill="#a2b4d6" stroke="red" points="100,-35 16,-35 16,-16 100,-16 100,-35"/>
<text text-anchor="middle" x="58" y="-23" font-family="Helvetica,sans-Serif" font-size="10.00">GCS_MAVLink</text>
</a>
</g>
</g>
<!-- dir_df3f4256615fd4197927a84a019a8bd8 -->
<g id="node5" class="node">
<title>dir_df3f4256615fd4197927a84a019a8bd8</title>
<g id="a_node5"><a xlink:href="dir_df3f4256615fd4197927a84a019a8bd8.html" target="_top" xlink:title="AP_Common">
<polygon fill="#a2b4d6" stroke="red" points="196.5,-35 117.5,-35 117.5,-16 196.5,-16 196.5,-35"/>
<text text-anchor="middle" x="157" y="-23" font-family="Helvetica,sans-Serif" font-size="10.00">AP_Common</text>
</a>
</g>
</g>
<!-- dir_efbdc876066079de180b18b112df9507 -->
<g id="node6" class="node">
<title>dir_efbdc876066079de180b18b112df9507</title>
<g id="a_node6"><a xlink:href="dir_efbdc876066079de180b18b112df9507.html" target="_top" xlink:title="AP_Logger">
<polygon fill="#a2b4d6" stroke="red" points="283,-35 215,-35 215,-16 283,-16 283,-35"/>
<text text-anchor="middle" x="249" y="-23" font-family="Helvetica,sans-Serif" font-size="10.00">AP_Logger</text>
</a>
</g>
</g>
<!-- dir_7db4a971a8c593e04169c3b474b45b25 -->
<g id="node7" class="node">
<title>dir_7db4a971a8c593e04169c3b474b45b25</title>
<g id="a_node7"><a xlink:href="dir_7db4a971a8c593e04169c3b474b45b25.html" target="_top" xlink:title="AP_Baro">
<polygon fill="#a2b4d6" stroke="red" points="588.5,-35 531.5,-35 531.5,-16 588.5,-16 588.5,-35"/>
<text text-anchor="middle" x="560" y="-23" font-family="Helvetica,sans-Serif" font-size="10.00">AP_Baro</text>
</a>
</g>
</g>
<!-- dir_65717d02e6482fd400ba81c154f53df4 -->
<g id="node8" class="node">
<title>dir_65717d02e6482fd400ba81c154f53df4</title>
<g id="a_node8"><a xlink:href="dir_65717d02e6482fd400ba81c154f53df4.html" target="_top" xlink:title="AP_Compass">
<polygon fill="#a2b4d6" stroke="red" points="687,-35 607,-35 607,-16 687,-16 687,-35"/>
<text text-anchor="middle" x="647" y="-23" font-family="Helvetica,sans-Serif" font-size="10.00">AP_Compass</text>
</a>
</g>
</g>
<!-- dir_dc27bcd5d3e114c391ea7ea0e777b78e -->
<g id="node9" class="node">
<title>dir_dc27bcd5d3e114c391ea7ea0e777b78e</title>
<g id="a_node9"><a xlink:href="dir_dc27bcd5d3e114c391ea7ea0e777b78e.html" target="_top" xlink:title="AP_GPS">
<polygon fill="#a2b4d6" stroke="red" points="759,-35 705,-35 705,-16 759,-16 759,-35"/>
<text text-anchor="middle" x="732" y="-23" font-family="Helvetica,sans-Serif" font-size="10.00">AP_GPS</text>
</a>
</g>
</g>
<!-- dir_f8d151dc119ef4d37afa003c944b490a -->
<g id="node10" class="node">
<title>dir_f8d151dc119ef4d37afa003c944b490a</title>
<g id="a_node10"><a xlink:href="dir_f8d151dc119ef4d37afa003c944b490a.html" target="_top" xlink:title="AP_InertialSensor">
<polygon fill="#a2b4d6" stroke="red" points="879,-35 777,-35 777,-16 879,-16 879,-35"/>
<text text-anchor="middle" x="828" y="-23" font-family="Helvetica,sans-Serif" font-size="10.00">AP_InertialSensor</text>
</a>
</g>
</g>
<!-- dir_3d64b9b1d29754754bebf8508cdc1a1e -->
<g id="node11" class="node">
<title>dir_3d64b9b1d29754754bebf8508cdc1a1e</title>
<g id="a_node11"><a xlink:href="dir_3d64b9b1d29754754bebf8508cdc1a1e.html" target="_top" xlink:title="AP_NavEKF2">
<polygon fill="#a2b4d6" stroke="#404040" points="976.5,-35 897.5,-35 897.5,-16 976.5,-16 976.5,-35"/>
<text text-anchor="middle" x="937" y="-23" font-family="Helvetica,sans-Serif" font-size="10.00">AP_NavEKF2</text>
</a>
</g>
</g>
<!-- dir_be7d8c815974726f2830f0fa14d80621 -->
<g id="node12" class="node">
<title>dir_be7d8c815974726f2830f0fa14d80621</title>
<g id="a_node12"><a xlink:href="dir_be7d8c815974726f2830f0fa14d80621.html" target="_top" xlink:title="AP_NavEKF3">
<polygon fill="#a2b4d6" stroke="red" points="1073.5,-35 994.5,-35 994.5,-16 1073.5,-16 1073.5,-35"/>
<text text-anchor="middle" x="1034" y="-23" font-family="Helvetica,sans-Serif" font-size="10.00">AP_NavEKF3</text>
</a>
</g>
</g>
<!-- dir_2db31eccffaa5186f16f2cc3bf0c362d -->
<g id="node13" class="node">
<title>dir_2db31eccffaa5186f16f2cc3bf0c362d</title>
<g id="a_node13"><a xlink:href="dir_2db31eccffaa5186f16f2cc3bf0c362d.html" target="_top" xlink:title="AP_RangeFinder">
<polygon fill="#a2b4d6" stroke="red" points="1186.5,-35 1091.5,-35 1091.5,-16 1186.5,-16 1186.5,-35"/>
<text text-anchor="middle" x="1139" y="-23" font-family="Helvetica,sans-Serif" font-size="10.00">AP_RangeFinder</text>
</a>
</g>
</g>
<!-- dir_6094d1505bd35c5350b5dace379b2456 -->
<g id="node14" class="node">
<title>dir_6094d1505bd35c5350b5dace379b2456</title>
<g id="a_node14"><a xlink:href="dir_6094d1505bd35c5350b5dace379b2456.html" target="_top" xlink:title="AP_SerialManager">
<polygon fill="#a2b4d6" stroke="#404040" points="1309.5,-35 1204.5,-35 1204.5,-16 1309.5,-16 1309.5,-35"/>
<text text-anchor="middle" x="1257" y="-23" font-family="Helvetica,sans-Serif" font-size="10.00">AP_SerialManager</text>
</a>
</g>
</g>
<!-- dir_30f1dfa80a719733e6e74d74b0ee38c1 -->
<g id="node15" class="node">
<title>dir_30f1dfa80a719733e6e74d74b0ee38c1</title>
<g id="a_node15"><a xlink:href="dir_30f1dfa80a719733e6e74d74b0ee38c1.html" target="_top" xlink:title="AP_BoardConfig">
<polygon fill="#a2b4d6" stroke="#404040" points="1422,-35 1328,-35 1328,-16 1422,-16 1422,-35"/>
<text text-anchor="middle" x="1375" y="-23" font-family="Helvetica,sans-Serif" font-size="10.00">AP_BoardConfig</text>
</a>
</g>
</g>
<!-- dir_a7ea8c62630e47a183cd84623ef39ebd -->
<g id="node16" class="node">
<title>dir_a7ea8c62630e47a183cd84623ef39ebd</title>
<text text-anchor="middle" x="477" y="-78" font-family="Helvetica,sans-Serif" font-size="10.00">AP_SmartRTL</text>
</g>
<!-- dir_a7ea8c62630e47a183cd84623ef39ebd&#45;&gt;dir_1cbc10423b2512b31103883361e0123b -->
<g id="edge1" class="edge">
<title>dir_a7ea8c62630e47a183cd84623ef39ebd&#45;&gt;dir_1cbc10423b2512b31103883361e0123b</title>
<g id="a_edge1"><a xlink:href="dir_000132_000060.html" target="_top">
<path fill="none" stroke="#63b8ff" d="M478.49,-70.75C479.67,-63.8 481.36,-53.85 482.84,-45.13"/>
<polygon fill="#63b8ff" stroke="#63b8ff" points="486.32,-45.53 484.54,-35.09 479.42,-44.36 486.32,-45.53"/>
</a>
</g>
<g id="a_edge1&#45;headlabel"><a xlink:href="dir_000132_000060.html" target="_top" xlink:title="2">
<text text-anchor="middle" x="488.52" y="-47.05" font-family="Helvetica,sans-Serif" font-size="10.00" fill="#63b8ff">2</text>
</a>
</g>
</g>
<!-- dir_a7ea8c62630e47a183cd84623ef39ebd&#45;&gt;dir_85ad937bf7c11de5c2907a482c9c56bd -->
<g id="edge2" class="edge">
<title>dir_a7ea8c62630e47a183cd84623ef39ebd&#45;&gt;dir_85ad937bf7c11de5c2907a482c9c56bd</title>
<g id="a_edge2"><a xlink:href="dir_000132_000019.html" target="_top">
<path fill="none" stroke="#63b8ff" d="M453.7,-70.98C429.75,-62.23 392.22,-48.51 365.17,-38.62"/>
<polygon fill="#63b8ff" stroke="#63b8ff" points="366.31,-35.32 355.72,-35.17 363.91,-41.89 366.31,-35.32"/>
</a>
</g>
<g id="a_edge2&#45;headlabel"><a xlink:href="dir_000132_000019.html" target="_top" xlink:title="2">
<text text-anchor="middle" x="370.67" y="-31.38" font-family="Helvetica,sans-Serif" font-size="10.00" fill="#63b8ff">2</text>
</a>
</g>
</g>
<!-- dir_a7ea8c62630e47a183cd84623ef39ebd&#45;&gt;dir_93fb9127672489656ce87df72f6e986d -->
<g id="edge3" class="edge">
<title>dir_a7ea8c62630e47a183cd84623ef39ebd&#45;&gt;dir_93fb9127672489656ce87df72f6e986d</title>
<g id="a_edge3"><a xlink:href="dir_000132_000085.html" target="_top">
<path fill="none" stroke="#63b8ff" d="M466.4,-70.98C456.54,-63.07 441.65,-51.11 429.78,-41.58"/>
<polygon fill="#63b8ff" stroke="#63b8ff" points="431.79,-38.7 421.8,-35.17 427.4,-44.16 431.79,-38.7"/>
</a>
</g>
<g id="a_edge3&#45;headlabel"><a xlink:href="dir_000132_000085.html" target="_top" xlink:title="2">
<text text-anchor="middle" x="436.37" y="-36.24" font-family="Helvetica,sans-Serif" font-size="10.00" fill="#63b8ff">2</text>
</a>
</g>
</g>
<!-- dir_a7ea8c62630e47a183cd84623ef39ebd&#45;&gt;dir_be870cb78c6e1bc08f9e4388e1828b4d -->
<g id="edge4" class="edge">
<title>dir_a7ea8c62630e47a183cd84623ef39ebd&#45;&gt;dir_be870cb78c6e1bc08f9e4388e1828b4d</title>
<g id="a_edge4"><a xlink:href="dir_000132_000227.html" target="_top">
<path fill="none" stroke="#63b8ff" d="M436.35,-75.19C370.23,-68.04 235.01,-52.88 110.12,-35.1"/>
<polygon fill="#63b8ff" stroke="#63b8ff" points="110.4,-31.61 100,-33.65 109.4,-38.54 110.4,-31.61"/>
</a>
</g>
<g id="a_edge4&#45;headlabel"><a xlink:href="dir_000132_000227.html" target="_top" xlink:title="1">
<text text-anchor="middle" x="114.36" y="-26.81" font-family="Helvetica,sans-Serif" font-size="10.00" fill="#63b8ff">1</text>
</a>
</g>
</g>
<!-- dir_a7ea8c62630e47a183cd84623ef39ebd&#45;&gt;dir_df3f4256615fd4197927a84a019a8bd8 -->
<g id="edge5" class="edge">
<title>dir_a7ea8c62630e47a183cd84623ef39ebd&#45;&gt;dir_df3f4256615fd4197927a84a019a8bd8</title>
<g id="a_edge5"><a xlink:href="dir_000132_000033.html" target="_top">
<path fill="none" stroke="#63b8ff" d="M436.12,-72.9C384.97,-64.63 294.41,-49.89 206.45,-35.06"/>
<polygon fill="#63b8ff" stroke="#63b8ff" points="207.02,-31.61 196.58,-33.4 205.85,-38.51 207.02,-31.61"/>
</a>
</g>
<g id="a_edge5&#45;headlabel"><a xlink:href="dir_000132_000033.html" target="_top" xlink:title="1">
<text text-anchor="middle" x="211.04" y="-26.91" font-family="Helvetica,sans-Serif" font-size="10.00" fill="#63b8ff">1</text>
</a>
</g>
</g>
<!-- dir_a7ea8c62630e47a183cd84623ef39ebd&#45;&gt;dir_efbdc876066079de180b18b112df9507 -->
<g id="edge6" class="edge">
<title>dir_a7ea8c62630e47a183cd84623ef39ebd&#45;&gt;dir_efbdc876066079de180b18b112df9507</title>
<g id="a_edge6"><a xlink:href="dir_000132_000080.html" target="_top">
<path fill="none" stroke="#63b8ff" d="M440.37,-70.98C400.28,-61.67 336.02,-46.73 293.17,-36.77"/>
<polygon fill="#63b8ff" stroke="#63b8ff" points="293.84,-33.33 283.3,-34.47 292.25,-40.15 293.84,-33.33"/>
</a>
</g>
<g id="a_edge6&#45;headlabel"><a xlink:href="dir_000132_000080.html" target="_top" xlink:title="2">
<text text-anchor="middle" x="297.98" y="-28.88" font-family="Helvetica,sans-Serif" font-size="10.00" fill="#63b8ff">2</text>
</a>
</g>
</g>
<!-- dir_41fdc8c648a257db2180c1fd9786b46f -->
<g id="node17" class="node">
<title>dir_41fdc8c648a257db2180c1fd9786b46f</title>
<g id="a_node17"><a xlink:href="dir_41fdc8c648a257db2180c1fd9786b46f.html" target="_top" xlink:title="examples">
<polygon fill="#a2b4d6" stroke="#404040" points="600.5,-90 535.5,-90 535.5,-71 600.5,-71 600.5,-90"/>
<text text-anchor="middle" x="568" y="-78" font-family="Helvetica,sans-Serif" font-size="10.00">examples</text>
</a>
</g>
</g>
<!-- dir_41fdc8c648a257db2180c1fd9786b46f&#45;&gt;dir_1cbc10423b2512b31103883361e0123b -->
<g id="edge17" class="edge">
<title>dir_41fdc8c648a257db2180c1fd9786b46f&#45;&gt;dir_1cbc10423b2512b31103883361e0123b</title>
<g id="a_edge17"><a xlink:href="dir_000216_000060.html" target="_top">
<path fill="none" stroke="#63b8ff" d="M554.83,-70.98C542.23,-62.84 523,-50.41 508.06,-40.76"/>
<polygon fill="#63b8ff" stroke="#63b8ff" points="509.71,-37.66 499.41,-35.17 505.91,-43.54 509.71,-37.66"/>
</a>
</g>
<g id="a_edge17&#45;headlabel"><a xlink:href="dir_000216_000060.html" target="_top" xlink:title="1">
<text text-anchor="middle" x="514.27" y="-34.73" font-family="Helvetica,sans-Serif" font-size="10.00" fill="#63b8ff">1</text>
</a>
</g>
</g>
<!-- dir_41fdc8c648a257db2180c1fd9786b46f&#45;&gt;dir_85ad937bf7c11de5c2907a482c9c56bd -->
<g id="edge7" class="edge">
<title>dir_41fdc8c648a257db2180c1fd9786b46f&#45;&gt;dir_85ad937bf7c11de5c2907a482c9c56bd</title>
<g id="a_edge7"><a xlink:href="dir_000216_000019.html" target="_top">
<path fill="none" stroke="#63b8ff" d="M549.09,-70.96C542.24,-68.11 534.37,-65.13 527,-63 463.17,-44.56 443.08,-47.92 373.48,-35.01"/>
<polygon fill="#63b8ff" stroke="#63b8ff" points="373.8,-31.51 363.32,-33.08 372.49,-38.38 373.8,-31.51"/>
</a>
</g>
<g id="a_edge7&#45;headlabel"><a xlink:href="dir_000216_000019.html" target="_top" xlink:title="1">
<text text-anchor="middle" x="377.86" y="-26.89" font-family="Helvetica,sans-Serif" font-size="10.00" fill="#63b8ff">1</text>
</a>
</g>
</g>
<!-- dir_41fdc8c648a257db2180c1fd9786b46f&#45;&gt;dir_93fb9127672489656ce87df72f6e986d -->
<g id="edge18" class="edge">
<title>dir_41fdc8c648a257db2180c1fd9786b46f&#45;&gt;dir_93fb9127672489656ce87df72f6e986d</title>
<g id="a_edge18"><a xlink:href="dir_000216_000085.html" target="_top">
<path fill="none" stroke="#63b8ff" d="M547.68,-70.96C541.12,-68.3 533.79,-65.43 527,-63 501.55,-53.89 472.53,-44.76 449.89,-37.91"/>
<polygon fill="#63b8ff" stroke="#63b8ff" points="450.87,-34.55 440.29,-35.03 448.86,-41.26 450.87,-34.55"/>
</a>
</g>
<g id="a_edge18&#45;headlabel"><a xlink:href="dir_000216_000085.html" target="_top" xlink:title="1">
<text text-anchor="middle" x="455.13" y="-30.37" font-family="Helvetica,sans-Serif" font-size="10.00" fill="#63b8ff">1</text>
</a>
</g>
</g>
<!-- dir_41fdc8c648a257db2180c1fd9786b46f&#45;&gt;dir_7db4a971a8c593e04169c3b474b45b25 -->
<g id="edge8" class="edge">
<title>dir_41fdc8c648a257db2180c1fd9786b46f&#45;&gt;dir_7db4a971a8c593e04169c3b474b45b25</title>
<g id="a_edge8"><a xlink:href="dir_000216_000024.html" target="_top">
<path fill="none" stroke="#63b8ff" d="M566.68,-70.75C565.63,-63.8 564.13,-53.85 562.81,-45.13"/>
<polygon fill="#63b8ff" stroke="#63b8ff" points="566.25,-44.45 561.3,-35.09 559.33,-45.5 566.25,-44.45"/>
</a>
</g>
<g id="a_edge8&#45;headlabel"><a xlink:href="dir_000216_000024.html" target="_top" xlink:title="1">
<text text-anchor="middle" x="569.59" y="-45.09" font-family="Helvetica,sans-Serif" font-size="10.00" fill="#63b8ff">1</text>
</a>
</g>
</g>
<!-- dir_41fdc8c648a257db2180c1fd9786b46f&#45;&gt;dir_65717d02e6482fd400ba81c154f53df4 -->
<g id="edge9" class="edge">
<title>dir_41fdc8c648a257db2180c1fd9786b46f&#45;&gt;dir_65717d02e6482fd400ba81c154f53df4</title>
<g id="a_edge9"><a xlink:href="dir_000216_000035.html" target="_top">
<path fill="none" stroke="#63b8ff" d="M580.69,-70.98C592.83,-62.84 611.36,-50.41 625.75,-40.76"/>
<polygon fill="#63b8ff" stroke="#63b8ff" points="627.72,-43.65 634.08,-35.17 623.82,-37.84 627.72,-43.65"/>
</a>
</g>
<g id="a_edge9&#45;headlabel"><a xlink:href="dir_000216_000035.html" target="_top" xlink:title="1">
<text text-anchor="middle" x="626.32" y="-45.51" font-family="Helvetica,sans-Serif" font-size="10.00" fill="#63b8ff">1</text>
</a>
</g>
</g>
<!-- dir_41fdc8c648a257db2180c1fd9786b46f&#45;&gt;dir_dc27bcd5d3e114c391ea7ea0e777b78e -->
<g id="edge10" class="edge">
<title>dir_41fdc8c648a257db2180c1fd9786b46f&#45;&gt;dir_dc27bcd5d3e114c391ea7ea0e777b78e</title>
<g id="a_edge10"><a xlink:href="dir_000216_000057.html" target="_top">
<path fill="none" stroke="#63b8ff" d="M594.35,-70.98C621.76,-62.13 664.89,-48.19 695.56,-38.28"/>
<polygon fill="#63b8ff" stroke="#63b8ff" points="697,-41.49 705.44,-35.08 694.85,-34.83 697,-41.49"/>
</a>
</g>
<g id="a_edge10&#45;headlabel"><a xlink:href="dir_000216_000057.html" target="_top" xlink:title="1">
<text text-anchor="middle" x="694.46" y="-42.79" font-family="Helvetica,sans-Serif" font-size="10.00" fill="#63b8ff">1</text>
</a>
</g>
</g>
<!-- dir_41fdc8c648a257db2180c1fd9786b46f&#45;&gt;dir_f8d151dc119ef4d37afa003c944b490a -->
<g id="edge11" class="edge">
<title>dir_41fdc8c648a257db2180c1fd9786b46f&#45;&gt;dir_f8d151dc119ef4d37afa003c944b490a</title>
<g id="a_edge11"><a xlink:href="dir_000216_000069.html" target="_top">
<path fill="none" stroke="#63b8ff" d="M600.67,-72.84C644.78,-63.85 723.88,-47.72 776.16,-37.07"/>
<polygon fill="#63b8ff" stroke="#63b8ff" points="777.14,-40.44 786.24,-35.01 775.74,-33.58 777.14,-40.44"/>
</a>
</g>
<g id="a_edge11&#45;headlabel"><a xlink:href="dir_000216_000069.html" target="_top" xlink:title="1">
<text text-anchor="middle" x="774.18" y="-41.44" font-family="Helvetica,sans-Serif" font-size="10.00" fill="#63b8ff">1</text>
</a>
</g>
</g>
<!-- dir_41fdc8c648a257db2180c1fd9786b46f&#45;&gt;dir_3d64b9b1d29754754bebf8508cdc1a1e -->
<g id="edge12" class="edge">
<title>dir_41fdc8c648a257db2180c1fd9786b46f&#45;&gt;dir_3d64b9b1d29754754bebf8508cdc1a1e</title>
<g id="a_edge12"><a xlink:href="dir_000216_000095.html" target="_top">
<path fill="none" stroke="#63b8ff" d="M600.76,-75.31C657.06,-68.04 776.02,-52.32 887.38,-35.05"/>
<polygon fill="#63b8ff" stroke="#63b8ff" points="888.1,-38.48 897.44,-33.48 887.02,-31.56 888.1,-38.48"/>
</a>
</g>
<g id="a_edge12&#45;headlabel"><a xlink:href="dir_000216_000095.html" target="_top" xlink:title="1">
<text text-anchor="middle" x="884.98" y="-39.34" font-family="Helvetica,sans-Serif" font-size="10.00" fill="#63b8ff">1</text>
</a>
</g>
</g>
<!-- dir_41fdc8c648a257db2180c1fd9786b46f&#45;&gt;dir_be7d8c815974726f2830f0fa14d80621 -->
<g id="edge13" class="edge">
<title>dir_41fdc8c648a257db2180c1fd9786b46f&#45;&gt;dir_be7d8c815974726f2830f0fa14d80621</title>
<g id="a_edge13"><a xlink:href="dir_000216_000096.html" target="_top">
<path fill="none" stroke="#63b8ff" d="M600.61,-76.8C669.54,-70.93 835.26,-55.95 984.24,-35.16"/>
<polygon fill="#63b8ff" stroke="#63b8ff" points="985.07,-38.58 994.48,-33.72 984.09,-31.65 985.07,-38.58"/>
</a>
</g>
<g id="a_edge13&#45;headlabel"><a xlink:href="dir_000216_000096.html" target="_top" xlink:title="1">
<text text-anchor="middle" x="981.9" y="-39.39" font-family="Helvetica,sans-Serif" font-size="10.00" fill="#63b8ff">1</text>
</a>
</g>
</g>
<!-- dir_41fdc8c648a257db2180c1fd9786b46f&#45;&gt;dir_2db31eccffaa5186f16f2cc3bf0c362d -->
<g id="edge14" class="edge">
<title>dir_41fdc8c648a257db2180c1fd9786b46f&#45;&gt;dir_2db31eccffaa5186f16f2cc3bf0c362d</title>
<g id="a_edge14"><a xlink:href="dir_000216_000116.html" target="_top">
<path fill="none" stroke="#63b8ff" d="M600.61,-77.41C680.68,-72.14 893.55,-57.17 1081.32,-35.13"/>
<polygon fill="#63b8ff" stroke="#63b8ff" points="1081.85,-38.59 1091.37,-33.94 1081.03,-31.64 1081.85,-38.59"/>
</a>
</g>
<g id="a_edge14&#45;headlabel"><a xlink:href="dir_000216_000116.html" target="_top" xlink:title="1">
<text text-anchor="middle" x="1078.61" y="-39.34" font-family="Helvetica,sans-Serif" font-size="10.00" fill="#63b8ff">1</text>
</a>
</g>
</g>
<!-- dir_41fdc8c648a257db2180c1fd9786b46f&#45;&gt;dir_6094d1505bd35c5350b5dace379b2456 -->
<g id="edge15" class="edge">
<title>dir_41fdc8c648a257db2180c1fd9786b46f&#45;&gt;dir_6094d1505bd35c5350b5dace379b2456</title>
<g id="a_edge15"><a xlink:href="dir_000216_000130.html" target="_top">
<path fill="none" stroke="#63b8ff" d="M600.76,-77.96C692.68,-73.48 961.06,-59.26 1194.42,-35.1"/>
<polygon fill="#63b8ff" stroke="#63b8ff" points="1194.87,-38.57 1204.46,-34.05 1194.15,-31.61 1194.87,-38.57"/>
</a>
</g>
<g id="a_edge15&#45;headlabel"><a xlink:href="dir_000216_000130.html" target="_top" xlink:title="1">
<text text-anchor="middle" x="1191.59" y="-39.27" font-family="Helvetica,sans-Serif" font-size="10.00" fill="#63b8ff">1</text>
</a>
</g>
</g>
<!-- dir_41fdc8c648a257db2180c1fd9786b46f&#45;&gt;dir_30f1dfa80a719733e6e74d74b0ee38c1 -->
<g id="edge16" class="edge">
<title>dir_41fdc8c648a257db2180c1fd9786b46f&#45;&gt;dir_30f1dfa80a719733e6e74d74b0ee38c1</title>
<g id="a_edge16"><a xlink:href="dir_000216_000028.html" target="_top">
<path fill="none" stroke="#63b8ff" d="M600.66,-78.63C704.14,-75.66 1034.15,-64.43 1317.91,-35.01"/>
<polygon fill="#63b8ff" stroke="#63b8ff" points="1318.41,-38.48 1327.99,-33.95 1317.68,-31.51 1318.41,-38.48"/>
</a>
</g>
<g id="a_edge16&#45;headlabel"><a xlink:href="dir_000216_000028.html" target="_top" xlink:title="1">
<text text-anchor="middle" x="1315.13" y="-39.17" font-family="Helvetica,sans-Serif" font-size="10.00" fill="#63b8ff">1</text>
</a>
</g>
</g>
</g>
</svg>

<g id="navigator" transform="translate(0 0)" fill="#404254">
  <rect fill="#f2f5e9" fill-opacity="0.5" stroke="#606060" stroke-width=".5" x="0" y="0" width="60" height="60"/>
  <use id="zoomplus" xlink:href="#zoomPlus" x="17" y="9" onmousedown="handleZoom(evt,'in')"/>
  <use id="zoomminus" xlink:href="#zoomMin" x="42" y="9" onmousedown="handleZoom(evt,'out')"/>
  <use id="reset" xlink:href="#resetDef" x="30" y="36" onmousedown="handleReset()"/>
   <use id="arrowup" xlink:href="#arrowUp" x="0" y="0" onmousedown="handlePan(0,-1)"/>
  <use id="arrowright" xlink:href="#arrowRight" x="0" y="0" onmousedown="handlePan(1,0)"/>
  <use id="arrowdown" xlink:href="#arrowDown" x="0" y="0" onmousedown="handlePan(0,1)"/>
  <use id="arrowleft" xlink:href="#arrowLeft" x="0" y="0" onmousedown="handlePan(-1,0)"/>
</g>
<svg viewBox="0 0 15 15" width="100%" height="30px" preserveAspectRatio="xMaxYMin meet">
 <g id="arrow_out" transform="scale(0.3 0.3)">
  <a xlink:href="dir_a7ea8c62630e47a183cd84623ef39ebd_dep_org.svg" target="_base">
   <rect id="button" ry="5" rx="5" y="6" x="6" height="38" width="38"
        fill="#f2f5e9" fill-opacity="0.5" stroke="#606060" stroke-width="1.0"/>
   <path id="arrow"
     d="M 11.500037,31.436501 C 11.940474,20.09759 22.043105,11.32322 32.158766,21.979434 L 37.068811,17.246167 C 37.068811,17.246167 37.088388,32 37.088388,32 L 22.160133,31.978069 C 22.160133,31.978069 26.997745,27.140456 26.997745,27.140456 C 18.528582,18.264221 13.291696,25.230495 11.500037,31.436501 z"
     style="fill:#404040;"/>
  </a>
 </g>
</svg>

<style type='text/css'>
<![CDATA[
[data-mouse-over-selected='false'] { opacity: 0.7; }
[data-mouse-over-selected='true']  { opacity: 1.0; }
]]>
</style>
<script type="application/ecmascript"><![CDATA[
document.addEventListener('DOMContentLoaded', (event) => {
  highlightEdges();
  highlightAdjacentNodes();
});
]]></script>
</svg>
