<?xml version="1.0" encoding="UTF-8" standalone="no"?>
<!DOCTYPE svg PUBLIC "-//W3C//DTD SVG 1.1//EN"
 "http://www.w3.org/Graphics/SVG/1.1/DTD/svg11.dtd">
<!-- Generated by graphviz version 2.43.0 (0)
 -->
<!-- Title: decodeECU_TPSDelayCalibrationPacket Pages: 1 -->
<svg width="396pt" height="150pt"
 viewBox="0.00 0.00 396.00 149.50" xmlns="http://www.w3.org/2000/svg" xmlns:xlink="http://www.w3.org/1999/xlink">
<g id="graph0" class="graph" transform="scale(1 1) rotate(0) translate(4 145.5)">
<title>decodeECU_TPSDelayCalibrationPacket</title>
<!-- Node1 -->
<g id="Node000001" class="node">
<title>Node1</title>
<g id="a_Node000001"><a xlink:title="Decode the ECU_TPSDelayCalibration packet to parameters.">
<polygon fill="#999999" stroke="#666666" points="177,-79.5 0,-79.5 0,-49.5 177,-49.5 177,-79.5"/>
<text text-anchor="start" x="8" y="-67.5" font-family="Helvetica,sans-Serif" font-size="10.00">decodeECU_TPSDelayCalibration</text>
<text text-anchor="middle" x="88.5" y="-56.5" font-family="Helvetica,sans-Serif" font-size="10.00">Packet</text>
</a>
</g>
</g>
<!-- Node2 -->
<g id="Node000002" class="node">
<title>Node2</title>
<g id="a_Node000002"><a xlink:href="ECUDefines_8c.html#a877a1f39745276f10e750a779af9d087" target="_top" xlink:title="Decode a ECU_ThrottleDelayConfigBits_t from a byte array.">
<polygon fill="white" stroke="#666666" points="388,-141.5 213,-141.5 213,-111.5 388,-111.5 388,-141.5"/>
<text text-anchor="start" x="221" y="-129.5" font-family="Helvetica,sans-Serif" font-size="10.00">decodeECU_ThrottleDelayConfig</text>
<text text-anchor="middle" x="300.5" y="-118.5" font-family="Helvetica,sans-Serif" font-size="10.00">Bits_t</text>
</a>
</g>
</g>
<!-- Node1&#45;&gt;Node2 -->
<g id="edge1_Node000001_Node000002" class="edge">
<title>Node1&#45;&gt;Node2</title>
<g id="a_edge1_Node000001_Node000002"><a xlink:title=" ">
<path fill="none" stroke="#63b8ff" d="M137.2,-79.52C160.09,-86.63 187.92,-95.16 213,-102.5 219.99,-104.55 227.32,-106.64 234.62,-108.71"/>
<polygon fill="#63b8ff" stroke="#63b8ff" points="233.95,-112.16 244.52,-111.49 235.84,-105.42 233.95,-112.16"/>
</a>
</g>
</g>
<!-- Node3 -->
<g id="Node000003" class="node">
<title>Node3</title>
<g id="a_Node000003"><a xlink:href="ECUProtocol_8h.html#a74ed13018247a8514af7eb52ef5410cc" target="_top" xlink:title=" ">
<polygon fill="white" stroke="#666666" points="368,-93 233,-93 233,-74 368,-74 368,-93"/>
<text text-anchor="middle" x="300.5" y="-81" font-family="Helvetica,sans-Serif" font-size="10.00">getECUPacketDataConst</text>
</a>
</g>
</g>
<!-- Node1&#45;&gt;Node3 -->
<g id="edge2_Node000001_Node000003" class="edge">
<title>Node1&#45;&gt;Node3</title>
<g id="a_edge2_Node000001_Node000003"><a xlink:title=" ">
<path fill="none" stroke="#63b8ff" d="M177.04,-72.42C192.22,-73.79 207.9,-75.21 222.76,-76.56"/>
<polygon fill="#63b8ff" stroke="#63b8ff" points="222.63,-80.06 232.9,-77.47 223.26,-73.09 222.63,-80.06"/>
</a>
</g>
</g>
<!-- Node4 -->
<g id="Node000004" class="node">
<title>Node4</title>
<g id="a_Node000004"><a xlink:href="ECUProtocol_8h.html#ac0811382529c6b1db2d19cb00d5aa0b0" target="_top" xlink:title=" ">
<polygon fill="white" stroke="#666666" points="348,-56 253,-56 253,-37 348,-37 348,-56"/>
<text text-anchor="middle" x="300.5" y="-44" font-family="Helvetica,sans-Serif" font-size="10.00">getECUPacketID</text>
</a>
</g>
</g>
<!-- Node1&#45;&gt;Node4 -->
<g id="edge3_Node000001_Node000004" class="edge">
<title>Node1&#45;&gt;Node4</title>
<g id="a_edge3_Node000001_Node000004"><a xlink:title=" ">
<path fill="none" stroke="#63b8ff" d="M177.04,-57C199.28,-55.09 222.59,-53.09 242.84,-51.36"/>
<polygon fill="#63b8ff" stroke="#63b8ff" points="243.16,-54.84 252.82,-50.5 242.56,-47.87 243.16,-54.84"/>
</a>
</g>
</g>
<!-- Node5 -->
<g id="Node000005" class="node">
<title>Node5</title>
<g id="a_Node000005"><a xlink:href="ECUProtocol_8h.html#aaab7f6ca354d108214f099fb53d1fd79" target="_top" xlink:title=" ">
<polygon fill="white" stroke="#666666" points="352.5,-19 248.5,-19 248.5,0 352.5,0 352.5,-19"/>
<text text-anchor="middle" x="300.5" y="-7" font-family="Helvetica,sans-Serif" font-size="10.00">getECUPacketSize</text>
</a>
</g>
</g>
<!-- Node1&#45;&gt;Node5 -->
<g id="edge4_Node000001_Node000005" class="edge">
<title>Node1&#45;&gt;Node5</title>
<g id="a_edge4_Node000001_Node000005"><a xlink:title=" ">
<path fill="none" stroke="#63b8ff" d="M138.27,-49.46C160.9,-42.69 188.22,-34.82 213,-28.5 222.72,-26.02 233.11,-23.57 243.18,-21.29"/>
<polygon fill="#63b8ff" stroke="#63b8ff" points="244.12,-24.67 253.13,-19.08 242.6,-17.84 244.12,-24.67"/>
</a>
</g>
</g>
</g>
</svg>
