<?xml version="1.0" encoding="UTF-8" standalone="no"?>
<!DOCTYPE svg PUBLIC "-//W3C//DTD SVG 1.1//EN"
 "http://www.w3.org/Graphics/SVG/1.1/DTD/svg11.dtd">
<!-- Generated by graphviz version 2.43.0 (0)
 -->
<!-- Title: encodeECU_PumpDebugPacketStructure Pages: 1 -->
<svg width="491pt" height="161pt"
 viewBox="0.00 0.00 491.00 161.00" xmlns="http://www.w3.org/2000/svg" xmlns:xlink="http://www.w3.org/1999/xlink">

<svg id="main" version="1.1" xmlns="http://www.w3.org/2000/svg" xmlns:xlink="http://www.w3.org/1999/xlink" xml:space="preserve" onload="init(evt)">
<style type="text/css"><![CDATA[
.node, .edge {opacity: 0.7;}
.node.selected, .edge.selected {opacity: 1;}
.edge:hover path { stroke: red; }
.edge:hover polygon { stroke: red; fill: red; }
]]></style>
<script type="application/ecmascript" xlink:href="svg.min.js"/>
<svg id="graph" class="graph">
<g id="graph0" class="graph" transform="scale(1 1) rotate(0) translate(4 157)">
<title>encodeECU_PumpDebugPacketStructure</title>
<!-- Node1 -->
<g id="Node000001" class="node">
<title>Node1</title>
<g id="a_Node000001"><a xlink:title="Create the ECU_PumpDebug packet.">
<polygon fill="#999999" stroke="#666666" points="168,-91.5 0,-91.5 0,-61.5 168,-61.5 168,-91.5"/>
<text text-anchor="start" x="8" y="-79.5" font-family="Helvetica,sans-Serif" font-size="10.00">encodeECU_PumpDebugPacket</text>
<text text-anchor="middle" x="84" y="-68.5" font-family="Helvetica,sans-Serif" font-size="10.00">Structure</text>
</a>
</g>
</g>
<!-- Node2 -->
<g id="Node000002" class="node">
<title>Node2</title>
<g id="a_Node000002"><a xlink:href="ECUProtocol_8h.html#ae28b5d84d186f66f5b7df17a8a186ca6" target="_top" xlink:title="Complete a packet after the data have been encoded.">
<polygon fill="white" stroke="#666666" points="324,-153 229,-153 229,-134 324,-134 324,-153"/>
<text text-anchor="middle" x="276.5" y="-141" font-family="Helvetica,sans-Serif" font-size="10.00">finishECUPacket</text>
</a>
</g>
</g>
<!-- Node1&#45;&gt;Node2 -->
<g id="edge1_Node000001_Node000002" class="edge">
<title>Node1&#45;&gt;Node2</title>
<g id="a_edge1_Node000001_Node000002"><a xlink:title=" ">
<path fill="none" stroke="#63b8ff" d="M118.95,-91.5C142.53,-101.59 174.83,-114.78 204,-124.5 211.12,-126.87 218.71,-129.15 226.19,-131.25"/>
<polygon fill="#63b8ff" stroke="#63b8ff" points="225.34,-134.65 235.9,-133.91 227.18,-127.9 225.34,-134.65"/>
</a>
</g>
</g>
<!-- Node3 -->
<g id="Node000003" class="node">
<title>Node3</title>
<g id="a_Node000003"><a xlink:href="scaledencode_8c.html#a456134dc1eb36209fb7b281bbd57fcb2" target="_top" xlink:title="Encode a float on a byte stream by floating point scaling to fit in 2 signed bytes in big endian orde...">
<polygon fill="white" stroke="#666666" points="349,-115.5 204,-115.5 204,-85.5 349,-85.5 349,-115.5"/>
<text text-anchor="start" x="212" y="-103.5" font-family="Helvetica,sans-Serif" font-size="10.00">float32ScaledTo2SignedBe</text>
<text text-anchor="middle" x="276.5" y="-92.5" font-family="Helvetica,sans-Serif" font-size="10.00">Bytes</text>
</a>
</g>
</g>
<!-- Node1&#45;&gt;Node3 -->
<g id="edge2_Node000001_Node000003" class="edge">
<title>Node1&#45;&gt;Node3</title>
<g id="a_edge2_Node000001_Node000003"><a xlink:title=" ">
<path fill="none" stroke="#63b8ff" d="M168,-86.96C176.58,-88.04 185.29,-89.13 193.85,-90.21"/>
<polygon fill="#63b8ff" stroke="#63b8ff" points="193.45,-93.69 203.81,-91.47 194.33,-86.75 193.45,-93.69"/>
</a>
</g>
</g>
<!-- Node5 -->
<g id="Node000005" class="node">
<title>Node5</title>
<g id="a_Node000005"><a xlink:href="scaledencode_8c.html#a6139bc16730455d9047aa1e9d4f29c02" target="_top" xlink:title="Encode a float on a byte stream by floating point scaling to fit in 2 unsigned bytes in big endian or...">
<polygon fill="white" stroke="#666666" points="349,-67.5 204,-67.5 204,-37.5 349,-37.5 349,-67.5"/>
<text text-anchor="start" x="212" y="-55.5" font-family="Helvetica,sans-Serif" font-size="10.00">float32ScaledTo2Unsigned</text>
<text text-anchor="middle" x="276.5" y="-44.5" font-family="Helvetica,sans-Serif" font-size="10.00">BeBytes</text>
</a>
</g>
</g>
<!-- Node1&#45;&gt;Node5 -->
<g id="edge4_Node000001_Node000005" class="edge">
<title>Node1&#45;&gt;Node5</title>
<g id="a_edge4_Node000001_Node000005"><a xlink:title=" ">
<path fill="none" stroke="#63b8ff" d="M168,-66.04C176.58,-64.96 185.29,-63.87 193.85,-62.79"/>
<polygon fill="#63b8ff" stroke="#63b8ff" points="194.33,-66.25 203.81,-61.53 193.45,-59.31 194.33,-66.25"/>
</a>
</g>
</g>
<!-- Node7 -->
<g id="Node000007" class="node">
<title>Node7</title>
<g id="a_Node000007"><a xlink:href="ECUProtocol_8h.html#a2ed350dc1b119d45a9ce5b3769831c15" target="_top" xlink:title=" ">
<polygon fill="white" stroke="#666666" points="330,-19 223,-19 223,0 330,0 330,-19"/>
<text text-anchor="middle" x="276.5" y="-7" font-family="Helvetica,sans-Serif" font-size="10.00">getECUPacketData</text>
</a>
</g>
</g>
<!-- Node1&#45;&gt;Node7 -->
<g id="edge6_Node000001_Node000007" class="edge">
<title>Node1&#45;&gt;Node7</title>
<g id="a_edge6_Node000001_Node000007"><a xlink:title=" ">
<path fill="none" stroke="#63b8ff" d="M118.95,-61.5C142.53,-51.41 174.83,-38.22 204,-28.5 211.12,-26.13 218.71,-23.85 226.19,-21.75"/>
<polygon fill="#63b8ff" stroke="#63b8ff" points="227.18,-25.1 235.9,-19.09 225.34,-18.35 227.18,-25.1"/>
</a>
</g>
</g>
<!-- Node4 -->
<g id="Node000004" class="node">
<title>Node4</title>
<g id="a_Node000004"><a xlink:href="fieldencode_8c.html#a0d287f0c08630b8e4e8cfe3f0e7a67f9" target="_top" xlink:title="Encode a signed 2 byte integer on a big endian byte stream.">
<polygon fill="white" stroke="#666666" points="480,-110 388,-110 388,-91 480,-91 480,-110"/>
<text text-anchor="middle" x="434" y="-98" font-family="Helvetica,sans-Serif" font-size="10.00">int16ToBeBytes</text>
</a>
</g>
</g>
<!-- Node3&#45;&gt;Node4 -->
<g id="edge3_Node000003_Node000004" class="edge">
<title>Node3&#45;&gt;Node4</title>
<g id="a_edge3_Node000003_Node000004"><a xlink:title=" ">
<path fill="none" stroke="#63b8ff" d="M349.33,-100.5C358.81,-100.5 368.42,-100.5 377.56,-100.5"/>
<polygon fill="#63b8ff" stroke="#63b8ff" points="377.67,-104 387.67,-100.5 377.67,-97 377.67,-104"/>
</a>
</g>
</g>
<!-- Node6 -->
<g id="Node000006" class="node">
<title>Node6</title>
<g id="a_Node000006"><a xlink:href="fieldencode_8c.html#a10484029024d49e0e071557ac04c554f" target="_top" xlink:title="Encode a unsigned 2 byte integer on a big endian byte stream.">
<polygon fill="white" stroke="#666666" points="483,-62 385,-62 385,-43 483,-43 483,-62"/>
<text text-anchor="middle" x="434" y="-50" font-family="Helvetica,sans-Serif" font-size="10.00">uint16ToBeBytes</text>
</a>
</g>
</g>
<!-- Node5&#45;&gt;Node6 -->
<g id="edge5_Node000005_Node000006" class="edge">
<title>Node5&#45;&gt;Node6</title>
<g id="a_edge5_Node000005_Node000006"><a xlink:title=" ">
<path fill="none" stroke="#63b8ff" d="M349.33,-52.5C357.73,-52.5 366.21,-52.5 374.39,-52.5"/>
<polygon fill="#63b8ff" stroke="#63b8ff" points="374.57,-56 384.57,-52.5 374.57,-49 374.57,-56"/>
</a>
</g>
</g>
</g>
</svg>
</svg>

<style type='text/css'>
<![CDATA[
[data-mouse-over-selected='false'] { opacity: 0.7; }
[data-mouse-over-selected='true']  { opacity: 1.0; }
]]>
</style>
<script type="application/ecmascript"><![CDATA[
document.addEventListener('DOMContentLoaded', (event) => {
  highlightEdges();
  highlightAdjacentNodes();
});
]]></script>
</svg>
