<?xml version="1.0" encoding="UTF-8" standalone="no"?>
<!DOCTYPE svg PUBLIC "-//W3C//DTD SVG 1.1//EN"
 "http://www.w3.org/Graphics/SVG/1.1/DTD/svg11.dtd">
<!-- Generated by graphviz version 2.43.0 (0)
 -->
<!-- Title: encodeECU_TelemetrySlow0PacketStructure Pages: 1 -->
<svg width="478pt" height="161pt"
 viewBox="0.00 0.00 478.00 161.00" xmlns="http://www.w3.org/2000/svg" xmlns:xlink="http://www.w3.org/1999/xlink">

<svg id="main" version="1.1" xmlns="http://www.w3.org/2000/svg" xmlns:xlink="http://www.w3.org/1999/xlink" xml:space="preserve" onload="init(evt)">
<style type="text/css"><![CDATA[
.node, .edge {opacity: 0.7;}
.node.selected, .edge.selected {opacity: 1;}
.edge:hover path { stroke: red; }
.edge:hover polygon { stroke: red; fill: red; }
]]></style>
<script type="application/ecmascript" xlink:href="svg.min.js"/>
<svg id="graph" class="graph">
<g id="graph0" class="graph" transform="scale(1 1) rotate(0) translate(4 157)">
<title>encodeECU_TelemetrySlow0PacketStructure</title>
<!-- Node1 -->
<g id="Node000001" class="node">
<title>Node1</title>
<g id="a_Node000001"><a xlink:title="Create the ECU_TelemetrySlow0 packet.">
<polygon fill="#999999" stroke="#666666" points="155,-91.5 0,-91.5 0,-61.5 155,-61.5 155,-91.5"/>
<text text-anchor="start" x="8" y="-79.5" font-family="Helvetica,sans-Serif" font-size="10.00">encodeECU_TelemetrySlow0</text>
<text text-anchor="middle" x="77.5" y="-68.5" font-family="Helvetica,sans-Serif" font-size="10.00">PacketStructure</text>
</a>
</g>
</g>
<!-- Node2 -->
<g id="Node000002" class="node">
<title>Node2</title>
<g id="a_Node000002"><a xlink:href="ECUProtocol_8h.html#ae28b5d84d186f66f5b7df17a8a186ca6" target="_top" xlink:title="Complete a packet after the data have been encoded.">
<polygon fill="white" stroke="#666666" points="311,-153 216,-153 216,-134 311,-134 311,-153"/>
<text text-anchor="middle" x="263.5" y="-141" font-family="Helvetica,sans-Serif" font-size="10.00">finishECUPacket</text>
</a>
</g>
</g>
<!-- Node1&#45;&gt;Node2 -->
<g id="edge1_Node000001_Node000002" class="edge">
<title>Node1&#45;&gt;Node2</title>
<g id="a_edge1_Node000001_Node000002"><a xlink:title=" ">
<path fill="none" stroke="#63b8ff" d="M110.51,-91.61C132.77,-101.76 163.29,-114.96 191,-124.5 197.93,-126.89 205.32,-129.15 212.63,-131.23"/>
<polygon fill="#63b8ff" stroke="#63b8ff" points="211.91,-134.67 222.48,-133.95 213.77,-127.92 211.91,-134.67"/>
</a>
</g>
</g>
<!-- Node3 -->
<g id="Node000003" class="node">
<title>Node3</title>
<g id="a_Node000003"><a xlink:href="scaledencode_8c.html#a8b233f0bd3049d8da94dbb818b4748f6" target="_top" xlink:title="Encode a float on a byte stream by floating point scaling to fit in 1 unsigned byte.">
<polygon fill="white" stroke="#666666" points="336,-115.5 191,-115.5 191,-85.5 336,-85.5 336,-115.5"/>
<text text-anchor="start" x="199" y="-103.5" font-family="Helvetica,sans-Serif" font-size="10.00">float32ScaledTo1Unsigned</text>
<text text-anchor="middle" x="263.5" y="-92.5" font-family="Helvetica,sans-Serif" font-size="10.00">Bytes</text>
</a>
</g>
</g>
<!-- Node1&#45;&gt;Node3 -->
<g id="edge2_Node000001_Node000003" class="edge">
<title>Node1&#45;&gt;Node3</title>
<g id="a_edge2_Node000001_Node000003"><a xlink:title=" ">
<path fill="none" stroke="#63b8ff" d="M155.2,-86.5C163.71,-87.61 172.39,-88.75 180.95,-89.86"/>
<polygon fill="#63b8ff" stroke="#63b8ff" points="180.56,-93.34 190.93,-91.16 181.47,-86.4 180.56,-93.34"/>
</a>
</g>
</g>
<!-- Node4 -->
<g id="Node000004" class="node">
<title>Node4</title>
<g id="a_Node000004"><a xlink:href="scaledencode_8c.html#a6139bc16730455d9047aa1e9d4f29c02" target="_top" xlink:title="Encode a float on a byte stream by floating point scaling to fit in 2 unsigned bytes in big endian or...">
<polygon fill="white" stroke="#666666" points="336,-67.5 191,-67.5 191,-37.5 336,-37.5 336,-67.5"/>
<text text-anchor="start" x="199" y="-55.5" font-family="Helvetica,sans-Serif" font-size="10.00">float32ScaledTo2Unsigned</text>
<text text-anchor="middle" x="263.5" y="-44.5" font-family="Helvetica,sans-Serif" font-size="10.00">BeBytes</text>
</a>
</g>
</g>
<!-- Node1&#45;&gt;Node4 -->
<g id="edge3_Node000001_Node000004" class="edge">
<title>Node1&#45;&gt;Node4</title>
<g id="a_edge3_Node000001_Node000004"><a xlink:title=" ">
<path fill="none" stroke="#63b8ff" d="M155.2,-66.5C163.71,-65.39 172.39,-64.25 180.95,-63.14"/>
<polygon fill="#63b8ff" stroke="#63b8ff" points="181.47,-66.6 190.93,-61.84 180.56,-59.66 181.47,-66.6"/>
</a>
</g>
</g>
<!-- Node6 -->
<g id="Node000006" class="node">
<title>Node6</title>
<g id="a_Node000006"><a xlink:href="ECUProtocol_8h.html#a2ed350dc1b119d45a9ce5b3769831c15" target="_top" xlink:title=" ">
<polygon fill="white" stroke="#666666" points="317,-19 210,-19 210,0 317,0 317,-19"/>
<text text-anchor="middle" x="263.5" y="-7" font-family="Helvetica,sans-Serif" font-size="10.00">getECUPacketData</text>
</a>
</g>
</g>
<!-- Node1&#45;&gt;Node6 -->
<g id="edge5_Node000001_Node000006" class="edge">
<title>Node1&#45;&gt;Node6</title>
<g id="a_edge5_Node000001_Node000006"><a xlink:title=" ">
<path fill="none" stroke="#63b8ff" d="M110.51,-61.39C132.77,-51.24 163.29,-38.04 191,-28.5 197.93,-26.11 205.32,-23.85 212.63,-21.77"/>
<polygon fill="#63b8ff" stroke="#63b8ff" points="213.77,-25.08 222.48,-19.05 211.91,-18.33 213.77,-25.08"/>
</a>
</g>
</g>
<!-- Node5 -->
<g id="Node000005" class="node">
<title>Node5</title>
<g id="a_Node000005"><a xlink:href="fieldencode_8c.html#a10484029024d49e0e071557ac04c554f" target="_top" xlink:title="Encode a unsigned 2 byte integer on a big endian byte stream.">
<polygon fill="white" stroke="#666666" points="470,-62 372,-62 372,-43 470,-43 470,-62"/>
<text text-anchor="middle" x="421" y="-50" font-family="Helvetica,sans-Serif" font-size="10.00">uint16ToBeBytes</text>
</a>
</g>
</g>
<!-- Node4&#45;&gt;Node5 -->
<g id="edge4_Node000004_Node000005" class="edge">
<title>Node4&#45;&gt;Node5</title>
<g id="a_edge4_Node000004_Node000005"><a xlink:title=" ">
<path fill="none" stroke="#63b8ff" d="M336.33,-52.5C344.73,-52.5 353.21,-52.5 361.39,-52.5"/>
<polygon fill="#63b8ff" stroke="#63b8ff" points="361.57,-56 371.57,-52.5 361.57,-49 361.57,-56"/>
</a>
</g>
</g>
</g>
</svg>
</svg>

<style type='text/css'>
<![CDATA[
[data-mouse-over-selected='false'] { opacity: 0.7; }
[data-mouse-over-selected='true']  { opacity: 1.0; }
]]>
</style>
<script type="application/ecmascript"><![CDATA[
document.addEventListener('DOMContentLoaded', (event) => {
  highlightEdges();
  highlightAdjacentNodes();
});
]]></script>
</svg>
