<?xml version="1.0" encoding="UTF-8" standalone="no"?>
<!DOCTYPE svg PUBLIC "-//W3C//DTD SVG 1.1//EN"
 "http://www.w3.org/Graphics/SVG/1.1/DTD/svg11.dtd">
<!-- Generated by graphviz version 2.43.0 (0)
 -->
<!-- Title: encodeESC_ProtectionActionsPacket Pages: 1 -->
<svg width="350pt" height="64pt"
 viewBox="0.00 0.00 350.00 64.00" xmlns="http://www.w3.org/2000/svg" xmlns:xlink="http://www.w3.org/1999/xlink">
<g id="graph0" class="graph" transform="scale(1 1) rotate(0) translate(4 60)">
<title>encodeESC_ProtectionActionsPacket</title>
<!-- Node1 -->
<g id="Node000001" class="node">
<title>Node1</title>
<g id="a_Node000001"><a xlink:title="Create the ESC_ProtectionActions packet.">
<polygon fill="#999999" stroke="#666666" points="161,-42.5 0,-42.5 0,-12.5 161,-12.5 161,-42.5"/>
<text text-anchor="start" x="8" y="-30.5" font-family="Helvetica,sans-Serif" font-size="10.00">encodeESC_ProtectionActions</text>
<text text-anchor="middle" x="80.5" y="-19.5" font-family="Helvetica,sans-Serif" font-size="10.00">Packet</text>
</a>
</g>
</g>
<!-- Node2 -->
<g id="Node000002" class="node">
<title>Node2</title>
<g id="a_Node000002"><a xlink:href="ESCVelocityProtocol_8h.html#ae26ac4eee8e1853b6b09acf72bba0a8b" target="_top" xlink:title="Complete a packet after the data have been encoded.">
<polygon fill="white" stroke="#666666" points="335.5,-56 203.5,-56 203.5,-37 335.5,-37 335.5,-56"/>
<text text-anchor="middle" x="269.5" y="-44" font-family="Helvetica,sans-Serif" font-size="10.00">finishESCVelocityPacket</text>
</a>
</g>
</g>
<!-- Node1&#45;&gt;Node2 -->
<g id="edge1_Node000001_Node000002" class="edge">
<title>Node1&#45;&gt;Node2</title>
<g id="a_edge1_Node000001_Node000002"><a xlink:title=" ">
<path fill="none" stroke="#63b8ff" d="M161.08,-35.59C171.77,-36.67 182.72,-37.78 193.34,-38.86"/>
<polygon fill="#63b8ff" stroke="#63b8ff" points="193.09,-42.36 203.4,-39.89 193.8,-35.39 193.09,-42.36"/>
</a>
</g>
</g>
<!-- Node3 -->
<g id="Node000003" class="node">
<title>Node3</title>
<g id="a_Node000003"><a xlink:href="ESCVelocityProtocol_8h.html#a1ea9c054da75c49566d8a20b17654532" target="_top" xlink:title=" ">
<polygon fill="white" stroke="#666666" points="342,-19 197,-19 197,0 342,0 342,-19"/>
<text text-anchor="middle" x="269.5" y="-7" font-family="Helvetica,sans-Serif" font-size="10.00">getESCVelocityPacketData</text>
</a>
</g>
</g>
<!-- Node1&#45;&gt;Node3 -->
<g id="edge2_Node000001_Node000003" class="edge">
<title>Node1&#45;&gt;Node3</title>
<g id="a_edge2_Node000001_Node000003"><a xlink:title=" ">
<path fill="none" stroke="#63b8ff" d="M161.08,-19.84C169.65,-19.01 178.38,-18.17 186.98,-17.35"/>
<polygon fill="#63b8ff" stroke="#63b8ff" points="187.37,-20.83 196.99,-16.38 186.7,-13.86 187.37,-20.83"/>
</a>
</g>
</g>
</g>
</svg>
