<?xml version="1.0" encoding="UTF-8" standalone="no"?>
<!DOCTYPE svg PUBLIC "-//W3C//DTD SVG 1.1//EN"
 "http://www.w3.org/Graphics/SVG/1.1/DTD/svg11.dtd">
<!-- Generated by graphviz version 2.43.0 (0)
 -->
<!-- Title: decodeESC_EEPROMSettingsPacketStructure Pages: 1 -->
<svg width="346pt" height="150pt"
 viewBox="0.00 0.00 346.00 149.50" xmlns="http://www.w3.org/2000/svg" xmlns:xlink="http://www.w3.org/1999/xlink">

<svg id="main" version="1.1" xmlns="http://www.w3.org/2000/svg" xmlns:xlink="http://www.w3.org/1999/xlink" xml:space="preserve" onload="init(evt)">
<style type="text/css"><![CDATA[
.node, .edge {opacity: 0.7;}
.node.selected, .edge.selected {opacity: 1;}
.edge:hover path { stroke: red; }
.edge:hover polygon { stroke: red; fill: red; }
]]></style>
<script type="application/ecmascript" xlink:href="svg.min.js"/>
<svg id="graph" class="graph">
<g id="graph0" class="graph" transform="scale(1 1) rotate(0) translate(4 145.5)">
<title>decodeESC_EEPROMSettingsPacketStructure</title>
<!-- Node1 -->
<g id="Node000001" class="node">
<title>Node1</title>
<g id="a_Node000001"><a xlink:title="Decode the ESC_EEPROMSettings packet.">
<polygon fill="#999999" stroke="#666666" points="157,-79.5 0,-79.5 0,-49.5 157,-49.5 157,-79.5"/>
<text text-anchor="start" x="8" y="-67.5" font-family="Helvetica,sans-Serif" font-size="10.00">decodeESC_EEPROMSettings</text>
<text text-anchor="middle" x="78.5" y="-56.5" font-family="Helvetica,sans-Serif" font-size="10.00">PacketStructure</text>
</a>
</g>
</g>
<!-- Node2 -->
<g id="Node000002" class="node">
<title>Node2</title>
<g id="a_Node000002"><a xlink:href="ESCVelocityProtocol_8h.html#abcd24a81728ddb7200fbbd9cdf7e82e2" target="_top" xlink:title=" ">
<polygon fill="white" stroke="#666666" points="338,-141.5 193,-141.5 193,-111.5 338,-111.5 338,-141.5"/>
<text text-anchor="start" x="201" y="-129.5" font-family="Helvetica,sans-Serif" font-size="10.00">getESCVelocityPacketData</text>
<text text-anchor="middle" x="265.5" y="-118.5" font-family="Helvetica,sans-Serif" font-size="10.00">Const</text>
</a>
</g>
</g>
<!-- Node1&#45;&gt;Node2 -->
<g id="edge1_Node000001_Node000002" class="edge">
<title>Node1&#45;&gt;Node2</title>
<g id="a_edge1_Node000001_Node000002"><a xlink:title=" ">
<path fill="none" stroke="#63b8ff" d="M124.28,-79.51C150,-88.13 182.49,-99.01 209.72,-108.14"/>
<polygon fill="#63b8ff" stroke="#63b8ff" points="208.89,-111.56 219.49,-111.41 211.12,-104.92 208.89,-111.56"/>
</a>
</g>
</g>
<!-- Node3 -->
<g id="Node000003" class="node">
<title>Node3</title>
<g id="a_Node000003"><a xlink:href="ESCVelocityProtocol_8h.html#a13376da039710c878eae99fe2694bb4a" target="_top" xlink:title=" ">
<polygon fill="white" stroke="#666666" points="331.5,-93 199.5,-93 199.5,-74 331.5,-74 331.5,-93"/>
<text text-anchor="middle" x="265.5" y="-81" font-family="Helvetica,sans-Serif" font-size="10.00">getESCVelocityPacketID</text>
</a>
</g>
</g>
<!-- Node1&#45;&gt;Node3 -->
<g id="edge2_Node000001_Node000003" class="edge">
<title>Node1&#45;&gt;Node3</title>
<g id="a_edge2_Node000001_Node000003"><a xlink:title=" ">
<path fill="none" stroke="#63b8ff" d="M157.15,-72.48C167.79,-73.57 178.7,-74.69 189.3,-75.78"/>
<polygon fill="#63b8ff" stroke="#63b8ff" points="189.04,-79.27 199.34,-76.81 189.75,-72.3 189.04,-79.27"/>
</a>
</g>
</g>
<!-- Node4 -->
<g id="Node000004" class="node">
<title>Node4</title>
<g id="a_Node000004"><a xlink:href="ESCVelocityProtocol_8h.html#a6371d6566fc943c6654ca132a924f0c3" target="_top" xlink:title=" ">
<polygon fill="white" stroke="#666666" points="336.5,-56 194.5,-56 194.5,-37 336.5,-37 336.5,-56"/>
<text text-anchor="middle" x="265.5" y="-44" font-family="Helvetica,sans-Serif" font-size="10.00">getESCVelocityPacketSize</text>
</a>
</g>
</g>
<!-- Node1&#45;&gt;Node4 -->
<g id="edge3_Node000001_Node000004" class="edge">
<title>Node1&#45;&gt;Node4</title>
<g id="a_edge3_Node000001_Node000004"><a xlink:title=" ">
<path fill="none" stroke="#63b8ff" d="M157.15,-56.94C166.13,-56.07 175.31,-55.18 184.32,-54.3"/>
<polygon fill="#63b8ff" stroke="#63b8ff" points="184.79,-57.77 194.41,-53.32 184.12,-50.8 184.79,-57.77"/>
</a>
</g>
</g>
<!-- Node5 -->
<g id="Node000005" class="node">
<title>Node5</title>
<g id="a_Node000005"><a xlink:href="fielddecode_8c.html#a8b5c15737178cc13f5b9446fa5dcb67f" target="_top" xlink:title="Decode a unsigned 2 byte integer from a big endian byte stream.">
<polygon fill="white" stroke="#666666" points="322,-19 209,-19 209,0 322,0 322,-19"/>
<text text-anchor="middle" x="265.5" y="-7" font-family="Helvetica,sans-Serif" font-size="10.00">uint16FromBeBytes</text>
</a>
</g>
</g>
<!-- Node1&#45;&gt;Node5 -->
<g id="edge4_Node000001_Node000005" class="edge">
<title>Node1&#45;&gt;Node5</title>
<g id="a_edge4_Node000001_Node000005"><a xlink:title=" ">
<path fill="none" stroke="#63b8ff" d="M125.19,-49.47C145.83,-42.81 170.57,-35.03 193,-28.5 200.89,-26.2 209.3,-23.87 217.48,-21.65"/>
<polygon fill="#63b8ff" stroke="#63b8ff" points="218.54,-24.99 227.3,-19.03 216.73,-18.23 218.54,-24.99"/>
</a>
</g>
</g>
</g>
</svg>
</svg>

<style type='text/css'>
<![CDATA[
[data-mouse-over-selected='false'] { opacity: 0.7; }
[data-mouse-over-selected='true']  { opacity: 1.0; }
]]>
</style>
<script type="application/ecmascript"><![CDATA[
document.addEventListener('DOMContentLoaded', (event) => {
  highlightEdges();
  highlightAdjacentNodes();
});
]]></script>
</svg>
