<?xml version="1.0" encoding="UTF-8" standalone="no"?>
<!DOCTYPE svg PUBLIC "-//W3C//DTD SVG 1.1//EN"
 "http://www.w3.org/Graphics/SVG/1.1/DTD/svg11.dtd">
<!-- Generated by graphviz version 2.43.0 (0)
 -->
<!-- Title: check_result Pages: 1 -->
<svg width="460pt" height="119pt"
 viewBox="0.00 0.00 460.00 119.48" xmlns="http://www.w3.org/2000/svg" xmlns:xlink="http://www.w3.org/1999/xlink">

<svg id="main" version="1.1" xmlns="http://www.w3.org/2000/svg" xmlns:xlink="http://www.w3.org/1999/xlink" xml:space="preserve" onload="init(evt)">
<style type="text/css"><![CDATA[
.node, .edge {opacity: 0.7;}
.node.selected, .edge.selected {opacity: 1;}
.edge:hover path { stroke: red; }
.edge:hover polygon { stroke: red; fill: red; }
]]></style>
<script type="application/ecmascript" xlink:href="svg.min.js"/>
<svg id="graph" class="graph">
<g id="graph0" class="graph" transform="scale(1 1) rotate(0) translate(4 115.48)">
<title>check_result</title>
<!-- Node1 -->
<g id="Node000001" class="node">
<title>Node1</title>
<g id="a_Node000001"><a xlink:title=" ">
<polygon fill="#999999" stroke="#666666" points="452,-56 374,-56 374,-37 452,-37 452,-56"/>
<text text-anchor="middle" x="413" y="-44" font-family="Helvetica,sans-Serif" font-size="10.00">check_result</text>
</a>
</g>
</g>
<!-- Node2 -->
<g id="Node000002" class="node">
<title>Node2</title>
<g id="a_Node000002"><a xlink:href="eulers_8cpp.html#ada3aa00f3fc83688f3bb0c2c847b7e50" target="_top" xlink:title=" ">
<polygon fill="white" stroke="#666666" points="338,-93 244,-93 244,-74 338,-74 338,-93"/>
<text text-anchor="middle" x="291" y="-81" font-family="Helvetica,sans-Serif" font-size="10.00">test_conversion</text>
</a>
</g>
</g>
<!-- Node1&#45;&gt;Node2 -->
<g id="edge1_Node000001_Node000002" class="edge">
<title>Node1&#45;&gt;Node2</title>
<g id="a_edge1_Node000001_Node000002"><a xlink:title=" ">
<path fill="none" stroke="#63b8ff" d="M371.13,-59.1C355.46,-63.93 337.84,-69.37 323.22,-73.88"/>
<polygon fill="#63b8ff" stroke="#63b8ff" points="372.57,-62.32 381.1,-56.03 370.51,-55.63 372.57,-62.32"/>
</a>
</g>
</g>
<!-- Node5 -->
<g id="Node000005" class="node">
<title>Node5</title>
<g id="a_Node000005"><a xlink:href="eulers_8cpp.html#ab0e4b7cf8126ff5efa48d6f91eaad6ea" target="_top" xlink:title=" ">
<polygon fill="white" stroke="#666666" points="323.5,-56 258.5,-56 258.5,-37 323.5,-37 323.5,-56"/>
<text text-anchor="middle" x="291" y="-44" font-family="Helvetica,sans-Serif" font-size="10.00">test_euler</text>
</a>
</g>
</g>
<!-- Node1&#45;&gt;Node5 -->
<g id="edge5_Node000001_Node000005" class="edge">
<title>Node1&#45;&gt;Node5</title>
<g id="a_edge5_Node000001_Node000005"><a xlink:title=" ">
<path fill="none" stroke="#63b8ff" d="M363.58,-46.5C350.08,-46.5 335.77,-46.5 323.52,-46.5"/>
<polygon fill="#63b8ff" stroke="#63b8ff" points="363.7,-50 373.7,-46.5 363.7,-43 363.7,-50"/>
</a>
</g>
</g>
<!-- Node7 -->
<g id="Node000007" class="node">
<title>Node7</title>
<g id="a_Node000007"><a xlink:href="eulers_8cpp.html#a288b88e3267221134f72a170d9895cef" target="_top" xlink:title=" ">
<polygon fill="white" stroke="#666666" points="337.5,-19 244.5,-19 244.5,0 337.5,0 337.5,-19"/>
<text text-anchor="middle" x="291" y="-7" font-family="Helvetica,sans-Serif" font-size="10.00">test_quaternion</text>
</a>
</g>
</g>
<!-- Node1&#45;&gt;Node7 -->
<g id="edge8_Node000001_Node000007" class="edge">
<title>Node1&#45;&gt;Node7</title>
<g id="a_edge8_Node000001_Node000007"><a xlink:title=" ">
<path fill="none" stroke="#63b8ff" d="M371.13,-33.9C355.46,-29.07 337.84,-23.63 323.22,-19.12"/>
<polygon fill="#63b8ff" stroke="#63b8ff" points="370.51,-37.37 381.1,-36.97 372.57,-30.68 370.51,-37.37"/>
</a>
</g>
</g>
<!-- Node3 -->
<g id="Node000003" class="node">
<title>Node3</title>
<g id="a_Node000003"><a xlink:href="eulers_8cpp.html#a4fc01d736fe50cf5b977f755b675f11d" target="_top" xlink:title=" ">
<polygon fill="white" stroke="#666666" points="44,-74 0,-74 0,-55 44,-55 44,-74"/>
<text text-anchor="middle" x="22" y="-62" font-family="Helvetica,sans-Serif" font-size="10.00">setup</text>
</a>
</g>
</g>
<!-- Node2&#45;&gt;Node3 -->
<g id="edge2_Node000002_Node000003" class="edge">
<title>Node2&#45;&gt;Node3</title>
<g id="a_edge2_Node000002_Node000003"><a xlink:title=" ">
<path fill="none" stroke="#63b8ff" d="M250.65,-95.77C207.76,-107.16 137.57,-119.93 80,-102.5 61.79,-96.99 44.07,-83.52 33.35,-74.2"/>
<polygon fill="#63b8ff" stroke="#63b8ff" points="251.71,-99.11 260.41,-93.08 249.84,-92.36 251.71,-99.11"/>
</a>
</g>
</g>
<!-- Node4 -->
<g id="Node000004" class="node">
<title>Node4</title>
<g id="a_Node000004"><a xlink:href="eulers_8cpp.html#ac5851b63c32809e725e1fadbec137224" target="_top" xlink:title=" ">
<polygon fill="white" stroke="#666666" points="193.5,-93 94.5,-93 94.5,-74 193.5,-74 193.5,-93"/>
<text text-anchor="middle" x="144" y="-81" font-family="Helvetica,sans-Serif" font-size="10.00">test_conversions</text>
</a>
</g>
</g>
<!-- Node2&#45;&gt;Node4 -->
<g id="edge3_Node000002_Node000004" class="edge">
<title>Node2&#45;&gt;Node4</title>
<g id="a_edge3_Node000002_Node000004"><a xlink:title=" ">
<path fill="none" stroke="#63b8ff" d="M233.37,-83.5C220.23,-83.5 206.35,-83.5 193.59,-83.5"/>
<polygon fill="#63b8ff" stroke="#63b8ff" points="233.72,-87 243.72,-83.5 233.72,-80 233.72,-87"/>
</a>
</g>
</g>
<!-- Node4&#45;&gt;Node3 -->
<g id="edge4_Node000004_Node000003" class="edge">
<title>Node4&#45;&gt;Node3</title>
<g id="a_edge4_Node000004_Node000003"><a xlink:title=" ">
<path fill="none" stroke="#63b8ff" d="M84.31,-74.21C69.96,-71.94 55.51,-69.65 44.25,-67.86"/>
<polygon fill="#63b8ff" stroke="#63b8ff" points="83.77,-77.66 94.19,-75.77 84.86,-70.75 83.77,-77.66"/>
</a>
</g>
</g>
<!-- Node6 -->
<g id="Node000006" class="node">
<title>Node6</title>
<g id="a_Node000006"><a xlink:href="eulers_8cpp.html#aceb2646dd2a8910fd27813e20e13c6a4" target="_top" xlink:title=" ">
<polygon fill="white" stroke="#666666" points="198,-56 90,-56 90,-37 198,-37 198,-56"/>
<text text-anchor="middle" x="144" y="-44" font-family="Helvetica,sans-Serif" font-size="10.00">test_matrix_eulers</text>
</a>
</g>
</g>
<!-- Node5&#45;&gt;Node6 -->
<g id="edge6_Node000005_Node000006" class="edge">
<title>Node5&#45;&gt;Node6</title>
<g id="a_edge6_Node000005_Node000006"><a xlink:title=" ">
<path fill="none" stroke="#63b8ff" d="M247.83,-46.5C232.3,-46.5 214.5,-46.5 198.12,-46.5"/>
<polygon fill="#63b8ff" stroke="#63b8ff" points="248.18,-50 258.18,-46.5 248.18,-43 248.18,-50"/>
</a>
</g>
</g>
<!-- Node6&#45;&gt;Node3 -->
<g id="edge7_Node000006_Node000003" class="edge">
<title>Node6&#45;&gt;Node3</title>
<g id="a_edge7_Node000006_Node000003"><a xlink:title=" ">
<path fill="none" stroke="#63b8ff" d="M79.41,-56.04C66.61,-57.96 54.04,-59.84 44.02,-61.35"/>
<polygon fill="#63b8ff" stroke="#63b8ff" points="80.3,-59.44 89.67,-54.5 79.26,-52.52 80.3,-59.44"/>
</a>
</g>
</g>
<!-- Node8 -->
<g id="Node000008" class="node">
<title>Node8</title>
<g id="a_Node000008"><a xlink:href="eulers_8cpp.html#a1e4ca41feae51e8f6dc923cde8d1ad39" target="_top" xlink:title=" ">
<polygon fill="white" stroke="#666666" points="208,-19 80,-19 80,0 208,0 208,-19"/>
<text text-anchor="middle" x="144" y="-7" font-family="Helvetica,sans-Serif" font-size="10.00">test_quaternion_eulers</text>
</a>
</g>
</g>
<!-- Node7&#45;&gt;Node8 -->
<g id="edge9_Node000007_Node000008" class="edge">
<title>Node7&#45;&gt;Node8</title>
<g id="a_edge9_Node000007_Node000008"><a xlink:title=" ">
<path fill="none" stroke="#63b8ff" d="M233.97,-9.5C225.49,-9.5 216.69,-9.5 208.07,-9.5"/>
<polygon fill="#63b8ff" stroke="#63b8ff" points="234.12,-13 244.12,-9.5 234.12,-6 234.12,-13"/>
</a>
</g>
</g>
<!-- Node8&#45;&gt;Node3 -->
<g id="edge10_Node000008_Node000003" class="edge">
<title>Node8&#45;&gt;Node3</title>
<g id="a_edge10_Node000008_Node000003"><a xlink:title=" ">
<path fill="none" stroke="#63b8ff" d="M92.94,-22.31C88.5,-23.89 84.13,-25.62 80,-27.5 63.68,-34.93 46.64,-46.58 35.5,-54.82"/>
<polygon fill="#63b8ff" stroke="#63b8ff" points="94.31,-25.54 102.7,-19.08 92.11,-18.9 94.31,-25.54"/>
</a>
</g>
</g>
</g>
</svg>
</svg>

<style type='text/css'>
<![CDATA[
[data-mouse-over-selected='false'] { opacity: 0.7; }
[data-mouse-over-selected='true']  { opacity: 1.0; }
]]>
</style>
<script type="application/ecmascript"><![CDATA[
document.addEventListener('DOMContentLoaded', (event) => {
  highlightEdges();
  highlightAdjacentNodes();
});
]]></script>
</svg>
