<?xml version="1.0" encoding="UTF-8" standalone="no"?>
<!DOCTYPE svg PUBLIC "-//W3C//DTD SVG 1.1//EN"
 "http://www.w3.org/Graphics/SVG/1.1/DTD/svg11.dtd">
<!-- Generated by graphviz version 2.43.0 (0)
 -->
<!-- Title: _i2c_scl_low Pages: 1 -->
<!--zoomable 289 -->

<svg id="main" version="1.1" xmlns="http://www.w3.org/2000/svg" xmlns:xlink="http://www.w3.org/1999/xlink" xml:space="preserve" onload="init(evt)">
<style type="text/css"><![CDATA[
.node, .edge {opacity: 0.7;}
.node.selected, .edge.selected {opacity: 1;}
.edge:hover path { stroke: red; }
.edge:hover polygon { stroke: red; fill: red; }
]]></style>

<defs>
  <circle id="rim" cx="0" cy="0" r="7"/>
  <circle id="rim2" cx="0" cy="0" r="3.5"/>
  <g id="zoomPlus">
    <use xlink:href="#rim" fill="#404040"><set attributeName="fill" to="#808080" begin="zoomplus.mouseover" end="zoomplus.mouseout"/></use>
    <path d="M-4,0h8M0,-4v8" fill="none" stroke="white" stroke-width="1.5" pointer-events="none"/>
  </g>
  <g id="zoomMin">
    <use xlink:href="#rim" fill="#404040"><set attributeName="fill" to="#808080" begin="zoomminus.mouseover" end="zoomminus.mouseout"/></use>
    <path d="M-4,0h8" fill="none" stroke="white" stroke-width="1.5" pointer-events="none"/>
  </g>
  <g id="arrowUp" transform="translate(30 24)">
    <use xlink:href="#rim"/>
    <path pointer-events="none" fill="none" stroke="white" stroke-width="1.5" d="M0,-3.0v7 M-2.5,-0.5L0,-3.0L2.5,-0.5"/>
  </g>
  <g id="arrowRight" transform="rotate(90) translate(36 -43)">
    <use xlink:href="#rim"/>
    <path pointer-events="none" fill="none" stroke="white" stroke-width="1.5" d="M0,-3.0v7 M-2.5,-0.5L0,-3.0L2.5,-0.5"/>
  </g>
  <g id="arrowDown" transform="rotate(180) translate(-30 -48)">
    <use xlink:href="#rim"/>
    <path pointer-events="none" fill="none" stroke="white" stroke-width="1.5" d="M0,-3.0v7 M-2.5,-0.5L0,-3.0L2.5,-0.5"/>
  </g>
  <g id="arrowLeft" transform="rotate(270) translate(-36 17)">
    <use xlink:href="#rim"/>
    <path pointer-events="none" fill="none" stroke="white" stroke-width="1.5" d="M0,-3.0v7 M-2.5,-0.5L0,-3.0L2.5,-0.5"/>
  </g>
  <g id="resetDef">
    <use xlink:href="#rim2" fill="#404040"><set attributeName="fill" to="#808080" begin="reset.mouseover" end="reset.mouseout"/></use>
  </g>
</defs>
<script type="application/ecmascript">
var viewWidth = 1077;
var viewHeight = 289;
var sectionId = 'dynsection-13';
</script>
<script type="application/ecmascript" xlink:href="svg.min.js"/>
<svg id="graph" class="graph">
<g id="viewport">
<title>_i2c_scl_low</title>
<!-- Node1 -->
<g id="Node000001" class="node">
<title>Node1</title>
<g id="a_Node000001"><a xlink:title=" ">
<polygon fill="#999999" stroke="#666666" points="1069,-75 992,-75 992,-56 1069,-56 1069,-75"/>
<text text-anchor="middle" x="1030.5" y="-63" font-family="Helvetica,sans-Serif" font-size="10.00">_i2c_scl_low</text>
</a>
</g>
</g>
<!-- Node2 -->
<g id="Node000002" class="node">
<title>Node2</title>
<g id="a_Node000002"><a xlink:href="i2c__sw_8c.html#ab227f6b1a85d5d4a22c5d13cf9620fba" target="_top" xlink:title=" ">
<polygon fill="white" stroke="#666666" points="956,-113 891,-113 891,-94 956,-94 956,-113"/>
<text text-anchor="middle" x="923.5" y="-101" font-family="Helvetica,sans-Serif" font-size="10.00">_i2c_clear</text>
</a>
</g>
</g>
<!-- Node1&#45;&gt;Node2 -->
<g id="edge1_Node000001_Node000002" class="edge">
<title>Node1&#45;&gt;Node2</title>
<g id="a_edge1_Node000001_Node000002"><a xlink:title=" ">
<path fill="none" stroke="#63b8ff" d="M993.25,-78.62C979.37,-83.64 963.79,-89.28 950.99,-93.91"/>
<polygon fill="#63b8ff" stroke="#63b8ff" points="994.79,-81.78 1003,-75.09 992.41,-75.2 994.79,-81.78"/>
</a>
</g>
</g>
<!-- Node14 -->
<g id="Node000014" class="node">
<title>Node14</title>
<g id="a_Node000014"><a xlink:href="i2c__sw_8c.html#ab071acae707061582b9eb3c1a79ef84f" target="_top" xlink:title=" ">
<polygon fill="white" stroke="#666666" points="521.5,-169 429.5,-169 429.5,-150 521.5,-150 521.5,-169"/>
<text text-anchor="middle" x="475.5" y="-157" font-family="Helvetica,sans-Serif" font-size="10.00">_i2c_start_cond</text>
</a>
</g>
</g>
<!-- Node1&#45;&gt;Node14 -->
<g id="edge33_Node000001_Node000014" class="edge">
<title>Node1&#45;&gt;Node14</title>
<g id="a_edge33_Node000001_Node000014"><a xlink:title=" ">
<path fill="none" stroke="#63b8ff" d="M1014.38,-82.69C986.08,-113.87 921.9,-179.97 855,-217.5 793.21,-252.16 773.02,-254.71 703,-265.5 639.31,-275.32 615.81,-293.98 558,-265.5 516.14,-244.88 489.77,-191.3 480.37,-169.22"/>
<polygon fill="#63b8ff" stroke="#63b8ff" points="1017.01,-85 1021.08,-75.22 1011.8,-80.32 1017.01,-85"/>
</a>
</g>
</g>
<!-- Node16 -->
<g id="Node000016" class="node">
<title>Node16</title>
<g id="a_Node000016"><a xlink:href="i2c__sw_8c.html#a64766e039e2b959a86b0daf404723215" target="_top" xlink:title=" ">
<polygon fill="white" stroke="#666666" points="672.5,-56 588.5,-56 588.5,-37 672.5,-37 672.5,-56"/>
<text text-anchor="middle" x="630.5" y="-44" font-family="Helvetica,sans-Serif" font-size="10.00">_i2c_write_bit</text>
</a>
</g>
</g>
<!-- Node1&#45;&gt;Node16 -->
<g id="edge34_Node000001_Node000016" class="edge">
<title>Node1&#45;&gt;Node16</title>
<g id="a_edge34_Node000001_Node000016"><a xlink:title=" ">
<path fill="none" stroke="#63b8ff" d="M981.55,-63.21C902.64,-59.44 746.78,-52 672.6,-48.46"/>
<polygon fill="#63b8ff" stroke="#63b8ff" points="981.54,-66.71 991.7,-63.7 981.88,-59.72 981.54,-66.71"/>
</a>
</g>
</g>
<!-- Node22 -->
<g id="Node000022" class="node">
<title>Node22</title>
<g id="a_Node000022"><a xlink:href="i2c__sw_8c.html#ab98fce2c01c154197ac4fee0fdc2cc05" target="_top" xlink:title=" ">
<polygon fill="white" stroke="#666666" points="671,-19 590,-19 590,0 671,0 671,-19"/>
<text text-anchor="middle" x="630.5" y="-7" font-family="Helvetica,sans-Serif" font-size="10.00">_i2c_read_bit</text>
</a>
</g>
</g>
<!-- Node1&#45;&gt;Node22 -->
<g id="edge30_Node000001_Node000022" class="edge">
<title>Node1&#45;&gt;Node22</title>
<g id="a_edge30_Node000001_Node000022"><a xlink:title=" ">
<path fill="none" stroke="#63b8ff" d="M981.48,-58.74C902.01,-47.56 744.64,-25.42 671.1,-15.07"/>
<polygon fill="#63b8ff" stroke="#63b8ff" points="981.31,-62.25 991.7,-60.18 982.28,-55.32 981.31,-62.25"/>
</a>
</g>
</g>
<!-- Node3 -->
<g id="Node000003" class="node">
<title>Node3</title>
<g id="a_Node000003"><a xlink:href="i2c__sw_8c.html#a9e458f7e66bae83a4b7293833ea200f8" target="_top" xlink:title=" ">
<polygon fill="white" stroke="#666666" points="509,-94 442,-94 442,-75 509,-75 509,-94"/>
<text text-anchor="middle" x="475.5" y="-82" font-family="Helvetica,sans-Serif" font-size="10.00">_i2c_abort</text>
</a>
</g>
</g>
<!-- Node2&#45;&gt;Node3 -->
<g id="edge2_Node000002_Node000003" class="edge">
<title>Node2&#45;&gt;Node3</title>
<g id="a_edge2_Node000002_Node000003"><a xlink:title=" ">
<path fill="none" stroke="#63b8ff" d="M880.61,-101.72C792.34,-97.96 588.85,-89.29 509.26,-85.9"/>
<polygon fill="#63b8ff" stroke="#63b8ff" points="880.64,-105.22 890.78,-102.15 880.94,-98.23 880.64,-105.22"/>
</a>
</g>
</g>
<!-- Node13 -->
<g id="Node000013" class="node">
<title>Node13</title>
<g id="a_Node000013"><a xlink:href="i2c__sw_8c.html#a119145afd8baedcadde4a4c9f5a112b8" target="_top" xlink:title=" ">
<polygon fill="white" stroke="#666666" points="855,-132 739,-132 739,-113 855,-113 855,-132"/>
<text text-anchor="middle" x="797" y="-120" font-family="Helvetica,sans-Serif" font-size="10.00">_i2c_arbitration_lost</text>
</a>
</g>
</g>
<!-- Node2&#45;&gt;Node13 -->
<g id="edge14_Node000002_Node000013" class="edge">
<title>Node2&#45;&gt;Node13</title>
<g id="a_edge14_Node000002_Node000013"><a xlink:title=" ">
<path fill="none" stroke="#63b8ff" d="M880.76,-109.87C872.59,-111.12 863.9,-112.44 855.33,-113.75"/>
<polygon fill="#63b8ff" stroke="#63b8ff" points="881.4,-113.31 890.76,-108.34 880.35,-106.39 881.4,-113.31"/>
</a>
</g>
</g>
<!-- Node19 -->
<g id="Node000019" class="node">
<title>Node19</title>
<g id="a_Node000019"><a xlink:href="group__drivers__periph__i2c.html#ga88cfeb1f124bff5994dcec3f3d793910" target="_top" xlink:title="Initialize the given I2C bus.">
<polygon fill="white" stroke="#666666" points="823,-208 771,-208 771,-189 823,-189 823,-208"/>
<text text-anchor="middle" x="797" y="-196" font-family="Helvetica,sans-Serif" font-size="10.00">i2c_init</text>
</a>
</g>
</g>
<!-- Node2&#45;&gt;Node19 -->
<g id="edge27_Node000002_Node000019" class="edge">
<title>Node2&#45;&gt;Node19</title>
<g id="a_edge27_Node000002_Node000019"><a xlink:title=" ">
<path fill="none" stroke="#63b8ff" d="M901.55,-119.49C875.53,-139.34 831.97,-172.58 810.6,-188.89"/>
<polygon fill="#63b8ff" stroke="#63b8ff" points="903.82,-122.16 909.65,-113.31 899.57,-116.59 903.82,-122.16"/>
</a>
</g>
</g>
<!-- Node4 -->
<g id="Node000004" class="node">
<title>Node4</title>
<g id="a_Node000004"><a xlink:href="group__drivers__periph__i2c.html#gaee3ebf6dc831a91afb67f415e2684432" target="_top" xlink:title="Convenience function for reading bytes from a device.">
<polygon fill="white" stroke="#666666" points="391.5,-94 301.5,-94 301.5,-75 391.5,-75 391.5,-94"/>
<text text-anchor="middle" x="346.5" y="-82" font-family="Helvetica,sans-Serif" font-size="10.00">i2c_read_bytes</text>
</a>
</g>
</g>
<!-- Node3&#45;&gt;Node4 -->
<g id="edge3_Node000003_Node000004" class="edge">
<title>Node3&#45;&gt;Node4</title>
<g id="a_edge3_Node000003_Node000004"><a xlink:title=" ">
<path fill="none" stroke="#63b8ff" d="M431.75,-84.5C418.82,-84.5 404.6,-84.5 391.58,-84.5"/>
<polygon fill="#63b8ff" stroke="#63b8ff" points="431.79,-88 441.79,-84.5 431.79,-81 431.79,-88"/>
</a>
</g>
</g>
<!-- Node9 -->
<g id="Node000009" class="node">
<title>Node9</title>
<g id="a_Node000009"><a xlink:href="group__drivers__periph__i2c.html#ga5051aa259c80b7ccda04288f44efe71f" target="_top" xlink:title="Convenience function for writing several bytes onto the bus.">
<polygon fill="white" stroke="#666666" points="393,-131 300,-131 300,-112 393,-112 393,-131"/>
<text text-anchor="middle" x="346.5" y="-119" font-family="Helvetica,sans-Serif" font-size="10.00">i2c_write_bytes</text>
</a>
</g>
</g>
<!-- Node3&#45;&gt;Node9 -->
<g id="edge8_Node000003_Node000009" class="edge">
<title>Node3&#45;&gt;Node9</title>
<g id="a_edge8_Node000003_Node000009"><a xlink:title=" ">
<path fill="none" stroke="#63b8ff" d="M432.19,-96.83C415.37,-101.73 396.31,-107.28 380.54,-111.88"/>
<polygon fill="#63b8ff" stroke="#63b8ff" points="433.17,-100.19 441.79,-94.03 431.21,-93.47 433.17,-100.19"/>
</a>
</g>
</g>
<!-- Node5 -->
<g id="Node000005" class="node">
<title>Node5</title>
<g id="a_Node000005"><a xlink:href="group__drivers__periph__i2c.html#ga81892c4377781abc093395752ed3209b" target="_top" xlink:title="Convenience function for reading one byte from a device.">
<polygon fill="white" stroke="#666666" points="233.5,-57 148.5,-57 148.5,-38 233.5,-38 233.5,-57"/>
<text text-anchor="middle" x="191" y="-45" font-family="Helvetica,sans-Serif" font-size="10.00">i2c_read_byte</text>
</a>
</g>
</g>
<!-- Node4&#45;&gt;Node5 -->
<g id="edge4_Node000004_Node000005" class="edge">
<title>Node4&#45;&gt;Node5</title>
<g id="a_edge4_Node000004_Node000005"><a xlink:title=" ">
<path fill="none" stroke="#63b8ff" d="M296.03,-72.57C275.2,-67.56 251.3,-61.79 231.66,-57.06"/>
<polygon fill="#63b8ff" stroke="#63b8ff" points="295.43,-76.03 305.97,-74.97 297.07,-69.23 295.43,-76.03"/>
</a>
</g>
</g>
<!-- Node6 -->
<g id="Node000006" class="node">
<title>Node6</title>
<g id="a_Node000006"><a xlink:href="group__drivers__periph__i2c.html#gaa5631bfa7696e4edcb0e25b90cb2ac21" target="_top" xlink:title="Convenience function for reading several bytes from a given register address.">
<polygon fill="white" stroke="#666666" points="233,-94 149,-94 149,-75 233,-75 233,-94"/>
<text text-anchor="middle" x="191" y="-82" font-family="Helvetica,sans-Serif" font-size="10.00">i2c_read_regs</text>
</a>
</g>
</g>
<!-- Node4&#45;&gt;Node6 -->
<g id="edge5_Node000004_Node000006" class="edge">
<title>Node4&#45;&gt;Node6</title>
<g id="a_edge5_Node000004_Node000006"><a xlink:title=" ">
<path fill="none" stroke="#63b8ff" d="M291.05,-84.5C272,-84.5 250.93,-84.5 233.14,-84.5"/>
<polygon fill="#63b8ff" stroke="#63b8ff" points="291.1,-88 301.1,-84.5 291.1,-81 291.1,-88"/>
</a>
</g>
</g>
<!-- Node8 -->
<g id="Node000008" class="node">
<title>Node8</title>
<g id="a_Node000008"><a xlink:href="classESP32_1_1I2CDevice.html#acda87a68781e50471e6e8c20a7ec0541" target="_top" xlink:title=" ">
<polygon fill="white" stroke="#666666" points="264,-131 118,-131 118,-112 264,-112 264,-131"/>
<text text-anchor="middle" x="191" y="-119" font-family="Helvetica,sans-Serif" font-size="10.00">ESP32::I2CDevice::transfer</text>
</a>
</g>
</g>
<!-- Node4&#45;&gt;Node8 -->
<g id="edge7_Node000004_Node000008" class="edge">
<title>Node4&#45;&gt;Node8</title>
<g id="a_edge7_Node000004_Node000008"><a xlink:title=" ">
<path fill="none" stroke="#63b8ff" d="M296.03,-96.43C275.2,-101.44 251.3,-107.21 231.66,-111.94"/>
<polygon fill="#63b8ff" stroke="#63b8ff" points="297.07,-99.77 305.97,-94.03 295.43,-92.97 297.07,-99.77"/>
</a>
</g>
</g>
<!-- Node7 -->
<g id="Node000007" class="node">
<title>Node7</title>
<g id="a_Node000007"><a xlink:href="group__drivers__periph__i2c.html#ga223edc17aeddf3e261caaca9d06e5664" target="_top" xlink:title="Convenience function for reading one byte from a given register address.">
<polygon fill="white" stroke="#666666" points="80.5,-94 1.5,-94 1.5,-75 80.5,-75 80.5,-94"/>
<text text-anchor="middle" x="41" y="-82" font-family="Helvetica,sans-Serif" font-size="10.00">i2c_read_reg</text>
</a>
</g>
</g>
<!-- Node6&#45;&gt;Node7 -->
<g id="edge6_Node000006_Node000007" class="edge">
<title>Node6&#45;&gt;Node7</title>
<g id="a_edge6_Node000006_Node000007"><a xlink:title=" ">
<path fill="none" stroke="#63b8ff" d="M138.76,-84.5C119.72,-84.5 98.45,-84.5 80.72,-84.5"/>
<polygon fill="#63b8ff" stroke="#63b8ff" points="138.77,-88 148.77,-84.5 138.77,-81 138.77,-88"/>
</a>
</g>
</g>
<!-- Node9&#45;&gt;Node6 -->
<g id="edge9_Node000009_Node000006" class="edge">
<title>Node9&#45;&gt;Node6</title>
<g id="a_edge9_Node000009_Node000006"><a xlink:title=" ">
<path fill="none" stroke="#63b8ff" d="M296.03,-109.57C275.2,-104.56 251.3,-98.79 231.66,-94.06"/>
<polygon fill="#63b8ff" stroke="#63b8ff" points="295.43,-113.03 305.97,-111.97 297.07,-106.23 295.43,-113.03"/>
</a>
</g>
</g>
<!-- Node9&#45;&gt;Node8 -->
<g id="edge13_Node000009_Node000008" class="edge">
<title>Node9&#45;&gt;Node8</title>
<g id="a_edge13_Node000009_Node000008"><a xlink:title=" ">
<path fill="none" stroke="#63b8ff" d="M289.61,-121.5C281.35,-121.5 272.74,-121.5 264.21,-121.5"/>
<polygon fill="#63b8ff" stroke="#63b8ff" points="289.86,-125 299.86,-121.5 289.86,-118 289.86,-125"/>
</a>
</g>
</g>
<!-- Node10 -->
<g id="Node000010" class="node">
<title>Node10</title>
<g id="a_Node000010"><a xlink:href="group__drivers__periph__i2c.html#ga1bdea58c7f2e4f08832dc6ba8f1a2be1" target="_top" xlink:title="Convenience function for writing a single byte onto the bus.">
<polygon fill="white" stroke="#666666" points="235,-168 147,-168 147,-149 235,-149 235,-168"/>
<text text-anchor="middle" x="191" y="-156" font-family="Helvetica,sans-Serif" font-size="10.00">i2c_write_byte</text>
</a>
</g>
</g>
<!-- Node9&#45;&gt;Node10 -->
<g id="edge10_Node000009_Node000010" class="edge">
<title>Node9&#45;&gt;Node10</title>
<g id="a_edge10_Node000009_Node000010"><a xlink:title=" ">
<path fill="none" stroke="#63b8ff" d="M296.03,-133.43C275.2,-138.44 251.3,-144.21 231.66,-148.94"/>
<polygon fill="#63b8ff" stroke="#63b8ff" points="297.07,-136.77 305.97,-131.03 295.43,-129.97 297.07,-136.77"/>
</a>
</g>
</g>
<!-- Node11 -->
<g id="Node000011" class="node">
<title>Node11</title>
<g id="a_Node000011"><a xlink:href="group__drivers__periph__i2c.html#ga9bd61b70ce4c94bc42c6fe37fdfb5156" target="_top" xlink:title="Convenience function for writing data to a given register address.">
<polygon fill="white" stroke="#666666" points="234.5,-205 147.5,-205 147.5,-186 234.5,-186 234.5,-205"/>
<text text-anchor="middle" x="191" y="-193" font-family="Helvetica,sans-Serif" font-size="10.00">i2c_write_regs</text>
</a>
</g>
</g>
<!-- Node9&#45;&gt;Node11 -->
<g id="edge11_Node000009_Node000011" class="edge">
<title>Node9&#45;&gt;Node11</title>
<g id="a_edge11_Node000009_Node000011"><a xlink:title=" ">
<path fill="none" stroke="#63b8ff" d="M326.12,-137.33C310.27,-149.58 286.82,-166.15 264,-176.5 254.82,-180.67 244.55,-184.06 234.7,-186.76"/>
<polygon fill="#63b8ff" stroke="#63b8ff" points="328.42,-139.98 334.1,-131.04 324.08,-134.49 328.42,-139.98"/>
</a>
</g>
</g>
<!-- Node12 -->
<g id="Node000012" class="node">
<title>Node12</title>
<g id="a_Node000012"><a xlink:href="group__drivers__periph__i2c.html#gae8c4e544f489eb0abe0be1c3b0327cd2" target="_top" xlink:title="Convenience function for writing one byte to a given register address.">
<polygon fill="white" stroke="#666666" points="82,-205 0,-205 0,-186 82,-186 82,-205"/>
<text text-anchor="middle" x="41" y="-193" font-family="Helvetica,sans-Serif" font-size="10.00">i2c_write_reg</text>
</a>
</g>
</g>
<!-- Node11&#45;&gt;Node12 -->
<g id="edge12_Node000011_Node000012" class="edge">
<title>Node11&#45;&gt;Node12</title>
<g id="a_edge12_Node000011_Node000012"><a xlink:title=" ">
<path fill="none" stroke="#63b8ff" d="M137.08,-195.5C119,-195.5 99.08,-195.5 82.17,-195.5"/>
<polygon fill="#63b8ff" stroke="#63b8ff" points="137.19,-199 147.19,-195.5 137.19,-192 137.19,-199"/>
</a>
</g>
</g>
<!-- Node13&#45;&gt;Node14 -->
<g id="edge15_Node000013_Node000014" class="edge">
<title>Node13&#45;&gt;Node14</title>
<g id="a_edge15_Node000013_Node000014"><a xlink:title=" ">
<path fill="none" stroke="#63b8ff" d="M728.51,-133.05C719.93,-134.28 711.27,-135.46 703,-136.5 640.26,-144.4 567.47,-151.41 521.7,-155.56"/>
<polygon fill="#63b8ff" stroke="#63b8ff" points="729.12,-136.5 738.51,-131.6 728.11,-129.57 729.12,-136.5"/>
</a>
</g>
</g>
<!-- Node15 -->
<g id="Node000015" class="node">
<title>Node15</title>
<g id="a_Node000015"><a xlink:href="i2c__sw_8c.html#acbe55377b54e054392d3eb8edb8f526b" target="_top" xlink:title=" ">
<polygon fill="white" stroke="#666666" points="521,-131 430,-131 430,-112 521,-112 521,-131"/>
<text text-anchor="middle" x="475.5" y="-119" font-family="Helvetica,sans-Serif" font-size="10.00">_i2c_stop_cond</text>
</a>
</g>
</g>
<!-- Node13&#45;&gt;Node15 -->
<g id="edge18_Node000013_Node000015" class="edge">
<title>Node13&#45;&gt;Node15</title>
<g id="a_edge18_Node000013_Node000015"><a xlink:title=" ">
<path fill="none" stroke="#63b8ff" d="M728.74,-122.29C666.34,-122.09 575.22,-121.81 521.28,-121.64"/>
<polygon fill="#63b8ff" stroke="#63b8ff" points="728.87,-125.79 738.88,-122.32 728.89,-118.79 728.87,-125.79"/>
</a>
</g>
</g>
<!-- Node13&#45;&gt;Node16 -->
<g id="edge21_Node000013_Node000016" class="edge">
<title>Node13&#45;&gt;Node16</title>
<g id="a_edge21_Node000013_Node000016"><a xlink:title=" ">
<path fill="none" stroke="#63b8ff" d="M766,-108.64C733,-93.4 680.87,-69.31 652.16,-56.05"/>
<polygon fill="#63b8ff" stroke="#63b8ff" points="764.62,-111.86 775.17,-112.87 767.56,-105.5 764.62,-111.86"/>
</a>
</g>
</g>
<!-- Node14&#45;&gt;Node4 -->
<g id="edge16_Node000014_Node000004" class="edge">
<title>Node14&#45;&gt;Node4</title>
<g id="a_edge16_Node000014_Node000004"><a xlink:title=" ">
<path fill="none" stroke="#63b8ff" d="M438.88,-145.47C435.44,-143.64 432.09,-141.64 429,-139.5 410.15,-126.42 412.09,-115.23 393,-102.5 388.19,-99.3 382.73,-96.52 377.3,-94.18"/>
<polygon fill="#63b8ff" stroke="#63b8ff" points="437.55,-148.71 448.07,-149.93 440.61,-142.41 437.55,-148.71"/>
</a>
</g>
</g>
<!-- Node14&#45;&gt;Node9 -->
<g id="edge17_Node000014_Node000009" class="edge">
<title>Node14&#45;&gt;Node9</title>
<g id="a_edge17_Node000014_Node000009"><a xlink:title=" ">
<path fill="none" stroke="#63b8ff" d="M432.61,-146.96C415.33,-141.8 395.63,-135.9 379.54,-131.09"/>
<polygon fill="#63b8ff" stroke="#63b8ff" points="431.87,-150.4 442.45,-149.91 433.88,-143.69 431.87,-150.4"/>
</a>
</g>
</g>
<!-- Node15&#45;&gt;Node4 -->
<g id="edge19_Node000015_Node000004" class="edge">
<title>Node15&#45;&gt;Node4</title>
<g id="a_edge19_Node000015_Node000004"><a xlink:title=" ">
<path fill="none" stroke="#63b8ff" d="M432.19,-109.17C415.37,-104.27 396.31,-98.72 380.54,-94.12"/>
<polygon fill="#63b8ff" stroke="#63b8ff" points="431.21,-112.53 441.79,-111.97 433.17,-105.81 431.21,-112.53"/>
</a>
</g>
</g>
<!-- Node15&#45;&gt;Node9 -->
<g id="edge20_Node000015_Node000009" class="edge">
<title>Node15&#45;&gt;Node9</title>
<g id="a_edge20_Node000015_Node000009"><a xlink:title=" ">
<path fill="none" stroke="#63b8ff" d="M419.54,-121.5C410.74,-121.5 401.71,-121.5 393.16,-121.5"/>
<polygon fill="#63b8ff" stroke="#63b8ff" points="419.72,-125 429.72,-121.5 419.72,-118 419.72,-125"/>
</a>
</g>
</g>
<!-- Node17 -->
<g id="Node000017" class="node">
<title>Node17</title>
<g id="a_Node000017"><a xlink:href="i2c__sw_8c.html#a9b0647fa634c4187e8e0f24a4b273370" target="_top" xlink:title=" ">
<polygon fill="white" stroke="#666666" points="520.5,-20 430.5,-20 430.5,-1 520.5,-1 520.5,-20"/>
<text text-anchor="middle" x="475.5" y="-8" font-family="Helvetica,sans-Serif" font-size="10.00">_i2c_read_byte</text>
</a>
</g>
</g>
<!-- Node16&#45;&gt;Node17 -->
<g id="edge22_Node000016_Node000017" class="edge">
<title>Node16&#45;&gt;Node17</title>
<g id="a_edge22_Node000016_Node000017"><a xlink:title=" ">
<path fill="none" stroke="#63b8ff" d="M578.97,-34.61C558.86,-29.88 536.02,-24.51 517.02,-20.03"/>
<polygon fill="#63b8ff" stroke="#63b8ff" points="578.36,-38.06 588.9,-36.95 579.97,-31.25 578.36,-38.06"/>
</a>
</g>
</g>
<!-- Node18 -->
<g id="Node000018" class="node">
<title>Node18</title>
<g id="a_Node000018"><a xlink:href="i2c__sw_8c.html#abfae32d084f61f89f5ff8678bb4681d8" target="_top" xlink:title=" ">
<polygon fill="white" stroke="#666666" points="522,-57 429,-57 429,-38 522,-38 522,-57"/>
<text text-anchor="middle" x="475.5" y="-45" font-family="Helvetica,sans-Serif" font-size="10.00">_i2c_write_byte</text>
</a>
</g>
</g>
<!-- Node16&#45;&gt;Node18 -->
<g id="edge24_Node000016_Node000018" class="edge">
<title>Node16&#45;&gt;Node18</title>
<g id="a_edge24_Node000016_Node000018"><a xlink:title=" ">
<path fill="none" stroke="#63b8ff" d="M578.37,-46.83C560.21,-46.95 539.88,-47.09 522.2,-47.2"/>
<polygon fill="#63b8ff" stroke="#63b8ff" points="578.52,-50.33 588.5,-46.77 578.48,-43.33 578.52,-50.33"/>
</a>
</g>
</g>
<!-- Node17&#45;&gt;Node4 -->
<g id="edge23_Node000017_Node000004" class="edge">
<title>Node17&#45;&gt;Node4</title>
<g id="a_edge23_Node000017_Node000004"><a xlink:title=" ">
<path fill="none" stroke="#63b8ff" d="M437.91,-24.13C434.86,-25.52 431.85,-26.98 429,-28.5 402.94,-42.38 375.11,-62.89 359.65,-74.85"/>
<polygon fill="#63b8ff" stroke="#63b8ff" points="439.29,-27.34 447.1,-20.18 436.53,-20.91 439.29,-27.34"/>
</a>
</g>
</g>
<!-- Node18&#45;&gt;Node4 -->
<g id="edge25_Node000018_Node000004" class="edge">
<title>Node18&#45;&gt;Node4</title>
<g id="a_edge25_Node000018_Node000004"><a xlink:title=" ">
<path fill="none" stroke="#63b8ff" d="M432.19,-59.83C415.37,-64.73 396.31,-70.28 380.54,-74.88"/>
<polygon fill="#63b8ff" stroke="#63b8ff" points="433.17,-63.19 441.79,-57.03 431.21,-56.47 433.17,-63.19"/>
</a>
</g>
</g>
<!-- Node18&#45;&gt;Node9 -->
<g id="edge26_Node000018_Node000009" class="edge">
<title>Node18&#45;&gt;Node9</title>
<g id="a_edge26_Node000018_Node000009"><a xlink:title=" ">
<path fill="none" stroke="#63b8ff" d="M435.63,-61.54C433.33,-62.78 431.1,-64.1 429,-65.5 409.91,-78.23 411.97,-89.6 393,-102.5 387.62,-106.16 381.43,-109.32 375.37,-111.96"/>
<polygon fill="#63b8ff" stroke="#63b8ff" points="437.21,-64.67 444.7,-57.18 434.17,-58.36 437.21,-64.67"/>
</a>
</g>
</g>
<!-- Node20 -->
<g id="Node000020" class="node">
<title>Node20</title>
<g id="a_Node000020"><a xlink:href="classESP32_1_1I2CDeviceManager.html#ae339d9be7bdce3f514b74f99ae879dfa" target="_top" xlink:title=" ">
<polygon fill="white" stroke="#666666" points="703,-256.5 558,-256.5 558,-226.5 703,-226.5 703,-256.5"/>
<text text-anchor="start" x="566" y="-244.5" font-family="Helvetica,sans-Serif" font-size="10.00">ESP32::I2CDeviceManager</text>
<text text-anchor="middle" x="630.5" y="-233.5" font-family="Helvetica,sans-Serif" font-size="10.00">::I2CDeviceManager</text>
</a>
</g>
</g>
<!-- Node19&#45;&gt;Node20 -->
<g id="edge28_Node000019_Node000020" class="edge">
<title>Node19&#45;&gt;Node20</title>
<g id="a_edge28_Node000019_Node000020"><a xlink:title=" ">
<path fill="none" stroke="#63b8ff" d="M760.92,-207.67C739.99,-213.14 712.91,-220.22 688.93,-226.49"/>
<polygon fill="#63b8ff" stroke="#63b8ff" points="761.87,-211.04 770.66,-205.12 760.1,-204.27 761.87,-211.04"/>
</a>
</g>
</g>
<!-- Node21 -->
<g id="Node000021" class="node">
<title>Node21</title>
<g id="a_Node000021"><a xlink:href="ICM20789_8cpp.html#a7dfd9b79bc5a37d7df40207afbc5431f" target="_top" xlink:title=" ">
<polygon fill="white" stroke="#666666" points="652.5,-208 608.5,-208 608.5,-189 652.5,-189 652.5,-208"/>
<text text-anchor="middle" x="630.5" y="-196" font-family="Helvetica,sans-Serif" font-size="10.00">setup</text>
</a>
</g>
</g>
<!-- Node19&#45;&gt;Node21 -->
<g id="edge29_Node000019_Node000021" class="edge">
<title>Node19&#45;&gt;Node21</title>
<g id="a_edge29_Node000019_Node000021"><a xlink:title=" ">
<path fill="none" stroke="#63b8ff" d="M760.56,-198.5C727.72,-198.5 679.95,-198.5 652.69,-198.5"/>
<polygon fill="#63b8ff" stroke="#63b8ff" points="760.66,-202 770.66,-198.5 760.66,-195 760.66,-202"/>
</a>
</g>
</g>
<!-- Node22&#45;&gt;Node17 -->
<g id="edge31_Node000022_Node000017" class="edge">
<title>Node22&#45;&gt;Node17</title>
<g id="a_edge31_Node000022_Node000017"><a xlink:title=" ">
<path fill="none" stroke="#63b8ff" d="M579.46,-9.83C560.5,-9.95 539.06,-10.09 520.68,-10.21"/>
<polygon fill="#63b8ff" stroke="#63b8ff" points="579.72,-13.33 589.7,-9.76 579.68,-6.33 579.72,-13.33"/>
</a>
</g>
</g>
<!-- Node22&#45;&gt;Node18 -->
<g id="edge32_Node000022_Node000018" class="edge">
<title>Node22&#45;&gt;Node18</title>
<g id="a_edge32_Node000022_Node000018"><a xlink:title=" ">
<path fill="none" stroke="#63b8ff" d="M581.02,-21.54C559.65,-26.85 534.89,-33 514.83,-37.98"/>
<polygon fill="#63b8ff" stroke="#63b8ff" points="582.03,-24.9 590.89,-19.09 580.34,-18.1 582.03,-24.9"/>
</a>
</g>
</g>
</g>
</svg>

<g id="navigator" transform="translate(0 0)" fill="#404254">
  <rect fill="#f2f5e9" fill-opacity="0.5" stroke="#606060" stroke-width=".5" x="0" y="0" width="60" height="60"/>
  <use id="zoomplus" xlink:href="#zoomPlus" x="17" y="9" onmousedown="handleZoom(evt,'in')"/>
  <use id="zoomminus" xlink:href="#zoomMin" x="42" y="9" onmousedown="handleZoom(evt,'out')"/>
  <use id="reset" xlink:href="#resetDef" x="30" y="36" onmousedown="handleReset()"/>
   <use id="arrowup" xlink:href="#arrowUp" x="0" y="0" onmousedown="handlePan(0,-1)"/>
  <use id="arrowright" xlink:href="#arrowRight" x="0" y="0" onmousedown="handlePan(1,0)"/>
  <use id="arrowdown" xlink:href="#arrowDown" x="0" y="0" onmousedown="handlePan(0,1)"/>
  <use id="arrowleft" xlink:href="#arrowLeft" x="0" y="0" onmousedown="handlePan(-1,0)"/>
</g>
<svg viewBox="0 0 15 15" width="100%" height="30px" preserveAspectRatio="xMaxYMin meet">
 <g id="arrow_out" transform="scale(0.3 0.3)">
  <a xlink:href="i2c__sw_8c_a14237fb003ad4e650917207562ed0d00_icgraph_org.svg" target="_base">
   <rect id="button" ry="5" rx="5" y="6" x="6" height="38" width="38"
        fill="#f2f5e9" fill-opacity="0.5" stroke="#606060" stroke-width="1.0"/>
   <path id="arrow"
     d="M 11.500037,31.436501 C 11.940474,20.09759 22.043105,11.32322 32.158766,21.979434 L 37.068811,17.246167 C 37.068811,17.246167 37.088388,32 37.088388,32 L 22.160133,31.978069 C 22.160133,31.978069 26.997745,27.140456 26.997745,27.140456 C 18.528582,18.264221 13.291696,25.230495 11.500037,31.436501 z"
     style="fill:#404040;"/>
  </a>
 </g>
</svg>

<style type='text/css'>
<![CDATA[
[data-mouse-over-selected='false'] { opacity: 0.7; }
[data-mouse-over-selected='true']  { opacity: 1.0; }
]]>
</style>
<script type="application/ecmascript"><![CDATA[
document.addEventListener('DOMContentLoaded', (event) => {
  highlightEdges();
  highlightAdjacentNodes();
});
]]></script>
</svg>
