<?xml version="1.0" encoding="UTF-8" standalone="no"?>
<!DOCTYPE svg PUBLIC "-//W3C//DTD SVG 1.1//EN"
 "http://www.w3.org/Graphics/SVG/1.1/DTD/svg11.dtd">
<!-- Generated by graphviz version 2.43.0 (0)
 -->
<!-- Title: _i2c_abort Pages: 1 -->
<!--zoomable 175 -->

<svg id="main" version="1.1" xmlns="http://www.w3.org/2000/svg" xmlns:xlink="http://www.w3.org/1999/xlink" xml:space="preserve" onload="init(evt)">
<style type="text/css"><![CDATA[
.node, .edge {opacity: 0.7;}
.node.selected, .edge.selected {opacity: 1;}
.edge:hover path { stroke: red; }
.edge:hover polygon { stroke: red; fill: red; }
]]></style>

<defs>
  <circle id="rim" cx="0" cy="0" r="7"/>
  <circle id="rim2" cx="0" cy="0" r="3.5"/>
  <g id="zoomPlus">
    <use xlink:href="#rim" fill="#404040"><set attributeName="fill" to="#808080" begin="zoomplus.mouseover" end="zoomplus.mouseout"/></use>
    <path d="M-4,0h8M0,-4v8" fill="none" stroke="white" stroke-width="1.5" pointer-events="none"/>
  </g>
  <g id="zoomMin">
    <use xlink:href="#rim" fill="#404040"><set attributeName="fill" to="#808080" begin="zoomminus.mouseover" end="zoomminus.mouseout"/></use>
    <path d="M-4,0h8" fill="none" stroke="white" stroke-width="1.5" pointer-events="none"/>
  </g>
  <g id="arrowUp" transform="translate(30 24)">
    <use xlink:href="#rim"/>
    <path pointer-events="none" fill="none" stroke="white" stroke-width="1.5" d="M0,-3.0v7 M-2.5,-0.5L0,-3.0L2.5,-0.5"/>
  </g>
  <g id="arrowRight" transform="rotate(90) translate(36 -43)">
    <use xlink:href="#rim"/>
    <path pointer-events="none" fill="none" stroke="white" stroke-width="1.5" d="M0,-3.0v7 M-2.5,-0.5L0,-3.0L2.5,-0.5"/>
  </g>
  <g id="arrowDown" transform="rotate(180) translate(-30 -48)">
    <use xlink:href="#rim"/>
    <path pointer-events="none" fill="none" stroke="white" stroke-width="1.5" d="M0,-3.0v7 M-2.5,-0.5L0,-3.0L2.5,-0.5"/>
  </g>
  <g id="arrowLeft" transform="rotate(270) translate(-36 17)">
    <use xlink:href="#rim"/>
    <path pointer-events="none" fill="none" stroke="white" stroke-width="1.5" d="M0,-3.0v7 M-2.5,-0.5L0,-3.0L2.5,-0.5"/>
  </g>
  <g id="resetDef">
    <use xlink:href="#rim2" fill="#404040"><set attributeName="fill" to="#808080" begin="reset.mouseover" end="reset.mouseout"/></use>
  </g>
</defs>
<script type="application/ecmascript">
var viewWidth = 504;
var viewHeight = 175;
var sectionId = 'dynsection-2';
</script>
<script type="application/ecmascript" xlink:href="svg.min.js"/>
<svg id="graph" class="graph">
<g id="viewport">
<title>_i2c_abort</title>
<!-- Node1 -->
<g id="Node000001" class="node">
<title>Node1</title>
<g id="a_Node000001"><a xlink:title=" ">
<polygon fill="#999999" stroke="#666666" points="496,-111 429,-111 429,-92 496,-92 496,-111"/>
<text text-anchor="middle" x="462.5" y="-99" font-family="Helvetica,sans-Serif" font-size="10.00">_i2c_abort</text>
</a>
</g>
</g>
<!-- Node2 -->
<g id="Node000002" class="node">
<title>Node2</title>
<g id="a_Node000002"><a xlink:href="group__drivers__periph__i2c.html#gaee3ebf6dc831a91afb67f415e2684432" target="_top" xlink:title="Convenience function for reading bytes from a device.">
<polygon fill="white" stroke="#666666" points="391.5,-130 301.5,-130 301.5,-111 391.5,-111 391.5,-130"/>
<text text-anchor="middle" x="346.5" y="-118" font-family="Helvetica,sans-Serif" font-size="10.00">i2c_read_bytes</text>
</a>
</g>
</g>
<!-- Node1&#45;&gt;Node2 -->
<g id="edge1_Node000001_Node000002" class="edge">
<title>Node1&#45;&gt;Node2</title>
<g id="a_edge1_Node000001_Node000002"><a xlink:title=" ">
<path fill="none" stroke="#63b8ff" d="M418.73,-108.63C409.88,-110.1 400.54,-111.66 391.65,-113.14"/>
<polygon fill="#63b8ff" stroke="#63b8ff" points="419.54,-112.04 428.83,-106.94 418.39,-105.14 419.54,-112.04"/>
</a>
</g>
</g>
<!-- Node7 -->
<g id="Node000007" class="node">
<title>Node7</title>
<g id="a_Node000007"><a xlink:href="group__drivers__periph__i2c.html#ga5051aa259c80b7ccda04288f44efe71f" target="_top" xlink:title="Convenience function for writing several bytes onto the bus.">
<polygon fill="white" stroke="#666666" points="393,-93 300,-93 300,-74 393,-74 393,-93"/>
<text text-anchor="middle" x="346.5" y="-81" font-family="Helvetica,sans-Serif" font-size="10.00">i2c_write_bytes</text>
</a>
</g>
</g>
<!-- Node1&#45;&gt;Node7 -->
<g id="edge6_Node000001_Node000007" class="edge">
<title>Node1&#45;&gt;Node7</title>
<g id="a_edge6_Node000001_Node000007"><a xlink:title=" ">
<path fill="none" stroke="#63b8ff" d="M418.92,-94.78C410.58,-93.46 401.79,-92.07 393.34,-90.74"/>
<polygon fill="#63b8ff" stroke="#63b8ff" points="418.41,-98.24 428.83,-96.34 419.5,-91.33 418.41,-98.24"/>
</a>
</g>
</g>
<!-- Node3 -->
<g id="Node000003" class="node">
<title>Node3</title>
<g id="a_Node000003"><a xlink:href="group__drivers__periph__i2c.html#ga81892c4377781abc093395752ed3209b" target="_top" xlink:title="Convenience function for reading one byte from a device.">
<polygon fill="white" stroke="#666666" points="233.5,-167 148.5,-167 148.5,-148 233.5,-148 233.5,-167"/>
<text text-anchor="middle" x="191" y="-155" font-family="Helvetica,sans-Serif" font-size="10.00">i2c_read_byte</text>
</a>
</g>
</g>
<!-- Node2&#45;&gt;Node3 -->
<g id="edge2_Node000002_Node000003" class="edge">
<title>Node2&#45;&gt;Node3</title>
<g id="a_edge2_Node000002_Node000003"><a xlink:title=" ">
<path fill="none" stroke="#63b8ff" d="M296.03,-132.43C275.2,-137.44 251.3,-143.21 231.66,-147.94"/>
<polygon fill="#63b8ff" stroke="#63b8ff" points="297.07,-135.77 305.97,-130.03 295.43,-128.97 297.07,-135.77"/>
</a>
</g>
</g>
<!-- Node4 -->
<g id="Node000004" class="node">
<title>Node4</title>
<g id="a_Node000004"><a xlink:href="group__drivers__periph__i2c.html#gaa5631bfa7696e4edcb0e25b90cb2ac21" target="_top" xlink:title="Convenience function for reading several bytes from a given register address.">
<polygon fill="white" stroke="#666666" points="233,-93 149,-93 149,-74 233,-74 233,-93"/>
<text text-anchor="middle" x="191" y="-81" font-family="Helvetica,sans-Serif" font-size="10.00">i2c_read_regs</text>
</a>
</g>
</g>
<!-- Node2&#45;&gt;Node4 -->
<g id="edge3_Node000002_Node000004" class="edge">
<title>Node2&#45;&gt;Node4</title>
<g id="a_edge3_Node000002_Node000004"><a xlink:title=" ">
<path fill="none" stroke="#63b8ff" d="M296.03,-108.57C275.2,-103.56 251.3,-97.79 231.66,-93.06"/>
<polygon fill="#63b8ff" stroke="#63b8ff" points="295.43,-112.03 305.97,-110.97 297.07,-105.23 295.43,-112.03"/>
</a>
</g>
</g>
<!-- Node6 -->
<g id="Node000006" class="node">
<title>Node6</title>
<g id="a_Node000006"><a xlink:href="classESP32_1_1I2CDevice.html#acda87a68781e50471e6e8c20a7ec0541" target="_top" xlink:title=" ">
<polygon fill="white" stroke="#666666" points="264,-130 118,-130 118,-111 264,-111 264,-130"/>
<text text-anchor="middle" x="191" y="-118" font-family="Helvetica,sans-Serif" font-size="10.00">ESP32::I2CDevice::transfer</text>
</a>
</g>
</g>
<!-- Node2&#45;&gt;Node6 -->
<g id="edge5_Node000002_Node000006" class="edge">
<title>Node2&#45;&gt;Node6</title>
<g id="a_edge5_Node000002_Node000006"><a xlink:title=" ">
<path fill="none" stroke="#63b8ff" d="M291.06,-120.5C282.31,-120.5 273.14,-120.5 264.06,-120.5"/>
<polygon fill="#63b8ff" stroke="#63b8ff" points="291.1,-124 301.1,-120.5 291.1,-117 291.1,-124"/>
</a>
</g>
</g>
<!-- Node5 -->
<g id="Node000005" class="node">
<title>Node5</title>
<g id="a_Node000005"><a xlink:href="group__drivers__periph__i2c.html#ga223edc17aeddf3e261caaca9d06e5664" target="_top" xlink:title="Convenience function for reading one byte from a given register address.">
<polygon fill="white" stroke="#666666" points="80.5,-93 1.5,-93 1.5,-74 80.5,-74 80.5,-93"/>
<text text-anchor="middle" x="41" y="-81" font-family="Helvetica,sans-Serif" font-size="10.00">i2c_read_reg</text>
</a>
</g>
</g>
<!-- Node4&#45;&gt;Node5 -->
<g id="edge4_Node000004_Node000005" class="edge">
<title>Node4&#45;&gt;Node5</title>
<g id="a_edge4_Node000004_Node000005"><a xlink:title=" ">
<path fill="none" stroke="#63b8ff" d="M138.76,-83.5C119.72,-83.5 98.45,-83.5 80.72,-83.5"/>
<polygon fill="#63b8ff" stroke="#63b8ff" points="138.77,-87 148.77,-83.5 138.77,-80 138.77,-87"/>
</a>
</g>
</g>
<!-- Node7&#45;&gt;Node4 -->
<g id="edge7_Node000007_Node000004" class="edge">
<title>Node7&#45;&gt;Node4</title>
<g id="a_edge7_Node000007_Node000004"><a xlink:title=" ">
<path fill="none" stroke="#63b8ff" d="M289.67,-83.5C270.94,-83.5 250.41,-83.5 233.02,-83.5"/>
<polygon fill="#63b8ff" stroke="#63b8ff" points="289.86,-87 299.86,-83.5 289.86,-80 289.86,-87"/>
</a>
</g>
</g>
<!-- Node7&#45;&gt;Node6 -->
<g id="edge11_Node000007_Node000006" class="edge">
<title>Node7&#45;&gt;Node6</title>
<g id="a_edge11_Node000007_Node000006"><a xlink:title=" ">
<path fill="none" stroke="#63b8ff" d="M296.03,-95.43C275.2,-100.44 251.3,-106.21 231.66,-110.94"/>
<polygon fill="#63b8ff" stroke="#63b8ff" points="297.07,-98.77 305.97,-93.03 295.43,-91.97 297.07,-98.77"/>
</a>
</g>
</g>
<!-- Node8 -->
<g id="Node000008" class="node">
<title>Node8</title>
<g id="a_Node000008"><a xlink:href="group__drivers__periph__i2c.html#ga1bdea58c7f2e4f08832dc6ba8f1a2be1" target="_top" xlink:title="Convenience function for writing a single byte onto the bus.">
<polygon fill="white" stroke="#666666" points="235,-19 147,-19 147,0 235,0 235,-19"/>
<text text-anchor="middle" x="191" y="-7" font-family="Helvetica,sans-Serif" font-size="10.00">i2c_write_byte</text>
</a>
</g>
</g>
<!-- Node7&#45;&gt;Node8 -->
<g id="edge8_Node000007_Node000008" class="edge">
<title>Node7&#45;&gt;Node8</title>
<g id="a_edge8_Node000007_Node000008"><a xlink:title=" ">
<path fill="none" stroke="#63b8ff" d="M326.12,-67.67C310.27,-55.42 286.82,-38.85 264,-28.5 254.93,-24.39 244.81,-21.03 235.08,-18.35"/>
<polygon fill="#63b8ff" stroke="#63b8ff" points="324.08,-70.51 334.1,-73.96 328.42,-65.02 324.08,-70.51"/>
</a>
</g>
</g>
<!-- Node9 -->
<g id="Node000009" class="node">
<title>Node9</title>
<g id="a_Node000009"><a xlink:href="group__drivers__periph__i2c.html#ga9bd61b70ce4c94bc42c6fe37fdfb5156" target="_top" xlink:title="Convenience function for writing data to a given register address.">
<polygon fill="white" stroke="#666666" points="234.5,-56 147.5,-56 147.5,-37 234.5,-37 234.5,-56"/>
<text text-anchor="middle" x="191" y="-44" font-family="Helvetica,sans-Serif" font-size="10.00">i2c_write_regs</text>
</a>
</g>
</g>
<!-- Node7&#45;&gt;Node9 -->
<g id="edge9_Node000007_Node000009" class="edge">
<title>Node7&#45;&gt;Node9</title>
<g id="a_edge9_Node000007_Node000009"><a xlink:title=" ">
<path fill="none" stroke="#63b8ff" d="M296.03,-71.57C275.2,-66.56 251.3,-60.79 231.66,-56.06"/>
<polygon fill="#63b8ff" stroke="#63b8ff" points="295.43,-75.03 305.97,-73.97 297.07,-68.23 295.43,-75.03"/>
</a>
</g>
</g>
<!-- Node10 -->
<g id="Node000010" class="node">
<title>Node10</title>
<g id="a_Node000010"><a xlink:href="group__drivers__periph__i2c.html#gae8c4e544f489eb0abe0be1c3b0327cd2" target="_top" xlink:title="Convenience function for writing one byte to a given register address.">
<polygon fill="white" stroke="#666666" points="82,-56 0,-56 0,-37 82,-37 82,-56"/>
<text text-anchor="middle" x="41" y="-44" font-family="Helvetica,sans-Serif" font-size="10.00">i2c_write_reg</text>
</a>
</g>
</g>
<!-- Node9&#45;&gt;Node10 -->
<g id="edge10_Node000009_Node000010" class="edge">
<title>Node9&#45;&gt;Node10</title>
<g id="a_edge10_Node000009_Node000010"><a xlink:title=" ">
<path fill="none" stroke="#63b8ff" d="M137.08,-46.5C119,-46.5 99.08,-46.5 82.17,-46.5"/>
<polygon fill="#63b8ff" stroke="#63b8ff" points="137.19,-50 147.19,-46.5 137.19,-43 137.19,-50"/>
</a>
</g>
</g>
</g>
</svg>

<g id="navigator" transform="translate(0 0)" fill="#404254">
  <rect fill="#f2f5e9" fill-opacity="0.5" stroke="#606060" stroke-width=".5" x="0" y="0" width="60" height="60"/>
  <use id="zoomplus" xlink:href="#zoomPlus" x="17" y="9" onmousedown="handleZoom(evt,'in')"/>
  <use id="zoomminus" xlink:href="#zoomMin" x="42" y="9" onmousedown="handleZoom(evt,'out')"/>
  <use id="reset" xlink:href="#resetDef" x="30" y="36" onmousedown="handleReset()"/>
   <use id="arrowup" xlink:href="#arrowUp" x="0" y="0" onmousedown="handlePan(0,-1)"/>
  <use id="arrowright" xlink:href="#arrowRight" x="0" y="0" onmousedown="handlePan(1,0)"/>
  <use id="arrowdown" xlink:href="#arrowDown" x="0" y="0" onmousedown="handlePan(0,1)"/>
  <use id="arrowleft" xlink:href="#arrowLeft" x="0" y="0" onmousedown="handlePan(-1,0)"/>
</g>
<svg viewBox="0 0 15 15" width="100%" height="30px" preserveAspectRatio="xMaxYMin meet">
 <g id="arrow_out" transform="scale(0.3 0.3)">
  <a xlink:href="i2c__sw_8c_a9e458f7e66bae83a4b7293833ea200f8_icgraph_org.svg" target="_base">
   <rect id="button" ry="5" rx="5" y="6" x="6" height="38" width="38"
        fill="#f2f5e9" fill-opacity="0.5" stroke="#606060" stroke-width="1.0"/>
   <path id="arrow"
     d="M 11.500037,31.436501 C 11.940474,20.09759 22.043105,11.32322 32.158766,21.979434 L 37.068811,17.246167 C 37.068811,17.246167 37.088388,32 37.088388,32 L 22.160133,31.978069 C 22.160133,31.978069 26.997745,27.140456 26.997745,27.140456 C 18.528582,18.264221 13.291696,25.230495 11.500037,31.436501 z"
     style="fill:#404040;"/>
  </a>
 </g>
</svg>

<style type='text/css'>
<![CDATA[
[data-mouse-over-selected='false'] { opacity: 0.7; }
[data-mouse-over-selected='true']  { opacity: 1.0; }
]]>
</style>
<script type="application/ecmascript"><![CDATA[
document.addEventListener('DOMContentLoaded', (event) => {
  highlightEdges();
  highlightAdjacentNodes();
});
]]></script>
</svg>
