<?xml version="1.0" encoding="UTF-8" standalone="no"?>
<!DOCTYPE svg PUBLIC "-//W3C//DTD SVG 1.1//EN"
 "http://www.w3.org/Graphics/SVG/1.1/DTD/svg11.dtd">
<!-- Generated by graphviz version 2.43.0 (0)
 -->
<!-- Title: Graphical Class Hierarchy Pages: 1 -->
<svg width="333pt" height="138pt"
 viewBox="0.00 0.00 333.00 138.00" xmlns="http://www.w3.org/2000/svg" xmlns:xlink="http://www.w3.org/1999/xlink">
<g id="graph0" class="graph" transform="scale(1 1) rotate(0) translate(4 134)">
<title>Graphical Class Hierarchy</title>
<!-- Node0 -->
<g id="Node000000" class="node">
<title>Node0</title>
<g id="a_Node000000"><a xlink:href="classAP__WindVane__Backend.html" target="_top" xlink:title=" ">
<polygon fill="white" stroke="#666666" points="130,-74 0,-74 0,-55 130,-55 130,-74"/>
<text text-anchor="middle" x="65" y="-62" font-family="Helvetica,sans-Serif" font-size="10.00">AP_WindVane_Backend</text>
</a>
</g>
</g>
<!-- Node1 -->
<g id="Node000001" class="node">
<title>Node1</title>
<g id="a_Node000001"><a xlink:href="classAP__WindVane__Analog.html" target="_top" xlink:title=" ">
<polygon fill="white" stroke="#666666" points="306.5,-130 184.5,-130 184.5,-111 306.5,-111 306.5,-130"/>
<text text-anchor="middle" x="245.5" y="-118" font-family="Helvetica,sans-Serif" font-size="10.00">AP_WindVane_Analog</text>
</a>
</g>
</g>
<!-- Node0&#45;&gt;Node1 -->
<g id="edge379_Node000000_Node000001" class="edge">
<title>Node0&#45;&gt;Node1</title>
<g id="a_edge379_Node000000_Node000001"><a xlink:title=" ">
<path fill="none" stroke="#63b8ff" d="M97.64,-77.81C117.12,-85.68 142.74,-95.45 166,-102.5 176.3,-105.62 187.51,-108.5 198.15,-110.99"/>
<polygon fill="#63b8ff" stroke="#63b8ff" points="98.91,-74.54 88.33,-74 96.26,-81.02 98.91,-74.54"/>
</a>
</g>
</g>
<!-- Node2 -->
<g id="Node000002" class="node">
<title>Node2</title>
<g id="a_Node000002"><a xlink:href="classAP__WindVane__Home.html" target="_top" xlink:title=" ">
<polygon fill="white" stroke="#666666" points="304.5,-93 186.5,-93 186.5,-74 304.5,-74 304.5,-93"/>
<text text-anchor="middle" x="245.5" y="-81" font-family="Helvetica,sans-Serif" font-size="10.00">AP_WindVane_Home</text>
</a>
</g>
</g>
<!-- Node0&#45;&gt;Node2 -->
<g id="edge380_Node000000_Node000002" class="edge">
<title>Node0&#45;&gt;Node2</title>
<g id="a_edge380_Node000000_Node000002"><a xlink:title=" ">
<path fill="none" stroke="#63b8ff" d="M140.18,-72.4C155.54,-74.03 171.52,-75.73 186.22,-77.3"/>
<polygon fill="#63b8ff" stroke="#63b8ff" points="140.5,-68.91 130.19,-71.33 139.76,-75.87 140.5,-68.91"/>
</a>
</g>
</g>
<!-- Node3 -->
<g id="Node000003" class="node">
<title>Node3</title>
<g id="a_Node000003"><a xlink:href="classAP__WindVane__ModernDevice.html" target="_top" xlink:title=" ">
<polygon fill="white" stroke="#666666" points="325,-56 166,-56 166,-37 325,-37 325,-56"/>
<text text-anchor="middle" x="245.5" y="-44" font-family="Helvetica,sans-Serif" font-size="10.00">AP_WindVane_ModernDevice</text>
</a>
</g>
</g>
<!-- Node0&#45;&gt;Node3 -->
<g id="edge381_Node000000_Node000003" class="edge">
<title>Node0&#45;&gt;Node3</title>
<g id="a_edge381_Node000000_Node000003"><a xlink:title=" ">
<path fill="none" stroke="#63b8ff" d="M140.38,-57C148.82,-56.15 157.45,-55.28 165.94,-54.42"/>
<polygon fill="#63b8ff" stroke="#63b8ff" points="139.79,-53.54 130.19,-58.03 140.49,-60.51 139.79,-53.54"/>
</a>
</g>
</g>
<!-- Node4 -->
<g id="Node000004" class="node">
<title>Node4</title>
<g id="a_Node000004"><a xlink:href="classAP__WindVane__NMEA.html" target="_top" xlink:title=" ">
<polygon fill="white" stroke="#666666" points="304.5,-19 186.5,-19 186.5,0 304.5,0 304.5,-19"/>
<text text-anchor="middle" x="245.5" y="-7" font-family="Helvetica,sans-Serif" font-size="10.00">AP_WindVane_NMEA</text>
</a>
</g>
</g>
<!-- Node0&#45;&gt;Node4 -->
<g id="edge382_Node000000_Node000004" class="edge">
<title>Node0&#45;&gt;Node4</title>
<g id="a_edge382_Node000000_Node000004"><a xlink:title=" ">
<path fill="none" stroke="#63b8ff" d="M99.93,-51.25C119.15,-44.01 143.73,-35.18 166,-28.5 177.42,-25.07 189.91,-21.83 201.5,-19.02"/>
<polygon fill="#63b8ff" stroke="#63b8ff" points="98.51,-48.05 90.41,-54.88 101,-54.59 98.51,-48.05"/>
</a>
</g>
</g>
</g>
</svg>
