<?xml version="1.0" encoding="UTF-8" standalone="no"?>
<!DOCTYPE svg PUBLIC "-//W3C//DTD SVG 1.1//EN"
 "http://www.w3.org/Graphics/SVG/1.1/DTD/svg11.dtd">
<!-- Generated by graphviz version 2.43.0 (0)
 -->
<!-- Title: funcnamefromcode Pages: 1 -->
<svg width="463pt" height="156pt"
 viewBox="0.00 0.00 463.00 156.00" xmlns="http://www.w3.org/2000/svg" xmlns:xlink="http://www.w3.org/1999/xlink">

<svg id="main" version="1.1" xmlns="http://www.w3.org/2000/svg" xmlns:xlink="http://www.w3.org/1999/xlink" xml:space="preserve" onload="init(evt)">
<style type="text/css"><![CDATA[
.node, .edge {opacity: 0.7;}
.node.selected, .edge.selected {opacity: 1;}
.edge:hover path { stroke: red; }
.edge:hover polygon { stroke: red; fill: red; }
]]></style>
<script type="application/ecmascript" xlink:href="svg.min.js"/>
<svg id="graph" class="graph">
<g id="graph0" class="graph" transform="scale(1 1) rotate(0) translate(4 152)">
<title>funcnamefromcode</title>
<!-- Node1 -->
<g id="Node000001" class="node">
<title>Node1</title>
<g id="a_Node000001"><a xlink:title=" ">
<polygon fill="#999999" stroke="#666666" points="112,-120 0,-120 0,-101 112,-101 112,-120"/>
<text text-anchor="middle" x="56" y="-108" font-family="Helvetica,sans-Serif" font-size="10.00">funcnamefromcode</text>
</a>
</g>
</g>
<!-- Node2 -->
<g id="Node000002" class="node">
<title>Node2</title>
<g id="a_Node000002"><a xlink:href="ldebug_8c.html#a7db2a3f5cbcf0ac3ef6d4cfa15ab4dbc" target="_top" xlink:title=" ">
<polygon fill="white" stroke="#666666" points="216.5,-148 154.5,-148 154.5,-129 216.5,-129 216.5,-148"/>
<text text-anchor="middle" x="185.5" y="-136" font-family="Helvetica,sans-Serif" font-size="10.00">currentpc</text>
</a>
</g>
</g>
<!-- Node1&#45;&gt;Node2 -->
<g id="edge1_Node000001_Node000002" class="edge">
<title>Node1&#45;&gt;Node2</title>
<g id="a_edge1_Node000001_Node000002"><a xlink:title=" ">
<path fill="none" stroke="#63b8ff" d="M100.52,-120.06C114.8,-123.19 130.59,-126.66 144.59,-129.74"/>
<polygon fill="#63b8ff" stroke="#63b8ff" points="143.9,-133.17 154.42,-131.89 145.41,-126.33 143.9,-133.17"/>
</a>
</g>
</g>
<!-- Node3 -->
<g id="Node000003" class="node">
<title>Node3</title>
<g id="a_Node000003"><a xlink:href="ldebug_8c.html#a3f798dedd04b16528c13c4320261c0ea" target="_top" xlink:title=" ">
<polygon fill="white" stroke="#666666" points="223,-93 148,-93 148,-74 223,-74 223,-93"/>
<text text-anchor="middle" x="185.5" y="-81" font-family="Helvetica,sans-Serif" font-size="10.00">getobjname</text>
</a>
</g>
</g>
<!-- Node1&#45;&gt;Node3 -->
<g id="edge2_Node000001_Node000003" class="edge">
<title>Node1&#45;&gt;Node3</title>
<g id="a_edge2_Node000001_Node000003"><a xlink:title=" ">
<path fill="none" stroke="#63b8ff" d="M101.95,-100.98C113.6,-98.51 126.16,-95.85 137.89,-93.37"/>
<polygon fill="#63b8ff" stroke="#63b8ff" points="138.88,-96.74 147.94,-91.24 137.43,-89.89 138.88,-96.74"/>
</a>
</g>
</g>
<!-- Node3&#45;&gt;Node3 -->
<g id="edge5_Node000003_Node000003" class="edge">
<title>Node3&#45;&gt;Node3</title>
<g id="a_edge5_Node000003_Node000003"><a xlink:title=" ">
<path fill="none" stroke="#63b8ff" d="M165.77,-93.08C156.17,-101.73 162.75,-111 185.5,-111 199.72,-111 207.62,-107.38 209.2,-102.55"/>
<polygon fill="#63b8ff" stroke="#63b8ff" points="212.33,-100.95 205.23,-93.08 205.87,-103.66 212.33,-100.95"/>
</a>
</g>
</g>
<!-- Node4 -->
<g id="Node000004" class="node">
<title>Node4</title>
<g id="a_Node000004"><a xlink:href="ldebug_8c.html#a6585a37f6a17649f953b1d4092f4d4bb" target="_top" xlink:title=" ">
<polygon fill="white" stroke="#666666" points="346.5,-130 281.5,-130 281.5,-111 346.5,-111 346.5,-130"/>
<text text-anchor="middle" x="314" y="-118" font-family="Helvetica,sans-Serif" font-size="10.00">findsetreg</text>
</a>
</g>
</g>
<!-- Node3&#45;&gt;Node4 -->
<g id="edge3_Node000003_Node000004" class="edge">
<title>Node3&#45;&gt;Node4</title>
<g id="a_edge3_Node000003_Node000004"><a xlink:title=" ">
<path fill="none" stroke="#63b8ff" d="M219.08,-93.03C235.11,-97.72 254.61,-103.42 271.68,-108.42"/>
<polygon fill="#63b8ff" stroke="#63b8ff" points="270.83,-111.81 281.41,-111.26 272.79,-105.09 270.83,-111.81"/>
</a>
</g>
</g>
<!-- Node6 -->
<g id="Node000006" class="node">
<title>Node6</title>
<g id="a_Node000006"><a xlink:href="ldebug_8c.html#a9d3034a08348ba5d2e15af7a42097062" target="_top" xlink:title=" ">
<polygon fill="white" stroke="#666666" points="339,-93 289,-93 289,-74 339,-74 339,-93"/>
<text text-anchor="middle" x="314" y="-81" font-family="Helvetica,sans-Serif" font-size="10.00">kname</text>
</a>
</g>
</g>
<!-- Node3&#45;&gt;Node6 -->
<g id="edge6_Node000003_Node000006" class="edge">
<title>Node3&#45;&gt;Node6</title>
<g id="a_edge6_Node000003_Node000006"><a xlink:title=" ">
<path fill="none" stroke="#63b8ff" d="M223.09,-77.31C240.61,-76.53 261.48,-76.56 278.7,-77.42"/>
<polygon fill="#63b8ff" stroke="#63b8ff" points="278.68,-80.93 288.88,-78.06 279.12,-73.94 278.68,-80.93"/>
</a>
</g>
</g>
<!-- Node7 -->
<g id="Node000007" class="node">
<title>Node7</title>
<g id="a_Node000007"><a xlink:href="lfunc_8c.html#a4cdadf0e279ca4ee8e2e0acc3228e562" target="_top" xlink:title=" ">
<polygon fill="white" stroke="#666666" points="369,-56 259,-56 259,-37 369,-37 369,-56"/>
<text text-anchor="middle" x="314" y="-44" font-family="Helvetica,sans-Serif" font-size="10.00">luaF_getlocalname</text>
</a>
</g>
</g>
<!-- Node3&#45;&gt;Node7 -->
<g id="edge8_Node000003_Node000007" class="edge">
<title>Node3&#45;&gt;Node7</title>
<g id="a_edge8_Node000003_Node000007"><a xlink:title=" ">
<path fill="none" stroke="#63b8ff" d="M219.08,-73.97C234.6,-69.43 253.37,-63.94 270.03,-59.07"/>
<polygon fill="#63b8ff" stroke="#63b8ff" points="271.48,-62.29 280.09,-56.12 269.51,-55.57 271.48,-62.29"/>
</a>
</g>
</g>
<!-- Node8 -->
<g id="Node000008" class="node">
<title>Node8</title>
<g id="a_Node000008"><a xlink:href="ldebug_8c.html#af678c57b83ef861ba58033c31cff5b0c" target="_top" xlink:title=" ">
<polygon fill="white" stroke="#666666" points="349.5,-19 278.5,-19 278.5,0 349.5,0 349.5,-19"/>
<text text-anchor="middle" x="314" y="-7" font-family="Helvetica,sans-Serif" font-size="10.00">upvalname</text>
</a>
</g>
</g>
<!-- Node3&#45;&gt;Node8 -->
<g id="edge9_Node000003_Node000008" class="edge">
<title>Node3&#45;&gt;Node8</title>
<g id="a_edge9_Node000003_Node000008"><a xlink:title=" ">
<path fill="none" stroke="#63b8ff" d="M197.07,-73.78C210.57,-61.78 235.07,-41.38 259,-28.5 262.79,-26.46 266.84,-24.57 270.96,-22.83"/>
<polygon fill="#63b8ff" stroke="#63b8ff" points="272.56,-25.96 280.6,-19.06 270.01,-19.44 272.56,-25.96"/>
</a>
</g>
</g>
<!-- Node5 -->
<g id="Node000005" class="node">
<title>Node5</title>
<g id="a_Node000005"><a xlink:href="ldebug_8c.html#a03af36ffe32a5653a0deeddc412d88f0" target="_top" xlink:title=" ">
<polygon fill="white" stroke="#666666" points="455,-130 405,-130 405,-111 455,-111 455,-130"/>
<text text-anchor="middle" x="430" y="-118" font-family="Helvetica,sans-Serif" font-size="10.00">filterpc</text>
</a>
</g>
</g>
<!-- Node4&#45;&gt;Node5 -->
<g id="edge4_Node000004_Node000005" class="edge">
<title>Node4&#45;&gt;Node5</title>
<g id="a_edge4_Node000004_Node000005"><a xlink:title=" ">
<path fill="none" stroke="#63b8ff" d="M346.76,-120.5C361.64,-120.5 379.39,-120.5 394.59,-120.5"/>
<polygon fill="#63b8ff" stroke="#63b8ff" points="394.64,-124 404.64,-120.5 394.64,-117 394.64,-124"/>
</a>
</g>
</g>
<!-- Node6&#45;&gt;Node3 -->
<g id="edge7_Node000006_Node000003" class="edge">
<title>Node6&#45;&gt;Node3</title>
<g id="a_edge7_Node000006_Node000003"><a xlink:title=" ">
<path fill="none" stroke="#63b8ff" d="M288.88,-88.94C273.19,-90.16 252.2,-90.53 233.32,-90.04"/>
<polygon fill="#63b8ff" stroke="#63b8ff" points="233.21,-86.54 223.09,-89.69 232.96,-93.53 233.21,-86.54"/>
</a>
</g>
</g>
</g>
</svg>
</svg>

<style type='text/css'>
<![CDATA[
[data-mouse-over-selected='false'] { opacity: 0.7; }
[data-mouse-over-selected='true']  { opacity: 1.0; }
]]>
</style>
<script type="application/ecmascript"><![CDATA[
document.addEventListener('DOMContentLoaded', (event) => {
  highlightEdges();
  highlightAdjacentNodes();
});
]]></script>
</svg>
