<?xml version="1.0" encoding="UTF-8" standalone="no"?>
<!DOCTYPE svg PUBLIC "-//W3C//DTD SVG 1.1//EN"
 "http://www.w3.org/Graphics/SVG/1.1/DTD/svg11.dtd">
<!-- Generated by graphviz version 2.43.0 (0)
 -->
<!-- Title: luaD_pcall Pages: 1 -->
<svg width="1065pt" height="253pt"
 viewBox="0.00 0.00 1065.00 253.00" xmlns="http://www.w3.org/2000/svg" xmlns:xlink="http://www.w3.org/1999/xlink">
<g id="graph0" class="graph" transform="scale(1 1) rotate(0) translate(4 249)">
<title>luaD_pcall</title>
<!-- Node1 -->
<g id="Node000001" class="node">
<title>Node1</title>
<g id="a_Node000001"><a xlink:title=" ">
<polygon fill="#999999" stroke="#666666" points="1057,-113 989,-113 989,-94 1057,-94 1057,-113"/>
<text text-anchor="middle" x="1023" y="-101" font-family="Helvetica,sans-Serif" font-size="10.00">luaD_pcall</text>
</a>
</g>
</g>
<!-- Node2 -->
<g id="Node000002" class="node">
<title>Node2</title>
<g id="a_Node000002"><a xlink:href="lgc_8c.html#ab9ec6b56580b9e66f41743e393e7e033" target="_top" xlink:title=" ">
<polygon fill="white" stroke="#666666" points="915,-169 869,-169 869,-150 915,-150 915,-169"/>
<text text-anchor="middle" x="892" y="-157" font-family="Helvetica,sans-Serif" font-size="10.00">GCTM</text>
</a>
</g>
</g>
<!-- Node1&#45;&gt;Node2 -->
<g id="edge1_Node000001_Node000002" class="edge">
<title>Node1&#45;&gt;Node2</title>
<g id="a_edge1_Node000001_Node000002"><a xlink:title=" ">
<path fill="none" stroke="#63b8ff" d="M990.63,-117.12C967.17,-127.3 935.68,-140.97 914.89,-150"/>
<polygon fill="#63b8ff" stroke="#63b8ff" points="992.04,-120.32 999.82,-113.13 989.26,-113.9 992.04,-120.32"/>
</a>
</g>
</g>
<!-- Node19 -->
<g id="Node000019" class="node">
<title>Node19</title>
<g id="a_Node000019"><a xlink:href="lapi_8c.html#a624df4cb2312b762c4fb528ecc889385" target="_top" xlink:title=" ">
<polygon fill="white" stroke="#666666" points="925,-113 859,-113 859,-94 925,-94 925,-113"/>
<text text-anchor="middle" x="892" y="-101" font-family="Helvetica,sans-Serif" font-size="10.00">lua_pcallk</text>
</a>
</g>
</g>
<!-- Node1&#45;&gt;Node19 -->
<g id="edge21_Node000001_Node000019" class="edge">
<title>Node1&#45;&gt;Node19</title>
<g id="a_edge21_Node000001_Node000019"><a xlink:title=" ">
<path fill="none" stroke="#63b8ff" d="M978.3,-103.5C960.91,-103.5 941.27,-103.5 925.22,-103.5"/>
<polygon fill="#63b8ff" stroke="#63b8ff" points="978.78,-107 988.78,-103.5 978.78,-100 978.78,-107"/>
</a>
</g>
</g>
<!-- Node22 -->
<g id="Node000022" class="node">
<title>Node22</title>
<g id="a_Node000022"><a xlink:href="ldo_8c.html#a451f5a18e45a63e1da2eed7d8a2060f5" target="_top" xlink:title=" ">
<polygon fill="white" stroke="#666666" points="953,-76 831,-76 831,-57 953,-57 953,-76"/>
<text text-anchor="middle" x="892" y="-64" font-family="Helvetica,sans-Serif" font-size="10.00">luaD_protectedparser</text>
</a>
</g>
</g>
<!-- Node1&#45;&gt;Node22 -->
<g id="edge24_Node000001_Node000022" class="edge">
<title>Node1&#45;&gt;Node22</title>
<g id="a_edge24_Node000001_Node000022"><a xlink:title=" ">
<path fill="none" stroke="#63b8ff" d="M979.03,-91.17C961.94,-86.27 942.58,-80.72 926.56,-76.12"/>
<polygon fill="#63b8ff" stroke="#63b8ff" points="978.2,-94.58 988.78,-93.97 980.13,-87.85 978.2,-94.58"/>
</a>
</g>
</g>
<!-- Node3 -->
<g id="Node000003" class="node">
<title>Node3</title>
<g id="a_Node000003"><a xlink:href="lgc_8c.html#a3c6f43e1b63924361ed0ce31b6d30f8b" target="_top" xlink:title=" ">
<polygon fill="white" stroke="#666666" points="795,-169 666,-169 666,-150 795,-150 795,-169"/>
<text text-anchor="middle" x="730.5" y="-157" font-family="Helvetica,sans-Serif" font-size="10.00">callallpendingfinalizers</text>
</a>
</g>
</g>
<!-- Node2&#45;&gt;Node3 -->
<g id="edge2_Node000002_Node000003" class="edge">
<title>Node2&#45;&gt;Node3</title>
<g id="a_edge2_Node000002_Node000003"><a xlink:title=" ">
<path fill="none" stroke="#63b8ff" d="M858.72,-159.5C840.44,-159.5 816.94,-159.5 795.12,-159.5"/>
<polygon fill="#63b8ff" stroke="#63b8ff" points="858.82,-163 868.82,-159.5 858.82,-156 858.82,-163"/>
</a>
</g>
</g>
<!-- Node11 -->
<g id="Node000011" class="node">
<title>Node11</title>
<g id="a_Node000011"><a xlink:href="lgc_8c.html#a2227b99225928218094ad77f66a712ac" target="_top" xlink:title=" ">
<polygon fill="white" stroke="#666666" points="781,-207 680,-207 680,-188 781,-188 781,-207"/>
<text text-anchor="middle" x="730.5" y="-195" font-family="Helvetica,sans-Serif" font-size="10.00">runafewfinalizers</text>
</a>
</g>
</g>
<!-- Node2&#45;&gt;Node11 -->
<g id="edge11_Node000002_Node000011" class="edge">
<title>Node2&#45;&gt;Node11</title>
<g id="a_edge11_Node000002_Node000011"><a xlink:title=" ">
<path fill="none" stroke="#63b8ff" d="M859.04,-167.11C833.88,-173.11 798.67,-181.5 771.61,-187.94"/>
<polygon fill="#63b8ff" stroke="#63b8ff" points="859.91,-170.51 868.82,-164.78 858.28,-163.7 859.91,-170.51"/>
</a>
</g>
</g>
<!-- Node4 -->
<g id="Node000004" class="node">
<title>Node4</title>
<g id="a_Node000004"><a xlink:href="lgc_8c.html#abad938b33f011ec1088d1a79508c6ac9" target="_top" xlink:title=" ">
<polygon fill="white" stroke="#666666" points="630,-169 520,-169 520,-150 630,-150 630,-169"/>
<text text-anchor="middle" x="575" y="-157" font-family="Helvetica,sans-Serif" font-size="10.00">luaC_freeallobjects</text>
</a>
</g>
</g>
<!-- Node3&#45;&gt;Node4 -->
<g id="edge3_Node000003_Node000004" class="edge">
<title>Node3&#45;&gt;Node4</title>
<g id="a_edge3_Node000003_Node000004"><a xlink:title=" ">
<path fill="none" stroke="#63b8ff" d="M655.65,-159.5C647.02,-159.5 638.34,-159.5 630.05,-159.5"/>
<polygon fill="#63b8ff" stroke="#63b8ff" points="655.74,-163 665.74,-159.5 655.74,-156 655.74,-163"/>
</a>
</g>
</g>
<!-- Node5 -->
<g id="Node000005" class="node">
<title>Node5</title>
<g id="a_Node000005"><a xlink:href="lstate_8c.html#a4940327dfa3b86df0ef008180bb3fcb3" target="_top" xlink:title=" ">
<polygon fill="white" stroke="#666666" points="473,-159 401,-159 401,-140 473,-140 473,-159"/>
<text text-anchor="middle" x="437" y="-147" font-family="Helvetica,sans-Serif" font-size="10.00">close_state</text>
</a>
</g>
</g>
<!-- Node4&#45;&gt;Node5 -->
<g id="edge4_Node000004_Node000005" class="edge">
<title>Node4&#45;&gt;Node5</title>
<g id="a_edge4_Node000004_Node000005"><a xlink:title=" ">
<path fill="none" stroke="#63b8ff" d="M509.82,-154.78C497.21,-153.85 484.42,-152.91 473.2,-152.09"/>
<polygon fill="#63b8ff" stroke="#63b8ff" points="509.63,-158.28 519.86,-155.52 510.14,-151.3 509.63,-158.28"/>
</a>
</g>
</g>
<!-- Node6 -->
<g id="Node000006" class="node">
<title>Node6</title>
<g id="a_Node000006"><a xlink:href="lstate_8c.html#a5d903983f1497b2fc58fba9df09e354d" target="_top" xlink:title=" ">
<polygon fill="white" stroke="#666666" points="344,-117 282,-117 282,-98 344,-98 344,-117"/>
<text text-anchor="middle" x="313" y="-105" font-family="Helvetica,sans-Serif" font-size="10.00">lua_close</text>
</a>
</g>
</g>
<!-- Node5&#45;&gt;Node6 -->
<g id="edge5_Node000005_Node000006" class="edge">
<title>Node5&#45;&gt;Node6</title>
<g id="a_edge5_Node000005_Node000006"><a xlink:title=" ">
<path fill="none" stroke="#63b8ff" d="M398.83,-136.7C380.54,-130.41 358.86,-122.94 342,-117.14"/>
<polygon fill="#63b8ff" stroke="#63b8ff" points="397.72,-140.02 408.32,-139.97 400,-133.4 397.72,-140.02"/>
</a>
</g>
</g>
<!-- Node9 -->
<g id="Node000009" class="node">
<title>Node9</title>
<g id="a_Node000009"><a xlink:href="lstate_8c.html#a02f761396ac35439932f4f0a7ff90b31" target="_top" xlink:title=" ">
<polygon fill="white" stroke="#666666" points="354,-159 272,-159 272,-140 354,-140 354,-159"/>
<text text-anchor="middle" x="313" y="-147" font-family="Helvetica,sans-Serif" font-size="10.00">lua_newstate</text>
</a>
</g>
</g>
<!-- Node5&#45;&gt;Node9 -->
<g id="edge8_Node000005_Node000009" class="edge">
<title>Node5&#45;&gt;Node9</title>
<g id="a_edge8_Node000005_Node000009"><a xlink:title=" ">
<path fill="none" stroke="#63b8ff" d="M390.54,-149.5C378.67,-149.5 365.95,-149.5 354.36,-149.5"/>
<polygon fill="#63b8ff" stroke="#63b8ff" points="390.71,-153 400.71,-149.5 390.71,-146 390.71,-153"/>
</a>
</g>
</g>
<!-- Node7 -->
<g id="Node000007" class="node">
<title>Node7</title>
<g id="a_Node000007"><a xlink:href="luac_8c.html#a0ddf1224851353fc92bfbff6f499fa97" target="_top" xlink:title=" ">
<polygon fill="white" stroke="#666666" points="214.5,-71 173.5,-71 173.5,-52 214.5,-52 214.5,-71"/>
<text text-anchor="middle" x="194" y="-59" font-family="Helvetica,sans-Serif" font-size="10.00">main</text>
</a>
</g>
</g>
<!-- Node6&#45;&gt;Node7 -->
<g id="edge6_Node000006_Node000007" class="edge">
<title>Node6&#45;&gt;Node7</title>
<g id="a_edge6_Node000006_Node000007"><a xlink:title=" ">
<path fill="none" stroke="#63b8ff" d="M278.37,-94.28C257.7,-86.15 231.94,-76.02 214.56,-69.19"/>
<polygon fill="#63b8ff" stroke="#63b8ff" points="277.17,-97.57 287.76,-97.97 279.73,-91.05 277.17,-97.57"/>
</a>
</g>
</g>
<!-- Node8 -->
<g id="Node000008" class="node">
<title>Node8</title>
<g id="a_Node000008"><a xlink:href="loslib_8c.html#a905e81425fe3d6d0b363c10162a2a37b" target="_top" xlink:title=" ">
<polygon fill="white" stroke="#666666" points="220,-117 168,-117 168,-98 220,-98 220,-117"/>
<text text-anchor="middle" x="194" y="-105" font-family="Helvetica,sans-Serif" font-size="10.00">os_exit</text>
</a>
</g>
</g>
<!-- Node6&#45;&gt;Node8 -->
<g id="edge7_Node000006_Node000008" class="edge">
<title>Node6&#45;&gt;Node8</title>
<g id="a_edge7_Node000006_Node000008"><a xlink:title=" ">
<path fill="none" stroke="#63b8ff" d="M271.61,-107.5C254.57,-107.5 235.25,-107.5 220.28,-107.5"/>
<polygon fill="#63b8ff" stroke="#63b8ff" points="271.87,-111 281.87,-107.5 271.87,-104 271.87,-111"/>
</a>
</g>
</g>
<!-- Node10 -->
<g id="Node000010" class="node">
<title>Node10</title>
<g id="a_Node000010"><a xlink:href="lstate_8c.html#a8a0fc0aca5367250347c6bb6a788f05f" target="_top" xlink:title=" ">
<polygon fill="white" stroke="#666666" points="227.5,-159 160.5,-159 160.5,-140 227.5,-140 227.5,-159"/>
<text text-anchor="middle" x="194" y="-147" font-family="Helvetica,sans-Serif" font-size="10.00">makeseed</text>
</a>
</g>
</g>
<!-- Node9&#45;&gt;Node10 -->
<g id="edge9_Node000009_Node000010" class="edge">
<title>Node9&#45;&gt;Node10</title>
<g id="a_edge9_Node000009_Node000010"><a xlink:title=" ">
<path fill="none" stroke="#63b8ff" d="M261.73,-142.81C250.17,-142.64 238.18,-142.83 227.59,-143.38"/>
<polygon fill="#63b8ff" stroke="#63b8ff" points="261.65,-146.31 271.74,-143.05 261.82,-139.31 261.65,-146.31"/>
</a>
</g>
</g>
<!-- Node10&#45;&gt;Node9 -->
<g id="edge10_Node000010_Node000009" class="edge">
<title>Node10&#45;&gt;Node9</title>
<g id="a_edge10_Node000010_Node000009"><a xlink:title=" ">
<path fill="none" stroke="#63b8ff" d="M237.89,-156.03C248.95,-156.35 260.82,-156.32 271.74,-155.95"/>
<polygon fill="#63b8ff" stroke="#63b8ff" points="237.72,-152.52 227.59,-155.62 237.45,-159.52 237.72,-152.52"/>
</a>
</g>
</g>
<!-- Node12 -->
<g id="Node000012" class="node">
<title>Node12</title>
<g id="a_Node000012"><a xlink:href="lgc_8c.html#ab0133eb7bb37a0a690e0ef71fbc13414" target="_top" xlink:title=" ">
<polygon fill="white" stroke="#666666" points="469.5,-207 404.5,-207 404.5,-188 469.5,-188 469.5,-207"/>
<text text-anchor="middle" x="437" y="-195" font-family="Helvetica,sans-Serif" font-size="10.00">luaC_step</text>
</a>
</g>
</g>
<!-- Node11&#45;&gt;Node12 -->
<g id="edge12_Node000011_Node000012" class="edge">
<title>Node11&#45;&gt;Node12</title>
<g id="a_edge12_Node000011_Node000012"><a xlink:title=" ">
<path fill="none" stroke="#63b8ff" d="M669.51,-197.5C608.83,-197.5 517.35,-197.5 469.58,-197.5"/>
<polygon fill="#63b8ff" stroke="#63b8ff" points="669.72,-201 679.72,-197.5 669.72,-194 669.72,-201"/>
</a>
</g>
</g>
<!-- Node15 -->
<g id="Node000015" class="node">
<title>Node15</title>
<g id="a_Node000015"><a xlink:href="lgc_8c.html#ae34e22198155f5d365fe500d3735c150" target="_top" xlink:title=" ">
<polygon fill="white" stroke="#666666" points="608.5,-245 541.5,-245 541.5,-226 608.5,-226 608.5,-245"/>
<text text-anchor="middle" x="575" y="-233" font-family="Helvetica,sans-Serif" font-size="10.00">singlestep</text>
</a>
</g>
</g>
<!-- Node11&#45;&gt;Node15 -->
<g id="edge15_Node000011_Node000015" class="edge">
<title>Node11&#45;&gt;Node15</title>
<g id="a_edge15_Node000011_Node000015"><a xlink:title=" ">
<path fill="none" stroke="#63b8ff" d="M680.96,-209.52C657.42,-215.34 629.76,-222.19 608.75,-227.39"/>
<polygon fill="#63b8ff" stroke="#63b8ff" points="681.9,-212.89 690.77,-207.09 680.22,-206.09 681.9,-212.89"/>
</a>
</g>
</g>
<!-- Node13 -->
<g id="Node000013" class="node">
<title>Node13</title>
<g id="a_Node000013"><a xlink:href="lapi_8c.html#af8ed2209505943e2eb581cb4e4e02b62" target="_top" xlink:title=" ">
<polygon fill="white" stroke="#666666" points="218,-207 170,-207 170,-188 218,-188 218,-207"/>
<text text-anchor="middle" x="194" y="-195" font-family="Helvetica,sans-Serif" font-size="10.00">lua_gc</text>
</a>
</g>
</g>
<!-- Node12&#45;&gt;Node13 -->
<g id="edge13_Node000012_Node000013" class="edge">
<title>Node12&#45;&gt;Node13</title>
<g id="a_edge13_Node000012_Node000013"><a xlink:title=" ">
<path fill="none" stroke="#63b8ff" d="M394.47,-197.5C343.5,-197.5 258.87,-197.5 218.21,-197.5"/>
<polygon fill="#63b8ff" stroke="#63b8ff" points="394.49,-201 404.49,-197.5 394.49,-194 394.49,-201"/>
</a>
</g>
</g>
<!-- Node14 -->
<g id="Node000014" class="node">
<title>Node14</title>
<g id="a_Node000014"><a xlink:href="lbaselib_8c.html#a07f71966c943cc9761ab129f64d4ac80" target="_top" xlink:title=" ">
<polygon fill="white" stroke="#666666" points="116,-207 0,-207 0,-188 116,-188 116,-207"/>
<text text-anchor="middle" x="58" y="-195" font-family="Helvetica,sans-Serif" font-size="10.00">luaB_collectgarbage</text>
</a>
</g>
</g>
<!-- Node13&#45;&gt;Node14 -->
<g id="edge14_Node000013_Node000014" class="edge">
<title>Node13&#45;&gt;Node14</title>
<g id="a_edge14_Node000013_Node000014"><a xlink:title=" ">
<path fill="none" stroke="#63b8ff" d="M159.91,-197.5C146.65,-197.5 130.99,-197.5 116.01,-197.5"/>
<polygon fill="#63b8ff" stroke="#63b8ff" points="159.96,-201 169.96,-197.5 159.96,-194 159.96,-201"/>
</a>
</g>
</g>
<!-- Node15&#45;&gt;Node12 -->
<g id="edge20_Node000015_Node000012" class="edge">
<title>Node15&#45;&gt;Node12</title>
<g id="a_edge20_Node000015_Node000012"><a xlink:title=" ">
<path fill="none" stroke="#63b8ff" d="M531.64,-223.67C511.68,-218.09 488.26,-211.54 469.84,-206.4"/>
<polygon fill="#63b8ff" stroke="#63b8ff" points="530.85,-227.08 541.42,-226.4 532.74,-220.34 530.85,-227.08"/>
</a>
</g>
</g>
<!-- Node16 -->
<g id="Node000016" class="node">
<title>Node16</title>
<g id="a_Node000016"><a xlink:href="lgc_8c.html#a97086b84273579d4c9b42a782f30410d" target="_top" xlink:title=" ">
<polygon fill="white" stroke="#666666" points="484,-245 390,-245 390,-226 484,-226 484,-245"/>
<text text-anchor="middle" x="437" y="-233" font-family="Helvetica,sans-Serif" font-size="10.00">luaC_runtilstate</text>
</a>
</g>
</g>
<!-- Node15&#45;&gt;Node16 -->
<g id="edge16_Node000015_Node000016" class="edge">
<title>Node15&#45;&gt;Node16</title>
<g id="a_edge16_Node000015_Node000016"><a xlink:title=" ">
<path fill="none" stroke="#63b8ff" d="M531.39,-235.5C516.4,-235.5 499.47,-235.5 484.2,-235.5"/>
<polygon fill="#63b8ff" stroke="#63b8ff" points="531.42,-239 541.42,-235.5 531.42,-232 531.42,-239"/>
</a>
</g>
</g>
<!-- Node17 -->
<g id="Node000017" class="node">
<title>Node17</title>
<g id="a_Node000017"><a xlink:href="lgc_8c.html#ac48130e5263ad8be09a9c51dae6125b9" target="_top" xlink:title=" ">
<polygon fill="white" stroke="#666666" points="348.5,-245 277.5,-245 277.5,-226 348.5,-226 348.5,-245"/>
<text text-anchor="middle" x="313" y="-233" font-family="Helvetica,sans-Serif" font-size="10.00">luaC_fullgc</text>
</a>
</g>
</g>
<!-- Node16&#45;&gt;Node17 -->
<g id="edge17_Node000016_Node000017" class="edge">
<title>Node16&#45;&gt;Node17</title>
<g id="a_edge17_Node000016_Node000017"><a xlink:title=" ">
<path fill="none" stroke="#63b8ff" d="M379.83,-235.5C369.24,-235.5 358.46,-235.5 348.77,-235.5"/>
<polygon fill="#63b8ff" stroke="#63b8ff" points="379.88,-239 389.88,-235.5 379.88,-232 379.88,-239"/>
</a>
</g>
</g>
<!-- Node17&#45;&gt;Node13 -->
<g id="edge18_Node000017_Node000013" class="edge">
<title>Node17&#45;&gt;Node13</title>
<g id="a_edge18_Node000017_Node000013"><a xlink:title=" ">
<path fill="none" stroke="#63b8ff" d="M272.76,-222.76C254.66,-216.88 233.8,-210.1 218.25,-205.05"/>
<polygon fill="#63b8ff" stroke="#63b8ff" points="271.88,-226.15 282.48,-225.91 274.05,-219.49 271.88,-226.15"/>
</a>
</g>
</g>
<!-- Node18 -->
<g id="Node000018" class="node">
<title>Node18</title>
<g id="a_Node000018"><a xlink:href="lmem_8c.html#a7dd4e9ddf6987797216fa9cf4bc23954" target="_top" xlink:title=" ">
<polygon fill="white" stroke="#666666" points="236,-245 152,-245 152,-226 236,-226 236,-245"/>
<text text-anchor="middle" x="194" y="-233" font-family="Helvetica,sans-Serif" font-size="10.00">luaM_realloc_</text>
</a>
</g>
</g>
<!-- Node17&#45;&gt;Node18 -->
<g id="edge19_Node000017_Node000018" class="edge">
<title>Node17&#45;&gt;Node18</title>
<g id="a_edge19_Node000017_Node000018"><a xlink:title=" ">
<path fill="none" stroke="#63b8ff" d="M266.89,-235.5C256.74,-235.5 246.02,-235.5 236.04,-235.5"/>
<polygon fill="#63b8ff" stroke="#63b8ff" points="267.21,-239 277.21,-235.5 267.21,-232 267.21,-239"/>
</a>
</g>
</g>
<!-- Node20 -->
<g id="Node000020" class="node">
<title>Node20</title>
<g id="a_Node000020"><a xlink:href="lbaselib_8c.html#a1fb2725eed679431d070b2e9e7abc223" target="_top" xlink:title=" ">
<polygon fill="white" stroke="#666666" points="764,-95 697,-95 697,-76 764,-76 764,-95"/>
<text text-anchor="middle" x="730.5" y="-83" font-family="Helvetica,sans-Serif" font-size="10.00">luaB_pcall</text>
</a>
</g>
</g>
<!-- Node19&#45;&gt;Node20 -->
<g id="edge22_Node000019_Node000020" class="edge">
<title>Node19&#45;&gt;Node20</title>
<g id="a_edge22_Node000019_Node000020"><a xlink:title=" ">
<path fill="none" stroke="#63b8ff" d="M848.57,-98.71C822.05,-95.72 788.41,-91.92 764,-89.17"/>
<polygon fill="#63b8ff" stroke="#63b8ff" points="848.39,-102.21 858.72,-99.86 849.18,-95.26 848.39,-102.21"/>
</a>
</g>
</g>
<!-- Node21 -->
<g id="Node000021" class="node">
<title>Node21</title>
<g id="a_Node000021"><a xlink:href="lbaselib_8c.html#a5fbb0094fa1a56f0a4c2547f1ec4c5ab" target="_top" xlink:title=" ">
<polygon fill="white" stroke="#666666" points="767,-132 694,-132 694,-113 767,-113 767,-132"/>
<text text-anchor="middle" x="730.5" y="-120" font-family="Helvetica,sans-Serif" font-size="10.00">luaB_xpcall</text>
</a>
</g>
</g>
<!-- Node19&#45;&gt;Node21 -->
<g id="edge23_Node000019_Node000021" class="edge">
<title>Node19&#45;&gt;Node21</title>
<g id="a_edge23_Node000019_Node000021"><a xlink:title=" ">
<path fill="none" stroke="#63b8ff" d="M848.62,-108.55C823.18,-111.58 791.18,-115.39 767.06,-118.26"/>
<polygon fill="#63b8ff" stroke="#63b8ff" points="849.21,-112 858.72,-107.34 848.38,-105.05 849.21,-112"/>
</a>
</g>
</g>
<!-- Node23 -->
<g id="Node000023" class="node">
<title>Node23</title>
<g id="a_Node000023"><a xlink:href="lapi_8c.html#aa7a94c45f3eec251e5b258d7482ffe87" target="_top" xlink:title=" ">
<polygon fill="white" stroke="#666666" points="759.5,-58 701.5,-58 701.5,-39 759.5,-39 759.5,-58"/>
<text text-anchor="middle" x="730.5" y="-46" font-family="Helvetica,sans-Serif" font-size="10.00">lua_load</text>
</a>
</g>
</g>
<!-- Node22&#45;&gt;Node23 -->
<g id="edge25_Node000022_Node000023" class="edge">
<title>Node22&#45;&gt;Node23</title>
<g id="a_edge25_Node000022_Node000023"><a xlink:title=" ">
<path fill="none" stroke="#63b8ff" d="M820.59,-58.55C799.13,-56.13 776.74,-53.61 759.78,-51.69"/>
<polygon fill="#63b8ff" stroke="#63b8ff" points="820.37,-62.05 830.7,-59.69 821.16,-55.1 820.37,-62.05"/>
</a>
</g>
</g>
<!-- Node24 -->
<g id="Node000024" class="node">
<title>Node24</title>
<g id="a_Node000024"><a xlink:href="luac_8c.html#a5cce7bb7467b6b600a673aa8b50d99d3" target="_top" xlink:title=" ">
<polygon fill="white" stroke="#666666" points="604.5,-19 545.5,-19 545.5,0 604.5,0 604.5,-19"/>
<text text-anchor="middle" x="575" y="-7" font-family="Helvetica,sans-Serif" font-size="10.00">combine</text>
</a>
</g>
</g>
<!-- Node23&#45;&gt;Node24 -->
<g id="edge26_Node000023_Node000024" class="edge">
<title>Node23&#45;&gt;Node24</title>
<g id="a_edge26_Node000023_Node000024"><a xlink:title=" ">
<path fill="none" stroke="#63b8ff" d="M691.52,-38.85C664.68,-32.03 629.27,-23.03 604.76,-16.81"/>
<polygon fill="#63b8ff" stroke="#63b8ff" points="690.79,-42.28 701.35,-41.35 692.52,-35.49 690.79,-42.28"/>
</a>
</g>
</g>
<!-- Node26 -->
<g id="Node000026" class="node">
<title>Node26</title>
<g id="a_Node000026"><a xlink:href="lbaselib_8c.html#a4a9a3613fcf80fe033e044f7e19bed69" target="_top" xlink:title=" ">
<polygon fill="white" stroke="#666666" points="469.5,-112 404.5,-112 404.5,-93 469.5,-93 469.5,-112"/>
<text text-anchor="middle" x="437" y="-100" font-family="Helvetica,sans-Serif" font-size="10.00">luaB_load</text>
</a>
</g>
</g>
<!-- Node23&#45;&gt;Node26 -->
<g id="edge29_Node000023_Node000026" class="edge">
<title>Node23&#45;&gt;Node26</title>
<g id="a_edge29_Node000023_Node000026"><a xlink:title=" ">
<path fill="none" stroke="#63b8ff" d="M691.72,-55.9C682.93,-58.51 673.86,-61.96 666,-66.5 646.68,-77.66 650.65,-93.05 630,-101.5 577.09,-123.14 508.9,-116.24 469.65,-109.32"/>
<polygon fill="#63b8ff" stroke="#63b8ff" points="692.67,-59.27 701.43,-53.31 690.87,-52.51 692.67,-59.27"/>
</a>
</g>
</g>
<!-- Node27 -->
<g id="Node000027" class="node">
<title>Node27</title>
<g id="a_Node000027"><a xlink:href="lauxlib_8c.html#a867ca33afe2cb3d07bfc238cbb438f61" target="_top" xlink:title=" ">
<polygon fill="white" stroke="#666666" points="624,-93 526,-93 526,-74 624,-74 624,-93"/>
<text text-anchor="middle" x="575" y="-81" font-family="Helvetica,sans-Serif" font-size="10.00">luaL_loadbufferx</text>
</a>
</g>
</g>
<!-- Node23&#45;&gt;Node27 -->
<g id="edge30_Node000023_Node000027" class="edge">
<title>Node23&#45;&gt;Node27</title>
<g id="a_edge30_Node000023_Node000027"><a xlink:title=" ">
<path fill="none" stroke="#63b8ff" d="M691.53,-57.16C669.18,-62.25 640.87,-68.71 617.87,-73.95"/>
<polygon fill="#63b8ff" stroke="#63b8ff" points="692.37,-60.56 701.35,-54.92 690.82,-53.73 692.37,-60.56"/>
</a>
</g>
</g>
<!-- Node28 -->
<g id="Node000028" class="node">
<title>Node28</title>
<g id="a_Node000028"><a xlink:href="lauxlib_8c.html#a6ac3b2572d5ce635c4617aed2a0eb649" target="_top" xlink:title=" ">
<polygon fill="white" stroke="#666666" points="617,-56 533,-56 533,-37 617,-37 617,-56"/>
<text text-anchor="middle" x="575" y="-44" font-family="Helvetica,sans-Serif" font-size="10.00">luaL_loadfilex</text>
</a>
</g>
</g>
<!-- Node23&#45;&gt;Node28 -->
<g id="edge32_Node000023_Node000028" class="edge">
<title>Node23&#45;&gt;Node28</title>
<g id="a_edge32_Node000023_Node000028"><a xlink:title=" ">
<path fill="none" stroke="#63b8ff" d="M691.15,-48C668.67,-47.71 640.26,-47.34 617.29,-47.04"/>
<polygon fill="#63b8ff" stroke="#63b8ff" points="691.3,-51.5 701.35,-48.13 691.39,-44.5 691.3,-51.5"/>
</a>
</g>
</g>
<!-- Node25 -->
<g id="Node000025" class="node">
<title>Node25</title>
<g id="a_Node000025"><a xlink:href="luac_8c.html#aa0f8bc082ef913cb0a4df437bf5f5019" target="_top" xlink:title=" ">
<polygon fill="white" stroke="#666666" points="336.5,-52 289.5,-52 289.5,-33 336.5,-33 336.5,-52"/>
<text text-anchor="middle" x="313" y="-40" font-family="Helvetica,sans-Serif" font-size="10.00">pmain</text>
</a>
</g>
</g>
<!-- Node24&#45;&gt;Node25 -->
<g id="edge27_Node000024_Node000025" class="edge">
<title>Node24&#45;&gt;Node25</title>
<g id="a_edge27_Node000024_Node000025"><a xlink:title=" ">
<path fill="none" stroke="#63b8ff" d="M534.8,-12.64C497.47,-15.85 439.76,-21.36 390,-28.5 371.94,-31.09 351.62,-34.88 336.54,-37.86"/>
<polygon fill="#63b8ff" stroke="#63b8ff" points="535.56,-16.09 545.23,-11.76 534.97,-9.11 535.56,-16.09"/>
</a>
</g>
</g>
<!-- Node25&#45;&gt;Node7 -->
<g id="edge28_Node000025_Node000007" class="edge">
<title>Node25&#45;&gt;Node7</title>
<g id="a_edge28_Node000025_Node000007"><a xlink:title=" ">
<path fill="none" stroke="#63b8ff" d="M279.45,-47.79C258.68,-51.16 232.44,-55.42 214.76,-58.29"/>
<polygon fill="#63b8ff" stroke="#63b8ff" points="280.13,-51.22 289.44,-46.16 279.01,-44.31 280.13,-51.22"/>
</a>
</g>
</g>
<!-- Node27&#45;&gt;Node26 -->
<g id="edge31_Node000027_Node000026" class="edge">
<title>Node27&#45;&gt;Node26</title>
<g id="a_edge31_Node000027_Node000026"><a xlink:title=" ">
<path fill="none" stroke="#63b8ff" d="M515.45,-91.68C499.7,-93.88 483.26,-96.18 469.6,-98.09"/>
<polygon fill="#63b8ff" stroke="#63b8ff" points="516.25,-95.1 525.67,-90.25 515.28,-88.17 516.25,-95.1"/>
</a>
</g>
</g>
<!-- Node29 -->
<g id="Node000029" class="node">
<title>Node29</title>
<g id="a_Node000029"><a xlink:href="lbaselib_8c.html#aeb4cb83db820979bbdd7710109b52957" target="_top" xlink:title=" ">
<polygon fill="white" stroke="#666666" points="477,-57 397,-57 397,-38 477,-38 477,-57"/>
<text text-anchor="middle" x="437" y="-45" font-family="Helvetica,sans-Serif" font-size="10.00">luaB_loadfile</text>
</a>
</g>
</g>
<!-- Node28&#45;&gt;Node29 -->
<g id="edge33_Node000028_Node000029" class="edge">
<title>Node28&#45;&gt;Node29</title>
<g id="a_edge33_Node000028_Node000029"><a xlink:title=" ">
<path fill="none" stroke="#63b8ff" d="M522.62,-46.88C507.56,-46.99 491.34,-47.11 477.17,-47.21"/>
<polygon fill="#63b8ff" stroke="#63b8ff" points="522.85,-50.38 532.83,-46.8 522.8,-43.38 522.85,-50.38"/>
</a>
</g>
</g>
</g>
</svg>
