<?xml version="1.0" encoding="UTF-8" standalone="no"?>
<!DOCTYPE svg PUBLIC "-//W3C//DTD SVG 1.1//EN"
 "http://www.w3.org/Graphics/SVG/1.1/DTD/svg11.dtd">
<!-- Generated by graphviz version 2.43.0 (0)
 -->
<!-- Title: libraries/AP_Scripting/lua/src/lstate.c Pages: 1 -->
<!--zoomable 610 -->

<svg id="main" version="1.1" xmlns="http://www.w3.org/2000/svg" xmlns:xlink="http://www.w3.org/1999/xlink" xml:space="preserve" onload="init(evt)">
<style type="text/css"><![CDATA[
.node, .edge {opacity: 0.7;}
.node.selected, .edge.selected {opacity: 1;}
.edge:hover path { stroke: red; }
.edge:hover polygon { stroke: red; fill: red; }
]]></style>

<defs>
  <circle id="rim" cx="0" cy="0" r="7"/>
  <circle id="rim2" cx="0" cy="0" r="3.5"/>
  <g id="zoomPlus">
    <use xlink:href="#rim" fill="#404040"><set attributeName="fill" to="#808080" begin="zoomplus.mouseover" end="zoomplus.mouseout"/></use>
    <path d="M-4,0h8M0,-4v8" fill="none" stroke="white" stroke-width="1.5" pointer-events="none"/>
  </g>
  <g id="zoomMin">
    <use xlink:href="#rim" fill="#404040"><set attributeName="fill" to="#808080" begin="zoomminus.mouseover" end="zoomminus.mouseout"/></use>
    <path d="M-4,0h8" fill="none" stroke="white" stroke-width="1.5" pointer-events="none"/>
  </g>
  <g id="arrowUp" transform="translate(30 24)">
    <use xlink:href="#rim"/>
    <path pointer-events="none" fill="none" stroke="white" stroke-width="1.5" d="M0,-3.0v7 M-2.5,-0.5L0,-3.0L2.5,-0.5"/>
  </g>
  <g id="arrowRight" transform="rotate(90) translate(36 -43)">
    <use xlink:href="#rim"/>
    <path pointer-events="none" fill="none" stroke="white" stroke-width="1.5" d="M0,-3.0v7 M-2.5,-0.5L0,-3.0L2.5,-0.5"/>
  </g>
  <g id="arrowDown" transform="rotate(180) translate(-30 -48)">
    <use xlink:href="#rim"/>
    <path pointer-events="none" fill="none" stroke="white" stroke-width="1.5" d="M0,-3.0v7 M-2.5,-0.5L0,-3.0L2.5,-0.5"/>
  </g>
  <g id="arrowLeft" transform="rotate(270) translate(-36 17)">
    <use xlink:href="#rim"/>
    <path pointer-events="none" fill="none" stroke="white" stroke-width="1.5" d="M0,-3.0v7 M-2.5,-0.5L0,-3.0L2.5,-0.5"/>
  </g>
  <g id="resetDef">
    <use xlink:href="#rim2" fill="#404040"><set attributeName="fill" to="#808080" begin="reset.mouseover" end="reset.mouseout"/></use>
  </g>
</defs>
<script type="application/ecmascript">
var viewWidth = 864;
var viewHeight = 610;
var sectionId = 'dynsection-0';
</script>
<script type="application/ecmascript" xlink:href="svg.min.js"/>
<svg id="graph" class="graph">
<g id="viewport">
<title>libraries/AP_Scripting/lua/src/lstate.c</title>
<!-- Node1 -->
<g id="Node000001" class="node">
<title>Node1</title>
<g id="a_Node000001"><a xlink:title=" ">
<polygon fill="#999999" stroke="#666666" points="490,-602 370,-602 370,-572 490,-572 490,-602"/>
<text text-anchor="start" x="378" y="-590" font-family="Helvetica,sans-Serif" font-size="10.00">libraries/AP_Scripting</text>
<text text-anchor="middle" x="430" y="-579" font-family="Helvetica,sans-Serif" font-size="10.00">/lua/src/lstate.c</text>
</a>
</g>
</g>
<!-- Node2 -->
<g id="Node000002" class="node">
<title>Node2</title>
<g id="a_Node000002"><a xlink:href="lprefix_8h.html" target="_top" xlink:title=" ">
<polygon fill="white" stroke="#666666" points="82,-426 26,-426 26,-407 82,-407 82,-426"/>
<text text-anchor="middle" x="54" y="-414" font-family="Helvetica,sans-Serif" font-size="10.00">lprefix.h</text>
</a>
</g>
</g>
<!-- Node1&#45;&gt;Node2 -->
<g id="edge1_Node000001_Node000002" class="edge">
<title>Node1&#45;&gt;Node2</title>
<g id="a_edge1_Node000001_Node000002"><a xlink:title=" ">
<path fill="none" stroke="#63b8ff" d="M369.8,-585.42C281,-583.27 120.99,-574.06 80,-536 52.44,-510.41 50.68,-462.86 52.13,-436.44"/>
<polygon fill="#63b8ff" stroke="#63b8ff" points="55.64,-436.48 52.92,-426.24 48.66,-435.94 55.64,-436.48"/>
</a>
</g>
</g>
<!-- Node8 -->
<g id="Node000008" class="node">
<title>Node8</title>
<g id="a_Node000008"><a xlink:title=" ">
<polygon fill="#e0e0e0" stroke="#999999" points="456,-79.5 400,-79.5 400,-60.5 456,-60.5 456,-79.5"/>
<text text-anchor="middle" x="428" y="-67.5" font-family="Helvetica,sans-Serif" font-size="10.00">stddef.h</text>
</a>
</g>
</g>
<!-- Node1&#45;&gt;Node8 -->
<g id="edge11_Node000001_Node000008" class="edge">
<title>Node1&#45;&gt;Node8</title>
<g id="a_edge11_Node000001_Node000008"><a xlink:title=" ">
<path fill="none" stroke="#63b8ff" d="M369.66,-585.43C287.08,-583.22 145.35,-573.85 113,-536 100.96,-521.91 43.14,-548.96 134,-352 157.95,-300.08 303.86,-199.74 309,-195 348.62,-158.44 391.6,-111.71 413.45,-87.39"/>
<polygon fill="#63b8ff" stroke="#63b8ff" points="416.21,-89.56 420.26,-79.77 410.99,-84.89 416.21,-89.56"/>
</a>
</g>
</g>
<!-- Node10 -->
<g id="Node000010" class="node">
<title>Node10</title>
<g id="a_Node000010"><a xlink:href="string_8h.html" target="_top" xlink:title=" ">
<polygon fill="white" stroke="#666666" points="175.5,-536 122.5,-536 122.5,-517 175.5,-517 175.5,-536"/>
<text text-anchor="middle" x="149" y="-524" font-family="Helvetica,sans-Serif" font-size="10.00">string.h</text>
</a>
</g>
</g>
<!-- Node1&#45;&gt;Node10 -->
<g id="edge12_Node000001_Node000010" class="edge">
<title>Node1&#45;&gt;Node10</title>
<g id="a_edge12_Node000001_Node000010"><a xlink:title=" ">
<path fill="none" stroke="#63b8ff" d="M369.72,-573.45C313.8,-561.81 232.38,-544.86 185.65,-535.13"/>
<polygon fill="#63b8ff" stroke="#63b8ff" points="186.17,-531.66 175.67,-533.05 184.75,-538.52 186.17,-531.66"/>
</a>
</g>
</g>
<!-- Node11 -->
<g id="Node000011" class="node">
<title>Node11</title>
<g id="a_Node000011"><a xlink:href="lua_8h.html" target="_top" xlink:title=" ">
<polygon fill="white" stroke="#666666" points="545.5,-195 504.5,-195 504.5,-176 545.5,-176 545.5,-195"/>
<text text-anchor="middle" x="525" y="-183" font-family="Helvetica,sans-Serif" font-size="10.00">lua.h</text>
</a>
</g>
</g>
<!-- Node1&#45;&gt;Node11 -->
<g id="edge13_Node000001_Node000011" class="edge">
<title>Node1&#45;&gt;Node11</title>
<g id="a_edge13_Node000001_Node000011"><a xlink:title=" ">
<path fill="none" stroke="#63b8ff" d="M490.06,-582.02C538.19,-576.74 606.16,-564.48 659,-536 694.55,-516.84 724,-512.89 724,-472.5 724,-472.5 724,-472.5 724,-415.5 724,-387.68 588.46,-249.8 541.1,-202.48"/>
<polygon fill="#63b8ff" stroke="#63b8ff" points="543.36,-199.79 533.81,-195.21 538.42,-204.75 543.36,-199.79"/>
</a>
</g>
</g>
<!-- Node16 -->
<g id="Node000016" class="node">
<title>Node16</title>
<g id="a_Node000016"><a xlink:href="lapi_8h.html" target="_top" xlink:title=" ">
<polygon fill="white" stroke="#666666" points="694,-481 650,-481 650,-462 694,-462 694,-481"/>
<text text-anchor="middle" x="672" y="-469" font-family="Helvetica,sans-Serif" font-size="10.00">lapi.h</text>
</a>
</g>
</g>
<!-- Node1&#45;&gt;Node16 -->
<g id="edge21_Node000001_Node000016" class="edge">
<title>Node1&#45;&gt;Node16</title>
<g id="a_edge21_Node000001_Node000016"><a xlink:title=" ">
<path fill="none" stroke="#63b8ff" d="M490.43,-583.91C534.64,-579.59 594,-567.71 636,-536 650.83,-524.81 660.48,-505.6 666.02,-491.24"/>
<polygon fill="#63b8ff" stroke="#63b8ff" points="669.46,-492 669.48,-481.41 662.86,-489.68 669.46,-492"/>
</a>
</g>
</g>
<!-- Node18 -->
<g id="Node000018" class="node">
<title>Node18</title>
<g id="a_Node000018"><a xlink:href="lstate_8h.html" target="_top" xlink:title=" ">
<polygon fill="white" stroke="#666666" points="451.5,-426 398.5,-426 398.5,-407 451.5,-407 451.5,-426"/>
<text text-anchor="middle" x="425" y="-414" font-family="Helvetica,sans-Serif" font-size="10.00">lstate.h</text>
</a>
</g>
</g>
<!-- Node1&#45;&gt;Node18 -->
<g id="edge56_Node000001_Node000018" class="edge">
<title>Node1&#45;&gt;Node18</title>
<g id="a_edge56_Node000001_Node000018"><a xlink:title=" ">
<path fill="none" stroke="#63b8ff" d="M429.58,-571.92C428.68,-541.65 426.57,-470.35 425.56,-436.27"/>
<polygon fill="#63b8ff" stroke="#63b8ff" points="429.05,-436.15 425.26,-426.25 422.06,-436.35 429.05,-436.15"/>
</a>
</g>
</g>
<!-- Node20 -->
<g id="Node000020" class="node">
<title>Node20</title>
<g id="a_Node000020"><a xlink:href="ltm_8h.html" target="_top" xlink:title=" ">
<polygon fill="white" stroke="#666666" points="332,-371 290,-371 290,-352 332,-352 332,-371"/>
<text text-anchor="middle" x="311" y="-359" font-family="Helvetica,sans-Serif" font-size="10.00">ltm.h</text>
</a>
</g>
</g>
<!-- Node1&#45;&gt;Node20 -->
<g id="edge63_Node000001_Node000020" class="edge">
<title>Node1&#45;&gt;Node20</title>
<g id="a_edge63_Node000001_Node000020"><a xlink:title=" ">
<path fill="none" stroke="#63b8ff" d="M424.06,-571.99C414.07,-548.75 392.95,-500.93 372,-462 355.99,-432.25 334.96,-399.05 322.24,-379.51"/>
<polygon fill="#63b8ff" stroke="#63b8ff" points="325.13,-377.54 316.72,-371.09 319.28,-381.37 325.13,-377.54"/>
</a>
</g>
</g>
<!-- Node22 -->
<g id="Node000022" class="node">
<title>Node22</title>
<g id="a_Node000022"><a xlink:href="lmem_8h.html" target="_top" xlink:title=" ">
<polygon fill="white" stroke="#666666" points="794,-316 740,-316 740,-297 794,-297 794,-316"/>
<text text-anchor="middle" x="767" y="-304" font-family="Helvetica,sans-Serif" font-size="10.00">lmem.h</text>
</a>
</g>
</g>
<!-- Node1&#45;&gt;Node22 -->
<g id="edge55_Node000001_Node000022" class="edge">
<title>Node1&#45;&gt;Node22</title>
<g id="a_edge55_Node000001_Node000022"><a xlink:title=" ">
<path fill="none" stroke="#63b8ff" d="M490.29,-583.26C568.98,-578.52 701.04,-566.21 738,-536 761.36,-516.91 762,-502.67 762,-472.5 762,-472.5 762,-472.5 762,-415.5 762,-384.16 764.13,-347.75 765.61,-326.22"/>
<polygon fill="#63b8ff" stroke="#63b8ff" points="769.1,-326.4 766.33,-316.17 762.12,-325.9 769.1,-326.4"/>
</a>
</g>
</g>
<!-- Node24 -->
<g id="Node000024" class="node">
<title>Node24</title>
<g id="a_Node000024"><a xlink:href="ldebug_8h.html" target="_top" xlink:title=" ">
<polygon fill="white" stroke="#666666" points="517.5,-536 458.5,-536 458.5,-517 517.5,-517 517.5,-536"/>
<text text-anchor="middle" x="488" y="-524" font-family="Helvetica,sans-Serif" font-size="10.00">ldebug.h</text>
</a>
</g>
</g>
<!-- Node1&#45;&gt;Node24 -->
<g id="edge41_Node000001_Node000024" class="edge">
<title>Node1&#45;&gt;Node24</title>
<g id="a_edge41_Node000001_Node000024"><a xlink:title=" ">
<path fill="none" stroke="#63b8ff" d="M444.04,-571.84C452.55,-563.26 463.41,-552.3 472.22,-543.42"/>
<polygon fill="#63b8ff" stroke="#63b8ff" points="474.75,-545.83 479.31,-536.27 469.78,-540.9 474.75,-545.83"/>
</a>
</g>
</g>
<!-- Node25 -->
<g id="Node000025" class="node">
<title>Node25</title>
<g id="a_Node000025"><a xlink:href="ldo_8h.html" target="_top" xlink:title=" ">
<polygon fill="white" stroke="#666666" points="538.5,-481 497.5,-481 497.5,-462 538.5,-462 538.5,-481"/>
<text text-anchor="middle" x="518" y="-469" font-family="Helvetica,sans-Serif" font-size="10.00">ldo.h</text>
</a>
</g>
</g>
<!-- Node1&#45;&gt;Node25 -->
<g id="edge43_Node000001_Node000025" class="edge">
<title>Node1&#45;&gt;Node25</title>
<g id="a_edge43_Node000001_Node000025"><a xlink:title=" ">
<path fill="none" stroke="#63b8ff" d="M480.12,-571.94C497.78,-564.31 515.77,-552.87 526,-536 534.28,-522.36 530.75,-504.04 526.06,-490.58"/>
<polygon fill="#63b8ff" stroke="#63b8ff" points="529.2,-489.01 522.25,-481.02 522.7,-491.6 529.2,-489.01"/>
</a>
</g>
</g>
<!-- Node26 -->
<g id="Node000026" class="node">
<title>Node26</title>
<g id="a_Node000026"><a xlink:href="lfunc_8h.html" target="_top" xlink:title=" ">
<polygon fill="white" stroke="#666666" points="658,-426 608,-426 608,-407 658,-407 658,-426"/>
<text text-anchor="middle" x="633" y="-414" font-family="Helvetica,sans-Serif" font-size="10.00">lfunc.h</text>
</a>
</g>
</g>
<!-- Node1&#45;&gt;Node26 -->
<g id="edge47_Node000001_Node000026" class="edge">
<title>Node1&#45;&gt;Node26</title>
<g id="a_edge47_Node000001_Node000026"><a xlink:title=" ">
<path fill="none" stroke="#63b8ff" d="M490.16,-572.79C514.74,-565.13 542.22,-553.45 563,-536 595.67,-508.58 616.81,-461.78 626.62,-435.97"/>
<polygon fill="#63b8ff" stroke="#63b8ff" points="630,-436.9 630.13,-426.3 623.43,-434.51 630,-436.9"/>
</a>
</g>
</g>
<!-- Node27 -->
<g id="Node000027" class="node">
<title>Node27</title>
<g id="a_Node000027"><a xlink:href="lgc_8h.html" target="_top" xlink:title=" ">
<polygon fill="white" stroke="#666666" points="254,-481 214,-481 214,-462 254,-462 254,-481"/>
<text text-anchor="middle" x="234" y="-469" font-family="Helvetica,sans-Serif" font-size="10.00">lgc.h</text>
</a>
</g>
</g>
<!-- Node1&#45;&gt;Node27 -->
<g id="edge49_Node000001_Node000027" class="edge">
<title>Node1&#45;&gt;Node27</title>
<g id="a_edge49_Node000001_Node000027"><a xlink:title=" ">
<path fill="none" stroke="#63b8ff" d="M369.87,-580.96C334.47,-575.14 290.92,-562.68 261,-536 248.02,-524.42 241.08,-505.55 237.5,-491.39"/>
<polygon fill="#63b8ff" stroke="#63b8ff" points="240.84,-490.29 235.3,-481.26 234,-491.78 240.84,-490.29"/>
</a>
</g>
</g>
<!-- Node28 -->
<g id="Node000028" class="node">
<title>Node28</title>
<g id="a_Node000028"><a xlink:href="llex_8h.html" target="_top" xlink:title=" ">
<polygon fill="white" stroke="#666666" points="590,-426 546,-426 546,-407 590,-407 590,-426"/>
<text text-anchor="middle" x="568" y="-414" font-family="Helvetica,sans-Serif" font-size="10.00">llex.h</text>
</a>
</g>
</g>
<!-- Node1&#45;&gt;Node28 -->
<g id="edge52_Node000001_Node000028" class="edge">
<title>Node1&#45;&gt;Node28</title>
<g id="a_edge52_Node000001_Node000028"><a xlink:title=" ">
<path fill="none" stroke="#63b8ff" d="M488.52,-571.94C508.49,-564.39 529.22,-553 543,-536 566.42,-507.1 569.41,-461.56 569.02,-436.17"/>
<polygon fill="#63b8ff" stroke="#63b8ff" points="572.52,-435.93 568.67,-426.06 565.52,-436.17 572.52,-435.93"/>
</a>
</g>
</g>
<!-- Node29 -->
<g id="Node000029" class="node">
<title>Node29</title>
<g id="a_Node000029"><a xlink:href="lstring_8h.html" target="_top" xlink:title=" ">
<polygon fill="white" stroke="#666666" points="326,-536 270,-536 270,-517 326,-517 326,-536"/>
<text text-anchor="middle" x="298" y="-524" font-family="Helvetica,sans-Serif" font-size="10.00">lstring.h</text>
</a>
</g>
</g>
<!-- Node1&#45;&gt;Node29 -->
<g id="edge57_Node000001_Node000029" class="edge">
<title>Node1&#45;&gt;Node29</title>
<g id="a_edge57_Node000001_Node000029"><a xlink:title=" ">
<path fill="none" stroke="#63b8ff" d="M398.38,-571.99C376.65,-562.36 348.03,-549.67 326.91,-540.31"/>
<polygon fill="#63b8ff" stroke="#63b8ff" points="328.05,-536.99 317.49,-536.14 325.22,-543.39 328.05,-536.99"/>
</a>
</g>
</g>
<!-- Node30 -->
<g id="Node000030" class="node">
<title>Node30</title>
<g id="a_Node000030"><a xlink:href="ltable_8h.html" target="_top" xlink:title=" ">
<polygon fill="white" stroke="#666666" points="363.5,-481 310.5,-481 310.5,-462 363.5,-462 363.5,-481"/>
<text text-anchor="middle" x="337" y="-469" font-family="Helvetica,sans-Serif" font-size="10.00">ltable.h</text>
</a>
</g>
</g>
<!-- Node1&#45;&gt;Node30 -->
<g id="edge61_Node000001_Node000030" class="edge">
<title>Node1&#45;&gt;Node30</title>
<g id="a_edge61_Node000001_Node000030"><a xlink:title=" ">
<path fill="none" stroke="#63b8ff" d="M413.1,-571.58C402.42,-562.04 388.67,-548.95 378,-536 366.03,-521.47 354.6,-503.29 346.87,-490.11"/>
<polygon fill="#63b8ff" stroke="#63b8ff" points="349.74,-488.08 341.72,-481.15 343.67,-491.56 349.74,-488.08"/>
</a>
</g>
</g>
<!-- Node31 -->
<g id="Node000031" class="node">
<title>Node31</title>
<g id="a_Node000031"><a xlink:href="lauxlib_8h.html" target="_top" xlink:title=" ">
<polygon fill="white" stroke="#666666" points="384.5,-255.5 325.5,-255.5 325.5,-236.5 384.5,-236.5 384.5,-255.5"/>
<text text-anchor="middle" x="355" y="-243.5" font-family="Helvetica,sans-Serif" font-size="10.00">lauxlib.h</text>
</a>
</g>
</g>
<!-- Node1&#45;&gt;Node31 -->
<g id="edge64_Node000001_Node000031" class="edge">
<title>Node1&#45;&gt;Node31</title>
<g id="a_edge64_Node000001_Node000031"><a xlink:title=" ">
<path fill="none" stroke="#63b8ff" d="M369.85,-577.34C287.03,-561.64 148,-520.02 148,-417.5 148,-417.5 148,-417.5 148,-360.5 148,-322.14 258.66,-279.2 318.16,-258.88"/>
<polygon fill="#63b8ff" stroke="#63b8ff" points="319.58,-262.1 327.94,-255.59 317.34,-255.46 319.58,-262.1"/>
</a>
</g>
</g>
<!-- Node32 -->
<g id="Node000032" class="node">
<title>Node32</title>
<g id="a_Node000032"><a xlink:href="time_8h.html" target="_top" xlink:title=" ">
<polygon fill="white" stroke="#666666" points="838,-536 790,-536 790,-517 838,-517 838,-536"/>
<text text-anchor="middle" x="814" y="-524" font-family="Helvetica,sans-Serif" font-size="10.00">time.h</text>
</a>
</g>
</g>
<!-- Node1&#45;&gt;Node32 -->
<g id="edge68_Node000001_Node000032" class="edge">
<title>Node1&#45;&gt;Node32</title>
<g id="a_edge68_Node000001_Node000032"><a xlink:title=" ">
<path fill="none" stroke="#63b8ff" d="M490.23,-578.72C559.44,-570.02 676.31,-554.32 776,-536 777.27,-535.77 778.57,-535.52 779.87,-535.26"/>
<polygon fill="#63b8ff" stroke="#63b8ff" points="780.85,-538.63 789.93,-533.17 779.43,-531.78 780.85,-538.63"/>
</a>
</g>
</g>
<!-- Node3 -->
<g id="Node000003" class="node">
<title>Node3</title>
<g id="a_Node000003"><a xlink:href="posix__compat_8h.html" target="_top" xlink:title=" ">
<polygon fill="white" stroke="#666666" points="206.5,-261 89.5,-261 89.5,-231 206.5,-231 206.5,-261"/>
<text text-anchor="start" x="97.5" y="-249" font-family="Helvetica,sans-Serif" font-size="10.00">AP_Filesystem/posix</text>
<text text-anchor="middle" x="148" y="-238" font-family="Helvetica,sans-Serif" font-size="10.00">_compat.h</text>
</a>
</g>
</g>
<!-- Node2&#45;&gt;Node3 -->
<g id="edge2_Node000002_Node000003" class="edge">
<title>Node2&#45;&gt;Node3</title>
<g id="a_edge2_Node000002_Node000003"><a xlink:title=" ">
<path fill="none" stroke="#63b8ff" d="M55.63,-406.85C59.77,-386.41 72.1,-334.05 96,-297 102.93,-286.25 112.6,-276.13 121.73,-267.83"/>
<polygon fill="#63b8ff" stroke="#63b8ff" points="124.28,-270.25 129.53,-261.05 119.68,-264.97 124.28,-270.25"/>
</a>
</g>
</g>
<!-- Node4 -->
<g id="Node000004" class="node">
<title>Node4</title>
<g id="a_Node000004"><a xlink:title=" ">
<polygon fill="#e0e0e0" stroke="#999999" points="152,-195 80,-195 80,-176 152,-176 152,-195"/>
<text text-anchor="middle" x="116" y="-183" font-family="Helvetica,sans-Serif" font-size="10.00">sys/types.h</text>
</a>
</g>
</g>
<!-- Node3&#45;&gt;Node4 -->
<g id="edge3_Node000003_Node000004" class="edge">
<title>Node3&#45;&gt;Node4</title>
<g id="a_edge3_Node000003_Node000004"><a xlink:title=" ">
<path fill="none" stroke="#63b8ff" d="M140.25,-230.84C135.85,-222.78 130.29,-212.62 125.6,-204.06"/>
<polygon fill="#63b8ff" stroke="#63b8ff" points="128.66,-202.36 120.8,-195.27 122.52,-205.72 128.66,-202.36"/>
</a>
</g>
</g>
<!-- Node5 -->
<g id="Node000005" class="node">
<title>Node5</title>
<g id="a_Node000005"><a xlink:href="stdio_8h.html" target="_top" xlink:title=" ">
<polygon fill="white" stroke="#666666" points="300,-195 250,-195 250,-176 300,-176 300,-195"/>
<text text-anchor="middle" x="275" y="-183" font-family="Helvetica,sans-Serif" font-size="10.00">stdio.h</text>
</a>
</g>
</g>
<!-- Node3&#45;&gt;Node5 -->
<g id="edge4_Node000003_Node000005" class="edge">
<title>Node3&#45;&gt;Node5</title>
<g id="a_edge4_Node000003_Node000005"><a xlink:title=" ">
<path fill="none" stroke="#63b8ff" d="M178.42,-230.99C199.23,-221.4 226.62,-208.79 246.91,-199.44"/>
<polygon fill="#63b8ff" stroke="#63b8ff" points="248.63,-202.5 256.24,-195.14 245.7,-196.14 248.63,-202.5"/>
</a>
</g>
</g>
<!-- Node7 -->
<g id="Node000007" class="node">
<title>Node7</title>
<g id="a_Node000007"><a xlink:title=" ">
<polygon fill="#e0e0e0" stroke="#999999" points="261.5,-140 208.5,-140 208.5,-121 261.5,-121 261.5,-140"/>
<text text-anchor="middle" x="235" y="-128" font-family="Helvetica,sans-Serif" font-size="10.00">stdint.h</text>
</a>
</g>
</g>
<!-- Node3&#45;&gt;Node7 -->
<g id="edge10_Node000003_Node000007" class="edge">
<title>Node3&#45;&gt;Node7</title>
<g id="a_edge10_Node000003_Node000007"><a xlink:title=" ">
<path fill="none" stroke="#63b8ff" d="M162.38,-230.7C171.81,-221.01 184.18,-207.69 194,-195 205.52,-180.11 217,-161.97 224.87,-148.9"/>
<polygon fill="#63b8ff" stroke="#63b8ff" points="228.04,-150.41 230.13,-140.03 222.02,-146.85 228.04,-150.41"/>
</a>
</g>
</g>
<!-- Node3&#45;&gt;Node8 -->
<g id="edge8_Node000003_Node000008" class="edge">
<title>Node3&#45;&gt;Node8</title>
<g id="a_edge8_Node000003_Node000008"><a xlink:title=" ">
<path fill="none" stroke="#63b8ff" d="M152.08,-230.62C160.7,-201.22 181.43,-135.73 199,-121 227.55,-97.06 332.41,-81.79 389.81,-75.03"/>
<polygon fill="#63b8ff" stroke="#63b8ff" points="390.42,-78.48 399.95,-73.87 389.62,-71.53 390.42,-78.48"/>
</a>
</g>
</g>
<!-- Node9 -->
<g id="Node000009" class="node">
<title>Node9</title>
<g id="a_Node000009"><a xlink:title=" ">
<polygon fill="#e0e0e0" stroke="#999999" points="62,-195 0,-195 0,-176 62,-176 62,-195"/>
<text text-anchor="middle" x="31" y="-183" font-family="Helvetica,sans-Serif" font-size="10.00">stdbool.h</text>
</a>
</g>
</g>
<!-- Node3&#45;&gt;Node9 -->
<g id="edge9_Node000003_Node000009" class="edge">
<title>Node3&#45;&gt;Node9</title>
<g id="a_edge9_Node000003_Node000009"><a xlink:title=" ">
<path fill="none" stroke="#63b8ff" d="M119.98,-230.99C100.98,-221.49 76.03,-209.02 57.39,-199.69"/>
<polygon fill="#63b8ff" stroke="#63b8ff" points="58.79,-196.48 48.28,-195.14 55.66,-202.74 58.79,-196.48"/>
</a>
</g>
</g>
<!-- Node6 -->
<g id="Node000006" class="node">
<title>Node6</title>
<g id="a_Node000006"><a xlink:title=" ">
<polygon fill="#e0e0e0" stroke="#999999" points="462,-140 406,-140 406,-121 462,-121 462,-140"/>
<text text-anchor="middle" x="434" y="-128" font-family="Helvetica,sans-Serif" font-size="10.00">stdarg.h</text>
</a>
</g>
</g>
<!-- Node5&#45;&gt;Node6 -->
<g id="edge5_Node000005_Node000006" class="edge">
<title>Node5&#45;&gt;Node6</title>
<g id="a_edge5_Node000005_Node000006"><a xlink:title=" ">
<path fill="none" stroke="#63b8ff" d="M300.19,-176.1C326.79,-167.24 368.9,-153.2 398.78,-143.24"/>
<polygon fill="#63b8ff" stroke="#63b8ff" points="400.02,-146.52 408.4,-140.03 397.8,-139.88 400.02,-146.52"/>
</a>
</g>
</g>
<!-- Node5&#45;&gt;Node7 -->
<g id="edge6_Node000005_Node000007" class="edge">
<title>Node5&#45;&gt;Node7</title>
<g id="a_edge6_Node000005_Node000007"><a xlink:title=" ">
<path fill="none" stroke="#63b8ff" d="M268.39,-175.75C262.74,-168.26 254.46,-157.28 247.55,-148.13"/>
<polygon fill="#63b8ff" stroke="#63b8ff" points="250.3,-145.96 241.48,-140.09 244.71,-150.18 250.3,-145.96"/>
</a>
</g>
</g>
<!-- Node5&#45;&gt;Node8 -->
<g id="edge7_Node000005_Node000008" class="edge">
<title>Node5&#45;&gt;Node8</title>
<g id="a_edge7_Node000005_Node000008"><a xlink:title=" ">
<path fill="none" stroke="#63b8ff" d="M278.26,-175.97C283.76,-162.6 296.05,-136.64 314,-121 335.81,-101.99 365.99,-89.19 389.82,-81.3"/>
<polygon fill="#63b8ff" stroke="#63b8ff" points="391.11,-84.57 399.59,-78.22 389,-77.89 391.11,-84.57"/>
</a>
</g>
</g>
<!-- Node11&#45;&gt;Node6 -->
<g id="edge14_Node000011_Node000006" class="edge">
<title>Node11&#45;&gt;Node6</title>
<g id="a_edge14_Node000011_Node000006"><a xlink:title=" ">
<path fill="none" stroke="#63b8ff" d="M510.38,-175.98C496.14,-167.69 474.25,-154.94 457.55,-145.22"/>
<polygon fill="#63b8ff" stroke="#63b8ff" points="459.29,-142.18 448.89,-140.17 455.77,-148.23 459.29,-142.18"/>
</a>
</g>
</g>
<!-- Node11&#45;&gt;Node8 -->
<g id="edge15_Node000011_Node000008" class="edge">
<title>Node11&#45;&gt;Node8</title>
<g id="a_edge15_Node000011_Node000008"><a xlink:title=" ">
<path fill="none" stroke="#63b8ff" d="M517.68,-175.86C507.31,-163.63 487.74,-140.58 471,-121 461.45,-109.83 450.66,-97.29 442.28,-87.56"/>
<polygon fill="#63b8ff" stroke="#63b8ff" points="444.81,-85.13 435.63,-79.84 439.5,-89.7 444.81,-85.13"/>
</a>
</g>
</g>
<!-- Node12 -->
<g id="Node000012" class="node">
<title>Node12</title>
<g id="a_Node000012"><a xlink:href="luaconf_8h.html" target="_top" xlink:title=" ">
<polygon fill="white" stroke="#666666" points="737.5,-140 676.5,-140 676.5,-121 737.5,-121 737.5,-140"/>
<text text-anchor="middle" x="707" y="-128" font-family="Helvetica,sans-Serif" font-size="10.00">luaconf.h</text>
</a>
</g>
</g>
<!-- Node11&#45;&gt;Node12 -->
<g id="edge16_Node000011_Node000012" class="edge">
<title>Node11&#45;&gt;Node12</title>
<g id="a_edge16_Node000011_Node000012"><a xlink:title=" ">
<path fill="none" stroke="#63b8ff" d="M545.52,-178.52C575.14,-169.9 630.4,-153.81 667.94,-142.87"/>
<polygon fill="#63b8ff" stroke="#63b8ff" points="668.93,-146.23 677.55,-140.08 666.97,-139.51 668.93,-146.23"/>
</a>
</g>
</g>
<!-- Node12&#45;&gt;Node8 -->
<g id="edge18_Node000012_Node000008" class="edge">
<title>Node12&#45;&gt;Node8</title>
<g id="a_edge18_Node000012_Node000008"><a xlink:title=" ">
<path fill="none" stroke="#63b8ff" d="M676.34,-123.07C625.04,-112.31 521.92,-90.69 466.06,-78.98"/>
<polygon fill="#63b8ff" stroke="#63b8ff" points="466.71,-75.54 456.2,-76.91 465.27,-82.39 466.71,-75.54"/>
</a>
</g>
</g>
<!-- Node13 -->
<g id="Node000013" class="node">
<title>Node13</title>
<g id="a_Node000013"><a xlink:title=" ">
<polygon fill="#e0e0e0" stroke="#999999" points="792.5,-79.5 739.5,-79.5 739.5,-60.5 792.5,-60.5 792.5,-79.5"/>
<text text-anchor="middle" x="766" y="-67.5" font-family="Helvetica,sans-Serif" font-size="10.00">limits.h</text>
</a>
</g>
</g>
<!-- Node12&#45;&gt;Node13 -->
<g id="edge17_Node000012_Node000013" class="edge">
<title>Node12&#45;&gt;Node13</title>
<g id="a_edge17_Node000012_Node000013"><a xlink:title=" ">
<path fill="none" stroke="#63b8ff" d="M715.71,-120.87C724.68,-111.97 738.88,-97.89 749.91,-86.95"/>
<polygon fill="#63b8ff" stroke="#63b8ff" points="752.62,-89.19 757.26,-79.67 747.69,-84.22 752.62,-89.19"/>
</a>
</g>
</g>
<!-- Node14 -->
<g id="Node000014" class="node">
<title>Node14</title>
<g id="a_Node000014"><a xlink:href="lua__common__defs_8h.html" target="_top" xlink:title=" ">
<polygon fill="white" stroke="#666666" points="721.5,-85 578.5,-85 578.5,-55 721.5,-55 721.5,-85"/>
<text text-anchor="start" x="586.5" y="-73" font-family="Helvetica,sans-Serif" font-size="10.00">AP_Scripting/lua_common</text>
<text text-anchor="middle" x="650" y="-62" font-family="Helvetica,sans-Serif" font-size="10.00">_defs.h</text>
</a>
</g>
</g>
<!-- Node12&#45;&gt;Node14 -->
<g id="edge19_Node000012_Node000014" class="edge">
<title>Node12&#45;&gt;Node14</title>
<g id="a_edge19_Node000012_Node000014"><a xlink:title=" ">
<path fill="none" stroke="#63b8ff" d="M698.59,-120.87C691.28,-113.37 680.4,-102.2 670.78,-92.33"/>
<polygon fill="#63b8ff" stroke="#63b8ff" points="673.24,-89.83 663.75,-85.11 668.22,-94.72 673.24,-89.83"/>
</a>
</g>
</g>
<!-- Node15 -->
<g id="Node000015" class="node">
<title>Node15</title>
<g id="a_Node000015"><a xlink:href="AP__HAL__Boards_8h.html" target="_top" xlink:title=" ">
<polygon fill="white" stroke="#666666" points="721.5,-19 578.5,-19 578.5,0 721.5,0 721.5,-19"/>
<text text-anchor="middle" x="650" y="-7" font-family="Helvetica,sans-Serif" font-size="10.00">AP_HAL/AP_HAL_Boards.h</text>
</a>
</g>
</g>
<!-- Node14&#45;&gt;Node15 -->
<g id="edge20_Node000014_Node000015" class="edge">
<title>Node14&#45;&gt;Node15</title>
<g id="a_edge20_Node000014_Node000015"><a xlink:title=" ">
<path fill="none" stroke="#63b8ff" d="M650,-54.84C650,-47.21 650,-37.7 650,-29.45"/>
<polygon fill="#63b8ff" stroke="#63b8ff" points="653.5,-29.27 650,-19.27 646.5,-29.27 653.5,-29.27"/>
</a>
</g>
</g>
<!-- Node17 -->
<g id="Node000017" class="node">
<title>Node17</title>
<g id="a_Node000017"><a xlink:href="llimits_8h.html" target="_top" xlink:title=" ">
<polygon fill="white" stroke="#666666" points="708,-255.5 652,-255.5 652,-236.5 708,-236.5 708,-255.5"/>
<text text-anchor="middle" x="680" y="-243.5" font-family="Helvetica,sans-Serif" font-size="10.00">llimits.h</text>
</a>
</g>
</g>
<!-- Node16&#45;&gt;Node17 -->
<g id="edge22_Node000016_Node000017" class="edge">
<title>Node16&#45;&gt;Node17</title>
<g id="a_edge22_Node000016_Node000017"><a xlink:title=" ">
<path fill="none" stroke="#63b8ff" d="M672.31,-461.74C673.49,-428.85 677.66,-312.3 679.32,-266.09"/>
<polygon fill="#63b8ff" stroke="#63b8ff" points="682.82,-266.06 679.68,-255.94 675.82,-265.81 682.82,-266.06"/>
</a>
</g>
</g>
<!-- Node16&#45;&gt;Node18 -->
<g id="edge26_Node000016_Node000018" class="edge">
<title>Node16&#45;&gt;Node18</title>
<g id="a_edge26_Node000016_Node000018"><a xlink:title=" ">
<path fill="none" stroke="#63b8ff" d="M649.64,-465.7C606.89,-456.53 513.2,-436.43 461.34,-425.3"/>
<polygon fill="#63b8ff" stroke="#63b8ff" points="462.06,-421.87 451.55,-423.2 460.59,-428.72 462.06,-421.87"/>
</a>
</g>
</g>
<!-- Node17&#45;&gt;Node8 -->
<g id="edge24_Node000017_Node000008" class="edge">
<title>Node17&#45;&gt;Node8</title>
<g id="a_edge24_Node000017_Node000008"><a xlink:title=" ">
<path fill="none" stroke="#63b8ff" d="M667.5,-236.37C627.11,-208.48 499.78,-120.56 449.1,-85.57"/>
<polygon fill="#63b8ff" stroke="#63b8ff" points="450.79,-82.48 440.57,-79.68 446.81,-88.24 450.79,-82.48"/>
</a>
</g>
</g>
<!-- Node17&#45;&gt;Node11 -->
<g id="edge25_Node000017_Node000011" class="edge">
<title>Node17&#45;&gt;Node11</title>
<g id="a_edge25_Node000017_Node000011"><a xlink:title=" ">
<path fill="none" stroke="#63b8ff" d="M657.46,-236.49C630.46,-226.3 585.11,-209.19 555.12,-197.87"/>
<polygon fill="#63b8ff" stroke="#63b8ff" points="556.18,-194.53 545.58,-194.27 553.7,-201.07 556.18,-194.53"/>
</a>
</g>
</g>
<!-- Node17&#45;&gt;Node13 -->
<g id="edge23_Node000017_Node000013" class="edge">
<title>Node17&#45;&gt;Node13</title>
<g id="a_edge23_Node000017_Node000013"><a xlink:title=" ">
<path fill="none" stroke="#63b8ff" d="M686.89,-236.25C700.27,-218.87 729.96,-178.33 747,-140 754.25,-123.7 759.34,-103.97 762.42,-89.79"/>
<polygon fill="#63b8ff" stroke="#63b8ff" points="765.89,-90.28 764.46,-79.78 759.03,-88.88 765.89,-90.28"/>
</a>
</g>
</g>
<!-- Node18&#45;&gt;Node11 -->
<g id="edge27_Node000018_Node000011" class="edge">
<title>Node18&#45;&gt;Node11</title>
<g id="a_edge27_Node000018_Node000011"><a xlink:title=" ">
<path fill="none" stroke="#63b8ff" d="M429.31,-406.79C437.77,-389.57 457.06,-349.92 472,-316 489.39,-276.51 508.17,-229.48 518.03,-204.38"/>
<polygon fill="#63b8ff" stroke="#63b8ff" points="521.29,-205.64 521.68,-195.05 514.78,-203.09 521.29,-205.64"/>
</a>
</g>
</g>
<!-- Node19 -->
<g id="Node000019" class="node">
<title>Node19</title>
<g id="a_Node000019"><a xlink:href="lobject_8h.html" target="_top" xlink:title=" ">
<polygon fill="white" stroke="#666666" points="463.5,-316 404.5,-316 404.5,-297 463.5,-297 463.5,-316"/>
<text text-anchor="middle" x="434" y="-304" font-family="Helvetica,sans-Serif" font-size="10.00">lobject.h</text>
</a>
</g>
</g>
<!-- Node18&#45;&gt;Node19 -->
<g id="edge28_Node000018_Node000019" class="edge">
<title>Node18&#45;&gt;Node19</title>
<g id="a_edge28_Node000018_Node000019"><a xlink:title=" ">
<path fill="none" stroke="#63b8ff" d="M425.74,-406.66C427.19,-389.17 430.47,-349.8 432.44,-326.27"/>
<polygon fill="#63b8ff" stroke="#63b8ff" points="435.94,-326.41 433.28,-316.16 428.96,-325.83 435.94,-326.41"/>
</a>
</g>
</g>
<!-- Node18&#45;&gt;Node20 -->
<g id="edge32_Node000018_Node000020" class="edge">
<title>Node18&#45;&gt;Node20</title>
<g id="a_edge32_Node000018_Node000020"><a xlink:title=" ">
<path fill="none" stroke="#63b8ff" d="M406.68,-406.98C388.34,-398.46 359.89,-385.23 338.77,-375.41"/>
<polygon fill="#63b8ff" stroke="#63b8ff" points="340.19,-372.21 329.65,-371.17 337.24,-378.56 340.19,-372.21"/>
</a>
</g>
</g>
<!-- Node21 -->
<g id="Node000021" class="node">
<title>Node21</title>
<g id="a_Node000021"><a xlink:href="lzio_8h.html" target="_top" xlink:title=" ">
<polygon fill="white" stroke="#666666" points="581.5,-371 538.5,-371 538.5,-352 581.5,-352 581.5,-371"/>
<text text-anchor="middle" x="560" y="-359" font-family="Helvetica,sans-Serif" font-size="10.00">lzio.h</text>
</a>
</g>
</g>
<!-- Node18&#45;&gt;Node21 -->
<g id="edge34_Node000018_Node000021" class="edge">
<title>Node18&#45;&gt;Node21</title>
<g id="a_edge34_Node000018_Node000021"><a xlink:title=" ">
<path fill="none" stroke="#63b8ff" d="M446.69,-406.98C468.93,-398.25 503.73,-384.59 528.9,-374.71"/>
<polygon fill="#63b8ff" stroke="#63b8ff" points="530.33,-377.91 538.36,-370.99 527.78,-371.39 530.33,-377.91"/>
</a>
</g>
</g>
<!-- Node23 -->
<g id="Node000023" class="node">
<title>Node23</title>
<g id="a_Node000023"><a xlink:title=" ">
<polygon fill="#e0e0e0" stroke="#999999" points="405.5,-371 350.5,-371 350.5,-352 405.5,-352 405.5,-371"/>
<text text-anchor="middle" x="378" y="-359" font-family="Helvetica,sans-Serif" font-size="10.00">signal.h</text>
</a>
</g>
</g>
<!-- Node18&#45;&gt;Node23 -->
<g id="edge40_Node000018_Node000023" class="edge">
<title>Node18&#45;&gt;Node23</title>
<g id="a_edge40_Node000018_Node000023"><a xlink:title=" ">
<path fill="none" stroke="#63b8ff" d="M417.24,-406.75C410.53,-399.18 400.66,-388.05 392.49,-378.84"/>
<polygon fill="#63b8ff" stroke="#63b8ff" points="394.87,-376.25 385.62,-371.09 389.63,-380.89 394.87,-376.25"/>
</a>
</g>
</g>
<!-- Node19&#45;&gt;Node6 -->
<g id="edge29_Node000019_Node000006" class="edge">
<title>Node19&#45;&gt;Node6</title>
<g id="a_edge29_Node000019_Node000006"><a xlink:title=" ">
<path fill="none" stroke="#63b8ff" d="M434,-296.63C434,-269.64 434,-188.03 434,-150.61"/>
<polygon fill="#63b8ff" stroke="#63b8ff" points="437.5,-150.14 434,-140.14 430.5,-150.14 437.5,-150.14"/>
</a>
</g>
</g>
<!-- Node19&#45;&gt;Node11 -->
<g id="edge31_Node000019_Node000011" class="edge">
<title>Node19&#45;&gt;Node11</title>
<g id="a_edge31_Node000019_Node000011"><a xlink:title=" ">
<path fill="none" stroke="#63b8ff" d="M440.54,-296.94C455.49,-277.4 492.36,-229.18 512.08,-203.4"/>
<polygon fill="#63b8ff" stroke="#63b8ff" points="514.98,-205.37 518.27,-195.3 509.41,-201.12 514.98,-205.37"/>
</a>
</g>
</g>
<!-- Node19&#45;&gt;Node17 -->
<g id="edge30_Node000019_Node000017" class="edge">
<title>Node19&#45;&gt;Node17</title>
<g id="a_edge30_Node000019_Node000017"><a xlink:title=" ">
<path fill="none" stroke="#63b8ff" d="M463.67,-298.44C508.29,-287.83 592.66,-267.77 641.81,-256.08"/>
<polygon fill="#63b8ff" stroke="#63b8ff" points="642.82,-259.44 651.74,-253.72 641.2,-252.63 642.82,-259.44"/>
</a>
</g>
</g>
<!-- Node20&#45;&gt;Node19 -->
<g id="edge33_Node000020_Node000019" class="edge">
<title>Node20&#45;&gt;Node19</title>
<g id="a_edge33_Node000020_Node000019"><a xlink:title=" ">
<path fill="none" stroke="#63b8ff" d="M330.76,-351.98C350.73,-343.38 381.8,-329.99 404.65,-320.15"/>
<polygon fill="#63b8ff" stroke="#63b8ff" points="406.08,-323.34 413.88,-316.17 403.31,-316.91 406.08,-323.34"/>
</a>
</g>
</g>
<!-- Node21&#45;&gt;Node11 -->
<g id="edge35_Node000021_Node000011" class="edge">
<title>Node21&#45;&gt;Node11</title>
<g id="a_edge35_Node000021_Node000011"><a xlink:title=" ">
<path fill="none" stroke="#63b8ff" d="M558.22,-351.63C552.76,-324.52 536.23,-242.32 528.75,-205.13"/>
<polygon fill="#63b8ff" stroke="#63b8ff" points="532.14,-204.26 526.74,-195.14 525.28,-205.64 532.14,-204.26"/>
</a>
</g>
</g>
<!-- Node21&#45;&gt;Node22 -->
<g id="edge36_Node000021_Node000022" class="edge">
<title>Node21&#45;&gt;Node22</title>
<g id="a_edge36_Node000021_Node000022"><a xlink:title=" ">
<path fill="none" stroke="#63b8ff" d="M581.76,-354.93C616.93,-345.92 686.68,-328.06 729.84,-317.02"/>
<polygon fill="#63b8ff" stroke="#63b8ff" points="730.85,-320.37 739.67,-314.5 729.11,-313.59 730.85,-320.37"/>
</a>
</g>
</g>
<!-- Node22&#45;&gt;Node8 -->
<g id="edge37_Node000022_Node000008" class="edge">
<title>Node22&#45;&gt;Node8</title>
<g id="a_edge37_Node000022_Node000008"><a xlink:title=" ">
<path fill="none" stroke="#63b8ff" d="M762.81,-296.77C755.3,-281.83 738.34,-251.06 717,-231 638.4,-157.1 519.26,-105.41 461.6,-83.2"/>
<polygon fill="#63b8ff" stroke="#63b8ff" points="462.83,-79.92 452.24,-79.64 460.34,-86.46 462.83,-79.92"/>
</a>
</g>
</g>
<!-- Node22&#45;&gt;Node11 -->
<g id="edge39_Node000022_Node000011" class="edge">
<title>Node22&#45;&gt;Node11</title>
<g id="a_edge39_Node000022_Node000011"><a xlink:title=" ">
<path fill="none" stroke="#63b8ff" d="M739.53,-297.93C713.81,-290.32 674.7,-277.38 643,-261 622.3,-250.3 619.59,-243.62 600,-231 583.3,-220.24 564.01,-208.81 549.17,-200.24"/>
<polygon fill="#63b8ff" stroke="#63b8ff" points="550.55,-196.99 540.14,-195.05 547.07,-203.06 550.55,-196.99"/>
</a>
</g>
</g>
<!-- Node22&#45;&gt;Node17 -->
<g id="edge38_Node000022_Node000017" class="edge">
<title>Node22&#45;&gt;Node17</title>
<g id="a_edge38_Node000022_Node000017"><a xlink:title=" ">
<path fill="none" stroke="#63b8ff" d="M754.16,-296.87C740.28,-287.54 717.93,-272.51 701.39,-261.38"/>
<polygon fill="#63b8ff" stroke="#63b8ff" points="703.14,-258.34 692.89,-255.67 699.24,-264.15 703.14,-258.34"/>
</a>
</g>
</g>
<!-- Node24&#45;&gt;Node18 -->
<g id="edge42_Node000024_Node000018" class="edge">
<title>Node24&#45;&gt;Node18</title>
<g id="a_edge42_Node000024_Node000018"><a xlink:title=" ">
<path fill="none" stroke="#63b8ff" d="M482.84,-516.66C472.46,-498.85 448.84,-458.37 435.21,-435.01"/>
<polygon fill="#63b8ff" stroke="#63b8ff" points="438.11,-433.03 430.05,-426.16 432.07,-436.56 438.11,-433.03"/>
</a>
</g>
</g>
<!-- Node25&#45;&gt;Node18 -->
<g id="edge45_Node000025_Node000018" class="edge">
<title>Node25&#45;&gt;Node18</title>
<g id="a_edge45_Node000025_Node000018"><a xlink:title=" ">
<path fill="none" stroke="#63b8ff" d="M503.06,-461.98C488.5,-453.69 466.13,-440.94 449.07,-431.22"/>
<polygon fill="#63b8ff" stroke="#63b8ff" points="450.64,-428.08 440.21,-426.17 447.17,-434.16 450.64,-428.08"/>
</a>
</g>
</g>
<!-- Node25&#45;&gt;Node19 -->
<g id="edge44_Node000025_Node000019" class="edge">
<title>Node25&#45;&gt;Node19</title>
<g id="a_edge44_Node000025_Node000019"><a xlink:title=" ">
<path fill="none" stroke="#63b8ff" d="M513.48,-461.74C500.21,-435.98 461.12,-360.13 443.19,-325.33"/>
<polygon fill="#63b8ff" stroke="#63b8ff" points="446.23,-323.59 438.54,-316.31 440.01,-326.8 446.23,-323.59"/>
</a>
</g>
</g>
<!-- Node25&#45;&gt;Node21 -->
<g id="edge46_Node000025_Node000021" class="edge">
<title>Node25&#45;&gt;Node21</title>
<g id="a_edge46_Node000025_Node000021"><a xlink:title=" ">
<path fill="none" stroke="#63b8ff" d="M520.08,-461.7C523.14,-449.27 529.33,-425.99 537,-407 540.7,-397.83 545.66,-388.02 550.02,-379.95"/>
<polygon fill="#63b8ff" stroke="#63b8ff" points="553.12,-381.58 554.92,-371.14 547,-378.18 553.12,-381.58"/>
</a>
</g>
</g>
<!-- Node26&#45;&gt;Node19 -->
<g id="edge48_Node000026_Node000019" class="edge">
<title>Node26&#45;&gt;Node19</title>
<g id="a_edge48_Node000026_Node000019"><a xlink:title=" ">
<path fill="none" stroke="#63b8ff" d="M631.91,-406.67C629.73,-392.91 623.52,-366.4 607,-352 569.93,-319.68 512.39,-310.33 473.98,-307.89"/>
<polygon fill="#63b8ff" stroke="#63b8ff" points="473.85,-304.38 463.68,-307.37 473.5,-311.37 473.85,-304.38"/>
</a>
</g>
</g>
<!-- Node27&#45;&gt;Node18 -->
<g id="edge51_Node000027_Node000018" class="edge">
<title>Node27&#45;&gt;Node18</title>
<g id="a_edge51_Node000027_Node000018"><a xlink:title=" ">
<path fill="none" stroke="#63b8ff" d="M254.08,-464.93C285.89,-456.1 348.34,-438.77 388.3,-427.68"/>
<polygon fill="#63b8ff" stroke="#63b8ff" points="389.49,-430.99 398.19,-424.94 387.62,-424.24 389.49,-430.99"/>
</a>
</g>
</g>
<!-- Node27&#45;&gt;Node19 -->
<g id="edge50_Node000027_Node000019" class="edge">
<title>Node27&#45;&gt;Node19</title>
<g id="a_edge50_Node000027_Node000019"><a xlink:title=" ">
<path fill="none" stroke="#63b8ff" d="M233.95,-461.92C234.31,-440.22 238.37,-382.7 270,-352 303.14,-319.84 357.08,-310.37 393.98,-307.87"/>
<polygon fill="#63b8ff" stroke="#63b8ff" points="394.58,-311.34 404.38,-307.31 394.21,-304.35 394.58,-311.34"/>
</a>
</g>
</g>
<!-- Node28&#45;&gt;Node19 -->
<g id="edge53_Node000028_Node000019" class="edge">
<title>Node28&#45;&gt;Node19</title>
<g id="a_edge53_Node000028_Node000019"><a xlink:title=" ">
<path fill="none" stroke="#63b8ff" d="M575.66,-406.9C586.28,-393.89 602.79,-368.95 590,-352 576,-333.45 515.23,-320.33 473.8,-313.34"/>
<polygon fill="#63b8ff" stroke="#63b8ff" points="474.16,-309.85 463.73,-311.7 473.03,-316.76 474.16,-309.85"/>
</a>
</g>
</g>
<!-- Node28&#45;&gt;Node21 -->
<g id="edge54_Node000028_Node000021" class="edge">
<title>Node28&#45;&gt;Node21</title>
<g id="a_edge54_Node000028_Node000021"><a xlink:title=" ">
<path fill="none" stroke="#63b8ff" d="M566.68,-406.75C565.63,-399.8 564.13,-389.85 562.81,-381.13"/>
<polygon fill="#63b8ff" stroke="#63b8ff" points="566.25,-380.45 561.3,-371.09 559.33,-381.5 566.25,-380.45"/>
</a>
</g>
</g>
<!-- Node29&#45;&gt;Node18 -->
<g id="edge60_Node000029_Node000018" class="edge">
<title>Node29&#45;&gt;Node18</title>
<g id="a_edge60_Node000029_Node000018"><a xlink:title=" ">
<path fill="none" stroke="#63b8ff" d="M295.61,-516.7C292.58,-503.43 289.06,-478.15 301,-462 321.17,-434.73 359.58,-424.12 388.33,-420.02"/>
<polygon fill="#63b8ff" stroke="#63b8ff" points="388.93,-423.47 398.43,-418.79 388.08,-416.53 388.93,-423.47"/>
</a>
</g>
</g>
<!-- Node29&#45;&gt;Node19 -->
<g id="edge59_Node000029_Node000019" class="edge">
<title>Node29&#45;&gt;Node19</title>
<g id="a_edge59_Node000029_Node000019"><a xlink:title=" ">
<path fill="none" stroke="#63b8ff" d="M269.85,-520.39C248,-514.78 219.12,-503.41 205,-481 179.19,-440.03 155.48,-433.86 252,-352 292.05,-318.03 353.97,-309.21 394.25,-307.33"/>
<polygon fill="#63b8ff" stroke="#63b8ff" points="394.37,-310.82 404.24,-306.98 394.13,-303.83 394.37,-310.82"/>
</a>
</g>
</g>
<!-- Node29&#45;&gt;Node27 -->
<g id="edge58_Node000029_Node000027" class="edge">
<title>Node29&#45;&gt;Node27</title>
<g id="a_edge58_Node000029_Node000027"><a xlink:title=" ">
<path fill="none" stroke="#63b8ff" d="M287.72,-516.98C278.16,-509.07 263.72,-497.11 252.22,-487.58"/>
<polygon fill="#63b8ff" stroke="#63b8ff" points="254.4,-484.85 244.47,-481.17 249.94,-490.24 254.4,-484.85"/>
</a>
</g>
</g>
<!-- Node30&#45;&gt;Node19 -->
<g id="edge62_Node000030_Node000019" class="edge">
<title>Node30&#45;&gt;Node19</title>
<g id="a_edge62_Node000030_Node000019"><a xlink:title=" ">
<path fill="none" stroke="#63b8ff" d="M326.89,-461.81C304.23,-441.29 253.41,-388.76 281,-352 294.66,-333.8 353.98,-320.61 394.61,-313.51"/>
<polygon fill="#63b8ff" stroke="#63b8ff" points="395.22,-316.96 404.5,-311.84 394.05,-310.05 395.22,-316.96"/>
</a>
</g>
</g>
<!-- Node31&#45;&gt;Node5 -->
<g id="edge66_Node000031_Node000005" class="edge">
<title>Node31&#45;&gt;Node5</title>
<g id="a_edge66_Node000031_Node000005"><a xlink:title=" ">
<path fill="none" stroke="#63b8ff" d="M343.2,-236.37C330.55,-227.12 310.26,-212.28 295.09,-201.19"/>
<polygon fill="#63b8ff" stroke="#63b8ff" points="296.99,-198.24 286.85,-195.17 292.86,-203.9 296.99,-198.24"/>
</a>
</g>
</g>
<!-- Node31&#45;&gt;Node8 -->
<g id="edge65_Node000031_Node000008" class="edge">
<title>Node31&#45;&gt;Node8</title>
<g id="a_edge65_Node000031_Node000008"><a xlink:title=" ">
<path fill="none" stroke="#63b8ff" d="M357.2,-236.32C362.59,-215.72 377.41,-162.52 397,-121 402.43,-109.5 409.91,-97.36 416.16,-87.92"/>
<polygon fill="#63b8ff" stroke="#63b8ff" points="419.15,-89.75 421.88,-79.51 413.36,-85.81 419.15,-89.75"/>
</a>
</g>
</g>
<!-- Node31&#45;&gt;Node11 -->
<g id="edge67_Node000031_Node000011" class="edge">
<title>Node31&#45;&gt;Node11</title>
<g id="a_edge67_Node000031_Node000011"><a xlink:title=" ">
<path fill="none" stroke="#63b8ff" d="M379.72,-236.49C410.18,-226.01 461.92,-208.21 494.73,-196.92"/>
<polygon fill="#63b8ff" stroke="#63b8ff" points="495.94,-200.2 504.26,-193.64 493.67,-193.58 495.94,-200.2"/>
</a>
</g>
</g>
<!-- Node32&#45;&gt;Node32 -->
<g id="edge69_Node000032_Node000032" class="edge">
<title>Node32&#45;&gt;Node32</title>
<g id="a_edge69_Node000032_Node000032"><a xlink:title=" ">
<path fill="none" stroke="#63b8ff" d="M833.88,-536.07C845.33,-538.02 856,-534.83 856,-526.5 856,-520.77 850.96,-517.47 844.08,-516.61"/>
<polygon fill="#63b8ff" stroke="#63b8ff" points="843.76,-513.12 833.88,-516.93 843.98,-520.11 843.76,-513.12"/>
</a>
</g>
</g>
</g>
</svg>

<g id="navigator" transform="translate(0 0)" fill="#404254">
  <rect fill="#f2f5e9" fill-opacity="0.5" stroke="#606060" stroke-width=".5" x="0" y="0" width="60" height="60"/>
  <use id="zoomplus" xlink:href="#zoomPlus" x="17" y="9" onmousedown="handleZoom(evt,'in')"/>
  <use id="zoomminus" xlink:href="#zoomMin" x="42" y="9" onmousedown="handleZoom(evt,'out')"/>
  <use id="reset" xlink:href="#resetDef" x="30" y="36" onmousedown="handleReset()"/>
   <use id="arrowup" xlink:href="#arrowUp" x="0" y="0" onmousedown="handlePan(0,-1)"/>
  <use id="arrowright" xlink:href="#arrowRight" x="0" y="0" onmousedown="handlePan(1,0)"/>
  <use id="arrowdown" xlink:href="#arrowDown" x="0" y="0" onmousedown="handlePan(0,1)"/>
  <use id="arrowleft" xlink:href="#arrowLeft" x="0" y="0" onmousedown="handlePan(-1,0)"/>
</g>
<svg viewBox="0 0 15 15" width="100%" height="30px" preserveAspectRatio="xMaxYMin meet">
 <g id="arrow_out" transform="scale(0.3 0.3)">
  <a xlink:href="lstate_8c__incl_org.svg" target="_base">
   <rect id="button" ry="5" rx="5" y="6" x="6" height="38" width="38"
        fill="#f2f5e9" fill-opacity="0.5" stroke="#606060" stroke-width="1.0"/>
   <path id="arrow"
     d="M 11.500037,31.436501 C 11.940474,20.09759 22.043105,11.32322 32.158766,21.979434 L 37.068811,17.246167 C 37.068811,17.246167 37.088388,32 37.088388,32 L 22.160133,31.978069 C 22.160133,31.978069 26.997745,27.140456 26.997745,27.140456 C 18.528582,18.264221 13.291696,25.230495 11.500037,31.436501 z"
     style="fill:#404040;"/>
  </a>
 </g>
</svg>

<style type='text/css'>
<![CDATA[
[data-mouse-over-selected='false'] { opacity: 0.7; }
[data-mouse-over-selected='true']  { opacity: 1.0; }
]]>
</style>
<script type="application/ecmascript"><![CDATA[
document.addEventListener('DOMContentLoaded', (event) => {
  highlightEdges();
  highlightAdjacentNodes();
});
]]></script>
</svg>
