<?xml version="1.0" encoding="UTF-8" standalone="no"?>
<!DOCTYPE svg PUBLIC "-//W3C//DTD SVG 1.1//EN"
 "http://www.w3.org/Graphics/SVG/1.1/DTD/svg11.dtd">
<!-- Generated by graphviz version 2.43.0 (0)
 -->
<!-- Title: preinit_thread Pages: 1 -->
<svg width="455pt" height="64pt"
 viewBox="0.00 0.00 455.00 64.00" xmlns="http://www.w3.org/2000/svg" xmlns:xlink="http://www.w3.org/1999/xlink">
<g id="graph0" class="graph" transform="scale(1 1) rotate(0) translate(4 60)">
<title>preinit_thread</title>
<!-- Node1 -->
<g id="Node000001" class="node">
<title>Node1</title>
<g id="a_Node000001"><a xlink:title=" ">
<polygon fill="#999999" stroke="#666666" points="447,-37 362,-37 362,-18 447,-18 447,-37"/>
<text text-anchor="middle" x="404.5" y="-25" font-family="Helvetica,sans-Serif" font-size="10.00">preinit_thread</text>
</a>
</g>
</g>
<!-- Node2 -->
<g id="Node000002" class="node">
<title>Node2</title>
<g id="a_Node000002"><a xlink:href="lstate_8c.html#a02f761396ac35439932f4f0a7ff90b31" target="_top" xlink:title=" ">
<polygon fill="white" stroke="#666666" points="322.5,-56 240.5,-56 240.5,-37 322.5,-37 322.5,-56"/>
<text text-anchor="middle" x="281.5" y="-44" font-family="Helvetica,sans-Serif" font-size="10.00">lua_newstate</text>
</a>
</g>
</g>
<!-- Node1&#45;&gt;Node2 -->
<g id="edge1_Node000001_Node000002" class="edge">
<title>Node1&#45;&gt;Node2</title>
<g id="a_edge1_Node000001_Node000002"><a xlink:title=" ">
<path fill="none" stroke="#63b8ff" d="M351.82,-35.61C342.04,-37.15 331.94,-38.74 322.58,-40.21"/>
<polygon fill="#63b8ff" stroke="#63b8ff" points="352.52,-39.05 361.86,-34.04 351.44,-32.13 352.52,-39.05"/>
</a>
</g>
</g>
<!-- Node4 -->
<g id="Node000004" class="node">
<title>Node4</title>
<g id="a_Node000004"><a xlink:href="lstate_8c.html#a9eb2f070b3e3bceeae22abe1788cad52" target="_top" xlink:title=" ">
<polygon fill="white" stroke="#666666" points="326,-19 237,-19 237,0 326,0 326,-19"/>
<text text-anchor="middle" x="281.5" y="-7" font-family="Helvetica,sans-Serif" font-size="10.00">lua_newthread</text>
</a>
</g>
</g>
<!-- Node1&#45;&gt;Node4 -->
<g id="edge4_Node000001_Node000004" class="edge">
<title>Node1&#45;&gt;Node4</title>
<g id="a_edge4_Node000001_Node000004"><a xlink:title=" ">
<path fill="none" stroke="#63b8ff" d="M351.69,-19.79C343.23,-18.53 334.53,-17.24 326.28,-16.01"/>
<polygon fill="#63b8ff" stroke="#63b8ff" points="351.45,-23.3 361.86,-21.31 352.48,-16.37 351.45,-23.3"/>
</a>
</g>
</g>
<!-- Node3 -->
<g id="Node000003" class="node">
<title>Node3</title>
<g id="a_Node000003"><a xlink:href="lstate_8c.html#a8a0fc0aca5367250347c6bb6a788f05f" target="_top" xlink:title=" ">
<polygon fill="white" stroke="#666666" points="191.5,-56 124.5,-56 124.5,-37 191.5,-37 191.5,-56"/>
<text text-anchor="middle" x="158" y="-44" font-family="Helvetica,sans-Serif" font-size="10.00">makeseed</text>
</a>
</g>
</g>
<!-- Node2&#45;&gt;Node3 -->
<g id="edge2_Node000002_Node000003" class="edge">
<title>Node2&#45;&gt;Node3</title>
<g id="a_edge2_Node000002_Node000003"><a xlink:title=" ">
<path fill="none" stroke="#63b8ff" d="M230.17,-39.84C217.21,-39.62 203.6,-39.81 191.79,-40.43"/>
<polygon fill="#63b8ff" stroke="#63b8ff" points="230.29,-43.34 240.38,-40.11 230.48,-36.35 230.29,-43.34"/>
</a>
</g>
</g>
<!-- Node3&#45;&gt;Node2 -->
<g id="edge3_Node000003_Node000002" class="edge">
<title>Node3&#45;&gt;Node2</title>
<g id="a_edge3_Node000003_Node000002"><a xlink:title=" ">
<path fill="none" stroke="#63b8ff" d="M201.98,-52.99C214.47,-53.37 228.07,-53.34 240.38,-52.89"/>
<polygon fill="#63b8ff" stroke="#63b8ff" points="201.93,-49.48 191.79,-52.57 201.64,-56.48 201.93,-49.48"/>
</a>
</g>
</g>
<!-- Node5 -->
<g id="Node000005" class="node">
<title>Node5</title>
<g id="a_Node000005"><a xlink:href="lcorolib_8c.html#ad49772e236781ef7ad88ff8bc980b40b" target="_top" xlink:title=" ">
<polygon fill="white" stroke="#666666" points="201,-19 115,-19 115,0 201,0 201,-19"/>
<text text-anchor="middle" x="158" y="-7" font-family="Helvetica,sans-Serif" font-size="10.00">luaB_cocreate</text>
</a>
</g>
</g>
<!-- Node4&#45;&gt;Node5 -->
<g id="edge5_Node000004_Node000005" class="edge">
<title>Node4&#45;&gt;Node5</title>
<g id="a_edge5_Node000004_Node000005"><a xlink:title=" ">
<path fill="none" stroke="#63b8ff" d="M226.76,-9.5C218.27,-9.5 209.59,-9.5 201.4,-9.5"/>
<polygon fill="#63b8ff" stroke="#63b8ff" points="226.98,-13 236.98,-9.5 226.98,-6 226.98,-13"/>
</a>
</g>
</g>
<!-- Node6 -->
<g id="Node000006" class="node">
<title>Node6</title>
<g id="a_Node000006"><a xlink:href="lcorolib_8c.html#a1c0429e27f504b08e25f437f733edad1" target="_top" xlink:title=" ">
<polygon fill="white" stroke="#666666" points="79,-19 0,-19 0,0 79,0 79,-19"/>
<text text-anchor="middle" x="39.5" y="-7" font-family="Helvetica,sans-Serif" font-size="10.00">luaB_cowrap</text>
</a>
</g>
</g>
<!-- Node5&#45;&gt;Node6 -->
<g id="edge6_Node000005_Node000006" class="edge">
<title>Node5&#45;&gt;Node6</title>
<g id="a_edge6_Node000005_Node000006"><a xlink:title=" ">
<path fill="none" stroke="#63b8ff" d="M104.86,-9.5C96.17,-9.5 87.29,-9.5 79.01,-9.5"/>
<polygon fill="#63b8ff" stroke="#63b8ff" points="104.94,-13 114.94,-9.5 104.94,-6 104.94,-13"/>
</a>
</g>
</g>
</g>
</svg>
