<?xml version="1.0" encoding="UTF-8" standalone="no"?>
<!DOCTYPE svg PUBLIC "-//W3C//DTD SVG 1.1//EN"
 "http://www.w3.org/Graphics/SVG/1.1/DTD/svg11.dtd">
<!-- Generated by graphviz version 2.43.0 (0)
 -->
<!-- Title: libraries/AP_Scripting/lua/src/lstate.h Pages: 1 -->
<svg width="297pt" height="434pt"
 viewBox="0.00 0.00 296.50 434.00" xmlns="http://www.w3.org/2000/svg" xmlns:xlink="http://www.w3.org/1999/xlink">
<g id="graph0" class="graph" transform="scale(1 1) rotate(0) translate(4 430)">
<title>libraries/AP_Scripting/lua/src/lstate.h</title>
<!-- Node1 -->
<g id="Node000001" class="node">
<title>Node1</title>
<g id="a_Node000001"><a xlink:title=" ">
<polygon fill="#999999" stroke="#666666" points="159.5,-426 39.5,-426 39.5,-396 159.5,-396 159.5,-426"/>
<text text-anchor="start" x="47.5" y="-414" font-family="Helvetica,sans-Serif" font-size="10.00">libraries/AP_Scripting</text>
<text text-anchor="middle" x="99.5" y="-403" font-family="Helvetica,sans-Serif" font-size="10.00">/lua/src/lstate.h</text>
</a>
</g>
</g>
<!-- Node2 -->
<g id="Node000002" class="node">
<title>Node2</title>
<g id="a_Node000002"><a xlink:href="lua_8h.html" target="_top" xlink:title=" ">
<polygon fill="white" stroke="#666666" points="147,-195 106,-195 106,-176 147,-176 147,-195"/>
<text text-anchor="middle" x="126.5" y="-183" font-family="Helvetica,sans-Serif" font-size="10.00">lua.h</text>
</a>
</g>
</g>
<!-- Node1&#45;&gt;Node2 -->
<g id="edge1_Node000001_Node000002" class="edge">
<title>Node1&#45;&gt;Node2</title>
<g id="a_edge1_Node000001_Node000002"><a xlink:title=" ">
<path fill="none" stroke="#63b8ff" d="M81.99,-395.68C56.72,-373.15 14.79,-327.71 31.5,-286 46.31,-249.04 82.12,-218.03 105.29,-200.88"/>
<polygon fill="#63b8ff" stroke="#63b8ff" points="107.4,-203.68 113.49,-195.01 103.32,-197.99 107.4,-203.68"/>
</a>
</g>
</g>
<!-- Node9 -->
<g id="Node000009" class="node">
<title>Node9</title>
<g id="a_Node000009"><a xlink:href="lobject_8h.html" target="_top" xlink:title=" ">
<polygon fill="white" stroke="#666666" points="100,-305 41,-305 41,-286 100,-286 100,-305"/>
<text text-anchor="middle" x="70.5" y="-293" font-family="Helvetica,sans-Serif" font-size="10.00">lobject.h</text>
</a>
</g>
</g>
<!-- Node1&#45;&gt;Node9 -->
<g id="edge9_Node000001_Node000009" class="edge">
<title>Node1&#45;&gt;Node9</title>
<g id="a_edge9_Node000001_Node000009"><a xlink:title=" ">
<path fill="none" stroke="#63b8ff" d="M88.02,-395.66C81.17,-386.16 73.12,-373.07 69.5,-360 65.45,-345.37 66.04,-328.11 67.46,-315.28"/>
<polygon fill="#63b8ff" stroke="#63b8ff" points="70.93,-315.71 68.82,-305.33 64,-314.76 70.93,-315.71"/>
</a>
</g>
</g>
<!-- Node11 -->
<g id="Node000011" class="node">
<title>Node11</title>
<g id="a_Node000011"><a xlink:href="ltm_8h.html" target="_top" xlink:title=" ">
<polygon fill="white" stroke="#666666" points="120.5,-360 78.5,-360 78.5,-341 120.5,-341 120.5,-360"/>
<text text-anchor="middle" x="99.5" y="-348" font-family="Helvetica,sans-Serif" font-size="10.00">ltm.h</text>
</a>
</g>
</g>
<!-- Node1&#45;&gt;Node11 -->
<g id="edge16_Node000001_Node000011" class="edge">
<title>Node1&#45;&gt;Node11</title>
<g id="a_edge16_Node000001_Node000011"><a xlink:title=" ">
<path fill="none" stroke="#63b8ff" d="M99.5,-395.84C99.5,-388.21 99.5,-378.7 99.5,-370.45"/>
<polygon fill="#63b8ff" stroke="#63b8ff" points="103,-370.27 99.5,-360.27 96,-370.27 103,-370.27"/>
</a>
</g>
</g>
<!-- Node12 -->
<g id="Node000012" class="node">
<title>Node12</title>
<g id="a_Node000012"><a xlink:href="lzio_8h.html" target="_top" xlink:title=" ">
<polygon fill="white" stroke="#666666" points="182,-360 139,-360 139,-341 182,-341 182,-360"/>
<text text-anchor="middle" x="160.5" y="-348" font-family="Helvetica,sans-Serif" font-size="10.00">lzio.h</text>
</a>
</g>
</g>
<!-- Node1&#45;&gt;Node12 -->
<g id="edge18_Node000001_Node000012" class="edge">
<title>Node1&#45;&gt;Node12</title>
<g id="a_edge18_Node000001_Node000012"><a xlink:title=" ">
<path fill="none" stroke="#63b8ff" d="M114.27,-395.84C123.21,-387.26 134.64,-376.3 143.9,-367.42"/>
<polygon fill="#63b8ff" stroke="#63b8ff" points="146.56,-369.71 151.36,-360.27 141.72,-364.66 146.56,-369.71"/>
</a>
</g>
</g>
<!-- Node14 -->
<g id="Node000014" class="node">
<title>Node14</title>
<g id="a_Node000014"><a xlink:title=" ">
<polygon fill="#e0e0e0" stroke="#999999" points="255,-360 200,-360 200,-341 255,-341 255,-360"/>
<text text-anchor="middle" x="227.5" y="-348" font-family="Helvetica,sans-Serif" font-size="10.00">signal.h</text>
</a>
</g>
</g>
<!-- Node1&#45;&gt;Node14 -->
<g id="edge24_Node000001_Node000014" class="edge">
<title>Node1&#45;&gt;Node14</title>
<g id="a_edge24_Node000001_Node000014"><a xlink:title=" ">
<path fill="none" stroke="#63b8ff" d="M130.16,-395.99C151.23,-386.36 178.99,-373.67 199.47,-364.31"/>
<polygon fill="#63b8ff" stroke="#63b8ff" points="200.96,-367.48 208.6,-360.14 198.05,-361.11 200.96,-367.48"/>
</a>
</g>
</g>
<!-- Node3 -->
<g id="Node000003" class="node">
<title>Node3</title>
<g id="a_Node000003"><a xlink:title=" ">
<polygon fill="#e0e0e0" stroke="#999999" points="76.5,-140 20.5,-140 20.5,-121 76.5,-121 76.5,-140"/>
<text text-anchor="middle" x="48.5" y="-128" font-family="Helvetica,sans-Serif" font-size="10.00">stdarg.h</text>
</a>
</g>
</g>
<!-- Node2&#45;&gt;Node3 -->
<g id="edge2_Node000002_Node000003" class="edge">
<title>Node2&#45;&gt;Node3</title>
<g id="a_edge2_Node000002_Node000003"><a xlink:title=" ">
<path fill="none" stroke="#63b8ff" d="M113.97,-175.98C102.1,-167.92 84.04,-155.65 69.89,-146.03"/>
<polygon fill="#63b8ff" stroke="#63b8ff" points="71.5,-142.9 61.26,-140.17 67.56,-148.69 71.5,-142.9"/>
</a>
</g>
</g>
<!-- Node4 -->
<g id="Node000004" class="node">
<title>Node4</title>
<g id="a_Node000004"><a xlink:title=" ">
<polygon fill="#e0e0e0" stroke="#999999" points="288.5,-79.5 232.5,-79.5 232.5,-60.5 288.5,-60.5 288.5,-79.5"/>
<text text-anchor="middle" x="260.5" y="-67.5" font-family="Helvetica,sans-Serif" font-size="10.00">stddef.h</text>
</a>
</g>
</g>
<!-- Node2&#45;&gt;Node4 -->
<g id="edge3_Node000002_Node000004" class="edge">
<title>Node2&#45;&gt;Node4</title>
<g id="a_edge3_Node000002_Node000004"><a xlink:title=" ">
<path fill="none" stroke="#63b8ff" d="M136.57,-175.97C159.08,-156.91 213.71,-110.63 242.33,-86.39"/>
<polygon fill="#63b8ff" stroke="#63b8ff" points="244.94,-88.76 250.31,-79.63 240.42,-83.42 244.94,-88.76"/>
</a>
</g>
</g>
<!-- Node5 -->
<g id="Node000005" class="node">
<title>Node5</title>
<g id="a_Node000005"><a xlink:href="luaconf_8h.html" target="_top" xlink:title=" ">
<polygon fill="white" stroke="#666666" points="156,-140 95,-140 95,-121 156,-121 156,-140"/>
<text text-anchor="middle" x="125.5" y="-128" font-family="Helvetica,sans-Serif" font-size="10.00">luaconf.h</text>
</a>
</g>
</g>
<!-- Node2&#45;&gt;Node5 -->
<g id="edge4_Node000002_Node000005" class="edge">
<title>Node2&#45;&gt;Node5</title>
<g id="a_edge4_Node000002_Node000005"><a xlink:title=" ">
<path fill="none" stroke="#63b8ff" d="M126.33,-175.75C126.2,-168.8 126.02,-158.85 125.85,-150.13"/>
<polygon fill="#63b8ff" stroke="#63b8ff" points="129.35,-150.02 125.66,-140.09 122.35,-150.15 129.35,-150.02"/>
</a>
</g>
</g>
<!-- Node5&#45;&gt;Node4 -->
<g id="edge6_Node000005_Node000004" class="edge">
<title>Node5&#45;&gt;Node4</title>
<g id="a_edge6_Node000005_Node000004"><a xlink:title=" ">
<path fill="none" stroke="#63b8ff" d="M145.13,-120.99C167.83,-111.16 205.4,-94.88 231.47,-83.58"/>
<polygon fill="#63b8ff" stroke="#63b8ff" points="233.06,-86.7 240.85,-79.52 230.28,-80.28 233.06,-86.7"/>
</a>
</g>
</g>
<!-- Node6 -->
<g id="Node000006" class="node">
<title>Node6</title>
<g id="a_Node000006"><a xlink:title=" ">
<polygon fill="#e0e0e0" stroke="#999999" points="214,-79.5 161,-79.5 161,-60.5 214,-60.5 214,-79.5"/>
<text text-anchor="middle" x="187.5" y="-67.5" font-family="Helvetica,sans-Serif" font-size="10.00">limits.h</text>
</a>
</g>
</g>
<!-- Node5&#45;&gt;Node6 -->
<g id="edge5_Node000005_Node000006" class="edge">
<title>Node5&#45;&gt;Node6</title>
<g id="a_edge5_Node000005_Node000006"><a xlink:title=" ">
<path fill="none" stroke="#63b8ff" d="M134.65,-120.87C144.17,-111.88 159.3,-97.61 170.93,-86.64"/>
<polygon fill="#63b8ff" stroke="#63b8ff" points="173.44,-89.08 178.31,-79.67 168.64,-83.98 173.44,-89.08"/>
</a>
</g>
</g>
<!-- Node7 -->
<g id="Node000007" class="node">
<title>Node7</title>
<g id="a_Node000007"><a xlink:href="lua__common__defs_8h.html" target="_top" xlink:title=" ">
<polygon fill="white" stroke="#666666" points="143,-85 0,-85 0,-55 143,-55 143,-85"/>
<text text-anchor="start" x="8" y="-73" font-family="Helvetica,sans-Serif" font-size="10.00">AP_Scripting/lua_common</text>
<text text-anchor="middle" x="71.5" y="-62" font-family="Helvetica,sans-Serif" font-size="10.00">_defs.h</text>
</a>
</g>
</g>
<!-- Node5&#45;&gt;Node7 -->
<g id="edge7_Node000005_Node000007" class="edge">
<title>Node5&#45;&gt;Node7</title>
<g id="a_edge7_Node000005_Node000007"><a xlink:title=" ">
<path fill="none" stroke="#63b8ff" d="M117.53,-120.87C110.68,-113.44 100.5,-102.42 91.45,-92.62"/>
<polygon fill="#63b8ff" stroke="#63b8ff" points="93.88,-90.09 84.53,-85.11 88.74,-94.84 93.88,-90.09"/>
</a>
</g>
</g>
<!-- Node8 -->
<g id="Node000008" class="node">
<title>Node8</title>
<g id="a_Node000008"><a xlink:href="AP__HAL__Boards_8h.html" target="_top" xlink:title=" ">
<polygon fill="white" stroke="#666666" points="143,-19 0,-19 0,0 143,0 143,-19"/>
<text text-anchor="middle" x="71.5" y="-7" font-family="Helvetica,sans-Serif" font-size="10.00">AP_HAL/AP_HAL_Boards.h</text>
</a>
</g>
</g>
<!-- Node7&#45;&gt;Node8 -->
<g id="edge8_Node000007_Node000008" class="edge">
<title>Node7&#45;&gt;Node8</title>
<g id="a_edge8_Node000007_Node000008"><a xlink:title=" ">
<path fill="none" stroke="#63b8ff" d="M71.5,-54.84C71.5,-47.21 71.5,-37.7 71.5,-29.45"/>
<polygon fill="#63b8ff" stroke="#63b8ff" points="75,-29.27 71.5,-19.27 68,-29.27 75,-29.27"/>
</a>
</g>
</g>
<!-- Node9&#45;&gt;Node2 -->
<g id="edge15_Node000009_Node000002" class="edge">
<title>Node9&#45;&gt;Node2</title>
<g id="a_edge15_Node000009_Node000002"><a xlink:title=" ">
<path fill="none" stroke="#63b8ff" d="M75.08,-285.66C84.28,-267.93 105.12,-227.73 117.26,-204.32"/>
<polygon fill="#63b8ff" stroke="#63b8ff" points="120.51,-205.65 122.01,-195.16 114.3,-202.42 120.51,-205.65"/>
</a>
</g>
</g>
<!-- Node9&#45;&gt;Node3 -->
<g id="edge10_Node000009_Node000003" class="edge">
<title>Node9&#45;&gt;Node3</title>
<g id="a_edge10_Node000009_Node000003"><a xlink:title=" ">
<path fill="none" stroke="#63b8ff" d="M69.32,-285.74C65.87,-260.2 55.78,-185.43 51.03,-150.23"/>
<polygon fill="#63b8ff" stroke="#63b8ff" points="54.49,-149.75 49.69,-140.31 47.56,-150.69 54.49,-149.75"/>
</a>
</g>
</g>
<!-- Node10 -->
<g id="Node000010" class="node">
<title>Node10</title>
<g id="a_Node000010"><a xlink:href="llimits_8h.html" target="_top" xlink:title=" ">
<polygon fill="white" stroke="#666666" points="250.5,-250 194.5,-250 194.5,-231 250.5,-231 250.5,-250"/>
<text text-anchor="middle" x="222.5" y="-238" font-family="Helvetica,sans-Serif" font-size="10.00">llimits.h</text>
</a>
</g>
</g>
<!-- Node9&#45;&gt;Node10 -->
<g id="edge11_Node000009_Node000010" class="edge">
<title>Node9&#45;&gt;Node10</title>
<g id="a_edge11_Node000009_Node000010"><a xlink:title=" ">
<path fill="none" stroke="#63b8ff" d="M94.92,-285.98C120.22,-277.16 159.95,-263.31 188.36,-253.41"/>
<polygon fill="#63b8ff" stroke="#63b8ff" points="189.6,-256.68 197.89,-250.08 187.29,-250.07 189.6,-256.68"/>
</a>
</g>
</g>
<!-- Node10&#45;&gt;Node2 -->
<g id="edge14_Node000010_Node000002" class="edge">
<title>Node10&#45;&gt;Node2</title>
<g id="a_edge14_Node000010_Node000002"><a xlink:title=" ">
<path fill="none" stroke="#63b8ff" d="M207.08,-230.98C192.05,-222.69 168.96,-209.94 151.34,-200.22"/>
<polygon fill="#63b8ff" stroke="#63b8ff" points="152.65,-196.94 142.2,-195.17 149.27,-203.07 152.65,-196.94"/>
</a>
</g>
</g>
<!-- Node10&#45;&gt;Node4 -->
<g id="edge13_Node000010_Node000004" class="edge">
<title>Node10&#45;&gt;Node4</title>
<g id="a_edge13_Node000010_Node000004"><a xlink:title=" ">
<path fill="none" stroke="#63b8ff" d="M224.44,-230.91C230.33,-204.78 248.14,-125.79 256.32,-89.54"/>
<polygon fill="#63b8ff" stroke="#63b8ff" points="259.74,-90.3 258.52,-79.77 252.91,-88.76 259.74,-90.3"/>
</a>
</g>
</g>
<!-- Node10&#45;&gt;Node6 -->
<g id="edge12_Node000010_Node000006" class="edge">
<title>Node10&#45;&gt;Node6</title>
<g id="a_edge12_Node000010_Node000006"><a xlink:title=" ">
<path fill="none" stroke="#63b8ff" d="M220.72,-230.91C215.31,-204.89 199.02,-126.47 191.45,-90.01"/>
<polygon fill="#63b8ff" stroke="#63b8ff" points="194.78,-88.85 189.32,-79.77 187.93,-90.28 194.78,-88.85"/>
</a>
</g>
</g>
<!-- Node11&#45;&gt;Node9 -->
<g id="edge17_Node000011_Node000009" class="edge">
<title>Node11&#45;&gt;Node9</title>
<g id="a_edge17_Node000011_Node000009"><a xlink:title=" ">
<path fill="none" stroke="#63b8ff" d="M94.71,-340.75C90.74,-333.49 84.97,-322.95 80.07,-313.98"/>
<polygon fill="#63b8ff" stroke="#63b8ff" points="83.07,-312.18 75.2,-305.09 76.93,-315.54 83.07,-312.18"/>
</a>
</g>
</g>
<!-- Node12&#45;&gt;Node2 -->
<g id="edge19_Node000012_Node000002" class="edge">
<title>Node12&#45;&gt;Node2</title>
<g id="a_edge19_Node000012_Node000002"><a xlink:title=" ">
<path fill="none" stroke="#63b8ff" d="M158.67,-340.74C153.35,-315.2 137.75,-240.43 130.41,-205.23"/>
<polygon fill="#63b8ff" stroke="#63b8ff" points="133.81,-204.38 128.34,-195.31 126.95,-205.81 133.81,-204.38"/>
</a>
</g>
</g>
<!-- Node13 -->
<g id="Node000013" class="node">
<title>Node13</title>
<g id="a_Node000013"><a xlink:href="lmem_8h.html" target="_top" xlink:title=" ">
<polygon fill="white" stroke="#666666" points="229.5,-305 175.5,-305 175.5,-286 229.5,-286 229.5,-305"/>
<text text-anchor="middle" x="202.5" y="-293" font-family="Helvetica,sans-Serif" font-size="10.00">lmem.h</text>
</a>
</g>
</g>
<!-- Node12&#45;&gt;Node13 -->
<g id="edge20_Node000012_Node000013" class="edge">
<title>Node12&#45;&gt;Node13</title>
<g id="a_edge20_Node000012_Node000013"><a xlink:title=" ">
<path fill="none" stroke="#63b8ff" d="M167.44,-340.75C173.37,-333.26 182.07,-322.28 189.32,-313.13"/>
<polygon fill="#63b8ff" stroke="#63b8ff" points="192.23,-315.1 195.69,-305.09 186.74,-310.75 192.23,-315.1"/>
</a>
</g>
</g>
<!-- Node13&#45;&gt;Node2 -->
<g id="edge23_Node000013_Node000002" class="edge">
<title>Node13&#45;&gt;Node2</title>
<g id="a_edge23_Node000013_Node000002"><a xlink:title=" ">
<path fill="none" stroke="#63b8ff" d="M196.28,-285.66C183.64,-267.69 154.75,-226.64 138.38,-203.38"/>
<polygon fill="#63b8ff" stroke="#63b8ff" points="141.21,-201.32 132.59,-195.16 135.49,-205.35 141.21,-201.32"/>
</a>
</g>
</g>
<!-- Node13&#45;&gt;Node4 -->
<g id="edge21_Node000013_Node000004" class="edge">
<title>Node13&#45;&gt;Node4</title>
<g id="a_edge21_Node000013_Node000004"><a xlink:title=" ">
<path fill="none" stroke="#63b8ff" d="M220.81,-285.86C234.23,-278.43 251.44,-266.32 259.5,-250 285.7,-196.92 273.47,-123.74 265.49,-89.75"/>
<polygon fill="#63b8ff" stroke="#63b8ff" points="268.82,-88.66 263.01,-79.81 262.03,-90.36 268.82,-88.66"/>
</a>
</g>
</g>
<!-- Node13&#45;&gt;Node10 -->
<g id="edge22_Node000013_Node000010" class="edge">
<title>Node13&#45;&gt;Node10</title>
<g id="a_edge22_Node000013_Node000010"><a xlink:title=" ">
<path fill="none" stroke="#63b8ff" d="M205.8,-285.75C208.48,-278.65 212.35,-268.4 215.69,-259.56"/>
<polygon fill="#63b8ff" stroke="#63b8ff" points="219,-260.68 219.26,-250.09 212.45,-258.21 219,-260.68"/>
</a>
</g>
</g>
</g>
</svg>
