<?xml version="1.0" encoding="UTF-8" standalone="no"?>
<!DOCTYPE svg PUBLIC "-//W3C//DTD SVG 1.1//EN"
 "http://www.w3.org/Graphics/SVG/1.1/DTD/svg11.dtd">
<!-- Generated by graphviz version 2.43.0 (0)
 -->
<!-- Title: LoadInteger Pages: 1 -->
<svg width="1115pt" height="140pt"
 viewBox="0.00 0.00 1115.00 140.00" xmlns="http://www.w3.org/2000/svg" xmlns:xlink="http://www.w3.org/1999/xlink">
<g id="graph0" class="graph" transform="scale(1 1) rotate(0) translate(4 136)">
<title>LoadInteger</title>
<!-- Node1 -->
<g id="Node000001" class="node">
<title>Node1</title>
<g id="a_Node000001"><a xlink:title=" ">
<polygon fill="#999999" stroke="#666666" points="1107,-57 1033,-57 1033,-38 1107,-38 1107,-57"/>
<text text-anchor="middle" x="1070" y="-45" font-family="Helvetica,sans-Serif" font-size="10.00">LoadInteger</text>
</a>
</g>
</g>
<!-- Node2 -->
<g id="Node000002" class="node">
<title>Node2</title>
<g id="a_Node000002"><a xlink:href="lundump_8c.html#aef0399a03c281a51786c05a14b74b637" target="_top" xlink:title=" ">
<polygon fill="white" stroke="#666666" points="871.5,-75 791.5,-75 791.5,-56 871.5,-56 871.5,-75"/>
<text text-anchor="middle" x="831.5" y="-63" font-family="Helvetica,sans-Serif" font-size="10.00">checkHeader</text>
</a>
</g>
</g>
<!-- Node1&#45;&gt;Node2 -->
<g id="edge1_Node000001_Node000002" class="edge">
<title>Node1&#45;&gt;Node2</title>
<g id="a_edge1_Node000001_Node000002"><a xlink:title=" ">
<path fill="none" stroke="#63b8ff" d="M1022.68,-51.03C978.71,-54.37 913.33,-59.35 871.83,-62.51"/>
<polygon fill="#63b8ff" stroke="#63b8ff" points="1023.12,-54.5 1032.82,-50.25 1022.59,-47.52 1023.12,-54.5"/>
</a>
</g>
</g>
<!-- Node14 -->
<g id="Node000014" class="node">
<title>Node14</title>
<g id="a_Node000014"><a xlink:href="lundump_8c.html#a1854dcefef99e90599873a480c49da5f" target="_top" xlink:title=" ">
<polygon fill="white" stroke="#666666" points="997,-38 908,-38 908,-19 997,-19 997,-38"/>
<text text-anchor="middle" x="952.5" y="-26" font-family="Helvetica,sans-Serif" font-size="10.00">LoadConstants</text>
</a>
</g>
</g>
<!-- Node1&#45;&gt;Node14 -->
<g id="edge14_Node000001_Node000014" class="edge">
<title>Node1&#45;&gt;Node14</title>
<g id="a_edge14_Node000001_Node000014"><a xlink:title=" ">
<path fill="none" stroke="#63b8ff" d="M1022.75,-39.89C1014.36,-38.51 1005.62,-37.07 997.3,-35.71"/>
<polygon fill="#63b8ff" stroke="#63b8ff" points="1022.34,-43.37 1032.77,-41.54 1023.47,-36.46 1022.34,-43.37"/>
</a>
</g>
</g>
<!-- Node3 -->
<g id="Node000003" class="node">
<title>Node3</title>
<g id="a_Node000003"><a xlink:href="lundump_8c.html#a74a2100c0aa2009b2ddb4c84f971d8b8" target="_top" xlink:title=" ">
<polygon fill="white" stroke="#666666" points="755,-75 671,-75 671,-56 755,-56 755,-75"/>
<text text-anchor="middle" x="713" y="-63" font-family="Helvetica,sans-Serif" font-size="10.00">luaU_undump</text>
</a>
</g>
</g>
<!-- Node2&#45;&gt;Node3 -->
<g id="edge2_Node000002_Node000003" class="edge">
<title>Node2&#45;&gt;Node3</title>
<g id="a_edge2_Node000002_Node000003"><a xlink:title=" ">
<path fill="none" stroke="#63b8ff" d="M781.34,-65.5C772.64,-65.5 763.66,-65.5 755.21,-65.5"/>
<polygon fill="#63b8ff" stroke="#63b8ff" points="781.38,-69 791.38,-65.5 781.38,-62 781.38,-69"/>
</a>
</g>
</g>
<!-- Node4 -->
<g id="Node000004" class="node">
<title>Node4</title>
<g id="a_Node000004"><a xlink:href="ldo_8c.html#a14df0fa118ab124dfcc6d227bdd38ca5" target="_top" xlink:title=" ">
<polygon fill="white" stroke="#666666" points="635,-75 579,-75 579,-56 635,-56 635,-75"/>
<text text-anchor="middle" x="607" y="-63" font-family="Helvetica,sans-Serif" font-size="10.00">f_parser</text>
</a>
</g>
</g>
<!-- Node3&#45;&gt;Node4 -->
<g id="edge3_Node000003_Node000004" class="edge">
<title>Node3&#45;&gt;Node4</title>
<g id="a_edge3_Node000003_Node000004"><a xlink:title=" ">
<path fill="none" stroke="#63b8ff" d="M660.9,-65.5C651.97,-65.5 643.02,-65.5 635.08,-65.5"/>
<polygon fill="#63b8ff" stroke="#63b8ff" points="660.9,-69 670.9,-65.5 660.9,-62 660.9,-69"/>
</a>
</g>
</g>
<!-- Node5 -->
<g id="Node000005" class="node">
<title>Node5</title>
<g id="a_Node000005"><a xlink:href="ldo_8c.html#a451f5a18e45a63e1da2eed7d8a2060f5" target="_top" xlink:title=" ">
<polygon fill="white" stroke="#666666" points="543,-75 421,-75 421,-56 543,-56 543,-75"/>
<text text-anchor="middle" x="482" y="-63" font-family="Helvetica,sans-Serif" font-size="10.00">luaD_protectedparser</text>
</a>
</g>
</g>
<!-- Node4&#45;&gt;Node5 -->
<g id="edge4_Node000004_Node000005" class="edge">
<title>Node4&#45;&gt;Node5</title>
<g id="a_edge4_Node000004_Node000005"><a xlink:title=" ">
<path fill="none" stroke="#63b8ff" d="M568.57,-65.5C560.54,-65.5 551.85,-65.5 543.2,-65.5"/>
<polygon fill="#63b8ff" stroke="#63b8ff" points="568.7,-69 578.7,-65.5 568.7,-62 568.7,-69"/>
</a>
</g>
</g>
<!-- Node6 -->
<g id="Node000006" class="node">
<title>Node6</title>
<g id="a_Node000006"><a xlink:href="lapi_8c.html#aa7a94c45f3eec251e5b258d7482ffe87" target="_top" xlink:title=" ">
<polygon fill="white" stroke="#666666" points="385,-75 327,-75 327,-56 385,-56 385,-75"/>
<text text-anchor="middle" x="356" y="-63" font-family="Helvetica,sans-Serif" font-size="10.00">lua_load</text>
</a>
</g>
</g>
<!-- Node5&#45;&gt;Node6 -->
<g id="edge5_Node000005_Node000006" class="edge">
<title>Node5&#45;&gt;Node6</title>
<g id="a_edge5_Node000005_Node000006"><a xlink:title=" ">
<path fill="none" stroke="#63b8ff" d="M410.61,-65.5C401.62,-65.5 392.88,-65.5 385.15,-65.5"/>
<polygon fill="#63b8ff" stroke="#63b8ff" points="410.82,-69 420.82,-65.5 410.82,-62 410.82,-69"/>
</a>
</g>
</g>
<!-- Node7 -->
<g id="Node000007" class="node">
<title>Node7</title>
<g id="a_Node000007"><a xlink:href="luac_8c.html#a5cce7bb7467b6b600a673aa8b50d99d3" target="_top" xlink:title=" ">
<polygon fill="white" stroke="#666666" points="271.5,-132 212.5,-132 212.5,-113 271.5,-113 271.5,-132"/>
<text text-anchor="middle" x="242" y="-120" font-family="Helvetica,sans-Serif" font-size="10.00">combine</text>
</a>
</g>
</g>
<!-- Node6&#45;&gt;Node7 -->
<g id="edge6_Node000006_Node000007" class="edge">
<title>Node6&#45;&gt;Node7</title>
<g id="a_edge6_Node000006_Node000007"><a xlink:title=" ">
<path fill="none" stroke="#63b8ff" d="M327.57,-79.74C316.26,-85.58 303.02,-92.4 291,-98.5 281.53,-103.31 270.98,-108.59 262.18,-112.98"/>
<polygon fill="#63b8ff" stroke="#63b8ff" points="329.27,-82.8 336.55,-75.09 326.06,-76.58 329.27,-82.8"/>
</a>
</g>
</g>
<!-- Node10 -->
<g id="Node000010" class="node">
<title>Node10</title>
<g id="a_Node000010"><a xlink:href="lbaselib_8c.html#a4a9a3613fcf80fe033e044f7e19bed69" target="_top" xlink:title=" ">
<polygon fill="white" stroke="#666666" points="149.5,-75 84.5,-75 84.5,-56 149.5,-56 149.5,-75"/>
<text text-anchor="middle" x="117" y="-63" font-family="Helvetica,sans-Serif" font-size="10.00">luaB_load</text>
</a>
</g>
</g>
<!-- Node6&#45;&gt;Node10 -->
<g id="edge9_Node000006_Node000010" class="edge">
<title>Node6&#45;&gt;Node10</title>
<g id="a_edge9_Node000006_Node000010"><a xlink:title=" ">
<path fill="none" stroke="#63b8ff" d="M316.64,-65.5C270.27,-65.5 193.09,-65.5 149.85,-65.5"/>
<polygon fill="#63b8ff" stroke="#63b8ff" points="316.88,-69 326.88,-65.5 316.88,-62 316.88,-69"/>
</a>
</g>
</g>
<!-- Node11 -->
<g id="Node000011" class="node">
<title>Node11</title>
<g id="a_Node000011"><a xlink:href="lauxlib_8c.html#a867ca33afe2cb3d07bfc238cbb438f61" target="_top" xlink:title=" ">
<polygon fill="white" stroke="#666666" points="291,-56 193,-56 193,-37 291,-37 291,-56"/>
<text text-anchor="middle" x="242" y="-44" font-family="Helvetica,sans-Serif" font-size="10.00">luaL_loadbufferx</text>
</a>
</g>
</g>
<!-- Node6&#45;&gt;Node11 -->
<g id="edge10_Node000006_Node000011" class="edge">
<title>Node6&#45;&gt;Node11</title>
<g id="a_edge10_Node000006_Node000011"><a xlink:title=" ">
<path fill="none" stroke="#63b8ff" d="M316.73,-59.01C308.55,-57.62 299.81,-56.14 291.3,-54.69"/>
<polygon fill="#63b8ff" stroke="#63b8ff" points="316.29,-62.48 326.74,-60.71 317.46,-55.58 316.29,-62.48"/>
</a>
</g>
</g>
<!-- Node12 -->
<g id="Node000012" class="node">
<title>Node12</title>
<g id="a_Node000012"><a xlink:href="lauxlib_8c.html#a6ac3b2572d5ce635c4617aed2a0eb649" target="_top" xlink:title=" ">
<polygon fill="white" stroke="#666666" points="284,-19 200,-19 200,0 284,0 284,-19"/>
<text text-anchor="middle" x="242" y="-7" font-family="Helvetica,sans-Serif" font-size="10.00">luaL_loadfilex</text>
</a>
</g>
</g>
<!-- Node6&#45;&gt;Node12 -->
<g id="edge12_Node000006_Node000012" class="edge">
<title>Node6&#45;&gt;Node12</title>
<g id="a_edge12_Node000006_Node000012"><a xlink:title=" ">
<path fill="none" stroke="#63b8ff" d="M332.18,-50.61C320.2,-43.14 305.11,-34.27 291,-27.5 284.66,-24.46 277.66,-21.58 271.02,-19.05"/>
<polygon fill="#63b8ff" stroke="#63b8ff" points="330.34,-53.59 340.66,-55.99 334.09,-47.68 330.34,-53.59"/>
</a>
</g>
</g>
<!-- Node8 -->
<g id="Node000008" class="node">
<title>Node8</title>
<g id="a_Node000008"><a xlink:href="luac_8c.html#aa0f8bc082ef913cb0a4df437bf5f5019" target="_top" xlink:title=" ">
<polygon fill="white" stroke="#666666" points="140.5,-132 93.5,-132 93.5,-113 140.5,-113 140.5,-132"/>
<text text-anchor="middle" x="117" y="-120" font-family="Helvetica,sans-Serif" font-size="10.00">pmain</text>
</a>
</g>
</g>
<!-- Node7&#45;&gt;Node8 -->
<g id="edge7_Node000007_Node000008" class="edge">
<title>Node7&#45;&gt;Node8</title>
<g id="a_edge7_Node000007_Node000008"><a xlink:title=" ">
<path fill="none" stroke="#63b8ff" d="M202.27,-122.5C181.99,-122.5 157.86,-122.5 140.63,-122.5"/>
<polygon fill="#63b8ff" stroke="#63b8ff" points="202.47,-126 212.47,-122.5 202.47,-119 202.47,-126"/>
</a>
</g>
</g>
<!-- Node9 -->
<g id="Node000009" class="node">
<title>Node9</title>
<g id="a_Node000009"><a xlink:href="luac_8c.html#a0ddf1224851353fc92bfbff6f499fa97" target="_top" xlink:title=" ">
<polygon fill="white" stroke="#666666" points="41,-132 0,-132 0,-113 41,-113 41,-132"/>
<text text-anchor="middle" x="20.5" y="-120" font-family="Helvetica,sans-Serif" font-size="10.00">main</text>
</a>
</g>
</g>
<!-- Node8&#45;&gt;Node9 -->
<g id="edge8_Node000008_Node000009" class="edge">
<title>Node8&#45;&gt;Node9</title>
<g id="a_edge8_Node000008_Node000009"><a xlink:title=" ">
<path fill="none" stroke="#63b8ff" d="M82.94,-122.5C69.04,-122.5 53.34,-122.5 41.29,-122.5"/>
<polygon fill="#63b8ff" stroke="#63b8ff" points="83.12,-126 93.12,-122.5 83.12,-119 83.12,-126"/>
</a>
</g>
</g>
<!-- Node11&#45;&gt;Node10 -->
<g id="edge11_Node000011_Node000010" class="edge">
<title>Node11&#45;&gt;Node10</title>
<g id="a_edge11_Node000011_Node000010"><a xlink:title=" ">
<path fill="none" stroke="#63b8ff" d="M182.83,-55.49C171.47,-57.24 159.96,-59.02 149.85,-60.58"/>
<polygon fill="#63b8ff" stroke="#63b8ff" points="183.39,-58.94 192.74,-53.95 182.32,-52.02 183.39,-58.94"/>
</a>
</g>
</g>
<!-- Node13 -->
<g id="Node000013" class="node">
<title>Node13</title>
<g id="a_Node000013"><a xlink:href="lbaselib_8c.html#aeb4cb83db820979bbdd7710109b52957" target="_top" xlink:title=" ">
<polygon fill="white" stroke="#666666" points="157,-19 77,-19 77,0 157,0 157,-19"/>
<text text-anchor="middle" x="117" y="-7" font-family="Helvetica,sans-Serif" font-size="10.00">luaB_loadfile</text>
</a>
</g>
</g>
<!-- Node12&#45;&gt;Node13 -->
<g id="edge13_Node000012_Node000013" class="edge">
<title>Node12&#45;&gt;Node13</title>
<g id="a_edge13_Node000012_Node000013"><a xlink:title=" ">
<path fill="none" stroke="#63b8ff" d="M189.54,-9.5C178.77,-9.5 167.57,-9.5 157.32,-9.5"/>
<polygon fill="#63b8ff" stroke="#63b8ff" points="189.7,-13 199.7,-9.5 189.7,-6 189.7,-13"/>
</a>
</g>
</g>
<!-- Node15 -->
<g id="Node000015" class="node">
<title>Node15</title>
<g id="a_Node000015"><a xlink:href="lundump_8c.html#adb80904e547ca41184ece3351e61f05d" target="_top" xlink:title=" ">
<polygon fill="white" stroke="#666666" points="872,-38 791,-38 791,-19 872,-19 872,-38"/>
<text text-anchor="middle" x="831.5" y="-26" font-family="Helvetica,sans-Serif" font-size="10.00">LoadFunction</text>
</a>
</g>
</g>
<!-- Node14&#45;&gt;Node15 -->
<g id="edge15_Node000014_Node000015" class="edge">
<title>Node14&#45;&gt;Node15</title>
<g id="a_edge15_Node000014_Node000015"><a xlink:title=" ">
<path fill="none" stroke="#63b8ff" d="M897.85,-28.5C889.22,-28.5 880.42,-28.5 872.19,-28.5"/>
<polygon fill="#63b8ff" stroke="#63b8ff" points="897.86,-32 907.86,-28.5 897.86,-25 897.86,-32"/>
</a>
</g>
</g>
<!-- Node15&#45;&gt;Node3 -->
<g id="edge18_Node000015_Node000003" class="edge">
<title>Node15&#45;&gt;Node3</title>
<g id="a_edge18_Node000015_Node000003"><a xlink:title=" ">
<path fill="none" stroke="#63b8ff" d="M790.82,-41.1C775.61,-45.93 758.5,-51.37 744.3,-55.88"/>
<polygon fill="#63b8ff" stroke="#63b8ff" points="792.03,-44.39 800.5,-38.03 789.91,-37.72 792.03,-44.39"/>
</a>
</g>
</g>
<!-- Node16 -->
<g id="Node000016" class="node">
<title>Node16</title>
<g id="a_Node000016"><a xlink:href="lundump_8c.html#a0b7e793e9d9afdc0da0bb8540a3f556b" target="_top" xlink:title=" ">
<polygon fill="white" stroke="#666666" points="748.5,-38 677.5,-38 677.5,-19 748.5,-19 748.5,-38"/>
<text text-anchor="middle" x="713" y="-26" font-family="Helvetica,sans-Serif" font-size="10.00">LoadProtos</text>
</a>
</g>
</g>
<!-- Node15&#45;&gt;Node16 -->
<g id="edge16_Node000015_Node000016" class="edge">
<title>Node15&#45;&gt;Node16</title>
<g id="a_edge16_Node000015_Node000016"><a xlink:title=" ">
<path fill="none" stroke="#63b8ff" d="M780.55,-21.81C769.76,-21.65 758.58,-21.81 748.53,-22.27"/>
<polygon fill="#63b8ff" stroke="#63b8ff" points="780.65,-25.31 790.73,-22.06 780.82,-18.32 780.65,-25.31"/>
</a>
</g>
</g>
<!-- Node16&#45;&gt;Node15 -->
<g id="edge17_Node000016_Node000015" class="edge">
<title>Node16&#45;&gt;Node15</title>
<g id="a_edge17_Node000016_Node000015"><a xlink:title=" ">
<path fill="none" stroke="#63b8ff" d="M758.79,-35.09C769.31,-35.35 780.45,-35.3 790.73,-34.94"/>
<polygon fill="#63b8ff" stroke="#63b8ff" points="758.65,-31.58 748.53,-34.73 758.4,-38.58 758.65,-31.58"/>
</a>
</g>
</g>
</g>
</svg>
