<?xml version="1.0" encoding="UTF-8" standalone="no"?>
<!DOCTYPE svg PUBLIC "-//W3C//DTD SVG 1.1//EN"
 "http://www.w3.org/Graphics/SVG/1.1/DTD/svg11.dtd">
<!-- Generated by graphviz version 2.43.0 (0)
 -->
<!-- Title: luaV_tointeger Pages: 1 -->
<svg width="440pt" height="101pt"
 viewBox="0.00 0.00 440.00 101.00" xmlns="http://www.w3.org/2000/svg" xmlns:xlink="http://www.w3.org/1999/xlink">
<g id="graph0" class="graph" transform="scale(1 1) rotate(0) translate(4 97)">
<title>luaV_tointeger</title>
<!-- Node1 -->
<g id="Node000001" class="node">
<title>Node1</title>
<g id="a_Node000001"><a xlink:title=" ">
<polygon fill="#999999" stroke="#666666" points="88,-74 0,-74 0,-55 88,-55 88,-74"/>
<text text-anchor="middle" x="44" y="-62" font-family="Helvetica,sans-Serif" font-size="10.00">luaV_tointeger</text>
</a>
</g>
</g>
<!-- Node2 -->
<g id="Node000002" class="node">
<title>Node2</title>
<g id="a_Node000002"><a xlink:href="lobject_8c.html#ab1956c979ca7ff39b07534390714505d" target="_top" xlink:title=" ">
<polygon fill="white" stroke="#666666" points="209,-74 124,-74 124,-55 209,-55 209,-74"/>
<text text-anchor="middle" x="166.5" y="-62" font-family="Helvetica,sans-Serif" font-size="10.00">luaO_str2num</text>
</a>
</g>
</g>
<!-- Node1&#45;&gt;Node2 -->
<g id="edge1_Node000001_Node000002" class="edge">
<title>Node1&#45;&gt;Node2</title>
<g id="a_edge1_Node000001_Node000002"><a xlink:title=" ">
<path fill="none" stroke="#63b8ff" d="M88.16,-64.5C96.42,-64.5 105.15,-64.5 113.64,-64.5"/>
<polygon fill="#63b8ff" stroke="#63b8ff" points="113.85,-68 123.85,-64.5 113.85,-61 113.85,-68"/>
</a>
</g>
</g>
<!-- Node3 -->
<g id="Node000003" class="node">
<title>Node3</title>
<g id="a_Node000003"><a xlink:href="lobject_8c.html#ab9a2de418e32a9bbe8b90fc7f8e77f35" target="_top" xlink:title=" ">
<polygon fill="white" stroke="#666666" points="298,-93 248,-93 248,-74 298,-74 298,-93"/>
<text text-anchor="middle" x="273" y="-81" font-family="Helvetica,sans-Serif" font-size="10.00">l_str2d</text>
</a>
</g>
</g>
<!-- Node2&#45;&gt;Node3 -->
<g id="edge2_Node000002_Node000003" class="edge">
<title>Node2&#45;&gt;Node3</title>
<g id="a_edge2_Node000002_Node000003"><a xlink:title=" ">
<path fill="none" stroke="#63b8ff" d="M209.1,-72.06C218.7,-73.81 228.79,-75.64 238.02,-77.32"/>
<polygon fill="#63b8ff" stroke="#63b8ff" points="237.52,-80.79 247.99,-79.13 238.78,-73.9 237.52,-80.79"/>
</a>
</g>
</g>
<!-- Node5 -->
<g id="Node000005" class="node">
<title>Node5</title>
<g id="a_Node000005"><a xlink:href="lobject_8c.html#a76769041a6821b04a5590286d3fc3534" target="_top" xlink:title=" ">
<polygon fill="white" stroke="#666666" points="301,-56 245,-56 245,-37 301,-37 301,-56"/>
<text text-anchor="middle" x="273" y="-44" font-family="Helvetica,sans-Serif" font-size="10.00">l_str2int</text>
</a>
</g>
</g>
<!-- Node2&#45;&gt;Node5 -->
<g id="edge4_Node000002_Node000005" class="edge">
<title>Node2&#45;&gt;Node5</title>
<g id="a_edge4_Node000002_Node000005"><a xlink:title=" ">
<path fill="none" stroke="#63b8ff" d="M209.1,-57.33C217.68,-55.86 226.66,-54.31 235.06,-52.86"/>
<polygon fill="#63b8ff" stroke="#63b8ff" points="235.69,-56.31 244.95,-51.16 234.5,-49.41 235.69,-56.31"/>
</a>
</g>
</g>
<!-- Node4 -->
<g id="Node000004" class="node">
<title>Node4</title>
<g id="a_Node000004"><a xlink:href="lobject_8c.html#a69b3b4d76ad64977dd5b9c7960f9f332" target="_top" xlink:title=" ">
<polygon fill="white" stroke="#666666" points="416.5,-93 352.5,-93 352.5,-74 416.5,-74 416.5,-93"/>
<text text-anchor="middle" x="384.5" y="-81" font-family="Helvetica,sans-Serif" font-size="10.00">l_str2dloc</text>
</a>
</g>
</g>
<!-- Node3&#45;&gt;Node4 -->
<g id="edge3_Node000003_Node000004" class="edge">
<title>Node3&#45;&gt;Node4</title>
<g id="a_edge3_Node000003_Node000004"><a xlink:title=" ">
<path fill="none" stroke="#63b8ff" d="M298.03,-83.5C311.02,-83.5 327.43,-83.5 342.38,-83.5"/>
<polygon fill="#63b8ff" stroke="#63b8ff" points="342.45,-87 352.45,-83.5 342.45,-80 342.45,-87"/>
</a>
</g>
</g>
<!-- Node6 -->
<g id="Node000006" class="node">
<title>Node6</title>
<g id="a_Node000006"><a xlink:href="lobject_8c.html#a3234b1ccb9cfbbd0892dcc6190a45876" target="_top" xlink:title=" ">
<polygon fill="white" stroke="#666666" points="406,-56 363,-56 363,-37 406,-37 406,-56"/>
<text text-anchor="middle" x="384.5" y="-44" font-family="Helvetica,sans-Serif" font-size="10.00">isneg</text>
</a>
</g>
</g>
<!-- Node5&#45;&gt;Node6 -->
<g id="edge5_Node000005_Node000006" class="edge">
<title>Node5&#45;&gt;Node6</title>
<g id="a_edge5_Node000005_Node000006"><a xlink:title=" ">
<path fill="none" stroke="#63b8ff" d="M301.07,-46.5C316.76,-46.5 336.56,-46.5 352.83,-46.5"/>
<polygon fill="#63b8ff" stroke="#63b8ff" points="352.93,-50 362.93,-46.5 352.93,-43 352.93,-50"/>
</a>
</g>
</g>
<!-- Node7 -->
<g id="Node000007" class="node">
<title>Node7</title>
<g id="a_Node000007"><a xlink:href="lobject_8c.html#ab73b1325bd3b1a6f9affc08fb46c07ec" target="_top" xlink:title=" ">
<polygon fill="white" stroke="#666666" points="432,-19 337,-19 337,0 432,0 432,-19"/>
<text text-anchor="middle" x="384.5" y="-7" font-family="Helvetica,sans-Serif" font-size="10.00">luaO_hexavalue</text>
</a>
</g>
</g>
<!-- Node5&#45;&gt;Node7 -->
<g id="edge6_Node000005_Node000007" class="edge">
<title>Node5&#45;&gt;Node7</title>
<g id="a_edge6_Node000005_Node000007"><a xlink:title=" ">
<path fill="none" stroke="#63b8ff" d="M301.07,-37.35C314.45,-32.83 330.82,-27.3 345.44,-22.36"/>
<polygon fill="#63b8ff" stroke="#63b8ff" points="346.86,-25.57 355.22,-19.06 344.62,-18.94 346.86,-25.57"/>
</a>
</g>
</g>
</g>
</svg>
