<?xml version="1.0" encoding="UTF-8" standalone="no"?>
<!DOCTYPE svg PUBLIC "-//W3C//DTD SVG 1.1//EN"
 "http://www.w3.org/Graphics/SVG/1.1/DTD/svg11.dtd">
<!-- Generated by graphviz version 2.43.0 (0)
 -->
<!-- Title: mat_inverse Pages: 1 -->
<!--zoomable 267 -->

<svg id="main" version="1.1" xmlns="http://www.w3.org/2000/svg" xmlns:xlink="http://www.w3.org/1999/xlink" xml:space="preserve" onload="init(evt)">
<style type="text/css"><![CDATA[
.node, .edge {opacity: 0.7;}
.node.selected, .edge.selected {opacity: 1;}
.edge:hover path { stroke: red; }
.edge:hover polygon { stroke: red; fill: red; }
]]></style>

<defs>
  <circle id="rim" cx="0" cy="0" r="7"/>
  <circle id="rim2" cx="0" cy="0" r="3.5"/>
  <g id="zoomPlus">
    <use xlink:href="#rim" fill="#404040"><set attributeName="fill" to="#808080" begin="zoomplus.mouseover" end="zoomplus.mouseout"/></use>
    <path d="M-4,0h8M0,-4v8" fill="none" stroke="white" stroke-width="1.5" pointer-events="none"/>
  </g>
  <g id="zoomMin">
    <use xlink:href="#rim" fill="#404040"><set attributeName="fill" to="#808080" begin="zoomminus.mouseover" end="zoomminus.mouseout"/></use>
    <path d="M-4,0h8" fill="none" stroke="white" stroke-width="1.5" pointer-events="none"/>
  </g>
  <g id="arrowUp" transform="translate(30 24)">
    <use xlink:href="#rim"/>
    <path pointer-events="none" fill="none" stroke="white" stroke-width="1.5" d="M0,-3.0v7 M-2.5,-0.5L0,-3.0L2.5,-0.5"/>
  </g>
  <g id="arrowRight" transform="rotate(90) translate(36 -43)">
    <use xlink:href="#rim"/>
    <path pointer-events="none" fill="none" stroke="white" stroke-width="1.5" d="M0,-3.0v7 M-2.5,-0.5L0,-3.0L2.5,-0.5"/>
  </g>
  <g id="arrowDown" transform="rotate(180) translate(-30 -48)">
    <use xlink:href="#rim"/>
    <path pointer-events="none" fill="none" stroke="white" stroke-width="1.5" d="M0,-3.0v7 M-2.5,-0.5L0,-3.0L2.5,-0.5"/>
  </g>
  <g id="arrowLeft" transform="rotate(270) translate(-36 17)">
    <use xlink:href="#rim"/>
    <path pointer-events="none" fill="none" stroke="white" stroke-width="1.5" d="M0,-3.0v7 M-2.5,-0.5L0,-3.0L2.5,-0.5"/>
  </g>
  <g id="resetDef">
    <use xlink:href="#rim2" fill="#404040"><set attributeName="fill" to="#808080" begin="reset.mouseover" end="reset.mouseout"/></use>
  </g>
</defs>
<script type="application/ecmascript">
var viewWidth = 567;
var viewHeight = 267;
var sectionId = 'dynsection-8';
</script>
<script type="application/ecmascript" xlink:href="svg.min.js"/>
<svg id="graph" class="graph">
<g id="viewport">
<title>mat_inverse</title>
<!-- Node1 -->
<g id="Node000001" class="node">
<title>Node1</title>
<g id="a_Node000001"><a xlink:title=" ">
<polygon fill="#999999" stroke="#666666" points="77,-204 0,-204 0,-185 77,-185 77,-204"/>
<text text-anchor="middle" x="38.5" y="-192" font-family="Helvetica,sans-Serif" font-size="10.00">mat_inverse</text>
</a>
</g>
</g>
<!-- Node2 -->
<g id="Node000002" class="node">
<title>Node2</title>
<g id="a_Node000002"><a xlink:href="matrix__alg_8cpp.html#ac38e485d85519ce0fc475a189d314929" target="_top" xlink:title=" ">
<polygon fill="white" stroke="#666666" points="191,-241 120,-241 120,-222 191,-222 191,-241"/>
<text text-anchor="middle" x="155.5" y="-229" font-family="Helvetica,sans-Serif" font-size="10.00">inverse3x3</text>
</a>
</g>
</g>
<!-- Node1&#45;&gt;Node2 -->
<g id="edge1_Node000001_Node000002" class="edge">
<title>Node1&#45;&gt;Node2</title>
<g id="a_edge1_Node000001_Node000002"><a xlink:title=" ">
<path fill="none" stroke="#63b8ff" d="M69.12,-204.03C83.09,-208.52 99.97,-213.95 115.01,-218.8"/>
<polygon fill="#63b8ff" stroke="#63b8ff" points="113.99,-222.14 124.59,-221.88 116.14,-215.48 113.99,-222.14"/>
</a>
</g>
</g>
<!-- Node4 -->
<g id="Node000004" class="node">
<title>Node4</title>
<g id="a_Node000004"><a xlink:href="matrix__alg_8cpp.html#ab6b63ea7e0c4f2874e8307c17f1ae347" target="_top" xlink:title=" ">
<polygon fill="white" stroke="#666666" points="191,-204 120,-204 120,-185 191,-185 191,-204"/>
<text text-anchor="middle" x="155.5" y="-192" font-family="Helvetica,sans-Serif" font-size="10.00">inverse4x4</text>
</a>
</g>
</g>
<!-- Node1&#45;&gt;Node4 -->
<g id="edge4_Node000001_Node000004" class="edge">
<title>Node1&#45;&gt;Node4</title>
<g id="a_edge4_Node000001_Node000004"><a xlink:title=" ">
<path fill="none" stroke="#63b8ff" d="M77.16,-194.5C87.58,-194.5 99,-194.5 109.78,-194.5"/>
<polygon fill="#63b8ff" stroke="#63b8ff" points="109.87,-198 119.87,-194.5 109.87,-191 109.87,-198"/>
</a>
</g>
</g>
<!-- Node7 -->
<g id="Node000007" class="node">
<title>Node7</title>
<g id="a_Node000007"><a xlink:href="matrix__alg_8cpp.html#a8ab2815d381457a33f9f6dc550f46697" target="_top" xlink:title=" ">
<polygon fill="white" stroke="#666666" points="198,-93 113,-93 113,-74 198,-74 198,-93"/>
<text text-anchor="middle" x="155.5" y="-81" font-family="Helvetica,sans-Serif" font-size="10.00">mat_inverseN</text>
</a>
</g>
</g>
<!-- Node1&#45;&gt;Node7 -->
<g id="edge8_Node000001_Node000007" class="edge">
<title>Node1&#45;&gt;Node7</title>
<g id="a_edge8_Node000001_Node000007"><a xlink:title=" ">
<path fill="none" stroke="#63b8ff" d="M49.71,-184.65C69.36,-165.68 112.68,-123.87 137.02,-100.38"/>
<polygon fill="#63b8ff" stroke="#63b8ff" points="139.72,-102.63 144.48,-93.17 134.86,-97.6 139.72,-102.63"/>
</a>
</g>
</g>
<!-- Node3 -->
<g id="Node000003" class="node">
<title>Node3</title>
<g id="a_Node000003"><a xlink:href="AP__Math_8h.html#a2a12cce483e9b870da70d30406d82c60" target="_top" xlink:title=" ">
<polygon fill="white" stroke="#666666" points="317.5,-241 266.5,-241 266.5,-222 317.5,-222 317.5,-241"/>
<text text-anchor="middle" x="292" y="-229" font-family="Helvetica,sans-Serif" font-size="10.00">is_zero</text>
</a>
</g>
</g>
<!-- Node2&#45;&gt;Node3 -->
<g id="edge2_Node000002_Node000003" class="edge">
<title>Node2&#45;&gt;Node3</title>
<g id="a_edge2_Node000002_Node000003"><a xlink:title=" ">
<path fill="none" stroke="#63b8ff" d="M191.14,-231.5C211.06,-231.5 236.03,-231.5 256.01,-231.5"/>
<polygon fill="#63b8ff" stroke="#63b8ff" points="256.24,-235 266.24,-231.5 256.24,-228 256.24,-235"/>
</a>
</g>
</g>
<!-- Node3&#45;&gt;Node3 -->
<g id="edge3_Node000003_Node000003" class="edge">
<title>Node3&#45;&gt;Node3</title>
<g id="a_edge3_Node000003_Node000003"><a xlink:title=" ">
<path fill="none" stroke="#63b8ff" d="M271.04,-241.08C260.84,-249.73 267.83,-259 292,-259 307.49,-259 315.92,-255.2 317.3,-250.19"/>
<polygon fill="#63b8ff" stroke="#63b8ff" points="320.42,-248.61 312.96,-241.08 314.1,-251.62 320.42,-248.61"/>
</a>
</g>
</g>
<!-- Node4&#45;&gt;Node3 -->
<g id="edge7_Node000004_Node000003" class="edge">
<title>Node4&#45;&gt;Node3</title>
<g id="a_edge7_Node000004_Node000003"><a xlink:title=" ">
<path fill="none" stroke="#63b8ff" d="M191.14,-204.03C211.25,-209.56 236.49,-216.5 256.56,-222.03"/>
<polygon fill="#63b8ff" stroke="#63b8ff" points="255.67,-225.41 266.24,-224.69 257.53,-218.66 255.67,-225.41"/>
</a>
</g>
</g>
<!-- Node5 -->
<g id="Node000005" class="node">
<title>Node5</title>
<g id="a_Node000005"><a xlink:href="fenv_8h.html#a17587d5bbcdc86d5120c1a5118f358b2" target="_top" xlink:title=" ">
<polygon fill="white" stroke="#666666" points="339.5,-204 244.5,-204 244.5,-185 339.5,-185 339.5,-204"/>
<text text-anchor="middle" x="292" y="-192" font-family="Helvetica,sans-Serif" font-size="10.00">fedisableexcept</text>
</a>
</g>
</g>
<!-- Node4&#45;&gt;Node5 -->
<g id="edge5_Node000004_Node000005" class="edge">
<title>Node4&#45;&gt;Node5</title>
<g id="a_edge5_Node000004_Node000005"><a xlink:title=" ">
<path fill="none" stroke="#63b8ff" d="M191.14,-194.5C204.29,-194.5 219.64,-194.5 234.31,-194.5"/>
<polygon fill="#63b8ff" stroke="#63b8ff" points="234.31,-198 244.31,-194.5 234.31,-191 234.31,-198"/>
</a>
</g>
</g>
<!-- Node6 -->
<g id="Node000006" class="node">
<title>Node6</title>
<g id="a_Node000006"><a xlink:href="fenv_8h.html#a8cf31b76dd8ab03c626d8adf76194155" target="_top" xlink:title=" ">
<polygon fill="white" stroke="#666666" points="338,-167 246,-167 246,-148 338,-148 338,-167"/>
<text text-anchor="middle" x="292" y="-155" font-family="Helvetica,sans-Serif" font-size="10.00">feenableexcept</text>
</a>
</g>
</g>
<!-- Node4&#45;&gt;Node6 -->
<g id="edge6_Node000004_Node000006" class="edge">
<title>Node4&#45;&gt;Node6</title>
<g id="a_edge6_Node000004_Node000006"><a xlink:title=" ">
<path fill="none" stroke="#63b8ff" d="M191.14,-184.97C207.95,-180.35 228.35,-174.73 246.32,-169.79"/>
<polygon fill="#63b8ff" stroke="#63b8ff" points="247.3,-173.15 256.01,-167.12 245.44,-166.4 247.3,-173.15"/>
</a>
</g>
</g>
<!-- Node8 -->
<g id="Node000008" class="node">
<title>Node8</title>
<g id="a_Node000008"><a xlink:href="matrix__alg_8cpp.html#a527fce9ade4ede7e0242bb9942171836" target="_top" xlink:title=" ">
<polygon fill="white" stroke="#666666" points="335.5,-130 248.5,-130 248.5,-111 335.5,-111 335.5,-130"/>
<text text-anchor="middle" x="292" y="-118" font-family="Helvetica,sans-Serif" font-size="10.00">mat_back_sub</text>
</a>
</g>
</g>
<!-- Node7&#45;&gt;Node8 -->
<g id="edge9_Node000007_Node000008" class="edge">
<title>Node7&#45;&gt;Node8</title>
<g id="a_edge9_Node000007_Node000008"><a xlink:title=" ">
<path fill="none" stroke="#63b8ff" d="M191.14,-93.03C207.95,-97.65 228.35,-103.27 246.32,-108.21"/>
<polygon fill="#63b8ff" stroke="#63b8ff" points="245.44,-111.6 256.01,-110.88 247.3,-104.85 245.44,-111.6"/>
</a>
</g>
</g>
<!-- Node9 -->
<g id="Node000009" class="node">
<title>Node9</title>
<g id="a_Node000009"><a xlink:href="matrix__alg_8cpp.html#a99086029b7144d767cfc6b84c7f79660" target="_top" xlink:title=" ">
<polygon fill="white" stroke="#666666" points="342.5,-93 241.5,-93 241.5,-74 342.5,-74 342.5,-93"/>
<text text-anchor="middle" x="292" y="-81" font-family="Helvetica,sans-Serif" font-size="10.00">mat_forward_sub</text>
</a>
</g>
</g>
<!-- Node7&#45;&gt;Node9 -->
<g id="edge10_Node000007_Node000009" class="edge">
<title>Node7&#45;&gt;Node9</title>
<g id="a_edge10_Node000007_Node000009"><a xlink:title=" ">
<path fill="none" stroke="#63b8ff" d="M198.32,-83.5C208.71,-83.5 220.05,-83.5 231.12,-83.5"/>
<polygon fill="#63b8ff" stroke="#63b8ff" points="231.18,-87 241.18,-83.5 231.18,-80 231.18,-87"/>
</a>
</g>
</g>
<!-- Node10 -->
<g id="Node000010" class="node">
<title>Node10</title>
<g id="a_Node000010"><a xlink:href="matrix__alg_8cpp.html#aaf02a0d6412fc35ae429e3e6b6daa9ad" target="_top" xlink:title=" ">
<polygon fill="white" stroke="#666666" points="350,-56 234,-56 234,-37 350,-37 350,-56"/>
<text text-anchor="middle" x="292" y="-44" font-family="Helvetica,sans-Serif" font-size="10.00">mat_LU_decompose</text>
</a>
</g>
</g>
<!-- Node7&#45;&gt;Node10 -->
<g id="edge11_Node000007_Node000010" class="edge">
<title>Node7&#45;&gt;Node10</title>
<g id="a_edge11_Node000007_Node000010"><a xlink:title=" ">
<path fill="none" stroke="#63b8ff" d="M191.14,-73.97C207.95,-69.35 228.35,-63.73 246.32,-58.79"/>
<polygon fill="#63b8ff" stroke="#63b8ff" points="247.3,-62.15 256.01,-56.12 245.44,-55.4 247.3,-62.15"/>
</a>
</g>
</g>
<!-- Node13 -->
<g id="Node000013" class="node">
<title>Node13</title>
<g id="a_Node000013"><a xlink:href="matrix__alg_8cpp.html#a2bfd9a495f3a1121f900d95c2a2aaab6" target="_top" xlink:title=" ">
<polygon fill="white" stroke="#666666" points="481,-19 386,-19 386,0 481,0 481,-19"/>
<text text-anchor="middle" x="433.5" y="-7" font-family="Helvetica,sans-Serif" font-size="10.00">matrix_multiply</text>
</a>
</g>
</g>
<!-- Node7&#45;&gt;Node13 -->
<g id="edge15_Node000007_Node000013" class="edge">
<title>Node7&#45;&gt;Node13</title>
<g id="a_edge15_Node000007_Node000013"><a xlink:title=" ">
<path fill="none" stroke="#63b8ff" d="M165.99,-73.96C179.67,-60.88 206.33,-37.86 234,-27.5 279.56,-10.45 334.95,-6.7 375.62,-6.78"/>
<polygon fill="#63b8ff" stroke="#63b8ff" points="375.6,-10.28 385.63,-6.88 375.67,-3.28 375.6,-10.28"/>
</a>
</g>
</g>
<!-- Node11 -->
<g id="Node000011" class="node">
<title>Node11</title>
<g id="a_Node000011"><a xlink:href="matrix__alg_8cpp.html#a3042d1cfff7a2bfbdaa143de3edf1d56" target="_top" xlink:title=" ">
<polygon fill="white" stroke="#666666" points="466.5,-56 400.5,-56 400.5,-37 466.5,-37 466.5,-56"/>
<text text-anchor="middle" x="433.5" y="-44" font-family="Helvetica,sans-Serif" font-size="10.00">mat_pivot</text>
</a>
</g>
</g>
<!-- Node10&#45;&gt;Node11 -->
<g id="edge12_Node000010_Node000011" class="edge">
<title>Node10&#45;&gt;Node11</title>
<g id="a_edge12_Node000010_Node000011"><a xlink:title=" ">
<path fill="none" stroke="#63b8ff" d="M350.14,-46.5C363.55,-46.5 377.59,-46.5 390.21,-46.5"/>
<polygon fill="#63b8ff" stroke="#63b8ff" points="390.43,-50 400.43,-46.5 390.43,-43 390.43,-50"/>
</a>
</g>
</g>
<!-- Node10&#45;&gt;Node13 -->
<g id="edge14_Node000010_Node000013" class="edge">
<title>Node10&#45;&gt;Node13</title>
<g id="a_edge14_Node000010_Node000013"><a xlink:title=" ">
<path fill="none" stroke="#63b8ff" d="M328.92,-36.97C346.44,-32.33 367.72,-26.68 386.42,-21.72"/>
<polygon fill="#63b8ff" stroke="#63b8ff" points="387.44,-25.07 396.21,-19.12 385.65,-18.31 387.44,-25.07"/>
</a>
</g>
</g>
<!-- Node12 -->
<g id="Node000012" class="node">
<title>Node12</title>
<g id="a_Node000012"><a xlink:href="matrix__alg_8cpp.html#ab8b5734d92c04df7af774e3237a21847" target="_top" xlink:title=" ">
<polygon fill="white" stroke="#666666" points="559,-56 517,-56 517,-37 559,-37 559,-56"/>
<text text-anchor="middle" x="538" y="-44" font-family="Helvetica,sans-Serif" font-size="10.00">swap</text>
</a>
</g>
</g>
<!-- Node11&#45;&gt;Node12 -->
<g id="edge13_Node000011_Node000012" class="edge">
<title>Node11&#45;&gt;Node12</title>
<g id="a_edge13_Node000011_Node000012"><a xlink:title=" ">
<path fill="none" stroke="#63b8ff" d="M466.65,-46.5C479.49,-46.5 494.2,-46.5 506.84,-46.5"/>
<polygon fill="#63b8ff" stroke="#63b8ff" points="506.88,-50 516.88,-46.5 506.88,-43 506.88,-50"/>
</a>
</g>
</g>
</g>
</svg>

<g id="navigator" transform="translate(0 0)" fill="#404254">
  <rect fill="#f2f5e9" fill-opacity="0.5" stroke="#606060" stroke-width=".5" x="0" y="0" width="60" height="60"/>
  <use id="zoomplus" xlink:href="#zoomPlus" x="17" y="9" onmousedown="handleZoom(evt,'in')"/>
  <use id="zoomminus" xlink:href="#zoomMin" x="42" y="9" onmousedown="handleZoom(evt,'out')"/>
  <use id="reset" xlink:href="#resetDef" x="30" y="36" onmousedown="handleReset()"/>
   <use id="arrowup" xlink:href="#arrowUp" x="0" y="0" onmousedown="handlePan(0,-1)"/>
  <use id="arrowright" xlink:href="#arrowRight" x="0" y="0" onmousedown="handlePan(1,0)"/>
  <use id="arrowdown" xlink:href="#arrowDown" x="0" y="0" onmousedown="handlePan(0,1)"/>
  <use id="arrowleft" xlink:href="#arrowLeft" x="0" y="0" onmousedown="handlePan(-1,0)"/>
</g>
<svg viewBox="0 0 15 15" width="100%" height="30px" preserveAspectRatio="xMaxYMin meet">
 <g id="arrow_out" transform="scale(0.3 0.3)">
  <a xlink:href="matrix__alg_8cpp_a79040cc794ae1fae43e485ca6e0377ca_cgraph_org.svg" target="_base">
   <rect id="button" ry="5" rx="5" y="6" x="6" height="38" width="38"
        fill="#f2f5e9" fill-opacity="0.5" stroke="#606060" stroke-width="1.0"/>
   <path id="arrow"
     d="M 11.500037,31.436501 C 11.940474,20.09759 22.043105,11.32322 32.158766,21.979434 L 37.068811,17.246167 C 37.068811,17.246167 37.088388,32 37.088388,32 L 22.160133,31.978069 C 22.160133,31.978069 26.997745,27.140456 26.997745,27.140456 C 18.528582,18.264221 13.291696,25.230495 11.500037,31.436501 z"
     style="fill:#404040;"/>
  </a>
 </g>
</svg>

<style type='text/css'>
<![CDATA[
[data-mouse-over-selected='false'] { opacity: 0.7; }
[data-mouse-over-selected='true']  { opacity: 1.0; }
]]>
</style>
<script type="application/ecmascript"><![CDATA[
document.addEventListener('DOMContentLoaded', (event) => {
  highlightEdges();
  highlightAdjacentNodes();
});
]]></script>
</svg>
