<?xml version="1.0" encoding="UTF-8" standalone="no"?>
<!DOCTYPE svg PUBLIC "-//W3C//DTD SVG 1.1//EN"
 "http://www.w3.org/Graphics/SVG/1.1/DTD/svg11.dtd">
<!-- Generated by graphviz version 2.43.0 (0)
 -->
<!-- Title: libraries/GCS_MAVLink/MissionItemProtocol_Rally.cpp Pages: 1 -->
<svg width="401pt" height="225pt"
 viewBox="0.00 0.00 400.68 225.00" xmlns="http://www.w3.org/2000/svg" xmlns:xlink="http://www.w3.org/1999/xlink">

<svg id="main" version="1.1" xmlns="http://www.w3.org/2000/svg" xmlns:xlink="http://www.w3.org/1999/xlink" xml:space="preserve" onload="init(evt)">
<style type="text/css"><![CDATA[
.node, .edge {opacity: 0.7;}
.node.selected, .edge.selected {opacity: 1;}
.edge:hover path { stroke: red; }
.edge:hover polygon { stroke: red; fill: red; }
]]></style>
<script type="application/ecmascript" xlink:href="svg.min.js"/>
<svg id="graph" class="graph">
<g id="graph0" class="graph" transform="scale(1 1) rotate(0) translate(4 221)">
<title>libraries/GCS_MAVLink/MissionItemProtocol_Rally.cpp</title>
<!-- Node1 -->
<g id="Node000001" class="node">
<title>Node1</title>
<g id="a_Node000001"><a xlink:title=" ">
<polygon fill="#999999" stroke="#666666" points="284.68,-217 157.68,-217 157.68,-176 284.68,-176 284.68,-217"/>
<text text-anchor="start" x="165.68" y="-205" font-family="Helvetica,sans-Serif" font-size="10.00">libraries/GCS_MAVLink</text>
<text text-anchor="start" x="165.68" y="-194" font-family="Helvetica,sans-Serif" font-size="10.00">/MissionItemProtocol</text>
<text text-anchor="middle" x="221.18" y="-183" font-family="Helvetica,sans-Serif" font-size="10.00">_Rally.cpp</text>
</a>
</g>
</g>
<!-- Node2 -->
<g id="Node000002" class="node">
<title>Node2</title>
<g id="a_Node000002"><a xlink:href="GCS__config_8h.html" target="_top" xlink:title=" ">
<polygon fill="white" stroke="#666666" points="195.18,-140 115.18,-140 115.18,-121 195.18,-121 195.18,-140"/>
<text text-anchor="middle" x="155.18" y="-128" font-family="Helvetica,sans-Serif" font-size="10.00">GCS_config.h</text>
</a>
</g>
</g>
<!-- Node1&#45;&gt;Node2 -->
<g id="edge1_Node000001_Node000002" class="edge">
<title>Node1&#45;&gt;Node2</title>
<g id="a_edge1_Node000001_Node000002"><a xlink:title=" ">
<path fill="none" stroke="#63b8ff" d="M201.02,-175.95C191.52,-166.74 180.34,-155.9 171.4,-147.23"/>
<polygon fill="#63b8ff" stroke="#63b8ff" points="173.83,-144.71 164.21,-140.26 168.96,-149.73 173.83,-144.71"/>
</a>
</g>
</g>
<!-- Node6 -->
<g id="Node000006" class="node">
<title>Node6</title>
<g id="a_Node000006"><a xlink:href="AP__Rally__config_8h.html" target="_top" xlink:title=" ">
<polygon fill="white" stroke="#666666" points="392.68,-140 243.68,-140 243.68,-121 392.68,-121 392.68,-140"/>
<text text-anchor="middle" x="318.18" y="-128" font-family="Helvetica,sans-Serif" font-size="10.00">AP_Rally/AP_Rally_config.h</text>
</a>
</g>
</g>
<!-- Node1&#45;&gt;Node6 -->
<g id="edge7_Node000001_Node000006" class="edge">
<title>Node1&#45;&gt;Node6</title>
<g id="a_edge7_Node000001_Node000006"><a xlink:title=" ">
<path fill="none" stroke="#63b8ff" d="M250.81,-175.95C265.57,-166.21 283.09,-154.65 296.56,-145.76"/>
<polygon fill="#63b8ff" stroke="#63b8ff" points="298.74,-148.52 305.16,-140.09 294.88,-142.68 298.74,-148.52"/>
</a>
</g>
</g>
<!-- Node3 -->
<g id="Node000003" class="node">
<title>Node3</title>
<g id="a_Node000003"><a xlink:href="AP__HAL__Boards_8h.html" target="_top" xlink:title=" ">
<polygon fill="white" stroke="#666666" points="245.68,-19 102.68,-19 102.68,0 245.68,0 245.68,-19"/>
<text text-anchor="middle" x="174.18" y="-7" font-family="Helvetica,sans-Serif" font-size="10.00">AP_HAL/AP_HAL_Boards.h</text>
</a>
</g>
</g>
<!-- Node2&#45;&gt;Node3 -->
<g id="edge2_Node000002_Node000003" class="edge">
<title>Node2&#45;&gt;Node3</title>
<g id="a_edge2_Node000002_Node000003"><a xlink:title=" ">
<path fill="none" stroke="#63b8ff" d="M115,-124.49C61.14,-116.1 -24.28,-95.94 7.18,-55 19.15,-39.43 62.54,-28.15 102.09,-20.84"/>
<polygon fill="#63b8ff" stroke="#63b8ff" points="102.81,-24.26 112.05,-19.06 101.59,-17.37 102.81,-24.26"/>
</a>
</g>
</g>
<!-- Node4 -->
<g id="Node000004" class="node">
<title>Node4</title>
<g id="a_Node000004"><a xlink:href="AP__Relay__config_8h.html" target="_top" xlink:title=" ">
<polygon fill="white" stroke="#666666" points="171.68,-79.5 16.68,-79.5 16.68,-60.5 171.68,-60.5 171.68,-79.5"/>
<text text-anchor="middle" x="94.18" y="-67.5" font-family="Helvetica,sans-Serif" font-size="10.00">AP_Relay/AP_Relay_config.h</text>
</a>
</g>
</g>
<!-- Node2&#45;&gt;Node4 -->
<g id="edge3_Node000002_Node000004" class="edge">
<title>Node2&#45;&gt;Node4</title>
<g id="a_edge3_Node000002_Node000004"><a xlink:title=" ">
<path fill="none" stroke="#63b8ff" d="M146.18,-120.87C136.81,-111.88 121.93,-97.61 110.48,-86.64"/>
<polygon fill="#63b8ff" stroke="#63b8ff" points="112.86,-84.06 103.22,-79.67 108.01,-89.12 112.86,-84.06"/>
</a>
</g>
</g>
<!-- Node5 -->
<g id="Node000005" class="node">
<title>Node5</title>
<g id="a_Node000005"><a xlink:href="AP__Mission__config_8h.html" target="_top" xlink:title=" ">
<polygon fill="white" stroke="#666666" points="320.68,-85 189.68,-85 189.68,-55 320.68,-55 320.68,-85"/>
<text text-anchor="start" x="197.68" y="-73" font-family="Helvetica,sans-Serif" font-size="10.00">AP_Mission/AP_Mission</text>
<text text-anchor="middle" x="255.18" y="-62" font-family="Helvetica,sans-Serif" font-size="10.00">_config.h</text>
</a>
</g>
</g>
<!-- Node2&#45;&gt;Node5 -->
<g id="edge5_Node000002_Node000005" class="edge">
<title>Node2&#45;&gt;Node5</title>
<g id="a_edge5_Node000002_Node000005"><a xlink:title=" ">
<path fill="none" stroke="#63b8ff" d="M169.93,-120.87C183.63,-112.86 204.5,-100.65 222.16,-90.31"/>
<polygon fill="#63b8ff" stroke="#63b8ff" points="224.19,-93.19 231.05,-85.11 220.65,-87.14 224.19,-93.19"/>
</a>
</g>
</g>
<!-- Node4&#45;&gt;Node3 -->
<g id="edge4_Node000004_Node000003" class="edge">
<title>Node4&#45;&gt;Node3</title>
<g id="a_edge4_Node000004_Node000003"><a xlink:title=" ">
<path fill="none" stroke="#63b8ff" d="M105.98,-60.37C118.63,-51.12 138.92,-36.28 154.09,-25.19"/>
<polygon fill="#63b8ff" stroke="#63b8ff" points="156.32,-27.9 162.33,-19.17 152.19,-22.24 156.32,-27.9"/>
</a>
</g>
</g>
<!-- Node5&#45;&gt;Node3 -->
<g id="edge6_Node000005_Node000003" class="edge">
<title>Node5&#45;&gt;Node3</title>
<g id="a_edge6_Node000005_Node000003"><a xlink:title=" ">
<path fill="none" stroke="#63b8ff" d="M235.57,-54.84C223.21,-45.91 207.28,-34.41 194.75,-25.35"/>
<polygon fill="#63b8ff" stroke="#63b8ff" points="196.47,-22.28 186.32,-19.27 192.37,-27.96 196.47,-22.28"/>
</a>
</g>
</g>
<!-- Node6&#45;&gt;Node3 -->
<g id="edge8_Node000006_Node000003" class="edge">
<title>Node6&#45;&gt;Node3</title>
<g id="a_edge8_Node000006_Node000003"><a xlink:title=" ">
<path fill="none" stroke="#63b8ff" d="M323.41,-120.68C331.59,-105.62 345.02,-74.66 330.18,-55 318.85,-39.99 276.88,-28.53 239.32,-21"/>
<polygon fill="#63b8ff" stroke="#63b8ff" points="239.87,-17.54 229.38,-19.07 238.54,-24.41 239.87,-17.54"/>
</a>
</g>
</g>
</g>
</svg>
</svg>

<style type='text/css'>
<![CDATA[
[data-mouse-over-selected='false'] { opacity: 0.7; }
[data-mouse-over-selected='true']  { opacity: 1.0; }
]]>
</style>
<script type="application/ecmascript"><![CDATA[
document.addEventListener('DOMContentLoaded', (event) => {
  highlightEdges();
  highlightAdjacentNodes();
});
]]></script>
</svg>
