<?xml version="1.0" encoding="UTF-8" standalone="no"?>
<!DOCTYPE svg PUBLIC "-//W3C//DTD SVG 1.1//EN"
 "http://www.w3.org/Graphics/SVG/1.1/DTD/svg11.dtd">
<!-- Generated by graphviz version 2.43.0 (0)
 -->
<!-- Title: crypto_sign Pages: 1 -->
<svg width="1226pt" height="759pt"
 viewBox="0.00 0.00 1226.00 759.00" xmlns="http://www.w3.org/2000/svg" xmlns:xlink="http://www.w3.org/1999/xlink">
<g id="graph0" class="graph" transform="scale(1 1) rotate(0) translate(4 755)">
<title>crypto_sign</title>
<!-- Node1 -->
<g id="Node000001" class="node">
<title>Node1</title>
<g id="a_Node000001"><a xlink:title=" ">
<polygon fill="#999999" stroke="#666666" points="73,-545 0,-545 0,-526 73,-526 73,-545"/>
<text text-anchor="middle" x="36.5" y="-533" font-family="Helvetica,sans-Serif" font-size="10.00">crypto_sign</text>
</a>
</g>
</g>
<!-- Node2 -->
<g id="Node000002" class="node">
<title>Node2</title>
<g id="a_Node000002"><a xlink:href="monocypher_8cpp.html#acdc0d84c24be30371b0cc98faeb32afd" target="_top" xlink:title=" ">
<polygon fill="white" stroke="#666666" points="748.5,-695 649.5,-695 649.5,-676 748.5,-676 748.5,-695"/>
<text text-anchor="middle" x="699" y="-683" font-family="Helvetica,sans-Serif" font-size="10.00">crypto_sign_final</text>
</a>
</g>
</g>
<!-- Node1&#45;&gt;Node2 -->
<g id="edge1_Node000001_Node000002" class="edge">
<title>Node1&#45;&gt;Node2</title>
<g id="a_edge1_Node000001_Node000002"><a xlink:title=" ">
<path fill="none" stroke="#63b8ff" d="M72.34,-545.06C83.97,-548.18 97.02,-551.58 109,-554.5 304.01,-602.08 537.09,-651.83 641.98,-673.84"/>
<polygon fill="#63b8ff" stroke="#63b8ff" points="641.52,-677.32 652.03,-675.94 642.96,-670.47 641.52,-677.32"/>
</a>
</g>
</g>
<!-- Node14 -->
<g id="Node000014" class="node">
<title>Node14</title>
<g id="a_Node000014"><a xlink:href="monocypher_8cpp.html#a66d9333be03262fadfdb1274b187035d" target="_top" xlink:title=" ">
<polygon fill="white" stroke="#666666" points="255,-526 109,-526 109,-507 255,-507 255,-526"/>
<text text-anchor="middle" x="182" y="-514" font-family="Helvetica,sans-Serif" font-size="10.00">crypto_sign_init_first_pass</text>
</a>
</g>
</g>
<!-- Node1&#45;&gt;Node14 -->
<g id="edge15_Node000001_Node000014" class="edge">
<title>Node1&#45;&gt;Node14</title>
<g id="a_edge15_Node000001_Node000014"><a xlink:title=" ">
<path fill="none" stroke="#63b8ff" d="M73.34,-530.75C81.3,-529.7 90.06,-528.54 99.03,-527.35"/>
<polygon fill="#63b8ff" stroke="#63b8ff" points="99.77,-530.79 109.23,-526 98.85,-523.85 99.77,-530.79"/>
</a>
</g>
</g>
<!-- Node40 -->
<g id="Node000040" class="node">
<title>Node40</title>
<g id="a_Node000040"><a xlink:href="monocypher_8cpp.html#a43c47f7ac5c8f0a7f8196f32ff0a93dd" target="_top" xlink:title=" ">
<polygon fill="white" stroke="#666666" points="606,-564 445,-564 445,-545 606,-545 606,-564"/>
<text text-anchor="middle" x="525.5" y="-552" font-family="Helvetica,sans-Serif" font-size="10.00">crypto_sign_init_second_pass</text>
</a>
</g>
</g>
<!-- Node1&#45;&gt;Node40 -->
<g id="edge56_Node000001_Node000040" class="edge">
<title>Node1&#45;&gt;Node40</title>
<g id="a_edge56_Node000001_Node000040"><a xlink:title=" ">
<path fill="none" stroke="#63b8ff" d="M73.31,-536.9C148.75,-539.84 325.98,-546.75 434.51,-550.99"/>
<polygon fill="#63b8ff" stroke="#63b8ff" points="434.66,-554.5 444.79,-551.39 434.93,-547.5 434.66,-554.5"/>
</a>
</g>
</g>
<!-- Node41 -->
<g id="Node000041" class="node">
<title>Node41</title>
<g id="a_Node000041"><a xlink:href="monocypher_8cpp.html#a186a06bdb406f8fd6cfd322bfa1bec33" target="_top" xlink:title=" ">
<polygon fill="white" stroke="#666666" points="238,-489 126,-489 126,-470 238,-470 238,-489"/>
<text text-anchor="middle" x="182" y="-477" font-family="Helvetica,sans-Serif" font-size="10.00">crypto_sign_update</text>
</a>
</g>
</g>
<!-- Node1&#45;&gt;Node41 -->
<g id="edge60_Node000001_Node000041" class="edge">
<title>Node1&#45;&gt;Node41</title>
<g id="a_edge60_Node000001_Node000041"><a xlink:title=" ">
<path fill="none" stroke="#63b8ff" d="M53.5,-525.92C67.69,-517.75 89.18,-506.14 109,-498.5 115.32,-496.06 122.07,-493.83 128.81,-491.82"/>
<polygon fill="#63b8ff" stroke="#63b8ff" points="129.96,-495.13 138.63,-489.02 128.05,-488.39 129.96,-495.13"/>
</a>
</g>
</g>
<!-- Node3 -->
<g id="Node000003" class="node">
<title>Node3</title>
<g id="a_Node000003"><a xlink:href="monocypher_8cpp.html#a84904a8f94da26863cb33a9375c0a63a" target="_top" xlink:title=" ">
<polygon fill="white" stroke="#666666" points="868,-751 792,-751 792,-732 868,-732 868,-751"/>
<text text-anchor="middle" x="830" y="-739" font-family="Helvetica,sans-Serif" font-size="10.00">crypto_wipe</text>
</a>
</g>
</g>
<!-- Node2&#45;&gt;Node3 -->
<g id="edge2_Node000002_Node000003" class="edge">
<title>Node2&#45;&gt;Node3</title>
<g id="a_edge2_Node000002_Node000003"><a xlink:title=" ">
<path fill="none" stroke="#63b8ff" d="M722.18,-695.13C742.98,-704.16 774.29,-717.75 797.65,-727.89"/>
<polygon fill="#63b8ff" stroke="#63b8ff" points="796.55,-731.23 807.11,-732 799.33,-724.81 796.55,-731.23"/>
</a>
</g>
</g>
<!-- Node4 -->
<g id="Node000004" class="node">
<title>Node4</title>
<g id="a_Node000004"><a xlink:href="monocypher_8cpp.html#a2cafeb9491f709cff052f59c62c0212c" target="_top" xlink:title=" ">
<polygon fill="white" stroke="#666666" points="859.5,-677 800.5,-677 800.5,-658 859.5,-658 859.5,-677"/>
<text text-anchor="middle" x="830" y="-665" font-family="Helvetica,sans-Serif" font-size="10.00">mul_add</text>
</a>
</g>
</g>
<!-- Node2&#45;&gt;Node4 -->
<g id="edge3_Node000002_Node000004" class="edge">
<title>Node2&#45;&gt;Node4</title>
<g id="a_edge3_Node000002_Node000004"><a xlink:title=" ">
<path fill="none" stroke="#63b8ff" d="M748.77,-678.69C762.51,-676.78 777.26,-674.72 790.32,-672.9"/>
<polygon fill="#63b8ff" stroke="#63b8ff" points="790.96,-676.34 800.38,-671.49 789.99,-669.41 790.96,-676.34"/>
</a>
</g>
</g>
<!-- Node13 -->
<g id="Node000013" class="node">
<title>Node13</title>
<g id="a_Node000013"><a xlink:href="monocypher_8cpp.html#a9f07510895aecc9a77cd50d5f7e61b07" target="_top" xlink:title=" ">
<polygon fill="white" stroke="#666666" points="855,-714 805,-714 805,-695 855,-695 855,-714"/>
<text text-anchor="middle" x="830" y="-702" font-family="Helvetica,sans-Serif" font-size="10.00">reduce</text>
</a>
</g>
</g>
<!-- Node2&#45;&gt;Node13 -->
<g id="edge12_Node000002_Node000013" class="edge">
<title>Node2&#45;&gt;Node13</title>
<g id="a_edge12_Node000002_Node000013"><a xlink:title=" ">
<path fill="none" stroke="#63b8ff" d="M748.77,-692.68C764.01,-694.93 780.49,-697.36 794.53,-699.42"/>
<polygon fill="#63b8ff" stroke="#63b8ff" points="794.33,-702.93 804.73,-700.93 795.35,-696.01 794.33,-702.93"/>
</a>
</g>
</g>
<!-- Node5 -->
<g id="Node000005" class="node">
<title>Node5</title>
<g id="a_Node000005"><a xlink:href="monocypher_8cpp.html#a6867780322c10cadace0174654d45253" target="_top" xlink:title=" ">
<polygon fill="white" stroke="#666666" points="989,-733 904,-733 904,-714 989,-714 989,-733"/>
<text text-anchor="middle" x="946.5" y="-721" font-family="Helvetica,sans-Serif" font-size="10.00">load32_le_buf</text>
</a>
</g>
</g>
<!-- Node4&#45;&gt;Node5 -->
<g id="edge4_Node000004_Node000005" class="edge">
<title>Node4&#45;&gt;Node5</title>
<g id="a_edge4_Node000004_Node000005"><a xlink:title=" ">
<path fill="none" stroke="#63b8ff" d="M849.84,-677.13C855.67,-680.12 862.11,-683.43 868,-686.5 884.05,-694.85 887.69,-697.67 904,-705.5 906.97,-706.93 910.09,-708.37 913.22,-709.79"/>
<polygon fill="#63b8ff" stroke="#63b8ff" points="911.97,-713.06 922.53,-713.91 914.8,-706.66 911.97,-713.06"/>
</a>
</g>
</g>
<!-- Node7 -->
<g id="Node000007" class="node">
<title>Node7</title>
<g id="a_Node000007"><a xlink:href="monocypher_8cpp.html#a6e8a4cb2bbf5aa910c8613658ed84392" target="_top" xlink:title=" ">
<polygon fill="white" stroke="#666666" points="970,-696 923,-696 923,-677 970,-677 970,-696"/>
<text text-anchor="middle" x="946.5" y="-684" font-family="Helvetica,sans-Serif" font-size="10.00">mod_l</text>
</a>
</g>
</g>
<!-- Node4&#45;&gt;Node7 -->
<g id="edge6_Node000004_Node000007" class="edge">
<title>Node4&#45;&gt;Node7</title>
<g id="a_edge6_Node000004_Node000007"><a xlink:title=" ">
<path fill="none" stroke="#63b8ff" d="M859.6,-672.25C875.72,-674.92 895.94,-678.28 912.71,-681.06"/>
<polygon fill="#63b8ff" stroke="#63b8ff" points="912.2,-684.52 922.63,-682.71 913.34,-677.62 912.2,-684.52"/>
</a>
</g>
</g>
<!-- Node12 -->
<g id="Node000012" class="node">
<title>Node12</title>
<g id="a_Node000012"><a xlink:href="monocypher_8cpp.html#a8b7af7b2180ef6bb7dacdc32cbf11d6b" target="_top" xlink:title=" ">
<polygon fill="white" stroke="#666666" points="975,-659 918,-659 918,-640 975,-640 975,-659"/>
<text text-anchor="middle" x="946.5" y="-647" font-family="Helvetica,sans-Serif" font-size="10.00">multiply</text>
</a>
</g>
</g>
<!-- Node4&#45;&gt;Node12 -->
<g id="edge11_Node000004_Node000012" class="edge">
<title>Node4&#45;&gt;Node12</title>
<g id="a_edge11_Node000004_Node000012"><a xlink:title=" ">
<path fill="none" stroke="#63b8ff" d="M859.6,-663C874.16,-660.72 892.05,-657.9 907.73,-655.44"/>
<polygon fill="#63b8ff" stroke="#63b8ff" points="908.33,-658.89 917.66,-653.88 907.24,-651.97 908.33,-658.89"/>
</a>
</g>
</g>
<!-- Node6 -->
<g id="Node000006" class="node">
<title>Node6</title>
<g id="a_Node000006"><a xlink:href="monocypher_8cpp.html#ae8e2133fe55d57f460de0074d015cafa" target="_top" xlink:title=" ">
<polygon fill="white" stroke="#666666" points="1101.5,-733 1037.5,-733 1037.5,-714 1101.5,-714 1101.5,-733"/>
<text text-anchor="middle" x="1069.5" y="-721" font-family="Helvetica,sans-Serif" font-size="10.00">load32_le</text>
</a>
</g>
</g>
<!-- Node5&#45;&gt;Node6 -->
<g id="edge5_Node000005_Node000006" class="edge">
<title>Node5&#45;&gt;Node6</title>
<g id="a_edge5_Node000005_Node000006"><a xlink:title=" ">
<path fill="none" stroke="#63b8ff" d="M989.14,-723.5C1001.53,-723.5 1015.09,-723.5 1027.45,-723.5"/>
<polygon fill="#63b8ff" stroke="#63b8ff" points="1027.49,-727 1037.49,-723.5 1027.49,-720 1027.49,-727"/>
</a>
</g>
</g>
<!-- Node8 -->
<g id="Node000008" class="node">
<title>Node8</title>
<g id="a_Node000008"><a xlink:href="monocypher_8cpp.html#ac5dd05d7343001f2c4f6d0fcfa69f2e6" target="_top" xlink:title=" ">
<polygon fill="white" stroke="#666666" points="1100.5,-696 1038.5,-696 1038.5,-677 1100.5,-677 1100.5,-696"/>
<text text-anchor="middle" x="1069.5" y="-684" font-family="Helvetica,sans-Serif" font-size="10.00">remove_l</text>
</a>
</g>
</g>
<!-- Node7&#45;&gt;Node8 -->
<g id="edge7_Node000007_Node000008" class="edge">
<title>Node7&#45;&gt;Node8</title>
<g id="a_edge7_Node000007_Node000008"><a xlink:title=" ">
<path fill="none" stroke="#63b8ff" d="M970.26,-686.5C986.51,-686.5 1008.8,-686.5 1028.05,-686.5"/>
<polygon fill="#63b8ff" stroke="#63b8ff" points="1028.07,-690 1038.07,-686.5 1028.07,-683 1028.07,-690"/>
</a>
</g>
</g>
<!-- Node10 -->
<g id="Node000010" class="node">
<title>Node10</title>
<g id="a_Node000010"><a xlink:href="monocypher_8cpp.html#a409ecfec661926a9ea66841272db8562" target="_top" xlink:title=" ">
<polygon fill="white" stroke="#666666" points="1114,-659 1025,-659 1025,-640 1114,-640 1114,-659"/>
<text text-anchor="middle" x="1069.5" y="-647" font-family="Helvetica,sans-Serif" font-size="10.00">store32_le_buf</text>
</a>
</g>
</g>
<!-- Node7&#45;&gt;Node10 -->
<g id="edge9_Node000007_Node000010" class="edge">
<title>Node7&#45;&gt;Node10</title>
<g id="a_edge9_Node000007_Node000010"><a xlink:title=" ">
<path fill="none" stroke="#63b8ff" d="M970.26,-679.54C986.35,-674.62 1008.37,-667.89 1027.48,-662.04"/>
<polygon fill="#63b8ff" stroke="#63b8ff" points="1028.63,-665.35 1037.17,-659.08 1026.58,-658.66 1028.63,-665.35"/>
</a>
</g>
</g>
<!-- Node9 -->
<g id="Node000009" class="node">
<title>Node9</title>
<g id="a_Node000009"><a xlink:href="monocypher_8cpp.html#a4640849c519bd8e5c22aa2d6f76ff3b3" target="_top" xlink:title=" ">
<polygon fill="white" stroke="#666666" points="1218,-696 1150,-696 1150,-677 1218,-677 1218,-696"/>
<text text-anchor="middle" x="1184" y="-684" font-family="Helvetica,sans-Serif" font-size="10.00">is_above_l</text>
</a>
</g>
</g>
<!-- Node8&#45;&gt;Node9 -->
<g id="edge8_Node000008_Node000009" class="edge">
<title>Node8&#45;&gt;Node9</title>
<g id="a_edge8_Node000008_Node000009"><a xlink:title=" ">
<path fill="none" stroke="#63b8ff" d="M1100.65,-686.5C1112.67,-686.5 1126.73,-686.5 1139.79,-686.5"/>
<polygon fill="#63b8ff" stroke="#63b8ff" points="1140,-690 1150,-686.5 1140,-683 1140,-690"/>
</a>
</g>
</g>
<!-- Node11 -->
<g id="Node000011" class="node">
<title>Node11</title>
<g id="a_Node000011"><a xlink:href="monocypher_8cpp.html#a6061042be57c89feef159a896edbb3c0" target="_top" xlink:title=" ">
<polygon fill="white" stroke="#666666" points="1218,-640 1150,-640 1150,-621 1218,-621 1218,-640"/>
<text text-anchor="middle" x="1184" y="-628" font-family="Helvetica,sans-Serif" font-size="10.00">store32_le</text>
</a>
</g>
</g>
<!-- Node10&#45;&gt;Node11 -->
<g id="edge10_Node000010_Node000011" class="edge">
<title>Node10&#45;&gt;Node11</title>
<g id="a_edge10_Node000010_Node000011"><a xlink:title=" ">
<path fill="none" stroke="#63b8ff" d="M1114.32,-642.1C1122.74,-640.68 1131.55,-639.19 1139.95,-637.77"/>
<polygon fill="#63b8ff" stroke="#63b8ff" points="1140.65,-641.2 1149.93,-636.09 1139.49,-634.3 1140.65,-641.2"/>
</a>
</g>
</g>
<!-- Node13&#45;&gt;Node5 -->
<g id="edge13_Node000013_Node000005" class="edge">
<title>Node13&#45;&gt;Node5</title>
<g id="a_edge13_Node000013_Node000005"><a xlink:title=" ">
<path fill="none" stroke="#63b8ff" d="M855,-708.48C866.29,-710.36 880.22,-712.67 893.73,-714.91"/>
<polygon fill="#63b8ff" stroke="#63b8ff" points="893.5,-718.42 903.94,-716.6 894.64,-711.51 893.5,-718.42"/>
</a>
</g>
</g>
<!-- Node13&#45;&gt;Node7 -->
<g id="edge14_Node000013_Node000007" class="edge">
<title>Node13&#45;&gt;Node7</title>
<g id="a_edge14_Node000013_Node000007"><a xlink:title=" ">
<path fill="none" stroke="#63b8ff" d="M855,-700.73C871.75,-698.09 894.29,-694.55 912.69,-691.66"/>
<polygon fill="#63b8ff" stroke="#63b8ff" points="913.36,-695.1 922.7,-690.08 912.28,-688.18 913.36,-695.1"/>
</a>
</g>
</g>
<!-- Node15 -->
<g id="Node000015" class="node">
<title>Node15</title>
<g id="a_Node000015"><a xlink:href="monocypher_8cpp.html#ac53a3c38569af32c8312795e415d2365" target="_top" xlink:title=" ">
<polygon fill="white" stroke="#666666" points="409,-481.5 291,-481.5 291,-451.5 409,-451.5 409,-481.5"/>
<text text-anchor="start" x="299" y="-469.5" font-family="Helvetica,sans-Serif" font-size="10.00">crypto_sign_init_first</text>
<text text-anchor="middle" x="350" y="-458.5" font-family="Helvetica,sans-Serif" font-size="10.00">_pass_custom_hash</text>
</a>
</g>
</g>
<!-- Node14&#45;&gt;Node15 -->
<g id="edge16_Node000014_Node000015" class="edge">
<title>Node14&#45;&gt;Node15</title>
<g id="a_edge16_Node000014_Node000015"><a xlink:title=" ">
<path fill="none" stroke="#63b8ff" d="M223.52,-507C233.84,-504.41 244.87,-501.49 255,-498.5 268.84,-494.42 283.68,-489.59 297.38,-484.93"/>
<polygon fill="#63b8ff" stroke="#63b8ff" points="298.8,-488.15 307.12,-481.59 296.53,-481.52 298.8,-488.15"/>
</a>
</g>
</g>
<!-- Node16 -->
<g id="Node000016" class="node">
<title>Node16</title>
<g id="a_Node000016"><a xlink:href="monocypher_8cpp.html#ac08aa33931d3d013b5590a5c2285cb43" target="_top" xlink:title=" ">
<polygon fill="white" stroke="#666666" points="580,-481.5 471,-481.5 471,-451.5 580,-451.5 580,-481.5"/>
<text text-anchor="start" x="479" y="-469.5" font-family="Helvetica,sans-Serif" font-size="10.00">crypto_sign_public</text>
<text text-anchor="middle" x="525.5" y="-458.5" font-family="Helvetica,sans-Serif" font-size="10.00">_key_custom_hash</text>
</a>
</g>
</g>
<!-- Node15&#45;&gt;Node16 -->
<g id="edge17_Node000015_Node000016" class="edge">
<title>Node15&#45;&gt;Node16</title>
<g id="a_edge17_Node000015_Node000016"><a xlink:title=" ">
<path fill="none" stroke="#63b8ff" d="M409.26,-466.5C425.72,-466.5 443.73,-466.5 460.52,-466.5"/>
<polygon fill="#63b8ff" stroke="#63b8ff" points="460.79,-470 470.79,-466.5 460.79,-463 460.79,-470"/>
</a>
</g>
</g>
<!-- Node39 -->
<g id="Node000039" class="node">
<title>Node39</title>
<g id="a_Node000039"><a xlink:href="monocypher_8cpp.html#a89ba9b762fd382ff022c65f55092a211" target="_top" xlink:title=" ">
<polygon fill="white" stroke="#666666" points="734.5,-433 663.5,-433 663.5,-414 734.5,-414 734.5,-433"/>
<text text-anchor="middle" x="699" y="-421" font-family="Helvetica,sans-Serif" font-size="10.00">trim_scalar</text>
</a>
</g>
</g>
<!-- Node15&#45;&gt;Node39 -->
<g id="edge55_Node000015_Node000039" class="edge">
<title>Node15&#45;&gt;Node39</title>
<g id="a_edge55_Node000015_Node000039"><a xlink:title=" ">
<path fill="none" stroke="#63b8ff" d="M403.36,-451.41C416.83,-448 431.37,-444.73 445,-442.5 517.23,-430.66 602.3,-426.19 653.1,-424.5"/>
<polygon fill="#63b8ff" stroke="#63b8ff" points="653.51,-427.99 663.4,-424.18 653.3,-421 653.51,-427.99"/>
</a>
</g>
</g>
<!-- Node17 -->
<g id="Node000017" class="node">
<title>Node17</title>
<g id="a_Node000017"><a xlink:href="monocypher_8cpp.html#aa458254de7f01e3ad187901784150817" target="_top" xlink:title=" ">
<polygon fill="white" stroke="#666666" points="756,-470 642,-470 642,-451 756,-451 756,-470"/>
<text text-anchor="middle" x="699" y="-458" font-family="Helvetica,sans-Serif" font-size="10.00">ge_scalarmult_base</text>
</a>
</g>
</g>
<!-- Node16&#45;&gt;Node17 -->
<g id="edge18_Node000016_Node000017" class="edge">
<title>Node16&#45;&gt;Node17</title>
<g id="a_edge18_Node000016_Node000017"><a xlink:title=" ">
<path fill="none" stroke="#63b8ff" d="M580.29,-464.62C596.48,-464.05 614.44,-463.42 631.36,-462.83"/>
<polygon fill="#63b8ff" stroke="#63b8ff" points="631.86,-466.32 641.73,-462.47 631.62,-459.32 631.86,-466.32"/>
</a>
</g>
</g>
<!-- Node34 -->
<g id="Node000034" class="node">
<title>Node34</title>
<g id="a_Node000034"><a xlink:href="monocypher_8cpp.html#a410b5a5f5b5fd969b483dff7201cc513" target="_top" xlink:title=" ">
<polygon fill="white" stroke="#666666" points="734.5,-564 663.5,-564 663.5,-545 734.5,-545 734.5,-564"/>
<text text-anchor="middle" x="699" y="-552" font-family="Helvetica,sans-Serif" font-size="10.00">ge_tobytes</text>
</a>
</g>
</g>
<!-- Node16&#45;&gt;Node34 -->
<g id="edge42_Node000016_Node000034" class="edge">
<title>Node16&#45;&gt;Node34</title>
<g id="a_edge42_Node000016_Node000034"><a xlink:title=" ">
<path fill="none" stroke="#63b8ff" d="M555.98,-481.63C588.09,-498.11 639.06,-524.26 670.41,-540.34"/>
<polygon fill="#63b8ff" stroke="#63b8ff" points="668.97,-543.54 679.46,-544.99 672.17,-537.31 668.97,-543.54"/>
</a>
</g>
</g>
<!-- Node16&#45;&gt;Node39 -->
<g id="edge54_Node000016_Node000039" class="edge">
<title>Node16&#45;&gt;Node39</title>
<g id="a_edge54_Node000016_Node000039"><a xlink:title=" ">
<path fill="none" stroke="#63b8ff" d="M580.29,-453.01C603.8,-447.12 631.06,-440.28 653.41,-434.68"/>
<polygon fill="#63b8ff" stroke="#63b8ff" points="654.46,-438.02 663.31,-432.2 652.76,-431.23 654.46,-438.02"/>
</a>
</g>
</g>
<!-- Node17&#45;&gt;Node4 -->
<g id="edge41_Node000017_Node000004" class="edge">
<title>Node17&#45;&gt;Node4</title>
<g id="a_edge41_Node000017_Node000004"><a xlink:title=" ">
<path fill="none" stroke="#63b8ff" d="M708.74,-470.13C720.85,-483.92 742.74,-510.51 756,-536.5 779.95,-583.45 757.51,-609.64 792,-649.5 792.72,-650.34 793.5,-651.14 794.31,-651.91"/>
<polygon fill="#63b8ff" stroke="#63b8ff" points="792.33,-654.8 802.45,-657.93 796.49,-649.17 792.33,-654.8"/>
</a>
</g>
</g>
<!-- Node18 -->
<g id="Node000018" class="node">
<title>Node18</title>
<g id="a_Node000018"><a xlink:href="monocypher_8cpp.html#ab310cb9766fb826fe03109ce5ddb1a67" target="_top" xlink:title=" ">
<polygon fill="white" stroke="#666666" points="965.5,-432 927.5,-432 927.5,-413 965.5,-413 965.5,-432"/>
<text text-anchor="middle" x="946.5" y="-420" font-family="Helvetica,sans-Serif" font-size="10.00">fe_0</text>
</a>
</g>
</g>
<!-- Node17&#45;&gt;Node18 -->
<g id="edge19_Node000017_Node000018" class="edge">
<title>Node17&#45;&gt;Node18</title>
<g id="a_edge19_Node000017_Node000018"><a xlink:title=" ">
<path fill="none" stroke="#63b8ff" d="M756.26,-455.95C789.01,-452.85 831.01,-448.1 868,-441.5 884.57,-438.54 902.87,-434.11 917.53,-430.27"/>
<polygon fill="#63b8ff" stroke="#63b8ff" points="918.72,-433.58 927.48,-427.61 916.91,-426.82 918.72,-433.58"/>
</a>
</g>
</g>
<!-- Node19 -->
<g id="Node000019" class="node">
<title>Node19</title>
<g id="a_Node000019"><a xlink:href="monocypher_8cpp.html#aa062285e340c5b08684d063744c73beb" target="_top" xlink:title=" ">
<polygon fill="white" stroke="#666666" points="965.5,-395 927.5,-395 927.5,-376 965.5,-376 965.5,-395"/>
<text text-anchor="middle" x="946.5" y="-383" font-family="Helvetica,sans-Serif" font-size="10.00">fe_1</text>
</a>
</g>
</g>
<!-- Node17&#45;&gt;Node19 -->
<g id="edge20_Node000017_Node000019" class="edge">
<title>Node17&#45;&gt;Node19</title>
<g id="a_edge20_Node000017_Node000019"><a xlink:title=" ">
<path fill="none" stroke="#63b8ff" d="M738.84,-450.91C744.82,-448.63 750.75,-445.85 756,-442.5 775.88,-429.81 770.98,-414.21 792,-403.5 831.96,-383.15 885.16,-381.7 917.28,-383.14"/>
<polygon fill="#63b8ff" stroke="#63b8ff" points="917.14,-386.64 927.32,-383.72 917.54,-379.65 917.14,-386.64"/>
</a>
</g>
</g>
<!-- Node20 -->
<g id="Node000020" class="node">
<title>Node20</title>
<g id="a_Node000020"><a xlink:href="monocypher_8cpp.html#ad16930f8b109e9c41ec5e11d98667ad0" target="_top" xlink:title=" ">
<polygon fill="white" stroke="#666666" points="863.5,-300 796.5,-300 796.5,-281 863.5,-281 863.5,-300"/>
<text text-anchor="middle" x="830" y="-288" font-family="Helvetica,sans-Serif" font-size="10.00">ge_double</text>
</a>
</g>
</g>
<!-- Node17&#45;&gt;Node20 -->
<g id="edge21_Node000017_Node000020" class="edge">
<title>Node17&#45;&gt;Node20</title>
<g id="a_edge21_Node000017_Node000020"><a xlink:title=" ">
<path fill="none" stroke="#63b8ff" d="M742.67,-450.94C747.49,-448.7 752.07,-445.92 756,-442.5 758.74,-440.11 801.21,-349.86 820.08,-309.58"/>
<polygon fill="#63b8ff" stroke="#63b8ff" points="823.36,-310.82 824.43,-300.28 817.02,-307.86 823.36,-310.82"/>
</a>
</g>
</g>
<!-- Node27 -->
<g id="Node000027" class="node">
<title>Node27</title>
<g id="a_Node000027"><a xlink:href="monocypher_8cpp.html#a55b0c516cf4b5fa3a49993a190a879f5" target="_top" xlink:title=" ">
<polygon fill="white" stroke="#666666" points="857.5,-432 802.5,-432 802.5,-413 857.5,-413 857.5,-432"/>
<text text-anchor="middle" x="830" y="-420" font-family="Helvetica,sans-Serif" font-size="10.00">ge_zero</text>
</a>
</g>
</g>
<!-- Node17&#45;&gt;Node27 -->
<g id="edge29_Node000017_Node000027" class="edge">
<title>Node17&#45;&gt;Node27</title>
<g id="a_edge29_Node000017_Node000027"><a xlink:title=" ">
<path fill="none" stroke="#63b8ff" d="M732.55,-450.91C750.77,-445.54 773.55,-438.84 792.39,-433.29"/>
<polygon fill="#63b8ff" stroke="#63b8ff" points="793.51,-436.6 802.11,-430.42 791.53,-429.89 793.51,-436.6"/>
</a>
</g>
</g>
<!-- Node28 -->
<g id="Node000028" class="node">
<title>Node28</title>
<g id="a_Node000028"><a xlink:href="monocypher_8cpp.html#a96c11b4f31488218a7f37abc3174e633" target="_top" xlink:title=" ">
<polygon fill="white" stroke="#666666" points="866,-112 794,-112 794,-93 866,-93 866,-112"/>
<text text-anchor="middle" x="830" y="-100" font-family="Helvetica,sans-Serif" font-size="10.00">lookup_add</text>
</a>
</g>
</g>
<!-- Node17&#45;&gt;Node28 -->
<g id="edge32_Node000017_Node000028" class="edge">
<title>Node17&#45;&gt;Node28</title>
<g id="a_edge32_Node000017_Node000028"><a xlink:title=" ">
<path fill="none" stroke="#63b8ff" d="M745.15,-450.93C749.2,-448.68 752.92,-445.91 756,-442.5 808,-384.81 775.69,-347.44 792,-271.5 803.63,-217.36 817.7,-153.55 824.66,-122.08"/>
<polygon fill="#63b8ff" stroke="#63b8ff" points="828.14,-122.54 826.89,-112.02 821.31,-121.03 828.14,-122.54"/>
</a>
</g>
</g>
<!-- Node21 -->
<g id="Node000021" class="node">
<title>Node21</title>
<g id="a_Node000021"><a xlink:href="monocypher_8cpp.html#a74c70d65e6c663327de91ca2a0225e26" target="_top" xlink:title=" ">
<polygon fill="white" stroke="#666666" points="1094.5,-243 1044.5,-243 1044.5,-224 1094.5,-224 1094.5,-243"/>
<text text-anchor="middle" x="1069.5" y="-231" font-family="Helvetica,sans-Serif" font-size="10.00">fe_add</text>
</a>
</g>
</g>
<!-- Node20&#45;&gt;Node21 -->
<g id="edge22_Node000020_Node000021" class="edge">
<title>Node20&#45;&gt;Node21</title>
<g id="a_edge22_Node000020_Node000021"><a xlink:title=" ">
<path fill="none" stroke="#63b8ff" d="M845.41,-280.97C859.67,-272.04 882.42,-259.12 904,-252.5 947.53,-239.16 1000.15,-235.05 1033.96,-233.86"/>
<polygon fill="#63b8ff" stroke="#63b8ff" points="1034.35,-237.35 1044.24,-233.57 1034.15,-230.35 1034.35,-237.35"/>
</a>
</g>
</g>
<!-- Node22 -->
<g id="Node000022" class="node">
<title>Node22</title>
<g id="a_Node000022"><a xlink:href="monocypher_8cpp.html#a140a75c37cb9cb56eef49feadb2a66c7" target="_top" xlink:title=" ">
<polygon fill="white" stroke="#666666" points="1094.5,-508 1044.5,-508 1044.5,-489 1094.5,-489 1094.5,-508"/>
<text text-anchor="middle" x="1069.5" y="-496" font-family="Helvetica,sans-Serif" font-size="10.00">fe_mul</text>
</a>
</g>
</g>
<!-- Node20&#45;&gt;Node22 -->
<g id="edge23_Node000020_Node000022" class="edge">
<title>Node20&#45;&gt;Node22</title>
<g id="a_edge23_Node000020_Node000022"><a xlink:title=" ">
<path fill="none" stroke="#63b8ff" d="M845.71,-300.12C860.18,-309.36 883.09,-323.36 904,-333.5 940.47,-351.18 957.99,-340.41 989,-366.5 1026.03,-397.66 1050.42,-450.69 1061.55,-479.13"/>
<polygon fill="#63b8ff" stroke="#63b8ff" points="1058.36,-480.6 1065.16,-488.72 1064.91,-478.13 1058.36,-480.6"/>
</a>
</g>
</g>
<!-- Node23 -->
<g id="Node000023" class="node">
<title>Node23</title>
<g id="a_Node000023"><a xlink:href="monocypher_8cpp.html#a819c8aaa4cd6967be2a6e52c22fa1766" target="_top" xlink:title=" ">
<polygon fill="white" stroke="#666666" points="1091,-394 1048,-394 1048,-375 1091,-375 1091,-394"/>
<text text-anchor="middle" x="1069.5" y="-382" font-family="Helvetica,sans-Serif" font-size="10.00">fe_sq</text>
</a>
</g>
</g>
<!-- Node20&#45;&gt;Node23 -->
<g id="edge24_Node000020_Node000023" class="edge">
<title>Node20&#45;&gt;Node23</title>
<g id="a_edge24_Node000020_Node000023"><a xlink:title=" ">
<path fill="none" stroke="#63b8ff" d="M863.76,-296.38C896.43,-302.93 947.56,-315.09 989,-333.5 1010.3,-342.96 1032.45,-357.63 1047.94,-368.82"/>
<polygon fill="#63b8ff" stroke="#63b8ff" points="1046.11,-371.82 1056.24,-374.93 1050.26,-366.18 1046.11,-371.82"/>
</a>
</g>
</g>
<!-- Node24 -->
<g id="Node000024" class="node">
<title>Node24</title>
<g id="a_Node000024"><a xlink:href="monocypher_8cpp.html#a3e776e5ccb1496cffc47a427d89241cb" target="_top" xlink:title=" ">
<polygon fill="white" stroke="#666666" points="971,-281 922,-281 922,-262 971,-262 971,-281"/>
<text text-anchor="middle" x="946.5" y="-269" font-family="Helvetica,sans-Serif" font-size="10.00">fe_sq2</text>
</a>
</g>
</g>
<!-- Node20&#45;&gt;Node24 -->
<g id="edge25_Node000020_Node000024" class="edge">
<title>Node20&#45;&gt;Node24</title>
<g id="a_edge25_Node000020_Node000024"><a xlink:title=" ">
<path fill="none" stroke="#63b8ff" d="M863.5,-285.11C878.55,-282.61 896.41,-279.65 911.62,-277.12"/>
<polygon fill="#63b8ff" stroke="#63b8ff" points="912.36,-280.55 921.65,-275.46 911.22,-273.64 912.36,-280.55"/>
</a>
</g>
</g>
<!-- Node26 -->
<g id="Node000026" class="node">
<title>Node26</title>
<g id="a_Node000026"><a xlink:href="monocypher_8cpp.html#ae385f63fe8c8a4eae2b8c3cf597b076f" target="_top" xlink:title=" ">
<polygon fill="white" stroke="#666666" points="1094,-112 1045,-112 1045,-93 1094,-93 1094,-112"/>
<text text-anchor="middle" x="1069.5" y="-100" font-family="Helvetica,sans-Serif" font-size="10.00">fe_sub</text>
</a>
</g>
</g>
<!-- Node20&#45;&gt;Node26 -->
<g id="edge28_Node000020_Node000026" class="edge">
<title>Node20&#45;&gt;Node26</title>
<g id="a_edge28_Node000020_Node000026"><a xlink:title=" ">
<path fill="none" stroke="#63b8ff" d="M842.71,-280.98C856.98,-269.47 881.93,-249.62 904,-233.5 940.93,-206.52 953.17,-203.93 989,-175.5 1011.5,-157.65 1035.56,-135 1051.24,-119.7"/>
<polygon fill="#63b8ff" stroke="#63b8ff" points="1053.95,-121.95 1058.63,-112.44 1049.04,-116.96 1053.95,-121.95"/>
</a>
</g>
</g>
<!-- Node24&#45;&gt;Node23 -->
<g id="edge27_Node000024_Node000023" class="edge">
<title>Node24&#45;&gt;Node23</title>
<g id="a_edge27_Node000024_Node000023"><a xlink:title=" ">
<path fill="none" stroke="#63b8ff" d="M966.92,-281.06C974.18,-285.05 982.29,-290.04 989,-295.5 1015.36,-316.95 1040.58,-347.45 1055.3,-366.6"/>
<polygon fill="#63b8ff" stroke="#63b8ff" points="1052.64,-368.89 1061.46,-374.76 1058.23,-364.67 1052.64,-368.89"/>
</a>
</g>
</g>
<!-- Node25 -->
<g id="Node000025" class="node">
<title>Node25</title>
<g id="a_Node000025"><a xlink:href="monocypher_8cpp.html#a7985e71e3f708460e6e120cf478fa3c9" target="_top" xlink:title=" ">
<polygon fill="white" stroke="#666666" points="1111,-281 1028,-281 1028,-262 1111,-262 1111,-281"/>
<text text-anchor="middle" x="1069.5" y="-269" font-family="Helvetica,sans-Serif" font-size="10.00">fe_mul_small</text>
</a>
</g>
</g>
<!-- Node24&#45;&gt;Node25 -->
<g id="edge26_Node000024_Node000025" class="edge">
<title>Node24&#45;&gt;Node25</title>
<g id="a_edge26_Node000024_Node000025"><a xlink:title=" ">
<path fill="none" stroke="#63b8ff" d="M971.12,-271.5C984.32,-271.5 1001.31,-271.5 1017.39,-271.5"/>
<polygon fill="#63b8ff" stroke="#63b8ff" points="1017.78,-275 1027.78,-271.5 1017.78,-268 1017.78,-275"/>
</a>
</g>
</g>
<!-- Node27&#45;&gt;Node18 -->
<g id="edge30_Node000027_Node000018" class="edge">
<title>Node27&#45;&gt;Node18</title>
<g id="a_edge30_Node000027_Node000018"><a xlink:title=" ">
<path fill="none" stroke="#63b8ff" d="M857.56,-422.5C875.45,-422.5 899.02,-422.5 917.26,-422.5"/>
<polygon fill="#63b8ff" stroke="#63b8ff" points="917.29,-426 927.29,-422.5 917.29,-419 917.29,-426"/>
</a>
</g>
</g>
<!-- Node27&#45;&gt;Node19 -->
<g id="edge31_Node000027_Node000019" class="edge">
<title>Node27&#45;&gt;Node19</title>
<g id="a_edge31_Node000027_Node000019"><a xlink:title=" ">
<path fill="none" stroke="#63b8ff" d="M857.56,-413.92C875.62,-408.08 899.46,-400.38 917.77,-394.46"/>
<polygon fill="#63b8ff" stroke="#63b8ff" points="918.85,-397.79 927.29,-391.38 916.7,-391.13 918.85,-397.79"/>
</a>
</g>
</g>
<!-- Node29 -->
<g id="Node000029" class="node">
<title>Node29</title>
<g id="a_Node000029"><a xlink:href="monocypher_8cpp.html#a02552fc3fb2434a5bc4529514615366d" target="_top" xlink:title=" ">
<polygon fill="white" stroke="#666666" points="976.5,-167 916.5,-167 916.5,-148 976.5,-148 976.5,-167"/>
<text text-anchor="middle" x="946.5" y="-155" font-family="Helvetica,sans-Serif" font-size="10.00">fe_ccopy</text>
</a>
</g>
</g>
<!-- Node28&#45;&gt;Node29 -->
<g id="edge33_Node000028_Node000029" class="edge">
<title>Node28&#45;&gt;Node29</title>
<g id="a_edge33_Node000028_Node000029"><a xlink:title=" ">
<path fill="none" stroke="#63b8ff" d="M850.14,-112.13C864.82,-119.47 885.62,-129.76 904,-138.5 907.6,-140.21 911.39,-141.98 915.15,-143.73"/>
<polygon fill="#63b8ff" stroke="#63b8ff" points="913.79,-146.95 924.33,-147.95 916.71,-140.59 913.79,-146.95"/>
</a>
</g>
</g>
<!-- Node30 -->
<g id="Node000030" class="node">
<title>Node30</title>
<g id="a_Node000030"><a xlink:href="monocypher_8cpp.html#a5e3252021575748ab418a9dbcd641bd2" target="_top" xlink:title=" ">
<polygon fill="white" stroke="#666666" points="977.5,-130 915.5,-130 915.5,-111 977.5,-111 977.5,-130"/>
<text text-anchor="middle" x="946.5" y="-118" font-family="Helvetica,sans-Serif" font-size="10.00">fe_cswap</text>
</a>
</g>
</g>
<!-- Node28&#45;&gt;Node30 -->
<g id="edge34_Node000028_Node000030" class="edge">
<title>Node28&#45;&gt;Node30</title>
<g id="a_edge34_Node000028_Node000030"><a xlink:title=" ">
<path fill="none" stroke="#63b8ff" d="M866.29,-108.05C878.51,-109.97 892.3,-112.14 904.91,-114.12"/>
<polygon fill="#63b8ff" stroke="#63b8ff" points="904.74,-117.63 915.16,-115.73 905.82,-110.72 904.74,-117.63"/>
</a>
</g>
</g>
<!-- Node31 -->
<g id="Node000031" class="node">
<title>Node31</title>
<g id="a_Node000031"><a xlink:href="monocypher_8cpp.html#ab9f6be9ff63c325480824dcd2f6eded9" target="_top" xlink:title=" ">
<polygon fill="white" stroke="#666666" points="971.5,-93 921.5,-93 921.5,-74 971.5,-74 971.5,-93"/>
<text text-anchor="middle" x="946.5" y="-81" font-family="Helvetica,sans-Serif" font-size="10.00">fe_neg</text>
</a>
</g>
</g>
<!-- Node28&#45;&gt;Node31 -->
<g id="edge35_Node000028_Node000031" class="edge">
<title>Node28&#45;&gt;Node31</title>
<g id="a_edge35_Node000028_Node000031"><a xlink:title=" ">
<path fill="none" stroke="#63b8ff" d="M866.29,-96.64C880.67,-94.26 897.23,-91.51 911.48,-89.15"/>
<polygon fill="#63b8ff" stroke="#63b8ff" points="912.09,-92.59 921.38,-87.5 910.95,-85.69 912.09,-92.59"/>
</a>
</g>
</g>
<!-- Node32 -->
<g id="Node000032" class="node">
<title>Node32</title>
<g id="a_Node000032"><a xlink:href="monocypher_8cpp.html#ad8c9d309a6f9a52d72574ce9c6de6c87" target="_top" xlink:title=" ">
<polygon fill="white" stroke="#666666" points="977.5,-19 915.5,-19 915.5,0 977.5,0 977.5,-19"/>
<text text-anchor="middle" x="946.5" y="-7" font-family="Helvetica,sans-Serif" font-size="10.00">ge_madd</text>
</a>
</g>
</g>
<!-- Node28&#45;&gt;Node32 -->
<g id="edge36_Node000028_Node000032" class="edge">
<title>Node28&#45;&gt;Node32</title>
<g id="a_edge36_Node000028_Node000032"><a xlink:title=" ">
<path fill="none" stroke="#63b8ff" d="M838.55,-92.55C850.81,-76.93 876.48,-46.49 904,-27.5 905.89,-26.2 907.89,-24.95 909.95,-23.78"/>
<polygon fill="#63b8ff" stroke="#63b8ff" points="911.9,-26.71 919.21,-19.05 908.72,-20.48 911.9,-26.71"/>
</a>
</g>
</g>
<!-- Node33 -->
<g id="Node000033" class="node">
<title>Node33</title>
<g id="a_Node000033"><a xlink:href="monocypher_8cpp.html#af8475b77dd913afb0458152975b2db3a" target="_top" xlink:title=" ">
<polygon fill="white" stroke="#666666" points="978.5,-56 914.5,-56 914.5,-37 978.5,-37 978.5,-56"/>
<text text-anchor="middle" x="946.5" y="-44" font-family="Helvetica,sans-Serif" font-size="10.00">scalar_bit</text>
</a>
</g>
</g>
<!-- Node28&#45;&gt;Node33 -->
<g id="edge40_Node000028_Node000033" class="edge">
<title>Node28&#45;&gt;Node33</title>
<g id="a_edge40_Node000028_Node000033"><a xlink:title=" ">
<path fill="none" stroke="#63b8ff" d="M848.53,-92.93C863.2,-85.03 884.78,-73.66 904,-64.5 906.98,-63.08 910.1,-61.64 913.23,-60.23"/>
<polygon fill="#63b8ff" stroke="#63b8ff" points="914.81,-63.36 922.54,-56.12 911.98,-56.96 914.81,-63.36"/>
</a>
</g>
</g>
<!-- Node32&#45;&gt;Node21 -->
<g id="edge37_Node000032_Node000021" class="edge">
<title>Node32&#45;&gt;Node21</title>
<g id="a_edge37_Node000032_Node000021"><a xlink:title=" ">
<path fill="none" stroke="#63b8ff" d="M977.49,-19.02C981.72,-21.31 985.74,-24.1 989,-27.5 989.22,-27.72 1041.42,-163.22 1061.11,-214.31"/>
<polygon fill="#63b8ff" stroke="#63b8ff" points="1057.92,-215.78 1064.78,-223.85 1064.46,-213.26 1057.92,-215.78"/>
</a>
</g>
</g>
<!-- Node32&#45;&gt;Node22 -->
<g id="edge38_Node000032_Node000022" class="edge">
<title>Node32&#45;&gt;Node22</title>
<g id="a_edge38_Node000032_Node000022"><a xlink:title=" ">
<path fill="none" stroke="#63b8ff" d="M977.53,-17.83C981.97,-20.28 986.04,-23.43 989,-27.5 1038.23,-95.21 1003.43,-321.61 1025,-402.5 1032.51,-430.67 1047.53,-460.97 1057.79,-479.83"/>
<polygon fill="#63b8ff" stroke="#63b8ff" points="1054.87,-481.78 1062.8,-488.81 1060.99,-478.37 1054.87,-481.78"/>
</a>
</g>
</g>
<!-- Node32&#45;&gt;Node26 -->
<g id="edge39_Node000032_Node000026" class="edge">
<title>Node32&#45;&gt;Node26</title>
<g id="a_edge39_Node000032_Node000026"><a xlink:title=" ">
<path fill="none" stroke="#63b8ff" d="M973.24,-19.01C978.63,-21.45 984.15,-24.3 989,-27.5 1013.82,-43.86 1038.04,-68.29 1053.1,-84.78"/>
<polygon fill="#63b8ff" stroke="#63b8ff" points="1050.81,-87.48 1060.09,-92.6 1056.03,-82.81 1050.81,-87.48"/>
</a>
</g>
</g>
<!-- Node34&#45;&gt;Node22 -->
<g id="edge52_Node000034_Node000022" class="edge">
<title>Node34&#45;&gt;Node22</title>
<g id="a_edge52_Node000034_Node000022"><a xlink:title=" ">
<path fill="none" stroke="#63b8ff" d="M734.83,-555.49C789.71,-556.24 899.31,-554.45 989,-532.5 1007.18,-528.05 1026.51,-519.87 1041.56,-512.65"/>
<polygon fill="#63b8ff" stroke="#63b8ff" points="1043.36,-515.66 1050.77,-508.09 1040.26,-509.39 1043.36,-515.66"/>
</a>
</g>
</g>
<!-- Node35 -->
<g id="Node000035" class="node">
<title>Node35</title>
<g id="a_Node000035"><a xlink:href="monocypher_8cpp.html#a3a8af58026213511d79628872a95da8a" target="_top" xlink:title=" ">
<polygon fill="white" stroke="#666666" points="860,-526 800,-526 800,-507 860,-507 860,-526"/>
<text text-anchor="middle" x="830" y="-514" font-family="Helvetica,sans-Serif" font-size="10.00">fe_invert</text>
</a>
</g>
</g>
<!-- Node34&#45;&gt;Node35 -->
<g id="edge43_Node000034_Node000035" class="edge">
<title>Node34&#45;&gt;Node35</title>
<g id="a_edge43_Node000034_Node000035"><a xlink:title=" ">
<path fill="none" stroke="#63b8ff" d="M732.55,-544.91C750.06,-539.75 771.77,-533.36 790.15,-527.94"/>
<polygon fill="#63b8ff" stroke="#63b8ff" points="791.38,-531.23 799.98,-525.05 789.4,-524.52 791.38,-531.23"/>
</a>
</g>
</g>
<!-- Node37 -->
<g id="Node000037" class="node">
<title>Node37</title>
<g id="a_Node000037"><a xlink:href="monocypher_8cpp.html#ac380d3edceb9474fe10129878be8c014" target="_top" xlink:title=" ">
<polygon fill="white" stroke="#666666" points="859,-640 801,-640 801,-621 859,-621 859,-640"/>
<text text-anchor="middle" x="830" y="-628" font-family="Helvetica,sans-Serif" font-size="10.00">fe_isodd</text>
</a>
</g>
</g>
<!-- Node34&#45;&gt;Node37 -->
<g id="edge49_Node000034_Node000037" class="edge">
<title>Node34&#45;&gt;Node37</title>
<g id="a_edge49_Node000034_Node000037"><a xlink:title=" ">
<path fill="none" stroke="#63b8ff" d="M716.34,-564.13C738.44,-577.15 778.06,-600.49 803.94,-615.74"/>
<polygon fill="#63b8ff" stroke="#63b8ff" points="802.4,-618.89 812.79,-620.95 805.96,-612.86 802.4,-618.89"/>
</a>
</g>
</g>
<!-- Node38 -->
<g id="Node000038" class="node">
<title>Node38</title>
<g id="a_Node000038"><a xlink:href="monocypher_8cpp.html#a05c2c7f025b6d5a8743edacc66e93529" target="_top" xlink:title=" ">
<polygon fill="white" stroke="#666666" points="980.5,-622 912.5,-622 912.5,-603 980.5,-603 980.5,-622"/>
<text text-anchor="middle" x="946.5" y="-610" font-family="Helvetica,sans-Serif" font-size="10.00">fe_tobytes</text>
</a>
</g>
</g>
<!-- Node34&#45;&gt;Node38 -->
<g id="edge53_Node000034_Node000038" class="edge">
<title>Node34&#45;&gt;Node38</title>
<g id="a_edge53_Node000034_Node000038"><a xlink:title=" ">
<path fill="none" stroke="#63b8ff" d="M734.65,-562.69C778.61,-573.07 854.43,-590.99 902.17,-602.26"/>
<polygon fill="#63b8ff" stroke="#63b8ff" points="901.67,-605.74 912.2,-604.63 903.27,-598.93 901.67,-605.74"/>
</a>
</g>
</g>
<!-- Node35&#45;&gt;Node22 -->
<g id="edge44_Node000035_Node000022" class="edge">
<title>Node35&#45;&gt;Node22</title>
<g id="a_edge44_Node000035_Node000022"><a xlink:title=" ">
<path fill="none" stroke="#63b8ff" d="M860.24,-518.83C892.04,-520.87 944.32,-522.76 989,-517.5 1004.2,-515.71 1020.7,-512.06 1034.7,-508.43"/>
<polygon fill="#63b8ff" stroke="#63b8ff" points="1035.66,-511.79 1044.41,-505.82 1033.84,-505.03 1035.66,-511.79"/>
</a>
</g>
</g>
<!-- Node35&#45;&gt;Node23 -->
<g id="edge48_Node000035_Node000023" class="edge">
<title>Node35&#45;&gt;Node23</title>
<g id="a_edge48_Node000035_Node000023"><a xlink:title=" ">
<path fill="none" stroke="#63b8ff" d="M850.14,-506.88C864.82,-499.54 885.63,-489.24 904,-480.5 941.53,-462.64 953.06,-462.37 989,-441.5 1010.31,-429.12 1033.01,-412.46 1048.67,-400.35"/>
<polygon fill="#63b8ff" stroke="#63b8ff" points="1050.88,-403.07 1056.6,-394.15 1046.57,-397.55 1050.88,-403.07"/>
</a>
</g>
</g>
<!-- Node36 -->
<g id="Node000036" class="node">
<title>Node36</title>
<g id="a_Node000036"><a xlink:href="monocypher_8cpp.html#a708232be1ed4f1b3fdfa54cde04685a3" target="_top" xlink:title=" ">
<polygon fill="white" stroke="#666666" points="987.5,-508 905.5,-508 905.5,-489 987.5,-489 987.5,-508"/>
<text text-anchor="middle" x="946.5" y="-496" font-family="Helvetica,sans-Serif" font-size="10.00">fe_pow22523</text>
</a>
</g>
</g>
<!-- Node35&#45;&gt;Node36 -->
<g id="edge45_Node000035_Node000036" class="edge">
<title>Node35&#45;&gt;Node36</title>
<g id="a_edge45_Node000035_Node000036"><a xlink:title=" ">
<path fill="none" stroke="#63b8ff" d="M860.19,-511.91C870.85,-510.23 883.24,-508.29 895.22,-506.4"/>
<polygon fill="#63b8ff" stroke="#63b8ff" points="895.8,-509.86 905.13,-504.85 894.71,-502.94 895.8,-509.86"/>
</a>
</g>
</g>
<!-- Node36&#45;&gt;Node22 -->
<g id="edge46_Node000036_Node000022" class="edge">
<title>Node36&#45;&gt;Node22</title>
<g id="a_edge46_Node000036_Node000022"><a xlink:title=" ">
<path fill="none" stroke="#63b8ff" d="M987.79,-498.5C1002.84,-498.5 1019.77,-498.5 1034.22,-498.5"/>
<polygon fill="#63b8ff" stroke="#63b8ff" points="1034.25,-502 1044.25,-498.5 1034.25,-495 1034.25,-502"/>
</a>
</g>
</g>
<!-- Node36&#45;&gt;Node23 -->
<g id="edge47_Node000036_Node000023" class="edge">
<title>Node36&#45;&gt;Node23</title>
<g id="a_edge47_Node000036_Node000023"><a xlink:title=" ">
<path fill="none" stroke="#63b8ff" d="M966.93,-488.96C974.2,-484.97 982.3,-479.98 989,-474.5 1015.6,-452.73 1040.92,-421.67 1055.57,-402.31"/>
<polygon fill="#63b8ff" stroke="#63b8ff" points="1058.53,-404.2 1061.69,-394.08 1052.91,-400.02 1058.53,-404.2"/>
</a>
</g>
</g>
<!-- Node37&#45;&gt;Node38 -->
<g id="edge50_Node000037_Node000038" class="edge">
<title>Node37&#45;&gt;Node38</title>
<g id="a_edge50_Node000037_Node000038"><a xlink:title=" ">
<path fill="none" stroke="#63b8ff" d="M859.01,-626.1C872.01,-624.05 887.76,-621.58 902.23,-619.3"/>
<polygon fill="#63b8ff" stroke="#63b8ff" points="903.16,-622.7 912.49,-617.69 902.07,-615.78 903.16,-622.7"/>
</a>
</g>
</g>
<!-- Node38&#45;&gt;Node11 -->
<g id="edge51_Node000038_Node000011" class="edge">
<title>Node38&#45;&gt;Node11</title>
<g id="a_edge51_Node000038_Node000011"><a xlink:title=" ">
<path fill="none" stroke="#63b8ff" d="M980.74,-615.04C1022.38,-618.22 1093.82,-623.68 1139.7,-627.19"/>
<polygon fill="#63b8ff" stroke="#63b8ff" points="1139.69,-630.7 1149.93,-627.97 1140.22,-623.72 1139.69,-630.7"/>
</a>
</g>
</g>
<!-- Node40&#45;&gt;Node13 -->
<g id="edge59_Node000040_Node000013" class="edge">
<title>Node40&#45;&gt;Node13</title>
<g id="a_edge59_Node000040_Node000013"><a xlink:title=" ">
<path fill="none" stroke="#63b8ff" d="M546.55,-564.14C586.55,-583.42 679.05,-628.26 756,-667.5 772.12,-675.72 775.86,-678.32 792,-686.5 794.57,-687.8 797.25,-689.14 799.93,-690.47"/>
<polygon fill="#63b8ff" stroke="#63b8ff" points="798.45,-693.64 808.97,-694.9 801.53,-687.36 798.45,-693.64"/>
</a>
</g>
</g>
<!-- Node40&#45;&gt;Node17 -->
<g id="edge57_Node000040_Node000017" class="edge">
<title>Node40&#45;&gt;Node17</title>
<g id="a_edge57_Node000040_Node000017"><a xlink:title=" ">
<path fill="none" stroke="#63b8ff" d="M543.89,-544.97C574.06,-528.43 636.28,-494.33 671.74,-474.89"/>
<polygon fill="#63b8ff" stroke="#63b8ff" points="673.48,-477.93 680.57,-470.06 670.11,-471.79 673.48,-477.93"/>
</a>
</g>
</g>
<!-- Node40&#45;&gt;Node34 -->
<g id="edge58_Node000040_Node000034" class="edge">
<title>Node40&#45;&gt;Node34</title>
<g id="a_edge58_Node000040_Node000034"><a xlink:title=" ">
<path fill="none" stroke="#63b8ff" d="M606.23,-554.5C622.41,-554.5 638.89,-554.5 653.33,-554.5"/>
<polygon fill="#63b8ff" stroke="#63b8ff" points="653.46,-558 663.46,-554.5 653.46,-551 653.46,-558"/>
</a>
</g>
</g>
</g>
</svg>
