<?xml version="1.0" encoding="UTF-8" standalone="no"?>
<!DOCTYPE svg PUBLIC "-//W3C//DTD SVG 1.1//EN"
 "http://www.w3.org/Graphics/SVG/1.1/DTD/svg11.dtd">
<!-- Generated by graphviz version 2.43.0 (0)
 -->
<!-- Title: ge_madd Pages: 1 -->
<svg width="156pt" height="101pt"
 viewBox="0.00 0.00 156.00 101.00" xmlns="http://www.w3.org/2000/svg" xmlns:xlink="http://www.w3.org/1999/xlink">
<g id="graph0" class="graph" transform="scale(1 1) rotate(0) translate(4 97)">
<title>ge_madd</title>
<!-- Node1 -->
<g id="Node000001" class="node">
<title>Node1</title>
<g id="a_Node000001"><a xlink:title=" ">
<polygon fill="#999999" stroke="#666666" points="62,-56 0,-56 0,-37 62,-37 62,-56"/>
<text text-anchor="middle" x="31" y="-44" font-family="Helvetica,sans-Serif" font-size="10.00">ge_madd</text>
</a>
</g>
</g>
<!-- Node2 -->
<g id="Node000002" class="node">
<title>Node2</title>
<g id="a_Node000002"><a xlink:href="monocypher_8cpp.html#a74c70d65e6c663327de91ca2a0225e26" target="_top" xlink:title=" ">
<polygon fill="white" stroke="#666666" points="148,-93 98,-93 98,-74 148,-74 148,-93"/>
<text text-anchor="middle" x="123" y="-81" font-family="Helvetica,sans-Serif" font-size="10.00">fe_add</text>
</a>
</g>
</g>
<!-- Node1&#45;&gt;Node2 -->
<g id="edge1_Node000001_Node000002" class="edge">
<title>Node1&#45;&gt;Node2</title>
<g id="a_edge1_Node000001_Node000002"><a xlink:title=" ">
<path fill="none" stroke="#63b8ff" d="M55.18,-56.03C65.49,-60.27 77.82,-65.34 89.06,-69.96"/>
<polygon fill="#63b8ff" stroke="#63b8ff" points="88.01,-73.31 98.59,-73.88 90.67,-66.84 88.01,-73.31"/>
</a>
</g>
</g>
<!-- Node3 -->
<g id="Node000003" class="node">
<title>Node3</title>
<g id="a_Node000003"><a xlink:href="monocypher_8cpp.html#a140a75c37cb9cb56eef49feadb2a66c7" target="_top" xlink:title=" ">
<polygon fill="white" stroke="#666666" points="148,-56 98,-56 98,-37 148,-37 148,-56"/>
<text text-anchor="middle" x="123" y="-44" font-family="Helvetica,sans-Serif" font-size="10.00">fe_mul</text>
</a>
</g>
</g>
<!-- Node1&#45;&gt;Node3 -->
<g id="edge2_Node000001_Node000003" class="edge">
<title>Node1&#45;&gt;Node3</title>
<g id="a_edge2_Node000001_Node000003"><a xlink:title=" ">
<path fill="none" stroke="#63b8ff" d="M62.47,-46.5C70.57,-46.5 79.38,-46.5 87.68,-46.5"/>
<polygon fill="#63b8ff" stroke="#63b8ff" points="87.82,-50 97.82,-46.5 87.82,-43 87.82,-50"/>
</a>
</g>
</g>
<!-- Node4 -->
<g id="Node000004" class="node">
<title>Node4</title>
<g id="a_Node000004"><a xlink:href="monocypher_8cpp.html#ae385f63fe8c8a4eae2b8c3cf597b076f" target="_top" xlink:title=" ">
<polygon fill="white" stroke="#666666" points="147.5,-19 98.5,-19 98.5,0 147.5,0 147.5,-19"/>
<text text-anchor="middle" x="123" y="-7" font-family="Helvetica,sans-Serif" font-size="10.00">fe_sub</text>
</a>
</g>
</g>
<!-- Node1&#45;&gt;Node4 -->
<g id="edge3_Node000001_Node000004" class="edge">
<title>Node1&#45;&gt;Node4</title>
<g id="a_edge3_Node000001_Node000004"><a xlink:title=" ">
<path fill="none" stroke="#63b8ff" d="M55.18,-36.97C65.49,-32.73 77.82,-27.66 89.06,-23.04"/>
<polygon fill="#63b8ff" stroke="#63b8ff" points="90.67,-26.16 98.59,-19.12 88.01,-19.69 90.67,-26.16"/>
</a>
</g>
</g>
</g>
</svg>
