<?xml version="1.0" encoding="UTF-8" standalone="no"?>
<!DOCTYPE svg PUBLIC "-//W3C//DTD SVG 1.1//EN"
 "http://www.w3.org/Graphics/SVG/1.1/DTD/svg11.dtd">
<!-- Generated by graphviz version 2.43.0 (0)
 -->
<!-- Title: fe_add Pages: 1 -->
<svg width="1237pt" height="588pt"
 viewBox="0.00 0.00 1237.00 587.61" xmlns="http://www.w3.org/2000/svg" xmlns:xlink="http://www.w3.org/1999/xlink">
<g id="graph0" class="graph" transform="scale(1 1) rotate(0) translate(4 583.61)">
<title>fe_add</title>
<!-- Node1 -->
<g id="Node000001" class="node">
<title>Node1</title>
<g id="a_Node000001"><a xlink:title=" ">
<polygon fill="#999999" stroke="#666666" points="1229,-250 1179,-250 1179,-231 1229,-231 1229,-250"/>
<text text-anchor="middle" x="1204" y="-238" font-family="Helvetica,sans-Serif" font-size="10.00">fe_add</text>
</a>
</g>
</g>
<!-- Node2 -->
<g id="Node000002" class="node">
<title>Node2</title>
<g id="a_Node000002"><a xlink:href="monocypher_8cpp.html#a47363d9653182a57966fe8a0dcfe04f1" target="_top" xlink:title=" ">
<polygon fill="white" stroke="#666666" points="789.5,-552 656.5,-552 656.5,-533 789.5,-533 789.5,-552"/>
<text text-anchor="middle" x="723" y="-540" font-family="Helvetica,sans-Serif" font-size="10.00">crypto_curve_to_hidden</text>
</a>
</g>
</g>
<!-- Node1&#45;&gt;Node2 -->
<g id="edge1_Node000001_Node000002" class="edge">
<title>Node1&#45;&gt;Node2</title>
<g id="a_edge1_Node000001_Node000002"><a xlink:title=" ">
<path fill="none" stroke="#63b8ff" d="M1201.76,-260.16C1197.67,-317.84 1182.57,-484.65 1143,-518.5 1030.33,-614.89 832.02,-573.2 755.42,-552.05"/>
<polygon fill="#63b8ff" stroke="#63b8ff" points="1205.25,-260.37 1202.43,-250.15 1198.27,-259.9 1205.25,-260.37"/>
</a>
</g>
</g>
<!-- Node4 -->
<g id="Node000004" class="node">
<title>Node4</title>
<g id="a_Node000004"><a xlink:href="monocypher_8cpp.html#a1b4b32c927af6ad1dc9b8d697e17bf22" target="_top" xlink:title=" ">
<polygon fill="white" stroke="#666666" points="1143,-136 998,-136 998,-117 1143,-117 1143,-136"/>
<text text-anchor="middle" x="1070.5" y="-124" font-family="Helvetica,sans-Serif" font-size="10.00">crypto_from_eddsa_public</text>
</a>
</g>
</g>
<!-- Node1&#45;&gt;Node4 -->
<g id="edge3_Node000001_Node000004" class="edge">
<title>Node1&#45;&gt;Node4</title>
<g id="a_edge3_Node000001_Node000004"><a xlink:title=" ">
<path fill="none" stroke="#63b8ff" d="M1194.99,-221.65C1185.44,-201.32 1167.62,-169.35 1143,-150.5 1134.79,-144.21 1124.83,-139.52 1115,-136.04"/>
<polygon fill="#63b8ff" stroke="#63b8ff" points="1191.83,-223.14 1199.12,-230.83 1198.21,-220.28 1191.83,-223.14"/>
</a>
</g>
</g>
<!-- Node5 -->
<g id="Node000005" class="node">
<title>Node5</title>
<g id="a_Node000005"><a xlink:href="monocypher_8cpp.html#ac445cea8f2d8ff6d9c7d0c3d29a8f4ca" target="_top" xlink:title=" ">
<polygon fill="white" stroke="#666666" points="1137,-99 1004,-99 1004,-80 1137,-80 1137,-99"/>
<text text-anchor="middle" x="1070.5" y="-87" font-family="Helvetica,sans-Serif" font-size="10.00">crypto_hidden_to_curve</text>
</a>
</g>
</g>
<!-- Node1&#45;&gt;Node5 -->
<g id="edge4_Node000001_Node000005" class="edge">
<title>Node1&#45;&gt;Node5</title>
<g id="a_edge4_Node000001_Node000005"><a xlink:title=" ">
<path fill="none" stroke="#63b8ff" d="M1199.7,-220.9C1193.73,-191.69 1178.31,-137.05 1143,-107.5 1138.98,-104.13 1134.41,-101.38 1129.57,-99.14"/>
<polygon fill="#63b8ff" stroke="#63b8ff" points="1196.26,-221.55 1201.55,-230.74 1203.14,-220.26 1196.26,-221.55"/>
</a>
</g>
</g>
<!-- Node6 -->
<g id="Node000006" class="node">
<title>Node6</title>
<g id="a_Node000006"><a xlink:href="monocypher_8cpp.html#a3d723cc737498990cd6f36db997bcfc9" target="_top" xlink:title=" ">
<polygon fill="white" stroke="#666666" points="614,-500 474,-500 474,-481 614,-481 614,-500"/>
<text text-anchor="middle" x="544" y="-488" font-family="Helvetica,sans-Serif" font-size="10.00">crypto_x25519_dirty_fast</text>
</a>
</g>
</g>
<!-- Node1&#45;&gt;Node6 -->
<g id="edge5_Node000001_Node000006" class="edge">
<title>Node1&#45;&gt;Node6</title>
<g id="a_edge5_Node000001_Node000006"><a xlink:title=" ">
<path fill="none" stroke="#63b8ff" d="M1201.51,-260.49C1197.83,-295.66 1185.25,-368.85 1143,-410.5 989.72,-561.62 697.18,-521.67 587.74,-500.03"/>
<polygon fill="#63b8ff" stroke="#63b8ff" points="1205.03,-260.39 1202.45,-250.11 1198.06,-259.76 1205.03,-260.39"/>
</a>
</g>
</g>
<!-- Node7 -->
<g id="Node000007" class="node">
<title>Node7</title>
<g id="a_Node000007"><a xlink:href="monocypher_8cpp.html#a0c599b6040b7f24dc162abb31342fbb6" target="_top" xlink:title=" ">
<polygon fill="white" stroke="#666666" points="1096.5,-288 1044.5,-288 1044.5,-269 1096.5,-269 1096.5,-288"/>
<text text-anchor="middle" x="1070.5" y="-276" font-family="Helvetica,sans-Serif" font-size="10.00">ge_add</text>
</a>
</g>
</g>
<!-- Node1&#45;&gt;Node7 -->
<g id="edge7_Node000001_Node000007" class="edge">
<title>Node1&#45;&gt;Node7</title>
<g id="a_edge7_Node000001_Node000007"><a xlink:title=" ">
<path fill="none" stroke="#63b8ff" d="M1169.03,-250.32C1146.47,-256.83 1117.34,-265.25 1096.81,-271.19"/>
<polygon fill="#63b8ff" stroke="#63b8ff" points="1170.25,-253.61 1178.88,-247.47 1168.3,-246.88 1170.25,-253.61"/>
</a>
</g>
</g>
<!-- Node13 -->
<g id="Node000013" class="node">
<title>Node13</title>
<g id="a_Node000013"><a xlink:href="monocypher_8cpp.html#afb1536be5ffb99b8391711f3ea4581a6" target="_top" xlink:title=" ">
<polygon fill="white" stroke="#666666" points="928,-250 866,-250 866,-231 928,-231 928,-250"/>
<text text-anchor="middle" x="897" y="-238" font-family="Helvetica,sans-Serif" font-size="10.00">ge_cache</text>
</a>
</g>
</g>
<!-- Node1&#45;&gt;Node13 -->
<g id="edge14_Node000001_Node000013" class="edge">
<title>Node1&#45;&gt;Node13</title>
<g id="a_edge14_Node000001_Node000013"><a xlink:title=" ">
<path fill="none" stroke="#63b8ff" d="M1168.71,-240.5C1108.7,-240.5 985.57,-240.5 928.41,-240.5"/>
<polygon fill="#63b8ff" stroke="#63b8ff" points="1168.81,-244 1178.81,-240.5 1168.81,-237 1168.81,-244"/>
</a>
</g>
</g>
<!-- Node14 -->
<g id="Node000014" class="node">
<title>Node14</title>
<g id="a_Node000014"><a xlink:href="monocypher_8cpp.html#ad16930f8b109e9c41ec5e11d98667ad0" target="_top" xlink:title=" ">
<polygon fill="white" stroke="#666666" points="930.5,-401 863.5,-401 863.5,-382 930.5,-382 930.5,-401"/>
<text text-anchor="middle" x="897" y="-389" font-family="Helvetica,sans-Serif" font-size="10.00">ge_double</text>
</a>
</g>
</g>
<!-- Node1&#45;&gt;Node14 -->
<g id="edge16_Node000001_Node000014" class="edge">
<title>Node1&#45;&gt;Node14</title>
<g id="a_edge16_Node000001_Node000014"><a xlink:title=" ">
<path fill="none" stroke="#63b8ff" d="M1188.34,-257.67C1177,-270.09 1160.34,-286.55 1143,-297.5 1073.27,-341.51 979.67,-370.28 930.81,-383.36"/>
<polygon fill="#63b8ff" stroke="#63b8ff" points="1190.96,-259.99 1194.98,-250.19 1185.73,-255.35 1190.96,-259.99"/>
</a>
</g>
</g>
<!-- Node22 -->
<g id="Node000022" class="node">
<title>Node22</title>
<g id="a_Node000022"><a xlink:href="monocypher_8cpp.html#aee5d6b276e47bf4c5d42174b08b7f2f1" target="_top" xlink:title=" ">
<polygon fill="white" stroke="#666666" points="787,-202 659,-202 659,-183 787,-183 787,-202"/>
<text text-anchor="middle" x="723" y="-190" font-family="Helvetica,sans-Serif" font-size="10.00">ge_frombytes_vartime</text>
</a>
</g>
</g>
<!-- Node1&#45;&gt;Node22 -->
<g id="edge27_Node000001_Node000022" class="edge">
<title>Node1&#45;&gt;Node22</title>
<g id="a_edge27_Node000001_Node000022"><a xlink:title=" ">
<path fill="none" stroke="#63b8ff" d="M1190.01,-222.6C1179.15,-209.27 1162.36,-192.13 1143,-184.5 1009.82,-132.01 833.86,-164.93 759.54,-182.98"/>
<polygon fill="#63b8ff" stroke="#63b8ff" points="1187.37,-224.9 1196.26,-230.66 1192.9,-220.61 1187.37,-224.9"/>
</a>
</g>
</g>
<!-- Node23 -->
<g id="Node000023" class="node">
<title>Node23</title>
<g id="a_Node000023"><a xlink:href="monocypher_8cpp.html#ad8c9d309a6f9a52d72574ce9c6de6c87" target="_top" xlink:title=" ">
<polygon fill="white" stroke="#666666" points="1101.5,-401 1039.5,-401 1039.5,-382 1101.5,-382 1101.5,-401"/>
<text text-anchor="middle" x="1070.5" y="-389" font-family="Helvetica,sans-Serif" font-size="10.00">ge_madd</text>
</a>
</g>
</g>
<!-- Node1&#45;&gt;Node23 -->
<g id="edge29_Node000001_Node000023" class="edge">
<title>Node1&#45;&gt;Node23</title>
<g id="a_edge29_Node000001_Node000023"><a xlink:title=" ">
<path fill="none" stroke="#63b8ff" d="M1196.18,-259.52C1187.02,-282.95 1168.86,-322.91 1143,-349.5 1129.25,-363.64 1109.74,-374.67 1094.57,-381.88"/>
<polygon fill="#63b8ff" stroke="#63b8ff" points="1199.51,-260.62 1199.75,-250.03 1192.95,-258.16 1199.51,-260.62"/>
</a>
</g>
</g>
<!-- Node25 -->
<g id="Node000025" class="node">
<title>Node25</title>
<g id="a_Node000025"><a xlink:href="monocypher_8cpp.html#a3b79305b56b677aff707d3babdc21787" target="_top" xlink:title=" ">
<polygon fill="white" stroke="#666666" points="1101,-212 1040,-212 1040,-193 1101,-193 1101,-212"/>
<text text-anchor="middle" x="1070.5" y="-200" font-family="Helvetica,sans-Serif" font-size="10.00">ge_msub</text>
</a>
</g>
</g>
<!-- Node1&#45;&gt;Node25 -->
<g id="edge34_Node000001_Node000025" class="edge">
<title>Node1&#45;&gt;Node25</title>
<g id="a_edge34_Node000001_Node000025"><a xlink:title=" ">
<path fill="none" stroke="#63b8ff" d="M1169.12,-230.71C1148.21,-224.67 1121.61,-216.98 1101.47,-211.16"/>
<polygon fill="#63b8ff" stroke="#63b8ff" points="1168.3,-234.12 1178.88,-233.53 1170.25,-227.39 1168.3,-234.12"/>
</a>
</g>
</g>
<!-- Node26 -->
<g id="Node000026" class="node">
<title>Node26</title>
<g id="a_Node000026"><a xlink:href="monocypher_8cpp.html#a6c5977b63f3251523318e900bfb15db2" target="_top" xlink:title="X&#45;25519 /// Taken from SUPERCOP&#39;s ref10 implementation.">
<polygon fill="white" stroke="#666666" points="1104.5,-62 1036.5,-62 1036.5,-43 1104.5,-43 1104.5,-62"/>
<text text-anchor="middle" x="1070.5" y="-50" font-family="Helvetica,sans-Serif" font-size="10.00">scalarmult</text>
</a>
</g>
</g>
<!-- Node1&#45;&gt;Node26 -->
<g id="edge36_Node000001_Node000026" class="edge">
<title>Node1&#45;&gt;Node26</title>
<g id="a_edge36_Node000001_Node000026"><a xlink:title=" ">
<path fill="none" stroke="#63b8ff" d="M1201.88,-220.64C1198.76,-185.11 1187.04,-110.64 1143,-70.5 1132.59,-61.02 1117.93,-56.36 1104.59,-54.13"/>
<polygon fill="#63b8ff" stroke="#63b8ff" points="1198.39,-220.99 1202.61,-230.71 1205.37,-220.48 1198.39,-220.99"/>
</a>
</g>
</g>
<!-- Node3 -->
<g id="Node000003" class="node">
<title>Node3</title>
<g id="a_Node000003"><a xlink:href="monocypher_8cpp.html#a659013cfc56327e65f62a66ad680e132" target="_top" xlink:title=" ">
<polygon fill="white" stroke="#666666" points="438,-524 306,-524 306,-505 438,-505 438,-524"/>
<text text-anchor="middle" x="372" y="-512" font-family="Helvetica,sans-Serif" font-size="10.00">crypto_hidden_key_pair</text>
</a>
</g>
</g>
<!-- Node2&#45;&gt;Node3 -->
<g id="edge2_Node000002_Node000003" class="edge">
<title>Node2&#45;&gt;Node3</title>
<g id="a_edge2_Node000002_Node000003"><a xlink:title=" ">
<path fill="none" stroke="#63b8ff" d="M646.22,-536.42C584.09,-531.44 497.07,-524.45 438.05,-519.72"/>
<polygon fill="#63b8ff" stroke="#63b8ff" points="646.11,-539.92 656.36,-537.23 646.67,-532.94 646.11,-539.92"/>
</a>
</g>
</g>
<!-- Node6&#45;&gt;Node3 -->
<g id="edge6_Node000006_Node000003" class="edge">
<title>Node6&#45;&gt;Node3</title>
<g id="a_edge6_Node000006_Node000003"><a xlink:title=" ">
<path fill="none" stroke="#63b8ff" d="M465.21,-501.48C456.19,-502.76 447.06,-504.04 438.23,-505.29"/>
<polygon fill="#63b8ff" stroke="#63b8ff" points="465.91,-504.92 475.32,-500.05 464.93,-497.99 465.91,-504.92"/>
</a>
</g>
</g>
<!-- Node8 -->
<g id="Node000008" class="node">
<title>Node8</title>
<g id="a_Node000008"><a xlink:href="monocypher_8cpp.html#a3e283483299f9b9f5fdc6d5282840236" target="_top" xlink:title=" ">
<polygon fill="white" stroke="#666666" points="785,-292.5 661,-292.5 661,-262.5 785,-262.5 785,-292.5"/>
<text text-anchor="start" x="669" y="-280.5" font-family="Helvetica,sans-Serif" font-size="10.00">ge_double_scalarmult</text>
<text text-anchor="middle" x="723" y="-269.5" font-family="Helvetica,sans-Serif" font-size="10.00">_vartime</text>
</a>
</g>
</g>
<!-- Node7&#45;&gt;Node8 -->
<g id="edge8_Node000007_Node000008" class="edge">
<title>Node7&#45;&gt;Node8</title>
<g id="a_edge8_Node000007_Node000008"><a xlink:title=" ">
<path fill="none" stroke="#63b8ff" d="M1034.43,-285.88C1013.51,-289.91 986.36,-294.47 962,-296.5 904.42,-301.29 889.56,-301.52 832,-296.5 816.73,-295.17 800.39,-292.79 785.15,-290.17"/>
<polygon fill="#63b8ff" stroke="#63b8ff" points="1035.32,-289.28 1044.45,-283.91 1033.96,-282.41 1035.32,-289.28"/>
</a>
</g>
</g>
<!-- Node12 -->
<g id="Node000012" class="node">
<title>Node12</title>
<g id="a_Node000012"><a xlink:href="monocypher_8cpp.html#a912d5e336cf86c6927b0c13a1292b1e2" target="_top" xlink:title=" ">
<polygon fill="white" stroke="#666666" points="922.5,-287 871.5,-287 871.5,-268 922.5,-268 922.5,-287"/>
<text text-anchor="middle" x="897" y="-275" font-family="Helvetica,sans-Serif" font-size="10.00">ge_sub</text>
</a>
</g>
</g>
<!-- Node7&#45;&gt;Node12 -->
<g id="edge12_Node000007_Node000012" class="edge">
<title>Node7&#45;&gt;Node12</title>
<g id="a_edge12_Node000007_Node000012"><a xlink:title=" ">
<path fill="none" stroke="#63b8ff" d="M1033.98,-278.29C1000.67,-278.1 951.76,-277.81 922.57,-277.64"/>
<polygon fill="#63b8ff" stroke="#63b8ff" points="1034.17,-281.79 1044.19,-278.35 1034.22,-274.79 1034.17,-281.79"/>
</a>
</g>
</g>
<!-- Node9 -->
<g id="Node000009" class="node">
<title>Node9</title>
<g id="a_Node000009"><a xlink:href="monocypher_8cpp.html#a4a49ca6296983f42a61b450bc383471c" target="_top" xlink:title=" ">
<polygon fill="white" stroke="#666666" points="579.5,-231 508.5,-231 508.5,-212 579.5,-212 579.5,-231"/>
<text text-anchor="middle" x="544" y="-219" font-family="Helvetica,sans-Serif" font-size="10.00">ge_r_check</text>
</a>
</g>
</g>
<!-- Node8&#45;&gt;Node9 -->
<g id="edge9_Node000008_Node000009" class="edge">
<title>Node8&#45;&gt;Node9</title>
<g id="a_edge9_Node000008_Node000009"><a xlink:title=" ">
<path fill="none" stroke="#63b8ff" d="M664.67,-259.36C634.81,-249.91 599.52,-238.75 575.03,-231"/>
<polygon fill="#63b8ff" stroke="#63b8ff" points="663.98,-262.81 674.57,-262.49 666.09,-256.14 663.98,-262.81"/>
</a>
</g>
</g>
<!-- Node10 -->
<g id="Node000010" class="node">
<title>Node10</title>
<g id="a_Node000010"><a xlink:href="monocypher_8cpp.html#a869333b55e033d73e9ba6d36e7a91acc" target="_top" xlink:title=" ">
<polygon fill="white" stroke="#666666" points="425.5,-231 318.5,-231 318.5,-212 425.5,-212 425.5,-231"/>
<text text-anchor="middle" x="372" y="-219" font-family="Helvetica,sans-Serif" font-size="10.00">crypto_check_final</text>
</a>
</g>
</g>
<!-- Node9&#45;&gt;Node10 -->
<g id="edge10_Node000009_Node000010" class="edge">
<title>Node9&#45;&gt;Node10</title>
<g id="a_edge10_Node000009_Node000010"><a xlink:title=" ">
<path fill="none" stroke="#63b8ff" d="M498,-221.5C475.74,-221.5 448.74,-221.5 425.53,-221.5"/>
<polygon fill="#63b8ff" stroke="#63b8ff" points="498.19,-225 508.19,-221.5 498.19,-218 498.19,-225"/>
</a>
</g>
</g>
<!-- Node11 -->
<g id="Node000011" class="node">
<title>Node11</title>
<g id="a_Node000011"><a xlink:href="monocypher_8cpp.html#a0a081a8a32ee216184b0a80e65bc5632" target="_top" xlink:title=" ">
<polygon fill="white" stroke="#666666" points="230,-231 149,-231 149,-212 230,-212 230,-231"/>
<text text-anchor="middle" x="189.5" y="-219" font-family="Helvetica,sans-Serif" font-size="10.00">crypto_check</text>
</a>
</g>
</g>
<!-- Node10&#45;&gt;Node11 -->
<g id="edge11_Node000010_Node000011" class="edge">
<title>Node10&#45;&gt;Node11</title>
<g id="a_edge11_Node000010_Node000011"><a xlink:title=" ">
<path fill="none" stroke="#63b8ff" d="M308.17,-221.5C282.22,-221.5 252.92,-221.5 230.05,-221.5"/>
<polygon fill="#63b8ff" stroke="#63b8ff" points="308.31,-225 318.31,-221.5 308.31,-218 308.31,-225"/>
</a>
</g>
</g>
<!-- Node12&#45;&gt;Node8 -->
<g id="edge13_Node000012_Node000008" class="edge">
<title>Node12&#45;&gt;Node8</title>
<g id="a_edge13_Node000012_Node000008"><a xlink:title=" ">
<path fill="none" stroke="#63b8ff" d="M861.27,-277.5C839.5,-277.5 810.84,-277.5 785.33,-277.5"/>
<polygon fill="#63b8ff" stroke="#63b8ff" points="861.36,-281 871.36,-277.5 861.36,-274 861.36,-281"/>
</a>
</g>
</g>
<!-- Node13&#45;&gt;Node8 -->
<g id="edge15_Node000013_Node000008" class="edge">
<title>Node13&#45;&gt;Node8</title>
<g id="a_edge15_Node000013_Node000008"><a xlink:title=" ">
<path fill="none" stroke="#63b8ff" d="M855.76,-249.16C834.72,-253.68 808.52,-259.32 785.03,-264.37"/>
<polygon fill="#63b8ff" stroke="#63b8ff" points="856.61,-252.55 865.65,-247.03 855.13,-245.71 856.61,-252.55"/>
</a>
</g>
</g>
<!-- Node14&#45;&gt;Node8 -->
<g id="edge17_Node000014_Node000008" class="edge">
<title>Node14&#45;&gt;Node8</title>
<g id="a_edge17_Node000014_Node000008"><a xlink:title=" ">
<path fill="none" stroke="#63b8ff" d="M854.76,-378.37C846.98,-375.25 839.07,-371.61 832,-367.5 795.29,-346.15 758.59,-312.24 738.84,-292.71"/>
<polygon fill="#63b8ff" stroke="#63b8ff" points="853.53,-381.65 864.12,-381.92 856.01,-375.1 853.53,-381.65"/>
</a>
</g>
</g>
<!-- Node15 -->
<g id="Node000015" class="node">
<title>Node15</title>
<g id="a_Node000015"><a xlink:href="monocypher_8cpp.html#aa458254de7f01e3ad187901784150817" target="_top" xlink:title=" ">
<polygon fill="white" stroke="#666666" points="780,-438 666,-438 666,-419 780,-419 780,-438"/>
<text text-anchor="middle" x="723" y="-426" font-family="Helvetica,sans-Serif" font-size="10.00">ge_scalarmult_base</text>
</a>
</g>
</g>
<!-- Node14&#45;&gt;Node15 -->
<g id="edge18_Node000014_Node000015" class="edge">
<title>Node14&#45;&gt;Node15</title>
<g id="a_edge18_Node000014_Node000015"><a xlink:title=" ">
<path fill="none" stroke="#63b8ff" d="M853.35,-400.68C827.47,-406.24 794.51,-413.33 768.33,-418.96"/>
<polygon fill="#63b8ff" stroke="#63b8ff" points="854.2,-404.07 863.24,-398.55 852.73,-397.23 854.2,-404.07"/>
</a>
</g>
</g>
<!-- Node15&#45;&gt;Node6 -->
<g id="edge26_Node000015_Node000006" class="edge">
<title>Node15&#45;&gt;Node6</title>
<g id="a_edge26_Node000015_Node000006"><a xlink:title=" ">
<path fill="none" stroke="#63b8ff" d="M683.27,-441.21C672.48,-444.8 660.77,-448.76 650,-452.5 622.9,-461.92 592.04,-473.15 570.83,-480.95"/>
<polygon fill="#63b8ff" stroke="#63b8ff" points="684.48,-444.5 692.87,-438.02 682.27,-437.85 684.48,-444.5"/>
</a>
</g>
</g>
<!-- Node16 -->
<g id="Node000016" class="node">
<title>Node16</title>
<g id="a_Node000016"><a xlink:href="monocypher_8cpp.html#a43c47f7ac5c8f0a7f8196f32ff0a93dd" target="_top" xlink:title=" ">
<polygon fill="white" stroke="#666666" points="270,-432 109,-432 109,-413 270,-413 270,-432"/>
<text text-anchor="middle" x="189.5" y="-420" font-family="Helvetica,sans-Serif" font-size="10.00">crypto_sign_init_second_pass</text>
</a>
</g>
</g>
<!-- Node15&#45;&gt;Node16 -->
<g id="edge19_Node000015_Node000016" class="edge">
<title>Node15&#45;&gt;Node16</title>
<g id="a_edge19_Node000015_Node000016"><a xlink:title=" ">
<path fill="none" stroke="#63b8ff" d="M655.81,-427.75C557.96,-426.65 374.99,-424.58 270,-423.4"/>
<polygon fill="#63b8ff" stroke="#63b8ff" points="655.84,-431.25 665.87,-427.87 655.91,-424.25 655.84,-431.25"/>
</a>
</g>
</g>
<!-- Node18 -->
<g id="Node000018" class="node">
<title>Node18</title>
<g id="a_Node000018"><a xlink:href="monocypher_8cpp.html#ac08aa33931d3d013b5590a5c2285cb43" target="_top" xlink:title=" ">
<polygon fill="white" stroke="#666666" points="598.5,-405.5 489.5,-405.5 489.5,-375.5 598.5,-375.5 598.5,-405.5"/>
<text text-anchor="start" x="497.5" y="-393.5" font-family="Helvetica,sans-Serif" font-size="10.00">crypto_sign_public</text>
<text text-anchor="middle" x="544" y="-382.5" font-family="Helvetica,sans-Serif" font-size="10.00">_key_custom_hash</text>
</a>
</g>
</g>
<!-- Node15&#45;&gt;Node18 -->
<g id="edge21_Node000015_Node000018" class="edge">
<title>Node15&#45;&gt;Node18</title>
<g id="a_edge21_Node000015_Node000018"><a xlink:title=" ">
<path fill="none" stroke="#63b8ff" d="M667.55,-416.81C645.7,-412.12 620.59,-406.73 598.8,-402.05"/>
<polygon fill="#63b8ff" stroke="#63b8ff" points="666.82,-420.23 677.34,-418.91 668.29,-413.39 666.82,-420.23"/>
</a>
</g>
</g>
<!-- Node17 -->
<g id="Node000017" class="node">
<title>Node17</title>
<g id="a_Node000017"><a xlink:href="monocypher_8cpp.html#a27ec2a75334ac2499f802ca8450021e0" target="_top" xlink:title=" ">
<polygon fill="white" stroke="#666666" points="73,-402 0,-402 0,-383 73,-383 73,-402"/>
<text text-anchor="middle" x="36.5" y="-390" font-family="Helvetica,sans-Serif" font-size="10.00">crypto_sign</text>
</a>
</g>
</g>
<!-- Node16&#45;&gt;Node17 -->
<g id="edge20_Node000016_Node000017" class="edge">
<title>Node16&#45;&gt;Node17</title>
<g id="a_edge20_Node000016_Node000017"><a xlink:title=" ">
<path fill="none" stroke="#63b8ff" d="M130.42,-410.96C111.18,-407.14 90.34,-403 73.28,-399.61"/>
<polygon fill="#63b8ff" stroke="#63b8ff" points="129.82,-414.41 140.31,-412.93 131.18,-407.54 129.82,-414.41"/>
</a>
</g>
</g>
<!-- Node19 -->
<g id="Node000019" class="node">
<title>Node19</title>
<g id="a_Node000019"><a xlink:href="monocypher_8cpp.html#ac53a3c38569af32c8312795e415d2365" target="_top" xlink:title=" ">
<polygon fill="white" stroke="#666666" points="431,-367.5 313,-367.5 313,-337.5 431,-337.5 431,-367.5"/>
<text text-anchor="start" x="321" y="-355.5" font-family="Helvetica,sans-Serif" font-size="10.00">crypto_sign_init_first</text>
<text text-anchor="middle" x="372" y="-344.5" font-family="Helvetica,sans-Serif" font-size="10.00">_pass_custom_hash</text>
</a>
</g>
</g>
<!-- Node18&#45;&gt;Node19 -->
<g id="edge22_Node000018_Node000019" class="edge">
<title>Node18&#45;&gt;Node19</title>
<g id="a_edge22_Node000018_Node000019"><a xlink:title=" ">
<path fill="none" stroke="#63b8ff" d="M479.05,-376.21C463.33,-372.69 446.58,-368.95 431.15,-365.5"/>
<polygon fill="#63b8ff" stroke="#63b8ff" points="478.69,-379.71 489.21,-378.48 480.22,-372.88 478.69,-379.71"/>
</a>
</g>
</g>
<!-- Node21 -->
<g id="Node000021" class="node">
<title>Node21</title>
<g id="a_Node000021"><a xlink:href="monocypher_8cpp.html#a18eb436f2563173aaaddce1fcddee26e" target="_top" xlink:title=" ">
<polygon fill="white" stroke="#666666" points="437,-405 307,-405 307,-386 437,-386 437,-405"/>
<text text-anchor="middle" x="372" y="-393" font-family="Helvetica,sans-Serif" font-size="10.00">crypto_sign_public_key</text>
</a>
</g>
</g>
<!-- Node18&#45;&gt;Node21 -->
<g id="edge25_Node000018_Node000021" class="edge">
<title>Node18&#45;&gt;Node21</title>
<g id="a_edge25_Node000018_Node000021"><a xlink:title=" ">
<path fill="none" stroke="#63b8ff" d="M478.93,-392.38C465.26,-392.79 450.82,-393.21 437.15,-393.61"/>
<polygon fill="#63b8ff" stroke="#63b8ff" points="479.32,-395.87 489.21,-392.08 479.11,-388.88 479.32,-395.87"/>
</a>
</g>
</g>
<!-- Node20 -->
<g id="Node000020" class="node">
<title>Node20</title>
<g id="a_Node000020"><a xlink:href="monocypher_8cpp.html#a66d9333be03262fadfdb1274b187035d" target="_top" xlink:title=" ">
<polygon fill="white" stroke="#666666" points="262.5,-373 116.5,-373 116.5,-354 262.5,-354 262.5,-373"/>
<text text-anchor="middle" x="189.5" y="-361" font-family="Helvetica,sans-Serif" font-size="10.00">crypto_sign_init_first_pass</text>
</a>
</g>
</g>
<!-- Node19&#45;&gt;Node20 -->
<g id="edge23_Node000019_Node000020" class="edge">
<title>Node19&#45;&gt;Node20</title>
<g id="a_edge23_Node000019_Node000020"><a xlink:title=" ">
<path fill="none" stroke="#63b8ff" d="M302.6,-356.67C289.57,-357.46 275.89,-358.3 262.74,-359.1"/>
<polygon fill="#63b8ff" stroke="#63b8ff" points="303.13,-360.14 312.9,-356.04 302.7,-353.16 303.13,-360.14"/>
</a>
</g>
</g>
<!-- Node20&#45;&gt;Node17 -->
<g id="edge24_Node000020_Node000017" class="edge">
<title>Node20&#45;&gt;Node17</title>
<g id="a_edge24_Node000020_Node000017"><a xlink:title=" ">
<path fill="none" stroke="#63b8ff" d="M128.71,-374.98C110.02,-378.57 89.97,-382.42 73.45,-385.6"/>
<polygon fill="#63b8ff" stroke="#63b8ff" points="129.48,-378.4 138.64,-373.08 128.16,-371.53 129.48,-378.4"/>
</a>
</g>
</g>
<!-- Node22&#45;&gt;Node9 -->
<g id="edge28_Node000022_Node000009" class="edge">
<title>Node22&#45;&gt;Node9</title>
<g id="a_edge28_Node000022_Node000009"><a xlink:title=" ">
<path fill="none" stroke="#63b8ff" d="M653.62,-203.7C628.31,-207.85 600.69,-212.38 579.63,-215.83"/>
<polygon fill="#63b8ff" stroke="#63b8ff" points="654.25,-207.15 663.55,-202.08 653.12,-200.24 654.25,-207.15"/>
</a>
</g>
</g>
<!-- Node23&#45;&gt;Node6 -->
<g id="edge30_Node000023_Node000006" class="edge">
<title>Node23&#45;&gt;Node6</title>
<g id="a_edge30_Node000023_Node000006"><a xlink:title=" ">
<path fill="none" stroke="#63b8ff" d="M1046.76,-406.6C1025.71,-419.77 993.08,-438.18 962,-447.5 898.74,-466.48 715.57,-480.16 614.32,-486.52"/>
<polygon fill="#63b8ff" stroke="#63b8ff" points="1048.76,-409.48 1055.3,-401.15 1044.99,-403.58 1048.76,-409.48"/>
</a>
</g>
</g>
<!-- Node23&#45;&gt;Node8 -->
<g id="edge31_Node000023_Node000008" class="edge">
<title>Node23&#45;&gt;Node8</title>
<g id="a_edge31_Node000023_Node000008"><a xlink:title=" ">
<path fill="none" stroke="#63b8ff" d="M1030.91,-378.77C966.72,-357.59 838.32,-315.22 769.71,-292.58"/>
<polygon fill="#63b8ff" stroke="#63b8ff" points="1030.04,-382.17 1040.64,-381.98 1032.24,-375.52 1030.04,-382.17"/>
</a>
</g>
</g>
<!-- Node24 -->
<g id="Node000024" class="node">
<title>Node24</title>
<g id="a_Node000024"><a xlink:href="monocypher_8cpp.html#a96c11b4f31488218a7f37abc3174e633" target="_top" xlink:title=" ">
<polygon fill="white" stroke="#666666" points="933,-438 861,-438 861,-419 933,-419 933,-438"/>
<text text-anchor="middle" x="897" y="-426" font-family="Helvetica,sans-Serif" font-size="10.00">lookup_add</text>
</a>
</g>
</g>
<!-- Node23&#45;&gt;Node24 -->
<g id="edge32_Node000023_Node000024" class="edge">
<title>Node23&#45;&gt;Node24</title>
<g id="a_edge32_Node000023_Node000024"><a xlink:title=" ">
<path fill="none" stroke="#63b8ff" d="M1029.38,-400.16C1000.26,-406.44 961.23,-414.86 933.29,-420.89"/>
<polygon fill="#63b8ff" stroke="#63b8ff" points="1030.2,-403.56 1039.23,-398.03 1028.72,-396.72 1030.2,-403.56"/>
</a>
</g>
</g>
<!-- Node24&#45;&gt;Node15 -->
<g id="edge33_Node000024_Node000015" class="edge">
<title>Node24&#45;&gt;Node15</title>
<g id="a_edge33_Node000024_Node000015"><a xlink:title=" ">
<path fill="none" stroke="#63b8ff" d="M850.57,-428.5C828.99,-428.5 802.98,-428.5 780.17,-428.5"/>
<polygon fill="#63b8ff" stroke="#63b8ff" points="850.78,-432 860.78,-428.5 850.78,-425 850.78,-432"/>
</a>
</g>
</g>
<!-- Node25&#45;&gt;Node8 -->
<g id="edge35_Node000025_Node000008" class="edge">
<title>Node25&#45;&gt;Node8</title>
<g id="a_edge35_Node000025_Node000008"><a xlink:title=" ">
<path fill="none" stroke="#63b8ff" d="M1029.72,-201.23C981.86,-200.74 899.52,-203.27 832,-222.5 800.84,-231.38 768.08,-249.48 746.93,-262.49"/>
<polygon fill="#63b8ff" stroke="#63b8ff" points="1029.92,-204.73 1039.97,-201.38 1030.02,-197.73 1029.92,-204.73"/>
</a>
</g>
</g>
<!-- Node27 -->
<g id="Node000027" class="node">
<title>Node27</title>
<g id="a_Node000027"><a xlink:href="monocypher_8cpp.html#a297c5caead6b2a62437c81bef875faa6" target="_top" xlink:title=" ">
<polygon fill="white" stroke="#666666" points="941.5,-105 852.5,-105 852.5,-86 941.5,-86 941.5,-105"/>
<text text-anchor="middle" x="897" y="-93" font-family="Helvetica,sans-Serif" font-size="10.00">crypto_x25519</text>
</a>
</g>
</g>
<!-- Node26&#45;&gt;Node27 -->
<g id="edge37_Node000026_Node000027" class="edge">
<title>Node26&#45;&gt;Node27</title>
<g id="a_edge37_Node000026_Node000027"><a xlink:title=" ">
<path fill="none" stroke="#63b8ff" d="M1026.58,-63.26C998.76,-70.24 962.85,-79.24 936.05,-85.96"/>
<polygon fill="#63b8ff" stroke="#63b8ff" points="1027.58,-66.62 1036.43,-60.79 1025.88,-59.83 1027.58,-66.62"/>
</a>
</g>
</g>
<!-- Node30 -->
<g id="Node000030" class="node">
<title>Node30</title>
<g id="a_Node000030"><a xlink:href="monocypher_8cpp.html#aac91b6b4254ad5c3716e38582ddd44f9" target="_top" xlink:title=" ">
<polygon fill="white" stroke="#666666" points="955,-67.5 839,-67.5 839,-37.5 955,-37.5 955,-67.5"/>
<text text-anchor="start" x="847" y="-55.5" font-family="Helvetica,sans-Serif" font-size="10.00">crypto_x25519_dirty</text>
<text text-anchor="middle" x="897" y="-44.5" font-family="Helvetica,sans-Serif" font-size="10.00">_small</text>
</a>
</g>
</g>
<!-- Node26&#45;&gt;Node30 -->
<g id="edge40_Node000026_Node000030" class="edge">
<title>Node26&#45;&gt;Node30</title>
<g id="a_edge40_Node000026_Node000030"><a xlink:title=" ">
<path fill="none" stroke="#63b8ff" d="M1026.29,-52.5C1004.77,-52.5 978.46,-52.5 955.29,-52.5"/>
<polygon fill="#63b8ff" stroke="#63b8ff" points="1026.43,-56 1036.43,-52.5 1026.43,-49 1026.43,-56"/>
</a>
</g>
</g>
<!-- Node31 -->
<g id="Node000031" class="node">
<title>Node31</title>
<g id="a_Node000031"><a xlink:href="monocypher_8cpp.html#a40d1e320cac9b8b4348899d2d66fdbb1" target="_top" xlink:title=" ">
<polygon fill="white" stroke="#666666" points="962,-19 832,-19 832,0 962,0 962,-19"/>
<text text-anchor="middle" x="897" y="-7" font-family="Helvetica,sans-Serif" font-size="10.00">crypto_x25519_inverse</text>
</a>
</g>
</g>
<!-- Node26&#45;&gt;Node31 -->
<g id="edge41_Node000026_Node000031" class="edge">
<title>Node26&#45;&gt;Node31</title>
<g id="a_edge41_Node000026_Node000031"><a xlink:title=" ">
<path fill="none" stroke="#63b8ff" d="M1026.58,-41.74C998.76,-34.76 962.85,-25.76 936.05,-19.04"/>
<polygon fill="#63b8ff" stroke="#63b8ff" points="1025.88,-45.17 1036.43,-44.21 1027.58,-38.38 1025.88,-45.17"/>
</a>
</g>
</g>
<!-- Node28 -->
<g id="Node000028" class="node">
<title>Node28</title>
<g id="a_Node000028"><a xlink:href="monocypher_8cpp.html#a20d6501a0ceb47ac186422d836411905" target="_top" xlink:title="Key exchange ///.">
<polygon fill="white" stroke="#666666" points="784,-121 662,-121 662,-102 784,-102 784,-121"/>
<text text-anchor="middle" x="723" y="-109" font-family="Helvetica,sans-Serif" font-size="10.00">crypto_key_exchange</text>
</a>
</g>
</g>
<!-- Node27&#45;&gt;Node28 -->
<g id="edge38_Node000027_Node000028" class="edge">
<title>Node27&#45;&gt;Node28</title>
<g id="a_edge38_Node000027_Node000028"><a xlink:title=" ">
<path fill="none" stroke="#63b8ff" d="M841.95,-100.53C823.64,-102.23 803.08,-104.14 784.31,-105.89"/>
<polygon fill="#63b8ff" stroke="#63b8ff" points="842.52,-103.99 852.15,-99.58 841.87,-97.02 842.52,-103.99"/>
</a>
</g>
</g>
<!-- Node29 -->
<g id="Node000029" class="node">
<title>Node29</title>
<g id="a_Node000029"><a xlink:href="monocypher_8cpp.html#a17eaafdb62f01899fd7769bf728900f8" target="_top" xlink:title=" ">
<polygon fill="white" stroke="#666666" points="796,-84 650,-84 650,-65 796,-65 796,-84"/>
<text text-anchor="middle" x="723" y="-72" font-family="Helvetica,sans-Serif" font-size="10.00">crypto_x25519_public_key</text>
</a>
</g>
</g>
<!-- Node27&#45;&gt;Node29 -->
<g id="edge39_Node000027_Node000029" class="edge">
<title>Node27&#45;&gt;Node29</title>
<g id="a_edge39_Node000027_Node000029"><a xlink:title=" ">
<path fill="none" stroke="#63b8ff" d="M841.87,-88.89C827.38,-87.12 811.47,-85.18 796.17,-83.31"/>
<polygon fill="#63b8ff" stroke="#63b8ff" points="841.8,-92.41 852.15,-90.15 842.65,-85.46 841.8,-92.41"/>
</a>
</g>
</g>
</g>
</svg>
