<?xml version="1.0" encoding="UTF-8" standalone="no"?>
<!DOCTYPE svg PUBLIC "-//W3C//DTD SVG 1.1//EN"
 "http://www.w3.org/Graphics/SVG/1.1/DTD/svg11.dtd">
<!-- Generated by graphviz version 2.43.0 (0)
 -->
<!-- Title: crypto_x25519_inverse Pages: 1 -->
<!--zoomable 693 -->

<svg id="main" version="1.1" xmlns="http://www.w3.org/2000/svg" xmlns:xlink="http://www.w3.org/1999/xlink" xml:space="preserve" onload="init(evt)">
<style type="text/css"><![CDATA[
.node, .edge {opacity: 0.7;}
.node.selected, .edge.selected {opacity: 1;}
.edge:hover path { stroke: red; }
.edge:hover polygon { stroke: red; fill: red; }
]]></style>

<defs>
  <circle id="rim" cx="0" cy="0" r="7"/>
  <circle id="rim2" cx="0" cy="0" r="3.5"/>
  <g id="zoomPlus">
    <use xlink:href="#rim" fill="#404040"><set attributeName="fill" to="#808080" begin="zoomplus.mouseover" end="zoomplus.mouseout"/></use>
    <path d="M-4,0h8M0,-4v8" fill="none" stroke="white" stroke-width="1.5" pointer-events="none"/>
  </g>
  <g id="zoomMin">
    <use xlink:href="#rim" fill="#404040"><set attributeName="fill" to="#808080" begin="zoomminus.mouseover" end="zoomminus.mouseout"/></use>
    <path d="M-4,0h8" fill="none" stroke="white" stroke-width="1.5" pointer-events="none"/>
  </g>
  <g id="arrowUp" transform="translate(30 24)">
    <use xlink:href="#rim"/>
    <path pointer-events="none" fill="none" stroke="white" stroke-width="1.5" d="M0,-3.0v7 M-2.5,-0.5L0,-3.0L2.5,-0.5"/>
  </g>
  <g id="arrowRight" transform="rotate(90) translate(36 -43)">
    <use xlink:href="#rim"/>
    <path pointer-events="none" fill="none" stroke="white" stroke-width="1.5" d="M0,-3.0v7 M-2.5,-0.5L0,-3.0L2.5,-0.5"/>
  </g>
  <g id="arrowDown" transform="rotate(180) translate(-30 -48)">
    <use xlink:href="#rim"/>
    <path pointer-events="none" fill="none" stroke="white" stroke-width="1.5" d="M0,-3.0v7 M-2.5,-0.5L0,-3.0L2.5,-0.5"/>
  </g>
  <g id="arrowLeft" transform="rotate(270) translate(-36 17)">
    <use xlink:href="#rim"/>
    <path pointer-events="none" fill="none" stroke="white" stroke-width="1.5" d="M0,-3.0v7 M-2.5,-0.5L0,-3.0L2.5,-0.5"/>
  </g>
  <g id="resetDef">
    <use xlink:href="#rim2" fill="#404040"><set attributeName="fill" to="#808080" begin="reset.mouseover" end="reset.mouseout"/></use>
  </g>
</defs>
<script type="application/ecmascript">
var viewWidth = 588;
var viewHeight = 693;
var sectionId = 'dynsection-89';
</script>
<script type="application/ecmascript" xlink:href="svg.min.js"/>
<svg id="graph" class="graph">
<g id="viewport">
<title>crypto_x25519_inverse</title>
<!-- Node1 -->
<g id="Node000001" class="node">
<title>Node1</title>
<g id="a_Node000001"><a xlink:title=" ">
<polygon fill="#999999" stroke="#666666" points="130,-533.64 0,-533.64 0,-514.64 130,-514.64 130,-533.64"/>
<text text-anchor="middle" x="65" y="-521.64" font-family="Helvetica,sans-Serif" font-size="10.00">crypto_x25519_inverse</text>
</a>
</g>
</g>
<!-- Node2 -->
<g id="Node000002" class="node">
<title>Node2</title>
<g id="a_Node000002"><a xlink:href="monocypher_8cpp.html#ae7e11b8d21d39745db43fbb39a50e1f2" target="_top" xlink:title="Dirty ephemeral public key generation ///.">
<polygon fill="white" stroke="#666666" points="356,-645.64 307,-645.64 307,-626.64 356,-626.64 356,-645.64"/>
<text text-anchor="middle" x="331.5" y="-633.64" font-family="Helvetica,sans-Serif" font-size="10.00">add_xl</text>
</a>
</g>
</g>
<!-- Node1&#45;&gt;Node2 -->
<g id="edge1_Node000001_Node000002" class="edge">
<title>Node1&#45;&gt;Node2</title>
<g id="a_edge1_Node000001_Node000002"><a xlink:title=" ">
<path fill="none" stroke="#63b8ff" d="M75.2,-533.78C91.72,-550.48 128.23,-584.68 166,-602.14 208.58,-621.83 262.6,-630.2 296.87,-633.7"/>
<polygon fill="#63b8ff" stroke="#63b8ff" points="296.55,-637.19 306.84,-634.64 297.21,-630.22 296.55,-637.19"/>
</a>
</g>
</g>
<!-- Node5 -->
<g id="Node000005" class="node">
<title>Node5</title>
<g id="a_Node000005"><a xlink:href="monocypher_8cpp.html#a6867780322c10cadace0174654d45253" target="_top" xlink:title=" ">
<polygon fill="white" stroke="#666666" points="251,-684.64 166,-684.64 166,-665.64 251,-665.64 251,-684.64"/>
<text text-anchor="middle" x="208.5" y="-672.64" font-family="Helvetica,sans-Serif" font-size="10.00">load32_le_buf</text>
</a>
</g>
</g>
<!-- Node1&#45;&gt;Node5 -->
<g id="edge4_Node000001_Node000005" class="edge">
<title>Node1&#45;&gt;Node5</title>
<g id="a_edge4_Node000001_Node000005"><a xlink:title=" ">
<path fill="none" stroke="#63b8ff" d="M71.75,-533.75C85.66,-556.41 123.16,-614.02 166,-651.14 169.81,-654.44 174.14,-657.52 178.53,-660.31"/>
<polygon fill="#63b8ff" stroke="#63b8ff" points="177.09,-663.52 187.48,-665.57 180.63,-657.48 177.09,-663.52"/>
</a>
</g>
</g>
<!-- Node6 -->
<g id="Node000006" class="node">
<title>Node6</title>
<g id="a_Node000006"><a xlink:href="monocypher_8cpp.html#a6e8a4cb2bbf5aa910c8613658ed84392" target="_top" xlink:title=" ">
<polygon fill="white" stroke="#666666" points="232,-570.64 185,-570.64 185,-551.64 232,-551.64 232,-570.64"/>
<text text-anchor="middle" x="208.5" y="-558.64" font-family="Helvetica,sans-Serif" font-size="10.00">mod_l</text>
</a>
</g>
</g>
<!-- Node1&#45;&gt;Node6 -->
<g id="edge6_Node000001_Node000006" class="edge">
<title>Node1&#45;&gt;Node6</title>
<g id="a_edge6_Node000001_Node000006"><a xlink:title=" ">
<path fill="none" stroke="#63b8ff" d="M102.44,-533.67C124.92,-539.55 153.5,-547.02 175.17,-552.69"/>
<polygon fill="#63b8ff" stroke="#63b8ff" points="174.34,-556.09 184.9,-555.23 176.11,-549.31 174.34,-556.09"/>
</a>
</g>
</g>
<!-- Node9 -->
<g id="Node000009" class="node">
<title>Node9</title>
<g id="a_Node000009"><a xlink:href="monocypher_8cpp.html#a409ecfec661926a9ea66841272db8562" target="_top" xlink:title=" ">
<polygon fill="white" stroke="#666666" points="376,-608.64 287,-608.64 287,-589.64 376,-589.64 376,-608.64"/>
<text text-anchor="middle" x="331.5" y="-596.64" font-family="Helvetica,sans-Serif" font-size="10.00">store32_le_buf</text>
</a>
</g>
</g>
<!-- Node1&#45;&gt;Node9 -->
<g id="edge39_Node000001_Node000009" class="edge">
<title>Node1&#45;&gt;Node9</title>
<g id="a_edge39_Node000001_Node000009"><a xlink:title=" ">
<path fill="none" stroke="#63b8ff" d="M79.12,-533.75C97.51,-546.68 132.49,-569.31 166,-580.14 201.79,-591.71 243.97,-596.42 276.65,-598.26"/>
<polygon fill="#63b8ff" stroke="#63b8ff" points="276.75,-601.76 286.91,-598.76 277.09,-594.77 276.75,-601.76"/>
</a>
</g>
</g>
<!-- Node10 -->
<g id="Node000010" class="node">
<title>Node10</title>
<g id="a_Node000010"><a xlink:href="monocypher_8cpp.html#a8b7af7b2180ef6bb7dacdc32cbf11d6b" target="_top" xlink:title=" ">
<polygon fill="white" stroke="#666666" points="360,-533.64 303,-533.64 303,-514.64 360,-514.64 360,-533.64"/>
<text text-anchor="middle" x="331.5" y="-521.64" font-family="Helvetica,sans-Serif" font-size="10.00">multiply</text>
</a>
</g>
</g>
<!-- Node1&#45;&gt;Node10 -->
<g id="edge11_Node000001_Node000010" class="edge">
<title>Node1&#45;&gt;Node10</title>
<g id="a_edge11_Node000001_Node000010"><a xlink:title=" ">
<path fill="none" stroke="#63b8ff" d="M106.62,-514.63C124.69,-510.87 146.29,-507 166,-505.14 203.61,-501.6 213.48,-500.72 251,-505.14 264.93,-506.78 279.95,-509.99 293.14,-513.3"/>
<polygon fill="#63b8ff" stroke="#63b8ff" points="292.27,-516.69 302.83,-515.84 294.04,-509.92 292.27,-516.69"/>
</a>
</g>
</g>
<!-- Node11 -->
<g id="Node000011" class="node">
<title>Node11</title>
<g id="a_Node000011"><a xlink:href="monocypher_8cpp.html#a4f6442a769883f99ec1a8bd508ff6b7d" target="_top" xlink:title="Scalar division ///.">
<polygon fill="white" stroke="#666666" points="227.5,-533.64 189.5,-533.64 189.5,-514.64 227.5,-514.64 227.5,-533.64"/>
<text text-anchor="middle" x="208.5" y="-521.64" font-family="Helvetica,sans-Serif" font-size="10.00">redc</text>
</a>
</g>
</g>
<!-- Node1&#45;&gt;Node11 -->
<g id="edge12_Node000001_Node000011" class="edge">
<title>Node1&#45;&gt;Node11</title>
<g id="a_edge12_Node000001_Node000011"><a xlink:title=" ">
<path fill="none" stroke="#63b8ff" d="M130.13,-524.14C147.37,-524.14 165.15,-524.14 179.31,-524.14"/>
<polygon fill="#63b8ff" stroke="#63b8ff" points="179.36,-527.64 189.36,-524.14 179.36,-520.64 179.36,-527.64"/>
</a>
</g>
</g>
<!-- Node12 -->
<g id="Node000012" class="node">
<title>Node12</title>
<g id="a_Node000012"><a xlink:href="monocypher_8cpp.html#af8475b77dd913afb0458152975b2db3a" target="_top" xlink:title=" ">
<polygon fill="white" stroke="#666666" points="363.5,-496.64 299.5,-496.64 299.5,-477.64 363.5,-477.64 363.5,-496.64"/>
<text text-anchor="middle" x="331.5" y="-484.64" font-family="Helvetica,sans-Serif" font-size="10.00">scalar_bit</text>
</a>
</g>
</g>
<!-- Node1&#45;&gt;Node12 -->
<g id="edge15_Node000001_Node000012" class="edge">
<title>Node1&#45;&gt;Node12</title>
<g id="a_edge15_Node000001_Node000012"><a xlink:title=" ">
<path fill="none" stroke="#63b8ff" d="M98.13,-514.61C117.6,-509.21 143.03,-502.82 166,-499.14 207.59,-492.48 255.69,-489.51 289.09,-488.19"/>
<polygon fill="#63b8ff" stroke="#63b8ff" points="289.52,-491.68 299.39,-487.82 289.27,-484.68 289.52,-491.68"/>
</a>
</g>
</g>
<!-- Node13 -->
<g id="Node000013" class="node">
<title>Node13</title>
<g id="a_Node000013"><a xlink:href="monocypher_8cpp.html#a6c5977b63f3251523318e900bfb15db2" target="_top" xlink:title="X&#45;25519 /// Taken from SUPERCOP&#39;s ref10 implementation.">
<polygon fill="white" stroke="#666666" points="242.5,-293.64 174.5,-293.64 174.5,-274.64 242.5,-274.64 242.5,-293.64"/>
<text text-anchor="middle" x="208.5" y="-281.64" font-family="Helvetica,sans-Serif" font-size="10.00">scalarmult</text>
</a>
</g>
</g>
<!-- Node1&#45;&gt;Node13 -->
<g id="edge16_Node000001_Node000013" class="edge">
<title>Node1&#45;&gt;Node13</title>
<g id="a_edge16_Node000001_Node000013"><a xlink:title=" ">
<path fill="none" stroke="#63b8ff" d="M71.72,-514.44C93.1,-478.17 168.51,-350.27 196.73,-302.4"/>
<polygon fill="#63b8ff" stroke="#63b8ff" points="199.8,-304.1 201.86,-293.7 193.77,-300.54 199.8,-304.1"/>
</a>
</g>
</g>
<!-- Node29 -->
<g id="Node000029" class="node">
<title>Node29</title>
<g id="a_Node000029"><a xlink:href="monocypher_8cpp.html#a89ba9b762fd382ff022c65f55092a211" target="_top" xlink:title=" ">
<polygon fill="white" stroke="#666666" points="244,-256.64 173,-256.64 173,-237.64 244,-237.64 244,-256.64"/>
<text text-anchor="middle" x="208.5" y="-244.64" font-family="Helvetica,sans-Serif" font-size="10.00">trim_scalar</text>
</a>
</g>
</g>
<!-- Node1&#45;&gt;Node29 -->
<g id="edge40_Node000001_Node000029" class="edge">
<title>Node1&#45;&gt;Node29</title>
<g id="a_edge40_Node000001_Node000029"><a xlink:title=" ">
<path fill="none" stroke="#63b8ff" d="M67.05,-514.5C71.59,-477.31 92.73,-341.46 166,-265.14 166.92,-264.19 167.89,-263.28 168.92,-262.41"/>
<polygon fill="#63b8ff" stroke="#63b8ff" points="171.15,-265.13 177.51,-256.66 167.25,-259.32 171.15,-265.13"/>
</a>
</g>
</g>
<!-- Node3 -->
<g id="Node000003" class="node">
<title>Node3</title>
<g id="a_Node000003"><a xlink:href="monocypher_8cpp.html#ae8e2133fe55d57f460de0074d015cafa" target="_top" xlink:title=" ">
<polygon fill="white" stroke="#666666" points="485,-645.64 421,-645.64 421,-626.64 485,-626.64 485,-645.64"/>
<text text-anchor="middle" x="453" y="-633.64" font-family="Helvetica,sans-Serif" font-size="10.00">load32_le</text>
</a>
</g>
</g>
<!-- Node2&#45;&gt;Node3 -->
<g id="edge2_Node000002_Node000003" class="edge">
<title>Node2&#45;&gt;Node3</title>
<g id="a_edge2_Node000002_Node000003"><a xlink:title=" ">
<path fill="none" stroke="#63b8ff" d="M356.11,-636.14C371.65,-636.14 392.41,-636.14 410.64,-636.14"/>
<polygon fill="#63b8ff" stroke="#63b8ff" points="410.74,-639.64 420.74,-636.14 410.74,-632.64 410.74,-639.64"/>
</a>
</g>
</g>
<!-- Node4 -->
<g id="Node000004" class="node">
<title>Node4</title>
<g id="a_Node000004"><a xlink:href="monocypher_8cpp.html#a6061042be57c89feef159a896edbb3c0" target="_top" xlink:title=" ">
<polygon fill="white" stroke="#666666" points="487,-608.64 419,-608.64 419,-589.64 487,-589.64 487,-608.64"/>
<text text-anchor="middle" x="453" y="-596.64" font-family="Helvetica,sans-Serif" font-size="10.00">store32_le</text>
</a>
</g>
</g>
<!-- Node2&#45;&gt;Node4 -->
<g id="edge3_Node000002_Node000004" class="edge">
<title>Node2&#45;&gt;Node4</title>
<g id="a_edge3_Node000002_Node000004"><a xlink:title=" ">
<path fill="none" stroke="#63b8ff" d="M356.11,-628.83C371.91,-623.94 393.1,-617.38 411.55,-611.66"/>
<polygon fill="#63b8ff" stroke="#63b8ff" points="412.67,-614.98 421.18,-608.68 410.6,-608.3 412.67,-614.98"/>
</a>
</g>
</g>
<!-- Node5&#45;&gt;Node3 -->
<g id="edge5_Node000005_Node000003" class="edge">
<title>Node5&#45;&gt;Node3</title>
<g id="a_edge5_Node000005_Node000003"><a xlink:title=" ">
<path fill="none" stroke="#63b8ff" d="M251.11,-671.6C284.93,-668.38 333.77,-662.92 376,-655.14 387.37,-653.05 399.56,-650.25 410.78,-647.44"/>
<polygon fill="#63b8ff" stroke="#63b8ff" points="411.94,-650.76 420.76,-644.89 410.21,-643.98 411.94,-650.76"/>
</a>
</g>
</g>
<!-- Node7 -->
<g id="Node000007" class="node">
<title>Node7</title>
<g id="a_Node000007"><a xlink:href="monocypher_8cpp.html#ac5dd05d7343001f2c4f6d0fcfa69f2e6" target="_top" xlink:title=" ">
<polygon fill="white" stroke="#666666" points="362.5,-570.64 300.5,-570.64 300.5,-551.64 362.5,-551.64 362.5,-570.64"/>
<text text-anchor="middle" x="331.5" y="-558.64" font-family="Helvetica,sans-Serif" font-size="10.00">remove_l</text>
</a>
</g>
</g>
<!-- Node6&#45;&gt;Node7 -->
<g id="edge7_Node000006_Node000007" class="edge">
<title>Node6&#45;&gt;Node7</title>
<g id="a_edge7_Node000006_Node000007"><a xlink:title=" ">
<path fill="none" stroke="#63b8ff" d="M232.26,-561.14C248.51,-561.14 270.8,-561.14 290.05,-561.14"/>
<polygon fill="#63b8ff" stroke="#63b8ff" points="290.07,-564.64 300.07,-561.14 290.07,-557.64 290.07,-564.64"/>
</a>
</g>
</g>
<!-- Node6&#45;&gt;Node9 -->
<g id="edge9_Node000006_Node000009" class="edge">
<title>Node6&#45;&gt;Node9</title>
<g id="a_edge9_Node000006_Node000009"><a xlink:title=" ">
<path fill="none" stroke="#63b8ff" d="M232.26,-568.29C248.58,-573.41 271.01,-580.46 290.31,-586.52"/>
<polygon fill="#63b8ff" stroke="#63b8ff" points="289.48,-589.93 300.07,-589.59 291.58,-583.25 289.48,-589.93"/>
</a>
</g>
</g>
<!-- Node8 -->
<g id="Node000008" class="node">
<title>Node8</title>
<g id="a_Node000008"><a xlink:href="monocypher_8cpp.html#a4640849c519bd8e5c22aa2d6f76ff3b3" target="_top" xlink:title=" ">
<polygon fill="white" stroke="#666666" points="487,-570.64 419,-570.64 419,-551.64 487,-551.64 487,-570.64"/>
<text text-anchor="middle" x="453" y="-558.64" font-family="Helvetica,sans-Serif" font-size="10.00">is_above_l</text>
</a>
</g>
</g>
<!-- Node7&#45;&gt;Node8 -->
<g id="edge8_Node000007_Node000008" class="edge">
<title>Node7&#45;&gt;Node8</title>
<g id="a_edge8_Node000007_Node000008"><a xlink:title=" ">
<path fill="none" stroke="#63b8ff" d="M362.65,-561.14C376.59,-561.14 393.39,-561.14 408.65,-561.14"/>
<polygon fill="#63b8ff" stroke="#63b8ff" points="408.91,-564.64 418.91,-561.14 408.91,-557.64 408.91,-564.64"/>
</a>
</g>
</g>
<!-- Node9&#45;&gt;Node4 -->
<g id="edge10_Node000009_Node000004" class="edge">
<title>Node9&#45;&gt;Node4</title>
<g id="a_edge10_Node000009_Node000004"><a xlink:title=" ">
<path fill="none" stroke="#63b8ff" d="M376.32,-599.14C386.81,-599.14 398.01,-599.14 408.49,-599.14"/>
<polygon fill="#63b8ff" stroke="#63b8ff" points="408.67,-602.64 418.67,-599.14 408.67,-595.64 408.67,-602.64"/>
</a>
</g>
</g>
<!-- Node11&#45;&gt;Node7 -->
<g id="edge14_Node000011_Node000007" class="edge">
<title>Node11&#45;&gt;Node7</title>
<g id="a_edge14_Node000011_Node000007"><a xlink:title=" ">
<path fill="none" stroke="#63b8ff" d="M227.61,-529.68C244.12,-534.73 269.08,-542.36 290.29,-548.84"/>
<polygon fill="#63b8ff" stroke="#63b8ff" points="289.44,-552.25 300.03,-551.82 291.49,-545.55 289.44,-552.25"/>
</a>
</g>
</g>
<!-- Node11&#45;&gt;Node10 -->
<g id="edge13_Node000011_Node000010" class="edge">
<title>Node11&#45;&gt;Node10</title>
<g id="a_edge13_Node000011_Node000010"><a xlink:title=" ">
<path fill="none" stroke="#63b8ff" d="M227.61,-524.14C244.73,-524.14 270.92,-524.14 292.6,-524.14"/>
<polygon fill="#63b8ff" stroke="#63b8ff" points="292.82,-527.64 302.82,-524.14 292.82,-520.64 292.82,-527.64"/>
</a>
</g>
</g>
<!-- Node13&#45;&gt;Node12 -->
<g id="edge37_Node000013_Node000012" class="edge">
<title>Node13&#45;&gt;Node12</title>
<g id="a_edge37_Node000013_Node000012"><a xlink:title=" ">
<path fill="none" stroke="#63b8ff" d="M211.01,-293.94C216.11,-323.98 235.38,-415.84 287,-468.14 288.39,-469.55 289.9,-470.86 291.5,-472.08"/>
<polygon fill="#63b8ff" stroke="#63b8ff" points="289.72,-475.09 300.05,-477.44 293.44,-469.16 289.72,-475.09"/>
</a>
</g>
</g>
<!-- Node14 -->
<g id="Node000014" class="node">
<title>Node14</title>
<g id="a_Node000014"><a xlink:href="monocypher_8cpp.html#ab310cb9766fb826fe03109ce5ddb1a67" target="_top" xlink:title=" ">
<polygon fill="white" stroke="#666666" points="350.5,-274.64 312.5,-274.64 312.5,-255.64 350.5,-255.64 350.5,-274.64"/>
<text text-anchor="middle" x="331.5" y="-262.64" font-family="Helvetica,sans-Serif" font-size="10.00">fe_0</text>
</a>
</g>
</g>
<!-- Node13&#45;&gt;Node14 -->
<g id="edge17_Node000013_Node000014" class="edge">
<title>Node13&#45;&gt;Node14</title>
<g id="a_edge17_Node000013_Node000014"><a xlink:title=" ">
<path fill="none" stroke="#63b8ff" d="M242.56,-278.95C261.31,-276.01 284.52,-272.36 302.38,-269.56"/>
<polygon fill="#63b8ff" stroke="#63b8ff" points="303.13,-272.98 312.47,-267.97 302.04,-266.07 303.13,-272.98"/>
</a>
</g>
</g>
<!-- Node15 -->
<g id="Node000015" class="node">
<title>Node15</title>
<g id="a_Node000015"><a xlink:href="monocypher_8cpp.html#aa062285e340c5b08684d063744c73beb" target="_top" xlink:title=" ">
<polygon fill="white" stroke="#666666" points="350.5,-161.64 312.5,-161.64 312.5,-142.64 350.5,-142.64 350.5,-161.64"/>
<text text-anchor="middle" x="331.5" y="-149.64" font-family="Helvetica,sans-Serif" font-size="10.00">fe_1</text>
</a>
</g>
</g>
<!-- Node13&#45;&gt;Node15 -->
<g id="edge18_Node000013_Node000015" class="edge">
<title>Node13&#45;&gt;Node15</title>
<g id="a_edge18_Node000013_Node000015"><a xlink:title=" ">
<path fill="none" stroke="#63b8ff" d="M238.24,-274.59C242.94,-272.07 247.43,-268.96 251,-265.14 281.84,-232.16 255.56,-202.55 287,-170.14 291.38,-165.63 297.05,-162.21 302.84,-159.62"/>
<polygon fill="#63b8ff" stroke="#63b8ff" points="304.35,-162.8 312.5,-156.02 301.9,-156.24 304.35,-162.8"/>
</a>
</g>
</g>
<!-- Node16 -->
<g id="Node000016" class="node">
<title>Node16</title>
<g id="a_Node000016"><a xlink:href="monocypher_8cpp.html#a74c70d65e6c663327de91ca2a0225e26" target="_top" xlink:title=" ">
<polygon fill="white" stroke="#666666" points="356.5,-124.64 306.5,-124.64 306.5,-105.64 356.5,-105.64 356.5,-124.64"/>
<text text-anchor="middle" x="331.5" y="-112.64" font-family="Helvetica,sans-Serif" font-size="10.00">fe_add</text>
</a>
</g>
</g>
<!-- Node13&#45;&gt;Node16 -->
<g id="edge19_Node000013_Node000016" class="edge">
<title>Node13&#45;&gt;Node16</title>
<g id="a_edge19_Node000013_Node000016"><a xlink:title=" ">
<path fill="none" stroke="#63b8ff" d="M238.98,-274.63C243.48,-272.13 247.72,-269.01 251,-265.14 290.35,-218.78 246.8,-178.76 287,-133.14 289.86,-129.9 293.39,-127.23 297.2,-125.03"/>
<polygon fill="#63b8ff" stroke="#63b8ff" points="298.82,-128.13 306.39,-120.72 295.85,-121.8 298.82,-128.13"/>
</a>
</g>
</g>
<!-- Node17 -->
<g id="Node000017" class="node">
<title>Node17</title>
<g id="a_Node000017"><a xlink:href="monocypher_8cpp.html#a50f4b938e58e634c76ecbe6fe322d08a" target="_top" xlink:title=" ">
<polygon fill="white" stroke="#666666" points="359,-87.64 304,-87.64 304,-68.64 359,-68.64 359,-87.64"/>
<text text-anchor="middle" x="331.5" y="-75.64" font-family="Helvetica,sans-Serif" font-size="10.00">fe_copy</text>
</a>
</g>
</g>
<!-- Node13&#45;&gt;Node17 -->
<g id="edge20_Node000013_Node000017" class="edge">
<title>Node13&#45;&gt;Node17</title>
<g id="a_edge20_Node000013_Node000017"><a xlink:title=" ">
<path fill="none" stroke="#63b8ff" d="M239.58,-274.55C243.91,-272.07 247.93,-268.97 251,-265.14 299.03,-205.22 237.87,-155.17 287,-96.14 289.26,-93.42 292.01,-91.1 295,-89.14"/>
<polygon fill="#63b8ff" stroke="#63b8ff" points="296.7,-92.2 303.92,-84.45 293.44,-86 296.7,-92.2"/>
</a>
</g>
</g>
<!-- Node18 -->
<g id="Node000018" class="node">
<title>Node18</title>
<g id="a_Node000018"><a xlink:href="monocypher_8cpp.html#a5e3252021575748ab418a9dbcd641bd2" target="_top" xlink:title=" ">
<polygon fill="white" stroke="#666666" points="362.5,-50.64 300.5,-50.64 300.5,-31.64 362.5,-31.64 362.5,-50.64"/>
<text text-anchor="middle" x="331.5" y="-38.64" font-family="Helvetica,sans-Serif" font-size="10.00">fe_cswap</text>
</a>
</g>
</g>
<!-- Node13&#45;&gt;Node18 -->
<g id="edge21_Node000013_Node000018" class="edge">
<title>Node13&#45;&gt;Node18</title>
<g id="a_edge21_Node000013_Node000018"><a xlink:title=" ">
<path fill="none" stroke="#63b8ff" d="M240.12,-274.4C244.27,-271.95 248.1,-268.91 251,-265.14 307.78,-191.56 228.87,-131.66 287,-59.14 288.3,-57.51 289.78,-56.03 291.38,-54.69"/>
<polygon fill="#63b8ff" stroke="#63b8ff" points="293.7,-57.35 300.2,-48.99 289.9,-51.47 293.7,-57.35"/>
</a>
</g>
</g>
<!-- Node19 -->
<g id="Node000019" class="node">
<title>Node19</title>
<g id="a_Node000019"><a xlink:href="monocypher_8cpp.html#a101e489621a9c329b4c38f120229b6a7" target="_top" xlink:title=" ">
<polygon fill="white" stroke="#666666" points="372.5,-348.64 290.5,-348.64 290.5,-329.64 372.5,-329.64 372.5,-348.64"/>
<text text-anchor="middle" x="331.5" y="-336.64" font-family="Helvetica,sans-Serif" font-size="10.00">fe_frombytes</text>
</a>
</g>
</g>
<!-- Node13&#45;&gt;Node19 -->
<g id="edge22_Node000013_Node000019" class="edge">
<title>Node13&#45;&gt;Node19</title>
<g id="a_edge22_Node000013_Node000019"><a xlink:title=" ">
<path fill="none" stroke="#63b8ff" d="M229.84,-293.74C245.44,-301.07 267.52,-311.37 287,-320.14 290.89,-321.89 294.98,-323.71 299.04,-325.5"/>
<polygon fill="#63b8ff" stroke="#63b8ff" points="297.76,-328.76 308.33,-329.57 300.57,-322.35 297.76,-328.76"/>
</a>
</g>
</g>
<!-- Node21 -->
<g id="Node000021" class="node">
<title>Node21</title>
<g id="a_Node000021"><a xlink:href="monocypher_8cpp.html#a3a8af58026213511d79628872a95da8a" target="_top" xlink:title=" ">
<polygon fill="white" stroke="#666666" points="361.5,-198.64 301.5,-198.64 301.5,-179.64 361.5,-179.64 361.5,-198.64"/>
<text text-anchor="middle" x="331.5" y="-186.64" font-family="Helvetica,sans-Serif" font-size="10.00">fe_invert</text>
</a>
</g>
</g>
<!-- Node13&#45;&gt;Node21 -->
<g id="edge25_Node000013_Node000021" class="edge">
<title>Node13&#45;&gt;Node21</title>
<g id="a_edge25_Node000013_Node000021"><a xlink:title=" ">
<path fill="none" stroke="#63b8ff" d="M236.22,-274.48C241.43,-271.91 246.63,-268.8 251,-265.14 272.55,-247.09 266.14,-231.98 287,-213.14 290.72,-209.78 295,-206.7 299.39,-203.96"/>
<polygon fill="#63b8ff" stroke="#63b8ff" points="301.46,-206.81 308.41,-198.81 297.99,-200.73 301.46,-206.81"/>
</a>
</g>
</g>
<!-- Node22 -->
<g id="Node000022" class="node">
<title>Node22</title>
<g id="a_Node000022"><a xlink:href="monocypher_8cpp.html#a140a75c37cb9cb56eef49feadb2a66c7" target="_top" xlink:title=" ">
<polygon fill="white" stroke="#666666" points="580,-122.64 530,-122.64 530,-103.64 580,-103.64 580,-122.64"/>
<text text-anchor="middle" x="555" y="-110.64" font-family="Helvetica,sans-Serif" font-size="10.00">fe_mul</text>
</a>
</g>
</g>
<!-- Node13&#45;&gt;Node22 -->
<g id="edge31_Node000013_Node000022" class="edge">
<title>Node13&#45;&gt;Node22</title>
<g id="a_edge31_Node000013_Node000022"><a xlink:title=" ">
<path fill="none" stroke="#63b8ff" d="M240.21,-274.47C244.35,-272.01 248.14,-268.94 251,-265.14 316.57,-177.85 204.34,-93.46 287,-22.14 363.45,43.81 489.93,-55.48 536.28,-96.64"/>
<polygon fill="#63b8ff" stroke="#63b8ff" points="534.2,-99.49 543.97,-103.6 538.9,-94.29 534.2,-99.49"/>
</a>
</g>
</g>
<!-- Node24 -->
<g id="Node000024" class="node">
<title>Node24</title>
<g id="a_Node000024"><a xlink:href="monocypher_8cpp.html#a819c8aaa4cd6967be2a6e52c22fa1766" target="_top" xlink:title=" ">
<polygon fill="white" stroke="#666666" points="576.5,-198.64 533.5,-198.64 533.5,-179.64 576.5,-179.64 576.5,-198.64"/>
<text text-anchor="middle" x="555" y="-186.64" font-family="Helvetica,sans-Serif" font-size="10.00">fe_sq</text>
</a>
</g>
</g>
<!-- Node13&#45;&gt;Node24 -->
<g id="edge33_Node000013_Node000024" class="edge">
<title>Node13&#45;&gt;Node24</title>
<g id="a_edge33_Node000013_Node000024"><a xlink:title=" ">
<path fill="none" stroke="#63b8ff" d="M231.15,-274.51C237.57,-271.57 244.6,-268.29 251,-265.14 267.23,-257.15 269.98,-252.26 287,-246.14 375.42,-214.34 402.24,-223.37 494,-203.14 503.67,-201.01 514.18,-198.59 523.67,-196.37"/>
<polygon fill="#63b8ff" stroke="#63b8ff" points="524.55,-199.76 533.48,-194.06 522.94,-192.95 524.55,-199.76"/>
</a>
</g>
</g>
<!-- Node25 -->
<g id="Node000025" class="node">
<title>Node25</title>
<g id="a_Node000025"><a xlink:href="monocypher_8cpp.html#a7985e71e3f708460e6e120cf478fa3c9" target="_top" xlink:title=" ">
<polygon fill="white" stroke="#666666" points="373,-422.64 290,-422.64 290,-403.64 373,-403.64 373,-422.64"/>
<text text-anchor="middle" x="331.5" y="-410.64" font-family="Helvetica,sans-Serif" font-size="10.00">fe_mul_small</text>
</a>
</g>
</g>
<!-- Node13&#45;&gt;Node25 -->
<g id="edge32_Node000013_Node000025" class="edge">
<title>Node13&#45;&gt;Node25</title>
<g id="a_edge32_Node000013_Node000025"><a xlink:title=" ">
<path fill="none" stroke="#63b8ff" d="M213.96,-293.7C224.13,-314.58 250.98,-364.75 287,-394.14 289.01,-395.78 291.19,-397.31 293.45,-398.72"/>
<polygon fill="#63b8ff" stroke="#63b8ff" points="292.05,-401.94 302.51,-403.62 295.38,-395.78 292.05,-401.94"/>
</a>
</g>
</g>
<!-- Node26 -->
<g id="Node000026" class="node">
<title>Node26</title>
<g id="a_Node000026"><a xlink:href="monocypher_8cpp.html#ae385f63fe8c8a4eae2b8c3cf597b076f" target="_top" xlink:title=" ">
<polygon fill="white" stroke="#666666" points="356,-385.64 307,-385.64 307,-366.64 356,-366.64 356,-385.64"/>
<text text-anchor="middle" x="331.5" y="-373.64" font-family="Helvetica,sans-Serif" font-size="10.00">fe_sub</text>
</a>
</g>
</g>
<!-- Node13&#45;&gt;Node26 -->
<g id="edge34_Node000013_Node000026" class="edge">
<title>Node13&#45;&gt;Node26</title>
<g id="a_edge34_Node000013_Node000026"><a xlink:title=" ">
<path fill="none" stroke="#63b8ff" d="M217.71,-293.77C231,-308.89 258.62,-338.4 287,-357.14 290.31,-359.33 293.91,-361.36 297.58,-363.23"/>
<polygon fill="#63b8ff" stroke="#63b8ff" points="296.16,-366.43 306.71,-367.5 299.13,-360.09 296.16,-366.43"/>
</a>
</g>
</g>
<!-- Node27 -->
<g id="Node000027" class="node">
<title>Node27</title>
<g id="a_Node000027"><a xlink:href="monocypher_8cpp.html#a05c2c7f025b6d5a8743edacc66e93529" target="_top" xlink:title=" ">
<polygon fill="white" stroke="#666666" points="365.5,-459.64 297.5,-459.64 297.5,-440.64 365.5,-440.64 365.5,-459.64"/>
<text text-anchor="middle" x="331.5" y="-447.64" font-family="Helvetica,sans-Serif" font-size="10.00">fe_tobytes</text>
</a>
</g>
</g>
<!-- Node13&#45;&gt;Node27 -->
<g id="edge35_Node000013_Node000027" class="edge">
<title>Node13&#45;&gt;Node27</title>
<g id="a_edge35_Node000013_Node000027"><a xlink:title=" ">
<path fill="none" stroke="#63b8ff" d="M212.12,-293.77C219.58,-319.47 243.25,-390.49 287,-431.14 288.67,-432.69 290.48,-434.13 292.39,-435.46"/>
<polygon fill="#63b8ff" stroke="#63b8ff" points="290.82,-438.59 301.22,-440.62 294.36,-432.55 290.82,-438.59"/>
</a>
</g>
</g>
<!-- Node28 -->
<g id="Node000028" class="node">
<title>Node28</title>
<g id="a_Node000028"><a xlink:href="matrix__alg_8cpp.html#ab8b5734d92c04df7af774e3237a21847" target="_top" xlink:title=" ">
<polygon fill="white" stroke="#666666" points="352.5,-311.64 310.5,-311.64 310.5,-292.64 352.5,-292.64 352.5,-311.64"/>
<text text-anchor="middle" x="331.5" y="-299.64" font-family="Helvetica,sans-Serif" font-size="10.00">swap</text>
</a>
</g>
</g>
<!-- Node13&#45;&gt;Node28 -->
<g id="edge38_Node000013_Node000028" class="edge">
<title>Node13&#45;&gt;Node28</title>
<g id="a_edge38_Node000013_Node000028"><a xlink:title=" ">
<path fill="none" stroke="#63b8ff" d="M242.56,-289.06C260.53,-291.73 282.58,-295.01 300.11,-297.62"/>
<polygon fill="#63b8ff" stroke="#63b8ff" points="299.96,-301.14 310.37,-299.15 300.99,-294.21 299.96,-301.14"/>
</a>
</g>
</g>
<!-- Node19&#45;&gt;Node3 -->
<g id="edge24_Node000019_Node000003" class="edge">
<title>Node19&#45;&gt;Node3</title>
<g id="a_edge24_Node000019_Node000003"><a xlink:title=" ">
<path fill="none" stroke="#63b8ff" d="M366.4,-348.81C370.06,-351.04 373.4,-353.78 376,-357.14 447.59,-449.81 341.83,-524.39 412,-618.14 412.56,-618.89 413.16,-619.6 413.79,-620.29"/>
<polygon fill="#63b8ff" stroke="#63b8ff" points="411.61,-623.03 421.58,-626.6 416.01,-617.59 411.61,-623.03"/>
</a>
</g>
</g>
<!-- Node20 -->
<g id="Node000020" class="node">
<title>Node20</title>
<g id="a_Node000020"><a xlink:href="monocypher_8cpp.html#adf8f6f33534643ff4a3b5307f1eee89f" target="_top" xlink:title=" ">
<polygon fill="white" stroke="#666666" points="485,-348.64 421,-348.64 421,-329.64 485,-329.64 485,-348.64"/>
<text text-anchor="middle" x="453" y="-336.64" font-family="Helvetica,sans-Serif" font-size="10.00">load24_le</text>
</a>
</g>
</g>
<!-- Node19&#45;&gt;Node20 -->
<g id="edge23_Node000019_Node000020" class="edge">
<title>Node19&#45;&gt;Node20</title>
<g id="a_edge23_Node000019_Node000020"><a xlink:title=" ">
<path fill="none" stroke="#63b8ff" d="M372.62,-339.14C384.91,-339.14 398.45,-339.14 410.81,-339.14"/>
<polygon fill="#63b8ff" stroke="#63b8ff" points="410.86,-342.64 420.86,-339.14 410.86,-335.64 410.86,-342.64"/>
</a>
</g>
</g>
<!-- Node21&#45;&gt;Node22 -->
<g id="edge26_Node000021_Node000022" class="edge">
<title>Node21&#45;&gt;Node22</title>
<g id="a_edge26_Node000021_Node000022"><a xlink:title=" ">
<path fill="none" stroke="#63b8ff" d="M359.17,-179.51C364.96,-176.88 370.87,-173.74 376,-170.14 395.04,-156.77 391.29,-142.73 412,-132.14 445.73,-114.89 489.58,-111.44 519.58,-111.48"/>
<polygon fill="#63b8ff" stroke="#63b8ff" points="519.91,-114.98 529.96,-111.63 520.01,-107.98 519.91,-114.98"/>
</a>
</g>
</g>
<!-- Node23 -->
<g id="Node000023" class="node">
<title>Node23</title>
<g id="a_Node000023"><a xlink:href="monocypher_8cpp.html#a708232be1ed4f1b3fdfa54cde04685a3" target="_top" xlink:title=" ">
<polygon fill="white" stroke="#666666" points="494,-160.64 412,-160.64 412,-141.64 494,-141.64 494,-160.64"/>
<text text-anchor="middle" x="453" y="-148.64" font-family="Helvetica,sans-Serif" font-size="10.00">fe_pow22523</text>
</a>
</g>
</g>
<!-- Node21&#45;&gt;Node23 -->
<g id="edge27_Node000021_Node000023" class="edge">
<title>Node21&#45;&gt;Node23</title>
<g id="a_edge27_Node000021_Node000023"><a xlink:title=" ">
<path fill="none" stroke="#63b8ff" d="M361.73,-179.85C376.84,-175.04 395.5,-169.11 411.93,-163.88"/>
<polygon fill="#63b8ff" stroke="#63b8ff" points="413.35,-167.1 421.82,-160.74 411.23,-160.43 413.35,-167.1"/>
</a>
</g>
</g>
<!-- Node21&#45;&gt;Node24 -->
<g id="edge30_Node000021_Node000024" class="edge">
<title>Node21&#45;&gt;Node24</title>
<g id="a_edge30_Node000021_Node000024"><a xlink:title=" ">
<path fill="none" stroke="#63b8ff" d="M361.91,-189.14C403.9,-189.14 480.64,-189.14 523.31,-189.14"/>
<polygon fill="#63b8ff" stroke="#63b8ff" points="523.39,-192.64 533.39,-189.14 523.39,-185.64 523.39,-192.64"/>
</a>
</g>
</g>
<!-- Node23&#45;&gt;Node22 -->
<g id="edge28_Node000023_Node000022" class="edge">
<title>Node23&#45;&gt;Node22</title>
<g id="a_edge28_Node000023_Node000022"><a xlink:title=" ">
<path fill="none" stroke="#63b8ff" d="M479.23,-141.55C491.71,-136.81 506.94,-131.02 520.39,-125.91"/>
<polygon fill="#63b8ff" stroke="#63b8ff" points="521.7,-129.16 529.81,-122.33 519.22,-122.61 521.7,-129.16"/>
</a>
</g>
</g>
<!-- Node23&#45;&gt;Node24 -->
<g id="edge29_Node000023_Node000024" class="edge">
<title>Node23&#45;&gt;Node24</title>
<g id="a_edge29_Node000023_Node000024"><a xlink:title=" ">
<path fill="none" stroke="#63b8ff" d="M479.23,-160.73C492.87,-165.91 509.79,-172.34 524.08,-177.77"/>
<polygon fill="#63b8ff" stroke="#63b8ff" points="522.89,-181.06 533.48,-181.35 525.38,-174.52 522.89,-181.06"/>
</a>
</g>
</g>
<!-- Node27&#45;&gt;Node4 -->
<g id="edge36_Node000027_Node000004" class="edge">
<title>Node27&#45;&gt;Node4</title>
<g id="a_edge36_Node000027_Node000004"><a xlink:title=" ">
<path fill="none" stroke="#63b8ff" d="M364.99,-459.77C369.07,-462.02 372.9,-464.78 376,-468.14 411.44,-506.59 377.56,-540.8 412,-580.14 413.15,-581.45 414.41,-582.68 415.75,-583.83"/>
<polygon fill="#63b8ff" stroke="#63b8ff" points="413.9,-586.81 424.13,-589.59 417.87,-581.04 413.9,-586.81"/>
</a>
</g>
</g>
</g>
</svg>

<g id="navigator" transform="translate(0 0)" fill="#404254">
  <rect fill="#f2f5e9" fill-opacity="0.5" stroke="#606060" stroke-width=".5" x="0" y="0" width="60" height="60"/>
  <use id="zoomplus" xlink:href="#zoomPlus" x="17" y="9" onmousedown="handleZoom(evt,'in')"/>
  <use id="zoomminus" xlink:href="#zoomMin" x="42" y="9" onmousedown="handleZoom(evt,'out')"/>
  <use id="reset" xlink:href="#resetDef" x="30" y="36" onmousedown="handleReset()"/>
   <use id="arrowup" xlink:href="#arrowUp" x="0" y="0" onmousedown="handlePan(0,-1)"/>
  <use id="arrowright" xlink:href="#arrowRight" x="0" y="0" onmousedown="handlePan(1,0)"/>
  <use id="arrowdown" xlink:href="#arrowDown" x="0" y="0" onmousedown="handlePan(0,1)"/>
  <use id="arrowleft" xlink:href="#arrowLeft" x="0" y="0" onmousedown="handlePan(-1,0)"/>
</g>
<svg viewBox="0 0 15 15" width="100%" height="30px" preserveAspectRatio="xMaxYMin meet">
 <g id="arrow_out" transform="scale(0.3 0.3)">
  <a xlink:href="monocypher_8cpp_a40d1e320cac9b8b4348899d2d66fdbb1_cgraph_org.svg" target="_base">
   <rect id="button" ry="5" rx="5" y="6" x="6" height="38" width="38"
        fill="#f2f5e9" fill-opacity="0.5" stroke="#606060" stroke-width="1.0"/>
   <path id="arrow"
     d="M 11.500037,31.436501 C 11.940474,20.09759 22.043105,11.32322 32.158766,21.979434 L 37.068811,17.246167 C 37.068811,17.246167 37.088388,32 37.088388,32 L 22.160133,31.978069 C 22.160133,31.978069 26.997745,27.140456 26.997745,27.140456 C 18.528582,18.264221 13.291696,25.230495 11.500037,31.436501 z"
     style="fill:#404040;"/>
  </a>
 </g>
</svg>

<style type='text/css'>
<![CDATA[
[data-mouse-over-selected='false'] { opacity: 0.7; }
[data-mouse-over-selected='true']  { opacity: 1.0; }
]]>
</style>
<script type="application/ecmascript"><![CDATA[
document.addEventListener('DOMContentLoaded', (event) => {
  highlightEdges();
  highlightAdjacentNodes();
});
]]></script>
</svg>
