<?xml version="1.0" encoding="UTF-8" standalone="no"?>
<!DOCTYPE svg PUBLIC "-//W3C//DTD SVG 1.1//EN"
 "http://www.w3.org/Graphics/SVG/1.1/DTD/svg11.dtd">
<!-- Generated by graphviz version 2.43.0 (0)
 -->
<!-- Title: blake2b_vtable_update Pages: 1 -->
<!--zoomable 140 -->

<svg id="main" version="1.1" xmlns="http://www.w3.org/2000/svg" xmlns:xlink="http://www.w3.org/1999/xlink" xml:space="preserve" onload="init(evt)">
<style type="text/css"><![CDATA[
.node, .edge {opacity: 0.7;}
.node.selected, .edge.selected {opacity: 1;}
.edge:hover path { stroke: red; }
.edge:hover polygon { stroke: red; fill: red; }
]]></style>

<defs>
  <circle id="rim" cx="0" cy="0" r="7"/>
  <circle id="rim2" cx="0" cy="0" r="3.5"/>
  <g id="zoomPlus">
    <use xlink:href="#rim" fill="#404040"><set attributeName="fill" to="#808080" begin="zoomplus.mouseover" end="zoomplus.mouseout"/></use>
    <path d="M-4,0h8M0,-4v8" fill="none" stroke="white" stroke-width="1.5" pointer-events="none"/>
  </g>
  <g id="zoomMin">
    <use xlink:href="#rim" fill="#404040"><set attributeName="fill" to="#808080" begin="zoomminus.mouseover" end="zoomminus.mouseout"/></use>
    <path d="M-4,0h8" fill="none" stroke="white" stroke-width="1.5" pointer-events="none"/>
  </g>
  <g id="arrowUp" transform="translate(30 24)">
    <use xlink:href="#rim"/>
    <path pointer-events="none" fill="none" stroke="white" stroke-width="1.5" d="M0,-3.0v7 M-2.5,-0.5L0,-3.0L2.5,-0.5"/>
  </g>
  <g id="arrowRight" transform="rotate(90) translate(36 -43)">
    <use xlink:href="#rim"/>
    <path pointer-events="none" fill="none" stroke="white" stroke-width="1.5" d="M0,-3.0v7 M-2.5,-0.5L0,-3.0L2.5,-0.5"/>
  </g>
  <g id="arrowDown" transform="rotate(180) translate(-30 -48)">
    <use xlink:href="#rim"/>
    <path pointer-events="none" fill="none" stroke="white" stroke-width="1.5" d="M0,-3.0v7 M-2.5,-0.5L0,-3.0L2.5,-0.5"/>
  </g>
  <g id="arrowLeft" transform="rotate(270) translate(-36 17)">
    <use xlink:href="#rim"/>
    <path pointer-events="none" fill="none" stroke="white" stroke-width="1.5" d="M0,-3.0v7 M-2.5,-0.5L0,-3.0L2.5,-0.5"/>
  </g>
  <g id="resetDef">
    <use xlink:href="#rim2" fill="#404040"><set attributeName="fill" to="#808080" begin="reset.mouseover" end="reset.mouseout"/></use>
  </g>
</defs>
<script type="application/ecmascript">
var viewWidth = 723;
var viewHeight = 140;
var sectionId = 'dynsection-13';
</script>
<script type="application/ecmascript" xlink:href="svg.min.js"/>
<svg id="graph" class="graph">
<g id="viewport">
<title>blake2b_vtable_update</title>
<!-- Node1 -->
<g id="Node000001" class="node">
<title>Node1</title>
<g id="a_Node000001"><a xlink:title=" ">
<polygon fill="#999999" stroke="#666666" points="130,-75 0,-75 0,-56 130,-56 130,-75"/>
<text text-anchor="middle" x="65" y="-63" font-family="Helvetica,sans-Serif" font-size="10.00">blake2b_vtable_update</text>
</a>
</g>
</g>
<!-- Node2 -->
<g id="Node000002" class="node">
<title>Node2</title>
<g id="a_Node000002"><a xlink:href="monocypher_8cpp.html#a0d11738421fa5018ed0ec03e434c1274" target="_top" xlink:title=" ">
<polygon fill="white" stroke="#666666" points="296,-75 166,-75 166,-56 296,-56 296,-75"/>
<text text-anchor="middle" x="231" y="-63" font-family="Helvetica,sans-Serif" font-size="10.00">crypto_blake2b_update</text>
</a>
</g>
</g>
<!-- Node1&#45;&gt;Node2 -->
<g id="edge1_Node000001_Node000002" class="edge">
<title>Node1&#45;&gt;Node2</title>
<g id="a_edge1_Node000001_Node000002"><a xlink:title=" ">
<path fill="none" stroke="#63b8ff" d="M130.35,-65.5C138.64,-65.5 147.19,-65.5 155.62,-65.5"/>
<polygon fill="#63b8ff" stroke="#63b8ff" points="155.84,-69 165.84,-65.5 155.84,-62 155.84,-69"/>
</a>
</g>
</g>
<!-- Node3 -->
<g id="Node000003" class="node">
<title>Node3</title>
<g id="a_Node000003"><a xlink:href="monocypher_8cpp.html#aaf5b6410ac37c37c741fa4830799759d" target="_top" xlink:title=" ">
<polygon fill="white" stroke="#666666" points="399.5,-132 358.5,-132 358.5,-113 399.5,-113 399.5,-132"/>
<text text-anchor="middle" x="379" y="-120" font-family="Helvetica,sans-Serif" font-size="10.00">align</text>
</a>
</g>
</g>
<!-- Node2&#45;&gt;Node3 -->
<g id="edge2_Node000002_Node000003" class="edge">
<title>Node2&#45;&gt;Node3</title>
<g id="a_edge2_Node000002_Node000003"><a xlink:title=" ">
<path fill="none" stroke="#63b8ff" d="M256.44,-75.04C281.89,-84.98 321.75,-100.54 348.83,-111.11"/>
<polygon fill="#63b8ff" stroke="#63b8ff" points="347.59,-114.38 358.18,-114.76 350.13,-107.86 347.59,-114.38"/>
</a>
</g>
</g>
<!-- Node4 -->
<g id="Node000004" class="node">
<title>Node4</title>
<g id="a_Node000004"><a xlink:href="monocypher_8cpp.html#a20f5ba0a4446d533e075044aa857df43" target="_top" xlink:title=" ">
<polygon fill="white" stroke="#666666" points="572,-93 462,-93 462,-74 572,-74 572,-93"/>
<text text-anchor="middle" x="517" y="-81" font-family="Helvetica,sans-Serif" font-size="10.00">blake2b_end_block</text>
</a>
</g>
</g>
<!-- Node2&#45;&gt;Node4 -->
<g id="edge3_Node000002_Node000004" class="edge">
<title>Node2&#45;&gt;Node4</title>
<g id="a_edge3_Node000002_Node000004"><a xlink:title=" ">
<path fill="none" stroke="#63b8ff" d="M296.09,-69.56C342.48,-72.5 404.94,-76.46 451.43,-79.41"/>
<polygon fill="#63b8ff" stroke="#63b8ff" points="451.5,-82.92 461.7,-80.06 451.94,-75.93 451.5,-82.92"/>
</a>
</g>
</g>
<!-- Node7 -->
<g id="Node000007" class="node">
<title>Node7</title>
<g id="a_Node000007"><a xlink:href="monocypher_8cpp.html#ac24bc67f8688502b8a73c89fdc134ce8" target="_top" xlink:title=" ">
<polygon fill="white" stroke="#666666" points="426,-56 332,-56 332,-37 426,-37 426,-56"/>
<text text-anchor="middle" x="379" y="-44" font-family="Helvetica,sans-Serif" font-size="10.00">blake2b_update</text>
</a>
</g>
</g>
<!-- Node2&#45;&gt;Node7 -->
<g id="edge6_Node000002_Node000007" class="edge">
<title>Node2&#45;&gt;Node7</title>
<g id="a_edge6_Node000002_Node000007"><a xlink:title=" ">
<path fill="none" stroke="#63b8ff" d="M296.04,-57.17C304.64,-56.05 313.42,-54.9 321.87,-53.8"/>
<polygon fill="#63b8ff" stroke="#63b8ff" points="322.53,-57.25 332,-52.49 321.63,-50.31 322.53,-57.25"/>
</a>
</g>
</g>
<!-- Node9 -->
<g id="Node000009" class="node">
<title>Node9</title>
<g id="a_Node000009"><a xlink:href="monocypher_8cpp.html#a2b5840c4be1858b3306d671074486584" target="_top" xlink:title=" ">
<polygon fill="white" stroke="#666666" points="421.5,-19 336.5,-19 336.5,0 421.5,0 421.5,-19"/>
<text text-anchor="middle" x="379" y="-7" font-family="Helvetica,sans-Serif" font-size="10.00">load64_le_buf</text>
</a>
</g>
</g>
<!-- Node2&#45;&gt;Node9 -->
<g id="edge9_Node000002_Node000009" class="edge">
<title>Node2&#45;&gt;Node9</title>
<g id="a_edge9_Node000002_Node000009"><a xlink:title=" ">
<path fill="none" stroke="#63b8ff" d="M257.1,-55.87C280.96,-46.72 317.03,-32.88 343.57,-22.71"/>
<polygon fill="#63b8ff" stroke="#63b8ff" points="345.15,-25.85 353.23,-19 342.64,-19.31 345.15,-25.85"/>
</a>
</g>
</g>
<!-- Node5 -->
<g id="Node000005" class="node">
<title>Node5</title>
<g id="a_Node000005"><a xlink:href="monocypher_8cpp.html#a78050350b26e9e7c9cb7b002b87b569e" target="_top" xlink:title=" ">
<polygon fill="white" stroke="#666666" points="715,-111 608,-111 608,-92 715,-92 715,-111"/>
<text text-anchor="middle" x="661.5" y="-99" font-family="Helvetica,sans-Serif" font-size="10.00">blake2b_compress</text>
</a>
</g>
</g>
<!-- Node4&#45;&gt;Node5 -->
<g id="edge4_Node000004_Node000005" class="edge">
<title>Node4&#45;&gt;Node5</title>
<g id="a_edge4_Node000004_Node000005"><a xlink:title=" ">
<path fill="none" stroke="#63b8ff" d="M572.28,-90.36C580.56,-91.4 589.16,-92.49 597.6,-93.55"/>
<polygon fill="#63b8ff" stroke="#63b8ff" points="597.42,-97.06 607.78,-94.84 598.3,-90.12 597.42,-97.06"/>
</a>
</g>
</g>
<!-- Node6 -->
<g id="Node000006" class="node">
<title>Node6</title>
<g id="a_Node000006"><a xlink:href="monocypher_8cpp.html#a75a8d95e5fb52f08cabb3b554978d1c8" target="_top" xlink:title=" ">
<polygon fill="white" stroke="#666666" points="700.5,-74 622.5,-74 622.5,-55 700.5,-55 700.5,-74"/>
<text text-anchor="middle" x="661.5" y="-62" font-family="Helvetica,sans-Serif" font-size="10.00">blake2b_incr</text>
</a>
</g>
</g>
<!-- Node4&#45;&gt;Node6 -->
<g id="edge5_Node000004_Node000006" class="edge">
<title>Node4&#45;&gt;Node6</title>
<g id="a_edge5_Node000004_Node000006"><a xlink:title=" ">
<path fill="none" stroke="#63b8ff" d="M572.28,-76.26C585.44,-74.51 599.41,-72.64 612.27,-70.93"/>
<polygon fill="#63b8ff" stroke="#63b8ff" points="612.85,-74.38 622.3,-69.59 611.93,-67.45 612.85,-74.38"/>
</a>
</g>
</g>
<!-- Node7&#45;&gt;Node4 -->
<g id="edge7_Node000007_Node000004" class="edge">
<title>Node7&#45;&gt;Node4</title>
<g id="a_edge7_Node000007_Node000004"><a xlink:title=" ">
<path fill="none" stroke="#63b8ff" d="M415.02,-56.03C432.02,-60.65 452.65,-66.27 470.82,-71.21"/>
<polygon fill="#63b8ff" stroke="#63b8ff" points="470.05,-74.63 480.62,-73.88 471.89,-67.87 470.05,-74.63"/>
</a>
</g>
</g>
<!-- Node8 -->
<g id="Node000008" class="node">
<title>Node8</title>
<g id="a_Node000008"><a xlink:href="monocypher_8cpp.html#a50c1c9cb620f01371233d20bcdd3dab3" target="_top" xlink:title=" ">
<polygon fill="white" stroke="#666666" points="569.5,-56 464.5,-56 464.5,-37 569.5,-37 569.5,-56"/>
<text text-anchor="middle" x="517" y="-44" font-family="Helvetica,sans-Serif" font-size="10.00">blake2b_set_input</text>
</a>
</g>
</g>
<!-- Node7&#45;&gt;Node8 -->
<g id="edge8_Node000007_Node000008" class="edge">
<title>Node7&#45;&gt;Node8</title>
<g id="a_edge8_Node000007_Node000008"><a xlink:title=" ">
<path fill="none" stroke="#63b8ff" d="M426.04,-46.5C435.1,-46.5 444.73,-46.5 454.21,-46.5"/>
<polygon fill="#63b8ff" stroke="#63b8ff" points="454.39,-50 464.39,-46.5 454.39,-43 454.39,-50"/>
</a>
</g>
</g>
<!-- Node10 -->
<g id="Node000010" class="node">
<title>Node10</title>
<g id="a_Node000010"><a xlink:href="monocypher_8cpp.html#a3111672a4b79ab33bd1dd8442180e397" target="_top" xlink:title=" ">
<polygon fill="white" stroke="#666666" points="549,-19 485,-19 485,0 549,0 549,-19"/>
<text text-anchor="middle" x="517" y="-7" font-family="Helvetica,sans-Serif" font-size="10.00">load64_le</text>
</a>
</g>
</g>
<!-- Node9&#45;&gt;Node10 -->
<g id="edge10_Node000009_Node000010" class="edge">
<title>Node9&#45;&gt;Node10</title>
<g id="a_edge10_Node000009_Node000010"><a xlink:title=" ">
<path fill="none" stroke="#63b8ff" d="M421.54,-9.5C438.36,-9.5 457.74,-9.5 474.55,-9.5"/>
<polygon fill="#63b8ff" stroke="#63b8ff" points="474.64,-13 484.64,-9.5 474.64,-6 474.64,-13"/>
</a>
</g>
</g>
<!-- Node11 -->
<g id="Node000011" class="node">
<title>Node11</title>
<g id="a_Node000011"><a xlink:href="monocypher_8cpp.html#ae8e2133fe55d57f460de0074d015cafa" target="_top" xlink:title=" ">
<polygon fill="white" stroke="#666666" points="693.5,-19 629.5,-19 629.5,0 693.5,0 693.5,-19"/>
<text text-anchor="middle" x="661.5" y="-7" font-family="Helvetica,sans-Serif" font-size="10.00">load32_le</text>
</a>
</g>
</g>
<!-- Node10&#45;&gt;Node11 -->
<g id="edge11_Node000010_Node000011" class="edge">
<title>Node10&#45;&gt;Node11</title>
<g id="a_edge11_Node000010_Node000011"><a xlink:title=" ">
<path fill="none" stroke="#63b8ff" d="M549.27,-9.5C569.78,-9.5 596.83,-9.5 619.12,-9.5"/>
<polygon fill="#63b8ff" stroke="#63b8ff" points="619.3,-13 629.3,-9.5 619.3,-6 619.3,-13"/>
</a>
</g>
</g>
</g>
</svg>

<g id="navigator" transform="translate(0 0)" fill="#404254">
  <rect fill="#f2f5e9" fill-opacity="0.5" stroke="#606060" stroke-width=".5" x="0" y="0" width="60" height="60"/>
  <use id="zoomplus" xlink:href="#zoomPlus" x="17" y="9" onmousedown="handleZoom(evt,'in')"/>
  <use id="zoomminus" xlink:href="#zoomMin" x="42" y="9" onmousedown="handleZoom(evt,'out')"/>
  <use id="reset" xlink:href="#resetDef" x="30" y="36" onmousedown="handleReset()"/>
   <use id="arrowup" xlink:href="#arrowUp" x="0" y="0" onmousedown="handlePan(0,-1)"/>
  <use id="arrowright" xlink:href="#arrowRight" x="0" y="0" onmousedown="handlePan(1,0)"/>
  <use id="arrowdown" xlink:href="#arrowDown" x="0" y="0" onmousedown="handlePan(0,1)"/>
  <use id="arrowleft" xlink:href="#arrowLeft" x="0" y="0" onmousedown="handlePan(-1,0)"/>
</g>
<svg viewBox="0 0 15 15" width="100%" height="30px" preserveAspectRatio="xMaxYMin meet">
 <g id="arrow_out" transform="scale(0.3 0.3)">
  <a xlink:href="monocypher_8cpp_affd14a11e1dc86a8d7e98b61146e82fe_cgraph_org.svg" target="_base">
   <rect id="button" ry="5" rx="5" y="6" x="6" height="38" width="38"
        fill="#f2f5e9" fill-opacity="0.5" stroke="#606060" stroke-width="1.0"/>
   <path id="arrow"
     d="M 11.500037,31.436501 C 11.940474,20.09759 22.043105,11.32322 32.158766,21.979434 L 37.068811,17.246167 C 37.068811,17.246167 37.088388,32 37.088388,32 L 22.160133,31.978069 C 22.160133,31.978069 26.997745,27.140456 26.997745,27.140456 C 18.528582,18.264221 13.291696,25.230495 11.500037,31.436501 z"
     style="fill:#404040;"/>
  </a>
 </g>
</svg>

<style type='text/css'>
<![CDATA[
[data-mouse-over-selected='false'] { opacity: 0.7; }
[data-mouse-over-selected='true']  { opacity: 1.0; }
]]>
</style>
<script type="application/ecmascript"><![CDATA[
document.addEventListener('DOMContentLoaded', (event) => {
  highlightEdges();
  highlightAdjacentNodes();
});
]]></script>
</svg>
