<?xml version="1.0" encoding="UTF-8" standalone="no"?>
<!DOCTYPE svg PUBLIC "-//W3C//DTD SVG 1.1//EN"
 "http://www.w3.org/Graphics/SVG/1.1/DTD/svg11.dtd">
<!-- Generated by graphviz version 2.43.0 (0)
 -->
<!-- Title: nmea_printf Pages: 1 -->
<svg width="765pt" height="162pt"
 viewBox="0.00 0.00 765.00 161.50" xmlns="http://www.w3.org/2000/svg" xmlns:xlink="http://www.w3.org/1999/xlink">
<g id="graph0" class="graph" transform="scale(1 1) rotate(0) translate(4 157.5)">
<title>nmea_printf</title>
<!-- Node1 -->
<g id="Node000001" class="node">
<title>Node1</title>
<g id="a_Node000001"><a xlink:title=" ">
<polygon fill="#999999" stroke="#666666" points="76,-93.5 0,-93.5 0,-74.5 76,-74.5 76,-93.5"/>
<text text-anchor="middle" x="38" y="-81.5" font-family="Helvetica,sans-Serif" font-size="10.00">nmea_printf</text>
</a>
</g>
</g>
<!-- Node2 -->
<g id="Node000002" class="node">
<title>Node2</title>
<g id="a_Node000002"><a xlink:href="malloc_8c.html#afbedc913aa4651b3c3b4b3aecd9b4711" target="_top" xlink:title=" ">
<polygon fill="white" stroke="#666666" points="351.5,-153.5 315.5,-153.5 315.5,-134.5 351.5,-134.5 351.5,-153.5"/>
<text text-anchor="middle" x="333.5" y="-141.5" font-family="Helvetica,sans-Serif" font-size="10.00">free</text>
</a>
</g>
</g>
<!-- Node1&#45;&gt;Node2 -->
<g id="edge1_Node000001_Node000002" class="edge">
<title>Node1&#45;&gt;Node2</title>
<g id="a_edge1_Node000001_Node000002"><a xlink:title=" ">
<path fill="none" stroke="#63b8ff" d="M51.94,-93.54C65.95,-103.31 89.36,-118.02 112,-125 179.22,-145.71 263.06,-146.52 305.37,-145.29"/>
<polygon fill="#63b8ff" stroke="#63b8ff" points="305.57,-148.79 315.44,-144.94 305.32,-141.79 305.57,-148.79"/>
</a>
</g>
</g>
<!-- Node3 -->
<g id="Node000003" class="node">
<title>Node3</title>
<g id="a_Node000003"><a xlink:href="NMEA_8cpp.html#abe76802d7c4587b6c5b02a189c602401" target="_top" xlink:title=" ">
<polygon fill="white" stroke="#666666" points="218.5,-115.5 130.5,-115.5 130.5,-96.5 218.5,-96.5 218.5,-115.5"/>
<text text-anchor="middle" x="174.5" y="-103.5" font-family="Helvetica,sans-Serif" font-size="10.00">nmea_vaprintf</text>
</a>
</g>
</g>
<!-- Node1&#45;&gt;Node3 -->
<g id="edge2_Node000001_Node000003" class="edge">
<title>Node1&#45;&gt;Node3</title>
<g id="a_edge2_Node000001_Node000003"><a xlink:title=" ">
<path fill="none" stroke="#63b8ff" d="M76.11,-90.07C89.75,-92.3 105.49,-94.88 120.28,-97.29"/>
<polygon fill="#63b8ff" stroke="#63b8ff" points="119.89,-100.78 130.32,-98.94 121.02,-93.87 119.89,-100.78"/>
</a>
</g>
</g>
<!-- Node10 -->
<g id="Node000010" class="node">
<title>Node10</title>
<g id="a_Node000010"><a xlink:href="classAP__HAL_1_1BetterStream.html#ab0193c7791fd95eb2bfbfd6597bdf6d8" target="_top" xlink:title=" ">
<polygon fill="white" stroke="#666666" points="237,-78 112,-78 112,-48 237,-48 237,-78"/>
<text text-anchor="start" x="120" y="-66" font-family="Helvetica,sans-Serif" font-size="10.00">AP_HAL::BetterStream</text>
<text text-anchor="middle" x="174.5" y="-55" font-family="Helvetica,sans-Serif" font-size="10.00">::txspace</text>
</a>
</g>
</g>
<!-- Node1&#45;&gt;Node10 -->
<g id="edge11_Node000001_Node000010" class="edge">
<title>Node1&#45;&gt;Node10</title>
<g id="a_edge11_Node000001_Node000010"><a xlink:title=" ">
<path fill="none" stroke="#63b8ff" d="M76.11,-78.21C84.19,-76.94 93,-75.57 101.91,-74.18"/>
<polygon fill="#63b8ff" stroke="#63b8ff" points="102.64,-77.61 111.98,-72.6 101.56,-70.69 102.64,-77.61"/>
</a>
</g>
</g>
<!-- Node11 -->
<g id="Node000011" class="node">
<title>Node11</title>
<g id="a_Node000011"><a xlink:href="classAP__HAL_1_1UARTDriver.html#af9f67918783d70fbbce1db64228af9da" target="_top" xlink:title=" ">
<polygon fill="white" stroke="#666666" points="232.5,-30 116.5,-30 116.5,0 232.5,0 232.5,-30"/>
<text text-anchor="start" x="124.5" y="-18" font-family="Helvetica,sans-Serif" font-size="10.00">AP_HAL::UARTDriver</text>
<text text-anchor="middle" x="174.5" y="-7" font-family="Helvetica,sans-Serif" font-size="10.00">::write</text>
</a>
</g>
</g>
<!-- Node1&#45;&gt;Node11 -->
<g id="edge12_Node000001_Node000011" class="edge">
<title>Node1&#45;&gt;Node11</title>
<g id="a_edge12_Node000001_Node000011"><a xlink:title=" ">
<path fill="none" stroke="#63b8ff" d="M52.83,-74.42C67.2,-64.73 90.55,-49.69 112,-39 115.32,-37.34 118.79,-35.72 122.32,-34.15"/>
<polygon fill="#63b8ff" stroke="#63b8ff" points="123.89,-37.29 131.7,-30.13 121.13,-30.85 123.89,-37.29"/>
</a>
</g>
</g>
<!-- Node3&#45;&gt;Node2 -->
<g id="edge3_Node000003_Node000002" class="edge">
<title>Node3&#45;&gt;Node2</title>
<g id="a_edge3_Node000003_Node000002"><a xlink:title=" ">
<path fill="none" stroke="#63b8ff" d="M215.12,-115.59C243.41,-122.44 280.73,-131.47 305.61,-137.49"/>
<polygon fill="#63b8ff" stroke="#63b8ff" points="304.91,-140.92 315.46,-139.87 306.56,-134.12 304.91,-140.92"/>
</a>
</g>
</g>
<!-- Node4 -->
<g id="Node000004" class="node">
<title>Node4</title>
<g id="a_Node000004"><a xlink:href="test__nmea__vaprint_8cpp.html#a9c36d0fe3ec4675cbffdc9b52f5fb399" target="_top" xlink:title=" ">
<polygon fill="white" stroke="#666666" points="358.5,-116.5 308.5,-116.5 308.5,-97.5 358.5,-97.5 358.5,-116.5"/>
<text text-anchor="middle" x="333.5" y="-104.5" font-family="Helvetica,sans-Serif" font-size="10.00">malloc</text>
</a>
</g>
</g>
<!-- Node3&#45;&gt;Node4 -->
<g id="edge4_Node000003_Node000004" class="edge">
<title>Node3&#45;&gt;Node4</title>
<g id="a_edge4_Node000003_Node000004"><a xlink:title=" ">
<path fill="none" stroke="#63b8ff" d="M218.82,-106.28C243.85,-106.44 274.89,-106.63 298.21,-106.78"/>
<polygon fill="#63b8ff" stroke="#63b8ff" points="298.31,-110.28 308.34,-106.85 298.36,-103.28 298.31,-110.28"/>
</a>
</g>
</g>
<!-- Node8 -->
<g id="Node000008" class="node">
<title>Node8</title>
<g id="a_Node000008"><a xlink:href="classAP__HAL_1_1Util.html#afaedff8102d9ae2fbc398d2099e30cf6" target="_top" xlink:title=" ">
<polygon fill="white" stroke="#666666" points="394,-79.5 273,-79.5 273,-60.5 394,-60.5 394,-79.5"/>
<text text-anchor="middle" x="333.5" y="-67.5" font-family="Helvetica,sans-Serif" font-size="10.00">AP_HAL::Util::snprintf</text>
</a>
</g>
</g>
<!-- Node3&#45;&gt;Node8 -->
<g id="edge8_Node000003_Node000008" class="edge">
<title>Node3&#45;&gt;Node8</title>
<g id="a_edge8_Node000003_Node000008"><a xlink:title=" ">
<path fill="none" stroke="#63b8ff" d="M217.16,-96.45C236.76,-91.95 260.31,-86.55 281.01,-81.81"/>
<polygon fill="#63b8ff" stroke="#63b8ff" points="281.95,-85.18 290.92,-79.53 280.39,-78.36 281.95,-85.18"/>
</a>
</g>
</g>
<!-- Node9 -->
<g id="Node000009" class="node">
<title>Node9</title>
<g id="a_Node000009"><a xlink:href="classAP__HAL_1_1Util.html#ae161746d300c291b0f1536f05a9f0462" target="_top" xlink:title=" ">
<polygon fill="white" stroke="#666666" points="557,-60.5 430,-60.5 430,-41.5 557,-41.5 557,-60.5"/>
<text text-anchor="middle" x="493.5" y="-48.5" font-family="Helvetica,sans-Serif" font-size="10.00">AP_HAL::Util::vsnprintf</text>
</a>
</g>
</g>
<!-- Node3&#45;&gt;Node9 -->
<g id="edge10_Node000003_Node000009" class="edge">
<title>Node3&#45;&gt;Node9</title>
<g id="a_edge10_Node000003_Node000009"><a xlink:title=" ">
<path fill="none" stroke="#63b8ff" d="M216.41,-96.43C223.54,-93.92 230.68,-90.81 237,-87 256.38,-75.32 252.09,-59.66 273,-51 326.02,-29.04 392.63,-32.92 438.49,-39.83"/>
<polygon fill="#63b8ff" stroke="#63b8ff" points="438.09,-43.31 448.52,-41.44 439.2,-36.4 438.09,-43.31"/>
</a>
</g>
</g>
<!-- Node5 -->
<g id="Node000005" class="node">
<title>Node5</title>
<g id="a_Node000005"><a xlink:href="malloc_8c.html#a2807e26a012717736641384f91ab2563" target="_top" xlink:title=" ">
<polygon fill="white" stroke="#666666" points="516,-116.5 471,-116.5 471,-97.5 516,-97.5 516,-116.5"/>
<text text-anchor="middle" x="493.5" y="-104.5" font-family="Helvetica,sans-Serif" font-size="10.00">calloc</text>
</a>
</g>
</g>
<!-- Node4&#45;&gt;Node5 -->
<g id="edge5_Node000004_Node000005" class="edge">
<title>Node4&#45;&gt;Node5</title>
<g id="a_edge5_Node000004_Node000005"><a xlink:title=" ">
<path fill="none" stroke="#63b8ff" d="M358.84,-107C386.13,-107 430.5,-107 460.56,-107"/>
<polygon fill="#63b8ff" stroke="#63b8ff" points="460.93,-110.5 470.93,-107 460.93,-103.5 460.93,-110.5"/>
</a>
</g>
</g>
<!-- Node6 -->
<g id="Node000006" class="node">
<title>Node6</title>
<g id="a_Node000006"><a xlink:href="malloc_8c.html#a9c36d0fe3ec4675cbffdc9b52f5fb399" target="_top" xlink:title=" ">
<polygon fill="white" stroke="#666666" points="643,-116.5 593,-116.5 593,-97.5 643,-97.5 643,-116.5"/>
<text text-anchor="middle" x="618" y="-104.5" font-family="Helvetica,sans-Serif" font-size="10.00">malloc</text>
</a>
</g>
</g>
<!-- Node5&#45;&gt;Node6 -->
<g id="edge6_Node000005_Node000006" class="edge">
<title>Node5&#45;&gt;Node6</title>
<g id="a_edge6_Node000005_Node000006"><a xlink:title=" ">
<path fill="none" stroke="#63b8ff" d="M516.12,-107C534.45,-107 561.09,-107 582.38,-107"/>
<polygon fill="#63b8ff" stroke="#63b8ff" points="582.66,-110.5 592.66,-107 582.66,-103.5 582.66,-110.5"/>
</a>
</g>
</g>
<!-- Node7 -->
<g id="Node000007" class="node">
<title>Node7</title>
<g id="a_Node000007"><a xlink:href="malloc_8c.html#ad8aac7aa28f6dea23cb5bc9c3268e330" target="_top" xlink:title=" ">
<polygon fill="white" stroke="#666666" points="757,-116.5 679,-116.5 679,-97.5 757,-97.5 757,-116.5"/>
<text text-anchor="middle" x="718" y="-104.5" font-family="Helvetica,sans-Serif" font-size="10.00">malloc_flags</text>
</a>
</g>
</g>
<!-- Node6&#45;&gt;Node7 -->
<g id="edge7_Node000006_Node000007" class="edge">
<title>Node6&#45;&gt;Node7</title>
<g id="a_edge7_Node000006_Node000007"><a xlink:title=" ">
<path fill="none" stroke="#63b8ff" d="M643.22,-107C650.97,-107 659.83,-107 668.66,-107"/>
<polygon fill="#63b8ff" stroke="#63b8ff" points="668.94,-110.5 678.94,-107 668.94,-103.5 668.94,-110.5"/>
</a>
</g>
</g>
<!-- Node8&#45;&gt;Node9 -->
<g id="edge9_Node000008_Node000009" class="edge">
<title>Node8&#45;&gt;Node9</title>
<g id="a_edge9_Node000008_Node000009"><a xlink:title=" ">
<path fill="none" stroke="#63b8ff" d="M394.23,-62.82C402.59,-61.81 411.25,-60.77 419.81,-59.74"/>
<polygon fill="#63b8ff" stroke="#63b8ff" points="420.28,-63.21 429.79,-58.54 419.44,-56.26 420.28,-63.21"/>
</a>
</g>
</g>
</g>
</svg>
