<?xml version="1.0" encoding="UTF-8" standalone="no"?>
<!DOCTYPE svg PUBLIC "-//W3C//DTD SVG 1.1//EN"
 "http://www.w3.org/Graphics/SVG/1.1/DTD/svg11.dtd">
<!-- Generated by graphviz version 2.43.0 (0)
 -->
<!-- Title: my_mexIsInputArgOK Pages: 1 -->
<svg width="935pt" height="485pt"
 viewBox="0.00 0.00 935.00 485.36" xmlns="http://www.w3.org/2000/svg" xmlns:xlink="http://www.w3.org/1999/xlink">
<g id="graph0" class="graph" transform="scale(1 1) rotate(0) translate(4 481.36)">
<title>my_mexIsInputArgOK</title>
<!-- Node1 -->
<g id="Node000001" class="node">
<title>Node1</title>
<g id="a_Node000001"><a xlink:title=" ">
<polygon fill="#999999" stroke="#666666" points="927,-239.86 804,-239.86 804,-220.86 927,-220.86 927,-239.86"/>
<text text-anchor="middle" x="865.5" y="-227.86" font-family="Helvetica,sans-Serif" font-size="10.00">my_mexIsInputArgOK</text>
</a>
</g>
</g>
<!-- Node2 -->
<g id="Node000002" class="node">
<title>Node2</title>
<g id="a_Node000002"><a xlink:href="pnet_8c.html#a6a215cbfde54f82a3ce599228fc3fce5" target="_top" xlink:title=" ">
<polygon fill="white" stroke="#666666" points="80,-220.86 0,-220.86 0,-201.86 80,-201.86 80,-220.86"/>
<text text-anchor="middle" x="40" y="-208.86" font-family="Helvetica,sans-Serif" font-size="10.00">mexFunction</text>
</a>
</g>
</g>
<!-- Node1&#45;&gt;Node2 -->
<g id="edge1_Node000001_Node000002" class="edge">
<title>Node1&#45;&gt;Node2</title>
<g id="a_edge1_Node000001_Node000002"><a xlink:title=" ">
<path fill="none" stroke="#63b8ff" d="M855.79,-249.17C841.25,-278.87 809.5,-336.97 768,-373.36 690.14,-441.63 663.05,-477.36 559.5,-477.36 559.5,-477.36 559.5,-477.36 381,-477.36 255.73,-477.36 207.53,-466.87 116,-381.36 66.26,-334.89 47.56,-249.53 42.53,-220.96"/>
<polygon fill="#63b8ff" stroke="#63b8ff" points="859.05,-250.47 860.2,-239.93 852.74,-247.45 859.05,-250.47"/>
</a>
</g>
</g>
<!-- Node3 -->
<g id="Node000003" class="node">
<title>Node3</title>
<g id="a_Node000003"><a xlink:href="pnet_8c.html#ae9190d80721f1c9346d49ec971ae2d25" target="_top" xlink:title=" ">
<polygon fill="white" stroke="#666666" points="627,-410.86 490,-410.86 490,-391.86 627,-391.86 627,-410.86"/>
<text text-anchor="middle" x="558.5" y="-398.86" font-family="Helvetica,sans-Serif" font-size="10.00">my_mexFindInputOption</text>
</a>
</g>
</g>
<!-- Node1&#45;&gt;Node3 -->
<g id="edge2_Node000001_Node000003" class="edge">
<title>Node1&#45;&gt;Node3</title>
<g id="a_edge2_Node000001_Node000003"><a xlink:title=" ">
<path fill="none" stroke="#63b8ff" d="M853.02,-248.76C836.94,-273.04 805.44,-315.48 768,-339.36 724.06,-367.37 666.9,-383.2 623.55,-391.84"/>
<polygon fill="#63b8ff" stroke="#63b8ff" points="856.1,-250.44 858.59,-240.14 850.22,-246.64 856.1,-250.44"/>
</a>
</g>
</g>
<!-- Node5 -->
<g id="Node000005" class="node">
<title>Node5</title>
<g id="a_Node000005"><a xlink:href="pnet_8c.html#aa06a4686d4bb2224dd96c624a21b92b0" target="_top" xlink:title=" ">
<polygon fill="white" stroke="#666666" points="278,-258.86 116,-258.86 116,-239.86 278,-239.86 278,-258.86"/>
<text text-anchor="middle" x="197" y="-246.86" font-family="Helvetica,sans-Serif" font-size="10.00">my_mexReturnArrayFromBuff</text>
</a>
</g>
</g>
<!-- Node1&#45;&gt;Node5 -->
<g id="edge31_Node000001_Node000005" class="edge">
<title>Node1&#45;&gt;Node5</title>
<g id="a_edge31_Node000001_Node000005"><a xlink:title=" ">
<path fill="none" stroke="#63b8ff" d="M827.24,-243.11C737.27,-271.98 501.69,-335.91 314,-284.36 296.35,-279.51 295.22,-270.57 278,-264.36 272.28,-262.29 266.23,-260.5 260.12,-258.95"/>
<polygon fill="#63b8ff" stroke="#63b8ff" points="828.56,-246.36 836.98,-239.94 826.39,-239.71 828.56,-246.36"/>
</a>
</g>
</g>
<!-- Node6 -->
<g id="Node000006" class="node">
<title>Node6</title>
<g id="a_Node000006"><a xlink:href="pnet_8c.html#a93f54eadc55c507f20df7b5ce4a299ad" target="_top" xlink:title=" ">
<polygon fill="white" stroke="#666666" points="448.5,-30.86 315.5,-30.86 315.5,-11.86 448.5,-11.86 448.5,-30.86"/>
<text text-anchor="middle" x="382" y="-18.86" font-family="Helvetica,sans-Serif" font-size="10.00">my_mexFindInputString</text>
</a>
</g>
</g>
<!-- Node1&#45;&gt;Node6 -->
<g id="edge8_Node000001_Node000006" class="edge">
<title>Node1&#45;&gt;Node6</title>
<g id="a_edge8_Node000001_Node000006"><a xlink:title=" ">
<path fill="none" stroke="#63b8ff" d="M860.46,-210.99C851.41,-172.95 825.58,-88.94 768,-51.36 662.87,17.26 505.55,1.55 428.64,-11.84"/>
<polygon fill="#63b8ff" stroke="#63b8ff" points="857.06,-211.83 862.67,-220.82 863.89,-210.29 857.06,-211.83"/>
</a>
</g>
</g>
<!-- Node7 -->
<g id="Node000007" class="node">
<title>Node7</title>
<g id="a_Node000007"><a xlink:href="pnet_8c.html#affba43c33dbbbc78c1f66ba64448e14e" target="_top" xlink:title=" ">
<polygon fill="white" stroke="#666666" points="768,-239.86 667,-239.86 667,-220.86 768,-220.86 768,-239.86"/>
<text text-anchor="middle" x="717.5" y="-227.86" font-family="Helvetica,sans-Serif" font-size="10.00">my_mexInputArg</text>
</a>
</g>
</g>
<!-- Node1&#45;&gt;Node7 -->
<g id="edge10_Node000001_Node000007" class="edge">
<title>Node1&#45;&gt;Node7</title>
<g id="a_edge10_Node000001_Node000007"><a xlink:title=" ">
<path fill="none" stroke="#63b8ff" d="M793.73,-230.36C785.06,-230.36 776.35,-230.36 768.09,-230.36"/>
<polygon fill="#63b8ff" stroke="#63b8ff" points="793.85,-233.86 803.85,-230.36 793.85,-226.86 793.85,-233.86"/>
</a>
</g>
</g>
<!-- Node9 -->
<g id="Node000009" class="node">
<title>Node9</title>
<g id="a_Node000009"><a xlink:href="pnet_8c.html#a688d284a9699dfd939c1914b4d6bd8ac" target="_top" xlink:title=" ">
<polygon fill="white" stroke="#666666" points="434,-220.86 330,-220.86 330,-201.86 434,-201.86 434,-220.86"/>
<text text-anchor="middle" x="382" y="-208.86" font-family="Helvetica,sans-Serif" font-size="10.00">my_mexInputSize</text>
</a>
</g>
</g>
<!-- Node1&#45;&gt;Node9 -->
<g id="edge30_Node000001_Node000009" class="edge">
<title>Node1&#45;&gt;Node9</title>
<g id="a_edge30_Node000001_Node000009"><a xlink:title=" ">
<path fill="none" stroke="#63b8ff" d="M815.19,-218.73C800.13,-215.7 783.47,-212.86 768,-211.36 648.92,-199.74 508.14,-204.37 434.22,-208.2"/>
<polygon fill="#63b8ff" stroke="#63b8ff" points="814.81,-222.23 825.32,-220.84 816.24,-215.38 814.81,-222.23"/>
</a>
</g>
</g>
<!-- Node10 -->
<g id="Node000010" class="node">
<title>Node10</title>
<g id="a_Node000010"><a xlink:href="pnet_8c.html#a37adc142f20262557c51358e23ffb507" target="_top" xlink:title=" ">
<polygon fill="white" stroke="#666666" points="631,-68.86 486,-68.86 486,-49.86 631,-49.86 631,-68.86"/>
<text text-anchor="middle" x="558.5" y="-56.86" font-family="Helvetica,sans-Serif" font-size="10.00">my_mexInputOptionString</text>
</a>
</g>
</g>
<!-- Node1&#45;&gt;Node10 -->
<g id="edge29_Node000001_Node000010" class="edge">
<title>Node1&#45;&gt;Node10</title>
<g id="a_edge29_Node000001_Node000010"><a xlink:title=" ">
<path fill="none" stroke="#63b8ff" d="M857.99,-211.01C845.93,-178.47 816.8,-113.43 768,-83.36 727.36,-58.31 673.72,-52.62 631.02,-53.02"/>
<polygon fill="#63b8ff" stroke="#63b8ff" points="854.79,-212.44 861.43,-220.69 861.38,-210.1 854.79,-212.44"/>
</a>
</g>
</g>
<!-- Node3&#45;&gt;Node2 -->
<g id="edge3_Node000003_Node000002" class="edge">
<title>Node3&#45;&gt;Node2</title>
<g id="a_edge3_Node000003_Node000002"><a xlink:title=" ">
<path fill="none" stroke="#63b8ff" d="M511.34,-413.13C461.91,-423.85 381.47,-435.85 314,-420.36 218.68,-398.47 189.64,-388.71 116,-324.36 80.72,-293.52 54.97,-242.34 45.25,-221.08"/>
<polygon fill="#63b8ff" stroke="#63b8ff" points="512.11,-416.55 521.1,-410.94 510.58,-409.71 512.11,-416.55"/>
</a>
</g>
</g>
<!-- Node4 -->
<g id="Node000004" class="node">
<title>Node4</title>
<g id="a_Node000004"><a xlink:href="pnet_8c.html#a59bf05d402a294e82df2b83a08fa50d9" target="_top" xlink:title=" ">
<polygon fill="white" stroke="#666666" points="450,-410.86 314,-410.86 314,-391.86 450,-391.86 450,-410.86"/>
<text text-anchor="middle" x="382" y="-398.86" font-family="Helvetica,sans-Serif" font-size="10.00">my_mexInputArray2Buff</text>
</a>
</g>
</g>
<!-- Node3&#45;&gt;Node4 -->
<g id="edge4_Node000003_Node000004" class="edge">
<title>Node3&#45;&gt;Node4</title>
<g id="a_edge4_Node000003_Node000004"><a xlink:title=" ">
<path fill="none" stroke="#63b8ff" d="M479.44,-401.36C469.69,-401.36 459.78,-401.36 450.21,-401.36"/>
<polygon fill="#63b8ff" stroke="#63b8ff" points="479.53,-404.86 489.53,-401.36 479.53,-397.86 479.53,-404.86"/>
</a>
</g>
</g>
<!-- Node3&#45;&gt;Node5 -->
<g id="edge6_Node000003_Node000005" class="edge">
<title>Node3&#45;&gt;Node5</title>
<g id="a_edge6_Node000003_Node000005"><a xlink:title=" ">
<path fill="none" stroke="#63b8ff" d="M500.71,-389.71C439.53,-376.67 346.58,-355.28 314,-339.36 269.8,-317.75 226.31,-277.57 207.59,-259.1"/>
<polygon fill="#63b8ff" stroke="#63b8ff" points="500.1,-393.16 510.61,-391.8 501.55,-386.31 500.1,-393.16"/>
</a>
</g>
</g>
<!-- Node4&#45;&gt;Node2 -->
<g id="edge5_Node000004_Node000002" class="edge">
<title>Node4&#45;&gt;Node2</title>
<g id="a_edge5_Node000004_Node000002"><a xlink:title=" ">
<path fill="none" stroke="#63b8ff" d="M348.56,-387.89C337.51,-383.16 325.14,-377.68 314,-372.36 224.33,-329.47 199.86,-321.72 116,-268.36 92.27,-253.25 66.57,-232.71 52.26,-220.86"/>
<polygon fill="#63b8ff" stroke="#63b8ff" points="347.29,-391.16 357.86,-391.85 350.02,-384.72 347.29,-391.16"/>
</a>
</g>
</g>
<!-- Node5&#45;&gt;Node2 -->
<g id="edge7_Node000005_Node000002" class="edge">
<title>Node5&#45;&gt;Node2</title>
<g id="a_edge7_Node000005_Node000002"><a xlink:title=" ">
<path fill="none" stroke="#63b8ff" d="M146.89,-237.32C125.24,-232.01 100.15,-225.86 79.83,-220.88"/>
<polygon fill="#63b8ff" stroke="#63b8ff" points="146.34,-240.78 156.89,-239.77 148.01,-233.99 146.34,-240.78"/>
</a>
</g>
</g>
<!-- Node6&#45;&gt;Node2 -->
<g id="edge9_Node000006_Node000002" class="edge">
<title>Node6&#45;&gt;Node2</title>
<g id="a_edge9_Node000006_Node000002"><a xlink:title=" ">
<path fill="none" stroke="#63b8ff" d="M319.87,-10.55C261.97,-3.81 175.3,-3.17 116,-45.36 61.37,-84.22 45.79,-172.56 42.04,-201.77"/>
<polygon fill="#63b8ff" stroke="#63b8ff" points="319.62,-14.05 329.98,-11.82 320.49,-7.1 319.62,-14.05"/>
</a>
</g>
</g>
<!-- Node7&#45;&gt;Node2 -->
<g id="edge11_Node000007_Node000002" class="edge">
<title>Node7&#45;&gt;Node2</title>
<g id="a_edge11_Node000007_Node000002"><a xlink:title=" ">
<path fill="none" stroke="#63b8ff" d="M658.74,-219.03C649.48,-217.36 639.99,-215.74 631,-214.36 491.42,-192.84 455.14,-187.45 314,-192.36 230.67,-195.25 133.29,-203.11 80.29,-207.76"/>
<polygon fill="#63b8ff" stroke="#63b8ff" points="658.19,-222.48 668.66,-220.84 659.45,-215.6 658.19,-222.48"/>
</a>
</g>
</g>
<!-- Node7&#45;&gt;Node3 -->
<g id="edge12_Node000007_Node000003" class="edge">
<title>Node7&#45;&gt;Node3</title>
<g id="a_edge12_Node000007_Node000003"><a xlink:title=" ">
<path fill="none" stroke="#63b8ff" d="M710.22,-249.96C699.18,-281.33 673.37,-342.81 631,-377.36 623.29,-383.64 613.85,-388.31 604.4,-391.77"/>
<polygon fill="#63b8ff" stroke="#63b8ff" points="713.63,-250.8 713.51,-240.21 706.99,-248.56 713.63,-250.8"/>
</a>
</g>
</g>
<!-- Node7&#45;&gt;Node4 -->
<g id="edge13_Node000007_Node000004" class="edge">
<title>Node7&#45;&gt;Node4</title>
<g id="a_edge13_Node000007_Node000004"><a xlink:title=" ">
<path fill="none" stroke="#63b8ff" d="M699.78,-246.95C683.36,-262.56 657.05,-285.8 631,-301.36 558.65,-344.54 464.23,-376.76 415.4,-391.85"/>
<polygon fill="#63b8ff" stroke="#63b8ff" points="702.25,-249.44 707,-239.97 697.38,-244.4 702.25,-249.44"/>
</a>
</g>
</g>
<!-- Node7&#45;&gt;Node5 -->
<g id="edge28_Node000007_Node000005" class="edge">
<title>Node7&#45;&gt;Node5</title>
<g id="a_edge28_Node000007_Node000005"><a xlink:title=" ">
<path fill="none" stroke="#63b8ff" d="M691.48,-244.83C674.92,-253.55 652.39,-263.82 631,-268.36 493.16,-297.61 454.51,-273.85 314,-263.36 299.13,-262.24 283.24,-260.62 268.14,-258.86"/>
<polygon fill="#63b8ff" stroke="#63b8ff" points="693.37,-247.78 700.48,-239.93 690.03,-241.63 693.37,-247.78"/>
</a>
</g>
</g>
<!-- Node8 -->
<g id="Node000008" class="node">
<title>Node8</title>
<g id="a_Node000008"><a xlink:href="pnet_8c.html#ab504ffae55876c075463d33a9972baff" target="_top" xlink:title=" ">
<polygon fill="white" stroke="#666666" points="610,-258.86 507,-258.86 507,-239.86 610,-239.86 610,-258.86"/>
<text text-anchor="middle" x="558.5" y="-246.86" font-family="Helvetica,sans-Serif" font-size="10.00">my_mexInputCell</text>
</a>
</g>
</g>
<!-- Node7&#45;&gt;Node8 -->
<g id="edge14_Node000007_Node000008" class="edge">
<title>Node7&#45;&gt;Node8</title>
<g id="a_edge14_Node000007_Node000008"><a xlink:title=" ">
<path fill="none" stroke="#63b8ff" d="M656.89,-237.57C641.5,-239.43 625.09,-241.42 610.2,-243.22"/>
<polygon fill="#63b8ff" stroke="#63b8ff" points="657.32,-241.04 666.82,-236.37 656.48,-234.09 657.32,-241.04"/>
</a>
</g>
</g>
<!-- Node7&#45;&gt;Node9 -->
<g id="edge27_Node000007_Node000009" class="edge">
<title>Node7&#45;&gt;Node9</title>
<g id="a_edge27_Node000007_Node000009"><a xlink:title=" ">
<path fill="none" stroke="#63b8ff" d="M656.68,-226.95C593.27,-223.33 494.15,-217.69 434.21,-214.27"/>
<polygon fill="#63b8ff" stroke="#63b8ff" points="656.75,-230.46 666.93,-227.53 657.15,-223.47 656.75,-230.46"/>
</a>
</g>
</g>
<!-- Node7&#45;&gt;Node10 -->
<g id="edge19_Node000007_Node000010" class="edge">
<title>Node7&#45;&gt;Node10</title>
<g id="a_edge19_Node000007_Node000010"><a xlink:title=" ">
<path fill="none" stroke="#63b8ff" d="M704.21,-212.63C688.4,-190.34 659.57,-151.36 631,-121.36 611.85,-101.24 586.83,-80.67 572.03,-69"/>
<polygon fill="#63b8ff" stroke="#63b8ff" points="701.36,-214.65 709.97,-220.83 707.08,-210.63 701.36,-214.65"/>
</a>
</g>
</g>
<!-- Node11 -->
<g id="Node000011" class="node">
<title>Node11</title>
<g id="a_Node000011"><a xlink:href="pnet_8c.html#a1db5c6a3063a94d6f067e7fc955b4442" target="_top" xlink:title=" ">
<polygon fill="white" stroke="#666666" points="439,-106.86 325,-106.86 325,-87.86 439,-87.86 439,-106.86"/>
<text text-anchor="middle" x="382" y="-94.86" font-family="Helvetica,sans-Serif" font-size="10.00">my_mexInputScalar</text>
</a>
</g>
</g>
<!-- Node7&#45;&gt;Node11 -->
<g id="edge26_Node000007_Node000011" class="edge">
<title>Node7&#45;&gt;Node11</title>
<g id="a_edge26_Node000007_Node000011"><a xlink:title=" ">
<path fill="none" stroke="#63b8ff" d="M700.5,-213.2C684.43,-196.99 658.22,-173.15 631,-159.36 569.44,-128.16 491.16,-111.99 439.19,-104.1"/>
<polygon fill="#63b8ff" stroke="#63b8ff" points="698.06,-215.72 707.53,-220.47 703.09,-210.85 698.06,-215.72"/>
</a>
</g>
</g>
<!-- Node8&#45;&gt;Node5 -->
<g id="edge18_Node000008_Node000005" class="edge">
<title>Node8&#45;&gt;Node5</title>
<g id="a_edge18_Node000008_Node000005"><a xlink:title=" ">
<path fill="none" stroke="#63b8ff" d="M496.66,-249.36C436.58,-249.36 344.34,-249.36 278.28,-249.36"/>
<polygon fill="#63b8ff" stroke="#63b8ff" points="496.75,-252.86 506.75,-249.36 496.75,-245.86 496.75,-252.86"/>
</a>
</g>
</g>
<!-- Node8&#45;&gt;Node9 -->
<g id="edge15_Node000008_Node000009" class="edge">
<title>Node8&#45;&gt;Node9</title>
<g id="a_edge15_Node000008_Node000009"><a xlink:title=" ">
<path fill="none" stroke="#63b8ff" d="M503.53,-237.6C478.86,-232.23 450.01,-225.95 426.72,-220.88"/>
<polygon fill="#63b8ff" stroke="#63b8ff" points="502.95,-241.06 513.47,-239.77 504.44,-234.22 502.95,-241.06"/>
</a>
</g>
</g>
<!-- Node9&#45;&gt;Node2 -->
<g id="edge16_Node000009_Node000002" class="edge">
<title>Node9&#45;&gt;Node2</title>
<g id="a_edge16_Node000009_Node000002"><a xlink:title=" ">
<path fill="none" stroke="#63b8ff" d="M319.38,-211.36C249.95,-211.36 139.16,-211.36 80.47,-211.36"/>
<polygon fill="#63b8ff" stroke="#63b8ff" points="319.73,-214.86 329.73,-211.36 319.73,-207.86 319.73,-214.86"/>
</a>
</g>
</g>
<!-- Node9&#45;&gt;Node5 -->
<g id="edge17_Node000009_Node000005" class="edge">
<title>Node9&#45;&gt;Node5</title>
<g id="a_edge17_Node000009_Node000005"><a xlink:title=" ">
<path fill="none" stroke="#63b8ff" d="M324.75,-223.04C298.79,-228.43 268.38,-234.74 243.85,-239.84"/>
<polygon fill="#63b8ff" stroke="#63b8ff" points="325.74,-226.4 334.82,-220.94 324.32,-219.55 325.74,-226.4"/>
</a>
</g>
</g>
<!-- Node10&#45;&gt;Node2 -->
<g id="edge20_Node000010_Node000002" class="edge">
<title>Node10&#45;&gt;Node2</title>
<g id="a_edge20_Node000010_Node000002"><a xlink:title=" ">
<path fill="none" stroke="#63b8ff" d="M476.72,-48.95C382.94,-41.01 226.97,-40.94 116,-108.36 78.38,-131.21 53.93,-180.77 44.9,-201.71"/>
<polygon fill="#63b8ff" stroke="#63b8ff" points="476.45,-52.44 486.72,-49.85 477.07,-45.47 476.45,-52.44"/>
</a>
</g>
</g>
<!-- Node10&#45;&gt;Node5 -->
<g id="edge25_Node000010_Node000005" class="edge">
<title>Node10&#45;&gt;Node5</title>
<g id="a_edge25_Node000010_Node000005"><a xlink:title=" ">
<path fill="none" stroke="#63b8ff" d="M509.94,-72.31C501.7,-75.39 493.41,-79.06 486,-83.36 467.48,-94.09 467.57,-103.13 450,-115.36 407.9,-144.64 269.12,-214.18 217.54,-239.73"/>
<polygon fill="#63b8ff" stroke="#63b8ff" points="511.24,-75.57 519.53,-68.97 508.93,-68.96 511.24,-75.57"/>
</a>
</g>
</g>
<!-- Node10&#45;&gt;Node6 -->
<g id="edge21_Node000010_Node000006" class="edge">
<title>Node10&#45;&gt;Node6</title>
<g id="a_edge21_Node000010_Node000006"><a xlink:title=" ">
<path fill="none" stroke="#63b8ff" d="M503.53,-47.6C478.86,-42.23 450.01,-35.95 426.72,-30.88"/>
<polygon fill="#63b8ff" stroke="#63b8ff" points="502.95,-51.06 513.47,-49.77 504.44,-44.22 502.95,-51.06"/>
</a>
</g>
</g>
<!-- Node10&#45;&gt;Node9 -->
<g id="edge24_Node000010_Node000009" class="edge">
<title>Node10&#45;&gt;Node9</title>
<g id="a_edge24_Node000010_Node000009"><a xlink:title=" ">
<path fill="none" stroke="#63b8ff" d="M502.58,-72.93C496.62,-75.78 490.94,-79.22 486,-83.36 460.39,-104.82 470.53,-122.99 450,-149.36 433.74,-170.24 410.18,-190.26 395.77,-201.66"/>
<polygon fill="#63b8ff" stroke="#63b8ff" points="504.24,-76.03 512.1,-68.92 501.53,-69.58 504.24,-76.03"/>
</a>
</g>
</g>
<!-- Node10&#45;&gt;Node11 -->
<g id="edge22_Node000010_Node000011" class="edge">
<title>Node10&#45;&gt;Node11</title>
<g id="a_edge22_Node000010_Node000011"><a xlink:title=" ">
<path fill="none" stroke="#63b8ff" d="M503.53,-71.11C478.86,-76.48 450.01,-82.76 426.72,-87.84"/>
<polygon fill="#63b8ff" stroke="#63b8ff" points="504.44,-74.49 513.47,-68.94 502.95,-67.65 504.44,-74.49"/>
</a>
</g>
</g>
<!-- Node11&#45;&gt;Node2 -->
<g id="edge23_Node000011_Node000002" class="edge">
<title>Node11&#45;&gt;Node2</title>
<g id="a_edge23_Node000011_Node000002"><a xlink:title=" ">
<path fill="none" stroke="#63b8ff" d="M314.77,-105.78C259.78,-114.41 180.43,-130.73 116,-159.36 91.09,-170.42 65.8,-190.09 51.88,-201.81"/>
<polygon fill="#63b8ff" stroke="#63b8ff" points="315.39,-109.23 324.75,-104.25 314.33,-102.31 315.39,-109.23"/>
</a>
</g>
</g>
</g>
</svg>
