<?xml version="1.0" encoding="UTF-8" standalone="no"?>
<!DOCTYPE svg PUBLIC "-//W3C//DTD SVG 1.1//EN"
 "http://www.w3.org/Graphics/SVG/1.1/DTD/svg11.dtd">
<!-- Generated by graphviz version 2.43.0 (0)
 -->
<!-- Title: closeall Pages: 1 -->
<svg width="828pt" height="83pt"
 viewBox="0.00 0.00 828.00 83.00" xmlns="http://www.w3.org/2000/svg" xmlns:xlink="http://www.w3.org/1999/xlink">
<g id="graph0" class="graph" transform="scale(1 1) rotate(0) translate(4 79)">
<title>closeall</title>
<!-- Node1 -->
<g id="Node000001" class="node">
<title>Node1</title>
<g id="a_Node000001"><a xlink:title=" ">
<polygon fill="#999999" stroke="#666666" points="54,-56 0,-56 0,-37 54,-37 54,-56"/>
<text text-anchor="middle" x="27" y="-44" font-family="Helvetica,sans-Serif" font-size="10.00">closeall</text>
</a>
</g>
</g>
<!-- Node2 -->
<g id="Node000002" class="node">
<title>Node2</title>
<g id="a_Node000002"><a xlink:href="pnet_8c.html#ae0613cbd0e1ad35c6cbba2b5fda115c2" target="_top" xlink:title=" ">
<polygon fill="white" stroke="#666666" points="155,-56 90,-56 90,-37 155,-37 155,-56"/>
<text text-anchor="middle" x="122.5" y="-44" font-family="Helvetica,sans-Serif" font-size="10.00">close_con</text>
</a>
</g>
</g>
<!-- Node1&#45;&gt;Node2 -->
<g id="edge1_Node000001_Node000002" class="edge">
<title>Node1&#45;&gt;Node2</title>
<g id="a_edge1_Node000001_Node000002"><a xlink:title=" ">
<path fill="none" stroke="#63b8ff" d="M54.04,-46.5C62.05,-46.5 71.06,-46.5 79.83,-46.5"/>
<polygon fill="#63b8ff" stroke="#63b8ff" points="79.95,-50 89.94,-46.5 79.94,-43 79.95,-50"/>
</a>
</g>
</g>
<!-- Node3 -->
<g id="Node000003" class="node">
<title>Node3</title>
<g id="a_Node000003"><a xlink:href="pnet_8c.html#adda7ef0812848699dae318df368b0303" target="_top" xlink:title=" ">
<polygon fill="white" stroke="#666666" points="256,-75 201,-75 201,-56 256,-56 256,-75"/>
<text text-anchor="middle" x="228.5" y="-63" font-family="Helvetica,sans-Serif" font-size="10.00">init_con</text>
</a>
</g>
</g>
<!-- Node2&#45;&gt;Node3 -->
<g id="edge2_Node000002_Node000003" class="edge">
<title>Node2&#45;&gt;Node3</title>
<g id="a_edge2_Node000002_Node000003"><a xlink:title=" ">
<path fill="none" stroke="#63b8ff" d="M155.27,-52.3C166.54,-54.36 179.32,-56.7 190.96,-58.82"/>
<polygon fill="#63b8ff" stroke="#63b8ff" points="190.36,-62.27 200.83,-60.63 191.62,-55.39 190.36,-62.27"/>
</a>
</g>
</g>
<!-- Node4 -->
<g id="Node000004" class="node">
<title>Node4</title>
<g id="a_Node000004"><a xlink:href="pnet_8c.html#a4215c61adb6618c99f39b82e408174e6" target="_top" xlink:title=" ">
<polygon fill="white" stroke="#666666" points="266,-38 191,-38 191,-19 266,-19 266,-38"/>
<text text-anchor="middle" x="228.5" y="-26" font-family="Helvetica,sans-Serif" font-size="10.00">newbuffsize</text>
</a>
</g>
</g>
<!-- Node2&#45;&gt;Node4 -->
<g id="edge3_Node000002_Node000004" class="edge">
<title>Node2&#45;&gt;Node4</title>
<g id="a_edge3_Node000002_Node000004"><a xlink:title=" ">
<path fill="none" stroke="#63b8ff" d="M155.27,-41C163.34,-39.6 172.18,-38.07 180.83,-36.58"/>
<polygon fill="#63b8ff" stroke="#63b8ff" points="181.57,-40 190.82,-34.85 180.37,-33.1 181.57,-40"/>
</a>
</g>
</g>
<!-- Node5 -->
<g id="Node000005" class="node">
<title>Node5</title>
<g id="a_Node000005"><a xlink:href="malloc_8c.html#afbedc913aa4651b3c3b4b3aecd9b4711" target="_top" xlink:title=" ">
<polygon fill="white" stroke="#666666" points="532,-56 496,-56 496,-37 532,-37 532,-56"/>
<text text-anchor="middle" x="514" y="-44" font-family="Helvetica,sans-Serif" font-size="10.00">free</text>
</a>
</g>
</g>
<!-- Node4&#45;&gt;Node5 -->
<g id="edge4_Node000004_Node000005" class="edge">
<title>Node4&#45;&gt;Node5</title>
<g id="a_edge4_Node000004_Node000005"><a xlink:title=" ">
<path fill="none" stroke="#63b8ff" d="M266.27,-30.83C323.92,-34.49 434.26,-41.5 485.54,-44.76"/>
<polygon fill="#63b8ff" stroke="#63b8ff" points="485.63,-48.27 495.83,-45.41 486.08,-41.28 485.63,-48.27"/>
</a>
</g>
</g>
<!-- Node6 -->
<g id="Node000006" class="node">
<title>Node6</title>
<g id="a_Node000006"><a xlink:href="pnet_8c.html#a869c42cff82a6e5114442a883d500c43" target="_top" xlink:title=" ">
<polygon fill="white" stroke="#666666" points="367,-19 302,-19 302,0 367,0 367,-19"/>
<text text-anchor="middle" x="334.5" y="-7" font-family="Helvetica,sans-Serif" font-size="10.00">myrealloc</text>
</a>
</g>
</g>
<!-- Node4&#45;&gt;Node6 -->
<g id="edge5_Node000004_Node000006" class="edge">
<title>Node4&#45;&gt;Node6</title>
<g id="a_edge5_Node000004_Node000006"><a xlink:title=" ">
<path fill="none" stroke="#63b8ff" d="M266.17,-21.8C274.48,-20.28 283.37,-18.66 291.88,-17.1"/>
<polygon fill="#63b8ff" stroke="#63b8ff" points="292.78,-20.5 301.99,-15.26 291.53,-13.61 292.78,-20.5"/>
</a>
</g>
</g>
<!-- Node7 -->
<g id="Node000007" class="node">
<title>Node7</title>
<g id="a_Node000007"><a xlink:href="test__expandingstring__failure_8cpp.html#a0f723f009d0b6f246530cbbac3ec1dd4" target="_top" xlink:title=" ">
<polygon fill="white" stroke="#666666" points="453,-19 403,-19 403,0 453,0 453,-19"/>
<text text-anchor="middle" x="428" y="-7" font-family="Helvetica,sans-Serif" font-size="10.00">realloc</text>
</a>
</g>
</g>
<!-- Node6&#45;&gt;Node7 -->
<g id="edge6_Node000006_Node000007" class="edge">
<title>Node6&#45;&gt;Node7</title>
<g id="a_edge6_Node000006_Node000007"><a xlink:title=" ">
<path fill="none" stroke="#63b8ff" d="M367.25,-9.5C375.45,-9.5 384.31,-9.5 392.64,-9.5"/>
<polygon fill="#63b8ff" stroke="#63b8ff" points="392.81,-13 402.81,-9.5 392.81,-6 392.81,-13"/>
</a>
</g>
</g>
<!-- Node7&#45;&gt;Node5 -->
<g id="edge7_Node000007_Node000005" class="edge">
<title>Node7&#45;&gt;Node5</title>
<g id="a_edge7_Node000007_Node000005"><a xlink:title=" ">
<path fill="none" stroke="#63b8ff" d="M450.63,-19.03C461.65,-23.88 475.12,-29.82 486.73,-34.93"/>
<polygon fill="#63b8ff" stroke="#63b8ff" points="485.38,-38.16 495.94,-38.99 488.2,-31.75 485.38,-38.16"/>
</a>
</g>
</g>
<!-- Node8 -->
<g id="Node000008" class="node">
<title>Node8</title>
<g id="a_Node000008"><a xlink:href="test__nmea__vaprint_8cpp.html#a9c36d0fe3ec4675cbffdc9b52f5fb399" target="_top" xlink:title=" ">
<polygon fill="white" stroke="#666666" points="539,-19 489,-19 489,0 539,0 539,-19"/>
<text text-anchor="middle" x="514" y="-7" font-family="Helvetica,sans-Serif" font-size="10.00">malloc</text>
</a>
</g>
</g>
<!-- Node7&#45;&gt;Node8 -->
<g id="edge8_Node000007_Node000008" class="edge">
<title>Node7&#45;&gt;Node8</title>
<g id="a_edge8_Node000007_Node000008"><a xlink:title=" ">
<path fill="none" stroke="#63b8ff" d="M453.3,-9.5C461.22,-9.5 470.17,-9.5 478.69,-9.5"/>
<polygon fill="#63b8ff" stroke="#63b8ff" points="478.76,-13 488.76,-9.5 478.76,-6 478.76,-13"/>
</a>
</g>
</g>
<!-- Node9 -->
<g id="Node000009" class="node">
<title>Node9</title>
<g id="a_Node000009"><a xlink:href="malloc_8c.html#a2807e26a012717736641384f91ab2563" target="_top" xlink:title=" ">
<polygon fill="white" stroke="#666666" points="620,-19 575,-19 575,0 620,0 620,-19"/>
<text text-anchor="middle" x="597.5" y="-7" font-family="Helvetica,sans-Serif" font-size="10.00">calloc</text>
</a>
</g>
</g>
<!-- Node8&#45;&gt;Node9 -->
<g id="edge9_Node000008_Node000009" class="edge">
<title>Node8&#45;&gt;Node9</title>
<g id="a_edge9_Node000008_Node000009"><a xlink:title=" ">
<path fill="none" stroke="#63b8ff" d="M539.01,-9.5C547.09,-9.5 556.23,-9.5 564.81,-9.5"/>
<polygon fill="#63b8ff" stroke="#63b8ff" points="564.88,-13 574.88,-9.5 564.88,-6 564.88,-13"/>
</a>
</g>
</g>
<!-- Node10 -->
<g id="Node000010" class="node">
<title>Node10</title>
<g id="a_Node000010"><a xlink:href="malloc_8c.html#a9c36d0fe3ec4675cbffdc9b52f5fb399" target="_top" xlink:title=" ">
<polygon fill="white" stroke="#666666" points="706,-19 656,-19 656,0 706,0 706,-19"/>
<text text-anchor="middle" x="681" y="-7" font-family="Helvetica,sans-Serif" font-size="10.00">malloc</text>
</a>
</g>
</g>
<!-- Node9&#45;&gt;Node10 -->
<g id="edge10_Node000009_Node000010" class="edge">
<title>Node9&#45;&gt;Node10</title>
<g id="a_edge10_Node000009_Node000010"><a xlink:title=" ">
<path fill="none" stroke="#63b8ff" d="M620.34,-9.5C628.12,-9.5 637.08,-9.5 645.65,-9.5"/>
<polygon fill="#63b8ff" stroke="#63b8ff" points="645.8,-13 655.8,-9.5 645.8,-6 645.8,-13"/>
</a>
</g>
</g>
<!-- Node11 -->
<g id="Node000011" class="node">
<title>Node11</title>
<g id="a_Node000011"><a xlink:href="malloc_8c.html#ad8aac7aa28f6dea23cb5bc9c3268e330" target="_top" xlink:title=" ">
<polygon fill="white" stroke="#666666" points="820,-19 742,-19 742,0 820,0 820,-19"/>
<text text-anchor="middle" x="781" y="-7" font-family="Helvetica,sans-Serif" font-size="10.00">malloc_flags</text>
</a>
</g>
</g>
<!-- Node10&#45;&gt;Node11 -->
<g id="edge11_Node000010_Node000011" class="edge">
<title>Node10&#45;&gt;Node11</title>
<g id="a_edge11_Node000010_Node000011"><a xlink:title=" ">
<path fill="none" stroke="#63b8ff" d="M706.22,-9.5C713.97,-9.5 722.83,-9.5 731.66,-9.5"/>
<polygon fill="#63b8ff" stroke="#63b8ff" points="731.94,-13 741.94,-9.5 731.94,-6 731.94,-13"/>
</a>
</g>
</g>
</g>
</svg>
