<?xml version="1.0" encoding="UTF-8" standalone="no"?>
<!DOCTYPE svg PUBLIC "-//W3C//DTD SVG 1.1//EN"
 "http://www.w3.org/Graphics/SVG/1.1/DTD/svg11.dtd">
<!-- Generated by graphviz version 2.43.0 (0)
 -->
<!-- Title: libraries/AP_HAL_Linux/Poller.h Pages: 1 -->
<svg width="574pt" height="170pt"
 viewBox="0.00 0.00 574.00 170.00" xmlns="http://www.w3.org/2000/svg" xmlns:xlink="http://www.w3.org/1999/xlink">
<g id="graph0" class="graph" transform="scale(1 1) rotate(0) translate(4 166)">
<title>libraries/AP_HAL_Linux/Poller.h</title>
<!-- Node1 -->
<g id="Node000001" class="node">
<title>Node1</title>
<g id="a_Node000001"><a xlink:title=" ">
<polygon fill="#999999" stroke="#666666" points="274,-162 146,-162 146,-132 274,-132 274,-162"/>
<text text-anchor="start" x="154" y="-150" font-family="Helvetica,sans-Serif" font-size="10.00">libraries/AP_HAL_Linux</text>
<text text-anchor="middle" x="210" y="-139" font-family="Helvetica,sans-Serif" font-size="10.00">/Poller.h</text>
</a>
</g>
</g>
<!-- Node2 -->
<g id="Node000002" class="node">
<title>Node2</title>
<g id="a_Node000002"><a xlink:href="Poller_8cpp.html" target="_top" xlink:title=" ">
<polygon fill="white" stroke="#666666" points="201,-96 73,-96 73,-66 201,-66 201,-96"/>
<text text-anchor="start" x="81" y="-84" font-family="Helvetica,sans-Serif" font-size="10.00">libraries/AP_HAL_Linux</text>
<text text-anchor="middle" x="137" y="-73" font-family="Helvetica,sans-Serif" font-size="10.00">/Poller.cpp</text>
</a>
</g>
</g>
<!-- Node1&#45;&gt;Node2 -->
<g id="edge1_Node000001_Node000002" class="edge">
<title>Node1&#45;&gt;Node2</title>
<g id="a_edge1_Node000001_Node000002"><a xlink:title=" ">
<path fill="none" stroke="#63b8ff" d="M186.28,-125.2C175.44,-115.7 162.88,-104.69 153.16,-96.16"/>
<polygon fill="#63b8ff" stroke="#63b8ff" points="183.97,-127.84 193.8,-131.8 188.59,-122.57 183.97,-127.84"/>
</a>
</g>
</g>
<!-- Node3 -->
<g id="Node000003" class="node">
<title>Node3</title>
<g id="a_Node000003"><a xlink:href="PollerThread_8h.html" target="_top" xlink:title=" ">
<polygon fill="white" stroke="#666666" points="347,-96 219,-96 219,-66 347,-66 347,-96"/>
<text text-anchor="start" x="227" y="-84" font-family="Helvetica,sans-Serif" font-size="10.00">libraries/AP_HAL_Linux</text>
<text text-anchor="middle" x="283" y="-73" font-family="Helvetica,sans-Serif" font-size="10.00">/PollerThread.h</text>
</a>
</g>
</g>
<!-- Node1&#45;&gt;Node3 -->
<g id="edge2_Node000001_Node000003" class="edge">
<title>Node1&#45;&gt;Node3</title>
<g id="a_edge2_Node000001_Node000003"><a xlink:title=" ">
<path fill="none" stroke="#63b8ff" d="M233.72,-125.2C244.56,-115.7 257.12,-104.69 266.84,-96.16"/>
<polygon fill="#63b8ff" stroke="#63b8ff" points="231.41,-122.57 226.2,-131.8 236.03,-127.84 231.41,-122.57"/>
</a>
</g>
</g>
<!-- Node4 -->
<g id="Node000004" class="node">
<title>Node4</title>
<g id="a_Node000004"><a xlink:href="AP__HAL__Linux_2I2CDevice_8cpp.html" target="_top" xlink:title=" ">
<polygon fill="white" stroke="#666666" points="128,-30 0,-30 0,0 128,0 128,-30"/>
<text text-anchor="start" x="8" y="-18" font-family="Helvetica,sans-Serif" font-size="10.00">libraries/AP_HAL_Linux</text>
<text text-anchor="middle" x="64" y="-7" font-family="Helvetica,sans-Serif" font-size="10.00">/I2CDevice.cpp</text>
</a>
</g>
</g>
<!-- Node3&#45;&gt;Node4 -->
<g id="edge3_Node000003_Node000004" class="edge">
<title>Node3&#45;&gt;Node4</title>
<g id="a_edge3_Node000003_Node000004"><a xlink:title=" ">
<path fill="none" stroke="#63b8ff" d="M225.24,-63.12C189.93,-52.8 145.3,-39.76 111.95,-30.01"/>
<polygon fill="#63b8ff" stroke="#63b8ff" points="224.36,-66.51 234.94,-65.95 226.32,-59.79 224.36,-66.51"/>
</a>
</g>
</g>
<!-- Node5 -->
<g id="Node000005" class="node">
<title>Node5</title>
<g id="a_Node000005"><a xlink:href="PollerThread_8cpp.html" target="_top" xlink:title=" ">
<polygon fill="white" stroke="#666666" points="274,-30 146,-30 146,0 274,0 274,-30"/>
<text text-anchor="start" x="154" y="-18" font-family="Helvetica,sans-Serif" font-size="10.00">libraries/AP_HAL_Linux</text>
<text text-anchor="middle" x="210" y="-7" font-family="Helvetica,sans-Serif" font-size="10.00">/PollerThread.cpp</text>
</a>
</g>
</g>
<!-- Node3&#45;&gt;Node5 -->
<g id="edge4_Node000003_Node000005" class="edge">
<title>Node3&#45;&gt;Node5</title>
<g id="a_edge4_Node000003_Node000005"><a xlink:title=" ">
<path fill="none" stroke="#63b8ff" d="M259.28,-59.2C248.44,-49.7 235.88,-38.69 226.16,-30.16"/>
<polygon fill="#63b8ff" stroke="#63b8ff" points="256.97,-61.84 266.8,-65.8 261.59,-56.57 256.97,-61.84"/>
</a>
</g>
</g>
<!-- Node6 -->
<g id="Node000006" class="node">
<title>Node6</title>
<g id="a_Node000006"><a xlink:href="AP__HAL__Linux_2SPIDevice_8cpp.html" target="_top" xlink:title=" ">
<polygon fill="white" stroke="#666666" points="420,-30 292,-30 292,0 420,0 420,-30"/>
<text text-anchor="start" x="300" y="-18" font-family="Helvetica,sans-Serif" font-size="10.00">libraries/AP_HAL_Linux</text>
<text text-anchor="middle" x="356" y="-7" font-family="Helvetica,sans-Serif" font-size="10.00">/SPIDevice.cpp</text>
</a>
</g>
</g>
<!-- Node3&#45;&gt;Node6 -->
<g id="edge5_Node000003_Node000006" class="edge">
<title>Node3&#45;&gt;Node6</title>
<g id="a_edge5_Node000003_Node000006"><a xlink:title=" ">
<path fill="none" stroke="#63b8ff" d="M306.72,-59.2C317.56,-49.7 330.12,-38.69 339.84,-30.16"/>
<polygon fill="#63b8ff" stroke="#63b8ff" points="304.41,-56.57 299.2,-65.8 309.03,-61.84 304.41,-56.57"/>
</a>
</g>
</g>
<!-- Node7 -->
<g id="Node000007" class="node">
<title>Node7</title>
<g id="a_Node000007"><a xlink:href="test__thread_8cpp.html" target="_top" xlink:title=" ">
<polygon fill="white" stroke="#666666" points="566,-30 438,-30 438,0 566,0 566,-30"/>
<text text-anchor="start" x="446" y="-18" font-family="Helvetica,sans-Serif" font-size="10.00">libraries/AP_HAL_Linux</text>
<text text-anchor="middle" x="502" y="-7" font-family="Helvetica,sans-Serif" font-size="10.00">/tests/test_thread.cpp</text>
</a>
</g>
</g>
<!-- Node3&#45;&gt;Node7 -->
<g id="edge6_Node000003_Node000007" class="edge">
<title>Node3&#45;&gt;Node7</title>
<g id="a_edge6_Node000003_Node000007"><a xlink:title=" ">
<path fill="none" stroke="#63b8ff" d="M340.76,-63.12C376.07,-52.8 420.7,-39.76 454.05,-30.01"/>
<polygon fill="#63b8ff" stroke="#63b8ff" points="339.68,-59.79 331.06,-65.95 341.64,-66.51 339.68,-59.79"/>
</a>
</g>
</g>
</g>
</svg>
