<?xml version="1.0" encoding="UTF-8" standalone="no"?>
<!DOCTYPE svg PUBLIC "-//W3C//DTD SVG 1.1//EN"
 "http://www.w3.org/Graphics/SVG/1.1/DTD/svg11.dtd">
<!-- Generated by graphviz version 2.43.0 (0)
 -->
<!-- Title: Polygon_closest_distance_line Pages: 1 -->
<!--zoomable 119 -->

<svg id="main" version="1.1" xmlns="http://www.w3.org/2000/svg" xmlns:xlink="http://www.w3.org/1999/xlink" xml:space="preserve" onload="init(evt)">
<style type="text/css"><![CDATA[
.node, .edge {opacity: 0.7;}
.node.selected, .edge.selected {opacity: 1;}
.edge:hover path { stroke: red; }
.edge:hover polygon { stroke: red; fill: red; }
]]></style>

<defs>
  <circle id="rim" cx="0" cy="0" r="7"/>
  <circle id="rim2" cx="0" cy="0" r="3.5"/>
  <g id="zoomPlus">
    <use xlink:href="#rim" fill="#404040"><set attributeName="fill" to="#808080" begin="zoomplus.mouseover" end="zoomplus.mouseout"/></use>
    <path d="M-4,0h8M0,-4v8" fill="none" stroke="white" stroke-width="1.5" pointer-events="none"/>
  </g>
  <g id="zoomMin">
    <use xlink:href="#rim" fill="#404040"><set attributeName="fill" to="#808080" begin="zoomminus.mouseover" end="zoomminus.mouseout"/></use>
    <path d="M-4,0h8" fill="none" stroke="white" stroke-width="1.5" pointer-events="none"/>
  </g>
  <g id="arrowUp" transform="translate(30 24)">
    <use xlink:href="#rim"/>
    <path pointer-events="none" fill="none" stroke="white" stroke-width="1.5" d="M0,-3.0v7 M-2.5,-0.5L0,-3.0L2.5,-0.5"/>
  </g>
  <g id="arrowRight" transform="rotate(90) translate(36 -43)">
    <use xlink:href="#rim"/>
    <path pointer-events="none" fill="none" stroke="white" stroke-width="1.5" d="M0,-3.0v7 M-2.5,-0.5L0,-3.0L2.5,-0.5"/>
  </g>
  <g id="arrowDown" transform="rotate(180) translate(-30 -48)">
    <use xlink:href="#rim"/>
    <path pointer-events="none" fill="none" stroke="white" stroke-width="1.5" d="M0,-3.0v7 M-2.5,-0.5L0,-3.0L2.5,-0.5"/>
  </g>
  <g id="arrowLeft" transform="rotate(270) translate(-36 17)">
    <use xlink:href="#rim"/>
    <path pointer-events="none" fill="none" stroke="white" stroke-width="1.5" d="M0,-3.0v7 M-2.5,-0.5L0,-3.0L2.5,-0.5"/>
  </g>
  <g id="resetDef">
    <use xlink:href="#rim2" fill="#404040"><set attributeName="fill" to="#808080" begin="reset.mouseover" end="reset.mouseout"/></use>
  </g>
</defs>
<script type="application/ecmascript">
var viewWidth = 1585;
var viewHeight = 119;
var sectionId = 'dynsection-2';
</script>
<script type="application/ecmascript" xlink:href="svg.min.js"/>
<svg id="graph" class="graph">
<g id="viewport">
<title>Polygon_closest_distance_line</title>
<!-- Node1 -->
<g id="Node000001" class="node">
<title>Node1</title>
<g id="a_Node000001"><a xlink:title=" ">
<polygon fill="#999999" stroke="#666666" points="1577,-62.5 1412,-62.5 1412,-43.5 1577,-43.5 1577,-62.5"/>
<text text-anchor="middle" x="1494.5" y="-50.5" font-family="Helvetica,sans-Serif" font-size="10.00">Polygon_closest_distance_line</text>
</a>
</g>
</g>
<!-- Node2 -->
<g id="Node000002" class="node">
<title>Node2</title>
<g id="a_Node000002"><a xlink:href="classAP__OABendyRuler.html#adf62b862dffcf8fd3b37257be8153fe4" target="_top" xlink:title=" ">
<polygon fill="white" stroke="#666666" points="1376,-73.5 1235,-73.5 1235,-32.5 1376,-32.5 1376,-73.5"/>
<text text-anchor="start" x="1243" y="-61.5" font-family="Helvetica,sans-Serif" font-size="10.00">AP_OABendyRuler::calc</text>
<text text-anchor="start" x="1243" y="-50.5" font-family="Helvetica,sans-Serif" font-size="10.00">_margin_from_inclusion</text>
<text text-anchor="middle" x="1305.5" y="-39.5" font-family="Helvetica,sans-Serif" font-size="10.00">_and_exclusion_polygons</text>
</a>
</g>
</g>
<!-- Node1&#45;&gt;Node2 -->
<g id="edge1_Node000001_Node000002" class="edge">
<title>Node1&#45;&gt;Node2</title>
<g id="a_edge1_Node000001_Node000002"><a xlink:title=" ">
<path fill="none" stroke="#63b8ff" d="M1401.67,-53C1393.07,-53 1384.44,-53 1376.09,-53"/>
<polygon fill="#63b8ff" stroke="#63b8ff" points="1401.75,-56.5 1411.75,-53 1401.75,-49.5 1401.75,-56.5"/>
</a>
</g>
</g>
<!-- Node3 -->
<g id="Node000003" class="node">
<title>Node3</title>
<g id="a_Node000003"><a xlink:href="classAP__OABendyRuler.html#a9817efd6feb07dc029263bae5790a043" target="_top" xlink:title=" ">
<polygon fill="white" stroke="#666666" points="1199,-68 1068,-68 1068,-38 1199,-38 1199,-68"/>
<text text-anchor="start" x="1076" y="-56" font-family="Helvetica,sans-Serif" font-size="10.00">AP_OABendyRuler::calc</text>
<text text-anchor="middle" x="1133.5" y="-45" font-family="Helvetica,sans-Serif" font-size="10.00">_avoidance_margin</text>
</a>
</g>
</g>
<!-- Node2&#45;&gt;Node3 -->
<g id="edge2_Node000002_Node000003" class="edge">
<title>Node2&#45;&gt;Node3</title>
<g id="a_edge2_Node000002_Node000003"><a xlink:title=" ">
<path fill="none" stroke="#63b8ff" d="M1224.81,-53C1216.19,-53 1207.51,-53 1199.1,-53"/>
<polygon fill="#63b8ff" stroke="#63b8ff" points="1224.86,-56.5 1234.86,-53 1224.86,-49.5 1224.86,-56.5"/>
</a>
</g>
</g>
<!-- Node4 -->
<g id="Node000004" class="node">
<title>Node4</title>
<g id="a_Node000004"><a xlink:href="classAP__OABendyRuler.html#ad8506148d4d7d239dd83191049ca5d25" target="_top" xlink:title=" ">
<polygon fill="white" stroke="#666666" points="1032,-111 894,-111 894,-81 1032,-81 1032,-111"/>
<text text-anchor="start" x="902" y="-99" font-family="Helvetica,sans-Serif" font-size="10.00">AP_OABendyRuler::resist</text>
<text text-anchor="middle" x="963" y="-88" font-family="Helvetica,sans-Serif" font-size="10.00">_bearing_change</text>
</a>
</g>
</g>
<!-- Node3&#45;&gt;Node4 -->
<g id="edge3_Node000003_Node000004" class="edge">
<title>Node3&#45;&gt;Node4</title>
<g id="a_edge3_Node000003_Node000004"><a xlink:title=" ">
<path fill="none" stroke="#63b8ff" d="M1063.81,-70.53C1050.24,-73.99 1036.11,-77.6 1022.9,-80.97"/>
<polygon fill="#63b8ff" stroke="#63b8ff" points="1064.74,-73.9 1073.57,-68.04 1063.01,-67.12 1064.74,-73.9"/>
</a>
</g>
</g>
<!-- Node5 -->
<g id="Node000005" class="node">
<title>Node5</title>
<g id="a_Node000005"><a xlink:href="classAP__OABendyRuler.html#a6fe72ae69038f528624b435f9dedae4b" target="_top" xlink:title=" ">
<polygon fill="white" stroke="#666666" points="858,-78 715,-78 715,-48 858,-48 858,-78"/>
<text text-anchor="start" x="723" y="-66" font-family="Helvetica,sans-Serif" font-size="10.00">AP_OABendyRuler::search</text>
<text text-anchor="middle" x="786.5" y="-55" font-family="Helvetica,sans-Serif" font-size="10.00">_xy_path</text>
</a>
</g>
</g>
<!-- Node3&#45;&gt;Node5 -->
<g id="edge11_Node000003_Node000005" class="edge">
<title>Node3&#45;&gt;Node5</title>
<g id="a_edge11_Node000003_Node000005"><a xlink:title=" ">
<path fill="none" stroke="#63b8ff" d="M1057.56,-55.17C998.29,-56.89 916.13,-59.27 858.04,-60.96"/>
<polygon fill="#63b8ff" stroke="#63b8ff" points="1057.71,-58.67 1067.61,-54.88 1057.51,-51.67 1057.71,-58.67"/>
</a>
</g>
</g>
<!-- Node10 -->
<g id="Node000010" class="node">
<title>Node10</title>
<g id="a_Node000010"><a xlink:href="classAP__OABendyRuler.html#ad530c6cf0764579e68c63338d89d5e17" target="_top" xlink:title=" ">
<polygon fill="white" stroke="#666666" points="858,-30 715,-30 715,0 858,0 858,-30"/>
<text text-anchor="start" x="723" y="-18" font-family="Helvetica,sans-Serif" font-size="10.00">AP_OABendyRuler::search</text>
<text text-anchor="middle" x="786.5" y="-7" font-family="Helvetica,sans-Serif" font-size="10.00">_vertical_path</text>
</a>
</g>
</g>
<!-- Node3&#45;&gt;Node10 -->
<g id="edge9_Node000003_Node000010" class="edge">
<title>Node3&#45;&gt;Node10</title>
<g id="a_edge9_Node000003_Node000010"><a xlink:title=" ">
<path fill="none" stroke="#63b8ff" d="M1057.56,-44.75C998.29,-38.22 916.13,-29.17 858.04,-22.77"/>
<polygon fill="#63b8ff" stroke="#63b8ff" points="1057.29,-48.24 1067.61,-45.85 1058.05,-41.28 1057.29,-48.24"/>
</a>
</g>
</g>
<!-- Node4&#45;&gt;Node5 -->
<g id="edge4_Node000004_Node000005" class="edge">
<title>Node4&#45;&gt;Node5</title>
<g id="a_edge4_Node000004_Node000005"><a xlink:title=" ">
<path fill="none" stroke="#63b8ff" d="M883.85,-81.22C875.33,-79.61 866.69,-77.97 858.26,-76.38"/>
<polygon fill="#63b8ff" stroke="#63b8ff" points="883.31,-84.68 893.78,-83.1 884.61,-77.8 883.31,-84.68"/>
</a>
</g>
</g>
<!-- Node6 -->
<g id="Node000006" class="node">
<title>Node6</title>
<g id="a_Node000006"><a xlink:href="classAP__OABendyRuler.html#a4a4d1deb2dc2e96dec249db7af234248" target="_top" xlink:title=" ">
<polygon fill="white" stroke="#666666" points="679,-48.5 534,-48.5 534,-29.5 679,-29.5 679,-48.5"/>
<text text-anchor="middle" x="606.5" y="-36.5" font-family="Helvetica,sans-Serif" font-size="10.00">AP_OABendyRuler::update</text>
</a>
</g>
</g>
<!-- Node5&#45;&gt;Node6 -->
<g id="edge5_Node000005_Node000006" class="edge">
<title>Node5&#45;&gt;Node6</title>
<g id="a_edge5_Node000005_Node000006"><a xlink:title=" ">
<path fill="none" stroke="#63b8ff" d="M704.85,-52.13C695.9,-50.92 686.83,-49.7 678.02,-48.51"/>
<polygon fill="#63b8ff" stroke="#63b8ff" points="704.52,-55.61 714.89,-53.48 705.45,-48.68 704.52,-55.61"/>
</a>
</g>
</g>
<!-- Node7 -->
<g id="Node000007" class="node">
<title>Node7</title>
<g id="a_Node000007"><a xlink:href="classAP__OAPathPlanner.html#ace6c764d50b35454e6c82d6475ad9c1c" target="_top" xlink:title=" ">
<polygon fill="white" stroke="#666666" points="498,-54 335,-54 335,-24 498,-24 498,-54"/>
<text text-anchor="start" x="343" y="-42" font-family="Helvetica,sans-Serif" font-size="10.00">AP_OAPathPlanner::avoidance</text>
<text text-anchor="middle" x="416.5" y="-31" font-family="Helvetica,sans-Serif" font-size="10.00">_thread</text>
</a>
</g>
</g>
<!-- Node6&#45;&gt;Node7 -->
<g id="edge6_Node000006_Node000007" class="edge">
<title>Node6&#45;&gt;Node7</title>
<g id="a_edge6_Node000006_Node000007"><a xlink:title=" ">
<path fill="none" stroke="#63b8ff" d="M523.62,-39C515.12,-39 506.5,-39 498.02,-39"/>
<polygon fill="#63b8ff" stroke="#63b8ff" points="523.89,-42.5 533.89,-39 523.89,-35.5 523.89,-42.5"/>
</a>
</g>
</g>
<!-- Node8 -->
<g id="Node000008" class="node">
<title>Node8</title>
<g id="a_Node000008"><a xlink:href="classAP__OAPathPlanner.html#a8c10095323c94776081329dfa25a481c" target="_top" xlink:title=" ">
<polygon fill="white" stroke="#666666" points="299,-54 164,-54 164,-24 299,-24 299,-54"/>
<text text-anchor="start" x="172" y="-42" font-family="Helvetica,sans-Serif" font-size="10.00">AP_OAPathPlanner::start</text>
<text text-anchor="middle" x="231.5" y="-31" font-family="Helvetica,sans-Serif" font-size="10.00">_thread</text>
</a>
</g>
</g>
<!-- Node7&#45;&gt;Node8 -->
<g id="edge7_Node000007_Node000008" class="edge">
<title>Node7&#45;&gt;Node8</title>
<g id="a_edge7_Node000007_Node000008"><a xlink:title=" ">
<path fill="none" stroke="#63b8ff" d="M324.81,-39C316.14,-39 307.46,-39 299.08,-39"/>
<polygon fill="#63b8ff" stroke="#63b8ff" points="324.97,-42.5 334.97,-39 324.97,-35.5 324.97,-42.5"/>
</a>
</g>
</g>
<!-- Node9 -->
<g id="Node000009" class="node">
<title>Node9</title>
<g id="a_Node000009"><a xlink:href="classAP__OAPathPlanner.html#a2d0d97f5da85b5857d55486dfabe9f55" target="_top" xlink:title=" ">
<polygon fill="white" stroke="#666666" points="128,-48.5 0,-48.5 0,-29.5 128,-29.5 128,-48.5"/>
<text text-anchor="middle" x="64" y="-36.5" font-family="Helvetica,sans-Serif" font-size="10.00">AP_OAPathPlanner::init</text>
</a>
</g>
</g>
<!-- Node8&#45;&gt;Node9 -->
<g id="edge8_Node000008_Node000009" class="edge">
<title>Node8&#45;&gt;Node9</title>
<g id="a_edge8_Node000008_Node000009"><a xlink:title=" ">
<path fill="none" stroke="#63b8ff" d="M153.38,-39C144.9,-39 136.35,-39 128.07,-39"/>
<polygon fill="#63b8ff" stroke="#63b8ff" points="153.66,-42.5 163.66,-39 153.66,-35.5 153.66,-42.5"/>
</a>
</g>
</g>
<!-- Node10&#45;&gt;Node6 -->
<g id="edge10_Node000010_Node000006" class="edge">
<title>Node10&#45;&gt;Node6</title>
<g id="a_edge10_Node000010_Node000006"><a xlink:title=" ">
<path fill="none" stroke="#63b8ff" d="M704.85,-25.87C695.9,-27.08 686.83,-28.3 678.02,-29.49"/>
<polygon fill="#63b8ff" stroke="#63b8ff" points="705.45,-29.32 714.89,-24.52 704.52,-22.39 705.45,-29.32"/>
</a>
</g>
</g>
</g>
</svg>

<g id="navigator" transform="translate(0 0)" fill="#404254">
  <rect fill="#f2f5e9" fill-opacity="0.5" stroke="#606060" stroke-width=".5" x="0" y="0" width="60" height="60"/>
  <use id="zoomplus" xlink:href="#zoomPlus" x="17" y="9" onmousedown="handleZoom(evt,'in')"/>
  <use id="zoomminus" xlink:href="#zoomMin" x="42" y="9" onmousedown="handleZoom(evt,'out')"/>
  <use id="reset" xlink:href="#resetDef" x="30" y="36" onmousedown="handleReset()"/>
   <use id="arrowup" xlink:href="#arrowUp" x="0" y="0" onmousedown="handlePan(0,-1)"/>
  <use id="arrowright" xlink:href="#arrowRight" x="0" y="0" onmousedown="handlePan(1,0)"/>
  <use id="arrowdown" xlink:href="#arrowDown" x="0" y="0" onmousedown="handlePan(0,1)"/>
  <use id="arrowleft" xlink:href="#arrowLeft" x="0" y="0" onmousedown="handlePan(-1,0)"/>
</g>
<svg viewBox="0 0 15 15" width="100%" height="30px" preserveAspectRatio="xMaxYMin meet">
 <g id="arrow_out" transform="scale(0.3 0.3)">
  <a xlink:href="polygon_8cpp_a675d783879e9e04e3defdbbf7e77531e_icgraph_org.svg" target="_base">
   <rect id="button" ry="5" rx="5" y="6" x="6" height="38" width="38"
        fill="#f2f5e9" fill-opacity="0.5" stroke="#606060" stroke-width="1.0"/>
   <path id="arrow"
     d="M 11.500037,31.436501 C 11.940474,20.09759 22.043105,11.32322 32.158766,21.979434 L 37.068811,17.246167 C 37.068811,17.246167 37.088388,32 37.088388,32 L 22.160133,31.978069 C 22.160133,31.978069 26.997745,27.140456 26.997745,27.140456 C 18.528582,18.264221 13.291696,25.230495 11.500037,31.436501 z"
     style="fill:#404040;"/>
  </a>
 </g>
</svg>

<style type='text/css'>
<![CDATA[
[data-mouse-over-selected='false'] { opacity: 0.7; }
[data-mouse-over-selected='true']  { opacity: 1.0; }
]]>
</style>
<script type="application/ecmascript"><![CDATA[
document.addEventListener('DOMContentLoaded', (event) => {
  highlightEdges();
  highlightAdjacentNodes();
});
]]></script>
</svg>
