<?xml version="1.0" encoding="UTF-8" standalone="no"?>
<!DOCTYPE svg PUBLIC "-//W3C//DTD SVG 1.1//EN"
 "http://www.w3.org/Graphics/SVG/1.1/DTD/svg11.dtd">
<!-- Generated by graphviz version 2.43.0 (0)
 -->
<!-- Title: Polygon_complete Pages: 1 -->
<!--zoomable 458 -->

<svg id="main" version="1.1" xmlns="http://www.w3.org/2000/svg" xmlns:xlink="http://www.w3.org/1999/xlink" xml:space="preserve" onload="init(evt)">
<style type="text/css"><![CDATA[
.node, .edge {opacity: 0.7;}
.node.selected, .edge.selected {opacity: 1;}
.edge:hover path { stroke: red; }
.edge:hover polygon { stroke: red; fill: red; }
]]></style>

<defs>
  <circle id="rim" cx="0" cy="0" r="7"/>
  <circle id="rim2" cx="0" cy="0" r="3.5"/>
  <g id="zoomPlus">
    <use xlink:href="#rim" fill="#404040"><set attributeName="fill" to="#808080" begin="zoomplus.mouseover" end="zoomplus.mouseout"/></use>
    <path d="M-4,0h8M0,-4v8" fill="none" stroke="white" stroke-width="1.5" pointer-events="none"/>
  </g>
  <g id="zoomMin">
    <use xlink:href="#rim" fill="#404040"><set attributeName="fill" to="#808080" begin="zoomminus.mouseover" end="zoomminus.mouseout"/></use>
    <path d="M-4,0h8" fill="none" stroke="white" stroke-width="1.5" pointer-events="none"/>
  </g>
  <g id="arrowUp" transform="translate(30 24)">
    <use xlink:href="#rim"/>
    <path pointer-events="none" fill="none" stroke="white" stroke-width="1.5" d="M0,-3.0v7 M-2.5,-0.5L0,-3.0L2.5,-0.5"/>
  </g>
  <g id="arrowRight" transform="rotate(90) translate(36 -43)">
    <use xlink:href="#rim"/>
    <path pointer-events="none" fill="none" stroke="white" stroke-width="1.5" d="M0,-3.0v7 M-2.5,-0.5L0,-3.0L2.5,-0.5"/>
  </g>
  <g id="arrowDown" transform="rotate(180) translate(-30 -48)">
    <use xlink:href="#rim"/>
    <path pointer-events="none" fill="none" stroke="white" stroke-width="1.5" d="M0,-3.0v7 M-2.5,-0.5L0,-3.0L2.5,-0.5"/>
  </g>
  <g id="arrowLeft" transform="rotate(270) translate(-36 17)">
    <use xlink:href="#rim"/>
    <path pointer-events="none" fill="none" stroke="white" stroke-width="1.5" d="M0,-3.0v7 M-2.5,-0.5L0,-3.0L2.5,-0.5"/>
  </g>
  <g id="resetDef">
    <use xlink:href="#rim2" fill="#404040"><set attributeName="fill" to="#808080" begin="reset.mouseover" end="reset.mouseout"/></use>
  </g>
</defs>
<script type="application/ecmascript">
var viewWidth = 1873;
var viewHeight = 458;
var sectionId = 'dynsection-4';
</script>
<script type="application/ecmascript" xlink:href="svg.min.js"/>
<svg id="graph" class="graph">
<g id="viewport">
<title>Polygon_complete</title>
<!-- Node1 -->
<g id="Node000001" class="node">
<title>Node1</title>
<g id="a_Node000001"><a xlink:title=" ">
<polygon fill="#999999" stroke="#666666" points="1865,-401 1758,-401 1758,-382 1865,-382 1865,-401"/>
<text text-anchor="middle" x="1811.5" y="-389" font-family="Helvetica,sans-Serif" font-size="10.00">Polygon_complete</text>
</a>
</g>
</g>
<!-- Node2 -->
<g id="Node000002" class="node">
<title>Node2</title>
<g id="a_Node000002"><a xlink:href="polygon_8cpp.html#ab65fdc43607ecbfabdc130167ee40c91" target="_top" xlink:title=" ">
<polygon fill="white" stroke="#666666" points="1722,-439 1613,-439 1613,-420 1722,-420 1722,-439"/>
<text text-anchor="middle" x="1667.5" y="-427" font-family="Helvetica,sans-Serif" font-size="10.00">Polygon_intersects</text>
</a>
</g>
</g>
<!-- Node1&#45;&gt;Node2 -->
<g id="edge1_Node000001_Node000002" class="edge">
<title>Node1&#45;&gt;Node2</title>
<g id="a_edge1_Node000001_Node000002"><a xlink:title=" ">
<path fill="none" stroke="#63b8ff" d="M1765.01,-403.67C1745.37,-408.93 1722.73,-414.99 1704.32,-419.91"/>
<polygon fill="#63b8ff" stroke="#63b8ff" points="1765.91,-407.06 1774.67,-401.09 1764.1,-400.29 1765.91,-407.06"/>
</a>
</g>
</g>
<!-- Node13 -->
<g id="Node000013" class="node">
<title>Node13</title>
<g id="a_Node000013"><a xlink:href="polygon_8cpp.html#a69c7755ab39f2ede645c4542b3aed07c" target="_top" xlink:title=" ">
<polygon fill="white" stroke="#666666" points="1716,-223 1619,-223 1619,-204 1716,-204 1716,-223"/>
<text text-anchor="middle" x="1667.5" y="-211" font-family="Helvetica,sans-Serif" font-size="10.00">Polygon_outside</text>
</a>
</g>
</g>
<!-- Node1&#45;&gt;Node13 -->
<g id="edge14_Node000001_Node000013" class="edge">
<title>Node1&#45;&gt;Node13</title>
<g id="a_edge14_Node000001_Node000013"><a xlink:title=" ">
<path fill="none" stroke="#63b8ff" d="M1796.55,-374.01C1767.02,-337 1699.05,-251.79 1676.17,-223.12"/>
<polygon fill="#63b8ff" stroke="#63b8ff" points="1793.89,-376.3 1802.87,-381.93 1799.37,-371.93 1793.89,-376.3"/>
</a>
</g>
</g>
<!-- Node15 -->
<g id="Node000015" class="node">
<title>Node15</title>
<g id="a_Node000015"><a xlink:href="examples_2polygon_2polygon_8cpp.html#a4fc01d736fe50cf5b977f755b675f11d" target="_top" xlink:title=" ">
<polygon fill="white" stroke="#666666" points="1516.5,-402 1472.5,-402 1472.5,-383 1516.5,-383 1516.5,-402"/>
<text text-anchor="middle" x="1494.5" y="-390" font-family="Helvetica,sans-Serif" font-size="10.00">setup</text>
</a>
</g>
</g>
<!-- Node1&#45;&gt;Node15 -->
<g id="edge26_Node000001_Node000015" class="edge">
<title>Node1&#45;&gt;Node15</title>
<g id="a_edge26_Node000001_Node000015"><a xlink:title=" ">
<path fill="none" stroke="#63b8ff" d="M1747.52,-391.7C1675.92,-391.93 1562.95,-392.29 1516.5,-392.43"/>
<polygon fill="#63b8ff" stroke="#63b8ff" points="1747.79,-395.2 1757.78,-391.67 1747.76,-388.2 1747.79,-395.2"/>
</a>
</g>
</g>
<!-- Node3 -->
<g id="Node000003" class="node">
<title>Node3</title>
<g id="a_Node000003"><a xlink:href="polygon_8cpp.html#a675d783879e9e04e3defdbbf7e77531e" target="_top" xlink:title=" ">
<polygon fill="white" stroke="#666666" points="1577,-439 1412,-439 1412,-420 1577,-420 1577,-439"/>
<text text-anchor="middle" x="1494.5" y="-427" font-family="Helvetica,sans-Serif" font-size="10.00">Polygon_closest_distance_line</text>
</a>
</g>
</g>
<!-- Node2&#45;&gt;Node3 -->
<g id="edge2_Node000002_Node000003" class="edge">
<title>Node2&#45;&gt;Node3</title>
<g id="a_edge2_Node000002_Node000003"><a xlink:title=" ">
<path fill="none" stroke="#63b8ff" d="M1602.81,-429.5C1594.44,-429.5 1585.76,-429.5 1577.13,-429.5"/>
<polygon fill="#63b8ff" stroke="#63b8ff" points="1602.86,-433 1612.86,-429.5 1602.86,-426 1602.86,-433"/>
</a>
</g>
</g>
<!-- Node4 -->
<g id="Node000004" class="node">
<title>Node4</title>
<g id="a_Node000004"><a xlink:href="classAP__OABendyRuler.html#adf62b862dffcf8fd3b37257be8153fe4" target="_top" xlink:title=" ">
<polygon fill="white" stroke="#666666" points="1376,-412 1235,-412 1235,-371 1376,-371 1376,-412"/>
<text text-anchor="start" x="1243" y="-400" font-family="Helvetica,sans-Serif" font-size="10.00">AP_OABendyRuler::calc</text>
<text text-anchor="start" x="1243" y="-389" font-family="Helvetica,sans-Serif" font-size="10.00">_margin_from_inclusion</text>
<text text-anchor="middle" x="1305.5" y="-378" font-family="Helvetica,sans-Serif" font-size="10.00">_and_exclusion_polygons</text>
</a>
</g>
</g>
<!-- Node3&#45;&gt;Node4 -->
<g id="edge3_Node000003_Node000004" class="edge">
<title>Node3&#45;&gt;Node4</title>
<g id="a_edge3_Node000003_Node000004"><a xlink:title=" ">
<path fill="none" stroke="#63b8ff" d="M1436.35,-417.89C1417.4,-414.04 1396.09,-409.71 1376.3,-405.68"/>
<polygon fill="#63b8ff" stroke="#63b8ff" points="1435.82,-421.35 1446.31,-419.91 1437.21,-414.49 1435.82,-421.35"/>
</a>
</g>
</g>
<!-- Node5 -->
<g id="Node000005" class="node">
<title>Node5</title>
<g id="a_Node000005"><a xlink:href="classAP__OABendyRuler.html#a9817efd6feb07dc029263bae5790a043" target="_top" xlink:title=" ">
<polygon fill="white" stroke="#666666" points="1199,-406.5 1068,-406.5 1068,-376.5 1199,-376.5 1199,-406.5"/>
<text text-anchor="start" x="1076" y="-394.5" font-family="Helvetica,sans-Serif" font-size="10.00">AP_OABendyRuler::calc</text>
<text text-anchor="middle" x="1133.5" y="-383.5" font-family="Helvetica,sans-Serif" font-size="10.00">_avoidance_margin</text>
</a>
</g>
</g>
<!-- Node4&#45;&gt;Node5 -->
<g id="edge4_Node000004_Node000005" class="edge">
<title>Node4&#45;&gt;Node5</title>
<g id="a_edge4_Node000004_Node000005"><a xlink:title=" ">
<path fill="none" stroke="#63b8ff" d="M1224.81,-391.5C1216.19,-391.5 1207.51,-391.5 1199.1,-391.5"/>
<polygon fill="#63b8ff" stroke="#63b8ff" points="1224.86,-395 1234.86,-391.5 1224.86,-388 1224.86,-395"/>
</a>
</g>
</g>
<!-- Node6 -->
<g id="Node000006" class="node">
<title>Node6</title>
<g id="a_Node000006"><a xlink:href="classAP__OABendyRuler.html#ad8506148d4d7d239dd83191049ca5d25" target="_top" xlink:title=" ">
<polygon fill="white" stroke="#666666" points="1032,-449.5 894,-449.5 894,-419.5 1032,-419.5 1032,-449.5"/>
<text text-anchor="start" x="902" y="-437.5" font-family="Helvetica,sans-Serif" font-size="10.00">AP_OABendyRuler::resist</text>
<text text-anchor="middle" x="963" y="-426.5" font-family="Helvetica,sans-Serif" font-size="10.00">_bearing_change</text>
</a>
</g>
</g>
<!-- Node5&#45;&gt;Node6 -->
<g id="edge5_Node000005_Node000006" class="edge">
<title>Node5&#45;&gt;Node6</title>
<g id="a_edge5_Node000005_Node000006"><a xlink:title=" ">
<path fill="none" stroke="#63b8ff" d="M1063.81,-409.03C1050.24,-412.49 1036.11,-416.1 1022.9,-419.47"/>
<polygon fill="#63b8ff" stroke="#63b8ff" points="1064.74,-412.4 1073.57,-406.54 1063.01,-405.62 1064.74,-412.4"/>
</a>
</g>
</g>
<!-- Node7 -->
<g id="Node000007" class="node">
<title>Node7</title>
<g id="a_Node000007"><a xlink:href="classAP__OABendyRuler.html#a6fe72ae69038f528624b435f9dedae4b" target="_top" xlink:title=" ">
<polygon fill="white" stroke="#666666" points="858,-416.5 715,-416.5 715,-386.5 858,-386.5 858,-416.5"/>
<text text-anchor="start" x="723" y="-404.5" font-family="Helvetica,sans-Serif" font-size="10.00">AP_OABendyRuler::search</text>
<text text-anchor="middle" x="786.5" y="-393.5" font-family="Helvetica,sans-Serif" font-size="10.00">_xy_path</text>
</a>
</g>
</g>
<!-- Node5&#45;&gt;Node7 -->
<g id="edge13_Node000005_Node000007" class="edge">
<title>Node5&#45;&gt;Node7</title>
<g id="a_edge13_Node000005_Node000007"><a xlink:title=" ">
<path fill="none" stroke="#63b8ff" d="M1057.56,-393.67C998.29,-395.39 916.13,-397.77 858.04,-399.46"/>
<polygon fill="#63b8ff" stroke="#63b8ff" points="1057.71,-397.17 1067.61,-393.38 1057.51,-390.17 1057.71,-397.17"/>
</a>
</g>
</g>
<!-- Node12 -->
<g id="Node000012" class="node">
<title>Node12</title>
<g id="a_Node000012"><a xlink:href="classAP__OABendyRuler.html#ad530c6cf0764579e68c63338d89d5e17" target="_top" xlink:title=" ">
<polygon fill="white" stroke="#666666" points="858,-368.5 715,-368.5 715,-338.5 858,-338.5 858,-368.5"/>
<text text-anchor="start" x="723" y="-356.5" font-family="Helvetica,sans-Serif" font-size="10.00">AP_OABendyRuler::search</text>
<text text-anchor="middle" x="786.5" y="-345.5" font-family="Helvetica,sans-Serif" font-size="10.00">_vertical_path</text>
</a>
</g>
</g>
<!-- Node5&#45;&gt;Node12 -->
<g id="edge11_Node000005_Node000012" class="edge">
<title>Node5&#45;&gt;Node12</title>
<g id="a_edge11_Node000005_Node000012"><a xlink:title=" ">
<path fill="none" stroke="#63b8ff" d="M1057.56,-383.25C998.29,-376.72 916.13,-367.67 858.04,-361.27"/>
<polygon fill="#63b8ff" stroke="#63b8ff" points="1057.29,-386.74 1067.61,-384.35 1058.05,-379.78 1057.29,-386.74"/>
</a>
</g>
</g>
<!-- Node6&#45;&gt;Node7 -->
<g id="edge6_Node000006_Node000007" class="edge">
<title>Node6&#45;&gt;Node7</title>
<g id="a_edge6_Node000006_Node000007"><a xlink:title=" ">
<path fill="none" stroke="#63b8ff" d="M883.85,-419.72C875.33,-418.11 866.69,-416.47 858.26,-414.88"/>
<polygon fill="#63b8ff" stroke="#63b8ff" points="883.31,-423.18 893.78,-421.6 884.61,-416.3 883.31,-423.18"/>
</a>
</g>
</g>
<!-- Node8 -->
<g id="Node000008" class="node">
<title>Node8</title>
<g id="a_Node000008"><a xlink:href="classAP__OABendyRuler.html#a4a4d1deb2dc2e96dec249db7af234248" target="_top" xlink:title=" ">
<polygon fill="white" stroke="#666666" points="679,-387 534,-387 534,-368 679,-368 679,-387"/>
<text text-anchor="middle" x="606.5" y="-375" font-family="Helvetica,sans-Serif" font-size="10.00">AP_OABendyRuler::update</text>
</a>
</g>
</g>
<!-- Node7&#45;&gt;Node8 -->
<g id="edge7_Node000007_Node000008" class="edge">
<title>Node7&#45;&gt;Node8</title>
<g id="a_edge7_Node000007_Node000008"><a xlink:title=" ">
<path fill="none" stroke="#63b8ff" d="M704.85,-390.63C695.9,-389.42 686.83,-388.2 678.02,-387.01"/>
<polygon fill="#63b8ff" stroke="#63b8ff" points="704.52,-394.11 714.89,-391.98 705.45,-387.18 704.52,-394.11"/>
</a>
</g>
</g>
<!-- Node9 -->
<g id="Node000009" class="node">
<title>Node9</title>
<g id="a_Node000009"><a xlink:href="classAP__OAPathPlanner.html#ace6c764d50b35454e6c82d6475ad9c1c" target="_top" xlink:title=" ">
<polygon fill="white" stroke="#666666" points="498,-392.5 335,-392.5 335,-362.5 498,-362.5 498,-392.5"/>
<text text-anchor="start" x="343" y="-380.5" font-family="Helvetica,sans-Serif" font-size="10.00">AP_OAPathPlanner::avoidance</text>
<text text-anchor="middle" x="416.5" y="-369.5" font-family="Helvetica,sans-Serif" font-size="10.00">_thread</text>
</a>
</g>
</g>
<!-- Node8&#45;&gt;Node9 -->
<g id="edge8_Node000008_Node000009" class="edge">
<title>Node8&#45;&gt;Node9</title>
<g id="a_edge8_Node000008_Node000009"><a xlink:title=" ">
<path fill="none" stroke="#63b8ff" d="M523.62,-377.5C515.12,-377.5 506.5,-377.5 498.02,-377.5"/>
<polygon fill="#63b8ff" stroke="#63b8ff" points="523.89,-381 533.89,-377.5 523.89,-374 523.89,-381"/>
</a>
</g>
</g>
<!-- Node10 -->
<g id="Node000010" class="node">
<title>Node10</title>
<g id="a_Node000010"><a xlink:href="classAP__OAPathPlanner.html#a8c10095323c94776081329dfa25a481c" target="_top" xlink:title=" ">
<polygon fill="white" stroke="#666666" points="299,-392.5 164,-392.5 164,-362.5 299,-362.5 299,-392.5"/>
<text text-anchor="start" x="172" y="-380.5" font-family="Helvetica,sans-Serif" font-size="10.00">AP_OAPathPlanner::start</text>
<text text-anchor="middle" x="231.5" y="-369.5" font-family="Helvetica,sans-Serif" font-size="10.00">_thread</text>
</a>
</g>
</g>
<!-- Node9&#45;&gt;Node10 -->
<g id="edge9_Node000009_Node000010" class="edge">
<title>Node9&#45;&gt;Node10</title>
<g id="a_edge9_Node000009_Node000010"><a xlink:title=" ">
<path fill="none" stroke="#63b8ff" d="M324.81,-377.5C316.14,-377.5 307.46,-377.5 299.08,-377.5"/>
<polygon fill="#63b8ff" stroke="#63b8ff" points="324.97,-381 334.97,-377.5 324.97,-374 324.97,-381"/>
</a>
</g>
</g>
<!-- Node11 -->
<g id="Node000011" class="node">
<title>Node11</title>
<g id="a_Node000011"><a xlink:href="classAP__OAPathPlanner.html#a2d0d97f5da85b5857d55486dfabe9f55" target="_top" xlink:title=" ">
<polygon fill="white" stroke="#666666" points="128,-387 0,-387 0,-368 128,-368 128,-387"/>
<text text-anchor="middle" x="64" y="-375" font-family="Helvetica,sans-Serif" font-size="10.00">AP_OAPathPlanner::init</text>
</a>
</g>
</g>
<!-- Node10&#45;&gt;Node11 -->
<g id="edge10_Node000010_Node000011" class="edge">
<title>Node10&#45;&gt;Node11</title>
<g id="a_edge10_Node000010_Node000011"><a xlink:title=" ">
<path fill="none" stroke="#63b8ff" d="M153.38,-377.5C144.9,-377.5 136.35,-377.5 128.07,-377.5"/>
<polygon fill="#63b8ff" stroke="#63b8ff" points="153.66,-381 163.66,-377.5 153.66,-374 153.66,-381"/>
</a>
</g>
</g>
<!-- Node12&#45;&gt;Node8 -->
<g id="edge12_Node000012_Node000008" class="edge">
<title>Node12&#45;&gt;Node8</title>
<g id="a_edge12_Node000012_Node000008"><a xlink:title=" ">
<path fill="none" stroke="#63b8ff" d="M704.85,-364.37C695.9,-365.58 686.83,-366.8 678.02,-367.99"/>
<polygon fill="#63b8ff" stroke="#63b8ff" points="705.45,-367.82 714.89,-363.02 704.52,-360.89 705.45,-367.82"/>
</a>
</g>
</g>
<!-- Node13&#45;&gt;Node4 -->
<g id="edge16_Node000013_Node000004" class="edge">
<title>Node13&#45;&gt;Node4</title>
<g id="a_edge16_Node000013_Node000004"><a xlink:title=" ">
<path fill="none" stroke="#63b8ff" d="M1658.04,-232.61C1644.87,-260.01 1616.78,-309.94 1577,-335.5 1560.18,-346.31 1450.5,-366.79 1376.08,-379.77"/>
<polygon fill="#63b8ff" stroke="#63b8ff" points="1661.32,-233.86 1662.35,-223.32 1654.97,-230.92 1661.32,-233.86"/>
</a>
</g>
</g>
<!-- Node14 -->
<g id="Node000014" class="node">
<title>Node14</title>
<g id="a_Node000014"><a xlink:href="classAC__Avoid.html#a0f0a00436da75c98c082ae60eab8fb21" target="_top" xlink:title=" ">
<polygon fill="white" stroke="#666666" points="1566,-326.5 1423,-326.5 1423,-296.5 1566,-296.5 1566,-326.5"/>
<text text-anchor="start" x="1431" y="-314.5" font-family="Helvetica,sans-Serif" font-size="10.00">AC_Avoid::adjust_velocity</text>
<text text-anchor="middle" x="1494.5" y="-303.5" font-family="Helvetica,sans-Serif" font-size="10.00">_polygon</text>
</a>
</g>
</g>
<!-- Node13&#45;&gt;Node14 -->
<g id="edge15_Node000013_Node000014" class="edge">
<title>Node13&#45;&gt;Node14</title>
<g id="a_edge15_Node000013_Node000014"><a xlink:title=" ">
<path fill="none" stroke="#63b8ff" d="M1649.52,-230.8C1632.53,-247.22 1604.96,-271.55 1577,-286.5 1569.95,-290.27 1562.25,-293.56 1554.49,-296.41"/>
<polygon fill="#63b8ff" stroke="#63b8ff" points="1652.31,-232.96 1656.96,-223.45 1647.39,-227.98 1652.31,-232.96"/>
</a>
</g>
</g>
<!-- Node13&#45;&gt;Node15 -->
<g id="edge17_Node000013_Node000015" class="edge">
<title>Node13&#45;&gt;Node15</title>
<g id="a_edge17_Node000013_Node000015"><a xlink:title=" ">
<path fill="none" stroke="#63b8ff" d="M1660.59,-232.97C1649.59,-265.87 1622.85,-332.41 1577,-368.5 1559.5,-382.27 1534.29,-388.15 1516.55,-390.65"/>
<polygon fill="#63b8ff" stroke="#63b8ff" points="1664,-233.78 1663.72,-223.19 1657.34,-231.65 1664,-233.78"/>
</a>
</g>
</g>
<!-- Node16 -->
<g id="Node000016" class="node">
<title>Node16</title>
<g id="a_Node000016"><a xlink:href="test__polygon_8cpp.html#a052238393e7634003dc1f1ab1544414e" target="_top" xlink:title=" ">
<polygon fill="white" stroke="#666666" points="1515,-278 1474,-278 1474,-259 1515,-259 1515,-278"/>
<text text-anchor="middle" x="1494.5" y="-266" font-family="Helvetica,sans-Serif" font-size="10.00">TEST</text>
</a>
</g>
</g>
<!-- Node13&#45;&gt;Node16 -->
<g id="edge18_Node000013_Node000016" class="edge">
<title>Node13&#45;&gt;Node16</title>
<g id="a_edge18_Node000013_Node000016"><a xlink:title=" ">
<path fill="none" stroke="#63b8ff" d="M1636.02,-227.11C1618.91,-234.41 1597.03,-243.18 1577,-249.5 1556.22,-256.06 1531.81,-261.46 1515.16,-264.8"/>
<polygon fill="#63b8ff" stroke="#63b8ff" points="1637.71,-230.2 1645.5,-223.02 1634.93,-223.77 1637.71,-230.2"/>
</a>
</g>
</g>
<!-- Node17 -->
<g id="Node000017" class="node">
<title>Node17</title>
<g id="a_Node000017"><a xlink:href="test__polygon_8cpp.html#a5883f95232fcd036cf15cd4b09b938a9" target="_top" xlink:title=" ">
<polygon fill="white" stroke="#666666" points="1515,-241 1474,-241 1474,-222 1515,-222 1515,-241"/>
<text text-anchor="middle" x="1494.5" y="-229" font-family="Helvetica,sans-Serif" font-size="10.00">TEST</text>
</a>
</g>
</g>
<!-- Node13&#45;&gt;Node17 -->
<g id="edge19_Node000013_Node000017" class="edge">
<title>Node13&#45;&gt;Node17</title>
<g id="a_edge19_Node000013_Node000017"><a xlink:title=" ">
<path fill="none" stroke="#63b8ff" d="M1608.59,-219.6C1576.2,-223.01 1537.9,-227.04 1515.21,-229.43"/>
<polygon fill="#63b8ff" stroke="#63b8ff" points="1609.29,-223.04 1618.87,-218.51 1608.56,-216.08 1609.29,-223.04"/>
</a>
</g>
</g>
<!-- Node18 -->
<g id="Node000018" class="node">
<title>Node18</title>
<g id="a_Node000018"><a xlink:href="test__polygon_8cpp.html#a9351c15f55393346292086e3130149d3" target="_top" xlink:title=" ">
<polygon fill="white" stroke="#666666" points="1515,-204 1474,-204 1474,-185 1515,-185 1515,-204"/>
<text text-anchor="middle" x="1494.5" y="-192" font-family="Helvetica,sans-Serif" font-size="10.00">TEST</text>
</a>
</g>
</g>
<!-- Node13&#45;&gt;Node18 -->
<g id="edge20_Node000013_Node000018" class="edge">
<title>Node13&#45;&gt;Node18</title>
<g id="a_edge20_Node000013_Node000018"><a xlink:title=" ">
<path fill="none" stroke="#63b8ff" d="M1608.59,-207.07C1576.2,-203.47 1537.9,-199.21 1515.21,-196.69"/>
<polygon fill="#63b8ff" stroke="#63b8ff" points="1608.54,-210.58 1618.87,-208.21 1609.31,-203.62 1608.54,-210.58"/>
</a>
</g>
</g>
<!-- Node19 -->
<g id="Node000019" class="node">
<title>Node19</title>
<g id="a_Node000019"><a xlink:href="test__polygon_8cpp.html#a9b185e3f725371674b5a556192c36028" target="_top" xlink:title=" ">
<polygon fill="white" stroke="#666666" points="1515,-167 1474,-167 1474,-148 1515,-148 1515,-167"/>
<text text-anchor="middle" x="1494.5" y="-155" font-family="Helvetica,sans-Serif" font-size="10.00">TEST</text>
</a>
</g>
</g>
<!-- Node13&#45;&gt;Node19 -->
<g id="edge21_Node000013_Node000019" class="edge">
<title>Node13&#45;&gt;Node19</title>
<g id="a_edge21_Node000013_Node000019"><a xlink:title=" ">
<path fill="none" stroke="#63b8ff" d="M1637.48,-199.57C1620.21,-191.69 1597.7,-182.12 1577,-175.5 1556.3,-168.88 1531.87,-163.84 1515.2,-160.8"/>
<polygon fill="#63b8ff" stroke="#63b8ff" points="1636.45,-202.95 1646.99,-203.98 1639.39,-196.6 1636.45,-202.95"/>
</a>
</g>
</g>
<!-- Node20 -->
<g id="Node000020" class="node">
<title>Node20</title>
<g id="a_Node000020"><a xlink:href="test__polygon_8cpp.html#ad574ed5e43cb02698b57b3b51a1b92d1" target="_top" xlink:title=" ">
<polygon fill="white" stroke="#666666" points="1515,-130 1474,-130 1474,-111 1515,-111 1515,-130"/>
<text text-anchor="middle" x="1494.5" y="-118" font-family="Helvetica,sans-Serif" font-size="10.00">TEST</text>
</a>
</g>
</g>
<!-- Node13&#45;&gt;Node20 -->
<g id="edge22_Node000013_Node000020" class="edge">
<title>Node13&#45;&gt;Node20</title>
<g id="a_edge22_Node000013_Node000020"><a xlink:title=" ">
<path fill="none" stroke="#63b8ff" d="M1650.94,-196.32C1634.33,-179.04 1606.39,-152.96 1577,-138.5 1557.24,-128.77 1532.21,-124.25 1515.14,-122.18"/>
<polygon fill="#63b8ff" stroke="#63b8ff" points="1648.75,-199.1 1658.15,-204 1653.86,-194.31 1648.75,-199.1"/>
</a>
</g>
</g>
<!-- Node21 -->
<g id="Node000021" class="node">
<title>Node21</title>
<g id="a_Node000021"><a xlink:href="test__polygon_8cpp.html#a509e93c5444c9ab0927da845483bc026" target="_top" xlink:title=" ">
<polygon fill="white" stroke="#666666" points="1515,-93 1474,-93 1474,-74 1515,-74 1515,-93"/>
<text text-anchor="middle" x="1494.5" y="-81" font-family="Helvetica,sans-Serif" font-size="10.00">TEST</text>
</a>
</g>
</g>
<!-- Node13&#45;&gt;Node21 -->
<g id="edge23_Node000013_Node000021" class="edge">
<title>Node13&#45;&gt;Node21</title>
<g id="a_edge23_Node000013_Node000021"><a xlink:title=" ">
<path fill="none" stroke="#63b8ff" d="M1656.98,-194.93C1643.01,-169.64 1614.49,-124.85 1577,-101.5 1558.18,-89.78 1532.75,-85.64 1515.32,-84.21"/>
<polygon fill="#63b8ff" stroke="#63b8ff" points="1653.96,-196.71 1661.76,-203.87 1660.13,-193.41 1653.96,-196.71"/>
</a>
</g>
</g>
<!-- Node22 -->
<g id="Node000022" class="node">
<title>Node22</title>
<g id="a_Node000022"><a xlink:href="test__polygon_8cpp.html#a70111f0788368a75bb91c01a87cf97b6" target="_top" xlink:title=" ">
<polygon fill="white" stroke="#666666" points="1515,-56 1474,-56 1474,-37 1515,-37 1515,-56"/>
<text text-anchor="middle" x="1494.5" y="-44" font-family="Helvetica,sans-Serif" font-size="10.00">TEST</text>
</a>
</g>
</g>
<!-- Node13&#45;&gt;Node22 -->
<g id="edge24_Node000013_Node000022" class="edge">
<title>Node13&#45;&gt;Node22</title>
<g id="a_edge24_Node000013_Node000022"><a xlink:title=" ">
<path fill="none" stroke="#63b8ff" d="M1660.46,-193.98C1649.41,-161.68 1622.78,-97.43 1577,-64.5 1558.77,-51.38 1532.74,-47.55 1515.03,-46.57"/>
<polygon fill="#63b8ff" stroke="#63b8ff" points="1657.18,-195.2 1663.61,-203.62 1663.83,-193.02 1657.18,-195.2"/>
</a>
</g>
</g>
<!-- Node23 -->
<g id="Node000023" class="node">
<title>Node23</title>
<g id="a_Node000023"><a xlink:href="test__polygon_8cpp.html#a311dc3b3fe3f52d0716198a20759a439" target="_top" xlink:title=" ">
<polygon fill="white" stroke="#666666" points="1515,-19 1474,-19 1474,0 1515,0 1515,-19"/>
<text text-anchor="middle" x="1494.5" y="-7" font-family="Helvetica,sans-Serif" font-size="10.00">TEST</text>
</a>
</g>
</g>
<!-- Node13&#45;&gt;Node23 -->
<g id="edge25_Node000013_Node000023" class="edge">
<title>Node13&#45;&gt;Node23</title>
<g id="a_edge25_Node000013_Node000023"><a xlink:title=" ">
<path fill="none" stroke="#63b8ff" d="M1662.98,-194.11C1654.98,-155.9 1631.72,-70.84 1577,-27.5 1559.39,-13.56 1533.23,-9.9 1515.33,-9.18"/>
<polygon fill="#63b8ff" stroke="#63b8ff" points="1659.55,-194.83 1664.92,-203.97 1666.42,-193.48 1659.55,-194.83"/>
</a>
</g>
</g>
</g>
</svg>

<g id="navigator" transform="translate(0 0)" fill="#404254">
  <rect fill="#f2f5e9" fill-opacity="0.5" stroke="#606060" stroke-width=".5" x="0" y="0" width="60" height="60"/>
  <use id="zoomplus" xlink:href="#zoomPlus" x="17" y="9" onmousedown="handleZoom(evt,'in')"/>
  <use id="zoomminus" xlink:href="#zoomMin" x="42" y="9" onmousedown="handleZoom(evt,'out')"/>
  <use id="reset" xlink:href="#resetDef" x="30" y="36" onmousedown="handleReset()"/>
   <use id="arrowup" xlink:href="#arrowUp" x="0" y="0" onmousedown="handlePan(0,-1)"/>
  <use id="arrowright" xlink:href="#arrowRight" x="0" y="0" onmousedown="handlePan(1,0)"/>
  <use id="arrowdown" xlink:href="#arrowDown" x="0" y="0" onmousedown="handlePan(0,1)"/>
  <use id="arrowleft" xlink:href="#arrowLeft" x="0" y="0" onmousedown="handlePan(-1,0)"/>
</g>
<svg viewBox="0 0 15 15" width="100%" height="30px" preserveAspectRatio="xMaxYMin meet">
 <g id="arrow_out" transform="scale(0.3 0.3)">
  <a xlink:href="polygon_8cpp_a296ad0a1a7b2ee7ce09a49163781d7d7_icgraph_org.svg" target="_base">
   <rect id="button" ry="5" rx="5" y="6" x="6" height="38" width="38"
        fill="#f2f5e9" fill-opacity="0.5" stroke="#606060" stroke-width="1.0"/>
   <path id="arrow"
     d="M 11.500037,31.436501 C 11.940474,20.09759 22.043105,11.32322 32.158766,21.979434 L 37.068811,17.246167 C 37.068811,17.246167 37.088388,32 37.088388,32 L 22.160133,31.978069 C 22.160133,31.978069 26.997745,27.140456 26.997745,27.140456 C 18.528582,18.264221 13.291696,25.230495 11.500037,31.436501 z"
     style="fill:#404040;"/>
  </a>
 </g>
</svg>

<style type='text/css'>
<![CDATA[
[data-mouse-over-selected='false'] { opacity: 0.7; }
[data-mouse-over-selected='true']  { opacity: 1.0; }
]]>
</style>
<script type="application/ecmascript"><![CDATA[
document.addEventListener('DOMContentLoaded', (event) => {
  highlightEdges();
  highlightAdjacentNodes();
});
]]></script>
</svg>
