<?xml version="1.0" encoding="UTF-8" standalone="no"?>
<!DOCTYPE svg PUBLIC "-//W3C//DTD SVG 1.1//EN"
 "http://www.w3.org/Graphics/SVG/1.1/DTD/svg11.dtd">
<!-- Generated by graphviz version 2.43.0 (0)
 -->
<!-- Title: send_byte Pages: 1 -->
<svg width="1585pt" height="917pt"
 viewBox="0.00 0.00 1585.00 917.16" xmlns="http://www.w3.org/2000/svg" xmlns:xlink="http://www.w3.org/1999/xlink">
<g id="graph0" class="graph" transform="scale(1 1) rotate(0) translate(4 913.16)">
<title>send_byte</title>
<!-- Node1 -->
<g id="Node000001" class="node">
<title>Node1</title>
<g id="a_Node000001"><a xlink:title=" ">
<polygon fill="#999999" stroke="#666666" points="67,-241.5 0,-241.5 0,-222.5 67,-222.5 67,-241.5"/>
<text text-anchor="middle" x="33.5" y="-229.5" font-family="Helvetica,sans-Serif" font-size="10.00">send_byte</text>
</a>
</g>
</g>
<!-- Node2 -->
<g id="Node000002" class="node">
<title>Node2</title>
<g id="a_Node000002"><a xlink:href="crc_8cpp.html#ad7dc0dc56b07e77369a4f01e6273674c" target="_top" xlink:title=" ">
<polygon fill="white" stroke="#666666" points="154.5,-260.5 109.5,-260.5 109.5,-241.5 154.5,-241.5 154.5,-260.5"/>
<text text-anchor="middle" x="132" y="-248.5" font-family="Helvetica,sans-Serif" font-size="10.00">parity</text>
</a>
</g>
</g>
<!-- Node1&#45;&gt;Node2 -->
<g id="edge1_Node000001_Node000002" class="edge">
<title>Node1&#45;&gt;Node2</title>
<g id="a_edge1_Node000001_Node000002"><a xlink:title=" ">
<path fill="none" stroke="#63b8ff" d="M67.17,-238.43C77.59,-240.48 89.09,-242.75 99.43,-244.78"/>
<polygon fill="#63b8ff" stroke="#63b8ff" points="98.8,-248.23 109.29,-246.73 100.16,-241.36 98.8,-248.23"/>
</a>
</g>
</g>
<!-- Node3 -->
<g id="Node000003" class="node">
<title>Node3</title>
<g id="a_Node000003"><a xlink:href="RCProtocolTest_8cpp.html#a2b91e0de3a326431abbad0d3e240a852" target="_top" xlink:title=" ">
<polygon fill="white" stroke="#666666" points="161,-223.5 103,-223.5 103,-204.5 161,-204.5 161,-223.5"/>
<text text-anchor="middle" x="132" y="-211.5" font-family="Helvetica,sans-Serif" font-size="10.00">send_bit</text>
</a>
</g>
</g>
<!-- Node1&#45;&gt;Node3 -->
<g id="edge2_Node000001_Node000003" class="edge">
<title>Node1&#45;&gt;Node3</title>
<g id="a_edge2_Node000001_Node000003"><a xlink:title=" ">
<path fill="none" stroke="#63b8ff" d="M67.17,-225.91C75.41,-224.37 84.33,-222.7 92.82,-221.12"/>
<polygon fill="#63b8ff" stroke="#63b8ff" points="93.69,-224.52 102.88,-219.25 92.41,-217.64 93.69,-224.52"/>
</a>
</g>
</g>
<!-- Node4 -->
<g id="Node000004" class="node">
<title>Node4</title>
<g id="a_Node000004"><a xlink:href="classAP__RCProtocol.html#a3eeef44afd19163f56db5e59674559c8" target="_top" xlink:title=" ">
<polygon fill="white" stroke="#666666" points="328,-229 197,-229 197,-199 328,-199 328,-229"/>
<text text-anchor="start" x="205" y="-217" font-family="Helvetica,sans-Serif" font-size="10.00">AP_RCProtocol::process</text>
<text text-anchor="middle" x="262.5" y="-206" font-family="Helvetica,sans-Serif" font-size="10.00">_pulse</text>
</a>
</g>
</g>
<!-- Node3&#45;&gt;Node4 -->
<g id="edge3_Node000003_Node000004" class="edge">
<title>Node3&#45;&gt;Node4</title>
<g id="a_edge3_Node000003_Node000004"><a xlink:title=" ">
<path fill="none" stroke="#63b8ff" d="M161.2,-214C168.88,-214 177.57,-214 186.54,-214"/>
<polygon fill="#63b8ff" stroke="#63b8ff" points="186.76,-217.5 196.76,-214 186.76,-210.5 186.76,-217.5"/>
</a>
</g>
</g>
<!-- Node5 -->
<g id="Node000005" class="node">
<title>Node5</title>
<g id="a_Node000005"><a xlink:href="classRC__Channels.html#a0df669680ff2f5bffc131c09279b40c8" target="_top" xlink:title=" ">
<polygon fill="white" stroke="#666666" points="1027.5,-490 902.5,-490 902.5,-460 1027.5,-460 1027.5,-490"/>
<text text-anchor="start" x="910.5" y="-478" font-family="Helvetica,sans-Serif" font-size="10.00">RC_Channels::enabled</text>
<text text-anchor="middle" x="965" y="-467" font-family="Helvetica,sans-Serif" font-size="10.00">_protocols</text>
</a>
</g>
</g>
<!-- Node4&#45;&gt;Node5 -->
<g id="edge4_Node000004_Node000005" class="edge">
<title>Node4&#45;&gt;Node5</title>
<g id="a_edge4_Node000004_Node000005"><a xlink:title=" ">
<path fill="none" stroke="#63b8ff" d="M269.85,-229.32C283.39,-260.62 317.72,-332.9 364,-380 426.58,-443.67 448.22,-462.25 534,-487 656,-522.2 805.61,-505.35 892.35,-490.06"/>
<polygon fill="#63b8ff" stroke="#63b8ff" points="893.13,-493.48 902.35,-488.26 891.89,-486.59 893.13,-493.48"/>
</a>
</g>
</g>
<!-- Node6 -->
<g id="Node000006" class="node">
<title>Node6</title>
<g id="a_Node000006"><a xlink:href="classAP__RCProtocol__Backend.html#a3a26daa52afbbe107c03957a35b3f996" target="_top" xlink:title=" ">
<polygon fill="white" stroke="#666666" points="1032,-222 898,-222 898,-192 1032,-192 1032,-222"/>
<text text-anchor="start" x="906" y="-210" font-family="Helvetica,sans-Serif" font-size="10.00">AP_RCProtocol_Backend</text>
<text text-anchor="middle" x="965" y="-199" font-family="Helvetica,sans-Serif" font-size="10.00">::get_rc_frame_count</text>
</a>
</g>
</g>
<!-- Node4&#45;&gt;Node6 -->
<g id="edge5_Node000004_Node000006" class="edge">
<title>Node4&#45;&gt;Node6</title>
<g id="a_edge5_Node000004_Node000006"><a xlink:title=" ">
<path fill="none" stroke="#63b8ff" d="M328.15,-213.35C457.84,-212.06 749.2,-209.15 887.86,-207.76"/>
<polygon fill="#63b8ff" stroke="#63b8ff" points="888.02,-211.26 897.98,-207.66 887.95,-204.26 888.02,-211.26"/>
</a>
</g>
</g>
<!-- Node7 -->
<g id="Node000007" class="node">
<title>Node7</title>
<g id="a_Node000007"><a xlink:href="classAP__RCProtocol__Backend.html#a38bc819bb3340e16cd87c2a7d1707a40" target="_top" xlink:title=" ">
<polygon fill="white" stroke="#666666" points="1032,-174 898,-174 898,-144 1032,-144 1032,-174"/>
<text text-anchor="start" x="906" y="-162" font-family="Helvetica,sans-Serif" font-size="10.00">AP_RCProtocol_Backend</text>
<text text-anchor="middle" x="965" y="-151" font-family="Helvetica,sans-Serif" font-size="10.00">::get_rc_input_count</text>
</a>
</g>
</g>
<!-- Node4&#45;&gt;Node7 -->
<g id="edge6_Node000004_Node000007" class="edge">
<title>Node4&#45;&gt;Node7</title>
<g id="a_edge6_Node000004_Node000007"><a xlink:title=" ">
<path fill="none" stroke="#63b8ff" d="M328.15,-208.92C457.84,-198.74 749.2,-175.87 887.86,-164.98"/>
<polygon fill="#63b8ff" stroke="#63b8ff" points="888.29,-168.46 897.98,-164.18 887.74,-161.48 888.29,-168.46"/>
</a>
</g>
</g>
<!-- Node8 -->
<g id="Node000008" class="node">
<title>Node8</title>
<g id="a_Node000008"><a xlink:href="namespaceAP__HAL.html#a77dffbb18891996280308e21316ec186" target="_top" xlink:title=" ">
<polygon fill="white" stroke="#666666" points="1008.5,-393.5 921.5,-393.5 921.5,-374.5 1008.5,-374.5 1008.5,-393.5"/>
<text text-anchor="middle" x="965" y="-381.5" font-family="Helvetica,sans-Serif" font-size="10.00">AP_HAL::millis</text>
</a>
</g>
</g>
<!-- Node4&#45;&gt;Node8 -->
<g id="edge7_Node000004_Node000008" class="edge">
<title>Node4&#45;&gt;Node8</title>
<g id="a_edge7_Node000004_Node000008"><a xlink:title=" ">
<path fill="none" stroke="#63b8ff" d="M328.28,-228.94C438.22,-254.4 668.27,-308.22 862,-357 880.56,-361.67 900.96,-367.03 918.61,-371.73"/>
<polygon fill="#63b8ff" stroke="#63b8ff" points="918.09,-375.22 928.65,-374.42 919.89,-368.45 918.09,-375.22"/>
</a>
</g>
</g>
<!-- Node15 -->
<g id="Node000015" class="node">
<title>Node15</title>
<g id="a_Node000015"><a xlink:href="classAP__RCProtocol.html#ada38813f2671cced243422684aa4a22d" target="_top" xlink:title=" ">
<polygon fill="white" stroke="#666666" points="488,-371 374,-371 374,-341 488,-341 488,-371"/>
<text text-anchor="start" x="382" y="-359" font-family="Helvetica,sans-Serif" font-size="10.00">AP_RCProtocol::new</text>
<text text-anchor="middle" x="431" y="-348" font-family="Helvetica,sans-Serif" font-size="10.00">_input</text>
</a>
</g>
</g>
<!-- Node4&#45;&gt;Node15 -->
<g id="edge14_Node000004_Node000015" class="edge">
<title>Node4&#45;&gt;Node15</title>
<g id="a_edge14_Node000004_Node000015"><a xlink:title=" ">
<path fill="none" stroke="#63b8ff" d="M277.83,-229.06C296.75,-248.62 331.5,-283.42 364,-310 374.66,-318.72 386.91,-327.55 397.93,-335.11"/>
<polygon fill="#63b8ff" stroke="#63b8ff" points="396.21,-338.17 406.46,-340.87 400.13,-332.37 396.21,-338.17"/>
</a>
</g>
</g>
<!-- Node25 -->
<g id="Node000025" class="node">
<title>Node25</title>
<g id="a_Node000025"><a xlink:href="classAP__RCProtocol.html#ad5f3a4f2b764c46016508b5fa27daaef" target="_top" xlink:title=" ">
<polygon fill="white" stroke="#666666" points="1032,-126 898,-126 898,-96 1032,-96 1032,-126"/>
<text text-anchor="start" x="906" y="-114" font-family="Helvetica,sans-Serif" font-size="10.00">AP_RCProtocol::protocol</text>
<text text-anchor="middle" x="965" y="-103" font-family="Helvetica,sans-Serif" font-size="10.00">_enabled</text>
</a>
</g>
</g>
<!-- Node4&#45;&gt;Node25 -->
<g id="edge50_Node000004_Node000025" class="edge">
<title>Node4&#45;&gt;Node25</title>
<g id="a_edge50_Node000004_Node000025"><a xlink:title=" ">
<path fill="none" stroke="#63b8ff" d="M328.25,-199.77C340.11,-197.37 352.41,-195 364,-193 551.31,-160.67 773.3,-133.11 887.57,-119.7"/>
<polygon fill="#63b8ff" stroke="#63b8ff" points="888.1,-123.17 897.62,-118.53 887.28,-116.21 888.1,-123.17"/>
</a>
</g>
</g>
<!-- Node27 -->
<g id="Node000027" class="node">
<title>Node27</title>
<g id="a_Node000027"><a xlink:href="RC__Channels_8cpp.html#abe35aea6177a1cdf87a22af5c263bb89" target="_top" xlink:title=" ">
<polygon fill="white" stroke="#666666" points="1119.5,-673.5 1090.5,-673.5 1090.5,-654.5 1119.5,-654.5 1119.5,-673.5"/>
<text text-anchor="middle" x="1105" y="-661.5" font-family="Helvetica,sans-Serif" font-size="10.00">rc</text>
</a>
</g>
</g>
<!-- Node4&#45;&gt;Node27 -->
<g id="edge51_Node000004_Node000027" class="edge">
<title>Node4&#45;&gt;Node27</title>
<g id="a_edge51_Node000004_Node000027"><a xlink:title=" ">
<path fill="none" stroke="#63b8ff" d="M263.74,-229.11C266.17,-329.15 293.49,-892 600,-892 600,-892 600,-892 784,-892 894.55,-892 944.52,-940.58 1032,-873 1092.37,-826.36 1102.4,-726.14 1103.86,-683.67"/>
<polygon fill="#63b8ff" stroke="#63b8ff" points="1107.37,-683.6 1104.08,-673.53 1100.37,-683.45 1107.37,-683.6"/>
</a>
</g>
</g>
<!-- Node29 -->
<g id="Node000029" class="node">
<title>Node29</title>
<g id="a_Node000029"><a xlink:href="classAP__RCProtocol.html#afc47d0f1005d6a582baa25c6fd24cf9b" target="_top" xlink:title=" ">
<polygon fill="white" stroke="#666666" points="1032,-78 898,-78 898,-48 1032,-48 1032,-78"/>
<text text-anchor="start" x="906" y="-66" font-family="Helvetica,sans-Serif" font-size="10.00">AP_RCProtocol::requires</text>
<text text-anchor="middle" x="965" y="-55" font-family="Helvetica,sans-Serif" font-size="10.00">_3_frames</text>
</a>
</g>
</g>
<!-- Node4&#45;&gt;Node29 -->
<g id="edge52_Node000004_Node000029" class="edge">
<title>Node4&#45;&gt;Node29</title>
<g id="a_edge52_Node000004_Node000029"><a xlink:title=" ">
<path fill="none" stroke="#63b8ff" d="M292.23,-198.85C311.94,-189.04 338.96,-176.69 364,-169 460.92,-139.24 749.14,-94.61 887.81,-74.07"/>
<polygon fill="#63b8ff" stroke="#63b8ff" points="888.55,-77.5 897.93,-72.57 887.53,-70.57 888.55,-77.5"/>
</a>
</g>
</g>
<!-- Node30 -->
<g id="Node000030" class="node">
<title>Node30</title>
<g id="a_Node000030"><a xlink:href="classAP__RCProtocol__Backend.html#a782b453cf08a9e5f91bf9c04c312c238" target="_top" xlink:title=" ">
<polygon fill="white" stroke="#666666" points="1032,-30 898,-30 898,0 1032,0 1032,-30"/>
<text text-anchor="start" x="906" y="-18" font-family="Helvetica,sans-Serif" font-size="10.00">AP_RCProtocol_Backend</text>
<text text-anchor="middle" x="965" y="-7" font-family="Helvetica,sans-Serif" font-size="10.00">::reset_rc_frame_count</text>
</a>
</g>
</g>
<!-- Node4&#45;&gt;Node30 -->
<g id="edge53_Node000004_Node000030" class="edge">
<title>Node4&#45;&gt;Node30</title>
<g id="a_edge53_Node000004_Node000030"><a xlink:title=" ">
<path fill="none" stroke="#63b8ff" d="M278.35,-198.8C296.75,-180.9 329.86,-151.64 364,-136 540.31,-55.25 770.15,-28.14 887.61,-19.23"/>
<polygon fill="#63b8ff" stroke="#63b8ff" points="888.22,-22.69 897.93,-18.47 887.7,-15.71 888.22,-22.69"/>
</a>
</g>
</g>
<!-- Node31 -->
<g id="Node000031" class="node">
<title>Node31</title>
<g id="a_Node000031"><a xlink:href="classAP__RCProtocol.html#ab2663ee24a00da6fcb3f0f4ef2d88e4b" target="_top" xlink:title=" ">
<polygon fill="white" stroke="#666666" points="1028,-538 902,-538 902,-508 1028,-508 1028,-538"/>
<text text-anchor="start" x="910" y="-526" font-family="Helvetica,sans-Serif" font-size="10.00">AP_RCProtocol::should</text>
<text text-anchor="middle" x="965" y="-515" font-family="Helvetica,sans-Serif" font-size="10.00">_search</text>
</a>
</g>
</g>
<!-- Node4&#45;&gt;Node31 -->
<g id="edge54_Node000004_Node000031" class="edge">
<title>Node4&#45;&gt;Node31</title>
<g id="a_edge54_Node000004_Node000031"><a xlink:title=" ">
<path fill="none" stroke="#63b8ff" d="M266.07,-229.01C273.7,-269.05 299.75,-379.63 364,-442 506.63,-580.47 766,-558.55 891.76,-537.65"/>
<polygon fill="#63b8ff" stroke="#63b8ff" points="892.41,-541.09 901.68,-535.96 891.24,-534.19 892.41,-541.09"/>
</a>
</g>
</g>
<!-- Node37 -->
<g id="Node000037" class="node">
<title>Node37</title>
<g id="a_Node000037"><a xlink:href="classAP__RCProtocol__Backend.html#a7c3dddd81b5de9bd6b28f0d6bb062917" target="_top" xlink:title=" ">
<polygon fill="white" stroke="#666666" points="498,-34 364,-34 364,-4 498,-4 498,-34"/>
<text text-anchor="start" x="372" y="-22" font-family="Helvetica,sans-Serif" font-size="10.00">AP_RCProtocol_Backend</text>
<text text-anchor="middle" x="431" y="-11" font-family="Helvetica,sans-Serif" font-size="10.00">::process_pulse</text>
</a>
</g>
</g>
<!-- Node4&#45;&gt;Node37 -->
<g id="edge49_Node000004_Node000037" class="edge">
<title>Node4&#45;&gt;Node37</title>
<g id="a_edge49_Node000004_Node000037"><a xlink:title=" ">
<path fill="none" stroke="#63b8ff" d="M269.1,-198.59C281.49,-166.48 314.11,-91.77 364,-48 367.84,-44.63 372.14,-41.6 376.64,-38.88"/>
<polygon fill="#63b8ff" stroke="#63b8ff" points="378.41,-41.9 385.5,-34.04 375.05,-35.76 378.41,-41.9"/>
</a>
</g>
</g>
<!-- Node9 -->
<g id="Node000009" class="node">
<title>Node9</title>
<g id="a_Node000009"><a xlink:href="hrt_8c.html#a1295f128f60d29874243b5733c4db025" target="_top" xlink:title=" ">
<polygon fill="white" stroke="#666666" points="1142,-393.5 1068,-393.5 1068,-374.5 1142,-374.5 1142,-393.5"/>
<text text-anchor="middle" x="1105" y="-381.5" font-family="Helvetica,sans-Serif" font-size="10.00">hrt_millis32</text>
</a>
</g>
</g>
<!-- Node8&#45;&gt;Node9 -->
<g id="edge8_Node000008_Node000009" class="edge">
<title>Node8&#45;&gt;Node9</title>
<g id="a_edge8_Node000008_Node000009"><a xlink:title=" ">
<path fill="none" stroke="#63b8ff" d="M1008.53,-384C1024.12,-384 1041.84,-384 1057.74,-384"/>
<polygon fill="#63b8ff" stroke="#63b8ff" points="1057.89,-387.5 1067.89,-384 1057.89,-380.5 1057.89,-387.5"/>
</a>
</g>
</g>
<!-- Node10 -->
<g id="Node000010" class="node">
<title>Node10</title>
<g id="a_Node000010"><a xlink:href="hrt_8c.html#a7dd7d90aadd8f76f26da7d5abfad6fe8" target="_top" xlink:title=" ">
<polygon fill="white" stroke="#666666" points="1291,-393.5 1217,-393.5 1217,-374.5 1291,-374.5 1291,-393.5"/>
<text text-anchor="middle" x="1254" y="-381.5" font-family="Helvetica,sans-Serif" font-size="10.00">hrt_millis64</text>
</a>
</g>
</g>
<!-- Node9&#45;&gt;Node10 -->
<g id="edge9_Node000009_Node000010" class="edge">
<title>Node9&#45;&gt;Node10</title>
<g id="a_edge9_Node000009_Node000010"><a xlink:title=" ">
<path fill="none" stroke="#63b8ff" d="M1142.34,-384C1161.76,-384 1185.87,-384 1206.63,-384"/>
<polygon fill="#63b8ff" stroke="#63b8ff" points="1206.83,-387.5 1216.83,-384 1206.83,-380.5 1206.83,-387.5"/>
</a>
</g>
</g>
<!-- Node11 -->
<g id="Node000011" class="node">
<title>Node11</title>
<g id="a_Node000011"><a xlink:href="hrt_8c.html#a152c3348a8e83f2dfe35b44cc2e30362" target="_top" xlink:title=" ">
<polygon fill="white" stroke="#666666" points="1452,-412.5 1372,-412.5 1372,-393.5 1452,-393.5 1452,-412.5"/>
<text text-anchor="middle" x="1412" y="-400.5" font-family="Helvetica,sans-Serif" font-size="10.00">hrt_micros64</text>
</a>
</g>
</g>
<!-- Node10&#45;&gt;Node11 -->
<g id="edge10_Node000010_Node000011" class="edge">
<title>Node10&#45;&gt;Node11</title>
<g id="a_edge10_Node000010_Node000011"><a xlink:title=" ">
<path fill="none" stroke="#63b8ff" d="M1291.18,-388.41C1312.1,-390.95 1338.72,-394.2 1361.55,-396.98"/>
<polygon fill="#63b8ff" stroke="#63b8ff" points="1361.39,-400.48 1371.74,-398.22 1362.23,-393.53 1361.39,-400.48"/>
</a>
</g>
</g>
<!-- Node14 -->
<g id="Node000014" class="node">
<title>Node14</title>
<g id="a_Node000014"><a xlink:href="div1000_8h.html#aece9e7f123414c41d0426fbadca097d8" target="_top" xlink:title=" ">
<polygon fill="white" stroke="#666666" points="1458,-375.5 1366,-375.5 1366,-356.5 1458,-356.5 1458,-375.5"/>
<text text-anchor="middle" x="1412" y="-363.5" font-family="Helvetica,sans-Serif" font-size="10.00">uint64_div1000</text>
</a>
</g>
</g>
<!-- Node10&#45;&gt;Node14 -->
<g id="edge13_Node000010_Node000014" class="edge">
<title>Node10&#45;&gt;Node14</title>
<g id="a_edge13_Node000010_Node000014"><a xlink:title=" ">
<path fill="none" stroke="#63b8ff" d="M1291.18,-379.83C1310.37,-377.61 1334.36,-374.84 1355.82,-372.37"/>
<polygon fill="#63b8ff" stroke="#63b8ff" points="1356.27,-375.84 1365.8,-371.22 1355.46,-368.88 1356.27,-375.84"/>
</a>
</g>
</g>
<!-- Node12 -->
<g id="Node000012" class="node">
<title>Node12</title>
<g id="a_Node000012"><a xlink:href="hrt_8c.html#a5b4ffc7ff86bd5b893c4a98834e80200" target="_top" xlink:title=" ">
<polygon fill="white" stroke="#666666" points="1577,-431.5 1494,-431.5 1494,-412.5 1577,-412.5 1577,-431.5"/>
<text text-anchor="middle" x="1535.5" y="-419.5" font-family="Helvetica,sans-Serif" font-size="10.00">hrt_micros64I</text>
</a>
</g>
</g>
<!-- Node11&#45;&gt;Node12 -->
<g id="edge11_Node000011_Node000012" class="edge">
<title>Node11&#45;&gt;Node12</title>
<g id="a_edge11_Node000011_Node000012"><a xlink:title=" ">
<path fill="none" stroke="#63b8ff" d="M1452.11,-409.12C1462.21,-410.69 1473.22,-412.42 1483.81,-414.07"/>
<polygon fill="#63b8ff" stroke="#63b8ff" points="1483.37,-417.55 1493.79,-415.63 1484.45,-410.63 1483.37,-417.55"/>
</a>
</g>
</g>
<!-- Node13 -->
<g id="Node000013" class="node">
<title>Node13</title>
<g id="a_Node000013"><a xlink:href="hrt_8c.html#a723fef85be7bacb834af35445a891c18" target="_top" xlink:title=" ">
<polygon fill="white" stroke="#666666" points="1566.5,-394.5 1504.5,-394.5 1504.5,-375.5 1566.5,-375.5 1566.5,-394.5"/>
<text text-anchor="middle" x="1535.5" y="-382.5" font-family="Helvetica,sans-Serif" font-size="10.00">is_locked</text>
</a>
</g>
</g>
<!-- Node11&#45;&gt;Node13 -->
<g id="edge12_Node000011_Node000013" class="edge">
<title>Node11&#45;&gt;Node13</title>
<g id="a_edge12_Node000011_Node000013"><a xlink:title=" ">
<path fill="none" stroke="#63b8ff" d="M1452.11,-397.21C1465.6,-395.21 1480.73,-392.97 1494.3,-390.96"/>
<polygon fill="#63b8ff" stroke="#63b8ff" points="1494.95,-394.4 1504.32,-389.47 1493.92,-387.47 1494.95,-394.4"/>
</a>
</g>
</g>
<!-- Node15&#45;&gt;Node8 -->
<g id="edge47_Node000015_Node000008" class="edge">
<title>Node15&#45;&gt;Node8</title>
<g id="a_edge47_Node000015_Node000008"><a xlink:title=" ">
<path fill="none" stroke="#63b8ff" d="M488.11,-355.97C570.31,-356.35 728.22,-358.67 862,-370 878.07,-371.36 895.49,-373.5 911.3,-375.7"/>
<polygon fill="#63b8ff" stroke="#63b8ff" points="911.04,-379.2 921.43,-377.15 912.03,-372.27 911.04,-379.2"/>
</a>
</g>
</g>
<!-- Node16 -->
<g id="Node000016" class="node">
<title>Node16</title>
<g id="a_Node000016"><a xlink:href="classAP__RCProtocol.html#a2f6d19585a76ba86a6819b61efa4aa44" target="_top" xlink:title=" ">
<polygon fill="white" stroke="#666666" points="662,-478 540,-478 540,-448 662,-448 662,-478"/>
<text text-anchor="start" x="548" y="-466" font-family="Helvetica,sans-Serif" font-size="10.00">AP_RCProtocol::check</text>
<text text-anchor="middle" x="601" y="-455" font-family="Helvetica,sans-Serif" font-size="10.00">_added_uart</text>
</a>
</g>
</g>
<!-- Node15&#45;&gt;Node16 -->
<g id="edge15_Node000015_Node000016" class="edge">
<title>Node15&#45;&gt;Node16</title>
<g id="a_edge15_Node000015_Node000016"><a xlink:title=" ">
<path fill="none" stroke="#63b8ff" d="M447.04,-371C465.94,-389.18 500.04,-419.74 534,-439 537.01,-440.71 540.16,-442.33 543.38,-443.86"/>
<polygon fill="#63b8ff" stroke="#63b8ff" points="542.06,-447.1 552.62,-447.97 544.9,-440.71 542.06,-447.1"/>
</a>
</g>
</g>
<!-- Node34 -->
<g id="Node000034" class="node">
<title>Node34</title>
<g id="a_Node000034"><a xlink:href="classAP__RCProtocol.html#ace9831a0e123b93817063f143b03d11c" target="_top" xlink:title=" ">
<polygon fill="white" stroke="#666666" points="845.5,-440 720.5,-440 720.5,-410 845.5,-410 845.5,-440"/>
<text text-anchor="start" x="728.5" y="-428" font-family="Helvetica,sans-Serif" font-size="10.00">AP_RCProtocol::detect</text>
<text text-anchor="middle" x="783" y="-417" font-family="Helvetica,sans-Serif" font-size="10.00">_async_protocol</text>
</a>
</g>
</g>
<!-- Node15&#45;&gt;Node34 -->
<g id="edge43_Node000015_Node000034" class="edge">
<title>Node15&#45;&gt;Node34</title>
<g id="a_edge43_Node000015_Node000034"><a xlink:title=" ">
<path fill="none" stroke="#63b8ff" d="M488.2,-362.05C536.28,-367.76 607.15,-377.48 668,-391 687.48,-395.33 708.5,-401.23 727.12,-406.91"/>
<polygon fill="#63b8ff" stroke="#63b8ff" points="726.31,-410.32 736.9,-409.93 728.38,-403.63 726.31,-410.32"/>
</a>
</g>
</g>
<!-- Node36 -->
<g id="Node000036" class="node">
<title>Node36</title>
<g id="a_Node000036"><a xlink:href="classAP__RCProtocol__Backend.html#a764bb2706f649a3d114f2f8a2360d40f" target="_top" xlink:title=" ">
<polygon fill="white" stroke="#666666" points="668,-430 534,-430 534,-400 668,-400 668,-430"/>
<text text-anchor="start" x="542" y="-418" font-family="Helvetica,sans-Serif" font-size="10.00">AP_RCProtocol_Backend</text>
<text text-anchor="middle" x="601" y="-407" font-family="Helvetica,sans-Serif" font-size="10.00">::update</text>
</a>
</g>
</g>
<!-- Node15&#45;&gt;Node36 -->
<g id="edge48_Node000015_Node000036" class="edge">
<title>Node15&#45;&gt;Node36</title>
<g id="a_edge48_Node000015_Node000036"><a xlink:title=" ">
<path fill="none" stroke="#63b8ff" d="M474.83,-371.04C497.04,-378.84 524.36,-388.44 547.8,-396.67"/>
<polygon fill="#63b8ff" stroke="#63b8ff" points="546.66,-399.98 557.25,-399.99 548.97,-393.37 546.66,-399.98"/>
</a>
</g>
</g>
<!-- Node16&#45;&gt;Node5 -->
<g id="edge22_Node000016_Node000005" class="edge">
<title>Node16&#45;&gt;Node5</title>
<g id="a_edge22_Node000016_Node000005"><a xlink:title=" ">
<path fill="none" stroke="#63b8ff" d="M662.18,-465C725.48,-467.09 825.06,-470.39 892.36,-472.63"/>
<polygon fill="#63b8ff" stroke="#63b8ff" points="892.35,-476.13 902.46,-472.96 892.58,-469.13 892.35,-476.13"/>
</a>
</g>
</g>
<!-- Node16&#45;&gt;Node8 -->
<g id="edge23_Node000016_Node000008" class="edge">
<title>Node16&#45;&gt;Node8</title>
<g id="a_edge23_Node000016_Node000008"><a xlink:title=" ">
<path fill="none" stroke="#63b8ff" d="M651.53,-447.88C657.28,-445.3 662.9,-442.34 668,-439 687.45,-426.24 682.94,-410.89 704,-401 770.17,-369.94 856.39,-371.32 910.99,-376.56"/>
<polygon fill="#63b8ff" stroke="#63b8ff" points="910.83,-380.06 921.14,-377.61 911.56,-373.1 910.83,-380.06"/>
</a>
</g>
</g>
<!-- Node17 -->
<g id="Node000017" class="node">
<title>Node17</title>
<g id="a_Node000017"><a xlink:href="classAP__RCProtocol_1_1SerialConfig.html#a59234b9669e43e426e036f6b00089295" target="_top" xlink:title=" ">
<polygon fill="white" stroke="#666666" points="859,-660 707,-660 707,-630 859,-630 859,-660"/>
<text text-anchor="start" x="715" y="-648" font-family="Helvetica,sans-Serif" font-size="10.00">AP_RCProtocol::SerialConfig</text>
<text text-anchor="middle" x="783" y="-637" font-family="Helvetica,sans-Serif" font-size="10.00">::apply_to_uart</text>
</a>
</g>
</g>
<!-- Node16&#45;&gt;Node17 -->
<g id="edge16_Node000016_Node000017" class="edge">
<title>Node16&#45;&gt;Node17</title>
<g id="a_edge16_Node000016_Node000017"><a xlink:title=" ">
<path fill="none" stroke="#63b8ff" d="M617.04,-478.2C648.75,-510.27 722.61,-584.95 759.78,-622.54"/>
<polygon fill="#63b8ff" stroke="#63b8ff" points="757.61,-625.32 767.13,-629.97 762.59,-620.4 757.61,-625.32"/>
</a>
</g>
</g>
<!-- Node23 -->
<g id="Node000023" class="node">
<title>Node23</title>
<g id="a_Node000023"><a xlink:href="classAP__RCProtocol.html#af0572d5faa073cef5b81c62ea46add3b" target="_top" xlink:title=" ">
<polygon fill="white" stroke="#666666" points="862,-267.5 704,-267.5 704,-248.5 862,-248.5 862,-267.5"/>
<text text-anchor="middle" x="783" y="-255.5" font-family="Helvetica,sans-Serif" font-size="10.00">AP_RCProtocol::process_byte</text>
</a>
</g>
</g>
<!-- Node16&#45;&gt;Node23 -->
<g id="edge24_Node000016_Node000023" class="edge">
<title>Node16&#45;&gt;Node23</title>
<g id="a_edge24_Node000016_Node000023"><a xlink:title=" ">
<path fill="none" stroke="#63b8ff" d="M655.22,-447.85C659.82,-445.32 664.17,-442.4 668,-439 694.48,-415.53 685.72,-398.29 704,-368 724.43,-334.15 751.85,-297.09 768.14,-275.79"/>
<polygon fill="#63b8ff" stroke="#63b8ff" points="771.06,-277.74 774.4,-267.68 765.52,-273.46 771.06,-277.74"/>
</a>
</g>
</g>
<!-- Node16&#45;&gt;Node27 -->
<g id="edge41_Node000016_Node000027" class="edge">
<title>Node16&#45;&gt;Node27</title>
<g id="a_edge41_Node000016_Node000027"><a xlink:title=" ">
<path fill="none" stroke="#63b8ff" d="M606.27,-478.15C617.19,-514.74 649.25,-609.29 704,-669 772.2,-743.39 800.82,-759.77 898,-787 955.35,-803.07 980.33,-816.62 1032,-787 1071.02,-764.63 1090.93,-712.01 1099.19,-683.38"/>
<polygon fill="#63b8ff" stroke="#63b8ff" points="1102.58,-684.26 1101.81,-673.7 1095.82,-682.44 1102.58,-684.26"/>
</a>
</g>
</g>
<!-- Node16&#45;&gt;Node31 -->
<g id="edge42_Node000016_Node000031" class="edge">
<title>Node16&#45;&gt;Node31</title>
<g id="a_edge42_Node000016_Node000031"><a xlink:title=" ">
<path fill="none" stroke="#63b8ff" d="M662.06,-475.2C675.82,-477.88 690.4,-480.62 704,-483 767.26,-494.06 839.48,-505.04 891.72,-512.69"/>
<polygon fill="#63b8ff" stroke="#63b8ff" points="891.49,-516.19 901.89,-514.18 892.5,-509.27 891.49,-516.19"/>
</a>
</g>
</g>
<!-- Node32 -->
<g id="Node000032" class="node">
<title>Node32</title>
<g id="a_Node000032"><a xlink:href="classAP__RCProtocol.html#acce47f254f6170586c6e0d8a60b5e1d5" target="_top" xlink:title=" ">
<polygon fill="white" stroke="#666666" points="848.5,-864 717.5,-864 717.5,-834 848.5,-834 848.5,-864"/>
<text text-anchor="start" x="725.5" y="-852" font-family="Helvetica,sans-Serif" font-size="10.00">AP_RCProtocol::process</text>
<text text-anchor="middle" x="783" y="-841" font-family="Helvetica,sans-Serif" font-size="10.00">_handshake</text>
</a>
</g>
</g>
<!-- Node16&#45;&gt;Node32 -->
<g id="edge39_Node000016_Node000032" class="edge">
<title>Node16&#45;&gt;Node32</title>
<g id="a_edge39_Node000016_Node000032"><a xlink:title=" ">
<path fill="none" stroke="#63b8ff" d="M601.77,-478.18C601.77,-532.2 609.01,-717.33 704,-820 706.93,-823.16 710.23,-825.98 713.78,-828.49"/>
<polygon fill="#63b8ff" stroke="#63b8ff" points="712.1,-831.57 722.45,-833.82 715.76,-825.6 712.1,-831.57"/>
</a>
</g>
</g>
<!-- Node18 -->
<g id="Node000018" class="node">
<title>Node18</title>
<g id="a_Node000018"><a xlink:href="classAP__HAL_1_1UARTDriver.html#a1ea1968a3238d1abb9d4880d1b679af4" target="_top" xlink:title=" ">
<polygon fill="white" stroke="#666666" points="1023,-586 907,-586 907,-556 1023,-556 1023,-586"/>
<text text-anchor="start" x="915" y="-574" font-family="Helvetica,sans-Serif" font-size="10.00">AP_HAL::UARTDriver</text>
<text text-anchor="middle" x="965" y="-563" font-family="Helvetica,sans-Serif" font-size="10.00">::begin</text>
</a>
</g>
</g>
<!-- Node17&#45;&gt;Node18 -->
<g id="edge17_Node000017_Node000018" class="edge">
<title>Node17&#45;&gt;Node18</title>
<g id="a_edge17_Node000017_Node000018"><a xlink:title=" ">
<path fill="none" stroke="#63b8ff" d="M816.69,-629.99C839.35,-619.75 870.32,-606.09 898,-595 902.44,-593.22 907.06,-591.43 911.71,-589.66"/>
<polygon fill="#63b8ff" stroke="#63b8ff" points="913.11,-592.88 921.24,-586.09 910.65,-586.32 913.11,-592.88"/>
</a>
</g>
</g>
<!-- Node19 -->
<g id="Node000019" class="node">
<title>Node19</title>
<g id="a_Node000019"><a xlink:href="classAP__HAL_1_1UARTDriver.html#a234ef7fe327642168ed2924325afffc4" target="_top" xlink:title=" ">
<polygon fill="white" stroke="#666666" points="1023,-778 907,-778 907,-748 1023,-748 1023,-778"/>
<text text-anchor="start" x="915" y="-766" font-family="Helvetica,sans-Serif" font-size="10.00">AP_HAL::UARTDriver</text>
<text text-anchor="middle" x="965" y="-755" font-family="Helvetica,sans-Serif" font-size="10.00">::configure_parity</text>
</a>
</g>
</g>
<!-- Node17&#45;&gt;Node19 -->
<g id="edge18_Node000017_Node000019" class="edge">
<title>Node17&#45;&gt;Node19</title>
<g id="a_edge18_Node000017_Node000019"><a xlink:title=" ">
<path fill="none" stroke="#63b8ff" d="M798.96,-660.24C819.62,-680.57 858.8,-716.6 898,-739 900.86,-740.63 903.85,-742.19 906.91,-743.67"/>
<polygon fill="#63b8ff" stroke="#63b8ff" points="905.69,-746.96 916.25,-747.85 908.56,-740.57 905.69,-746.96"/>
</a>
</g>
</g>
<!-- Node20 -->
<g id="Node000020" class="node">
<title>Node20</title>
<g id="a_Node000020"><a xlink:href="classAP__HAL_1_1UARTDriver.html#a3d197e6aa8c93030581dd860fab91132" target="_top" xlink:title=" ">
<polygon fill="white" stroke="#666666" points="1023,-730 907,-730 907,-700 1023,-700 1023,-730"/>
<text text-anchor="start" x="915" y="-718" font-family="Helvetica,sans-Serif" font-size="10.00">AP_HAL::UARTDriver</text>
<text text-anchor="middle" x="965" y="-707" font-family="Helvetica,sans-Serif" font-size="10.00">::get_options</text>
</a>
</g>
</g>
<!-- Node17&#45;&gt;Node20 -->
<g id="edge19_Node000017_Node000020" class="edge">
<title>Node17&#45;&gt;Node20</title>
<g id="a_edge19_Node000017_Node000020"><a xlink:title=" ">
<path fill="none" stroke="#63b8ff" d="M820.32,-660.03C842.66,-669.18 871.9,-680.99 898,-691 902.72,-692.81 907.64,-694.66 912.57,-696.49"/>
<polygon fill="#63b8ff" stroke="#63b8ff" points="911.43,-699.8 922.02,-699.98 913.85,-693.24 911.43,-699.8"/>
</a>
</g>
</g>
<!-- Node21 -->
<g id="Node000021" class="node">
<title>Node21</title>
<g id="a_Node000021"><a xlink:href="classAP__HAL_1_1UARTDriver.html#ab198069f163bf69fcc82b0c653fa787f" target="_top" xlink:title=" ">
<polygon fill="white" stroke="#666666" points="1023,-682 907,-682 907,-652 1023,-652 1023,-682"/>
<text text-anchor="start" x="915" y="-670" font-family="Helvetica,sans-Serif" font-size="10.00">AP_HAL::UARTDriver</text>
<text text-anchor="middle" x="965" y="-659" font-family="Helvetica,sans-Serif" font-size="10.00">::set_options</text>
</a>
</g>
</g>
<!-- Node17&#45;&gt;Node21 -->
<g id="edge20_Node000017_Node000021" class="edge">
<title>Node17&#45;&gt;Node21</title>
<g id="a_edge20_Node000017_Node000021"><a xlink:title=" ">
<path fill="none" stroke="#63b8ff" d="M859.03,-654.17C871.54,-655.7 884.45,-657.28 896.75,-658.78"/>
<polygon fill="#63b8ff" stroke="#63b8ff" points="896.57,-662.28 906.92,-660.02 897.42,-655.34 896.57,-662.28"/>
</a>
</g>
</g>
<!-- Node22 -->
<g id="Node000022" class="node">
<title>Node22</title>
<g id="a_Node000022"><a xlink:href="classAP__HAL_1_1UARTDriver.html#a5a7203cb2b08f77237e56c1d57e15e02" target="_top" xlink:title=" ">
<polygon fill="white" stroke="#666666" points="1023,-634 907,-634 907,-604 1023,-604 1023,-634"/>
<text text-anchor="start" x="915" y="-622" font-family="Helvetica,sans-Serif" font-size="10.00">AP_HAL::UARTDriver</text>
<text text-anchor="middle" x="965" y="-611" font-family="Helvetica,sans-Serif" font-size="10.00">::set_stop_bits</text>
</a>
</g>
</g>
<!-- Node17&#45;&gt;Node22 -->
<g id="edge21_Node000017_Node000022" class="edge">
<title>Node17&#45;&gt;Node22</title>
<g id="a_edge21_Node000017_Node000022"><a xlink:title=" ">
<path fill="none" stroke="#63b8ff" d="M859.03,-634.16C871.54,-632.35 884.45,-630.49 896.75,-628.71"/>
<polygon fill="#63b8ff" stroke="#63b8ff" points="897.52,-632.14 906.92,-627.25 896.52,-625.21 897.52,-632.14"/>
</a>
</g>
</g>
<!-- Node23&#45;&gt;Node5 -->
<g id="edge25_Node000023_Node000005" class="edge">
<title>Node23&#45;&gt;Node5</title>
<g id="a_edge25_Node000023_Node000005"><a xlink:title=" ">
<path fill="none" stroke="#63b8ff" d="M789.15,-267.57C809.18,-304.62 881.53,-437.33 898,-451 899.55,-452.29 901.17,-453.5 902.85,-454.66"/>
<polygon fill="#63b8ff" stroke="#63b8ff" points="901.29,-457.81 911.67,-459.93 904.88,-451.8 901.29,-457.81"/>
</a>
</g>
</g>
<!-- Node23&#45;&gt;Node6 -->
<g id="edge26_Node000023_Node000006" class="edge">
<title>Node23&#45;&gt;Node6</title>
<g id="a_edge26_Node000023_Node000006"><a xlink:title=" ">
<path fill="none" stroke="#63b8ff" d="M817.86,-248.41C841.27,-241.77 873.12,-232.75 901.11,-224.82"/>
<polygon fill="#63b8ff" stroke="#63b8ff" points="902.17,-228.16 910.83,-222.06 900.26,-221.42 902.17,-228.16"/>
</a>
</g>
</g>
<!-- Node23&#45;&gt;Node7 -->
<g id="edge27_Node000023_Node000007" class="edge">
<title>Node23&#45;&gt;Node7</title>
<g id="a_edge27_Node000023_Node000007"><a xlink:title=" ">
<path fill="none" stroke="#63b8ff" d="M796.4,-248.43C816.74,-233.08 858.83,-202.67 898,-183 901.52,-181.23 905.19,-179.53 908.94,-177.91"/>
<polygon fill="#63b8ff" stroke="#63b8ff" points="910.42,-181.08 918.32,-174.03 907.74,-174.61 910.42,-181.08"/>
</a>
</g>
</g>
<!-- Node23&#45;&gt;Node8 -->
<g id="edge28_Node000023_Node000008" class="edge">
<title>Node23&#45;&gt;Node8</title>
<g id="a_edge28_Node000023_Node000008"><a xlink:title=" ">
<path fill="none" stroke="#63b8ff" d="M836.68,-267.56C845.84,-270.99 854.75,-275.66 862,-282 890.74,-307.13 869.9,-334.15 898,-360 902.37,-364.02 907.46,-367.38 912.85,-370.18"/>
<polygon fill="#63b8ff" stroke="#63b8ff" points="911.56,-373.44 922.11,-374.39 914.46,-367.07 911.56,-373.44"/>
</a>
</g>
</g>
<!-- Node23&#45;&gt;Node15 -->
<g id="edge29_Node000023_Node000015" class="edge">
<title>Node23&#45;&gt;Node15</title>
<g id="a_edge29_Node000023_Node000015"><a xlink:title=" ">
<path fill="none" stroke="#63b8ff" d="M738.65,-267.53C688.89,-278.77 604.98,-298.65 534,-320 516.71,-325.2 498.02,-331.57 481.43,-337.5"/>
<polygon fill="#63b8ff" stroke="#63b8ff" points="480.14,-334.24 471.92,-340.93 482.52,-340.83 480.14,-334.24"/>
</a>
</g>
</g>
<!-- Node24 -->
<g id="Node000024" class="node">
<title>Node24</title>
<g id="a_Node000024"><a xlink:href="classAP__RCProtocol__Backend.html#ae147c31184eaf1dbcf9816799da83b74" target="_top" xlink:title=" ">
<polygon fill="white" stroke="#666666" points="1032,-318 898,-318 898,-288 1032,-288 1032,-318"/>
<text text-anchor="start" x="906" y="-306" font-family="Helvetica,sans-Serif" font-size="10.00">AP_RCProtocol_Backend</text>
<text text-anchor="middle" x="965" y="-295" font-family="Helvetica,sans-Serif" font-size="10.00">::process_byte</text>
</a>
</g>
</g>
<!-- Node23&#45;&gt;Node24 -->
<g id="edge30_Node000023_Node000024" class="edge">
<title>Node23&#45;&gt;Node24</title>
<g id="a_edge30_Node000023_Node000024"><a xlink:title=" ">
<path fill="none" stroke="#63b8ff" d="M822.17,-267.54C843.03,-272.76 869.53,-279.38 893.96,-285.49"/>
<polygon fill="#63b8ff" stroke="#63b8ff" points="893.37,-288.95 903.92,-287.98 895.07,-282.16 893.37,-288.95"/>
</a>
</g>
</g>
<!-- Node23&#45;&gt;Node25 -->
<g id="edge31_Node000023_Node000025" class="edge">
<title>Node23&#45;&gt;Node25</title>
<g id="a_edge31_Node000023_Node000025"><a xlink:title=" ">
<path fill="none" stroke="#63b8ff" d="M790.54,-248.23C806.35,-225.31 849,-167.53 898,-135 900.38,-133.42 902.88,-131.93 905.45,-130.52"/>
<polygon fill="#63b8ff" stroke="#63b8ff" points="907.03,-133.64 914.44,-126.06 903.92,-127.37 907.03,-133.64"/>
</a>
</g>
</g>
<!-- Node26 -->
<g id="Node000026" class="node">
<title>Node26</title>
<g id="a_Node000026"><a xlink:href="classAP__HAL_1_1RCInput.html#acb6de639b06d2eee94ad144476de2b41" target="_top" xlink:title=" ">
<polygon fill="white" stroke="#666666" points="1030.5,-270 899.5,-270 899.5,-240 1030.5,-240 1030.5,-270"/>
<text text-anchor="start" x="907.5" y="-258" font-family="Helvetica,sans-Serif" font-size="10.00">AP_HAL::RCInput::pulse</text>
<text text-anchor="middle" x="965" y="-247" font-family="Helvetica,sans-Serif" font-size="10.00">_input_enable</text>
</a>
</g>
</g>
<!-- Node23&#45;&gt;Node26 -->
<g id="edge32_Node000023_Node000026" class="edge">
<title>Node23&#45;&gt;Node26</title>
<g id="a_edge32_Node000023_Node000026"><a xlink:title=" ">
<path fill="none" stroke="#63b8ff" d="M862.17,-256.7C871.2,-256.55 880.39,-256.39 889.37,-256.24"/>
<polygon fill="#63b8ff" stroke="#63b8ff" points="889.46,-259.74 899.4,-256.08 889.34,-252.74 889.46,-259.74"/>
</a>
</g>
</g>
<!-- Node23&#45;&gt;Node27 -->
<g id="edge33_Node000023_Node000027" class="edge">
<title>Node23&#45;&gt;Node27</title>
<g id="a_edge33_Node000023_Node000027"><a xlink:title=" ">
<path fill="none" stroke="#63b8ff" d="M831.03,-267.53C841.77,-271.01 852.74,-275.71 862,-282 883.18,-296.4 876.66,-312.83 898,-327 949.57,-361.24 989.11,-320.36 1032,-365 1071.27,-405.87 1094.93,-584.61 1101.86,-644.42"/>
<polygon fill="#63b8ff" stroke="#63b8ff" points="1098.39,-644.89 1102.99,-654.44 1105.34,-644.11 1098.39,-644.89"/>
</a>
</g>
</g>
<!-- Node23&#45;&gt;Node29 -->
<g id="edge35_Node000023_Node000029" class="edge">
<title>Node23&#45;&gt;Node29</title>
<g id="a_edge35_Node000023_Node000029"><a xlink:title=" ">
<path fill="none" stroke="#63b8ff" d="M787.84,-248.32C799.74,-219.51 838.79,-133.5 898,-87 899.75,-85.62 901.59,-84.32 903.5,-83.09"/>
<polygon fill="#63b8ff" stroke="#63b8ff" points="905.24,-86.12 912.19,-78.13 901.77,-80.04 905.24,-86.12"/>
</a>
</g>
</g>
<!-- Node23&#45;&gt;Node30 -->
<g id="edge36_Node000023_Node000030" class="edge">
<title>Node23&#45;&gt;Node30</title>
<g id="a_edge36_Node000023_Node000030"><a xlink:title=" ">
<path fill="none" stroke="#63b8ff" d="M786.38,-248.1C795.09,-213.98 828.38,-100.04 898,-39 899.48,-37.7 901.03,-36.48 902.65,-35.31"/>
<polygon fill="#63b8ff" stroke="#63b8ff" points="904.51,-38.28 911.15,-30.02 900.81,-32.33 904.51,-38.28"/>
</a>
</g>
</g>
<!-- Node23&#45;&gt;Node31 -->
<g id="edge37_Node000023_Node000031" class="edge">
<title>Node23&#45;&gt;Node31</title>
<g id="a_edge37_Node000023_Node000031"><a xlink:title=" ">
<path fill="none" stroke="#63b8ff" d="M790,-267.8C803.83,-290.6 838.53,-349.23 862,-401 881.16,-443.26 865.14,-466.24 898,-499 899.08,-500.08 900.21,-501.1 901.39,-502.09"/>
<polygon fill="#63b8ff" stroke="#63b8ff" points="899.51,-505.05 909.71,-507.93 903.53,-499.32 899.51,-505.05"/>
</a>
</g>
</g>
<!-- Node28 -->
<g id="Node000028" class="node">
<title>Node28</title>
<g id="a_Node000028"><a xlink:href="classRC__Channels.html#ae4e66c56cdd1eb498d22b52dffc687d6" target="_top" xlink:title=" ">
<polygon fill="white" stroke="#666666" points="1330,-673.5 1178,-673.5 1178,-654.5 1330,-654.5 1330,-673.5"/>
<text text-anchor="middle" x="1254" y="-661.5" font-family="Helvetica,sans-Serif" font-size="10.00">RC_Channels::get_singleton</text>
</a>
</g>
</g>
<!-- Node27&#45;&gt;Node28 -->
<g id="edge34_Node000027_Node000028" class="edge">
<title>Node27&#45;&gt;Node28</title>
<g id="a_edge34_Node000027_Node000028"><a xlink:title=" ">
<path fill="none" stroke="#63b8ff" d="M1119.57,-664C1131.13,-664 1148.83,-664 1167.59,-664"/>
<polygon fill="#63b8ff" stroke="#63b8ff" points="1167.78,-667.5 1177.78,-664 1167.78,-660.5 1167.78,-667.5"/>
</a>
</g>
</g>
<!-- Node31&#45;&gt;Node27 -->
<g id="edge38_Node000031_Node000027" class="edge">
<title>Node31&#45;&gt;Node27</title>
<g id="a_edge38_Node000031_Node000027"><a xlink:title=" ">
<path fill="none" stroke="#63b8ff" d="M1018.27,-538.14C1023.16,-540.68 1027.84,-543.61 1032,-547 1064.66,-573.62 1086.53,-619.22 1096.95,-644.92"/>
<polygon fill="#63b8ff" stroke="#63b8ff" points="1093.72,-646.26 1100.6,-654.31 1100.24,-643.73 1093.72,-646.26"/>
</a>
</g>
</g>
<!-- Node33 -->
<g id="Node000033" class="node">
<title>Node33</title>
<g id="a_Node000033"><a xlink:href="classAP__RCProtocol__Backend.html#ad5c966af4716976c9d9fe7356b9e2ee8" target="_top" xlink:title=" ">
<polygon fill="white" stroke="#666666" points="1032,-864 898,-864 898,-834 1032,-834 1032,-864"/>
<text text-anchor="start" x="906" y="-852" font-family="Helvetica,sans-Serif" font-size="10.00">AP_RCProtocol_Backend</text>
<text text-anchor="middle" x="965" y="-841" font-family="Helvetica,sans-Serif" font-size="10.00">::process_handshake</text>
</a>
</g>
</g>
<!-- Node32&#45;&gt;Node33 -->
<g id="edge40_Node000032_Node000033" class="edge">
<title>Node32&#45;&gt;Node33</title>
<g id="a_edge40_Node000032_Node000033"><a xlink:title=" ">
<path fill="none" stroke="#63b8ff" d="M848.73,-849C861.3,-849 874.58,-849 887.48,-849"/>
<polygon fill="#63b8ff" stroke="#63b8ff" points="887.72,-852.5 897.72,-849 887.72,-845.5 887.72,-852.5"/>
</a>
</g>
</g>
<!-- Node34&#45;&gt;Node8 -->
<g id="edge44_Node000034_Node000008" class="edge">
<title>Node34&#45;&gt;Node8</title>
<g id="a_edge44_Node000034_Node000008"><a xlink:title=" ">
<path fill="none" stroke="#63b8ff" d="M845.69,-410.95C867.38,-406.01 891.52,-400.51 912.3,-395.78"/>
<polygon fill="#63b8ff" stroke="#63b8ff" points="913.23,-399.15 922.21,-393.52 911.68,-392.33 913.23,-399.15"/>
</a>
</g>
</g>
<!-- Node34&#45;&gt;Node31 -->
<g id="edge46_Node000034_Node000031" class="edge">
<title>Node34&#45;&gt;Node31</title>
<g id="a_edge46_Node000034_Node000031"><a xlink:title=" ">
<path fill="none" stroke="#63b8ff" d="M804.17,-440.12C826.32,-456.23 863.36,-481.74 898,-499 901.52,-500.75 905.2,-502.45 908.95,-504.07"/>
<polygon fill="#63b8ff" stroke="#63b8ff" points="907.76,-507.36 918.34,-507.94 910.43,-500.89 907.76,-507.36"/>
</a>
</g>
</g>
<!-- Node35 -->
<g id="Node000035" class="node">
<title>Node35</title>
<g id="a_Node000035"><a xlink:href="classAP__RCProtocol__Backend.html#aef0ca89cc34d6db368498626bfdebf79" target="_top" xlink:title=" ">
<polygon fill="white" stroke="#666666" points="1032,-442 898,-442 898,-412 1032,-412 1032,-442"/>
<text text-anchor="start" x="906" y="-430" font-family="Helvetica,sans-Serif" font-size="10.00">AP_RCProtocol_Backend</text>
<text text-anchor="middle" x="965" y="-419" font-family="Helvetica,sans-Serif" font-size="10.00">::new_input</text>
</a>
</g>
</g>
<!-- Node34&#45;&gt;Node35 -->
<g id="edge45_Node000034_Node000035" class="edge">
<title>Node34&#45;&gt;Node35</title>
<g id="a_edge45_Node000034_Node000035"><a xlink:title=" ">
<path fill="none" stroke="#63b8ff" d="M845.69,-425.69C859.21,-425.84 873.67,-426 887.67,-426.15"/>
<polygon fill="#63b8ff" stroke="#63b8ff" points="887.74,-429.65 897.77,-426.26 887.81,-422.65 887.74,-429.65"/>
</a>
</g>
</g>
</g>
</svg>
