<?xml version="1.0" encoding="UTF-8" standalone="no"?>
<!DOCTYPE svg PUBLIC "-//W3C//DTD SVG 1.1//EN"
 "http://www.w3.org/Graphics/SVG/1.1/DTD/svg11.dtd">
<!-- Generated by graphviz version 2.43.0 (0)
 -->
<!-- Title: loop Pages: 1 -->
<svg width="1277pt" height="920pt"
 viewBox="0.00 0.00 1277.00 920.00" xmlns="http://www.w3.org/2000/svg" xmlns:xlink="http://www.w3.org/1999/xlink">
<g id="graph0" class="graph" transform="scale(1 1) rotate(0) translate(4 916)">
<title>loop</title>
<!-- Node1 -->
<g id="Node000001" class="node">
<title>Node1</title>
<g id="a_Node000001"><a xlink:title=" ">
<polygon fill="#999999" stroke="#666666" points="38,-177.5 0,-177.5 0,-158.5 38,-158.5 38,-177.5"/>
<text text-anchor="middle" x="19" y="-165.5" font-family="Helvetica,sans-Serif" font-size="10.00">loop</text>
</a>
</g>
</g>
<!-- Node2 -->
<g id="Node000002" class="node">
<title>Node2</title>
<g id="a_Node000002"><a xlink:href="AP__Math_8h.html#a68558c4f79a8582543daefde13c64abc" target="_top" xlink:title=" ">
<polygon fill="white" stroke="#666666" points="178,-339.5 86,-339.5 86,-320.5 178,-320.5 178,-339.5"/>
<text text-anchor="middle" x="132" y="-327.5" font-family="Helvetica,sans-Serif" font-size="10.00">constrain_int16</text>
</a>
</g>
</g>
<!-- Node1&#45;&gt;Node2 -->
<g id="edge1_Node000001_Node000002" class="edge">
<title>Node1&#45;&gt;Node2</title>
<g id="a_edge1_Node000001_Node000002"><a xlink:title=" ">
<path fill="none" stroke="#63b8ff" d="M22.98,-177.61C29.7,-198.24 47.53,-247.66 74,-282 83.57,-294.41 96.84,-305.82 108.17,-314.4"/>
<polygon fill="#63b8ff" stroke="#63b8ff" points="106.22,-317.32 116.37,-320.38 110.35,-311.66 106.22,-317.32"/>
</a>
</g>
</g>
<!-- Node4 -->
<g id="Node000004" class="node">
<title>Node4</title>
<g id="a_Node000004"><a xlink:href="classAP__RCProtocol.html#ada38813f2671cced243422684aa4a22d" target="_top" xlink:title=" ">
<polygon fill="white" stroke="#666666" points="189,-207 75,-207 75,-177 189,-177 189,-207"/>
<text text-anchor="start" x="83" y="-195" font-family="Helvetica,sans-Serif" font-size="10.00">AP_RCProtocol::new</text>
<text text-anchor="middle" x="132" y="-184" font-family="Helvetica,sans-Serif" font-size="10.00">_input</text>
</a>
</g>
</g>
<!-- Node1&#45;&gt;Node4 -->
<g id="edge3_Node000001_Node000004" class="edge">
<title>Node1&#45;&gt;Node4</title>
<g id="a_edge3_Node000001_Node000004"><a xlink:title=" ">
<path fill="none" stroke="#63b8ff" d="M38.33,-171.96C45.9,-173.6 55.19,-175.61 64.92,-177.71"/>
<polygon fill="#63b8ff" stroke="#63b8ff" points="64.24,-181.15 74.76,-179.84 65.72,-174.31 64.24,-181.15"/>
</a>
</g>
</g>
<!-- Node20 -->
<g id="Node000020" class="node">
<title>Node20</title>
<g id="a_Node000020"><a xlink:href="classAP__RCProtocol.html#af0572d5faa073cef5b81c62ea46add3b" target="_top" xlink:title=" ">
<polygon fill="white" stroke="#666666" points="554,-311.5 396,-311.5 396,-292.5 554,-292.5 554,-311.5"/>
<text text-anchor="middle" x="475" y="-299.5" font-family="Helvetica,sans-Serif" font-size="10.00">AP_RCProtocol::process_byte</text>
</a>
</g>
</g>
<!-- Node1&#45;&gt;Node20 -->
<g id="edge47_Node000001_Node000020" class="edge">
<title>Node1&#45;&gt;Node20</title>
<g id="a_edge47_Node000001_Node000020"><a xlink:title=" ">
<path fill="none" stroke="#63b8ff" d="M28.09,-177.74C37.82,-188.78 55.2,-206.47 74,-216 130.43,-244.61 302,-275.04 401.15,-290.91"/>
<polygon fill="#63b8ff" stroke="#63b8ff" points="400.68,-294.38 411.1,-292.49 401.78,-287.47 400.68,-294.38"/>
</a>
</g>
</g>
<!-- Node36 -->
<g id="Node000036" class="node">
<title>Node36</title>
<g id="a_Node000036"><a xlink:href="classAP__RCProtocol.html#a393203e7a0ebbd12ff72a9ff82496d0e" target="_top" xlink:title=" ">
<polygon fill="white" stroke="#666666" points="190,-159 74,-159 74,-129 190,-129 190,-159"/>
<text text-anchor="start" x="82" y="-147" font-family="Helvetica,sans-Serif" font-size="10.00">AP_RCProtocol::num</text>
<text text-anchor="middle" x="132" y="-136" font-family="Helvetica,sans-Serif" font-size="10.00">_channels</text>
</a>
</g>
</g>
<!-- Node1&#45;&gt;Node36 -->
<g id="edge44_Node000001_Node000036" class="edge">
<title>Node1&#45;&gt;Node36</title>
<g id="a_edge44_Node000001_Node000036"><a xlink:title=" ">
<path fill="none" stroke="#63b8ff" d="M38.33,-164.04C45.64,-162.46 54.55,-160.53 63.91,-158.51"/>
<polygon fill="#63b8ff" stroke="#63b8ff" points="64.76,-161.9 73.79,-156.37 63.28,-155.06 64.76,-161.9"/>
</a>
</g>
</g>
<!-- Node38 -->
<g id="Node000038" class="node">
<title>Node38</title>
<g id="a_Node000038"><a xlink:href="stdio_8h.html#a55f3d956bb2ba20b5059e9e25484a47f" target="_top" xlink:title=" ">
<polygon fill="white" stroke="#666666" points="153.5,-110.5 110.5,-110.5 110.5,-91.5 153.5,-91.5 153.5,-110.5"/>
<text text-anchor="middle" x="132" y="-98.5" font-family="Helvetica,sans-Serif" font-size="10.00">printf</text>
</a>
</g>
</g>
<!-- Node1&#45;&gt;Node38 -->
<g id="edge46_Node000001_Node000038" class="edge">
<title>Node1&#45;&gt;Node38</title>
<g id="a_edge46_Node000001_Node000038"><a xlink:title=" ">
<path fill="none" stroke="#63b8ff" d="M28.65,-158.24C38.62,-147.51 55.97,-130.42 74,-120 82.2,-115.26 91.76,-111.49 100.68,-108.6"/>
<polygon fill="#63b8ff" stroke="#63b8ff" points="101.79,-111.92 110.37,-105.71 99.78,-105.21 101.79,-111.92"/>
</a>
</g>
</g>
<!-- Node39 -->
<g id="Node000039" class="node">
<title>Node39</title>
<g id="a_Node000039"><a xlink:href="classAP__RCProtocol.html#a1790b32960d15dd15641441ad1aeda82" target="_top" xlink:title=" ">
<polygon fill="white" stroke="#666666" points="190,-49.5 74,-49.5 74,-30.5 190,-30.5 190,-49.5"/>
<text text-anchor="middle" x="132" y="-37.5" font-family="Helvetica,sans-Serif" font-size="10.00">AP_RCProtocol::read</text>
</a>
</g>
</g>
<!-- Node1&#45;&gt;Node39 -->
<g id="edge48_Node000001_Node000039" class="edge">
<title>Node1&#45;&gt;Node39</title>
<g id="a_edge48_Node000001_Node000039"><a xlink:title=" ">
<path fill="none" stroke="#63b8ff" d="M24.69,-158.31C33.04,-141.67 51.71,-107.16 74,-83 83.59,-72.61 95.95,-62.94 106.71,-55.41"/>
<polygon fill="#63b8ff" stroke="#63b8ff" points="108.94,-58.13 115.27,-49.63 105.02,-52.33 108.94,-58.13"/>
</a>
</g>
</g>
<!-- Node3 -->
<g id="Node000003" class="node">
<title>Node3</title>
<g id="a_Node000003"><a xlink:href="AP__Math_8cpp.html#a20e8f8671c282c69c1954652b6d61585" target="_top" xlink:title=" ">
<polygon fill="white" stroke="#666666" points="340,-363.5 246,-363.5 246,-344.5 340,-344.5 340,-363.5"/>
<text text-anchor="middle" x="293" y="-351.5" font-family="Helvetica,sans-Serif" font-size="10.00">constrain_value</text>
</a>
</g>
</g>
<!-- Node2&#45;&gt;Node3 -->
<g id="edge2_Node000002_Node000003" class="edge">
<title>Node2&#45;&gt;Node3</title>
<g id="a_edge2_Node000002_Node000003"><a xlink:title=" ">
<path fill="none" stroke="#63b8ff" d="M178.14,-336.81C196.12,-339.53 217,-342.68 235.93,-345.54"/>
<polygon fill="#63b8ff" stroke="#63b8ff" points="235.51,-349.01 245.92,-347.04 236.55,-342.09 235.51,-349.01"/>
</a>
</g>
</g>
<!-- Node5 -->
<g id="Node000005" class="node">
<title>Node5</title>
<g id="a_Node000005"><a xlink:href="classAP__RCProtocol.html#a2f6d19585a76ba86a6819b61efa4aa44" target="_top" xlink:title=" ">
<polygon fill="white" stroke="#666666" points="354,-326 232,-326 232,-296 354,-296 354,-326"/>
<text text-anchor="start" x="240" y="-314" font-family="Helvetica,sans-Serif" font-size="10.00">AP_RCProtocol::check</text>
<text text-anchor="middle" x="293" y="-303" font-family="Helvetica,sans-Serif" font-size="10.00">_added_uart</text>
</a>
</g>
</g>
<!-- Node4&#45;&gt;Node5 -->
<g id="edge4_Node000004_Node000005" class="edge">
<title>Node4&#45;&gt;Node5</title>
<g id="a_edge4_Node000004_Node000005"><a xlink:title=" ">
<path fill="none" stroke="#63b8ff" d="M153.14,-207.07C181.14,-228.03 231.96,-266.06 263.74,-289.85"/>
<polygon fill="#63b8ff" stroke="#63b8ff" points="261.67,-292.67 271.78,-295.86 265.87,-287.07 261.67,-292.67"/>
</a>
</g>
</g>
<!-- Node13 -->
<g id="Node000013" class="node">
<title>Node13</title>
<g id="a_Node000013"><a xlink:href="namespaceAP__HAL.html#a77dffbb18891996280308e21316ec186" target="_top" xlink:title=" ">
<polygon fill="white" stroke="#666666" points="700.5,-115.5 613.5,-115.5 613.5,-96.5 700.5,-96.5 700.5,-115.5"/>
<text text-anchor="middle" x="657" y="-103.5" font-family="Helvetica,sans-Serif" font-size="10.00">AP_HAL::millis</text>
</a>
</g>
</g>
<!-- Node4&#45;&gt;Node13 -->
<g id="edge42_Node000004_Node000013" class="edge">
<title>Node4&#45;&gt;Node13</title>
<g id="a_edge42_Node000004_Node000013"><a xlink:title=" ">
<path fill="none" stroke="#63b8ff" d="M175.34,-176.89C180.49,-174.28 185.51,-171.32 190,-168 210.05,-153.19 203.65,-136.04 226,-125 290.78,-92.99 503.11,-98.5 603.07,-103.11"/>
<polygon fill="#63b8ff" stroke="#63b8ff" points="603.09,-106.62 613.25,-103.59 603.42,-99.62 603.09,-106.62"/>
</a>
</g>
</g>
<!-- Node33 -->
<g id="Node000033" class="node">
<title>Node33</title>
<g id="a_Node000033"><a xlink:href="classAP__RCProtocol.html#ace9831a0e123b93817063f143b03d11c" target="_top" xlink:title=" ">
<polygon fill="white" stroke="#666666" points="537.5,-164 412.5,-164 412.5,-134 537.5,-134 537.5,-164"/>
<text text-anchor="start" x="420.5" y="-152" font-family="Helvetica,sans-Serif" font-size="10.00">AP_RCProtocol::detect</text>
<text text-anchor="middle" x="475" y="-141" font-family="Helvetica,sans-Serif" font-size="10.00">_async_protocol</text>
</a>
</g>
</g>
<!-- Node4&#45;&gt;Node33 -->
<g id="edge38_Node000004_Node000033" class="edge">
<title>Node4&#45;&gt;Node33</title>
<g id="a_edge38_Node000004_Node000033"><a xlink:title=" ">
<path fill="none" stroke="#63b8ff" d="M189.19,-189.24C235.27,-186.51 302.09,-181.49 360,-173 373.77,-170.98 388.37,-168.32 402.36,-165.49"/>
<polygon fill="#63b8ff" stroke="#63b8ff" points="403.34,-168.87 412.42,-163.42 401.92,-162.01 403.34,-168.87"/>
</a>
</g>
</g>
<!-- Node35 -->
<g id="Node000035" class="node">
<title>Node35</title>
<g id="a_Node000035"><a xlink:href="classAP__RCProtocol__Backend.html#a764bb2706f649a3d114f2f8a2360d40f" target="_top" xlink:title=" ">
<polygon fill="white" stroke="#666666" points="360,-164 226,-164 226,-134 360,-134 360,-164"/>
<text text-anchor="start" x="234" y="-152" font-family="Helvetica,sans-Serif" font-size="10.00">AP_RCProtocol_Backend</text>
<text text-anchor="middle" x="293" y="-141" font-family="Helvetica,sans-Serif" font-size="10.00">::update</text>
</a>
</g>
</g>
<!-- Node4&#45;&gt;Node35 -->
<g id="edge43_Node000004_Node000035" class="edge">
<title>Node4&#45;&gt;Node35</title>
<g id="a_edge43_Node000004_Node000035"><a xlink:title=" ">
<path fill="none" stroke="#63b8ff" d="M188.61,-176.96C200.84,-173.65 213.89,-170.12 226.46,-166.72"/>
<polygon fill="#63b8ff" stroke="#63b8ff" points="227.68,-170.02 236.42,-164.03 225.85,-163.26 227.68,-170.02"/>
</a>
</g>
</g>
<!-- Node6 -->
<g id="Node000006" class="node">
<title>Node6</title>
<g id="a_Node000006"><a xlink:href="classAP__RCProtocol_1_1SerialConfig.html#a59234b9669e43e426e036f6b00089295" target="_top" xlink:title=" ">
<polygon fill="white" stroke="#666666" points="551,-744 399,-744 399,-714 551,-714 551,-744"/>
<text text-anchor="start" x="407" y="-732" font-family="Helvetica,sans-Serif" font-size="10.00">AP_RCProtocol::SerialConfig</text>
<text text-anchor="middle" x="475" y="-721" font-family="Helvetica,sans-Serif" font-size="10.00">::apply_to_uart</text>
</a>
</g>
</g>
<!-- Node5&#45;&gt;Node6 -->
<g id="edge5_Node000005_Node000006" class="edge">
<title>Node5&#45;&gt;Node6</title>
<g id="a_edge5_Node000005_Node000006"><a xlink:title=" ">
<path fill="none" stroke="#63b8ff" d="M349.19,-326.14C353.27,-328.89 356.97,-332.15 360,-336 439,-436.3 349.17,-502.23 396,-621 408.88,-653.67 433.92,-685.58 452.17,-706.14"/>
<polygon fill="#63b8ff" stroke="#63b8ff" points="449.72,-708.65 459.03,-713.7 454.9,-703.94 449.72,-708.65"/>
</a>
</g>
</g>
<!-- Node12 -->
<g id="Node000012" class="node">
<title>Node12</title>
<g id="a_Node000012"><a xlink:href="classRC__Channels.html#a0df669680ff2f5bffc131c09279b40c8" target="_top" xlink:title=" ">
<polygon fill="white" stroke="#666666" points="719.5,-624 594.5,-624 594.5,-594 719.5,-594 719.5,-624"/>
<text text-anchor="start" x="602.5" y="-612" font-family="Helvetica,sans-Serif" font-size="10.00">RC_Channels::enabled</text>
<text text-anchor="middle" x="657" y="-601" font-family="Helvetica,sans-Serif" font-size="10.00">_protocols</text>
</a>
</g>
</g>
<!-- Node5&#45;&gt;Node12 -->
<g id="edge11_Node000005_Node000012" class="edge">
<title>Node5&#45;&gt;Node12</title>
<g id="a_edge11_Node000005_Node000012"><a xlink:title=" ">
<path fill="none" stroke="#63b8ff" d="M349.11,-326.2C353.2,-328.95 356.93,-332.18 360,-336 428.72,-421.4 317.13,-503.87 396,-580 445.04,-627.34 525.93,-629.14 584.48,-622.53"/>
<polygon fill="#63b8ff" stroke="#63b8ff" points="584.91,-626 594.4,-621.3 584.05,-619.05 584.91,-626"/>
</a>
</g>
</g>
<!-- Node5&#45;&gt;Node13 -->
<g id="edge12_Node000005_Node000013" class="edge">
<title>Node5&#45;&gt;Node13</title>
<g id="a_edge12_Node000005_Node000013"><a xlink:title=" ">
<path fill="none" stroke="#63b8ff" d="M307.39,-295.93C325.61,-276.27 360.09,-242.04 396,-222 460.2,-186.17 493.91,-215.36 554,-173 575.8,-157.64 568.05,-140.14 590,-125 594.25,-122.07 598.94,-119.59 603.82,-117.49"/>
<polygon fill="#63b8ff" stroke="#63b8ff" points="605.21,-120.7 613.33,-113.9 602.74,-114.15 605.21,-120.7"/>
</a>
</g>
</g>
<!-- Node5&#45;&gt;Node20 -->
<g id="edge19_Node000005_Node000020" class="edge">
<title>Node5&#45;&gt;Node20</title>
<g id="a_edge19_Node000005_Node000020"><a xlink:title=" ">
<path fill="none" stroke="#63b8ff" d="M354.19,-307.99C364.33,-307.48 375.05,-306.95 385.73,-306.41"/>
<polygon fill="#63b8ff" stroke="#63b8ff" points="386.13,-309.9 395.95,-305.9 385.78,-302.91 386.13,-309.9"/>
</a>
</g>
</g>
<!-- Node26 -->
<g id="Node000026" class="node">
<title>Node26</title>
<g id="a_Node000026"><a xlink:href="RC__Channels_8cpp.html#abe35aea6177a1cdf87a22af5c263bb89" target="_top" xlink:title=" ">
<polygon fill="white" stroke="#666666" points="811.5,-537.5 782.5,-537.5 782.5,-518.5 811.5,-518.5 811.5,-537.5"/>
<text text-anchor="middle" x="797" y="-525.5" font-family="Helvetica,sans-Serif" font-size="10.00">rc</text>
</a>
</g>
</g>
<!-- Node5&#45;&gt;Node26 -->
<g id="edge36_Node000005_Node000026" class="edge">
<title>Node5&#45;&gt;Node26</title>
<g id="a_edge36_Node000005_Node000026"><a xlink:title=" ">
<path fill="none" stroke="#63b8ff" d="M340.08,-326.02C346.95,-328.95 353.8,-332.28 360,-336 476.43,-405.81 462.9,-489.29 590,-537 652.63,-560.51 733.59,-544.9 772.75,-534.76"/>
<polygon fill="#63b8ff" stroke="#63b8ff" points="773.68,-538.13 782.42,-532.14 771.85,-531.37 773.68,-538.13"/>
</a>
</g>
</g>
<!-- Node30 -->
<g id="Node000030" class="node">
<title>Node30</title>
<g id="a_Node000030"><a xlink:href="classAP__RCProtocol.html#ab2663ee24a00da6fcb3f0f4ef2d88e4b" target="_top" xlink:title=" ">
<polygon fill="white" stroke="#666666" points="720,-164 594,-164 594,-134 720,-134 720,-164"/>
<text text-anchor="start" x="602" y="-152" font-family="Helvetica,sans-Serif" font-size="10.00">AP_RCProtocol::should</text>
<text text-anchor="middle" x="657" y="-141" font-family="Helvetica,sans-Serif" font-size="10.00">_search</text>
</a>
</g>
</g>
<!-- Node5&#45;&gt;Node30 -->
<g id="edge37_Node000005_Node000030" class="edge">
<title>Node5&#45;&gt;Node30</title>
<g id="a_edge37_Node000005_Node000030"><a xlink:title=" ">
<path fill="none" stroke="#63b8ff" d="M350.37,-295.99C416.47,-277.65 521.17,-246.11 554,-222 575.78,-206 568.37,-189.2 590,-173 591.86,-171.6 593.82,-170.28 595.83,-169.03"/>
<polygon fill="#63b8ff" stroke="#63b8ff" points="597.94,-171.87 605.03,-164 594.58,-165.73 597.94,-171.87"/>
</a>
</g>
</g>
<!-- Node31 -->
<g id="Node000031" class="node">
<title>Node31</title>
<g id="a_Node000031"><a xlink:href="classAP__RCProtocol.html#acce47f254f6170586c6e0d8a60b5e1d5" target="_top" xlink:title=" ">
<polygon fill="white" stroke="#666666" points="540.5,-864 409.5,-864 409.5,-834 540.5,-834 540.5,-864"/>
<text text-anchor="start" x="417.5" y="-852" font-family="Helvetica,sans-Serif" font-size="10.00">AP_RCProtocol::process</text>
<text text-anchor="middle" x="475" y="-841" font-family="Helvetica,sans-Serif" font-size="10.00">_handshake</text>
</a>
</g>
</g>
<!-- Node5&#45;&gt;Node31 -->
<g id="edge34_Node000005_Node000031" class="edge">
<title>Node5&#45;&gt;Node31</title>
<g id="a_edge34_Node000005_Node000031"><a xlink:title=" ">
<path fill="none" stroke="#63b8ff" d="M349.36,-326.01C353.4,-328.79 357.04,-332.09 360,-336 416.1,-410.19 361.14,-666.77 396,-753 407.62,-781.74 430.94,-808.6 449.07,-826.56"/>
<polygon fill="#63b8ff" stroke="#63b8ff" points="446.84,-829.27 456.47,-833.69 451.7,-824.23 446.84,-829.27"/>
</a>
</g>
</g>
<!-- Node7 -->
<g id="Node000007" class="node">
<title>Node7</title>
<g id="a_Node000007"><a xlink:href="classAP__HAL_1_1UARTDriver.html#a1ea1968a3238d1abb9d4880d1b679af4" target="_top" xlink:title=" ">
<polygon fill="white" stroke="#666666" points="715,-720 599,-720 599,-690 715,-690 715,-720"/>
<text text-anchor="start" x="607" y="-708" font-family="Helvetica,sans-Serif" font-size="10.00">AP_HAL::UARTDriver</text>
<text text-anchor="middle" x="657" y="-697" font-family="Helvetica,sans-Serif" font-size="10.00">::begin</text>
</a>
</g>
</g>
<!-- Node6&#45;&gt;Node7 -->
<g id="edge6_Node000006_Node000007" class="edge">
<title>Node6&#45;&gt;Node7</title>
<g id="a_edge6_Node000006_Node000007"><a xlink:title=" ">
<path fill="none" stroke="#63b8ff" d="M551.03,-719C563.54,-717.33 576.45,-715.61 588.75,-713.97"/>
<polygon fill="#63b8ff" stroke="#63b8ff" points="589.47,-717.4 598.92,-712.61 588.54,-710.46 589.47,-717.4"/>
</a>
</g>
</g>
<!-- Node8 -->
<g id="Node000008" class="node">
<title>Node8</title>
<g id="a_Node000008"><a xlink:href="classAP__HAL_1_1UARTDriver.html#a234ef7fe327642168ed2924325afffc4" target="_top" xlink:title=" ">
<polygon fill="white" stroke="#666666" points="715,-672 599,-672 599,-642 715,-642 715,-672"/>
<text text-anchor="start" x="607" y="-660" font-family="Helvetica,sans-Serif" font-size="10.00">AP_HAL::UARTDriver</text>
<text text-anchor="middle" x="657" y="-649" font-family="Helvetica,sans-Serif" font-size="10.00">::configure_parity</text>
</a>
</g>
</g>
<!-- Node6&#45;&gt;Node8 -->
<g id="edge7_Node000006_Node000008" class="edge">
<title>Node6&#45;&gt;Node8</title>
<g id="a_edge7_Node000006_Node000008"><a xlink:title=" ">
<path fill="none" stroke="#63b8ff" d="M510.49,-713.95C533.01,-704.26 563.11,-691.54 590,-681 594.52,-679.23 599.22,-677.43 603.95,-675.65"/>
<polygon fill="#63b8ff" stroke="#63b8ff" points="605.48,-678.82 613.63,-672.05 603.04,-672.26 605.48,-678.82"/>
</a>
</g>
</g>
<!-- Node9 -->
<g id="Node000009" class="node">
<title>Node9</title>
<g id="a_Node000009"><a xlink:href="classAP__HAL_1_1UARTDriver.html#a3d197e6aa8c93030581dd860fab91132" target="_top" xlink:title=" ">
<polygon fill="white" stroke="#666666" points="715,-864 599,-864 599,-834 715,-834 715,-864"/>
<text text-anchor="start" x="607" y="-852" font-family="Helvetica,sans-Serif" font-size="10.00">AP_HAL::UARTDriver</text>
<text text-anchor="middle" x="657" y="-841" font-family="Helvetica,sans-Serif" font-size="10.00">::get_options</text>
</a>
</g>
</g>
<!-- Node6&#45;&gt;Node9 -->
<g id="edge8_Node000006_Node000009" class="edge">
<title>Node6&#45;&gt;Node9</title>
<g id="a_edge8_Node000006_Node000009"><a xlink:title=" ">
<path fill="none" stroke="#63b8ff" d="M490.54,-744.23C511.03,-764.96 550.35,-802.07 590,-825 592.85,-826.65 595.83,-828.22 598.89,-829.7"/>
<polygon fill="#63b8ff" stroke="#63b8ff" points="597.66,-832.99 608.22,-833.91 600.54,-826.61 597.66,-832.99"/>
</a>
</g>
</g>
<!-- Node10 -->
<g id="Node000010" class="node">
<title>Node10</title>
<g id="a_Node000010"><a xlink:href="classAP__HAL_1_1UARTDriver.html#ab198069f163bf69fcc82b0c653fa787f" target="_top" xlink:title=" ">
<polygon fill="white" stroke="#666666" points="715,-816 599,-816 599,-786 715,-786 715,-816"/>
<text text-anchor="start" x="607" y="-804" font-family="Helvetica,sans-Serif" font-size="10.00">AP_HAL::UARTDriver</text>
<text text-anchor="middle" x="657" y="-793" font-family="Helvetica,sans-Serif" font-size="10.00">::set_options</text>
</a>
</g>
</g>
<!-- Node6&#45;&gt;Node10 -->
<g id="edge9_Node000006_Node000010" class="edge">
<title>Node6&#45;&gt;Node10</title>
<g id="a_edge9_Node000006_Node000010"><a xlink:title=" ">
<path fill="none" stroke="#63b8ff" d="M510.49,-744.05C533.01,-753.74 563.11,-766.46 590,-777 594.52,-778.77 599.22,-780.57 603.95,-782.35"/>
<polygon fill="#63b8ff" stroke="#63b8ff" points="603.04,-785.74 613.63,-785.95 605.48,-779.18 603.04,-785.74"/>
</a>
</g>
</g>
<!-- Node11 -->
<g id="Node000011" class="node">
<title>Node11</title>
<g id="a_Node000011"><a xlink:href="classAP__HAL_1_1UARTDriver.html#a5a7203cb2b08f77237e56c1d57e15e02" target="_top" xlink:title=" ">
<polygon fill="white" stroke="#666666" points="715,-768 599,-768 599,-738 715,-738 715,-768"/>
<text text-anchor="start" x="607" y="-756" font-family="Helvetica,sans-Serif" font-size="10.00">AP_HAL::UARTDriver</text>
<text text-anchor="middle" x="657" y="-745" font-family="Helvetica,sans-Serif" font-size="10.00">::set_stop_bits</text>
</a>
</g>
</g>
<!-- Node6&#45;&gt;Node11 -->
<g id="edge10_Node000006_Node000011" class="edge">
<title>Node6&#45;&gt;Node11</title>
<g id="a_edge10_Node000006_Node000011"><a xlink:title=" ">
<path fill="none" stroke="#63b8ff" d="M551.03,-739C563.54,-740.67 576.45,-742.39 588.75,-744.03"/>
<polygon fill="#63b8ff" stroke="#63b8ff" points="588.54,-747.54 598.92,-745.39 589.47,-740.6 588.54,-747.54"/>
</a>
</g>
</g>
<!-- Node14 -->
<g id="Node000014" class="node">
<title>Node14</title>
<g id="a_Node000014"><a xlink:href="hrt_8c.html#a1295f128f60d29874243b5733c4db025" target="_top" xlink:title=" ">
<polygon fill="white" stroke="#666666" points="834,-115.5 760,-115.5 760,-96.5 834,-96.5 834,-115.5"/>
<text text-anchor="middle" x="797" y="-103.5" font-family="Helvetica,sans-Serif" font-size="10.00">hrt_millis32</text>
</a>
</g>
</g>
<!-- Node13&#45;&gt;Node14 -->
<g id="edge13_Node000013_Node000014" class="edge">
<title>Node13&#45;&gt;Node14</title>
<g id="a_edge13_Node000013_Node000014"><a xlink:title=" ">
<path fill="none" stroke="#63b8ff" d="M700.53,-106C716.12,-106 733.84,-106 749.74,-106"/>
<polygon fill="#63b8ff" stroke="#63b8ff" points="749.89,-109.5 759.89,-106 749.89,-102.5 749.89,-109.5"/>
</a>
</g>
</g>
<!-- Node15 -->
<g id="Node000015" class="node">
<title>Node15</title>
<g id="a_Node000015"><a xlink:href="hrt_8c.html#a7dd7d90aadd8f76f26da7d5abfad6fe8" target="_top" xlink:title=" ">
<polygon fill="white" stroke="#666666" points="983,-115.5 909,-115.5 909,-96.5 983,-96.5 983,-115.5"/>
<text text-anchor="middle" x="946" y="-103.5" font-family="Helvetica,sans-Serif" font-size="10.00">hrt_millis64</text>
</a>
</g>
</g>
<!-- Node14&#45;&gt;Node15 -->
<g id="edge14_Node000014_Node000015" class="edge">
<title>Node14&#45;&gt;Node15</title>
<g id="a_edge14_Node000014_Node000015"><a xlink:title=" ">
<path fill="none" stroke="#63b8ff" d="M834.34,-106C853.76,-106 877.87,-106 898.63,-106"/>
<polygon fill="#63b8ff" stroke="#63b8ff" points="898.83,-109.5 908.83,-106 898.83,-102.5 898.83,-109.5"/>
</a>
</g>
</g>
<!-- Node16 -->
<g id="Node000016" class="node">
<title>Node16</title>
<g id="a_Node000016"><a xlink:href="hrt_8c.html#a152c3348a8e83f2dfe35b44cc2e30362" target="_top" xlink:title=" ">
<polygon fill="white" stroke="#666666" points="1144,-134.5 1064,-134.5 1064,-115.5 1144,-115.5 1144,-134.5"/>
<text text-anchor="middle" x="1104" y="-122.5" font-family="Helvetica,sans-Serif" font-size="10.00">hrt_micros64</text>
</a>
</g>
</g>
<!-- Node15&#45;&gt;Node16 -->
<g id="edge15_Node000015_Node000016" class="edge">
<title>Node15&#45;&gt;Node16</title>
<g id="a_edge15_Node000015_Node000016"><a xlink:title=" ">
<path fill="none" stroke="#63b8ff" d="M983.18,-110.41C1004.1,-112.95 1030.72,-116.2 1053.55,-118.98"/>
<polygon fill="#63b8ff" stroke="#63b8ff" points="1053.39,-122.48 1063.74,-120.22 1054.23,-115.53 1053.39,-122.48"/>
</a>
</g>
</g>
<!-- Node19 -->
<g id="Node000019" class="node">
<title>Node19</title>
<g id="a_Node000019"><a xlink:href="div1000_8h.html#aece9e7f123414c41d0426fbadca097d8" target="_top" xlink:title=" ">
<polygon fill="white" stroke="#666666" points="1150,-97.5 1058,-97.5 1058,-78.5 1150,-78.5 1150,-97.5"/>
<text text-anchor="middle" x="1104" y="-85.5" font-family="Helvetica,sans-Serif" font-size="10.00">uint64_div1000</text>
</a>
</g>
</g>
<!-- Node15&#45;&gt;Node19 -->
<g id="edge18_Node000015_Node000019" class="edge">
<title>Node15&#45;&gt;Node19</title>
<g id="a_edge18_Node000015_Node000019"><a xlink:title=" ">
<path fill="none" stroke="#63b8ff" d="M983.18,-101.83C1002.37,-99.61 1026.36,-96.84 1047.82,-94.37"/>
<polygon fill="#63b8ff" stroke="#63b8ff" points="1048.27,-97.84 1057.8,-93.22 1047.46,-90.88 1048.27,-97.84"/>
</a>
</g>
</g>
<!-- Node17 -->
<g id="Node000017" class="node">
<title>Node17</title>
<g id="a_Node000017"><a xlink:href="hrt_8c.html#a5b4ffc7ff86bd5b893c4a98834e80200" target="_top" xlink:title=" ">
<polygon fill="white" stroke="#666666" points="1269,-152.5 1186,-152.5 1186,-133.5 1269,-133.5 1269,-152.5"/>
<text text-anchor="middle" x="1227.5" y="-140.5" font-family="Helvetica,sans-Serif" font-size="10.00">hrt_micros64I</text>
</a>
</g>
</g>
<!-- Node16&#45;&gt;Node17 -->
<g id="edge16_Node000016_Node000017" class="edge">
<title>Node16&#45;&gt;Node17</title>
<g id="a_edge16_Node000016_Node000017"><a xlink:title=" ">
<path fill="none" stroke="#63b8ff" d="M1144.11,-130.79C1154.21,-132.29 1165.22,-133.92 1175.81,-135.49"/>
<polygon fill="#63b8ff" stroke="#63b8ff" points="1175.38,-138.97 1185.79,-136.97 1176.41,-132.04 1175.38,-138.97"/>
</a>
</g>
</g>
<!-- Node18 -->
<g id="Node000018" class="node">
<title>Node18</title>
<g id="a_Node000018"><a xlink:href="hrt_8c.html#a723fef85be7bacb834af35445a891c18" target="_top" xlink:title=" ">
<polygon fill="white" stroke="#666666" points="1258.5,-115.5 1196.5,-115.5 1196.5,-96.5 1258.5,-96.5 1258.5,-115.5"/>
<text text-anchor="middle" x="1227.5" y="-103.5" font-family="Helvetica,sans-Serif" font-size="10.00">is_locked</text>
</a>
</g>
</g>
<!-- Node16&#45;&gt;Node18 -->
<g id="edge17_Node000016_Node000018" class="edge">
<title>Node16&#45;&gt;Node18</title>
<g id="a_edge17_Node000016_Node000018"><a xlink:title=" ">
<path fill="none" stroke="#63b8ff" d="M1144.11,-118.88C1157.6,-116.77 1172.73,-114.41 1186.3,-112.29"/>
<polygon fill="#63b8ff" stroke="#63b8ff" points="1186.99,-115.72 1196.32,-110.72 1185.9,-108.81 1186.99,-115.72"/>
</a>
</g>
</g>
<!-- Node20&#45;&gt;Node4 -->
<g id="edge24_Node000020_Node000004" class="edge">
<title>Node20&#45;&gt;Node4</title>
<g id="a_edge24_Node000020_Node000004"><a xlink:title=" ">
<path fill="none" stroke="#63b8ff" d="M453.31,-292.31C430.71,-281.96 393.29,-265.5 360,-254 306.58,-235.55 244.6,-218.93 198.92,-207.56"/>
<polygon fill="#63b8ff" stroke="#63b8ff" points="199.68,-204.14 189.13,-205.14 198,-210.94 199.68,-204.14"/>
</a>
</g>
</g>
<!-- Node20&#45;&gt;Node12 -->
<g id="edge20_Node000020_Node000012" class="edge">
<title>Node20&#45;&gt;Node12</title>
<g id="a_edge20_Node000020_Node000012"><a xlink:title=" ">
<path fill="none" stroke="#63b8ff" d="M479.3,-311.77C490.99,-345.63 532.87,-460.37 590,-542 601.58,-558.55 617.39,-574.75 630.62,-587.08"/>
<polygon fill="#63b8ff" stroke="#63b8ff" points="628.32,-589.71 638.07,-593.86 633.03,-584.54 628.32,-589.71"/>
</a>
</g>
</g>
<!-- Node20&#45;&gt;Node13 -->
<g id="edge23_Node000020_Node000013" class="edge">
<title>Node20&#45;&gt;Node13</title>
<g id="a_edge23_Node000020_Node000013"><a xlink:title=" ">
<path fill="none" stroke="#63b8ff" d="M488.17,-292.37C505.04,-278.46 535.54,-251.18 554,-222 578.58,-183.14 556.29,-156.27 590,-125 594.04,-121.25 598.78,-118.23 603.83,-115.81"/>
<polygon fill="#63b8ff" stroke="#63b8ff" points="605.19,-119.03 613.16,-112.06 602.58,-112.54 605.19,-119.03"/>
</a>
</g>
</g>
<!-- Node21 -->
<g id="Node000021" class="node">
<title>Node21</title>
<g id="a_Node000021"><a xlink:href="classAP__RCProtocol__Backend.html#a3a26daa52afbbe107c03957a35b3f996" target="_top" xlink:title=" ">
<polygon fill="white" stroke="#666666" points="724,-500 590,-500 590,-470 724,-470 724,-500"/>
<text text-anchor="start" x="598" y="-488" font-family="Helvetica,sans-Serif" font-size="10.00">AP_RCProtocol_Backend</text>
<text text-anchor="middle" x="657" y="-477" font-family="Helvetica,sans-Serif" font-size="10.00">::get_rc_frame_count</text>
</a>
</g>
</g>
<!-- Node20&#45;&gt;Node21 -->
<g id="edge21_Node000020_Node000021" class="edge">
<title>Node20&#45;&gt;Node21</title>
<g id="a_edge21_Node000020_Node000021"><a xlink:title=" ">
<path fill="none" stroke="#63b8ff" d="M480.4,-311.77C493.25,-339.27 533.43,-418.11 590,-461 591.82,-462.38 593.72,-463.68 595.68,-464.91"/>
<polygon fill="#63b8ff" stroke="#63b8ff" points="594.21,-468.1 604.65,-469.89 597.6,-461.98 594.21,-468.1"/>
</a>
</g>
</g>
<!-- Node22 -->
<g id="Node000022" class="node">
<title>Node22</title>
<g id="a_Node000022"><a xlink:href="classAP__RCProtocol__Backend.html#a38bc819bb3340e16cd87c2a7d1707a40" target="_top" xlink:title=" ">
<polygon fill="white" stroke="#666666" points="724,-452 590,-452 590,-422 724,-422 724,-452"/>
<text text-anchor="start" x="598" y="-440" font-family="Helvetica,sans-Serif" font-size="10.00">AP_RCProtocol_Backend</text>
<text text-anchor="middle" x="657" y="-429" font-family="Helvetica,sans-Serif" font-size="10.00">::get_rc_input_count</text>
</a>
</g>
</g>
<!-- Node20&#45;&gt;Node22 -->
<g id="edge22_Node000020_Node000022" class="edge">
<title>Node20&#45;&gt;Node22</title>
<g id="a_edge22_Node000020_Node000022"><a xlink:title=" ">
<path fill="none" stroke="#63b8ff" d="M483.51,-311.71C500.38,-332.91 543.44,-383.78 590,-413 592.6,-414.63 595.33,-416.18 598.13,-417.63"/>
<polygon fill="#63b8ff" stroke="#63b8ff" points="596.76,-420.85 607.29,-421.99 599.77,-414.53 596.76,-420.85"/>
</a>
</g>
</g>
<!-- Node23 -->
<g id="Node000023" class="node">
<title>Node23</title>
<g id="a_Node000023"><a xlink:href="classAP__RCProtocol__Backend.html#ae147c31184eaf1dbcf9816799da83b74" target="_top" xlink:title=" ">
<polygon fill="white" stroke="#666666" points="724,-404 590,-404 590,-374 724,-374 724,-404"/>
<text text-anchor="start" x="598" y="-392" font-family="Helvetica,sans-Serif" font-size="10.00">AP_RCProtocol_Backend</text>
<text text-anchor="middle" x="657" y="-381" font-family="Helvetica,sans-Serif" font-size="10.00">::process_byte</text>
</a>
</g>
</g>
<!-- Node20&#45;&gt;Node23 -->
<g id="edge25_Node000020_Node000023" class="edge">
<title>Node20&#45;&gt;Node23</title>
<g id="a_edge25_Node000020_Node000023"><a xlink:title=" ">
<path fill="none" stroke="#63b8ff" d="M491.46,-311.56C513.02,-324.66 553.57,-348.43 590,-365 593.87,-366.76 597.91,-368.49 602,-370.15"/>
<polygon fill="#63b8ff" stroke="#63b8ff" points="601.01,-373.52 611.59,-373.93 603.57,-367.01 601.01,-373.52"/>
</a>
</g>
</g>
<!-- Node24 -->
<g id="Node000024" class="node">
<title>Node24</title>
<g id="a_Node000024"><a xlink:href="classAP__RCProtocol.html#ad5f3a4f2b764c46016508b5fa27daaef" target="_top" xlink:title=" ">
<polygon fill="white" stroke="#666666" points="724,-356 590,-356 590,-326 724,-326 724,-356"/>
<text text-anchor="start" x="598" y="-344" font-family="Helvetica,sans-Serif" font-size="10.00">AP_RCProtocol::protocol</text>
<text text-anchor="middle" x="657" y="-333" font-family="Helvetica,sans-Serif" font-size="10.00">_enabled</text>
</a>
</g>
</g>
<!-- Node20&#45;&gt;Node24 -->
<g id="edge26_Node000020_Node000024" class="edge">
<title>Node20&#45;&gt;Node24</title>
<g id="a_edge26_Node000020_Node000024"><a xlink:title=" ">
<path fill="none" stroke="#63b8ff" d="M520.03,-311.54C538.1,-315.46 559.55,-320.1 580,-324.53"/>
<polygon fill="#63b8ff" stroke="#63b8ff" points="579.43,-327.99 589.95,-326.69 580.91,-321.15 579.43,-327.99"/>
</a>
</g>
</g>
<!-- Node25 -->
<g id="Node000025" class="node">
<title>Node25</title>
<g id="a_Node000025"><a xlink:href="classAP__HAL_1_1RCInput.html#acb6de639b06d2eee94ad144476de2b41" target="_top" xlink:title=" ">
<polygon fill="white" stroke="#666666" points="722.5,-308 591.5,-308 591.5,-278 722.5,-278 722.5,-308"/>
<text text-anchor="start" x="599.5" y="-296" font-family="Helvetica,sans-Serif" font-size="10.00">AP_HAL::RCInput::pulse</text>
<text text-anchor="middle" x="657" y="-285" font-family="Helvetica,sans-Serif" font-size="10.00">_input_enable</text>
</a>
</g>
</g>
<!-- Node20&#45;&gt;Node25 -->
<g id="edge27_Node000020_Node000025" class="edge">
<title>Node20&#45;&gt;Node25</title>
<g id="a_edge27_Node000020_Node000025"><a xlink:title=" ">
<path fill="none" stroke="#63b8ff" d="M554.17,-298.09C563.2,-297.64 572.39,-297.18 581.37,-296.73"/>
<polygon fill="#63b8ff" stroke="#63b8ff" points="581.59,-300.23 591.4,-296.23 581.24,-293.23 581.59,-300.23"/>
</a>
</g>
</g>
<!-- Node20&#45;&gt;Node26 -->
<g id="edge28_Node000020_Node000026" class="edge">
<title>Node20&#45;&gt;Node26</title>
<g id="a_edge28_Node000020_Node000026"><a xlink:title=" ">
<path fill="none" stroke="#63b8ff" d="M477.95,-311.55C485.39,-345.41 515.52,-460.23 590,-509 646.56,-546.03 731.33,-538.88 772.23,-532.49"/>
<polygon fill="#63b8ff" stroke="#63b8ff" points="773.04,-535.91 782.32,-530.79 771.88,-529 773.04,-535.91"/>
</a>
</g>
</g>
<!-- Node28 -->
<g id="Node000028" class="node">
<title>Node28</title>
<g id="a_Node000028"><a xlink:href="classAP__RCProtocol.html#afc47d0f1005d6a582baa25c6fd24cf9b" target="_top" xlink:title=" ">
<polygon fill="white" stroke="#666666" points="724,-260 590,-260 590,-230 724,-230 724,-260"/>
<text text-anchor="start" x="598" y="-248" font-family="Helvetica,sans-Serif" font-size="10.00">AP_RCProtocol::requires</text>
<text text-anchor="middle" x="657" y="-237" font-family="Helvetica,sans-Serif" font-size="10.00">_3_frames</text>
</a>
</g>
</g>
<!-- Node20&#45;&gt;Node28 -->
<g id="edge30_Node000020_Node000028" class="edge">
<title>Node20&#45;&gt;Node28</title>
<g id="a_edge30_Node000020_Node000028"><a xlink:title=" ">
<path fill="none" stroke="#63b8ff" d="M506.13,-292.46C531.32,-284.48 567.98,-272.87 598.73,-263.14"/>
<polygon fill="#63b8ff" stroke="#63b8ff" points="600.01,-266.4 608.48,-260.05 597.89,-259.73 600.01,-266.4"/>
</a>
</g>
</g>
<!-- Node29 -->
<g id="Node000029" class="node">
<title>Node29</title>
<g id="a_Node000029"><a xlink:href="classAP__RCProtocol__Backend.html#a782b453cf08a9e5f91bf9c04c312c238" target="_top" xlink:title=" ">
<polygon fill="white" stroke="#666666" points="724,-212 590,-212 590,-182 724,-182 724,-212"/>
<text text-anchor="start" x="598" y="-200" font-family="Helvetica,sans-Serif" font-size="10.00">AP_RCProtocol_Backend</text>
<text text-anchor="middle" x="657" y="-189" font-family="Helvetica,sans-Serif" font-size="10.00">::reset_rc_frame_count</text>
</a>
</g>
</g>
<!-- Node20&#45;&gt;Node29 -->
<g id="edge31_Node000020_Node000029" class="edge">
<title>Node20&#45;&gt;Node29</title>
<g id="a_edge31_Node000020_Node000029"><a xlink:title=" ">
<path fill="none" stroke="#63b8ff" d="M514.04,-292.36C527.57,-287.7 542.32,-281.09 554,-272 575.89,-254.95 567.95,-237.84 590,-221 591.81,-219.62 593.71,-218.31 595.67,-217.07"/>
<polygon fill="#63b8ff" stroke="#63b8ff" points="597.59,-220.01 604.62,-212.08 594.18,-213.89 597.59,-220.01"/>
</a>
</g>
</g>
<!-- Node20&#45;&gt;Node30 -->
<g id="edge32_Node000020_Node000030" class="edge">
<title>Node20&#45;&gt;Node30</title>
<g id="a_edge32_Node000020_Node000030"><a xlink:title=" ">
<path fill="none" stroke="#63b8ff" d="M519.91,-292.42C532.22,-287.94 544.75,-281.42 554,-272 586.8,-238.59 556.89,-206.11 590,-173 591.08,-171.92 592.21,-170.89 593.38,-169.91"/>
<polygon fill="#63b8ff" stroke="#63b8ff" points="595.53,-172.68 601.7,-164.06 591.5,-166.95 595.53,-172.68"/>
</a>
</g>
</g>
<!-- Node27 -->
<g id="Node000027" class="node">
<title>Node27</title>
<g id="a_Node000027"><a xlink:href="classRC__Channels.html#ae4e66c56cdd1eb498d22b52dffc687d6" target="_top" xlink:title=" ">
<polygon fill="white" stroke="#666666" points="1022,-537.5 870,-537.5 870,-518.5 1022,-518.5 1022,-537.5"/>
<text text-anchor="middle" x="946" y="-525.5" font-family="Helvetica,sans-Serif" font-size="10.00">RC_Channels::get_singleton</text>
</a>
</g>
</g>
<!-- Node26&#45;&gt;Node27 -->
<g id="edge29_Node000026_Node000027" class="edge">
<title>Node26&#45;&gt;Node27</title>
<g id="a_edge29_Node000026_Node000027"><a xlink:title=" ">
<path fill="none" stroke="#63b8ff" d="M811.57,-528C823.13,-528 840.83,-528 859.59,-528"/>
<polygon fill="#63b8ff" stroke="#63b8ff" points="859.78,-531.5 869.78,-528 859.78,-524.5 859.78,-531.5"/>
</a>
</g>
</g>
<!-- Node30&#45;&gt;Node26 -->
<g id="edge33_Node000030_Node000026" class="edge">
<title>Node30&#45;&gt;Node26</title>
<g id="a_edge33_Node000030_Node000026"><a xlink:title=" ">
<path fill="none" stroke="#63b8ff" d="M713.8,-164.14C717.58,-166.65 721.06,-169.58 724,-173 768.33,-224.46 789.11,-441.82 794.52,-508.48"/>
<polygon fill="#63b8ff" stroke="#63b8ff" points="791.04,-508.78 795.31,-518.48 798.01,-508.23 791.04,-508.78"/>
</a>
</g>
</g>
<!-- Node32 -->
<g id="Node000032" class="node">
<title>Node32</title>
<g id="a_Node000032"><a xlink:href="classAP__RCProtocol__Backend.html#ad5c966af4716976c9d9fe7356b9e2ee8" target="_top" xlink:title=" ">
<polygon fill="white" stroke="#666666" points="724,-912 590,-912 590,-882 724,-882 724,-912"/>
<text text-anchor="start" x="598" y="-900" font-family="Helvetica,sans-Serif" font-size="10.00">AP_RCProtocol_Backend</text>
<text text-anchor="middle" x="657" y="-889" font-family="Helvetica,sans-Serif" font-size="10.00">::process_handshake</text>
</a>
</g>
</g>
<!-- Node31&#45;&gt;Node32 -->
<g id="edge35_Node000031_Node000032" class="edge">
<title>Node31&#45;&gt;Node32</title>
<g id="a_edge35_Node000031_Node000032"><a xlink:title=" ">
<path fill="none" stroke="#63b8ff" d="M532.46,-864.06C550.72,-868.93 571.13,-874.37 590.02,-879.41"/>
<polygon fill="#63b8ff" stroke="#63b8ff" points="589.18,-882.8 599.74,-882 590.98,-876.04 589.18,-882.8"/>
</a>
</g>
</g>
<!-- Node33&#45;&gt;Node13 -->
<g id="edge39_Node000033_Node000013" class="edge">
<title>Node33&#45;&gt;Node13</title>
<g id="a_edge39_Node000033_Node000013"><a xlink:title=" ">
<path fill="none" stroke="#63b8ff" d="M537.69,-134.26C560.1,-128.91 585.11,-122.94 606.34,-117.86"/>
<polygon fill="#63b8ff" stroke="#63b8ff" points="607.2,-121.26 616.12,-115.53 605.58,-114.45 607.2,-121.26"/>
</a>
</g>
</g>
<!-- Node33&#45;&gt;Node30 -->
<g id="edge41_Node000033_Node000030" class="edge">
<title>Node33&#45;&gt;Node30</title>
<g id="a_edge41_Node000033_Node000030"><a xlink:title=" ">
<path fill="none" stroke="#63b8ff" d="M537.69,-149C552.41,-149 568.26,-149 583.41,-149"/>
<polygon fill="#63b8ff" stroke="#63b8ff" points="583.78,-152.5 593.78,-149 583.78,-145.5 583.78,-152.5"/>
</a>
</g>
</g>
<!-- Node34 -->
<g id="Node000034" class="node">
<title>Node34</title>
<g id="a_Node000034"><a xlink:href="classAP__RCProtocol__Backend.html#aef0ca89cc34d6db368498626bfdebf79" target="_top" xlink:title=" ">
<polygon fill="white" stroke="#666666" points="724,-78 590,-78 590,-48 724,-48 724,-78"/>
<text text-anchor="start" x="598" y="-66" font-family="Helvetica,sans-Serif" font-size="10.00">AP_RCProtocol_Backend</text>
<text text-anchor="middle" x="657" y="-55" font-family="Helvetica,sans-Serif" font-size="10.00">::new_input</text>
</a>
</g>
</g>
<!-- Node33&#45;&gt;Node34 -->
<g id="edge40_Node000033_Node000034" class="edge">
<title>Node33&#45;&gt;Node34</title>
<g id="a_edge40_Node000033_Node000034"><a xlink:title=" ">
<path fill="none" stroke="#63b8ff" d="M501.78,-133.97C524.57,-120.98 558.94,-102.12 590,-88 594.62,-85.9 599.48,-83.82 604.37,-81.82"/>
<polygon fill="#63b8ff" stroke="#63b8ff" points="605.78,-85.02 613.77,-78.07 603.18,-78.52 605.78,-85.02"/>
</a>
</g>
</g>
<!-- Node37 -->
<g id="Node000037" class="node">
<title>Node37</title>
<g id="a_Node000037"><a xlink:href="classAP__RCProtocol__Backend.html#a08288472b5d4b97e75995d65ad84962e" target="_top" xlink:title=" ">
<polygon fill="white" stroke="#666666" points="360,-78 226,-78 226,-48 360,-48 360,-78"/>
<text text-anchor="start" x="234" y="-66" font-family="Helvetica,sans-Serif" font-size="10.00">AP_RCProtocol_Backend</text>
<text text-anchor="middle" x="293" y="-55" font-family="Helvetica,sans-Serif" font-size="10.00">::num_channels</text>
</a>
</g>
</g>
<!-- Node36&#45;&gt;Node37 -->
<g id="edge45_Node000036_Node000037" class="edge">
<title>Node36&#45;&gt;Node37</title>
<g id="a_edge45_Node000036_Node000037"><a xlink:title=" ">
<path fill="none" stroke="#63b8ff" d="M172.6,-128.92C178.56,-126.2 184.53,-123.2 190,-120 207.49,-109.76 208.59,-102.38 226,-92 231.78,-88.56 238.04,-85.28 244.33,-82.25"/>
<polygon fill="#63b8ff" stroke="#63b8ff" points="245.9,-85.38 253.5,-78 242.96,-79.03 245.9,-85.38"/>
</a>
</g>
</g>
<!-- Node40 -->
<g id="Node000040" class="node">
<title>Node40</title>
<g id="a_Node000040"><a xlink:href="classAP__RCProtocol__Backend.html#aaeaed033483d5f9ed6f7ea7966bd28a6" target="_top" xlink:title=" ">
<polygon fill="white" stroke="#666666" points="360,-30 226,-30 226,0 360,0 360,-30"/>
<text text-anchor="start" x="234" y="-18" font-family="Helvetica,sans-Serif" font-size="10.00">AP_RCProtocol_Backend</text>
<text text-anchor="middle" x="293" y="-7" font-family="Helvetica,sans-Serif" font-size="10.00">::read</text>
</a>
</g>
</g>
<!-- Node39&#45;&gt;Node40 -->
<g id="edge49_Node000039_Node000040" class="edge">
<title>Node39&#45;&gt;Node40</title>
<g id="a_edge49_Node000039_Node000040"><a xlink:title=" ">
<path fill="none" stroke="#63b8ff" d="M190.4,-30.97C198.65,-29.68 207.24,-28.33 215.78,-26.98"/>
<polygon fill="#63b8ff" stroke="#63b8ff" points="216.43,-30.43 225.76,-25.41 215.34,-23.51 216.43,-30.43"/>
</a>
</g>
</g>
</g>
</svg>
