<?xml version="1.0" encoding="UTF-8" standalone="no"?>
<!DOCTYPE svg PUBLIC "-//W3C//DTD SVG 1.1//EN"
 "http://www.w3.org/Graphics/SVG/1.1/DTD/svg11.dtd">
<!-- Generated by graphviz version 2.43.0 (0)
 -->
<!-- Title: test_rotation_duplicates Pages: 1 -->
<svg width="577pt" height="76pt"
 viewBox="0.00 0.00 577.00 75.50" xmlns="http://www.w3.org/2000/svg" xmlns:xlink="http://www.w3.org/1999/xlink">
<g id="graph0" class="graph" transform="scale(1 1) rotate(0) translate(4 71.5)">
<title>test_rotation_duplicates</title>
<!-- Node1 -->
<g id="Node000001" class="node">
<title>Node1</title>
<g id="a_Node000001"><a xlink:title=" ">
<polygon fill="#999999" stroke="#666666" points="134,-40 0,-40 0,-21 134,-21 134,-40"/>
<text text-anchor="middle" x="67" y="-28" font-family="Helvetica,sans-Serif" font-size="10.00">test_rotation_duplicates</text>
</a>
</g>
</g>
<!-- Node2 -->
<g id="Node000002" class="node">
<title>Node2</title>
<g id="a_Node000002"><a xlink:href="classAP__HAL_1_1BetterStream.html#a8534aa004599bb81ad60f3e762791032" target="_top" xlink:title=" ">
<polygon fill="white" stroke="#666666" points="295,-67.5 170,-67.5 170,-37.5 295,-37.5 295,-67.5"/>
<text text-anchor="start" x="178" y="-55.5" font-family="Helvetica,sans-Serif" font-size="10.00">AP_HAL::BetterStream</text>
<text text-anchor="middle" x="232.5" y="-44.5" font-family="Helvetica,sans-Serif" font-size="10.00">::printf</text>
</a>
</g>
</g>
<!-- Node1&#45;&gt;Node2 -->
<g id="edge1_Node000001_Node000002" class="edge">
<title>Node1&#45;&gt;Node2</title>
<g id="a_edge1_Node000001_Node000002"><a xlink:title=" ">
<path fill="none" stroke="#63b8ff" d="M134.03,-39.38C142.57,-40.53 151.34,-41.71 159.96,-42.87"/>
<polygon fill="#63b8ff" stroke="#63b8ff" points="159.61,-46.36 169.98,-44.22 160.54,-39.42 159.61,-46.36"/>
</a>
</g>
</g>
<!-- Node5 -->
<g id="Node000005" class="node">
<title>Node5</title>
<g id="a_Node000005"><a xlink:href="AP__Math_8cpp.html#a5a71c9852ef387c42ccd45095930f099" target="_top" xlink:title=" ">
<polygon fill="white" stroke="#666666" points="276,-19 189,-19 189,0 276,0 276,-19"/>
<text text-anchor="middle" x="232.5" y="-7" font-family="Helvetica,sans-Serif" font-size="10.00">rotation_equal</text>
</a>
</g>
</g>
<!-- Node1&#45;&gt;Node5 -->
<g id="edge4_Node000001_Node000005" class="edge">
<title>Node1&#45;&gt;Node5</title>
<g id="a_edge4_Node000001_Node000005"><a xlink:title=" ">
<path fill="none" stroke="#63b8ff" d="M134.03,-22.02C148.86,-20.11 164.42,-18.12 178.63,-16.29"/>
<polygon fill="#63b8ff" stroke="#63b8ff" points="179.24,-19.74 188.72,-15 178.35,-12.8 179.24,-19.74"/>
</a>
</g>
</g>
<!-- Node3 -->
<g id="Node000003" class="node">
<title>Node3</title>
<g id="a_Node000003"><a xlink:href="classAP__HAL_1_1BetterStream.html#aa730be451d385d7ba03ee9677e6d91a2" target="_top" xlink:title=" ">
<polygon fill="white" stroke="#666666" points="456,-67.5 331,-67.5 331,-37.5 456,-37.5 456,-67.5"/>
<text text-anchor="start" x="339" y="-55.5" font-family="Helvetica,sans-Serif" font-size="10.00">AP_HAL::BetterStream</text>
<text text-anchor="middle" x="393.5" y="-44.5" font-family="Helvetica,sans-Serif" font-size="10.00">::vprintf</text>
</a>
</g>
</g>
<!-- Node2&#45;&gt;Node3 -->
<g id="edge2_Node000002_Node000003" class="edge">
<title>Node2&#45;&gt;Node3</title>
<g id="a_edge2_Node000002_Node000003"><a xlink:title=" ">
<path fill="none" stroke="#63b8ff" d="M295.43,-52.5C303.67,-52.5 312.18,-52.5 320.58,-52.5"/>
<polygon fill="#63b8ff" stroke="#63b8ff" points="320.74,-56 330.74,-52.5 320.74,-49 320.74,-56"/>
</a>
</g>
</g>
<!-- Node4 -->
<g id="Node000004" class="node">
<title>Node4</title>
<g id="a_Node000004"><a xlink:href="test__expandingstring__failure_8cpp.html#a98e0d5bb436a207f576379beaa786040" target="_top" xlink:title=" ">
<polygon fill="white" stroke="#666666" points="569,-62 492,-62 492,-43 569,-43 569,-62"/>
<text text-anchor="middle" x="530.5" y="-50" font-family="Helvetica,sans-Serif" font-size="10.00">print_vprintf</text>
</a>
</g>
</g>
<!-- Node3&#45;&gt;Node4 -->
<g id="edge3_Node000003_Node000004" class="edge">
<title>Node3&#45;&gt;Node4</title>
<g id="a_edge3_Node000003_Node000004"><a xlink:title=" ">
<path fill="none" stroke="#63b8ff" d="M456.07,-52.5C464.68,-52.5 473.41,-52.5 481.71,-52.5"/>
<polygon fill="#63b8ff" stroke="#63b8ff" points="481.95,-56 491.95,-52.5 481.95,-49 481.95,-56"/>
</a>
</g>
</g>
<!-- Node6 -->
<g id="Node000006" class="node">
<title>Node6</title>
<g id="a_Node000006"><a xlink:href="classVector3.html#aa89a62959f071f001dfe23dd58599d78" target="_top" xlink:title=" ">
<polygon fill="white" stroke="#666666" points="438,-19 349,-19 349,0 438,0 438,-19"/>
<text text-anchor="middle" x="393.5" y="-7" font-family="Helvetica,sans-Serif" font-size="10.00">Vector3::rotate</text>
</a>
</g>
</g>
<!-- Node5&#45;&gt;Node6 -->
<g id="edge5_Node000005_Node000006" class="edge">
<title>Node5&#45;&gt;Node6</title>
<g id="a_edge5_Node000005_Node000006"><a xlink:title=" ">
<path fill="none" stroke="#63b8ff" d="M276.11,-9.5C295.39,-9.5 318.39,-9.5 338.83,-9.5"/>
<polygon fill="#63b8ff" stroke="#63b8ff" points="338.94,-13 348.94,-9.5 338.94,-6 338.94,-13"/>
</a>
</g>
</g>
</g>
</svg>
