<?xml version="1.0" encoding="UTF-8" standalone="no"?>
<!DOCTYPE svg PUBLIC "-//W3C//DTD SVG 1.1//EN"
 "http://www.w3.org/Graphics/SVG/1.1/DTD/svg11.dtd">
<!-- Generated by graphviz version 2.43.0 (0)
 -->
<!-- Title: decodeServo_SetUserIdBPacket Pages: 1 -->
<svg width="357pt" height="138pt"
 viewBox="0.00 0.00 357.00 138.00" xmlns="http://www.w3.org/2000/svg" xmlns:xlink="http://www.w3.org/1999/xlink">
<g id="graph0" class="graph" transform="scale(1 1) rotate(0) translate(4 134)">
<title>decodeServo_SetUserIdBPacket</title>
<!-- Node1 -->
<g id="Node000001" class="node">
<title>Node1</title>
<g id="a_Node000001"><a xlink:title="Decode the Servo_SetUserIdB packet to parameters.">
<polygon fill="#999999" stroke="#666666" points="170,-74 0,-74 0,-55 170,-55 170,-74"/>
<text text-anchor="middle" x="85" y="-62" font-family="Helvetica,sans-Serif" font-size="10.00">decodeServo_SetUserIdBPacket</text>
</a>
</g>
</g>
<!-- Node2 -->
<g id="Node000002" class="node">
<title>Node2</title>
<g id="a_Node000002"><a xlink:href="ServoProtocol_8h.html#a4809c21fef31bb95c45891747e6273fb" target="_top" xlink:title=" ">
<polygon fill="white" stroke="#666666" points="349,-130 206,-130 206,-111 349,-111 349,-130"/>
<text text-anchor="middle" x="277.5" y="-118" font-family="Helvetica,sans-Serif" font-size="10.00">getServoPacketDataConst</text>
</a>
</g>
</g>
<!-- Node1&#45;&gt;Node2 -->
<g id="edge1_Node000001_Node000002" class="edge">
<title>Node1&#45;&gt;Node2</title>
<g id="a_edge1_Node000001_Node000002"><a xlink:title=" ">
<path fill="none" stroke="#63b8ff" d="M114.47,-74.02C138.7,-82 174.48,-93.49 206,-102.5 213.01,-104.5 220.45,-106.52 227.76,-108.44"/>
<polygon fill="#63b8ff" stroke="#63b8ff" points="227.05,-111.87 237.61,-110.99 228.8,-105.09 227.05,-111.87"/>
</a>
</g>
</g>
<!-- Node3 -->
<g id="Node000003" class="node">
<title>Node3</title>
<g id="a_Node000003"><a xlink:href="ServoProtocol_8h.html#af90c323f7e7e1594ff058a3fdc34170b" target="_top" xlink:title=" ">
<polygon fill="white" stroke="#666666" points="328.5,-93 226.5,-93 226.5,-74 328.5,-74 328.5,-93"/>
<text text-anchor="middle" x="277.5" y="-81" font-family="Helvetica,sans-Serif" font-size="10.00">getServoPacketID</text>
</a>
</g>
</g>
<!-- Node1&#45;&gt;Node3 -->
<g id="edge2_Node000001_Node000003" class="edge">
<title>Node1&#45;&gt;Node3</title>
<g id="a_edge2_Node000001_Node000003"><a xlink:title=" ">
<path fill="none" stroke="#63b8ff" d="M170.11,-72.89C185.74,-74.45 201.78,-76.05 216.5,-77.52"/>
<polygon fill="#63b8ff" stroke="#63b8ff" points="216.17,-81 226.47,-78.51 216.86,-74.03 216.17,-81"/>
</a>
</g>
</g>
<!-- Node4 -->
<g id="Node000004" class="node">
<title>Node4</title>
<g id="a_Node000004"><a xlink:href="ServoProtocol_8h.html#addefd8a5b142b4d87f72de4398a33cb7" target="_top" xlink:title=" ">
<polygon fill="white" stroke="#666666" points="333.5,-56 221.5,-56 221.5,-37 333.5,-37 333.5,-56"/>
<text text-anchor="middle" x="277.5" y="-44" font-family="Helvetica,sans-Serif" font-size="10.00">getServoPacketSize</text>
</a>
</g>
</g>
<!-- Node1&#45;&gt;Node4 -->
<g id="edge3_Node000001_Node000004" class="edge">
<title>Node1&#45;&gt;Node4</title>
<g id="a_edge3_Node000001_Node000004"><a xlink:title=" ">
<path fill="none" stroke="#63b8ff" d="M170.11,-56.55C183.93,-55.25 198.07,-53.91 211.34,-52.66"/>
<polygon fill="#63b8ff" stroke="#63b8ff" points="211.67,-56.14 221.3,-51.72 211.01,-49.17 211.67,-56.14"/>
</a>
</g>
</g>
<!-- Node5 -->
<g id="Node000005" class="node">
<title>Node5</title>
<g id="a_Node000005"><a xlink:href="fielddecode_8c.html#a8b5c15737178cc13f5b9446fa5dcb67f" target="_top" xlink:title="Decode a unsigned 2 byte integer from a big endian byte stream.">
<polygon fill="white" stroke="#666666" points="334,-19 221,-19 221,0 334,0 334,-19"/>
<text text-anchor="middle" x="277.5" y="-7" font-family="Helvetica,sans-Serif" font-size="10.00">uint16FromBeBytes</text>
</a>
</g>
</g>
<!-- Node1&#45;&gt;Node5 -->
<g id="edge4_Node000001_Node000005" class="edge">
<title>Node1&#45;&gt;Node5</title>
<g id="a_edge4_Node000001_Node000005"><a xlink:title=" ">
<path fill="none" stroke="#63b8ff" d="M117.01,-54.94C141.2,-47.54 175.67,-37.14 206,-28.5 213.89,-26.25 222.29,-23.93 230.45,-21.71"/>
<polygon fill="#63b8ff" stroke="#63b8ff" points="231.48,-25.06 240.22,-19.07 229.65,-18.3 231.48,-25.06"/>
</a>
</g>
</g>
</g>
</svg>
