<?xml version="1.0" encoding="UTF-8" standalone="no"?>
<!DOCTYPE svg PUBLIC "-//W3C//DTD SVG 1.1//EN"
 "http://www.w3.org/Graphics/SVG/1.1/DTD/svg11.dtd">
<!-- Generated by graphviz version 2.43.0 (0)
 -->
<!-- Title: decodeServo_StatusCPacket Pages: 1 -->
<svg width="341pt" height="138pt"
 viewBox="0.00 0.00 341.00 138.00" xmlns="http://www.w3.org/2000/svg" xmlns:xlink="http://www.w3.org/1999/xlink">

<svg id="main" version="1.1" xmlns="http://www.w3.org/2000/svg" xmlns:xlink="http://www.w3.org/1999/xlink" xml:space="preserve" onload="init(evt)">
<style type="text/css"><![CDATA[
.node, .edge {opacity: 0.7;}
.node.selected, .edge.selected {opacity: 1;}
.edge:hover path { stroke: red; }
.edge:hover polygon { stroke: red; fill: red; }
]]></style>
<script type="application/ecmascript" xlink:href="svg.min.js"/>
<svg id="graph" class="graph">
<g id="graph0" class="graph" transform="scale(1 1) rotate(0) translate(4 134)">
<title>decodeServo_StatusCPacket</title>
<!-- Node1 -->
<g id="Node000001" class="node">
<title>Node1</title>
<g id="a_Node000001"><a xlink:title="Decode the Servo_StatusC packet.">
<polygon fill="#999999" stroke="#666666" points="154,-74 0,-74 0,-55 154,-55 154,-74"/>
<text text-anchor="middle" x="77" y="-62" font-family="Helvetica,sans-Serif" font-size="10.00">decodeServo_StatusCPacket</text>
</a>
</g>
</g>
<!-- Node2 -->
<g id="Node000002" class="node">
<title>Node2</title>
<g id="a_Node000002"><a xlink:href="ServoProtocol_8h.html#a4809c21fef31bb95c45891747e6273fb" target="_top" xlink:title=" ">
<polygon fill="white" stroke="#666666" points="333,-130 190,-130 190,-111 333,-111 333,-130"/>
<text text-anchor="middle" x="261.5" y="-118" font-family="Helvetica,sans-Serif" font-size="10.00">getServoPacketDataConst</text>
</a>
</g>
</g>
<!-- Node1&#45;&gt;Node2 -->
<g id="edge1_Node000001_Node000002" class="edge">
<title>Node1&#45;&gt;Node2</title>
<g id="a_edge1_Node000001_Node000002"><a xlink:title=" ">
<path fill="none" stroke="#63b8ff" d="M104.52,-74.14C127.1,-82.2 160.47,-93.74 190,-102.5 196.67,-104.48 203.74,-106.44 210.72,-108.3"/>
<polygon fill="#63b8ff" stroke="#63b8ff" points="210.27,-111.8 220.83,-110.94 212.04,-105.03 210.27,-111.8"/>
</a>
</g>
</g>
<!-- Node3 -->
<g id="Node000003" class="node">
<title>Node3</title>
<g id="a_Node000003"><a xlink:href="ServoProtocol_8h.html#af90c323f7e7e1594ff058a3fdc34170b" target="_top" xlink:title=" ">
<polygon fill="white" stroke="#666666" points="312.5,-93 210.5,-93 210.5,-74 312.5,-74 312.5,-93"/>
<text text-anchor="middle" x="261.5" y="-81" font-family="Helvetica,sans-Serif" font-size="10.00">getServoPacketID</text>
</a>
</g>
</g>
<!-- Node1&#45;&gt;Node3 -->
<g id="edge2_Node000001_Node000003" class="edge">
<title>Node1&#45;&gt;Node3</title>
<g id="a_edge2_Node000001_Node000003"><a xlink:title=" ">
<path fill="none" stroke="#63b8ff" d="M154.07,-72.42C169.49,-74.03 185.5,-75.69 200.28,-77.23"/>
<polygon fill="#63b8ff" stroke="#63b8ff" points="199.98,-80.72 210.29,-78.27 200.71,-73.76 199.98,-80.72"/>
</a>
</g>
</g>
<!-- Node4 -->
<g id="Node000004" class="node">
<title>Node4</title>
<g id="a_Node000004"><a xlink:href="ServoProtocol_8h.html#addefd8a5b142b4d87f72de4398a33cb7" target="_top" xlink:title=" ">
<polygon fill="white" stroke="#666666" points="317.5,-56 205.5,-56 205.5,-37 317.5,-37 317.5,-56"/>
<text text-anchor="middle" x="261.5" y="-44" font-family="Helvetica,sans-Serif" font-size="10.00">getServoPacketSize</text>
</a>
</g>
</g>
<!-- Node1&#45;&gt;Node4 -->
<g id="edge3_Node000001_Node000004" class="edge">
<title>Node1&#45;&gt;Node4</title>
<g id="a_edge3_Node000001_Node000004"><a xlink:title=" ">
<path fill="none" stroke="#63b8ff" d="M154.07,-57C167.79,-55.64 181.98,-54.24 195.35,-52.93"/>
<polygon fill="#63b8ff" stroke="#63b8ff" points="195.79,-56.4 205.4,-51.93 195.1,-49.43 195.79,-56.4"/>
</a>
</g>
</g>
<!-- Node5 -->
<g id="Node000005" class="node">
<title>Node5</title>
<g id="a_Node000005"><a xlink:href="fielddecode_8c.html#a9510f7764bfba0af39db219516c7bec6" target="_top" xlink:title="Decode a signed 2 byte integer from a big endian byte stream.">
<polygon fill="white" stroke="#666666" points="315,-19 208,-19 208,0 315,0 315,-19"/>
<text text-anchor="middle" x="261.5" y="-7" font-family="Helvetica,sans-Serif" font-size="10.00">int16FromBeBytes</text>
</a>
</g>
</g>
<!-- Node1&#45;&gt;Node5 -->
<g id="edge4_Node000001_Node000005" class="edge">
<title>Node1&#45;&gt;Node5</title>
<g id="a_edge4_Node000001_Node000005"><a xlink:title=" ">
<path fill="none" stroke="#63b8ff" d="M106.42,-54.95C128.99,-47.47 161.4,-36.94 190,-28.5 197.78,-26.2 206.07,-23.87 214.14,-21.66"/>
<polygon fill="#63b8ff" stroke="#63b8ff" points="215.08,-25.03 223.82,-19.03 213.25,-18.27 215.08,-25.03"/>
</a>
</g>
</g>
</g>
</svg>
</svg>

<style type='text/css'>
<![CDATA[
[data-mouse-over-selected='false'] { opacity: 0.7; }
[data-mouse-over-selected='true']  { opacity: 1.0; }
]]>
</style>
<script type="application/ecmascript"><![CDATA[
document.addEventListener('DOMContentLoaded', (event) => {
  highlightEdges();
  highlightAdjacentNodes();
});
]]></script>
</svg>
