<?xml version="1.0" encoding="UTF-8" standalone="no"?>
<!DOCTYPE svg PUBLIC "-//W3C//DTD SVG 1.1//EN"
 "http://www.w3.org/Graphics/SVG/1.1/DTD/svg11.dtd">
<!-- Generated by graphviz version 2.43.0 (0)
 -->
<!-- Title: libraries/SITL/SIM_PS_LightWare_SF45B.h Pages: 1 -->
<svg width="1350pt" height="500pt"
 viewBox="0.00 0.00 1349.50 500.00" xmlns="http://www.w3.org/2000/svg" xmlns:xlink="http://www.w3.org/1999/xlink">
<g id="graph0" class="graph" transform="scale(1 1) rotate(0) translate(4 496)">
<title>libraries/SITL/SIM_PS_LightWare_SF45B.h</title>
<!-- Node1 -->
<g id="Node000001" class="node">
<title>Node1</title>
<g id="a_Node000001"><a xlink:title=" ">
<polygon fill="#999999" stroke="#666666" points="1262,-492 1129,-492 1129,-462 1262,-462 1262,-492"/>
<text text-anchor="start" x="1137" y="-480" font-family="Helvetica,sans-Serif" font-size="10.00">libraries/SITL/SIM</text>
<text text-anchor="middle" x="1195.5" y="-469" font-family="Helvetica,sans-Serif" font-size="10.00">_PS_LightWare_SF45B.h</text>
</a>
</g>
</g>
<!-- Node2 -->
<g id="Node000002" class="node">
<title>Node2</title>
<g id="a_Node000002"><a xlink:href="SIM__PS__LightWare_8h.html" target="_top" xlink:title=" ">
<polygon fill="white" stroke="#666666" points="750,-426 635,-426 635,-407 750,-407 750,-426"/>
<text text-anchor="middle" x="692.5" y="-414" font-family="Helvetica,sans-Serif" font-size="10.00">SIM_PS_LightWare.h</text>
</a>
</g>
</g>
<!-- Node1&#45;&gt;Node2 -->
<g id="edge1_Node000001_Node000002" class="edge">
<title>Node1&#45;&gt;Node2</title>
<g id="a_edge1_Node000001_Node000002"><a xlink:title=" ">
<path fill="none" stroke="#63b8ff" d="M1128.97,-468.26C1033.03,-457.1 856.81,-436.61 760.22,-425.38"/>
<polygon fill="#63b8ff" stroke="#63b8ff" points="760.61,-421.9 750.28,-424.22 759.8,-428.85 760.61,-421.9"/>
</a>
</g>
</g>
<!-- Node28 -->
<g id="Node000028" class="node">
<title>Node28</title>
<g id="a_Node000028"><a xlink:href="crc_8h.html" target="_top" xlink:title=" ">
<polygon fill="white" stroke="#666666" points="1341.5,-426 1255.5,-426 1255.5,-407 1341.5,-407 1341.5,-426"/>
<text text-anchor="middle" x="1298.5" y="-414" font-family="Helvetica,sans-Serif" font-size="10.00">AP_Math/crc.h</text>
</a>
</g>
</g>
<!-- Node1&#45;&gt;Node28 -->
<g id="edge36_Node000001_Node000028" class="edge">
<title>Node1&#45;&gt;Node28</title>
<g id="a_edge36_Node000001_Node000028"><a xlink:title=" ">
<path fill="none" stroke="#63b8ff" d="M1220.17,-461.99C1236.59,-452.66 1258.05,-440.47 1274.36,-431.21"/>
<polygon fill="#63b8ff" stroke="#63b8ff" points="1276.32,-434.12 1283.29,-426.14 1272.87,-428.03 1276.32,-434.12"/>
</a>
</g>
</g>
<!-- Node29 -->
<g id="Node000029" class="node">
<title>Node29</title>
<g id="a_Node000029"><a xlink:href="AP__InternalError_8h.html" target="_top" xlink:title=" ">
<polygon fill="white" stroke="#666666" points="1251,-261 1140,-261 1140,-231 1251,-231 1251,-261"/>
<text text-anchor="start" x="1148" y="-249" font-family="Helvetica,sans-Serif" font-size="10.00">AP_InternalError/AP</text>
<text text-anchor="middle" x="1195.5" y="-238" font-family="Helvetica,sans-Serif" font-size="10.00">_InternalError.h</text>
</a>
</g>
</g>
<!-- Node1&#45;&gt;Node29 -->
<g id="edge38_Node000001_Node000029" class="edge">
<title>Node1&#45;&gt;Node29</title>
<g id="a_edge38_Node000001_Node000029"><a xlink:title=" ">
<path fill="none" stroke="#63b8ff" d="M1195.5,-461.68C1195.5,-423.43 1195.5,-318.61 1195.5,-271.04"/>
<polygon fill="#63b8ff" stroke="#63b8ff" points="1199,-271.03 1195.5,-261.03 1192,-271.03 1199,-271.03"/>
</a>
</g>
</g>
<!-- Node3 -->
<g id="Node000003" class="node">
<title>Node3</title>
<g id="a_Node000003"><a xlink:href="SIM__SerialProximitySensor_8h.html" target="_top" xlink:title=" ">
<polygon fill="white" stroke="#666666" points="770.5,-371 614.5,-371 614.5,-352 770.5,-352 770.5,-371"/>
<text text-anchor="middle" x="692.5" y="-359" font-family="Helvetica,sans-Serif" font-size="10.00">SIM_SerialProximitySensor.h</text>
</a>
</g>
</g>
<!-- Node2&#45;&gt;Node3 -->
<g id="edge2_Node000002_Node000003" class="edge">
<title>Node2&#45;&gt;Node3</title>
<g id="a_edge2_Node000002_Node000003"><a xlink:title=" ">
<path fill="none" stroke="#63b8ff" d="M692.5,-406.75C692.5,-399.8 692.5,-389.85 692.5,-381.13"/>
<polygon fill="#63b8ff" stroke="#63b8ff" points="696,-381.09 692.5,-371.09 689,-381.09 696,-381.09"/>
</a>
</g>
</g>
<!-- Node25 -->
<g id="Node000025" class="node">
<title>Node25</title>
<g id="a_Node000025"><a xlink:href="stdio_8h.html" target="_top" xlink:title=" ">
<polygon fill="white" stroke="#666666" points="335.5,-371 285.5,-371 285.5,-352 335.5,-352 335.5,-371"/>
<text text-anchor="middle" x="310.5" y="-359" font-family="Helvetica,sans-Serif" font-size="10.00">stdio.h</text>
</a>
</g>
</g>
<!-- Node2&#45;&gt;Node25 -->
<g id="edge32_Node000002_Node000025" class="edge">
<title>Node2&#45;&gt;Node25</title>
<g id="a_edge32_Node000002_Node000025"><a xlink:title=" ">
<path fill="none" stroke="#63b8ff" d="M634.9,-407.51C554.74,-396.39 411.97,-376.58 345.88,-367.41"/>
<polygon fill="#63b8ff" stroke="#63b8ff" points="345.96,-363.89 335.57,-365.98 345,-370.82 345.96,-363.89"/>
</a>
</g>
</g>
<!-- Node4 -->
<g id="Node000004" class="node">
<title>Node4</title>
<g id="a_Node000004"><a xlink:href="SIM__config_8h.html" target="_top" xlink:title=" ">
<polygon fill="white" stroke="#666666" points="865.5,-316 787.5,-316 787.5,-297 865.5,-297 865.5,-316"/>
<text text-anchor="middle" x="826.5" y="-304" font-family="Helvetica,sans-Serif" font-size="10.00">SIM_config.h</text>
</a>
</g>
</g>
<!-- Node3&#45;&gt;Node4 -->
<g id="edge3_Node000003_Node000004" class="edge">
<title>Node3&#45;&gt;Node4</title>
<g id="a_edge3_Node000003_Node000004"><a xlink:title=" ">
<path fill="none" stroke="#63b8ff" d="M714.03,-351.98C735.97,-343.3 770.24,-329.75 795.19,-319.88"/>
<polygon fill="#63b8ff" stroke="#63b8ff" points="796.57,-323.1 804.58,-316.17 793.99,-316.59 796.57,-323.1"/>
</a>
</g>
</g>
<!-- Node9 -->
<g id="Node000009" class="node">
<title>Node9</title>
<g id="a_Node000009"><a xlink:href="SIM__Aircraft_8h.html" target="_top" xlink:title=" ">
<polygon fill="white" stroke="#666666" points="769.5,-316 685.5,-316 685.5,-297 769.5,-297 769.5,-316"/>
<text text-anchor="middle" x="727.5" y="-304" font-family="Helvetica,sans-Serif" font-size="10.00">SIM_Aircraft.h</text>
</a>
</g>
</g>
<!-- Node3&#45;&gt;Node9 -->
<g id="edge11_Node000003_Node000009" class="edge">
<title>Node3&#45;&gt;Node9</title>
<g id="a_edge11_Node000003_Node000009"><a xlink:title=" ">
<path fill="none" stroke="#63b8ff" d="M698.28,-351.75C703.12,-344.42 710.18,-333.73 716.14,-324.7"/>
<polygon fill="#63b8ff" stroke="#63b8ff" points="719.24,-326.36 721.83,-316.09 713.4,-322.5 719.24,-326.36"/>
</a>
</g>
</g>
<!-- Node10 -->
<g id="Node000010" class="node">
<title>Node10</title>
<g id="a_Node000010"><a xlink:href="SITL_8h.html" target="_top" xlink:title=" ">
<polygon fill="white" stroke="#666666" points="692,-255.5 623,-255.5 623,-236.5 692,-236.5 692,-255.5"/>
<text text-anchor="middle" x="657.5" y="-243.5" font-family="Helvetica,sans-Serif" font-size="10.00">SITL/SITL.h</text>
</a>
</g>
</g>
<!-- Node3&#45;&gt;Node10 -->
<g id="edge12_Node000003_Node000010" class="edge">
<title>Node3&#45;&gt;Node10</title>
<g id="a_edge12_Node000003_Node000010"><a xlink:title=" ">
<path fill="none" stroke="#63b8ff" d="M689.11,-351.7C685.73,-342.77 680.47,-328.52 676.5,-316 671.11,-298.99 665.79,-279.35 662.15,-265.38"/>
<polygon fill="#63b8ff" stroke="#63b8ff" points="665.51,-264.38 659.63,-255.56 658.73,-266.12 665.51,-264.38"/>
</a>
</g>
</g>
<!-- Node11 -->
<g id="Node000011" class="node">
<title>Node11</title>
<g id="a_Node000011"><a xlink:href="SIM__SerialDevice_8h.html" target="_top" xlink:title=" ">
<polygon fill="white" stroke="#666666" points="629.5,-316 519.5,-316 519.5,-297 629.5,-297 629.5,-316"/>
<text text-anchor="middle" x="574.5" y="-304" font-family="Helvetica,sans-Serif" font-size="10.00">SIM_SerialDevice.h</text>
</a>
</g>
</g>
<!-- Node3&#45;&gt;Node11 -->
<g id="edge14_Node000003_Node000011" class="edge">
<title>Node3&#45;&gt;Node11</title>
<g id="a_edge14_Node000003_Node000011"><a xlink:title=" ">
<path fill="none" stroke="#63b8ff" d="M673.54,-351.98C654.47,-343.42 624.84,-330.11 602.95,-320.28"/>
<polygon fill="#63b8ff" stroke="#63b8ff" points="604.36,-317.07 593.8,-316.17 601.49,-323.46 604.36,-317.07"/>
</a>
</g>
</g>
<!-- Node5 -->
<g id="Node000005" class="node">
<title>Node5</title>
<g id="a_Node000005"><a xlink:href="AP__HAL__Boards_8h.html" target="_top" xlink:title=" ">
<polygon fill="white" stroke="#666666" points="839,-129 696,-129 696,-110 839,-110 839,-129"/>
<text text-anchor="middle" x="767.5" y="-117" font-family="Helvetica,sans-Serif" font-size="10.00">AP_HAL/AP_HAL_Boards.h</text>
</a>
</g>
</g>
<!-- Node4&#45;&gt;Node5 -->
<g id="edge4_Node000004_Node000005" class="edge">
<title>Node4&#45;&gt;Node5</title>
<g id="a_edge4_Node000004_Node000005"><a xlink:title=" ">
<path fill="none" stroke="#63b8ff" d="M815.87,-296.89C795.96,-279.94 753.86,-239.98 740.5,-195 736.7,-182.22 736.91,-177.84 740.5,-165 743.26,-155.12 748.89,-145.25 754.29,-137.32"/>
<polygon fill="#63b8ff" stroke="#63b8ff" points="757.28,-139.17 760.35,-129.03 751.63,-135.04 757.28,-139.17"/>
</a>
</g>
</g>
<!-- Node6 -->
<g id="Node000006" class="node">
<title>Node6</title>
<g id="a_Node000006"><a xlink:href="GCS__config_8h.html" target="_top" xlink:title=" ">
<polygon fill="white" stroke="#666666" points="943,-255.5 792,-255.5 792,-236.5 943,-236.5 943,-255.5"/>
<text text-anchor="middle" x="867.5" y="-243.5" font-family="Helvetica,sans-Serif" font-size="10.00">GCS_MAVLink/GCS_config.h</text>
</a>
</g>
</g>
<!-- Node4&#45;&gt;Node6 -->
<g id="edge5_Node000004_Node000006" class="edge">
<title>Node4&#45;&gt;Node6</title>
<g id="a_edge5_Node000004_Node000006"><a xlink:title=" ">
<path fill="none" stroke="#63b8ff" d="M832.55,-296.87C838.61,-288.23 848.09,-274.7 855.64,-263.92"/>
<polygon fill="#63b8ff" stroke="#63b8ff" points="858.55,-265.87 861.43,-255.67 852.82,-261.85 858.55,-265.87"/>
</a>
</g>
</g>
<!-- Node6&#45;&gt;Node5 -->
<g id="edge6_Node000006_Node000005" class="edge">
<title>Node6&#45;&gt;Node5</title>
<g id="a_edge6_Node000006_Node000005"><a xlink:title=" ">
<path fill="none" stroke="#63b8ff" d="M874.26,-236.26C885.47,-220.63 905.19,-187.42 889.5,-165 878.33,-149.03 860.79,-138.78 842.46,-132.19"/>
<polygon fill="#63b8ff" stroke="#63b8ff" points="843.43,-128.83 832.84,-129.07 841.27,-135.48 843.43,-128.83"/>
</a>
</g>
</g>
<!-- Node7 -->
<g id="Node000007" class="node">
<title>Node7</title>
<g id="a_Node000007"><a xlink:href="AP__Relay__config_8h.html" target="_top" xlink:title=" ">
<polygon fill="white" stroke="#666666" points="1092,-189.5 937,-189.5 937,-170.5 1092,-170.5 1092,-189.5"/>
<text text-anchor="middle" x="1014.5" y="-177.5" font-family="Helvetica,sans-Serif" font-size="10.00">AP_Relay/AP_Relay_config.h</text>
</a>
</g>
</g>
<!-- Node6&#45;&gt;Node7 -->
<g id="edge7_Node000006_Node000007" class="edge">
<title>Node6&#45;&gt;Node7</title>
<g id="a_edge7_Node000006_Node000007"><a xlink:title=" ">
<path fill="none" stroke="#63b8ff" d="M887.33,-236.37C912.53,-225.39 956.26,-206.36 985.29,-193.72"/>
<polygon fill="#63b8ff" stroke="#63b8ff" points="986.75,-196.9 994.52,-189.7 983.95,-190.48 986.75,-196.9"/>
</a>
</g>
</g>
<!-- Node8 -->
<g id="Node000008" class="node">
<title>Node8</title>
<g id="a_Node000008"><a xlink:href="AP__Mission__config_8h.html" target="_top" xlink:title=" ">
<polygon fill="white" stroke="#666666" points="880,-195 749,-195 749,-165 880,-165 880,-195"/>
<text text-anchor="start" x="757" y="-183" font-family="Helvetica,sans-Serif" font-size="10.00">AP_Mission/AP_Mission</text>
<text text-anchor="middle" x="814.5" y="-172" font-family="Helvetica,sans-Serif" font-size="10.00">_config.h</text>
</a>
</g>
</g>
<!-- Node6&#45;&gt;Node8 -->
<g id="edge9_Node000006_Node000008" class="edge">
<title>Node6&#45;&gt;Node8</title>
<g id="a_edge9_Node000006_Node000008"><a xlink:title=" ">
<path fill="none" stroke="#63b8ff" d="M860.35,-236.37C853.35,-227.91 842.38,-214.67 832.93,-203.25"/>
<polygon fill="#63b8ff" stroke="#63b8ff" points="835.47,-200.83 826.39,-195.36 830.07,-205.29 835.47,-200.83"/>
</a>
</g>
</g>
<!-- Node7&#45;&gt;Node5 -->
<g id="edge8_Node000007_Node000005" class="edge">
<title>Node7&#45;&gt;Node5</title>
<g id="a_edge8_Node000007_Node000005"><a xlink:title=" ">
<path fill="none" stroke="#63b8ff" d="M978.58,-170.49C934.86,-160.14 860.97,-142.64 813.23,-131.33"/>
<polygon fill="#63b8ff" stroke="#63b8ff" points="814,-127.92 803.46,-129.02 812.38,-134.73 814,-127.92"/>
</a>
</g>
</g>
<!-- Node8&#45;&gt;Node5 -->
<g id="edge10_Node000008_Node000005" class="edge">
<title>Node8&#45;&gt;Node5</title>
<g id="a_edge10_Node000008_Node000005"><a xlink:title=" ">
<path fill="none" stroke="#63b8ff" d="M803.12,-164.84C796.44,-156.52 787.95,-145.96 780.94,-137.23"/>
<polygon fill="#63b8ff" stroke="#63b8ff" points="783.53,-134.87 774.54,-129.27 778.08,-139.25 783.53,-134.87"/>
</a>
</g>
</g>
<!-- Node10&#45;&gt;Node5 -->
<g id="edge13_Node000010_Node000005" class="edge">
<title>Node10&#45;&gt;Node5</title>
<g id="a_edge13_Node000010_Node000005"><a xlink:title=" ">
<path fill="none" stroke="#63b8ff" d="M661.41,-236.33C668.69,-220.8 685.52,-187.75 706.5,-165 717.34,-153.25 731.69,-142.6 743.75,-134.67"/>
<polygon fill="#63b8ff" stroke="#63b8ff" points="745.86,-137.47 752.43,-129.15 742.11,-131.56 745.86,-137.47"/>
</a>
</g>
</g>
<!-- Node12 -->
<g id="Node000012" class="node">
<title>Node12</title>
<g id="a_Node000012"><a xlink:title=" ">
<polygon fill="#e0e0e0" stroke="#999999" points="604.5,-255.5 548.5,-255.5 548.5,-236.5 604.5,-236.5 604.5,-255.5"/>
<text text-anchor="middle" x="576.5" y="-243.5" font-family="Helvetica,sans-Serif" font-size="10.00">unistd.h</text>
</a>
</g>
</g>
<!-- Node11&#45;&gt;Node12 -->
<g id="edge15_Node000011_Node000012" class="edge">
<title>Node11&#45;&gt;Node12</title>
<g id="a_edge15_Node000011_Node000012"><a xlink:title=" ">
<path fill="none" stroke="#63b8ff" d="M574.8,-296.87C575.07,-288.75 575.5,-276.31 575.85,-265.89"/>
<polygon fill="#63b8ff" stroke="#63b8ff" points="579.36,-265.78 576.2,-255.67 572.36,-265.54 579.36,-265.78"/>
</a>
</g>
</g>
<!-- Node13 -->
<g id="Node000013" class="node">
<title>Node13</title>
<g id="a_Node000013"><a xlink:href="RingBuffer_8h.html" target="_top" xlink:title=" ">
<polygon fill="white" stroke="#666666" points="530.5,-255.5 382.5,-255.5 382.5,-236.5 530.5,-236.5 530.5,-255.5"/>
<text text-anchor="middle" x="456.5" y="-243.5" font-family="Helvetica,sans-Serif" font-size="10.00">AP_HAL/utility/RingBuffer.h</text>
</a>
</g>
</g>
<!-- Node11&#45;&gt;Node13 -->
<g id="edge16_Node000011_Node000013" class="edge">
<title>Node11&#45;&gt;Node13</title>
<g id="a_edge16_Node000011_Node000013"><a xlink:title=" ">
<path fill="none" stroke="#63b8ff" d="M557.34,-296.99C537.77,-287.29 505.53,-271.31 482.78,-260.03"/>
<polygon fill="#63b8ff" stroke="#63b8ff" points="484.19,-256.82 473.68,-255.52 481.08,-263.09 484.19,-256.82"/>
</a>
</g>
</g>
<!-- Node13&#45;&gt;Node5 -->
<g id="edge19_Node000013_Node000005" class="edge">
<title>Node13&#45;&gt;Node5</title>
<g id="a_edge19_Node000013_Node000005"><a xlink:title=" ">
<path fill="none" stroke="#63b8ff" d="M490.7,-236.43C524.29,-227.58 576.73,-212.61 620.5,-195 626.66,-192.52 701.17,-154.47 741.67,-133.73"/>
<polygon fill="#63b8ff" stroke="#63b8ff" points="743.4,-136.78 750.71,-129.11 740.21,-130.55 743.4,-136.78"/>
</a>
</g>
</g>
<!-- Node14 -->
<g id="Node000014" class="node">
<title>Node14</title>
<g id="a_Node000014"><a xlink:title=" ">
<polygon fill="#e0e0e0" stroke="#999999" points="578.5,-189.5 528.5,-189.5 528.5,-170.5 578.5,-170.5 578.5,-189.5"/>
<text text-anchor="middle" x="553.5" y="-177.5" font-family="Helvetica,sans-Serif" font-size="10.00">atomic</text>
</a>
</g>
</g>
<!-- Node13&#45;&gt;Node14 -->
<g id="edge17_Node000013_Node000014" class="edge">
<title>Node13&#45;&gt;Node14</title>
<g id="a_edge17_Node000013_Node000014"><a xlink:title=" ">
<path fill="none" stroke="#63b8ff" d="M469.58,-236.37C485.56,-225.82 512.83,-207.84 531.93,-195.23"/>
<polygon fill="#63b8ff" stroke="#63b8ff" points="533.9,-198.13 540.32,-189.7 530.04,-192.28 533.9,-198.13"/>
</a>
</g>
</g>
<!-- Node15 -->
<g id="Node000015" class="node">
<title>Node15</title>
<g id="a_Node000015"><a xlink:title=" ">
<polygon fill="#e0e0e0" stroke="#999999" points="633,-74 580,-74 580,-55 633,-55 633,-74"/>
<text text-anchor="middle" x="606.5" y="-62" font-family="Helvetica,sans-Serif" font-size="10.00">stdint.h</text>
</a>
</g>
</g>
<!-- Node13&#45;&gt;Node15 -->
<g id="edge18_Node000013_Node000015" class="edge">
<title>Node13&#45;&gt;Node15</title>
<g id="a_edge18_Node000013_Node000015"><a xlink:title=" ">
<path fill="none" stroke="#63b8ff" d="M514.66,-236.44C540.79,-229.57 569.68,-217.22 587.5,-195 613.12,-163.05 612.08,-111.89 609.22,-84.41"/>
<polygon fill="#63b8ff" stroke="#63b8ff" points="612.66,-83.7 607.96,-74.21 605.72,-84.57 612.66,-83.7"/>
</a>
</g>
</g>
<!-- Node16 -->
<g id="Node000016" class="node">
<title>Node16</title>
<g id="a_Node000016"><a xlink:href="AP__HAL__Macros_8h.html" target="_top" xlink:title=" ">
<polygon fill="white" stroke="#666666" points="510.5,-189.5 366.5,-189.5 366.5,-170.5 510.5,-170.5 510.5,-189.5"/>
<text text-anchor="middle" x="438.5" y="-177.5" font-family="Helvetica,sans-Serif" font-size="10.00">AP_HAL/AP_HAL_Macros.h</text>
</a>
</g>
</g>
<!-- Node13&#45;&gt;Node16 -->
<g id="edge20_Node000013_Node000016" class="edge">
<title>Node13&#45;&gt;Node16</title>
<g id="a_edge20_Node000013_Node000016"><a xlink:title=" ">
<path fill="none" stroke="#63b8ff" d="M454.07,-236.37C451.46,-227.07 447.21,-211.98 443.82,-199.9"/>
<polygon fill="#63b8ff" stroke="#63b8ff" points="447.08,-198.58 441,-189.91 440.34,-200.48 447.08,-198.58"/>
</a>
</g>
</g>
<!-- Node18 -->
<g id="Node000018" class="node">
<title>Node18</title>
<g id="a_Node000018"><a xlink:href="AP__HAL_2Semaphores_8h.html" target="_top" xlink:title=" ">
<polygon fill="white" stroke="#666666" points="297,-189.5 170,-189.5 170,-170.5 297,-170.5 297,-189.5"/>
<text text-anchor="middle" x="233.5" y="-177.5" font-family="Helvetica,sans-Serif" font-size="10.00">AP_HAL/Semaphores.h</text>
</a>
</g>
</g>
<!-- Node13&#45;&gt;Node18 -->
<g id="edge23_Node000013_Node000018" class="edge">
<title>Node13&#45;&gt;Node18</title>
<g id="a_edge23_Node000013_Node000018"><a xlink:title=" ">
<path fill="none" stroke="#63b8ff" d="M426.43,-236.37C386.83,-225 317.11,-205 273.21,-192.4"/>
<polygon fill="#63b8ff" stroke="#63b8ff" points="274.03,-188.99 263.45,-189.6 272.1,-195.72 274.03,-188.99"/>
</a>
</g>
</g>
<!-- Node16&#45;&gt;Node5 -->
<g id="edge21_Node000016_Node000005" class="edge">
<title>Node16&#45;&gt;Node5</title>
<g id="a_edge21_Node000016_Node000005"><a xlink:title=" ">
<path fill="none" stroke="#63b8ff" d="M486.34,-170.49C545.55,-159.97 646.3,-142.05 709.75,-130.77"/>
<polygon fill="#63b8ff" stroke="#63b8ff" points="710.37,-134.21 719.6,-129.02 709.14,-127.32 710.37,-134.21"/>
</a>
</g>
</g>
<!-- Node17 -->
<g id="Node000017" class="node">
<title>Node17</title>
<g id="a_Node000017"><a xlink:title=" ">
<polygon fill="#e0e0e0" stroke="#999999" points="464,-129 413,-129 413,-110 464,-110 464,-129"/>
<text text-anchor="middle" x="438.5" y="-117" font-family="Helvetica,sans-Serif" font-size="10.00">math.h</text>
</a>
</g>
</g>
<!-- Node16&#45;&gt;Node17 -->
<g id="edge22_Node000016_Node000017" class="edge">
<title>Node16&#45;&gt;Node17</title>
<g id="a_edge22_Node000016_Node000017"><a xlink:title=" ">
<path fill="none" stroke="#63b8ff" d="M438.5,-170.37C438.5,-162.25 438.5,-149.81 438.5,-139.39"/>
<polygon fill="#63b8ff" stroke="#63b8ff" points="442,-139.17 438.5,-129.17 435,-139.17 442,-139.17"/>
</a>
</g>
</g>
<!-- Node19 -->
<g id="Node000019" class="node">
<title>Node19</title>
<g id="a_Node000019"><a xlink:href="AP__HAL__Namespace_8h.html" target="_top" xlink:title=" ">
<polygon fill="white" stroke="#666666" points="138.5,-129 12.5,-129 12.5,-110 138.5,-110 138.5,-129"/>
<text text-anchor="middle" x="75.5" y="-117" font-family="Helvetica,sans-Serif" font-size="10.00">AP_HAL_Namespace.h</text>
</a>
</g>
</g>
<!-- Node18&#45;&gt;Node19 -->
<g id="edge24_Node000018_Node000019" class="edge">
<title>Node18&#45;&gt;Node19</title>
<g id="a_edge24_Node000018_Node000019"><a xlink:title=" ">
<path fill="none" stroke="#63b8ff" d="M210.53,-170.49C183.61,-160.53 138.83,-143.95 108.27,-132.63"/>
<polygon fill="#63b8ff" stroke="#63b8ff" points="109.1,-129.21 98.5,-129.02 106.66,-135.77 109.1,-129.21"/>
</a>
</g>
</g>
<!-- Node23 -->
<g id="Node000023" class="node">
<title>Node23</title>
<g id="a_Node000023"><a xlink:href="AP__Common_8h.html" target="_top" xlink:title="Common definitions and utility routines for the ArduPilot libraries.">
<polygon fill="white" stroke="#666666" points="310,-129 157,-129 157,-110 310,-110 310,-129"/>
<text text-anchor="middle" x="233.5" y="-117" font-family="Helvetica,sans-Serif" font-size="10.00">AP_Common/AP_Common.h</text>
</a>
</g>
</g>
<!-- Node18&#45;&gt;Node23 -->
<g id="edge28_Node000018_Node000023" class="edge">
<title>Node18&#45;&gt;Node23</title>
<g id="a_edge28_Node000018_Node000023"><a xlink:title=" ">
<path fill="none" stroke="#63b8ff" d="M233.5,-170.37C233.5,-162.25 233.5,-149.81 233.5,-139.39"/>
<polygon fill="#63b8ff" stroke="#63b8ff" points="237,-139.17 233.5,-129.17 230,-139.17 237,-139.17"/>
</a>
</g>
</g>
<!-- Node20 -->
<g id="Node000020" class="node">
<title>Node20</title>
<g id="a_Node000020"><a xlink:href="string_8h.html" target="_top" xlink:title=" ">
<polygon fill="white" stroke="#666666" points="162,-74 109,-74 109,-55 162,-55 162,-74"/>
<text text-anchor="middle" x="135.5" y="-62" font-family="Helvetica,sans-Serif" font-size="10.00">string.h</text>
</a>
</g>
</g>
<!-- Node19&#45;&gt;Node20 -->
<g id="edge25_Node000019_Node000020" class="edge">
<title>Node19&#45;&gt;Node20</title>
<g id="a_edge25_Node000019_Node000020"><a xlink:title=" ">
<path fill="none" stroke="#63b8ff" d="M85.14,-109.98C94.01,-102.15 107.37,-90.34 118.11,-80.86"/>
<polygon fill="#63b8ff" stroke="#63b8ff" points="120.51,-83.41 125.68,-74.17 115.87,-78.17 120.51,-83.41"/>
</a>
</g>
</g>
<!-- Node21 -->
<g id="Node000021" class="node">
<title>Node21</title>
<g id="a_Node000021"><a xlink:href="functor_8h.html" target="_top" xlink:title=" ">
<polygon fill="white" stroke="#666666" points="91,-74 0,-74 0,-55 91,-55 91,-74"/>
<text text-anchor="middle" x="45.5" y="-62" font-family="Helvetica,sans-Serif" font-size="10.00">utility/functor.h</text>
</a>
</g>
</g>
<!-- Node19&#45;&gt;Node21 -->
<g id="edge26_Node000019_Node000021" class="edge">
<title>Node19&#45;&gt;Node21</title>
<g id="a_edge26_Node000019_Node000021"><a xlink:title=" ">
<path fill="none" stroke="#63b8ff" d="M70.55,-109.75C66.44,-102.49 60.47,-91.95 55.4,-82.98"/>
<polygon fill="#63b8ff" stroke="#63b8ff" points="58.33,-81.07 50.36,-74.09 52.24,-84.52 58.33,-81.07"/>
</a>
</g>
</g>
<!-- Node22 -->
<g id="Node000022" class="node">
<title>Node22</title>
<g id="a_Node000022"><a xlink:title=" ">
<polygon fill="#e0e0e0" stroke="#999999" points="188,-19 119,-19 119,0 188,0 188,-19"/>
<text text-anchor="middle" x="153.5" y="-7" font-family="Helvetica,sans-Serif" font-size="10.00">type_traits</text>
</a>
</g>
</g>
<!-- Node21&#45;&gt;Node22 -->
<g id="edge27_Node000021_Node000022" class="edge">
<title>Node21&#45;&gt;Node22</title>
<g id="a_edge27_Node000021_Node000022"><a xlink:title=" ">
<path fill="none" stroke="#63b8ff" d="M62.85,-54.98C80.07,-46.54 106.7,-33.47 126.65,-23.68"/>
<polygon fill="#63b8ff" stroke="#63b8ff" points="128.4,-26.72 135.83,-19.17 125.31,-20.43 128.4,-26.72"/>
</a>
</g>
</g>
<!-- Node23&#45;&gt;Node15 -->
<g id="edge29_Node000023_Node000015" class="edge">
<title>Node23&#45;&gt;Node15</title>
<g id="a_edge29_Node000023_Node000015"><a xlink:title=" ">
<path fill="none" stroke="#63b8ff" d="M293.43,-109.98C371.46,-98.9 505.46,-79.86 569.85,-70.71"/>
<polygon fill="#63b8ff" stroke="#63b8ff" points="570.53,-74.15 579.94,-69.27 569.54,-67.22 570.53,-74.15"/>
</a>
</g>
</g>
<!-- Node23&#45;&gt;Node22 -->
<g id="edge31_Node000023_Node000022" class="edge">
<title>Node23&#45;&gt;Node22</title>
<g id="a_edge31_Node000023_Node000022"><a xlink:title=" ">
<path fill="none" stroke="#63b8ff" d="M237.77,-109.97C243.58,-97.05 252.09,-72.23 241.5,-55 231.83,-39.27 214.69,-28.9 198.09,-22.16"/>
<polygon fill="#63b8ff" stroke="#63b8ff" points="199.04,-18.78 188.44,-18.6 196.61,-25.35 199.04,-18.78"/>
</a>
</g>
</g>
<!-- Node24 -->
<g id="Node000024" class="node">
<title>Node24</title>
<g id="a_Node000024"><a xlink:title=" ">
<polygon fill="#e0e0e0" stroke="#999999" points="233,-74 180,-74 180,-55 233,-55 233,-74"/>
<text text-anchor="middle" x="206.5" y="-62" font-family="Helvetica,sans-Serif" font-size="10.00">stdlib.h</text>
</a>
</g>
</g>
<!-- Node23&#45;&gt;Node24 -->
<g id="edge30_Node000023_Node000024" class="edge">
<title>Node23&#45;&gt;Node24</title>
<g id="a_edge30_Node000023_Node000024"><a xlink:title=" ">
<path fill="none" stroke="#63b8ff" d="M229.04,-109.75C225.38,-102.57 220.09,-92.18 215.55,-83.27"/>
<polygon fill="#63b8ff" stroke="#63b8ff" points="218.53,-81.41 210.88,-74.09 212.3,-84.59 218.53,-81.41"/>
</a>
</g>
</g>
<!-- Node25&#45;&gt;Node15 -->
<g id="edge34_Node000025_Node000015" class="edge">
<title>Node25&#45;&gt;Node15</title>
<g id="a_edge34_Node000025_Node000015"><a xlink:title=" ">
<path fill="none" stroke="#63b8ff" d="M314.16,-351.85C321.75,-333.11 338.5,-287.19 338.5,-247 338.5,-247 338.5,-247 338.5,-179 338.5,-79.79 496.15,-66 569.62,-64.96"/>
<polygon fill="#63b8ff" stroke="#63b8ff" points="569.85,-68.45 579.82,-64.89 569.8,-61.45 569.85,-68.45"/>
</a>
</g>
</g>
<!-- Node26 -->
<g id="Node000026" class="node">
<title>Node26</title>
<g id="a_Node000026"><a xlink:title=" ">
<polygon fill="#e0e0e0" stroke="#999999" points="236.5,-316 180.5,-316 180.5,-297 236.5,-297 236.5,-316"/>
<text text-anchor="middle" x="208.5" y="-304" font-family="Helvetica,sans-Serif" font-size="10.00">stdarg.h</text>
</a>
</g>
</g>
<!-- Node25&#45;&gt;Node26 -->
<g id="edge33_Node000025_Node000026" class="edge">
<title>Node25&#45;&gt;Node26</title>
<g id="a_edge33_Node000025_Node000026"><a xlink:title=" ">
<path fill="none" stroke="#63b8ff" d="M294.11,-351.98C277.93,-343.57 252.93,-330.59 234.12,-320.81"/>
<polygon fill="#63b8ff" stroke="#63b8ff" points="235.67,-317.68 225.19,-316.17 232.45,-323.89 235.67,-317.68"/>
</a>
</g>
</g>
<!-- Node27 -->
<g id="Node000027" class="node">
<title>Node27</title>
<g id="a_Node000027"><a xlink:title=" ">
<polygon fill="#e0e0e0" stroke="#999999" points="310.5,-316 254.5,-316 254.5,-297 310.5,-297 310.5,-316"/>
<text text-anchor="middle" x="282.5" y="-304" font-family="Helvetica,sans-Serif" font-size="10.00">stddef.h</text>
</a>
</g>
</g>
<!-- Node25&#45;&gt;Node27 -->
<g id="edge35_Node000025_Node000027" class="edge">
<title>Node25&#45;&gt;Node27</title>
<g id="a_edge35_Node000025_Node000027"><a xlink:title=" ">
<path fill="none" stroke="#63b8ff" d="M305.88,-351.75C302.04,-344.49 296.48,-333.95 291.74,-324.98"/>
<polygon fill="#63b8ff" stroke="#63b8ff" points="294.8,-323.3 287.04,-316.09 288.61,-326.57 294.8,-323.3"/>
</a>
</g>
</g>
<!-- Node28&#45;&gt;Node15 -->
<g id="edge37_Node000028_Node000015" class="edge">
<title>Node28&#45;&gt;Node15</title>
<g id="a_edge37_Node000028_Node000015"><a xlink:title=" ">
<path fill="none" stroke="#63b8ff" d="M1300.79,-406.89C1305.43,-388.69 1315.5,-344.89 1315.5,-307.5 1315.5,-307.5 1315.5,-307.5 1315.5,-179 1315.5,-115.54 1251.3,-128.16 1190.5,-110 1087.27,-79.17 754.77,-68.89 643.31,-66.26"/>
<polygon fill="#63b8ff" stroke="#63b8ff" points="643.3,-62.76 633.23,-66.03 643.14,-69.76 643.3,-62.76"/>
</a>
</g>
</g>
<!-- Node29&#45;&gt;Node15 -->
<g id="edge41_Node000029_Node000015" class="edge">
<title>Node29&#45;&gt;Node15</title>
<g id="a_edge41_Node000029_Node000015"><a xlink:title=" ">
<path fill="none" stroke="#63b8ff" d="M1220.02,-230.84C1245.07,-214.62 1277.74,-187.4 1258.5,-165 1177.94,-71.21 769.32,-64.85 643.45,-65.16"/>
<polygon fill="#63b8ff" stroke="#63b8ff" points="643.17,-61.66 633.19,-65.2 643.2,-68.66 643.17,-61.66"/>
</a>
</g>
</g>
<!-- Node30 -->
<g id="Node000030" class="node">
<title>Node30</title>
<g id="a_Node000030"><a xlink:href="AP__InternalError__config_8h.html" target="_top" xlink:title=" ">
<polygon fill="white" stroke="#666666" points="1249,-189.5 1110,-189.5 1110,-170.5 1249,-170.5 1249,-189.5"/>
<text text-anchor="middle" x="1179.5" y="-177.5" font-family="Helvetica,sans-Serif" font-size="10.00">AP_InternalError_config.h</text>
</a>
</g>
</g>
<!-- Node29&#45;&gt;Node30 -->
<g id="edge39_Node000029_Node000030" class="edge">
<title>Node29&#45;&gt;Node30</title>
<g id="a_edge39_Node000029_Node000030"><a xlink:title=" ">
<path fill="none" stroke="#63b8ff" d="M1191.95,-230.8C1189.65,-221.6 1186.63,-209.53 1184.14,-199.58"/>
<polygon fill="#63b8ff" stroke="#63b8ff" points="1187.53,-198.7 1181.71,-189.84 1180.74,-200.39 1187.53,-198.7"/>
</a>
</g>
</g>
<!-- Node30&#45;&gt;Node5 -->
<g id="edge40_Node000030_Node000005" class="edge">
<title>Node30&#45;&gt;Node5</title>
<g id="a_edge40_Node000030_Node000005"><a xlink:title=" ">
<path fill="none" stroke="#63b8ff" d="M1133.78,-170.44C1123.19,-168.55 1111.97,-166.64 1101.5,-165 1015.46,-151.55 916.55,-138.7 848.83,-130.29"/>
<polygon fill="#63b8ff" stroke="#63b8ff" points="849.01,-126.79 838.65,-129.04 848.15,-133.74 849.01,-126.79"/>
</a>
</g>
</g>
</g>
</svg>
