<?xml version="1.0" encoding="UTF-8" standalone="no"?>
<!DOCTYPE svg PUBLIC "-//W3C//DTD SVG 1.1//EN"
 "http://www.w3.org/Graphics/SVG/1.1/DTD/svg11.dtd">
<!-- Generated by graphviz version 2.43.0 (0)
 -->
<!-- Title: libraries/SITL/SIM_PS_RPLidarA2.h Pages: 1 -->
<svg width="1101pt" height="489pt"
 viewBox="0.00 0.00 1100.50 489.00" xmlns="http://www.w3.org/2000/svg" xmlns:xlink="http://www.w3.org/1999/xlink">
<g id="graph0" class="graph" transform="scale(1 1) rotate(0) translate(4 485)">
<title>libraries/SITL/SIM_PS_RPLidarA2.h</title>
<!-- Node1 -->
<g id="Node000001" class="node">
<title>Node1</title>
<g id="a_Node000001"><a xlink:title=" ">
<polygon fill="#999999" stroke="#666666" points="809,-481 708,-481 708,-451 809,-451 809,-481"/>
<text text-anchor="start" x="716" y="-469" font-family="Helvetica,sans-Serif" font-size="10.00">libraries/SITL/SIM</text>
<text text-anchor="middle" x="758.5" y="-458" font-family="Helvetica,sans-Serif" font-size="10.00">_PS_RPLidarA2.h</text>
</a>
</g>
</g>
<!-- Node2 -->
<g id="Node000002" class="node">
<title>Node2</title>
<g id="a_Node000002"><a xlink:href="SIM__config_8h.html" target="_top" xlink:title=" ">
<polygon fill="white" stroke="#666666" points="758.5,-305 680.5,-305 680.5,-286 758.5,-286 758.5,-305"/>
<text text-anchor="middle" x="719.5" y="-293" font-family="Helvetica,sans-Serif" font-size="10.00">SIM_config.h</text>
</a>
</g>
</g>
<!-- Node1&#45;&gt;Node2 -->
<g id="edge1_Node000001_Node000002" class="edge">
<title>Node1&#45;&gt;Node2</title>
<g id="a_edge1_Node000001_Node000002"><a xlink:title=" ">
<path fill="none" stroke="#63b8ff" d="M751.86,-450.85C747.48,-440.99 741.94,-427.44 738.5,-415 728.96,-380.48 723.66,-338.9 721.22,-315.3"/>
<polygon fill="#63b8ff" stroke="#63b8ff" points="724.69,-314.88 720.24,-305.26 717.72,-315.56 724.69,-314.88"/>
</a>
</g>
</g>
<!-- Node7 -->
<g id="Node000007" class="node">
<title>Node7</title>
<g id="a_Node000007"><a xlink:href="SIM__PS__RPLidar_8h.html" target="_top" xlink:title=" ">
<polygon fill="white" stroke="#666666" points="849.5,-415 747.5,-415 747.5,-396 849.5,-396 849.5,-415"/>
<text text-anchor="middle" x="798.5" y="-403" font-family="Helvetica,sans-Serif" font-size="10.00">SIM_PS_RPLidar.h</text>
</a>
</g>
</g>
<!-- Node1&#45;&gt;Node7 -->
<g id="edge9_Node000001_Node000007" class="edge">
<title>Node1&#45;&gt;Node7</title>
<g id="a_edge9_Node000001_Node000007"><a xlink:title=" ">
<path fill="none" stroke="#63b8ff" d="M768.18,-450.84C773.75,-442.69 780.79,-432.4 786.68,-423.78"/>
<polygon fill="#63b8ff" stroke="#63b8ff" points="789.75,-425.5 792.51,-415.27 783.97,-421.55 789.75,-425.5"/>
</a>
</g>
</g>
<!-- Node3 -->
<g id="Node000003" class="node">
<title>Node3</title>
<g id="a_Node000003"><a xlink:href="AP__HAL__Boards_8h.html" target="_top" xlink:title=" ">
<polygon fill="white" stroke="#666666" points="681,-129 538,-129 538,-110 681,-110 681,-129"/>
<text text-anchor="middle" x="609.5" y="-117" font-family="Helvetica,sans-Serif" font-size="10.00">AP_HAL/AP_HAL_Boards.h</text>
</a>
</g>
</g>
<!-- Node2&#45;&gt;Node3 -->
<g id="edge2_Node000002_Node000003" class="edge">
<title>Node2&#45;&gt;Node3</title>
<g id="a_edge2_Node000002_Node000003"><a xlink:title=" ">
<path fill="none" stroke="#63b8ff" d="M708.86,-285.82C689.99,-269.85 650.67,-233.86 629.5,-195 619.91,-177.4 614.7,-154.91 612.02,-139.27"/>
<polygon fill="#63b8ff" stroke="#63b8ff" points="615.46,-138.62 610.5,-129.26 608.54,-139.67 615.46,-138.62"/>
</a>
</g>
</g>
<!-- Node4 -->
<g id="Node000004" class="node">
<title>Node4</title>
<g id="a_Node000004"><a xlink:href="GCS__config_8h.html" target="_top" xlink:title=" ">
<polygon fill="white" stroke="#666666" points="872,-250 721,-250 721,-231 872,-231 872,-250"/>
<text text-anchor="middle" x="796.5" y="-238" font-family="Helvetica,sans-Serif" font-size="10.00">GCS_MAVLink/GCS_config.h</text>
</a>
</g>
</g>
<!-- Node2&#45;&gt;Node4 -->
<g id="edge3_Node000002_Node000004" class="edge">
<title>Node2&#45;&gt;Node4</title>
<g id="a_edge3_Node000002_Node000004"><a xlink:title=" ">
<path fill="none" stroke="#63b8ff" d="M731.87,-285.98C743.59,-277.92 761.42,-265.65 775.39,-256.03"/>
<polygon fill="#63b8ff" stroke="#63b8ff" points="777.65,-258.72 783.9,-250.17 773.68,-252.96 777.65,-258.72"/>
</a>
</g>
</g>
<!-- Node4&#45;&gt;Node3 -->
<g id="edge4_Node000004_Node000003" class="edge">
<title>Node4&#45;&gt;Node3</title>
<g id="a_edge4_Node000004_Node000003"><a xlink:title=" ">
<path fill="none" stroke="#63b8ff" d="M859.37,-230.98C915.02,-220.89 982.93,-200.78 951.5,-165 934.58,-145.74 787.24,-132.33 691.55,-125.57"/>
<polygon fill="#63b8ff" stroke="#63b8ff" points="691.52,-122.06 681.31,-124.86 691.04,-129.04 691.52,-122.06"/>
</a>
</g>
</g>
<!-- Node5 -->
<g id="Node000005" class="node">
<title>Node5</title>
<g id="a_Node000005"><a xlink:href="AP__Relay__config_8h.html" target="_top" xlink:title=" ">
<polygon fill="white" stroke="#666666" points="793,-189.5 638,-189.5 638,-170.5 793,-170.5 793,-189.5"/>
<text text-anchor="middle" x="715.5" y="-177.5" font-family="Helvetica,sans-Serif" font-size="10.00">AP_Relay/AP_Relay_config.h</text>
</a>
</g>
</g>
<!-- Node4&#45;&gt;Node5 -->
<g id="edge5_Node000004_Node000005" class="edge">
<title>Node4&#45;&gt;Node5</title>
<g id="a_edge5_Node000004_Node000005"><a xlink:title=" ">
<path fill="none" stroke="#63b8ff" d="M784.55,-230.87C771.75,-221.62 751.2,-206.78 735.85,-195.69"/>
<polygon fill="#63b8ff" stroke="#63b8ff" points="737.66,-192.68 727.5,-189.67 733.56,-198.36 737.66,-192.68"/>
</a>
</g>
</g>
<!-- Node6 -->
<g id="Node000006" class="node">
<title>Node6</title>
<g id="a_Node000006"><a xlink:href="AP__Mission__config_8h.html" target="_top" xlink:title=" ">
<polygon fill="white" stroke="#666666" points="942,-195 811,-195 811,-165 942,-165 942,-195"/>
<text text-anchor="start" x="819" y="-183" font-family="Helvetica,sans-Serif" font-size="10.00">AP_Mission/AP_Mission</text>
<text text-anchor="middle" x="876.5" y="-172" font-family="Helvetica,sans-Serif" font-size="10.00">_config.h</text>
</a>
</g>
</g>
<!-- Node4&#45;&gt;Node6 -->
<g id="edge7_Node000004_Node000006" class="edge">
<title>Node4&#45;&gt;Node6</title>
<g id="a_edge7_Node000004_Node000006"><a xlink:title=" ">
<path fill="none" stroke="#63b8ff" d="M808.3,-230.87C818.96,-223.08 835.04,-211.32 848.91,-201.17"/>
<polygon fill="#63b8ff" stroke="#63b8ff" points="851.19,-203.84 857.2,-195.11 847.06,-198.19 851.19,-203.84"/>
</a>
</g>
</g>
<!-- Node5&#45;&gt;Node3 -->
<g id="edge6_Node000005_Node000003" class="edge">
<title>Node5&#45;&gt;Node3</title>
<g id="a_edge6_Node000005_Node000003"><a xlink:title=" ">
<path fill="none" stroke="#63b8ff" d="M699.86,-170.37C682.56,-160.82 654.45,-145.31 634.17,-134.12"/>
<polygon fill="#63b8ff" stroke="#63b8ff" points="635.65,-130.93 625.2,-129.17 632.27,-137.06 635.65,-130.93"/>
</a>
</g>
</g>
<!-- Node6&#45;&gt;Node3 -->
<g id="edge8_Node000006_Node000003" class="edge">
<title>Node6&#45;&gt;Node3</title>
<g id="a_edge8_Node000006_Node000003"><a xlink:title=" ">
<path fill="none" stroke="#63b8ff" d="M812.55,-164.99C765.27,-154.63 701.85,-140.73 658.55,-131.25"/>
<polygon fill="#63b8ff" stroke="#63b8ff" points="659.06,-127.78 648.54,-129.05 657.56,-134.61 659.06,-127.78"/>
</a>
</g>
</g>
<!-- Node7&#45;&gt;Node2 -->
<g id="edge10_Node000007_Node000002" class="edge">
<title>Node7&#45;&gt;Node2</title>
<g id="a_edge10_Node000007_Node000002"><a xlink:title=" ">
<path fill="none" stroke="#63b8ff" d="M792.04,-395.66C778.89,-377.69 748.86,-336.64 731.85,-313.38"/>
<polygon fill="#63b8ff" stroke="#63b8ff" points="734.56,-311.16 725.83,-305.16 728.91,-315.3 734.56,-311.16"/>
</a>
</g>
</g>
<!-- Node8 -->
<g id="Node000008" class="node">
<title>Node8</title>
<g id="a_Node000008"><a xlink:href="SIM__SerialProximitySensor_8h.html" target="_top" xlink:title=" ">
<polygon fill="white" stroke="#666666" points="691.5,-360 535.5,-360 535.5,-341 691.5,-341 691.5,-360"/>
<text text-anchor="middle" x="613.5" y="-348" font-family="Helvetica,sans-Serif" font-size="10.00">SIM_SerialProximitySensor.h</text>
</a>
</g>
</g>
<!-- Node7&#45;&gt;Node8 -->
<g id="edge11_Node000007_Node000008" class="edge">
<title>Node7&#45;&gt;Node8</title>
<g id="a_edge11_Node000007_Node000008"><a xlink:title=" ">
<path fill="none" stroke="#63b8ff" d="M768.78,-395.98C737.45,-387.01 687.93,-372.82 653.26,-362.89"/>
<polygon fill="#63b8ff" stroke="#63b8ff" points="654.03,-359.47 643.46,-360.08 652.11,-366.2 654.03,-359.47"/>
</a>
</g>
</g>
<!-- Node25 -->
<g id="Node000025" class="node">
<title>Node25</title>
<g id="a_Node000025"><a xlink:href="stdio_8h.html" target="_top" xlink:title=" ">
<polygon fill="white" stroke="#666666" points="1005.5,-360 955.5,-360 955.5,-341 1005.5,-341 1005.5,-360"/>
<text text-anchor="middle" x="980.5" y="-348" font-family="Helvetica,sans-Serif" font-size="10.00">stdio.h</text>
</a>
</g>
</g>
<!-- Node7&#45;&gt;Node25 -->
<g id="edge34_Node000007_Node000025" class="edge">
<title>Node7&#45;&gt;Node25</title>
<g id="a_edge34_Node000007_Node000025"><a xlink:title=" ">
<path fill="none" stroke="#63b8ff" d="M827.74,-395.98C859.8,-386.65 911.21,-371.68 945.41,-361.72"/>
<polygon fill="#63b8ff" stroke="#63b8ff" points="946.81,-364.96 955.43,-358.8 944.85,-358.24 946.81,-364.96"/>
</a>
</g>
</g>
<!-- Node8&#45;&gt;Node2 -->
<g id="edge12_Node000008_Node000002" class="edge">
<title>Node8&#45;&gt;Node2</title>
<g id="a_edge12_Node000008_Node000002"><a xlink:title=" ">
<path fill="none" stroke="#63b8ff" d="M630.53,-340.98C647.43,-332.54 673.56,-319.47 693.14,-309.68"/>
<polygon fill="#63b8ff" stroke="#63b8ff" points="694.78,-312.77 702.16,-305.17 691.65,-306.51 694.78,-312.77"/>
</a>
</g>
</g>
<!-- Node9 -->
<g id="Node000009" class="node">
<title>Node9</title>
<g id="a_Node000009"><a xlink:href="SIM__Aircraft_8h.html" target="_top" xlink:title=" ">
<polygon fill="white" stroke="#666666" points="658.5,-305 574.5,-305 574.5,-286 658.5,-286 658.5,-305"/>
<text text-anchor="middle" x="616.5" y="-293" font-family="Helvetica,sans-Serif" font-size="10.00">SIM_Aircraft.h</text>
</a>
</g>
</g>
<!-- Node8&#45;&gt;Node9 -->
<g id="edge13_Node000008_Node000009" class="edge">
<title>Node8&#45;&gt;Node9</title>
<g id="a_edge13_Node000008_Node000009"><a xlink:title=" ">
<path fill="none" stroke="#63b8ff" d="M614,-340.75C614.39,-333.8 614.95,-323.85 615.45,-315.13"/>
<polygon fill="#63b8ff" stroke="#63b8ff" points="618.94,-315.27 616.01,-305.09 611.95,-314.88 618.94,-315.27"/>
</a>
</g>
</g>
<!-- Node10 -->
<g id="Node000010" class="node">
<title>Node10</title>
<g id="a_Node000010"><a xlink:href="SITL_8h.html" target="_top" xlink:title=" ">
<polygon fill="white" stroke="#666666" points="581,-250 512,-250 512,-231 581,-231 581,-250"/>
<text text-anchor="middle" x="546.5" y="-238" font-family="Helvetica,sans-Serif" font-size="10.00">SITL/SITL.h</text>
</a>
</g>
</g>
<!-- Node8&#45;&gt;Node10 -->
<g id="edge14_Node000008_Node000010" class="edge">
<title>Node8&#45;&gt;Node10</title>
<g id="a_edge14_Node000008_Node000010"><a xlink:title=" ">
<path fill="none" stroke="#63b8ff" d="M600.69,-340.69C589.84,-332.6 574.63,-319.66 565.5,-305 556.95,-291.26 552.06,-273.46 549.39,-260.2"/>
<polygon fill="#63b8ff" stroke="#63b8ff" points="552.83,-259.55 547.63,-250.32 545.93,-260.78 552.83,-259.55"/>
</a>
</g>
</g>
<!-- Node11 -->
<g id="Node000011" class="node">
<title>Node11</title>
<g id="a_Node000011"><a xlink:href="SIM__SerialDevice_8h.html" target="_top" xlink:title=" ">
<polygon fill="white" stroke="#666666" points="431.5,-305 321.5,-305 321.5,-286 431.5,-286 431.5,-305"/>
<text text-anchor="middle" x="376.5" y="-293" font-family="Helvetica,sans-Serif" font-size="10.00">SIM_SerialDevice.h</text>
</a>
</g>
</g>
<!-- Node8&#45;&gt;Node11 -->
<g id="edge16_Node000008_Node000011" class="edge">
<title>Node8&#45;&gt;Node11</title>
<g id="a_edge16_Node000008_Node000011"><a xlink:title=" ">
<path fill="none" stroke="#63b8ff" d="M575.42,-340.98C534.51,-331.84 469.39,-317.27 424.88,-307.32"/>
<polygon fill="#63b8ff" stroke="#63b8ff" points="425.4,-303.85 414.88,-305.08 423.87,-310.68 425.4,-303.85"/>
</a>
</g>
</g>
<!-- Node10&#45;&gt;Node3 -->
<g id="edge15_Node000010_Node000003" class="edge">
<title>Node10&#45;&gt;Node3</title>
<g id="a_edge15_Node000010_Node000003"><a xlink:title=" ">
<path fill="none" stroke="#63b8ff" d="M551.03,-230.94C561.24,-211.65 586.24,-164.44 600.01,-138.43"/>
<polygon fill="#63b8ff" stroke="#63b8ff" points="603.25,-139.78 604.84,-129.3 597.07,-136.5 603.25,-139.78"/>
</a>
</g>
</g>
<!-- Node12 -->
<g id="Node000012" class="node">
<title>Node12</title>
<g id="a_Node000012"><a xlink:title=" ">
<polygon fill="#e0e0e0" stroke="#999999" points="284.5,-250 228.5,-250 228.5,-231 284.5,-231 284.5,-250"/>
<text text-anchor="middle" x="256.5" y="-238" font-family="Helvetica,sans-Serif" font-size="10.00">unistd.h</text>
</a>
</g>
</g>
<!-- Node11&#45;&gt;Node12 -->
<g id="edge17_Node000011_Node000012" class="edge">
<title>Node11&#45;&gt;Node12</title>
<g id="a_edge17_Node000011_Node000012"><a xlink:title=" ">
<path fill="none" stroke="#63b8ff" d="M357.22,-285.98C337.83,-277.42 307.69,-264.11 285.43,-254.28"/>
<polygon fill="#63b8ff" stroke="#63b8ff" points="286.69,-251.01 276.13,-250.17 283.86,-257.41 286.69,-251.01"/>
</a>
</g>
</g>
<!-- Node13 -->
<g id="Node000013" class="node">
<title>Node13</title>
<g id="a_Node000013"><a xlink:href="RingBuffer_8h.html" target="_top" xlink:title=" ">
<polygon fill="white" stroke="#666666" points="450.5,-250 302.5,-250 302.5,-231 450.5,-231 450.5,-250"/>
<text text-anchor="middle" x="376.5" y="-238" font-family="Helvetica,sans-Serif" font-size="10.00">AP_HAL/utility/RingBuffer.h</text>
</a>
</g>
</g>
<!-- Node11&#45;&gt;Node13 -->
<g id="edge18_Node000011_Node000013" class="edge">
<title>Node11&#45;&gt;Node13</title>
<g id="a_edge18_Node000011_Node000013"><a xlink:title=" ">
<path fill="none" stroke="#63b8ff" d="M376.5,-285.75C376.5,-278.8 376.5,-268.85 376.5,-260.13"/>
<polygon fill="#63b8ff" stroke="#63b8ff" points="380,-260.09 376.5,-250.09 373,-260.09 380,-260.09"/>
</a>
</g>
</g>
<!-- Node13&#45;&gt;Node3 -->
<g id="edge21_Node000013_Node000003" class="edge">
<title>Node13&#45;&gt;Node3</title>
<g id="a_edge21_Node000013_Node000003"><a xlink:title=" ">
<path fill="none" stroke="#63b8ff" d="M415.15,-230.94C443.65,-223.72 482.82,-211.83 514.5,-195 545,-178.79 575.59,-152.59 593.52,-135.97"/>
<polygon fill="#63b8ff" stroke="#63b8ff" points="595.95,-138.48 600.82,-129.08 591.15,-133.39 595.95,-138.48"/>
</a>
</g>
</g>
<!-- Node14 -->
<g id="Node000014" class="node">
<title>Node14</title>
<g id="a_Node000014"><a xlink:title=" ">
<polygon fill="#e0e0e0" stroke="#999999" points="152.5,-189.5 102.5,-189.5 102.5,-170.5 152.5,-170.5 152.5,-189.5"/>
<text text-anchor="middle" x="127.5" y="-177.5" font-family="Helvetica,sans-Serif" font-size="10.00">atomic</text>
</a>
</g>
</g>
<!-- Node13&#45;&gt;Node14 -->
<g id="edge19_Node000013_Node000014" class="edge">
<title>Node13&#45;&gt;Node14</title>
<g id="a_edge19_Node000013_Node000014"><a xlink:title=" ">
<path fill="none" stroke="#63b8ff" d="M321,-230.94C277.16,-223.49 214.71,-211.31 161.5,-195 159.82,-194.49 158.11,-193.92 156.4,-193.32"/>
<polygon fill="#63b8ff" stroke="#63b8ff" points="157.28,-189.91 146.69,-189.63 154.79,-196.46 157.28,-189.91"/>
</a>
</g>
</g>
<!-- Node15 -->
<g id="Node000015" class="node">
<title>Node15</title>
<g id="a_Node000015"><a xlink:title=" ">
<polygon fill="#e0e0e0" stroke="#999999" points="360,-74 307,-74 307,-55 360,-55 360,-74"/>
<text text-anchor="middle" x="333.5" y="-62" font-family="Helvetica,sans-Serif" font-size="10.00">stdint.h</text>
</a>
</g>
</g>
<!-- Node13&#45;&gt;Node15 -->
<g id="edge20_Node000013_Node000015" class="edge">
<title>Node13&#45;&gt;Node15</title>
<g id="a_edge20_Node000013_Node000015"><a xlink:title=" ">
<path fill="none" stroke="#63b8ff" d="M370.56,-230.72C364.98,-222.03 356.86,-208.16 352.5,-195 339.91,-157.03 335.65,-110.04 334.22,-84.4"/>
<polygon fill="#63b8ff" stroke="#63b8ff" points="337.71,-84.05 333.74,-74.22 330.71,-84.38 337.71,-84.05"/>
</a>
</g>
</g>
<!-- Node16 -->
<g id="Node000016" class="node">
<title>Node16</title>
<g id="a_Node000016"><a xlink:href="AP__HAL__Macros_8h.html" target="_top" xlink:title=" ">
<polygon fill="white" stroke="#666666" points="505.5,-189.5 361.5,-189.5 361.5,-170.5 505.5,-170.5 505.5,-189.5"/>
<text text-anchor="middle" x="433.5" y="-177.5" font-family="Helvetica,sans-Serif" font-size="10.00">AP_HAL/AP_HAL_Macros.h</text>
</a>
</g>
</g>
<!-- Node13&#45;&gt;Node16 -->
<g id="edge22_Node000013_Node000016" class="edge">
<title>Node13&#45;&gt;Node16</title>
<g id="a_edge22_Node000013_Node000016"><a xlink:title=" ">
<path fill="none" stroke="#63b8ff" d="M384.91,-230.87C393.58,-221.97 407.3,-207.89 417.96,-196.95"/>
<polygon fill="#63b8ff" stroke="#63b8ff" points="420.58,-199.27 425.05,-189.67 415.57,-194.39 420.58,-199.27"/>
</a>
</g>
</g>
<!-- Node18 -->
<g id="Node000018" class="node">
<title>Node18</title>
<g id="a_Node000018"><a xlink:href="AP__HAL_2Semaphores_8h.html" target="_top" xlink:title=" ">
<polygon fill="white" stroke="#666666" points="298,-189.5 171,-189.5 171,-170.5 298,-170.5 298,-189.5"/>
<text text-anchor="middle" x="234.5" y="-177.5" font-family="Helvetica,sans-Serif" font-size="10.00">AP_HAL/Semaphores.h</text>
</a>
</g>
</g>
<!-- Node13&#45;&gt;Node18 -->
<g id="edge25_Node000013_Node000018" class="edge">
<title>Node13&#45;&gt;Node18</title>
<g id="a_edge25_Node000013_Node000018"><a xlink:title=" ">
<path fill="none" stroke="#63b8ff" d="M355.85,-230.99C331.87,-221.12 292.11,-204.73 264.67,-193.43"/>
<polygon fill="#63b8ff" stroke="#63b8ff" points="265.75,-190.09 255.17,-189.52 263.09,-196.56 265.75,-190.09"/>
</a>
</g>
</g>
<!-- Node16&#45;&gt;Node3 -->
<g id="edge23_Node000016_Node000003" class="edge">
<title>Node16&#45;&gt;Node3</title>
<g id="a_edge23_Node000016_Node000003"><a xlink:title=" ">
<path fill="none" stroke="#63b8ff" d="M459.09,-170.49C489.46,-160.4 540.26,-143.51 574.32,-132.19"/>
<polygon fill="#63b8ff" stroke="#63b8ff" points="575.49,-135.49 583.88,-129.02 573.28,-128.85 575.49,-135.49"/>
</a>
</g>
</g>
<!-- Node17 -->
<g id="Node000017" class="node">
<title>Node17</title>
<g id="a_Node000017"><a xlink:title=" ">
<polygon fill="#e0e0e0" stroke="#999999" points="459,-129 408,-129 408,-110 459,-110 459,-129"/>
<text text-anchor="middle" x="433.5" y="-117" font-family="Helvetica,sans-Serif" font-size="10.00">math.h</text>
</a>
</g>
</g>
<!-- Node16&#45;&gt;Node17 -->
<g id="edge24_Node000016_Node000017" class="edge">
<title>Node16&#45;&gt;Node17</title>
<g id="a_edge24_Node000016_Node000017"><a xlink:title=" ">
<path fill="none" stroke="#63b8ff" d="M433.5,-170.37C433.5,-162.25 433.5,-149.81 433.5,-139.39"/>
<polygon fill="#63b8ff" stroke="#63b8ff" points="437,-139.17 433.5,-129.17 430,-139.17 437,-139.17"/>
</a>
</g>
</g>
<!-- Node19 -->
<g id="Node000019" class="node">
<title>Node19</title>
<g id="a_Node000019"><a xlink:href="AP__HAL__Namespace_8h.html" target="_top" xlink:title=" ">
<polygon fill="white" stroke="#666666" points="133.5,-129 7.5,-129 7.5,-110 133.5,-110 133.5,-129"/>
<text text-anchor="middle" x="70.5" y="-117" font-family="Helvetica,sans-Serif" font-size="10.00">AP_HAL_Namespace.h</text>
</a>
</g>
</g>
<!-- Node18&#45;&gt;Node19 -->
<g id="edge26_Node000018_Node000019" class="edge">
<title>Node18&#45;&gt;Node19</title>
<g id="a_edge26_Node000018_Node000019"><a xlink:title=" ">
<path fill="none" stroke="#63b8ff" d="M210.65,-170.49C182.6,-160.49 135.83,-143.8 104.1,-132.49"/>
<polygon fill="#63b8ff" stroke="#63b8ff" points="104.97,-129.08 94.38,-129.02 102.62,-135.67 104.97,-129.08"/>
</a>
</g>
</g>
<!-- Node23 -->
<g id="Node000023" class="node">
<title>Node23</title>
<g id="a_Node000023"><a xlink:href="AP__Common_8h.html" target="_top" xlink:title="Common definitions and utility routines for the ArduPilot libraries.">
<polygon fill="white" stroke="#666666" points="305,-129 152,-129 152,-110 305,-110 305,-129"/>
<text text-anchor="middle" x="228.5" y="-117" font-family="Helvetica,sans-Serif" font-size="10.00">AP_Common/AP_Common.h</text>
</a>
</g>
</g>
<!-- Node18&#45;&gt;Node23 -->
<g id="edge30_Node000018_Node000023" class="edge">
<title>Node18&#45;&gt;Node23</title>
<g id="a_edge30_Node000018_Node000023"><a xlink:title=" ">
<path fill="none" stroke="#63b8ff" d="M233.61,-170.37C232.78,-162.25 231.51,-149.81 230.44,-139.39"/>
<polygon fill="#63b8ff" stroke="#63b8ff" points="233.89,-138.76 229.39,-129.17 226.93,-139.47 233.89,-138.76"/>
</a>
</g>
</g>
<!-- Node20 -->
<g id="Node000020" class="node">
<title>Node20</title>
<g id="a_Node000020"><a xlink:href="string_8h.html" target="_top" xlink:title=" ">
<polygon fill="white" stroke="#666666" points="53,-74 0,-74 0,-55 53,-55 53,-74"/>
<text text-anchor="middle" x="26.5" y="-62" font-family="Helvetica,sans-Serif" font-size="10.00">string.h</text>
</a>
</g>
</g>
<!-- Node19&#45;&gt;Node20 -->
<g id="edge27_Node000019_Node000020" class="edge">
<title>Node19&#45;&gt;Node20</title>
<g id="a_edge27_Node000019_Node000020"><a xlink:title=" ">
<path fill="none" stroke="#63b8ff" d="M63.23,-109.75C56.96,-102.18 47.71,-91.05 40.07,-81.84"/>
<polygon fill="#63b8ff" stroke="#63b8ff" points="42.71,-79.55 33.63,-74.09 37.33,-84.02 42.71,-79.55"/>
</a>
</g>
</g>
<!-- Node21 -->
<g id="Node000021" class="node">
<title>Node21</title>
<g id="a_Node000021"><a xlink:href="functor_8h.html" target="_top" xlink:title=" ">
<polygon fill="white" stroke="#666666" points="162,-74 71,-74 71,-55 162,-55 162,-74"/>
<text text-anchor="middle" x="116.5" y="-62" font-family="Helvetica,sans-Serif" font-size="10.00">utility/functor.h</text>
</a>
</g>
</g>
<!-- Node19&#45;&gt;Node21 -->
<g id="edge28_Node000019_Node000021" class="edge">
<title>Node19&#45;&gt;Node21</title>
<g id="a_edge28_Node000019_Node000021"><a xlink:title=" ">
<path fill="none" stroke="#63b8ff" d="M78.1,-109.75C84.66,-102.18 94.32,-91.05 102.31,-81.84"/>
<polygon fill="#63b8ff" stroke="#63b8ff" points="105.13,-83.94 109.05,-74.09 99.85,-79.35 105.13,-83.94"/>
</a>
</g>
</g>
<!-- Node22 -->
<g id="Node000022" class="node">
<title>Node22</title>
<g id="a_Node000022"><a xlink:title=" ">
<polygon fill="#e0e0e0" stroke="#999999" points="188,-19 119,-19 119,0 188,0 188,-19"/>
<text text-anchor="middle" x="153.5" y="-7" font-family="Helvetica,sans-Serif" font-size="10.00">type_traits</text>
</a>
</g>
</g>
<!-- Node21&#45;&gt;Node22 -->
<g id="edge29_Node000021_Node000022" class="edge">
<title>Node21&#45;&gt;Node22</title>
<g id="a_edge29_Node000021_Node000022"><a xlink:title=" ">
<path fill="none" stroke="#63b8ff" d="M122.61,-54.75C127.78,-47.34 135.35,-36.5 141.69,-27.41"/>
<polygon fill="#63b8ff" stroke="#63b8ff" points="144.65,-29.29 147.5,-19.09 138.91,-25.29 144.65,-29.29"/>
</a>
</g>
</g>
<!-- Node23&#45;&gt;Node15 -->
<g id="edge31_Node000023_Node000015" class="edge">
<title>Node23&#45;&gt;Node15</title>
<g id="a_edge31_Node000023_Node000015"><a xlink:title=" ">
<path fill="none" stroke="#63b8ff" d="M245.37,-109.98C262.11,-101.54 288,-88.47 307.39,-78.68"/>
<polygon fill="#63b8ff" stroke="#63b8ff" points="308.97,-81.8 316.32,-74.17 305.82,-75.55 308.97,-81.8"/>
</a>
</g>
</g>
<!-- Node23&#45;&gt;Node22 -->
<g id="edge33_Node000023_Node000022" class="edge">
<title>Node23&#45;&gt;Node22</title>
<g id="a_edge33_Node000023_Node000022"><a xlink:title=" ">
<path fill="none" stroke="#63b8ff" d="M222.36,-109.66C209.88,-91.69 181.38,-50.64 165.22,-27.38"/>
<polygon fill="#63b8ff" stroke="#63b8ff" points="168.09,-25.38 159.51,-19.16 162.34,-29.37 168.09,-25.38"/>
</a>
</g>
</g>
<!-- Node24 -->
<g id="Node000024" class="node">
<title>Node24</title>
<g id="a_Node000024"><a xlink:title=" ">
<polygon fill="#e0e0e0" stroke="#999999" points="272,-74 219,-74 219,-55 272,-55 272,-74"/>
<text text-anchor="middle" x="245.5" y="-62" font-family="Helvetica,sans-Serif" font-size="10.00">stdlib.h</text>
</a>
</g>
</g>
<!-- Node23&#45;&gt;Node24 -->
<g id="edge32_Node000023_Node000024" class="edge">
<title>Node23&#45;&gt;Node24</title>
<g id="a_edge32_Node000023_Node000024"><a xlink:title=" ">
<path fill="none" stroke="#63b8ff" d="M231.31,-109.75C233.56,-102.72 236.8,-92.62 239.62,-83.84"/>
<polygon fill="#63b8ff" stroke="#63b8ff" points="243.02,-84.68 242.75,-74.09 236.36,-82.54 243.02,-84.68"/>
</a>
</g>
</g>
<!-- Node25&#45;&gt;Node15 -->
<g id="edge36_Node000025_Node000015" class="edge">
<title>Node25&#45;&gt;Node15</title>
<g id="a_edge36_Node000025_Node000015"><a xlink:title=" ">
<path fill="none" stroke="#63b8ff" d="M984.39,-340.74C992.09,-322.6 1008.5,-279.46 1008.5,-241.5 1008.5,-241.5 1008.5,-241.5 1008.5,-179 1008.5,-113.78 512.12,-76.95 370.69,-67.78"/>
<polygon fill="#63b8ff" stroke="#63b8ff" points="370.58,-64.27 360.38,-67.12 370.13,-71.25 370.58,-64.27"/>
</a>
</g>
</g>
<!-- Node26 -->
<g id="Node000026" class="node">
<title>Node26</title>
<g id="a_Node000026"><a xlink:title=" ">
<polygon fill="#e0e0e0" stroke="#999999" points="1092.5,-305 1036.5,-305 1036.5,-286 1092.5,-286 1092.5,-305"/>
<text text-anchor="middle" x="1064.5" y="-293" font-family="Helvetica,sans-Serif" font-size="10.00">stdarg.h</text>
</a>
</g>
</g>
<!-- Node25&#45;&gt;Node26 -->
<g id="edge35_Node000025_Node000026" class="edge">
<title>Node25&#45;&gt;Node26</title>
<g id="a_edge35_Node000025_Node000026"><a xlink:title=" ">
<path fill="none" stroke="#63b8ff" d="M994,-340.98C1006.9,-332.84 1026.6,-320.41 1041.9,-310.76"/>
<polygon fill="#63b8ff" stroke="#63b8ff" points="1044.17,-313.47 1050.76,-305.17 1040.43,-307.55 1044.17,-313.47"/>
</a>
</g>
</g>
<!-- Node27 -->
<g id="Node000027" class="node">
<title>Node27</title>
<g id="a_Node000027"><a xlink:title=" ">
<polygon fill="#e0e0e0" stroke="#999999" points="980.5,-305 924.5,-305 924.5,-286 980.5,-286 980.5,-305"/>
<text text-anchor="middle" x="952.5" y="-293" font-family="Helvetica,sans-Serif" font-size="10.00">stddef.h</text>
</a>
</g>
</g>
<!-- Node25&#45;&gt;Node27 -->
<g id="edge37_Node000025_Node000027" class="edge">
<title>Node25&#45;&gt;Node27</title>
<g id="a_edge37_Node000025_Node000027"><a xlink:title=" ">
<path fill="none" stroke="#63b8ff" d="M975.88,-340.75C972.04,-333.49 966.48,-322.95 961.74,-313.98"/>
<polygon fill="#63b8ff" stroke="#63b8ff" points="964.8,-312.3 957.04,-305.09 958.61,-315.57 964.8,-312.3"/>
</a>
</g>
</g>
</g>
</svg>
