<?xml version="1.0" encoding="UTF-8" standalone="no"?>
<!DOCTYPE svg PUBLIC "-//W3C//DTD SVG 1.1//EN"
 "http://www.w3.org/Graphics/SVG/1.1/DTD/svg11.dtd">
<!-- Generated by graphviz version 2.43.0 (0)
 -->
<!-- Title: bisect_search_uint16 Pages: 1 -->
<svg width="356pt" height="101pt"
 viewBox="0.00 0.00 356.00 101.00" xmlns="http://www.w3.org/2000/svg" xmlns:xlink="http://www.w3.org/1999/xlink">

<svg id="main" version="1.1" xmlns="http://www.w3.org/2000/svg" xmlns:xlink="http://www.w3.org/1999/xlink" xml:space="preserve" onload="init(evt)">
<style type="text/css"><![CDATA[
.node, .edge {opacity: 0.7;}
.node.selected, .edge.selected {opacity: 1;}
.edge:hover path { stroke: red; }
.edge:hover polygon { stroke: red; fill: red; }
]]></style>
<script type="application/ecmascript" xlink:href="svg.min.js"/>
<svg id="graph" class="graph">
<g id="graph0" class="graph" transform="scale(1 1) rotate(0) translate(4 97)">
<title>bisect_search_uint16</title>
<!-- Node1 -->
<g id="Node000001" class="node">
<title>Node1</title>
<g id="a_Node000001"><a xlink:title=" ">
<polygon fill="#999999" stroke="#666666" points="348,-56 229,-56 229,-37 348,-37 348,-56"/>
<text text-anchor="middle" x="288.5" y="-44" font-family="Helvetica,sans-Serif" font-size="10.00">bisect_search_uint16</text>
</a>
</g>
</g>
<!-- Node2 -->
<g id="Node000002" class="node">
<title>Node2</title>
<g id="a_Node000002"><a xlink:href="sorting_8cpp.html#a20bdcac5e2c4d21c98ffb39cba8a1dd5" target="_top" xlink:title=" ">
<polygon fill="white" stroke="#666666" points="193,-93 77,-93 77,-74 193,-74 193,-93"/>
<text text-anchor="middle" x="135" y="-81" font-family="Helvetica,sans-Serif" font-size="10.00">common_list_uint16</text>
</a>
</g>
</g>
<!-- Node1&#45;&gt;Node2 -->
<g id="edge1_Node000001_Node000002" class="edge">
<title>Node1&#45;&gt;Node2</title>
<g id="a_edge1_Node000001_Node000002"><a xlink:title=" ">
<path fill="none" stroke="#63b8ff" d="M238.67,-58.43C218.12,-63.44 194.53,-69.21 175.15,-73.94"/>
<polygon fill="#63b8ff" stroke="#63b8ff" points="239.6,-61.8 248.48,-56.03 237.94,-55 239.6,-61.8"/>
</a>
</g>
</g>
<!-- Node3 -->
<g id="Node000003" class="node">
<title>Node3</title>
<g id="a_Node000003"><a xlink:href="sorting_8cpp.html#a5c48039a67477d163d4321fc2cdfe0a4" target="_top" xlink:title=" ">
<polygon fill="white" stroke="#666666" points="190,-56 80,-56 80,-37 190,-37 190,-56"/>
<text text-anchor="middle" x="135" y="-44" font-family="Helvetica,sans-Serif" font-size="10.00">remove_list_uint16</text>
</a>
</g>
</g>
<!-- Node1&#45;&gt;Node3 -->
<g id="edge2_Node000001_Node000003" class="edge">
<title>Node1&#45;&gt;Node3</title>
<g id="a_edge2_Node000001_Node000003"><a xlink:title=" ">
<path fill="none" stroke="#63b8ff" d="M218.73,-46.5C209.25,-46.5 199.62,-46.5 190.45,-46.5"/>
<polygon fill="#63b8ff" stroke="#63b8ff" points="218.93,-50 228.93,-46.5 218.93,-43 218.93,-50"/>
</a>
</g>
</g>
<!-- Node5 -->
<g id="Node000005" class="node">
<title>Node5</title>
<g id="a_Node000005"><a xlink:href="test__sorting_8cpp.html#ab0c7c68d114fdbc1d17b7f6e29dc462b" target="_top" xlink:title=" ">
<polygon fill="white" stroke="#666666" points="155.5,-19 114.5,-19 114.5,0 155.5,0 155.5,-19"/>
<text text-anchor="middle" x="135" y="-7" font-family="Helvetica,sans-Serif" font-size="10.00">TEST</text>
</a>
</g>
</g>
<!-- Node1&#45;&gt;Node5 -->
<g id="edge4_Node000001_Node000005" class="edge">
<title>Node1&#45;&gt;Node5</title>
<g id="a_edge4_Node000001_Node000005"><a xlink:title=" ">
<path fill="none" stroke="#63b8ff" d="M238.44,-34.52C210.4,-27.67 176.76,-19.45 155.88,-14.35"/>
<polygon fill="#63b8ff" stroke="#63b8ff" points="237.94,-38 248.48,-36.97 239.6,-31.2 237.94,-38"/>
</a>
</g>
</g>
<!-- Node4 -->
<g id="Node000004" class="node">
<title>Node4</title>
<g id="a_Node000004"><a xlink:href="test__sorting_8cpp.html#ada01dd15035914f362534f33fc0b4a6c" target="_top" xlink:title=" ">
<polygon fill="white" stroke="#666666" points="41,-56 0,-56 0,-37 41,-37 41,-56"/>
<text text-anchor="middle" x="20.5" y="-44" font-family="Helvetica,sans-Serif" font-size="10.00">TEST</text>
</a>
</g>
</g>
<!-- Node3&#45;&gt;Node4 -->
<g id="edge3_Node000003_Node000004" class="edge">
<title>Node3&#45;&gt;Node4</title>
<g id="a_edge3_Node000003_Node000004"><a xlink:title=" ">
<path fill="none" stroke="#63b8ff" d="M69.7,-46.5C59.32,-46.5 49.31,-46.5 41.13,-46.5"/>
<polygon fill="#63b8ff" stroke="#63b8ff" points="69.73,-50 79.73,-46.5 69.73,-43 69.73,-50"/>
</a>
</g>
</g>
</g>
</svg>
</svg>

<style type='text/css'>
<![CDATA[
[data-mouse-over-selected='false'] { opacity: 0.7; }
[data-mouse-over-selected='true']  { opacity: 1.0; }
]]>
</style>
<script type="application/ecmascript"><![CDATA[
document.addEventListener('DOMContentLoaded', (event) => {
  highlightEdges();
  highlightAdjacentNodes();
});
]]></script>
</svg>
