<?xml version="1.0" encoding="UTF-8" standalone="no"?>
<!DOCTYPE svg PUBLIC "-//W3C//DTD SVG 1.1//EN"
 "http://www.w3.org/Graphics/SVG/1.1/DTD/svg11.dtd">
<!-- Generated by graphviz version 2.43.0 (0)
 -->
<!-- Title: be32tofloat_ptr Pages: 1 -->
<svg width="233pt" height="64pt"
 viewBox="0.00 0.00 233.00 64.00" xmlns="http://www.w3.org/2000/svg" xmlns:xlink="http://www.w3.org/1999/xlink">
<g id="graph0" class="graph" transform="scale(1 1) rotate(0) translate(4 60)">
<title>be32tofloat_ptr</title>
<!-- Node1 -->
<g id="Node000001" class="node">
<title>Node1</title>
<g id="a_Node000001"><a xlink:title=" ">
<polygon fill="#999999" stroke="#666666" points="91,-37 0,-37 0,-18 91,-18 91,-37"/>
<text text-anchor="middle" x="45.5" y="-25" font-family="Helvetica,sans-Serif" font-size="10.00">be32tofloat_ptr</text>
</a>
</g>
</g>
<!-- Node2 -->
<g id="Node000002" class="node">
<title>Node2</title>
<g id="a_Node000002"><a xlink:href="sparse-endian_8h.html#a60255dc5c800d6d90a8f548b63bbe129" target="_top" xlink:title=" ">
<polygon fill="white" stroke="#666666" points="213.5,-56 138.5,-56 138.5,-37 213.5,-37 213.5,-56"/>
<text text-anchor="middle" x="176" y="-44" font-family="Helvetica,sans-Serif" font-size="10.00">be32toh_ptr</text>
</a>
</g>
</g>
<!-- Node1&#45;&gt;Node2 -->
<g id="edge1_Node000001_Node000002" class="edge">
<title>Node1&#45;&gt;Node2</title>
<g id="a_edge1_Node000001_Node000002"><a xlink:title=" ">
<path fill="none" stroke="#63b8ff" d="M91.08,-34.09C103.09,-35.87 116.11,-37.79 128.23,-39.58"/>
<polygon fill="#63b8ff" stroke="#63b8ff" points="127.75,-43.05 138.16,-41.05 128.78,-36.13 127.75,-43.05"/>
</a>
</g>
</g>
<!-- Node3 -->
<g id="Node000003" class="node">
<title>Node3</title>
<g id="a_Node000003"><a xlink:href="AP__Math_8cpp.html#ad3850a078744f077a9c46cc7847269e7" target="_top" xlink:title=" ">
<polygon fill="white" stroke="#666666" points="225,-19 127,-19 127,0 225,0 225,-19"/>
<text text-anchor="middle" x="176" y="-7" font-family="Helvetica,sans-Serif" font-size="10.00">int32_to_float_le</text>
</a>
</g>
</g>
<!-- Node1&#45;&gt;Node3 -->
<g id="edge2_Node000001_Node000003" class="edge">
<title>Node1&#45;&gt;Node3</title>
<g id="a_edge2_Node000001_Node000003"><a xlink:title=" ">
<path fill="none" stroke="#63b8ff" d="M91.08,-21.25C99.42,-20.09 108.24,-18.85 116.92,-17.64"/>
<polygon fill="#63b8ff" stroke="#63b8ff" points="117.57,-21.08 126.99,-16.22 116.6,-14.15 117.57,-21.08"/>
</a>
</g>
</g>
</g>
</svg>
