<?xml version="1.0" encoding="UTF-8" standalone="no"?>
<!DOCTYPE svg PUBLIC "-//W3C//DTD SVG 1.1//EN"
 "http://www.w3.org/Graphics/SVG/1.1/DTD/svg11.dtd">
<!-- Generated by graphviz version 2.43.0 (0)
 -->
<!-- Title: arm_dct4_instance_q31 Pages: 1 -->
<svg width="315pt" height="159pt"
 viewBox="0.00 0.00 315.00 159.00" xmlns="http://www.w3.org/2000/svg" xmlns:xlink="http://www.w3.org/1999/xlink">
<g id="graph0" class="graph" transform="scale(1 1) rotate(0) translate(4 155)">
<title>arm_dct4_instance_q31</title>
<!-- Node1 -->
<g id="Node000001" class="node">
<title>Node1</title>
<g id="a_Node000001"><a xlink:title="Instance structure for the Q31 DCT4/IDCT4 function.">
<polygon fill="#999999" stroke="#666666" points="250.5,-19 118.5,-19 118.5,0 250.5,0 250.5,-19"/>
<text text-anchor="middle" x="184.5" y="-7" font-family="Helvetica,sans-Serif" font-size="10.00">arm_dct4_instance_q31</text>
</a>
</g>
</g>
<!-- Node2 -->
<g id="Node000002" class="node">
<title>Node2</title>
<g id="a_Node000002"><a xlink:href="structarm__rfft__instance__q31.html" target="_top" xlink:title="Instance structure for the Q31 RFFT/RIFFT function.">
<polygon fill="white" stroke="#666666" points="126,-85 1,-85 1,-66 126,-66 126,-85"/>
<text text-anchor="middle" x="63.5" y="-73" font-family="Helvetica,sans-Serif" font-size="10.00">arm_rfft_instance_q31</text>
</a>
</g>
</g>
<!-- Node2&#45;&gt;Node1 -->
<g id="edge1_Node000001_Node000002" class="edge">
<title>Node2&#45;&gt;Node1</title>
<g id="a_edge1_Node000001_Node000002"><a xlink:title=" ">
<path fill="none" stroke="#9a32cd" stroke-dasharray="5,2" d="M88.97,-61.03C112.8,-48.42 147.7,-29.97 168.05,-19.2"/>
<polygon fill="#9a32cd" stroke="#9a32cd" points="87.02,-58.1 79.82,-65.87 90.29,-64.29 87.02,-58.1"/>
</a>
</g>
<text text-anchor="middle" x="145" y="-40" font-family="Helvetica,sans-Serif" font-size="10.00" fill="grey"> pRfft</text>
</g>
<!-- Node3 -->
<g id="Node000003" class="node">
<title>Node3</title>
<g id="a_Node000003"><a xlink:href="structarm__cfft__instance__q31.html" target="_top" xlink:title="Instance structure for the fixed&#45;point CFFT/CIFFT function.">
<polygon fill="white" stroke="#666666" points="127,-151 0,-151 0,-132 127,-132 127,-151"/>
<text text-anchor="middle" x="63.5" y="-139" font-family="Helvetica,sans-Serif" font-size="10.00">arm_cfft_instance_q31</text>
</a>
</g>
</g>
<!-- Node3&#45;&gt;Node2 -->
<g id="edge2_Node000002_Node000003" class="edge">
<title>Node3&#45;&gt;Node2</title>
<g id="a_edge2_Node000002_Node000003"><a xlink:title=" ">
<path fill="none" stroke="#9a32cd" stroke-dasharray="5,2" d="M63.5,-121.58C63.5,-109.63 63.5,-94.72 63.5,-85.41"/>
<polygon fill="#9a32cd" stroke="#9a32cd" points="60,-121.87 63.5,-131.87 67,-121.87 60,-121.87"/>
</a>
</g>
<text text-anchor="middle" x="77" y="-106" font-family="Helvetica,sans-Serif" font-size="10.00" fill="grey"> pCfft</text>
</g>
<!-- Node4 -->
<g id="Node000004" class="node">
<title>Node4</title>
<g id="a_Node000004"><a xlink:href="structarm__cfft__radix4__instance__q31.html" target="_top" xlink:title="Instance structure for the Q31 CFFT/CIFFT function.">
<polygon fill="white" stroke="#666666" points="307,-85 144,-85 144,-66 307,-66 307,-85"/>
<text text-anchor="middle" x="225.5" y="-73" font-family="Helvetica,sans-Serif" font-size="10.00">arm_cfft_radix4_instance_q31</text>
</a>
</g>
</g>
<!-- Node4&#45;&gt;Node1 -->
<g id="edge3_Node000001_Node000004" class="edge">
<title>Node4&#45;&gt;Node1</title>
<g id="a_edge3_Node000001_Node000004"><a xlink:title=" ">
<path fill="none" stroke="#9a32cd" stroke-dasharray="5,2" d="M214.55,-57.41C206.71,-45.18 196.48,-29.2 190.2,-19.41"/>
<polygon fill="#9a32cd" stroke="#9a32cd" points="211.63,-59.34 219.97,-65.87 217.52,-55.56 211.63,-59.34"/>
</a>
</g>
<text text-anchor="middle" x="220" y="-40" font-family="Helvetica,sans-Serif" font-size="10.00" fill="grey"> pCfft</text>
</g>
</g>
</svg>
