<?xml version="1.0" encoding="UTF-8" standalone="no"?>
<!DOCTYPE svg PUBLIC "-//W3C//DTD SVG 1.1//EN"
 "http://www.w3.org/Graphics/SVG/1.1/DTD/svg11.dtd">
<!-- Generated by graphviz version 2.43.0 (0)
 -->
<!-- Title: SITL::InertialLabs::ILabsPacket Pages: 1 -->
<svg width="374pt" height="377pt"
 viewBox="0.00 0.00 374.00 377.00" xmlns="http://www.w3.org/2000/svg" xmlns:xlink="http://www.w3.org/1999/xlink">
<g id="graph0" class="graph" transform="scale(1 1) rotate(0) translate(4 373)">
<title>SITL::InertialLabs::ILabsPacket</title>
<!-- Node1 -->
<g id="Node000001" class="node">
<title>Node1</title>
<g id="a_Node000001"><a xlink:title=" ">
<polygon fill="#999999" stroke="#666666" points="366,-174 266,-174 266,-144 366,-144 366,-174"/>
<text text-anchor="start" x="274" y="-162" font-family="Helvetica,sans-Serif" font-size="10.00">SITL::InertialLabs</text>
<text text-anchor="middle" x="316" y="-151" font-family="Helvetica,sans-Serif" font-size="10.00">::ILabsPacket</text>
</a>
</g>
</g>
<!-- Node2 -->
<g id="Node000002" class="node">
<title>Node2</title>
<g id="a_Node000002"><a xlink:href="structSITL_1_1InertialLabs_1_1vec3__32__t.html" target="_top" xlink:title=" ">
<polygon fill="white" stroke="#666666" points="114.5,-346 14.5,-346 14.5,-316 114.5,-316 114.5,-346"/>
<text text-anchor="start" x="22.5" y="-334" font-family="Helvetica,sans-Serif" font-size="10.00">SITL::InertialLabs</text>
<text text-anchor="middle" x="64.5" y="-323" font-family="Helvetica,sans-Serif" font-size="10.00">::vec3_32_t</text>
</a>
</g>
</g>
<!-- Node2&#45;&gt;Node1 -->
<g id="edge1_Node000001_Node000002" class="edge">
<title>Node2&#45;&gt;Node1</title>
<g id="a_edge1_Node000001_Node000002"><a xlink:title=" ">
<path fill="none" stroke="#9a32cd" stroke-dasharray="5,2" d="M124.93,-336.78C163.55,-337.42 213.02,-332.02 248,-306 292.1,-273.19 307.95,-204.45 312.95,-174.03"/>
<polygon fill="#9a32cd" stroke="#9a32cd" points="124.96,-333.28 114.86,-336.47 124.75,-340.28 124.96,-333.28"/>
</a>
</g>
<text text-anchor="middle" x="197.5" y="-361" font-family="Helvetica,sans-Serif" font-size="10.00" fill="grey"> accel_data_hr</text>
<text text-anchor="middle" x="197.5" y="-350" font-family="Helvetica,sans-Serif" font-size="10.00" fill="grey">gyro_data_hr</text>
<text text-anchor="middle" x="197.5" y="-339" font-family="Helvetica,sans-Serif" font-size="10.00" fill="grey">velocity</text>
</g>
<!-- Node3 -->
<g id="Node000003" class="node">
<title>Node3</title>
<g id="a_Node000003"><a xlink:href="structSITL_1_1InertialLabs_1_1ILabsPacket_1_1PACKED.html" target="_top" xlink:title=" ">
<polygon fill="white" stroke="#666666" points="127,-270 2,-270 2,-240 127,-240 127,-270"/>
<text text-anchor="start" x="10" y="-258" font-family="Helvetica,sans-Serif" font-size="10.00">SITL::InertialLabs</text>
<text text-anchor="middle" x="64.5" y="-247" font-family="Helvetica,sans-Serif" font-size="10.00">::ILabsPacket::PACKED</text>
</a>
</g>
</g>
<!-- Node3&#45;&gt;Node1 -->
<g id="edge2_Node000001_Node000003" class="edge">
<title>Node3&#45;&gt;Node1</title>
<g id="a_edge2_Node000001_Node000003"><a xlink:title=" ">
<path fill="none" stroke="#9a32cd" stroke-dasharray="5,2" d="M137.35,-249.17C172.17,-244.21 213.74,-235.02 248,-218 269.65,-207.24 289.8,-187.69 302.23,-174.05"/>
<polygon fill="#9a32cd" stroke="#9a32cd" points="136.71,-245.73 127.26,-250.52 137.63,-252.66 136.71,-245.73"/>
</a>
</g>
<text text-anchor="middle" x="197.5" y="-294" font-family="Helvetica,sans-Serif" font-size="10.00" fill="grey"> baro_data</text>
<text text-anchor="middle" x="197.5" y="-283" font-family="Helvetica,sans-Serif" font-size="10.00" fill="grey">gnss_vel_track</text>
<text text-anchor="middle" x="197.5" y="-272" font-family="Helvetica,sans-Serif" font-size="10.00" fill="grey">gps_position</text>
<text text-anchor="middle" x="197.5" y="-261" font-family="Helvetica,sans-Serif" font-size="10.00" fill="grey">orientation_angles</text>
<text text-anchor="middle" x="197.5" y="-250" font-family="Helvetica,sans-Serif" font-size="10.00" fill="grey">position</text>
</g>
<!-- Node4 -->
<g id="Node000004" class="node">
<title>Node4</title>
<g id="a_Node000004"><a xlink:href="structSITL_1_1InertialLabs_1_1vec3__16__t.html" target="_top" xlink:title=" ">
<polygon fill="white" stroke="#666666" points="114.5,-222 14.5,-222 14.5,-192 114.5,-192 114.5,-222"/>
<text text-anchor="start" x="22.5" y="-210" font-family="Helvetica,sans-Serif" font-size="10.00">SITL::InertialLabs</text>
<text text-anchor="middle" x="64.5" y="-199" font-family="Helvetica,sans-Serif" font-size="10.00">::vec3_16_t</text>
</a>
</g>
</g>
<!-- Node4&#45;&gt;Node1 -->
<g id="edge3_Node000001_Node000004" class="edge">
<title>Node4&#45;&gt;Node1</title>
<g id="a_edge3_Node000001_Node000004"><a xlink:title=" ">
<path fill="none" stroke="#9a32cd" stroke-dasharray="5,2" d="M125.05,-196.87C160.77,-190.64 207.07,-182.28 248,-174 253.72,-172.84 259.71,-171.58 265.65,-170.29"/>
<polygon fill="#9a32cd" stroke="#9a32cd" points="124.04,-193.5 114.79,-198.66 125.24,-200.39 124.04,-193.5"/>
</a>
</g>
<text text-anchor="middle" x="197.5" y="-206" font-family="Helvetica,sans-Serif" font-size="10.00" fill="grey"> mag_data</text>
<text text-anchor="middle" x="197.5" y="-195" font-family="Helvetica,sans-Serif" font-size="10.00" fill="grey">wind_speed</text>
</g>
<!-- Node5 -->
<g id="Node000005" class="node">
<title>Node5</title>
<g id="a_Node000005"><a xlink:href="structSITL_1_1InertialLabs_1_1vec3__u8__t.html" target="_top" xlink:title=" ">
<polygon fill="white" stroke="#666666" points="114.5,-174 14.5,-174 14.5,-144 114.5,-144 114.5,-174"/>
<text text-anchor="start" x="22.5" y="-162" font-family="Helvetica,sans-Serif" font-size="10.00">SITL::InertialLabs</text>
<text text-anchor="middle" x="64.5" y="-151" font-family="Helvetica,sans-Serif" font-size="10.00">::vec3_u8_t</text>
</a>
</g>
</g>
<!-- Node5&#45;&gt;Node1 -->
<g id="edge4_Node000001_Node000005" class="edge">
<title>Node5&#45;&gt;Node1</title>
<g id="a_edge4_Node000001_Node000005"><a xlink:title=" ">
<path fill="none" stroke="#9a32cd" stroke-dasharray="5,2" d="M124.84,-159C167.86,-159 225.34,-159 265.81,-159"/>
<polygon fill="#9a32cd" stroke="#9a32cd" points="124.79,-155.5 114.79,-159 124.79,-162.5 124.79,-155.5"/>
</a>
</g>
<text text-anchor="middle" x="197.5" y="-162" font-family="Helvetica,sans-Serif" font-size="10.00" fill="grey"> kf_vel_covariance</text>
</g>
<!-- Node6 -->
<g id="Node000006" class="node">
<title>Node6</title>
<g id="a_Node000006"><a xlink:href="structSITL_1_1InertialLabs_1_1vec3__u16__t.html" target="_top" xlink:title=" ">
<polygon fill="white" stroke="#666666" points="114.5,-126 14.5,-126 14.5,-96 114.5,-96 114.5,-126"/>
<text text-anchor="start" x="22.5" y="-114" font-family="Helvetica,sans-Serif" font-size="10.00">SITL::InertialLabs</text>
<text text-anchor="middle" x="64.5" y="-103" font-family="Helvetica,sans-Serif" font-size="10.00">::vec3_u16_t</text>
</a>
</g>
</g>
<!-- Node6&#45;&gt;Node1 -->
<g id="edge5_Node000001_Node000006" class="edge">
<title>Node6&#45;&gt;Node1</title>
<g id="a_edge5_Node000001_Node000006"><a xlink:title=" ">
<path fill="none" stroke="#9a32cd" stroke-dasharray="5,2" d="M125.05,-121.13C160.77,-127.36 207.07,-135.72 248,-144 253.72,-145.16 259.71,-146.42 265.65,-147.71"/>
<polygon fill="#9a32cd" stroke="#9a32cd" points="125.24,-117.61 114.79,-119.34 124.04,-124.5 125.24,-117.61"/>
</a>
</g>
<text text-anchor="middle" x="197.5" y="-147" font-family="Helvetica,sans-Serif" font-size="10.00" fill="grey"> kf_pos_covariance</text>
</g>
<!-- Node7 -->
<g id="Node000007" class="node">
<title>Node7</title>
<g id="a_Node000007"><a xlink:href="structSITL_1_1InertialLabs_1_1gnss__extended__info__t.html" target="_top" xlink:title=" ">
<polygon fill="white" stroke="#666666" points="129,-78 0,-78 0,-48 129,-48 129,-78"/>
<text text-anchor="start" x="8" y="-66" font-family="Helvetica,sans-Serif" font-size="10.00">SITL::InertialLabs</text>
<text text-anchor="middle" x="64.5" y="-55" font-family="Helvetica,sans-Serif" font-size="10.00">::gnss_extended_info_t</text>
</a>
</g>
</g>
<!-- Node7&#45;&gt;Node1 -->
<g id="edge6_Node000001_Node000007" class="edge">
<title>Node7&#45;&gt;Node1</title>
<g id="a_edge6_Node000001_Node000007"><a xlink:title=" ">
<path fill="none" stroke="#9a32cd" stroke-dasharray="5,2" d="M139.12,-75.32C173.29,-82.68 213.81,-93.83 248,-110 266.63,-118.81 285.35,-133.07 298.25,-143.94"/>
<polygon fill="#9a32cd" stroke="#9a32cd" points="139.71,-71.86 129.21,-73.24 138.28,-78.71 139.71,-71.86"/>
</a>
</g>
<text text-anchor="middle" x="197.5" y="-113" font-family="Helvetica,sans-Serif" font-size="10.00" fill="grey"> gnss_extended_info</text>
</g>
<!-- Node8 -->
<g id="Node000008" class="node">
<title>Node8</title>
<g id="a_Node000008"><a xlink:href="structSITL_1_1InertialLabs_1_1gnss__info__short__t.html" target="_top" xlink:title=" ">
<polygon fill="white" stroke="#666666" points="118.5,-30 10.5,-30 10.5,0 118.5,0 118.5,-30"/>
<text text-anchor="start" x="18.5" y="-18" font-family="Helvetica,sans-Serif" font-size="10.00">SITL::InertialLabs</text>
<text text-anchor="middle" x="64.5" y="-7" font-family="Helvetica,sans-Serif" font-size="10.00">::gnss_info_short_t</text>
</a>
</g>
</g>
<!-- Node8&#45;&gt;Node1 -->
<g id="edge7_Node000001_Node000008" class="edge">
<title>Node8&#45;&gt;Node1</title>
<g id="a_edge7_Node000001_Node000008"><a xlink:title=" ">
<path fill="none" stroke="#9a32cd" stroke-dasharray="5,2" d="M129.04,-20.23C166.42,-25.88 213.05,-37.61 248,-62 278.05,-82.96 298.83,-122.03 308.62,-143.64"/>
<polygon fill="#9a32cd" stroke="#9a32cd" points="129.15,-16.71 118.76,-18.79 128.18,-23.64 129.15,-16.71"/>
</a>
</g>
<text text-anchor="middle" x="197.5" y="-65" font-family="Helvetica,sans-Serif" font-size="10.00" fill="grey"> gnss_info_short</text>
</g>
</g>
</svg>
