<?xml version="1.0" encoding="UTF-8" standalone="no"?>
<!DOCTYPE svg PUBLIC "-//W3C//DTD SVG 1.1//EN"
 "http://www.w3.org/Graphics/SVG/1.1/DTD/svg11.dtd">
<!-- Generated by graphviz version 2.43.0 (0)
 -->
<!-- Title: uzlib_get_byte Pages: 1 -->
<!--zoomable 189 -->

<svg id="main" version="1.1" xmlns="http://www.w3.org/2000/svg" xmlns:xlink="http://www.w3.org/1999/xlink" xml:space="preserve" onload="init(evt)">
<style type="text/css"><![CDATA[
.node, .edge {opacity: 0.7;}
.node.selected, .edge.selected {opacity: 1;}
.edge:hover path { stroke: red; }
.edge:hover polygon { stroke: red; fill: red; }
]]></style>

<defs>
  <circle id="rim" cx="0" cy="0" r="7"/>
  <circle id="rim2" cx="0" cy="0" r="3.5"/>
  <g id="zoomPlus">
    <use xlink:href="#rim" fill="#404040"><set attributeName="fill" to="#808080" begin="zoomplus.mouseover" end="zoomplus.mouseout"/></use>
    <path d="M-4,0h8M0,-4v8" fill="none" stroke="white" stroke-width="1.5" pointer-events="none"/>
  </g>
  <g id="zoomMin">
    <use xlink:href="#rim" fill="#404040"><set attributeName="fill" to="#808080" begin="zoomminus.mouseover" end="zoomminus.mouseout"/></use>
    <path d="M-4,0h8" fill="none" stroke="white" stroke-width="1.5" pointer-events="none"/>
  </g>
  <g id="arrowUp" transform="translate(30 24)">
    <use xlink:href="#rim"/>
    <path pointer-events="none" fill="none" stroke="white" stroke-width="1.5" d="M0,-3.0v7 M-2.5,-0.5L0,-3.0L2.5,-0.5"/>
  </g>
  <g id="arrowRight" transform="rotate(90) translate(36 -43)">
    <use xlink:href="#rim"/>
    <path pointer-events="none" fill="none" stroke="white" stroke-width="1.5" d="M0,-3.0v7 M-2.5,-0.5L0,-3.0L2.5,-0.5"/>
  </g>
  <g id="arrowDown" transform="rotate(180) translate(-30 -48)">
    <use xlink:href="#rim"/>
    <path pointer-events="none" fill="none" stroke="white" stroke-width="1.5" d="M0,-3.0v7 M-2.5,-0.5L0,-3.0L2.5,-0.5"/>
  </g>
  <g id="arrowLeft" transform="rotate(270) translate(-36 17)">
    <use xlink:href="#rim"/>
    <path pointer-events="none" fill="none" stroke="white" stroke-width="1.5" d="M0,-3.0v7 M-2.5,-0.5L0,-3.0L2.5,-0.5"/>
  </g>
  <g id="resetDef">
    <use xlink:href="#rim2" fill="#404040"><set attributeName="fill" to="#808080" begin="reset.mouseover" end="reset.mouseout"/></use>
  </g>
</defs>
<script type="application/ecmascript">
var viewWidth = 919;
var viewHeight = 189;
var sectionId = 'dynsection-2';
</script>
<script type="application/ecmascript" xlink:href="svg.min.js"/>
<svg id="graph" class="graph">
<g id="viewport">
<title>uzlib_get_byte</title>
<!-- Node1 -->
<g id="Node000001" class="node">
<title>Node1</title>
<g id="a_Node000001"><a xlink:title=" ">
<polygon fill="#999999" stroke="#666666" points="911,-104.5 823,-104.5 823,-85.5 911,-85.5 911,-104.5"/>
<text text-anchor="middle" x="867" y="-92.5" font-family="Helvetica,sans-Serif" font-size="10.00">uzlib_get_byte</text>
</a>
</g>
</g>
<!-- Node2 -->
<g id="Node000002" class="node">
<title>Node2</title>
<g id="a_Node000002"><a xlink:href="tinflate_8cpp.html#a07adbe3b8237dd820bb143cca6ea8230" target="_top" xlink:title=" ">
<polygon fill="white" stroke="#666666" points="787,-160.5 680,-160.5 680,-141.5 787,-141.5 787,-160.5"/>
<text text-anchor="middle" x="733.5" y="-148.5" font-family="Helvetica,sans-Serif" font-size="10.00">tinf_get_be_uint32</text>
</a>
</g>
</g>
<!-- Node1&#45;&gt;Node2 -->
<g id="edge1_Node000001_Node000002" class="edge">
<title>Node1&#45;&gt;Node2</title>
<g id="a_edge1_Node000001_Node000002"><a xlink:title=" ">
<path fill="none" stroke="#63b8ff" d="M838.53,-109.2C823.5,-116.72 804.44,-125.84 787,-133 779.78,-135.96 771.87,-138.85 764.44,-141.42"/>
<polygon fill="#63b8ff" stroke="#63b8ff" points="840.42,-112.17 847.76,-104.53 837.26,-105.92 840.42,-112.17"/>
</a>
</g>
</g>
<!-- Node3 -->
<g id="Node000003" class="node">
<title>Node3</title>
<g id="a_Node000003"><a xlink:href="tinflate_8cpp.html#acafd1e173852c49c903a32abaf7f3d95" target="_top" xlink:title=" ">
<polygon fill="white" stroke="#666666" points="785.5,-123.5 681.5,-123.5 681.5,-104.5 785.5,-104.5 785.5,-123.5"/>
<text text-anchor="middle" x="733.5" y="-111.5" font-family="Helvetica,sans-Serif" font-size="10.00">tinf_get_le_uint32</text>
</a>
</g>
</g>
<!-- Node1&#45;&gt;Node3 -->
<g id="edge2_Node000001_Node000003" class="edge">
<title>Node1&#45;&gt;Node3</title>
<g id="a_edge2_Node000001_Node000003"><a xlink:title=" ">
<path fill="none" stroke="#63b8ff" d="M813.02,-102.65C804.08,-103.95 794.8,-105.29 785.9,-106.57"/>
<polygon fill="#63b8ff" stroke="#63b8ff" points="813.55,-106.12 822.94,-101.22 812.54,-99.19 813.55,-106.12"/>
</a>
</g>
</g>
<!-- Node4 -->
<g id="Node000004" class="node">
<title>Node4</title>
<g id="a_Node000004"><a xlink:href="tinflate_8cpp.html#a999f8cd39752d95eeb64e7e3d435226c" target="_top" xlink:title=" ">
<polygon fill="white" stroke="#666666" points="767,-86.5 700,-86.5 700,-67.5 767,-67.5 767,-86.5"/>
<text text-anchor="middle" x="733.5" y="-74.5" font-family="Helvetica,sans-Serif" font-size="10.00">tinf_getbit</text>
</a>
</g>
</g>
<!-- Node1&#45;&gt;Node4 -->
<g id="edge3_Node000001_Node000004" class="edge">
<title>Node1&#45;&gt;Node4</title>
<g id="a_edge3_Node000001_Node000004"><a xlink:title=" ">
<path fill="none" stroke="#63b8ff" d="M812.95,-87.74C797.48,-85.62 781.04,-83.37 767.22,-81.48"/>
<polygon fill="#63b8ff" stroke="#63b8ff" points="812.56,-91.22 822.94,-89.11 813.51,-84.28 812.56,-91.22"/>
</a>
</g>
</g>
<!-- Node11 -->
<g id="Node000011" class="node">
<title>Node11</title>
<g id="a_Node000011"><a xlink:href="tinflate_8cpp.html#abfce4e6800b51652460968cc37f15cf6" target="_top" xlink:title=" ">
<polygon fill="white" stroke="#666666" points="644,-30 498,-30 498,0 644,0 644,-30"/>
<text text-anchor="start" x="506" y="-18" font-family="Helvetica,sans-Serif" font-size="10.00">tinf_inflate_uncompressed</text>
<text text-anchor="middle" x="571" y="-7" font-family="Helvetica,sans-Serif" font-size="10.00">_block</text>
</a>
</g>
</g>
<!-- Node1&#45;&gt;Node11 -->
<g id="edge15_Node000001_Node000011" class="edge">
<title>Node1&#45;&gt;Node11</title>
<g id="a_edge15_Node000001_Node000011"><a xlink:title=" ">
<path fill="none" stroke="#63b8ff" d="M839.42,-80.59C824.4,-72.95 805.06,-63.94 787,-58 740.53,-42.72 686.54,-31.95 644.29,-25"/>
<polygon fill="#63b8ff" stroke="#63b8ff" points="838.13,-83.86 848.62,-85.37 841.36,-77.65 838.13,-83.86"/>
</a>
</g>
</g>
<!-- Node5 -->
<g id="Node000005" class="node">
<title>Node5</title>
<g id="a_Node000005"><a xlink:href="tinflate_8cpp.html#a1fe738435f50b87e1865244f3ad1f845" target="_top" xlink:title=" ">
<polygon fill="white" stroke="#666666" points="628.5,-143.5 513.5,-143.5 513.5,-124.5 628.5,-124.5 628.5,-143.5"/>
<text text-anchor="middle" x="571" y="-131.5" font-family="Helvetica,sans-Serif" font-size="10.00">tinf_decode_symbol</text>
</a>
</g>
</g>
<!-- Node4&#45;&gt;Node5 -->
<g id="edge4_Node000004_Node000005" class="edge">
<title>Node4&#45;&gt;Node5</title>
<g id="a_edge4_Node000004_Node000005"><a xlink:title=" ">
<path fill="none" stroke="#63b8ff" d="M693.93,-90.16C689.19,-92.01 684.45,-93.97 680,-96 663.34,-103.58 661.02,-109.28 644,-116 635.73,-119.26 626.69,-122.08 617.89,-124.44"/>
<polygon fill="#63b8ff" stroke="#63b8ff" points="695.43,-93.33 703.56,-86.54 692.97,-86.78 695.43,-93.33"/>
</a>
</g>
</g>
<!-- Node7 -->
<g id="Node000007" class="node">
<title>Node7</title>
<g id="a_Node000007"><a xlink:href="tinflate_8cpp.html#ac0a116da38894bd2e99109746fb0d816" target="_top" xlink:title=" ">
<polygon fill="white" stroke="#666666" points="298,-105.5 194,-105.5 194,-86.5 298,-86.5 298,-105.5"/>
<text text-anchor="middle" x="246" y="-93.5" font-family="Helvetica,sans-Serif" font-size="10.00">uzlib_uncompress</text>
</a>
</g>
</g>
<!-- Node4&#45;&gt;Node7 -->
<g id="edge14_Node000004_Node000007" class="edge">
<title>Node4&#45;&gt;Node7</title>
<g id="a_edge14_Node000004_Node000007"><a xlink:title=" ">
<path fill="none" stroke="#63b8ff" d="M689.74,-76.32C642.72,-75.77 564.95,-75.46 498,-78 428.8,-80.63 349.07,-86.9 298.38,-91.3"/>
<polygon fill="#63b8ff" stroke="#63b8ff" points="689.82,-79.82 699.86,-76.45 689.91,-72.82 689.82,-79.82"/>
</a>
</g>
</g>
<!-- Node10 -->
<g id="Node000010" class="node">
<title>Node10</title>
<g id="a_Node000010"><a xlink:href="tinflate_8cpp.html#ad413093431fdade48d5463718689ffa1" target="_top" xlink:title=" ">
<polygon fill="white" stroke="#666666" points="612.5,-106.5 529.5,-106.5 529.5,-87.5 612.5,-87.5 612.5,-106.5"/>
<text text-anchor="middle" x="571" y="-94.5" font-family="Helvetica,sans-Serif" font-size="10.00">tinf_read_bits</text>
</a>
</g>
</g>
<!-- Node4&#45;&gt;Node10 -->
<g id="edge10_Node000004_Node000010" class="edge">
<title>Node4&#45;&gt;Node10</title>
<g id="a_edge10_Node000004_Node000010"><a xlink:title=" ">
<path fill="none" stroke="#63b8ff" d="M689.43,-82.37C665.54,-85.34 635.99,-89.03 612.51,-91.95"/>
<polygon fill="#63b8ff" stroke="#63b8ff" points="690.14,-85.81 699.63,-81.1 689.28,-78.86 690.14,-85.81"/>
</a>
</g>
</g>
<!-- Node6 -->
<g id="Node000006" class="node">
<title>Node6</title>
<g id="a_Node000006"><a xlink:href="tinflate_8cpp.html#ac32796da2aa7e7043652b650700f59f2" target="_top" xlink:title=" ">
<polygon fill="white" stroke="#666666" points="450,-180.5 346,-180.5 346,-161.5 450,-161.5 450,-180.5"/>
<text text-anchor="middle" x="398" y="-168.5" font-family="Helvetica,sans-Serif" font-size="10.00">tinf_decode_trees</text>
</a>
</g>
</g>
<!-- Node5&#45;&gt;Node6 -->
<g id="edge5_Node000005_Node000006" class="edge">
<title>Node5&#45;&gt;Node6</title>
<g id="a_edge5_Node000005_Node000006"><a xlink:title=" ">
<path fill="none" stroke="#63b8ff" d="M516.15,-145.65C492.66,-150.73 465.46,-156.62 443.18,-161.44"/>
<polygon fill="#63b8ff" stroke="#63b8ff" points="516.93,-149.06 525.96,-143.53 515.45,-142.22 516.93,-149.06"/>
</a>
</g>
</g>
<!-- Node9 -->
<g id="Node000009" class="node">
<title>Node9</title>
<g id="a_Node000009"><a xlink:href="tinflate_8cpp.html#ad1d31200df283ff9c5954ee37a2f7cbf" target="_top" xlink:title=" ">
<polygon fill="white" stroke="#666666" points="462,-143.5 334,-143.5 334,-124.5 462,-124.5 462,-143.5"/>
<text text-anchor="middle" x="398" y="-131.5" font-family="Helvetica,sans-Serif" font-size="10.00">tinf_inflate_block_data</text>
</a>
</g>
</g>
<!-- Node5&#45;&gt;Node9 -->
<g id="edge8_Node000005_Node000009" class="edge">
<title>Node5&#45;&gt;Node9</title>
<g id="a_edge8_Node000005_Node000009"><a xlink:title=" ">
<path fill="none" stroke="#63b8ff" d="M502.94,-134C489.52,-134 475.46,-134 462.17,-134"/>
<polygon fill="#63b8ff" stroke="#63b8ff" points="503.06,-137.5 513.06,-134 503.06,-130.5 503.06,-137.5"/>
</a>
</g>
</g>
<!-- Node6&#45;&gt;Node7 -->
<g id="edge6_Node000006_Node000007" class="edge">
<title>Node6&#45;&gt;Node7</title>
<g id="a_edge6_Node000006_Node000007"><a xlink:title=" ">
<path fill="none" stroke="#63b8ff" d="M346.93,-158.21C342.5,-156.62 338.13,-154.89 334,-153 305.27,-139.85 275.16,-118.04 258.99,-105.56"/>
<polygon fill="#63b8ff" stroke="#63b8ff" points="346.09,-161.62 356.69,-161.45 348.3,-154.98 346.09,-161.62"/>
</a>
</g>
</g>
<!-- Node8 -->
<g id="Node000008" class="node">
<title>Node8</title>
<g id="a_Node000008"><a xlink:href="classAP__ROMFS.html#ad620eb72e907f3acfe652f842102b8b7" target="_top" xlink:title=" ">
<polygon fill="white" stroke="#666666" points="158,-105.5 0,-105.5 0,-86.5 158,-86.5 158,-105.5"/>
<text text-anchor="middle" x="79" y="-93.5" font-family="Helvetica,sans-Serif" font-size="10.00">AP_ROMFS::find_decompress</text>
</a>
</g>
</g>
<!-- Node7&#45;&gt;Node8 -->
<g id="edge7_Node000007_Node000008" class="edge">
<title>Node7&#45;&gt;Node8</title>
<g id="a_edge7_Node000007_Node000008"><a xlink:title=" ">
<path fill="none" stroke="#63b8ff" d="M183.46,-96C175.23,-96 166.7,-96 158.23,-96"/>
<polygon fill="#63b8ff" stroke="#63b8ff" points="183.7,-99.5 193.7,-96 183.7,-92.5 183.7,-99.5"/>
</a>
</g>
</g>
<!-- Node9&#45;&gt;Node7 -->
<g id="edge9_Node000009_Node000007" class="edge">
<title>Node9&#45;&gt;Node7</title>
<g id="a_edge9_Node000009_Node000007"><a xlink:title=" ">
<path fill="none" stroke="#63b8ff" d="M349.19,-121.89C328.3,-116.6 304.15,-110.48 284.58,-105.52"/>
<polygon fill="#63b8ff" stroke="#63b8ff" points="348.6,-125.35 359.15,-124.41 350.31,-118.56 348.6,-125.35"/>
</a>
</g>
</g>
<!-- Node10&#45;&gt;Node6 -->
<g id="edge11_Node000010_Node000006" class="edge">
<title>Node10&#45;&gt;Node6</title>
<g id="a_edge11_Node000010_Node000006"><a xlink:title=" ">
<path fill="none" stroke="#63b8ff" d="M519.45,-106.59C511.99,-109.06 504.6,-112.15 498,-116 478.19,-127.57 481.69,-141.23 462,-153 456.34,-156.38 450.01,-159.16 443.6,-161.43"/>
<polygon fill="#63b8ff" stroke="#63b8ff" points="520.65,-109.89 529.24,-103.69 518.66,-103.17 520.65,-109.89"/>
</a>
</g>
</g>
<!-- Node10&#45;&gt;Node7 -->
<g id="edge13_Node000010_Node000007" class="edge">
<title>Node10&#45;&gt;Node7</title>
<g id="a_edge13_Node000010_Node000007"><a xlink:title=" ">
<path fill="none" stroke="#63b8ff" d="M519.35,-96.84C458.97,-96.66 358.61,-96.35 298.05,-96.16"/>
<polygon fill="#63b8ff" stroke="#63b8ff" points="519.41,-100.34 529.42,-96.87 519.43,-93.34 519.41,-100.34"/>
</a>
</g>
</g>
<!-- Node10&#45;&gt;Node9 -->
<g id="edge12_Node000010_Node000009" class="edge">
<title>Node10&#45;&gt;Node9</title>
<g id="a_edge12_Node000010_Node000009"><a xlink:title=" ">
<path fill="none" stroke="#63b8ff" d="M519.4,-107.95C495.18,-113.19 466.45,-119.41 443.13,-124.45"/>
<polygon fill="#63b8ff" stroke="#63b8ff" points="520.44,-111.3 529.48,-105.77 518.96,-104.46 520.44,-111.3"/>
</a>
</g>
</g>
<!-- Node11&#45;&gt;Node7 -->
<g id="edge16_Node000011_Node000007" class="edge">
<title>Node11&#45;&gt;Node7</title>
<g id="a_edge16_Node000011_Node000007"><a xlink:title=" ">
<path fill="none" stroke="#63b8ff" d="M487.52,-16.77C441.33,-19.81 383.28,-27.09 334,-44 305.04,-53.94 275.26,-74.39 259.15,-86.47"/>
<polygon fill="#63b8ff" stroke="#63b8ff" points="488.02,-20.24 497.79,-16.15 487.6,-13.26 488.02,-20.24"/>
</a>
</g>
</g>
</g>
</svg>

<g id="navigator" transform="translate(0 0)" fill="#404254">
  <rect fill="#f2f5e9" fill-opacity="0.5" stroke="#606060" stroke-width=".5" x="0" y="0" width="60" height="60"/>
  <use id="zoomplus" xlink:href="#zoomPlus" x="17" y="9" onmousedown="handleZoom(evt,'in')"/>
  <use id="zoomminus" xlink:href="#zoomMin" x="42" y="9" onmousedown="handleZoom(evt,'out')"/>
  <use id="reset" xlink:href="#resetDef" x="30" y="36" onmousedown="handleReset()"/>
   <use id="arrowup" xlink:href="#arrowUp" x="0" y="0" onmousedown="handlePan(0,-1)"/>
  <use id="arrowright" xlink:href="#arrowRight" x="0" y="0" onmousedown="handlePan(1,0)"/>
  <use id="arrowdown" xlink:href="#arrowDown" x="0" y="0" onmousedown="handlePan(0,1)"/>
  <use id="arrowleft" xlink:href="#arrowLeft" x="0" y="0" onmousedown="handlePan(-1,0)"/>
</g>
<svg viewBox="0 0 15 15" width="100%" height="30px" preserveAspectRatio="xMaxYMin meet">
 <g id="arrow_out" transform="scale(0.3 0.3)">
  <a xlink:href="tinf_8h_aa83685348ca873af76a58956b967ea48_icgraph_org.svg" target="_base">
   <rect id="button" ry="5" rx="5" y="6" x="6" height="38" width="38"
        fill="#f2f5e9" fill-opacity="0.5" stroke="#606060" stroke-width="1.0"/>
   <path id="arrow"
     d="M 11.500037,31.436501 C 11.940474,20.09759 22.043105,11.32322 32.158766,21.979434 L 37.068811,17.246167 C 37.068811,17.246167 37.088388,32 37.088388,32 L 22.160133,31.978069 C 22.160133,31.978069 26.997745,27.140456 26.997745,27.140456 C 18.528582,18.264221 13.291696,25.230495 11.500037,31.436501 z"
     style="fill:#404040;"/>
  </a>
 </g>
</svg>

<style type='text/css'>
<![CDATA[
[data-mouse-over-selected='false'] { opacity: 0.7; }
[data-mouse-over-selected='true']  { opacity: 1.0; }
]]>
</style>
<script type="application/ecmascript"><![CDATA[
document.addEventListener('DOMContentLoaded', (event) => {
  highlightEdges();
  highlightAdjacentNodes();
});
]]></script>
</svg>
