<?xml version="1.0" encoding="UTF-8" standalone="no"?>
<!DOCTYPE svg PUBLIC "-//W3C//DTD SVG 1.1//EN"
 "http://www.w3.org/Graphics/SVG/1.1/DTD/svg11.dtd">
<!-- Generated by graphviz version 2.43.0 (0)
 -->
<!-- Title: SITL::FETtecOneWireESC::MessageUnion Pages: 1 -->
<!--zoomable 227 -->

<svg id="main" version="1.1" xmlns="http://www.w3.org/2000/svg" xmlns:xlink="http://www.w3.org/1999/xlink" xml:space="preserve" onload="init(evt)">
<style type="text/css"><![CDATA[
.node, .edge {opacity: 0.7;}
.node.selected, .edge.selected {opacity: 1;}
.edge:hover path { stroke: red; }
.edge:hover polygon { stroke: red; fill: red; }
]]></style>

<defs>
  <circle id="rim" cx="0" cy="0" r="7"/>
  <circle id="rim2" cx="0" cy="0" r="3.5"/>
  <g id="zoomPlus">
    <use xlink:href="#rim" fill="#404040"><set attributeName="fill" to="#808080" begin="zoomplus.mouseover" end="zoomplus.mouseout"/></use>
    <path d="M-4,0h8M0,-4v8" fill="none" stroke="white" stroke-width="1.5" pointer-events="none"/>
  </g>
  <g id="zoomMin">
    <use xlink:href="#rim" fill="#404040"><set attributeName="fill" to="#808080" begin="zoomminus.mouseover" end="zoomminus.mouseout"/></use>
    <path d="M-4,0h8" fill="none" stroke="white" stroke-width="1.5" pointer-events="none"/>
  </g>
  <g id="arrowUp" transform="translate(30 24)">
    <use xlink:href="#rim"/>
    <path pointer-events="none" fill="none" stroke="white" stroke-width="1.5" d="M0,-3.0v7 M-2.5,-0.5L0,-3.0L2.5,-0.5"/>
  </g>
  <g id="arrowRight" transform="rotate(90) translate(36 -43)">
    <use xlink:href="#rim"/>
    <path pointer-events="none" fill="none" stroke="white" stroke-width="1.5" d="M0,-3.0v7 M-2.5,-0.5L0,-3.0L2.5,-0.5"/>
  </g>
  <g id="arrowDown" transform="rotate(180) translate(-30 -48)">
    <use xlink:href="#rim"/>
    <path pointer-events="none" fill="none" stroke="white" stroke-width="1.5" d="M0,-3.0v7 M-2.5,-0.5L0,-3.0L2.5,-0.5"/>
  </g>
  <g id="arrowLeft" transform="rotate(270) translate(-36 17)">
    <use xlink:href="#rim"/>
    <path pointer-events="none" fill="none" stroke="white" stroke-width="1.5" d="M0,-3.0v7 M-2.5,-0.5L0,-3.0L2.5,-0.5"/>
  </g>
  <g id="resetDef">
    <use xlink:href="#rim2" fill="#404040"><set attributeName="fill" to="#808080" begin="reset.mouseover" end="reset.mouseout"/></use>
  </g>
</defs>
<script type="application/ecmascript">
var viewWidth = 712;
var viewHeight = 227;
var sectionId = 'dynsection-0';
</script>
<script type="application/ecmascript" xlink:href="svg.min.js"/>
<svg id="graph" class="graph">
<g id="viewport">
<title>SITL::FETtecOneWireESC::MessageUnion</title>
<!-- Node1 -->
<g id="Node000001" class="node">
<title>Node1</title>
<g id="a_Node000001"><a xlink:title=" ">
<polygon fill="#999999" stroke="#666666" points="704,-141 567,-141 567,-111 704,-111 704,-141"/>
<text text-anchor="start" x="575" y="-129" font-family="Helvetica,sans-Serif" font-size="10.00">SITL::FETtecOneWireESC</text>
<text text-anchor="middle" x="635.5" y="-118" font-family="Helvetica,sans-Serif" font-size="10.00">::MessageUnion</text>
</a>
</g>
</g>
<!-- Node2 -->
<g id="Node000002" class="node">
<title>Node2</title>
<g id="a_Node000002"><a xlink:href="structSITL_1_1FETtecOneWireESC_1_1ConfigMessageHeader.html" target="_top" xlink:title=" ">
<polygon fill="white" stroke="#666666" points="382.5,-219 245.5,-219 245.5,-189 382.5,-189 382.5,-219"/>
<text text-anchor="start" x="253.5" y="-207" font-family="Helvetica,sans-Serif" font-size="10.00">SITL::FETtecOneWireESC</text>
<text text-anchor="middle" x="314" y="-196" font-family="Helvetica,sans-Serif" font-size="10.00">::ConfigMessageHeader</text>
</a>
</g>
</g>
<!-- Node2&#45;&gt;Node1 -->
<g id="edge1_Node000001_Node000002" class="edge">
<title>Node2&#45;&gt;Node1</title>
<g id="a_edge1_Node000001_Node000002"><a xlink:title=" ">
<path fill="none" stroke="#9a32cd" stroke-dasharray="5,2" d="M392.46,-190.21C438.31,-181.45 497.34,-169.12 549,-155 563.67,-150.99 579.49,-145.86 593.5,-141.03"/>
<polygon fill="#9a32cd" stroke="#9a32cd" points="391.76,-186.78 382.59,-192.08 393.07,-193.66 391.76,-186.78"/>
</a>
</g>
<text text-anchor="middle" x="488.5" y="-186" font-family="Helvetica,sans-Serif" font-size="10.00" fill="grey"> config_message_header</text>
</g>
<!-- Node3 -->
<g id="Node000003" class="node">
<title>Node3</title>
<g id="a_Node000003"><a xlink:href="classSITL_1_1FETtecOneWireESC_1_1PackedMessage.html" target="_top" xlink:title=" ">
<polygon fill="white" stroke="#666666" points="388,-170.5 240,-170.5 240,-129.5 388,-129.5 388,-170.5"/>
<text text-anchor="start" x="248" y="-158.5" font-family="Helvetica,sans-Serif" font-size="10.00">SITL::FETtecOneWireESC</text>
<text text-anchor="start" x="248" y="-147.5" font-family="Helvetica,sans-Serif" font-size="10.00">::PackedMessage&lt; SITL</text>
<text text-anchor="middle" x="314" y="-136.5" font-family="Helvetica,sans-Serif" font-size="10.00">::FETtecOneWireESC::OK &gt;</text>
</a>
</g>
</g>
<!-- Node3&#45;&gt;Node1 -->
<g id="edge2_Node000001_Node000003" class="edge">
<title>Node3&#45;&gt;Node1</title>
<g id="a_edge2_Node000001_Node000003"><a xlink:title=" ">
<path fill="none" stroke="#9a32cd" stroke-dasharray="5,2" d="M398.6,-143.72C451.08,-139.78 517.88,-134.76 566.99,-131.07"/>
<polygon fill="#9a32cd" stroke="#9a32cd" points="398.01,-140.25 388.3,-144.49 398.53,-147.23 398.01,-140.25"/>
</a>
</g>
<text text-anchor="middle" x="488.5" y="-143" font-family="Helvetica,sans-Serif" font-size="10.00" fill="grey"> packed_ok</text>
</g>
<!-- Node4 -->
<g id="Node000004" class="node">
<title>Node4</title>
<g id="a_Node000004"><a xlink:href="classSITL_1_1FETtecOneWireESC_1_1OK.html" target="_top" xlink:title=" ">
<polygon fill="white" stroke="#666666" points="157,-159.5 0,-159.5 0,-140.5 157,-140.5 157,-159.5"/>
<text text-anchor="middle" x="78.5" y="-147.5" font-family="Helvetica,sans-Serif" font-size="10.00">SITL::FETtecOneWireESC::OK</text>
</a>
</g>
</g>
<!-- Node4&#45;&gt;Node3 -->
<g id="edge3_Node000003_Node000004" class="edge">
<title>Node4&#45;&gt;Node3</title>
<g id="a_edge3_Node000003_Node000004"><a xlink:title=" ">
<path fill="none" stroke="#9a32cd" stroke-dasharray="5,2" d="M167.38,-150C191.3,-150 216.94,-150 239.93,-150"/>
<polygon fill="#9a32cd" stroke="#9a32cd" points="167.25,-146.5 157.25,-150 167.25,-153.5 167.25,-146.5"/>
</a>
</g>
<text text-anchor="middle" x="187.5" y="-153" font-family="Helvetica,sans-Serif" font-size="10.00" fill="grey"> msg</text>
</g>
<!-- Node5 -->
<g id="Node000005" class="node">
<title>Node5</title>
<g id="a_Node000005"><a xlink:href="classSITL_1_1FETtecOneWireESC_1_1PackedMessage.html" target="_top" xlink:title=" ">
<polygon fill="white" stroke="#666666" points="410,-111.5 218,-111.5 218,-70.5 410,-70.5 410,-111.5"/>
<text text-anchor="start" x="226" y="-99.5" font-family="Helvetica,sans-Serif" font-size="10.00">SITL::FETtecOneWireESC</text>
<text text-anchor="start" x="226" y="-88.5" font-family="Helvetica,sans-Serif" font-size="10.00">::PackedMessage&lt; SITL</text>
<text text-anchor="middle" x="314" y="-77.5" font-family="Helvetica,sans-Serif" font-size="10.00">::FETtecOneWireESC::SetTLMType &gt;</text>
</a>
</g>
</g>
<!-- Node5&#45;&gt;Node1 -->
<g id="edge4_Node000001_Node000005" class="edge">
<title>Node5&#45;&gt;Node1</title>
<g id="a_edge4_Node000001_Node000005"><a xlink:title=" ">
<path fill="none" stroke="#9a32cd" stroke-dasharray="5,2" d="M420.59,-102.57C468.8,-107.85 524.46,-113.95 566.92,-118.6"/>
<polygon fill="#9a32cd" stroke="#9a32cd" points="420.75,-99.06 410.43,-101.45 419.99,-106.02 420.75,-99.06"/>
</a>
</g>
<text text-anchor="middle" x="488.5" y="-119" font-family="Helvetica,sans-Serif" font-size="10.00" fill="grey"> packed_set_tlm_type</text>
</g>
<!-- Node6 -->
<g id="Node000006" class="node">
<title>Node6</title>
<g id="a_Node000006"><a xlink:href="classSITL_1_1FETtecOneWireESC_1_1SetTLMType.html" target="_top" xlink:title=" ">
<polygon fill="white" stroke="#666666" points="147,-106 10,-106 10,-76 147,-76 147,-106"/>
<text text-anchor="start" x="18" y="-94" font-family="Helvetica,sans-Serif" font-size="10.00">SITL::FETtecOneWireESC</text>
<text text-anchor="middle" x="78.5" y="-83" font-family="Helvetica,sans-Serif" font-size="10.00">::SetTLMType</text>
</a>
</g>
</g>
<!-- Node6&#45;&gt;Node5 -->
<g id="edge5_Node000005_Node000006" class="edge">
<title>Node6&#45;&gt;Node5</title>
<g id="a_edge5_Node000005_Node000006"><a xlink:title=" ">
<path fill="none" stroke="#9a32cd" stroke-dasharray="5,2" d="M157.05,-91C176.51,-91 197.62,-91 217.83,-91"/>
<polygon fill="#9a32cd" stroke="#9a32cd" points="157.04,-87.5 147.04,-91 157.04,-94.5 157.04,-87.5"/>
</a>
</g>
<text text-anchor="middle" x="187.5" y="-94" font-family="Helvetica,sans-Serif" font-size="10.00" fill="grey"> msg</text>
</g>
<!-- Node7 -->
<g id="Node000007" class="node">
<title>Node7</title>
<g id="a_Node000007"><a xlink:href="classSITL_1_1FETtecOneWireESC_1_1PackedMessage.html" target="_top" xlink:title=" ">
<polygon fill="white" stroke="#666666" points="404,-52 224,-52 224,0 404,0 404,-52"/>
<text text-anchor="start" x="232" y="-40" font-family="Helvetica,sans-Serif" font-size="10.00">SITL::FETtecOneWireESC</text>
<text text-anchor="start" x="232" y="-29" font-family="Helvetica,sans-Serif" font-size="10.00">::PackedMessage&lt; SITL</text>
<text text-anchor="start" x="232" y="-18" font-family="Helvetica,sans-Serif" font-size="10.00">::FETtecOneWireESC::SetFastCom</text>
<text text-anchor="middle" x="314" y="-7" font-family="Helvetica,sans-Serif" font-size="10.00">Length &gt;</text>
</a>
</g>
</g>
<!-- Node7&#45;&gt;Node1 -->
<g id="edge6_Node000001_Node000007" class="edge">
<title>Node7&#45;&gt;Node1</title>
<g id="a_edge6_Node000001_Node000007"><a xlink:title=" ">
<path fill="none" stroke="#9a32cd" stroke-dasharray="5,2" d="M414.07,-41.36C456.46,-49.62 505.99,-61.56 549,-78 571.42,-86.57 595.08,-100.26 611.81,-110.83"/>
<polygon fill="#9a32cd" stroke="#9a32cd" points="414.5,-37.88 404.02,-39.44 413.18,-44.75 414.5,-37.88"/>
</a>
</g>
<text text-anchor="start" x="434" y="-92" font-family="Helvetica,sans-Serif" font-size="10.00" fill="grey"> packed_set_fast_com</text>
<text text-anchor="middle" x="488.5" y="-81" font-family="Helvetica,sans-Serif" font-size="10.00" fill="grey">_length</text>
</g>
<!-- Node8 -->
<g id="Node000008" class="node">
<title>Node8</title>
<g id="a_Node000008"><a xlink:href="classSITL_1_1FETtecOneWireESC_1_1SetFastComLength.html" target="_top" xlink:title=" ">
<polygon fill="white" stroke="#666666" points="147,-41 10,-41 10,-11 147,-11 147,-41"/>
<text text-anchor="start" x="18" y="-29" font-family="Helvetica,sans-Serif" font-size="10.00">SITL::FETtecOneWireESC</text>
<text text-anchor="middle" x="78.5" y="-18" font-family="Helvetica,sans-Serif" font-size="10.00">::SetFastComLength</text>
</a>
</g>
</g>
<!-- Node8&#45;&gt;Node7 -->
<g id="edge7_Node000007_Node000008" class="edge">
<title>Node8&#45;&gt;Node7</title>
<g id="a_edge7_Node000007_Node000008"><a xlink:title=" ">
<path fill="none" stroke="#9a32cd" stroke-dasharray="5,2" d="M157.05,-26C178.46,-26 201.86,-26 223.88,-26"/>
<polygon fill="#9a32cd" stroke="#9a32cd" points="157.04,-22.5 147.04,-26 157.04,-29.5 157.04,-22.5"/>
</a>
</g>
<text text-anchor="middle" x="187.5" y="-29" font-family="Helvetica,sans-Serif" font-size="10.00" fill="grey"> msg</text>
</g>
</g>
</svg>

<g id="navigator" transform="translate(0 0)" fill="#404254">
  <rect fill="#f2f5e9" fill-opacity="0.5" stroke="#606060" stroke-width=".5" x="0" y="0" width="60" height="60"/>
  <use id="zoomplus" xlink:href="#zoomPlus" x="17" y="9" onmousedown="handleZoom(evt,'in')"/>
  <use id="zoomminus" xlink:href="#zoomMin" x="42" y="9" onmousedown="handleZoom(evt,'out')"/>
  <use id="reset" xlink:href="#resetDef" x="30" y="36" onmousedown="handleReset()"/>
   <use id="arrowup" xlink:href="#arrowUp" x="0" y="0" onmousedown="handlePan(0,-1)"/>
  <use id="arrowright" xlink:href="#arrowRight" x="0" y="0" onmousedown="handlePan(1,0)"/>
  <use id="arrowdown" xlink:href="#arrowDown" x="0" y="0" onmousedown="handlePan(0,1)"/>
  <use id="arrowleft" xlink:href="#arrowLeft" x="0" y="0" onmousedown="handlePan(-1,0)"/>
</g>
<svg viewBox="0 0 15 15" width="100%" height="30px" preserveAspectRatio="xMaxYMin meet">
 <g id="arrow_out" transform="scale(0.3 0.3)">
  <a xlink:href="unionSITL_1_1FETtecOneWireESC_1_1MessageUnion__coll__graph_org.svg" target="_base">
   <rect id="button" ry="5" rx="5" y="6" x="6" height="38" width="38"
        fill="#f2f5e9" fill-opacity="0.5" stroke="#606060" stroke-width="1.0"/>
   <path id="arrow"
     d="M 11.500037,31.436501 C 11.940474,20.09759 22.043105,11.32322 32.158766,21.979434 L 37.068811,17.246167 C 37.068811,17.246167 37.088388,32 37.088388,32 L 22.160133,31.978069 C 22.160133,31.978069 26.997745,27.140456 26.997745,27.140456 C 18.528582,18.264221 13.291696,25.230495 11.500037,31.436501 z"
     style="fill:#404040;"/>
  </a>
 </g>
</svg>

<style type='text/css'>
<![CDATA[
[data-mouse-over-selected='false'] { opacity: 0.7; }
[data-mouse-over-selected='true']  { opacity: 1.0; }
]]>
</style>
<script type="application/ecmascript"><![CDATA[
document.addEventListener('DOMContentLoaded', (event) => {
  highlightEdges();
  highlightAdjacentNodes();
});
]]></script>
</svg>
