<?xml version="1.0" encoding="UTF-8" standalone="no"?>
<!DOCTYPE svg PUBLIC "-//W3C//DTD SVG 1.1//EN"
 "http://www.w3.org/Graphics/SVG/1.1/DTD/svg11.dtd">
<!-- Generated by graphviz version 2.43.0 (0)
 -->
<!-- Title: Rover::set_mode Pages: 1 -->
<svg width="796pt" height="592pt"
 viewBox="0.00 0.00 796.00 592.00" xmlns="http://www.w3.org/2000/svg" xmlns:xlink="http://www.w3.org/1999/xlink">
<g id="graph0" class="graph" transform="scale(1 1) rotate(0) translate(4 588)">
<title>Rover::set_mode</title>
<!-- Node1 -->
<g id="Node000001" class="node">
<title>Node1</title>
<g id="a_Node000001"><a xlink:title=" ">
<polygon fill="#999999" stroke="#666666" points="99,-224 0,-224 0,-205 99,-205 99,-224"/>
<text text-anchor="middle" x="49.5" y="-212" font-family="Helvetica,sans-Serif" font-size="10.00">Rover::set_mode</text>
</a>
</g>
</g>
<!-- Node2 -->
<g id="Node000002" class="node">
<title>Node2</title>
<g id="a_Node000002"><a xlink:href="classRover.html#a3ee7c2318bf74e88e1dde406877055d3" target="_top" xlink:title=" ">
<polygon fill="white" stroke="#666666" points="234,-224 135,-224 135,-205 234,-205 234,-224"/>
<text text-anchor="middle" x="184.5" y="-212" font-family="Helvetica,sans-Serif" font-size="10.00">Rover::set_mode</text>
</a>
</g>
</g>
<!-- Node1&#45;&gt;Node2 -->
<g id="edge1_Node000001_Node000002" class="edge">
<title>Node1&#45;&gt;Node2</title>
<g id="a_edge1_Node000001_Node000002"><a xlink:title=" ">
<path fill="none" stroke="#63b8ff" d="M99.27,-214.5C107.49,-214.5 116.1,-214.5 124.55,-214.5"/>
<polygon fill="#63b8ff" stroke="#63b8ff" points="124.74,-218 134.74,-214.5 124.74,-211 124.74,-218"/>
</a>
</g>
</g>
<!-- Node3 -->
<g id="Node000003" class="node">
<title>Node3</title>
<g id="a_Node000003"><a xlink:href="classMode.html#a3e5c3a5a842021ff17e70b0a65461af3" target="_top" xlink:title=" ">
<polygon fill="white" stroke="#666666" points="391,-491 316,-491 316,-472 391,-472 391,-491"/>
<text text-anchor="middle" x="353.5" y="-479" font-family="Helvetica,sans-Serif" font-size="10.00">Mode::enter</text>
</a>
</g>
</g>
<!-- Node2&#45;&gt;Node3 -->
<g id="edge2_Node000002_Node000003" class="edge">
<title>Node2&#45;&gt;Node3</title>
<g id="a_edge2_Node000002_Node000003"><a xlink:title=" ">
<path fill="none" stroke="#63b8ff" d="M187.94,-224.4C195.81,-254.85 222.76,-348.89 270,-412.5 286.26,-434.4 310.83,-453.78 328.93,-466.38"/>
<polygon fill="#63b8ff" stroke="#63b8ff" points="326.99,-469.29 337.23,-472 330.92,-463.49 326.99,-469.29"/>
</a>
</g>
</g>
<!-- Node10 -->
<g id="Node000010" class="node">
<title>Node10</title>
<g id="a_Node000010"><a xlink:href="classMode.html#acc347b62c670471bde37a38b28d53601" target="_top" xlink:title=" ">
<polygon fill="white" stroke="#666666" points="387.5,-403 319.5,-403 319.5,-384 387.5,-384 387.5,-403"/>
<text text-anchor="middle" x="353.5" y="-391" font-family="Helvetica,sans-Serif" font-size="10.00">Mode::exit</text>
</a>
</g>
</g>
<!-- Node2&#45;&gt;Node10 -->
<g id="edge9_Node000002_Node000010" class="edge">
<title>Node2&#45;&gt;Node10</title>
<g id="a_edge9_Node000002_Node000010"><a xlink:title=" ">
<path fill="none" stroke="#63b8ff" d="M187.6,-224.33C194.19,-252.72 217.27,-335.32 270,-375.5 281.15,-384 295.48,-388.66 309.06,-391.16"/>
<polygon fill="#63b8ff" stroke="#63b8ff" points="308.83,-394.67 319.23,-392.68 309.86,-387.74 308.83,-394.67"/>
</a>
</g>
</g>
<!-- Node12 -->
<g id="Node000012" class="node">
<title>Node12</title>
<g id="a_Node000012"><a xlink:href="classRover.html#ad7127577a375b6bf7f3ae89c352e03ee" target="_top" xlink:title=" ">
<polygon fill="white" stroke="#666666" points="387.5,-366 319.5,-366 319.5,-347 387.5,-347 387.5,-366"/>
<text text-anchor="middle" x="353.5" y="-354" font-family="Helvetica,sans-Serif" font-size="10.00">Rover::gcs</text>
</a>
</g>
</g>
<!-- Node2&#45;&gt;Node12 -->
<g id="edge11_Node000002_Node000012" class="edge">
<title>Node2&#45;&gt;Node12</title>
<g id="a_edge11_Node000002_Node000012"><a xlink:title=" ">
<path fill="none" stroke="#63b8ff" d="M189.09,-224.09C198.45,-247.68 225.95,-308.77 270,-338.5 281.52,-346.28 295.83,-350.76 309.28,-353.33"/>
<polygon fill="#63b8ff" stroke="#63b8ff" points="308.9,-356.81 319.33,-354.94 310.01,-349.9 308.9,-356.81"/>
</a>
</g>
</g>
<!-- Node13 -->
<g id="Node000013" class="node">
<title>Node13</title>
<g id="a_Node000013"><a xlink:href="classRover.html#aa9f5d109a72d3f5be1c1bf8133d813b5" target="_top" xlink:title=" ">
<polygon fill="white" stroke="#666666" points="426,-329 281,-329 281,-310 426,-310 426,-329"/>
<text text-anchor="middle" x="353.5" y="-317" font-family="Helvetica,sans-Serif" font-size="10.00">Rover::gcs_mode_enabled</text>
</a>
</g>
</g>
<!-- Node2&#45;&gt;Node13 -->
<g id="edge12_Node000002_Node000013" class="edge">
<title>Node2&#45;&gt;Node13</title>
<g id="a_edge12_Node000002_Node000013"><a xlink:title=" ">
<path fill="none" stroke="#63b8ff" d="M192.13,-224.26C204.93,-242.31 234.93,-280.87 270,-300.5 274,-302.74 278.26,-304.72 282.64,-306.46"/>
<polygon fill="#63b8ff" stroke="#63b8ff" points="281.81,-309.88 292.4,-309.92 284.14,-303.28 281.81,-309.88"/>
</a>
</g>
</g>
<!-- Node15 -->
<g id="Node000015" class="node">
<title>Node15</title>
<g id="a_Node000015"><a target="_parent" xlink:href="../libraries/classAC__Fence.html#a32ddec2d811a21b723c83fca515a2004" xlink:title=" ">
<polygon fill="white" stroke="#666666" points="431,-291.5 276,-291.5 276,-261.5 431,-261.5 431,-291.5"/>
<text text-anchor="start" x="284" y="-279.5" font-family="Helvetica,sans-Serif" font-size="10.00">AC_Fence::manual_recovery</text>
<text text-anchor="middle" x="353.5" y="-268.5" font-family="Helvetica,sans-Serif" font-size="10.00">_start</text>
</a>
</g>
</g>
<!-- Node2&#45;&gt;Node15 -->
<g id="edge14_Node000002_Node000015" class="edge">
<title>Node2&#45;&gt;Node15</title>
<g id="a_edge14_Node000002_Node000015"><a xlink:title=" ">
<path fill="none" stroke="#63b8ff" d="M209.46,-224.11C226.33,-230.81 249.47,-239.89 270,-247.5 279.39,-250.98 289.43,-254.6 299.15,-258.05"/>
<polygon fill="#63b8ff" stroke="#63b8ff" points="298.13,-261.4 308.73,-261.43 300.46,-254.8 298.13,-261.4"/>
</a>
</g>
</g>
<!-- Node16 -->
<g id="Node000016" class="node">
<title>Node16</title>
<g id="a_Node000016"><a xlink:href="classMode.html#ae2e4b56b5c43544370beeaacd169ffe6" target="_top" xlink:title=" ">
<polygon fill="white" stroke="#666666" points="603,-243 483,-243 483,-224 603,-224 603,-243"/>
<text text-anchor="middle" x="543" y="-231" font-family="Helvetica,sans-Serif" font-size="10.00">Mode::mode_number</text>
</a>
</g>
</g>
<!-- Node2&#45;&gt;Node16 -->
<g id="edge15_Node000002_Node000016" class="edge">
<title>Node2&#45;&gt;Node16</title>
<g id="a_edge15_Node000002_Node000016"><a xlink:title=" ">
<path fill="none" stroke="#63b8ff" d="M234.32,-217.1C296.03,-220.39 402.63,-226.07 472.74,-229.81"/>
<polygon fill="#63b8ff" stroke="#63b8ff" points="472.63,-233.31 482.81,-230.35 473.01,-226.32 472.63,-233.31"/>
</a>
</g>
</g>
<!-- Node17 -->
<g id="Node000017" class="node">
<title>Node17</title>
<g id="a_Node000017"><a xlink:href="classMode.html#afe001e103871496be6f7d96906248e77" target="_top" xlink:title=" ">
<polygon fill="white" stroke="#666666" points="584.5,-205 501.5,-205 501.5,-186 584.5,-186 584.5,-205"/>
<text text-anchor="middle" x="543" y="-193" font-family="Helvetica,sans-Serif" font-size="10.00">Mode::name4</text>
</a>
</g>
</g>
<!-- Node2&#45;&gt;Node17 -->
<g id="edge16_Node000002_Node000017" class="edge">
<title>Node2&#45;&gt;Node17</title>
<g id="a_edge16_Node000002_Node000017"><a xlink:title=" ">
<path fill="none" stroke="#63b8ff" d="M234.32,-211.9C301.8,-208.3 422.96,-201.84 491.37,-198.2"/>
<polygon fill="#63b8ff" stroke="#63b8ff" points="491.68,-201.69 501.48,-197.66 491.31,-194.7 491.68,-201.69"/>
</a>
</g>
</g>
<!-- Node18 -->
<g id="Node000018" class="node">
<title>Node18</title>
<g id="a_Node000018"><a xlink:href="classRover.html#af39c095722ccd8c5dd3ccb187852f02d" target="_top" xlink:title=" ">
<polygon fill="white" stroke="#666666" points="409.5,-167 297.5,-167 297.5,-148 409.5,-148 409.5,-167"/>
<text text-anchor="middle" x="353.5" y="-155" font-family="Helvetica,sans-Serif" font-size="10.00">Rover::notify_mode</text>
</a>
</g>
</g>
<!-- Node2&#45;&gt;Node18 -->
<g id="edge17_Node000002_Node000018" class="edge">
<title>Node2&#45;&gt;Node18</title>
<g id="a_edge17_Node000002_Node000018"><a xlink:title=" ">
<path fill="none" stroke="#63b8ff" d="M208.25,-204.98C225.14,-198.06 248.83,-188.7 270,-181.5 281.92,-177.45 294.94,-173.46 307.05,-169.93"/>
<polygon fill="#63b8ff" stroke="#63b8ff" points="308.31,-173.21 316.95,-167.09 306.38,-166.49 308.31,-173.21"/>
</a>
</g>
</g>
<!-- Node21 -->
<g id="Node000021" class="node">
<title>Node21</title>
<g id="a_Node000021"><a target="_parent" xlink:href="../libraries/classGCS.html#a49e7272eb586b48b04d970d13ef3d95f" xlink:title=" ">
<polygon fill="white" stroke="#666666" points="411.5,-130 295.5,-130 295.5,-111 411.5,-111 411.5,-130"/>
<text text-anchor="middle" x="353.5" y="-118" font-family="Helvetica,sans-Serif" font-size="10.00">GCS::send_message</text>
</a>
</g>
</g>
<!-- Node2&#45;&gt;Node21 -->
<g id="edge22_Node000002_Node000021" class="edge">
<title>Node2&#45;&gt;Node21</title>
<g id="a_edge22_Node000002_Node000021"><a xlink:title=" ">
<path fill="none" stroke="#63b8ff" d="M193.23,-204.84C206.89,-188.48 236.99,-155.42 270,-138.5 274.89,-135.99 280.12,-133.83 285.48,-131.97"/>
<polygon fill="#63b8ff" stroke="#63b8ff" points="286.73,-135.25 295.24,-128.94 284.65,-128.57 286.73,-135.25"/>
</a>
</g>
</g>
<!-- Node22 -->
<g id="Node000022" class="node">
<title>Node22</title>
<g id="a_Node000022"><a target="_parent" xlink:href="../libraries/classGCS.html#a2f099d18721b0874af08fde3f6aae6b6" xlink:title=" ">
<polygon fill="white" stroke="#666666" points="399,-93 308,-93 308,-74 399,-74 399,-93"/>
<text text-anchor="middle" x="353.5" y="-81" font-family="Helvetica,sans-Serif" font-size="10.00">GCS::send_text</text>
</a>
</g>
</g>
<!-- Node2&#45;&gt;Node22 -->
<g id="edge23_Node000002_Node000022" class="edge">
<title>Node2&#45;&gt;Node22</title>
<g id="a_edge23_Node000002_Node000022"><a xlink:title=" ">
<path fill="none" stroke="#63b8ff" d="M189.79,-204.78C200.12,-182.61 228.59,-128.14 270,-101.5 278.41,-96.09 288.21,-92.28 298.04,-89.61"/>
<polygon fill="#63b8ff" stroke="#63b8ff" points="298.91,-93 307.84,-87.3 297.31,-86.19 298.91,-93"/>
</a>
</g>
</g>
<!-- Node23 -->
<g id="Node000023" class="node">
<title>Node23</title>
<g id="a_Node000023"><a target="_parent" xlink:href="../libraries/classAP__Camera.html#af06fd226c451a1a96a10c5194dfcc2b6" xlink:title=" ">
<polygon fill="white" stroke="#666666" points="437,-56 270,-56 270,-37 437,-37 437,-56"/>
<text text-anchor="middle" x="353.5" y="-44" font-family="Helvetica,sans-Serif" font-size="10.00">AP_Camera::set_is_auto_mode</text>
</a>
</g>
</g>
<!-- Node2&#45;&gt;Node23 -->
<g id="edge24_Node000002_Node000023" class="edge">
<title>Node2&#45;&gt;Node23</title>
<g id="a_edge24_Node000002_Node000023"><a xlink:title=" ">
<path fill="none" stroke="#63b8ff" d="M187.92,-204.94C195.23,-178.11 219.76,-101.62 270,-64.5 271.87,-63.12 273.82,-61.84 275.84,-60.66"/>
<polygon fill="#63b8ff" stroke="#63b8ff" points="277.69,-63.65 285.07,-56.05 274.56,-57.38 277.69,-63.65"/>
</a>
</g>
</g>
<!-- Node24 -->
<g id="Node000024" class="node">
<title>Node24</title>
<g id="a_Node000024"><a target="_parent" xlink:href="../libraries/classAP__Logger.html#a275ff0287cd6da901177b84fed9abf0d" xlink:title=" ">
<polygon fill="white" stroke="#666666" points="419.5,-19 287.5,-19 287.5,0 419.5,0 419.5,-19"/>
<text text-anchor="middle" x="353.5" y="-7" font-family="Helvetica,sans-Serif" font-size="10.00">AP_Logger::Write_Mode</text>
</a>
</g>
</g>
<!-- Node2&#45;&gt;Node24 -->
<g id="edge25_Node000002_Node000024" class="edge">
<title>Node2&#45;&gt;Node24</title>
<g id="a_edge25_Node000002_Node000024"><a xlink:title=" ">
<path fill="none" stroke="#63b8ff" d="M186.79,-204.93C191.51,-173.92 210.75,-75.47 270,-27.5 272.56,-25.42 275.31,-23.57 278.2,-21.93"/>
<polygon fill="#63b8ff" stroke="#63b8ff" points="279.73,-25.08 287.2,-17.57 276.67,-18.78 279.73,-25.08"/>
</a>
</g>
</g>
<!-- Node4 -->
<g id="Node000004" class="node">
<title>Node4</title>
<g id="a_Node000004"><a xlink:href="classMode.html#a6594030a202f6ec5918b427b8a5717e4" target="_top" xlink:title=" ">
<polygon fill="white" stroke="#666666" points="583,-473 503,-473 503,-454 583,-454 583,-473"/>
<text text-anchor="middle" x="543" y="-461" font-family="Helvetica,sans-Serif" font-size="10.00">Mode::_enter</text>
</a>
</g>
</g>
<!-- Node3&#45;&gt;Node4 -->
<g id="edge3_Node000003_Node000004" class="edge">
<title>Node3&#45;&gt;Node4</title>
<g id="a_edge3_Node000003_Node000004"><a xlink:title=" ">
<path fill="none" stroke="#63b8ff" d="M391.1,-477.99C420.14,-475.2 461.01,-471.27 492.9,-468.21"/>
<polygon fill="#63b8ff" stroke="#63b8ff" points="493.29,-471.69 502.91,-467.25 492.62,-464.72 493.29,-471.69"/>
</a>
</g>
</g>
<!-- Node5 -->
<g id="Node000005" class="node">
<title>Node5</title>
<g id="a_Node000005"><a target="_parent" xlink:href="../libraries/classAP__HAL_1_1Util.html#a287a2b82fa30b92c8d52aad61d4d27b7" xlink:title=" ">
<polygon fill="white" stroke="#666666" points="604,-435.5 482,-435.5 482,-405.5 604,-405.5 604,-435.5"/>
<text text-anchor="start" x="490" y="-423.5" font-family="Helvetica,sans-Serif" font-size="10.00">AP_HAL::Util::get_soft</text>
<text text-anchor="middle" x="543" y="-412.5" font-family="Helvetica,sans-Serif" font-size="10.00">_armed</text>
</a>
</g>
</g>
<!-- Node3&#45;&gt;Node5 -->
<g id="edge4_Node000003_Node000005" class="edge">
<title>Node3&#45;&gt;Node5</title>
<g id="a_edge4_Node000003_Node000005"><a xlink:title=" ">
<path fill="none" stroke="#63b8ff" d="M383.8,-471.97C411.08,-463.09 452.47,-449.63 486.07,-438.7"/>
<polygon fill="#63b8ff" stroke="#63b8ff" points="487.35,-441.96 495.77,-435.54 485.18,-435.31 487.35,-441.96"/>
</a>
</g>
</g>
<!-- Node6 -->
<g id="Node000006" class="node">
<title>Node6</title>
<g id="a_Node000006"><a xlink:href="classMode.html#ae5a240ec7efe2623eb88c68beda58a99" target="_top" xlink:title=" ">
<polygon fill="white" stroke="#666666" points="610,-584 476,-584 476,-565 610,-565 610,-584"/>
<text text-anchor="middle" x="543" y="-572" font-family="Helvetica,sans-Serif" font-size="10.00">Mode::requires_position</text>
</a>
</g>
</g>
<!-- Node3&#45;&gt;Node6 -->
<g id="edge5_Node000003_Node000006" class="edge">
<title>Node3&#45;&gt;Node6</title>
<g id="a_edge5_Node000003_Node000006"><a xlink:title=" ">
<path fill="none" stroke="#63b8ff" d="M366.92,-491.21C387.73,-507.04 431.46,-538.46 473,-556.5 477.64,-558.51 482.55,-560.34 487.53,-561.99"/>
<polygon fill="#63b8ff" stroke="#63b8ff" points="486.56,-565.36 497.15,-564.96 488.62,-558.67 486.56,-565.36"/>
</a>
</g>
</g>
<!-- Node7 -->
<g id="Node000007" class="node">
<title>Node7</title>
<g id="a_Node000007"><a xlink:href="classMode.html#a877262e51b58f132cb52c5977bf13c51" target="_top" xlink:title=" ">
<polygon fill="white" stroke="#666666" points="610,-547 476,-547 476,-528 610,-528 610,-547"/>
<text text-anchor="middle" x="543" y="-535" font-family="Helvetica,sans-Serif" font-size="10.00">Mode::requires_velocity</text>
</a>
</g>
</g>
<!-- Node3&#45;&gt;Node7 -->
<g id="edge6_Node000003_Node000007" class="edge">
<title>Node3&#45;&gt;Node7</title>
<g id="a_edge6_Node000003_Node000007"><a xlink:title=" ">
<path fill="none" stroke="#63b8ff" d="M383.1,-491.16C407.02,-499.12 442.09,-510.52 473,-519.5 479.71,-521.45 486.81,-523.41 493.81,-525.29"/>
<polygon fill="#63b8ff" stroke="#63b8ff" points="493.37,-528.8 503.94,-527.97 495.16,-522.03 493.37,-528.8"/>
</a>
</g>
</g>
<!-- Node8 -->
<g id="Node000008" class="node">
<title>Node8</title>
<g id="a_Node000008"><a xlink:href="classMode.html#a1733ae28c2e308db5fca2dd79f477ddb" target="_top" xlink:title=" ">
<polygon fill="white" stroke="#666666" points="599.5,-510 486.5,-510 486.5,-491 599.5,-491 599.5,-510"/>
<text text-anchor="middle" x="543" y="-498" font-family="Helvetica,sans-Serif" font-size="10.00">Mode::set_reversed</text>
</a>
</g>
</g>
<!-- Node3&#45;&gt;Node8 -->
<g id="edge7_Node000003_Node000008" class="edge">
<title>Node3&#45;&gt;Node8</title>
<g id="a_edge7_Node000003_Node000008"><a xlink:title=" ">
<path fill="none" stroke="#63b8ff" d="M391.1,-485.21C415.21,-487.65 447.47,-490.92 475.98,-493.81"/>
<polygon fill="#63b8ff" stroke="#63b8ff" points="475.98,-497.33 486.29,-494.85 476.69,-490.36 475.98,-497.33"/>
</a>
</g>
</g>
<!-- Node9 -->
<g id="Node000009" class="node">
<title>Node9</title>
<g id="a_Node000009"><a target="_parent" xlink:href="../libraries/classAR__WPNav.html#a6f090d47863c1715392b91197397e1e8" xlink:title=" ">
<polygon fill="white" stroke="#666666" points="788,-510 649,-510 649,-491 788,-491 788,-510"/>
<text text-anchor="middle" x="718.5" y="-498" font-family="Helvetica,sans-Serif" font-size="10.00">AR_WPNav::set_reversed</text>
</a>
</g>
</g>
<!-- Node8&#45;&gt;Node9 -->
<g id="edge8_Node000008_Node000009" class="edge">
<title>Node8&#45;&gt;Node9</title>
<g id="a_edge8_Node000008_Node000009"><a xlink:title=" ">
<path fill="none" stroke="#63b8ff" d="M599.85,-500.5C612.32,-500.5 625.78,-500.5 638.97,-500.5"/>
<polygon fill="#63b8ff" stroke="#63b8ff" points="638.99,-504 648.99,-500.5 638.99,-497 638.99,-504"/>
</a>
</g>
</g>
<!-- Node11 -->
<g id="Node000011" class="node">
<title>Node11</title>
<g id="a_Node000011"><a xlink:href="classMode.html#a469e59fc883ef9744f57377209a4036c" target="_top" xlink:title=" ">
<polygon fill="white" stroke="#666666" points="580,-387 506,-387 506,-368 580,-368 580,-387"/>
<text text-anchor="middle" x="543" y="-375" font-family="Helvetica,sans-Serif" font-size="10.00">Mode::_exit</text>
</a>
</g>
</g>
<!-- Node10&#45;&gt;Node11 -->
<g id="edge10_Node000010_Node000011" class="edge">
<title>Node10&#45;&gt;Node11</title>
<g id="a_edge10_Node000010_Node000011"><a xlink:title=" ">
<path fill="none" stroke="#63b8ff" d="M387.59,-390.68C417.6,-388.12 462.15,-384.31 495.69,-381.45"/>
<polygon fill="#63b8ff" stroke="#63b8ff" points="496.05,-384.93 505.72,-380.6 495.46,-377.96 496.05,-384.93"/>
</a>
</g>
</g>
<!-- Node14 -->
<g id="Node000014" class="node">
<title>Node14</title>
<g id="a_Node000014"><a target="_parent" xlink:href="../libraries/classAP__Vehicle.html#ac4205679aadfedfb9a7b0faa15c10188" xlink:title=" ">
<polygon fill="white" stroke="#666666" points="607,-334.5 479,-334.5 479,-304.5 607,-304.5 607,-334.5"/>
<text text-anchor="start" x="487" y="-322.5" font-family="Helvetica,sans-Serif" font-size="10.00">AP_Vehicle::block_GCS</text>
<text text-anchor="middle" x="543" y="-311.5" font-family="Helvetica,sans-Serif" font-size="10.00">_mode_change</text>
</a>
</g>
</g>
<!-- Node13&#45;&gt;Node14 -->
<g id="edge13_Node000013_Node000014" class="edge">
<title>Node13&#45;&gt;Node14</title>
<g id="a_edge13_Node000013_Node000014"><a xlink:title=" ">
<path fill="none" stroke="#63b8ff" d="M426.19,-319.5C440.16,-319.5 454.83,-319.5 468.86,-319.5"/>
<polygon fill="#63b8ff" stroke="#63b8ff" points="468.93,-323 478.93,-319.5 468.93,-316 468.93,-323"/>
</a>
</g>
</g>
<!-- Node18&#45;&gt;Node16 -->
<g id="edge19_Node000018_Node000016" class="edge">
<title>Node18&#45;&gt;Node16</title>
<g id="a_edge19_Node000018_Node000016"><a xlink:title=" ">
<path fill="none" stroke="#63b8ff" d="M371.74,-167.01C394.43,-179.24 435.8,-200.56 473,-214.5 479.33,-216.87 486.09,-219.1 492.81,-221.12"/>
<polygon fill="#63b8ff" stroke="#63b8ff" points="491.98,-224.53 502.56,-223.95 493.93,-217.81 491.98,-224.53"/>
</a>
</g>
</g>
<!-- Node18&#45;&gt;Node17 -->
<g id="edge20_Node000018_Node000017" class="edge">
<title>Node18&#45;&gt;Node17</title>
<g id="a_edge20_Node000018_Node000017"><a xlink:title=" ">
<path fill="none" stroke="#63b8ff" d="M401.81,-167.09C429.16,-172.63 463.55,-179.6 491.43,-185.25"/>
<polygon fill="#63b8ff" stroke="#63b8ff" points="490.88,-188.71 501.38,-187.27 492.27,-181.85 490.88,-188.71"/>
</a>
</g>
</g>
<!-- Node19 -->
<g id="Node000019" class="node">
<title>Node19</title>
<g id="a_Node000019"><a xlink:href="classMode.html#aaf3fe35de08bf5fb5922462877b3a6e0" target="_top" xlink:title=" ">
<polygon fill="white" stroke="#666666" points="613,-119 473,-119 473,-100 613,-100 613,-119"/>
<text text-anchor="middle" x="543" y="-107" font-family="Helvetica,sans-Serif" font-size="10.00">Mode::is_autopilot_mode</text>
</a>
</g>
</g>
<!-- Node18&#45;&gt;Node19 -->
<g id="edge18_Node000018_Node000019" class="edge">
<title>Node18&#45;&gt;Node19</title>
<g id="a_edge18_Node000018_Node000019"><a xlink:title=" ">
<path fill="none" stroke="#63b8ff" d="M397.83,-147.9C410.49,-145 424.32,-141.72 437,-138.5 453.1,-134.41 457,-132.93 473,-128.5 480.92,-126.31 489.35,-123.98 497.5,-121.74"/>
<polygon fill="#63b8ff" stroke="#63b8ff" points="498.54,-125.08 507.25,-119.05 496.68,-118.33 498.54,-125.08"/>
</a>
</g>
</g>
<!-- Node20 -->
<g id="Node000020" class="node">
<title>Node20</title>
<g id="a_Node000020"><a target="_parent" xlink:href="../libraries/classAP__Notify.html#a6933d62a710817a9f6ae4ba03634eae9" xlink:title=" ">
<polygon fill="white" stroke="#666666" points="600,-167.5 486,-167.5 486,-137.5 600,-137.5 600,-167.5"/>
<text text-anchor="start" x="494" y="-155.5" font-family="Helvetica,sans-Serif" font-size="10.00">AP_Notify::set_flight</text>
<text text-anchor="middle" x="543" y="-144.5" font-family="Helvetica,sans-Serif" font-size="10.00">_mode_str</text>
</a>
</g>
</g>
<!-- Node18&#45;&gt;Node20 -->
<g id="edge21_Node000018_Node000020" class="edge">
<title>Node18&#45;&gt;Node20</title>
<g id="a_edge21_Node000018_Node000020"><a xlink:title=" ">
<path fill="none" stroke="#63b8ff" d="M409.74,-156.03C430.44,-155.47 454.18,-154.84 475.78,-154.27"/>
<polygon fill="#63b8ff" stroke="#63b8ff" points="475.95,-157.76 485.85,-154 475.77,-150.77 475.95,-157.76"/>
</a>
</g>
</g>
</g>
</svg>
