<?xml version="1.0" encoding="UTF-8" standalone="no"?>
<!DOCTYPE svg PUBLIC "-//W3C//DTD SVG 1.1//EN"
 "http://www.w3.org/Graphics/SVG/1.1/DTD/svg11.dtd">
<!-- Generated by graphviz version 2.43.0 (0)
 -->
<!-- Title: ModeAuto::do_change_speed Pages: 1 -->
<svg width="485pt" height="113pt"
 viewBox="0.00 0.00 485.00 112.50" xmlns="http://www.w3.org/2000/svg" xmlns:xlink="http://www.w3.org/1999/xlink">
<g id="graph0" class="graph" transform="scale(1 1) rotate(0) translate(4 108.5)">
<title>ModeAuto::do_change_speed</title>
<!-- Node1 -->
<g id="Node000001" class="node">
<title>Node1</title>
<g id="a_Node000001"><a xlink:title=" ">
<polygon fill="#999999" stroke="#666666" points="125,-73 0,-73 0,-43 125,-43 125,-73"/>
<text text-anchor="start" x="8" y="-61" font-family="Helvetica,sans-Serif" font-size="10.00">ModeAuto::do_change</text>
<text text-anchor="middle" x="62.5" y="-50" font-family="Helvetica,sans-Serif" font-size="10.00">_speed</text>
</a>
</g>
</g>
<!-- Node2 -->
<g id="Node000002" class="node">
<title>Node2</title>
<g id="a_Node000002"><a target="_parent" xlink:href="../libraries/GCS_8h.html#ab53f292b698f9a6a3f029dfdbd5a43de" xlink:title=" ">
<polygon fill="white" stroke="#666666" points="241.5,-104.5 208.5,-104.5 208.5,-85.5 241.5,-85.5 241.5,-104.5"/>
<text text-anchor="middle" x="225" y="-92.5" font-family="Helvetica,sans-Serif" font-size="10.00">gcs</text>
</a>
</g>
</g>
<!-- Node1&#45;&gt;Node2 -->
<g id="edge1_Node000001_Node000002" class="edge">
<title>Node1&#45;&gt;Node2</title>
<g id="a_edge1_Node000001_Node000002"><a xlink:title=" ">
<path fill="none" stroke="#63b8ff" d="M125.09,-72.2C150.57,-78.07 178.71,-84.56 198.43,-89.11"/>
<polygon fill="#63b8ff" stroke="#63b8ff" points="197.66,-92.52 208.19,-91.36 199.23,-85.7 197.66,-92.52"/>
</a>
</g>
</g>
<!-- Node3 -->
<g id="Node000003" class="node">
<title>Node3</title>
<g id="a_Node000003"><a target="_parent" xlink:href="../libraries/classGCS.html#a2f099d18721b0874af08fde3f6aae6b6" xlink:title=" ">
<polygon fill="white" stroke="#666666" points="270.5,-67.5 179.5,-67.5 179.5,-48.5 270.5,-48.5 270.5,-67.5"/>
<text text-anchor="middle" x="225" y="-55.5" font-family="Helvetica,sans-Serif" font-size="10.00">GCS::send_text</text>
</a>
</g>
</g>
<!-- Node1&#45;&gt;Node3 -->
<g id="edge2_Node000001_Node000003" class="edge">
<title>Node1&#45;&gt;Node3</title>
<g id="a_edge2_Node000001_Node000003"><a xlink:title=" ">
<path fill="none" stroke="#63b8ff" d="M125.09,-58C139.61,-58 154.98,-58 169.17,-58"/>
<polygon fill="#63b8ff" stroke="#63b8ff" points="169.27,-61.5 179.27,-58 169.27,-54.5 169.27,-61.5"/>
</a>
</g>
</g>
<!-- Node4 -->
<g id="Node000004" class="node">
<title>Node4</title>
<g id="a_Node000004"><a xlink:href="classModeAuto.html#a983fe0edd7013c35effc734ed936f958" target="_top" xlink:title=" ">
<polygon fill="white" stroke="#666666" points="289,-30 161,-30 161,0 289,0 289,-30"/>
<text text-anchor="start" x="169" y="-18" font-family="Helvetica,sans-Serif" font-size="10.00">ModeAuto::set_desired</text>
<text text-anchor="middle" x="225" y="-7" font-family="Helvetica,sans-Serif" font-size="10.00">_speed</text>
</a>
</g>
</g>
<!-- Node1&#45;&gt;Node4 -->
<g id="edge3_Node000001_Node000004" class="edge">
<title>Node1&#45;&gt;Node4</title>
<g id="a_edge3_Node000001_Node000004"><a xlink:title=" ">
<path fill="none" stroke="#63b8ff" d="M119.64,-42.96C132.1,-39.62 145.41,-36.05 158.22,-32.62"/>
<polygon fill="#63b8ff" stroke="#63b8ff" points="159.14,-36 167.9,-30.03 157.33,-29.24 159.14,-36"/>
</a>
</g>
</g>
<!-- Node5 -->
<g id="Node000005" class="node">
<title>Node5</title>
<g id="a_Node000005"><a target="_parent" xlink:href="../libraries/classAR__WPNav.html#a7f1c16887f7bb0a064a1baddce78fe96" xlink:title=" ">
<polygon fill="white" stroke="#666666" points="477,-24.5 325,-24.5 325,-5.5 477,-5.5 477,-24.5"/>
<text text-anchor="middle" x="401" y="-12.5" font-family="Helvetica,sans-Serif" font-size="10.00">AR_WPNav::set_speed_max</text>
</a>
</g>
</g>
<!-- Node4&#45;&gt;Node5 -->
<g id="edge4_Node000004_Node000005" class="edge">
<title>Node4&#45;&gt;Node5</title>
<g id="a_edge4_Node000004_Node000005"><a xlink:title=" ">
<path fill="none" stroke="#63b8ff" d="M289.31,-15C297.62,-15 306.24,-15 314.84,-15"/>
<polygon fill="#63b8ff" stroke="#63b8ff" points="314.91,-18.5 324.91,-15 314.91,-11.5 314.91,-18.5"/>
</a>
</g>
</g>
</g>
</svg>
