<?xml version="1.0" encoding="UTF-8" standalone="no"?>
<!DOCTYPE svg PUBLIC "-//W3C//DTD SVG 1.1//EN"
 "http://www.w3.org/Graphics/SVG/1.1/DTD/svg11.dtd">
<!-- Generated by graphviz version 2.43.0 (0)
 -->
<!-- Title: Rover::radio_failsafe_check Pages: 1 -->
<svg width="1020pt" height="715pt"
 viewBox="0.00 0.00 1020.00 714.50" xmlns="http://www.w3.org/2000/svg" xmlns:xlink="http://www.w3.org/1999/xlink">
<g id="graph0" class="graph" transform="scale(1 1) rotate(0) translate(4 710.5)">
<title>Rover::radio_failsafe_check</title>
<!-- Node1 -->
<g id="Node000001" class="node">
<title>Node1</title>
<g id="a_Node000001"><a xlink:title=" ">
<polygon fill="#999999" stroke="#666666" points="118,-446.5 0,-446.5 0,-416.5 118,-416.5 118,-446.5"/>
<text text-anchor="start" x="8" y="-434.5" font-family="Helvetica,sans-Serif" font-size="10.00">Rover::radio_failsafe</text>
<text text-anchor="middle" x="59" y="-423.5" font-family="Helvetica,sans-Serif" font-size="10.00">_check</text>
</a>
</g>
</g>
<!-- Node2 -->
<g id="Node000002" class="node">
<title>Node2</title>
<g id="a_Node000002"><a target="_parent" xlink:href="../libraries/RTC__Test_8cpp.html#a85c495b724f6148313bf4d931a405c3c" xlink:title=" ">
<polygon fill="white" stroke="#666666" points="238.5,-478 194.5,-478 194.5,-459 238.5,-459 238.5,-478"/>
<text text-anchor="middle" x="216.5" y="-466" font-family="Helvetica,sans-Serif" font-size="10.00">failed</text>
</a>
</g>
</g>
<!-- Node1&#45;&gt;Node2 -->
<g id="edge1_Node000001_Node000002" class="edge">
<title>Node1&#45;&gt;Node2</title>
<g id="a_edge1_Node000001_Node000002"><a xlink:title=" ">
<path fill="none" stroke="#63b8ff" d="M118.34,-445.38C140.74,-450.71 165.43,-456.59 184.32,-461.08"/>
<polygon fill="#63b8ff" stroke="#63b8ff" points="183.62,-464.51 194.16,-463.42 185.24,-457.7 183.62,-464.51"/>
</a>
</g>
</g>
<!-- Node3 -->
<g id="Node000003" class="node">
<title>Node3</title>
<g id="a_Node000003"><a xlink:href="classRover.html#a4714087ac2ec4b1f90c476f2a1bf4a24" target="_top" xlink:title=" ">
<polygon fill="white" stroke="#666666" points="279,-441 154,-441 154,-422 279,-422 279,-441"/>
<text text-anchor="middle" x="216.5" y="-429" font-family="Helvetica,sans-Serif" font-size="10.00">Rover::failsafe_trigger</text>
</a>
</g>
</g>
<!-- Node1&#45;&gt;Node3 -->
<g id="edge2_Node000001_Node000003" class="edge">
<title>Node1&#45;&gt;Node3</title>
<g id="a_edge2_Node000001_Node000003"><a xlink:title=" ">
<path fill="none" stroke="#63b8ff" d="M118.34,-431.5C126.71,-431.5 135.39,-431.5 143.97,-431.5"/>
<polygon fill="#63b8ff" stroke="#63b8ff" points="143.97,-435 153.97,-431.5 143.97,-428 143.97,-435"/>
</a>
</g>
</g>
<!-- Node37 -->
<g id="Node000037" class="node">
<title>Node37</title>
<g id="a_Node000037"><a target="_parent" xlink:href="../libraries/namespaceAP__HAL.html#a77dffbb18891996280308e21316ec186" xlink:title=" ">
<polygon fill="white" stroke="#666666" points="260,-404 173,-404 173,-385 260,-385 260,-404"/>
<text text-anchor="middle" x="216.5" y="-392" font-family="Helvetica,sans-Serif" font-size="10.00">AP_HAL::millis</text>
</a>
</g>
</g>
<!-- Node1&#45;&gt;Node37 -->
<g id="edge41_Node000001_Node000037" class="edge">
<title>Node1&#45;&gt;Node37</title>
<g id="a_edge41_Node000001_Node000037"><a xlink:title=" ">
<path fill="none" stroke="#63b8ff" d="M118.34,-417.62C133.75,-413.95 150.24,-410.03 165.18,-406.47"/>
<polygon fill="#63b8ff" stroke="#63b8ff" points="166.32,-409.8 175.24,-404.08 164.7,-402.99 166.32,-409.8"/>
</a>
</g>
</g>
<!-- Node4 -->
<g id="Node000004" class="node">
<title>Node4</title>
<g id="a_Node000004"><a target="_parent" xlink:href="../libraries/classRC__Channels.html#a3dd4b82ba0b130b51ab4db4829975378" xlink:title=" ">
<polygon fill="white" stroke="#666666" points="441.5,-599.5 331.5,-599.5 331.5,-569.5 441.5,-569.5 441.5,-599.5"/>
<text text-anchor="start" x="339.5" y="-587.5" font-family="Helvetica,sans-Serif" font-size="10.00">RC_Channels::clear</text>
<text text-anchor="middle" x="386.5" y="-576.5" font-family="Helvetica,sans-Serif" font-size="10.00">_overrides</text>
</a>
</g>
</g>
<!-- Node3&#45;&gt;Node4 -->
<g id="edge3_Node000003_Node000004" class="edge">
<title>Node3&#45;&gt;Node4</title>
<g id="a_edge3_Node000003_Node000004"><a xlink:title=" ">
<path fill="none" stroke="#63b8ff" d="M265.45,-441.15C270.43,-443.59 275.1,-446.66 279,-450.5 315.68,-486.57 278.84,-523.91 315,-560.5 317.32,-562.85 319.87,-564.96 322.6,-566.87"/>
<polygon fill="#63b8ff" stroke="#63b8ff" points="320.81,-569.88 331.2,-572 324.4,-563.87 320.81,-569.88"/>
</a>
</g>
</g>
<!-- Node5 -->
<g id="Node000005" class="node">
<title>Node5</title>
<g id="a_Node000005"><a xlink:href="classAP__Arming__Rover.html#a814bf6bdedf28d0a672183599a3cdcb8" target="_top" xlink:title=" ">
<polygon fill="white" stroke="#666666" points="458,-551 315,-551 315,-532 458,-532 458,-551"/>
<text text-anchor="middle" x="386.5" y="-539" font-family="Helvetica,sans-Serif" font-size="10.00">AP_Arming_Rover::disarm</text>
</a>
</g>
</g>
<!-- Node3&#45;&gt;Node5 -->
<g id="edge4_Node000003_Node000005" class="edge">
<title>Node3&#45;&gt;Node5</title>
<g id="a_edge4_Node000003_Node000005"><a xlink:title=" ">
<path fill="none" stroke="#63b8ff" d="M256.87,-441.04C264.44,-443.6 272.15,-446.73 279,-450.5 315.3,-470.49 350.45,-504.18 369.91,-524.48"/>
<polygon fill="#63b8ff" stroke="#63b8ff" points="367.39,-526.91 376.8,-531.79 372.49,-522.11 367.39,-526.91"/>
</a>
</g>
</g>
<!-- Node15 -->
<g id="Node000015" class="node">
<title>Node15</title>
<g id="a_Node000015"><a xlink:href="classRover.html#ad7127577a375b6bf7f3ae89c352e03ee" target="_top" xlink:title=" ">
<polygon fill="white" stroke="#666666" points="611.5,-441 543.5,-441 543.5,-422 611.5,-422 611.5,-441"/>
<text text-anchor="middle" x="577.5" y="-429" font-family="Helvetica,sans-Serif" font-size="10.00">Rover::gcs</text>
</a>
</g>
</g>
<!-- Node3&#45;&gt;Node15 -->
<g id="edge14_Node000003_Node000015" class="edge">
<title>Node3&#45;&gt;Node15</title>
<g id="a_edge14_Node000003_Node000015"><a xlink:title=" ">
<path fill="none" stroke="#63b8ff" d="M279.21,-431.5C351.57,-431.5 469.63,-431.5 533.02,-431.5"/>
<polygon fill="#63b8ff" stroke="#63b8ff" points="533.07,-435 543.07,-431.5 533.07,-428 533.07,-435"/>
</a>
</g>
</g>
<!-- Node16 -->
<g id="Node000016" class="node">
<title>Node16</title>
<g id="a_Node000016"><a target="_parent" xlink:href="../libraries/classGCS.html#a2f099d18721b0874af08fde3f6aae6b6" xlink:title=" ">
<polygon fill="white" stroke="#666666" points="623,-403 532,-403 532,-384 623,-384 623,-403"/>
<text text-anchor="middle" x="577.5" y="-391" font-family="Helvetica,sans-Serif" font-size="10.00">GCS::send_text</text>
</a>
</g>
</g>
<!-- Node3&#45;&gt;Node16 -->
<g id="edge15_Node000003_Node000016" class="edge">
<title>Node3&#45;&gt;Node16</title>
<g id="a_edge15_Node000003_Node000016"><a xlink:title=" ">
<path fill="none" stroke="#63b8ff" d="M279.21,-424.97C347.44,-417.75 456.3,-406.22 521.64,-399.31"/>
<polygon fill="#63b8ff" stroke="#63b8ff" points="522.16,-402.77 531.74,-398.24 521.43,-395.81 522.16,-402.77"/>
</a>
</g>
</g>
<!-- Node17 -->
<g id="Node000017" class="node">
<title>Node17</title>
<g id="a_Node000017"><a xlink:href="classRover.html#a3ee7c2318bf74e88e1dde406877055d3" target="_top" xlink:title=" ">
<polygon fill="white" stroke="#666666" points="436,-249 337,-249 337,-230 436,-230 436,-249"/>
<text text-anchor="middle" x="386.5" y="-237" font-family="Helvetica,sans-Serif" font-size="10.00">Rover::set_mode</text>
</a>
</g>
</g>
<!-- Node3&#45;&gt;Node17 -->
<g id="edge16_Node000003_Node000017" class="edge">
<title>Node3&#45;&gt;Node17</title>
<g id="a_edge16_Node000003_Node000017"><a xlink:title=" ">
<path fill="none" stroke="#63b8ff" d="M263.98,-421.99C269.34,-419.74 274.49,-416.95 279,-413.5 333.04,-372.15 365.95,-294.86 379.01,-258.87"/>
<polygon fill="#63b8ff" stroke="#63b8ff" points="382.43,-259.7 382.43,-249.11 375.82,-257.39 382.43,-259.7"/>
</a>
</g>
</g>
<!-- Node6 -->
<g id="Node000006" class="node">
<title>Node6</title>
<g id="a_Node000006"><a target="_parent" xlink:href="../libraries/classAP__Arming.html#a97cd0d015cd8f9b6920cfa1b304d84ef" xlink:title=" ">
<polygon fill="white" stroke="#666666" points="632.5,-642 522.5,-642 522.5,-623 632.5,-623 632.5,-642"/>
<text text-anchor="middle" x="577.5" y="-630" font-family="Helvetica,sans-Serif" font-size="10.00">AP_Arming::disarm</text>
</a>
</g>
</g>
<!-- Node5&#45;&gt;Node6 -->
<g id="edge5_Node000005_Node000006" class="edge">
<title>Node5&#45;&gt;Node6</title>
<g id="a_edge5_Node000005_Node000006"><a xlink:title=" ">
<path fill="none" stroke="#63b8ff" d="M439.86,-551.04C446.3,-553.51 452.53,-556.6 458,-560.5 481.2,-577.02 470.5,-597.42 494,-613.5 499.62,-617.35 505.91,-620.43 512.45,-622.89"/>
<polygon fill="#63b8ff" stroke="#63b8ff" points="511.55,-626.28 522.15,-626.07 513.73,-619.62 511.55,-626.28"/>
</a>
</g>
</g>
<!-- Node7 -->
<g id="Node000007" class="node">
<title>Node7</title>
<g id="a_Node000007"><a target="_parent" xlink:href="../libraries/classAP__Arming.html#a7d6e26fcda781c712a36eb1299bd0a52" xlink:title=" ">
<polygon fill="white" stroke="#666666" points="639.5,-604.5 515.5,-604.5 515.5,-574.5 639.5,-574.5 639.5,-604.5"/>
<text text-anchor="start" x="523.5" y="-592.5" font-family="Helvetica,sans-Serif" font-size="10.00">AP_Arming::send_arm</text>
<text text-anchor="middle" x="577.5" y="-581.5" font-family="Helvetica,sans-Serif" font-size="10.00">_disarm_statustext</text>
</a>
</g>
</g>
<!-- Node5&#45;&gt;Node7 -->
<g id="edge6_Node000005_Node000007" class="edge">
<title>Node5&#45;&gt;Node7</title>
<g id="a_edge6_Node000005_Node000007"><a xlink:title=" ">
<path fill="none" stroke="#63b8ff" d="M425.29,-551.1C448.7,-557.04 479.48,-564.86 507.15,-571.89"/>
<polygon fill="#63b8ff" stroke="#63b8ff" points="506.64,-575.37 517.19,-574.44 508.36,-568.58 506.64,-575.37"/>
</a>
</g>
</g>
<!-- Node8 -->
<g id="Node000008" class="node">
<title>Node8</title>
<g id="a_Node000008"><a xlink:href="classAP__Arming__Rover.html#a4a755215b7b618c8a46fd96a35186ad9" target="_top" xlink:title=" ">
<polygon fill="white" stroke="#666666" points="649,-556.5 506,-556.5 506,-526.5 649,-526.5 649,-556.5"/>
<text text-anchor="start" x="514" y="-544.5" font-family="Helvetica,sans-Serif" font-size="10.00">AP_Arming_Rover::update</text>
<text text-anchor="middle" x="577.5" y="-533.5" font-family="Helvetica,sans-Serif" font-size="10.00">_soft_armed</text>
</a>
</g>
</g>
<!-- Node5&#45;&gt;Node8 -->
<g id="edge7_Node000005_Node000008" class="edge">
<title>Node5&#45;&gt;Node8</title>
<g id="a_edge7_Node000005_Node000008"><a xlink:title=" ">
<path fill="none" stroke="#63b8ff" d="M458.15,-541.5C470.35,-541.5 483.12,-541.5 495.58,-541.5"/>
<polygon fill="#63b8ff" stroke="#63b8ff" points="495.94,-545 505.94,-541.5 495.94,-538 495.94,-545"/>
</a>
</g>
</g>
<!-- Node9 -->
<g id="Node000009" class="node">
<title>Node9</title>
<g id="a_Node000009"><a target="_parent" xlink:href="../libraries/classAP__HAL_1_1Util.html#a287a2b82fa30b92c8d52aad61d4d27b7" xlink:title=" ">
<polygon fill="white" stroke="#666666" points="828,-487.5 706,-487.5 706,-457.5 828,-457.5 828,-487.5"/>
<text text-anchor="start" x="714" y="-475.5" font-family="Helvetica,sans-Serif" font-size="10.00">AP_HAL::Util::get_soft</text>
<text text-anchor="middle" x="767" y="-464.5" font-family="Helvetica,sans-Serif" font-size="10.00">_armed</text>
</a>
</g>
</g>
<!-- Node8&#45;&gt;Node9 -->
<g id="edge8_Node000008_Node000009" class="edge">
<title>Node8&#45;&gt;Node9</title>
<g id="a_edge8_Node000008_Node000009"><a xlink:title=" ">
<path fill="none" stroke="#63b8ff" d="M617.36,-526.43C640.44,-517.55 670.32,-506.2 697,-496.5 702.07,-494.66 707.35,-492.77 712.64,-490.89"/>
<polygon fill="#63b8ff" stroke="#63b8ff" points="713.86,-494.17 722.13,-487.55 711.54,-487.57 713.86,-494.17"/>
</a>
</g>
</g>
<!-- Node10 -->
<g id="Node000010" class="node">
<title>Node10</title>
<g id="a_Node000010"><a target="_parent" xlink:href="../libraries/classAP__Arming.html#a4b6025d0ed4162537933ae0514bf5dca" xlink:title=" ">
<polygon fill="white" stroke="#666666" points="827.5,-610 706.5,-610 706.5,-591 827.5,-591 827.5,-610"/>
<text text-anchor="middle" x="767" y="-598" font-family="Helvetica,sans-Serif" font-size="10.00">AP_Arming::is_armed</text>
</a>
</g>
</g>
<!-- Node8&#45;&gt;Node10 -->
<g id="edge9_Node000008_Node000010" class="edge">
<title>Node8&#45;&gt;Node10</title>
<g id="a_edge9_Node000008_Node000010"><a xlink:title=" ">
<path fill="none" stroke="#63b8ff" d="M634.81,-556.59C643.65,-559.33 652.63,-562.33 661,-565.5 677.55,-571.77 680.37,-576.46 697,-582.5 702.59,-584.53 708.51,-586.43 714.45,-588.18"/>
<polygon fill="#63b8ff" stroke="#63b8ff" points="713.81,-591.64 724.39,-590.98 715.71,-584.9 713.81,-591.64"/>
</a>
</g>
</g>
<!-- Node11 -->
<g id="Node000011" class="node">
<title>Node11</title>
<g id="a_Node000011"><a target="_parent" xlink:href="../libraries/namespaceAP.html#aa35bfac1ea2da16f110e8e72db7b3b20" xlink:title=" ">
<polygon fill="white" stroke="#666666" points="800,-573 734,-573 734,-554 800,-554 800,-573"/>
<text text-anchor="middle" x="767" y="-561" font-family="Helvetica,sans-Serif" font-size="10.00">AP::logger</text>
</a>
</g>
</g>
<!-- Node8&#45;&gt;Node11 -->
<g id="edge10_Node000008_Node000011" class="edge">
<title>Node8&#45;&gt;Node11</title>
<g id="a_edge10_Node000008_Node000011"><a xlink:title=" ">
<path fill="none" stroke="#63b8ff" d="M649.12,-549.79C674.21,-552.73 701.66,-555.95 723.65,-558.53"/>
<polygon fill="#63b8ff" stroke="#63b8ff" points="723.32,-562.02 733.66,-559.71 724.13,-555.06 723.32,-562.02"/>
</a>
</g>
</g>
<!-- Node12 -->
<g id="Node000012" class="node">
<title>Node12</title>
<g id="a_Node000012"><a target="_parent" xlink:href="../libraries/classAP__HAL_1_1Util.html#a9cd8bcd13d4c3c74c665b0702f86451b" xlink:title=" ">
<polygon fill="white" stroke="#666666" points="824,-535.5 710,-535.5 710,-505.5 824,-505.5 824,-535.5"/>
<text text-anchor="start" x="718" y="-523.5" font-family="Helvetica,sans-Serif" font-size="10.00">AP_HAL::Util::safety</text>
<text text-anchor="middle" x="767" y="-512.5" font-family="Helvetica,sans-Serif" font-size="10.00">_switch_state</text>
</a>
</g>
</g>
<!-- Node8&#45;&gt;Node12 -->
<g id="edge11_Node000008_Node000012" class="edge">
<title>Node8&#45;&gt;Node12</title>
<g id="a_edge11_Node000008_Node000012"><a xlink:title=" ">
<path fill="none" stroke="#63b8ff" d="M649.12,-533.59C665.71,-531.73 683.33,-529.76 699.73,-527.92"/>
<polygon fill="#63b8ff" stroke="#63b8ff" points="700.21,-531.39 709.75,-526.8 699.43,-524.43 700.21,-531.39"/>
</a>
</g>
</g>
<!-- Node13 -->
<g id="Node000013" class="node">
<title>Node13</title>
<g id="a_Node000013"><a target="_parent" xlink:href="../libraries/classAP__HAL_1_1Util.html#a7d70f16a1d05a0601b26b3d5488605bf" xlink:title=" ">
<polygon fill="white" stroke="#666666" points="828,-706.5 706,-706.5 706,-676.5 828,-676.5 828,-706.5"/>
<text text-anchor="start" x="714" y="-694.5" font-family="Helvetica,sans-Serif" font-size="10.00">AP_HAL::Util::set_soft</text>
<text text-anchor="middle" x="767" y="-683.5" font-family="Helvetica,sans-Serif" font-size="10.00">_armed</text>
</a>
</g>
</g>
<!-- Node8&#45;&gt;Node13 -->
<g id="edge12_Node000008_Node000013" class="edge">
<title>Node8&#45;&gt;Node13</title>
<g id="a_edge12_Node000008_Node000013"><a xlink:title=" ">
<path fill="none" stroke="#63b8ff" d="M649.1,-556.71C653.4,-559.21 657.42,-562.12 661,-565.5 695.94,-598.53 662.93,-633.58 697,-667.5 698.07,-668.56 699.18,-669.58 700.34,-670.55"/>
<polygon fill="#63b8ff" stroke="#63b8ff" points="698.35,-673.43 708.54,-676.33 702.38,-667.7 698.35,-673.43"/>
</a>
</g>
</g>
<!-- Node14 -->
<g id="Node000014" class="node">
<title>Node14</title>
<g id="a_Node000014"><a target="_parent" xlink:href="../libraries/classAP__Logger.html#ada8328cee0a4d5e6b64a235a5d2f273b" xlink:title=" ">
<polygon fill="white" stroke="#666666" points="831.5,-658.5 702.5,-658.5 702.5,-628.5 831.5,-628.5 831.5,-658.5"/>
<text text-anchor="start" x="710.5" y="-646.5" font-family="Helvetica,sans-Serif" font-size="10.00">AP_Logger::set_vehicle</text>
<text text-anchor="middle" x="767" y="-635.5" font-family="Helvetica,sans-Serif" font-size="10.00">_armed</text>
</a>
</g>
</g>
<!-- Node8&#45;&gt;Node14 -->
<g id="edge13_Node000008_Node000014" class="edge">
<title>Node8&#45;&gt;Node14</title>
<g id="a_edge13_Node000008_Node000014"><a xlink:title=" ">
<path fill="none" stroke="#63b8ff" d="M645.73,-556.58C651.13,-559.11 656.31,-562.06 661,-565.5 684.26,-582.56 674.19,-601.84 697,-619.5 698.79,-620.89 700.67,-622.2 702.62,-623.44"/>
<polygon fill="#63b8ff" stroke="#63b8ff" points="701.06,-626.58 711.49,-628.41 704.48,-620.47 701.06,-626.58"/>
</a>
</g>
</g>
<!-- Node17&#45;&gt;Node15 -->
<g id="edge26_Node000017_Node000015" class="edge">
<title>Node17&#45;&gt;Node15</title>
<g id="a_edge26_Node000017_Node000015"><a xlink:title=" ">
<path fill="none" stroke="#63b8ff" d="M390.47,-249.21C400.08,-278.87 433.26,-368.89 494,-412.5 505.32,-420.63 519.58,-425.34 533.04,-428.06"/>
<polygon fill="#63b8ff" stroke="#63b8ff" points="532.67,-431.54 543.11,-429.76 533.84,-424.64 532.67,-431.54"/>
</a>
</g>
</g>
<!-- Node17&#45;&gt;Node16 -->
<g id="edge38_Node000017_Node000016" class="edge">
<title>Node17&#45;&gt;Node16</title>
<g id="a_edge38_Node000017_Node000016"><a xlink:title=" ">
<path fill="none" stroke="#63b8ff" d="M392.11,-249.28C404.6,-274.61 441.68,-342.65 494,-375.5 502.47,-380.82 512.29,-384.58 522.14,-387.24"/>
<polygon fill="#63b8ff" stroke="#63b8ff" points="521.41,-390.66 531.94,-389.55 523.01,-383.85 521.41,-390.66"/>
</a>
</g>
</g>
<!-- Node18 -->
<g id="Node000018" class="node">
<title>Node18</title>
<g id="a_Node000018"><a xlink:href="classMode.html#a3e5c3a5a842021ff17e70b0a65461af3" target="_top" xlink:title=" ">
<polygon fill="white" stroke="#666666" points="615,-366 540,-366 540,-347 615,-347 615,-366"/>
<text text-anchor="middle" x="577.5" y="-354" font-family="Helvetica,sans-Serif" font-size="10.00">Mode::enter</text>
</a>
</g>
</g>
<!-- Node17&#45;&gt;Node18 -->
<g id="edge17_Node000017_Node000018" class="edge">
<title>Node17&#45;&gt;Node18</title>
<g id="a_edge17_Node000017_Node000018"><a xlink:title=" ">
<path fill="none" stroke="#63b8ff" d="M394.84,-249.18C410.62,-269.25 449.93,-315.45 494,-338.5 504.96,-344.23 517.66,-348.14 529.76,-350.81"/>
<polygon fill="#63b8ff" stroke="#63b8ff" points="529.24,-354.27 539.73,-352.76 530.59,-347.4 529.24,-354.27"/>
</a>
</g>
</g>
<!-- Node24 -->
<g id="Node000024" class="node">
<title>Node24</title>
<g id="a_Node000024"><a xlink:href="classMode.html#acc347b62c670471bde37a38b28d53601" target="_top" xlink:title=" ">
<polygon fill="white" stroke="#666666" points="611.5,-329 543.5,-329 543.5,-310 611.5,-310 611.5,-329"/>
<text text-anchor="middle" x="577.5" y="-317" font-family="Helvetica,sans-Serif" font-size="10.00">Mode::exit</text>
</a>
</g>
</g>
<!-- Node17&#45;&gt;Node24 -->
<g id="edge24_Node000017_Node000024" class="edge">
<title>Node17&#45;&gt;Node24</title>
<g id="a_edge24_Node000017_Node000024"><a xlink:title=" ">
<path fill="none" stroke="#63b8ff" d="M400.92,-249.18C420.46,-262.84 458.31,-287.62 494,-301.5 506.4,-306.32 520.37,-309.99 533.25,-312.71"/>
<polygon fill="#63b8ff" stroke="#63b8ff" points="532.8,-316.19 543.29,-314.7 534.16,-309.32 532.8,-316.19"/>
</a>
</g>
</g>
<!-- Node26 -->
<g id="Node000026" class="node">
<title>Node26</title>
<g id="a_Node000026"><a xlink:href="classRover.html#aa9f5d109a72d3f5be1c1bf8133d813b5" target="_top" xlink:title=" ">
<polygon fill="white" stroke="#666666" points="650,-292 505,-292 505,-273 650,-273 650,-292"/>
<text text-anchor="middle" x="577.5" y="-280" font-family="Helvetica,sans-Serif" font-size="10.00">Rover::gcs_mode_enabled</text>
</a>
</g>
</g>
<!-- Node17&#45;&gt;Node26 -->
<g id="edge27_Node000017_Node000026" class="edge">
<title>Node17&#45;&gt;Node26</title>
<g id="a_edge27_Node000017_Node000026"><a xlink:title=" ">
<path fill="none" stroke="#63b8ff" d="M429.45,-249.04C457.58,-255.45 494.84,-263.92 524.81,-270.74"/>
<polygon fill="#63b8ff" stroke="#63b8ff" points="524.14,-274.18 534.67,-272.98 525.7,-267.35 524.14,-274.18"/>
</a>
</g>
</g>
<!-- Node28 -->
<g id="Node000028" class="node">
<title>Node28</title>
<g id="a_Node000028"><a target="_parent" xlink:href="../libraries/classAC__Fence.html#a32ddec2d811a21b723c83fca515a2004" xlink:title=" ">
<polygon fill="white" stroke="#666666" points="655,-254.5 500,-254.5 500,-224.5 655,-224.5 655,-254.5"/>
<text text-anchor="start" x="508" y="-242.5" font-family="Helvetica,sans-Serif" font-size="10.00">AC_Fence::manual_recovery</text>
<text text-anchor="middle" x="577.5" y="-231.5" font-family="Helvetica,sans-Serif" font-size="10.00">_start</text>
</a>
</g>
</g>
<!-- Node17&#45;&gt;Node28 -->
<g id="edge29_Node000017_Node000028" class="edge">
<title>Node17&#45;&gt;Node28</title>
<g id="a_edge29_Node000017_Node000028"><a xlink:title=" ">
<path fill="none" stroke="#63b8ff" d="M436.17,-239.5C452.51,-239.5 471.25,-239.5 489.61,-239.5"/>
<polygon fill="#63b8ff" stroke="#63b8ff" points="489.75,-243 499.75,-239.5 489.75,-236 489.75,-243"/>
</a>
</g>
</g>
<!-- Node29 -->
<g id="Node000029" class="node">
<title>Node29</title>
<g id="a_Node000029"><a xlink:href="classMode.html#ae2e4b56b5c43544370beeaacd169ffe6" target="_top" xlink:title=" ">
<polygon fill="white" stroke="#666666" points="827,-205 707,-205 707,-186 827,-186 827,-205"/>
<text text-anchor="middle" x="767" y="-193" font-family="Helvetica,sans-Serif" font-size="10.00">Mode::mode_number</text>
</a>
</g>
</g>
<!-- Node17&#45;&gt;Node29 -->
<g id="edge30_Node000017_Node000029" class="edge">
<title>Node17&#45;&gt;Node29</title>
<g id="a_edge30_Node000017_Node000029"><a xlink:title=" ">
<path fill="none" stroke="#63b8ff" d="M423.72,-229.93C444.21,-224.88 470.38,-219.01 494,-215.5 562.56,-205.31 641.65,-200.24 696.81,-197.76"/>
<polygon fill="#63b8ff" stroke="#63b8ff" points="696.99,-201.25 706.83,-197.32 696.68,-194.26 696.99,-201.25"/>
</a>
</g>
</g>
<!-- Node30 -->
<g id="Node000030" class="node">
<title>Node30</title>
<g id="a_Node000030"><a xlink:href="classMode.html#afe001e103871496be6f7d96906248e77" target="_top" xlink:title=" ">
<polygon fill="white" stroke="#666666" points="808.5,-168 725.5,-168 725.5,-149 808.5,-149 808.5,-168"/>
<text text-anchor="middle" x="767" y="-156" font-family="Helvetica,sans-Serif" font-size="10.00">Mode::name4</text>
</a>
</g>
</g>
<!-- Node17&#45;&gt;Node30 -->
<g id="edge31_Node000017_Node000030" class="edge">
<title>Node17&#45;&gt;Node30</title>
<g id="a_edge31_Node000017_Node000030"><a xlink:title=" ">
<path fill="none" stroke="#63b8ff" d="M406.6,-229.85C427.52,-219.7 462.32,-204.05 494,-195.5 569.43,-175.15 659.79,-165.69 715.03,-161.52"/>
<polygon fill="#63b8ff" stroke="#63b8ff" points="715.54,-164.99 725.26,-160.78 715.04,-158.01 715.54,-164.99"/>
</a>
</g>
</g>
<!-- Node31 -->
<g id="Node000031" class="node">
<title>Node31</title>
<g id="a_Node000031"><a xlink:href="classRover.html#af39c095722ccd8c5dd3ccb187852f02d" target="_top" xlink:title=" ">
<polygon fill="white" stroke="#666666" points="633.5,-130 521.5,-130 521.5,-111 633.5,-111 633.5,-130"/>
<text text-anchor="middle" x="577.5" y="-118" font-family="Helvetica,sans-Serif" font-size="10.00">Rover::notify_mode</text>
</a>
</g>
</g>
<!-- Node17&#45;&gt;Node31 -->
<g id="edge32_Node000017_Node000031" class="edge">
<title>Node17&#45;&gt;Node31</title>
<g id="a_edge32_Node000017_Node000031"><a xlink:title=" ">
<path fill="none" stroke="#63b8ff" d="M395.56,-229.88C412.06,-210.78 451.73,-167.91 494,-144.5 502.15,-139.99 511.22,-136.25 520.3,-133.18"/>
<polygon fill="#63b8ff" stroke="#63b8ff" points="521.6,-136.44 530.09,-130.1 519.5,-129.76 521.6,-136.44"/>
</a>
</g>
</g>
<!-- Node34 -->
<g id="Node000034" class="node">
<title>Node34</title>
<g id="a_Node000034"><a target="_parent" xlink:href="../libraries/classGCS.html#a49e7272eb586b48b04d970d13ef3d95f" xlink:title=" ">
<polygon fill="white" stroke="#666666" points="635.5,-93 519.5,-93 519.5,-74 635.5,-74 635.5,-93"/>
<text text-anchor="middle" x="577.5" y="-81" font-family="Helvetica,sans-Serif" font-size="10.00">GCS::send_message</text>
</a>
</g>
</g>
<!-- Node17&#45;&gt;Node34 -->
<g id="edge37_Node000017_Node000034" class="edge">
<title>Node17&#45;&gt;Node34</title>
<g id="a_edge37_Node000017_Node000034"><a xlink:title=" ">
<path fill="none" stroke="#63b8ff" d="M391.89,-229.95C404.1,-204.55 441.06,-135 494,-101.5 498.92,-98.39 504.3,-95.81 509.88,-93.67"/>
<polygon fill="#63b8ff" stroke="#63b8ff" points="511.04,-96.97 519.41,-90.47 508.81,-90.33 511.04,-96.97"/>
</a>
</g>
</g>
<!-- Node35 -->
<g id="Node000035" class="node">
<title>Node35</title>
<g id="a_Node000035"><a target="_parent" xlink:href="../libraries/classAP__Camera.html#af06fd226c451a1a96a10c5194dfcc2b6" xlink:title=" ">
<polygon fill="white" stroke="#666666" points="661,-56 494,-56 494,-37 661,-37 661,-56"/>
<text text-anchor="middle" x="577.5" y="-44" font-family="Helvetica,sans-Serif" font-size="10.00">AP_Camera::set_is_auto_mode</text>
</a>
</g>
</g>
<!-- Node17&#45;&gt;Node35 -->
<g id="edge39_Node000017_Node000035" class="edge">
<title>Node17&#45;&gt;Node35</title>
<g id="a_edge39_Node000017_Node000035"><a xlink:title=" ">
<path fill="none" stroke="#63b8ff" d="M390.42,-229.65C399.86,-199.56 432.61,-108.28 494,-64.5 496.09,-63.01 498.28,-61.64 500.54,-60.38"/>
<polygon fill="#63b8ff" stroke="#63b8ff" points="502.1,-63.52 509.61,-56.05 499.08,-57.2 502.1,-63.52"/>
</a>
</g>
</g>
<!-- Node36 -->
<g id="Node000036" class="node">
<title>Node36</title>
<g id="a_Node000036"><a target="_parent" xlink:href="../libraries/classAP__Logger.html#a275ff0287cd6da901177b84fed9abf0d" xlink:title=" ">
<polygon fill="white" stroke="#666666" points="643.5,-19 511.5,-19 511.5,0 643.5,0 643.5,-19"/>
<text text-anchor="middle" x="577.5" y="-7" font-family="Helvetica,sans-Serif" font-size="10.00">AP_Logger::Write_Mode</text>
</a>
</g>
</g>
<!-- Node17&#45;&gt;Node36 -->
<g id="edge40_Node000017_Node000036" class="edge">
<title>Node17&#45;&gt;Node36</title>
<g id="a_edge40_Node000017_Node000036"><a xlink:title=" ">
<path fill="none" stroke="#63b8ff" d="M389.34,-229.59C396.22,-195.47 423.72,-82.05 494,-27.5 496.61,-25.48 499.39,-23.67 502.3,-22.06"/>
<polygon fill="#63b8ff" stroke="#63b8ff" points="503.82,-25.21 511.37,-17.78 500.83,-18.88 503.82,-25.21"/>
</a>
</g>
</g>
<!-- Node18&#45;&gt;Node9 -->
<g id="edge19_Node000018_Node000009" class="edge">
<title>Node18&#45;&gt;Node9</title>
<g id="a_edge19_Node000018_Node000009"><a xlink:title=" ">
<path fill="none" stroke="#63b8ff" d="M615.19,-358.07C630.69,-360.37 648.09,-365.28 661,-375.5 689.37,-397.95 669.89,-424.55 697,-448.5 698.34,-449.68 699.74,-450.81 701.19,-451.88"/>
<polygon fill="#63b8ff" stroke="#63b8ff" points="699.66,-455.06 709.99,-457.44 703.4,-449.14 699.66,-455.06"/>
</a>
</g>
</g>
<!-- Node19 -->
<g id="Node000019" class="node">
<title>Node19</title>
<g id="a_Node000019"><a xlink:href="classMode.html#a6594030a202f6ec5918b427b8a5717e4" target="_top" xlink:title=" ">
<polygon fill="white" stroke="#666666" points="807,-365 727,-365 727,-346 807,-346 807,-365"/>
<text text-anchor="middle" x="767" y="-353" font-family="Helvetica,sans-Serif" font-size="10.00">Mode::_enter</text>
</a>
</g>
</g>
<!-- Node18&#45;&gt;Node19 -->
<g id="edge18_Node000018_Node000019" class="edge">
<title>Node18&#45;&gt;Node19</title>
<g id="a_edge18_Node000018_Node000019"><a xlink:title=" ">
<path fill="none" stroke="#63b8ff" d="M615.1,-356.3C644.14,-356.15 685.01,-355.93 716.9,-355.76"/>
<polygon fill="#63b8ff" stroke="#63b8ff" points="716.93,-359.26 726.91,-355.71 716.89,-352.26 716.93,-359.26"/>
</a>
</g>
</g>
<!-- Node20 -->
<g id="Node000020" class="node">
<title>Node20</title>
<g id="a_Node000020"><a xlink:href="classMode.html#ae5a240ec7efe2623eb88c68beda58a99" target="_top" xlink:title=" ">
<polygon fill="white" stroke="#666666" points="834,-328 700,-328 700,-309 834,-309 834,-328"/>
<text text-anchor="middle" x="767" y="-316" font-family="Helvetica,sans-Serif" font-size="10.00">Mode::requires_position</text>
</a>
</g>
</g>
<!-- Node18&#45;&gt;Node20 -->
<g id="edge20_Node000018_Node000020" class="edge">
<title>Node18&#45;&gt;Node20</title>
<g id="a_edge20_Node000018_Node000020"><a xlink:title=" ">
<path fill="none" stroke="#63b8ff" d="M615.1,-349.08C641.72,-343.69 678.27,-336.28 708.74,-330.1"/>
<polygon fill="#63b8ff" stroke="#63b8ff" points="709.71,-333.48 718.82,-328.06 708.32,-326.62 709.71,-333.48"/>
</a>
</g>
</g>
<!-- Node21 -->
<g id="Node000021" class="node">
<title>Node21</title>
<g id="a_Node000021"><a xlink:href="classMode.html#a877262e51b58f132cb52c5977bf13c51" target="_top" xlink:title=" ">
<polygon fill="white" stroke="#666666" points="834,-439 700,-439 700,-420 834,-420 834,-439"/>
<text text-anchor="middle" x="767" y="-427" font-family="Helvetica,sans-Serif" font-size="10.00">Mode::requires_velocity</text>
</a>
</g>
</g>
<!-- Node18&#45;&gt;Node21 -->
<g id="edge21_Node000018_Node000021" class="edge">
<title>Node18&#45;&gt;Node21</title>
<g id="a_edge21_Node000018_Node000021"><a xlink:title=" ">
<path fill="none" stroke="#63b8ff" d="M615,-360.42C629.95,-363.14 646.99,-367.74 661,-375.5 680.79,-386.46 677.37,-400.25 697,-411.5 700.05,-413.25 703.26,-414.82 706.58,-416.25"/>
<polygon fill="#63b8ff" stroke="#63b8ff" points="705.52,-419.6 716.11,-419.9 708.02,-413.06 705.52,-419.6"/>
</a>
</g>
</g>
<!-- Node22 -->
<g id="Node000022" class="node">
<title>Node22</title>
<g id="a_Node000022"><a xlink:href="classMode.html#a1733ae28c2e308db5fca2dd79f477ddb" target="_top" xlink:title=" ">
<polygon fill="white" stroke="#666666" points="823.5,-402 710.5,-402 710.5,-383 823.5,-383 823.5,-402"/>
<text text-anchor="middle" x="767" y="-390" font-family="Helvetica,sans-Serif" font-size="10.00">Mode::set_reversed</text>
</a>
</g>
</g>
<!-- Node18&#45;&gt;Node22 -->
<g id="edge22_Node000018_Node000022" class="edge">
<title>Node18&#45;&gt;Node22</title>
<g id="a_edge22_Node000018_Node000022"><a xlink:title=" ">
<path fill="none" stroke="#63b8ff" d="M615.1,-363.53C641.05,-368.51 676.44,-375.3 706.43,-381.06"/>
<polygon fill="#63b8ff" stroke="#63b8ff" points="705.89,-384.52 716.37,-382.97 707.21,-377.65 705.89,-384.52"/>
</a>
</g>
</g>
<!-- Node23 -->
<g id="Node000023" class="node">
<title>Node23</title>
<g id="a_Node000023"><a target="_parent" xlink:href="../libraries/classAR__WPNav.html#a6f090d47863c1715392b91197397e1e8" xlink:title=" ">
<polygon fill="white" stroke="#666666" points="1012,-402 873,-402 873,-383 1012,-383 1012,-402"/>
<text text-anchor="middle" x="942.5" y="-390" font-family="Helvetica,sans-Serif" font-size="10.00">AR_WPNav::set_reversed</text>
</a>
</g>
</g>
<!-- Node22&#45;&gt;Node23 -->
<g id="edge23_Node000022_Node000023" class="edge">
<title>Node22&#45;&gt;Node23</title>
<g id="a_edge23_Node000022_Node000023"><a xlink:title=" ">
<path fill="none" stroke="#63b8ff" d="M823.85,-392.5C836.32,-392.5 849.78,-392.5 862.97,-392.5"/>
<polygon fill="#63b8ff" stroke="#63b8ff" points="862.99,-396 872.99,-392.5 862.99,-389 862.99,-396"/>
</a>
</g>
</g>
<!-- Node25 -->
<g id="Node000025" class="node">
<title>Node25</title>
<g id="a_Node000025"><a xlink:href="classMode.html#a469e59fc883ef9744f57377209a4036c" target="_top" xlink:title=" ">
<polygon fill="white" stroke="#666666" points="804,-291 730,-291 730,-272 804,-272 804,-291"/>
<text text-anchor="middle" x="767" y="-279" font-family="Helvetica,sans-Serif" font-size="10.00">Mode::_exit</text>
</a>
</g>
</g>
<!-- Node24&#45;&gt;Node25 -->
<g id="edge25_Node000024_Node000025" class="edge">
<title>Node24&#45;&gt;Node25</title>
<g id="a_edge25_Node000024_Node000025"><a xlink:title=" ">
<path fill="none" stroke="#63b8ff" d="M611.59,-312.79C641.6,-306.71 686.15,-297.68 719.69,-290.89"/>
<polygon fill="#63b8ff" stroke="#63b8ff" points="720.61,-294.27 729.72,-288.85 719.22,-287.41 720.61,-294.27"/>
</a>
</g>
</g>
<!-- Node27 -->
<g id="Node000027" class="node">
<title>Node27</title>
<g id="a_Node000027"><a target="_parent" xlink:href="../libraries/classAP__Vehicle.html#ac4205679aadfedfb9a7b0faa15c10188" xlink:title=" ">
<polygon fill="white" stroke="#666666" points="831,-253.5 703,-253.5 703,-223.5 831,-223.5 831,-253.5"/>
<text text-anchor="start" x="711" y="-241.5" font-family="Helvetica,sans-Serif" font-size="10.00">AP_Vehicle::block_GCS</text>
<text text-anchor="middle" x="767" y="-230.5" font-family="Helvetica,sans-Serif" font-size="10.00">_mode_change</text>
</a>
</g>
</g>
<!-- Node26&#45;&gt;Node27 -->
<g id="edge28_Node000026_Node000027" class="edge">
<title>Node26&#45;&gt;Node27</title>
<g id="a_edge28_Node000026_Node000027"><a xlink:title=" ">
<path fill="none" stroke="#63b8ff" d="M620.06,-272.99C633.16,-269.98 647.69,-266.62 661,-263.5 671.48,-261.05 682.54,-258.44 693.39,-255.86"/>
<polygon fill="#63b8ff" stroke="#63b8ff" points="694.36,-259.23 703.28,-253.51 692.74,-252.42 694.36,-259.23"/>
</a>
</g>
</g>
<!-- Node31&#45;&gt;Node29 -->
<g id="edge34_Node000031_Node000029" class="edge">
<title>Node31&#45;&gt;Node29</title>
<g id="a_edge34_Node000031_Node000029"><a xlink:title=" ">
<path fill="none" stroke="#63b8ff" d="M595.71,-130.09C618.37,-142.4 659.71,-163.81 697,-177.5 702.51,-179.52 708.34,-181.41 714.2,-183.15"/>
<polygon fill="#63b8ff" stroke="#63b8ff" points="713.43,-186.57 724,-185.93 715.34,-179.84 713.43,-186.57"/>
</a>
</g>
</g>
<!-- Node31&#45;&gt;Node30 -->
<g id="edge35_Node000031_Node000030" class="edge">
<title>Node31&#45;&gt;Node30</title>
<g id="a_edge35_Node000031_Node000030"><a xlink:title=" ">
<path fill="none" stroke="#63b8ff" d="M625.81,-130.09C653.16,-135.63 687.55,-142.6 715.43,-148.25"/>
<polygon fill="#63b8ff" stroke="#63b8ff" points="714.88,-151.71 725.38,-150.27 716.27,-144.85 714.88,-151.71"/>
</a>
</g>
</g>
<!-- Node32 -->
<g id="Node000032" class="node">
<title>Node32</title>
<g id="a_Node000032"><a xlink:href="classMode.html#aaf3fe35de08bf5fb5922462877b3a6e0" target="_top" xlink:title=" ">
<polygon fill="white" stroke="#666666" points="837,-82 697,-82 697,-63 837,-63 837,-82"/>
<text text-anchor="middle" x="767" y="-70" font-family="Helvetica,sans-Serif" font-size="10.00">Mode::is_autopilot_mode</text>
</a>
</g>
</g>
<!-- Node31&#45;&gt;Node32 -->
<g id="edge33_Node000031_Node000032" class="edge">
<title>Node31&#45;&gt;Node32</title>
<g id="a_edge33_Node000031_Node000032"><a xlink:title=" ">
<path fill="none" stroke="#63b8ff" d="M621.83,-110.9C634.49,-108 648.32,-104.72 661,-101.5 677.1,-97.41 681,-95.93 697,-91.5 704.92,-89.31 713.35,-86.98 721.5,-84.74"/>
<polygon fill="#63b8ff" stroke="#63b8ff" points="722.54,-88.08 731.25,-82.05 720.68,-81.33 722.54,-88.08"/>
</a>
</g>
</g>
<!-- Node33 -->
<g id="Node000033" class="node">
<title>Node33</title>
<g id="a_Node000033"><a target="_parent" xlink:href="../libraries/classAP__Notify.html#a6933d62a710817a9f6ae4ba03634eae9" xlink:title=" ">
<polygon fill="white" stroke="#666666" points="824,-130.5 710,-130.5 710,-100.5 824,-100.5 824,-130.5"/>
<text text-anchor="start" x="718" y="-118.5" font-family="Helvetica,sans-Serif" font-size="10.00">AP_Notify::set_flight</text>
<text text-anchor="middle" x="767" y="-107.5" font-family="Helvetica,sans-Serif" font-size="10.00">_mode_str</text>
</a>
</g>
</g>
<!-- Node31&#45;&gt;Node33 -->
<g id="edge36_Node000031_Node000033" class="edge">
<title>Node31&#45;&gt;Node33</title>
<g id="a_edge36_Node000031_Node000033"><a xlink:title=" ">
<path fill="none" stroke="#63b8ff" d="M633.74,-119.03C654.44,-118.47 678.18,-117.84 699.78,-117.27"/>
<polygon fill="#63b8ff" stroke="#63b8ff" points="699.95,-120.76 709.85,-117 699.77,-113.77 699.95,-120.76"/>
</a>
</g>
</g>
</g>
</svg>
