<?xml version="1.0" encoding="UTF-8" standalone="no"?>
<!DOCTYPE svg PUBLIC "-//W3C//DTD SVG 1.1//EN"
 "http://www.w3.org/Graphics/SVG/1.1/DTD/svg11.dtd">
<!-- Generated by graphviz version 2.43.0 (0)
 -->
<!-- Title: Mode::mode_number Pages: 1 -->
<!--zoomable 366 -->

<svg id="main" version="1.1" xmlns="http://www.w3.org/2000/svg" xmlns:xlink="http://www.w3.org/1999/xlink" xml:space="preserve" onload="init(evt)">
<style type="text/css"><![CDATA[
.node, .edge {opacity: 0.7;}
.node.selected, .edge.selected {opacity: 1;}
.edge:hover path { stroke: red; }
.edge:hover polygon { stroke: red; fill: red; }
]]></style>

<defs>
  <circle id="rim" cx="0" cy="0" r="7"/>
  <circle id="rim2" cx="0" cy="0" r="3.5"/>
  <g id="zoomPlus">
    <use xlink:href="#rim" fill="#404040"><set attributeName="fill" to="#808080" begin="zoomplus.mouseover" end="zoomplus.mouseout"/></use>
    <path d="M-4,0h8M0,-4v8" fill="none" stroke="white" stroke-width="1.5" pointer-events="none"/>
  </g>
  <g id="zoomMin">
    <use xlink:href="#rim" fill="#404040"><set attributeName="fill" to="#808080" begin="zoomminus.mouseover" end="zoomminus.mouseout"/></use>
    <path d="M-4,0h8" fill="none" stroke="white" stroke-width="1.5" pointer-events="none"/>
  </g>
  <g id="arrowUp" transform="translate(30 24)">
    <use xlink:href="#rim"/>
    <path pointer-events="none" fill="none" stroke="white" stroke-width="1.5" d="M0,-3.0v7 M-2.5,-0.5L0,-3.0L2.5,-0.5"/>
  </g>
  <g id="arrowRight" transform="rotate(90) translate(36 -43)">
    <use xlink:href="#rim"/>
    <path pointer-events="none" fill="none" stroke="white" stroke-width="1.5" d="M0,-3.0v7 M-2.5,-0.5L0,-3.0L2.5,-0.5"/>
  </g>
  <g id="arrowDown" transform="rotate(180) translate(-30 -48)">
    <use xlink:href="#rim"/>
    <path pointer-events="none" fill="none" stroke="white" stroke-width="1.5" d="M0,-3.0v7 M-2.5,-0.5L0,-3.0L2.5,-0.5"/>
  </g>
  <g id="arrowLeft" transform="rotate(270) translate(-36 17)">
    <use xlink:href="#rim"/>
    <path pointer-events="none" fill="none" stroke="white" stroke-width="1.5" d="M0,-3.0v7 M-2.5,-0.5L0,-3.0L2.5,-0.5"/>
  </g>
  <g id="resetDef">
    <use xlink:href="#rim2" fill="#404040"><set attributeName="fill" to="#808080" begin="reset.mouseover" end="reset.mouseout"/></use>
  </g>
</defs>
<script type="application/ecmascript">
var viewWidth = 865;
var viewHeight = 366;
var sectionId = 'dynsection-44';
</script>
<script type="application/ecmascript" xlink:href="svg.min.js"/>
<svg id="graph" class="graph">
<g id="viewport">
<title>Mode::mode_number</title>
<!-- Node1 -->
<g id="Node000001" class="node">
<title>Node1</title>
<g id="a_Node000001"><a xlink:title=" ">
<polygon fill="#999999" stroke="#666666" points="857,-239 737,-239 737,-220 857,-220 857,-239"/>
<text text-anchor="middle" x="797" y="-227" font-family="Helvetica,sans-Serif" font-size="10.00">Mode::mode_number</text>
</a>
</g>
</g>
<!-- Node2 -->
<g id="Node000002" class="node">
<title>Node2</title>
<g id="a_Node000002"><a xlink:href="classRover.html#ab58f9502598f899380e4858ae4c92dbc" target="_top" xlink:title=" ">
<polygon fill="white" stroke="#666666" points="695,-276 595,-276 595,-257 695,-257 695,-276"/>
<text text-anchor="middle" x="645" y="-264" font-family="Helvetica,sans-Serif" font-size="10.00">Rover::get_mode</text>
</a>
</g>
</g>
<!-- Node1&#45;&gt;Node2 -->
<g id="edge1_Node000001_Node000002" class="edge">
<title>Node1&#45;&gt;Node2</title>
<g id="a_edge1_Node000001_Node000002"><a xlink:title=" ">
<path fill="none" stroke="#63b8ff" d="M747.66,-241.43C727.31,-246.44 703.95,-252.21 684.76,-256.94"/>
<polygon fill="#63b8ff" stroke="#63b8ff" points="748.5,-244.82 757.37,-239.03 746.82,-238.03 748.5,-244.82"/>
</a>
</g>
</g>
<!-- Node3 -->
<g id="Node000003" class="node">
<title>Node3</title>
<g id="a_Node000003"><a xlink:href="classRover.html#af39c095722ccd8c5dd3ccb187852f02d" target="_top" xlink:title=" ">
<polygon fill="white" stroke="#666666" points="701,-239 589,-239 589,-220 701,-220 701,-239"/>
<text text-anchor="middle" x="645" y="-227" font-family="Helvetica,sans-Serif" font-size="10.00">Rover::notify_mode</text>
</a>
</g>
</g>
<!-- Node1&#45;&gt;Node3 -->
<g id="edge2_Node000001_Node000003" class="edge">
<title>Node1&#45;&gt;Node3</title>
<g id="a_edge2_Node000001_Node000003"><a xlink:title=" ">
<path fill="none" stroke="#63b8ff" d="M726.53,-229.5C718.12,-229.5 709.61,-229.5 701.43,-229.5"/>
<polygon fill="#63b8ff" stroke="#63b8ff" points="726.72,-233 736.72,-229.5 726.72,-226 726.72,-233"/>
</a>
</g>
</g>
<!-- Node5 -->
<g id="Node000005" class="node">
<title>Node5</title>
<g id="a_Node000005"><a xlink:href="classRover.html#a3ee7c2318bf74e88e1dde406877055d3" target="_top" xlink:title=" ">
<polygon fill="white" stroke="#666666" points="553,-201 454,-201 454,-182 553,-182 553,-201"/>
<text text-anchor="middle" x="503.5" y="-189" font-family="Helvetica,sans-Serif" font-size="10.00">Rover::set_mode</text>
</a>
</g>
</g>
<!-- Node1&#45;&gt;Node5 -->
<g id="edge19_Node000001_Node000005" class="edge">
<title>Node1&#45;&gt;Node5</title>
<g id="a_edge19_Node000001_Node000005"><a xlink:title=" ">
<path fill="none" stroke="#63b8ff" d="M742.94,-217.9C729.32,-215.2 714.66,-212.52 701,-210.5 650.82,-203.08 592.99,-197.89 553.12,-194.83"/>
<polygon fill="#63b8ff" stroke="#63b8ff" points="742.63,-221.41 753.13,-219.97 744.02,-214.55 742.63,-221.41"/>
</a>
</g>
</g>
<!-- Node4 -->
<g id="Node000004" class="node">
<title>Node4</title>
<g id="a_Node000004"><a xlink:href="classRover.html#ad283e6916e091f6ebc54008fcb597886" target="_top" xlink:title=" ">
<polygon fill="white" stroke="#666666" points="256,-341 140,-341 140,-322 256,-322 256,-341"/>
<text text-anchor="middle" x="198" y="-329" font-family="Helvetica,sans-Serif" font-size="10.00">Rover::init_ardupilot</text>
</a>
</g>
</g>
<!-- Node3&#45;&gt;Node4 -->
<g id="edge3_Node000003_Node000004" class="edge">
<title>Node3&#45;&gt;Node4</title>
<g id="a_edge3_Node000003_Node000004"><a xlink:title=" ">
<path fill="none" stroke="#63b8ff" d="M601.06,-242.52C596.94,-244.08 592.86,-245.74 589,-247.5 508.45,-284.15 503.31,-325.99 418,-349.5 353.64,-367.24 274.93,-352.31 231.57,-341.09"/>
<polygon fill="#63b8ff" stroke="#63b8ff" points="602.44,-245.75 610.68,-239.09 600.09,-239.15 602.44,-245.75"/>
</a>
</g>
</g>
<!-- Node3&#45;&gt;Node5 -->
<g id="edge4_Node000003_Node000005" class="edge">
<title>Node3&#45;&gt;Node5</title>
<g id="a_edge4_Node000003_Node000005"><a xlink:title=" ">
<path fill="none" stroke="#63b8ff" d="M599.04,-217.25C579.82,-212.02 557.7,-205.99 539.69,-201.09"/>
<polygon fill="#63b8ff" stroke="#63b8ff" points="598.23,-220.66 608.8,-219.91 600.07,-213.91 598.23,-220.66"/>
</a>
</g>
</g>
<!-- Node5&#45;&gt;Node4 -->
<g id="edge14_Node000005_Node000004" class="edge">
<title>Node5&#45;&gt;Node4</title>
<g id="a_edge14_Node000005_Node000004"><a xlink:title=" ">
<path fill="none" stroke="#63b8ff" d="M488.92,-209.26C473.66,-227.98 447.19,-257 418,-273.5 388.81,-290 301.36,-310.25 246.2,-321.94"/>
<polygon fill="#63b8ff" stroke="#63b8ff" points="491.81,-211.24 495.29,-201.23 486.33,-206.89 491.81,-211.24"/>
</a>
</g>
</g>
<!-- Node6 -->
<g id="Node000006" class="node">
<title>Node6</title>
<g id="a_Node000006"><a xlink:href="classRover.html#a1cfd11d6dccd789aebb462243f05fe99" target="_top" xlink:title=" ">
<polygon fill="white" stroke="#666666" points="411,-265 300,-265 300,-246 411,-246 411,-265"/>
<text text-anchor="middle" x="355.5" y="-253" font-family="Helvetica,sans-Serif" font-size="10.00">Rover::crash_check</text>
</a>
</g>
</g>
<!-- Node5&#45;&gt;Node6 -->
<g id="edge5_Node000005_Node000006" class="edge">
<title>Node5&#45;&gt;Node6</title>
<g id="a_edge5_Node000005_Node000006"><a xlink:title=" ">
<path fill="none" stroke="#63b8ff" d="M477.75,-206.29C461.22,-215.76 438.78,-227.85 418,-236.5 409.54,-240.02 400.19,-243.24 391.39,-245.98"/>
<polygon fill="#63b8ff" stroke="#63b8ff" points="479.86,-209.11 486.74,-201.06 476.34,-203.06 479.86,-209.11"/>
</a>
</g>
</g>
<!-- Node7 -->
<g id="Node000007" class="node">
<title>Node7</title>
<g id="a_Node000007"><a xlink:href="classRover.html#a7baf121728343d1ba9aef7d1d2ffc388" target="_top" xlink:title=" ">
<polygon fill="white" stroke="#666666" points="410,-227.5 301,-227.5 301,-197.5 410,-197.5 410,-227.5"/>
<text text-anchor="start" x="309" y="-215.5" font-family="Helvetica,sans-Serif" font-size="10.00">Rover::failsafe_ekf</text>
<text text-anchor="middle" x="355.5" y="-204.5" font-family="Helvetica,sans-Serif" font-size="10.00">_event</text>
</a>
</g>
</g>
<!-- Node5&#45;&gt;Node7 -->
<g id="edge6_Node000005_Node000007" class="edge">
<title>Node5&#45;&gt;Node7</title>
<g id="a_edge6_Node000005_Node000007"><a xlink:title=" ">
<path fill="none" stroke="#63b8ff" d="M443.83,-199.94C432.72,-201.54 421.14,-203.2 410.18,-204.78"/>
<polygon fill="#63b8ff" stroke="#63b8ff" points="444.48,-203.38 453.88,-198.49 443.49,-196.45 444.48,-203.38"/>
</a>
</g>
</g>
<!-- Node9 -->
<g id="Node000009" class="node">
<title>Node9</title>
<g id="a_Node000009"><a xlink:href="classRover.html#a4714087ac2ec4b1f90c476f2a1bf4a24" target="_top" xlink:title=" ">
<polygon fill="white" stroke="#666666" points="418,-179 293,-179 293,-160 418,-160 418,-179"/>
<text text-anchor="middle" x="355.5" y="-167" font-family="Helvetica,sans-Serif" font-size="10.00">Rover::failsafe_trigger</text>
</a>
</g>
</g>
<!-- Node5&#45;&gt;Node9 -->
<g id="edge8_Node000005_Node000009" class="edge">
<title>Node5&#45;&gt;Node9</title>
<g id="a_edge8_Node000005_Node000009"><a xlink:title=" ">
<path fill="none" stroke="#63b8ff" d="M443.76,-182.65C435.33,-181.38 426.64,-180.07 418.15,-178.79"/>
<polygon fill="#63b8ff" stroke="#63b8ff" points="443.47,-186.15 453.88,-184.17 444.52,-179.22 443.47,-186.15"/>
</a>
</g>
</g>
<!-- Node13 -->
<g id="Node000013" class="node">
<title>Node13</title>
<g id="a_Node000013"><a xlink:href="classRover.html#a73d9e55054d789a1bb3950382d01e0b2" target="_top" xlink:title=" ">
<polygon fill="white" stroke="#666666" points="411.5,-142 299.5,-142 299.5,-123 411.5,-123 411.5,-142"/>
<text text-anchor="middle" x="355.5" y="-130" font-family="Helvetica,sans-Serif" font-size="10.00">Rover::fence_check</text>
</a>
</g>
</g>
<!-- Node5&#45;&gt;Node13 -->
<g id="edge12_Node000005_Node000013" class="edge">
<title>Node5&#45;&gt;Node13</title>
<g id="a_edge12_Node000005_Node000013"><a xlink:title=" ">
<path fill="none" stroke="#63b8ff" d="M476.08,-177.27C459.67,-168.78 437.97,-158.2 418,-150.5 410.01,-147.42 401.26,-144.56 392.93,-142.07"/>
<polygon fill="#63b8ff" stroke="#63b8ff" points="474.6,-180.44 485.08,-181.98 477.85,-174.24 474.6,-180.44"/>
</a>
</g>
</g>
<!-- Node14 -->
<g id="Node000014" class="node">
<title>Node14</title>
<g id="a_Node000014"><a xlink:href="classRover.html#aaa23e838e0ea7258132f853c02759f36" target="_top" xlink:title=" ">
<polygon fill="white" stroke="#666666" points="418,-104.5 293,-104.5 293,-74.5 418,-74.5 418,-104.5"/>
<text text-anchor="start" x="301" y="-92.5" font-family="Helvetica,sans-Serif" font-size="10.00">Rover::handle_battery</text>
<text text-anchor="middle" x="355.5" y="-81.5" font-family="Helvetica,sans-Serif" font-size="10.00">_failsafe</text>
</a>
</g>
</g>
<!-- Node5&#45;&gt;Node14 -->
<g id="edge13_Node000005_Node000014" class="edge">
<title>Node5&#45;&gt;Node14</title>
<g id="a_edge13_Node000005_Node000014"><a xlink:title=" ">
<path fill="none" stroke="#63b8ff" d="M487.4,-174.19C471.55,-156.9 445.2,-130.51 418,-113.5 412.75,-110.22 406.98,-107.25 401.14,-104.62"/>
<polygon fill="#63b8ff" stroke="#63b8ff" points="485.01,-176.77 494.29,-181.87 490.22,-172.09 485.01,-176.77"/>
</a>
</g>
</g>
<!-- Node15 -->
<g id="Node000015" class="node">
<title>Node15</title>
<g id="a_Node000015"><a xlink:href="classRover.html#ae5916615697292e194ef1196b4d7c10d" target="_top" xlink:title=" ">
<polygon fill="white" stroke="#666666" points="405,-56 306,-56 306,-37 405,-37 405,-56"/>
<text text-anchor="middle" x="355.5" y="-44" font-family="Helvetica,sans-Serif" font-size="10.00">Rover::set_mode</text>
</a>
</g>
</g>
<!-- Node5&#45;&gt;Node15 -->
<g id="edge15_Node000005_Node000015" class="edge">
<title>Node5&#45;&gt;Node15</title>
<g id="a_edge15_Node000005_Node000015"><a xlink:title=" ">
<path fill="none" stroke="#63b8ff" d="M494.82,-172.67C482.62,-145.1 456.22,-93.95 418,-65.5 412.8,-61.63 406.8,-58.54 400.63,-56.07"/>
<polygon fill="#63b8ff" stroke="#63b8ff" points="491.65,-174.16 498.79,-181.99 498.09,-171.42 491.65,-174.16"/>
</a>
</g>
</g>
<!-- Node16 -->
<g id="Node000016" class="node">
<title>Node16</title>
<g id="a_Node000016"><a xlink:href="classRover.html#aeaa7521ce7ce90d38faf559e550ada96" target="_top" xlink:title=" ">
<polygon fill="white" stroke="#666666" points="405,-19 306,-19 306,0 405,0 405,-19"/>
<text text-anchor="middle" x="355.5" y="-7" font-family="Helvetica,sans-Serif" font-size="10.00">Rover::set_mode</text>
</a>
</g>
</g>
<!-- Node5&#45;&gt;Node16 -->
<g id="edge16_Node000005_Node000016" class="edge">
<title>Node5&#45;&gt;Node16</title>
<g id="a_edge16_Node000005_Node000016"><a xlink:title=" ">
<path fill="none" stroke="#63b8ff" d="M497.83,-171.87C488.62,-137.43 464.81,-66.13 418,-27.5 413.88,-24.1 409.14,-21.34 404.17,-19.11"/>
<polygon fill="#63b8ff" stroke="#63b8ff" points="494.47,-172.83 500.32,-181.66 501.25,-171.11 494.47,-172.83"/>
</a>
</g>
</g>
<!-- Node17 -->
<g id="Node000017" class="node">
<title>Node17</title>
<g id="a_Node000017"><a xlink:href="classRover.html#a279d4dab20276555d76ab0f28a7c5aee" target="_top" xlink:title=" ">
<polygon fill="white" stroke="#666666" points="418,-341 293,-341 293,-322 418,-322 418,-341"/>
<text text-anchor="middle" x="355.5" y="-329" font-family="Helvetica,sans-Serif" font-size="10.00">Rover::startup_ground</text>
</a>
</g>
</g>
<!-- Node5&#45;&gt;Node17 -->
<g id="edge17_Node000005_Node000017" class="edge">
<title>Node5&#45;&gt;Node17</title>
<g id="a_edge17_Node000005_Node000017"><a xlink:title=" ">
<path fill="none" stroke="#63b8ff" d="M493.41,-209.94C480.09,-235.2 453.02,-280.51 418,-307.5 410.1,-313.59 400.47,-318.31 391.19,-321.89"/>
<polygon fill="#63b8ff" stroke="#63b8ff" points="496.53,-211.53 497.97,-201.03 490.29,-208.34 496.53,-211.53"/>
</a>
</g>
</g>
<!-- Node8 -->
<g id="Node000008" class="node">
<title>Node8</title>
<g id="a_Node000008"><a xlink:href="classRover.html#abe3c868752daa20600110fc80bdae45c" target="_top" xlink:title=" ">
<polygon fill="white" stroke="#666666" points="248.5,-222 147.5,-222 147.5,-203 248.5,-203 248.5,-222"/>
<text text-anchor="middle" x="198" y="-210" font-family="Helvetica,sans-Serif" font-size="10.00">Rover::ekf_check</text>
</a>
</g>
</g>
<!-- Node7&#45;&gt;Node8 -->
<g id="edge7_Node000007_Node000008" class="edge">
<title>Node7&#45;&gt;Node8</title>
<g id="a_edge7_Node000007_Node000008"><a xlink:title=" ">
<path fill="none" stroke="#63b8ff" d="M290.88,-212.5C276.82,-212.5 262.11,-212.5 248.69,-212.5"/>
<polygon fill="#63b8ff" stroke="#63b8ff" points="290.99,-216 300.99,-212.5 290.99,-209 290.99,-216"/>
</a>
</g>
</g>
<!-- Node10 -->
<g id="Node000010" class="node">
<title>Node10</title>
<g id="a_Node000010"><a xlink:href="classRover.html#a9b38b6c9e3610fb8636d7941e5d748f0" target="_top" xlink:title=" ">
<polygon fill="white" stroke="#666666" points="253,-184.5 143,-184.5 143,-154.5 253,-154.5 253,-184.5"/>
<text text-anchor="start" x="151" y="-172.5" font-family="Helvetica,sans-Serif" font-size="10.00">Rover::gcs_failsafe</text>
<text text-anchor="middle" x="198" y="-161.5" font-family="Helvetica,sans-Serif" font-size="10.00">_check</text>
</a>
</g>
</g>
<!-- Node9&#45;&gt;Node10 -->
<g id="edge9_Node000009_Node000010" class="edge">
<title>Node9&#45;&gt;Node10</title>
<g id="a_edge9_Node000009_Node000010"><a xlink:title=" ">
<path fill="none" stroke="#63b8ff" d="M282.41,-169.5C272.57,-169.5 262.61,-169.5 253.16,-169.5"/>
<polygon fill="#63b8ff" stroke="#63b8ff" points="282.6,-173 292.6,-169.5 282.6,-166 282.6,-173"/>
</a>
</g>
</g>
<!-- Node11 -->
<g id="Node000011" class="node">
<title>Node11</title>
<g id="a_Node000011"><a xlink:href="classRover.html#a7174fbc056d818daf4e28678b5ffaa0b" target="_top" xlink:title=" ">
<polygon fill="white" stroke="#666666" points="257,-136.5 139,-136.5 139,-106.5 257,-106.5 257,-136.5"/>
<text text-anchor="start" x="147" y="-124.5" font-family="Helvetica,sans-Serif" font-size="10.00">Rover::radio_failsafe</text>
<text text-anchor="middle" x="198" y="-113.5" font-family="Helvetica,sans-Serif" font-size="10.00">_check</text>
</a>
</g>
</g>
<!-- Node9&#45;&gt;Node11 -->
<g id="edge10_Node000009_Node000011" class="edge">
<title>Node9&#45;&gt;Node11</title>
<g id="a_edge10_Node000009_Node000011"><a xlink:title=" ">
<path fill="none" stroke="#63b8ff" d="M313.59,-156.87C293.42,-150.64 268.94,-143.09 247.8,-136.56"/>
<polygon fill="#63b8ff" stroke="#63b8ff" points="312.82,-160.3 323.41,-159.9 314.88,-153.61 312.82,-160.3"/>
</a>
</g>
</g>
<!-- Node12 -->
<g id="Node000012" class="node">
<title>Node12</title>
<g id="a_Node000012"><a xlink:href="classRover.html#a6578ee76e373ab207951dff1ffd93d0d" target="_top" xlink:title=" ">
<polygon fill="white" stroke="#666666" points="103,-131 0,-131 0,-112 103,-112 103,-131"/>
<text text-anchor="middle" x="51.5" y="-119" font-family="Helvetica,sans-Serif" font-size="10.00">Rover::read_radio</text>
</a>
</g>
</g>
<!-- Node11&#45;&gt;Node12 -->
<g id="edge11_Node000011_Node000012" class="edge">
<title>Node11&#45;&gt;Node12</title>
<g id="a_edge11_Node000011_Node000012"><a xlink:title=" ">
<path fill="none" stroke="#63b8ff" d="M128.64,-121.5C120.06,-121.5 111.41,-121.5 103.17,-121.5"/>
<polygon fill="#63b8ff" stroke="#63b8ff" points="128.64,-125 138.64,-121.5 128.64,-118 128.64,-125"/>
</a>
</g>
</g>
<!-- Node17&#45;&gt;Node4 -->
<g id="edge18_Node000017_Node000004" class="edge">
<title>Node17&#45;&gt;Node4</title>
<g id="a_edge18_Node000017_Node000004"><a xlink:title=" ">
<path fill="none" stroke="#63b8ff" d="M282.35,-331.5C273.56,-331.5 264.68,-331.5 256.15,-331.5"/>
<polygon fill="#63b8ff" stroke="#63b8ff" points="282.6,-335 292.6,-331.5 282.6,-328 282.6,-335"/>
</a>
</g>
</g>
</g>
</svg>

<g id="navigator" transform="translate(0 0)" fill="#404254">
  <rect fill="#f2f5e9" fill-opacity="0.5" stroke="#606060" stroke-width=".5" x="0" y="0" width="60" height="60"/>
  <use id="zoomplus" xlink:href="#zoomPlus" x="17" y="9" onmousedown="handleZoom(evt,'in')"/>
  <use id="zoomminus" xlink:href="#zoomMin" x="42" y="9" onmousedown="handleZoom(evt,'out')"/>
  <use id="reset" xlink:href="#resetDef" x="30" y="36" onmousedown="handleReset()"/>
   <use id="arrowup" xlink:href="#arrowUp" x="0" y="0" onmousedown="handlePan(0,-1)"/>
  <use id="arrowright" xlink:href="#arrowRight" x="0" y="0" onmousedown="handlePan(1,0)"/>
  <use id="arrowdown" xlink:href="#arrowDown" x="0" y="0" onmousedown="handlePan(0,1)"/>
  <use id="arrowleft" xlink:href="#arrowLeft" x="0" y="0" onmousedown="handlePan(-1,0)"/>
</g>
<svg viewBox="0 0 15 15" width="100%" height="30px" preserveAspectRatio="xMaxYMin meet">
 <g id="arrow_out" transform="scale(0.3 0.3)">
  <a xlink:href="classMode_ae2e4b56b5c43544370beeaacd169ffe6_icgraph_org.svg" target="_base">
   <rect id="button" ry="5" rx="5" y="6" x="6" height="38" width="38"
        fill="#f2f5e9" fill-opacity="0.5" stroke="#606060" stroke-width="1.0"/>
   <path id="arrow"
     d="M 11.500037,31.436501 C 11.940474,20.09759 22.043105,11.32322 32.158766,21.979434 L 37.068811,17.246167 C 37.068811,17.246167 37.088388,32 37.088388,32 L 22.160133,31.978069 C 22.160133,31.978069 26.997745,27.140456 26.997745,27.140456 C 18.528582,18.264221 13.291696,25.230495 11.500037,31.436501 z"
     style="fill:#404040;"/>
  </a>
 </g>
</svg>

<style type='text/css'>
<![CDATA[
[data-mouse-over-selected='false'] { opacity: 0.7; }
[data-mouse-over-selected='true']  { opacity: 1.0; }
]]>
</style>
<script type="application/ecmascript"><![CDATA[
document.addEventListener('DOMContentLoaded', (event) => {
  highlightEdges();
  highlightAdjacentNodes();
});
]]></script>
</svg>
