<?xml version="1.0" encoding="UTF-8" standalone="no"?>
<!DOCTYPE svg PUBLIC "-//W3C//DTD SVG 1.1//EN"
 "http://www.w3.org/Graphics/SVG/1.1/DTD/svg11.dtd">
<!-- Generated by graphviz version 2.43.0 (0)
 -->
<!-- Title: Mode::calc_steering_from_lateral_acceleration Pages: 1 -->
<!--zoomable 161 -->

<svg id="main" version="1.1" xmlns="http://www.w3.org/2000/svg" xmlns:xlink="http://www.w3.org/1999/xlink" xml:space="preserve" onload="init(evt)">
<style type="text/css"><![CDATA[
.node, .edge {opacity: 0.7;}
.node.selected, .edge.selected {opacity: 1;}
.edge:hover path { stroke: red; }
.edge:hover polygon { stroke: red; fill: red; }
]]></style>

<defs>
  <circle id="rim" cx="0" cy="0" r="7"/>
  <circle id="rim2" cx="0" cy="0" r="3.5"/>
  <g id="zoomPlus">
    <use xlink:href="#rim" fill="#404040"><set attributeName="fill" to="#808080" begin="zoomplus.mouseover" end="zoomplus.mouseout"/></use>
    <path d="M-4,0h8M0,-4v8" fill="none" stroke="white" stroke-width="1.5" pointer-events="none"/>
  </g>
  <g id="zoomMin">
    <use xlink:href="#rim" fill="#404040"><set attributeName="fill" to="#808080" begin="zoomminus.mouseover" end="zoomminus.mouseout"/></use>
    <path d="M-4,0h8" fill="none" stroke="white" stroke-width="1.5" pointer-events="none"/>
  </g>
  <g id="arrowUp" transform="translate(30 24)">
    <use xlink:href="#rim"/>
    <path pointer-events="none" fill="none" stroke="white" stroke-width="1.5" d="M0,-3.0v7 M-2.5,-0.5L0,-3.0L2.5,-0.5"/>
  </g>
  <g id="arrowRight" transform="rotate(90) translate(36 -43)">
    <use xlink:href="#rim"/>
    <path pointer-events="none" fill="none" stroke="white" stroke-width="1.5" d="M0,-3.0v7 M-2.5,-0.5L0,-3.0L2.5,-0.5"/>
  </g>
  <g id="arrowDown" transform="rotate(180) translate(-30 -48)">
    <use xlink:href="#rim"/>
    <path pointer-events="none" fill="none" stroke="white" stroke-width="1.5" d="M0,-3.0v7 M-2.5,-0.5L0,-3.0L2.5,-0.5"/>
  </g>
  <g id="arrowLeft" transform="rotate(270) translate(-36 17)">
    <use xlink:href="#rim"/>
    <path pointer-events="none" fill="none" stroke="white" stroke-width="1.5" d="M0,-3.0v7 M-2.5,-0.5L0,-3.0L2.5,-0.5"/>
  </g>
  <g id="resetDef">
    <use xlink:href="#rim2" fill="#404040"><set attributeName="fill" to="#808080" begin="reset.mouseover" end="reset.mouseout"/></use>
  </g>
</defs>
<script type="application/ecmascript">
var viewWidth = 711;
var viewHeight = 161;
var sectionId = 'dynsection-12';
</script>
<script type="application/ecmascript" xlink:href="svg.min.js"/>
<svg id="graph" class="graph">
<g id="viewport">
<title>Mode::calc_steering_from_lateral_acceleration</title>
<!-- Node1 -->
<g id="Node000001" class="node">
<title>Node1</title>
<g id="a_Node000001"><a xlink:title=" ">
<polygon fill="#999999" stroke="#666666" points="147,-104.5 0,-104.5 0,-74.5 147,-74.5 147,-104.5"/>
<text text-anchor="start" x="8" y="-92.5" font-family="Helvetica,sans-Serif" font-size="10.00">Mode::calc_steering</text>
<text text-anchor="middle" x="73.5" y="-81.5" font-family="Helvetica,sans-Serif" font-size="10.00">_from_lateral_acceleration</text>
</a>
</g>
</g>
<!-- Node2 -->
<g id="Node000002" class="node">
<title>Node2</title>
<g id="a_Node000002"><a target="_parent" xlink:href="../libraries/classAR__AttitudeControl.html#aedb2c49f989bc820c8df3a01f8c4d780" xlink:title=" ">
<polygon fill="white" stroke="#666666" points="336,-152.5 183,-152.5 183,-122.5 336,-122.5 336,-152.5"/>
<text text-anchor="start" x="191" y="-140.5" font-family="Helvetica,sans-Serif" font-size="10.00">AR_AttitudeControl</text>
<text text-anchor="middle" x="259.5" y="-129.5" font-family="Helvetica,sans-Serif" font-size="10.00">::get_steering_out_lat_accel</text>
</a>
</g>
</g>
<!-- Node1&#45;&gt;Node2 -->
<g id="edge1_Node000001_Node000002" class="edge">
<title>Node1&#45;&gt;Node2</title>
<g id="a_edge1_Node000001_Node000002"><a xlink:title=" ">
<path fill="none" stroke="#63b8ff" d="M132.21,-104.56C150.88,-109.43 171.75,-114.87 191.06,-119.91"/>
<polygon fill="#63b8ff" stroke="#63b8ff" points="190.43,-123.36 200.99,-122.5 192.2,-116.59 190.43,-123.36"/>
</a>
</g>
</g>
<!-- Node3 -->
<g id="Node000003" class="node">
<title>Node3</title>
<g id="a_Node000003"><a target="_parent" xlink:href="../libraries/classAR__AttitudeControl.html#ab46a990c0951ee4cb9320f16cff30120" xlink:title=" ">
<polygon fill="white" stroke="#666666" points="329,-104.5 190,-104.5 190,-74.5 329,-74.5 329,-104.5"/>
<text text-anchor="start" x="198" y="-92.5" font-family="Helvetica,sans-Serif" font-size="10.00">AR_AttitudeControl</text>
<text text-anchor="middle" x="259.5" y="-81.5" font-family="Helvetica,sans-Serif" font-size="10.00">::get_turn_lat_accel_max</text>
</a>
</g>
</g>
<!-- Node1&#45;&gt;Node3 -->
<g id="edge2_Node000001_Node000003" class="edge">
<title>Node1&#45;&gt;Node3</title>
<g id="a_edge2_Node000001_Node000003"><a xlink:title=" ">
<path fill="none" stroke="#63b8ff" d="M147.22,-89.5C157.88,-89.5 168.9,-89.5 179.67,-89.5"/>
<polygon fill="#63b8ff" stroke="#63b8ff" points="179.9,-93 189.9,-89.5 179.9,-86 179.9,-93"/>
</a>
</g>
</g>
<!-- Node4 -->
<g id="Node000004" class="node">
<title>Node4</title>
<g id="a_Node000004"><a xlink:href="classMode.html#a69f7f315156a3fbce9e29a666a44fbc9" target="_top" xlink:title=" ">
<polygon fill="white" stroke="#666666" points="314.5,-56 204.5,-56 204.5,-37 314.5,-37 314.5,-56"/>
<text text-anchor="middle" x="259.5" y="-44" font-family="Helvetica,sans-Serif" font-size="10.00">Mode::set_steering</text>
</a>
</g>
</g>
<!-- Node1&#45;&gt;Node4 -->
<g id="edge3_Node000001_Node000004" class="edge">
<title>Node1&#45;&gt;Node4</title>
<g id="a_edge3_Node000001_Node000004"><a xlink:title=" ">
<path fill="none" stroke="#63b8ff" d="M138.85,-74.46C161.49,-69.17 186.58,-63.31 207.92,-58.32"/>
<polygon fill="#63b8ff" stroke="#63b8ff" points="208.81,-61.71 217.75,-56.02 207.22,-54.89 208.81,-61.71"/>
</a>
</g>
</g>
<!-- Node5 -->
<g id="Node000005" class="node">
<title>Node5</title>
<g id="a_Node000005"><a xlink:href="classMode.html#a14eb8ebce97480d0a081187882ec7713" target="_top" xlink:title=" ">
<polygon fill="white" stroke="#666666" points="504.5,-104.5 394.5,-104.5 394.5,-74.5 504.5,-74.5 504.5,-104.5"/>
<text text-anchor="start" x="402.5" y="-92.5" font-family="Helvetica,sans-Serif" font-size="10.00">Mode::allows_stick</text>
<text text-anchor="middle" x="449.5" y="-81.5" font-family="Helvetica,sans-Serif" font-size="10.00">_mixing</text>
</a>
</g>
</g>
<!-- Node4&#45;&gt;Node5 -->
<g id="edge4_Node000004_Node000005" class="edge">
<title>Node4&#45;&gt;Node5</title>
<g id="a_edge4_Node000004_Node000005"><a xlink:title=" ">
<path fill="none" stroke="#63b8ff" d="M302.22,-56.04C326.41,-61.57 357.36,-68.65 384.56,-74.87"/>
<polygon fill="#63b8ff" stroke="#63b8ff" points="383.86,-78.31 394.39,-77.12 385.42,-71.48 383.86,-78.31"/>
</a>
</g>
</g>
<!-- Node7 -->
<g id="Node000007" class="node">
<title>Node7</title>
<g id="a_Node000007"><a target="_parent" xlink:href="../libraries/classAP__MotorsUGV.html#ad962f64af80f94519b7e5de9f2973046" xlink:title=" ">
<polygon fill="white" stroke="#666666" points="527,-56 372,-56 372,-37 527,-37 527,-56"/>
<text text-anchor="middle" x="449.5" y="-44" font-family="Helvetica,sans-Serif" font-size="10.00">AP_MotorsUGV::set_steering</text>
</a>
</g>
</g>
<!-- Node4&#45;&gt;Node7 -->
<g id="edge6_Node000004_Node000007" class="edge">
<title>Node4&#45;&gt;Node7</title>
<g id="a_edge6_Node000004_Node000007"><a xlink:title=" ">
<path fill="none" stroke="#63b8ff" d="M314.63,-46.5C329.22,-46.5 345.39,-46.5 361.29,-46.5"/>
<polygon fill="#63b8ff" stroke="#63b8ff" points="361.69,-50 371.69,-46.5 361.69,-43 361.69,-50"/>
</a>
</g>
</g>
<!-- Node8 -->
<g id="Node000008" class="node">
<title>Node8</title>
<g id="a_Node000008"><a target="_parent" xlink:href="../libraries/classRC__Channel.html#a21af37ad6aa36cf876f7c5f8cdfcd7ef" xlink:title=" ">
<polygon fill="white" stroke="#666666" points="521,-19 378,-19 378,0 521,0 521,-19"/>
<text text-anchor="middle" x="449.5" y="-7" font-family="Helvetica,sans-Serif" font-size="10.00">RC_Channel::stick_mixing</text>
</a>
</g>
</g>
<!-- Node4&#45;&gt;Node8 -->
<g id="edge7_Node000004_Node000008" class="edge">
<title>Node4&#45;&gt;Node8</title>
<g id="a_edge7_Node000004_Node000008"><a xlink:title=" ">
<path fill="none" stroke="#63b8ff" d="M308.91,-36.97C333.6,-32.11 363.82,-26.17 389.81,-21.05"/>
<polygon fill="#63b8ff" stroke="#63b8ff" points="390.79,-24.43 399.92,-19.06 389.44,-17.56 390.79,-24.43"/>
</a>
</g>
</g>
<!-- Node6 -->
<g id="Node000006" class="node">
<title>Node6</title>
<g id="a_Node000006"><a xlink:href="classMode.html#aaf3fe35de08bf5fb5922462877b3a6e0" target="_top" xlink:title=" ">
<polygon fill="white" stroke="#666666" points="703,-99 563,-99 563,-80 703,-80 703,-99"/>
<text text-anchor="middle" x="633" y="-87" font-family="Helvetica,sans-Serif" font-size="10.00">Mode::is_autopilot_mode</text>
</a>
</g>
</g>
<!-- Node5&#45;&gt;Node6 -->
<g id="edge5_Node000005_Node000006" class="edge">
<title>Node5&#45;&gt;Node6</title>
<g id="a_edge5_Node000005_Node000006"><a xlink:title=" ">
<path fill="none" stroke="#63b8ff" d="M504.96,-89.5C519.86,-89.5 536.33,-89.5 552.33,-89.5"/>
<polygon fill="#63b8ff" stroke="#63b8ff" points="552.76,-93 562.76,-89.5 552.76,-86 552.76,-93"/>
</a>
</g>
</g>
</g>
</svg>

<g id="navigator" transform="translate(0 0)" fill="#404254">
  <rect fill="#f2f5e9" fill-opacity="0.5" stroke="#606060" stroke-width=".5" x="0" y="0" width="60" height="60"/>
  <use id="zoomplus" xlink:href="#zoomPlus" x="17" y="9" onmousedown="handleZoom(evt,'in')"/>
  <use id="zoomminus" xlink:href="#zoomMin" x="42" y="9" onmousedown="handleZoom(evt,'out')"/>
  <use id="reset" xlink:href="#resetDef" x="30" y="36" onmousedown="handleReset()"/>
   <use id="arrowup" xlink:href="#arrowUp" x="0" y="0" onmousedown="handlePan(0,-1)"/>
  <use id="arrowright" xlink:href="#arrowRight" x="0" y="0" onmousedown="handlePan(1,0)"/>
  <use id="arrowdown" xlink:href="#arrowDown" x="0" y="0" onmousedown="handlePan(0,1)"/>
  <use id="arrowleft" xlink:href="#arrowLeft" x="0" y="0" onmousedown="handlePan(-1,0)"/>
</g>
<svg viewBox="0 0 15 15" width="100%" height="30px" preserveAspectRatio="xMaxYMin meet">
 <g id="arrow_out" transform="scale(0.3 0.3)">
  <a xlink:href="classMode_a188eb831b6bbbafb09435b58c0e16960_cgraph_org.svg" target="_base">
   <rect id="button" ry="5" rx="5" y="6" x="6" height="38" width="38"
        fill="#f2f5e9" fill-opacity="0.5" stroke="#606060" stroke-width="1.0"/>
   <path id="arrow"
     d="M 11.500037,31.436501 C 11.940474,20.09759 22.043105,11.32322 32.158766,21.979434 L 37.068811,17.246167 C 37.068811,17.246167 37.088388,32 37.088388,32 L 22.160133,31.978069 C 22.160133,31.978069 26.997745,27.140456 26.997745,27.140456 C 18.528582,18.264221 13.291696,25.230495 11.500037,31.436501 z"
     style="fill:#404040;"/>
  </a>
 </g>
</svg>

<style type='text/css'>
<![CDATA[
[data-mouse-over-selected='false'] { opacity: 0.7; }
[data-mouse-over-selected='true']  { opacity: 1.0; }
]]>
</style>
<script type="application/ecmascript"><![CDATA[
document.addEventListener('DOMContentLoaded', (event) => {
  highlightEdges();
  highlightAdjacentNodes();
});
]]></script>
</svg>
