<?xml version="1.0" encoding="UTF-8" standalone="no"?>
<!DOCTYPE svg PUBLIC "-//W3C//DTD SVG 1.1//EN"
 "http://www.w3.org/Graphics/SVG/1.1/DTD/svg11.dtd">
<!-- Generated by graphviz version 2.43.0 (0)
 -->
<!-- Title: Mode::calc_steering_from_turn_rate Pages: 1 -->
<svg width="654pt" height="113pt"
 viewBox="0.00 0.00 654.00 112.50" xmlns="http://www.w3.org/2000/svg" xmlns:xlink="http://www.w3.org/1999/xlink">
<g id="graph0" class="graph" transform="scale(1 1) rotate(0) translate(4 108.5)">
<title>Mode::calc_steering_from_turn_rate</title>
<!-- Node1 -->
<g id="Node000001" class="node">
<title>Node1</title>
<g id="a_Node000001"><a xlink:title=" ">
<polygon fill="#999999" stroke="#666666" points="114,-82.5 0,-82.5 0,-52.5 114,-52.5 114,-82.5"/>
<text text-anchor="start" x="8" y="-70.5" font-family="Helvetica,sans-Serif" font-size="10.00">Mode::calc_steering</text>
<text text-anchor="middle" x="57" y="-59.5" font-family="Helvetica,sans-Serif" font-size="10.00">_from_turn_rate</text>
</a>
</g>
</g>
<!-- Node2 -->
<g id="Node000002" class="node">
<title>Node2</title>
<g id="a_Node000002"><a target="_parent" xlink:href="../libraries/classAR__AttitudeControl.html#a1fc75455078aaf1f936c483013f96a2b" xlink:title=" ">
<polygon fill="white" stroke="#666666" points="279,-104.5 150,-104.5 150,-74.5 279,-74.5 279,-104.5"/>
<text text-anchor="start" x="158" y="-92.5" font-family="Helvetica,sans-Serif" font-size="10.00">AR_AttitudeControl</text>
<text text-anchor="middle" x="214.5" y="-81.5" font-family="Helvetica,sans-Serif" font-size="10.00">::get_steering_out_rate</text>
</a>
</g>
</g>
<!-- Node1&#45;&gt;Node2 -->
<g id="edge1_Node000001_Node000002" class="edge">
<title>Node1&#45;&gt;Node2</title>
<g id="a_edge1_Node000001_Node000002"><a xlink:title=" ">
<path fill="none" stroke="#63b8ff" d="M114.14,-75.44C122.46,-76.62 131.13,-77.85 139.74,-79.06"/>
<polygon fill="#63b8ff" stroke="#63b8ff" points="139.4,-82.55 149.79,-80.49 140.38,-75.62 139.4,-82.55"/>
</a>
</g>
</g>
<!-- Node3 -->
<g id="Node000003" class="node">
<title>Node3</title>
<g id="a_Node000003"><a xlink:href="classMode.html#a69f7f315156a3fbce9e29a666a44fbc9" target="_top" xlink:title=" ">
<polygon fill="white" stroke="#666666" points="269.5,-56 159.5,-56 159.5,-37 269.5,-37 269.5,-56"/>
<text text-anchor="middle" x="214.5" y="-44" font-family="Helvetica,sans-Serif" font-size="10.00">Mode::set_steering</text>
</a>
</g>
</g>
<!-- Node1&#45;&gt;Node3 -->
<g id="edge2_Node000001_Node000003" class="edge">
<title>Node1&#45;&gt;Node3</title>
<g id="a_edge2_Node000001_Node000003"><a xlink:title=" ">
<path fill="none" stroke="#63b8ff" d="M114.14,-59.92C125.51,-58.38 137.55,-56.76 149.18,-55.19"/>
<polygon fill="#63b8ff" stroke="#63b8ff" points="149.82,-58.63 159.26,-53.82 148.89,-51.69 149.82,-58.63"/>
</a>
</g>
</g>
<!-- Node4 -->
<g id="Node000004" class="node">
<title>Node4</title>
<g id="a_Node000004"><a xlink:href="classMode.html#a14eb8ebce97480d0a081187882ec7713" target="_top" xlink:title=" ">
<polygon fill="white" stroke="#666666" points="447.5,-104.5 337.5,-104.5 337.5,-74.5 447.5,-74.5 447.5,-104.5"/>
<text text-anchor="start" x="345.5" y="-92.5" font-family="Helvetica,sans-Serif" font-size="10.00">Mode::allows_stick</text>
<text text-anchor="middle" x="392.5" y="-81.5" font-family="Helvetica,sans-Serif" font-size="10.00">_mixing</text>
</a>
</g>
</g>
<!-- Node3&#45;&gt;Node4 -->
<g id="edge3_Node000003_Node000004" class="edge">
<title>Node3&#45;&gt;Node4</title>
<g id="a_edge3_Node000003_Node000004"><a xlink:title=" ">
<path fill="none" stroke="#63b8ff" d="M254.56,-56.04C275.92,-61.26 302.93,-67.86 327.3,-73.81"/>
<polygon fill="#63b8ff" stroke="#63b8ff" points="326.65,-77.26 337.2,-76.23 328.31,-70.46 326.65,-77.26"/>
</a>
</g>
</g>
<!-- Node6 -->
<g id="Node000006" class="node">
<title>Node6</title>
<g id="a_Node000006"><a target="_parent" xlink:href="../libraries/classAP__MotorsUGV.html#ad962f64af80f94519b7e5de9f2973046" xlink:title=" ">
<polygon fill="white" stroke="#666666" points="470,-56 315,-56 315,-37 470,-37 470,-56"/>
<text text-anchor="middle" x="392.5" y="-44" font-family="Helvetica,sans-Serif" font-size="10.00">AP_MotorsUGV::set_steering</text>
</a>
</g>
</g>
<!-- Node3&#45;&gt;Node6 -->
<g id="edge5_Node000003_Node000006" class="edge">
<title>Node3&#45;&gt;Node6</title>
<g id="a_edge5_Node000003_Node000006"><a xlink:title=" ">
<path fill="none" stroke="#63b8ff" d="M269.74,-46.5C280.87,-46.5 292.84,-46.5 304.79,-46.5"/>
<polygon fill="#63b8ff" stroke="#63b8ff" points="304.79,-50 314.79,-46.5 304.79,-43 304.79,-50"/>
</a>
</g>
</g>
<!-- Node7 -->
<g id="Node000007" class="node">
<title>Node7</title>
<g id="a_Node000007"><a target="_parent" xlink:href="../libraries/classRC__Channel.html#a21af37ad6aa36cf876f7c5f8cdfcd7ef" xlink:title=" ">
<polygon fill="white" stroke="#666666" points="464,-19 321,-19 321,0 464,0 464,-19"/>
<text text-anchor="middle" x="392.5" y="-7" font-family="Helvetica,sans-Serif" font-size="10.00">RC_Channel::stick_mixing</text>
</a>
</g>
</g>
<!-- Node3&#45;&gt;Node7 -->
<g id="edge6_Node000003_Node000007" class="edge">
<title>Node3&#45;&gt;Node7</title>
<g id="a_edge6_Node000003_Node000007"><a xlink:title=" ">
<path fill="none" stroke="#63b8ff" d="M260.82,-36.97C283.83,-32.14 311.97,-26.22 336.24,-21.12"/>
<polygon fill="#63b8ff" stroke="#63b8ff" points="336.96,-24.54 346.02,-19.06 335.52,-17.69 336.96,-24.54"/>
</a>
</g>
</g>
<!-- Node5 -->
<g id="Node000005" class="node">
<title>Node5</title>
<g id="a_Node000005"><a xlink:href="classMode.html#aaf3fe35de08bf5fb5922462877b3a6e0" target="_top" xlink:title=" ">
<polygon fill="white" stroke="#666666" points="646,-99 506,-99 506,-80 646,-80 646,-99"/>
<text text-anchor="middle" x="576" y="-87" font-family="Helvetica,sans-Serif" font-size="10.00">Mode::is_autopilot_mode</text>
</a>
</g>
</g>
<!-- Node4&#45;&gt;Node5 -->
<g id="edge4_Node000004_Node000005" class="edge">
<title>Node4&#45;&gt;Node5</title>
<g id="a_edge4_Node000004_Node000005"><a xlink:title=" ">
<path fill="none" stroke="#63b8ff" d="M447.96,-89.5C462.86,-89.5 479.33,-89.5 495.33,-89.5"/>
<polygon fill="#63b8ff" stroke="#63b8ff" points="495.76,-93 505.76,-89.5 495.76,-86 495.76,-93"/>
</a>
</g>
</g>
</g>
</svg>
