<?xml version="1.0" encoding="UTF-8" standalone="no"?>
<!DOCTYPE svg PUBLIC "-//W3C//DTD SVG 1.1//EN"
 "http://www.w3.org/Graphics/SVG/1.1/DTD/svg11.dtd">
<!-- Generated by graphviz version 2.43.0 (0)
 -->
<!-- Title: ModeGuided::start_loiter Pages: 1 -->
<svg width="299pt" height="64pt"
 viewBox="0.00 0.00 299.00 64.00" xmlns="http://www.w3.org/2000/svg" xmlns:xlink="http://www.w3.org/1999/xlink">
<g id="graph0" class="graph" transform="scale(1 1) rotate(0) translate(4 60)">
<title>ModeGuided::start_loiter</title>
<!-- Node1 -->
<g id="Node000001" class="node">
<title>Node1</title>
<g id="a_Node000001"><a xlink:title=" ">
<polygon fill="#999999" stroke="#666666" points="291,-37 154,-37 154,-18 291,-18 291,-37"/>
<text text-anchor="middle" x="222.5" y="-25" font-family="Helvetica,sans-Serif" font-size="10.00">ModeGuided::start_loiter</text>
</a>
</g>
</g>
<!-- Node2 -->
<g id="Node000002" class="node">
<title>Node2</title>
<g id="a_Node000002"><a xlink:href="classModeGuided.html#a9941db4f897600c868630fa3b54b241d" target="_top" xlink:title=" ">
<polygon fill="white" stroke="#666666" points="116.5,-56 1.5,-56 1.5,-37 116.5,-37 116.5,-56"/>
<text text-anchor="middle" x="59" y="-44" font-family="Helvetica,sans-Serif" font-size="10.00">ModeGuided::_enter</text>
</a>
</g>
</g>
<!-- Node1&#45;&gt;Node2 -->
<g id="edge1_Node000001_Node000002" class="edge">
<title>Node1&#45;&gt;Node2</title>
<g id="a_edge1_Node000001_Node000002"><a xlink:title=" ">
<path fill="none" stroke="#63b8ff" d="M143.96,-36.62C134.71,-37.71 125.41,-38.8 116.54,-39.85"/>
<polygon fill="#63b8ff" stroke="#63b8ff" points="144.42,-40.09 153.95,-35.45 143.6,-33.14 144.42,-40.09"/>
</a>
</g>
</g>
<!-- Node3 -->
<g id="Node000003" class="node">
<title>Node3</title>
<g id="a_Node000003"><a xlink:href="classModeGuided.html#af4257d14a75f566998ef6ea93aa6e096" target="_top" xlink:title=" ">
<polygon fill="white" stroke="#666666" points="118,-19 0,-19 0,0 118,0 118,-19"/>
<text text-anchor="middle" x="59" y="-7" font-family="Helvetica,sans-Serif" font-size="10.00">ModeGuided::update</text>
</a>
</g>
</g>
<!-- Node1&#45;&gt;Node3 -->
<g id="edge2_Node000001_Node000003" class="edge">
<title>Node1&#45;&gt;Node3</title>
<g id="a_edge2_Node000001_Node000003"><a xlink:title=" ">
<path fill="none" stroke="#63b8ff" d="M143.81,-18.84C135.14,-17.87 126.42,-16.9 118.06,-15.97"/>
<polygon fill="#63b8ff" stroke="#63b8ff" points="143.62,-22.34 153.95,-19.97 144.39,-15.38 143.62,-22.34"/>
</a>
</g>
</g>
</g>
</svg>
